# https://github.com/mikedh/trimesh

o F_LeftLink_1.stl
v -89.37245941 23.27753639 56.43675232
v -89.41078949 22.61626816 56.50000000
v -89.41078949 22.61626816 55.50000000
v -89.41078949 22.61626816 55.50000000
v -89.41078949 22.61626816 56.50000000
v -89.44912720 21.95499802 56.43675232
v -89.41078949 22.61626816 55.50000000
v -89.44912720 21.95499802 56.43675232
v -89.44298553 22.06089783 55.43732071
v -89.44298553 22.06089783 55.43732071
v -89.44912720 21.95499802 56.43675232
v -89.48607635 21.31762886 56.24929047
v -89.44298553 22.06089783 55.43732071
v -89.48607635 21.31762886 56.24929047
v -89.47356415 21.53337669 55.25242233
v -89.47356415 21.53337669 55.25242233
v -89.48607635 21.31762886 56.24929047
v -89.52030182 20.72719574 55.94438934
v -89.47356415 21.53337669 55.25242233
v -89.52030182 20.72719574 55.94438934
v -89.50099945 21.06015587 54.95457840
v -89.50099945 21.06015587 54.95457840
v -89.52030182 20.72719574 55.94438934
v -89.55056763 20.20503998 55.53306961
v -89.50099945 21.06015587 54.95457840
v -89.55056763 20.20503998 55.53306961
v -89.52391052 20.66496468 54.55872345
v -89.52391052 20.66496468 54.55872345
v -89.55056763 20.20503998 55.53306961
v -89.57579041 19.77003098 55.03020096
v -89.52391052 20.66496468 54.55872345
v -89.57579041 19.77003098 55.03020096
v -89.54114532 20.36762047 54.08470917
v -89.54114532 20.36762047 54.08470917
v -89.57579041 19.77003098 55.03020096
v -89.59503937 19.43789101 54.45395279
v -89.54114532 20.36762047 54.08470917
v -89.59503937 19.43789101 54.45395279
v -89.55184937 20.18303299 53.55630112
v -89.55184937 20.18303299 53.55630112
v -89.59503937 19.43789101 54.45395279
v -89.60763550 19.22062874 53.82515717
v -89.55184937 20.18303299 53.55630112
v -89.60763550 19.22062874 53.82515717
v -89.61311340 19.12609100 53.16653824
v -89.55184937 20.18303299 53.55630112
v -89.61311340 19.12609100 53.16653824
v -89.55547333 20.12045670 53.00000000
v -89.55547333 20.12045670 53.00000000
v -89.61311340 19.12609100 53.16653824
v -89.61128235 19.15769958 52.50189972
v -89.55547333 20.12045670 53.00000000
v -89.61128235 19.15769958 52.50189972
v -89.55184937 20.18303299 52.44369888
v -89.55184937 20.18303299 52.44369888
v -89.61128235 19.15769958 52.50189972
v -89.60220337 19.31430817 51.85526276
v -89.55184937 20.18303299 52.44369888
v -89.60220337 19.31430817 51.85526276
v -89.54114532 20.36762047 51.91529083
v -89.54114532 20.36762047 51.91529083
v -89.60220337 19.31430817 51.85526276
v -89.58621216 19.59025955 51.25000000
v -89.54114532 20.36762047 51.91529083
v -89.58621216 19.59025955 51.25000000
v -89.52391052 20.66496468 51.44127655
v -89.52391052 20.66496468 51.44127655
v -89.58621216 19.59025955 51.25000000
v -89.56387329 19.97557831 50.70798874
v -89.52391052 20.66496468 51.44127655
v -89.56387329 19.97557831 50.70798874
v -89.50099945 21.06015587 51.04542160
v -89.50099945 21.06015587 51.04542160
v -89.56387329 19.97557831 50.70798874
v -89.53600311 20.45633698 50.24881363
v -89.50099945 21.06015587 51.04542160
v -89.53600311 20.45633698 50.24881363
v -89.50360870 21.01516342 49.88907623
v -89.50099945 21.06015587 51.04542160
v -89.50360870 21.01516342 49.88907623
v -89.47356415 21.53337669 50.74757767
v -89.47356415 21.53337669 50.74757767
v -89.50360870 21.01516342 49.88907623
v -89.46785736 21.63185692 49.64177704
v -89.47356415 21.53337669 50.74757767
v -89.46785736 21.63185692 49.64177704
v -89.44298553 22.06089783 50.56267929
v -89.44298553 22.06089783 50.56267929
v -89.46785736 21.63185692 49.64177704
v -89.43004608 22.28413010 49.51585007
v -89.44298553 22.06089783 50.56267929
v -89.43004608 22.28413010 49.51585007
v -89.41078949 22.61626816 50.50000000
v -89.41078949 22.61626816 50.50000000
v -89.43004608 22.28413010 49.51585007
v -89.39154053 22.94840622 49.51585007
v -89.41078949 22.61626816 50.50000000
v -89.39154053 22.94840622 49.51585007
v -89.37859344 23.17163849 50.56267929
v -89.37859344 23.17163849 50.56267929
v -89.39154053 22.94840622 49.51585007
v -89.35372162 23.60067940 49.64177704
v -89.37859344 23.17163849 50.56267929
v -89.35372162 23.60067940 49.64177704
v -89.34801483 23.69915962 50.74757767
v -89.34801483 23.69915962 50.74757767
v -89.35372162 23.60067940 49.64177704
v -89.31797791 24.21737289 49.88907623
v -89.34801483 23.69915962 50.74757767
v -89.31797791 24.21737289 49.88907623
v -89.32058716 24.17238045 51.04542160
v -89.32058716 24.17238045 51.04542160
v -89.31797791 24.21737289 49.88907623
v -89.28558350 24.77619743 50.24881363
v -89.32058716 24.17238045 51.04542160
v -89.28558350 24.77619743 50.24881363
v -89.25771332 25.25695801 50.70798874
v -89.32058716 24.17238045 51.04542160
v -89.25771332 25.25695801 50.70798874
v -89.29767609 24.56756973 51.44127655
v -89.29767609 24.56756973 51.44127655
v -89.25771332 25.25695801 50.70798874
v -89.23537445 25.64227676 51.25000000
v -89.29767609 24.56756973 51.44127655
v -89.23537445 25.64227676 51.25000000
v -89.28043365 24.86491394 51.91529083
v -89.28043365 24.86491394 51.91529083
v -89.23537445 25.64227676 51.25000000
v -89.21937561 25.91822624 51.85526276
v -89.28043365 24.86491394 51.91529083
v -89.21937561 25.91822624 51.85526276
v -89.26973724 25.04950142 52.44369888
v -89.26973724 25.04950142 52.44369888
v -89.21937561 25.91822624 51.85526276
v -89.21029663 26.07483673 52.50189972
v -89.26973724 25.04950142 52.44369888
v -89.21029663 26.07483673 52.50189972
v -89.26610565 25.11207771 53.00000000
v -89.26610565 25.11207771 53.00000000
v -89.21029663 26.07483673 52.50189972
v -89.20846558 26.10644341 53.16653824
v -89.26610565 25.11207771 53.00000000
v -89.20846558 26.10644341 53.16653824
v -89.26973724 25.04950142 53.55630112
v -89.26973724 25.04950142 53.55630112
v -89.20846558 26.10644341 53.16653824
v -89.21394348 26.01190758 53.82515717
v -89.26973724 25.04950142 53.55630112
v -89.21394348 26.01190758 53.82515717
v -89.22653961 25.79464340 54.45395279
v -89.26973724 25.04950142 53.55630112
v -89.22653961 25.79464340 54.45395279
v -89.28043365 24.86491394 54.08470917
v -89.28043365 24.86491394 54.08470917
v -89.22653961 25.79464340 54.45395279
v -89.24579620 25.46250534 55.03020096
v -89.28043365 24.86491394 54.08470917
v -89.24579620 25.46250534 55.03020096
v -89.29767609 24.56756973 54.55872345
v -89.29767609 24.56756973 54.55872345
v -89.24579620 25.46250534 55.03020096
v -89.27101135 25.02749634 55.53306961
v -89.29767609 24.56756973 54.55872345
v -89.27101135 25.02749634 55.53306961
v -89.32058716 24.17237854 54.95457840
v -89.32058716 24.17237854 54.95457840
v -89.27101135 25.02749634 55.53306961
v -89.30128479 24.50533867 55.94438934
v -89.32058716 24.17237854 54.95457840
v -89.30128479 24.50533867 55.94438934
v -89.34801483 23.69915771 55.25242233
v -89.34801483 23.69915771 55.25242233
v -89.30128479 24.50533867 55.94438934
v -89.33551025 23.91490555 56.24929047
v -89.34801483 23.69915771 55.25242233
v -89.33551025 23.91490555 56.24929047
v -89.37859344 23.17163658 55.43732071
v -89.37859344 23.17163658 55.43732071
v -89.33551025 23.91490555 56.24929047
v -89.37245941 23.27753639 56.43675232
v -89.37859344 23.17163658 55.43732071
v -89.37245941 23.27753639 56.43675232
v -89.41078949 22.61626816 55.50000000
v -88.45079803 21.89712524 56.43675232
v -89.41078949 22.61626816 56.50000000
v -88.41246796 22.55839539 56.50000000
v -88.41246796 22.55839539 56.50000000
v -89.41078949 22.61626816 56.50000000
v -89.37245941 23.27753639 56.43675232
v -88.41246796 22.55839539 56.50000000
v -89.37245941 23.27753639 56.43675232
v -88.37413025 23.21966362 56.43675232
v -88.37413025 23.21966362 56.43675232
v -89.37245941 23.27753639 56.43675232
v -89.33551025 23.91490555 56.24929047
v -88.37413025 23.21966362 56.43675232
v -89.33551025 23.91490555 56.24929047
v -88.33718872 23.85703278 56.24929047
v -88.33718872 23.85703278 56.24929047
v -89.33551025 23.91490555 56.24929047
v -89.30128479 24.50533867 55.94438934
v -88.33718872 23.85703278 56.24929047
v -89.30128479 24.50533867 55.94438934
v -88.30295563 24.44746590 55.94438934
v -88.30295563 24.44746590 55.94438934
v -89.30128479 24.50533867 55.94438934
v -89.27101135 25.02749634 55.53306961
v -88.30295563 24.44746590 55.94438934
v -89.27101135 25.02749634 55.53306961
v -88.27268982 24.96962357 55.53306961
v -88.27268982 24.96962357 55.53306961
v -89.27101135 25.02749634 55.53306961
v -89.24579620 25.46250534 55.03020096
v -88.27268982 24.96962357 55.53306961
v -89.24579620 25.46250534 55.03020096
v -88.24747467 25.40463257 55.03020096
v -88.24747467 25.40463257 55.03020096
v -89.24579620 25.46250534 55.03020096
v -89.22653961 25.79464340 54.45395279
v -88.24747467 25.40463257 55.03020096
v -89.22653961 25.79464340 54.45395279
v -88.22821808 25.73677063 54.45395279
v -88.22821808 25.73677063 54.45395279
v -89.22653961 25.79464340 54.45395279
v -89.21394348 26.01190758 53.82515717
v -88.22821808 25.73677063 54.45395279
v -89.21394348 26.01190758 53.82515717
v -88.21562195 25.95403481 53.82515717
v -88.21562195 25.95403481 53.82515717
v -89.21394348 26.01190758 53.82515717
v -89.20846558 26.10644341 53.16653824
v -88.21562195 25.95403481 53.82515717
v -89.20846558 26.10644341 53.16653824
v -88.21014404 26.04857063 53.16653824
v -88.21014404 26.04857063 53.16653824
v -89.20846558 26.10644341 53.16653824
v -89.21029663 26.07483673 52.50189972
v -88.21014404 26.04857063 53.16653824
v -89.21029663 26.07483673 52.50189972
v -88.21197510 26.01696396 52.50189972
v -88.21197510 26.01696396 52.50189972
v -89.21029663 26.07483673 52.50189972
v -89.21937561 25.91822624 51.85526276
v -88.21197510 26.01696396 52.50189972
v -89.21937561 25.91822624 51.85526276
v -88.22105408 25.86035347 51.85526276
v -88.22105408 25.86035347 51.85526276
v -89.21937561 25.91822624 51.85526276
v -89.23537445 25.64227676 51.25000000
v -88.22105408 25.86035347 51.85526276
v -89.23537445 25.64227676 51.25000000
v -88.23705292 25.58440399 51.25000000
v -88.23705292 25.58440399 51.25000000
v -89.23537445 25.64227676 51.25000000
v -89.25771332 25.25695801 50.70798874
v -88.23705292 25.58440399 51.25000000
v -89.25771332 25.25695801 50.70798874
v -88.25938416 25.19908524 50.70798874
v -88.25938416 25.19908524 50.70798874
v -89.25771332 25.25695801 50.70798874
v -89.28558350 24.77619743 50.24881363
v -88.25938416 25.19908524 50.70798874
v -89.28558350 24.77619743 50.24881363
v -88.28725433 24.71832466 50.24881363
v -88.28725433 24.71832466 50.24881363
v -89.28558350 24.77619743 50.24881363
v -89.31797791 24.21737289 49.88907623
v -88.28725433 24.71832466 50.24881363
v -89.31797791 24.21737289 49.88907623
v -88.31964874 24.15950012 49.88907623
v -88.31964874 24.15950012 49.88907623
v -89.31797791 24.21737289 49.88907623
v -89.35372162 23.60067940 49.64177704
v -88.31964874 24.15950012 49.88907623
v -89.35372162 23.60067940 49.64177704
v -88.35540009 23.54280663 49.64177704
v -88.35540009 23.54280663 49.64177704
v -89.35372162 23.60067940 49.64177704
v -89.39154053 22.94840622 49.51585007
v -88.35540009 23.54280663 49.64177704
v -89.39154053 22.94840622 49.51585007
v -88.39321136 22.89053345 49.51585007
v -88.39321136 22.89053345 49.51585007
v -89.39154053 22.94840622 49.51585007
v -89.43004608 22.28413010 49.51585007
v -88.39321136 22.89053345 49.51585007
v -89.43004608 22.28413010 49.51585007
v -88.43172455 22.22625542 49.51585007
v -88.43172455 22.22625542 49.51585007
v -89.43004608 22.28413010 49.51585007
v -89.46785736 21.63185692 49.64177704
v -88.43172455 22.22625542 49.51585007
v -89.46785736 21.63185692 49.64177704
v -88.46953583 21.57398415 49.64177704
v -88.46953583 21.57398415 49.64177704
v -89.46785736 21.63185692 49.64177704
v -89.50360870 21.01516342 49.88907623
v -88.46953583 21.57398415 49.64177704
v -89.50360870 21.01516342 49.88907623
v -88.50527954 20.95729065 49.88907623
v -88.50527954 20.95729065 49.88907623
v -89.50360870 21.01516342 49.88907623
v -89.53600311 20.45633698 50.24881363
v -88.50527954 20.95729065 49.88907623
v -89.53600311 20.45633698 50.24881363
v -88.53768158 20.39846420 50.24881363
v -88.53768158 20.39846420 50.24881363
v -89.53600311 20.45633698 50.24881363
v -89.56387329 19.97557831 50.70798874
v -88.53768158 20.39846420 50.24881363
v -89.56387329 19.97557831 50.70798874
v -88.56555176 19.91770554 50.70798874
v -88.56555176 19.91770554 50.70798874
v -89.56387329 19.97557831 50.70798874
v -89.58621216 19.59025955 51.25000000
v -88.56555176 19.91770554 50.70798874
v -89.58621216 19.59025955 51.25000000
v -88.58788300 19.53238678 51.25000000
v -88.58788300 19.53238678 51.25000000
v -89.58621216 19.59025955 51.25000000
v -89.60220337 19.31430817 51.85526276
v -88.58788300 19.53238678 51.25000000
v -89.60220337 19.31430817 51.85526276
v -88.60388184 19.25643539 51.85526276
v -88.60388184 19.25643539 51.85526276
v -89.60220337 19.31430817 51.85526276
v -89.61128235 19.15769958 52.50189972
v -88.60388184 19.25643539 51.85526276
v -89.61128235 19.15769958 52.50189972
v -88.61296082 19.09982681 52.50189972
v -88.61296082 19.09982681 52.50189972
v -89.61128235 19.15769958 52.50189972
v -89.61311340 19.12609100 53.16653824
v -88.61296082 19.09982681 52.50189972
v -89.61311340 19.12609100 53.16653824
v -88.61479187 19.06821823 53.16653824
v -88.61479187 19.06821823 53.16653824
v -89.61311340 19.12609100 53.16653824
v -89.60763550 19.22062874 53.82515717
v -88.61479187 19.06821823 53.16653824
v -89.60763550 19.22062874 53.82515717
v -88.60931396 19.16275597 53.82515717
v -88.60931396 19.16275597 53.82515717
v -89.60763550 19.22062874 53.82515717
v -89.59503937 19.43789101 54.45395279
v -88.60931396 19.16275597 53.82515717
v -89.59503937 19.43789101 54.45395279
v -88.59671783 19.38001823 54.45395279
v -88.59671783 19.38001823 54.45395279
v -89.59503937 19.43789101 54.45395279
v -89.57579041 19.77003098 55.03020096
v -88.59671783 19.38001823 54.45395279
v -89.57579041 19.77003098 55.03020096
v -88.57746124 19.71215820 55.03020096
v -88.57746124 19.71215820 55.03020096
v -89.57579041 19.77003098 55.03020096
v -89.55056763 20.20503998 55.53306961
v -88.57746124 19.71215820 55.03020096
v -89.55056763 20.20503998 55.53306961
v -88.55224609 20.14716721 55.53306961
v -88.55224609 20.14716721 55.53306961
v -89.55056763 20.20503998 55.53306961
v -89.52030182 20.72719574 55.94438934
v -88.55224609 20.14716721 55.53306961
v -89.52030182 20.72719574 55.94438934
v -88.52198029 20.66932297 55.94438934
v -88.52198029 20.66932297 55.94438934
v -89.52030182 20.72719574 55.94438934
v -89.48607635 21.31762886 56.24929047
v -88.52198029 20.66932297 55.94438934
v -89.48607635 21.31762886 56.24929047
v -88.48774719 21.25975609 56.24929047
v -88.48774719 21.25975609 56.24929047
v -89.48607635 21.31762886 56.24929047
v -89.44912720 21.95499802 56.43675232
v -88.48774719 21.25975609 56.24929047
v -89.44912720 21.95499802 56.43675232
v -88.45079803 21.89712524 56.43675232
v -88.45079803 21.89712524 56.43675232
v -89.44912720 21.95499802 56.43675232
v -89.41078949 22.61626816 56.50000000
v -92.44409943 22.12861633 56.43675232
v -92.40576172 22.78988647 56.50000000
v -92.40576172 22.78988647 55.50000000
v -92.40576172 22.78988647 55.50000000
v -92.40576172 22.78988647 56.50000000
v -92.36743164 23.45115471 56.43675232
v -92.40576172 22.78988647 55.50000000
v -92.36743164 23.45115471 56.43675232
v -92.37356567 23.34525681 55.43732071
v -92.37356567 23.34525681 55.43732071
v -92.36743164 23.45115471 56.43675232
v -92.33048248 24.08852386 56.24928665
v -92.37356567 23.34525681 55.43732071
v -92.33048248 24.08852386 56.24928665
v -92.34298706 23.87277794 55.25242233
v -92.34298706 23.87277794 55.25242233
v -92.33048248 24.08852386 56.24928665
v -92.29625702 24.67895699 55.94438553
v -92.34298706 23.87277794 55.25242233
v -92.29625702 24.67895699 55.94438553
v -92.31555176 24.34599876 54.95457840
v -92.31555176 24.34599876 54.95457840
v -92.29625702 24.67895699 55.94438553
v -92.26598358 25.20111465 55.53306961
v -92.31555176 24.34599876 54.95457840
v -92.26598358 25.20111465 55.53306961
v -92.29264832 24.74118805 54.55872345
v -92.29264832 24.74118805 54.55872345
v -92.26598358 25.20111465 55.53306961
v -92.24076843 25.63612366 55.03020096
v -92.29264832 24.74118805 54.55872345
v -92.24076843 25.63612366 55.03020096
v -92.27540588 25.03853226 54.08470917
v -92.27540588 25.03853226 54.08470917
v -92.24076843 25.63612366 55.03020096
v -92.22151184 25.96826172 54.45395279
v -92.27540588 25.03853226 54.08470917
v -92.22151184 25.96826172 54.45395279
v -92.26470947 25.22311974 53.55630112
v -92.26470947 25.22311974 53.55630112
v -92.22151184 25.96826172 54.45395279
v -92.20891571 26.18552589 53.82515717
v -92.26470947 25.22311974 53.55630112
v -92.20891571 26.18552589 53.82515717
v -92.20343781 26.28006172 53.16653824
v -92.26470947 25.22311974 53.55630112
v -92.20343781 26.28006172 53.16653824
v -92.26107788 25.28569603 53.00000000
v -92.26107788 25.28569603 53.00000000
v -92.20343781 26.28006172 53.16653824
v -92.20526886 26.24845505 52.50189972
v -92.26107788 25.28569603 53.00000000
v -92.20526886 26.24845505 52.50189972
v -92.26470947 25.22311974 52.44369888
v -92.26470947 25.22311974 52.44369888
v -92.20526886 26.24845505 52.50189972
v -92.21434784 26.09184456 51.85526276
v -92.26470947 25.22311974 52.44369888
v -92.21434784 26.09184456 51.85526276
v -92.27540588 25.03853226 51.91529083
v -92.27540588 25.03853226 51.91529083
v -92.21434784 26.09184456 51.85526276
v -92.23034668 25.81589508 51.25000000
v -92.27540588 25.03853226 51.91529083
v -92.23034668 25.81589508 51.25000000
v -92.29264832 24.74118805 51.44127655
v -92.29264832 24.74118805 51.44127655
v -92.23034668 25.81589508 51.25000000
v -92.25268555 25.43057632 50.70798874
v -92.29264832 24.74118805 51.44127655
v -92.25268555 25.43057632 50.70798874
v -92.31555176 24.34599876 51.04542160
v -92.31555176 24.34599876 51.04542160
v -92.25268555 25.43057632 50.70798874
v -92.28055573 24.94981575 50.24881363
v -92.31555176 24.34599876 51.04542160
v -92.28055573 24.94981575 50.24881363
v -92.31295013 24.39099121 49.88907623
v -92.31555176 24.34599876 51.04542160
v -92.31295013 24.39099121 49.88907623
v -92.34298706 23.87277794 50.74757767
v -92.34298706 23.87277794 50.74757767
v -92.31295013 24.39099121 49.88907623
v -92.34869385 23.77429771 49.64177322
v -92.34298706 23.87277794 50.74757767
v -92.34869385 23.77429771 49.64177322
v -92.37356567 23.34525681 50.56267929
v -92.37356567 23.34525681 50.56267929
v -92.34869385 23.77429771 49.64177322
v -92.38651276 23.12202454 49.51585007
v -92.37356567 23.34525681 50.56267929
v -92.38651276 23.12202454 49.51585007
v -92.40576172 22.78988647 50.50000000
v -92.40576172 22.78988647 50.50000000
v -92.38651276 23.12202454 49.51585007
v -92.42501831 22.45774651 49.51585007
v -92.40576172 22.78988647 50.50000000
v -92.42501831 22.45774651 49.51585007
v -92.43795776 22.23451614 50.56267929
v -92.43795776 22.23451614 50.56267929
v -92.42501831 22.45774651 49.51585007
v -92.46282959 21.80547523 49.64177322
v -92.43795776 22.23451614 50.56267929
v -92.46282959 21.80547523 49.64177322
v -92.46853638 21.70699501 50.74757767
v -92.46853638 21.70699501 50.74757767
v -92.46282959 21.80547523 49.64177322
v -92.49858093 21.18878174 49.88907623
v -92.46853638 21.70699501 50.74757767
v -92.49858093 21.18878174 49.88907623
v -92.49597168 21.23377419 51.04542160
v -92.49597168 21.23377419 51.04542160
v -92.49858093 21.18878174 49.88907623
v -92.53097534 20.62995529 50.24881363
v -92.49597168 21.23377419 51.04542160
v -92.53097534 20.62995529 50.24881363
v -92.55884552 20.14919662 50.70798874
v -92.49597168 21.23377419 51.04542160
v -92.55884552 20.14919662 50.70798874
v -92.51888275 20.83858299 51.44127655
v -92.51888275 20.83858299 51.44127655
v -92.55884552 20.14919662 50.70798874
v -92.58118439 19.76387787 51.25000000
v -92.51888275 20.83858299 51.44127655
v -92.58118439 19.76387787 51.25000000
v -92.53611755 20.54123878 51.91529083
v -92.53611755 20.54123878 51.91529083
v -92.58118439 19.76387787 51.25000000
v -92.59717560 19.48792648 51.85526276
v -92.53611755 20.54123878 51.91529083
v -92.59717560 19.48792648 51.85526276
v -92.54681396 20.35665131 52.44369888
v -92.54681396 20.35665131 52.44369888
v -92.59717560 19.48792648 51.85526276
v -92.60625458 19.33131790 52.50189972
v -92.54681396 20.35665131 52.44369888
v -92.60625458 19.33131790 52.50189972
v -92.55044556 20.29407692 53.00000000
v -92.55044556 20.29407692 53.00000000
v -92.60625458 19.33131790 52.50189972
v -92.60808563 19.29970932 53.16653824
v -92.55044556 20.29407692 53.00000000
v -92.60808563 19.29970932 53.16653824
v -92.54681396 20.35665131 53.55630112
v -92.54681396 20.35665131 53.55630112
v -92.60808563 19.29970932 53.16653824
v -92.60260773 19.39424706 53.82515717
v -92.54681396 20.35665131 53.55630112
v -92.60260773 19.39424706 53.82515717
v -92.59001160 19.61150932 54.45395279
v -92.54681396 20.35665131 53.55630112
v -92.59001160 19.61150932 54.45395279
v -92.53611755 20.54123878 54.08470917
v -92.53611755 20.54123878 54.08470917
v -92.59001160 19.61150932 54.45395279
v -92.57076263 19.94364929 55.03020096
v -92.53611755 20.54123878 54.08470917
v -92.57076263 19.94364929 55.03020096
v -92.51888275 20.83858299 54.55872345
v -92.51888275 20.83858299 54.55872345
v -92.57076263 19.94364929 55.03020096
v -92.54553986 20.37865829 55.53306961
v -92.51888275 20.83858299 54.55872345
v -92.54553986 20.37865829 55.53306961
v -92.49597168 21.23377419 54.95457840
v -92.49597168 21.23377419 54.95457840
v -92.54553986 20.37865829 55.53306961
v -92.51527405 20.90081406 55.94438553
v -92.49597168 21.23377419 54.95457840
v -92.51527405 20.90081406 55.94438553
v -92.46853638 21.70699501 55.25242233
v -92.46853638 21.70699501 55.25242233
v -92.51527405 20.90081406 55.94438553
v -92.48104858 21.49124718 56.24928665
v -92.46853638 21.70699501 55.25242233
v -92.48104858 21.49124718 56.24928665
v -92.43795776 22.23451614 55.43732071
v -92.43795776 22.23451614 55.43732071
v -92.48104858 21.49124718 56.24928665
v -92.44409943 22.12861633 56.43675232
v -92.43795776 22.23451614 55.43732071
v -92.44409943 22.12861633 56.43675232
v -92.40576172 22.78988647 55.50000000
v -93.36575317 23.50902748 56.43675232
v -92.40576172 22.78988647 56.50000000
v -93.40408325 22.84775925 56.50000000
v -93.40408325 22.84775925 56.50000000
v -92.40576172 22.78988647 56.50000000
v -92.44409943 22.12861633 56.43675232
v -93.40408325 22.84775925 56.50000000
v -92.44409943 22.12861633 56.43675232
v -93.44242096 22.18648911 56.43675232
v -93.44242096 22.18648911 56.43675232
v -92.44409943 22.12861633 56.43675232
v -92.48104858 21.49124718 56.24928665
v -93.44242096 22.18648911 56.43675232
v -92.48104858 21.49124718 56.24928665
v -93.47937012 21.54911995 56.24928665
v -93.47937012 21.54911995 56.24928665
v -92.48104858 21.49124718 56.24928665
v -92.51527405 20.90081406 55.94438553
v -93.47937012 21.54911995 56.24928665
v -92.51527405 20.90081406 55.94438553
v -93.51359558 20.95868683 55.94438553
v -93.51359558 20.95868683 55.94438553
v -92.51527405 20.90081406 55.94438553
v -92.54553986 20.37865829 55.53306961
v -93.51359558 20.95868683 55.94438553
v -92.54553986 20.37865829 55.53306961
v -93.54386902 20.43653107 55.53306961
v -93.54386902 20.43653107 55.53306961
v -92.54553986 20.37865829 55.53306961
v -92.57076263 19.94364929 55.03020096
v -93.54386902 20.43653107 55.53306961
v -92.57076263 19.94364929 55.03020096
v -93.56908417 20.00152206 55.03020096
v -93.56908417 20.00152206 55.03020096
v -92.57076263 19.94364929 55.03020096
v -92.59001160 19.61150932 54.45395279
v -93.56908417 20.00152206 55.03020096
v -92.59001160 19.61150932 54.45395279
v -93.58834076 19.66938210 54.45395279
v -93.58834076 19.66938210 54.45395279
v -92.59001160 19.61150932 54.45395279
v -92.60260773 19.39424706 53.82515717
v -93.58834076 19.66938210 54.45395279
v -92.60260773 19.39424706 53.82515717
v -93.60092926 19.45211983 53.82515717
v -93.60092926 19.45211983 53.82515717
v -92.60260773 19.39424706 53.82515717
v -92.60808563 19.29970932 53.16653824
v -93.60092926 19.45211983 53.82515717
v -92.60808563 19.29970932 53.16653824
v -93.60641479 19.35758209 53.16653824
v -93.60641479 19.35758209 53.16653824
v -92.60808563 19.29970932 53.16653824
v -92.60625458 19.33131790 52.50189972
v -93.60641479 19.35758209 53.16653824
v -92.60625458 19.33131790 52.50189972
v -93.60458374 19.38919067 52.50189972
v -93.60458374 19.38919067 52.50189972
v -92.60625458 19.33131790 52.50189972
v -92.59717560 19.48792648 51.85526276
v -93.60458374 19.38919067 52.50189972
v -92.59717560 19.48792648 51.85526276
v -93.59550476 19.54579926 51.85526276
v -93.59550476 19.54579926 51.85526276
v -92.59717560 19.48792648 51.85526276
v -92.58118439 19.76387787 51.25000000
v -93.59550476 19.54579926 51.85526276
v -92.58118439 19.76387787 51.25000000
v -93.57950592 19.82175064 51.25000000
v -93.57950592 19.82175064 51.25000000
v -92.58118439 19.76387787 51.25000000
v -92.55884552 20.14919662 50.70798874
v -93.57950592 19.82175064 51.25000000
v -92.55884552 20.14919662 50.70798874
v -93.55716705 20.20706940 50.70798874
v -93.55716705 20.20706940 50.70798874
v -92.55884552 20.14919662 50.70798874
v -92.53097534 20.62995529 50.24881363
v -93.55716705 20.20706940 50.70798874
v -92.53097534 20.62995529 50.24881363
v -93.52929688 20.68782806 50.24881363
v -93.52929688 20.68782806 50.24881363
v -92.53097534 20.62995529 50.24881363
v -92.49858093 21.18878174 49.88907623
v -93.52929688 20.68782806 50.24881363
v -92.49858093 21.18878174 49.88907623
v -93.49690247 21.24665451 49.88907623
v -93.49690247 21.24665451 49.88907623
v -92.49858093 21.18878174 49.88907623
v -92.46282959 21.80547523 49.64177322
v -93.49690247 21.24665451 49.88907623
v -92.46282959 21.80547523 49.64177322
v -93.46115112 21.86334801 49.64177322
v -93.46115112 21.86334801 49.64177322
v -92.46282959 21.80547523 49.64177322
v -92.42501831 22.45774651 49.51585007
v -93.46115112 21.86334801 49.64177322
v -92.42501831 22.45774651 49.51585007
v -93.42333984 22.51561928 49.51585007
v -93.42333984 22.51561928 49.51585007
v -92.42501831 22.45774651 49.51585007
v -92.38651276 23.12202454 49.51585007
v -93.42333984 22.51561928 49.51585007
v -92.38651276 23.12202454 49.51585007
v -93.38483429 23.17989731 49.51585007
v -93.38483429 23.17989731 49.51585007
v -92.38651276 23.12202454 49.51585007
v -92.34869385 23.77429771 49.64177322
v -93.38483429 23.17989731 49.51585007
v -92.34869385 23.77429771 49.64177322
v -93.34702301 23.83217049 49.64177322
v -93.34702301 23.83217049 49.64177322
v -92.34869385 23.77429771 49.64177322
v -92.31295013 24.39099121 49.88907623
v -93.34702301 23.83217049 49.64177322
v -92.31295013 24.39099121 49.88907623
v -93.31127167 24.44886398 49.88907623
v -93.31127167 24.44886398 49.88907623
v -92.31295013 24.39099121 49.88907623
v -92.28055573 24.94981575 50.24881363
v -93.31127167 24.44886398 49.88907623
v -92.28055573 24.94981575 50.24881363
v -93.27887726 25.00768852 50.24881363
v -93.27887726 25.00768852 50.24881363
v -92.28055573 24.94981575 50.24881363
v -92.25268555 25.43057632 50.70798874
v -93.27887726 25.00768852 50.24881363
v -92.25268555 25.43057632 50.70798874
v -93.25100708 25.48844910 50.70798874
v -93.25100708 25.48844910 50.70798874
v -92.25268555 25.43057632 50.70798874
v -92.23034668 25.81589508 51.25000000
v -93.25100708 25.48844910 50.70798874
v -92.23034668 25.81589508 51.25000000
v -93.22866821 25.87376785 51.25000000
v -93.22866821 25.87376785 51.25000000
v -92.23034668 25.81589508 51.25000000
v -92.21434784 26.09184456 51.85526276
v -93.22866821 25.87376785 51.25000000
v -92.21434784 26.09184456 51.85526276
v -93.21266937 26.14971733 51.85526276
v -93.21266937 26.14971733 51.85526276
v -92.21434784 26.09184456 51.85526276
v -92.20526886 26.24845505 52.50189972
v -93.21266937 26.14971733 51.85526276
v -92.20526886 26.24845505 52.50189972
v -93.20359039 26.30632782 52.50189972
v -93.20359039 26.30632782 52.50189972
v -92.20526886 26.24845505 52.50189972
v -92.20343781 26.28006172 53.16653824
v -93.20359039 26.30632782 52.50189972
v -92.20343781 26.28006172 53.16653824
v -93.20175934 26.33793449 53.16653824
v -93.20175934 26.33793449 53.16653824
v -92.20343781 26.28006172 53.16653824
v -92.20891571 26.18552589 53.82515717
v -93.20175934 26.33793449 53.16653824
v -92.20891571 26.18552589 53.82515717
v -93.20724487 26.24339867 53.82515717
v -93.20724487 26.24339867 53.82515717
v -92.20891571 26.18552589 53.82515717
v -92.22151184 25.96826172 54.45395279
v -93.20724487 26.24339867 53.82515717
v -92.22151184 25.96826172 54.45395279
v -93.21983337 26.02613449 54.45395279
v -93.21983337 26.02613449 54.45395279
v -92.22151184 25.96826172 54.45395279
v -92.24076843 25.63612366 55.03020096
v -93.21983337 26.02613449 54.45395279
v -92.24076843 25.63612366 55.03020096
v -93.23908997 25.69399643 55.03020096
v -93.23908997 25.69399643 55.03020096
v -92.24076843 25.63612366 55.03020096
v -92.26598358 25.20111465 55.53306961
v -93.23908997 25.69399643 55.03020096
v -92.26598358 25.20111465 55.53306961
v -93.26430511 25.25898743 55.53306961
v -93.26430511 25.25898743 55.53306961
v -92.26598358 25.20111465 55.53306961
v -92.29625702 24.67895699 55.94438553
v -93.26430511 25.25898743 55.53306961
v -92.29625702 24.67895699 55.94438553
v -93.29457855 24.73682976 55.94438553
v -93.29457855 24.73682976 55.94438553
v -92.29625702 24.67895699 55.94438553
v -92.33048248 24.08852386 56.24928665
v -93.29457855 24.73682976 55.94438553
v -92.33048248 24.08852386 56.24928665
v -93.32880402 24.14639664 56.24928665
v -93.32880402 24.14639664 56.24928665
v -92.33048248 24.08852386 56.24928665
v -92.36743164 23.45115471 56.43675232
v -93.32880402 24.14639664 56.24928665
v -92.36743164 23.45115471 56.43675232
v -93.36575317 23.50902748 56.43675232
v -93.36575317 23.50902748 56.43675232
v -92.36743164 23.45115471 56.43675232
v -92.40576172 22.78988647 56.50000000
v -89.37859344 23.17163849 50.56267929
v -92.37356567 23.34525681 50.56267929
v -89.41078949 22.61626816 50.50000000
v -89.41078949 22.61626816 50.50000000
v -92.37356567 23.34525681 50.56267929
v -92.40576172 22.78988647 50.50000000
v -89.41078949 22.61626816 50.50000000
v -92.40576172 22.78988647 50.50000000
v -89.44298553 22.06089783 50.56267929
v -89.44298553 22.06089783 50.56267929
v -92.40576172 22.78988647 50.50000000
v -92.43795776 22.23451614 50.56267929
v -89.44298553 22.06089783 50.56267929
v -92.43795776 22.23451614 50.56267929
v -89.47356415 21.53337669 50.74757767
v -89.47356415 21.53337669 50.74757767
v -92.43795776 22.23451614 50.56267929
v -92.46853638 21.70699501 50.74757767
v -89.47356415 21.53337669 50.74757767
v -92.46853638 21.70699501 50.74757767
v -89.50099945 21.06015587 51.04542160
v -89.50099945 21.06015587 51.04542160
v -92.46853638 21.70699501 50.74757767
v -92.49597168 21.23377419 51.04542160
v -89.50099945 21.06015587 51.04542160
v -92.49597168 21.23377419 51.04542160
v -89.52391052 20.66496468 51.44127655
v -89.52391052 20.66496468 51.44127655
v -92.49597168 21.23377419 51.04542160
v -92.51888275 20.83858299 51.44127655
v -89.52391052 20.66496468 51.44127655
v -92.51888275 20.83858299 51.44127655
v -89.54114532 20.36762047 51.91529083
v -89.54114532 20.36762047 51.91529083
v -92.51888275 20.83858299 51.44127655
v -92.53611755 20.54123878 51.91529083
v -89.54114532 20.36762047 51.91529083
v -92.53611755 20.54123878 51.91529083
v -89.55184937 20.18303299 52.44369888
v -89.55184937 20.18303299 52.44369888
v -92.53611755 20.54123878 51.91529083
v -92.54681396 20.35665131 52.44369888
v -89.55184937 20.18303299 52.44369888
v -92.54681396 20.35665131 52.44369888
v -89.55547333 20.12045670 53.00000000
v -89.55547333 20.12045670 53.00000000
v -92.54681396 20.35665131 52.44369888
v -92.55044556 20.29407692 53.00000000
v -89.55547333 20.12045670 53.00000000
v -92.55044556 20.29407692 53.00000000
v -89.55184937 20.18303299 53.55630112
v -89.55184937 20.18303299 53.55630112
v -92.55044556 20.29407692 53.00000000
v -92.54681396 20.35665131 53.55630112
v -89.55184937 20.18303299 53.55630112
v -92.54681396 20.35665131 53.55630112
v -89.54114532 20.36762047 54.08470917
v -89.54114532 20.36762047 54.08470917
v -92.54681396 20.35665131 53.55630112
v -92.53611755 20.54123878 54.08470917
v -89.54114532 20.36762047 54.08470917
v -92.53611755 20.54123878 54.08470917
v -89.52391052 20.66496468 54.55872345
v -89.52391052 20.66496468 54.55872345
v -92.53611755 20.54123878 54.08470917
v -92.51888275 20.83858299 54.55872345
v -89.52391052 20.66496468 54.55872345
v -92.51888275 20.83858299 54.55872345
v -89.50099945 21.06015587 54.95457840
v -89.50099945 21.06015587 54.95457840
v -92.51888275 20.83858299 54.55872345
v -92.49597168 21.23377419 54.95457840
v -89.50099945 21.06015587 54.95457840
v -92.49597168 21.23377419 54.95457840
v -89.47356415 21.53337669 55.25242233
v -89.47356415 21.53337669 55.25242233
v -92.49597168 21.23377419 54.95457840
v -92.46853638 21.70699501 55.25242233
v -89.47356415 21.53337669 55.25242233
v -92.46853638 21.70699501 55.25242233
v -89.44298553 22.06089783 55.43732071
v -89.44298553 22.06089783 55.43732071
v -92.46853638 21.70699501 55.25242233
v -92.43795776 22.23451614 55.43732071
v -89.44298553 22.06089783 55.43732071
v -92.43795776 22.23451614 55.43732071
v -89.41078949 22.61626816 55.50000000
v -89.41078949 22.61626816 55.50000000
v -92.43795776 22.23451614 55.43732071
v -92.40576172 22.78988647 55.50000000
v -89.41078949 22.61626816 55.50000000
v -92.40576172 22.78988647 55.50000000
v -89.37859344 23.17163658 55.43732071
v -89.37859344 23.17163658 55.43732071
v -92.40576172 22.78988647 55.50000000
v -92.37356567 23.34525681 55.43732071
v -89.37859344 23.17163658 55.43732071
v -92.37356567 23.34525681 55.43732071
v -89.34801483 23.69915771 55.25242233
v -89.34801483 23.69915771 55.25242233
v -92.37356567 23.34525681 55.43732071
v -92.34298706 23.87277794 55.25242233
v -89.34801483 23.69915771 55.25242233
v -92.34298706 23.87277794 55.25242233
v -89.32058716 24.17237854 54.95457840
v -89.32058716 24.17237854 54.95457840
v -92.34298706 23.87277794 55.25242233
v -92.31555176 24.34599876 54.95457840
v -89.32058716 24.17237854 54.95457840
v -92.31555176 24.34599876 54.95457840
v -89.29767609 24.56756973 54.55872345
v -89.29767609 24.56756973 54.55872345
v -92.31555176 24.34599876 54.95457840
v -92.29264832 24.74118805 54.55872345
v -89.29767609 24.56756973 54.55872345
v -92.29264832 24.74118805 54.55872345
v -89.28043365 24.86491394 54.08470917
v -89.28043365 24.86491394 54.08470917
v -92.29264832 24.74118805 54.55872345
v -92.27540588 25.03853226 54.08470917
v -89.28043365 24.86491394 54.08470917
v -92.27540588 25.03853226 54.08470917
v -89.26973724 25.04950142 53.55630112
v -89.26973724 25.04950142 53.55630112
v -92.27540588 25.03853226 54.08470917
v -92.26470947 25.22311974 53.55630112
v -89.26973724 25.04950142 53.55630112
v -92.26470947 25.22311974 53.55630112
v -89.26610565 25.11207771 53.00000000
v -89.26610565 25.11207771 53.00000000
v -92.26470947 25.22311974 53.55630112
v -92.26107788 25.28569603 53.00000000
v -89.26610565 25.11207771 53.00000000
v -92.26107788 25.28569603 53.00000000
v -89.26973724 25.04950142 52.44369888
v -89.26973724 25.04950142 52.44369888
v -92.26107788 25.28569603 53.00000000
v -92.26470947 25.22311974 52.44369888
v -89.26973724 25.04950142 52.44369888
v -92.26470947 25.22311974 52.44369888
v -89.28043365 24.86491394 51.91529083
v -89.28043365 24.86491394 51.91529083
v -92.26470947 25.22311974 52.44369888
v -92.27540588 25.03853226 51.91529083
v -89.28043365 24.86491394 51.91529083
v -92.27540588 25.03853226 51.91529083
v -89.29767609 24.56756973 51.44127655
v -89.29767609 24.56756973 51.44127655
v -92.27540588 25.03853226 51.91529083
v -92.29264832 24.74118805 51.44127655
v -89.29767609 24.56756973 51.44127655
v -92.29264832 24.74118805 51.44127655
v -89.32058716 24.17238045 51.04542160
v -89.32058716 24.17238045 51.04542160
v -92.29264832 24.74118805 51.44127655
v -92.31555176 24.34599876 51.04542160
v -89.32058716 24.17238045 51.04542160
v -92.31555176 24.34599876 51.04542160
v -89.34801483 23.69915962 50.74757767
v -89.34801483 23.69915962 50.74757767
v -92.31555176 24.34599876 51.04542160
v -92.34298706 23.87277794 50.74757767
v -89.34801483 23.69915962 50.74757767
v -92.34298706 23.87277794 50.74757767
v -89.37859344 23.17163849 50.56267929
v -89.37859344 23.17163849 50.56267929
v -92.34298706 23.87277794 50.74757767
v -92.37356567 23.34525681 50.56267929
v -88.70182800 17.56677437 53.00000000
v -93.69345093 17.85613823 53.00000000
v -88.69826508 17.62823105 52.21783066
v -88.69826508 17.62823105 52.21783066
v -93.69345093 17.85613823 53.00000000
v -93.68988800 17.91759491 52.21783066
v -88.69826508 17.62823105 52.21783066
v -93.68988800 17.91759491 52.21783066
v -88.68766785 17.81108284 51.45491791
v -88.68766785 17.81108284 51.45491791
v -93.68988800 17.91759491 52.21783066
v -93.67929077 18.10044670 51.45491791
v -88.68766785 17.81108284 51.45491791
v -93.67929077 18.10044670 51.45491791
v -88.67029572 18.11082840 50.73004913
v -88.67029572 18.11082840 50.73004913
v -93.67929077 18.10044670 51.45491791
v -93.66191101 18.40019226 50.73004913
v -88.67029572 18.11082840 50.73004913
v -93.66191101 18.40019226 50.73004913
v -88.64656830 18.52009010 50.06107330
v -88.64656830 18.52009010 50.06107330
v -93.66191101 18.40019226 50.73004913
v -93.63819122 18.80945396 50.06107330
v -88.64656830 18.52009010 50.06107330
v -93.63819122 18.80945396 50.06107330
v -88.61708069 19.02878571 49.46446609
v -88.61708069 19.02878571 49.46446609
v -93.63819122 18.80945396 50.06107330
v -93.60869598 19.31815147 49.46446609
v -88.61708069 19.02878571 49.46446609
v -93.60869598 19.31815147 49.46446609
v -88.58255005 19.62439346 48.95491791
v -88.58255005 19.62439346 48.95491791
v -93.60869598 19.31815147 49.46446609
v -93.57417297 19.91375923 48.95491791
v -88.58255005 19.62439346 48.95491791
v -93.57417297 19.91375923 48.95491791
v -88.54383850 20.29224777 48.54496765
v -88.54383850 20.29224777 48.54496765
v -93.57417297 19.91375923 48.95491791
v -93.53545380 20.58161163 48.54496765
v -88.54383850 20.29224777 48.54496765
v -93.53545380 20.58161163 48.54496765
v -88.50188446 21.01589966 48.24471664
v -88.50188446 21.01589966 48.24471664
v -93.53545380 20.58161163 48.54496765
v -93.49350739 21.30526352 48.24471664
v -88.50188446 21.01589966 48.24471664
v -93.49350739 21.30526352 48.24471664
v -88.45773315 21.77753258 48.06155777
v -88.45773315 21.77753258 48.06155777
v -93.49350739 21.30526352 48.24471664
v -93.44935608 22.06689835 48.06155777
v -88.45773315 21.77753258 48.06155777
v -93.44935608 22.06689835 48.06155777
v -88.41246796 22.55839539 48.00000000
v -88.41246796 22.55839539 48.00000000
v -93.44935608 22.06689835 48.06155777
v -93.40408325 22.84775925 48.00000000
v -93.40408325 22.84775925 48.00000000
v -93.11472321 27.83937836 48.00000000
v -88.41246796 22.55839539 48.00000000
v -88.41246796 22.55839539 48.00000000
v -93.11472321 27.83937836 48.00000000
v -88.12310028 27.55001450 48.00000000
v -93.44242096 22.18648911 56.43675232
v -93.43627930 22.29238892 140.56268311
v -93.40408325 22.84775925 56.50000000
v -93.40408325 22.84775925 56.50000000
v -93.43627930 22.29238892 140.56268311
v -93.40408325 22.84775925 140.50000000
v -93.40408325 22.84775925 56.50000000
v -93.40408325 22.84775925 140.50000000
v -93.37189484 23.40312958 140.56268311
v -93.43627930 22.29238892 140.56268311
v -93.44242096 22.18648911 56.43675232
v -93.46686554 21.76486778 140.74757385
v -93.46686554 21.76486778 140.74757385
v -93.44242096 22.18648911 56.43675232
v -93.47937012 21.54911995 56.24928665
v -93.46686554 21.76486778 140.74757385
v -93.47937012 21.54911995 56.24928665
v -93.49429321 21.29164696 141.04542542
v -93.49429321 21.29164696 141.04542542
v -93.47937012 21.54911995 56.24928665
v -93.51359558 20.95868683 55.94438553
v -93.49429321 21.29164696 141.04542542
v -93.51359558 20.95868683 55.94438553
v -93.51720428 20.89645576 141.44126892
v -93.51720428 20.89645576 141.44126892
v -93.51359558 20.95868683 55.94438553
v -93.54386902 20.43653107 55.53306961
v -93.51720428 20.89645576 141.44126892
v -93.54386902 20.43653107 55.53306961
v -93.56908417 20.00152206 55.03020096
v -93.58834076 19.66938210 54.45395279
v -93.69345093 17.85613823 53.00000000
v -93.56908417 20.00152206 55.03020096
v -93.56908417 20.00152206 55.03020096
v -93.69345093 17.85613823 53.00000000
v -93.53443909 20.59911156 141.91529846
v -93.56908417 20.00152206 55.03020096
v -93.53443909 20.59911156 141.91529846
v -93.51720428 20.89645576 141.44126892
v -93.58834076 19.66938210 54.45395279
v -93.60092926 19.45211983 53.82515717
v -93.69345093 17.85613823 53.00000000
v -93.69345093 17.85613823 53.00000000
v -93.60092926 19.45211983 53.82515717
v -93.60641479 19.35758209 53.16653824
v -93.69345093 17.85613823 53.00000000
v -93.60641479 19.35758209 53.16653824
v -93.67929077 18.10044670 51.45491791
v -93.67929077 18.10044670 51.45491791
v -93.60641479 19.35758209 53.16653824
v -93.66191101 18.40019226 50.73004913
v -93.66191101 18.40019226 50.73004913
v -93.60641479 19.35758209 53.16653824
v -93.63819122 18.80945396 50.06107330
v -93.63819122 18.80945396 50.06107330
v -93.60641479 19.35758209 53.16653824
v -93.60458374 19.38919067 52.50189972
v -93.63819122 18.80945396 50.06107330
v -93.60458374 19.38919067 52.50189972
v -93.60869598 19.31815147 49.46446609
v -93.60869598 19.31815147 49.46446609
v -93.60458374 19.38919067 52.50189972
v -93.59550476 19.54579926 51.85526276
v -93.60869598 19.31815147 49.46446609
v -93.59550476 19.54579926 51.85526276
v -93.57950592 19.82175064 51.25000000
v -93.60869598 19.31815147 49.46446609
v -93.57950592 19.82175064 51.25000000
v -93.57417297 19.91375923 48.95491791
v -93.57417297 19.91375923 48.95491791
v -93.57950592 19.82175064 51.25000000
v -93.55716705 20.20706940 50.70798874
v -93.57417297 19.91375923 48.95491791
v -93.55716705 20.20706940 50.70798874
v -93.53545380 20.58161163 48.54496765
v -93.53545380 20.58161163 48.54496765
v -93.55716705 20.20706940 50.70798874
v -93.52929688 20.68782806 50.24881363
v -93.53545380 20.58161163 48.54496765
v -93.52929688 20.68782806 50.24881363
v -93.49690247 21.24665451 49.88907623
v -93.53545380 20.58161163 48.54496765
v -93.49690247 21.24665451 49.88907623
v -93.49350739 21.30526352 48.24471664
v -93.49350739 21.30526352 48.24471664
v -93.49690247 21.24665451 49.88907623
v -93.46115112 21.86334801 49.64177322
v -93.49350739 21.30526352 48.24471664
v -93.46115112 21.86334801 49.64177322
v -93.44935608 22.06689835 48.06155777
v -93.44935608 22.06689835 48.06155777
v -93.46115112 21.86334801 49.64177322
v -93.42333984 22.51561928 49.51585007
v -93.44935608 22.06689835 48.06155777
v -93.42333984 22.51561928 49.51585007
v -93.40408325 22.84775925 48.00000000
v -93.40408325 22.84775925 48.00000000
v -93.42333984 22.51561928 49.51585007
v -93.38483429 23.17989731 49.51585007
v -93.40408325 22.84775925 48.00000000
v -93.38483429 23.17989731 49.51585007
v -93.34702301 23.83217049 49.64177322
v -93.34702301 23.83217049 49.64177322
v -93.31127167 24.44886398 49.88907623
v -93.40408325 22.84775925 48.00000000
v -93.40408325 22.84775925 48.00000000
v -93.31127167 24.44886398 49.88907623
v -93.11472321 27.83937836 48.00000000
v -93.11472321 27.83937836 48.00000000
v -93.31127167 24.44886398 49.88907623
v -93.27887726 25.00768852 50.24881363
v -93.11472321 27.83937836 48.00000000
v -93.27887726 25.00768852 50.24881363
v -93.25100708 25.48844910 50.70798874
v -93.25100708 25.48844910 50.70798874
v -93.22866821 25.87376785 51.25000000
v -93.11472321 27.83937836 48.00000000
v -93.11472321 27.83937836 48.00000000
v -93.22866821 25.87376785 51.25000000
v -93.21266937 26.14971733 51.85526276
v -93.11472321 27.83937836 48.00000000
v -93.21266937 26.14971733 51.85526276
v -93.20359039 26.30632782 52.50189972
v -93.20359039 26.30632782 52.50189972
v -93.20175934 26.33793449 53.16653824
v -93.11472321 27.83937836 48.00000000
v -93.11472321 27.83937836 48.00000000
v -93.20175934 26.33793449 53.16653824
v -93.04992676 28.95714760 48.06287766
v -93.04992676 28.95714760 48.06287766
v -93.20175934 26.33793449 53.16653824
v -93.20724487 26.24339867 53.82515717
v -93.04992676 28.95714760 48.06287766
v -93.20724487 26.24339867 53.82515717
v -92.98594666 30.06085777 48.25072098
v -92.98594666 30.06085777 48.25072098
v -93.20724487 26.24339867 53.82515717
v -92.92358398 31.13663292 48.56116867
v -92.92358398 31.13663292 48.56116867
v -93.20724487 26.24339867 53.82515717
v -93.21983337 26.02613449 54.45395279
v -92.92358398 31.13663292 48.56116867
v -93.21983337 26.02613449 54.45395279
v -93.26303101 25.28099442 142.44369507
v -93.26303101 25.28099442 142.44369507
v -93.21983337 26.02613449 54.45395279
v -93.27373505 25.09640503 141.91529846
v -93.27373505 25.09640503 141.91529846
v -93.21983337 26.02613449 54.45395279
v -93.23908997 25.69399643 55.03020096
v -93.27373505 25.09640503 141.91529846
v -93.23908997 25.69399643 55.03020096
v -93.29096985 24.79906082 141.44126892
v -93.29096985 24.79906082 141.44126892
v -93.23908997 25.69399643 55.03020096
v -93.26430511 25.25898743 55.53306961
v -93.29096985 24.79906082 141.44126892
v -93.26430511 25.25898743 55.53306961
v -93.29457855 24.73682976 55.94438553
v -93.29096985 24.79906082 141.44126892
v -93.29457855 24.73682976 55.94438553
v -93.31388092 24.40387154 141.04542542
v -93.31388092 24.40387154 141.04542542
v -93.29457855 24.73682976 55.94438553
v -93.32880402 24.14639664 56.24928665
v -93.31388092 24.40387154 141.04542542
v -93.32880402 24.14639664 56.24928665
v -93.34130859 23.93065071 140.74757385
v -93.34130859 23.93065071 140.74757385
v -93.32880402 24.14639664 56.24928665
v -93.36575317 23.50902748 56.43675232
v -93.34130859 23.93065071 140.74757385
v -93.36575317 23.50902748 56.43675232
v -93.37189484 23.40312958 140.56268311
v -93.37189484 23.40312958 140.56268311
v -93.36575317 23.50902748 56.43675232
v -93.40408325 22.84775925 56.50000000
v -93.26303101 25.28099442 142.44369507
v -93.25940704 25.34356880 143.00000000
v -92.53599548 37.82261658 148.00000000
v -92.53599548 37.82261658 148.00000000
v -93.25940704 25.34356880 143.00000000
v -93.26303101 25.28099442 143.55630493
v -92.53599548 37.82261658 148.00000000
v -93.26303101 25.28099442 143.55630493
v -93.27373505 25.09640503 144.08471680
v -93.27373505 25.09640503 144.08471680
v -93.29096985 24.79906082 144.55873108
v -92.53599548 37.82261658 148.00000000
v -92.53599548 37.82261658 148.00000000
v -93.29096985 24.79906082 144.55873108
v -93.31388092 24.40387154 144.95457458
v -92.53599548 37.82261658 148.00000000
v -93.31388092 24.40387154 144.95457458
v -93.34130859 23.93065071 145.25242615
v -93.34130859 23.93065071 145.25242615
v -93.37189484 23.40312958 145.43731689
v -92.53599548 37.82261658 148.00000000
v -92.53599548 37.82261658 148.00000000
v -93.37189484 23.40312958 145.43731689
v -93.69345093 17.85613823 148.00000000
v -93.69345093 17.85613823 148.00000000
v -93.37189484 23.40312958 145.43731689
v -93.40408325 22.84775925 145.50000000
v -93.69345093 17.85613823 148.00000000
v -93.40408325 22.84775925 145.50000000
v -93.43627930 22.29238892 145.43731689
v -93.43627930 22.29238892 145.43731689
v -93.46686554 21.76486778 145.25242615
v -93.69345093 17.85613823 148.00000000
v -93.69345093 17.85613823 148.00000000
v -93.46686554 21.76486778 145.25242615
v -93.49429321 21.29164696 144.95457458
v -93.69345093 17.85613823 148.00000000
v -93.49429321 21.29164696 144.95457458
v -93.51720428 20.89645576 144.55873108
v -93.51720428 20.89645576 144.55873108
v -93.53443909 20.59911156 144.08471680
v -93.69345093 17.85613823 148.00000000
v -93.69345093 17.85613823 148.00000000
v -93.53443909 20.59911156 144.08471680
v -93.54514313 20.41452408 143.55630493
v -93.69345093 17.85613823 148.00000000
v -93.54514313 20.41452408 143.55630493
v -93.54876709 20.35194969 143.00000000
v -93.54876709 20.35194969 143.00000000
v -93.54514313 20.41452408 142.44369507
v -93.69345093 17.85613823 148.00000000
v -93.69345093 17.85613823 148.00000000
v -93.54514313 20.41452408 142.44369507
v -93.69345093 17.85613823 53.00000000
v -93.69345093 17.85613823 53.00000000
v -93.54514313 20.41452408 142.44369507
v -93.53443909 20.59911156 141.91529846
v -93.67929077 18.10044670 51.45491791
v -93.68988800 17.91759491 52.21783066
v -93.69345093 17.85613823 53.00000000
v -92.53599548 37.82261658 148.00000000
v -92.53599548 37.82261658 58.00000000
v -93.26303101 25.28099442 142.44369507
v -93.26303101 25.28099442 142.44369507
v -92.53599548 37.82261658 58.00000000
v -92.80682373 33.15078354 49.53276062
v -93.26303101 25.28099442 142.44369507
v -92.80682373 33.15078354 49.53276062
v -92.86362457 32.17094421 48.99031067
v -92.53963470 37.75984573 56.88035583
v -92.55050659 37.57231903 55.77479172
v -92.53599548 37.82261658 58.00000000
v -92.53599548 37.82261658 58.00000000
v -92.55050659 37.57231903 55.77479172
v -92.56847382 37.26239395 54.69721222
v -92.53599548 37.82261658 58.00000000
v -92.56847382 37.26239395 54.69721222
v -92.59330750 36.83396530 53.66116333
v -92.59330750 36.83396530 53.66116333
v -92.62470245 36.29243088 52.67967987
v -92.53599548 37.82261658 58.00000000
v -92.53599548 37.82261658 58.00000000
v -92.62470245 36.29243088 52.67967987
v -92.66225433 35.64458847 51.76510239
v -92.53599548 37.82261658 58.00000000
v -92.66225433 35.64458847 51.76510239
v -92.70549774 34.89859390 50.92893219
v -92.70549774 34.89859390 50.92893219
v -92.75389099 34.06382751 50.18168640
v -92.53599548 37.82261658 58.00000000
v -92.53599548 37.82261658 58.00000000
v -92.75389099 34.06382751 50.18168640
v -92.80682373 33.15078354 49.53276062
v -92.86362457 32.17094421 48.99031067
v -92.92358398 31.13663292 48.56116867
v -93.26303101 25.28099442 142.44369507
v -88.12310028 27.55001450 48.00000000
v -93.11472321 27.83937836 48.00000000
v -88.05830383 28.66778374 48.06287766
v -88.05830383 28.66778374 48.06287766
v -93.11472321 27.83937836 48.00000000
v -93.04992676 28.95714760 48.06287766
v -88.05830383 28.66778374 48.06287766
v -93.04992676 28.95714760 48.06287766
v -87.99432373 29.77149391 48.25072098
v -87.99432373 29.77149391 48.25072098
v -93.04992676 28.95714760 48.06287766
v -92.98594666 30.06085777 48.25072098
v -87.99432373 29.77149391 48.25072098
v -92.98594666 30.06085777 48.25072098
v -87.93196106 30.84726906 48.56116867
v -87.93196106 30.84726906 48.56116867
v -92.98594666 30.06085777 48.25072098
v -92.92358398 31.13663292 48.56116867
v -87.93196106 30.84726906 48.56116867
v -92.92358398 31.13663292 48.56116867
v -87.87200165 31.88158035 48.99031067
v -87.87200165 31.88158035 48.99031067
v -92.92358398 31.13663292 48.56116867
v -92.86362457 32.17094421 48.99031067
v -87.87200165 31.88158035 48.99031067
v -92.86362457 32.17094421 48.99031067
v -87.81520081 32.86141968 49.53276062
v -87.81520081 32.86141968 49.53276062
v -92.86362457 32.17094421 48.99031067
v -92.80682373 33.15078354 49.53276062
v -87.81520081 32.86141968 49.53276062
v -92.80682373 33.15078354 49.53276062
v -87.76227570 33.77446365 50.18168640
v -87.76227570 33.77446365 50.18168640
v -92.80682373 33.15078354 49.53276062
v -92.75389099 34.06382751 50.18168640
v -87.76227570 33.77446365 50.18168640
v -92.75389099 34.06382751 50.18168640
v -87.71388245 34.60923004 50.92893219
v -87.71388245 34.60923004 50.92893219
v -92.75389099 34.06382751 50.18168640
v -92.70549774 34.89859390 50.92893219
v -87.71388245 34.60923004 50.92893219
v -92.70549774 34.89859390 50.92893219
v -87.67063141 35.35522461 51.76510239
v -87.67063141 35.35522461 51.76510239
v -92.70549774 34.89859390 50.92893219
v -92.66225433 35.64458847 51.76510239
v -87.67063141 35.35522461 51.76510239
v -92.66225433 35.64458847 51.76510239
v -87.63307953 36.00306702 52.67967987
v -87.63307953 36.00306702 52.67967987
v -92.66225433 35.64458847 51.76510239
v -92.62470245 36.29243088 52.67967987
v -87.63307953 36.00306702 52.67967987
v -92.62470245 36.29243088 52.67967987
v -87.60168457 36.54460144 53.66116333
v -87.60168457 36.54460144 53.66116333
v -92.62470245 36.29243088 52.67967987
v -92.59330750 36.83396530 53.66116333
v -87.60168457 36.54460144 53.66116333
v -92.59330750 36.83396530 53.66116333
v -87.57685089 36.97302628 54.69721222
v -87.57685089 36.97302628 54.69721222
v -92.59330750 36.83396530 53.66116333
v -92.56847382 37.26239395 54.69721222
v -87.57685089 36.97302628 54.69721222
v -92.56847382 37.26239395 54.69721222
v -87.55888367 37.28295517 55.77479172
v -87.55888367 37.28295517 55.77479172
v -92.56847382 37.26239395 54.69721222
v -92.55050659 37.57231903 55.77479172
v -87.55888367 37.28295517 55.77479172
v -92.55050659 37.57231903 55.77479172
v -87.54801178 37.47048187 56.88035583
v -87.54801178 37.47048187 56.88035583
v -92.55050659 37.57231903 55.77479172
v -92.53963470 37.75984573 56.88035583
v -87.54801178 37.47048187 56.88035583
v -92.53963470 37.75984573 56.88035583
v -87.54437256 37.53325272 58.00000000
v -87.54437256 37.53325272 58.00000000
v -92.53963470 37.75984573 56.88035583
v -92.53599548 37.82261658 58.00000000
v -93.26303101 25.28099442 142.44369507
v -88.27141571 24.99162865 142.44369507
v -93.25940704 25.34356880 143.00000000
v -93.25940704 25.34356880 143.00000000
v -88.27141571 24.99162865 142.44369507
v -88.26778412 25.05420494 143.00000000
v -93.25940704 25.34356880 143.00000000
v -88.26778412 25.05420494 143.00000000
v -93.26303101 25.28099442 143.55630493
v -93.26303101 25.28099442 143.55630493
v -88.26778412 25.05420494 143.00000000
v -88.27141571 24.99162865 143.55630493
v -93.26303101 25.28099442 143.55630493
v -88.27141571 24.99162865 143.55630493
v -93.27373505 25.09640503 144.08471680
v -93.27373505 25.09640503 144.08471680
v -88.27141571 24.99162865 143.55630493
v -88.28211212 24.80704117 144.08471680
v -93.27373505 25.09640503 144.08471680
v -88.28211212 24.80704117 144.08471680
v -93.29096985 24.79906082 144.55873108
v -93.29096985 24.79906082 144.55873108
v -88.28211212 24.80704117 144.08471680
v -88.29934692 24.50969696 144.55873108
v -93.29096985 24.79906082 144.55873108
v -88.29934692 24.50969696 144.55873108
v -93.31388092 24.40387154 144.95457458
v -93.31388092 24.40387154 144.95457458
v -88.29934692 24.50969696 144.55873108
v -88.32225800 24.11450577 144.95457458
v -93.31388092 24.40387154 144.95457458
v -88.32225800 24.11450577 144.95457458
v -93.34130859 23.93065071 145.25242615
v -93.34130859 23.93065071 145.25242615
v -88.32225800 24.11450577 144.95457458
v -88.34969330 23.64128685 145.25242615
v -93.34130859 23.93065071 145.25242615
v -88.34969330 23.64128685 145.25242615
v -93.37189484 23.40312958 145.43731689
v -93.37189484 23.40312958 145.43731689
v -88.34969330 23.64128685 145.25242615
v -88.38027191 23.11376381 145.43731689
v -93.37189484 23.40312958 145.43731689
v -88.38027191 23.11376381 145.43731689
v -93.40408325 22.84775925 145.50000000
v -93.40408325 22.84775925 145.50000000
v -88.38027191 23.11376381 145.43731689
v -88.41246796 22.55839539 145.50000000
v -93.40408325 22.84775925 145.50000000
v -88.41246796 22.55839539 145.50000000
v -93.43627930 22.29238892 145.43731689
v -93.43627930 22.29238892 145.43731689
v -88.41246796 22.55839539 145.50000000
v -88.44466400 22.00302505 145.43731689
v -93.43627930 22.29238892 145.43731689
v -88.44466400 22.00302505 145.43731689
v -93.46686554 21.76486778 145.25242615
v -93.46686554 21.76486778 145.25242615
v -88.44466400 22.00302505 145.43731689
v -88.47524261 21.47550392 145.25242615
v -93.46686554 21.76486778 145.25242615
v -88.47524261 21.47550392 145.25242615
v -93.49429321 21.29164696 144.95457458
v -93.49429321 21.29164696 144.95457458
v -88.47524261 21.47550392 145.25242615
v -88.50267792 21.00228310 144.95457458
v -93.49429321 21.29164696 144.95457458
v -88.50267792 21.00228310 144.95457458
v -93.51720428 20.89645576 144.55873108
v -93.51720428 20.89645576 144.55873108
v -88.50267792 21.00228310 144.95457458
v -88.52558136 20.60709190 144.55873108
v -93.51720428 20.89645576 144.55873108
v -88.52558136 20.60709190 144.55873108
v -93.53443909 20.59911156 144.08471680
v -93.53443909 20.59911156 144.08471680
v -88.52558136 20.60709190 144.55873108
v -88.54282379 20.30974770 144.08471680
v -93.53443909 20.59911156 144.08471680
v -88.54282379 20.30974770 144.08471680
v -93.54514313 20.41452408 143.55630493
v -93.54514313 20.41452408 143.55630493
v -88.54282379 20.30974770 144.08471680
v -88.55352020 20.12516022 143.55630493
v -93.54514313 20.41452408 143.55630493
v -88.55352020 20.12516022 143.55630493
v -93.54876709 20.35194969 143.00000000
v -93.54876709 20.35194969 143.00000000
v -88.55352020 20.12516022 143.55630493
v -88.55715179 20.06258392 143.00000000
v -93.54876709 20.35194969 143.00000000
v -88.55715179 20.06258392 143.00000000
v -93.54514313 20.41452408 142.44369507
v -93.54514313 20.41452408 142.44369507
v -88.55715179 20.06258392 143.00000000
v -88.55352020 20.12516022 142.44369507
v -93.54514313 20.41452408 142.44369507
v -88.55352020 20.12516022 142.44369507
v -93.53443909 20.59911156 141.91529846
v -93.53443909 20.59911156 141.91529846
v -88.55352020 20.12516022 142.44369507
v -88.54282379 20.30974770 141.91529846
v -93.53443909 20.59911156 141.91529846
v -88.54282379 20.30974770 141.91529846
v -93.51720428 20.89645576 141.44126892
v -93.51720428 20.89645576 141.44126892
v -88.54282379 20.30974770 141.91529846
v -88.52558136 20.60709190 141.44126892
v -93.51720428 20.89645576 141.44126892
v -88.52558136 20.60709190 141.44126892
v -93.49429321 21.29164696 141.04542542
v -93.49429321 21.29164696 141.04542542
v -88.52558136 20.60709190 141.44126892
v -88.50267792 21.00228310 141.04542542
v -93.49429321 21.29164696 141.04542542
v -88.50267792 21.00228310 141.04542542
v -93.46686554 21.76486778 140.74757385
v -93.46686554 21.76486778 140.74757385
v -88.50267792 21.00228310 141.04542542
v -88.47524261 21.47550392 140.74757385
v -93.46686554 21.76486778 140.74757385
v -88.47524261 21.47550392 140.74757385
v -93.43627930 22.29238892 140.56268311
v -93.43627930 22.29238892 140.56268311
v -88.47524261 21.47550392 140.74757385
v -88.44466400 22.00302505 140.56268311
v -93.43627930 22.29238892 140.56268311
v -88.44466400 22.00302505 140.56268311
v -93.40408325 22.84775925 140.50000000
v -93.40408325 22.84775925 140.50000000
v -88.44466400 22.00302505 140.56268311
v -88.41246796 22.55839539 140.50000000
v -93.40408325 22.84775925 140.50000000
v -88.41246796 22.55839539 140.50000000
v -93.37189484 23.40312958 140.56268311
v -93.37189484 23.40312958 140.56268311
v -88.41246796 22.55839539 140.50000000
v -88.38027191 23.11376381 140.56268311
v -93.37189484 23.40312958 140.56268311
v -88.38027191 23.11376381 140.56268311
v -93.34130859 23.93065071 140.74757385
v -93.34130859 23.93065071 140.74757385
v -88.38027191 23.11376381 140.56268311
v -88.34969330 23.64128685 140.74757385
v -93.34130859 23.93065071 140.74757385
v -88.34969330 23.64128685 140.74757385
v -93.31388092 24.40387154 141.04542542
v -93.31388092 24.40387154 141.04542542
v -88.34969330 23.64128685 140.74757385
v -88.32225800 24.11450577 141.04542542
v -93.31388092 24.40387154 141.04542542
v -88.32225800 24.11450577 141.04542542
v -93.29096985 24.79906082 141.44126892
v -93.29096985 24.79906082 141.44126892
v -88.32225800 24.11450577 141.04542542
v -88.29934692 24.50969696 141.44126892
v -93.29096985 24.79906082 141.44126892
v -88.29934692 24.50969696 141.44126892
v -93.27373505 25.09640503 141.91529846
v -93.27373505 25.09640503 141.91529846
v -88.29934692 24.50969696 141.44126892
v -88.28211212 24.80704117 141.91529846
v -93.27373505 25.09640503 141.91529846
v -88.28211212 24.80704117 141.91529846
v -93.26303101 25.28099442 142.44369507
v -93.26303101 25.28099442 142.44369507
v -88.28211212 24.80704117 141.91529846
v -88.27141571 24.99162865 142.44369507
v -92.53599548 37.82261658 58.00000000
v -92.53599548 37.82261658 148.00000000
v -87.54437256 37.53325272 58.00000000
v -87.54437256 37.53325272 58.00000000
v -92.53599548 37.82261658 148.00000000
v -87.54437256 37.53325272 148.00000000
v -88.70182800 17.56677437 148.00000000
v -87.54437256 37.53325272 148.00000000
v -93.69345093 17.85613823 148.00000000
v -93.69345093 17.85613823 148.00000000
v -87.54437256 37.53325272 148.00000000
v -92.53599548 37.82261658 148.00000000
v -88.70182800 17.56677437 53.00000000
v -88.70182800 17.56677437 148.00000000
v -93.69345093 17.85613823 53.00000000
v -93.69345093 17.85613823 53.00000000
v -88.70182800 17.56677437 148.00000000
v -93.69345093 17.85613823 148.00000000
v -88.37413025 23.21966362 56.43675232
v -88.38027191 23.11376381 140.56268311
v -88.41246796 22.55839539 56.50000000
v -88.41246796 22.55839539 56.50000000
v -88.38027191 23.11376381 140.56268311
v -88.41246796 22.55839539 140.50000000
v -88.41246796 22.55839539 56.50000000
v -88.41246796 22.55839539 140.50000000
v -88.44466400 22.00302505 140.56268311
v -88.38027191 23.11376381 140.56268311
v -88.37413025 23.21966362 56.43675232
v -88.34969330 23.64128685 140.74757385
v -88.34969330 23.64128685 140.74757385
v -88.37413025 23.21966362 56.43675232
v -88.33718872 23.85703278 56.24929047
v -88.34969330 23.64128685 140.74757385
v -88.33718872 23.85703278 56.24929047
v -88.32225800 24.11450577 141.04542542
v -88.32225800 24.11450577 141.04542542
v -88.33718872 23.85703278 56.24929047
v -88.30295563 24.44746590 55.94438934
v -88.32225800 24.11450577 141.04542542
v -88.30295563 24.44746590 55.94438934
v -88.29934692 24.50969696 141.44126892
v -88.29934692 24.50969696 141.44126892
v -88.30295563 24.44746590 55.94438934
v -88.27268982 24.96962357 55.53306961
v -88.29934692 24.50969696 141.44126892
v -88.27268982 24.96962357 55.53306961
v -88.24747467 25.40463257 55.03020096
v -88.29934692 24.50969696 141.44126892
v -88.24747467 25.40463257 55.03020096
v -88.28211212 24.80704117 141.91529846
v -88.28211212 24.80704117 141.91529846
v -88.24747467 25.40463257 55.03020096
v -88.22821808 25.73677063 54.45395279
v -88.28211212 24.80704117 141.91529846
v -88.22821808 25.73677063 54.45395279
v -88.27141571 24.99162865 142.44369507
v -88.27141571 24.99162865 142.44369507
v -88.22821808 25.73677063 54.45395279
v -87.93196106 30.84726906 48.56116867
v -88.27141571 24.99162865 142.44369507
v -87.93196106 30.84726906 48.56116867
v -87.87200165 31.88158035 48.99031067
v -88.22821808 25.73677063 54.45395279
v -88.21562195 25.95403481 53.82515717
v -87.93196106 30.84726906 48.56116867
v -87.93196106 30.84726906 48.56116867
v -88.21562195 25.95403481 53.82515717
v -87.99432373 29.77149391 48.25072098
v -87.99432373 29.77149391 48.25072098
v -88.21562195 25.95403481 53.82515717
v -88.05830383 28.66778374 48.06287766
v -88.05830383 28.66778374 48.06287766
v -88.21562195 25.95403481 53.82515717
v -88.21014404 26.04857063 53.16653824
v -88.05830383 28.66778374 48.06287766
v -88.21014404 26.04857063 53.16653824
v -88.12310028 27.55001450 48.00000000
v -88.12310028 27.55001450 48.00000000
v -88.21014404 26.04857063 53.16653824
v -88.21197510 26.01696396 52.50189972
v -88.12310028 27.55001450 48.00000000
v -88.21197510 26.01696396 52.50189972
v -88.22105408 25.86035347 51.85526276
v -88.22105408 25.86035347 51.85526276
v -88.23705292 25.58440399 51.25000000
v -88.12310028 27.55001450 48.00000000
v -88.12310028 27.55001450 48.00000000
v -88.23705292 25.58440399 51.25000000
v -88.25938416 25.19908524 50.70798874
v -88.12310028 27.55001450 48.00000000
v -88.25938416 25.19908524 50.70798874
v -88.28725433 24.71832466 50.24881363
v -88.28725433 24.71832466 50.24881363
v -88.31964874 24.15950012 49.88907623
v -88.12310028 27.55001450 48.00000000
v -88.12310028 27.55001450 48.00000000
v -88.31964874 24.15950012 49.88907623
v -88.41246796 22.55839539 48.00000000
v -88.41246796 22.55839539 48.00000000
v -88.31964874 24.15950012 49.88907623
v -88.35540009 23.54280663 49.64177704
v -88.41246796 22.55839539 48.00000000
v -88.35540009 23.54280663 49.64177704
v -88.39321136 22.89053345 49.51585007
v -88.39321136 22.89053345 49.51585007
v -88.43172455 22.22625542 49.51585007
v -88.41246796 22.55839539 48.00000000
v -88.41246796 22.55839539 48.00000000
v -88.43172455 22.22625542 49.51585007
v -88.45773315 21.77753258 48.06155777
v -88.45773315 21.77753258 48.06155777
v -88.43172455 22.22625542 49.51585007
v -88.46953583 21.57398415 49.64177704
v -88.45773315 21.77753258 48.06155777
v -88.46953583 21.57398415 49.64177704
v -88.50188446 21.01589966 48.24471664
v -88.50188446 21.01589966 48.24471664
v -88.46953583 21.57398415 49.64177704
v -88.50527954 20.95729065 49.88907623
v -88.50188446 21.01589966 48.24471664
v -88.50527954 20.95729065 49.88907623
v -88.54383850 20.29224777 48.54496765
v -88.54383850 20.29224777 48.54496765
v -88.50527954 20.95729065 49.88907623
v -88.53768158 20.39846420 50.24881363
v -88.54383850 20.29224777 48.54496765
v -88.53768158 20.39846420 50.24881363
v -88.56555176 19.91770554 50.70798874
v -88.54383850 20.29224777 48.54496765
v -88.56555176 19.91770554 50.70798874
v -88.58255005 19.62439346 48.95491791
v -88.58255005 19.62439346 48.95491791
v -88.56555176 19.91770554 50.70798874
v -88.58788300 19.53238678 51.25000000
v -88.58255005 19.62439346 48.95491791
v -88.58788300 19.53238678 51.25000000
v -88.61708069 19.02878571 49.46446609
v -88.61708069 19.02878571 49.46446609
v -88.58788300 19.53238678 51.25000000
v -88.60388184 19.25643539 51.85526276
v -88.61708069 19.02878571 49.46446609
v -88.60388184 19.25643539 51.85526276
v -88.61296082 19.09982681 52.50189972
v -88.61708069 19.02878571 49.46446609
v -88.61296082 19.09982681 52.50189972
v -88.64656830 18.52009010 50.06107330
v -88.64656830 18.52009010 50.06107330
v -88.61296082 19.09982681 52.50189972
v -88.61479187 19.06821823 53.16653824
v -88.64656830 18.52009010 50.06107330
v -88.61479187 19.06821823 53.16653824
v -88.67029572 18.11082840 50.73004913
v -88.67029572 18.11082840 50.73004913
v -88.61479187 19.06821823 53.16653824
v -88.68766785 17.81108284 51.45491791
v -88.68766785 17.81108284 51.45491791
v -88.61479187 19.06821823 53.16653824
v -88.70182800 17.56677437 53.00000000
v -88.68766785 17.81108284 51.45491791
v -88.70182800 17.56677437 53.00000000
v -88.69826508 17.62823105 52.21783066
v -88.61479187 19.06821823 53.16653824
v -88.60931396 19.16275597 53.82515717
v -88.70182800 17.56677437 53.00000000
v -88.70182800 17.56677437 53.00000000
v -88.60931396 19.16275597 53.82515717
v -88.59671783 19.38001823 54.45395279
v -88.70182800 17.56677437 53.00000000
v -88.59671783 19.38001823 54.45395279
v -88.57746124 19.71215820 55.03020096
v -88.55224609 20.14716721 55.53306961
v -88.52558136 20.60709190 141.44126892
v -88.57746124 19.71215820 55.03020096
v -88.57746124 19.71215820 55.03020096
v -88.52558136 20.60709190 141.44126892
v -88.54282379 20.30974770 141.91529846
v -88.57746124 19.71215820 55.03020096
v -88.54282379 20.30974770 141.91529846
v -88.70182800 17.56677437 53.00000000
v -88.70182800 17.56677437 53.00000000
v -88.54282379 20.30974770 141.91529846
v -88.55352020 20.12516022 142.44369507
v -88.70182800 17.56677437 53.00000000
v -88.55352020 20.12516022 142.44369507
v -88.70182800 17.56677437 148.00000000
v -88.70182800 17.56677437 148.00000000
v -88.55352020 20.12516022 142.44369507
v -88.55715179 20.06258392 143.00000000
v -88.70182800 17.56677437 148.00000000
v -88.55715179 20.06258392 143.00000000
v -88.55352020 20.12516022 143.55630493
v -88.55224609 20.14716721 55.53306961
v -88.52198029 20.66932297 55.94438934
v -88.52558136 20.60709190 141.44126892
v -88.52558136 20.60709190 141.44126892
v -88.52198029 20.66932297 55.94438934
v -88.50267792 21.00228310 141.04542542
v -88.50267792 21.00228310 141.04542542
v -88.52198029 20.66932297 55.94438934
v -88.48774719 21.25975609 56.24929047
v -88.50267792 21.00228310 141.04542542
v -88.48774719 21.25975609 56.24929047
v -88.47524261 21.47550392 140.74757385
v -88.47524261 21.47550392 140.74757385
v -88.48774719 21.25975609 56.24929047
v -88.45079803 21.89712524 56.43675232
v -88.47524261 21.47550392 140.74757385
v -88.45079803 21.89712524 56.43675232
v -88.44466400 22.00302505 140.56268311
v -88.44466400 22.00302505 140.56268311
v -88.45079803 21.89712524 56.43675232
v -88.41246796 22.55839539 56.50000000
v -87.87200165 31.88158035 48.99031067
v -87.81520081 32.86141968 49.53276062
v -88.27141571 24.99162865 142.44369507
v -88.27141571 24.99162865 142.44369507
v -87.81520081 32.86141968 49.53276062
v -87.54437256 37.53325272 58.00000000
v -88.27141571 24.99162865 142.44369507
v -87.54437256 37.53325272 58.00000000
v -87.54437256 37.53325272 148.00000000
v -87.81520081 32.86141968 49.53276062
v -87.76227570 33.77446365 50.18168640
v -87.54437256 37.53325272 58.00000000
v -87.54437256 37.53325272 58.00000000
v -87.76227570 33.77446365 50.18168640
v -87.71388245 34.60923004 50.92893219
v -87.54437256 37.53325272 58.00000000
v -87.71388245 34.60923004 50.92893219
v -87.67063141 35.35522461 51.76510239
v -87.67063141 35.35522461 51.76510239
v -87.63307953 36.00306702 52.67967987
v -87.54437256 37.53325272 58.00000000
v -87.54437256 37.53325272 58.00000000
v -87.63307953 36.00306702 52.67967987
v -87.60168457 36.54460144 53.66116333
v -87.54437256 37.53325272 58.00000000
v -87.60168457 36.54460144 53.66116333
v -87.57685089 36.97302628 54.69721222
v -87.57685089 36.97302628 54.69721222
v -87.55888367 37.28295517 55.77479172
v -87.54437256 37.53325272 58.00000000
v -87.54437256 37.53325272 58.00000000
v -87.55888367 37.28295517 55.77479172
v -87.54801178 37.47048187 56.88035583
v -88.70182800 17.56677437 148.00000000
v -88.38027191 23.11376381 145.43731689
v -87.54437256 37.53325272 148.00000000
v -87.54437256 37.53325272 148.00000000
v -88.38027191 23.11376381 145.43731689
v -88.34969330 23.64128685 145.25242615
v -87.54437256 37.53325272 148.00000000
v -88.34969330 23.64128685 145.25242615
v -88.32225800 24.11450577 144.95457458
v -88.27141571 24.99162865 143.55630493
v -88.26778412 25.05420494 143.00000000
v -87.54437256 37.53325272 148.00000000
v -87.54437256 37.53325272 148.00000000
v -88.26778412 25.05420494 143.00000000
v -88.27141571 24.99162865 142.44369507
v -88.55352020 20.12516022 143.55630493
v -88.54282379 20.30974770 144.08471680
v -88.70182800 17.56677437 148.00000000
v -88.70182800 17.56677437 148.00000000
v -88.54282379 20.30974770 144.08471680
v -88.52558136 20.60709190 144.55873108
v -88.70182800 17.56677437 148.00000000
v -88.52558136 20.60709190 144.55873108
v -88.50267792 21.00228310 144.95457458
v -88.50267792 21.00228310 144.95457458
v -88.47524261 21.47550392 145.25242615
v -88.70182800 17.56677437 148.00000000
v -88.70182800 17.56677437 148.00000000
v -88.47524261 21.47550392 145.25242615
v -88.44466400 22.00302505 145.43731689
v -88.70182800 17.56677437 148.00000000
v -88.44466400 22.00302505 145.43731689
v -88.41246796 22.55839539 145.50000000
v -88.41246796 22.55839539 145.50000000
v -88.38027191 23.11376381 145.43731689
v -88.70182800 17.56677437 148.00000000
v -88.32225800 24.11450577 144.95457458
v -88.29934692 24.50969696 144.55873108
v -87.54437256 37.53325272 148.00000000
v -87.54437256 37.53325272 148.00000000
v -88.29934692 24.50969696 144.55873108
v -88.28211212 24.80704117 144.08471680
v -87.54437256 37.53325272 148.00000000
v -88.28211212 24.80704117 144.08471680
v -88.27141571 24.99162865 143.55630493
f 1 2 3
f 4 5 6
f 7 8 9
f 10 11 12
f 13 14 15
f 16 17 18
f 19 20 21
f 22 23 24
f 25 26 27
f 28 29 30
f 31 32 33
f 34 35 36
f 37 38 39
f 40 41 42
f 43 44 45
f 46 47 48
f 49 50 51
f 52 53 54
f 55 56 57
f 58 59 60
f 61 62 63
f 64 65 66
f 67 68 69
f 70 71 72
f 73 74 75
f 76 77 78
f 79 80 81
f 82 83 84
f 85 86 87
f 88 89 90
f 91 92 93
f 94 95 96
f 97 98 99
f 100 101 102
f 103 104 105
f 106 107 108
f 109 110 111
f 112 113 114
f 115 116 117
f 118 119 120
f 121 122 123
f 124 125 126
f 127 128 129
f 130 131 132
f 133 134 135
f 136 137 138
f 139 140 141
f 142 143 144
f 145 146 147
f 148 149 150
f 151 152 153
f 154 155 156
f 157 158 159
f 160 161 162
f 163 164 165
f 166 167 168
f 169 170 171
f 172 173 174
f 175 176 177
f 178 179 180
f 181 182 183
f 184 185 186
f 187 188 189
f 190 191 192
f 193 194 195
f 196 197 198
f 199 200 201
f 202 203 204
f 205 206 207
f 208 209 210
f 211 212 213
f 214 215 216
f 217 218 219
f 220 221 222
f 223 224 225
f 226 227 228
f 229 230 231
f 232 233 234
f 235 236 237
f 238 239 240
f 241 242 243
f 244 245 246
f 247 248 249
f 250 251 252
f 253 254 255
f 256 257 258
f 259 260 261
f 262 263 264
f 265 266 267
f 268 269 270
f 271 272 273
f 274 275 276
f 277 278 279
f 280 281 282
f 283 284 285
f 286 287 288
f 289 290 291
f 292 293 294
f 295 296 297
f 298 299 300
f 301 302 303
f 304 305 306
f 307 308 309
f 310 311 312
f 313 314 315
f 316 317 318
f 319 320 321
f 322 323 324
f 325 326 327
f 328 329 330
f 331 332 333
f 334 335 336
f 337 338 339
f 340 341 342
f 343 344 345
f 346 347 348
f 349 350 351
f 352 353 354
f 355 356 357
f 358 359 360
f 361 362 363
f 364 365 366
f 367 368 369
f 370 371 372
f 373 374 375
f 376 377 378
f 379 380 381
f 382 383 384
f 385 386 387
f 388 389 390
f 391 392 393
f 394 395 396
f 397 398 399
f 400 401 402
f 403 404 405
f 406 407 408
f 409 410 411
f 412 413 414
f 415 416 417
f 418 419 420
f 421 422 423
f 424 425 426
f 427 428 429
f 430 431 432
f 433 434 435
f 436 437 438
f 439 440 441
f 442 443 444
f 445 446 447
f 448 449 450
f 451 452 453
f 454 455 456
f 457 458 459
f 460 461 462
f 463 464 465
f 466 467 468
f 469 470 471
f 472 473 474
f 475 476 477
f 478 479 480
f 481 482 483
f 484 485 486
f 487 488 489
f 490 491 492
f 493 494 495
f 496 497 498
f 499 500 501
f 502 503 504
f 505 506 507
f 508 509 510
f 511 512 513
f 514 515 516
f 517 518 519
f 520 521 522
f 523 524 525
f 526 527 528
f 529 530 531
f 532 533 534
f 535 536 537
f 538 539 540
f 541 542 543
f 544 545 546
f 547 548 549
f 550 551 552
f 553 554 555
f 556 557 558
f 559 560 561
f 562 563 564
f 565 566 567
f 568 569 570
f 571 572 573
f 574 575 576
f 577 578 579
f 580 581 582
f 583 584 585
f 586 587 588
f 589 590 591
f 592 593 594
f 595 596 597
f 598 599 600
f 601 602 603
f 604 605 606
f 607 608 609
f 610 611 612
f 613 614 615
f 616 617 618
f 619 620 621
f 622 623 624
f 625 626 627
f 628 629 630
f 631 632 633
f 634 635 636
f 637 638 639
f 640 641 642
f 643 644 645
f 646 647 648
f 649 650 651
f 652 653 654
f 655 656 657
f 658 659 660
f 661 662 663
f 664 665 666
f 667 668 669
f 670 671 672
f 673 674 675
f 676 677 678
f 679 680 681
f 682 683 684
f 685 686 687
f 688 689 690
f 691 692 693
f 694 695 696
f 697 698 699
f 700 701 702
f 703 704 705
f 706 707 708
f 709 710 711
f 712 713 714
f 715 716 717
f 718 719 720
f 721 722 723
f 724 725 726
f 727 728 729
f 730 731 732
f 733 734 735
f 736 737 738
f 739 740 741
f 742 743 744
f 745 746 747
f 748 749 750
f 751 752 753
f 754 755 756
f 757 758 759
f 760 761 762
f 763 764 765
f 766 767 768
f 769 770 771
f 772 773 774
f 775 776 777
f 778 779 780
f 781 782 783
f 784 785 786
f 787 788 789
f 790 791 792
f 793 794 795
f 796 797 798
f 799 800 801
f 802 803 804
f 805 806 807
f 808 809 810
f 811 812 813
f 814 815 816
f 817 818 819
f 820 821 822
f 823 824 825
f 826 827 828
f 829 830 831
f 832 833 834
f 835 836 837
f 838 839 840
f 841 842 843
f 844 845 846
f 847 848 849
f 850 851 852
f 853 854 855
f 856 857 858
f 859 860 861
f 862 863 864
f 865 866 867
f 868 869 870
f 871 872 873
f 874 875 876
f 877 878 879
f 880 881 882
f 883 884 885
f 886 887 888
f 889 890 891
f 892 893 894
f 895 896 897
f 898 899 900
f 901 902 903
f 904 905 906
f 907 908 909
f 910 911 912
f 913 914 915
f 916 917 918
f 919 920 921
f 922 923 924
f 925 926 927
f 928 929 930
f 931 932 933
f 934 935 936
f 937 938 939
f 940 941 942
f 943 944 945
f 946 947 948
f 949 950 951
f 952 953 954
f 955 956 957
f 958 959 960
f 961 962 963
f 964 965 966
f 967 968 969
f 970 971 972
f 973 974 975
f 976 977 978
f 979 980 981
f 982 983 984
f 985 986 987
f 988 989 990
f 991 992 993
f 994 995 996
f 997 998 999
f 1000 1001 1002
f 1003 1004 1005
f 1006 1007 1008
f 1009 1010 1011
f 1012 1013 1014
f 1015 1016 1017
f 1018 1019 1020
f 1021 1022 1023
f 1024 1025 1026
f 1027 1028 1029
f 1030 1031 1032
f 1033 1034 1035
f 1036 1037 1038
f 1039 1040 1041
f 1042 1043 1044
f 1045 1046 1047
f 1048 1049 1050
f 1051 1052 1053
f 1054 1055 1056
f 1057 1058 1059
f 1060 1061 1062
f 1063 1064 1065
f 1066 1067 1068
f 1069 1070 1071
f 1072 1073 1074
f 1075 1076 1077
f 1078 1079 1080
f 1081 1082 1083
f 1084 1085 1086
f 1087 1088 1089
f 1090 1091 1092
f 1093 1094 1095
f 1096 1097 1098
f 1099 1100 1101
f 1102 1103 1104
f 1105 1106 1107
f 1108 1109 1110
f 1111 1112 1113
f 1114 1115 1116
f 1117 1118 1119
f 1120 1121 1122
f 1123 1124 1125
f 1126 1127 1128
f 1129 1130 1131
f 1132 1133 1134
f 1135 1136 1137
f 1138 1139 1140
f 1141 1142 1143
f 1144 1145 1146
f 1147 1148 1149
f 1150 1151 1152
f 1153 1154 1155
f 1156 1157 1158
f 1159 1160 1161
f 1162 1163 1164
f 1165 1166 1167
f 1168 1169 1170
f 1171 1172 1173
f 1174 1175 1176
f 1177 1178 1179
f 1180 1181 1182
f 1183 1184 1185
f 1186 1187 1188
f 1189 1190 1191
f 1192 1193 1194
f 1195 1196 1197
f 1198 1199 1200
f 1201 1202 1203
f 1204 1205 1206
f 1207 1208 1209
f 1210 1211 1212
f 1213 1214 1215
f 1216 1217 1218
f 1219 1220 1221
f 1222 1223 1224
f 1225 1226 1227
f 1228 1229 1230
f 1231 1232 1233
f 1234 1235 1236
f 1237 1238 1239
f 1240 1241 1242
f 1243 1244 1245
f 1246 1247 1248
f 1249 1250 1251
f 1252 1253 1254
f 1255 1256 1257
f 1258 1259 1260
f 1261 1262 1263
f 1264 1265 1266
f 1267 1268 1269
f 1270 1271 1272
f 1273 1274 1275
f 1276 1277 1278
f 1279 1280 1281
f 1282 1283 1284
f 1285 1286 1287
f 1288 1289 1290
f 1291 1292 1293
f 1294 1295 1296
f 1297 1298 1299
f 1300 1301 1302
f 1303 1304 1305
f 1306 1307 1308
f 1309 1310 1311
f 1312 1313 1314
f 1315 1316 1317
f 1318 1319 1320
f 1321 1322 1323
f 1324 1325 1326
f 1327 1328 1329
f 1330 1331 1332
f 1333 1334 1335
f 1336 1337 1338
f 1339 1340 1341
f 1342 1343 1344
f 1345 1346 1347
f 1348 1349 1350
f 1351 1352 1353
f 1354 1355 1356
f 1357 1358 1359
f 1360 1361 1362
f 1363 1364 1365
f 1366 1367 1368
f 1369 1370 1371
f 1372 1373 1374
f 1375 1376 1377
f 1378 1379 1380
f 1381 1382 1383
f 1384 1385 1386
f 1387 1388 1389
f 1390 1391 1392
f 1393 1394 1395
f 1396 1397 1398
f 1399 1400 1401
f 1402 1403 1404
f 1405 1406 1407
f 1408 1409 1410
f 1411 1412 1413
f 1414 1415 1416
f 1417 1418 1419
f 1420 1421 1422
f 1423 1424 1425
f 1426 1427 1428
f 1429 1430 1431
f 1432 1433 1434
f 1435 1436 1437
f 1438 1439 1440
f 1441 1442 1443
f 1444 1445 1446
f 1447 1448 1449
f 1450 1451 1452
f 1453 1454 1455
f 1456 1457 1458
f 1459 1460 1461
f 1462 1463 1464
f 1465 1466 1467
f 1468 1469 1470
f 1471 1472 1473
f 1474 1475 1476
f 1477 1478 1479
f 1480 1481 1482
f 1483 1484 1485
f 1486 1487 1488
f 1489 1490 1491
f 1492 1493 1494
f 1495 1496 1497
f 1498 1499 1500
f 1501 1502 1503
f 1504 1505 1506
f 1507 1508 1509
f 1510 1511 1512
f 1513 1514 1515
f 1516 1517 1518
f 1519 1520 1521
f 1522 1523 1524
f 1525 1526 1527
f 1528 1529 1530
f 1531 1532 1533
f 1534 1535 1536
f 1537 1538 1539
f 1540 1541 1542
f 1543 1544 1545
f 1546 1547 1548
f 1549 1550 1551
f 1552 1553 1554
f 1555 1556 1557
f 1558 1559 1560
f 1561 1562 1563
f 1564 1565 1566
f 1567 1568 1569
f 1570 1571 1572
f 1573 1574 1575
f 1576 1577 1578
f 1579 1580 1581
f 1582 1583 1584
f 1585 1586 1587
f 1588 1589 1590
f 1591 1592 1593
f 1594 1595 1596
f 1597 1598 1599
f 1600 1601 1602
f 1603 1604 1605
f 1606 1607 1608
f 1609 1610 1611
f 1612 1613 1614
f 1615 1616 1617
f 1618 1619 1620
f 1621 1622 1623
f 1624 1625 1626
f 1627 1628 1629
f 1630 1631 1632
f 1633 1634 1635
f 1636 1637 1638
f 1639 1640 1641
f 1642 1643 1644
f 1645 1646 1647
f 1648 1649 1650
f 1651 1652 1653
f 1654 1655 1656
f 1657 1658 1659
f 1660 1661 1662
f 1663 1664 1665
f 1666 1667 1668
f 1669 1670 1671
f 1672 1673 1674
f 1675 1676 1677
f 1678 1679 1680
f 1681 1682 1683
f 1684 1685 1686
f 1687 1688 1689
f 1690 1691 1692
f 1693 1694 1695
f 1696 1697 1698
f 1699 1700 1701
f 1702 1703 1704
f 1705 1706 1707
f 1708 1709 1710
f 1711 1712 1713
f 1714 1715 1716
f 1717 1718 1719
f 1720 1721 1722
f 1723 1724 1725
f 1726 1727 1728
f 1729 1730 1731
f 1732 1733 1734
f 1735 1736 1737
f 1738 1739 1740
f 1741 1742 1743
f 1744 1745 1746
f 1747 1748 1749
f 1750 1751 1752
f 1753 1754 1755
f 1756 1757 1758
f 1759 1760 1761
f 1762 1763 1764
f 1765 1766 1767
f 1768 1769 1770
f 1771 1772 1773
f 1774 1775 1776
f 1777 1778 1779
f 1780 1781 1782
f 1783 1784 1785
f 1786 1787 1788
f 1789 1790 1791
f 1792 1793 1794
f 1795 1796 1797
f 1798 1799 1800
f 1801 1802 1803
f 1804 1805 1806
f 1807 1808 1809
f 1810 1811 1812

