# https://github.com/mikedh/trimesh

o F_RightLink_1.stl
v -87.52490997 106.98615265 56.43675232
v -87.48657227 107.64742279 56.50000000
v -87.48657227 107.64742279 55.50000000
v -87.48657227 107.64742279 55.50000000
v -87.48657227 107.64742279 56.50000000
v -87.44824219 108.30869293 56.43675232
v -87.48657227 107.64742279 55.50000000
v -87.44824219 108.30869293 56.43675232
v -87.45437622 108.20279694 55.43731689
v -87.45437622 108.20279694 55.43731689
v -87.44824219 108.30869293 56.43675232
v -87.41129303 108.94606018 56.24928665
v -87.45437622 108.20279694 55.43731689
v -87.41129303 108.94606018 56.24928665
v -87.42379761 108.73031616 55.25242233
v -87.42379761 108.73031616 55.25242233
v -87.41129303 108.94606018 56.24928665
v -87.37705994 109.53649139 55.94438553
v -87.42379761 108.73031616 55.25242233
v -87.37705994 109.53649139 55.94438553
v -87.39636230 109.20353699 54.95457840
v -87.39636230 109.20353699 54.95457840
v -87.37705994 109.53649139 55.94438553
v -87.34679413 110.05865479 55.53306961
v -87.39636230 109.20353699 54.95457840
v -87.34679413 110.05865479 55.53306961
v -87.37345886 109.59872437 54.55872345
v -87.37345886 109.59872437 54.55872345
v -87.34679413 110.05865479 55.53306961
v -87.32157898 110.49365997 55.03020096
v -87.37345886 109.59872437 54.55872345
v -87.32157898 110.49365997 55.03020096
v -87.35621643 109.89607239 54.08470917
v -87.35621643 109.89607239 54.08470917
v -87.32157898 110.49365997 55.03020096
v -87.30232239 110.82579803 54.45395279
v -87.35621643 109.89607239 54.08470917
v -87.30232239 110.82579803 54.45395279
v -87.34552002 110.08065796 53.55630112
v -87.34552002 110.08065796 53.55630112
v -87.30232239 110.82579803 54.45395279
v -87.28972626 111.04306030 53.82515717
v -87.34552002 110.08065796 53.55630112
v -87.28972626 111.04306030 53.82515717
v -87.28424835 111.13759613 53.16653824
v -87.34552002 110.08065796 53.55630112
v -87.28424835 111.13759613 53.16653824
v -87.34188843 110.14323425 53.00000000
v -87.34188843 110.14323425 53.00000000
v -87.28424835 111.13759613 53.16653824
v -87.28607941 111.10599518 52.50189972
v -87.34188843 110.14323425 53.00000000
v -87.28607941 111.10599518 52.50189972
v -87.34552002 110.08065796 52.44369507
v -87.34552002 110.08065796 52.44369507
v -87.28607941 111.10599518 52.50189972
v -87.29515839 110.94937897 51.85526276
v -87.34552002 110.08065796 52.44369507
v -87.29515839 110.94937897 51.85526276
v -87.35621643 109.89607239 51.91529083
v -87.35621643 109.89607239 51.91529083
v -87.29515839 110.94937897 51.85526276
v -87.31115723 110.67343140 51.25000000
v -87.35621643 109.89607239 51.91529083
v -87.31115723 110.67343140 51.25000000
v -87.37345886 109.59872437 51.44127274
v -87.37345886 109.59872437 51.44127274
v -87.31115723 110.67343140 51.25000000
v -87.33349609 110.28811646 50.70798874
v -87.37345886 109.59872437 51.44127274
v -87.33349609 110.28811646 50.70798874
v -87.39636230 109.20353699 51.04542160
v -87.39636230 109.20353699 51.04542160
v -87.33349609 110.28811646 50.70798874
v -87.36135864 109.80735016 50.24881363
v -87.39636230 109.20353699 51.04542160
v -87.36135864 109.80735016 50.24881363
v -87.39376068 109.24852753 49.88907623
v -87.39636230 109.20353699 51.04542160
v -87.39376068 109.24852753 49.88907623
v -87.42379761 108.73031616 50.74757767
v -87.42379761 108.73031616 50.74757767
v -87.39376068 109.24852753 49.88907623
v -87.42950439 108.63183594 49.64177322
v -87.42379761 108.73031616 50.74757767
v -87.42950439 108.63183594 49.64177322
v -87.45437622 108.20278931 50.56267929
v -87.45437622 108.20278931 50.56267929
v -87.42950439 108.63183594 49.64177322
v -87.46731567 107.97956085 49.51585007
v -87.45437622 108.20278931 50.56267929
v -87.46731567 107.97956085 49.51585007
v -87.48657227 107.64742279 50.50000000
v -87.48657227 107.64742279 50.50000000
v -87.46731567 107.97956085 49.51585007
v -87.50582886 107.31528473 49.51585007
v -87.48657227 107.64742279 50.50000000
v -87.50582886 107.31528473 49.51585007
v -87.51876831 107.09205627 50.56267929
v -87.51876831 107.09205627 50.56267929
v -87.50582886 107.31528473 49.51585007
v -87.54364014 106.66300964 49.64177322
v -87.51876831 107.09205627 50.56267929
v -87.54364014 106.66300964 49.64177322
v -87.54934692 106.56452942 50.74757767
v -87.54934692 106.56452942 50.74757767
v -87.54364014 106.66300964 49.64177322
v -87.57939148 106.04631805 49.88907623
v -87.54934692 106.56452942 50.74757767
v -87.57939148 106.04631805 49.88907623
v -87.57678223 106.09130859 51.04542160
v -87.57678223 106.09130859 51.04542160
v -87.57939148 106.04631805 49.88907623
v -87.61178589 105.48749542 50.24881363
v -87.57678223 106.09130859 51.04542160
v -87.61178589 105.48749542 50.24881363
v -87.63965607 105.00672913 50.70798874
v -87.57678223 106.09130859 51.04542160
v -87.63965607 105.00672913 50.70798874
v -87.59969330 105.69612122 51.44127274
v -87.59969330 105.69612122 51.44127274
v -87.63965607 105.00672913 50.70798874
v -87.66198730 104.62141418 51.25000000
v -87.59969330 105.69612122 51.44127274
v -87.66198730 104.62141418 51.25000000
v -87.61692810 105.39877319 51.91529083
v -87.61692810 105.39877319 51.91529083
v -87.66198730 104.62141418 51.25000000
v -87.67798615 104.34546661 51.85526276
v -87.61692810 105.39877319 51.91529083
v -87.67798615 104.34546661 51.85526276
v -87.62762451 105.21418762 52.44369507
v -87.62762451 105.21418762 52.44369507
v -87.67798615 104.34546661 51.85526276
v -87.68706512 104.18885803 52.50189972
v -87.62762451 105.21418762 52.44369507
v -87.68706512 104.18885803 52.50189972
v -87.63125610 105.15161133 53.00000000
v -87.63125610 105.15161133 53.00000000
v -87.68706512 104.18885803 52.50189972
v -87.68889618 104.15724945 53.16653824
v -87.63125610 105.15161133 53.00000000
v -87.68889618 104.15724945 53.16653824
v -87.62762451 105.21418762 53.55630112
v -87.62762451 105.21418762 53.55630112
v -87.68889618 104.15724945 53.16653824
v -87.68341827 104.25178528 53.82515717
v -87.62762451 105.21418762 53.55630112
v -87.68341827 104.25178528 53.82515717
v -87.67082214 104.46904755 54.45395279
v -87.62762451 105.21418762 53.55630112
v -87.67082214 104.46904755 54.45395279
v -87.61692810 105.39877319 54.08470917
v -87.61692810 105.39877319 54.08470917
v -87.67082214 104.46904755 54.45395279
v -87.65157318 104.80118561 55.03020096
v -87.61692810 105.39877319 54.08470917
v -87.65157318 104.80118561 55.03020096
v -87.59969330 105.69612122 54.55872345
v -87.59969330 105.69612122 54.55872345
v -87.65157318 104.80118561 55.03020096
v -87.62635040 105.23619080 55.53306961
v -87.59969330 105.69612122 54.55872345
v -87.62635040 105.23619080 55.53306961
v -87.57678223 106.09130859 54.95457840
v -87.57678223 106.09130859 54.95457840
v -87.62635040 105.23619080 55.53306961
v -87.59608459 105.75835419 55.94438553
v -87.57678223 106.09130859 54.95457840
v -87.59608459 105.75835419 55.94438553
v -87.54934692 106.56452942 55.25242233
v -87.54934692 106.56452942 55.25242233
v -87.59608459 105.75835419 55.94438553
v -87.56185150 106.34878540 56.24928665
v -87.54934692 106.56452942 55.25242233
v -87.56185150 106.34878540 56.24928665
v -87.51876831 107.09205627 55.43731689
v -87.51876831 107.09205627 55.43731689
v -87.56185150 106.34878540 56.24928665
v -87.52490997 106.98615265 56.43675232
v -87.51876831 107.09205627 55.43731689
v -87.52490997 106.98615265 56.43675232
v -87.48657227 107.64742279 55.50000000
v -88.44656372 108.36656189 56.43675232
v -87.48657227 107.64742279 56.50000000
v -88.48489380 107.70529938 56.50000000
v -88.48489380 107.70529938 56.50000000
v -87.48657227 107.64742279 56.50000000
v -87.52490997 106.98615265 56.43675232
v -88.48489380 107.70529938 56.50000000
v -87.52490997 106.98615265 56.43675232
v -88.52323151 107.04402924 56.43675232
v -88.52323151 107.04402924 56.43675232
v -87.52490997 106.98615265 56.43675232
v -87.56185150 106.34878540 56.24928665
v -88.52323151 107.04402924 56.43675232
v -87.56185150 106.34878540 56.24928665
v -88.56018066 106.40665436 56.24928665
v -88.56018066 106.40665436 56.24928665
v -87.56185150 106.34878540 56.24928665
v -87.59608459 105.75835419 55.94438553
v -88.56018066 106.40665436 56.24928665
v -87.59608459 105.75835419 55.94438553
v -88.59440613 105.81622314 55.94438553
v -88.59440613 105.81622314 55.94438553
v -87.59608459 105.75835419 55.94438553
v -87.62635040 105.23619080 55.53306961
v -88.59440613 105.81622314 55.94438553
v -87.62635040 105.23619080 55.53306961
v -88.62467957 105.29406738 55.53306961
v -88.62467957 105.29406738 55.53306961
v -87.62635040 105.23619080 55.53306961
v -87.65157318 104.80118561 55.03020096
v -88.62467957 105.29406738 55.53306961
v -87.65157318 104.80118561 55.03020096
v -88.64989471 104.85905457 55.03020096
v -88.64989471 104.85905457 55.03020096
v -87.65157318 104.80118561 55.03020096
v -87.67082214 104.46904755 54.45395279
v -88.64989471 104.85905457 55.03020096
v -87.67082214 104.46904755 54.45395279
v -88.66915131 104.52691650 54.45395279
v -88.66915131 104.52691650 54.45395279
v -87.67082214 104.46904755 54.45395279
v -87.68341827 104.25178528 53.82515717
v -88.66915131 104.52691650 54.45395279
v -87.68341827 104.25178528 53.82515717
v -88.68173981 104.30965424 53.82515717
v -88.68173981 104.30965424 53.82515717
v -87.68341827 104.25178528 53.82515717
v -87.68889618 104.15724945 53.16653824
v -88.68173981 104.30965424 53.82515717
v -87.68889618 104.15724945 53.16653824
v -88.68722534 104.21511841 53.16653824
v -88.68722534 104.21511841 53.16653824
v -87.68889618 104.15724945 53.16653824
v -87.68706512 104.18885803 52.50189972
v -88.68722534 104.21511841 53.16653824
v -87.68706512 104.18885803 52.50189972
v -88.68538666 104.24672699 52.50189972
v -88.68538666 104.24672699 52.50189972
v -87.68706512 104.18885803 52.50189972
v -87.67798615 104.34546661 51.85526276
v -88.68538666 104.24672699 52.50189972
v -87.67798615 104.34546661 51.85526276
v -88.67631531 104.40333557 51.85526276
v -88.67631531 104.40333557 51.85526276
v -87.67798615 104.34546661 51.85526276
v -87.66198730 104.62141418 51.25000000
v -88.67631531 104.40333557 51.85526276
v -87.66198730 104.62141418 51.25000000
v -88.66031647 104.67929077 51.25000000
v -88.66031647 104.67929077 51.25000000
v -87.66198730 104.62141418 51.25000000
v -87.63965607 105.00672913 50.70798874
v -88.66031647 104.67929077 51.25000000
v -87.63965607 105.00672913 50.70798874
v -88.63797760 105.06460571 50.70798874
v -88.63797760 105.06460571 50.70798874
v -87.63965607 105.00672913 50.70798874
v -87.61178589 105.48749542 50.24881363
v -88.63797760 105.06460571 50.70798874
v -87.61178589 105.48749542 50.24881363
v -88.61010742 105.54536438 50.24881363
v -88.61010742 105.54536438 50.24881363
v -87.61178589 105.48749542 50.24881363
v -87.57939148 106.04631805 49.88907623
v -88.61010742 105.54536438 50.24881363
v -87.57939148 106.04631805 49.88907623
v -88.57771301 106.10419464 49.88907623
v -88.57771301 106.10419464 49.88907623
v -87.57939148 106.04631805 49.88907623
v -87.54364014 106.66300964 49.64177322
v -88.57771301 106.10419464 49.88907623
v -87.54364014 106.66300964 49.64177322
v -88.54196167 106.72088623 49.64177322
v -88.54196167 106.72088623 49.64177322
v -87.54364014 106.66300964 49.64177322
v -87.50582886 107.31528473 49.51585007
v -88.54196167 106.72088623 49.64177322
v -87.50582886 107.31528473 49.51585007
v -88.50415039 107.37315369 49.51585007
v -88.50415039 107.37315369 49.51585007
v -87.50582886 107.31528473 49.51585007
v -87.46731567 107.97956085 49.51585007
v -88.50415039 107.37315369 49.51585007
v -87.46731567 107.97956085 49.51585007
v -88.46564484 108.03743744 49.51585007
v -88.46564484 108.03743744 49.51585007
v -87.46731567 107.97956085 49.51585007
v -87.42950439 108.63183594 49.64177322
v -88.46564484 108.03743744 49.51585007
v -87.42950439 108.63183594 49.64177322
v -88.42783356 108.68970490 49.64177322
v -88.42783356 108.68970490 49.64177322
v -87.42950439 108.63183594 49.64177322
v -87.39376068 109.24852753 49.88907623
v -88.42783356 108.68970490 49.64177322
v -87.39376068 109.24852753 49.88907623
v -88.39208221 109.30640411 49.88907623
v -88.39208221 109.30640411 49.88907623
v -87.39376068 109.24852753 49.88907623
v -87.36135864 109.80735016 50.24881363
v -88.39208221 109.30640411 49.88907623
v -87.36135864 109.80735016 50.24881363
v -88.35968781 109.86522675 50.24881363
v -88.35968781 109.86522675 50.24881363
v -87.36135864 109.80735016 50.24881363
v -87.33349609 110.28811646 50.70798874
v -88.35968781 109.86522675 50.24881363
v -87.33349609 110.28811646 50.70798874
v -88.33181763 110.34598541 50.70798874
v -88.33181763 110.34598541 50.70798874
v -87.33349609 110.28811646 50.70798874
v -87.31115723 110.67343140 51.25000000
v -88.33181763 110.34598541 50.70798874
v -87.31115723 110.67343140 51.25000000
v -88.30947876 110.73130798 51.25000000
v -88.30947876 110.73130798 51.25000000
v -87.31115723 110.67343140 51.25000000
v -87.29515839 110.94937897 51.85526276
v -88.30947876 110.73130798 51.25000000
v -87.29515839 110.94937897 51.85526276
v -88.29347992 111.00725555 51.85526276
v -88.29347992 111.00725555 51.85526276
v -87.29515839 110.94937897 51.85526276
v -87.28607941 111.10599518 52.50189972
v -88.29347992 111.00725555 51.85526276
v -87.28607941 111.10599518 52.50189972
v -88.28440094 111.16386414 52.50189972
v -88.28440094 111.16386414 52.50189972
v -87.28607941 111.10599518 52.50189972
v -87.28424835 111.13759613 53.16653824
v -88.28440094 111.16386414 52.50189972
v -87.28424835 111.13759613 53.16653824
v -88.28256989 111.19547272 53.16653824
v -88.28256989 111.19547272 53.16653824
v -87.28424835 111.13759613 53.16653824
v -87.28972626 111.04306030 53.82515717
v -88.28256989 111.19547272 53.16653824
v -87.28972626 111.04306030 53.82515717
v -88.28805542 111.10093689 53.82515717
v -88.28805542 111.10093689 53.82515717
v -87.28972626 111.04306030 53.82515717
v -87.30232239 110.82579803 54.45395279
v -88.28805542 111.10093689 53.82515717
v -87.30232239 110.82579803 54.45395279
v -88.30064392 110.88367462 54.45395279
v -88.30064392 110.88367462 54.45395279
v -87.30232239 110.82579803 54.45395279
v -87.32157898 110.49365997 55.03020096
v -88.30064392 110.88367462 54.45395279
v -87.32157898 110.49365997 55.03020096
v -88.31990051 110.55153656 55.03020096
v -88.31990051 110.55153656 55.03020096
v -87.32157898 110.49365997 55.03020096
v -87.34679413 110.05865479 55.53306961
v -88.31990051 110.55153656 55.03020096
v -87.34679413 110.05865479 55.53306961
v -88.34511566 110.11652374 55.53306961
v -88.34511566 110.11652374 55.53306961
v -87.34679413 110.05865479 55.53306961
v -87.37705994 109.53649139 55.94438553
v -88.34511566 110.11652374 55.53306961
v -87.37705994 109.53649139 55.94438553
v -88.37538910 109.59436798 55.94438553
v -88.37538910 109.59436798 55.94438553
v -87.37705994 109.53649139 55.94438553
v -87.41129303 108.94606018 56.24928665
v -88.37538910 109.59436798 55.94438553
v -87.41129303 108.94606018 56.24928665
v -88.40961456 109.00393677 56.24928665
v -88.40961456 109.00393677 56.24928665
v -87.41129303 108.94606018 56.24928665
v -87.44824219 108.30869293 56.43675232
v -88.40961456 109.00393677 56.24928665
v -87.44824219 108.30869293 56.43675232
v -88.44656372 108.36656189 56.43675232
v -88.44656372 108.36656189 56.43675232
v -87.44824219 108.30869293 56.43675232
v -87.48657227 107.64742279 56.50000000
v -84.45326996 108.13507080 56.43674850
v -84.49160004 107.47380829 56.50000000
v -84.49160004 107.47380829 55.50000000
v -84.49160004 107.47380829 55.50000000
v -84.49160004 107.47380829 56.50000000
v -84.52993774 106.81253815 56.43674850
v -84.49160004 107.47380829 55.50000000
v -84.52993774 106.81253815 56.43674850
v -84.52379608 106.91843414 55.43731689
v -84.52379608 106.91843414 55.43731689
v -84.52993774 106.81253815 56.43674850
v -84.56688690 106.17516327 56.24928665
v -84.52379608 106.91843414 55.43731689
v -84.56688690 106.17516327 56.24928665
v -84.55437469 106.39091492 55.25242233
v -84.55437469 106.39091492 55.25242233
v -84.56688690 106.17516327 56.24928665
v -84.60111237 105.58473206 55.94438553
v -84.55437469 106.39091492 55.25242233
v -84.60111237 105.58473206 55.94438553
v -84.58181000 105.91769409 54.95457840
v -84.58181000 105.91769409 54.95457840
v -84.60111237 105.58473206 55.94438553
v -84.63137817 105.06257629 55.53306961
v -84.58181000 105.91769409 54.95457840
v -84.63137817 105.06257629 55.53306961
v -84.60472107 105.52249908 54.55872345
v -84.60472107 105.52249908 54.55872345
v -84.63137817 105.06257629 55.53306961
v -84.65660095 104.62756348 55.03019714
v -84.60472107 105.52249908 54.55872345
v -84.65660095 104.62756348 55.03019714
v -84.62195587 105.22515869 54.08470917
v -84.62195587 105.22515869 54.08470917
v -84.65660095 104.62756348 55.03019714
v -84.67584991 104.29542542 54.45395279
v -84.62195587 105.22515869 54.08470917
v -84.67584991 104.29542542 54.45395279
v -84.63265228 105.04057312 53.55630112
v -84.63265228 105.04057312 53.55630112
v -84.67584991 104.29542542 54.45395279
v -84.68844604 104.07816315 53.82515335
v -84.63265228 105.04057312 53.55630112
v -84.68844604 104.07816315 53.82515335
v -84.69392395 103.98362732 53.16653442
v -84.63265228 105.04057312 53.55630112
v -84.69392395 103.98362732 53.16653442
v -84.63628387 104.97799683 53.00000000
v -84.63628387 104.97799683 53.00000000
v -84.69392395 103.98362732 53.16653442
v -84.69209290 104.01523590 52.50189590
v -84.63628387 104.97799683 53.00000000
v -84.69209290 104.01523590 52.50189590
v -84.63265228 105.04057312 52.44369507
v -84.63265228 105.04057312 52.44369507
v -84.69209290 104.01523590 52.50189590
v -84.68301392 104.17184448 51.85526276
v -84.63265228 105.04057312 52.44369507
v -84.68301392 104.17184448 51.85526276
v -84.62195587 105.22515869 51.91529083
v -84.62195587 105.22515869 51.91529083
v -84.68301392 104.17184448 51.85526276
v -84.66702271 104.44779968 51.25000000
v -84.62195587 105.22515869 51.91529083
v -84.66702271 104.44779968 51.25000000
v -84.60472107 105.52249908 51.44127274
v -84.60472107 105.52249908 51.44127274
v -84.66702271 104.44779968 51.25000000
v -84.64468384 104.83311462 50.70798492
v -84.60472107 105.52249908 51.44127274
v -84.64468384 104.83311462 50.70798492
v -84.58181000 105.91769409 51.04542160
v -84.58181000 105.91769409 51.04542160
v -84.64468384 104.83311462 50.70798492
v -84.61681366 105.31387329 50.24881363
v -84.58181000 105.91769409 51.04542160
v -84.61681366 105.31387329 50.24881363
v -84.58441925 105.87270355 49.88907623
v -84.58181000 105.91769409 51.04542160
v -84.58441925 105.87270355 49.88907623
v -84.55437469 106.39091492 50.74757767
v -84.55437469 106.39091492 50.74757767
v -84.58441925 105.87270355 49.88907623
v -84.54866791 106.48939514 49.64177322
v -84.55437469 106.39091492 50.74757767
v -84.54866791 106.48939514 49.64177322
v -84.52379608 106.91843414 50.56267929
v -84.52379608 106.91843414 50.56267929
v -84.54866791 106.48939514 49.64177322
v -84.51085663 107.14166260 49.51584625
v -84.52379608 106.91843414 50.56267929
v -84.51085663 107.14166260 49.51584625
v -84.49160004 107.47380829 50.50000000
v -84.49160004 107.47380829 50.50000000
v -84.51085663 107.14166260 49.51584625
v -84.47234344 107.80594635 49.51584625
v -84.49160004 107.47380829 50.50000000
v -84.47234344 107.80594635 49.51584625
v -84.45940399 108.02917480 50.56267929
v -84.45940399 108.02917480 50.56267929
v -84.47234344 107.80594635 49.51584625
v -84.43453217 108.45821381 49.64177322
v -84.45940399 108.02917480 50.56267929
v -84.43453217 108.45821381 49.64177322
v -84.42882538 108.55669403 50.74757767
v -84.42882538 108.55669403 50.74757767
v -84.43453217 108.45821381 49.64177322
v -84.39878845 109.07491302 49.88907623
v -84.42882538 108.55669403 50.74757767
v -84.39878845 109.07491302 49.88907623
v -84.40139008 109.02991486 51.04542160
v -84.40139008 109.02991486 51.04542160
v -84.39878845 109.07491302 49.88907623
v -84.36638641 109.63373566 50.24881363
v -84.40139008 109.02991486 51.04542160
v -84.36638641 109.63373566 50.24881363
v -84.33852386 110.11449432 50.70798492
v -84.40139008 109.02991486 51.04542160
v -84.33852386 110.11449432 50.70798492
v -84.37848663 109.42510986 51.44127274
v -84.37848663 109.42510986 51.44127274
v -84.33852386 110.11449432 50.70798492
v -84.31618500 110.49981689 51.25000000
v -84.37848663 109.42510986 51.44127274
v -84.31618500 110.49981689 51.25000000
v -84.36124420 109.72245026 51.91529083
v -84.36124420 109.72245026 51.91529083
v -84.31618500 110.49981689 51.25000000
v -84.30018616 110.77576447 51.85526276
v -84.36124420 109.72245026 51.91529083
v -84.30018616 110.77576447 51.85526276
v -84.35054779 109.90703583 52.44369507
v -84.35054779 109.90703583 52.44369507
v -84.30018616 110.77576447 51.85526276
v -84.29110718 110.93237305 52.50189590
v -84.35054779 109.90703583 52.44369507
v -84.29110718 110.93237305 52.50189590
v -84.34691620 109.96961212 53.00000000
v -84.34691620 109.96961212 53.00000000
v -84.29110718 110.93237305 52.50189590
v -84.28927612 110.96398163 53.16653442
v -84.34691620 109.96961212 53.00000000
v -84.28927612 110.96398163 53.16653442
v -84.35054779 109.90703583 53.55630112
v -84.35054779 109.90703583 53.55630112
v -84.28927612 110.96398163 53.16653442
v -84.29475403 110.86944580 53.82515335
v -84.35054779 109.90703583 53.55630112
v -84.29475403 110.86944580 53.82515335
v -84.30735016 110.65218353 54.45395279
v -84.35054779 109.90703583 53.55630112
v -84.30735016 110.65218353 54.45395279
v -84.36124420 109.72245026 54.08470917
v -84.36124420 109.72245026 54.08470917
v -84.30735016 110.65218353 54.45395279
v -84.32660675 110.32004547 55.03019714
v -84.36124420 109.72245026 54.08470917
v -84.32660675 110.32004547 55.03019714
v -84.37848663 109.42510986 54.55872345
v -84.37848663 109.42510986 54.55872345
v -84.32660675 110.32004547 55.03019714
v -84.35182190 109.88503265 55.53306961
v -84.37848663 109.42510986 54.55872345
v -84.35182190 109.88503265 55.53306961
v -84.40139008 109.02991486 54.95457840
v -84.40139008 109.02991486 54.95457840
v -84.35182190 109.88503265 55.53306961
v -84.38209534 109.36287689 55.94438553
v -84.40139008 109.02991486 54.95457840
v -84.38209534 109.36287689 55.94438553
v -84.42882538 108.55669403 55.25242233
v -84.42882538 108.55669403 55.25242233
v -84.38209534 109.36287689 55.94438553
v -84.41632080 108.77244568 56.24928665
v -84.42882538 108.55669403 55.25242233
v -84.41632080 108.77244568 56.24928665
v -84.45940399 108.02917480 55.43731689
v -84.45940399 108.02917480 55.43731689
v -84.41632080 108.77244568 56.24928665
v -84.45326996 108.13507080 56.43674850
v -84.45940399 108.02917480 55.43731689
v -84.45326996 108.13507080 56.43674850
v -84.49160004 107.47380829 55.50000000
v -83.53160858 106.75466156 56.43674850
v -84.49160004 107.47380829 56.50000000
v -83.49327850 107.41593170 56.50000000
v -83.49327850 107.41593170 56.50000000
v -84.49160004 107.47380829 56.50000000
v -84.45326996 108.13507080 56.43674850
v -83.49327850 107.41593170 56.50000000
v -84.45326996 108.13507080 56.43674850
v -83.45494080 108.07720184 56.43674850
v -83.45494080 108.07720184 56.43674850
v -84.45326996 108.13507080 56.43674850
v -84.41632080 108.77244568 56.24928665
v -83.45494080 108.07720184 56.43674850
v -84.41632080 108.77244568 56.24928665
v -83.41799164 108.71456909 56.24928665
v -83.41799164 108.71456909 56.24928665
v -84.41632080 108.77244568 56.24928665
v -84.38209534 109.36287689 55.94438553
v -83.41799164 108.71456909 56.24928665
v -84.38209534 109.36287689 55.94438553
v -83.38376617 109.30500031 55.94438553
v -83.38376617 109.30500031 55.94438553
v -84.38209534 109.36287689 55.94438553
v -84.35182190 109.88503265 55.53306961
v -83.38376617 109.30500031 55.94438553
v -84.35182190 109.88503265 55.53306961
v -83.35350037 109.82716370 55.53306961
v -83.35350037 109.82716370 55.53306961
v -84.35182190 109.88503265 55.53306961
v -84.32660675 110.32004547 55.03019714
v -83.35350037 109.82716370 55.53306961
v -84.32660675 110.32004547 55.03019714
v -83.32827759 110.26216888 55.03019714
v -83.32827759 110.26216888 55.03019714
v -84.32660675 110.32004547 55.03019714
v -84.30735016 110.65218353 54.45395279
v -83.32827759 110.26216888 55.03019714
v -84.30735016 110.65218353 54.45395279
v -83.30902863 110.59430695 54.45395279
v -83.30902863 110.59430695 54.45395279
v -84.30735016 110.65218353 54.45395279
v -84.29475403 110.86944580 53.82515335
v -83.30902863 110.59430695 54.45395279
v -84.29475403 110.86944580 53.82515335
v -83.29643250 110.81156921 53.82515335
v -83.29643250 110.81156921 53.82515335
v -84.29475403 110.86944580 53.82515335
v -84.28927612 110.96398163 53.16653442
v -83.29643250 110.81156921 53.82515335
v -84.28927612 110.96398163 53.16653442
v -83.29095459 110.90610504 53.16653442
v -83.29095459 110.90610504 53.16653442
v -84.28927612 110.96398163 53.16653442
v -84.29110718 110.93237305 52.50189590
v -83.29095459 110.90610504 53.16653442
v -84.29110718 110.93237305 52.50189590
v -83.29278564 110.87450409 52.50189590
v -83.29278564 110.87450409 52.50189590
v -84.29110718 110.93237305 52.50189590
v -84.30018616 110.77576447 51.85526276
v -83.29278564 110.87450409 52.50189590
v -84.30018616 110.77576447 51.85526276
v -83.30186462 110.71788788 51.85526276
v -83.30186462 110.71788788 51.85526276
v -84.30018616 110.77576447 51.85526276
v -84.31618500 110.49981689 51.25000000
v -83.30186462 110.71788788 51.85526276
v -84.31618500 110.49981689 51.25000000
v -83.31785583 110.44194031 51.25000000
v -83.31785583 110.44194031 51.25000000
v -84.31618500 110.49981689 51.25000000
v -84.33852386 110.11449432 50.70798492
v -83.31785583 110.44194031 51.25000000
v -84.33852386 110.11449432 50.70798492
v -83.34019470 110.05662537 50.70798492
v -83.34019470 110.05662537 50.70798492
v -84.33852386 110.11449432 50.70798492
v -84.36638641 109.63373566 50.24881363
v -83.34019470 110.05662537 50.70798492
v -84.36638641 109.63373566 50.24881363
v -83.36806488 109.57585907 50.24881363
v -83.36806488 109.57585907 50.24881363
v -84.36638641 109.63373566 50.24881363
v -84.39878845 109.07491302 49.88907623
v -83.36806488 109.57585907 50.24881363
v -84.39878845 109.07491302 49.88907623
v -83.40045929 109.01703644 49.88907623
v -83.40045929 109.01703644 49.88907623
v -84.39878845 109.07491302 49.88907623
v -84.43453217 108.45821381 49.64177322
v -83.40045929 109.01703644 49.88907623
v -84.43453217 108.45821381 49.64177322
v -83.43621063 108.40034485 49.64177322
v -83.43621063 108.40034485 49.64177322
v -84.43453217 108.45821381 49.64177322
v -84.47234344 107.80594635 49.51584625
v -83.43621063 108.40034485 49.64177322
v -84.47234344 107.80594635 49.51584625
v -83.47402191 107.74806976 49.51584625
v -83.47402191 107.74806976 49.51584625
v -84.47234344 107.80594635 49.51584625
v -84.51085663 107.14166260 49.51584625
v -83.47402191 107.74806976 49.51584625
v -84.51085663 107.14166260 49.51584625
v -83.51253510 107.08379364 49.51584625
v -83.51253510 107.08379364 49.51584625
v -84.51085663 107.14166260 49.51584625
v -84.54866791 106.48939514 49.64177322
v -83.51253510 107.08379364 49.51584625
v -84.54866791 106.48939514 49.64177322
v -83.55034637 106.43151855 49.64177322
v -83.55034637 106.43151855 49.64177322
v -84.54866791 106.48939514 49.64177322
v -84.58441925 105.87270355 49.88907623
v -83.55034637 106.43151855 49.64177322
v -84.58441925 105.87270355 49.88907623
v -83.58609009 105.81482697 49.88907623
v -83.58609009 105.81482697 49.88907623
v -84.58441925 105.87270355 49.88907623
v -84.61681366 105.31387329 50.24881363
v -83.58609009 105.81482697 49.88907623
v -84.61681366 105.31387329 50.24881363
v -83.61849213 105.25600433 50.24881363
v -83.61849213 105.25600433 50.24881363
v -84.61681366 105.31387329 50.24881363
v -84.64468384 104.83311462 50.70798492
v -83.61849213 105.25600433 50.24881363
v -84.64468384 104.83311462 50.70798492
v -83.64635468 104.77523804 50.70798492
v -83.64635468 104.77523804 50.70798492
v -84.64468384 104.83311462 50.70798492
v -84.66702271 104.44779968 51.25000000
v -83.64635468 104.77523804 50.70798492
v -84.66702271 104.44779968 51.25000000
v -83.66869354 104.38992310 51.25000000
v -83.66869354 104.38992310 51.25000000
v -84.66702271 104.44779968 51.25000000
v -84.68301392 104.17184448 51.85526276
v -83.66869354 104.38992310 51.25000000
v -84.68301392 104.17184448 51.85526276
v -83.68469238 104.11397552 51.85526276
v -83.68469238 104.11397552 51.85526276
v -84.68301392 104.17184448 51.85526276
v -84.69209290 104.01523590 52.50189590
v -83.68469238 104.11397552 51.85526276
v -84.69209290 104.01523590 52.50189590
v -83.69377136 103.95736694 52.50189590
v -83.69377136 103.95736694 52.50189590
v -84.69209290 104.01523590 52.50189590
v -84.69392395 103.98362732 53.16653442
v -83.69377136 103.95736694 52.50189590
v -84.69392395 103.98362732 53.16653442
v -83.69560242 103.92575836 53.16653442
v -83.69560242 103.92575836 53.16653442
v -84.69392395 103.98362732 53.16653442
v -84.68844604 104.07816315 53.82515335
v -83.69560242 103.92575836 53.16653442
v -84.68844604 104.07816315 53.82515335
v -83.69012451 104.02029419 53.82515335
v -83.69012451 104.02029419 53.82515335
v -84.68844604 104.07816315 53.82515335
v -84.67584991 104.29542542 54.45395279
v -83.69012451 104.02029419 53.82515335
v -84.67584991 104.29542542 54.45395279
v -83.67752838 104.23755646 54.45395279
v -83.67752838 104.23755646 54.45395279
v -84.67584991 104.29542542 54.45395279
v -84.65660095 104.62756348 55.03019714
v -83.67752838 104.23755646 54.45395279
v -84.65660095 104.62756348 55.03019714
v -83.65827179 104.56969452 55.03019714
v -83.65827179 104.56969452 55.03019714
v -84.65660095 104.62756348 55.03019714
v -84.63137817 105.06257629 55.53306961
v -83.65827179 104.56969452 55.03019714
v -84.63137817 105.06257629 55.53306961
v -83.63305664 105.00469971 55.53306961
v -83.63305664 105.00469971 55.53306961
v -84.63137817 105.06257629 55.53306961
v -84.60111237 105.58473206 55.94438553
v -83.63305664 105.00469971 55.53306961
v -84.60111237 105.58473206 55.94438553
v -83.60278320 105.52686310 55.94438553
v -83.60278320 105.52686310 55.94438553
v -84.60111237 105.58473206 55.94438553
v -84.56688690 106.17516327 56.24928665
v -83.60278320 105.52686310 55.94438553
v -84.56688690 106.17516327 56.24928665
v -83.56855774 106.11729431 56.24928665
v -83.56855774 106.11729431 56.24928665
v -84.56688690 106.17516327 56.24928665
v -84.52993774 106.81253815 56.43674850
v -83.56855774 106.11729431 56.24928665
v -84.52993774 106.81253815 56.43674850
v -83.53160858 106.75466156 56.43674850
v -83.53160858 106.75466156 56.43674850
v -84.52993774 106.81253815 56.43674850
v -84.49160004 107.47380829 56.50000000
v -87.51876831 107.09205627 50.56267929
v -84.52379608 106.91843414 50.56267929
v -87.48657227 107.64742279 50.50000000
v -87.48657227 107.64742279 50.50000000
v -84.52379608 106.91843414 50.56267929
v -84.49160004 107.47380829 50.50000000
v -87.48657227 107.64742279 50.50000000
v -84.49160004 107.47380829 50.50000000
v -87.45437622 108.20278931 50.56267929
v -87.45437622 108.20278931 50.56267929
v -84.49160004 107.47380829 50.50000000
v -84.45940399 108.02917480 50.56267929
v -87.45437622 108.20278931 50.56267929
v -84.45940399 108.02917480 50.56267929
v -87.42379761 108.73031616 50.74757767
v -87.42379761 108.73031616 50.74757767
v -84.45940399 108.02917480 50.56267929
v -84.42882538 108.55669403 50.74757767
v -87.42379761 108.73031616 50.74757767
v -84.42882538 108.55669403 50.74757767
v -87.39636230 109.20353699 51.04542160
v -87.39636230 109.20353699 51.04542160
v -84.42882538 108.55669403 50.74757767
v -84.40139008 109.02991486 51.04542160
v -87.39636230 109.20353699 51.04542160
v -84.40139008 109.02991486 51.04542160
v -87.37345886 109.59872437 51.44127274
v -87.37345886 109.59872437 51.44127274
v -84.40139008 109.02991486 51.04542160
v -84.37848663 109.42510986 51.44127274
v -87.37345886 109.59872437 51.44127274
v -84.37848663 109.42510986 51.44127274
v -87.35621643 109.89607239 51.91529083
v -87.35621643 109.89607239 51.91529083
v -84.37848663 109.42510986 51.44127274
v -84.36124420 109.72245026 51.91529083
v -87.35621643 109.89607239 51.91529083
v -84.36124420 109.72245026 51.91529083
v -87.34552002 110.08065796 52.44369507
v -87.34552002 110.08065796 52.44369507
v -84.36124420 109.72245026 51.91529083
v -84.35054779 109.90703583 52.44369507
v -87.34552002 110.08065796 52.44369507
v -84.35054779 109.90703583 52.44369507
v -87.34188843 110.14323425 53.00000000
v -87.34188843 110.14323425 53.00000000
v -84.35054779 109.90703583 52.44369507
v -84.34691620 109.96961212 53.00000000
v -87.34188843 110.14323425 53.00000000
v -84.34691620 109.96961212 53.00000000
v -87.34552002 110.08065796 53.55630112
v -87.34552002 110.08065796 53.55630112
v -84.34691620 109.96961212 53.00000000
v -84.35054779 109.90703583 53.55630112
v -87.34552002 110.08065796 53.55630112
v -84.35054779 109.90703583 53.55630112
v -87.35621643 109.89607239 54.08470917
v -87.35621643 109.89607239 54.08470917
v -84.35054779 109.90703583 53.55630112
v -84.36124420 109.72245026 54.08470917
v -87.35621643 109.89607239 54.08470917
v -84.36124420 109.72245026 54.08470917
v -87.37345886 109.59872437 54.55872345
v -87.37345886 109.59872437 54.55872345
v -84.36124420 109.72245026 54.08470917
v -84.37848663 109.42510986 54.55872345
v -87.37345886 109.59872437 54.55872345
v -84.37848663 109.42510986 54.55872345
v -87.39636230 109.20353699 54.95457840
v -87.39636230 109.20353699 54.95457840
v -84.37848663 109.42510986 54.55872345
v -84.40139008 109.02991486 54.95457840
v -87.39636230 109.20353699 54.95457840
v -84.40139008 109.02991486 54.95457840
v -87.42379761 108.73031616 55.25242233
v -87.42379761 108.73031616 55.25242233
v -84.40139008 109.02991486 54.95457840
v -84.42882538 108.55669403 55.25242233
v -87.42379761 108.73031616 55.25242233
v -84.42882538 108.55669403 55.25242233
v -87.45437622 108.20279694 55.43731689
v -87.45437622 108.20279694 55.43731689
v -84.42882538 108.55669403 55.25242233
v -84.45940399 108.02917480 55.43731689
v -87.45437622 108.20279694 55.43731689
v -84.45940399 108.02917480 55.43731689
v -87.48657227 107.64742279 55.50000000
v -87.48657227 107.64742279 55.50000000
v -84.45940399 108.02917480 55.43731689
v -84.49160004 107.47380829 55.50000000
v -87.48657227 107.64742279 55.50000000
v -84.49160004 107.47380829 55.50000000
v -87.51876831 107.09205627 55.43731689
v -87.51876831 107.09205627 55.43731689
v -84.49160004 107.47380829 55.50000000
v -84.52379608 106.91843414 55.43731689
v -87.51876831 107.09205627 55.43731689
v -84.52379608 106.91843414 55.43731689
v -87.54934692 106.56452942 55.25242233
v -87.54934692 106.56452942 55.25242233
v -84.52379608 106.91843414 55.43731689
v -84.55437469 106.39091492 55.25242233
v -87.54934692 106.56452942 55.25242233
v -84.55437469 106.39091492 55.25242233
v -87.57678223 106.09130859 54.95457840
v -87.57678223 106.09130859 54.95457840
v -84.55437469 106.39091492 55.25242233
v -84.58181000 105.91769409 54.95457840
v -87.57678223 106.09130859 54.95457840
v -84.58181000 105.91769409 54.95457840
v -87.59969330 105.69612122 54.55872345
v -87.59969330 105.69612122 54.55872345
v -84.58181000 105.91769409 54.95457840
v -84.60472107 105.52249908 54.55872345
v -87.59969330 105.69612122 54.55872345
v -84.60472107 105.52249908 54.55872345
v -87.61692810 105.39877319 54.08470917
v -87.61692810 105.39877319 54.08470917
v -84.60472107 105.52249908 54.55872345
v -84.62195587 105.22515869 54.08470917
v -87.61692810 105.39877319 54.08470917
v -84.62195587 105.22515869 54.08470917
v -87.62762451 105.21418762 53.55630112
v -87.62762451 105.21418762 53.55630112
v -84.62195587 105.22515869 54.08470917
v -84.63265228 105.04057312 53.55630112
v -87.62762451 105.21418762 53.55630112
v -84.63265228 105.04057312 53.55630112
v -87.63125610 105.15161133 53.00000000
v -87.63125610 105.15161133 53.00000000
v -84.63265228 105.04057312 53.55630112
v -84.63628387 104.97799683 53.00000000
v -87.63125610 105.15161133 53.00000000
v -84.63628387 104.97799683 53.00000000
v -87.62762451 105.21418762 52.44369507
v -87.62762451 105.21418762 52.44369507
v -84.63628387 104.97799683 53.00000000
v -84.63265228 105.04057312 52.44369507
v -87.62762451 105.21418762 52.44369507
v -84.63265228 105.04057312 52.44369507
v -87.61692810 105.39877319 51.91529083
v -87.61692810 105.39877319 51.91529083
v -84.63265228 105.04057312 52.44369507
v -84.62195587 105.22515869 51.91529083
v -87.61692810 105.39877319 51.91529083
v -84.62195587 105.22515869 51.91529083
v -87.59969330 105.69612122 51.44127274
v -87.59969330 105.69612122 51.44127274
v -84.62195587 105.22515869 51.91529083
v -84.60472107 105.52249908 51.44127274
v -87.59969330 105.69612122 51.44127274
v -84.60472107 105.52249908 51.44127274
v -87.57678223 106.09130859 51.04542160
v -87.57678223 106.09130859 51.04542160
v -84.60472107 105.52249908 51.44127274
v -84.58181000 105.91769409 51.04542160
v -87.57678223 106.09130859 51.04542160
v -84.58181000 105.91769409 51.04542160
v -87.54934692 106.56452942 50.74757767
v -87.54934692 106.56452942 50.74757767
v -84.58181000 105.91769409 51.04542160
v -84.55437469 106.39091492 50.74757767
v -87.54934692 106.56452942 50.74757767
v -84.55437469 106.39091492 50.74757767
v -87.51876831 107.09205627 50.56267929
v -87.51876831 107.09205627 50.56267929
v -84.55437469 106.39091492 50.74757767
v -84.52379608 106.91843414 50.56267929
v -88.19553375 112.69691467 53.00000000
v -83.20391083 112.40755463 53.00000000
v -88.19909668 112.63545990 52.21782684
v -88.19909668 112.63545990 52.21782684
v -83.20391083 112.40755463 53.00000000
v -83.20747375 112.34609985 52.21782684
v -88.19909668 112.63545990 52.21782684
v -83.20747375 112.34609985 52.21782684
v -88.20969391 112.45260620 51.45491409
v -88.20969391 112.45260620 51.45491409
v -83.20747375 112.34609985 52.21782684
v -83.21807861 112.16324615 51.45491409
v -88.20969391 112.45260620 51.45491409
v -83.21807861 112.16324615 51.45491409
v -88.22707367 112.15286255 50.73004913
v -88.22707367 112.15286255 50.73004913
v -83.21807861 112.16324615 51.45491409
v -83.23545074 111.86349487 50.73004913
v -88.22707367 112.15286255 50.73004913
v -83.23545074 111.86349487 50.73004913
v -88.25079346 111.74359894 50.06107330
v -88.25079346 111.74359894 50.06107330
v -83.23545074 111.86349487 50.73004913
v -83.25917816 111.45423889 50.06107330
v -88.25079346 111.74359894 50.06107330
v -83.25917816 111.45423889 50.06107330
v -88.28028870 111.23490143 49.46446609
v -88.28028870 111.23490143 49.46446609
v -83.25917816 111.45423889 50.06107330
v -83.28866577 110.94554138 49.46446609
v -88.28028870 111.23490143 49.46446609
v -83.28866577 110.94554138 49.46446609
v -88.31481171 110.63929749 48.95491409
v -88.31481171 110.63929749 48.95491409
v -83.28866577 110.94554138 49.46446609
v -83.32319641 110.34992981 48.95491409
v -88.31481171 110.63929749 48.95491409
v -83.32319641 110.34992981 48.95491409
v -88.35353088 109.97144318 48.54496765
v -88.35353088 109.97144318 48.54496765
v -83.32319641 110.34992981 48.95491409
v -83.36190796 109.68208313 48.54496765
v -88.35353088 109.97144318 48.54496765
v -83.36190796 109.68208313 48.54496765
v -88.39547729 109.24778748 48.24471664
v -88.39547729 109.24778748 48.24471664
v -83.36190796 109.68208313 48.54496765
v -83.40386200 108.95842743 48.24471664
v -88.39547729 109.24778748 48.24471664
v -83.40386200 108.95842743 48.24471664
v -88.43962860 108.48616028 48.06155777
v -88.43962860 108.48616028 48.06155777
v -83.40386200 108.95842743 48.24471664
v -83.44801331 108.19679260 48.06155777
v -88.43962860 108.48616028 48.06155777
v -83.44801331 108.19679260 48.06155777
v -88.48489380 107.70529938 48.00000000
v -88.48489380 107.70529938 48.00000000
v -83.44801331 108.19679260 48.06155777
v -83.49327850 107.41593170 48.00000000
v -83.49327850 107.41593170 48.00000000
v -83.78263855 102.42430878 48.00000000
v -88.48489380 107.70529938 48.00000000
v -88.48489380 107.70529938 48.00000000
v -83.78263855 102.42430878 48.00000000
v -88.77426147 102.71367645 48.00000000
v -83.45494080 108.07720184 56.43674850
v -83.46108246 107.97129822 140.56268311
v -83.49327850 107.41593170 56.50000000
v -83.49327850 107.41593170 56.50000000
v -83.46108246 107.97129822 140.56268311
v -83.49327850 107.41593170 140.50000000
v -83.49327850 107.41593170 56.50000000
v -83.49327850 107.41593170 140.50000000
v -83.52547455 106.86056519 140.56268311
v -83.46108246 107.97129822 140.56268311
v -83.45494080 108.07720184 56.43674850
v -83.43050385 108.49882507 140.74757385
v -83.43050385 108.49882507 140.74757385
v -83.45494080 108.07720184 56.43674850
v -83.41799164 108.71456909 56.24928665
v -83.43050385 108.49882507 140.74757385
v -83.41799164 108.71456909 56.24928665
v -83.40306854 108.97204590 141.04542542
v -83.40306854 108.97204590 141.04542542
v -83.41799164 108.71456909 56.24928665
v -83.38376617 109.30500031 55.94438553
v -83.40306854 108.97204590 141.04542542
v -83.38376617 109.30500031 55.94438553
v -83.38015747 109.36723328 141.44126892
v -83.38015747 109.36723328 141.44126892
v -83.38376617 109.30500031 55.94438553
v -83.35350037 109.82716370 55.53306961
v -83.38015747 109.36723328 141.44126892
v -83.35350037 109.82716370 55.53306961
v -83.32827759 110.26216888 55.03019714
v -83.30902863 110.59430695 54.45395279
v -83.20391083 112.40755463 53.00000000
v -83.32827759 110.26216888 55.03019714
v -83.32827759 110.26216888 55.03019714
v -83.20391083 112.40755463 53.00000000
v -83.36292267 109.66458130 141.91528320
v -83.32827759 110.26216888 55.03019714
v -83.36292267 109.66458130 141.91528320
v -83.38015747 109.36723328 141.44126892
v -83.30902863 110.59430695 54.45395279
v -83.29643250 110.81156921 53.82515335
v -83.20391083 112.40755463 53.00000000
v -83.20391083 112.40755463 53.00000000
v -83.29643250 110.81156921 53.82515335
v -83.29095459 110.90610504 53.16653442
v -83.20391083 112.40755463 53.00000000
v -83.29095459 110.90610504 53.16653442
v -83.21807861 112.16324615 51.45491409
v -83.21807861 112.16324615 51.45491409
v -83.29095459 110.90610504 53.16653442
v -83.23545074 111.86349487 50.73004913
v -83.23545074 111.86349487 50.73004913
v -83.29095459 110.90610504 53.16653442
v -83.25917816 111.45423889 50.06107330
v -83.25917816 111.45423889 50.06107330
v -83.29095459 110.90610504 53.16653442
v -83.29278564 110.87450409 52.50189590
v -83.25917816 111.45423889 50.06107330
v -83.29278564 110.87450409 52.50189590
v -83.28866577 110.94554138 49.46446609
v -83.28866577 110.94554138 49.46446609
v -83.29278564 110.87450409 52.50189590
v -83.30186462 110.71788788 51.85526276
v -83.28866577 110.94554138 49.46446609
v -83.30186462 110.71788788 51.85526276
v -83.31785583 110.44194031 51.25000000
v -83.28866577 110.94554138 49.46446609
v -83.31785583 110.44194031 51.25000000
v -83.32319641 110.34992981 48.95491409
v -83.32319641 110.34992981 48.95491409
v -83.31785583 110.44194031 51.25000000
v -83.34019470 110.05662537 50.70798492
v -83.32319641 110.34992981 48.95491409
v -83.34019470 110.05662537 50.70798492
v -83.36190796 109.68208313 48.54496765
v -83.36190796 109.68208313 48.54496765
v -83.34019470 110.05662537 50.70798492
v -83.36806488 109.57585907 50.24881363
v -83.36190796 109.68208313 48.54496765
v -83.36806488 109.57585907 50.24881363
v -83.40045929 109.01703644 49.88907623
v -83.36190796 109.68208313 48.54496765
v -83.40045929 109.01703644 49.88907623
v -83.40386200 108.95842743 48.24471664
v -83.40386200 108.95842743 48.24471664
v -83.40045929 109.01703644 49.88907623
v -83.43621063 108.40034485 49.64177322
v -83.40386200 108.95842743 48.24471664
v -83.43621063 108.40034485 49.64177322
v -83.44801331 108.19679260 48.06155777
v -83.44801331 108.19679260 48.06155777
v -83.43621063 108.40034485 49.64177322
v -83.47402191 107.74806976 49.51584625
v -83.44801331 108.19679260 48.06155777
v -83.47402191 107.74806976 49.51584625
v -83.49327850 107.41593170 48.00000000
v -83.49327850 107.41593170 48.00000000
v -83.47402191 107.74806976 49.51584625
v -83.51253510 107.08379364 49.51584625
v -83.49327850 107.41593170 48.00000000
v -83.51253510 107.08379364 49.51584625
v -83.55034637 106.43151855 49.64177322
v -83.55034637 106.43151855 49.64177322
v -83.58609009 105.81482697 49.88907623
v -83.49327850 107.41593170 48.00000000
v -83.49327850 107.41593170 48.00000000
v -83.58609009 105.81482697 49.88907623
v -83.78263855 102.42430878 48.00000000
v -83.78263855 102.42430878 48.00000000
v -83.58609009 105.81482697 49.88907623
v -83.61849213 105.25600433 50.24881363
v -83.78263855 102.42430878 48.00000000
v -83.61849213 105.25600433 50.24881363
v -83.64635468 104.77523804 50.70798492
v -83.64635468 104.77523804 50.70798492
v -83.66869354 104.38992310 51.25000000
v -83.78263855 102.42430878 48.00000000
v -83.78263855 102.42430878 48.00000000
v -83.66869354 104.38992310 51.25000000
v -83.68469238 104.11397552 51.85526276
v -83.78263855 102.42430878 48.00000000
v -83.68469238 104.11397552 51.85526276
v -83.69377136 103.95736694 52.50189590
v -83.69377136 103.95736694 52.50189590
v -83.69560242 103.92575836 53.16653442
v -83.78263855 102.42430878 48.00000000
v -83.78263855 102.42430878 48.00000000
v -83.69560242 103.92575836 53.16653442
v -83.84743500 101.30654144 48.06287766
v -83.84743500 101.30654144 48.06287766
v -83.69560242 103.92575836 53.16653442
v -83.69012451 104.02029419 53.82515335
v -83.84743500 101.30654144 48.06287766
v -83.69012451 104.02029419 53.82515335
v -83.91142273 100.20283508 48.25072098
v -83.91142273 100.20283508 48.25072098
v -83.69012451 104.02029419 53.82515335
v -83.97378540 99.12705994 48.56116486
v -83.97378540 99.12705994 48.56116486
v -83.69012451 104.02029419 53.82515335
v -83.67752838 104.23755646 54.45395279
v -83.97378540 99.12705994 48.56116486
v -83.67752838 104.23755646 54.45395279
v -83.63433075 104.98269653 142.44369507
v -83.63433075 104.98269653 142.44369507
v -83.67752838 104.23755646 54.45395279
v -83.62363434 105.16728210 141.91528320
v -83.62363434 105.16728210 141.91528320
v -83.67752838 104.23755646 54.45395279
v -83.65827179 104.56969452 55.03019714
v -83.62363434 105.16728210 141.91528320
v -83.65827179 104.56969452 55.03019714
v -83.60639191 105.46463013 141.44126892
v -83.60639191 105.46463013 141.44126892
v -83.65827179 104.56969452 55.03019714
v -83.63305664 105.00469971 55.53306961
v -83.60639191 105.46463013 141.44126892
v -83.63305664 105.00469971 55.53306961
v -83.60278320 105.52686310 55.94438553
v -83.60639191 105.46463013 141.44126892
v -83.60278320 105.52686310 55.94438553
v -83.58348846 105.85981750 141.04542542
v -83.58348846 105.85981750 141.04542542
v -83.60278320 105.52686310 55.94438553
v -83.56855774 106.11729431 56.24928665
v -83.58348846 105.85981750 141.04542542
v -83.56855774 106.11729431 56.24928665
v -83.55605316 106.33303833 140.74757385
v -83.55605316 106.33303833 140.74757385
v -83.56855774 106.11729431 56.24928665
v -83.53160858 106.75466156 56.43674850
v -83.55605316 106.33303833 140.74757385
v -83.53160858 106.75466156 56.43674850
v -83.52547455 106.86056519 140.56268311
v -83.52547455 106.86056519 140.56268311
v -83.53160858 106.75466156 56.43674850
v -83.49327850 107.41593170 56.50000000
v -83.63433075 104.98269653 142.44369507
v -83.63796234 104.92012024 143.00000000
v -84.36136627 92.44107056 148.00000000
v -84.36136627 92.44107056 148.00000000
v -83.63796234 104.92012024 143.00000000
v -83.63433075 104.98269653 143.55630493
v -84.36136627 92.44107056 148.00000000
v -83.63433075 104.98269653 143.55630493
v -83.62363434 105.16728210 144.08471680
v -83.62363434 105.16728210 144.08471680
v -83.60639191 105.46463013 144.55873108
v -84.36136627 92.44107056 148.00000000
v -84.36136627 92.44107056 148.00000000
v -83.60639191 105.46463013 144.55873108
v -83.58348846 105.85981750 144.95457458
v -84.36136627 92.44107056 148.00000000
v -83.58348846 105.85981750 144.95457458
v -83.55605316 106.33303833 145.25242615
v -83.55605316 106.33303833 145.25242615
v -83.52547455 106.86056519 145.43731689
v -84.36136627 92.44107056 148.00000000
v -84.36136627 92.44107056 148.00000000
v -83.52547455 106.86056519 145.43731689
v -83.20391083 112.40755463 148.00000000
v -83.20391083 112.40755463 148.00000000
v -83.52547455 106.86056519 145.43731689
v -83.49327850 107.41593170 145.50000000
v -83.20391083 112.40755463 148.00000000
v -83.49327850 107.41593170 145.50000000
v -83.46108246 107.97129822 145.43731689
v -83.46108246 107.97129822 145.43731689
v -83.43050385 108.49882507 145.25242615
v -83.20391083 112.40755463 148.00000000
v -83.20391083 112.40755463 148.00000000
v -83.43050385 108.49882507 145.25242615
v -83.40306854 108.97204590 144.95457458
v -83.20391083 112.40755463 148.00000000
v -83.40306854 108.97204590 144.95457458
v -83.38015747 109.36723328 144.55873108
v -83.38015747 109.36723328 144.55873108
v -83.36292267 109.66458130 144.08471680
v -83.20391083 112.40755463 148.00000000
v -83.20391083 112.40755463 148.00000000
v -83.36292267 109.66458130 144.08471680
v -83.35222626 109.84916687 143.55630493
v -83.20391083 112.40755463 148.00000000
v -83.35222626 109.84916687 143.55630493
v -83.34859467 109.91174316 143.00000000
v -83.34859467 109.91174316 143.00000000
v -83.35222626 109.84916687 142.44369507
v -83.20391083 112.40755463 148.00000000
v -83.20391083 112.40755463 148.00000000
v -83.35222626 109.84916687 142.44369507
v -83.20391083 112.40755463 53.00000000
v -83.20391083 112.40755463 53.00000000
v -83.35222626 109.84916687 142.44369507
v -83.36292267 109.66458130 141.91528320
v -83.21807861 112.16324615 51.45491409
v -83.20747375 112.34609985 52.21782684
v -83.20391083 112.40755463 53.00000000
v -84.36136627 92.44107056 148.00000000
v -84.36136627 92.44107056 58.00000000
v -83.63433075 104.98269653 142.44369507
v -83.63433075 104.98269653 142.44369507
v -84.36136627 92.44107056 58.00000000
v -84.09054565 97.11290741 49.53275681
v -83.63433075 104.98269653 142.44369507
v -84.09054565 97.11290741 49.53275681
v -84.03374481 98.09274292 48.99031067
v -84.35772705 92.50384521 56.88035583
v -84.34686279 92.69137573 55.77479172
v -84.36136627 92.44107056 58.00000000
v -84.36136627 92.44107056 58.00000000
v -84.34686279 92.69137573 55.77479172
v -84.32889557 93.00129700 54.69720840
v -84.36136627 92.44107056 58.00000000
v -84.32889557 93.00129700 54.69720840
v -84.30405426 93.42972565 53.66116333
v -84.30405426 93.42972565 53.66116333
v -84.27266693 93.97126007 52.67967987
v -84.36136627 92.44107056 58.00000000
v -84.36136627 92.44107056 58.00000000
v -84.27266693 93.97126007 52.67967987
v -84.23510742 94.61910248 51.76510239
v -84.36136627 92.44107056 58.00000000
v -84.23510742 94.61910248 51.76510239
v -84.19186401 95.36509705 50.92893219
v -84.19186401 95.36509705 50.92893219
v -84.14347076 96.19986725 50.18168640
v -84.36136627 92.44107056 58.00000000
v -84.36136627 92.44107056 58.00000000
v -84.14347076 96.19986725 50.18168640
v -84.09054565 97.11290741 49.53275681
v -84.03374481 98.09274292 48.99031067
v -83.97378540 99.12705994 48.56116486
v -83.63433075 104.98269653 142.44369507
v -88.77426147 102.71367645 48.00000000
v -83.78263855 102.42430878 48.00000000
v -88.83905792 101.59590912 48.06287766
v -88.83905792 101.59590912 48.06287766
v -83.78263855 102.42430878 48.00000000
v -83.84743500 101.30654144 48.06287766
v -88.83905792 101.59590912 48.06287766
v -83.84743500 101.30654144 48.06287766
v -88.90303802 100.49219513 48.25072098
v -88.90303802 100.49219513 48.25072098
v -83.84743500 101.30654144 48.06287766
v -83.91142273 100.20283508 48.25072098
v -88.90303802 100.49219513 48.25072098
v -83.91142273 100.20283508 48.25072098
v -88.96540070 99.41641998 48.56116486
v -88.96540070 99.41641998 48.56116486
v -83.91142273 100.20283508 48.25072098
v -83.97378540 99.12705994 48.56116486
v -88.96540070 99.41641998 48.56116486
v -83.97378540 99.12705994 48.56116486
v -89.02536011 98.38211060 48.99031067
v -89.02536011 98.38211060 48.99031067
v -83.97378540 99.12705994 48.56116486
v -84.03374481 98.09274292 48.99031067
v -89.02536011 98.38211060 48.99031067
v -84.03374481 98.09274292 48.99031067
v -89.08216095 97.40227509 49.53275681
v -89.08216095 97.40227509 49.53275681
v -84.03374481 98.09274292 48.99031067
v -84.09054565 97.11290741 49.53275681
v -89.08216095 97.40227509 49.53275681
v -84.09054565 97.11290741 49.53275681
v -89.13509369 96.48922729 50.18168640
v -89.13509369 96.48922729 50.18168640
v -84.09054565 97.11290741 49.53275681
v -84.14347076 96.19986725 50.18168640
v -89.13509369 96.48922729 50.18168640
v -84.14347076 96.19986725 50.18168640
v -89.18348694 95.65445709 50.92893219
v -89.18348694 95.65445709 50.92893219
v -84.14347076 96.19986725 50.18168640
v -84.19186401 95.36509705 50.92893219
v -89.18348694 95.65445709 50.92893219
v -84.19186401 95.36509705 50.92893219
v -89.22673035 94.90846252 51.76510239
v -89.22673035 94.90846252 51.76510239
v -84.19186401 95.36509705 50.92893219
v -84.23510742 94.61910248 51.76510239
v -89.22673035 94.90846252 51.76510239
v -84.23510742 94.61910248 51.76510239
v -89.26428223 94.26062775 52.67967987
v -89.26428223 94.26062775 52.67967987
v -84.23510742 94.61910248 51.76510239
v -84.27266693 93.97126007 52.67967987
v -89.26428223 94.26062775 52.67967987
v -84.27266693 93.97126007 52.67967987
v -89.29567719 93.71908569 53.66116333
v -89.29567719 93.71908569 53.66116333
v -84.27266693 93.97126007 52.67967987
v -84.30405426 93.42972565 53.66116333
v -89.29567719 93.71908569 53.66116333
v -84.30405426 93.42972565 53.66116333
v -89.32051086 93.29066467 54.69720840
v -89.32051086 93.29066467 54.69720840
v -84.30405426 93.42972565 53.66116333
v -84.32889557 93.00129700 54.69720840
v -89.32051086 93.29066467 54.69720840
v -84.32889557 93.00129700 54.69720840
v -89.33847809 92.98073578 55.77479172
v -89.33847809 92.98073578 55.77479172
v -84.32889557 93.00129700 54.69720840
v -84.34686279 92.69137573 55.77479172
v -89.33847809 92.98073578 55.77479172
v -84.34686279 92.69137573 55.77479172
v -89.34934998 92.79320526 56.88035583
v -89.34934998 92.79320526 56.88035583
v -84.34686279 92.69137573 55.77479172
v -84.35772705 92.50384521 56.88035583
v -89.34934998 92.79320526 56.88035583
v -84.35772705 92.50384521 56.88035583
v -89.35298920 92.73043823 58.00000000
v -89.35298920 92.73043823 58.00000000
v -84.35772705 92.50384521 56.88035583
v -84.36136627 92.44107056 58.00000000
v -83.63433075 104.98269653 142.44369507
v -88.62595367 105.27206421 142.44369507
v -83.63796234 104.92012024 143.00000000
v -83.63796234 104.92012024 143.00000000
v -88.62595367 105.27206421 142.44369507
v -88.62957764 105.20948792 143.00000000
v -83.63796234 104.92012024 143.00000000
v -88.62957764 105.20948792 143.00000000
v -83.63433075 104.98269653 143.55630493
v -83.63433075 104.98269653 143.55630493
v -88.62957764 105.20948792 143.00000000
v -88.62595367 105.27206421 143.55630493
v -83.63433075 104.98269653 143.55630493
v -88.62595367 105.27206421 143.55630493
v -83.62363434 105.16728210 144.08471680
v -83.62363434 105.16728210 144.08471680
v -88.62595367 105.27206421 143.55630493
v -88.61524963 105.45664978 144.08471680
v -83.62363434 105.16728210 144.08471680
v -88.61524963 105.45664978 144.08471680
v -83.60639191 105.46463013 144.55873108
v -83.60639191 105.46463013 144.55873108
v -88.61524963 105.45664978 144.08471680
v -88.59801483 105.75399017 144.55873108
v -83.60639191 105.46463013 144.55873108
v -88.59801483 105.75399017 144.55873108
v -83.58348846 105.85981750 144.95457458
v -83.58348846 105.85981750 144.95457458
v -88.59801483 105.75399017 144.55873108
v -88.57510376 106.14918518 144.95457458
v -83.58348846 105.85981750 144.95457458
v -88.57510376 106.14918518 144.95457458
v -83.55605316 106.33303833 145.25242615
v -83.55605316 106.33303833 145.25242615
v -88.57510376 106.14918518 144.95457458
v -88.54767609 106.62240601 145.25242615
v -83.55605316 106.33303833 145.25242615
v -88.54767609 106.62240601 145.25242615
v -83.52547455 106.86056519 145.43731689
v -83.52547455 106.86056519 145.43731689
v -88.54767609 106.62240601 145.25242615
v -88.51708984 107.14992523 145.43731689
v -83.52547455 106.86056519 145.43731689
v -88.51708984 107.14992523 145.43731689
v -83.49327850 107.41593170 145.50000000
v -83.49327850 107.41593170 145.50000000
v -88.51708984 107.14992523 145.43731689
v -88.48489380 107.70529938 145.50000000
v -83.49327850 107.41593170 145.50000000
v -88.48489380 107.70529938 145.50000000
v -83.46108246 107.97129822 145.43731689
v -83.46108246 107.97129822 145.43731689
v -88.48489380 107.70529938 145.50000000
v -88.45270538 108.26066589 145.43731689
v -83.46108246 107.97129822 145.43731689
v -88.45270538 108.26066589 145.43731689
v -83.43050385 108.49882507 145.25242615
v -83.43050385 108.49882507 145.25242615
v -88.45270538 108.26066589 145.43731689
v -88.42211914 108.78818512 145.25242615
v -83.43050385 108.49882507 145.25242615
v -88.42211914 108.78818512 145.25242615
v -83.40306854 108.97204590 144.95457458
v -83.40306854 108.97204590 144.95457458
v -88.42211914 108.78818512 145.25242615
v -88.39469147 109.26140594 144.95457458
v -83.40306854 108.97204590 144.95457458
v -88.39469147 109.26140594 144.95457458
v -83.38015747 109.36723328 144.55873108
v -83.38015747 109.36723328 144.55873108
v -88.39469147 109.26140594 144.95457458
v -88.37178040 109.65660095 144.55873108
v -83.38015747 109.36723328 144.55873108
v -88.37178040 109.65660095 144.55873108
v -83.36292267 109.66458130 144.08471680
v -83.36292267 109.66458130 144.08471680
v -88.37178040 109.65660095 144.55873108
v -88.35454559 109.95394135 144.08471680
v -83.36292267 109.66458130 144.08471680
v -88.35454559 109.95394135 144.08471680
v -83.35222626 109.84916687 143.55630493
v -83.35222626 109.84916687 143.55630493
v -88.35454559 109.95394135 144.08471680
v -88.34384155 110.13852692 143.55630493
v -83.35222626 109.84916687 143.55630493
v -88.34384155 110.13852692 143.55630493
v -83.34859467 109.91174316 143.00000000
v -83.34859467 109.91174316 143.00000000
v -88.34384155 110.13852692 143.55630493
v -88.34021759 110.20110321 143.00000000
v -83.34859467 109.91174316 143.00000000
v -88.34021759 110.20110321 143.00000000
v -83.35222626 109.84916687 142.44369507
v -83.35222626 109.84916687 142.44369507
v -88.34021759 110.20110321 143.00000000
v -88.34384155 110.13852692 142.44369507
v -83.35222626 109.84916687 142.44369507
v -88.34384155 110.13852692 142.44369507
v -83.36292267 109.66458130 141.91528320
v -83.36292267 109.66458130 141.91528320
v -88.34384155 110.13852692 142.44369507
v -88.35454559 109.95394135 141.91528320
v -83.36292267 109.66458130 141.91528320
v -88.35454559 109.95394135 141.91528320
v -83.38015747 109.36723328 141.44126892
v -83.38015747 109.36723328 141.44126892
v -88.35454559 109.95394135 141.91528320
v -88.37178040 109.65660095 141.44126892
v -83.38015747 109.36723328 141.44126892
v -88.37178040 109.65660095 141.44126892
v -83.40306854 108.97204590 141.04542542
v -83.40306854 108.97204590 141.04542542
v -88.37178040 109.65660095 141.44126892
v -88.39469147 109.26140594 141.04542542
v -83.40306854 108.97204590 141.04542542
v -88.39469147 109.26140594 141.04542542
v -83.43050385 108.49882507 140.74757385
v -83.43050385 108.49882507 140.74757385
v -88.39469147 109.26140594 141.04542542
v -88.42211914 108.78818512 140.74757385
v -83.43050385 108.49882507 140.74757385
v -88.42211914 108.78818512 140.74757385
v -83.46108246 107.97129822 140.56268311
v -83.46108246 107.97129822 140.56268311
v -88.42211914 108.78818512 140.74757385
v -88.45270538 108.26066589 140.56268311
v -83.46108246 107.97129822 140.56268311
v -88.45270538 108.26066589 140.56268311
v -83.49327850 107.41593170 140.50000000
v -83.49327850 107.41593170 140.50000000
v -88.45270538 108.26066589 140.56268311
v -88.48489380 107.70529938 140.50000000
v -83.49327850 107.41593170 140.50000000
v -88.48489380 107.70529938 140.50000000
v -83.52547455 106.86056519 140.56268311
v -83.52547455 106.86056519 140.56268311
v -88.48489380 107.70529938 140.50000000
v -88.51708984 107.14992523 140.56268311
v -83.52547455 106.86056519 140.56268311
v -88.51708984 107.14992523 140.56268311
v -83.55605316 106.33303833 140.74757385
v -83.55605316 106.33303833 140.74757385
v -88.51708984 107.14992523 140.56268311
v -88.54767609 106.62240601 140.74757385
v -83.55605316 106.33303833 140.74757385
v -88.54767609 106.62240601 140.74757385
v -83.58348846 105.85981750 141.04542542
v -83.58348846 105.85981750 141.04542542
v -88.54767609 106.62240601 140.74757385
v -88.57510376 106.14918518 141.04542542
v -83.58348846 105.85981750 141.04542542
v -88.57510376 106.14918518 141.04542542
v -83.60639191 105.46463013 141.44126892
v -83.60639191 105.46463013 141.44126892
v -88.57510376 106.14918518 141.04542542
v -88.59801483 105.75399017 141.44126892
v -83.60639191 105.46463013 141.44126892
v -88.59801483 105.75399017 141.44126892
v -83.62363434 105.16728210 141.91528320
v -83.62363434 105.16728210 141.91528320
v -88.59801483 105.75399017 141.44126892
v -88.61524963 105.45664978 141.91528320
v -83.62363434 105.16728210 141.91528320
v -88.61524963 105.45664978 141.91528320
v -83.63433075 104.98269653 142.44369507
v -83.63433075 104.98269653 142.44369507
v -88.61524963 105.45664978 141.91528320
v -88.62595367 105.27206421 142.44369507
v -84.36136627 92.44107056 58.00000000
v -84.36136627 92.44107056 148.00000000
v -89.35298920 92.73043823 58.00000000
v -89.35298920 92.73043823 58.00000000
v -84.36136627 92.44107056 148.00000000
v -89.35298920 92.73043823 148.00000000
v -88.19553375 112.69691467 148.00000000
v -89.35298920 92.73043823 148.00000000
v -83.20391083 112.40755463 148.00000000
v -83.20391083 112.40755463 148.00000000
v -89.35298920 92.73043823 148.00000000
v -84.36136627 92.44107056 148.00000000
v -88.19553375 112.69691467 53.00000000
v -88.19553375 112.69691467 148.00000000
v -83.20391083 112.40755463 53.00000000
v -83.20391083 112.40755463 53.00000000
v -88.19553375 112.69691467 148.00000000
v -83.20391083 112.40755463 148.00000000
v -88.52323151 107.04402924 56.43675232
v -88.51708984 107.14992523 140.56268311
v -88.48489380 107.70529938 56.50000000
v -88.48489380 107.70529938 56.50000000
v -88.51708984 107.14992523 140.56268311
v -88.48489380 107.70529938 140.50000000
v -88.48489380 107.70529938 56.50000000
v -88.48489380 107.70529938 140.50000000
v -88.45270538 108.26066589 140.56268311
v -88.51708984 107.14992523 140.56268311
v -88.52323151 107.04402924 56.43675232
v -88.54767609 106.62240601 140.74757385
v -88.54767609 106.62240601 140.74757385
v -88.52323151 107.04402924 56.43675232
v -88.56018066 106.40665436 56.24928665
v -88.54767609 106.62240601 140.74757385
v -88.56018066 106.40665436 56.24928665
v -88.57510376 106.14918518 141.04542542
v -88.57510376 106.14918518 141.04542542
v -88.56018066 106.40665436 56.24928665
v -88.59440613 105.81622314 55.94438553
v -88.57510376 106.14918518 141.04542542
v -88.59440613 105.81622314 55.94438553
v -88.59801483 105.75399017 141.44126892
v -88.59801483 105.75399017 141.44126892
v -88.59440613 105.81622314 55.94438553
v -88.62467957 105.29406738 55.53306961
v -88.59801483 105.75399017 141.44126892
v -88.62467957 105.29406738 55.53306961
v -88.64989471 104.85905457 55.03020096
v -88.59801483 105.75399017 141.44126892
v -88.64989471 104.85905457 55.03020096
v -88.61524963 105.45664978 141.91528320
v -88.61524963 105.45664978 141.91528320
v -88.64989471 104.85905457 55.03020096
v -88.66915131 104.52691650 54.45395279
v -88.61524963 105.45664978 141.91528320
v -88.66915131 104.52691650 54.45395279
v -88.62595367 105.27206421 142.44369507
v -88.62595367 105.27206421 142.44369507
v -88.66915131 104.52691650 54.45395279
v -88.96540070 99.41641998 48.56116486
v -88.62595367 105.27206421 142.44369507
v -88.96540070 99.41641998 48.56116486
v -89.02536011 98.38211060 48.99031067
v -88.66915131 104.52691650 54.45395279
v -88.68173981 104.30965424 53.82515717
v -88.96540070 99.41641998 48.56116486
v -88.96540070 99.41641998 48.56116486
v -88.68173981 104.30965424 53.82515717
v -88.90303802 100.49219513 48.25072098
v -88.90303802 100.49219513 48.25072098
v -88.68173981 104.30965424 53.82515717
v -88.83905792 101.59590912 48.06287766
v -88.83905792 101.59590912 48.06287766
v -88.68173981 104.30965424 53.82515717
v -88.68722534 104.21511841 53.16653824
v -88.83905792 101.59590912 48.06287766
v -88.68722534 104.21511841 53.16653824
v -88.77426147 102.71367645 48.00000000
v -88.77426147 102.71367645 48.00000000
v -88.68722534 104.21511841 53.16653824
v -88.68538666 104.24672699 52.50189972
v -88.77426147 102.71367645 48.00000000
v -88.68538666 104.24672699 52.50189972
v -88.67631531 104.40333557 51.85526276
v -88.67631531 104.40333557 51.85526276
v -88.66031647 104.67929077 51.25000000
v -88.77426147 102.71367645 48.00000000
v -88.77426147 102.71367645 48.00000000
v -88.66031647 104.67929077 51.25000000
v -88.63797760 105.06460571 50.70798874
v -88.77426147 102.71367645 48.00000000
v -88.63797760 105.06460571 50.70798874
v -88.61010742 105.54536438 50.24881363
v -88.61010742 105.54536438 50.24881363
v -88.57771301 106.10419464 49.88907623
v -88.77426147 102.71367645 48.00000000
v -88.77426147 102.71367645 48.00000000
v -88.57771301 106.10419464 49.88907623
v -88.48489380 107.70529938 48.00000000
v -88.48489380 107.70529938 48.00000000
v -88.57771301 106.10419464 49.88907623
v -88.54196167 106.72088623 49.64177322
v -88.48489380 107.70529938 48.00000000
v -88.54196167 106.72088623 49.64177322
v -88.50415039 107.37315369 49.51585007
v -88.50415039 107.37315369 49.51585007
v -88.46564484 108.03743744 49.51585007
v -88.48489380 107.70529938 48.00000000
v -88.48489380 107.70529938 48.00000000
v -88.46564484 108.03743744 49.51585007
v -88.43962860 108.48616028 48.06155777
v -88.43962860 108.48616028 48.06155777
v -88.46564484 108.03743744 49.51585007
v -88.42783356 108.68970490 49.64177322
v -88.43962860 108.48616028 48.06155777
v -88.42783356 108.68970490 49.64177322
v -88.39547729 109.24778748 48.24471664
v -88.39547729 109.24778748 48.24471664
v -88.42783356 108.68970490 49.64177322
v -88.39208221 109.30640411 49.88907623
v -88.39547729 109.24778748 48.24471664
v -88.39208221 109.30640411 49.88907623
v -88.35353088 109.97144318 48.54496765
v -88.35353088 109.97144318 48.54496765
v -88.39208221 109.30640411 49.88907623
v -88.35968781 109.86522675 50.24881363
v -88.35353088 109.97144318 48.54496765
v -88.35968781 109.86522675 50.24881363
v -88.33181763 110.34598541 50.70798874
v -88.35353088 109.97144318 48.54496765
v -88.33181763 110.34598541 50.70798874
v -88.31481171 110.63929749 48.95491409
v -88.31481171 110.63929749 48.95491409
v -88.33181763 110.34598541 50.70798874
v -88.30947876 110.73130798 51.25000000
v -88.31481171 110.63929749 48.95491409
v -88.30947876 110.73130798 51.25000000
v -88.28028870 111.23490143 49.46446609
v -88.28028870 111.23490143 49.46446609
v -88.30947876 110.73130798 51.25000000
v -88.29347992 111.00725555 51.85526276
v -88.28028870 111.23490143 49.46446609
v -88.29347992 111.00725555 51.85526276
v -88.28440094 111.16386414 52.50189972
v -88.28028870 111.23490143 49.46446609
v -88.28440094 111.16386414 52.50189972
v -88.25079346 111.74359894 50.06107330
v -88.25079346 111.74359894 50.06107330
v -88.28440094 111.16386414 52.50189972
v -88.28256989 111.19547272 53.16653824
v -88.25079346 111.74359894 50.06107330
v -88.28256989 111.19547272 53.16653824
v -88.22707367 112.15286255 50.73004913
v -88.22707367 112.15286255 50.73004913
v -88.28256989 111.19547272 53.16653824
v -88.20969391 112.45260620 51.45491409
v -88.20969391 112.45260620 51.45491409
v -88.28256989 111.19547272 53.16653824
v -88.19553375 112.69691467 53.00000000
v -88.20969391 112.45260620 51.45491409
v -88.19553375 112.69691467 53.00000000
v -88.19909668 112.63545990 52.21782684
v -88.28256989 111.19547272 53.16653824
v -88.28805542 111.10093689 53.82515717
v -88.19553375 112.69691467 53.00000000
v -88.19553375 112.69691467 53.00000000
v -88.28805542 111.10093689 53.82515717
v -88.30064392 110.88367462 54.45395279
v -88.19553375 112.69691467 53.00000000
v -88.30064392 110.88367462 54.45395279
v -88.31990051 110.55153656 55.03020096
v -88.34511566 110.11652374 55.53306961
v -88.37178040 109.65660095 141.44126892
v -88.31990051 110.55153656 55.03020096
v -88.31990051 110.55153656 55.03020096
v -88.37178040 109.65660095 141.44126892
v -88.35454559 109.95394135 141.91528320
v -88.31990051 110.55153656 55.03020096
v -88.35454559 109.95394135 141.91528320
v -88.19553375 112.69691467 53.00000000
v -88.19553375 112.69691467 53.00000000
v -88.35454559 109.95394135 141.91528320
v -88.34384155 110.13852692 142.44369507
v -88.19553375 112.69691467 53.00000000
v -88.34384155 110.13852692 142.44369507
v -88.19553375 112.69691467 148.00000000
v -88.19553375 112.69691467 148.00000000
v -88.34384155 110.13852692 142.44369507
v -88.34021759 110.20110321 143.00000000
v -88.19553375 112.69691467 148.00000000
v -88.34021759 110.20110321 143.00000000
v -88.34384155 110.13852692 143.55630493
v -88.34511566 110.11652374 55.53306961
v -88.37538910 109.59436798 55.94438553
v -88.37178040 109.65660095 141.44126892
v -88.37178040 109.65660095 141.44126892
v -88.37538910 109.59436798 55.94438553
v -88.39469147 109.26140594 141.04542542
v -88.39469147 109.26140594 141.04542542
v -88.37538910 109.59436798 55.94438553
v -88.40961456 109.00393677 56.24928665
v -88.39469147 109.26140594 141.04542542
v -88.40961456 109.00393677 56.24928665
v -88.42211914 108.78818512 140.74757385
v -88.42211914 108.78818512 140.74757385
v -88.40961456 109.00393677 56.24928665
v -88.44656372 108.36656189 56.43675232
v -88.42211914 108.78818512 140.74757385
v -88.44656372 108.36656189 56.43675232
v -88.45270538 108.26066589 140.56268311
v -88.45270538 108.26066589 140.56268311
v -88.44656372 108.36656189 56.43675232
v -88.48489380 107.70529938 56.50000000
v -89.02536011 98.38211060 48.99031067
v -89.08216095 97.40227509 49.53275681
v -88.62595367 105.27206421 142.44369507
v -88.62595367 105.27206421 142.44369507
v -89.08216095 97.40227509 49.53275681
v -89.35298920 92.73043823 58.00000000
v -88.62595367 105.27206421 142.44369507
v -89.35298920 92.73043823 58.00000000
v -89.35298920 92.73043823 148.00000000
v -89.08216095 97.40227509 49.53275681
v -89.13509369 96.48922729 50.18168640
v -89.35298920 92.73043823 58.00000000
v -89.35298920 92.73043823 58.00000000
v -89.13509369 96.48922729 50.18168640
v -89.18348694 95.65445709 50.92893219
v -89.35298920 92.73043823 58.00000000
v -89.18348694 95.65445709 50.92893219
v -89.22673035 94.90846252 51.76510239
v -89.22673035 94.90846252 51.76510239
v -89.26428223 94.26062775 52.67967987
v -89.35298920 92.73043823 58.00000000
v -89.35298920 92.73043823 58.00000000
v -89.26428223 94.26062775 52.67967987
v -89.29567719 93.71908569 53.66116333
v -89.35298920 92.73043823 58.00000000
v -89.29567719 93.71908569 53.66116333
v -89.32051086 93.29066467 54.69720840
v -89.32051086 93.29066467 54.69720840
v -89.33847809 92.98073578 55.77479172
v -89.35298920 92.73043823 58.00000000
v -89.35298920 92.73043823 58.00000000
v -89.33847809 92.98073578 55.77479172
v -89.34934998 92.79320526 56.88035583
v -88.19553375 112.69691467 148.00000000
v -88.51708984 107.14992523 145.43731689
v -89.35298920 92.73043823 148.00000000
v -89.35298920 92.73043823 148.00000000
v -88.51708984 107.14992523 145.43731689
v -88.54767609 106.62240601 145.25242615
v -89.35298920 92.73043823 148.00000000
v -88.54767609 106.62240601 145.25242615
v -88.57510376 106.14918518 144.95457458
v -88.62595367 105.27206421 143.55630493
v -88.62957764 105.20948792 143.00000000
v -89.35298920 92.73043823 148.00000000
v -89.35298920 92.73043823 148.00000000
v -88.62957764 105.20948792 143.00000000
v -88.62595367 105.27206421 142.44369507
v -88.34384155 110.13852692 143.55630493
v -88.35454559 109.95394135 144.08471680
v -88.19553375 112.69691467 148.00000000
v -88.19553375 112.69691467 148.00000000
v -88.35454559 109.95394135 144.08471680
v -88.37178040 109.65660095 144.55873108
v -88.19553375 112.69691467 148.00000000
v -88.37178040 109.65660095 144.55873108
v -88.39469147 109.26140594 144.95457458
v -88.39469147 109.26140594 144.95457458
v -88.42211914 108.78818512 145.25242615
v -88.19553375 112.69691467 148.00000000
v -88.19553375 112.69691467 148.00000000
v -88.42211914 108.78818512 145.25242615
v -88.45270538 108.26066589 145.43731689
v -88.19553375 112.69691467 148.00000000
v -88.45270538 108.26066589 145.43731689
v -88.48489380 107.70529938 145.50000000
v -88.48489380 107.70529938 145.50000000
v -88.51708984 107.14992523 145.43731689
v -88.19553375 112.69691467 148.00000000
v -88.57510376 106.14918518 144.95457458
v -88.59801483 105.75399017 144.55873108
v -89.35298920 92.73043823 148.00000000
v -89.35298920 92.73043823 148.00000000
v -88.59801483 105.75399017 144.55873108
v -88.61524963 105.45664978 144.08471680
v -89.35298920 92.73043823 148.00000000
v -88.61524963 105.45664978 144.08471680
v -88.62595367 105.27206421 143.55630493
f 1 2 3
f 4 5 6
f 7 8 9
f 10 11 12
f 13 14 15
f 16 17 18
f 19 20 21
f 22 23 24
f 25 26 27
f 28 29 30
f 31 32 33
f 34 35 36
f 37 38 39
f 40 41 42
f 43 44 45
f 46 47 48
f 49 50 51
f 52 53 54
f 55 56 57
f 58 59 60
f 61 62 63
f 64 65 66
f 67 68 69
f 70 71 72
f 73 74 75
f 76 77 78
f 79 80 81
f 82 83 84
f 85 86 87
f 88 89 90
f 91 92 93
f 94 95 96
f 97 98 99
f 100 101 102
f 103 104 105
f 106 107 108
f 109 110 111
f 112 113 114
f 115 116 117
f 118 119 120
f 121 122 123
f 124 125 126
f 127 128 129
f 130 131 132
f 133 134 135
f 136 137 138
f 139 140 141
f 142 143 144
f 145 146 147
f 148 149 150
f 151 152 153
f 154 155 156
f 157 158 159
f 160 161 162
f 163 164 165
f 166 167 168
f 169 170 171
f 172 173 174
f 175 176 177
f 178 179 180
f 181 182 183
f 184 185 186
f 187 188 189
f 190 191 192
f 193 194 195
f 196 197 198
f 199 200 201
f 202 203 204
f 205 206 207
f 208 209 210
f 211 212 213
f 214 215 216
f 217 218 219
f 220 221 222
f 223 224 225
f 226 227 228
f 229 230 231
f 232 233 234
f 235 236 237
f 238 239 240
f 241 242 243
f 244 245 246
f 247 248 249
f 250 251 252
f 253 254 255
f 256 257 258
f 259 260 261
f 262 263 264
f 265 266 267
f 268 269 270
f 271 272 273
f 274 275 276
f 277 278 279
f 280 281 282
f 283 284 285
f 286 287 288
f 289 290 291
f 292 293 294
f 295 296 297
f 298 299 300
f 301 302 303
f 304 305 306
f 307 308 309
f 310 311 312
f 313 314 315
f 316 317 318
f 319 320 321
f 322 323 324
f 325 326 327
f 328 329 330
f 331 332 333
f 334 335 336
f 337 338 339
f 340 341 342
f 343 344 345
f 346 347 348
f 349 350 351
f 352 353 354
f 355 356 357
f 358 359 360
f 361 362 363
f 364 365 366
f 367 368 369
f 370 371 372
f 373 374 375
f 376 377 378
f 379 380 381
f 382 383 384
f 385 386 387
f 388 389 390
f 391 392 393
f 394 395 396
f 397 398 399
f 400 401 402
f 403 404 405
f 406 407 408
f 409 410 411
f 412 413 414
f 415 416 417
f 418 419 420
f 421 422 423
f 424 425 426
f 427 428 429
f 430 431 432
f 433 434 435
f 436 437 438
f 439 440 441
f 442 443 444
f 445 446 447
f 448 449 450
f 451 452 453
f 454 455 456
f 457 458 459
f 460 461 462
f 463 464 465
f 466 467 468
f 469 470 471
f 472 473 474
f 475 476 477
f 478 479 480
f 481 482 483
f 484 485 486
f 487 488 489
f 490 491 492
f 493 494 495
f 496 497 498
f 499 500 501
f 502 503 504
f 505 506 507
f 508 509 510
f 511 512 513
f 514 515 516
f 517 518 519
f 520 521 522
f 523 524 525
f 526 527 528
f 529 530 531
f 532 533 534
f 535 536 537
f 538 539 540
f 541 542 543
f 544 545 546
f 547 548 549
f 550 551 552
f 553 554 555
f 556 557 558
f 559 560 561
f 562 563 564
f 565 566 567
f 568 569 570
f 571 572 573
f 574 575 576
f 577 578 579
f 580 581 582
f 583 584 585
f 586 587 588
f 589 590 591
f 592 593 594
f 595 596 597
f 598 599 600
f 601 602 603
f 604 605 606
f 607 608 609
f 610 611 612
f 613 614 615
f 616 617 618
f 619 620 621
f 622 623 624
f 625 626 627
f 628 629 630
f 631 632 633
f 634 635 636
f 637 638 639
f 640 641 642
f 643 644 645
f 646 647 648
f 649 650 651
f 652 653 654
f 655 656 657
f 658 659 660
f 661 662 663
f 664 665 666
f 667 668 669
f 670 671 672
f 673 674 675
f 676 677 678
f 679 680 681
f 682 683 684
f 685 686 687
f 688 689 690
f 691 692 693
f 694 695 696
f 697 698 699
f 700 701 702
f 703 704 705
f 706 707 708
f 709 710 711
f 712 713 714
f 715 716 717
f 718 719 720
f 721 722 723
f 724 725 726
f 727 728 729
f 730 731 732
f 733 734 735
f 736 737 738
f 739 740 741
f 742 743 744
f 745 746 747
f 748 749 750
f 751 752 753
f 754 755 756
f 757 758 759
f 760 761 762
f 763 764 765
f 766 767 768
f 769 770 771
f 772 773 774
f 775 776 777
f 778 779 780
f 781 782 783
f 784 785 786
f 787 788 789
f 790 791 792
f 793 794 795
f 796 797 798
f 799 800 801
f 802 803 804
f 805 806 807
f 808 809 810
f 811 812 813
f 814 815 816
f 817 818 819
f 820 821 822
f 823 824 825
f 826 827 828
f 829 830 831
f 832 833 834
f 835 836 837
f 838 839 840
f 841 842 843
f 844 845 846
f 847 848 849
f 850 851 852
f 853 854 855
f 856 857 858
f 859 860 861
f 862 863 864
f 865 866 867
f 868 869 870
f 871 872 873
f 874 875 876
f 877 878 879
f 880 881 882
f 883 884 885
f 886 887 888
f 889 890 891
f 892 893 894
f 895 896 897
f 898 899 900
f 901 902 903
f 904 905 906
f 907 908 909
f 910 911 912
f 913 914 915
f 916 917 918
f 919 920 921
f 922 923 924
f 925 926 927
f 928 929 930
f 931 932 933
f 934 935 936
f 937 938 939
f 940 941 942
f 943 944 945
f 946 947 948
f 949 950 951
f 952 953 954
f 955 956 957
f 958 959 960
f 961 962 963
f 964 965 966
f 967 968 969
f 970 971 972
f 973 974 975
f 976 977 978
f 979 980 981
f 982 983 984
f 985 986 987
f 988 989 990
f 991 992 993
f 994 995 996
f 997 998 999
f 1000 1001 1002
f 1003 1004 1005
f 1006 1007 1008
f 1009 1010 1011
f 1012 1013 1014
f 1015 1016 1017
f 1018 1019 1020
f 1021 1022 1023
f 1024 1025 1026
f 1027 1028 1029
f 1030 1031 1032
f 1033 1034 1035
f 1036 1037 1038
f 1039 1040 1041
f 1042 1043 1044
f 1045 1046 1047
f 1048 1049 1050
f 1051 1052 1053
f 1054 1055 1056
f 1057 1058 1059
f 1060 1061 1062
f 1063 1064 1065
f 1066 1067 1068
f 1069 1070 1071
f 1072 1073 1074
f 1075 1076 1077
f 1078 1079 1080
f 1081 1082 1083
f 1084 1085 1086
f 1087 1088 1089
f 1090 1091 1092
f 1093 1094 1095
f 1096 1097 1098
f 1099 1100 1101
f 1102 1103 1104
f 1105 1106 1107
f 1108 1109 1110
f 1111 1112 1113
f 1114 1115 1116
f 1117 1118 1119
f 1120 1121 1122
f 1123 1124 1125
f 1126 1127 1128
f 1129 1130 1131
f 1132 1133 1134
f 1135 1136 1137
f 1138 1139 1140
f 1141 1142 1143
f 1144 1145 1146
f 1147 1148 1149
f 1150 1151 1152
f 1153 1154 1155
f 1156 1157 1158
f 1159 1160 1161
f 1162 1163 1164
f 1165 1166 1167
f 1168 1169 1170
f 1171 1172 1173
f 1174 1175 1176
f 1177 1178 1179
f 1180 1181 1182
f 1183 1184 1185
f 1186 1187 1188
f 1189 1190 1191
f 1192 1193 1194
f 1195 1196 1197
f 1198 1199 1200
f 1201 1202 1203
f 1204 1205 1206
f 1207 1208 1209
f 1210 1211 1212
f 1213 1214 1215
f 1216 1217 1218
f 1219 1220 1221
f 1222 1223 1224
f 1225 1226 1227
f 1228 1229 1230
f 1231 1232 1233
f 1234 1235 1236
f 1237 1238 1239
f 1240 1241 1242
f 1243 1244 1245
f 1246 1247 1248
f 1249 1250 1251
f 1252 1253 1254
f 1255 1256 1257
f 1258 1259 1260
f 1261 1262 1263
f 1264 1265 1266
f 1267 1268 1269
f 1270 1271 1272
f 1273 1274 1275
f 1276 1277 1278
f 1279 1280 1281
f 1282 1283 1284
f 1285 1286 1287
f 1288 1289 1290
f 1291 1292 1293
f 1294 1295 1296
f 1297 1298 1299
f 1300 1301 1302
f 1303 1304 1305
f 1306 1307 1308
f 1309 1310 1311
f 1312 1313 1314
f 1315 1316 1317
f 1318 1319 1320
f 1321 1322 1323
f 1324 1325 1326
f 1327 1328 1329
f 1330 1331 1332
f 1333 1334 1335
f 1336 1337 1338
f 1339 1340 1341
f 1342 1343 1344
f 1345 1346 1347
f 1348 1349 1350
f 1351 1352 1353
f 1354 1355 1356
f 1357 1358 1359
f 1360 1361 1362
f 1363 1364 1365
f 1366 1367 1368
f 1369 1370 1371
f 1372 1373 1374
f 1375 1376 1377
f 1378 1379 1380
f 1381 1382 1383
f 1384 1385 1386
f 1387 1388 1389
f 1390 1391 1392
f 1393 1394 1395
f 1396 1397 1398
f 1399 1400 1401
f 1402 1403 1404
f 1405 1406 1407
f 1408 1409 1410
f 1411 1412 1413
f 1414 1415 1416
f 1417 1418 1419
f 1420 1421 1422
f 1423 1424 1425
f 1426 1427 1428
f 1429 1430 1431
f 1432 1433 1434
f 1435 1436 1437
f 1438 1439 1440
f 1441 1442 1443
f 1444 1445 1446
f 1447 1448 1449
f 1450 1451 1452
f 1453 1454 1455
f 1456 1457 1458
f 1459 1460 1461
f 1462 1463 1464
f 1465 1466 1467
f 1468 1469 1470
f 1471 1472 1473
f 1474 1475 1476
f 1477 1478 1479
f 1480 1481 1482
f 1483 1484 1485
f 1486 1487 1488
f 1489 1490 1491
f 1492 1493 1494
f 1495 1496 1497
f 1498 1499 1500
f 1501 1502 1503
f 1504 1505 1506
f 1507 1508 1509
f 1510 1511 1512
f 1513 1514 1515
f 1516 1517 1518
f 1519 1520 1521
f 1522 1523 1524
f 1525 1526 1527
f 1528 1529 1530
f 1531 1532 1533
f 1534 1535 1536
f 1537 1538 1539
f 1540 1541 1542
f 1543 1544 1545
f 1546 1547 1548
f 1549 1550 1551
f 1552 1553 1554
f 1555 1556 1557
f 1558 1559 1560
f 1561 1562 1563
f 1564 1565 1566
f 1567 1568 1569
f 1570 1571 1572
f 1573 1574 1575
f 1576 1577 1578
f 1579 1580 1581
f 1582 1583 1584
f 1585 1586 1587
f 1588 1589 1590
f 1591 1592 1593
f 1594 1595 1596
f 1597 1598 1599
f 1600 1601 1602
f 1603 1604 1605
f 1606 1607 1608
f 1609 1610 1611
f 1612 1613 1614
f 1615 1616 1617
f 1618 1619 1620
f 1621 1622 1623
f 1624 1625 1626
f 1627 1628 1629
f 1630 1631 1632
f 1633 1634 1635
f 1636 1637 1638
f 1639 1640 1641
f 1642 1643 1644
f 1645 1646 1647
f 1648 1649 1650
f 1651 1652 1653
f 1654 1655 1656
f 1657 1658 1659
f 1660 1661 1662
f 1663 1664 1665
f 1666 1667 1668
f 1669 1670 1671
f 1672 1673 1674
f 1675 1676 1677
f 1678 1679 1680
f 1681 1682 1683
f 1684 1685 1686
f 1687 1688 1689
f 1690 1691 1692
f 1693 1694 1695
f 1696 1697 1698
f 1699 1700 1701
f 1702 1703 1704
f 1705 1706 1707
f 1708 1709 1710
f 1711 1712 1713
f 1714 1715 1716
f 1717 1718 1719
f 1720 1721 1722
f 1723 1724 1725
f 1726 1727 1728
f 1729 1730 1731
f 1732 1733 1734
f 1735 1736 1737
f 1738 1739 1740
f 1741 1742 1743
f 1744 1745 1746
f 1747 1748 1749
f 1750 1751 1752
f 1753 1754 1755
f 1756 1757 1758
f 1759 1760 1761
f 1762 1763 1764
f 1765 1766 1767
f 1768 1769 1770
f 1771 1772 1773
f 1774 1775 1776
f 1777 1778 1779
f 1780 1781 1782
f 1783 1784 1785
f 1786 1787 1788
f 1789 1790 1791
f 1792 1793 1794
f 1795 1796 1797
f 1798 1799 1800
f 1801 1802 1803
f 1804 1805 1806
f 1807 1808 1809
f 1810 1811 1812

