# https://github.com/mikedh/trimesh

o Handle_1.stl
v -139.62153625 92.08041382 43.47863007
v -142.11735535 92.22509766 43.47863007
v -139.61817932 92.13843536 43.00000000
v -139.61817932 92.13843536 43.00000000
v -142.11735535 92.22509766 43.47863007
v -142.11398315 92.28311157 43.00000000
v -139.61817932 92.13843536 43.00000000
v -142.11398315 92.28311157 43.00000000
v -139.62153625 92.08041382 42.52136993
v -139.62153625 92.08041382 42.52136993
v -142.11398315 92.28311157 43.00000000
v -142.11735535 92.22509766 42.52136993
v -139.62153625 92.08041382 42.52136993
v -142.11735535 92.22509766 42.52136993
v -139.63143921 91.90972900 42.07055283
v -139.63143921 91.90972900 42.07055283
v -142.11735535 92.22509766 42.52136993
v -142.12724304 92.05441284 42.07055283
v -139.63143921 91.90972900 42.07055283
v -142.12724304 92.05441284 42.07055283
v -139.64729309 91.63629913 41.67375565
v -139.64729309 91.63629913 41.67375565
v -142.12724304 92.05441284 42.07055283
v -142.14309692 91.78097534 41.67375565
v -139.64729309 91.63629913 41.67375565
v -142.14309692 91.78097534 41.67375565
v -139.66816711 91.27600861 41.35403061
v -139.66816711 91.27600861 41.35403061
v -142.14309692 91.78097534 41.67375565
v -142.16398621 91.42069244 41.35403061
v -139.66816711 91.27600861 41.35403061
v -142.16398621 91.42069244 41.35403061
v -139.69288635 90.84980774 41.12996674
v -139.69288635 90.84980774 41.12996674
v -142.16398621 91.42069244 41.35403061
v -142.18869019 90.99448395 41.12996674
v -139.69288635 90.84980774 41.12996674
v -142.18869019 90.99448395 41.12996674
v -139.71997070 90.38245392 41.01458359
v -139.71997070 90.38245392 41.01458359
v -142.18869019 90.99448395 41.12996674
v -142.21577454 90.52713776 41.01458359
v -139.71997070 90.38245392 41.01458359
v -142.21577454 90.52713776 41.01458359
v -139.74787903 89.90111542 41.01458359
v -139.74787903 89.90111542 41.01458359
v -142.21577454 90.52713776 41.01458359
v -142.24368286 90.04579926 41.01458359
v -139.74787903 89.90111542 41.01458359
v -142.24368286 90.04579926 41.01458359
v -139.77496338 89.43376160 41.12996674
v -139.77496338 89.43376160 41.12996674
v -142.24368286 90.04579926 41.01458359
v -142.27078247 89.57844543 41.12996674
v -139.77496338 89.43376160 41.12996674
v -142.27078247 89.57844543 41.12996674
v -139.79966736 89.00756073 41.35403061
v -139.79966736 89.00756073 41.35403061
v -142.27078247 89.57844543 41.12996674
v -142.29548645 89.15224457 41.35403061
v -139.79966736 89.00756073 41.35403061
v -142.29548645 89.15224457 41.35403061
v -139.82055664 88.64727020 41.67375565
v -139.82055664 88.64727020 41.67375565
v -142.29548645 89.15224457 41.35403061
v -142.31637573 88.79195404 41.67375565
v -139.82055664 88.64727020 41.67375565
v -142.31637573 88.79195404 41.67375565
v -139.83641052 88.37384033 42.07055283
v -139.83641052 88.37384033 42.07055283
v -142.31637573 88.79195404 41.67375565
v -142.33221436 88.51852417 42.07055283
v -139.83641052 88.37384033 42.07055283
v -142.33221436 88.51852417 42.07055283
v -139.84629822 88.20315552 42.52136993
v -139.84629822 88.20315552 42.52136993
v -142.33221436 88.51852417 42.07055283
v -142.34211731 88.34783936 42.52136993
v -139.84629822 88.20315552 42.52136993
v -142.34211731 88.34783936 42.52136993
v -139.84967041 88.14513397 43.00000000
v -139.84967041 88.14513397 43.00000000
v -142.34211731 88.34783936 42.52136993
v -142.34547424 88.28981781 43.00000000
v -139.84967041 88.14513397 43.00000000
v -142.34547424 88.28981781 43.00000000
v -139.84629822 88.20315552 43.47863007
v -139.84629822 88.20315552 43.47863007
v -142.34547424 88.28981781 43.00000000
v -142.34211731 88.34783936 43.47863007
v -139.84629822 88.20315552 43.47863007
v -142.34211731 88.34783936 43.47863007
v -139.83641052 88.37384033 43.92944717
v -139.83641052 88.37384033 43.92944717
v -142.34211731 88.34783936 43.47863007
v -142.33221436 88.51852417 43.92944717
v -139.83641052 88.37384033 43.92944717
v -142.33221436 88.51852417 43.92944717
v -139.82055664 88.64727020 44.32624435
v -139.82055664 88.64727020 44.32624435
v -142.33221436 88.51852417 43.92944717
v -142.31637573 88.79195404 44.32624435
v -139.82055664 88.64727020 44.32624435
v -142.31637573 88.79195404 44.32624435
v -139.79966736 89.00756073 44.64596939
v -139.79966736 89.00756073 44.64596939
v -142.31637573 88.79195404 44.32624435
v -142.29548645 89.15224457 44.64596939
v -139.79966736 89.00756073 44.64596939
v -142.29548645 89.15224457 44.64596939
v -139.77496338 89.43376160 44.87003326
v -139.77496338 89.43376160 44.87003326
v -142.29548645 89.15224457 44.64596939
v -142.27078247 89.57844543 44.87003326
v -139.77496338 89.43376160 44.87003326
v -142.27078247 89.57844543 44.87003326
v -139.74787903 89.90111542 44.98541641
v -139.74787903 89.90111542 44.98541641
v -142.27078247 89.57844543 44.87003326
v -142.24368286 90.04579926 44.98541641
v -139.74787903 89.90111542 44.98541641
v -142.24368286 90.04579926 44.98541641
v -139.71997070 90.38245392 44.98541641
v -139.71997070 90.38245392 44.98541641
v -142.24368286 90.04579926 44.98541641
v -142.21577454 90.52713776 44.98541641
v -139.71997070 90.38245392 44.98541641
v -142.21577454 90.52713776 44.98541641
v -139.69288635 90.84980774 44.87003326
v -139.69288635 90.84980774 44.87003326
v -142.21577454 90.52713776 44.98541641
v -142.18869019 90.99448395 44.87003326
v -139.69288635 90.84980774 44.87003326
v -142.18869019 90.99448395 44.87003326
v -139.66816711 91.27600861 44.64596939
v -139.66816711 91.27600861 44.64596939
v -142.18869019 90.99448395 44.87003326
v -142.16398621 91.42069244 44.64596939
v -139.66816711 91.27600861 44.64596939
v -142.16398621 91.42069244 44.64596939
v -139.64729309 91.63629913 44.32624435
v -139.64729309 91.63629913 44.32624435
v -142.16398621 91.42069244 44.64596939
v -142.14309692 91.78097534 44.32624435
v -139.64729309 91.63629913 44.32624435
v -142.14309692 91.78097534 44.32624435
v -139.63143921 91.90972900 43.92944717
v -139.63143921 91.90972900 43.92944717
v -142.14309692 91.78097534 44.32624435
v -142.12724304 92.05441284 43.92944717
v -139.63143921 91.90972900 43.92944717
v -142.12724304 92.05441284 43.92944717
v -139.62153625 92.08041382 43.47863007
v -139.62153625 92.08041382 43.47863007
v -142.12724304 92.05441284 43.92944717
v -142.11735535 92.22509766 43.47863007
v -142.11300659 39.45811844 58.00000000
v -142.11300659 39.45811844 63.00000000
v -142.19871521 38.98365021 58.00000000
v -142.19871521 38.98365021 58.00000000
v -142.11300659 39.45811844 63.00000000
v -142.19871521 38.98365021 63.00000000
v -142.19871521 38.98365021 58.00000000
v -142.19871521 38.98365021 63.00000000
v -142.16839600 38.50246048 58.00000000
v -142.16839600 38.50246048 58.00000000
v -142.19871521 38.98365021 63.00000000
v -142.16839600 38.50246048 63.00000000
v -142.16839600 38.50246048 58.00000000
v -142.16839600 38.50246048 63.00000000
v -142.02380371 38.04250336 58.00000000
v -142.02380371 38.04250336 58.00000000
v -142.16839600 38.50246048 63.00000000
v -142.02380371 38.04250336 63.00000000
v -142.02380371 38.04250336 58.00000000
v -142.02380371 38.04250336 63.00000000
v -141.77333069 37.63051987 58.00000000
v -141.77333069 37.63051987 58.00000000
v -142.02380371 38.04250336 63.00000000
v -141.77333069 37.63051987 63.00000000
v -141.77333069 37.63051987 58.00000000
v -141.77333069 37.63051987 63.00000000
v -141.43154907 37.29044724 58.00000000
v -141.43154907 37.29044724 58.00000000
v -141.77333069 37.63051987 63.00000000
v -141.43154907 37.29044724 63.00000000
v -141.43154907 37.29044724 58.00000000
v -141.43154907 37.29044724 63.00000000
v -141.01831055 37.04205322 58.00000000
v -141.01831055 37.04205322 58.00000000
v -141.43154907 37.29044724 63.00000000
v -141.01831055 37.04205322 63.00000000
v -141.01831055 37.04205322 58.00000000
v -141.01831055 37.04205322 63.00000000
v -140.55764771 36.89976883 58.00000000
v -140.55764771 36.89976883 58.00000000
v -141.01831055 37.04205322 63.00000000
v -140.55764771 36.89976883 63.00000000
v -140.55764771 36.89976883 58.00000000
v -140.55764771 36.89976883 63.00000000
v -140.07630920 36.87186432 58.00000000
v -140.07630920 36.87186432 58.00000000
v -140.55764771 36.89976883 63.00000000
v -140.07630920 36.87186432 63.00000000
v -140.07630920 36.87186432 58.00000000
v -140.07630920 36.87186432 63.00000000
v -139.60227966 36.95996475 58.00000000
v -139.60227966 36.95996475 58.00000000
v -140.07630920 36.87186432 63.00000000
v -139.60227966 36.95996475 63.00000000
v -139.60227966 36.95996475 58.00000000
v -139.60227966 36.95996475 63.00000000
v -139.16310120 37.15894699 58.00000000
v -139.16310120 37.15894699 58.00000000
v -139.60227966 36.95996475 63.00000000
v -139.16310120 37.15894699 63.00000000
v -139.16310120 37.15894699 58.00000000
v -139.16310120 37.15894699 63.00000000
v -138.78431702 37.45724487 58.00000000
v -138.78431702 37.45724487 58.00000000
v -139.16310120 37.15894699 63.00000000
v -138.78431702 37.45724487 63.00000000
v -138.78431702 37.45724487 58.00000000
v -138.78431702 37.45724487 63.00000000
v -138.48791504 37.83752823 58.00000000
v -138.48791504 37.83752823 58.00000000
v -138.78431702 37.45724487 63.00000000
v -138.48791504 37.83752823 63.00000000
v -138.48791504 37.83752823 58.00000000
v -138.48791504 37.83752823 63.00000000
v -138.29113770 38.27769470 58.00000000
v -138.29113770 38.27769470 58.00000000
v -138.48791504 37.83752823 63.00000000
v -138.29113770 38.27769470 63.00000000
v -138.29113770 38.27769470 58.00000000
v -138.29113770 38.27769470 63.00000000
v -138.20542908 38.75215912 58.00000000
v -138.20542908 38.75215912 58.00000000
v -138.29113770 38.27769470 63.00000000
v -138.20542908 38.75215912 63.00000000
v -138.20542908 38.75215912 58.00000000
v -138.20542908 38.75215912 63.00000000
v -138.23574829 39.23335266 58.00000000
v -138.23574829 39.23335266 58.00000000
v -138.20542908 38.75215912 63.00000000
v -138.23574829 39.23335266 63.00000000
v -138.23574829 39.23335266 58.00000000
v -138.23574829 39.23335266 63.00000000
v -138.38034058 39.69330597 58.00000000
v -138.38034058 39.69330597 58.00000000
v -138.23574829 39.23335266 63.00000000
v -138.38034058 39.69330597 63.00000000
v -138.38034058 39.69330597 58.00000000
v -138.38034058 39.69330597 63.00000000
v -138.63079834 40.10529327 58.00000000
v -138.63079834 40.10529327 58.00000000
v -138.38034058 39.69330597 63.00000000
v -138.63079834 40.10529327 63.00000000
v -138.63079834 40.10529327 58.00000000
v -138.63079834 40.10529327 63.00000000
v -138.97259521 40.44536209 58.00000000
v -138.97259521 40.44536209 58.00000000
v -138.63079834 40.10529327 63.00000000
v -138.97259521 40.44536209 63.00000000
v -138.97259521 40.44536209 58.00000000
v -138.97259521 40.44536209 63.00000000
v -139.38583374 40.69375992 58.00000000
v -139.38583374 40.69375992 58.00000000
v -138.97259521 40.44536209 63.00000000
v -139.38583374 40.69375992 63.00000000
v -139.38583374 40.69375992 58.00000000
v -139.38583374 40.69375992 63.00000000
v -139.84649658 40.83604431 58.00000000
v -139.84649658 40.83604431 58.00000000
v -139.38583374 40.69375992 63.00000000
v -139.84649658 40.83604431 63.00000000
v -139.84649658 40.83604431 58.00000000
v -139.84649658 40.83604431 63.00000000
v -140.32783508 40.86394882 58.00000000
v -140.32783508 40.86394882 58.00000000
v -139.84649658 40.83604431 63.00000000
v -140.32783508 40.86394882 63.00000000
v -140.32783508 40.86394882 58.00000000
v -140.32783508 40.86394882 63.00000000
v -140.80186462 40.77584839 58.00000000
v -140.80186462 40.77584839 58.00000000
v -140.32783508 40.86394882 63.00000000
v -140.80186462 40.77584839 63.00000000
v -140.80186462 40.77584839 58.00000000
v -140.80186462 40.77584839 63.00000000
v -141.24104309 40.57686615 58.00000000
v -141.24104309 40.57686615 58.00000000
v -140.80186462 40.77584839 63.00000000
v -141.24104309 40.57686615 63.00000000
v -141.24104309 40.57686615 58.00000000
v -141.24104309 40.57686615 63.00000000
v -141.61982727 40.27856445 58.00000000
v -141.61982727 40.27856445 58.00000000
v -141.24104309 40.57686615 63.00000000
v -141.61982727 40.27856445 63.00000000
v -141.61982727 40.27856445 58.00000000
v -141.61982727 40.27856445 63.00000000
v -141.91622925 39.89828110 58.00000000
v -141.91622925 39.89828110 58.00000000
v -141.61982727 40.27856445 63.00000000
v -141.91622925 39.89828110 63.00000000
v -141.91622925 39.89828110 58.00000000
v -141.91622925 39.89828110 63.00000000
v -142.11300659 39.45811844 58.00000000
v -142.11300659 39.45811844 58.00000000
v -141.91622925 39.89828110 63.00000000
v -142.11300659 39.45811844 63.00000000
v -138.73149109 97.79025269 58.00000000
v -138.73149109 97.79025269 63.00000000
v -138.81719971 97.31578827 58.00000000
v -138.81719971 97.31578827 58.00000000
v -138.73149109 97.79025269 63.00000000
v -138.81719971 97.31578827 63.00000000
v -138.81719971 97.31578827 58.00000000
v -138.81719971 97.31578827 63.00000000
v -138.78688049 96.83459473 58.00000000
v -138.78688049 96.83459473 58.00000000
v -138.81719971 97.31578827 63.00000000
v -138.78688049 96.83459473 63.00000000
v -138.78688049 96.83459473 58.00000000
v -138.78688049 96.83459473 63.00000000
v -138.64228821 96.37464142 58.00000000
v -138.64228821 96.37464142 58.00000000
v -138.78688049 96.83459473 63.00000000
v -138.64228821 96.37464142 63.00000000
v -138.64228821 96.37464142 58.00000000
v -138.64228821 96.37464142 63.00000000
v -138.39183044 95.96266174 58.00000000
v -138.39183044 95.96266174 58.00000000
v -138.64228821 96.37464142 63.00000000
v -138.39183044 95.96266174 63.00000000
v -138.39183044 95.96266174 58.00000000
v -138.39183044 95.96266174 63.00000000
v -138.05003357 95.62258911 58.00000000
v -138.05003357 95.62258911 58.00000000
v -138.39183044 95.96266174 63.00000000
v -138.05003357 95.62258911 63.00000000
v -138.05003357 95.62258911 58.00000000
v -138.05003357 95.62258911 63.00000000
v -137.63681030 95.37419128 58.00000000
v -137.63681030 95.37419128 58.00000000
v -138.05003357 95.62258911 63.00000000
v -137.63681030 95.37419128 63.00000000
v -137.63681030 95.37419128 58.00000000
v -137.63681030 95.37419128 63.00000000
v -137.17613220 95.23190308 58.00000000
v -137.17613220 95.23190308 58.00000000
v -137.63681030 95.37419128 63.00000000
v -137.17613220 95.23190308 63.00000000
v -137.17613220 95.23190308 58.00000000
v -137.17613220 95.23190308 63.00000000
v -136.69479370 95.20400238 58.00000000
v -136.69479370 95.20400238 58.00000000
v -137.17613220 95.23190308 63.00000000
v -136.69479370 95.20400238 63.00000000
v -136.69479370 95.20400238 58.00000000
v -136.69479370 95.20400238 63.00000000
v -136.22076416 95.29209900 58.00000000
v -136.22076416 95.29209900 58.00000000
v -136.69479370 95.20400238 63.00000000
v -136.22076416 95.29209900 63.00000000
v -136.22076416 95.29209900 58.00000000
v -136.22076416 95.29209900 63.00000000
v -135.78158569 95.49108124 58.00000000
v -135.78158569 95.49108124 58.00000000
v -136.22076416 95.29209900 63.00000000
v -135.78158569 95.49108124 63.00000000
v -135.78158569 95.49108124 58.00000000
v -135.78158569 95.49108124 63.00000000
v -135.40280151 95.78938293 58.00000000
v -135.40280151 95.78938293 58.00000000
v -135.78158569 95.49108124 63.00000000
v -135.40280151 95.78938293 63.00000000
v -135.40280151 95.78938293 58.00000000
v -135.40280151 95.78938293 63.00000000
v -135.10639954 96.16967010 58.00000000
v -135.10639954 96.16967010 58.00000000
v -135.40280151 95.78938293 63.00000000
v -135.10639954 96.16967010 63.00000000
v -135.10639954 96.16967010 58.00000000
v -135.10639954 96.16967010 63.00000000
v -134.90962219 96.60983276 58.00000000
v -134.90962219 96.60983276 58.00000000
v -135.10639954 96.16967010 63.00000000
v -134.90962219 96.60983276 63.00000000
v -134.90962219 96.60983276 58.00000000
v -134.90962219 96.60983276 63.00000000
v -134.82391357 97.08429718 58.00000000
v -134.82391357 97.08429718 58.00000000
v -134.90962219 96.60983276 63.00000000
v -134.82391357 97.08429718 63.00000000
v -134.82391357 97.08429718 58.00000000
v -134.82391357 97.08429718 63.00000000
v -134.85423279 97.56549072 58.00000000
v -134.85423279 97.56549072 58.00000000
v -134.82391357 97.08429718 63.00000000
v -134.85423279 97.56549072 63.00000000
v -134.85423279 97.56549072 58.00000000
v -134.85423279 97.56549072 63.00000000
v -134.99882507 98.02544403 58.00000000
v -134.99882507 98.02544403 58.00000000
v -134.85423279 97.56549072 63.00000000
v -134.99882507 98.02544403 63.00000000
v -134.99882507 98.02544403 58.00000000
v -134.99882507 98.02544403 63.00000000
v -135.24929810 98.43743134 58.00000000
v -135.24929810 98.43743134 58.00000000
v -134.99882507 98.02544403 63.00000000
v -135.24929810 98.43743134 63.00000000
v -135.24929810 98.43743134 58.00000000
v -135.24929810 98.43743134 63.00000000
v -135.59107971 98.77750397 58.00000000
v -135.59107971 98.77750397 58.00000000
v -135.24929810 98.43743134 63.00000000
v -135.59107971 98.77750397 63.00000000
v -135.59107971 98.77750397 58.00000000
v -135.59107971 98.77750397 63.00000000
v -136.00431824 99.02590179 58.00000000
v -136.00431824 99.02590179 58.00000000
v -135.59107971 98.77750397 63.00000000
v -136.00431824 99.02590179 63.00000000
v -136.00431824 99.02590179 58.00000000
v -136.00431824 99.02590179 63.00000000
v -136.46498108 99.16818237 58.00000000
v -136.46498108 99.16818237 58.00000000
v -136.00431824 99.02590179 63.00000000
v -136.46498108 99.16818237 63.00000000
v -136.46498108 99.16818237 58.00000000
v -136.46498108 99.16818237 63.00000000
v -136.94631958 99.19608307 58.00000000
v -136.94631958 99.19608307 58.00000000
v -136.46498108 99.16818237 63.00000000
v -136.94631958 99.19608307 63.00000000
v -136.94631958 99.19608307 58.00000000
v -136.94631958 99.19608307 63.00000000
v -137.42034912 99.10798645 58.00000000
v -137.42034912 99.10798645 58.00000000
v -136.94631958 99.19608307 63.00000000
v -137.42034912 99.10798645 63.00000000
v -137.42034912 99.10798645 58.00000000
v -137.42034912 99.10798645 63.00000000
v -137.85952759 98.90900421 58.00000000
v -137.85952759 98.90900421 58.00000000
v -137.42034912 99.10798645 63.00000000
v -137.85952759 98.90900421 63.00000000
v -137.85952759 98.90900421 58.00000000
v -137.85952759 98.90900421 63.00000000
v -138.23831177 98.61070251 58.00000000
v -138.23831177 98.61070251 58.00000000
v -137.85952759 98.90900421 63.00000000
v -138.23831177 98.61070251 63.00000000
v -138.23831177 98.61070251 58.00000000
v -138.23831177 98.61070251 63.00000000
v -138.53471375 98.23042297 58.00000000
v -138.53471375 98.23042297 58.00000000
v -138.23831177 98.61070251 63.00000000
v -138.53471375 98.23042297 63.00000000
v -138.53471375 98.23042297 58.00000000
v -138.53471375 98.23042297 63.00000000
v -138.73149109 97.79025269 58.00000000
v -138.73149109 97.79025269 58.00000000
v -138.53471375 98.23042297 63.00000000
v -138.73149109 97.79025269 63.00000000
v -142.25537109 46.64599991 41.39076614
v -144.75119019 46.79068375 41.39076614
v -142.28033447 46.21553040 41.33399963
v -142.28033447 46.21553040 41.33399963
v -144.75119019 46.79068375 41.39076614
v -144.77613831 46.36021042 41.33399963
v -142.28033447 46.21553040 41.33399963
v -144.77613831 46.36021042 41.33399963
v -142.30528259 45.78506088 41.39076614
v -142.30528259 45.78506088 41.39076614
v -144.77613831 46.36021042 41.33399963
v -144.80108643 45.92974091 41.39076614
v -142.30528259 45.78506088 41.39076614
v -144.80108643 45.92974091 41.39076614
v -142.32853699 45.38392639 41.55720139
v -142.32853699 45.38392639 41.55720139
v -144.80108643 45.92974091 41.39076614
v -144.82434082 45.52860641 41.55720139
v -142.32853699 45.38392639 41.55720139
v -144.82434082 45.52860641 41.55720139
v -142.34851074 45.03946304 41.82196045
v -142.34851074 45.03946304 41.82196045
v -144.82434082 45.52860641 41.55720139
v -144.84431458 45.18414688 41.82196045
v -142.34851074 45.03946304 41.82196045
v -144.84431458 45.18414688 41.82196045
v -142.36383057 44.77515030 42.16699982
v -142.36383057 44.77515030 42.16699982
v -144.84431458 45.18414688 41.82196045
v -144.85963440 44.91983032 42.16699982
v -142.36383057 44.77515030 42.16699982
v -144.85963440 44.91983032 42.16699982
v -142.37345886 44.60899353 42.56880569
v -142.37345886 44.60899353 42.56880569
v -144.85963440 44.91983032 42.16699982
v -144.86926270 44.75367737 42.56880569
v -142.37345886 44.60899353 42.56880569
v -144.86926270 44.75367737 42.56880569
v -142.37673950 44.55232239 43.00000000
v -142.37673950 44.55232239 43.00000000
v -144.86926270 44.75367737 42.56880569
v -144.87255859 44.69700241 43.00000000
v -142.37673950 44.55232239 43.00000000
v -144.87255859 44.69700241 43.00000000
v -142.37345886 44.60899353 43.43119431
v -142.37345886 44.60899353 43.43119431
v -144.87255859 44.69700241 43.00000000
v -144.86926270 44.75367737 43.43119431
v -142.37345886 44.60899353 43.43119431
v -144.86926270 44.75367737 43.43119431
v -142.36383057 44.77515030 43.83300018
v -142.36383057 44.77515030 43.83300018
v -144.86926270 44.75367737 43.43119431
v -144.85963440 44.91983032 43.83300018
v -142.36383057 44.77515030 43.83300018
v -144.85963440 44.91983032 43.83300018
v -142.34851074 45.03946304 44.17803955
v -142.34851074 45.03946304 44.17803955
v -144.85963440 44.91983032 43.83300018
v -144.84431458 45.18414688 44.17803955
v -142.34851074 45.03946304 44.17803955
v -144.84431458 45.18414688 44.17803955
v -142.32853699 45.38392639 44.44279861
v -142.32853699 45.38392639 44.44279861
v -144.84431458 45.18414688 44.17803955
v -144.82434082 45.52860641 44.44279861
v -142.32853699 45.38392639 44.44279861
v -144.82434082 45.52860641 44.44279861
v -142.30528259 45.78506088 44.60923386
v -142.30528259 45.78506088 44.60923386
v -144.82434082 45.52860641 44.44279861
v -144.80108643 45.92974091 44.60923386
v -142.30528259 45.78506088 44.60923386
v -144.80108643 45.92974091 44.60923386
v -142.28033447 46.21553040 44.66600037
v -142.28033447 46.21553040 44.66600037
v -144.80108643 45.92974091 44.60923386
v -144.77613831 46.36021042 44.66600037
v -142.28033447 46.21553040 44.66600037
v -144.77613831 46.36021042 44.66600037
v -142.25537109 46.64599991 44.60923386
v -142.25537109 46.64599991 44.60923386
v -144.77613831 46.36021042 44.66600037
v -144.75119019 46.79068375 44.60923386
v -142.25537109 46.64599991 44.60923386
v -144.75119019 46.79068375 44.60923386
v -142.23211670 47.04713440 44.44279861
v -142.23211670 47.04713440 44.44279861
v -144.75119019 46.79068375 44.60923386
v -144.72793579 47.19181442 44.44279861
v -142.23211670 47.04713440 44.44279861
v -144.72793579 47.19181442 44.44279861
v -142.21215820 47.39159393 44.17803955
v -142.21215820 47.39159393 44.17803955
v -144.72793579 47.19181442 44.44279861
v -144.70796204 47.53627777 44.17803955
v -142.21215820 47.39159393 44.17803955
v -144.70796204 47.53627777 44.17803955
v -142.19682312 47.65591049 43.83300018
v -142.19682312 47.65591049 43.83300018
v -144.70796204 47.53627777 44.17803955
v -144.69264221 47.80059052 43.83300018
v -142.19682312 47.65591049 43.83300018
v -144.69264221 47.80059052 43.83300018
v -142.18719482 47.82206345 43.43119431
v -142.18719482 47.82206345 43.43119431
v -144.69264221 47.80059052 43.83300018
v -144.68301392 47.96674728 43.43119431
v -142.18719482 47.82206345 43.43119431
v -144.68301392 47.96674728 43.43119431
v -142.18391418 47.87873840 43.00000000
v -142.18391418 47.87873840 43.00000000
v -144.68301392 47.96674728 43.43119431
v -144.67971802 48.02341843 43.00000000
v -142.18391418 47.87873840 43.00000000
v -144.67971802 48.02341843 43.00000000
v -142.18719482 47.82206345 42.56880569
v -142.18719482 47.82206345 42.56880569
v -144.67971802 48.02341843 43.00000000
v -144.68301392 47.96674728 42.56880569
v -142.18719482 47.82206345 42.56880569
v -144.68301392 47.96674728 42.56880569
v -142.19682312 47.65591049 42.16699982
v -142.19682312 47.65591049 42.16699982
v -144.68301392 47.96674728 42.56880569
v -144.69264221 47.80059052 42.16699982
v -142.19682312 47.65591049 42.16699982
v -144.69264221 47.80059052 42.16699982
v -142.21215820 47.39159393 41.82196045
v -142.21215820 47.39159393 41.82196045
v -144.69264221 47.80059052 42.16699982
v -144.70796204 47.53627777 41.82196045
v -142.21215820 47.39159393 41.82196045
v -144.70796204 47.53627777 41.82196045
v -142.23211670 47.04713440 41.55720139
v -142.23211670 47.04713440 41.55720139
v -144.70796204 47.53627777 41.82196045
v -144.72793579 47.19181442 41.55720139
v -142.23211670 47.04713440 41.55720139
v -144.72793579 47.19181442 41.55720139
v -142.25537109 46.64599991 41.39076614
v -142.25537109 46.64599991 41.39076614
v -144.72793579 47.19181442 41.55720139
v -144.75119019 46.79068375 41.39076614
v -140.23512268 107.41477203 62.00000000
v -141.29132080 106.47432709 62.00000000
v -140.29299927 106.41645050 63.00000000
v -126.25859070 106.60455322 62.00000000
v -140.23512268 107.41477203 62.00000000
v -127.31478882 105.66410828 63.00000000
v -127.31478882 105.66410828 63.00000000
v -140.23512268 107.41477203 62.00000000
v -140.29299927 106.41645050 63.00000000
v -127.31478882 105.66410828 63.00000000
v -131.73800659 29.36213493 63.00000000
v -126.25859070 106.60455322 62.00000000
v -126.25859070 106.60455322 62.00000000
v -131.73800659 29.36213493 63.00000000
v -130.79756165 28.30593872 62.00000000
v -145.71455383 30.17235374 62.00000000
v -144.77409363 29.11615753 62.00000000
v -144.71621704 30.11448097 63.00000000
v -144.71621704 30.11448097 63.00000000
v -144.77409363 29.11615753 62.00000000
v -131.73800659 29.36213493 63.00000000
v -131.73800659 29.36213493 63.00000000
v -144.77409363 29.11615753 62.00000000
v -130.79756165 28.30593872 62.00000000
v -166.88398743 79.69552612 62.00000000
v -167.94018555 78.75507355 62.00000000
v -166.94184875 78.69720459 63.00000000
v -145.71455383 30.17235374 62.00000000
v -144.71621704 30.11448097 63.00000000
v -144.08166504 58.34009933 62.00000000
v -144.08166504 58.34009933 62.00000000
v -144.71621704 30.11448097 63.00000000
v -143.02546692 59.28055191 63.00000000
v -168.98188782 60.78524399 62.00000000
v -168.04144287 59.72904587 62.00000000
v -167.98356628 60.72737122 63.00000000
v -143.02546692 59.28055191 63.00000000
v -167.98356628 60.72737122 63.00000000
v -144.08166504 58.34009933 62.00000000
v -144.08166504 58.34009933 62.00000000
v -167.98356628 60.72737122 63.00000000
v -168.04144287 59.72904587 62.00000000
v -167.98356628 60.72737122 63.00000000
v -166.94184875 78.69720459 63.00000000
v -168.98188782 60.78524399 62.00000000
v -168.98188782 60.78524399 62.00000000
v -166.94184875 78.69720459 63.00000000
v -167.94018555 78.75507355 62.00000000
v -168.98188782 60.78524399 38.00000000
v -168.04144287 59.72904587 38.00000000
v -168.98188782 60.78524399 62.00000000
v -168.98188782 60.78524399 62.00000000
v -168.04144287 59.72904587 38.00000000
v -168.04144287 59.72904587 62.00000000
v -166.88398743 79.69552612 62.00000000
v -166.94184875 78.69720459 63.00000000
v -142.92420959 78.30657959 62.00000000
v -142.92420959 78.30657959 62.00000000
v -166.94184875 78.69720459 63.00000000
v -141.98374939 77.25038147 63.00000000
v -166.88398743 79.69552612 38.00000000
v -167.94018555 78.75507355 38.00000000
v -166.88398743 79.69552612 62.00000000
v -166.88398743 79.69552612 62.00000000
v -167.94018555 78.75507355 38.00000000
v -167.94018555 78.75507355 62.00000000
v -145.71455383 30.17235374 38.00000000
v -144.77409363 29.11615753 38.00000000
v -145.71455383 30.17235374 62.00000000
v -145.71455383 30.17235374 62.00000000
v -144.77409363 29.11615753 38.00000000
v -144.77409363 29.11615753 62.00000000
v -141.98374939 77.25038147 63.00000000
v -140.29299927 106.41645050 63.00000000
v -142.92420959 78.30657959 62.00000000
v -142.92420959 78.30657959 62.00000000
v -140.29299927 106.41645050 63.00000000
v -141.29132080 106.47432709 62.00000000
v -140.23512268 107.41477203 38.00000000
v -141.29132080 106.47432709 38.00000000
v -140.23512268 107.41477203 62.00000000
v -140.23512268 107.41477203 62.00000000
v -141.29132080 106.47432709 38.00000000
v -141.29132080 106.47432709 62.00000000
v -144.80108643 45.92974091 44.60923386
v -145.71455383 30.17235374 62.00000000
v -144.77613831 46.36021042 44.66600037
v -144.77613831 46.36021042 44.66600037
v -145.71455383 30.17235374 62.00000000
v -144.08166504 58.34009933 62.00000000
v -144.77613831 46.36021042 44.66600037
v -144.08166504 58.34009933 62.00000000
v -144.75119019 46.79068375 44.60923386
v -144.75119019 46.79068375 44.60923386
v -144.08166504 58.34009933 62.00000000
v -144.72793579 47.19181442 44.44279861
v -144.72793579 47.19181442 44.44279861
v -144.08166504 58.34009933 62.00000000
v -144.70796204 47.53627777 44.17803955
v -144.70796204 47.53627777 44.17803955
v -144.08166504 58.34009933 62.00000000
v -144.69264221 47.80059052 43.83300018
v -144.69264221 47.80059052 43.83300018
v -144.08166504 58.34009933 62.00000000
v -144.08166504 58.34009933 38.00000000
v -144.69264221 47.80059052 43.83300018
v -144.08166504 58.34009933 38.00000000
v -144.68301392 47.96674728 43.43119431
v -144.68301392 47.96674728 43.43119431
v -144.08166504 58.34009933 38.00000000
v -144.67971802 48.02341843 43.00000000
v -144.67971802 48.02341843 43.00000000
v -144.08166504 58.34009933 38.00000000
v -144.68301392 47.96674728 42.56880569
v -144.68301392 47.96674728 42.56880569
v -144.08166504 58.34009933 38.00000000
v -144.69264221 47.80059052 42.16699982
v -144.69264221 47.80059052 42.16699982
v -144.08166504 58.34009933 38.00000000
v -144.70796204 47.53627777 41.82196045
v -144.70796204 47.53627777 41.82196045
v -144.08166504 58.34009933 38.00000000
v -144.72793579 47.19181442 41.55720139
v -144.72793579 47.19181442 41.55720139
v -144.08166504 58.34009933 38.00000000
v -144.75119019 46.79068375 41.39076614
v -144.75119019 46.79068375 41.39076614
v -144.08166504 58.34009933 38.00000000
v -144.77613831 46.36021042 41.33399963
v -144.77613831 46.36021042 41.33399963
v -144.08166504 58.34009933 38.00000000
v -145.71455383 30.17235374 38.00000000
v -144.77613831 46.36021042 41.33399963
v -145.71455383 30.17235374 38.00000000
v -144.80108643 45.92974091 41.39076614
v -144.80108643 45.92974091 41.39076614
v -145.71455383 30.17235374 38.00000000
v -144.82434082 45.52860641 41.55720139
v -144.82434082 45.52860641 41.55720139
v -145.71455383 30.17235374 38.00000000
v -144.84431458 45.18414688 41.82196045
v -144.84431458 45.18414688 41.82196045
v -145.71455383 30.17235374 38.00000000
v -144.85963440 44.91983032 42.16699982
v -144.85963440 44.91983032 42.16699982
v -145.71455383 30.17235374 38.00000000
v -144.86926270 44.75367737 42.56880569
v -144.86926270 44.75367737 42.56880569
v -145.71455383 30.17235374 38.00000000
v -144.87255859 44.69700241 43.00000000
v -144.87255859 44.69700241 43.00000000
v -145.71455383 30.17235374 38.00000000
v -144.86926270 44.75367737 43.43119431
v -144.86926270 44.75367737 43.43119431
v -145.71455383 30.17235374 38.00000000
v -144.85963440 44.91983032 43.83300018
v -144.85963440 44.91983032 43.83300018
v -145.71455383 30.17235374 38.00000000
v -145.71455383 30.17235374 62.00000000
v -144.85963440 44.91983032 43.83300018
v -145.71455383 30.17235374 62.00000000
v -144.84431458 45.18414688 44.17803955
v -144.84431458 45.18414688 44.17803955
v -145.71455383 30.17235374 62.00000000
v -144.82434082 45.52860641 44.44279861
v -144.82434082 45.52860641 44.44279861
v -145.71455383 30.17235374 62.00000000
v -144.80108643 45.92974091 44.60923386
v -144.08166504 58.34009933 62.00000000
v -168.04144287 59.72904587 62.00000000
v -144.08166504 58.34009933 38.00000000
v -144.08166504 58.34009933 38.00000000
v -168.04144287 59.72904587 62.00000000
v -168.04144287 59.72904587 38.00000000
v -168.98188782 60.78524399 62.00000000
v -167.94018555 78.75507355 62.00000000
v -168.98188782 60.78524399 38.00000000
v -168.98188782 60.78524399 38.00000000
v -167.94018555 78.75507355 62.00000000
v -167.94018555 78.75507355 38.00000000
v -166.88398743 79.69552612 62.00000000
v -142.92420959 78.30657959 62.00000000
v -166.88398743 79.69552612 38.00000000
v -166.88398743 79.69552612 38.00000000
v -142.92420959 78.30657959 62.00000000
v -142.92420959 78.30657959 38.00000000
v -142.11300659 39.45811844 63.00000000
v -143.02546692 59.28055191 63.00000000
v -142.19871521 38.98365021 63.00000000
v -142.19871521 38.98365021 63.00000000
v -143.02546692 59.28055191 63.00000000
v -144.71621704 30.11448097 63.00000000
v -142.19871521 38.98365021 63.00000000
v -144.71621704 30.11448097 63.00000000
v -142.16839600 38.50246048 63.00000000
v -142.16839600 38.50246048 63.00000000
v -144.71621704 30.11448097 63.00000000
v -142.02380371 38.04250336 63.00000000
v -142.02380371 38.04250336 63.00000000
v -144.71621704 30.11448097 63.00000000
v -141.77333069 37.63051987 63.00000000
v -141.77333069 37.63051987 63.00000000
v -144.71621704 30.11448097 63.00000000
v -141.43154907 37.29044724 63.00000000
v -141.43154907 37.29044724 63.00000000
v -144.71621704 30.11448097 63.00000000
v -141.01831055 37.04205322 63.00000000
v -141.01831055 37.04205322 63.00000000
v -144.71621704 30.11448097 63.00000000
v -140.55764771 36.89976883 63.00000000
v -140.55764771 36.89976883 63.00000000
v -144.71621704 30.11448097 63.00000000
v -140.07630920 36.87186432 63.00000000
v -140.07630920 36.87186432 63.00000000
v -144.71621704 30.11448097 63.00000000
v -139.60227966 36.95996475 63.00000000
v -139.60227966 36.95996475 63.00000000
v -144.71621704 30.11448097 63.00000000
v -131.73800659 29.36213493 63.00000000
v -139.60227966 36.95996475 63.00000000
v -131.73800659 29.36213493 63.00000000
v -139.16310120 37.15894699 63.00000000
v -139.16310120 37.15894699 63.00000000
v -131.73800659 29.36213493 63.00000000
v -138.78431702 37.45724487 63.00000000
v -138.78431702 37.45724487 63.00000000
v -131.73800659 29.36213493 63.00000000
v -138.48791504 37.83752823 63.00000000
v -138.48791504 37.83752823 63.00000000
v -131.73800659 29.36213493 63.00000000
v -138.29113770 38.27769470 63.00000000
v -138.29113770 38.27769470 63.00000000
v -131.73800659 29.36213493 63.00000000
v -138.20542908 38.75215912 63.00000000
v -138.20542908 38.75215912 63.00000000
v -131.73800659 29.36213493 63.00000000
v -138.23574829 39.23335266 63.00000000
v -138.23574829 39.23335266 63.00000000
v -131.73800659 29.36213493 63.00000000
v -138.38034058 39.69330597 63.00000000
v -138.38034058 39.69330597 63.00000000
v -131.73800659 29.36213493 63.00000000
v -135.10639954 96.16967010 63.00000000
v -138.38034058 39.69330597 63.00000000
v -135.10639954 96.16967010 63.00000000
v -143.02546692 59.28055191 63.00000000
v -143.02546692 59.28055191 63.00000000
v -135.10639954 96.16967010 63.00000000
v -141.98374939 77.25038147 63.00000000
v -143.02546692 59.28055191 63.00000000
v -141.98374939 77.25038147 63.00000000
v -166.94184875 78.69720459 63.00000000
v -142.11300659 39.45811844 63.00000000
v -141.91622925 39.89828110 63.00000000
v -143.02546692 59.28055191 63.00000000
v -143.02546692 59.28055191 63.00000000
v -141.91622925 39.89828110 63.00000000
v -141.61982727 40.27856445 63.00000000
v -143.02546692 59.28055191 63.00000000
v -141.61982727 40.27856445 63.00000000
v -141.24104309 40.57686615 63.00000000
v -141.24104309 40.57686615 63.00000000
v -140.80186462 40.77584839 63.00000000
v -143.02546692 59.28055191 63.00000000
v -143.02546692 59.28055191 63.00000000
v -140.80186462 40.77584839 63.00000000
v -140.32783508 40.86394882 63.00000000
v -143.02546692 59.28055191 63.00000000
v -140.32783508 40.86394882 63.00000000
v -139.84649658 40.83604431 63.00000000
v -139.84649658 40.83604431 63.00000000
v -139.38583374 40.69375992 63.00000000
v -143.02546692 59.28055191 63.00000000
v -143.02546692 59.28055191 63.00000000
v -139.38583374 40.69375992 63.00000000
v -138.97259521 40.44536209 63.00000000
v -143.02546692 59.28055191 63.00000000
v -138.97259521 40.44536209 63.00000000
v -138.63079834 40.10529327 63.00000000
v -138.63079834 40.10529327 63.00000000
v -138.38034058 39.69330597 63.00000000
v -143.02546692 59.28055191 63.00000000
v -138.73149109 97.79025269 63.00000000
v -140.29299927 106.41645050 63.00000000
v -138.81719971 97.31578827 63.00000000
v -138.81719971 97.31578827 63.00000000
v -140.29299927 106.41645050 63.00000000
v -141.98374939 77.25038147 63.00000000
v -138.81719971 97.31578827 63.00000000
v -141.98374939 77.25038147 63.00000000
v -138.78688049 96.83459473 63.00000000
v -138.78688049 96.83459473 63.00000000
v -141.98374939 77.25038147 63.00000000
v -138.64228821 96.37464142 63.00000000
v -138.64228821 96.37464142 63.00000000
v -141.98374939 77.25038147 63.00000000
v -138.39183044 95.96266174 63.00000000
v -138.39183044 95.96266174 63.00000000
v -141.98374939 77.25038147 63.00000000
v -138.05003357 95.62258911 63.00000000
v -138.05003357 95.62258911 63.00000000
v -141.98374939 77.25038147 63.00000000
v -137.63681030 95.37419128 63.00000000
v -137.63681030 95.37419128 63.00000000
v -141.98374939 77.25038147 63.00000000
v -137.17613220 95.23190308 63.00000000
v -137.17613220 95.23190308 63.00000000
v -141.98374939 77.25038147 63.00000000
v -136.69479370 95.20400238 63.00000000
v -136.69479370 95.20400238 63.00000000
v -141.98374939 77.25038147 63.00000000
v -136.22076416 95.29209900 63.00000000
v -136.22076416 95.29209900 63.00000000
v -141.98374939 77.25038147 63.00000000
v -135.78158569 95.49108124 63.00000000
v -135.78158569 95.49108124 63.00000000
v -141.98374939 77.25038147 63.00000000
v -135.40280151 95.78938293 63.00000000
v -135.40280151 95.78938293 63.00000000
v -141.98374939 77.25038147 63.00000000
v -135.10639954 96.16967010 63.00000000
v -138.73149109 97.79025269 63.00000000
v -138.53471375 98.23042297 63.00000000
v -140.29299927 106.41645050 63.00000000
v -140.29299927 106.41645050 63.00000000
v -138.53471375 98.23042297 63.00000000
v -138.23831177 98.61070251 63.00000000
v -140.29299927 106.41645050 63.00000000
v -138.23831177 98.61070251 63.00000000
v -137.85952759 98.90900421 63.00000000
v -137.85952759 98.90900421 63.00000000
v -137.42034912 99.10798645 63.00000000
v -140.29299927 106.41645050 63.00000000
v -140.29299927 106.41645050 63.00000000
v -137.42034912 99.10798645 63.00000000
v -136.94631958 99.19608307 63.00000000
v -140.29299927 106.41645050 63.00000000
v -136.94631958 99.19608307 63.00000000
v -136.46498108 99.16818237 63.00000000
v -136.46498108 99.16818237 63.00000000
v -136.00431824 99.02590179 63.00000000
v -140.29299927 106.41645050 63.00000000
v -140.29299927 106.41645050 63.00000000
v -136.00431824 99.02590179 63.00000000
v -127.31478882 105.66410828 63.00000000
v -127.31478882 105.66410828 63.00000000
v -136.00431824 99.02590179 63.00000000
v -135.59107971 98.77750397 63.00000000
v -127.31478882 105.66410828 63.00000000
v -135.59107971 98.77750397 63.00000000
v -135.24929810 98.43743134 63.00000000
v -135.24929810 98.43743134 63.00000000
v -134.99882507 98.02544403 63.00000000
v -127.31478882 105.66410828 63.00000000
v -127.31478882 105.66410828 63.00000000
v -134.99882507 98.02544403 63.00000000
v -134.85423279 97.56549072 63.00000000
v -127.31478882 105.66410828 63.00000000
v -134.85423279 97.56549072 63.00000000
v -134.82391357 97.08429718 63.00000000
v -134.82391357 97.08429718 63.00000000
v -134.90962219 96.60983276 63.00000000
v -127.31478882 105.66410828 63.00000000
v -127.31478882 105.66410828 63.00000000
v -134.90962219 96.60983276 63.00000000
v -135.10639954 96.16967010 63.00000000
v -127.31478882 105.66410828 63.00000000
v -135.10639954 96.16967010 63.00000000
v -131.73800659 29.36213493 63.00000000
v -166.94184875 78.69720459 63.00000000
v -167.98356628 60.72737122 63.00000000
v -143.02546692 59.28055191 63.00000000
v -142.11735535 92.22509766 42.52136993
v -142.11398315 92.28311157 43.00000000
v -141.29132080 106.47432709 38.00000000
v -141.29132080 106.47432709 38.00000000
v -142.11398315 92.28311157 43.00000000
v -142.11735535 92.22509766 43.47863007
v -141.29132080 106.47432709 38.00000000
v -142.11735535 92.22509766 43.47863007
v -142.12724304 92.05441284 43.92944717
v -141.29132080 106.47432709 38.00000000
v -142.12724304 92.05441284 43.92944717
v -141.29132080 106.47432709 62.00000000
v -141.29132080 106.47432709 62.00000000
v -142.12724304 92.05441284 43.92944717
v -142.14309692 91.78097534 44.32624435
v -141.29132080 106.47432709 62.00000000
v -142.14309692 91.78097534 44.32624435
v -142.16398621 91.42069244 44.64596939
v -142.16398621 91.42069244 44.64596939
v -142.18869019 90.99448395 44.87003326
v -141.29132080 106.47432709 62.00000000
v -141.29132080 106.47432709 62.00000000
v -142.18869019 90.99448395 44.87003326
v -142.21577454 90.52713776 44.98541641
v -141.29132080 106.47432709 62.00000000
v -142.21577454 90.52713776 44.98541641
v -142.92420959 78.30657959 62.00000000
v -142.92420959 78.30657959 62.00000000
v -142.21577454 90.52713776 44.98541641
v -142.24368286 90.04579926 44.98541641
v -142.92420959 78.30657959 62.00000000
v -142.24368286 90.04579926 44.98541641
v -142.27078247 89.57844543 44.87003326
v -142.27078247 89.57844543 44.87003326
v -142.29548645 89.15224457 44.64596939
v -142.92420959 78.30657959 62.00000000
v -142.92420959 78.30657959 62.00000000
v -142.29548645 89.15224457 44.64596939
v -142.31637573 88.79195404 44.32624435
v -142.92420959 78.30657959 62.00000000
v -142.31637573 88.79195404 44.32624435
v -142.33221436 88.51852417 43.92944717
v -142.92420959 78.30657959 62.00000000
v -142.33221436 88.51852417 43.92944717
v -142.92420959 78.30657959 38.00000000
v -142.92420959 78.30657959 38.00000000
v -142.33221436 88.51852417 43.92944717
v -142.34211731 88.34783936 43.47863007
v -142.92420959 78.30657959 38.00000000
v -142.34211731 88.34783936 43.47863007
v -142.34547424 88.28981781 43.00000000
v -142.34547424 88.28981781 43.00000000
v -142.34211731 88.34783936 42.52136993
v -142.92420959 78.30657959 38.00000000
v -142.92420959 78.30657959 38.00000000
v -142.34211731 88.34783936 42.52136993
v -142.33221436 88.51852417 42.07055283
v -142.92420959 78.30657959 38.00000000
v -142.33221436 88.51852417 42.07055283
v -142.31637573 88.79195404 41.67375565
v -142.31637573 88.79195404 41.67375565
v -142.29548645 89.15224457 41.35403061
v -142.92420959 78.30657959 38.00000000
v -142.92420959 78.30657959 38.00000000
v -142.29548645 89.15224457 41.35403061
v -142.27078247 89.57844543 41.12996674
v -142.92420959 78.30657959 38.00000000
v -142.27078247 89.57844543 41.12996674
v -142.24368286 90.04579926 41.01458359
v -142.24368286 90.04579926 41.01458359
v -142.21577454 90.52713776 41.01458359
v -142.92420959 78.30657959 38.00000000
v -142.92420959 78.30657959 38.00000000
v -142.21577454 90.52713776 41.01458359
v -141.29132080 106.47432709 38.00000000
v -141.29132080 106.47432709 38.00000000
v -142.21577454 90.52713776 41.01458359
v -142.18869019 90.99448395 41.12996674
v -141.29132080 106.47432709 38.00000000
v -142.18869019 90.99448395 41.12996674
v -142.16398621 91.42069244 41.35403061
v -142.16398621 91.42069244 41.35403061
v -142.14309692 91.78097534 41.67375565
v -141.29132080 106.47432709 38.00000000
v -141.29132080 106.47432709 38.00000000
v -142.14309692 91.78097534 41.67375565
v -142.12724304 92.05441284 42.07055283
v -141.29132080 106.47432709 38.00000000
v -142.12724304 92.05441284 42.07055283
v -142.11735535 92.22509766 42.52136993
v -140.23512268 107.41477203 38.00000000
v -140.23512268 107.41477203 62.00000000
v -138.73764038 107.32796478 58.00000000
v -138.73764038 107.32796478 58.00000000
v -140.23512268 107.41477203 62.00000000
v -126.25859070 106.60455322 62.00000000
v -138.73764038 107.32796478 58.00000000
v -126.25859070 106.60455322 62.00000000
v -126.25859070 106.60455322 58.00000000
v -138.73764038 107.32796478 58.00000000
v -138.73764038 107.32796478 38.00000000
v -140.23512268 107.41477203 38.00000000
v -126.25859070 106.60455322 62.00000000
v -130.79756165 28.30593872 62.00000000
v -126.25859070 106.60455322 58.00000000
v -126.25859070 106.60455322 58.00000000
v -130.79756165 28.30593872 62.00000000
v -130.79756165 28.30593872 58.00000000
v -142.16839600 38.50246048 58.00000000
v -143.27661133 29.02934837 58.00000000
v -142.19871521 38.98365021 58.00000000
v -142.19871521 38.98365021 58.00000000
v -143.27661133 29.02934837 58.00000000
v -138.81719971 97.31578827 58.00000000
v -142.19871521 38.98365021 58.00000000
v -138.81719971 97.31578827 58.00000000
v -138.78688049 96.83459473 58.00000000
v -142.16839600 38.50246048 58.00000000
v -142.02380371 38.04250336 58.00000000
v -143.27661133 29.02934837 58.00000000
v -143.27661133 29.02934837 58.00000000
v -142.02380371 38.04250336 58.00000000
v -141.77333069 37.63051987 58.00000000
v -143.27661133 29.02934837 58.00000000
v -141.77333069 37.63051987 58.00000000
v -141.43154907 37.29044724 58.00000000
v -141.43154907 37.29044724 58.00000000
v -141.01831055 37.04205322 58.00000000
v -143.27661133 29.02934837 58.00000000
v -143.27661133 29.02934837 58.00000000
v -141.01831055 37.04205322 58.00000000
v -140.55764771 36.89976883 58.00000000
v -143.27661133 29.02934837 58.00000000
v -140.55764771 36.89976883 58.00000000
v -140.07630920 36.87186432 58.00000000
v -140.07630920 36.87186432 58.00000000
v -139.60227966 36.95996475 58.00000000
v -143.27661133 29.02934837 58.00000000
v -143.27661133 29.02934837 58.00000000
v -139.60227966 36.95996475 58.00000000
v -139.16310120 37.15894699 58.00000000
v -143.27661133 29.02934837 58.00000000
v -139.16310120 37.15894699 58.00000000
v -138.78431702 37.45724487 58.00000000
v -143.27661133 29.02934837 58.00000000
v -138.78431702 37.45724487 58.00000000
v -130.79756165 28.30593872 58.00000000
v -130.79756165 28.30593872 58.00000000
v -138.78431702 37.45724487 58.00000000
v -138.48791504 37.83752823 58.00000000
v -130.79756165 28.30593872 58.00000000
v -138.48791504 37.83752823 58.00000000
v -138.29113770 38.27769470 58.00000000
v -138.29113770 38.27769470 58.00000000
v -138.20542908 38.75215912 58.00000000
v -130.79756165 28.30593872 58.00000000
v -130.79756165 28.30593872 58.00000000
v -138.20542908 38.75215912 58.00000000
v -138.23574829 39.23335266 58.00000000
v -130.79756165 28.30593872 58.00000000
v -138.23574829 39.23335266 58.00000000
v -134.90962219 96.60983276 58.00000000
v -134.90962219 96.60983276 58.00000000
v -138.23574829 39.23335266 58.00000000
v -138.38034058 39.69330597 58.00000000
v -134.90962219 96.60983276 58.00000000
v -138.38034058 39.69330597 58.00000000
v -135.10639954 96.16967010 58.00000000
v -135.10639954 96.16967010 58.00000000
v -138.38034058 39.69330597 58.00000000
v -138.63079834 40.10529327 58.00000000
v -135.10639954 96.16967010 58.00000000
v -138.63079834 40.10529327 58.00000000
v -135.40280151 95.78938293 58.00000000
v -135.40280151 95.78938293 58.00000000
v -138.63079834 40.10529327 58.00000000
v -135.78158569 95.49108124 58.00000000
v -135.78158569 95.49108124 58.00000000
v -138.63079834 40.10529327 58.00000000
v -138.97259521 40.44536209 58.00000000
v -135.78158569 95.49108124 58.00000000
v -138.97259521 40.44536209 58.00000000
v -136.22076416 95.29209900 58.00000000
v -136.22076416 95.29209900 58.00000000
v -138.97259521 40.44536209 58.00000000
v -139.38583374 40.69375992 58.00000000
v -136.22076416 95.29209900 58.00000000
v -139.38583374 40.69375992 58.00000000
v -136.69479370 95.20400238 58.00000000
v -136.69479370 95.20400238 58.00000000
v -139.38583374 40.69375992 58.00000000
v -139.84649658 40.83604431 58.00000000
v -136.69479370 95.20400238 58.00000000
v -139.84649658 40.83604431 58.00000000
v -140.32783508 40.86394882 58.00000000
v -136.69479370 95.20400238 58.00000000
v -140.32783508 40.86394882 58.00000000
v -137.17613220 95.23190308 58.00000000
v -137.17613220 95.23190308 58.00000000
v -140.32783508 40.86394882 58.00000000
v -140.80186462 40.77584839 58.00000000
v -137.17613220 95.23190308 58.00000000
v -140.80186462 40.77584839 58.00000000
v -137.63681030 95.37419128 58.00000000
v -137.63681030 95.37419128 58.00000000
v -140.80186462 40.77584839 58.00000000
v -141.24104309 40.57686615 58.00000000
v -137.63681030 95.37419128 58.00000000
v -141.24104309 40.57686615 58.00000000
v -138.05003357 95.62258911 58.00000000
v -138.05003357 95.62258911 58.00000000
v -141.24104309 40.57686615 58.00000000
v -141.61982727 40.27856445 58.00000000
v -138.05003357 95.62258911 58.00000000
v -141.61982727 40.27856445 58.00000000
v -138.39183044 95.96266174 58.00000000
v -138.39183044 95.96266174 58.00000000
v -141.61982727 40.27856445 58.00000000
v -141.91622925 39.89828110 58.00000000
v -138.39183044 95.96266174 58.00000000
v -141.91622925 39.89828110 58.00000000
v -138.64228821 96.37464142 58.00000000
v -138.64228821 96.37464142 58.00000000
v -141.91622925 39.89828110 58.00000000
v -142.11300659 39.45811844 58.00000000
v -138.64228821 96.37464142 58.00000000
v -142.11300659 39.45811844 58.00000000
v -138.78688049 96.83459473 58.00000000
v -138.78688049 96.83459473 58.00000000
v -142.11300659 39.45811844 58.00000000
v -142.19871521 38.98365021 58.00000000
v -130.79756165 28.30593872 58.00000000
v -134.90962219 96.60983276 58.00000000
v -126.25859070 106.60455322 58.00000000
v -126.25859070 106.60455322 58.00000000
v -134.90962219 96.60983276 58.00000000
v -134.82391357 97.08429718 58.00000000
v -126.25859070 106.60455322 58.00000000
v -134.82391357 97.08429718 58.00000000
v -134.85423279 97.56549072 58.00000000
v -134.85423279 97.56549072 58.00000000
v -134.99882507 98.02544403 58.00000000
v -126.25859070 106.60455322 58.00000000
v -126.25859070 106.60455322 58.00000000
v -134.99882507 98.02544403 58.00000000
v -135.24929810 98.43743134 58.00000000
v -126.25859070 106.60455322 58.00000000
v -135.24929810 98.43743134 58.00000000
v -138.73764038 107.32796478 58.00000000
v -138.73764038 107.32796478 58.00000000
v -135.24929810 98.43743134 58.00000000
v -135.59107971 98.77750397 58.00000000
v -138.73764038 107.32796478 58.00000000
v -135.59107971 98.77750397 58.00000000
v -136.00431824 99.02590179 58.00000000
v -136.00431824 99.02590179 58.00000000
v -136.46498108 99.16818237 58.00000000
v -138.73764038 107.32796478 58.00000000
v -138.73764038 107.32796478 58.00000000
v -136.46498108 99.16818237 58.00000000
v -136.94631958 99.19608307 58.00000000
v -138.73764038 107.32796478 58.00000000
v -136.94631958 99.19608307 58.00000000
v -137.42034912 99.10798645 58.00000000
v -137.42034912 99.10798645 58.00000000
v -137.85952759 98.90900421 58.00000000
v -138.73764038 107.32796478 58.00000000
v -138.73764038 107.32796478 58.00000000
v -137.85952759 98.90900421 58.00000000
v -138.23831177 98.61070251 58.00000000
v -138.73764038 107.32796478 58.00000000
v -138.23831177 98.61070251 58.00000000
v -138.53471375 98.23042297 58.00000000
v -138.53471375 98.23042297 58.00000000
v -138.73149109 97.79025269 58.00000000
v -138.73764038 107.32796478 58.00000000
v -138.73764038 107.32796478 58.00000000
v -138.73149109 97.79025269 58.00000000
v -138.81719971 97.31578827 58.00000000
v -138.73764038 107.32796478 58.00000000
v -138.81719971 97.31578827 58.00000000
v -143.27661133 29.02934837 58.00000000
v -130.79756165 28.30593872 62.00000000
v -144.77409363 29.11615753 62.00000000
v -143.27661133 29.02934837 58.00000000
v -143.27661133 29.02934837 58.00000000
v -144.77409363 29.11615753 62.00000000
v -144.77409363 29.11615753 38.00000000
v -143.27661133 29.02934837 58.00000000
v -144.77409363 29.11615753 38.00000000
v -143.27661133 29.02934837 38.00000000
v -143.27661133 29.02934837 58.00000000
v -130.79756165 28.30593872 58.00000000
v -130.79756165 28.30593872 62.00000000
v -139.62153625 92.08041382 43.47863007
v -139.61817932 92.13843536 43.00000000
v -138.73764038 107.32796478 38.00000000
v -138.73764038 107.32796478 38.00000000
v -139.61817932 92.13843536 43.00000000
v -139.62153625 92.08041382 42.52136993
v -138.73764038 107.32796478 38.00000000
v -139.62153625 92.08041382 42.52136993
v -139.63143921 91.90972900 42.07055283
v -139.63143921 91.90972900 42.07055283
v -139.64729309 91.63629913 41.67375565
v -138.73764038 107.32796478 38.00000000
v -138.73764038 107.32796478 38.00000000
v -139.64729309 91.63629913 41.67375565
v -139.66816711 91.27600861 41.35403061
v -138.73764038 107.32796478 38.00000000
v -139.66816711 91.27600861 41.35403061
v -139.69288635 90.84980774 41.12996674
v -139.69288635 90.84980774 41.12996674
v -139.71997070 90.38245392 41.01458359
v -138.73764038 107.32796478 38.00000000
v -138.73764038 107.32796478 38.00000000
v -139.71997070 90.38245392 41.01458359
v -139.74787903 89.90111542 41.01458359
v -138.73764038 107.32796478 38.00000000
v -139.74787903 89.90111542 41.01458359
v -143.27661133 29.02934837 38.00000000
v -143.27661133 29.02934837 38.00000000
v -139.74787903 89.90111542 41.01458359
v -142.28033447 46.21553040 41.33399963
v -143.27661133 29.02934837 38.00000000
v -142.28033447 46.21553040 41.33399963
v -142.30528259 45.78506088 41.39076614
v -142.28033447 46.21553040 41.33399963
v -139.74787903 89.90111542 41.01458359
v -142.25537109 46.64599991 41.39076614
v -142.25537109 46.64599991 41.39076614
v -139.74787903 89.90111542 41.01458359
v -139.77496338 89.43376160 41.12996674
v -142.25537109 46.64599991 41.39076614
v -139.77496338 89.43376160 41.12996674
v -142.23211670 47.04713440 41.55720139
v -142.23211670 47.04713440 41.55720139
v -139.77496338 89.43376160 41.12996674
v -139.79966736 89.00756073 41.35403061
v -142.23211670 47.04713440 41.55720139
v -139.79966736 89.00756073 41.35403061
v -142.21215820 47.39159393 41.82196045
v -142.21215820 47.39159393 41.82196045
v -139.79966736 89.00756073 41.35403061
v -139.82055664 88.64727020 41.67375565
v -142.21215820 47.39159393 41.82196045
v -139.82055664 88.64727020 41.67375565
v -139.83641052 88.37384033 42.07055283
v -142.21215820 47.39159393 41.82196045
v -139.83641052 88.37384033 42.07055283
v -142.19682312 47.65591049 42.16699982
v -142.19682312 47.65591049 42.16699982
v -139.83641052 88.37384033 42.07055283
v -139.84629822 88.20315552 42.52136993
v -142.19682312 47.65591049 42.16699982
v -139.84629822 88.20315552 42.52136993
v -142.18719482 47.82206345 42.56880569
v -142.18719482 47.82206345 42.56880569
v -139.84629822 88.20315552 42.52136993
v -139.84967041 88.14513397 43.00000000
v -142.18719482 47.82206345 42.56880569
v -139.84967041 88.14513397 43.00000000
v -142.18391418 47.87873840 43.00000000
v -142.18391418 47.87873840 43.00000000
v -139.84967041 88.14513397 43.00000000
v -142.18719482 47.82206345 43.43119431
v -142.18719482 47.82206345 43.43119431
v -139.84967041 88.14513397 43.00000000
v -139.84629822 88.20315552 43.47863007
v -142.18719482 47.82206345 43.43119431
v -139.84629822 88.20315552 43.47863007
v -142.19682312 47.65591049 43.83300018
v -142.19682312 47.65591049 43.83300018
v -139.84629822 88.20315552 43.47863007
v -139.83641052 88.37384033 43.92944717
v -142.19682312 47.65591049 43.83300018
v -139.83641052 88.37384033 43.92944717
v -142.21215820 47.39159393 44.17803955
v -142.21215820 47.39159393 44.17803955
v -139.83641052 88.37384033 43.92944717
v -139.82055664 88.64727020 44.32624435
v -142.21215820 47.39159393 44.17803955
v -139.82055664 88.64727020 44.32624435
v -139.79966736 89.00756073 44.64596939
v -142.21215820 47.39159393 44.17803955
v -139.79966736 89.00756073 44.64596939
v -142.23211670 47.04713440 44.44279861
v -142.23211670 47.04713440 44.44279861
v -139.79966736 89.00756073 44.64596939
v -139.77496338 89.43376160 44.87003326
v -142.23211670 47.04713440 44.44279861
v -139.77496338 89.43376160 44.87003326
v -142.25537109 46.64599991 44.60923386
v -142.25537109 46.64599991 44.60923386
v -139.77496338 89.43376160 44.87003326
v -139.74787903 89.90111542 44.98541641
v -142.25537109 46.64599991 44.60923386
v -139.74787903 89.90111542 44.98541641
v -143.27661133 29.02934837 58.00000000
v -143.27661133 29.02934837 58.00000000
v -139.74787903 89.90111542 44.98541641
v -138.73764038 107.32796478 58.00000000
v -138.73764038 107.32796478 58.00000000
v -139.74787903 89.90111542 44.98541641
v -139.71997070 90.38245392 44.98541641
v -138.73764038 107.32796478 58.00000000
v -139.71997070 90.38245392 44.98541641
v -139.69288635 90.84980774 44.87003326
v -139.69288635 90.84980774 44.87003326
v -139.66816711 91.27600861 44.64596939
v -138.73764038 107.32796478 58.00000000
v -138.73764038 107.32796478 58.00000000
v -139.66816711 91.27600861 44.64596939
v -139.64729309 91.63629913 44.32624435
v -138.73764038 107.32796478 58.00000000
v -139.64729309 91.63629913 44.32624435
v -138.73764038 107.32796478 38.00000000
v -138.73764038 107.32796478 38.00000000
v -139.64729309 91.63629913 44.32624435
v -139.63143921 91.90972900 43.92944717
v -138.73764038 107.32796478 38.00000000
v -139.63143921 91.90972900 43.92944717
v -139.62153625 92.08041382 43.47863007
v -142.30528259 45.78506088 41.39076614
v -142.32853699 45.38392639 41.55720139
v -143.27661133 29.02934837 38.00000000
v -143.27661133 29.02934837 38.00000000
v -142.32853699 45.38392639 41.55720139
v -142.34851074 45.03946304 41.82196045
v -143.27661133 29.02934837 38.00000000
v -142.34851074 45.03946304 41.82196045
v -142.36383057 44.77515030 42.16699982
v -142.36383057 44.77515030 42.16699982
v -142.37345886 44.60899353 42.56880569
v -143.27661133 29.02934837 38.00000000
v -143.27661133 29.02934837 38.00000000
v -142.37345886 44.60899353 42.56880569
v -142.37673950 44.55232239 43.00000000
v -143.27661133 29.02934837 38.00000000
v -142.37673950 44.55232239 43.00000000
v -142.37345886 44.60899353 43.43119431
v -142.37345886 44.60899353 43.43119431
v -142.36383057 44.77515030 43.83300018
v -143.27661133 29.02934837 38.00000000
v -143.27661133 29.02934837 38.00000000
v -142.36383057 44.77515030 43.83300018
v -142.34851074 45.03946304 44.17803955
v -143.27661133 29.02934837 38.00000000
v -142.34851074 45.03946304 44.17803955
v -143.27661133 29.02934837 58.00000000
v -143.27661133 29.02934837 58.00000000
v -142.34851074 45.03946304 44.17803955
v -142.32853699 45.38392639 44.44279861
v -143.27661133 29.02934837 58.00000000
v -142.32853699 45.38392639 44.44279861
v -142.30528259 45.78506088 44.60923386
v -142.30528259 45.78506088 44.60923386
v -142.28033447 46.21553040 44.66600037
v -143.27661133 29.02934837 58.00000000
v -143.27661133 29.02934837 58.00000000
v -142.28033447 46.21553040 44.66600037
v -142.25537109 46.64599991 44.60923386
v -144.77409363 29.11615753 38.00000000
v -145.71455383 30.17235374 38.00000000
v -143.27661133 29.02934837 38.00000000
v -143.27661133 29.02934837 38.00000000
v -145.71455383 30.17235374 38.00000000
v -144.08166504 58.34009933 38.00000000
v -143.27661133 29.02934837 38.00000000
v -144.08166504 58.34009933 38.00000000
v -142.92420959 78.30657959 38.00000000
v -142.92420959 78.30657959 38.00000000
v -144.08166504 58.34009933 38.00000000
v -166.88398743 79.69552612 38.00000000
v -166.88398743 79.69552612 38.00000000
v -144.08166504 58.34009933 38.00000000
v -168.04144287 59.72904587 38.00000000
v -166.88398743 79.69552612 38.00000000
v -168.04144287 59.72904587 38.00000000
v -167.94018555 78.75507355 38.00000000
v -167.94018555 78.75507355 38.00000000
v -168.04144287 59.72904587 38.00000000
v -168.98188782 60.78524399 38.00000000
v -143.27661133 29.02934837 38.00000000
v -142.92420959 78.30657959 38.00000000
v -138.73764038 107.32796478 38.00000000
v -138.73764038 107.32796478 38.00000000
v -142.92420959 78.30657959 38.00000000
v -141.29132080 106.47432709 38.00000000
v -138.73764038 107.32796478 38.00000000
v -141.29132080 106.47432709 38.00000000
v -140.23512268 107.41477203 38.00000000
f 1 2 3
f 4 5 6
f 7 8 9
f 10 11 12
f 13 14 15
f 16 17 18
f 19 20 21
f 22 23 24
f 25 26 27
f 28 29 30
f 31 32 33
f 34 35 36
f 37 38 39
f 40 41 42
f 43 44 45
f 46 47 48
f 49 50 51
f 52 53 54
f 55 56 57
f 58 59 60
f 61 62 63
f 64 65 66
f 67 68 69
f 70 71 72
f 73 74 75
f 76 77 78
f 79 80 81
f 82 83 84
f 85 86 87
f 88 89 90
f 91 92 93
f 94 95 96
f 97 98 99
f 100 101 102
f 103 104 105
f 106 107 108
f 109 110 111
f 112 113 114
f 115 116 117
f 118 119 120
f 121 122 123
f 124 125 126
f 127 128 129
f 130 131 132
f 133 134 135
f 136 137 138
f 139 140 141
f 142 143 144
f 145 146 147
f 148 149 150
f 151 152 153
f 154 155 156
f 157 158 159
f 160 161 162
f 163 164 165
f 166 167 168
f 169 170 171
f 172 173 174
f 175 176 177
f 178 179 180
f 181 182 183
f 184 185 186
f 187 188 189
f 190 191 192
f 193 194 195
f 196 197 198
f 199 200 201
f 202 203 204
f 205 206 207
f 208 209 210
f 211 212 213
f 214 215 216
f 217 218 219
f 220 221 222
f 223 224 225
f 226 227 228
f 229 230 231
f 232 233 234
f 235 236 237
f 238 239 240
f 241 242 243
f 244 245 246
f 247 248 249
f 250 251 252
f 253 254 255
f 256 257 258
f 259 260 261
f 262 263 264
f 265 266 267
f 268 269 270
f 271 272 273
f 274 275 276
f 277 278 279
f 280 281 282
f 283 284 285
f 286 287 288
f 289 290 291
f 292 293 294
f 295 296 297
f 298 299 300
f 301 302 303
f 304 305 306
f 307 308 309
f 310 311 312
f 313 314 315
f 316 317 318
f 319 320 321
f 322 323 324
f 325 326 327
f 328 329 330
f 331 332 333
f 334 335 336
f 337 338 339
f 340 341 342
f 343 344 345
f 346 347 348
f 349 350 351
f 352 353 354
f 355 356 357
f 358 359 360
f 361 362 363
f 364 365 366
f 367 368 369
f 370 371 372
f 373 374 375
f 376 377 378
f 379 380 381
f 382 383 384
f 385 386 387
f 388 389 390
f 391 392 393
f 394 395 396
f 397 398 399
f 400 401 402
f 403 404 405
f 406 407 408
f 409 410 411
f 412 413 414
f 415 416 417
f 418 419 420
f 421 422 423
f 424 425 426
f 427 428 429
f 430 431 432
f 433 434 435
f 436 437 438
f 439 440 441
f 442 443 444
f 445 446 447
f 448 449 450
f 451 452 453
f 454 455 456
f 457 458 459
f 460 461 462
f 463 464 465
f 466 467 468
f 469 470 471
f 472 473 474
f 475 476 477
f 478 479 480
f 481 482 483
f 484 485 486
f 487 488 489
f 490 491 492
f 493 494 495
f 496 497 498
f 499 500 501
f 502 503 504
f 505 506 507
f 508 509 510
f 511 512 513
f 514 515 516
f 517 518 519
f 520 521 522
f 523 524 525
f 526 527 528
f 529 530 531
f 532 533 534
f 535 536 537
f 538 539 540
f 541 542 543
f 544 545 546
f 547 548 549
f 550 551 552
f 553 554 555
f 556 557 558
f 559 560 561
f 562 563 564
f 565 566 567
f 568 569 570
f 571 572 573
f 574 575 576
f 577 578 579
f 580 581 582
f 583 584 585
f 586 587 588
f 589 590 591
f 592 593 594
f 595 596 597
f 598 599 600
f 601 602 603
f 604 605 606
f 607 608 609
f 610 611 612
f 613 614 615
f 616 617 618
f 619 620 621
f 622 623 624
f 625 626 627
f 628 629 630
f 631 632 633
f 634 635 636
f 637 638 639
f 640 641 642
f 643 644 645
f 646 647 648
f 649 650 651
f 652 653 654
f 655 656 657
f 658 659 660
f 661 662 663
f 664 665 666
f 667 668 669
f 670 671 672
f 673 674 675
f 676 677 678
f 679 680 681
f 682 683 684
f 685 686 687
f 688 689 690
f 691 692 693
f 694 695 696
f 697 698 699
f 700 701 702
f 703 704 705
f 706 707 708
f 709 710 711
f 712 713 714
f 715 716 717
f 718 719 720
f 721 722 723
f 724 725 726
f 727 728 729
f 730 731 732
f 733 734 735
f 736 737 738
f 739 740 741
f 742 743 744
f 745 746 747
f 748 749 750
f 751 752 753
f 754 755 756
f 757 758 759
f 760 761 762
f 763 764 765
f 766 767 768
f 769 770 771
f 772 773 774
f 775 776 777
f 778 779 780
f 781 782 783
f 784 785 786
f 787 788 789
f 790 791 792
f 793 794 795
f 796 797 798
f 799 800 801
f 802 803 804
f 805 806 807
f 808 809 810
f 811 812 813
f 814 815 816
f 817 818 819
f 820 821 822
f 823 824 825
f 826 827 828
f 829 830 831
f 832 833 834
f 835 836 837
f 838 839 840
f 841 842 843
f 844 845 846
f 847 848 849
f 850 851 852
f 853 854 855
f 856 857 858
f 859 860 861
f 862 863 864
f 865 866 867
f 868 869 870
f 871 872 873
f 874 875 876
f 877 878 879
f 880 881 882
f 883 884 885
f 886 887 888
f 889 890 891
f 892 893 894
f 895 896 897
f 898 899 900
f 901 902 903
f 904 905 906
f 907 908 909
f 910 911 912
f 913 914 915
f 916 917 918
f 919 920 921
f 922 923 924
f 925 926 927
f 928 929 930
f 931 932 933
f 934 935 936
f 937 938 939
f 940 941 942
f 943 944 945
f 946 947 948
f 949 950 951
f 952 953 954
f 955 956 957
f 958 959 960
f 961 962 963
f 964 965 966
f 967 968 969
f 970 971 972
f 973 974 975
f 976 977 978
f 979 980 981
f 982 983 984
f 985 986 987
f 988 989 990
f 991 992 993
f 994 995 996
f 997 998 999
f 1000 1001 1002
f 1003 1004 1005
f 1006 1007 1008
f 1009 1010 1011
f 1012 1013 1014
f 1015 1016 1017
f 1018 1019 1020
f 1021 1022 1023
f 1024 1025 1026
f 1027 1028 1029
f 1030 1031 1032
f 1033 1034 1035
f 1036 1037 1038
f 1039 1040 1041
f 1042 1043 1044
f 1045 1046 1047
f 1048 1049 1050
f 1051 1052 1053
f 1054 1055 1056
f 1057 1058 1059
f 1060 1061 1062
f 1063 1064 1065
f 1066 1067 1068
f 1069 1070 1071
f 1072 1073 1074
f 1075 1076 1077
f 1078 1079 1080
f 1081 1082 1083
f 1084 1085 1086
f 1087 1088 1089
f 1090 1091 1092
f 1093 1094 1095
f 1096 1097 1098
f 1099 1100 1101
f 1102 1103 1104
f 1105 1106 1107
f 1108 1109 1110
f 1111 1112 1113
f 1114 1115 1116
f 1117 1118 1119
f 1120 1121 1122
f 1123 1124 1125
f 1126 1127 1128
f 1129 1130 1131
f 1132 1133 1134
f 1135 1136 1137
f 1138 1139 1140
f 1141 1142 1143
f 1144 1145 1146
f 1147 1148 1149
f 1150 1151 1152
f 1153 1154 1155
f 1156 1157 1158
f 1159 1160 1161
f 1162 1163 1164
f 1165 1166 1167
f 1168 1169 1170
f 1171 1172 1173
f 1174 1175 1176
f 1177 1178 1179
f 1180 1181 1182
f 1183 1184 1185
f 1186 1187 1188
f 1189 1190 1191
f 1192 1193 1194
f 1195 1196 1197
f 1198 1199 1200
f 1201 1202 1203
f 1204 1205 1206
f 1207 1208 1209
f 1210 1211 1212
f 1213 1214 1215
f 1216 1217 1218
f 1219 1220 1221
f 1222 1223 1224
f 1225 1226 1227
f 1228 1229 1230
f 1231 1232 1233
f 1234 1235 1236
f 1237 1238 1239
f 1240 1241 1242
f 1243 1244 1245
f 1246 1247 1248
f 1249 1250 1251
f 1252 1253 1254
f 1255 1256 1257
f 1258 1259 1260
f 1261 1262 1263
f 1264 1265 1266
f 1267 1268 1269
f 1270 1271 1272
f 1273 1274 1275
f 1276 1277 1278
f 1279 1280 1281
f 1282 1283 1284
f 1285 1286 1287
f 1288 1289 1290
f 1291 1292 1293
f 1294 1295 1296
f 1297 1298 1299
f 1300 1301 1302
f 1303 1304 1305
f 1306 1307 1308
f 1309 1310 1311
f 1312 1313 1314
f 1315 1316 1317
f 1318 1319 1320
f 1321 1322 1323
f 1324 1325 1326
f 1327 1328 1329
f 1330 1331 1332
f 1333 1334 1335
f 1336 1337 1338
f 1339 1340 1341
f 1342 1343 1344
f 1345 1346 1347
f 1348 1349 1350
f 1351 1352 1353
f 1354 1355 1356
f 1357 1358 1359
f 1360 1361 1362
f 1363 1364 1365
f 1366 1367 1368
f 1369 1370 1371
f 1372 1373 1374
f 1375 1376 1377
f 1378 1379 1380
f 1381 1382 1383
f 1384 1385 1386
f 1387 1388 1389
f 1390 1391 1392
f 1393 1394 1395
f 1396 1397 1398
f 1399 1400 1401
f 1402 1403 1404
f 1405 1406 1407
f 1408 1409 1410
f 1411 1412 1413
f 1414 1415 1416
f 1417 1418 1419
f 1420 1421 1422
f 1423 1424 1425
f 1426 1427 1428
f 1429 1430 1431
f 1432 1433 1434
f 1435 1436 1437
f 1438 1439 1440
f 1441 1442 1443
f 1444 1445 1446
f 1447 1448 1449
f 1450 1451 1452
f 1453 1454 1455
f 1456 1457 1458
f 1459 1460 1461
f 1462 1463 1464
f 1465 1466 1467
f 1468 1469 1470
f 1471 1472 1473
f 1474 1475 1476

