# https://github.com/mikedh/trimesh

o M_Bottom_1.stl
v -25.09102440 20.06840897 19.55051804
v -24.55848122 30.05432701 19.77314568
v -25.15270042 20.07198524 20.00000000
v -25.15270042 20.07198524 20.00000000
v -24.55848122 30.05432701 19.77314568
v -24.55848122 30.05432701 20.22685432
v -25.15270042 20.07198524 20.00000000
v -24.55848122 30.05432701 20.22685432
v -25.09102440 20.06840897 20.44948196
v -25.09102440 20.06840897 20.44948196
v -24.55848122 30.05432701 20.22685432
v -24.43627739 30.04724312 20.66373634
v -25.09102440 20.06840897 20.44948196
v -24.43627739 30.04724312 20.66373634
v -24.91057014 20.05794907 20.86562729
v -24.91057014 20.05794907 20.86562729
v -24.43627739 30.04724312 20.66373634
v -24.20093346 30.03359985 21.05139160
v -24.91057014 20.05794907 20.86562729
v -24.20093346 30.03359985 21.05139160
v -24.62472153 20.04137802 21.21757317
v -24.62472153 20.04137802 21.21757317
v -24.20093346 30.03359985 21.05139160
v -23.86990356 30.01441002 21.36107254
v -24.62472153 20.04137802 21.21757317
v -23.86990356 30.01441002 21.36107254
v -24.25467682 20.01992607 21.47921753
v -24.25467682 20.01992607 21.47921753
v -23.86990356 30.01441002 21.36107254
v -23.46773911 29.99109650 21.56980705
v -24.25467682 20.01992607 21.47921753
v -23.46773911 29.99109650 21.56980705
v -23.82788277 19.99518585 21.63115501
v -23.82788277 19.99518585 21.63115501
v -23.46773911 29.99109650 21.56980705
v -23.02426529 29.96538925 21.66211700
v -23.82788277 19.99518585 21.63115501
v -23.02426529 29.96538925 21.66211700
v -23.37599182 19.96899033 21.66211700
v -23.37599182 19.96899033 21.66211700
v -23.02426529 29.96538925 21.66211700
v -22.57237434 29.93919182 21.63115501
v -23.37599182 19.96899033 21.66211700
v -22.57237434 29.93919182 21.63115501
v -22.93251801 19.94328117 21.56980705
v -22.93251801 19.94328117 21.56980705
v -22.57237434 29.93919182 21.63115501
v -22.14558029 29.91445160 21.47921753
v -22.93251801 19.94328117 21.56980705
v -22.14558029 29.91445160 21.47921753
v -22.53035355 19.91996765 21.36107254
v -22.53035355 19.91996765 21.36107254
v -22.14558029 29.91445160 21.47921753
v -21.77553749 29.89299965 21.21757317
v -22.53035355 19.91996765 21.36107254
v -21.77553749 29.89299965 21.21757317
v -22.19932365 19.90077782 21.05139160
v -22.19932365 19.90077782 21.05139160
v -21.77553749 29.89299965 21.21757317
v -21.48968697 29.87642860 20.86562729
v -22.19932365 19.90077782 21.05139160
v -21.48968697 29.87642860 20.86562729
v -21.96397972 19.88713455 20.66373634
v -21.96397972 19.88713455 20.66373634
v -21.48968697 29.87642860 20.86562729
v -21.30923271 29.86596870 20.44948196
v -21.96397972 19.88713455 20.66373634
v -21.30923271 29.86596870 20.44948196
v -21.84177589 19.88005066 20.22685432
v -21.84177589 19.88005066 20.22685432
v -21.30923271 29.86596870 20.44948196
v -21.24755669 29.86239243 20.00000000
v -21.84177589 19.88005066 20.22685432
v -21.24755669 29.86239243 20.00000000
v -21.84177589 19.88005066 19.77314568
v -21.84177589 19.88005066 19.77314568
v -21.24755669 29.86239243 20.00000000
v -21.30923271 29.86596870 19.55051804
v -21.84177589 19.88005066 19.77314568
v -21.30923271 29.86596870 19.55051804
v -21.96397972 19.88713455 19.33626366
v -21.96397972 19.88713455 19.33626366
v -21.30923271 29.86596870 19.55051804
v -21.48968697 29.87642860 19.13437271
v -21.96397972 19.88713455 19.33626366
v -21.48968697 29.87642860 19.13437271
v -22.19932365 19.90077782 18.94860840
v -22.19932365 19.90077782 18.94860840
v -21.48968697 29.87642860 19.13437271
v -21.77553749 29.89299965 18.78242683
v -22.19932365 19.90077782 18.94860840
v -21.77553749 29.89299965 18.78242683
v -22.53035355 19.91996765 18.63892746
v -22.53035355 19.91996765 18.63892746
v -21.77553749 29.89299965 18.78242683
v -22.14558029 29.91445160 18.52078247
v -22.53035355 19.91996765 18.63892746
v -22.14558029 29.91445160 18.52078247
v -22.93251801 19.94328117 18.43019295
v -22.93251801 19.94328117 18.43019295
v -22.14558029 29.91445160 18.52078247
v -22.57237434 29.93919182 18.36884499
v -22.93251801 19.94328117 18.43019295
v -22.57237434 29.93919182 18.36884499
v -23.37599182 19.96899033 18.33788300
v -23.37599182 19.96899033 18.33788300
v -22.57237434 29.93919182 18.36884499
v -23.02426529 29.96538925 18.33788300
v -23.37599182 19.96899033 18.33788300
v -23.02426529 29.96538925 18.33788300
v -23.82788277 19.99518585 18.36884499
v -23.82788277 19.99518585 18.36884499
v -23.02426529 29.96538925 18.33788300
v -23.46773911 29.99109650 18.43019295
v -23.82788277 19.99518585 18.36884499
v -23.46773911 29.99109650 18.43019295
v -24.25467682 20.01992607 18.52078247
v -24.25467682 20.01992607 18.52078247
v -23.46773911 29.99109650 18.43019295
v -23.86990356 30.01441002 18.63892746
v -24.25467682 20.01992607 18.52078247
v -23.86990356 30.01441002 18.63892746
v -24.62472153 20.04137802 18.78242683
v -24.62472153 20.04137802 18.78242683
v -23.86990356 30.01441002 18.63892746
v -24.20093346 30.03359985 18.94860840
v -24.62472153 20.04137802 18.78242683
v -24.20093346 30.03359985 18.94860840
v -24.91057014 20.05794907 19.13437271
v -24.91057014 20.05794907 19.13437271
v -24.20093346 30.03359985 18.94860840
v -24.43627739 30.04724312 19.33626366
v -24.91057014 20.05794907 19.13437271
v -24.43627739 30.04724312 19.33626366
v -25.09102440 20.06840897 19.55051804
v -25.09102440 20.06840897 19.55051804
v -24.43627739 30.04724312 19.33626366
v -24.55848122 30.05432701 19.77314568
v -21.24755669 29.86239243 20.00000000
v -21.30923271 29.86596870 20.44948196
v -21.30923271 29.86596870 19.55051804
v -21.30923271 29.86596870 19.55051804
v -21.30923271 29.86596870 20.44948196
v -21.48968697 29.87642860 19.13437271
v -21.48968697 29.87642860 19.13437271
v -21.30923271 29.86596870 20.44948196
v -21.48968697 29.87642860 20.86562729
v -21.48968697 29.87642860 19.13437271
v -21.48968697 29.87642860 20.86562729
v -21.77553749 29.89299965 18.78242683
v -21.77553749 29.89299965 18.78242683
v -21.48968697 29.87642860 20.86562729
v -21.77553749 29.89299965 21.21757317
v -21.77553749 29.89299965 18.78242683
v -21.77553749 29.89299965 21.21757317
v -22.14558029 29.91445160 18.52078247
v -22.14558029 29.91445160 18.52078247
v -21.77553749 29.89299965 21.21757317
v -22.14558029 29.91445160 21.47921753
v -22.14558029 29.91445160 18.52078247
v -22.14558029 29.91445160 21.47921753
v -22.57237434 29.93919182 18.36884499
v -22.57237434 29.93919182 18.36884499
v -22.14558029 29.91445160 21.47921753
v -22.57237434 29.93919182 21.63115501
v -22.57237434 29.93919182 18.36884499
v -22.57237434 29.93919182 21.63115501
v -23.02426529 29.96538925 18.33788300
v -23.02426529 29.96538925 18.33788300
v -22.57237434 29.93919182 21.63115501
v -23.46773911 29.99109650 18.43019295
v -23.46773911 29.99109650 18.43019295
v -22.57237434 29.93919182 21.63115501
v -23.86990356 30.01441002 18.63892746
v -23.86990356 30.01441002 18.63892746
v -22.57237434 29.93919182 21.63115501
v -24.20093346 30.03359985 18.94860840
v -24.20093346 30.03359985 18.94860840
v -22.57237434 29.93919182 21.63115501
v -24.43627739 30.04724312 19.33626366
v -24.43627739 30.04724312 19.33626366
v -22.57237434 29.93919182 21.63115501
v -24.55848122 30.05432701 19.77314568
v -24.55848122 30.05432701 19.77314568
v -22.57237434 29.93919182 21.63115501
v -24.55848122 30.05432701 20.22685432
v -24.55848122 30.05432701 20.22685432
v -22.57237434 29.93919182 21.63115501
v -24.43627739 30.04724312 20.66373634
v -24.43627739 30.04724312 20.66373634
v -22.57237434 29.93919182 21.63115501
v -24.20093346 30.03359985 21.05139160
v -24.20093346 30.03359985 21.05139160
v -22.57237434 29.93919182 21.63115501
v -23.86990356 30.01441002 21.36107254
v -23.86990356 30.01441002 21.36107254
v -22.57237434 29.93919182 21.63115501
v -23.46773911 29.99109650 21.56980705
v -23.46773911 29.99109650 21.56980705
v -22.57237434 29.93919182 21.63115501
v -23.02426529 29.96538925 21.66211700
v -45.05750275 21.22586632 19.55051804
v -44.52495956 31.21178246 19.77314568
v -45.11917877 21.22944260 20.00000000
v -45.11917877 21.22944260 20.00000000
v -44.52495956 31.21178246 19.77314568
v -44.52495956 31.21178246 20.22685432
v -45.11917877 21.22944260 20.00000000
v -44.52495956 31.21178246 20.22685432
v -45.05750275 21.22586632 20.44948196
v -45.05750275 21.22586632 20.44948196
v -44.52495956 31.21178246 20.22685432
v -44.40275574 31.20469856 20.66373634
v -45.05750275 21.22586632 20.44948196
v -44.40275574 31.20469856 20.66373634
v -44.87704849 21.21540451 20.86562729
v -44.87704849 21.21540451 20.86562729
v -44.40275574 31.20469856 20.66373634
v -44.16741180 31.19105721 21.05139160
v -44.87704849 21.21540451 20.86562729
v -44.16741180 31.19105721 21.05139160
v -44.59120178 21.19883537 21.21757317
v -44.59120178 21.19883537 21.21757317
v -44.16741180 31.19105721 21.05139160
v -43.83638382 31.17186737 21.36107254
v -44.59120178 21.19883537 21.21757317
v -43.83638382 31.17186737 21.36107254
v -44.22115707 21.17738342 21.47921753
v -44.22115707 21.17738342 21.47921753
v -43.83638382 31.17186737 21.36107254
v -43.43421936 31.14855385 21.56980705
v -44.22115707 21.17738342 21.47921753
v -43.43421936 31.14855385 21.56980705
v -43.79436111 21.15264130 21.63115501
v -43.79436111 21.15264130 21.63115501
v -43.43421936 31.14855385 21.56980705
v -42.99074554 31.12284470 21.66211700
v -43.79436111 21.15264130 21.63115501
v -42.99074554 31.12284470 21.66211700
v -43.34247208 21.12644577 21.66211700
v -43.34247208 21.12644577 21.66211700
v -42.99074554 31.12284470 21.66211700
v -42.53885269 31.09664917 21.63115501
v -43.34247208 21.12644577 21.66211700
v -42.53885269 31.09664917 21.63115501
v -42.89899826 21.10073853 21.56980705
v -42.89899826 21.10073853 21.56980705
v -42.53885269 31.09664917 21.63115501
v -42.11206055 31.07190704 21.47921753
v -42.89899826 21.10073853 21.56980705
v -42.11206055 31.07190704 21.47921753
v -42.49683380 21.07742500 21.36107254
v -42.49683380 21.07742500 21.36107254
v -42.11206055 31.07190704 21.47921753
v -41.74201584 31.05045700 21.21757317
v -42.49683380 21.07742500 21.36107254
v -41.74201584 31.05045700 21.21757317
v -42.16580200 21.05823517 21.05139160
v -42.16580200 21.05823517 21.05139160
v -41.74201584 31.05045700 21.21757317
v -41.45616531 31.03388596 20.86562729
v -42.16580200 21.05823517 21.05139160
v -41.45616531 31.03388596 20.86562729
v -41.93045807 21.04459190 20.66373634
v -41.93045807 21.04459190 20.66373634
v -41.45616531 31.03388596 20.86562729
v -41.27571106 31.02342415 20.44948196
v -41.93045807 21.04459190 20.66373634
v -41.27571106 31.02342415 20.44948196
v -41.80825424 21.03750801 20.22685432
v -41.80825424 21.03750801 20.22685432
v -41.27571106 31.02342415 20.44948196
v -41.21403503 31.01984978 20.00000000
v -41.80825424 21.03750801 20.22685432
v -41.21403503 31.01984978 20.00000000
v -41.80825424 21.03750801 19.77314568
v -41.80825424 21.03750801 19.77314568
v -41.21403503 31.01984978 20.00000000
v -41.27571106 31.02342415 19.55051804
v -41.80825424 21.03750801 19.77314568
v -41.27571106 31.02342415 19.55051804
v -41.93045807 21.04459190 19.33626366
v -41.93045807 21.04459190 19.33626366
v -41.27571106 31.02342415 19.55051804
v -41.45616531 31.03388596 19.13437271
v -41.93045807 21.04459190 19.33626366
v -41.45616531 31.03388596 19.13437271
v -42.16580200 21.05823517 18.94860840
v -42.16580200 21.05823517 18.94860840
v -41.45616531 31.03388596 19.13437271
v -41.74201584 31.05045700 18.78242683
v -42.16580200 21.05823517 18.94860840
v -41.74201584 31.05045700 18.78242683
v -42.49683380 21.07742500 18.63892746
v -42.49683380 21.07742500 18.63892746
v -41.74201584 31.05045700 18.78242683
v -42.11206055 31.07190704 18.52078247
v -42.49683380 21.07742500 18.63892746
v -42.11206055 31.07190704 18.52078247
v -42.89899826 21.10073853 18.43019295
v -42.89899826 21.10073853 18.43019295
v -42.11206055 31.07190704 18.52078247
v -42.53885269 31.09664917 18.36884499
v -42.89899826 21.10073853 18.43019295
v -42.53885269 31.09664917 18.36884499
v -43.34247208 21.12644577 18.33788300
v -43.34247208 21.12644577 18.33788300
v -42.53885269 31.09664917 18.36884499
v -42.99074554 31.12284470 18.33788300
v -43.34247208 21.12644577 18.33788300
v -42.99074554 31.12284470 18.33788300
v -43.79436111 21.15264130 18.36884499
v -43.79436111 21.15264130 18.36884499
v -42.99074554 31.12284470 18.33788300
v -43.43421936 31.14855385 18.43019295
v -43.79436111 21.15264130 18.36884499
v -43.43421936 31.14855385 18.43019295
v -44.22115707 21.17738342 18.52078247
v -44.22115707 21.17738342 18.52078247
v -43.43421936 31.14855385 18.43019295
v -43.83638382 31.17186737 18.63892746
v -44.22115707 21.17738342 18.52078247
v -43.83638382 31.17186737 18.63892746
v -44.59120178 21.19883537 18.78242683
v -44.59120178 21.19883537 18.78242683
v -43.83638382 31.17186737 18.63892746
v -44.16741180 31.19105721 18.94860840
v -44.59120178 21.19883537 18.78242683
v -44.16741180 31.19105721 18.94860840
v -44.87704849 21.21540451 19.13437271
v -44.87704849 21.21540451 19.13437271
v -44.16741180 31.19105721 18.94860840
v -44.40275574 31.20469856 19.33626366
v -44.87704849 21.21540451 19.13437271
v -44.40275574 31.20469856 19.33626366
v -45.05750275 21.22586632 19.55051804
v -45.05750275 21.22586632 19.55051804
v -44.40275574 31.20469856 19.33626366
v -44.52495956 31.21178246 19.77314568
v -41.21403503 31.01984978 20.00000000
v -41.27571106 31.02342415 20.44948196
v -41.27571106 31.02342415 19.55051804
v -41.27571106 31.02342415 19.55051804
v -41.27571106 31.02342415 20.44948196
v -41.45616531 31.03388596 19.13437271
v -41.45616531 31.03388596 19.13437271
v -41.27571106 31.02342415 20.44948196
v -41.45616531 31.03388596 20.86562729
v -41.45616531 31.03388596 19.13437271
v -41.45616531 31.03388596 20.86562729
v -41.74201584 31.05045700 18.78242683
v -41.74201584 31.05045700 18.78242683
v -41.45616531 31.03388596 20.86562729
v -41.74201584 31.05045700 21.21757317
v -41.74201584 31.05045700 18.78242683
v -41.74201584 31.05045700 21.21757317
v -42.11206055 31.07190704 18.52078247
v -42.11206055 31.07190704 18.52078247
v -41.74201584 31.05045700 21.21757317
v -42.11206055 31.07190704 21.47921753
v -42.11206055 31.07190704 18.52078247
v -42.11206055 31.07190704 21.47921753
v -42.53885269 31.09664917 18.36884499
v -42.53885269 31.09664917 18.36884499
v -42.11206055 31.07190704 21.47921753
v -42.53885269 31.09664917 21.63115501
v -42.53885269 31.09664917 18.36884499
v -42.53885269 31.09664917 21.63115501
v -42.99074554 31.12284470 18.33788300
v -42.99074554 31.12284470 18.33788300
v -42.53885269 31.09664917 21.63115501
v -43.43421936 31.14855385 18.43019295
v -43.43421936 31.14855385 18.43019295
v -42.53885269 31.09664917 21.63115501
v -43.83638382 31.17186737 18.63892746
v -43.83638382 31.17186737 18.63892746
v -42.53885269 31.09664917 21.63115501
v -44.16741180 31.19105721 18.94860840
v -44.16741180 31.19105721 18.94860840
v -42.53885269 31.09664917 21.63115501
v -44.40275574 31.20469856 19.33626366
v -44.40275574 31.20469856 19.33626366
v -42.53885269 31.09664917 21.63115501
v -44.52495956 31.21178246 19.77314568
v -44.52495956 31.21178246 19.77314568
v -42.53885269 31.09664917 21.63115501
v -44.52495956 31.21178246 20.22685432
v -44.52495956 31.21178246 20.22685432
v -42.53885269 31.09664917 21.63115501
v -44.40275574 31.20469856 20.66373634
v -44.40275574 31.20469856 20.66373634
v -42.53885269 31.09664917 21.63115501
v -44.16741180 31.19105721 21.05139160
v -44.16741180 31.19105721 21.05139160
v -42.53885269 31.09664917 21.63115501
v -43.83638382 31.17186737 21.36107254
v -43.83638382 31.17186737 21.36107254
v -42.53885269 31.09664917 21.63115501
v -43.43421936 31.14855385 21.56980705
v -43.43421936 31.14855385 21.56980705
v -42.53885269 31.09664917 21.63115501
v -42.99074554 31.12284470 21.66211700
v 0.05498879 80.53975677 21.60421944
v -7.46791601 80.97585297 21.60421944
v 0.08100155 80.98847961 21.66600037
v 0.08100155 80.98847961 21.66600037
v -7.46791601 80.97585297 21.60421944
v -7.44190359 81.42458344 21.66600037
v 0.08100155 80.98847961 21.66600037
v -7.44190359 81.42458344 21.66600037
v 0.10701431 81.43721008 21.60421944
v 0.10701431 81.43721008 21.60421944
v -7.44190359 81.42458344 21.66600037
v -7.41589069 81.87331390 21.60421944
v 0.10701431 81.43721008 21.60421944
v -7.41589069 81.87331390 21.60421944
v 0.13109782 81.85266113 21.42346191
v 0.13109782 81.85266113 21.42346191
v -7.41589069 81.87331390 21.60421944
v -7.39180708 82.28875732 21.42346191
v 0.13109782 81.85266113 21.42346191
v -7.39180708 82.28875732 21.42346191
v 0.15146592 82.20401764 21.13713264
v 0.15146592 82.20401764 21.13713264
v -7.39180708 82.28875732 21.42346191
v -7.37143898 82.64011383 21.13713264
v 0.15146592 82.20401764 21.13713264
v -7.37143898 82.64011383 21.13713264
v 0.16660799 82.46521759 20.76646805
v 0.16660799 82.46521759 20.76646805
v -7.37143898 82.64011383 21.13713264
v -7.35629702 82.90132141 20.76646805
v 0.16660799 82.46521759 20.76646805
v -7.35629702 82.90132141 20.76646805
v 0.17540103 82.61690521 20.33895683
v 0.17540103 82.61690521 20.33895683
v -7.35629702 82.90132141 20.76646805
v -7.34750414 83.05300140 20.33895683
v 0.17540103 82.61690521 20.33895683
v -7.34750414 83.05300140 20.33895683
v 0.17719290 82.64781189 19.88630867
v 0.17719290 82.64781189 19.88630867
v -7.34750414 83.05300140 20.33895683
v -7.34571218 83.08391571 19.88630867
v 0.17719290 82.64781189 19.88630867
v -7.34571218 83.08391571 19.88630867
v 0.17185070 82.55565643 19.44209099
v 0.17185070 82.55565643 19.44209099
v -7.34571218 83.08391571 19.88630867
v -7.35105419 82.99176025 19.44209099
v 0.17185070 82.55565643 19.44209099
v -7.35105419 82.99176025 19.44209099
v 0.15977062 82.34727478 19.03925133
v 0.15977062 82.34727478 19.03925133
v -7.35105419 82.99176025 19.44209099
v -7.36313438 82.78337860 19.03925133
v 0.15977062 82.34727478 19.03925133
v -7.36313438 82.78337860 19.03925133
v 0.14184859 82.03810883 18.70766449
v 0.14184859 82.03810883 18.70766449
v -7.36313438 82.78337860 19.03925133
v -7.38105631 82.47421265 18.70766449
v 0.14184859 82.03810883 18.70766449
v -7.38105631 82.47421265 18.70766449
v 0.11941384 81.65110779 18.47192574
v 0.11941384 81.65110779 18.47192574
v -7.38105631 82.47421265 18.70766449
v -7.40349102 82.08721161 18.47192574
v 0.11941384 81.65110779 18.47192574
v -7.40349102 82.08721161 18.47192574
v 0.09413021 81.21495819 18.34951782
v 0.09413021 81.21495819 18.34951782
v -7.40349102 82.08721161 18.47192574
v -7.42877483 81.65106201 18.34951782
v 0.09413021 81.21495819 18.34951782
v -7.42877483 81.65106201 18.34951782
v 0.06787289 80.76200867 18.34951782
v 0.06787289 80.76200867 18.34951782
v -7.42877483 81.65106201 18.34951782
v -7.45503187 81.19811249 18.34951782
v 0.06787289 80.76200867 18.34951782
v -7.45503187 81.19811249 18.34951782
v 0.04258926 80.32585907 18.47192574
v 0.04258926 80.32585907 18.47192574
v -7.45503187 81.19811249 18.34951782
v -7.48031569 80.76196289 18.47192574
v 0.04258926 80.32585907 18.47192574
v -7.48031569 80.76196289 18.47192574
v 0.02015449 79.93885040 18.70766449
v 0.02015449 79.93885040 18.70766449
v -7.48031569 80.76196289 18.47192574
v -7.50275040 80.37495422 18.70766449
v 0.02015449 79.93885040 18.70766449
v -7.50275040 80.37495422 18.70766449
v 0.00223248 79.62969208 19.03925133
v 0.00223248 79.62969208 19.03925133
v -7.50275040 80.37495422 18.70766449
v -7.52067232 80.06579590 19.03925133
v 0.00223248 79.62969208 19.03925133
v -7.52067232 80.06579590 19.03925133
v -0.00984760 79.42130280 19.44209099
v -0.00984760 79.42130280 19.44209099
v -7.52067232 80.06579590 19.03925133
v -7.53275251 79.85740662 19.44209099
v -0.00984760 79.42130280 19.44209099
v -7.53275251 79.85740662 19.44209099
v -0.01518981 79.32915497 19.88630867
v -0.01518981 79.32915497 19.88630867
v -7.53275251 79.85740662 19.44209099
v -7.53809500 79.76525116 19.88630867
v -0.01518981 79.32915497 19.88630867
v -7.53809500 79.76525116 19.88630867
v -0.01339794 79.36006165 20.33895683
v -0.01339794 79.36006165 20.33895683
v -7.53809500 79.76525116 19.88630867
v -7.53630304 79.79616547 20.33895683
v -0.01339794 79.36006165 20.33895683
v -7.53630304 79.79616547 20.33895683
v -0.00460490 79.51174164 20.76646805
v -0.00460490 79.51174164 20.76646805
v -7.53630304 79.79616547 20.33895683
v -7.52750969 79.94784546 20.76646805
v -0.00460490 79.51174164 20.76646805
v -7.52750969 79.94784546 20.76646805
v 0.01053718 79.77294922 21.13713264
v 0.01053718 79.77294922 21.13713264
v -7.52750969 79.94784546 20.76646805
v -7.51236773 80.20905304 21.13713264
v 0.01053718 79.77294922 21.13713264
v -7.51236773 80.20905304 21.13713264
v 0.03090528 80.12430573 21.42346191
v 0.03090528 80.12430573 21.42346191
v -7.51236773 80.20905304 21.13713264
v -7.49199963 80.56040955 21.42346191
v 0.03090528 80.12430573 21.42346191
v -7.49199963 80.56040955 21.42346191
v 0.05498879 80.53975677 21.60421944
v 0.05498879 80.53975677 21.60421944
v -7.49199963 80.56040955 21.42346191
v -7.46791601 80.97585297 21.60421944
v -14.99082088 81.41195679 18.39578056
v -7.45503187 81.19811249 18.34951782
v -14.96480846 81.86068726 18.33399963
v -14.96480846 81.86068726 18.33399963
v -7.45503187 81.19811249 18.34951782
v -7.42877483 81.65106201 18.34951782
v -14.96480846 81.86068726 18.33399963
v -7.42877483 81.65106201 18.34951782
v -14.93879604 82.30941772 18.39578056
v -14.93879604 82.30941772 18.39578056
v -7.42877483 81.65106201 18.34951782
v -7.40349102 82.08721161 18.47192574
v -14.93879604 82.30941772 18.39578056
v -7.40349102 82.08721161 18.47192574
v -14.91471195 82.72486115 18.57653809
v -14.91471195 82.72486115 18.57653809
v -7.40349102 82.08721161 18.47192574
v -7.38105631 82.47421265 18.70766449
v -14.91471195 82.72486115 18.57653809
v -7.38105631 82.47421265 18.70766449
v -14.89434433 83.07621765 18.86286736
v -14.89434433 83.07621765 18.86286736
v -7.38105631 82.47421265 18.70766449
v -7.36313438 82.78337860 19.03925133
v -14.89434433 83.07621765 18.86286736
v -7.36313438 82.78337860 19.03925133
v -14.87920189 83.33742523 19.23353195
v -14.87920189 83.33742523 19.23353195
v -7.36313438 82.78337860 19.03925133
v -7.35105419 82.99176025 19.44209099
v -14.87920189 83.33742523 19.23353195
v -7.35105419 82.99176025 19.44209099
v -14.87040901 83.48910522 19.66104317
v -14.87040901 83.48910522 19.66104317
v -7.35105419 82.99176025 19.44209099
v -7.34571218 83.08391571 19.88630867
v -14.87040901 83.48910522 19.66104317
v -7.34571218 83.08391571 19.88630867
v -14.86861706 83.52001953 20.11369133
v -14.86861706 83.52001953 20.11369133
v -7.34571218 83.08391571 19.88630867
v -7.34750414 83.05300140 20.33895683
v -14.86861706 83.52001953 20.11369133
v -7.34750414 83.05300140 20.33895683
v -14.87395954 83.42786407 20.55790901
v -14.87395954 83.42786407 20.55790901
v -7.34750414 83.05300140 20.33895683
v -7.35629702 82.90132141 20.76646805
v -14.87395954 83.42786407 20.55790901
v -7.35629702 82.90132141 20.76646805
v -14.88603973 83.21947479 20.96074867
v -14.88603973 83.21947479 20.96074867
v -7.35629702 82.90132141 20.76646805
v -7.37143898 82.64011383 21.13713264
v -14.88603973 83.21947479 20.96074867
v -7.37143898 82.64011383 21.13713264
v -14.90396118 82.91031647 21.29233551
v -14.90396118 82.91031647 21.29233551
v -7.37143898 82.64011383 21.13713264
v -7.39180708 82.28875732 21.42346191
v -14.90396118 82.91031647 21.29233551
v -7.39180708 82.28875732 21.42346191
v -14.92639637 82.52330780 21.52807426
v -14.92639637 82.52330780 21.52807426
v -7.39180708 82.28875732 21.42346191
v -7.41589069 81.87331390 21.60421944
v -14.92639637 82.52330780 21.52807426
v -7.41589069 81.87331390 21.60421944
v -14.95168018 82.08715820 21.65048218
v -14.95168018 82.08715820 21.65048218
v -7.41589069 81.87331390 21.60421944
v -7.44190359 81.42458344 21.66600037
v -14.95168018 82.08715820 21.65048218
v -7.44190359 81.42458344 21.66600037
v -14.97793674 81.63421631 21.65048218
v -14.97793674 81.63421631 21.65048218
v -7.44190359 81.42458344 21.66600037
v -7.46791601 80.97585297 21.60421944
v -14.97793674 81.63421631 21.65048218
v -7.46791601 80.97585297 21.60421944
v -15.00322056 81.19806671 21.52807426
v -15.00322056 81.19806671 21.52807426
v -7.46791601 80.97585297 21.60421944
v -7.49199963 80.56040955 21.42346191
v -15.00322056 81.19806671 21.52807426
v -7.49199963 80.56040955 21.42346191
v -15.02565575 80.81105804 21.29233551
v -15.02565575 80.81105804 21.29233551
v -7.49199963 80.56040955 21.42346191
v -7.51236773 80.20905304 21.13713264
v -15.02565575 80.81105804 21.29233551
v -7.51236773 80.20905304 21.13713264
v -15.04357719 80.50189972 20.96074867
v -15.04357719 80.50189972 20.96074867
v -7.51236773 80.20905304 21.13713264
v -7.52750969 79.94784546 20.76646805
v -15.04357719 80.50189972 20.96074867
v -7.52750969 79.94784546 20.76646805
v -15.05565739 80.29351044 20.55790901
v -15.05565739 80.29351044 20.55790901
v -7.52750969 79.94784546 20.76646805
v -7.53630304 79.79616547 20.33895683
v -15.05565739 80.29351044 20.55790901
v -7.53630304 79.79616547 20.33895683
v -15.06099987 80.20135498 20.11369133
v -15.06099987 80.20135498 20.11369133
v -7.53630304 79.79616547 20.33895683
v -7.53809500 79.76525116 19.88630867
v -15.06099987 80.20135498 20.11369133
v -7.53809500 79.76525116 19.88630867
v -15.05920792 80.23226929 19.66104317
v -15.05920792 80.23226929 19.66104317
v -7.53809500 79.76525116 19.88630867
v -7.53275251 79.85740662 19.44209099
v -15.05920792 80.23226929 19.66104317
v -7.53275251 79.85740662 19.44209099
v -15.05041504 80.38394928 19.23353195
v -15.05041504 80.38394928 19.23353195
v -7.53275251 79.85740662 19.44209099
v -7.52067232 80.06579590 19.03925133
v -15.05041504 80.38394928 19.23353195
v -7.52067232 80.06579590 19.03925133
v -15.03527260 80.64515686 18.86286736
v -15.03527260 80.64515686 18.86286736
v -7.52067232 80.06579590 19.03925133
v -7.50275040 80.37495422 18.70766449
v -15.03527260 80.64515686 18.86286736
v -7.50275040 80.37495422 18.70766449
v -15.01490498 80.99651337 18.57653809
v -15.01490498 80.99651337 18.57653809
v -7.50275040 80.37495422 18.70766449
v -7.48031569 80.76196289 18.47192574
v -15.01490498 80.99651337 18.57653809
v -7.48031569 80.76196289 18.47192574
v -14.99082088 81.41195679 18.39578056
v -14.99082088 81.41195679 18.39578056
v -7.48031569 80.76196289 18.47192574
v -7.45503187 81.19811249 18.34951782
v -14.96480846 81.86068726 18.33399963
v -14.93879604 82.30941772 18.39578056
v -14.99082088 81.41195679 18.39578056
v -14.99082088 81.41195679 18.39578056
v -14.93879604 82.30941772 18.39578056
v -15.01490498 80.99651337 18.57653809
v -15.01490498 80.99651337 18.57653809
v -14.93879604 82.30941772 18.39578056
v -14.91471195 82.72486115 18.57653809
v -15.01490498 80.99651337 18.57653809
v -14.91471195 82.72486115 18.57653809
v -15.03527260 80.64515686 18.86286736
v -15.03527260 80.64515686 18.86286736
v -14.91471195 82.72486115 18.57653809
v -14.89434433 83.07621765 18.86286736
v -15.03527260 80.64515686 18.86286736
v -14.89434433 83.07621765 18.86286736
v -15.05041504 80.38394928 19.23353195
v -15.05041504 80.38394928 19.23353195
v -14.89434433 83.07621765 18.86286736
v -14.87920189 83.33742523 19.23353195
v -15.05041504 80.38394928 19.23353195
v -14.87920189 83.33742523 19.23353195
v -15.05920792 80.23226929 19.66104317
v -15.05920792 80.23226929 19.66104317
v -14.87920189 83.33742523 19.23353195
v -14.87040901 83.48910522 19.66104317
v -15.05920792 80.23226929 19.66104317
v -14.87040901 83.48910522 19.66104317
v -15.06099987 80.20135498 20.11369133
v -15.06099987 80.20135498 20.11369133
v -14.87040901 83.48910522 19.66104317
v -15.05565739 80.29351044 20.55790901
v -15.05565739 80.29351044 20.55790901
v -14.87040901 83.48910522 19.66104317
v -15.04357719 80.50189972 20.96074867
v -15.04357719 80.50189972 20.96074867
v -14.87040901 83.48910522 19.66104317
v -15.02565575 80.81105804 21.29233551
v -15.02565575 80.81105804 21.29233551
v -14.87040901 83.48910522 19.66104317
v -15.00322056 81.19806671 21.52807426
v -15.00322056 81.19806671 21.52807426
v -14.87040901 83.48910522 19.66104317
v -14.97793674 81.63421631 21.65048218
v -14.97793674 81.63421631 21.65048218
v -14.87040901 83.48910522 19.66104317
v -14.95168018 82.08715820 21.65048218
v -14.95168018 82.08715820 21.65048218
v -14.87040901 83.48910522 19.66104317
v -14.92639637 82.52330780 21.52807426
v -14.92639637 82.52330780 21.52807426
v -14.87040901 83.48910522 19.66104317
v -14.90396118 82.91031647 21.29233551
v -14.90396118 82.91031647 21.29233551
v -14.87040901 83.48910522 19.66104317
v -14.88603973 83.21947479 20.96074867
v -14.88603973 83.21947479 20.96074867
v -14.87040901 83.48910522 19.66104317
v -14.87395954 83.42786407 20.55790901
v -14.87395954 83.42786407 20.55790901
v -14.87040901 83.48910522 19.66104317
v -14.86861706 83.52001953 20.11369133
v -2.39157009 38.33586502 21.60421944
v -9.91447544 38.77196503 21.60421944
v -2.36555719 38.78459167 21.66600037
v -2.36555719 38.78459167 21.66600037
v -9.91447544 38.77196503 21.60421944
v -9.88846207 39.22069550 21.66600037
v -2.36555719 38.78459167 21.66600037
v -9.88846207 39.22069550 21.66600037
v -2.33954453 39.23331833 21.60421944
v -2.33954453 39.23331833 21.60421944
v -9.88846207 39.22069550 21.66600037
v -9.86244965 39.66942215 21.60421944
v -2.33954453 39.23331833 21.60421944
v -9.86244965 39.66942215 21.60421944
v -2.31546092 39.64876938 21.42346191
v -2.31546092 39.64876938 21.42346191
v -9.86244965 39.66942215 21.60421944
v -9.83836555 40.08486938 21.42346191
v -2.31546092 39.64876938 21.42346191
v -9.83836555 40.08486938 21.42346191
v -2.29509282 40.00012207 21.13713264
v -2.29509282 40.00012207 21.13713264
v -9.83836555 40.08486938 21.42346191
v -9.81799793 40.43622589 21.13713264
v -2.29509282 40.00012207 21.13713264
v -9.81799793 40.43622589 21.13713264
v -2.27995086 40.26132965 20.76646805
v -2.27995086 40.26132965 20.76646805
v -9.81799793 40.43622589 21.13713264
v -9.80285549 40.69743347 20.76646805
v -2.27995086 40.26132965 20.76646805
v -9.80285549 40.69743347 20.76646805
v -2.27115774 40.41301346 20.33895683
v -2.27115774 40.41301346 20.33895683
v -9.80285549 40.69743347 20.76646805
v -9.79406261 40.84911346 20.33895683
v -2.27115774 40.41301346 20.33895683
v -9.79406261 40.84911346 20.33895683
v -2.26936579 40.44392395 19.88630867
v -2.26936579 40.44392395 19.88630867
v -9.79406261 40.84911346 20.33895683
v -9.79227066 40.88002396 19.88630867
v -2.26936579 40.44392395 19.88630867
v -9.79227066 40.88002396 19.88630867
v -2.27470803 40.35176849 19.44209099
v -2.27470803 40.35176849 19.44209099
v -9.79227066 40.88002396 19.88630867
v -9.79761314 40.78786850 19.44209099
v -2.27470803 40.35176849 19.44209099
v -9.79761314 40.78786850 19.44209099
v -2.28678823 40.14338303 19.03925133
v -2.28678823 40.14338303 19.03925133
v -9.79761314 40.78786850 19.44209099
v -9.80969334 40.57948685 19.03925133
v -2.28678823 40.14338303 19.03925133
v -9.80969334 40.57948685 19.03925133
v -2.30471015 39.83422089 18.70766449
v -2.30471015 39.83422089 18.70766449
v -9.80969334 40.57948685 19.03925133
v -9.82761478 40.27032471 18.70766449
v -2.30471015 39.83422089 18.70766449
v -9.82761478 40.27032471 18.70766449
v -2.32714486 39.44721603 18.47192574
v -2.32714486 39.44721603 18.47192574
v -9.82761478 40.27032471 18.70766449
v -9.85004997 39.88331985 18.47192574
v -2.32714486 39.44721603 18.47192574
v -9.85004997 39.88331985 18.47192574
v -2.35242867 39.01106644 18.34951782
v -2.35242867 39.01106644 18.34951782
v -9.85004997 39.88331985 18.47192574
v -9.87533379 39.44716644 18.34951782
v -2.35242867 39.01106644 18.34951782
v -9.87533379 39.44716644 18.34951782
v -2.37868595 38.55811691 18.34951782
v -2.37868595 38.55811691 18.34951782
v -9.87533379 39.44716644 18.34951782
v -9.90159130 38.99422073 18.34951782
v -2.37868595 38.55811691 18.34951782
v -9.90159130 38.99422073 18.34951782
v -2.40396953 38.12196732 18.47192574
v -2.40396953 38.12196732 18.47192574
v -9.90159130 38.99422073 18.34951782
v -9.92687416 38.55807114 18.47192574
v -2.40396953 38.12196732 18.47192574
v -9.92687416 38.55807114 18.47192574
v -2.42640424 37.73496246 18.70766449
v -2.42640424 37.73496246 18.70766449
v -9.92687416 38.55807114 18.47192574
v -9.94930935 38.17106247 18.70766449
v -2.42640424 37.73496246 18.70766449
v -9.94930935 38.17106247 18.70766449
v -2.44432640 37.42580032 19.03925133
v -2.44432640 37.42580032 19.03925133
v -9.94930935 38.17106247 18.70766449
v -9.96723175 37.86190414 19.03925133
v -2.44432640 37.42580032 19.03925133
v -9.96723175 37.86190414 19.03925133
v -2.45640635 37.21741486 19.44209099
v -2.45640635 37.21741486 19.44209099
v -9.96723175 37.86190414 19.03925133
v -9.97931099 37.65351868 19.44209099
v -2.45640635 37.21741486 19.44209099
v -9.97931099 37.65351868 19.44209099
v -2.46174860 37.12526321 19.88630867
v -2.46174860 37.12526321 19.88630867
v -9.97931099 37.65351868 19.44209099
v -9.98465347 37.56136322 19.88630867
v -2.46174860 37.12526321 19.88630867
v -9.98465347 37.56136322 19.88630867
v -2.45995665 37.15616989 20.33895683
v -2.45995665 37.15616989 20.33895683
v -9.98465347 37.56136322 19.88630867
v -9.98286152 37.59227371 20.33895683
v -2.45995665 37.15616989 20.33895683
v -9.98286152 37.59227371 20.33895683
v -2.45116377 37.30785370 20.76646805
v -2.45116377 37.30785370 20.76646805
v -9.98286152 37.59227371 20.33895683
v -9.97406864 37.74395752 20.76646805
v -2.45116377 37.30785370 20.76646805
v -9.97406864 37.74395752 20.76646805
v -2.43602157 37.56906128 21.13713264
v -2.43602157 37.56906128 21.13713264
v -9.97406864 37.74395752 20.76646805
v -9.95892620 38.00516129 21.13713264
v -2.43602157 37.56906128 21.13713264
v -9.95892620 38.00516129 21.13713264
v -2.41565347 37.92041397 21.42346191
v -2.41565347 37.92041397 21.42346191
v -9.95892620 38.00516129 21.13713264
v -9.93855858 38.35651779 21.42346191
v -2.41565347 37.92041397 21.42346191
v -9.93855858 38.35651779 21.42346191
v -2.39157009 38.33586502 21.60421944
v -2.39157009 38.33586502 21.60421944
v -9.93855858 38.35651779 21.42346191
v -9.91447544 38.77196503 21.60421944
v -17.43737984 39.20806885 18.39578056
v -9.90159130 38.99422073 18.34951782
v -17.41136742 39.65679550 18.33399963
v -17.41136742 39.65679550 18.33399963
v -9.90159130 38.99422073 18.34951782
v -9.87533379 39.44716644 18.34951782
v -17.41136742 39.65679550 18.33399963
v -9.87533379 39.44716644 18.34951782
v -17.38535500 40.10552597 18.39578056
v -17.38535500 40.10552597 18.39578056
v -9.87533379 39.44716644 18.34951782
v -9.85004997 39.88331985 18.47192574
v -17.38535500 40.10552597 18.39578056
v -9.85004997 39.88331985 18.47192574
v -17.36127090 40.52097321 18.57653809
v -17.36127090 40.52097321 18.57653809
v -9.85004997 39.88331985 18.47192574
v -9.82761478 40.27032471 18.70766449
v -17.36127090 40.52097321 18.57653809
v -9.82761478 40.27032471 18.70766449
v -17.34090233 40.87232971 18.86286736
v -17.34090233 40.87232971 18.86286736
v -9.82761478 40.27032471 18.70766449
v -9.80969334 40.57948685 19.03925133
v -17.34090233 40.87232971 18.86286736
v -9.80969334 40.57948685 19.03925133
v -17.32575989 41.13353348 19.23353195
v -17.32575989 41.13353348 19.23353195
v -9.80969334 40.57948685 19.03925133
v -9.79761314 40.78786850 19.44209099
v -17.32575989 41.13353348 19.23353195
v -9.79761314 40.78786850 19.44209099
v -17.31696701 41.28521729 19.66104317
v -17.31696701 41.28521729 19.66104317
v -9.79761314 40.78786850 19.44209099
v -9.79227066 40.88002396 19.88630867
v -17.31696701 41.28521729 19.66104317
v -9.79227066 40.88002396 19.88630867
v -17.31517601 41.31612778 20.11369133
v -17.31517601 41.31612778 20.11369133
v -9.79227066 40.88002396 19.88630867
v -9.79406261 40.84911346 20.33895683
v -17.31517601 41.31612778 20.11369133
v -9.79406261 40.84911346 20.33895683
v -17.32051849 41.22397232 20.55790901
v -17.32051849 41.22397232 20.55790901
v -9.79406261 40.84911346 20.33895683
v -9.80285549 40.69743347 20.76646805
v -17.32051849 41.22397232 20.55790901
v -9.80285549 40.69743347 20.76646805
v -17.33259773 41.01558685 20.96074867
v -17.33259773 41.01558685 20.96074867
v -9.80285549 40.69743347 20.76646805
v -9.81799793 40.43622589 21.13713264
v -17.33259773 41.01558685 20.96074867
v -9.81799793 40.43622589 21.13713264
v -17.35052109 40.70642853 21.29233551
v -17.35052109 40.70642853 21.29233551
v -9.81799793 40.43622589 21.13713264
v -9.83836555 40.08486938 21.42346191
v -17.35052109 40.70642853 21.29233551
v -9.83836555 40.08486938 21.42346191
v -17.37295532 40.31941986 21.52807426
v -17.37295532 40.31941986 21.52807426
v -9.83836555 40.08486938 21.42346191
v -9.86244965 39.66942215 21.60421944
v -17.37295532 40.31941986 21.52807426
v -9.86244965 39.66942215 21.60421944
v -17.39823914 39.88327026 21.65048218
v -17.39823914 39.88327026 21.65048218
v -9.86244965 39.66942215 21.60421944
v -9.88846207 39.22069550 21.66600037
v -17.39823914 39.88327026 21.65048218
v -9.88846207 39.22069550 21.66600037
v -17.42449570 39.43032455 21.65048218
v -17.42449570 39.43032455 21.65048218
v -9.88846207 39.22069550 21.66600037
v -9.91447544 38.77196503 21.60421944
v -17.42449570 39.43032455 21.65048218
v -9.91447544 38.77196503 21.60421944
v -17.44977951 38.99417496 21.52807426
v -17.44977951 38.99417496 21.52807426
v -9.91447544 38.77196503 21.60421944
v -9.93855858 38.35651779 21.42346191
v -17.44977951 38.99417496 21.52807426
v -9.93855858 38.35651779 21.42346191
v -17.47221375 38.60716629 21.29233551
v -17.47221375 38.60716629 21.29233551
v -9.93855858 38.35651779 21.42346191
v -9.95892620 38.00516129 21.13713264
v -17.47221375 38.60716629 21.29233551
v -9.95892620 38.00516129 21.13713264
v -17.49013710 38.29800797 20.96074867
v -17.49013710 38.29800797 20.96074867
v -9.95892620 38.00516129 21.13713264
v -9.97406864 37.74395752 20.76646805
v -17.49013710 38.29800797 20.96074867
v -9.97406864 37.74395752 20.76646805
v -17.50221634 38.08962250 20.55790901
v -17.50221634 38.08962250 20.55790901
v -9.97406864 37.74395752 20.76646805
v -9.98286152 37.59227371 20.33895683
v -17.50221634 38.08962250 20.55790901
v -9.98286152 37.59227371 20.33895683
v -17.50755882 37.99746704 20.11369133
v -17.50755882 37.99746704 20.11369133
v -9.98286152 37.59227371 20.33895683
v -9.98465347 37.56136322 19.88630867
v -17.50755882 37.99746704 20.11369133
v -9.98465347 37.56136322 19.88630867
v -17.50576591 38.02837753 19.66104317
v -17.50576591 38.02837753 19.66104317
v -9.98465347 37.56136322 19.88630867
v -9.97931099 37.65351868 19.44209099
v -17.50576591 38.02837753 19.66104317
v -9.97931099 37.65351868 19.44209099
v -17.49697304 38.18006134 19.23353195
v -17.49697304 38.18006134 19.23353195
v -9.97931099 37.65351868 19.44209099
v -9.96723175 37.86190414 19.03925133
v -17.49697304 38.18006134 19.23353195
v -9.96723175 37.86190414 19.03925133
v -17.48183250 38.44126511 18.86286736
v -17.48183250 38.44126511 18.86286736
v -9.96723175 37.86190414 19.03925133
v -9.94930935 38.17106247 18.70766449
v -17.48183250 38.44126511 18.86286736
v -9.94930935 38.17106247 18.70766449
v -17.46146393 38.79262161 18.57653809
v -17.46146393 38.79262161 18.57653809
v -9.94930935 38.17106247 18.70766449
v -9.92687416 38.55807114 18.47192574
v -17.46146393 38.79262161 18.57653809
v -9.92687416 38.55807114 18.47192574
v -17.43737984 39.20806885 18.39578056
v -17.43737984 39.20806885 18.39578056
v -9.92687416 38.55807114 18.47192574
v -9.90159130 38.99422073 18.34951782
v -17.41136742 39.65679550 18.33399963
v -17.38535500 40.10552597 18.39578056
v -17.43737984 39.20806885 18.39578056
v -17.43737984 39.20806885 18.39578056
v -17.38535500 40.10552597 18.39578056
v -17.46146393 38.79262161 18.57653809
v -17.46146393 38.79262161 18.57653809
v -17.38535500 40.10552597 18.39578056
v -17.36127090 40.52097321 18.57653809
v -17.46146393 38.79262161 18.57653809
v -17.36127090 40.52097321 18.57653809
v -17.48183250 38.44126511 18.86286736
v -17.48183250 38.44126511 18.86286736
v -17.36127090 40.52097321 18.57653809
v -17.34090233 40.87232971 18.86286736
v -17.48183250 38.44126511 18.86286736
v -17.34090233 40.87232971 18.86286736
v -17.49697304 38.18006134 19.23353195
v -17.49697304 38.18006134 19.23353195
v -17.34090233 40.87232971 18.86286736
v -17.32575989 41.13353348 19.23353195
v -17.49697304 38.18006134 19.23353195
v -17.32575989 41.13353348 19.23353195
v -17.50576591 38.02837753 19.66104317
v -17.50576591 38.02837753 19.66104317
v -17.32575989 41.13353348 19.23353195
v -17.31696701 41.28521729 19.66104317
v -17.50576591 38.02837753 19.66104317
v -17.31696701 41.28521729 19.66104317
v -17.50755882 37.99746704 20.11369133
v -17.50755882 37.99746704 20.11369133
v -17.31696701 41.28521729 19.66104317
v -17.50221634 38.08962250 20.55790901
v -17.50221634 38.08962250 20.55790901
v -17.31696701 41.28521729 19.66104317
v -17.49013710 38.29800797 20.96074867
v -17.49013710 38.29800797 20.96074867
v -17.31696701 41.28521729 19.66104317
v -17.47221375 38.60716629 21.29233551
v -17.47221375 38.60716629 21.29233551
v -17.31696701 41.28521729 19.66104317
v -17.44977951 38.99417496 21.52807426
v -17.44977951 38.99417496 21.52807426
v -17.31696701 41.28521729 19.66104317
v -17.42449570 39.43032455 21.65048218
v -17.42449570 39.43032455 21.65048218
v -17.31696701 41.28521729 19.66104317
v -17.39823914 39.88327026 21.65048218
v -17.39823914 39.88327026 21.65048218
v -17.31696701 41.28521729 19.66104317
v -17.37295532 40.31941986 21.52807426
v -17.37295532 40.31941986 21.52807426
v -17.31696701 41.28521729 19.66104317
v -17.35052109 40.70642853 21.29233551
v -17.35052109 40.70642853 21.29233551
v -17.31696701 41.28521729 19.66104317
v -17.33259773 41.01558685 20.96074867
v -17.33259773 41.01558685 20.96074867
v -17.31696701 41.28521729 19.66104317
v -17.32051849 41.22397232 20.55790901
v -17.32051849 41.22397232 20.55790901
v -17.31696701 41.28521729 19.66104317
v -17.31517601 41.31612778 20.11369133
v -16.94268417 102.00891876 18.55972481
v -17.47522736 92.02300262 18.78235245
v -16.88100815 102.00534821 19.00920486
v -16.88100815 102.00534821 19.00920486
v -17.47522736 92.02300262 18.78235245
v -17.47522736 92.02300262 19.23605919
v -16.88100815 102.00534821 19.00920486
v -17.47522736 92.02300262 19.23605919
v -16.94268417 102.00891876 19.45868683
v -16.94268417 102.00891876 19.45868683
v -17.47522736 92.02300262 19.23605919
v -17.59743118 92.03009033 19.67294121
v -16.94268417 102.00891876 19.45868683
v -17.59743118 92.03009033 19.67294121
v -17.12313843 102.01938629 19.87483215
v -17.12313843 102.01938629 19.87483215
v -17.59743118 92.03009033 19.67294121
v -17.83277512 92.04373169 20.06059837
v -17.12313843 102.01938629 19.87483215
v -17.83277512 92.04373169 20.06059837
v -17.40898705 102.03595734 20.22677803
v -17.40898705 102.03595734 20.22677803
v -17.83277512 92.04373169 20.06059837
v -18.16380501 92.06291962 20.37027740
v -17.40898705 102.03595734 20.22677803
v -18.16380501 92.06291962 20.37027740
v -17.77903175 102.05740356 20.48842239
v -17.77903175 102.05740356 20.48842239
v -18.16380501 92.06291962 20.37027740
v -18.56596947 92.08623505 20.57901192
v -17.77903175 102.05740356 20.48842239
v -18.56596947 92.08623505 20.57901192
v -18.20582581 102.08214569 20.64035988
v -18.20582581 102.08214569 20.64035988
v -18.56596947 92.08623505 20.57901192
v -19.00944138 92.11194611 20.67132187
v -18.20582581 102.08214569 20.64035988
v -19.00944138 92.11194611 20.67132187
v -18.65771675 102.10834503 20.67132187
v -18.65771675 102.10834503 20.67132187
v -19.00944138 92.11194611 20.67132187
v -19.46133232 92.13813782 20.64035988
v -18.65771675 102.10834503 20.67132187
v -19.46133232 92.13813782 20.64035988
v -19.10119057 102.13404846 20.57901192
v -19.10119057 102.13404846 20.57901192
v -19.46133232 92.13813782 20.64035988
v -19.88812637 92.16287994 20.48842239
v -19.10119057 102.13404846 20.57901192
v -19.88812637 92.16287994 20.48842239
v -19.50335503 102.15736389 20.37027740
v -19.50335503 102.15736389 20.37027740
v -19.88812637 92.16287994 20.48842239
v -20.25817108 92.18433380 20.22677803
v -19.50335503 102.15736389 20.37027740
v -20.25817108 92.18433380 20.22677803
v -19.83438492 102.17655182 20.06059837
v -19.83438492 102.17655182 20.06059837
v -20.25817108 92.18433380 20.22677803
v -20.54401970 92.20090485 19.87483215
v -19.83438492 102.17655182 20.06059837
v -20.54401970 92.20090485 19.87483215
v -20.06972885 102.19019318 19.67294121
v -20.06972885 102.19019318 19.67294121
v -20.54401970 92.20090485 19.87483215
v -20.72447586 92.21136475 19.45868683
v -20.06972885 102.19019318 19.67294121
v -20.72447586 92.21136475 19.45868683
v -20.19193268 102.19728088 19.23605919
v -20.19193268 102.19728088 19.23605919
v -20.72447586 92.21136475 19.45868683
v -20.78615189 92.21494293 19.00920486
v -20.19193268 102.19728088 19.23605919
v -20.78615189 92.21494293 19.00920486
v -20.19193268 102.19728088 18.78235245
v -20.19193268 102.19728088 18.78235245
v -20.78615189 92.21494293 19.00920486
v -20.72447586 92.21136475 18.55972481
v -20.19193268 102.19728088 18.78235245
v -20.72447586 92.21136475 18.55972481
v -20.06972885 102.19019318 18.34546852
v -20.06972885 102.19019318 18.34546852
v -20.72447586 92.21136475 18.55972481
v -20.54401970 92.20090485 18.14357948
v -20.06972885 102.19019318 18.34546852
v -20.54401970 92.20090485 18.14357948
v -19.83438492 102.17655182 17.95781326
v -19.83438492 102.17655182 17.95781326
v -20.54401970 92.20090485 18.14357948
v -20.25817108 92.18433380 17.79163361
v -19.83438492 102.17655182 17.95781326
v -20.25817108 92.18433380 17.79163361
v -19.50335503 102.15736389 17.64813423
v -19.50335503 102.15736389 17.64813423
v -20.25817108 92.18433380 17.79163361
v -19.88812637 92.16287994 17.52998924
v -19.50335503 102.15736389 17.64813423
v -19.88812637 92.16287994 17.52998924
v -19.10119057 102.13404846 17.43939972
v -19.10119057 102.13404846 17.43939972
v -19.88812637 92.16287994 17.52998924
v -19.46133232 92.13813782 17.37805176
v -19.10119057 102.13404846 17.43939972
v -19.46133232 92.13813782 17.37805176
v -18.65771675 102.10834503 17.34708977
v -18.65771675 102.10834503 17.34708977
v -19.46133232 92.13813782 17.37805176
v -19.00944138 92.11194611 17.34708977
v -18.65771675 102.10834503 17.34708977
v -19.00944138 92.11194611 17.34708977
v -18.20582581 102.08214569 17.37805176
v -18.20582581 102.08214569 17.37805176
v -19.00944138 92.11194611 17.34708977
v -18.56596947 92.08623505 17.43939972
v -18.20582581 102.08214569 17.37805176
v -18.56596947 92.08623505 17.43939972
v -17.77903175 102.05740356 17.52998924
v -17.77903175 102.05740356 17.52998924
v -18.56596947 92.08623505 17.43939972
v -18.16380501 92.06291962 17.64813423
v -17.77903175 102.05740356 17.52998924
v -18.16380501 92.06291962 17.64813423
v -17.40898705 102.03595734 17.79163361
v -17.40898705 102.03595734 17.79163361
v -18.16380501 92.06291962 17.64813423
v -17.83277512 92.04373169 17.95781326
v -17.40898705 102.03595734 17.79163361
v -17.83277512 92.04373169 17.95781326
v -17.12313843 102.01938629 18.14357948
v -17.12313843 102.01938629 18.14357948
v -17.83277512 92.04373169 17.95781326
v -17.59743118 92.03009033 18.34546852
v -17.12313843 102.01938629 18.14357948
v -17.59743118 92.03009033 18.34546852
v -16.94268417 102.00891876 18.55972481
v -16.94268417 102.00891876 18.55972481
v -17.59743118 92.03009033 18.34546852
v -17.47522736 92.02300262 18.78235245
v -20.78615189 92.21494293 19.00920486
v -20.72447586 92.21136475 19.45868683
v -20.72447586 92.21136475 18.55972481
v -20.72447586 92.21136475 18.55972481
v -20.72447586 92.21136475 19.45868683
v -20.54401970 92.20090485 18.14357948
v -20.54401970 92.20090485 18.14357948
v -20.72447586 92.21136475 19.45868683
v -20.54401970 92.20090485 19.87483215
v -20.54401970 92.20090485 18.14357948
v -20.54401970 92.20090485 19.87483215
v -20.25817108 92.18433380 17.79163361
v -20.25817108 92.18433380 17.79163361
v -20.54401970 92.20090485 19.87483215
v -20.25817108 92.18433380 20.22677803
v -20.25817108 92.18433380 17.79163361
v -20.25817108 92.18433380 20.22677803
v -19.88812637 92.16287994 17.52998924
v -19.88812637 92.16287994 17.52998924
v -20.25817108 92.18433380 20.22677803
v -19.88812637 92.16287994 20.48842239
v -19.88812637 92.16287994 17.52998924
v -19.88812637 92.16287994 20.48842239
v -19.46133232 92.13813782 17.37805176
v -19.46133232 92.13813782 17.37805176
v -19.88812637 92.16287994 20.48842239
v -19.46133232 92.13813782 20.64035988
v -19.46133232 92.13813782 17.37805176
v -19.46133232 92.13813782 20.64035988
v -19.00944138 92.11194611 17.34708977
v -19.00944138 92.11194611 17.34708977
v -19.46133232 92.13813782 20.64035988
v -18.56596947 92.08623505 17.43939972
v -18.56596947 92.08623505 17.43939972
v -19.46133232 92.13813782 20.64035988
v -18.16380501 92.06291962 17.64813423
v -18.16380501 92.06291962 17.64813423
v -19.46133232 92.13813782 20.64035988
v -17.83277512 92.04373169 17.95781326
v -17.83277512 92.04373169 17.95781326
v -19.46133232 92.13813782 20.64035988
v -17.59743118 92.03009033 18.34546852
v -17.59743118 92.03009033 18.34546852
v -19.46133232 92.13813782 20.64035988
v -17.47522736 92.02300262 18.78235245
v -17.47522736 92.02300262 18.78235245
v -19.46133232 92.13813782 20.64035988
v -17.47522736 92.02300262 19.23605919
v -17.47522736 92.02300262 19.23605919
v -19.46133232 92.13813782 20.64035988
v -17.59743118 92.03009033 19.67294121
v -17.59743118 92.03009033 19.67294121
v -19.46133232 92.13813782 20.64035988
v -17.83277512 92.04373169 20.06059837
v -17.83277512 92.04373169 20.06059837
v -19.46133232 92.13813782 20.64035988
v -18.16380501 92.06291962 20.37027740
v -18.16380501 92.06291962 20.37027740
v -19.46133232 92.13813782 20.64035988
v -18.56596947 92.08623505 20.57901192
v -18.56596947 92.08623505 20.57901192
v -19.46133232 92.13813782 20.64035988
v -19.00944138 92.11194611 20.67132187
v -36.90916443 103.16638184 18.55972481
v -37.44170761 93.18045807 18.78235245
v -36.84748840 103.16280365 19.00920486
v -36.84748840 103.16280365 19.00920486
v -37.44170761 93.18045807 18.78235245
v -37.44170761 93.18045807 19.23605919
v -36.84748840 103.16280365 19.00920486
v -37.44170761 93.18045807 19.23605919
v -36.90916443 103.16638184 19.45868683
v -36.90916443 103.16638184 19.45868683
v -37.44170761 93.18045807 19.23605919
v -37.56391144 93.18754578 19.67294121
v -36.90916443 103.16638184 19.45868683
v -37.56391144 93.18754578 19.67294121
v -37.08961868 103.17684174 19.87483215
v -37.08961868 103.17684174 19.87483215
v -37.56391144 93.18754578 19.67294121
v -37.79925537 93.20118713 20.06059837
v -37.08961868 103.17684174 19.87483215
v -37.79925537 93.20118713 20.06059837
v -37.37546539 103.19341278 20.22677803
v -37.37546539 103.19341278 20.22677803
v -37.79925537 93.20118713 20.06059837
v -38.13028336 93.22037506 20.37027740
v -37.37546539 103.19341278 20.22677803
v -38.13028336 93.22037506 20.37027740
v -37.74551010 103.21485901 20.48842239
v -37.74551010 103.21485901 20.48842239
v -38.13028336 93.22037506 20.37027740
v -38.53244781 93.24369049 20.57901192
v -37.74551010 103.21485901 20.48842239
v -38.53244781 93.24369049 20.57901192
v -38.17230606 103.23960114 20.64035988
v -38.17230606 103.23960114 20.64035988
v -38.53244781 93.24369049 20.57901192
v -38.97592163 93.26940155 20.67132187
v -38.17230606 103.23960114 20.64035988
v -38.97592163 93.26940155 20.67132187
v -38.62419510 103.26580048 20.67132187
v -38.62419510 103.26580048 20.67132187
v -38.97592163 93.26940155 20.67132187
v -39.42781067 93.29559326 20.64035988
v -38.62419510 103.26580048 20.67132187
v -39.42781067 93.29559326 20.64035988
v -39.06766891 103.29150391 20.57901192
v -39.06766891 103.29150391 20.57901192
v -39.42781067 93.29559326 20.64035988
v -39.85460663 93.32033539 20.48842239
v -39.06766891 103.29150391 20.57901192
v -39.85460663 93.32033539 20.48842239
v -39.46983337 103.31481934 20.37027740
v -39.46983337 103.31481934 20.37027740
v -39.85460663 93.32033539 20.48842239
v -40.22465134 93.34178925 20.22677803
v -39.46983337 103.31481934 20.37027740
v -40.22465134 93.34178925 20.22677803
v -39.80086517 103.33400726 20.06059837
v -39.80086517 103.33400726 20.06059837
v -40.22465134 93.34178925 20.22677803
v -40.51049805 93.35836029 19.87483215
v -39.80086517 103.33400726 20.06059837
v -40.51049805 93.35836029 19.87483215
v -40.03620911 103.34765625 19.67294121
v -40.03620911 103.34765625 19.67294121
v -40.51049805 93.35836029 19.87483215
v -40.69095612 93.36882019 19.45868683
v -40.03620911 103.34765625 19.67294121
v -40.69095612 93.36882019 19.45868683
v -40.15841293 103.35473633 19.23605919
v -40.15841293 103.35473633 19.23605919
v -40.69095612 93.36882019 19.45868683
v -40.75263214 93.37239838 19.00920486
v -40.15841293 103.35473633 19.23605919
v -40.75263214 93.37239838 19.00920486
v -40.15841293 103.35473633 18.78235245
v -40.15841293 103.35473633 18.78235245
v -40.75263214 93.37239838 19.00920486
v -40.69095612 93.36882019 18.55972481
v -40.15841293 103.35473633 18.78235245
v -40.69095612 93.36882019 18.55972481
v -40.03620911 103.34765625 18.34546852
v -40.03620911 103.34765625 18.34546852
v -40.69095612 93.36882019 18.55972481
v -40.51049805 93.35836029 18.14357948
v -40.03620911 103.34765625 18.34546852
v -40.51049805 93.35836029 18.14357948
v -39.80086517 103.33400726 17.95781326
v -39.80086517 103.33400726 17.95781326
v -40.51049805 93.35836029 18.14357948
v -40.22465134 93.34178925 17.79163361
v -39.80086517 103.33400726 17.95781326
v -40.22465134 93.34178925 17.79163361
v -39.46983337 103.31481934 17.64813423
v -39.46983337 103.31481934 17.64813423
v -40.22465134 93.34178925 17.79163361
v -39.85460663 93.32033539 17.52998924
v -39.46983337 103.31481934 17.64813423
v -39.85460663 93.32033539 17.52998924
v -39.06766891 103.29150391 17.43939972
v -39.06766891 103.29150391 17.43939972
v -39.85460663 93.32033539 17.52998924
v -39.42781067 93.29559326 17.37805176
v -39.06766891 103.29150391 17.43939972
v -39.42781067 93.29559326 17.37805176
v -38.62419510 103.26580048 17.34708977
v -38.62419510 103.26580048 17.34708977
v -39.42781067 93.29559326 17.37805176
v -38.97592163 93.26940155 17.34708977
v -38.62419510 103.26580048 17.34708977
v -38.97592163 93.26940155 17.34708977
v -38.17230606 103.23960114 17.37805176
v -38.17230606 103.23960114 17.37805176
v -38.97592163 93.26940155 17.34708977
v -38.53244781 93.24369049 17.43939972
v -38.17230606 103.23960114 17.37805176
v -38.53244781 93.24369049 17.43939972
v -37.74551010 103.21485901 17.52998924
v -37.74551010 103.21485901 17.52998924
v -38.53244781 93.24369049 17.43939972
v -38.13028336 93.22037506 17.64813423
v -37.74551010 103.21485901 17.52998924
v -38.13028336 93.22037506 17.64813423
v -37.37546539 103.19341278 17.79163361
v -37.37546539 103.19341278 17.79163361
v -38.13028336 93.22037506 17.64813423
v -37.79925537 93.20118713 17.95781326
v -37.37546539 103.19341278 17.79163361
v -37.79925537 93.20118713 17.95781326
v -37.08961868 103.17684174 18.14357948
v -37.08961868 103.17684174 18.14357948
v -37.79925537 93.20118713 17.95781326
v -37.56391144 93.18754578 18.34546852
v -37.08961868 103.17684174 18.14357948
v -37.56391144 93.18754578 18.34546852
v -36.90916443 103.16638184 18.55972481
v -36.90916443 103.16638184 18.55972481
v -37.56391144 93.18754578 18.34546852
v -37.44170761 93.18045807 18.78235245
v -40.75263214 93.37239838 19.00920486
v -40.69095612 93.36882019 19.45868683
v -40.69095612 93.36882019 18.55972481
v -40.69095612 93.36882019 18.55972481
v -40.69095612 93.36882019 19.45868683
v -40.51049805 93.35836029 18.14357948
v -40.51049805 93.35836029 18.14357948
v -40.69095612 93.36882019 19.45868683
v -40.51049805 93.35836029 19.87483215
v -40.51049805 93.35836029 18.14357948
v -40.51049805 93.35836029 19.87483215
v -40.22465134 93.34178925 17.79163361
v -40.22465134 93.34178925 17.79163361
v -40.51049805 93.35836029 19.87483215
v -40.22465134 93.34178925 20.22677803
v -40.22465134 93.34178925 17.79163361
v -40.22465134 93.34178925 20.22677803
v -39.85460663 93.32033539 17.52998924
v -39.85460663 93.32033539 17.52998924
v -40.22465134 93.34178925 20.22677803
v -39.85460663 93.32033539 20.48842239
v -39.85460663 93.32033539 17.52998924
v -39.85460663 93.32033539 20.48842239
v -39.42781067 93.29559326 17.37805176
v -39.42781067 93.29559326 17.37805176
v -39.85460663 93.32033539 20.48842239
v -39.42781067 93.29559326 20.64035988
v -39.42781067 93.29559326 17.37805176
v -39.42781067 93.29559326 20.64035988
v -38.97592163 93.26940155 17.34708977
v -38.97592163 93.26940155 17.34708977
v -39.42781067 93.29559326 20.64035988
v -38.53244781 93.24369049 17.43939972
v -38.53244781 93.24369049 17.43939972
v -39.42781067 93.29559326 20.64035988
v -38.13028336 93.22037506 17.64813423
v -38.13028336 93.22037506 17.64813423
v -39.42781067 93.29559326 20.64035988
v -37.79925537 93.20118713 17.95781326
v -37.79925537 93.20118713 17.95781326
v -39.42781067 93.29559326 20.64035988
v -37.56391144 93.18754578 18.34546852
v -37.56391144 93.18754578 18.34546852
v -39.42781067 93.29559326 20.64035988
v -37.44170761 93.18045807 18.78235245
v -37.44170761 93.18045807 18.78235245
v -39.42781067 93.29559326 20.64035988
v -37.44170761 93.18045807 19.23605919
v -37.44170761 93.18045807 19.23605919
v -39.42781067 93.29559326 20.64035988
v -37.56391144 93.18754578 19.67294121
v -37.56391144 93.18754578 19.67294121
v -39.42781067 93.29559326 20.64035988
v -37.79925537 93.20118713 20.06059837
v -37.79925537 93.20118713 20.06059837
v -39.42781067 93.29559326 20.64035988
v -38.13028336 93.22037506 20.37027740
v -38.13028336 93.22037506 20.37027740
v -39.42781067 93.29559326 20.64035988
v -38.53244781 93.24369049 20.57901192
v -38.53244781 93.24369049 20.57901192
v -39.42781067 93.29559326 20.64035988
v -38.97592163 93.26940155 20.67132187
v -48.28140640 103.82563019 15.00000000
v -53.04287720 21.68877792 15.00000000
v -48.28140640 103.82563019 25.00000000
v -48.28140640 103.82563019 25.00000000
v -53.04287720 21.68877792 15.00000000
v -53.04287720 21.68877792 25.00000000
v -3.52301359 18.81811333 25.00000000
v 1.23845804 100.95496368 25.00000000
v -53.04287720 21.68877792 25.00000000
v -53.04287720 21.68877792 25.00000000
v 1.23845804 100.95496368 25.00000000
v -48.28140640 103.82563019 25.00000000
v 1.23845804 100.95496368 15.00000000
v -3.52301359 18.81811333 15.00000000
v -48.28140640 103.82563019 15.00000000
v -48.28140640 103.82563019 15.00000000
v -3.52301359 18.81811333 15.00000000
v -53.04287720 21.68877792 15.00000000
v -16.94268417 102.00891876 18.55972481
v -16.88100815 102.00534821 19.00920486
v 1.23845804 100.95496368 15.00000000
v 1.23845804 100.95496368 15.00000000
v -16.88100815 102.00534821 19.00920486
v -16.94268417 102.00891876 19.45868683
v 1.23845804 100.95496368 15.00000000
v -16.94268417 102.00891876 19.45868683
v 1.23845804 100.95496368 25.00000000
v 1.23845804 100.95496368 25.00000000
v -16.94268417 102.00891876 19.45868683
v -17.12313843 102.01938629 19.87483215
v 1.23845804 100.95496368 25.00000000
v -17.12313843 102.01938629 19.87483215
v -17.40898705 102.03595734 20.22677803
v -17.40898705 102.03595734 20.22677803
v -17.77903175 102.05740356 20.48842239
v 1.23845804 100.95496368 25.00000000
v 1.23845804 100.95496368 25.00000000
v -17.77903175 102.05740356 20.48842239
v -18.20582581 102.08214569 20.64035988
v 1.23845804 100.95496368 25.00000000
v -18.20582581 102.08214569 20.64035988
v -18.65771675 102.10834503 20.67132187
v -19.10119057 102.13404846 20.57901192
v -38.17230606 103.23960114 20.64035988
v -18.65771675 102.10834503 20.67132187
v -18.65771675 102.10834503 20.67132187
v -38.17230606 103.23960114 20.64035988
v -48.28140640 103.82563019 25.00000000
v -18.65771675 102.10834503 20.67132187
v -48.28140640 103.82563019 25.00000000
v 1.23845804 100.95496368 25.00000000
v -38.17230606 103.23960114 20.64035988
v -19.10119057 102.13404846 20.57901192
v -37.74551010 103.21485901 20.48842239
v -37.74551010 103.21485901 20.48842239
v -19.10119057 102.13404846 20.57901192
v -19.50335503 102.15736389 20.37027740
v -37.74551010 103.21485901 20.48842239
v -19.50335503 102.15736389 20.37027740
v -37.37546539 103.19341278 20.22677803
v -37.37546539 103.19341278 20.22677803
v -19.50335503 102.15736389 20.37027740
v -19.83438492 102.17655182 20.06059837
v -37.37546539 103.19341278 20.22677803
v -19.83438492 102.17655182 20.06059837
v -37.08961868 103.17684174 19.87483215
v -37.08961868 103.17684174 19.87483215
v -19.83438492 102.17655182 20.06059837
v -20.06972885 102.19019318 19.67294121
v -37.08961868 103.17684174 19.87483215
v -20.06972885 102.19019318 19.67294121
v -36.90916443 103.16638184 19.45868683
v -36.90916443 103.16638184 19.45868683
v -20.06972885 102.19019318 19.67294121
v -20.19193268 102.19728088 19.23605919
v -36.90916443 103.16638184 19.45868683
v -20.19193268 102.19728088 19.23605919
v -36.84748840 103.16280365 19.00920486
v -36.84748840 103.16280365 19.00920486
v -20.19193268 102.19728088 19.23605919
v -20.19193268 102.19728088 18.78235245
v -36.84748840 103.16280365 19.00920486
v -20.19193268 102.19728088 18.78235245
v -36.90916443 103.16638184 18.55972481
v -36.90916443 103.16638184 18.55972481
v -20.19193268 102.19728088 18.78235245
v -20.06972885 102.19019318 18.34546852
v -36.90916443 103.16638184 18.55972481
v -20.06972885 102.19019318 18.34546852
v -37.08961868 103.17684174 18.14357948
v -37.08961868 103.17684174 18.14357948
v -20.06972885 102.19019318 18.34546852
v -19.83438492 102.17655182 17.95781326
v -37.08961868 103.17684174 18.14357948
v -19.83438492 102.17655182 17.95781326
v -37.37546539 103.19341278 17.79163361
v -37.37546539 103.19341278 17.79163361
v -19.83438492 102.17655182 17.95781326
v -19.50335503 102.15736389 17.64813423
v -37.37546539 103.19341278 17.79163361
v -19.50335503 102.15736389 17.64813423
v -37.74551010 103.21485901 17.52998924
v -37.74551010 103.21485901 17.52998924
v -19.50335503 102.15736389 17.64813423
v -19.10119057 102.13404846 17.43939972
v -37.74551010 103.21485901 17.52998924
v -19.10119057 102.13404846 17.43939972
v -38.17230606 103.23960114 17.37805176
v -38.17230606 103.23960114 17.37805176
v -19.10119057 102.13404846 17.43939972
v -18.65771675 102.10834503 17.34708977
v -38.17230606 103.23960114 17.37805176
v -18.65771675 102.10834503 17.34708977
v -48.28140640 103.82563019 15.00000000
v -48.28140640 103.82563019 15.00000000
v -18.65771675 102.10834503 17.34708977
v 1.23845804 100.95496368 15.00000000
v 1.23845804 100.95496368 15.00000000
v -18.65771675 102.10834503 17.34708977
v -18.20582581 102.08214569 17.37805176
v 1.23845804 100.95496368 15.00000000
v -18.20582581 102.08214569 17.37805176
v -17.77903175 102.05740356 17.52998924
v -17.77903175 102.05740356 17.52998924
v -17.40898705 102.03595734 17.79163361
v 1.23845804 100.95496368 15.00000000
v 1.23845804 100.95496368 15.00000000
v -17.40898705 102.03595734 17.79163361
v -17.12313843 102.01938629 18.14357948
v 1.23845804 100.95496368 15.00000000
v -17.12313843 102.01938629 18.14357948
v -16.94268417 102.00891876 18.55972481
v -38.17230606 103.23960114 20.64035988
v -38.62419510 103.26580048 20.67132187
v -48.28140640 103.82563019 25.00000000
v -48.28140640 103.82563019 25.00000000
v -38.62419510 103.26580048 20.67132187
v -39.06766891 103.29150391 20.57901192
v -48.28140640 103.82563019 25.00000000
v -39.06766891 103.29150391 20.57901192
v -39.46983337 103.31481934 20.37027740
v -39.46983337 103.31481934 20.37027740
v -39.80086517 103.33400726 20.06059837
v -48.28140640 103.82563019 25.00000000
v -48.28140640 103.82563019 25.00000000
v -39.80086517 103.33400726 20.06059837
v -40.03620911 103.34765625 19.67294121
v -48.28140640 103.82563019 25.00000000
v -40.03620911 103.34765625 19.67294121
v -48.28140640 103.82563019 15.00000000
v -48.28140640 103.82563019 15.00000000
v -40.03620911 103.34765625 19.67294121
v -40.15841293 103.35473633 19.23605919
v -48.28140640 103.82563019 15.00000000
v -40.15841293 103.35473633 19.23605919
v -40.15841293 103.35473633 18.78235245
v -40.15841293 103.35473633 18.78235245
v -40.03620911 103.34765625 18.34546852
v -48.28140640 103.82563019 15.00000000
v -48.28140640 103.82563019 15.00000000
v -40.03620911 103.34765625 18.34546852
v -39.80086517 103.33400726 17.95781326
v -48.28140640 103.82563019 15.00000000
v -39.80086517 103.33400726 17.95781326
v -39.46983337 103.31481934 17.64813423
v -39.46983337 103.31481934 17.64813423
v -39.06766891 103.29150391 17.43939972
v -48.28140640 103.82563019 15.00000000
v -48.28140640 103.82563019 15.00000000
v -39.06766891 103.29150391 17.43939972
v -38.62419510 103.26580048 17.34708977
v -48.28140640 103.82563019 15.00000000
v -38.62419510 103.26580048 17.34708977
v -38.17230606 103.23960114 17.37805176
v 0.10701431 81.43721008 21.60421944
v 1.23845804 100.95496368 25.00000000
v 0.08100155 80.98847961 21.66600037
v 0.08100155 80.98847961 21.66600037
v 1.23845804 100.95496368 25.00000000
v -3.52301359 18.81811333 25.00000000
v 0.08100155 80.98847961 21.66600037
v -3.52301359 18.81811333 25.00000000
v -2.36555719 38.78459167 21.66600037
v -2.36555719 38.78459167 21.66600037
v -3.52301359 18.81811333 25.00000000
v -2.39157009 38.33586502 21.60421944
v -2.39157009 38.33586502 21.60421944
v -3.52301359 18.81811333 25.00000000
v -2.41565347 37.92041397 21.42346191
v -2.41565347 37.92041397 21.42346191
v -3.52301359 18.81811333 25.00000000
v -2.43602157 37.56906128 21.13713264
v -2.43602157 37.56906128 21.13713264
v -3.52301359 18.81811333 25.00000000
v -2.45116377 37.30785370 20.76646805
v -2.45116377 37.30785370 20.76646805
v -3.52301359 18.81811333 25.00000000
v -2.45995665 37.15616989 20.33895683
v -2.45995665 37.15616989 20.33895683
v -3.52301359 18.81811333 25.00000000
v -2.46174860 37.12526321 19.88630867
v -2.46174860 37.12526321 19.88630867
v -3.52301359 18.81811333 25.00000000
v -3.52301359 18.81811333 15.00000000
v -2.46174860 37.12526321 19.88630867
v -3.52301359 18.81811333 15.00000000
v -2.45640635 37.21741486 19.44209099
v -2.45640635 37.21741486 19.44209099
v -3.52301359 18.81811333 15.00000000
v -2.44432640 37.42580032 19.03925133
v -2.44432640 37.42580032 19.03925133
v -3.52301359 18.81811333 15.00000000
v -2.42640424 37.73496246 18.70766449
v -2.42640424 37.73496246 18.70766449
v -3.52301359 18.81811333 15.00000000
v -2.40396953 38.12196732 18.47192574
v -2.40396953 38.12196732 18.47192574
v -3.52301359 18.81811333 15.00000000
v -2.37868595 38.55811691 18.34951782
v -2.37868595 38.55811691 18.34951782
v -3.52301359 18.81811333 15.00000000
v -2.35242867 39.01106644 18.34951782
v -2.35242867 39.01106644 18.34951782
v -3.52301359 18.81811333 15.00000000
v 1.23845804 100.95496368 15.00000000
v -2.35242867 39.01106644 18.34951782
v 1.23845804 100.95496368 15.00000000
v 0.06787289 80.76200867 18.34951782
v 0.06787289 80.76200867 18.34951782
v 1.23845804 100.95496368 15.00000000
v 0.09413021 81.21495819 18.34951782
v 0.09413021 81.21495819 18.34951782
v 1.23845804 100.95496368 15.00000000
v 0.11941384 81.65110779 18.47192574
v 0.11941384 81.65110779 18.47192574
v 1.23845804 100.95496368 15.00000000
v 0.14184859 82.03810883 18.70766449
v 0.14184859 82.03810883 18.70766449
v 1.23845804 100.95496368 15.00000000
v 0.15977062 82.34727478 19.03925133
v 0.15977062 82.34727478 19.03925133
v 1.23845804 100.95496368 15.00000000
v 0.17185070 82.55565643 19.44209099
v 0.17185070 82.55565643 19.44209099
v 1.23845804 100.95496368 15.00000000
v 0.17719290 82.64781189 19.88630867
v 0.17719290 82.64781189 19.88630867
v 1.23845804 100.95496368 15.00000000
v 1.23845804 100.95496368 25.00000000
v 0.17719290 82.64781189 19.88630867
v 1.23845804 100.95496368 25.00000000
v 0.17540103 82.61690521 20.33895683
v 0.17540103 82.61690521 20.33895683
v 1.23845804 100.95496368 25.00000000
v 0.16660799 82.46521759 20.76646805
v 0.16660799 82.46521759 20.76646805
v 1.23845804 100.95496368 25.00000000
v 0.15146592 82.20401764 21.13713264
v 0.15146592 82.20401764 21.13713264
v 1.23845804 100.95496368 25.00000000
v 0.13109782 81.85266113 21.42346191
v 0.13109782 81.85266113 21.42346191
v 1.23845804 100.95496368 25.00000000
v 0.10701431 81.43721008 21.60421944
v -2.35242867 39.01106644 18.34951782
v 0.06787289 80.76200867 18.34951782
v -2.32714486 39.44721603 18.47192574
v -2.32714486 39.44721603 18.47192574
v 0.06787289 80.76200867 18.34951782
v 0.04258926 80.32585907 18.47192574
v -2.32714486 39.44721603 18.47192574
v 0.04258926 80.32585907 18.47192574
v -2.30471015 39.83422089 18.70766449
v -2.30471015 39.83422089 18.70766449
v 0.04258926 80.32585907 18.47192574
v 0.02015449 79.93885040 18.70766449
v -2.30471015 39.83422089 18.70766449
v 0.02015449 79.93885040 18.70766449
v -2.28678823 40.14338303 19.03925133
v -2.28678823 40.14338303 19.03925133
v 0.02015449 79.93885040 18.70766449
v 0.00223248 79.62969208 19.03925133
v -2.28678823 40.14338303 19.03925133
v 0.00223248 79.62969208 19.03925133
v -2.27470803 40.35176849 19.44209099
v -2.27470803 40.35176849 19.44209099
v 0.00223248 79.62969208 19.03925133
v -0.00984760 79.42130280 19.44209099
v -2.27470803 40.35176849 19.44209099
v -0.00984760 79.42130280 19.44209099
v -2.26936579 40.44392395 19.88630867
v -2.26936579 40.44392395 19.88630867
v -0.00984760 79.42130280 19.44209099
v -0.01518981 79.32915497 19.88630867
v -2.26936579 40.44392395 19.88630867
v -0.01518981 79.32915497 19.88630867
v -2.27115774 40.41301346 20.33895683
v -2.27115774 40.41301346 20.33895683
v -0.01518981 79.32915497 19.88630867
v -0.01339794 79.36006165 20.33895683
v -2.27115774 40.41301346 20.33895683
v -0.01339794 79.36006165 20.33895683
v -2.27995086 40.26132965 20.76646805
v -2.27995086 40.26132965 20.76646805
v -0.01339794 79.36006165 20.33895683
v -0.00460490 79.51174164 20.76646805
v -2.27995086 40.26132965 20.76646805
v -0.00460490 79.51174164 20.76646805
v -2.29509282 40.00012207 21.13713264
v -2.29509282 40.00012207 21.13713264
v -0.00460490 79.51174164 20.76646805
v 0.01053718 79.77294922 21.13713264
v -2.29509282 40.00012207 21.13713264
v 0.01053718 79.77294922 21.13713264
v -2.31546092 39.64876938 21.42346191
v -2.31546092 39.64876938 21.42346191
v 0.01053718 79.77294922 21.13713264
v 0.03090528 80.12430573 21.42346191
v -2.31546092 39.64876938 21.42346191
v 0.03090528 80.12430573 21.42346191
v -2.33954453 39.23331833 21.60421944
v -2.33954453 39.23331833 21.60421944
v 0.03090528 80.12430573 21.42346191
v 0.05498879 80.53975677 21.60421944
v -2.33954453 39.23331833 21.60421944
v 0.05498879 80.53975677 21.60421944
v -2.36555719 38.78459167 21.66600037
v -2.36555719 38.78459167 21.66600037
v 0.05498879 80.53975677 21.60421944
v 0.08100155 80.98847961 21.66600037
v -25.09102440 20.06840897 20.44948196
v -41.80825424 21.03750801 20.22685432
v -25.15270042 20.07198524 20.00000000
v -25.15270042 20.07198524 20.00000000
v -41.80825424 21.03750801 20.22685432
v -41.80825424 21.03750801 19.77314568
v -25.15270042 20.07198524 20.00000000
v -41.80825424 21.03750801 19.77314568
v -25.09102440 20.06840897 19.55051804
v -25.09102440 20.06840897 19.55051804
v -41.80825424 21.03750801 19.77314568
v -41.93045807 21.04459190 19.33626366
v -25.09102440 20.06840897 19.55051804
v -41.93045807 21.04459190 19.33626366
v -24.91057014 20.05794907 19.13437271
v -24.91057014 20.05794907 19.13437271
v -41.93045807 21.04459190 19.33626366
v -42.16580200 21.05823517 18.94860840
v -24.91057014 20.05794907 19.13437271
v -42.16580200 21.05823517 18.94860840
v -24.62472153 20.04137802 18.78242683
v -24.62472153 20.04137802 18.78242683
v -42.16580200 21.05823517 18.94860840
v -42.49683380 21.07742500 18.63892746
v -24.62472153 20.04137802 18.78242683
v -42.49683380 21.07742500 18.63892746
v -24.25467682 20.01992607 18.52078247
v -24.25467682 20.01992607 18.52078247
v -42.49683380 21.07742500 18.63892746
v -42.89899826 21.10073853 18.43019295
v -24.25467682 20.01992607 18.52078247
v -42.89899826 21.10073853 18.43019295
v -23.82788277 19.99518585 18.36884499
v -23.82788277 19.99518585 18.36884499
v -42.89899826 21.10073853 18.43019295
v -43.34247208 21.12644577 18.33788300
v -23.82788277 19.99518585 18.36884499
v -43.34247208 21.12644577 18.33788300
v -53.04287720 21.68877792 15.00000000
v -53.04287720 21.68877792 15.00000000
v -43.34247208 21.12644577 18.33788300
v -43.79436111 21.15264130 18.36884499
v -53.04287720 21.68877792 15.00000000
v -43.79436111 21.15264130 18.36884499
v -44.22115707 21.17738342 18.52078247
v -41.80825424 21.03750801 20.22685432
v -25.09102440 20.06840897 20.44948196
v -41.93045807 21.04459190 20.66373634
v -41.93045807 21.04459190 20.66373634
v -25.09102440 20.06840897 20.44948196
v -24.91057014 20.05794907 20.86562729
v -41.93045807 21.04459190 20.66373634
v -24.91057014 20.05794907 20.86562729
v -42.16580200 21.05823517 21.05139160
v -42.16580200 21.05823517 21.05139160
v -24.91057014 20.05794907 20.86562729
v -24.62472153 20.04137802 21.21757317
v -42.16580200 21.05823517 21.05139160
v -24.62472153 20.04137802 21.21757317
v -42.49683380 21.07742500 21.36107254
v -42.49683380 21.07742500 21.36107254
v -24.62472153 20.04137802 21.21757317
v -24.25467682 20.01992607 21.47921753
v -42.49683380 21.07742500 21.36107254
v -24.25467682 20.01992607 21.47921753
v -42.89899826 21.10073853 21.56980705
v -42.89899826 21.10073853 21.56980705
v -24.25467682 20.01992607 21.47921753
v -23.82788277 19.99518585 21.63115501
v -42.89899826 21.10073853 21.56980705
v -23.82788277 19.99518585 21.63115501
v -43.34247208 21.12644577 21.66211700
v -43.34247208 21.12644577 21.66211700
v -23.82788277 19.99518585 21.63115501
v -53.04287720 21.68877792 25.00000000
v -43.34247208 21.12644577 21.66211700
v -53.04287720 21.68877792 25.00000000
v -43.79436111 21.15264130 21.63115501
v -43.79436111 21.15264130 21.63115501
v -53.04287720 21.68877792 25.00000000
v -44.22115707 21.17738342 21.47921753
v -44.22115707 21.17738342 21.47921753
v -53.04287720 21.68877792 25.00000000
v -44.59120178 21.19883537 21.21757317
v -44.59120178 21.19883537 21.21757317
v -53.04287720 21.68877792 25.00000000
v -44.87704849 21.21540451 20.86562729
v -44.87704849 21.21540451 20.86562729
v -53.04287720 21.68877792 25.00000000
v -45.05750275 21.22586632 20.44948196
v -45.05750275 21.22586632 20.44948196
v -53.04287720 21.68877792 25.00000000
v -45.11917877 21.22944260 20.00000000
v -45.11917877 21.22944260 20.00000000
v -53.04287720 21.68877792 25.00000000
v -53.04287720 21.68877792 15.00000000
v -45.11917877 21.22944260 20.00000000
v -53.04287720 21.68877792 15.00000000
v -45.05750275 21.22586632 19.55051804
v -45.05750275 21.22586632 19.55051804
v -53.04287720 21.68877792 15.00000000
v -44.87704849 21.21540451 19.13437271
v -44.87704849 21.21540451 19.13437271
v -53.04287720 21.68877792 15.00000000
v -44.59120178 21.19883537 18.78242683
v -44.59120178 21.19883537 18.78242683
v -53.04287720 21.68877792 15.00000000
v -44.22115707 21.17738342 18.52078247
v -23.82788277 19.99518585 21.63115501
v -23.37599182 19.96899033 21.66211700
v -53.04287720 21.68877792 25.00000000
v -53.04287720 21.68877792 25.00000000
v -23.37599182 19.96899033 21.66211700
v -3.52301359 18.81811333 25.00000000
v -3.52301359 18.81811333 25.00000000
v -23.37599182 19.96899033 21.66211700
v -22.93251801 19.94328117 21.56980705
v -3.52301359 18.81811333 25.00000000
v -22.93251801 19.94328117 21.56980705
v -22.53035355 19.91996765 21.36107254
v -22.53035355 19.91996765 21.36107254
v -22.19932365 19.90077782 21.05139160
v -3.52301359 18.81811333 25.00000000
v -3.52301359 18.81811333 25.00000000
v -22.19932365 19.90077782 21.05139160
v -21.96397972 19.88713455 20.66373634
v -3.52301359 18.81811333 25.00000000
v -21.96397972 19.88713455 20.66373634
v -21.84177589 19.88005066 20.22685432
v -3.52301359 18.81811333 25.00000000
v -21.84177589 19.88005066 20.22685432
v -3.52301359 18.81811333 15.00000000
v -3.52301359 18.81811333 15.00000000
v -21.84177589 19.88005066 20.22685432
v -21.84177589 19.88005066 19.77314568
v -3.52301359 18.81811333 15.00000000
v -21.84177589 19.88005066 19.77314568
v -21.96397972 19.88713455 19.33626366
v -21.96397972 19.88713455 19.33626366
v -22.19932365 19.90077782 18.94860840
v -3.52301359 18.81811333 15.00000000
v -3.52301359 18.81811333 15.00000000
v -22.19932365 19.90077782 18.94860840
v -22.53035355 19.91996765 18.63892746
v -3.52301359 18.81811333 15.00000000
v -22.53035355 19.91996765 18.63892746
v -22.93251801 19.94328117 18.43019295
v -22.93251801 19.94328117 18.43019295
v -23.37599182 19.96899033 18.33788300
v -3.52301359 18.81811333 15.00000000
v -3.52301359 18.81811333 15.00000000
v -23.37599182 19.96899033 18.33788300
v -53.04287720 21.68877792 15.00000000
v -53.04287720 21.68877792 15.00000000
v -23.37599182 19.96899033 18.33788300
v -23.82788277 19.99518585 18.36884499
f 1 2 3
f 4 5 6
f 7 8 9
f 10 11 12
f 13 14 15
f 16 17 18
f 19 20 21
f 22 23 24
f 25 26 27
f 28 29 30
f 31 32 33
f 34 35 36
f 37 38 39
f 40 41 42
f 43 44 45
f 46 47 48
f 49 50 51
f 52 53 54
f 55 56 57
f 58 59 60
f 61 62 63
f 64 65 66
f 67 68 69
f 70 71 72
f 73 74 75
f 76 77 78
f 79 80 81
f 82 83 84
f 85 86 87
f 88 89 90
f 91 92 93
f 94 95 96
f 97 98 99
f 100 101 102
f 103 104 105
f 106 107 108
f 109 110 111
f 112 113 114
f 115 116 117
f 118 119 120
f 121 122 123
f 124 125 126
f 127 128 129
f 130 131 132
f 133 134 135
f 136 137 138
f 139 140 141
f 142 143 144
f 145 146 147
f 148 149 150
f 151 152 153
f 154 155 156
f 157 158 159
f 160 161 162
f 163 164 165
f 166 167 168
f 169 170 171
f 172 173 174
f 175 176 177
f 178 179 180
f 181 182 183
f 184 185 186
f 187 188 189
f 190 191 192
f 193 194 195
f 196 197 198
f 199 200 201
f 202 203 204
f 205 206 207
f 208 209 210
f 211 212 213
f 214 215 216
f 217 218 219
f 220 221 222
f 223 224 225
f 226 227 228
f 229 230 231
f 232 233 234
f 235 236 237
f 238 239 240
f 241 242 243
f 244 245 246
f 247 248 249
f 250 251 252
f 253 254 255
f 256 257 258
f 259 260 261
f 262 263 264
f 265 266 267
f 268 269 270
f 271 272 273
f 274 275 276
f 277 278 279
f 280 281 282
f 283 284 285
f 286 287 288
f 289 290 291
f 292 293 294
f 295 296 297
f 298 299 300
f 301 302 303
f 304 305 306
f 307 308 309
f 310 311 312
f 313 314 315
f 316 317 318
f 319 320 321
f 322 323 324
f 325 326 327
f 328 329 330
f 331 332 333
f 334 335 336
f 337 338 339
f 340 341 342
f 343 344 345
f 346 347 348
f 349 350 351
f 352 353 354
f 355 356 357
f 358 359 360
f 361 362 363
f 364 365 366
f 367 368 369
f 370 371 372
f 373 374 375
f 376 377 378
f 379 380 381
f 382 383 384
f 385 386 387
f 388 389 390
f 391 392 393
f 394 395 396
f 397 398 399
f 400 401 402
f 403 404 405
f 406 407 408
f 409 410 411
f 412 413 414
f 415 416 417
f 418 419 420
f 421 422 423
f 424 425 426
f 427 428 429
f 430 431 432
f 433 434 435
f 436 437 438
f 439 440 441
f 442 443 444
f 445 446 447
f 448 449 450
f 451 452 453
f 454 455 456
f 457 458 459
f 460 461 462
f 463 464 465
f 466 467 468
f 469 470 471
f 472 473 474
f 475 476 477
f 478 479 480
f 481 482 483
f 484 485 486
f 487 488 489
f 490 491 492
f 493 494 495
f 496 497 498
f 499 500 501
f 502 503 504
f 505 506 507
f 508 509 510
f 511 512 513
f 514 515 516
f 517 518 519
f 520 521 522
f 523 524 525
f 526 527 528
f 529 530 531
f 532 533 534
f 535 536 537
f 538 539 540
f 541 542 543
f 544 545 546
f 547 548 549
f 550 551 552
f 553 554 555
f 556 557 558
f 559 560 561
f 562 563 564
f 565 566 567
f 568 569 570
f 571 572 573
f 574 575 576
f 577 578 579
f 580 581 582
f 583 584 585
f 586 587 588
f 589 590 591
f 592 593 594
f 595 596 597
f 598 599 600
f 601 602 603
f 604 605 606
f 607 608 609
f 610 611 612
f 613 614 615
f 616 617 618
f 619 620 621
f 622 623 624
f 625 626 627
f 628 629 630
f 631 632 633
f 634 635 636
f 637 638 639
f 640 641 642
f 643 644 645
f 646 647 648
f 649 650 651
f 652 653 654
f 655 656 657
f 658 659 660
f 661 662 663
f 664 665 666
f 667 668 669
f 670 671 672
f 673 674 675
f 676 677 678
f 679 680 681
f 682 683 684
f 685 686 687
f 688 689 690
f 691 692 693
f 694 695 696
f 697 698 699
f 700 701 702
f 703 704 705
f 706 707 708
f 709 710 711
f 712 713 714
f 715 716 717
f 718 719 720
f 721 722 723
f 724 725 726
f 727 728 729
f 730 731 732
f 733 734 735
f 736 737 738
f 739 740 741
f 742 743 744
f 745 746 747
f 748 749 750
f 751 752 753
f 754 755 756
f 757 758 759
f 760 761 762
f 763 764 765
f 766 767 768
f 769 770 771
f 772 773 774
f 775 776 777
f 778 779 780
f 781 782 783
f 784 785 786
f 787 788 789
f 790 791 792
f 793 794 795
f 796 797 798
f 799 800 801
f 802 803 804
f 805 806 807
f 808 809 810
f 811 812 813
f 814 815 816
f 817 818 819
f 820 821 822
f 823 824 825
f 826 827 828
f 829 830 831
f 832 833 834
f 835 836 837
f 838 839 840
f 841 842 843
f 844 845 846
f 847 848 849
f 850 851 852
f 853 854 855
f 856 857 858
f 859 860 861
f 862 863 864
f 865 866 867
f 868 869 870
f 871 872 873
f 874 875 876
f 877 878 879
f 880 881 882
f 883 884 885
f 886 887 888
f 889 890 891
f 892 893 894
f 895 896 897
f 898 899 900
f 901 902 903
f 904 905 906
f 907 908 909
f 910 911 912
f 913 914 915
f 916 917 918
f 919 920 921
f 922 923 924
f 925 926 927
f 928 929 930
f 931 932 933
f 934 935 936
f 937 938 939
f 940 941 942
f 943 944 945
f 946 947 948
f 949 950 951
f 952 953 954
f 955 956 957
f 958 959 960
f 961 962 963
f 964 965 966
f 967 968 969
f 970 971 972
f 973 974 975
f 976 977 978
f 979 980 981
f 982 983 984
f 985 986 987
f 988 989 990
f 991 992 993
f 994 995 996
f 997 998 999
f 1000 1001 1002
f 1003 1004 1005
f 1006 1007 1008
f 1009 1010 1011
f 1012 1013 1014
f 1015 1016 1017
f 1018 1019 1020
f 1021 1022 1023
f 1024 1025 1026
f 1027 1028 1029
f 1030 1031 1032
f 1033 1034 1035
f 1036 1037 1038
f 1039 1040 1041
f 1042 1043 1044
f 1045 1046 1047
f 1048 1049 1050
f 1051 1052 1053
f 1054 1055 1056
f 1057 1058 1059
f 1060 1061 1062
f 1063 1064 1065
f 1066 1067 1068
f 1069 1070 1071
f 1072 1073 1074
f 1075 1076 1077
f 1078 1079 1080
f 1081 1082 1083
f 1084 1085 1086
f 1087 1088 1089
f 1090 1091 1092
f 1093 1094 1095
f 1096 1097 1098
f 1099 1100 1101
f 1102 1103 1104
f 1105 1106 1107
f 1108 1109 1110
f 1111 1112 1113
f 1114 1115 1116
f 1117 1118 1119
f 1120 1121 1122
f 1123 1124 1125
f 1126 1127 1128
f 1129 1130 1131
f 1132 1133 1134
f 1135 1136 1137
f 1138 1139 1140
f 1141 1142 1143
f 1144 1145 1146
f 1147 1148 1149
f 1150 1151 1152
f 1153 1154 1155
f 1156 1157 1158
f 1159 1160 1161
f 1162 1163 1164
f 1165 1166 1167
f 1168 1169 1170
f 1171 1172 1173
f 1174 1175 1176
f 1177 1178 1179
f 1180 1181 1182
f 1183 1184 1185
f 1186 1187 1188
f 1189 1190 1191
f 1192 1193 1194
f 1195 1196 1197
f 1198 1199 1200
f 1201 1202 1203
f 1204 1205 1206
f 1207 1208 1209
f 1210 1211 1212
f 1213 1214 1215
f 1216 1217 1218
f 1219 1220 1221
f 1222 1223 1224
f 1225 1226 1227
f 1228 1229 1230
f 1231 1232 1233
f 1234 1235 1236
f 1237 1238 1239
f 1240 1241 1242
f 1243 1244 1245
f 1246 1247 1248
f 1249 1250 1251
f 1252 1253 1254
f 1255 1256 1257
f 1258 1259 1260
f 1261 1262 1263
f 1264 1265 1266
f 1267 1268 1269
f 1270 1271 1272
f 1273 1274 1275
f 1276 1277 1278
f 1279 1280 1281
f 1282 1283 1284
f 1285 1286 1287
f 1288 1289 1290
f 1291 1292 1293
f 1294 1295 1296
f 1297 1298 1299
f 1300 1301 1302
f 1303 1304 1305
f 1306 1307 1308
f 1309 1310 1311
f 1312 1313 1314
f 1315 1316 1317
f 1318 1319 1320
f 1321 1322 1323
f 1324 1325 1326
f 1327 1328 1329
f 1330 1331 1332
f 1333 1334 1335
f 1336 1337 1338
f 1339 1340 1341
f 1342 1343 1344
f 1345 1346 1347
f 1348 1349 1350
f 1351 1352 1353
f 1354 1355 1356
f 1357 1358 1359
f 1360 1361 1362
f 1363 1364 1365
f 1366 1367 1368
f 1369 1370 1371
f 1372 1373 1374
f 1375 1376 1377
f 1378 1379 1380
f 1381 1382 1383
f 1384 1385 1386
f 1387 1388 1389
f 1390 1391 1392
f 1393 1394 1395
f 1396 1397 1398
f 1399 1400 1401
f 1402 1403 1404
f 1405 1406 1407
f 1408 1409 1410
f 1411 1412 1413
f 1414 1415 1416
f 1417 1418 1419
f 1420 1421 1422
f 1423 1424 1425
f 1426 1427 1428
f 1429 1430 1431
f 1432 1433 1434
f 1435 1436 1437
f 1438 1439 1440
f 1441 1442 1443
f 1444 1445 1446
f 1447 1448 1449
f 1450 1451 1452
f 1453 1454 1455
f 1456 1457 1458
f 1459 1460 1461
f 1462 1463 1464
f 1465 1466 1467
f 1468 1469 1470
f 1471 1472 1473
f 1474 1475 1476
f 1477 1478 1479
f 1480 1481 1482
f 1483 1484 1485
f 1486 1487 1488
f 1489 1490 1491
f 1492 1493 1494
f 1495 1496 1497
f 1498 1499 1500
f 1501 1502 1503
f 1504 1505 1506
f 1507 1508 1509
f 1510 1511 1512
f 1513 1514 1515
f 1516 1517 1518
f 1519 1520 1521
f 1522 1523 1524
f 1525 1526 1527
f 1528 1529 1530
f 1531 1532 1533
f 1534 1535 1536
f 1537 1538 1539
f 1540 1541 1542
f 1543 1544 1545
f 1546 1547 1548
f 1549 1550 1551
f 1552 1553 1554
f 1555 1556 1557
f 1558 1559 1560
f 1561 1562 1563
f 1564 1565 1566
f 1567 1568 1569
f 1570 1571 1572
f 1573 1574 1575
f 1576 1577 1578
f 1579 1580 1581
f 1582 1583 1584
f 1585 1586 1587
f 1588 1589 1590
f 1591 1592 1593
f 1594 1595 1596
f 1597 1598 1599
f 1600 1601 1602
f 1603 1604 1605
f 1606 1607 1608
f 1609 1610 1611
f 1612 1613 1614
f 1615 1616 1617
f 1618 1619 1620
f 1621 1622 1623
f 1624 1625 1626
f 1627 1628 1629
f 1630 1631 1632
f 1633 1634 1635
f 1636 1637 1638
f 1639 1640 1641
f 1642 1643 1644
f 1645 1646 1647
f 1648 1649 1650
f 1651 1652 1653
f 1654 1655 1656
f 1657 1658 1659
f 1660 1661 1662
f 1663 1664 1665
f 1666 1667 1668
f 1669 1670 1671
f 1672 1673 1674
f 1675 1676 1677
f 1678 1679 1680
f 1681 1682 1683
f 1684 1685 1686
f 1687 1688 1689
f 1690 1691 1692
f 1693 1694 1695
f 1696 1697 1698
f 1699 1700 1701
f 1702 1703 1704
f 1705 1706 1707
f 1708 1709 1710
f 1711 1712 1713
f 1714 1715 1716
f 1717 1718 1719
f 1720 1721 1722
f 1723 1724 1725
f 1726 1727 1728
f 1729 1730 1731
f 1732 1733 1734
f 1735 1736 1737
f 1738 1739 1740
f 1741 1742 1743
f 1744 1745 1746
f 1747 1748 1749
f 1750 1751 1752
f 1753 1754 1755
f 1756 1757 1758
f 1759 1760 1761
f 1762 1763 1764
f 1765 1766 1767
f 1768 1769 1770
f 1771 1772 1773
f 1774 1775 1776
f 1777 1778 1779
f 1780 1781 1782
f 1783 1784 1785
f 1786 1787 1788
f 1789 1790 1791
f 1792 1793 1794
f 1795 1796 1797
f 1798 1799 1800
f 1801 1802 1803
f 1804 1805 1806
f 1807 1808 1809
f 1810 1811 1812
f 1813 1814 1815
f 1816 1817 1818
f 1819 1820 1821
f 1822 1823 1824
f 1825 1826 1827
f 1828 1829 1830
f 1831 1832 1833
f 1834 1835 1836
f 1837 1838 1839
f 1840 1841 1842
f 1843 1844 1845
f 1846 1847 1848
f 1849 1850 1851
f 1852 1853 1854
f 1855 1856 1857
f 1858 1859 1860
f 1861 1862 1863
f 1864 1865 1866
f 1867 1868 1869
f 1870 1871 1872
f 1873 1874 1875
f 1876 1877 1878
f 1879 1880 1881
f 1882 1883 1884
f 1885 1886 1887
f 1888 1889 1890
f 1891 1892 1893
f 1894 1895 1896
f 1897 1898 1899
f 1900 1901 1902
f 1903 1904 1905
f 1906 1907 1908
f 1909 1910 1911
f 1912 1913 1914
f 1915 1916 1917
f 1918 1919 1920
f 1921 1922 1923
f 1924 1925 1926
f 1927 1928 1929
f 1930 1931 1932
f 1933 1934 1935
f 1936 1937 1938
f 1939 1940 1941
f 1942 1943 1944
f 1945 1946 1947
f 1948 1949 1950
f 1951 1952 1953
f 1954 1955 1956
f 1957 1958 1959
f 1960 1961 1962
f 1963 1964 1965
f 1966 1967 1968

