# https://github.com/mikedh/trimesh

o M_LeftLink_1.stl
v -49.47499466 20.97867012 56.43675232
v -49.51332855 20.31739998 56.50000000
v -49.51332855 20.31739998 55.50000000
v -49.51332855 20.31739998 55.50000000
v -49.51332855 20.31739998 56.50000000
v -49.55166245 19.65613174 56.43675232
v -49.51332855 20.31739998 55.50000000
v -49.55166245 19.65613174 56.43675232
v -49.54552078 19.76202965 55.43731689
v -49.54552078 19.76202965 55.43731689
v -49.55166245 19.65613174 56.43675232
v -49.58860779 19.01876259 56.24928665
v -49.54552078 19.76202965 55.43731689
v -49.58860779 19.01876259 56.24928665
v -49.57610321 19.23450851 55.25242233
v -49.57610321 19.23450851 55.25242233
v -49.58860779 19.01876259 56.24928665
v -49.62283707 18.42832947 55.94438553
v -49.57610321 19.23450851 55.25242233
v -49.62283707 18.42832947 55.94438553
v -49.60353470 18.76128769 54.95457840
v -49.60353470 18.76128769 54.95457840
v -49.62283707 18.42832947 55.94438553
v -49.65310669 17.90617180 55.53306961
v -49.60353470 18.76128769 54.95457840
v -49.65310669 17.90617180 55.53306961
v -49.62644577 18.36609650 54.55872345
v -49.62644577 18.36609650 54.55872345
v -49.65310669 17.90617180 55.53306961
v -49.67832184 17.47116280 55.03020096
v -49.62644577 18.36609650 54.55872345
v -49.67832184 17.47116280 55.03020096
v -49.64368057 18.06875229 54.08470917
v -49.64368057 18.06875229 54.08470917
v -49.67832184 17.47116280 55.03020096
v -49.69757843 17.13902473 54.45395279
v -49.64368057 18.06875229 54.08470917
v -49.69757843 17.13902473 54.45395279
v -49.65438080 17.88416481 53.55630112
v -49.65438080 17.88416481 53.55630112
v -49.69757843 17.13902473 54.45395279
v -49.71017075 16.92176056 53.82515717
v -49.65438080 17.88416481 53.55630112
v -49.71017075 16.92176056 53.82515717
v -49.71565247 16.82722473 53.16653824
v -49.65438080 17.88416481 53.55630112
v -49.71565247 16.82722473 53.16653824
v -49.65800858 17.82159042 53.00000000
v -49.65800858 17.82159042 53.00000000
v -49.71565247 16.82722473 53.16653824
v -49.71382141 16.85883141 52.50189972
v -49.65800858 17.82159042 53.00000000
v -49.71382141 16.85883141 52.50189972
v -49.65438080 17.88416481 52.44369507
v -49.65438080 17.88416481 52.44369507
v -49.71382141 16.85883141 52.50189972
v -49.70474243 17.01544189 51.85526276
v -49.65438080 17.88416481 52.44369507
v -49.70474243 17.01544189 51.85526276
v -49.64368057 18.06875420 51.91529083
v -49.64368057 18.06875420 51.91529083
v -49.70474243 17.01544189 51.85526276
v -49.68874359 17.29139137 51.25000000
v -49.64368057 18.06875420 51.91529083
v -49.68874359 17.29139137 51.25000000
v -49.62644577 18.36609840 51.44127274
v -49.62644577 18.36609840 51.44127274
v -49.68874359 17.29139137 51.25000000
v -49.66640854 17.67671013 50.70798874
v -49.62644577 18.36609840 51.44127274
v -49.66640854 17.67671013 50.70798874
v -49.60353470 18.76128769 51.04542160
v -49.60353470 18.76128769 51.04542160
v -49.66640854 17.67671013 50.70798874
v -49.63853836 18.15747070 50.24881363
v -49.60353470 18.76128769 51.04542160
v -49.63853836 18.15747070 50.24881363
v -49.60614395 18.71629524 49.88907623
v -49.60353470 18.76128769 51.04542160
v -49.60614395 18.71629524 49.88907623
v -49.57610321 19.23450851 50.74757767
v -49.57610321 19.23450851 50.74757767
v -49.60614395 18.71629524 49.88907623
v -49.57039261 19.33298874 49.64177322
v -49.57610321 19.23450851 50.74757767
v -49.57039261 19.33298874 49.64177322
v -49.54552078 19.76202965 50.56267929
v -49.54552078 19.76202965 50.56267929
v -49.57039261 19.33298874 49.64177322
v -49.53258133 19.98526192 49.51585007
v -49.54552078 19.76202965 50.56267929
v -49.53258133 19.98526192 49.51585007
v -49.51332855 20.31739998 50.50000000
v -49.51332855 20.31739998 50.50000000
v -49.53258133 19.98526192 49.51585007
v -49.49407196 20.64953995 49.51585007
v -49.51332855 20.31739998 50.50000000
v -49.49407196 20.64953995 49.51585007
v -49.48113251 20.87277031 50.56267929
v -49.48113251 20.87277031 50.56267929
v -49.49407196 20.64953995 49.51585007
v -49.45626068 21.30181122 49.64177322
v -49.48113251 20.87277031 50.56267929
v -49.45626068 21.30181122 49.64177322
v -49.45055008 21.40029144 50.74757767
v -49.45055008 21.40029144 50.74757767
v -49.45626068 21.30181122 49.64177322
v -49.42050934 21.91850471 49.88907623
v -49.45055008 21.40029144 50.74757767
v -49.42050934 21.91850471 49.88907623
v -49.42311859 21.87351227 51.04542160
v -49.42311859 21.87351227 51.04542160
v -49.42050934 21.91850471 49.88907623
v -49.38811493 22.47733116 50.24881363
v -49.42311859 21.87351227 51.04542160
v -49.38811493 22.47733116 50.24881363
v -49.36024475 22.95808983 50.70798874
v -49.42311859 21.87351227 51.04542160
v -49.36024475 22.95808983 50.70798874
v -49.40021133 22.26870346 51.44127274
v -49.40021133 22.26870346 51.44127274
v -49.36024475 22.95808983 50.70798874
v -49.33790970 23.34340858 51.25000000
v -49.40021133 22.26870346 51.44127274
v -49.33790970 23.34340858 51.25000000
v -49.38297272 22.56604767 51.91529083
v -49.38297272 22.56604767 51.91529083
v -49.33790970 23.34340858 51.25000000
v -49.32191086 23.61935997 51.85526276
v -49.38297272 22.56604767 51.91529083
v -49.32191086 23.61935997 51.85526276
v -49.37227249 22.75063515 52.44369507
v -49.37227249 22.75063515 52.44369507
v -49.32191086 23.61935997 51.85526276
v -49.31283569 23.77596855 52.50189972
v -49.37227249 22.75063515 52.44369507
v -49.31283569 23.77596855 52.50189972
v -49.36864471 22.81320953 53.00000000
v -49.36864471 22.81320953 53.00000000
v -49.31283569 23.77596855 52.50189972
v -49.31100082 23.80757713 53.16653824
v -49.36864471 22.81320953 53.00000000
v -49.31100082 23.80757713 53.16653824
v -49.37227249 22.75063515 53.55630112
v -49.37227249 22.75063515 53.55630112
v -49.31100082 23.80757713 53.16653824
v -49.31648254 23.71303940 53.82515717
v -49.37227249 22.75063515 53.55630112
v -49.31648254 23.71303940 53.82515717
v -49.32907486 23.49577713 54.45395279
v -49.37227249 22.75063515 53.55630112
v -49.32907486 23.49577713 54.45395279
v -49.38297272 22.56604767 54.08470917
v -49.38297272 22.56604767 54.08470917
v -49.32907486 23.49577713 54.45395279
v -49.34833145 23.16363716 55.03020096
v -49.38297272 22.56604767 54.08470917
v -49.34833145 23.16363716 55.03020096
v -49.40021133 22.26870346 54.55872345
v -49.40021133 22.26870346 54.55872345
v -49.34833145 23.16363716 55.03020096
v -49.37354660 22.72862816 55.53306961
v -49.40021133 22.26870346 54.55872345
v -49.37354660 22.72862816 55.53306961
v -49.42311859 21.87351227 54.95457840
v -49.42311859 21.87351227 54.95457840
v -49.37354660 22.72862816 55.53306961
v -49.40381622 22.20647240 55.94438553
v -49.42311859 21.87351227 54.95457840
v -49.40381622 22.20647240 55.94438553
v -49.45055008 21.40029144 55.25242233
v -49.45055008 21.40029144 55.25242233
v -49.40381622 22.20647240 55.94438553
v -49.43804550 21.61603928 56.24928665
v -49.45055008 21.40029144 55.25242233
v -49.43804550 21.61603928 56.24928665
v -49.48113251 20.87277031 55.43731689
v -49.48113251 20.87277031 55.43731689
v -49.43804550 21.61603928 56.24928665
v -49.47499466 20.97867012 56.43675232
v -49.48113251 20.87277031 55.43731689
v -49.47499466 20.97867012 56.43675232
v -49.51332855 20.31739998 55.50000000
v -48.55333710 19.59825897 56.43675232
v -49.51332855 20.31739998 56.50000000
v -48.51500320 20.25952721 56.50000000
v -48.51500320 20.25952721 56.50000000
v -49.51332855 20.31739998 56.50000000
v -49.47499466 20.97867012 56.43675232
v -48.51500320 20.25952721 56.50000000
v -49.47499466 20.97867012 56.43675232
v -48.47666931 20.92079735 56.43675232
v -48.47666931 20.92079735 56.43675232
v -49.47499466 20.97867012 56.43675232
v -49.43804550 21.61603928 56.24928665
v -48.47666931 20.92079735 56.43675232
v -49.43804550 21.61603928 56.24928665
v -48.43972015 21.55816650 56.24928665
v -48.43972015 21.55816650 56.24928665
v -49.43804550 21.61603928 56.24928665
v -49.40381622 22.20647240 55.94438553
v -48.43972015 21.55816650 56.24928665
v -49.40381622 22.20647240 55.94438553
v -48.40549469 22.14859962 55.94438553
v -48.40549469 22.14859962 55.94438553
v -49.40381622 22.20647240 55.94438553
v -49.37354660 22.72862816 55.53306961
v -48.40549469 22.14859962 55.94438553
v -49.37354660 22.72862816 55.53306961
v -48.37522507 22.67075539 55.53306961
v -48.37522507 22.67075539 55.53306961
v -49.37354660 22.72862816 55.53306961
v -49.34833145 23.16363716 55.03020096
v -48.37522507 22.67075539 55.53306961
v -49.34833145 23.16363716 55.03020096
v -48.35000610 23.10576439 55.03020096
v -48.35000610 23.10576439 55.03020096
v -49.34833145 23.16363716 55.03020096
v -49.32907486 23.49577713 54.45395279
v -48.35000610 23.10576439 55.03020096
v -49.32907486 23.49577713 54.45395279
v -48.33075333 23.43790436 54.45395279
v -48.33075333 23.43790436 54.45395279
v -49.32907486 23.49577713 54.45395279
v -49.31648254 23.71303940 53.82515717
v -48.33075333 23.43790436 54.45395279
v -49.31648254 23.71303940 53.82515717
v -48.31815720 23.65516663 53.82515717
v -48.31815720 23.65516663 53.82515717
v -49.31648254 23.71303940 53.82515717
v -49.31100082 23.80757713 53.16653824
v -48.31815720 23.65516663 53.82515717
v -49.31100082 23.80757713 53.16653824
v -48.31267929 23.74970436 53.16653824
v -48.31267929 23.74970436 53.16653824
v -49.31100082 23.80757713 53.16653824
v -49.31283569 23.77596855 52.50189972
v -48.31267929 23.74970436 53.16653824
v -49.31283569 23.77596855 52.50189972
v -48.31451035 23.71809578 52.50189972
v -48.31451035 23.71809578 52.50189972
v -49.31283569 23.77596855 52.50189972
v -49.32191086 23.61935997 51.85526276
v -48.31451035 23.71809578 52.50189972
v -49.32191086 23.61935997 51.85526276
v -48.32358932 23.56148720 51.85526276
v -48.32358932 23.56148720 51.85526276
v -49.32191086 23.61935997 51.85526276
v -49.33790970 23.34340858 51.25000000
v -48.32358932 23.56148720 51.85526276
v -49.33790970 23.34340858 51.25000000
v -48.33958435 23.28553581 51.25000000
v -48.33958435 23.28553581 51.25000000
v -49.33790970 23.34340858 51.25000000
v -49.36024475 22.95808983 50.70798874
v -48.33958435 23.28553581 51.25000000
v -49.36024475 22.95808983 50.70798874
v -48.36192322 22.90021706 50.70798874
v -48.36192322 22.90021706 50.70798874
v -49.36024475 22.95808983 50.70798874
v -49.38811493 22.47733116 50.24881363
v -48.36192322 22.90021706 50.70798874
v -49.38811493 22.47733116 50.24881363
v -48.38979340 22.41945839 50.24881363
v -48.38979340 22.41945839 50.24881363
v -49.38811493 22.47733116 50.24881363
v -49.42050934 21.91850471 49.88907623
v -48.38979340 22.41945839 50.24881363
v -49.42050934 21.91850471 49.88907623
v -48.42218781 21.86063194 49.88907623
v -48.42218781 21.86063194 49.88907623
v -49.42050934 21.91850471 49.88907623
v -49.45626068 21.30181122 49.64177322
v -48.42218781 21.86063194 49.88907623
v -49.45626068 21.30181122 49.64177322
v -48.45793533 21.24393845 49.64177322
v -48.45793533 21.24393845 49.64177322
v -49.45626068 21.30181122 49.64177322
v -49.49407196 20.64953995 49.51585007
v -48.45793533 21.24393845 49.64177322
v -49.49407196 20.64953995 49.51585007
v -48.49575043 20.59166527 49.51585007
v -48.49575043 20.59166527 49.51585007
v -49.49407196 20.64953995 49.51585007
v -49.53258133 19.98526192 49.51585007
v -48.49575043 20.59166527 49.51585007
v -49.53258133 19.98526192 49.51585007
v -48.53425598 19.92738914 49.51585007
v -48.53425598 19.92738914 49.51585007
v -49.53258133 19.98526192 49.51585007
v -49.57039261 19.33298874 49.64177322
v -48.53425598 19.92738914 49.51585007
v -49.57039261 19.33298874 49.64177322
v -48.57207108 19.27511597 49.64177322
v -48.57207108 19.27511597 49.64177322
v -49.57039261 19.33298874 49.64177322
v -49.60614395 18.71629524 49.88907623
v -48.57207108 19.27511597 49.64177322
v -49.60614395 18.71629524 49.88907623
v -48.60781860 18.65842247 49.88907623
v -48.60781860 18.65842247 49.88907623
v -49.60614395 18.71629524 49.88907623
v -49.63853836 18.15747070 50.24881363
v -48.60781860 18.65842247 49.88907623
v -49.63853836 18.15747070 50.24881363
v -48.64021301 18.09959793 50.24881363
v -48.64021301 18.09959793 50.24881363
v -49.63853836 18.15747070 50.24881363
v -49.66640854 17.67671013 50.70798874
v -48.64021301 18.09959793 50.24881363
v -49.66640854 17.67671013 50.70798874
v -48.66808319 17.61883736 50.70798874
v -48.66808319 17.61883736 50.70798874
v -49.66640854 17.67671013 50.70798874
v -49.68874359 17.29139137 51.25000000
v -48.66808319 17.61883736 50.70798874
v -49.68874359 17.29139137 51.25000000
v -48.69042206 17.23351860 51.25000000
v -48.69042206 17.23351860 51.25000000
v -49.68874359 17.29139137 51.25000000
v -49.70474243 17.01544189 51.85526276
v -48.69042206 17.23351860 51.25000000
v -49.70474243 17.01544189 51.85526276
v -48.70641708 16.95756912 51.85526276
v -48.70641708 16.95756912 51.85526276
v -49.70474243 17.01544189 51.85526276
v -49.71382141 16.85883141 52.50189972
v -48.70641708 16.95756912 51.85526276
v -49.71382141 16.85883141 52.50189972
v -48.71549606 16.80095863 52.50189972
v -48.71549606 16.80095863 52.50189972
v -49.71382141 16.85883141 52.50189972
v -49.71565247 16.82722473 53.16653824
v -48.71549606 16.80095863 52.50189972
v -49.71565247 16.82722473 53.16653824
v -48.71732712 16.76935196 53.16653824
v -48.71732712 16.76935196 53.16653824
v -49.71565247 16.82722473 53.16653824
v -49.71017075 16.92176056 53.82515717
v -48.71732712 16.76935196 53.16653824
v -49.71017075 16.92176056 53.82515717
v -48.71184921 16.86388779 53.82515717
v -48.71184921 16.86388779 53.82515717
v -49.71017075 16.92176056 53.82515717
v -49.69757843 17.13902473 54.45395279
v -48.71184921 16.86388779 53.82515717
v -49.69757843 17.13902473 54.45395279
v -48.69925308 17.08115196 54.45395279
v -48.69925308 17.08115196 54.45395279
v -49.69757843 17.13902473 54.45395279
v -49.67832184 17.47116280 55.03020096
v -48.69925308 17.08115196 54.45395279
v -49.67832184 17.47116280 55.03020096
v -48.68000031 17.41329002 55.03020096
v -48.68000031 17.41329002 55.03020096
v -49.67832184 17.47116280 55.03020096
v -49.65310669 17.90617180 55.53306961
v -48.68000031 17.41329002 55.03020096
v -49.65310669 17.90617180 55.53306961
v -48.65478134 17.84829903 55.53306961
v -48.65478134 17.84829903 55.53306961
v -49.65310669 17.90617180 55.53306961
v -49.62283707 18.42832947 55.94438553
v -48.65478134 17.84829903 55.53306961
v -49.62283707 18.42832947 55.94438553
v -48.62451172 18.37045670 55.94438553
v -48.62451172 18.37045670 55.94438553
v -49.62283707 18.42832947 55.94438553
v -49.58860779 19.01876259 56.24928665
v -48.62451172 18.37045670 55.94438553
v -49.58860779 19.01876259 56.24928665
v -48.59028625 18.96088982 56.24928665
v -48.59028625 18.96088982 56.24928665
v -49.58860779 19.01876259 56.24928665
v -49.55166245 19.65613174 56.43675232
v -48.59028625 18.96088982 56.24928665
v -49.55166245 19.65613174 56.43675232
v -48.55333710 19.59825897 56.43675232
v -48.55333710 19.59825897 56.43675232
v -49.55166245 19.65613174 56.43675232
v -49.51332855 20.31739998 56.50000000
v -52.54663086 19.82975006 56.43674850
v -52.50830078 20.49101830 56.50000000
v -52.50830078 20.49101830 55.50000000
v -52.50830078 20.49101830 55.50000000
v -52.50830078 20.49101830 56.50000000
v -52.46996689 21.15228844 56.43674850
v -52.50830078 20.49101830 55.50000000
v -52.46996689 21.15228844 56.43674850
v -52.47610474 21.04638863 55.43731689
v -52.47610474 21.04638863 55.43731689
v -52.46996689 21.15228844 56.43674850
v -52.43301773 21.78965759 56.24928665
v -52.47610474 21.04638863 55.43731689
v -52.43301773 21.78965759 56.24928665
v -52.44552231 21.57390976 55.25242233
v -52.44552231 21.57390976 55.25242233
v -52.43301773 21.78965759 56.24928665
v -52.39878845 22.38009071 55.94438553
v -52.44552231 21.57390976 55.25242233
v -52.39878845 22.38009071 55.94438553
v -52.41809082 22.04713058 54.95457840
v -52.41809082 22.04713058 54.95457840
v -52.39878845 22.38009071 55.94438553
v -52.36851883 22.90224648 55.53306961
v -52.41809082 22.04713058 54.95457840
v -52.36851883 22.90224648 55.53306961
v -52.39518356 22.44232178 54.55872345
v -52.39518356 22.44232178 54.55872345
v -52.36851883 22.90224648 55.53306961
v -52.34330368 23.33725548 55.03019714
v -52.39518356 22.44232178 54.55872345
v -52.34330368 23.33725548 55.03019714
v -52.37794495 22.73966599 54.08470917
v -52.37794495 22.73966599 54.08470917
v -52.34330368 23.33725548 55.03019714
v -52.32404709 23.66939545 54.45395279
v -52.37794495 22.73966599 54.08470917
v -52.32404709 23.66939545 54.45395279
v -52.36724472 22.92425346 53.55630112
v -52.36724472 22.92425346 53.55630112
v -52.32404709 23.66939545 54.45395279
v -52.31145477 23.88665771 53.82515335
v -52.36724472 22.92425346 53.55630112
v -52.31145477 23.88665771 53.82515335
v -52.30597305 23.98119545 53.16653442
v -52.36724472 22.92425346 53.55630112
v -52.30597305 23.98119545 53.16653442
v -52.36361694 22.98682785 53.00000000
v -52.36361694 22.98682785 53.00000000
v -52.30597305 23.98119545 53.16653442
v -52.30780411 23.94958687 52.50189590
v -52.36361694 22.98682785 53.00000000
v -52.30780411 23.94958687 52.50189590
v -52.36724472 22.92425346 52.44369507
v -52.36724472 22.92425346 52.44369507
v -52.30780411 23.94958687 52.50189590
v -52.31688309 23.79297829 51.85526276
v -52.36724472 22.92425346 52.44369507
v -52.31688309 23.79297829 51.85526276
v -52.37794495 22.73966599 51.91529083
v -52.37794495 22.73966599 51.91529083
v -52.31688309 23.79297829 51.85526276
v -52.33288193 23.51702690 51.25000000
v -52.37794495 22.73966599 51.91529083
v -52.33288193 23.51702690 51.25000000
v -52.39518356 22.44232178 51.44127274
v -52.39518356 22.44232178 51.44127274
v -52.33288193 23.51702690 51.25000000
v -52.35521698 23.13170815 50.70798492
v -52.39518356 22.44232178 51.44127274
v -52.35521698 23.13170815 50.70798492
v -52.41809082 22.04713058 51.04542160
v -52.41809082 22.04713058 51.04542160
v -52.35521698 23.13170815 50.70798492
v -52.38308716 22.65094948 50.24881363
v -52.41809082 22.04713058 51.04542160
v -52.38308716 22.65094948 50.24881363
v -52.41548157 22.09212303 49.88907623
v -52.41809082 22.04713058 51.04542160
v -52.41548157 22.09212303 49.88907623
v -52.44552231 21.57390976 50.74757767
v -52.44552231 21.57390976 50.74757767
v -52.41548157 22.09212303 49.88907623
v -52.45123291 21.47542953 49.64177322
v -52.44552231 21.57390976 50.74757767
v -52.45123291 21.47542953 49.64177322
v -52.47610474 21.04638863 50.56267929
v -52.47610474 21.04638863 50.56267929
v -52.45123291 21.47542953 49.64177322
v -52.48904419 20.82315636 49.51584625
v -52.47610474 21.04638863 50.56267929
v -52.48904419 20.82315636 49.51584625
v -52.50830078 20.49101830 50.50000000
v -52.50830078 20.49101830 50.50000000
v -52.48904419 20.82315636 49.51584625
v -52.52755356 20.15888023 49.51584625
v -52.50830078 20.49101830 50.50000000
v -52.52755356 20.15888023 49.51584625
v -52.54049301 19.93564796 50.56267929
v -52.54049301 19.93564796 50.56267929
v -52.52755356 20.15888023 49.51584625
v -52.56536484 19.50660706 49.64177322
v -52.54049301 19.93564796 50.56267929
v -52.56536484 19.50660706 49.64177322
v -52.57107544 19.40812683 50.74757767
v -52.57107544 19.40812683 50.74757767
v -52.56536484 19.50660706 49.64177322
v -52.60111618 18.88991356 49.88907623
v -52.57107544 19.40812683 50.74757767
v -52.60111618 18.88991356 49.88907623
v -52.59850693 18.93490601 51.04542160
v -52.59850693 18.93490601 51.04542160
v -52.60111618 18.88991356 49.88907623
v -52.63351059 18.33108902 50.24881363
v -52.59850693 18.93490601 51.04542160
v -52.63351059 18.33108902 50.24881363
v -52.66138077 17.85032845 50.70798492
v -52.59850693 18.93490601 51.04542160
v -52.66138077 17.85032845 50.70798492
v -52.62141418 18.53971672 51.44127274
v -52.62141418 18.53971672 51.44127274
v -52.66138077 17.85032845 50.70798492
v -52.68371582 17.46500969 51.25000000
v -52.62141418 18.53971672 51.44127274
v -52.68371582 17.46500969 51.25000000
v -52.63865280 18.24237251 51.91529083
v -52.63865280 18.24237251 51.91529083
v -52.68371582 17.46500969 51.25000000
v -52.69971466 17.18906021 51.85526276
v -52.63865280 18.24237251 51.91529083
v -52.69971466 17.18906021 51.85526276
v -52.64935303 18.05778313 52.44369507
v -52.64935303 18.05778313 52.44369507
v -52.69971466 17.18906021 51.85526276
v -52.70879364 17.03244972 52.50189590
v -52.64935303 18.05778313 52.44369507
v -52.70879364 17.03244972 52.50189590
v -52.65298080 17.99520874 53.00000000
v -52.65298080 17.99520874 53.00000000
v -52.70879364 17.03244972 52.50189590
v -52.71062469 17.00084305 53.16653442
v -52.65298080 17.99520874 53.00000000
v -52.71062469 17.00084305 53.16653442
v -52.64935303 18.05778313 53.55630112
v -52.64935303 18.05778313 53.55630112
v -52.71062469 17.00084305 53.16653442
v -52.70514297 17.09537888 53.82515335
v -52.64935303 18.05778313 53.55630112
v -52.70514297 17.09537888 53.82515335
v -52.69255066 17.31264305 54.45395279
v -52.64935303 18.05778313 53.55630112
v -52.69255066 17.31264305 54.45395279
v -52.63865280 18.24237251 54.08470917
v -52.63865280 18.24237251 54.08470917
v -52.69255066 17.31264305 54.45395279
v -52.67329407 17.64478111 55.03019714
v -52.63865280 18.24237251 54.08470917
v -52.67329407 17.64478111 55.03019714
v -52.62141418 18.53971672 54.55872345
v -52.62141418 18.53971672 54.55872345
v -52.67329407 17.64478111 55.03019714
v -52.64807892 18.07979012 55.53306961
v -52.62141418 18.53971672 54.55872345
v -52.64807892 18.07979012 55.53306961
v -52.59850693 18.93490601 54.95457840
v -52.59850693 18.93490601 54.95457840
v -52.64807892 18.07979012 55.53306961
v -52.61780930 18.60194778 55.94438553
v -52.59850693 18.93490601 54.95457840
v -52.61780930 18.60194778 55.94438553
v -52.57107544 19.40812683 55.25242233
v -52.57107544 19.40812683 55.25242233
v -52.61780930 18.60194778 55.94438553
v -52.58358002 19.19238091 56.24928665
v -52.57107544 19.40812683 55.25242233
v -52.58358002 19.19238091 56.24928665
v -52.54049301 19.93564796 55.43731689
v -52.54049301 19.93564796 55.43731689
v -52.58358002 19.19238091 56.24928665
v -52.54663086 19.82975006 56.43674850
v -52.54049301 19.93564796 55.43731689
v -52.54663086 19.82975006 56.43674850
v -52.50830078 20.49101830 55.50000000
v -53.46828842 21.21016121 56.43674850
v -52.50830078 20.49101830 56.50000000
v -53.50662231 20.54889107 56.50000000
v -53.50662231 20.54889107 56.50000000
v -52.50830078 20.49101830 56.50000000
v -52.54663086 19.82975006 56.43674850
v -53.50662231 20.54889107 56.50000000
v -52.54663086 19.82975006 56.43674850
v -53.54495621 19.88762283 56.43674850
v -53.54495621 19.88762283 56.43674850
v -52.54663086 19.82975006 56.43674850
v -52.58358002 19.19238091 56.24928665
v -53.54495621 19.88762283 56.43674850
v -52.58358002 19.19238091 56.24928665
v -53.58190536 19.25025368 56.24928665
v -53.58190536 19.25025368 56.24928665
v -52.58358002 19.19238091 56.24928665
v -52.61780930 18.60194778 55.94438553
v -53.58190536 19.25025368 56.24928665
v -52.61780930 18.60194778 55.94438553
v -53.61613083 18.65982056 55.94438553
v -53.61613083 18.65982056 55.94438553
v -52.61780930 18.60194778 55.94438553
v -52.64807892 18.07979012 55.53306961
v -53.61613083 18.65982056 55.94438553
v -52.64807892 18.07979012 55.53306961
v -53.64640045 18.13766289 55.53306961
v -53.64640045 18.13766289 55.53306961
v -52.64807892 18.07979012 55.53306961
v -52.67329407 17.64478111 55.03019714
v -53.64640045 18.13766289 55.53306961
v -52.67329407 17.64478111 55.03019714
v -53.67161942 17.70265388 55.03019714
v -53.67161942 17.70265388 55.03019714
v -52.67329407 17.64478111 55.03019714
v -52.69255066 17.31264305 54.45395279
v -53.67161942 17.70265388 55.03019714
v -52.69255066 17.31264305 54.45395279
v -53.69087219 17.37051582 54.45395279
v -53.69087219 17.37051582 54.45395279
v -52.69255066 17.31264305 54.45395279
v -52.70514297 17.09537888 53.82515335
v -53.69087219 17.37051582 54.45395279
v -52.70514297 17.09537888 53.82515335
v -53.70346832 17.15325165 53.82515335
v -53.70346832 17.15325165 53.82515335
v -52.70514297 17.09537888 53.82515335
v -52.71062469 17.00084305 53.16653442
v -53.70346832 17.15325165 53.82515335
v -52.71062469 17.00084305 53.16653442
v -53.70895004 17.05871582 53.16653442
v -53.70895004 17.05871582 53.16653442
v -52.71062469 17.00084305 53.16653442
v -52.70879364 17.03244972 52.50189590
v -53.70895004 17.05871582 53.16653442
v -52.70879364 17.03244972 52.50189590
v -53.70711517 17.09032249 52.50189590
v -53.70711517 17.09032249 52.50189590
v -52.70879364 17.03244972 52.50189590
v -52.69971466 17.18906021 51.85526276
v -53.70711517 17.09032249 52.50189590
v -52.69971466 17.18906021 51.85526276
v -53.69803619 17.24693298 51.85526276
v -53.69803619 17.24693298 51.85526276
v -52.69971466 17.18906021 51.85526276
v -52.68371582 17.46500969 51.25000000
v -53.69803619 17.24693298 51.85526276
v -52.68371582 17.46500969 51.25000000
v -53.68204117 17.52288246 51.25000000
v -53.68204117 17.52288246 51.25000000
v -52.68371582 17.46500969 51.25000000
v -52.66138077 17.85032845 50.70798492
v -53.68204117 17.52288246 51.25000000
v -52.66138077 17.85032845 50.70798492
v -53.65970230 17.90820122 50.70798492
v -53.65970230 17.90820122 50.70798492
v -52.66138077 17.85032845 50.70798492
v -52.63351059 18.33108902 50.24881363
v -53.65970230 17.90820122 50.70798492
v -52.63351059 18.33108902 50.24881363
v -53.63183594 18.38896179 50.24881363
v -53.63183594 18.38896179 50.24881363
v -52.63351059 18.33108902 50.24881363
v -52.60111618 18.88991356 49.88907623
v -53.63183594 18.38896179 50.24881363
v -52.60111618 18.88991356 49.88907623
v -53.59943771 18.94778633 49.88907623
v -53.59943771 18.94778633 49.88907623
v -52.60111618 18.88991356 49.88907623
v -52.56536484 19.50660706 49.64177322
v -53.59943771 18.94778633 49.88907623
v -52.56536484 19.50660706 49.64177322
v -53.56369019 19.56447983 49.64177322
v -53.56369019 19.56447983 49.64177322
v -52.56536484 19.50660706 49.64177322
v -52.52755356 20.15888023 49.51584625
v -53.56369019 19.56447983 49.64177322
v -52.52755356 20.15888023 49.51584625
v -53.52587891 20.21675301 49.51584625
v -53.52587891 20.21675301 49.51584625
v -52.52755356 20.15888023 49.51584625
v -52.48904419 20.82315636 49.51584625
v -53.52587891 20.21675301 49.51584625
v -52.48904419 20.82315636 49.51584625
v -53.48736954 20.88103104 49.51584625
v -53.48736954 20.88103104 49.51584625
v -52.48904419 20.82315636 49.51584625
v -52.45123291 21.47542953 49.64177322
v -53.48736954 20.88103104 49.51584625
v -52.45123291 21.47542953 49.64177322
v -53.44955826 21.53330231 49.64177322
v -53.44955826 21.53330231 49.64177322
v -52.45123291 21.47542953 49.64177322
v -52.41548157 22.09212303 49.88907623
v -53.44955826 21.53330231 49.64177322
v -52.41548157 22.09212303 49.88907623
v -53.41380692 22.14999580 49.88907623
v -53.41380692 22.14999580 49.88907623
v -52.41548157 22.09212303 49.88907623
v -52.38308716 22.65094948 50.24881363
v -53.41380692 22.14999580 49.88907623
v -52.38308716 22.65094948 50.24881363
v -53.38141251 22.70882225 50.24881363
v -53.38141251 22.70882225 50.24881363
v -52.38308716 22.65094948 50.24881363
v -52.35521698 23.13170815 50.70798492
v -53.38141251 22.70882225 50.24881363
v -52.35521698 23.13170815 50.70798492
v -53.35354233 23.18958092 50.70798492
v -53.35354233 23.18958092 50.70798492
v -52.35521698 23.13170815 50.70798492
v -52.33288193 23.51702690 51.25000000
v -53.35354233 23.18958092 50.70798492
v -52.33288193 23.51702690 51.25000000
v -53.33120346 23.57489967 51.25000000
v -53.33120346 23.57489967 51.25000000
v -52.33288193 23.51702690 51.25000000
v -52.31688309 23.79297829 51.85526276
v -53.33120346 23.57489967 51.25000000
v -52.31688309 23.79297829 51.85526276
v -53.31520844 23.85085106 51.85526276
v -53.31520844 23.85085106 51.85526276
v -52.31688309 23.79297829 51.85526276
v -52.30780411 23.94958687 52.50189590
v -53.31520844 23.85085106 51.85526276
v -52.30780411 23.94958687 52.50189590
v -53.30612946 24.00745964 52.50189590
v -53.30612946 24.00745964 52.50189590
v -52.30780411 23.94958687 52.50189590
v -52.30597305 23.98119545 53.16653442
v -53.30612946 24.00745964 52.50189590
v -52.30597305 23.98119545 53.16653442
v -53.30429840 24.03906822 53.16653442
v -53.30429840 24.03906822 53.16653442
v -52.30597305 23.98119545 53.16653442
v -52.31145477 23.88665771 53.82515335
v -53.30429840 24.03906822 53.16653442
v -52.31145477 23.88665771 53.82515335
v -53.30977631 23.94453049 53.82515335
v -53.30977631 23.94453049 53.82515335
v -52.31145477 23.88665771 53.82515335
v -52.32404709 23.66939545 54.45395279
v -53.30977631 23.94453049 53.82515335
v -52.32404709 23.66939545 54.45395279
v -53.32237244 23.72726822 54.45395279
v -53.32237244 23.72726822 54.45395279
v -52.32404709 23.66939545 54.45395279
v -52.34330368 23.33725548 55.03019714
v -53.32237244 23.72726822 54.45395279
v -52.34330368 23.33725548 55.03019714
v -53.34162521 23.39512825 55.03019714
v -53.34162521 23.39512825 55.03019714
v -52.34330368 23.33725548 55.03019714
v -52.36851883 22.90224648 55.53306961
v -53.34162521 23.39512825 55.03019714
v -52.36851883 22.90224648 55.53306961
v -53.36684418 22.96011925 55.53306961
v -53.36684418 22.96011925 55.53306961
v -52.36851883 22.90224648 55.53306961
v -52.39878845 22.38009071 55.94438553
v -53.36684418 22.96011925 55.53306961
v -52.39878845 22.38009071 55.94438553
v -53.39711380 22.43796349 55.94438553
v -53.39711380 22.43796349 55.94438553
v -52.39878845 22.38009071 55.94438553
v -52.43301773 21.78965759 56.24928665
v -53.39711380 22.43796349 55.94438553
v -52.43301773 21.78965759 56.24928665
v -53.43133926 21.84753036 56.24928665
v -53.43133926 21.84753036 56.24928665
v -52.43301773 21.78965759 56.24928665
v -52.46996689 21.15228844 56.43674850
v -53.43133926 21.84753036 56.24928665
v -52.46996689 21.15228844 56.43674850
v -53.46828842 21.21016121 56.43674850
v -53.46828842 21.21016121 56.43674850
v -52.46996689 21.15228844 56.43674850
v -52.50830078 20.49101830 56.50000000
v -49.48113251 20.87277031 50.56267929
v -52.47610474 21.04638863 50.56267929
v -49.51332855 20.31739998 50.50000000
v -49.51332855 20.31739998 50.50000000
v -52.47610474 21.04638863 50.56267929
v -52.50830078 20.49101830 50.50000000
v -49.51332855 20.31739998 50.50000000
v -52.50830078 20.49101830 50.50000000
v -49.54552078 19.76202965 50.56267929
v -49.54552078 19.76202965 50.56267929
v -52.50830078 20.49101830 50.50000000
v -52.54049301 19.93564796 50.56267929
v -49.54552078 19.76202965 50.56267929
v -52.54049301 19.93564796 50.56267929
v -49.57610321 19.23450851 50.74757767
v -49.57610321 19.23450851 50.74757767
v -52.54049301 19.93564796 50.56267929
v -52.57107544 19.40812683 50.74757767
v -49.57610321 19.23450851 50.74757767
v -52.57107544 19.40812683 50.74757767
v -49.60353470 18.76128769 51.04542160
v -49.60353470 18.76128769 51.04542160
v -52.57107544 19.40812683 50.74757767
v -52.59850693 18.93490601 51.04542160
v -49.60353470 18.76128769 51.04542160
v -52.59850693 18.93490601 51.04542160
v -49.62644577 18.36609840 51.44127274
v -49.62644577 18.36609840 51.44127274
v -52.59850693 18.93490601 51.04542160
v -52.62141418 18.53971672 51.44127274
v -49.62644577 18.36609840 51.44127274
v -52.62141418 18.53971672 51.44127274
v -49.64368057 18.06875420 51.91529083
v -49.64368057 18.06875420 51.91529083
v -52.62141418 18.53971672 51.44127274
v -52.63865280 18.24237251 51.91529083
v -49.64368057 18.06875420 51.91529083
v -52.63865280 18.24237251 51.91529083
v -49.65438080 17.88416481 52.44369507
v -49.65438080 17.88416481 52.44369507
v -52.63865280 18.24237251 51.91529083
v -52.64935303 18.05778313 52.44369507
v -49.65438080 17.88416481 52.44369507
v -52.64935303 18.05778313 52.44369507
v -49.65800858 17.82159042 53.00000000
v -49.65800858 17.82159042 53.00000000
v -52.64935303 18.05778313 52.44369507
v -52.65298080 17.99520874 53.00000000
v -49.65800858 17.82159042 53.00000000
v -52.65298080 17.99520874 53.00000000
v -49.65438080 17.88416481 53.55630112
v -49.65438080 17.88416481 53.55630112
v -52.65298080 17.99520874 53.00000000
v -52.64935303 18.05778313 53.55630112
v -49.65438080 17.88416481 53.55630112
v -52.64935303 18.05778313 53.55630112
v -49.64368057 18.06875229 54.08470917
v -49.64368057 18.06875229 54.08470917
v -52.64935303 18.05778313 53.55630112
v -52.63865280 18.24237251 54.08470917
v -49.64368057 18.06875229 54.08470917
v -52.63865280 18.24237251 54.08470917
v -49.62644577 18.36609650 54.55872345
v -49.62644577 18.36609650 54.55872345
v -52.63865280 18.24237251 54.08470917
v -52.62141418 18.53971672 54.55872345
v -49.62644577 18.36609650 54.55872345
v -52.62141418 18.53971672 54.55872345
v -49.60353470 18.76128769 54.95457840
v -49.60353470 18.76128769 54.95457840
v -52.62141418 18.53971672 54.55872345
v -52.59850693 18.93490601 54.95457840
v -49.60353470 18.76128769 54.95457840
v -52.59850693 18.93490601 54.95457840
v -49.57610321 19.23450851 55.25242233
v -49.57610321 19.23450851 55.25242233
v -52.59850693 18.93490601 54.95457840
v -52.57107544 19.40812683 55.25242233
v -49.57610321 19.23450851 55.25242233
v -52.57107544 19.40812683 55.25242233
v -49.54552078 19.76202965 55.43731689
v -49.54552078 19.76202965 55.43731689
v -52.57107544 19.40812683 55.25242233
v -52.54049301 19.93564796 55.43731689
v -49.54552078 19.76202965 55.43731689
v -52.54049301 19.93564796 55.43731689
v -49.51332855 20.31739998 55.50000000
v -49.51332855 20.31739998 55.50000000
v -52.54049301 19.93564796 55.43731689
v -52.50830078 20.49101830 55.50000000
v -49.51332855 20.31739998 55.50000000
v -52.50830078 20.49101830 55.50000000
v -49.48113251 20.87277031 55.43731689
v -49.48113251 20.87277031 55.43731689
v -52.50830078 20.49101830 55.50000000
v -52.47610474 21.04638863 55.43731689
v -49.48113251 20.87277031 55.43731689
v -52.47610474 21.04638863 55.43731689
v -49.45055008 21.40029144 55.25242233
v -49.45055008 21.40029144 55.25242233
v -52.47610474 21.04638863 55.43731689
v -52.44552231 21.57390976 55.25242233
v -49.45055008 21.40029144 55.25242233
v -52.44552231 21.57390976 55.25242233
v -49.42311859 21.87351227 54.95457840
v -49.42311859 21.87351227 54.95457840
v -52.44552231 21.57390976 55.25242233
v -52.41809082 22.04713058 54.95457840
v -49.42311859 21.87351227 54.95457840
v -52.41809082 22.04713058 54.95457840
v -49.40021133 22.26870346 54.55872345
v -49.40021133 22.26870346 54.55872345
v -52.41809082 22.04713058 54.95457840
v -52.39518356 22.44232178 54.55872345
v -49.40021133 22.26870346 54.55872345
v -52.39518356 22.44232178 54.55872345
v -49.38297272 22.56604767 54.08470917
v -49.38297272 22.56604767 54.08470917
v -52.39518356 22.44232178 54.55872345
v -52.37794495 22.73966599 54.08470917
v -49.38297272 22.56604767 54.08470917
v -52.37794495 22.73966599 54.08470917
v -49.37227249 22.75063515 53.55630112
v -49.37227249 22.75063515 53.55630112
v -52.37794495 22.73966599 54.08470917
v -52.36724472 22.92425346 53.55630112
v -49.37227249 22.75063515 53.55630112
v -52.36724472 22.92425346 53.55630112
v -49.36864471 22.81320953 53.00000000
v -49.36864471 22.81320953 53.00000000
v -52.36724472 22.92425346 53.55630112
v -52.36361694 22.98682785 53.00000000
v -49.36864471 22.81320953 53.00000000
v -52.36361694 22.98682785 53.00000000
v -49.37227249 22.75063515 52.44369507
v -49.37227249 22.75063515 52.44369507
v -52.36361694 22.98682785 53.00000000
v -52.36724472 22.92425346 52.44369507
v -49.37227249 22.75063515 52.44369507
v -52.36724472 22.92425346 52.44369507
v -49.38297272 22.56604767 51.91529083
v -49.38297272 22.56604767 51.91529083
v -52.36724472 22.92425346 52.44369507
v -52.37794495 22.73966599 51.91529083
v -49.38297272 22.56604767 51.91529083
v -52.37794495 22.73966599 51.91529083
v -49.40021133 22.26870346 51.44127274
v -49.40021133 22.26870346 51.44127274
v -52.37794495 22.73966599 51.91529083
v -52.39518356 22.44232178 51.44127274
v -49.40021133 22.26870346 51.44127274
v -52.39518356 22.44232178 51.44127274
v -49.42311859 21.87351227 51.04542160
v -49.42311859 21.87351227 51.04542160
v -52.39518356 22.44232178 51.44127274
v -52.41809082 22.04713058 51.04542160
v -49.42311859 21.87351227 51.04542160
v -52.41809082 22.04713058 51.04542160
v -49.45055008 21.40029144 50.74757767
v -49.45055008 21.40029144 50.74757767
v -52.41809082 22.04713058 51.04542160
v -52.44552231 21.57390976 50.74757767
v -49.45055008 21.40029144 50.74757767
v -52.44552231 21.57390976 50.74757767
v -49.48113251 20.87277031 50.56267929
v -49.48113251 20.87277031 50.56267929
v -52.44552231 21.57390976 50.74757767
v -52.47610474 21.04638863 50.56267929
v -48.80436707 15.26790810 53.00000000
v -53.79598618 15.55727196 53.00000000
v -48.80080414 15.32936287 52.21782684
v -48.80080414 15.32936287 52.21782684
v -53.79598618 15.55727196 53.00000000
v -53.79242325 15.61872673 52.21782684
v -48.80080414 15.32936287 52.21782684
v -53.79242325 15.61872673 52.21782684
v -48.79020309 15.51221466 51.45491409
v -48.79020309 15.51221466 51.45491409
v -53.79242325 15.61872673 52.21782684
v -53.78182602 15.80157948 51.45491409
v -48.79020309 15.51221466 51.45491409
v -53.78182602 15.80157948 51.45491409
v -48.77282715 15.81196213 50.73004913
v -48.77282715 15.81196213 50.73004913
v -53.78182602 15.80157948 51.45491409
v -53.76445007 16.10132599 50.73004913
v -48.77282715 15.81196213 50.73004913
v -53.76445007 16.10132599 50.73004913
v -48.74910355 16.22122192 50.06107330
v -48.74910355 16.22122192 50.06107330
v -53.76445007 16.10132599 50.73004913
v -53.74072266 16.51058578 50.06107330
v -48.74910355 16.22122192 50.06107330
v -53.74072266 16.51058578 50.06107330
v -48.71961594 16.72991943 49.46446609
v -48.71961594 16.72991943 49.46446609
v -53.74072266 16.51058578 50.06107330
v -53.71123505 17.01928329 49.46446609
v -48.71961594 16.72991943 49.46446609
v -53.71123505 17.01928329 49.46446609
v -48.68508530 17.32552719 48.95491409
v -48.68508530 17.32552719 48.95491409
v -53.71123505 17.01928329 49.46446609
v -53.67670822 17.61489105 48.95491409
v -48.68508530 17.32552719 48.95491409
v -53.67670822 17.61489105 48.95491409
v -48.64636993 17.99337959 48.54496765
v -48.64636993 17.99337959 48.54496765
v -53.67670822 17.61489105 48.95491409
v -53.63799286 18.28274345 48.54496765
v -48.64636993 17.99337959 48.54496765
v -53.63799286 18.28274345 48.54496765
v -48.60441971 18.71703148 48.24471664
v -48.60441971 18.71703148 48.24471664
v -53.63799286 18.28274345 48.54496765
v -53.59604263 19.00639725 48.24471664
v -48.60441971 18.71703148 48.24471664
v -53.59604263 19.00639725 48.24471664
v -48.56026840 19.47866631 48.06155777
v -48.56026840 19.47866631 48.06155777
v -53.59604263 19.00639725 48.24471664
v -53.55189133 19.76803017 48.06155777
v -48.56026840 19.47866631 48.06155777
v -53.55189133 19.76803017 48.06155777
v -48.51500320 20.25952721 48.00000000
v -48.51500320 20.25952721 48.00000000
v -53.55189133 19.76803017 48.06155777
v -53.50662231 20.54889107 48.00000000
v -53.50662231 20.54889107 48.00000000
v -53.21725845 25.54051208 48.00000000
v -48.51500320 20.25952721 48.00000000
v -48.51500320 20.25952721 48.00000000
v -53.21725845 25.54051208 48.00000000
v -48.22563934 25.25114822 48.00000000
v -53.54495621 19.88762283 56.43674850
v -53.53881836 19.99352074 140.56268311
v -53.50662231 20.54889107 56.50000000
v -53.50662231 20.54889107 56.50000000
v -53.53881836 19.99352074 140.56268311
v -53.50662231 20.54889107 140.50000000
v -53.50662231 20.54889107 56.50000000
v -53.50662231 20.54889107 140.50000000
v -53.47442627 21.10426140 140.56268311
v -53.53881836 19.99352074 140.56268311
v -53.54495621 19.88762283 56.43674850
v -53.56939697 19.46599960 140.74757385
v -53.56939697 19.46599960 140.74757385
v -53.54495621 19.88762283 56.43674850
v -53.58190536 19.25025368 56.24928665
v -53.56939697 19.46599960 140.74757385
v -53.58190536 19.25025368 56.24928665
v -53.59683228 18.99277878 141.04542542
v -53.59683228 18.99277878 141.04542542
v -53.58190536 19.25025368 56.24928665
v -53.61613083 18.65982056 55.94438553
v -53.59683228 18.99277878 141.04542542
v -53.61613083 18.65982056 55.94438553
v -53.61973953 18.59758949 141.44126892
v -53.61973953 18.59758949 141.44126892
v -53.61613083 18.65982056 55.94438553
v -53.64640045 18.13766289 55.53306961
v -53.61973953 18.59758949 141.44126892
v -53.64640045 18.13766289 55.53306961
v -53.67161942 17.70265388 55.03019714
v -53.69087219 17.37051582 54.45395279
v -53.79598618 15.55727196 53.00000000
v -53.67161942 17.70265388 55.03019714
v -53.67161942 17.70265388 55.03019714
v -53.79598618 15.55727196 53.00000000
v -53.63697815 18.30024529 141.91528320
v -53.67161942 17.70265388 55.03019714
v -53.63697815 18.30024529 141.91528320
v -53.61973953 18.59758949 141.44126892
v -53.69087219 17.37051582 54.45395279
v -53.70346832 17.15325165 53.82515335
v -53.79598618 15.55727196 53.00000000
v -53.79598618 15.55727196 53.00000000
v -53.70346832 17.15325165 53.82515335
v -53.70895004 17.05871582 53.16653442
v -53.79598618 15.55727196 53.00000000
v -53.70895004 17.05871582 53.16653442
v -53.78182602 15.80157948 51.45491409
v -53.78182602 15.80157948 51.45491409
v -53.70895004 17.05871582 53.16653442
v -53.76445007 16.10132599 50.73004913
v -53.76445007 16.10132599 50.73004913
v -53.70895004 17.05871582 53.16653442
v -53.74072266 16.51058578 50.06107330
v -53.74072266 16.51058578 50.06107330
v -53.70895004 17.05871582 53.16653442
v -53.70711517 17.09032249 52.50189590
v -53.74072266 16.51058578 50.06107330
v -53.70711517 17.09032249 52.50189590
v -53.71123505 17.01928329 49.46446609
v -53.71123505 17.01928329 49.46446609
v -53.70711517 17.09032249 52.50189590
v -53.69803619 17.24693298 51.85526276
v -53.71123505 17.01928329 49.46446609
v -53.69803619 17.24693298 51.85526276
v -53.68204117 17.52288246 51.25000000
v -53.71123505 17.01928329 49.46446609
v -53.68204117 17.52288246 51.25000000
v -53.67670822 17.61489105 48.95491409
v -53.67670822 17.61489105 48.95491409
v -53.68204117 17.52288246 51.25000000
v -53.65970230 17.90820122 50.70798492
v -53.67670822 17.61489105 48.95491409
v -53.65970230 17.90820122 50.70798492
v -53.63799286 18.28274345 48.54496765
v -53.63799286 18.28274345 48.54496765
v -53.65970230 17.90820122 50.70798492
v -53.63183594 18.38896179 50.24881363
v -53.63799286 18.28274345 48.54496765
v -53.63183594 18.38896179 50.24881363
v -53.59943771 18.94778633 49.88907623
v -53.63799286 18.28274345 48.54496765
v -53.59943771 18.94778633 49.88907623
v -53.59604263 19.00639725 48.24471664
v -53.59604263 19.00639725 48.24471664
v -53.59943771 18.94778633 49.88907623
v -53.56369019 19.56447983 49.64177322
v -53.59604263 19.00639725 48.24471664
v -53.56369019 19.56447983 49.64177322
v -53.55189133 19.76803017 48.06155777
v -53.55189133 19.76803017 48.06155777
v -53.56369019 19.56447983 49.64177322
v -53.52587891 20.21675301 49.51584625
v -53.55189133 19.76803017 48.06155777
v -53.52587891 20.21675301 49.51584625
v -53.50662231 20.54889107 48.00000000
v -53.50662231 20.54889107 48.00000000
v -53.52587891 20.21675301 49.51584625
v -53.48736954 20.88103104 49.51584625
v -53.50662231 20.54889107 48.00000000
v -53.48736954 20.88103104 49.51584625
v -53.44955826 21.53330231 49.64177322
v -53.44955826 21.53330231 49.64177322
v -53.41380692 22.14999580 49.88907623
v -53.50662231 20.54889107 48.00000000
v -53.50662231 20.54889107 48.00000000
v -53.41380692 22.14999580 49.88907623
v -53.21725845 25.54051208 48.00000000
v -53.21725845 25.54051208 48.00000000
v -53.41380692 22.14999580 49.88907623
v -53.38141251 22.70882225 50.24881363
v -53.21725845 25.54051208 48.00000000
v -53.38141251 22.70882225 50.24881363
v -53.35354233 23.18958092 50.70798492
v -53.35354233 23.18958092 50.70798492
v -53.33120346 23.57489967 51.25000000
v -53.21725845 25.54051208 48.00000000
v -53.21725845 25.54051208 48.00000000
v -53.33120346 23.57489967 51.25000000
v -53.31520844 23.85085106 51.85526276
v -53.21725845 25.54051208 48.00000000
v -53.31520844 23.85085106 51.85526276
v -53.30612946 24.00745964 52.50189590
v -53.30612946 24.00745964 52.50189590
v -53.30429840 24.03906822 53.16653442
v -53.21725845 25.54051208 48.00000000
v -53.21725845 25.54051208 48.00000000
v -53.30429840 24.03906822 53.16653442
v -53.15246201 26.65827942 48.06287766
v -53.15246201 26.65827942 48.06287766
v -53.30429840 24.03906822 53.16653442
v -53.30977631 23.94453049 53.82515335
v -53.15246201 26.65827942 48.06287766
v -53.30977631 23.94453049 53.82515335
v -53.08847809 27.76199150 48.25072098
v -53.08847809 27.76199150 48.25072098
v -53.30977631 23.94453049 53.82515335
v -53.02611542 28.83776665 48.56116486
v -53.02611542 28.83776665 48.56116486
v -53.30977631 23.94453049 53.82515335
v -53.32237244 23.72726822 54.45395279
v -53.02611542 28.83776665 48.56116486
v -53.32237244 23.72726822 54.45395279
v -53.36557007 22.98212624 142.44369507
v -53.36557007 22.98212624 142.44369507
v -53.32237244 23.72726822 54.45395279
v -53.37627029 22.79753876 141.91528320
v -53.37627029 22.79753876 141.91528320
v -53.32237244 23.72726822 54.45395279
v -53.34162521 23.39512825 55.03019714
v -53.37627029 22.79753876 141.91528320
v -53.34162521 23.39512825 55.03019714
v -53.39350510 22.50019455 141.44126892
v -53.39350510 22.50019455 141.44126892
v -53.34162521 23.39512825 55.03019714
v -53.36684418 22.96011925 55.53306961
v -53.39350510 22.50019455 141.44126892
v -53.36684418 22.96011925 55.53306961
v -53.39711380 22.43796349 55.94438553
v -53.39350510 22.50019455 141.44126892
v -53.39711380 22.43796349 55.94438553
v -53.41641617 22.10500336 141.04542542
v -53.41641617 22.10500336 141.04542542
v -53.39711380 22.43796349 55.94438553
v -53.43133926 21.84753036 56.24928665
v -53.41641617 22.10500336 141.04542542
v -53.43133926 21.84753036 56.24928665
v -53.44384766 21.63178253 140.74757385
v -53.44384766 21.63178253 140.74757385
v -53.43133926 21.84753036 56.24928665
v -53.46828842 21.21016121 56.43674850
v -53.44384766 21.63178253 140.74757385
v -53.46828842 21.21016121 56.43674850
v -53.47442627 21.10426140 140.56268311
v -53.47442627 21.10426140 140.56268311
v -53.46828842 21.21016121 56.43674850
v -53.50662231 20.54889107 56.50000000
v -53.36557007 22.98212624 142.44369507
v -53.36194229 23.04470062 143.00000000
v -52.63853073 35.52375031 148.00000000
v -52.63853073 35.52375031 148.00000000
v -53.36194229 23.04470062 143.00000000
v -53.36557007 22.98212624 143.55630493
v -52.63853073 35.52375031 148.00000000
v -53.36557007 22.98212624 143.55630493
v -53.37627029 22.79753876 144.08471680
v -53.37627029 22.79753876 144.08471680
v -53.39350510 22.50019455 144.55873108
v -52.63853073 35.52375031 148.00000000
v -52.63853073 35.52375031 148.00000000
v -53.39350510 22.50019455 144.55873108
v -53.41641617 22.10500336 144.95457458
v -52.63853073 35.52375031 148.00000000
v -53.41641617 22.10500336 144.95457458
v -53.44384766 21.63178253 145.25242615
v -53.44384766 21.63178253 145.25242615
v -53.47442627 21.10426140 145.43731689
v -52.63853073 35.52375031 148.00000000
v -52.63853073 35.52375031 148.00000000
v -53.47442627 21.10426140 145.43731689
v -53.79598618 15.55727196 148.00000000
v -53.79598618 15.55727196 148.00000000
v -53.47442627 21.10426140 145.43731689
v -53.50662231 20.54889107 145.50000000
v -53.79598618 15.55727196 148.00000000
v -53.50662231 20.54889107 145.50000000
v -53.53881836 19.99352074 145.43731689
v -53.53881836 19.99352074 145.43731689
v -53.56939697 19.46599960 145.25242615
v -53.79598618 15.55727196 148.00000000
v -53.79598618 15.55727196 148.00000000
v -53.56939697 19.46599960 145.25242615
v -53.59683228 18.99277878 144.95457458
v -53.79598618 15.55727196 148.00000000
v -53.59683228 18.99277878 144.95457458
v -53.61973953 18.59758949 144.55873108
v -53.61973953 18.59758949 144.55873108
v -53.63697815 18.30024529 144.08471680
v -53.79598618 15.55727196 148.00000000
v -53.79598618 15.55727196 148.00000000
v -53.63697815 18.30024529 144.08471680
v -53.64767838 18.11565590 143.55630493
v -53.79598618 15.55727196 148.00000000
v -53.64767838 18.11565590 143.55630493
v -53.65130615 18.05308151 143.00000000
v -53.65130615 18.05308151 143.00000000
v -53.64767838 18.11565590 142.44369507
v -53.79598618 15.55727196 148.00000000
v -53.79598618 15.55727196 148.00000000
v -53.64767838 18.11565590 142.44369507
v -53.79598618 15.55727196 53.00000000
v -53.79598618 15.55727196 53.00000000
v -53.64767838 18.11565590 142.44369507
v -53.63697815 18.30024529 141.91528320
v -53.78182602 15.80157948 51.45491409
v -53.79242325 15.61872673 52.21782684
v -53.79598618 15.55727196 53.00000000
v -52.63853073 35.52375031 148.00000000
v -52.63853073 35.52375031 58.00000000
v -53.36557007 22.98212624 142.44369507
v -53.36557007 22.98212624 142.44369507
v -52.63853073 35.52375031 58.00000000
v -52.90935516 30.85191536 49.53275681
v -53.36557007 22.98212624 142.44369507
v -52.90935516 30.85191536 49.53275681
v -52.96615982 29.87207603 48.99031067
v -52.64216995 35.46097946 56.88035583
v -52.65304184 35.27344894 55.77479172
v -52.63853073 35.52375031 58.00000000
v -52.63853073 35.52375031 58.00000000
v -52.65304184 35.27344894 55.77479172
v -52.67100525 34.96352386 54.69720840
v -52.63853073 35.52375031 58.00000000
v -52.67100525 34.96352386 54.69720840
v -52.69584274 34.53509903 53.66116333
v -52.69584274 34.53509903 53.66116333
v -52.72723389 33.99356079 52.67967987
v -52.63853073 35.52375031 58.00000000
v -52.63853073 35.52375031 58.00000000
v -52.72723389 33.99356079 52.67967987
v -52.76478958 33.34572220 51.76510239
v -52.63853073 35.52375031 58.00000000
v -52.76478958 33.34572220 51.76510239
v -52.80803680 32.59972763 50.92893219
v -52.80803680 32.59972763 50.92893219
v -52.85642624 31.76495934 50.18168640
v -52.63853073 35.52375031 58.00000000
v -52.63853073 35.52375031 58.00000000
v -52.85642624 31.76495934 50.18168640
v -52.90935516 30.85191536 49.53275681
v -52.96615982 29.87207603 48.99031067
v -53.02611542 28.83776665 48.56116486
v -53.36557007 22.98212624 142.44369507
v -48.22563934 25.25114822 48.00000000
v -53.21725845 25.54051208 48.00000000
v -48.16084290 26.36891556 48.06287766
v -48.16084290 26.36891556 48.06287766
v -53.21725845 25.54051208 48.00000000
v -53.15246201 26.65827942 48.06287766
v -48.16084290 26.36891556 48.06287766
v -53.15246201 26.65827942 48.06287766
v -48.09685898 27.47262764 48.25072098
v -48.09685898 27.47262764 48.25072098
v -53.15246201 26.65827942 48.06287766
v -53.08847809 27.76199150 48.25072098
v -48.09685898 27.47262764 48.25072098
v -53.08847809 27.76199150 48.25072098
v -48.03449631 28.54840279 48.56116486
v -48.03449631 28.54840279 48.56116486
v -53.08847809 27.76199150 48.25072098
v -53.02611542 28.83776665 48.56116486
v -48.03449631 28.54840279 48.56116486
v -53.02611542 28.83776665 48.56116486
v -47.97453690 29.58271217 48.99031067
v -47.97453690 29.58271217 48.99031067
v -53.02611542 28.83776665 48.56116486
v -52.96615982 29.87207603 48.99031067
v -47.97453690 29.58271217 48.99031067
v -52.96615982 29.87207603 48.99031067
v -47.91773605 30.56255150 49.53275681
v -47.91773605 30.56255150 49.53275681
v -52.96615982 29.87207603 48.99031067
v -52.90935516 30.85191536 49.53275681
v -47.91773605 30.56255150 49.53275681
v -52.90935516 30.85191536 49.53275681
v -47.86480713 31.47559547 50.18168640
v -47.86480713 31.47559547 50.18168640
v -52.90935516 30.85191536 49.53275681
v -52.85642624 31.76495934 50.18168640
v -47.86480713 31.47559547 50.18168640
v -52.85642624 31.76495934 50.18168640
v -47.81641769 32.31036377 50.92893219
v -47.81641769 32.31036377 50.92893219
v -52.85642624 31.76495934 50.18168640
v -52.80803680 32.59972763 50.92893219
v -47.81641769 32.31036377 50.92893219
v -52.80803680 32.59972763 50.92893219
v -47.77317047 33.05635834 51.76510239
v -47.77317047 33.05635834 51.76510239
v -52.80803680 32.59972763 50.92893219
v -52.76478958 33.34572220 51.76510239
v -47.77317047 33.05635834 51.76510239
v -52.76478958 33.34572220 51.76510239
v -47.73561478 33.70419693 52.67967987
v -47.73561478 33.70419693 52.67967987
v -52.76478958 33.34572220 51.76510239
v -52.72723389 33.99356079 52.67967987
v -47.73561478 33.70419693 52.67967987
v -52.72723389 33.99356079 52.67967987
v -47.70422363 34.24573517 53.66116333
v -47.70422363 34.24573517 53.66116333
v -52.72723389 33.99356079 52.67967987
v -52.69584274 34.53509903 53.66116333
v -47.70422363 34.24573517 53.66116333
v -52.69584274 34.53509903 53.66116333
v -47.67938614 34.67416000 54.69720840
v -47.67938614 34.67416000 54.69720840
v -52.69584274 34.53509903 53.66116333
v -52.67100525 34.96352386 54.69720840
v -47.67938614 34.67416000 54.69720840
v -52.67100525 34.96352386 54.69720840
v -47.66141891 34.98408508 55.77479172
v -47.66141891 34.98408508 55.77479172
v -52.67100525 34.96352386 54.69720840
v -52.65304184 35.27344894 55.77479172
v -47.66141891 34.98408508 55.77479172
v -52.65304184 35.27344894 55.77479172
v -47.65055084 35.17161560 56.88035583
v -47.65055084 35.17161560 56.88035583
v -52.65304184 35.27344894 55.77479172
v -52.64216995 35.46097946 56.88035583
v -47.65055084 35.17161560 56.88035583
v -52.64216995 35.46097946 56.88035583
v -47.64691162 35.23438644 58.00000000
v -47.64691162 35.23438644 58.00000000
v -52.64216995 35.46097946 56.88035583
v -52.63853073 35.52375031 58.00000000
v -53.36557007 22.98212624 142.44369507
v -48.37394714 22.69276237 142.44369507
v -53.36194229 23.04470062 143.00000000
v -53.36194229 23.04470062 143.00000000
v -48.37394714 22.69276237 142.44369507
v -48.37031937 22.75533676 143.00000000
v -53.36194229 23.04470062 143.00000000
v -48.37031937 22.75533676 143.00000000
v -53.36557007 22.98212624 143.55630493
v -53.36557007 22.98212624 143.55630493
v -48.37031937 22.75533676 143.00000000
v -48.37394714 22.69276237 143.55630493
v -53.36557007 22.98212624 143.55630493
v -48.37394714 22.69276237 143.55630493
v -53.37627029 22.79753876 144.08471680
v -53.37627029 22.79753876 144.08471680
v -48.37394714 22.69276237 143.55630493
v -48.38464737 22.50817490 144.08471680
v -53.37627029 22.79753876 144.08471680
v -48.38464737 22.50817490 144.08471680
v -53.39350510 22.50019455 144.55873108
v -53.39350510 22.50019455 144.55873108
v -48.38464737 22.50817490 144.08471680
v -48.40188599 22.21083069 144.55873108
v -53.39350510 22.50019455 144.55873108
v -48.40188599 22.21083069 144.55873108
v -53.41641617 22.10500336 144.95457458
v -53.41641617 22.10500336 144.95457458
v -48.40188599 22.21083069 144.55873108
v -48.42479706 21.81563950 144.95457458
v -53.41641617 22.10500336 144.95457458
v -48.42479706 21.81563950 144.95457458
v -53.44384766 21.63178253 145.25242615
v -53.44384766 21.63178253 145.25242615
v -48.42479706 21.81563950 144.95457458
v -48.45222855 21.34241867 145.25242615
v -53.44384766 21.63178253 145.25242615
v -48.45222855 21.34241867 145.25242615
v -53.47442627 21.10426140 145.43731689
v -53.47442627 21.10426140 145.43731689
v -48.45222855 21.34241867 145.25242615
v -48.48280716 20.81489754 145.43731689
v -53.47442627 21.10426140 145.43731689
v -48.48280716 20.81489754 145.43731689
v -53.50662231 20.54889107 145.50000000
v -53.50662231 20.54889107 145.50000000
v -48.48280716 20.81489754 145.43731689
v -48.51500320 20.25952721 145.50000000
v -53.50662231 20.54889107 145.50000000
v -48.51500320 20.25952721 145.50000000
v -53.53881836 19.99352074 145.43731689
v -53.53881836 19.99352074 145.43731689
v -48.51500320 20.25952721 145.50000000
v -48.54719925 19.70415688 145.43731689
v -53.53881836 19.99352074 145.43731689
v -48.54719925 19.70415688 145.43731689
v -53.56939697 19.46599960 145.25242615
v -53.56939697 19.46599960 145.25242615
v -48.54719925 19.70415688 145.43731689
v -48.57777786 19.17663574 145.25242615
v -53.56939697 19.46599960 145.25242615
v -48.57777786 19.17663574 145.25242615
v -53.59683228 18.99277878 144.95457458
v -53.59683228 18.99277878 144.95457458
v -48.57777786 19.17663574 145.25242615
v -48.60520935 18.70341492 144.95457458
v -53.59683228 18.99277878 144.95457458
v -48.60520935 18.70341492 144.95457458
v -53.61973953 18.59758949 144.55873108
v -53.61973953 18.59758949 144.55873108
v -48.60520935 18.70341492 144.95457458
v -48.62812042 18.30822563 144.55873108
v -53.61973953 18.59758949 144.55873108
v -48.62812042 18.30822563 144.55873108
v -53.63697815 18.30024529 144.08471680
v -53.63697815 18.30024529 144.08471680
v -48.62812042 18.30822563 144.55873108
v -48.64535904 18.01087952 144.08471680
v -53.63697815 18.30024529 144.08471680
v -48.64535904 18.01087952 144.08471680
v -53.64767838 18.11565590 143.55630493
v -53.64767838 18.11565590 143.55630493
v -48.64535904 18.01087952 144.08471680
v -48.65605927 17.82629204 143.55630493
v -53.64767838 18.11565590 143.55630493
v -48.65605927 17.82629204 143.55630493
v -53.65130615 18.05308151 143.00000000
v -53.65130615 18.05308151 143.00000000
v -48.65605927 17.82629204 143.55630493
v -48.65968704 17.76371765 143.00000000
v -53.65130615 18.05308151 143.00000000
v -48.65968704 17.76371765 143.00000000
v -53.64767838 18.11565590 142.44369507
v -53.64767838 18.11565590 142.44369507
v -48.65968704 17.76371765 143.00000000
v -48.65605927 17.82629204 142.44369507
v -53.64767838 18.11565590 142.44369507
v -48.65605927 17.82629204 142.44369507
v -53.63697815 18.30024529 141.91528320
v -53.63697815 18.30024529 141.91528320
v -48.65605927 17.82629204 142.44369507
v -48.64535904 18.01087952 141.91528320
v -53.63697815 18.30024529 141.91528320
v -48.64535904 18.01087952 141.91528320
v -53.61973953 18.59758949 141.44126892
v -53.61973953 18.59758949 141.44126892
v -48.64535904 18.01087952 141.91528320
v -48.62812042 18.30822563 141.44126892
v -53.61973953 18.59758949 141.44126892
v -48.62812042 18.30822563 141.44126892
v -53.59683228 18.99277878 141.04542542
v -53.59683228 18.99277878 141.04542542
v -48.62812042 18.30822563 141.44126892
v -48.60520935 18.70341492 141.04542542
v -53.59683228 18.99277878 141.04542542
v -48.60520935 18.70341492 141.04542542
v -53.56939697 19.46599960 140.74757385
v -53.56939697 19.46599960 140.74757385
v -48.60520935 18.70341492 141.04542542
v -48.57777786 19.17663574 140.74757385
v -53.56939697 19.46599960 140.74757385
v -48.57777786 19.17663574 140.74757385
v -53.53881836 19.99352074 140.56268311
v -53.53881836 19.99352074 140.56268311
v -48.57777786 19.17663574 140.74757385
v -48.54719925 19.70415688 140.56268311
v -53.53881836 19.99352074 140.56268311
v -48.54719925 19.70415688 140.56268311
v -53.50662231 20.54889107 140.50000000
v -53.50662231 20.54889107 140.50000000
v -48.54719925 19.70415688 140.56268311
v -48.51500320 20.25952721 140.50000000
v -53.50662231 20.54889107 140.50000000
v -48.51500320 20.25952721 140.50000000
v -53.47442627 21.10426140 140.56268311
v -53.47442627 21.10426140 140.56268311
v -48.51500320 20.25952721 140.50000000
v -48.48280716 20.81489754 140.56268311
v -53.47442627 21.10426140 140.56268311
v -48.48280716 20.81489754 140.56268311
v -53.44384766 21.63178253 140.74757385
v -53.44384766 21.63178253 140.74757385
v -48.48280716 20.81489754 140.56268311
v -48.45222855 21.34241867 140.74757385
v -53.44384766 21.63178253 140.74757385
v -48.45222855 21.34241867 140.74757385
v -53.41641617 22.10500336 141.04542542
v -53.41641617 22.10500336 141.04542542
v -48.45222855 21.34241867 140.74757385
v -48.42479706 21.81563950 141.04542542
v -53.41641617 22.10500336 141.04542542
v -48.42479706 21.81563950 141.04542542
v -53.39350510 22.50019455 141.44126892
v -53.39350510 22.50019455 141.44126892
v -48.42479706 21.81563950 141.04542542
v -48.40188599 22.21083069 141.44126892
v -53.39350510 22.50019455 141.44126892
v -48.40188599 22.21083069 141.44126892
v -53.37627029 22.79753876 141.91528320
v -53.37627029 22.79753876 141.91528320
v -48.40188599 22.21083069 141.44126892
v -48.38464737 22.50817490 141.91528320
v -53.37627029 22.79753876 141.91528320
v -48.38464737 22.50817490 141.91528320
v -53.36557007 22.98212624 142.44369507
v -53.36557007 22.98212624 142.44369507
v -48.38464737 22.50817490 141.91528320
v -48.37394714 22.69276237 142.44369507
v -52.63853073 35.52375031 58.00000000
v -52.63853073 35.52375031 148.00000000
v -47.64691162 35.23438644 58.00000000
v -47.64691162 35.23438644 58.00000000
v -52.63853073 35.52375031 148.00000000
v -47.64691162 35.23438644 148.00000000
v -48.80436707 15.26790810 148.00000000
v -47.64691162 35.23438644 148.00000000
v -53.79598618 15.55727196 148.00000000
v -53.79598618 15.55727196 148.00000000
v -47.64691162 35.23438644 148.00000000
v -52.63853073 35.52375031 148.00000000
v -48.80436707 15.26790810 53.00000000
v -48.80436707 15.26790810 148.00000000
v -53.79598618 15.55727196 53.00000000
v -53.79598618 15.55727196 53.00000000
v -48.80436707 15.26790810 148.00000000
v -53.79598618 15.55727196 148.00000000
v -48.47666931 20.92079735 56.43675232
v -48.48280716 20.81489754 140.56268311
v -48.51500320 20.25952721 56.50000000
v -48.51500320 20.25952721 56.50000000
v -48.48280716 20.81489754 140.56268311
v -48.51500320 20.25952721 140.50000000
v -48.51500320 20.25952721 56.50000000
v -48.51500320 20.25952721 140.50000000
v -48.54719925 19.70415688 140.56268311
v -48.48280716 20.81489754 140.56268311
v -48.47666931 20.92079735 56.43675232
v -48.45222855 21.34241867 140.74757385
v -48.45222855 21.34241867 140.74757385
v -48.47666931 20.92079735 56.43675232
v -48.43972015 21.55816650 56.24928665
v -48.45222855 21.34241867 140.74757385
v -48.43972015 21.55816650 56.24928665
v -48.42479706 21.81563950 141.04542542
v -48.42479706 21.81563950 141.04542542
v -48.43972015 21.55816650 56.24928665
v -48.40549469 22.14859962 55.94438553
v -48.42479706 21.81563950 141.04542542
v -48.40549469 22.14859962 55.94438553
v -48.40188599 22.21083069 141.44126892
v -48.40188599 22.21083069 141.44126892
v -48.40549469 22.14859962 55.94438553
v -48.37522507 22.67075539 55.53306961
v -48.40188599 22.21083069 141.44126892
v -48.37522507 22.67075539 55.53306961
v -48.35000610 23.10576439 55.03020096
v -48.40188599 22.21083069 141.44126892
v -48.35000610 23.10576439 55.03020096
v -48.38464737 22.50817490 141.91528320
v -48.38464737 22.50817490 141.91528320
v -48.35000610 23.10576439 55.03020096
v -48.33075333 23.43790436 54.45395279
v -48.38464737 22.50817490 141.91528320
v -48.33075333 23.43790436 54.45395279
v -48.37394714 22.69276237 142.44369507
v -48.37394714 22.69276237 142.44369507
v -48.33075333 23.43790436 54.45395279
v -48.03449631 28.54840279 48.56116486
v -48.37394714 22.69276237 142.44369507
v -48.03449631 28.54840279 48.56116486
v -47.97453690 29.58271217 48.99031067
v -48.33075333 23.43790436 54.45395279
v -48.31815720 23.65516663 53.82515717
v -48.03449631 28.54840279 48.56116486
v -48.03449631 28.54840279 48.56116486
v -48.31815720 23.65516663 53.82515717
v -48.09685898 27.47262764 48.25072098
v -48.09685898 27.47262764 48.25072098
v -48.31815720 23.65516663 53.82515717
v -48.16084290 26.36891556 48.06287766
v -48.16084290 26.36891556 48.06287766
v -48.31815720 23.65516663 53.82515717
v -48.31267929 23.74970436 53.16653824
v -48.16084290 26.36891556 48.06287766
v -48.31267929 23.74970436 53.16653824
v -48.22563934 25.25114822 48.00000000
v -48.22563934 25.25114822 48.00000000
v -48.31267929 23.74970436 53.16653824
v -48.31451035 23.71809578 52.50189972
v -48.22563934 25.25114822 48.00000000
v -48.31451035 23.71809578 52.50189972
v -48.32358932 23.56148720 51.85526276
v -48.32358932 23.56148720 51.85526276
v -48.33958435 23.28553581 51.25000000
v -48.22563934 25.25114822 48.00000000
v -48.22563934 25.25114822 48.00000000
v -48.33958435 23.28553581 51.25000000
v -48.36192322 22.90021706 50.70798874
v -48.22563934 25.25114822 48.00000000
v -48.36192322 22.90021706 50.70798874
v -48.38979340 22.41945839 50.24881363
v -48.38979340 22.41945839 50.24881363
v -48.42218781 21.86063194 49.88907623
v -48.22563934 25.25114822 48.00000000
v -48.22563934 25.25114822 48.00000000
v -48.42218781 21.86063194 49.88907623
v -48.51500320 20.25952721 48.00000000
v -48.51500320 20.25952721 48.00000000
v -48.42218781 21.86063194 49.88907623
v -48.45793533 21.24393845 49.64177322
v -48.51500320 20.25952721 48.00000000
v -48.45793533 21.24393845 49.64177322
v -48.49575043 20.59166527 49.51585007
v -48.49575043 20.59166527 49.51585007
v -48.53425598 19.92738914 49.51585007
v -48.51500320 20.25952721 48.00000000
v -48.51500320 20.25952721 48.00000000
v -48.53425598 19.92738914 49.51585007
v -48.56026840 19.47866631 48.06155777
v -48.56026840 19.47866631 48.06155777
v -48.53425598 19.92738914 49.51585007
v -48.57207108 19.27511597 49.64177322
v -48.56026840 19.47866631 48.06155777
v -48.57207108 19.27511597 49.64177322
v -48.60441971 18.71703148 48.24471664
v -48.60441971 18.71703148 48.24471664
v -48.57207108 19.27511597 49.64177322
v -48.60781860 18.65842247 49.88907623
v -48.60441971 18.71703148 48.24471664
v -48.60781860 18.65842247 49.88907623
v -48.64636993 17.99337959 48.54496765
v -48.64636993 17.99337959 48.54496765
v -48.60781860 18.65842247 49.88907623
v -48.64021301 18.09959793 50.24881363
v -48.64636993 17.99337959 48.54496765
v -48.64021301 18.09959793 50.24881363
v -48.66808319 17.61883736 50.70798874
v -48.64636993 17.99337959 48.54496765
v -48.66808319 17.61883736 50.70798874
v -48.68508530 17.32552719 48.95491409
v -48.68508530 17.32552719 48.95491409
v -48.66808319 17.61883736 50.70798874
v -48.69042206 17.23351860 51.25000000
v -48.68508530 17.32552719 48.95491409
v -48.69042206 17.23351860 51.25000000
v -48.71961594 16.72991943 49.46446609
v -48.71961594 16.72991943 49.46446609
v -48.69042206 17.23351860 51.25000000
v -48.70641708 16.95756912 51.85526276
v -48.71961594 16.72991943 49.46446609
v -48.70641708 16.95756912 51.85526276
v -48.71549606 16.80095863 52.50189972
v -48.71961594 16.72991943 49.46446609
v -48.71549606 16.80095863 52.50189972
v -48.74910355 16.22122192 50.06107330
v -48.74910355 16.22122192 50.06107330
v -48.71549606 16.80095863 52.50189972
v -48.71732712 16.76935196 53.16653824
v -48.74910355 16.22122192 50.06107330
v -48.71732712 16.76935196 53.16653824
v -48.77282715 15.81196213 50.73004913
v -48.77282715 15.81196213 50.73004913
v -48.71732712 16.76935196 53.16653824
v -48.79020309 15.51221466 51.45491409
v -48.79020309 15.51221466 51.45491409
v -48.71732712 16.76935196 53.16653824
v -48.80436707 15.26790810 53.00000000
v -48.79020309 15.51221466 51.45491409
v -48.80436707 15.26790810 53.00000000
v -48.80080414 15.32936287 52.21782684
v -48.71732712 16.76935196 53.16653824
v -48.71184921 16.86388779 53.82515717
v -48.80436707 15.26790810 53.00000000
v -48.80436707 15.26790810 53.00000000
v -48.71184921 16.86388779 53.82515717
v -48.69925308 17.08115196 54.45395279
v -48.80436707 15.26790810 53.00000000
v -48.69925308 17.08115196 54.45395279
v -48.68000031 17.41329002 55.03020096
v -48.65478134 17.84829903 55.53306961
v -48.62812042 18.30822563 141.44126892
v -48.68000031 17.41329002 55.03020096
v -48.68000031 17.41329002 55.03020096
v -48.62812042 18.30822563 141.44126892
v -48.64535904 18.01087952 141.91528320
v -48.68000031 17.41329002 55.03020096
v -48.64535904 18.01087952 141.91528320
v -48.80436707 15.26790810 53.00000000
v -48.80436707 15.26790810 53.00000000
v -48.64535904 18.01087952 141.91528320
v -48.65605927 17.82629204 142.44369507
v -48.80436707 15.26790810 53.00000000
v -48.65605927 17.82629204 142.44369507
v -48.80436707 15.26790810 148.00000000
v -48.80436707 15.26790810 148.00000000
v -48.65605927 17.82629204 142.44369507
v -48.65968704 17.76371765 143.00000000
v -48.80436707 15.26790810 148.00000000
v -48.65968704 17.76371765 143.00000000
v -48.65605927 17.82629204 143.55630493
v -48.65478134 17.84829903 55.53306961
v -48.62451172 18.37045670 55.94438553
v -48.62812042 18.30822563 141.44126892
v -48.62812042 18.30822563 141.44126892
v -48.62451172 18.37045670 55.94438553
v -48.60520935 18.70341492 141.04542542
v -48.60520935 18.70341492 141.04542542
v -48.62451172 18.37045670 55.94438553
v -48.59028625 18.96088982 56.24928665
v -48.60520935 18.70341492 141.04542542
v -48.59028625 18.96088982 56.24928665
v -48.57777786 19.17663574 140.74757385
v -48.57777786 19.17663574 140.74757385
v -48.59028625 18.96088982 56.24928665
v -48.55333710 19.59825897 56.43675232
v -48.57777786 19.17663574 140.74757385
v -48.55333710 19.59825897 56.43675232
v -48.54719925 19.70415688 140.56268311
v -48.54719925 19.70415688 140.56268311
v -48.55333710 19.59825897 56.43675232
v -48.51500320 20.25952721 56.50000000
v -47.97453690 29.58271217 48.99031067
v -47.91773605 30.56255150 49.53275681
v -48.37394714 22.69276237 142.44369507
v -48.37394714 22.69276237 142.44369507
v -47.91773605 30.56255150 49.53275681
v -47.64691162 35.23438644 58.00000000
v -48.37394714 22.69276237 142.44369507
v -47.64691162 35.23438644 58.00000000
v -47.64691162 35.23438644 148.00000000
v -47.91773605 30.56255150 49.53275681
v -47.86480713 31.47559547 50.18168640
v -47.64691162 35.23438644 58.00000000
v -47.64691162 35.23438644 58.00000000
v -47.86480713 31.47559547 50.18168640
v -47.81641769 32.31036377 50.92893219
v -47.64691162 35.23438644 58.00000000
v -47.81641769 32.31036377 50.92893219
v -47.77317047 33.05635834 51.76510239
v -47.77317047 33.05635834 51.76510239
v -47.73561478 33.70419693 52.67967987
v -47.64691162 35.23438644 58.00000000
v -47.64691162 35.23438644 58.00000000
v -47.73561478 33.70419693 52.67967987
v -47.70422363 34.24573517 53.66116333
v -47.64691162 35.23438644 58.00000000
v -47.70422363 34.24573517 53.66116333
v -47.67938614 34.67416000 54.69720840
v -47.67938614 34.67416000 54.69720840
v -47.66141891 34.98408508 55.77479172
v -47.64691162 35.23438644 58.00000000
v -47.64691162 35.23438644 58.00000000
v -47.66141891 34.98408508 55.77479172
v -47.65055084 35.17161560 56.88035583
v -48.80436707 15.26790810 148.00000000
v -48.48280716 20.81489754 145.43731689
v -47.64691162 35.23438644 148.00000000
v -47.64691162 35.23438644 148.00000000
v -48.48280716 20.81489754 145.43731689
v -48.45222855 21.34241867 145.25242615
v -47.64691162 35.23438644 148.00000000
v -48.45222855 21.34241867 145.25242615
v -48.42479706 21.81563950 144.95457458
v -48.37394714 22.69276237 143.55630493
v -48.37031937 22.75533676 143.00000000
v -47.64691162 35.23438644 148.00000000
v -47.64691162 35.23438644 148.00000000
v -48.37031937 22.75533676 143.00000000
v -48.37394714 22.69276237 142.44369507
v -48.65605927 17.82629204 143.55630493
v -48.64535904 18.01087952 144.08471680
v -48.80436707 15.26790810 148.00000000
v -48.80436707 15.26790810 148.00000000
v -48.64535904 18.01087952 144.08471680
v -48.62812042 18.30822563 144.55873108
v -48.80436707 15.26790810 148.00000000
v -48.62812042 18.30822563 144.55873108
v -48.60520935 18.70341492 144.95457458
v -48.60520935 18.70341492 144.95457458
v -48.57777786 19.17663574 145.25242615
v -48.80436707 15.26790810 148.00000000
v -48.80436707 15.26790810 148.00000000
v -48.57777786 19.17663574 145.25242615
v -48.54719925 19.70415688 145.43731689
v -48.80436707 15.26790810 148.00000000
v -48.54719925 19.70415688 145.43731689
v -48.51500320 20.25952721 145.50000000
v -48.51500320 20.25952721 145.50000000
v -48.48280716 20.81489754 145.43731689
v -48.80436707 15.26790810 148.00000000
v -48.42479706 21.81563950 144.95457458
v -48.40188599 22.21083069 144.55873108
v -47.64691162 35.23438644 148.00000000
v -47.64691162 35.23438644 148.00000000
v -48.40188599 22.21083069 144.55873108
v -48.38464737 22.50817490 144.08471680
v -47.64691162 35.23438644 148.00000000
v -48.38464737 22.50817490 144.08471680
v -48.37394714 22.69276237 143.55630493
f 1 2 3
f 4 5 6
f 7 8 9
f 10 11 12
f 13 14 15
f 16 17 18
f 19 20 21
f 22 23 24
f 25 26 27
f 28 29 30
f 31 32 33
f 34 35 36
f 37 38 39
f 40 41 42
f 43 44 45
f 46 47 48
f 49 50 51
f 52 53 54
f 55 56 57
f 58 59 60
f 61 62 63
f 64 65 66
f 67 68 69
f 70 71 72
f 73 74 75
f 76 77 78
f 79 80 81
f 82 83 84
f 85 86 87
f 88 89 90
f 91 92 93
f 94 95 96
f 97 98 99
f 100 101 102
f 103 104 105
f 106 107 108
f 109 110 111
f 112 113 114
f 115 116 117
f 118 119 120
f 121 122 123
f 124 125 126
f 127 128 129
f 130 131 132
f 133 134 135
f 136 137 138
f 139 140 141
f 142 143 144
f 145 146 147
f 148 149 150
f 151 152 153
f 154 155 156
f 157 158 159
f 160 161 162
f 163 164 165
f 166 167 168
f 169 170 171
f 172 173 174
f 175 176 177
f 178 179 180
f 181 182 183
f 184 185 186
f 187 188 189
f 190 191 192
f 193 194 195
f 196 197 198
f 199 200 201
f 202 203 204
f 205 206 207
f 208 209 210
f 211 212 213
f 214 215 216
f 217 218 219
f 220 221 222
f 223 224 225
f 226 227 228
f 229 230 231
f 232 233 234
f 235 236 237
f 238 239 240
f 241 242 243
f 244 245 246
f 247 248 249
f 250 251 252
f 253 254 255
f 256 257 258
f 259 260 261
f 262 263 264
f 265 266 267
f 268 269 270
f 271 272 273
f 274 275 276
f 277 278 279
f 280 281 282
f 283 284 285
f 286 287 288
f 289 290 291
f 292 293 294
f 295 296 297
f 298 299 300
f 301 302 303
f 304 305 306
f 307 308 309
f 310 311 312
f 313 314 315
f 316 317 318
f 319 320 321
f 322 323 324
f 325 326 327
f 328 329 330
f 331 332 333
f 334 335 336
f 337 338 339
f 340 341 342
f 343 344 345
f 346 347 348
f 349 350 351
f 352 353 354
f 355 356 357
f 358 359 360
f 361 362 363
f 364 365 366
f 367 368 369
f 370 371 372
f 373 374 375
f 376 377 378
f 379 380 381
f 382 383 384
f 385 386 387
f 388 389 390
f 391 392 393
f 394 395 396
f 397 398 399
f 400 401 402
f 403 404 405
f 406 407 408
f 409 410 411
f 412 413 414
f 415 416 417
f 418 419 420
f 421 422 423
f 424 425 426
f 427 428 429
f 430 431 432
f 433 434 435
f 436 437 438
f 439 440 441
f 442 443 444
f 445 446 447
f 448 449 450
f 451 452 453
f 454 455 456
f 457 458 459
f 460 461 462
f 463 464 465
f 466 467 468
f 469 470 471
f 472 473 474
f 475 476 477
f 478 479 480
f 481 482 483
f 484 485 486
f 487 488 489
f 490 491 492
f 493 494 495
f 496 497 498
f 499 500 501
f 502 503 504
f 505 506 507
f 508 509 510
f 511 512 513
f 514 515 516
f 517 518 519
f 520 521 522
f 523 524 525
f 526 527 528
f 529 530 531
f 532 533 534
f 535 536 537
f 538 539 540
f 541 542 543
f 544 545 546
f 547 548 549
f 550 551 552
f 553 554 555
f 556 557 558
f 559 560 561
f 562 563 564
f 565 566 567
f 568 569 570
f 571 572 573
f 574 575 576
f 577 578 579
f 580 581 582
f 583 584 585
f 586 587 588
f 589 590 591
f 592 593 594
f 595 596 597
f 598 599 600
f 601 602 603
f 604 605 606
f 607 608 609
f 610 611 612
f 613 614 615
f 616 617 618
f 619 620 621
f 622 623 624
f 625 626 627
f 628 629 630
f 631 632 633
f 634 635 636
f 637 638 639
f 640 641 642
f 643 644 645
f 646 647 648
f 649 650 651
f 652 653 654
f 655 656 657
f 658 659 660
f 661 662 663
f 664 665 666
f 667 668 669
f 670 671 672
f 673 674 675
f 676 677 678
f 679 680 681
f 682 683 684
f 685 686 687
f 688 689 690
f 691 692 693
f 694 695 696
f 697 698 699
f 700 701 702
f 703 704 705
f 706 707 708
f 709 710 711
f 712 713 714
f 715 716 717
f 718 719 720
f 721 722 723
f 724 725 726
f 727 728 729
f 730 731 732
f 733 734 735
f 736 737 738
f 739 740 741
f 742 743 744
f 745 746 747
f 748 749 750
f 751 752 753
f 754 755 756
f 757 758 759
f 760 761 762
f 763 764 765
f 766 767 768
f 769 770 771
f 772 773 774
f 775 776 777
f 778 779 780
f 781 782 783
f 784 785 786
f 787 788 789
f 790 791 792
f 793 794 795
f 796 797 798
f 799 800 801
f 802 803 804
f 805 806 807
f 808 809 810
f 811 812 813
f 814 815 816
f 817 818 819
f 820 821 822
f 823 824 825
f 826 827 828
f 829 830 831
f 832 833 834
f 835 836 837
f 838 839 840
f 841 842 843
f 844 845 846
f 847 848 849
f 850 851 852
f 853 854 855
f 856 857 858
f 859 860 861
f 862 863 864
f 865 866 867
f 868 869 870
f 871 872 873
f 874 875 876
f 877 878 879
f 880 881 882
f 883 884 885
f 886 887 888
f 889 890 891
f 892 893 894
f 895 896 897
f 898 899 900
f 901 902 903
f 904 905 906
f 907 908 909
f 910 911 912
f 913 914 915
f 916 917 918
f 919 920 921
f 922 923 924
f 925 926 927
f 928 929 930
f 931 932 933
f 934 935 936
f 937 938 939
f 940 941 942
f 943 944 945
f 946 947 948
f 949 950 951
f 952 953 954
f 955 956 957
f 958 959 960
f 961 962 963
f 964 965 966
f 967 968 969
f 970 971 972
f 973 974 975
f 976 977 978
f 979 980 981
f 982 983 984
f 985 986 987
f 988 989 990
f 991 992 993
f 994 995 996
f 997 998 999
f 1000 1001 1002
f 1003 1004 1005
f 1006 1007 1008
f 1009 1010 1011
f 1012 1013 1014
f 1015 1016 1017
f 1018 1019 1020
f 1021 1022 1023
f 1024 1025 1026
f 1027 1028 1029
f 1030 1031 1032
f 1033 1034 1035
f 1036 1037 1038
f 1039 1040 1041
f 1042 1043 1044
f 1045 1046 1047
f 1048 1049 1050
f 1051 1052 1053
f 1054 1055 1056
f 1057 1058 1059
f 1060 1061 1062
f 1063 1064 1065
f 1066 1067 1068
f 1069 1070 1071
f 1072 1073 1074
f 1075 1076 1077
f 1078 1079 1080
f 1081 1082 1083
f 1084 1085 1086
f 1087 1088 1089
f 1090 1091 1092
f 1093 1094 1095
f 1096 1097 1098
f 1099 1100 1101
f 1102 1103 1104
f 1105 1106 1107
f 1108 1109 1110
f 1111 1112 1113
f 1114 1115 1116
f 1117 1118 1119
f 1120 1121 1122
f 1123 1124 1125
f 1126 1127 1128
f 1129 1130 1131
f 1132 1133 1134
f 1135 1136 1137
f 1138 1139 1140
f 1141 1142 1143
f 1144 1145 1146
f 1147 1148 1149
f 1150 1151 1152
f 1153 1154 1155
f 1156 1157 1158
f 1159 1160 1161
f 1162 1163 1164
f 1165 1166 1167
f 1168 1169 1170
f 1171 1172 1173
f 1174 1175 1176
f 1177 1178 1179
f 1180 1181 1182
f 1183 1184 1185
f 1186 1187 1188
f 1189 1190 1191
f 1192 1193 1194
f 1195 1196 1197
f 1198 1199 1200
f 1201 1202 1203
f 1204 1205 1206
f 1207 1208 1209
f 1210 1211 1212
f 1213 1214 1215
f 1216 1217 1218
f 1219 1220 1221
f 1222 1223 1224
f 1225 1226 1227
f 1228 1229 1230
f 1231 1232 1233
f 1234 1235 1236
f 1237 1238 1239
f 1240 1241 1242
f 1243 1244 1245
f 1246 1247 1248
f 1249 1250 1251
f 1252 1253 1254
f 1255 1256 1257
f 1258 1259 1260
f 1261 1262 1263
f 1264 1265 1266
f 1267 1268 1269
f 1270 1271 1272
f 1273 1274 1275
f 1276 1277 1278
f 1279 1280 1281
f 1282 1283 1284
f 1285 1286 1287
f 1288 1289 1290
f 1291 1292 1293
f 1294 1295 1296
f 1297 1298 1299
f 1300 1301 1302
f 1303 1304 1305
f 1306 1307 1308
f 1309 1310 1311
f 1312 1313 1314
f 1315 1316 1317
f 1318 1319 1320
f 1321 1322 1323
f 1324 1325 1326
f 1327 1328 1329
f 1330 1331 1332
f 1333 1334 1335
f 1336 1337 1338
f 1339 1340 1341
f 1342 1343 1344
f 1345 1346 1347
f 1348 1349 1350
f 1351 1352 1353
f 1354 1355 1356
f 1357 1358 1359
f 1360 1361 1362
f 1363 1364 1365
f 1366 1367 1368
f 1369 1370 1371
f 1372 1373 1374
f 1375 1376 1377
f 1378 1379 1380
f 1381 1382 1383
f 1384 1385 1386
f 1387 1388 1389
f 1390 1391 1392
f 1393 1394 1395
f 1396 1397 1398
f 1399 1400 1401
f 1402 1403 1404
f 1405 1406 1407
f 1408 1409 1410
f 1411 1412 1413
f 1414 1415 1416
f 1417 1418 1419
f 1420 1421 1422
f 1423 1424 1425
f 1426 1427 1428
f 1429 1430 1431
f 1432 1433 1434
f 1435 1436 1437
f 1438 1439 1440
f 1441 1442 1443
f 1444 1445 1446
f 1447 1448 1449
f 1450 1451 1452
f 1453 1454 1455
f 1456 1457 1458
f 1459 1460 1461
f 1462 1463 1464
f 1465 1466 1467
f 1468 1469 1470
f 1471 1472 1473
f 1474 1475 1476
f 1477 1478 1479
f 1480 1481 1482
f 1483 1484 1485
f 1486 1487 1488
f 1489 1490 1491
f 1492 1493 1494
f 1495 1496 1497
f 1498 1499 1500
f 1501 1502 1503
f 1504 1505 1506
f 1507 1508 1509
f 1510 1511 1512
f 1513 1514 1515
f 1516 1517 1518
f 1519 1520 1521
f 1522 1523 1524
f 1525 1526 1527
f 1528 1529 1530
f 1531 1532 1533
f 1534 1535 1536
f 1537 1538 1539
f 1540 1541 1542
f 1543 1544 1545
f 1546 1547 1548
f 1549 1550 1551
f 1552 1553 1554
f 1555 1556 1557
f 1558 1559 1560
f 1561 1562 1563
f 1564 1565 1566
f 1567 1568 1569
f 1570 1571 1572
f 1573 1574 1575
f 1576 1577 1578
f 1579 1580 1581
f 1582 1583 1584
f 1585 1586 1587
f 1588 1589 1590
f 1591 1592 1593
f 1594 1595 1596
f 1597 1598 1599
f 1600 1601 1602
f 1603 1604 1605
f 1606 1607 1608
f 1609 1610 1611
f 1612 1613 1614
f 1615 1616 1617
f 1618 1619 1620
f 1621 1622 1623
f 1624 1625 1626
f 1627 1628 1629
f 1630 1631 1632
f 1633 1634 1635
f 1636 1637 1638
f 1639 1640 1641
f 1642 1643 1644
f 1645 1646 1647
f 1648 1649 1650
f 1651 1652 1653
f 1654 1655 1656
f 1657 1658 1659
f 1660 1661 1662
f 1663 1664 1665
f 1666 1667 1668
f 1669 1670 1671
f 1672 1673 1674
f 1675 1676 1677
f 1678 1679 1680
f 1681 1682 1683
f 1684 1685 1686
f 1687 1688 1689
f 1690 1691 1692
f 1693 1694 1695
f 1696 1697 1698
f 1699 1700 1701
f 1702 1703 1704
f 1705 1706 1707
f 1708 1709 1710
f 1711 1712 1713
f 1714 1715 1716
f 1717 1718 1719
f 1720 1721 1722
f 1723 1724 1725
f 1726 1727 1728
f 1729 1730 1731
f 1732 1733 1734
f 1735 1736 1737
f 1738 1739 1740
f 1741 1742 1743
f 1744 1745 1746
f 1747 1748 1749
f 1750 1751 1752
f 1753 1754 1755
f 1756 1757 1758
f 1759 1760 1761
f 1762 1763 1764
f 1765 1766 1767
f 1768 1769 1770
f 1771 1772 1773
f 1774 1775 1776
f 1777 1778 1779
f 1780 1781 1782
f 1783 1784 1785
f 1786 1787 1788
f 1789 1790 1791
f 1792 1793 1794
f 1795 1796 1797
f 1798 1799 1800
f 1801 1802 1803
f 1804 1805 1806
f 1807 1808 1809
f 1810 1811 1812

