# https://github.com/mikedh/trimesh

o M_Left1_1.stl
v -39.06468201 3.84897876 48.00000000
v -39.06468201 3.84897876 43.00000000
v -39.45084381 3.82638192 48.00000000
v -39.45084381 3.82638192 48.00000000
v -39.06468201 3.84897876 43.00000000
v -39.45084381 3.82638192 43.00000000
v -39.45084381 3.82638192 48.00000000
v -39.45084381 3.82638192 43.00000000
v -39.83180618 3.89344907 48.00000000
v -39.83180618 3.89344907 48.00000000
v -39.45084381 3.82638192 43.00000000
v -39.83180618 3.89344907 43.00000000
v -39.83180618 3.89344907 48.00000000
v -39.83180618 3.89344907 43.00000000
v -40.18703461 4.04656458 48.00000000
v -40.18703461 4.04656458 48.00000000
v -39.83180618 3.89344907 43.00000000
v -40.18703461 4.04656458 43.00000000
v -40.18703461 4.04656458 48.00000000
v -40.18703461 4.04656458 43.00000000
v -40.49737549 4.27747345 48.00000000
v -40.49737549 4.27747345 48.00000000
v -40.18703461 4.04656458 43.00000000
v -40.49737549 4.27747345 43.00000000
v -40.49737549 4.27747345 48.00000000
v -40.49737549 4.27747345 43.00000000
v -40.74610138 4.57372856 48.00000000
v -40.74610138 4.57372856 48.00000000
v -40.49737549 4.27747345 43.00000000
v -40.74610138 4.57372856 43.00000000
v -40.74610138 4.57372856 48.00000000
v -40.74610138 4.57372856 43.00000000
v -40.91979980 4.91935778 48.00000000
v -40.91979980 4.91935778 48.00000000
v -40.74610138 4.57372856 43.00000000
v -40.91979980 4.91935778 43.00000000
v -40.91979980 4.91935778 48.00000000
v -40.91979980 4.91935778 43.00000000
v -41.00910950 5.29572821 48.00000000
v -41.00910950 5.29572821 48.00000000
v -40.91979980 4.91935778 43.00000000
v -41.00910950 5.29572821 43.00000000
v -41.00910950 5.29572821 48.00000000
v -41.00910950 5.29572821 43.00000000
v -41.00921631 5.68254948 48.00000000
v -41.00921631 5.68254948 48.00000000
v -41.00910950 5.29572821 43.00000000
v -41.00921631 5.68254948 43.00000000
v -41.00921631 5.68254948 48.00000000
v -41.00921631 5.68254948 43.00000000
v -40.92011261 6.05896854 48.00000000
v -40.92011261 6.05896854 48.00000000
v -41.00921631 5.68254948 43.00000000
v -40.92011261 6.05896854 43.00000000
v -40.92011261 6.05896854 48.00000000
v -40.92011261 6.05896854 43.00000000
v -40.74660110 6.40469217 48.00000000
v -40.74660110 6.40469217 48.00000000
v -40.92011261 6.05896854 43.00000000
v -40.74660110 6.40469217 43.00000000
v -40.74660110 6.40469217 48.00000000
v -40.74660110 6.40469217 43.00000000
v -40.49803543 6.70108271 48.00000000
v -40.49803543 6.70108271 48.00000000
v -40.74660110 6.40469217 43.00000000
v -40.49803543 6.70108271 43.00000000
v -40.49803543 6.70108271 48.00000000
v -40.49803543 6.70108271 43.00000000
v -40.18782043 6.93216085 48.00000000
v -40.18782043 6.93216085 48.00000000
v -40.49803543 6.70108271 43.00000000
v -40.18782043 6.93216085 43.00000000
v -40.18782043 6.93216085 48.00000000
v -40.18782043 6.93216085 43.00000000
v -39.83267593 7.08546972 48.00000000
v -39.83267593 7.08546972 48.00000000
v -40.18782043 6.93216085 43.00000000
v -39.83267593 7.08546972 43.00000000
v -39.83267593 7.08546972 48.00000000
v -39.83267593 7.08546972 43.00000000
v -39.45175171 7.15274477 48.00000000
v -39.45175171 7.15274477 48.00000000
v -39.83267593 7.08546972 43.00000000
v -39.45175171 7.15274477 43.00000000
v -39.45175171 7.15274477 48.00000000
v -39.45175171 7.15274477 43.00000000
v -39.06557846 7.13035822 48.00000000
v -39.06557846 7.13035822 48.00000000
v -39.45175171 7.15274477 43.00000000
v -39.06557846 7.13035822 43.00000000
v -39.06557846 7.13035822 48.00000000
v -39.06557846 7.13035822 43.00000000
v -38.69497681 7.01951742 48.00000000
v -38.69497681 7.01951742 48.00000000
v -39.06557846 7.13035822 43.00000000
v -38.69497681 7.01951742 43.00000000
v -38.69497681 7.01951742 48.00000000
v -38.69497681 7.01951742 43.00000000
v -38.35992432 6.82619810 48.00000000
v -38.35992432 6.82619810 48.00000000
v -38.69497681 7.01951742 43.00000000
v -38.35992432 6.82619810 43.00000000
v -38.35992432 6.82619810 48.00000000
v -38.35992432 6.82619810 43.00000000
v -38.07849121 6.56082153 48.00000000
v -38.07849121 6.56082153 48.00000000
v -38.35992432 6.82619810 43.00000000
v -38.07849121 6.56082153 43.00000000
v -38.07849121 6.56082153 48.00000000
v -38.07849121 6.56082153 43.00000000
v -37.86584091 6.23769474 48.00000000
v -37.86584091 6.23769474 48.00000000
v -38.07849121 6.56082153 43.00000000
v -37.86584091 6.23769474 43.00000000
v -37.86584091 6.23769474 48.00000000
v -37.86584091 6.23769474 43.00000000
v -37.73344040 5.87423754 48.00000000
v -37.73344040 5.87423754 48.00000000
v -37.86584091 6.23769474 43.00000000
v -37.73344040 5.87423754 43.00000000
v -37.73344040 5.87423754 48.00000000
v -37.73344040 5.87423754 43.00000000
v -37.68842697 5.49004364 48.00000000
v -37.68842697 5.49004364 48.00000000
v -37.73344040 5.87423754 43.00000000
v -37.68842697 5.49004364 43.00000000
v -37.68842697 5.49004364 48.00000000
v -37.68842697 5.49004364 43.00000000
v -37.73323059 5.10582542 48.00000000
v -37.73323059 5.10582542 48.00000000
v -37.68842697 5.49004364 43.00000000
v -37.73323059 5.10582542 43.00000000
v -37.73323059 5.10582542 48.00000000
v -37.73323059 5.10582542 43.00000000
v -37.86543274 4.74229574 48.00000000
v -37.86543274 4.74229574 48.00000000
v -37.73323059 5.10582542 43.00000000
v -37.86543274 4.74229574 43.00000000
v -37.86543274 4.74229574 48.00000000
v -37.86543274 4.74229574 43.00000000
v -38.07790756 4.41905308 48.00000000
v -38.07790756 4.41905308 48.00000000
v -37.86543274 4.74229574 43.00000000
v -38.07790756 4.41905308 43.00000000
v -38.07790756 4.41905308 48.00000000
v -38.07790756 4.41905308 43.00000000
v -38.35919571 4.15352345 48.00000000
v -38.35919571 4.15352345 48.00000000
v -38.07790756 4.41905308 43.00000000
v -38.35919571 4.15352345 43.00000000
v -38.35919571 4.15352345 48.00000000
v -38.35919571 4.15352345 43.00000000
v -38.69414139 3.96002150 48.00000000
v -38.69414139 3.96002150 48.00000000
v -38.35919571 4.15352345 43.00000000
v -38.69414139 3.96002150 43.00000000
v -38.69414139 3.96002150 48.00000000
v -38.69414139 3.96002150 43.00000000
v -39.06468201 3.84897876 48.00000000
v -39.06468201 3.84897876 48.00000000
v -38.69414139 3.96002150 43.00000000
v -39.06468201 3.84897876 43.00000000
v -38.87704849 7.08573008 38.00000000
v -39.06557846 7.13035822 43.00000000
v -39.25801086 7.15279722 38.00000000
v -39.25801086 7.15279722 38.00000000
v -39.06557846 7.13035822 43.00000000
v -39.45175171 7.15274477 43.00000000
v -39.25801086 7.15279722 38.00000000
v -39.45175171 7.15274477 43.00000000
v -39.64417267 7.13020039 38.00000000
v -39.64417267 7.13020039 38.00000000
v -39.45175171 7.15274477 43.00000000
v -39.83267593 7.08546972 43.00000000
v -39.64417267 7.13020039 38.00000000
v -39.83267593 7.08546972 43.00000000
v -40.01471329 7.01915789 38.00000000
v -40.01471329 7.01915789 38.00000000
v -39.83267593 7.08546972 43.00000000
v -40.18782043 6.93216085 43.00000000
v -40.01471329 7.01915789 38.00000000
v -40.18782043 6.93216085 43.00000000
v -40.34965897 6.82565594 38.00000000
v -40.34965897 6.82565594 38.00000000
v -40.18782043 6.93216085 43.00000000
v -40.49803543 6.70108271 43.00000000
v -40.34965897 6.82565594 38.00000000
v -40.49803543 6.70108271 43.00000000
v -40.63095093 6.56012583 38.00000000
v -40.63095093 6.56012583 38.00000000
v -40.49803543 6.70108271 43.00000000
v -40.74660110 6.40469217 43.00000000
v -40.63095093 6.56012583 38.00000000
v -40.74660110 6.40469217 43.00000000
v -40.84342194 6.23688316 38.00000000
v -40.84342194 6.23688316 38.00000000
v -40.74660110 6.40469217 43.00000000
v -40.92011261 6.05896854 43.00000000
v -40.84342194 6.23688316 38.00000000
v -40.92011261 6.05896854 43.00000000
v -40.97562408 5.87335396 38.00000000
v -40.97562408 5.87335396 38.00000000
v -40.92011261 6.05896854 43.00000000
v -41.00921631 5.68254948 43.00000000
v -40.97562408 5.87335396 38.00000000
v -41.00921631 5.68254948 43.00000000
v -41.02042770 5.48913574 38.00000000
v -41.02042770 5.48913574 38.00000000
v -41.00921631 5.68254948 43.00000000
v -41.00910950 5.29572821 43.00000000
v -41.02042770 5.48913574 38.00000000
v -41.00910950 5.29572821 43.00000000
v -40.97541428 5.10494184 38.00000000
v -40.97541428 5.10494184 38.00000000
v -41.00910950 5.29572821 43.00000000
v -40.91979980 4.91935778 43.00000000
v -40.97541428 5.10494184 38.00000000
v -40.91979980 4.91935778 43.00000000
v -40.84301758 4.74148464 38.00000000
v -40.84301758 4.74148464 38.00000000
v -40.91979980 4.91935778 43.00000000
v -40.74610138 4.57372856 43.00000000
v -40.84301758 4.74148464 38.00000000
v -40.74610138 4.57372856 43.00000000
v -40.63036728 4.41835785 38.00000000
v -40.63036728 4.41835785 38.00000000
v -40.74610138 4.57372856 43.00000000
v -40.49737549 4.27747345 43.00000000
v -40.63036728 4.41835785 38.00000000
v -40.49737549 4.27747345 43.00000000
v -40.34893036 4.15298128 38.00000000
v -40.34893036 4.15298128 38.00000000
v -40.49737549 4.27747345 43.00000000
v -40.18703461 4.04656458 43.00000000
v -40.34893036 4.15298128 38.00000000
v -40.18703461 4.04656458 43.00000000
v -40.01387787 3.95966196 38.00000000
v -40.01387787 3.95966196 38.00000000
v -40.18703461 4.04656458 43.00000000
v -39.83180618 3.89344907 43.00000000
v -40.01387787 3.95966196 38.00000000
v -39.83180618 3.89344907 43.00000000
v -39.64328003 3.84882116 38.00000000
v -39.64328003 3.84882116 38.00000000
v -39.83180618 3.89344907 43.00000000
v -39.45084381 3.82638192 43.00000000
v -39.64328003 3.84882116 38.00000000
v -39.45084381 3.82638192 43.00000000
v -39.25710678 3.82643461 38.00000000
v -39.25710678 3.82643461 38.00000000
v -39.45084381 3.82638192 43.00000000
v -39.06468201 3.84897876 43.00000000
v -39.25710678 3.82643461 38.00000000
v -39.06468201 3.84897876 43.00000000
v -38.87617874 3.89370942 38.00000000
v -38.87617874 3.89370942 38.00000000
v -39.06468201 3.84897876 43.00000000
v -38.69414139 3.96002150 43.00000000
v -38.87617874 3.89370942 38.00000000
v -38.69414139 3.96002150 43.00000000
v -38.52103424 4.04701853 38.00000000
v -38.52103424 4.04701853 38.00000000
v -38.69414139 3.96002150 43.00000000
v -38.35919571 4.15352345 43.00000000
v -38.52103424 4.04701853 38.00000000
v -38.35919571 4.15352345 43.00000000
v -38.21081924 4.27809668 38.00000000
v -38.21081924 4.27809668 38.00000000
v -38.35919571 4.15352345 43.00000000
v -38.07790756 4.41905308 43.00000000
v -38.21081924 4.27809668 38.00000000
v -38.07790756 4.41905308 43.00000000
v -37.96225739 4.57448673 38.00000000
v -37.96225739 4.57448673 38.00000000
v -38.07790756 4.41905308 43.00000000
v -37.86543274 4.74229574 43.00000000
v -37.96225739 4.57448673 38.00000000
v -37.86543274 4.74229574 43.00000000
v -37.78874588 4.92021084 38.00000000
v -37.78874588 4.92021084 38.00000000
v -37.86543274 4.74229574 43.00000000
v -37.73323059 5.10582542 43.00000000
v -37.78874588 4.92021084 38.00000000
v -37.73323059 5.10582542 43.00000000
v -37.69963837 5.29662991 38.00000000
v -37.69963837 5.29662991 38.00000000
v -37.73323059 5.10582542 43.00000000
v -37.68842697 5.49004364 43.00000000
v -37.69963837 5.29662991 38.00000000
v -37.68842697 5.49004364 43.00000000
v -37.69974518 5.68345118 38.00000000
v -37.69974518 5.68345118 38.00000000
v -37.68842697 5.49004364 43.00000000
v -37.73344040 5.87423754 43.00000000
v -37.69974518 5.68345118 38.00000000
v -37.73344040 5.87423754 43.00000000
v -37.78905487 6.05982161 38.00000000
v -37.78905487 6.05982161 38.00000000
v -37.73344040 5.87423754 43.00000000
v -37.86584091 6.23769474 43.00000000
v -37.78905487 6.05982161 38.00000000
v -37.86584091 6.23769474 43.00000000
v -37.96275330 6.40545082 38.00000000
v -37.96275330 6.40545082 38.00000000
v -37.86584091 6.23769474 43.00000000
v -38.07849121 6.56082153 43.00000000
v -37.96275330 6.40545082 38.00000000
v -38.07849121 6.56082153 43.00000000
v -38.21147919 6.70170546 38.00000000
v -38.21147919 6.70170546 38.00000000
v -38.07849121 6.56082153 43.00000000
v -38.35992432 6.82619810 43.00000000
v -38.21147919 6.70170546 38.00000000
v -38.35992432 6.82619810 43.00000000
v -38.52182007 6.93261480 38.00000000
v -38.52182007 6.93261480 38.00000000
v -38.35992432 6.82619810 43.00000000
v -38.69497681 7.01951742 43.00000000
v -38.52182007 6.93261480 38.00000000
v -38.69497681 7.01951742 43.00000000
v -38.87704849 7.08573008 38.00000000
v -38.87704849 7.08573008 38.00000000
v -38.69497681 7.01951742 43.00000000
v -39.06557846 7.13035822 43.00000000
v -39.25801086 7.15279722 38.00000000
v -39.64417267 7.13020039 38.00000000
v -38.87704849 7.08573008 38.00000000
v -38.87704849 7.08573008 38.00000000
v -39.64417267 7.13020039 38.00000000
v -38.52182007 6.93261480 38.00000000
v -38.52182007 6.93261480 38.00000000
v -39.64417267 7.13020039 38.00000000
v -40.01471329 7.01915789 38.00000000
v -38.52182007 6.93261480 38.00000000
v -40.01471329 7.01915789 38.00000000
v -38.21147919 6.70170546 38.00000000
v -38.21147919 6.70170546 38.00000000
v -40.01471329 7.01915789 38.00000000
v -40.34965897 6.82565594 38.00000000
v -38.21147919 6.70170546 38.00000000
v -40.34965897 6.82565594 38.00000000
v -37.96275330 6.40545082 38.00000000
v -37.96275330 6.40545082 38.00000000
v -40.34965897 6.82565594 38.00000000
v -40.63095093 6.56012583 38.00000000
v -37.96275330 6.40545082 38.00000000
v -40.63095093 6.56012583 38.00000000
v -37.78905487 6.05982161 38.00000000
v -37.78905487 6.05982161 38.00000000
v -40.63095093 6.56012583 38.00000000
v -37.69974518 5.68345118 38.00000000
v -37.69974518 5.68345118 38.00000000
v -40.63095093 6.56012583 38.00000000
v -37.69963837 5.29662991 38.00000000
v -37.69963837 5.29662991 38.00000000
v -40.63095093 6.56012583 38.00000000
v -37.78874588 4.92021084 38.00000000
v -37.78874588 4.92021084 38.00000000
v -40.63095093 6.56012583 38.00000000
v -37.96225739 4.57448673 38.00000000
v -37.96225739 4.57448673 38.00000000
v -40.63095093 6.56012583 38.00000000
v -38.21081924 4.27809668 38.00000000
v -38.21081924 4.27809668 38.00000000
v -40.63095093 6.56012583 38.00000000
v -38.52103424 4.04701853 38.00000000
v -38.52103424 4.04701853 38.00000000
v -40.63095093 6.56012583 38.00000000
v -38.87617874 3.89370942 38.00000000
v -38.87617874 3.89370942 38.00000000
v -40.63095093 6.56012583 38.00000000
v -39.25710678 3.82643461 38.00000000
v -39.25710678 3.82643461 38.00000000
v -40.63095093 6.56012583 38.00000000
v -39.64328003 3.84882116 38.00000000
v -39.64328003 3.84882116 38.00000000
v -40.63095093 6.56012583 38.00000000
v -40.01387787 3.95966196 38.00000000
v -40.01387787 3.95966196 38.00000000
v -40.63095093 6.56012583 38.00000000
v -40.34893036 4.15298128 38.00000000
v -40.34893036 4.15298128 38.00000000
v -40.63095093 6.56012583 38.00000000
v -40.63036728 4.41835785 38.00000000
v -40.63036728 4.41835785 38.00000000
v -40.63095093 6.56012583 38.00000000
v -40.84342194 6.23688316 38.00000000
v -40.63036728 4.41835785 38.00000000
v -40.84342194 6.23688316 38.00000000
v -40.84301758 4.74148464 38.00000000
v -40.84301758 4.74148464 38.00000000
v -40.84342194 6.23688316 38.00000000
v -40.97541428 5.10494184 38.00000000
v -40.97541428 5.10494184 38.00000000
v -40.84342194 6.23688316 38.00000000
v -40.97562408 5.87335396 38.00000000
v -40.97541428 5.10494184 38.00000000
v -40.97562408 5.87335396 38.00000000
v -41.02042770 5.48913574 38.00000000
v -19.09820366 2.69152236 48.00000000
v -19.09820366 2.69152236 43.00000000
v -19.48436546 2.66892552 48.00000000
v -19.48436546 2.66892552 48.00000000
v -19.09820366 2.69152236 43.00000000
v -19.48436546 2.66892552 43.00000000
v -19.48436546 2.66892552 48.00000000
v -19.48436546 2.66892552 43.00000000
v -19.86532784 2.73599243 48.00000000
v -19.86532784 2.73599243 48.00000000
v -19.48436546 2.66892552 43.00000000
v -19.86532784 2.73599243 43.00000000
v -19.86532784 2.73599243 48.00000000
v -19.86532784 2.73599243 43.00000000
v -20.22055435 2.88910794 48.00000000
v -20.22055435 2.88910794 48.00000000
v -19.86532784 2.73599243 43.00000000
v -20.22055435 2.88910794 43.00000000
v -20.22055435 2.88910794 48.00000000
v -20.22055435 2.88910794 43.00000000
v -20.53089714 3.12001729 48.00000000
v -20.53089714 3.12001729 48.00000000
v -20.22055435 2.88910794 43.00000000
v -20.53089714 3.12001729 43.00000000
v -20.53089714 3.12001729 48.00000000
v -20.53089714 3.12001729 43.00000000
v -20.77962112 3.41627192 48.00000000
v -20.77962112 3.41627192 48.00000000
v -20.53089714 3.12001729 43.00000000
v -20.77962112 3.41627192 43.00000000
v -20.77962112 3.41627192 48.00000000
v -20.77962112 3.41627192 43.00000000
v -20.95332146 3.76190114 48.00000000
v -20.95332146 3.76190114 48.00000000
v -20.77962112 3.41627192 43.00000000
v -20.95332146 3.76190114 43.00000000
v -20.95332146 3.76190114 48.00000000
v -20.95332146 3.76190114 43.00000000
v -21.04263115 4.13827133 48.00000000
v -21.04263115 4.13827133 48.00000000
v -20.95332146 3.76190114 43.00000000
v -21.04263115 4.13827133 43.00000000
v -21.04263115 4.13827133 48.00000000
v -21.04263115 4.13827133 43.00000000
v -21.04273605 4.52509308 48.00000000
v -21.04273605 4.52509308 48.00000000
v -21.04263115 4.13827133 43.00000000
v -21.04273605 4.52509308 43.00000000
v -21.04273605 4.52509308 48.00000000
v -21.04273605 4.52509308 43.00000000
v -20.95363235 4.90151215 48.00000000
v -20.95363235 4.90151215 48.00000000
v -21.04273605 4.52509308 43.00000000
v -20.95363235 4.90151215 43.00000000
v -20.95363235 4.90151215 48.00000000
v -20.95363235 4.90151215 43.00000000
v -20.78012085 5.24723577 48.00000000
v -20.78012085 5.24723577 48.00000000
v -20.95363235 4.90151215 43.00000000
v -20.78012085 5.24723577 43.00000000
v -20.78012085 5.24723577 48.00000000
v -20.78012085 5.24723577 43.00000000
v -20.53155708 5.54362631 48.00000000
v -20.53155708 5.54362631 48.00000000
v -20.78012085 5.24723577 43.00000000
v -20.53155708 5.54362631 43.00000000
v -20.53155708 5.54362631 48.00000000
v -20.53155708 5.54362631 43.00000000
v -20.22134209 5.77470446 48.00000000
v -20.22134209 5.77470446 48.00000000
v -20.53155708 5.54362631 43.00000000
v -20.22134209 5.77470446 43.00000000
v -20.22134209 5.77470446 48.00000000
v -20.22134209 5.77470446 43.00000000
v -19.86619759 5.92801332 48.00000000
v -19.86619759 5.92801332 48.00000000
v -20.22134209 5.77470446 43.00000000
v -19.86619759 5.92801332 43.00000000
v -19.86619759 5.92801332 48.00000000
v -19.86619759 5.92801332 43.00000000
v -19.48527145 5.99528790 48.00000000
v -19.48527145 5.99528790 48.00000000
v -19.86619759 5.92801332 43.00000000
v -19.48527145 5.99528790 43.00000000
v -19.48527145 5.99528790 48.00000000
v -19.48527145 5.99528790 43.00000000
v -19.09909821 5.97290182 48.00000000
v -19.09909821 5.97290182 48.00000000
v -19.48527145 5.99528790 43.00000000
v -19.09909821 5.97290182 43.00000000
v -19.09909821 5.97290182 48.00000000
v -19.09909821 5.97290182 43.00000000
v -18.72849655 5.86206102 48.00000000
v -18.72849655 5.86206102 48.00000000
v -19.09909821 5.97290182 43.00000000
v -18.72849655 5.86206102 43.00000000
v -18.72849655 5.86206102 48.00000000
v -18.72849655 5.86206102 43.00000000
v -18.39344597 5.66874123 48.00000000
v -18.39344597 5.66874123 48.00000000
v -18.72849655 5.86206102 43.00000000
v -18.39344597 5.66874123 43.00000000
v -18.39344597 5.66874123 48.00000000
v -18.39344597 5.66874123 43.00000000
v -18.11201096 5.40336514 48.00000000
v -18.11201096 5.40336514 48.00000000
v -18.39344597 5.66874123 43.00000000
v -18.11201096 5.40336514 43.00000000
v -18.11201096 5.40336514 48.00000000
v -18.11201096 5.40336514 43.00000000
v -17.89936066 5.08023834 48.00000000
v -17.89936066 5.08023834 48.00000000
v -18.11201096 5.40336514 43.00000000
v -17.89936066 5.08023834 43.00000000
v -17.89936066 5.08023834 48.00000000
v -17.89936066 5.08023834 43.00000000
v -17.76696014 4.71678066 48.00000000
v -17.76696014 4.71678066 48.00000000
v -17.89936066 5.08023834 43.00000000
v -17.76696014 4.71678066 43.00000000
v -17.76696014 4.71678066 48.00000000
v -17.76696014 4.71678066 43.00000000
v -17.72194862 4.33258724 48.00000000
v -17.72194862 4.33258724 48.00000000
v -17.76696014 4.71678066 43.00000000
v -17.72194862 4.33258724 43.00000000
v -17.72194862 4.33258724 48.00000000
v -17.72194862 4.33258724 43.00000000
v -17.76675034 3.94836879 48.00000000
v -17.76675034 3.94836879 48.00000000
v -17.72194862 4.33258724 43.00000000
v -17.76675034 3.94836879 43.00000000
v -17.76675034 3.94836879 48.00000000
v -17.76675034 3.94836879 43.00000000
v -17.89895248 3.58483934 48.00000000
v -17.89895248 3.58483934 48.00000000
v -17.76675034 3.94836879 43.00000000
v -17.89895248 3.58483934 43.00000000
v -17.89895248 3.58483934 48.00000000
v -17.89895248 3.58483934 43.00000000
v -18.11142731 3.26159668 48.00000000
v -18.11142731 3.26159668 48.00000000
v -17.89895248 3.58483934 43.00000000
v -18.11142731 3.26159668 43.00000000
v -18.11142731 3.26159668 48.00000000
v -18.11142731 3.26159668 43.00000000
v -18.39271736 2.99606705 48.00000000
v -18.39271736 2.99606705 48.00000000
v -18.11142731 3.26159668 43.00000000
v -18.39271736 2.99606705 43.00000000
v -18.39271736 2.99606705 48.00000000
v -18.39271736 2.99606705 43.00000000
v -18.72766304 2.80256510 48.00000000
v -18.72766304 2.80256510 48.00000000
v -18.39271736 2.99606705 43.00000000
v -18.72766304 2.80256510 43.00000000
v -18.72766304 2.80256510 48.00000000
v -18.72766304 2.80256510 43.00000000
v -19.09820366 2.69152236 48.00000000
v -19.09820366 2.69152236 48.00000000
v -18.72766304 2.80256510 43.00000000
v -19.09820366 2.69152236 43.00000000
v -18.91056824 5.92827368 38.00000000
v -19.09909821 5.97290182 43.00000000
v -19.29153252 5.99534082 38.00000000
v -19.29153252 5.99534082 38.00000000
v -19.09909821 5.97290182 43.00000000
v -19.48527145 5.99528790 43.00000000
v -19.29153252 5.99534082 38.00000000
v -19.48527145 5.99528790 43.00000000
v -19.67769241 5.97274399 38.00000000
v -19.67769241 5.97274399 38.00000000
v -19.48527145 5.99528790 43.00000000
v -19.86619759 5.92801332 43.00000000
v -19.67769241 5.97274399 38.00000000
v -19.86619759 5.92801332 43.00000000
v -20.04823494 5.86170149 38.00000000
v -20.04823494 5.86170149 38.00000000
v -19.86619759 5.92801332 43.00000000
v -20.22134209 5.77470446 43.00000000
v -20.04823494 5.86170149 38.00000000
v -20.22134209 5.77470446 43.00000000
v -20.38317871 5.66819954 38.00000000
v -20.38317871 5.66819954 38.00000000
v -20.22134209 5.77470446 43.00000000
v -20.53155708 5.54362631 43.00000000
v -20.38317871 5.66819954 38.00000000
v -20.53155708 5.54362631 43.00000000
v -20.66447067 5.40266943 38.00000000
v -20.66447067 5.40266943 38.00000000
v -20.53155708 5.54362631 43.00000000
v -20.78012085 5.24723577 43.00000000
v -20.66447067 5.40266943 38.00000000
v -20.78012085 5.24723577 43.00000000
v -20.87694359 5.07942677 38.00000000
v -20.87694359 5.07942677 38.00000000
v -20.78012085 5.24723577 43.00000000
v -20.95363235 4.90151215 43.00000000
v -20.87694359 5.07942677 38.00000000
v -20.95363235 4.90151215 43.00000000
v -21.00914574 4.71589756 38.00000000
v -21.00914574 4.71589756 38.00000000
v -20.95363235 4.90151215 43.00000000
v -21.04273605 4.52509308 43.00000000
v -21.00914574 4.71589756 38.00000000
v -21.04273605 4.52509308 43.00000000
v -21.05394745 4.33167934 38.00000000
v -21.05394745 4.33167934 38.00000000
v -21.04273605 4.52509308 43.00000000
v -21.04263115 4.13827133 43.00000000
v -21.05394745 4.33167934 38.00000000
v -21.04263115 4.13827133 43.00000000
v -21.00893593 3.94748545 38.00000000
v -21.00893593 3.94748545 38.00000000
v -21.04263115 4.13827133 43.00000000
v -20.95332146 3.76190114 43.00000000
v -21.00893593 3.94748545 38.00000000
v -20.95332146 3.76190114 43.00000000
v -20.87653732 3.58402824 38.00000000
v -20.87653732 3.58402824 38.00000000
v -20.95332146 3.76190114 43.00000000
v -20.77962112 3.41627192 43.00000000
v -20.87653732 3.58402824 38.00000000
v -20.77962112 3.41627192 43.00000000
v -20.66388702 3.26090145 38.00000000
v -20.66388702 3.26090145 38.00000000
v -20.77962112 3.41627192 43.00000000
v -20.53089714 3.12001729 43.00000000
v -20.66388702 3.26090145 38.00000000
v -20.53089714 3.12001729 43.00000000
v -20.38245010 2.99552488 38.00000000
v -20.38245010 2.99552488 38.00000000
v -20.53089714 3.12001729 43.00000000
v -20.22055435 2.88910794 43.00000000
v -20.38245010 2.99552488 38.00000000
v -20.22055435 2.88910794 43.00000000
v -20.04739952 2.80220532 38.00000000
v -20.04739952 2.80220532 38.00000000
v -20.22055435 2.88910794 43.00000000
v -19.86532784 2.73599243 43.00000000
v -20.04739952 2.80220532 38.00000000
v -19.86532784 2.73599243 43.00000000
v -19.67679977 2.69136477 38.00000000
v -19.67679977 2.69136477 38.00000000
v -19.86532784 2.73599243 43.00000000
v -19.48436546 2.66892552 43.00000000
v -19.67679977 2.69136477 38.00000000
v -19.48436546 2.66892552 43.00000000
v -19.29062653 2.66897821 38.00000000
v -19.29062653 2.66897821 38.00000000
v -19.48436546 2.66892552 43.00000000
v -19.09820366 2.69152236 43.00000000
v -19.29062653 2.66897821 38.00000000
v -19.09820366 2.69152236 43.00000000
v -18.90969849 2.73625278 38.00000000
v -18.90969849 2.73625278 38.00000000
v -19.09820366 2.69152236 43.00000000
v -18.72766304 2.80256510 43.00000000
v -18.90969849 2.73625278 38.00000000
v -18.72766304 2.80256510 43.00000000
v -18.55455589 2.88956189 38.00000000
v -18.55455589 2.88956189 38.00000000
v -18.72766304 2.80256510 43.00000000
v -18.39271736 2.99606705 43.00000000
v -18.55455589 2.88956189 38.00000000
v -18.39271736 2.99606705 43.00000000
v -18.24433899 3.12064028 38.00000000
v -18.24433899 3.12064028 38.00000000
v -18.39271736 2.99606705 43.00000000
v -18.11142731 3.26159668 43.00000000
v -18.24433899 3.12064028 38.00000000
v -18.11142731 3.26159668 43.00000000
v -17.99577713 3.41703057 38.00000000
v -17.99577713 3.41703057 38.00000000
v -18.11142731 3.26159668 43.00000000
v -17.89895248 3.58483934 43.00000000
v -17.99577713 3.41703057 38.00000000
v -17.89895248 3.58483934 43.00000000
v -17.82226562 3.76275420 38.00000000
v -17.82226562 3.76275420 38.00000000
v -17.89895248 3.58483934 43.00000000
v -17.76675034 3.94836879 43.00000000
v -17.82226562 3.76275420 38.00000000
v -17.76675034 3.94836879 43.00000000
v -17.73316002 4.13917303 38.00000000
v -17.73316002 4.13917303 38.00000000
v -17.76675034 3.94836879 43.00000000
v -17.72194862 4.33258724 43.00000000
v -17.73316002 4.13917303 38.00000000
v -17.72194862 4.33258724 43.00000000
v -17.73326683 4.52599478 38.00000000
v -17.73326683 4.52599478 38.00000000
v -17.72194862 4.33258724 43.00000000
v -17.76696014 4.71678066 43.00000000
v -17.73326683 4.52599478 38.00000000
v -17.76696014 4.71678066 43.00000000
v -17.82257652 4.90236521 38.00000000
v -17.82257652 4.90236521 38.00000000
v -17.76696014 4.71678066 43.00000000
v -17.89936066 5.08023834 43.00000000
v -17.82257652 4.90236521 38.00000000
v -17.89936066 5.08023834 43.00000000
v -17.99627495 5.24799442 38.00000000
v -17.99627495 5.24799442 38.00000000
v -17.89936066 5.08023834 43.00000000
v -18.11201096 5.40336514 43.00000000
v -17.99627495 5.24799442 38.00000000
v -18.11201096 5.40336514 43.00000000
v -18.24500084 5.54424906 38.00000000
v -18.24500084 5.54424906 38.00000000
v -18.11201096 5.40336514 43.00000000
v -18.39344597 5.66874123 43.00000000
v -18.24500084 5.54424906 38.00000000
v -18.39344597 5.66874123 43.00000000
v -18.55534172 5.77515841 38.00000000
v -18.55534172 5.77515841 38.00000000
v -18.39344597 5.66874123 43.00000000
v -18.72849655 5.86206102 43.00000000
v -18.55534172 5.77515841 38.00000000
v -18.72849655 5.86206102 43.00000000
v -18.91056824 5.92827368 38.00000000
v -18.91056824 5.92827368 38.00000000
v -18.72849655 5.86206102 43.00000000
v -19.09909821 5.97290182 43.00000000
v -19.29153252 5.99534082 38.00000000
v -19.67769241 5.97274399 38.00000000
v -18.91056824 5.92827368 38.00000000
v -18.91056824 5.92827368 38.00000000
v -19.67769241 5.97274399 38.00000000
v -18.55534172 5.77515841 38.00000000
v -18.55534172 5.77515841 38.00000000
v -19.67769241 5.97274399 38.00000000
v -20.04823494 5.86170149 38.00000000
v -18.55534172 5.77515841 38.00000000
v -20.04823494 5.86170149 38.00000000
v -18.24500084 5.54424906 38.00000000
v -18.24500084 5.54424906 38.00000000
v -20.04823494 5.86170149 38.00000000
v -20.38317871 5.66819954 38.00000000
v -18.24500084 5.54424906 38.00000000
v -20.38317871 5.66819954 38.00000000
v -17.99627495 5.24799442 38.00000000
v -17.99627495 5.24799442 38.00000000
v -20.38317871 5.66819954 38.00000000
v -20.66447067 5.40266943 38.00000000
v -17.99627495 5.24799442 38.00000000
v -20.66447067 5.40266943 38.00000000
v -17.82257652 4.90236521 38.00000000
v -17.82257652 4.90236521 38.00000000
v -20.66447067 5.40266943 38.00000000
v -17.73326683 4.52599478 38.00000000
v -17.73326683 4.52599478 38.00000000
v -20.66447067 5.40266943 38.00000000
v -17.73316002 4.13917303 38.00000000
v -17.73316002 4.13917303 38.00000000
v -20.66447067 5.40266943 38.00000000
v -17.82226562 3.76275420 38.00000000
v -17.82226562 3.76275420 38.00000000
v -20.66447067 5.40266943 38.00000000
v -17.99577713 3.41703057 38.00000000
v -17.99577713 3.41703057 38.00000000
v -20.66447067 5.40266943 38.00000000
v -18.24433899 3.12064028 38.00000000
v -18.24433899 3.12064028 38.00000000
v -20.66447067 5.40266943 38.00000000
v -18.55455589 2.88956189 38.00000000
v -18.55455589 2.88956189 38.00000000
v -20.66447067 5.40266943 38.00000000
v -18.90969849 2.73625278 38.00000000
v -18.90969849 2.73625278 38.00000000
v -20.66447067 5.40266943 38.00000000
v -19.29062653 2.66897821 38.00000000
v -19.29062653 2.66897821 38.00000000
v -20.66447067 5.40266943 38.00000000
v -19.67679977 2.69136477 38.00000000
v -19.67679977 2.69136477 38.00000000
v -20.66447067 5.40266943 38.00000000
v -20.04739952 2.80220532 38.00000000
v -20.04739952 2.80220532 38.00000000
v -20.66447067 5.40266943 38.00000000
v -20.38245010 2.99552488 38.00000000
v -20.38245010 2.99552488 38.00000000
v -20.66447067 5.40266943 38.00000000
v -20.66388702 3.26090145 38.00000000
v -20.66388702 3.26090145 38.00000000
v -20.66447067 5.40266943 38.00000000
v -20.87694359 5.07942677 38.00000000
v -20.66388702 3.26090145 38.00000000
v -20.87694359 5.07942677 38.00000000
v -20.87653732 3.58402824 38.00000000
v -20.87653732 3.58402824 38.00000000
v -20.87694359 5.07942677 38.00000000
v -21.00893593 3.94748545 38.00000000
v -21.00893593 3.94748545 38.00000000
v -20.87694359 5.07942677 38.00000000
v -21.00914574 4.71589756 38.00000000
v -21.00893593 3.94748545 38.00000000
v -21.00914574 4.71589756 38.00000000
v -21.05394745 4.33167934 38.00000000
v -3.39097261 5.90898609 28.38420677
v -3.71392274 0.91931307 28.19341087
v -3.43580461 5.91158485 28.00000000
v -3.43580461 5.91158485 28.00000000
v -3.71392274 0.91931307 28.19341087
v -3.71392274 0.91931307 27.80658913
v -3.43580461 5.91158485 28.00000000
v -3.71392274 0.91931307 27.80658913
v -3.39097261 5.90898609 27.61579323
v -3.39097261 5.90898609 27.61579323
v -3.71392274 0.91931307 27.80658913
v -3.62486506 0.91415042 27.43019485
v -3.39097261 5.90898609 27.61579323
v -3.62486506 0.91415042 27.43019485
v -3.25889373 5.90132952 27.25230026
v -3.25889373 5.90132952 27.25230026
v -3.62486506 0.91415042 27.43019485
v -3.45155096 0.90410340 27.08451843
v -3.25889373 5.90132952 27.25230026
v -3.45155096 0.90410340 27.08451843
v -3.04668808 5.88902760 26.92911530
v -3.04668808 5.88902760 26.92911530
v -3.45155096 0.90410340 27.08451843
v -3.20332360 0.88971364 26.78819466
v -3.04668808 5.88902760 26.92911530
v -3.20332360 0.88971364 26.78819466
v -2.76579571 5.87274456 26.66366196
v -2.76579571 5.87274456 26.66366196
v -3.20332360 0.88971364 26.78819466
v -2.89356494 0.87175691 26.55720139
v -2.76579571 5.87274456 26.66366196
v -2.89356494 0.87175691 26.55720139
v -2.43136001 5.85335732 26.47025108
v -2.43136001 5.85335732 26.47025108
v -2.89356494 0.87175691 26.55720139
v -2.53897452 0.85120136 26.40398979
v -2.43136001 5.85335732 26.47025108
v -2.53897452 0.85120136 26.40398979
v -2.06140995 5.83191109 26.35931015
v -2.06140995 5.83191109 26.35931015
v -2.53897452 0.85120136 26.40398979
v -2.15866804 0.82915497 26.33681870
v -2.06140995 5.83191109 26.35931015
v -2.15866804 0.82915497 26.33681870
v -1.67589009 5.80956268 26.33681870
v -1.67589009 5.80956268 26.33681870
v -2.15866804 0.82915497 26.33681870
v -1.77314806 0.80680639 26.35931015
v -1.67589009 5.80956268 26.33681870
v -1.77314806 0.80680639 26.35931015
v -1.29558361 5.78751612 26.40398979
v -1.29558361 5.78751612 26.40398979
v -1.77314806 0.80680639 26.35931015
v -1.40319812 0.78536040 26.47025108
v -1.29558361 5.78751612 26.40398979
v -1.40319812 0.78536040 26.47025108
v -0.94099313 5.76696062 26.55720139
v -0.94099313 5.76696062 26.55720139
v -1.40319812 0.78536040 26.47025108
v -1.06876230 0.76597315 26.66366196
v -0.94099313 5.76696062 26.55720139
v -1.06876230 0.76597315 26.66366196
v -0.63123459 5.74900389 26.78819466
v -0.63123459 5.74900389 26.78819466
v -1.06876230 0.76597315 26.66366196
v -0.78787005 0.74968982 26.92911530
v -0.63123459 5.74900389 26.78819466
v -0.78787005 0.74968982 26.92911530
v -0.38300720 5.73461437 27.08451843
v -0.38300720 5.73461437 27.08451843
v -0.78787005 0.74968982 26.92911530
v -0.57566440 0.73738831 27.25230026
v -0.38300720 5.73461437 27.08451843
v -0.57566440 0.73738831 27.25230026
v -0.20969296 5.72456741 27.43019485
v -0.20969296 5.72456741 27.43019485
v -0.57566440 0.73738831 27.25230026
v -0.44358534 0.72973168 27.61579323
v -0.20969296 5.72456741 27.43019485
v -0.44358534 0.72973168 27.61579323
v -0.12063527 5.71940470 27.80658913
v -0.12063527 5.71940470 27.80658913
v -0.44358534 0.72973168 27.61579323
v -0.39875337 0.72713274 28.00000000
v -0.12063527 5.71940470 27.80658913
v -0.39875337 0.72713274 28.00000000
v -0.12063527 5.71940470 28.19341087
v -0.12063527 5.71940470 28.19341087
v -0.39875337 0.72713274 28.00000000
v -0.44358534 0.72973168 28.38420677
v -0.12063527 5.71940470 28.19341087
v -0.44358534 0.72973168 28.38420677
v -0.20969296 5.72456741 28.56980515
v -0.20969296 5.72456741 28.56980515
v -0.44358534 0.72973168 28.38420677
v -0.57566440 0.73738831 28.74769974
v -0.20969296 5.72456741 28.56980515
v -0.57566440 0.73738831 28.74769974
v -0.38300720 5.73461437 28.91548157
v -0.38300720 5.73461437 28.91548157
v -0.57566440 0.73738831 28.74769974
v -0.78787005 0.74968982 29.07088470
v -0.38300720 5.73461437 28.91548157
v -0.78787005 0.74968982 29.07088470
v -0.63123459 5.74900389 29.21180534
v -0.63123459 5.74900389 29.21180534
v -0.78787005 0.74968982 29.07088470
v -1.06876230 0.76597315 29.33633804
v -0.63123459 5.74900389 29.21180534
v -1.06876230 0.76597315 29.33633804
v -0.94099313 5.76696062 29.44279861
v -0.94099313 5.76696062 29.44279861
v -1.06876230 0.76597315 29.33633804
v -1.40319812 0.78536040 29.52974892
v -0.94099313 5.76696062 29.44279861
v -1.40319812 0.78536040 29.52974892
v -1.29558361 5.78751612 29.59601021
v -1.29558361 5.78751612 29.59601021
v -1.40319812 0.78536040 29.52974892
v -1.77314806 0.80680639 29.64068985
v -1.29558361 5.78751612 29.59601021
v -1.77314806 0.80680639 29.64068985
v -1.67589009 5.80956268 29.66318130
v -1.67589009 5.80956268 29.66318130
v -1.77314806 0.80680639 29.64068985
v -2.15866804 0.82915497 29.66318130
v -1.67589009 5.80956268 29.66318130
v -2.15866804 0.82915497 29.66318130
v -2.06140995 5.83191109 29.64068985
v -2.06140995 5.83191109 29.64068985
v -2.15866804 0.82915497 29.66318130
v -2.53897452 0.85120136 29.59601021
v -2.06140995 5.83191109 29.64068985
v -2.53897452 0.85120136 29.59601021
v -2.43136001 5.85335732 29.52974892
v -2.43136001 5.85335732 29.52974892
v -2.53897452 0.85120136 29.59601021
v -2.89356494 0.87175691 29.44279861
v -2.43136001 5.85335732 29.52974892
v -2.89356494 0.87175691 29.44279861
v -2.76579571 5.87274456 29.33633804
v -2.76579571 5.87274456 29.33633804
v -2.89356494 0.87175691 29.44279861
v -3.20332360 0.88971364 29.21180534
v -2.76579571 5.87274456 29.33633804
v -3.20332360 0.88971364 29.21180534
v -3.04668808 5.88902760 29.07088470
v -3.04668808 5.88902760 29.07088470
v -3.20332360 0.88971364 29.21180534
v -3.45155096 0.90410340 28.91548157
v -3.04668808 5.88902760 29.07088470
v -3.45155096 0.90410340 28.91548157
v -3.25889373 5.90132952 28.74769974
v -3.25889373 5.90132952 28.74769974
v -3.45155096 0.90410340 28.91548157
v -3.62486506 0.91415042 28.56980515
v -3.25889373 5.90132952 28.74769974
v -3.62486506 0.91415042 28.56980515
v -3.39097261 5.90898609 28.38420677
v -3.39097261 5.90898609 28.38420677
v -3.62486506 0.91415042 28.56980515
v -3.71392274 0.91931307 28.19341087
v -3.39097261 5.90898609 38.38420486
v -3.71392274 0.91931307 38.19340897
v -3.43580461 5.91158485 38.00000000
v -3.43580461 5.91158485 38.00000000
v -3.71392274 0.91931307 38.19340897
v -3.71392274 0.91931307 37.80659103
v -3.43580461 5.91158485 38.00000000
v -3.71392274 0.91931307 37.80659103
v -3.39097261 5.90898609 37.61579514
v -3.39097261 5.90898609 37.61579514
v -3.71392274 0.91931307 37.80659103
v -3.62486506 0.91415042 37.43019485
v -3.39097261 5.90898609 37.61579514
v -3.62486506 0.91415042 37.43019485
v -3.25889373 5.90132952 37.25230026
v -3.25889373 5.90132952 37.25230026
v -3.62486506 0.91415042 37.43019485
v -3.45155096 0.90410340 37.08451843
v -3.25889373 5.90132952 37.25230026
v -3.45155096 0.90410340 37.08451843
v -3.04668808 5.88902760 36.92911530
v -3.04668808 5.88902760 36.92911530
v -3.45155096 0.90410340 37.08451843
v -3.20332360 0.88971364 36.78819656
v -3.04668808 5.88902760 36.92911530
v -3.20332360 0.88971364 36.78819656
v -2.76579571 5.87274456 36.66366196
v -2.76579571 5.87274456 36.66366196
v -3.20332360 0.88971364 36.78819656
v -2.89356494 0.87175691 36.55720139
v -2.76579571 5.87274456 36.66366196
v -2.89356494 0.87175691 36.55720139
v -2.43136001 5.85335732 36.47025299
v -2.43136001 5.85335732 36.47025299
v -2.89356494 0.87175691 36.55720139
v -2.53897452 0.85120136 36.40398788
v -2.43136001 5.85335732 36.47025299
v -2.53897452 0.85120136 36.40398788
v -2.06140995 5.83191109 36.35931015
v -2.06140995 5.83191109 36.35931015
v -2.53897452 0.85120136 36.40398788
v -2.15866804 0.82915497 36.33681870
v -2.06140995 5.83191109 36.35931015
v -2.15866804 0.82915497 36.33681870
v -1.67589009 5.80956268 36.33681870
v -1.67589009 5.80956268 36.33681870
v -2.15866804 0.82915497 36.33681870
v -1.77314806 0.80680639 36.35931015
v -1.67589009 5.80956268 36.33681870
v -1.77314806 0.80680639 36.35931015
v -1.29558361 5.78751612 36.40398788
v -1.29558361 5.78751612 36.40398788
v -1.77314806 0.80680639 36.35931015
v -1.40319812 0.78536040 36.47025299
v -1.29558361 5.78751612 36.40398788
v -1.40319812 0.78536040 36.47025299
v -0.94099313 5.76696062 36.55720139
v -0.94099313 5.76696062 36.55720139
v -1.40319812 0.78536040 36.47025299
v -1.06876230 0.76597315 36.66366196
v -0.94099313 5.76696062 36.55720139
v -1.06876230 0.76597315 36.66366196
v -0.63123459 5.74900389 36.78819656
v -0.63123459 5.74900389 36.78819656
v -1.06876230 0.76597315 36.66366196
v -0.78787005 0.74968982 36.92911530
v -0.63123459 5.74900389 36.78819656
v -0.78787005 0.74968982 36.92911530
v -0.38300720 5.73461437 37.08451843
v -0.38300720 5.73461437 37.08451843
v -0.78787005 0.74968982 36.92911530
v -0.57566440 0.73738831 37.25230026
v -0.38300720 5.73461437 37.08451843
v -0.57566440 0.73738831 37.25230026
v -0.20969296 5.72456741 37.43019485
v -0.20969296 5.72456741 37.43019485
v -0.57566440 0.73738831 37.25230026
v -0.44358534 0.72973168 37.61579514
v -0.20969296 5.72456741 37.43019485
v -0.44358534 0.72973168 37.61579514
v -0.12063527 5.71940470 37.80659103
v -0.12063527 5.71940470 37.80659103
v -0.44358534 0.72973168 37.61579514
v -0.39875337 0.72713274 38.00000000
v -0.12063527 5.71940470 37.80659103
v -0.39875337 0.72713274 38.00000000
v -0.12063527 5.71940470 38.19340897
v -0.12063527 5.71940470 38.19340897
v -0.39875337 0.72713274 38.00000000
v -0.44358534 0.72973168 38.38420486
v -0.12063527 5.71940470 38.19340897
v -0.44358534 0.72973168 38.38420486
v -0.20969296 5.72456741 38.56980515
v -0.20969296 5.72456741 38.56980515
v -0.44358534 0.72973168 38.38420486
v -0.57566440 0.73738831 38.74769974
v -0.20969296 5.72456741 38.56980515
v -0.57566440 0.73738831 38.74769974
v -0.38300720 5.73461437 38.91548157
v -0.38300720 5.73461437 38.91548157
v -0.57566440 0.73738831 38.74769974
v -0.78787005 0.74968982 39.07088470
v -0.38300720 5.73461437 38.91548157
v -0.78787005 0.74968982 39.07088470
v -0.63123459 5.74900389 39.21180344
v -0.63123459 5.74900389 39.21180344
v -0.78787005 0.74968982 39.07088470
v -1.06876230 0.76597315 39.33633804
v -0.63123459 5.74900389 39.21180344
v -1.06876230 0.76597315 39.33633804
v -0.94099313 5.76696062 39.44279861
v -0.94099313 5.76696062 39.44279861
v -1.06876230 0.76597315 39.33633804
v -1.40319812 0.78536040 39.52974701
v -0.94099313 5.76696062 39.44279861
v -1.40319812 0.78536040 39.52974701
v -1.29558361 5.78751612 39.59601212
v -1.29558361 5.78751612 39.59601212
v -1.40319812 0.78536040 39.52974701
v -1.77314806 0.80680639 39.64068985
v -1.29558361 5.78751612 39.59601212
v -1.77314806 0.80680639 39.64068985
v -1.67589009 5.80956268 39.66318130
v -1.67589009 5.80956268 39.66318130
v -1.77314806 0.80680639 39.64068985
v -2.15866804 0.82915497 39.66318130
v -1.67589009 5.80956268 39.66318130
v -2.15866804 0.82915497 39.66318130
v -2.06140995 5.83191109 39.64068985
v -2.06140995 5.83191109 39.64068985
v -2.15866804 0.82915497 39.66318130
v -2.53897452 0.85120136 39.59601212
v -2.06140995 5.83191109 39.64068985
v -2.53897452 0.85120136 39.59601212
v -2.43136001 5.85335732 39.52974701
v -2.43136001 5.85335732 39.52974701
v -2.53897452 0.85120136 39.59601212
v -2.89356494 0.87175691 39.44279861
v -2.43136001 5.85335732 39.52974701
v -2.89356494 0.87175691 39.44279861
v -2.76579571 5.87274456 39.33633804
v -2.76579571 5.87274456 39.33633804
v -2.89356494 0.87175691 39.44279861
v -3.20332360 0.88971364 39.21180344
v -2.76579571 5.87274456 39.33633804
v -3.20332360 0.88971364 39.21180344
v -3.04668808 5.88902760 39.07088470
v -3.04668808 5.88902760 39.07088470
v -3.20332360 0.88971364 39.21180344
v -3.45155096 0.90410340 38.91548157
v -3.04668808 5.88902760 39.07088470
v -3.45155096 0.90410340 38.91548157
v -3.25889373 5.90132952 38.74769974
v -3.25889373 5.90132952 38.74769974
v -3.45155096 0.90410340 38.91548157
v -3.62486506 0.91415042 38.56980515
v -3.25889373 5.90132952 38.74769974
v -3.62486506 0.91415042 38.56980515
v -3.39097261 5.90898609 38.38420486
v -3.39097261 5.90898609 38.38420486
v -3.62486506 0.91415042 38.56980515
v -3.71392274 0.91931307 38.19340897
v -54.47396851 3.86187196 0.00000000
v -54.18460464 8.85349178 0.00000000
v 0.43384883 0.67886680 0.00000000
v 0.43384883 0.67886680 0.00000000
v -54.18460464 8.85349178 0.00000000
v 0.72321296 5.67048645 0.00000000
v -54.47396851 3.86187196 48.00000000
v -54.18460464 8.85349178 48.00000000
v -54.47396851 3.86187196 0.00000000
v -54.47396851 3.86187196 0.00000000
v -54.18460464 8.85349178 48.00000000
v -54.18460464 8.85349178 0.00000000
v -0.44358534 0.72973168 27.61579323
v 0.43384883 0.67886680 0.00000000
v -0.39875337 0.72713274 28.00000000
v -0.39875337 0.72713274 28.00000000
v 0.43384883 0.67886680 0.00000000
v 0.43384883 0.67886680 48.00000000
v -0.39875337 0.72713274 28.00000000
v 0.43384883 0.67886680 48.00000000
v -0.39875337 0.72713274 38.00000000
v -0.39875337 0.72713274 38.00000000
v 0.43384883 0.67886680 48.00000000
v -0.44358534 0.72973168 38.38420486
v -0.44358534 0.72973168 38.38420486
v 0.43384883 0.67886680 48.00000000
v -0.57566440 0.73738831 38.74769974
v -0.57566440 0.73738831 38.74769974
v 0.43384883 0.67886680 48.00000000
v -0.78787005 0.74968982 39.07088470
v -0.78787005 0.74968982 39.07088470
v 0.43384883 0.67886680 48.00000000
v -1.06876230 0.76597315 39.33633804
v -1.06876230 0.76597315 39.33633804
v 0.43384883 0.67886680 48.00000000
v -1.40319812 0.78536040 39.52974701
v -1.40319812 0.78536040 39.52974701
v 0.43384883 0.67886680 48.00000000
v -1.77314806 0.80680639 39.64068985
v -1.77314806 0.80680639 39.64068985
v 0.43384883 0.67886680 48.00000000
v -2.15866804 0.82915497 39.66318130
v -2.15866804 0.82915497 39.66318130
v 0.43384883 0.67886680 48.00000000
v -2.53897452 0.85120136 39.59601212
v -2.53897452 0.85120136 39.59601212
v 0.43384883 0.67886680 48.00000000
v -2.89356494 0.87175691 39.44279861
v -2.89356494 0.87175691 39.44279861
v 0.43384883 0.67886680 48.00000000
v -3.20332360 0.88971364 39.21180344
v -3.20332360 0.88971364 39.21180344
v 0.43384883 0.67886680 48.00000000
v -3.45155096 0.90410340 38.91548157
v -3.45155096 0.90410340 38.91548157
v 0.43384883 0.67886680 48.00000000
v -54.47396851 3.86187196 48.00000000
v -3.45155096 0.90410340 38.91548157
v -54.47396851 3.86187196 48.00000000
v -3.62486506 0.91415042 38.56980515
v -3.62486506 0.91415042 38.56980515
v -54.47396851 3.86187196 48.00000000
v -3.71392274 0.91931307 38.19340897
v -3.71392274 0.91931307 38.19340897
v -54.47396851 3.86187196 48.00000000
v -3.71392274 0.91931307 37.80659103
v -3.71392274 0.91931307 37.80659103
v -54.47396851 3.86187196 48.00000000
v -3.71392274 0.91931307 28.19341087
v -3.71392274 0.91931307 37.80659103
v -3.71392274 0.91931307 28.19341087
v -3.62486506 0.91415042 37.43019485
v -3.62486506 0.91415042 37.43019485
v -3.71392274 0.91931307 28.19341087
v -3.62486506 0.91415042 28.56980515
v -3.62486506 0.91415042 37.43019485
v -3.62486506 0.91415042 28.56980515
v -3.45155096 0.90410340 37.08451843
v -3.45155096 0.90410340 37.08451843
v -3.62486506 0.91415042 28.56980515
v -3.45155096 0.90410340 28.91548157
v -3.45155096 0.90410340 37.08451843
v -3.45155096 0.90410340 28.91548157
v -3.20332360 0.88971364 36.78819656
v -3.20332360 0.88971364 36.78819656
v -3.45155096 0.90410340 28.91548157
v -3.20332360 0.88971364 29.21180534
v -3.20332360 0.88971364 36.78819656
v -3.20332360 0.88971364 29.21180534
v -2.89356494 0.87175691 36.55720139
v -2.89356494 0.87175691 36.55720139
v -3.20332360 0.88971364 29.21180534
v -2.89356494 0.87175691 29.44279861
v -2.89356494 0.87175691 36.55720139
v -2.89356494 0.87175691 29.44279861
v -2.53897452 0.85120136 36.40398788
v -2.53897452 0.85120136 36.40398788
v -2.89356494 0.87175691 29.44279861
v -2.53897452 0.85120136 29.59601021
v -2.53897452 0.85120136 36.40398788
v -2.53897452 0.85120136 29.59601021
v -2.15866804 0.82915497 29.66318130
v -0.44358534 0.72973168 27.61579323
v -0.57566440 0.73738831 27.25230026
v 0.43384883 0.67886680 0.00000000
v 0.43384883 0.67886680 0.00000000
v -0.57566440 0.73738831 27.25230026
v -0.78787005 0.74968982 26.92911530
v 0.43384883 0.67886680 0.00000000
v -0.78787005 0.74968982 26.92911530
v -1.06876230 0.76597315 26.66366196
v -1.06876230 0.76597315 26.66366196
v -1.40319812 0.78536040 26.47025108
v 0.43384883 0.67886680 0.00000000
v 0.43384883 0.67886680 0.00000000
v -1.40319812 0.78536040 26.47025108
v -1.77314806 0.80680639 26.35931015
v 0.43384883 0.67886680 0.00000000
v -1.77314806 0.80680639 26.35931015
v -2.15866804 0.82915497 26.33681870
v -2.15866804 0.82915497 26.33681870
v -2.53897452 0.85120136 26.40398979
v 0.43384883 0.67886680 0.00000000
v 0.43384883 0.67886680 0.00000000
v -2.53897452 0.85120136 26.40398979
v -2.89356494 0.87175691 26.55720139
v 0.43384883 0.67886680 0.00000000
v -2.89356494 0.87175691 26.55720139
v -3.20332360 0.88971364 26.78819466
v 0.43384883 0.67886680 0.00000000
v -3.20332360 0.88971364 26.78819466
v -54.47396851 3.86187196 0.00000000
v -54.47396851 3.86187196 0.00000000
v -3.20332360 0.88971364 26.78819466
v -3.45155096 0.90410340 27.08451843
v -54.47396851 3.86187196 0.00000000
v -3.45155096 0.90410340 27.08451843
v -3.62486506 0.91415042 27.43019485
v -3.62486506 0.91415042 27.43019485
v -3.71392274 0.91931307 27.80658913
v -54.47396851 3.86187196 0.00000000
v -54.47396851 3.86187196 0.00000000
v -3.71392274 0.91931307 27.80658913
v -54.47396851 3.86187196 48.00000000
v -54.47396851 3.86187196 48.00000000
v -3.71392274 0.91931307 27.80658913
v -3.71392274 0.91931307 28.19341087
v -1.77314806 0.80680639 29.64068985
v -1.77314806 0.80680639 36.35931015
v -2.15866804 0.82915497 29.66318130
v -2.15866804 0.82915497 29.66318130
v -1.77314806 0.80680639 36.35931015
v -2.15866804 0.82915497 36.33681870
v -2.15866804 0.82915497 29.66318130
v -2.15866804 0.82915497 36.33681870
v -2.53897452 0.85120136 36.40398788
v -1.77314806 0.80680639 36.35931015
v -1.77314806 0.80680639 29.64068985
v -1.40319812 0.78536040 36.47025299
v -1.40319812 0.78536040 36.47025299
v -1.77314806 0.80680639 29.64068985
v -1.40319812 0.78536040 29.52974892
v -1.40319812 0.78536040 36.47025299
v -1.40319812 0.78536040 29.52974892
v -1.06876230 0.76597315 36.66366196
v -1.06876230 0.76597315 36.66366196
v -1.40319812 0.78536040 29.52974892
v -1.06876230 0.76597315 29.33633804
v -1.06876230 0.76597315 36.66366196
v -1.06876230 0.76597315 29.33633804
v -0.78787005 0.74968982 36.92911530
v -0.78787005 0.74968982 36.92911530
v -1.06876230 0.76597315 29.33633804
v -0.78787005 0.74968982 29.07088470
v -0.78787005 0.74968982 36.92911530
v -0.78787005 0.74968982 29.07088470
v -0.57566440 0.73738831 37.25230026
v -0.57566440 0.73738831 37.25230026
v -0.78787005 0.74968982 29.07088470
v -0.57566440 0.73738831 28.74769974
v -0.57566440 0.73738831 37.25230026
v -0.57566440 0.73738831 28.74769974
v -0.44358534 0.72973168 37.61579514
v -0.44358534 0.72973168 37.61579514
v -0.57566440 0.73738831 28.74769974
v -0.44358534 0.72973168 28.38420677
v -0.44358534 0.72973168 37.61579514
v -0.44358534 0.72973168 28.38420677
v -0.39875337 0.72713274 38.00000000
v -0.39875337 0.72713274 38.00000000
v -0.44358534 0.72973168 28.38420677
v -0.39875337 0.72713274 28.00000000
v 0.72321296 5.67048645 48.00000000
v 0.43384883 0.67886680 48.00000000
v 0.72321296 5.67048645 0.00000000
v 0.72321296 5.67048645 0.00000000
v 0.43384883 0.67886680 48.00000000
v 0.43384883 0.67886680 0.00000000
v -3.39097261 5.90898609 28.38420677
v -3.43580461 5.91158485 28.00000000
v -54.18460464 8.85349178 48.00000000
v -54.18460464 8.85349178 48.00000000
v -3.43580461 5.91158485 28.00000000
v -3.39097261 5.90898609 27.61579323
v -54.18460464 8.85349178 48.00000000
v -3.39097261 5.90898609 27.61579323
v -54.18460464 8.85349178 0.00000000
v -54.18460464 8.85349178 0.00000000
v -3.39097261 5.90898609 27.61579323
v -3.25889373 5.90132952 27.25230026
v -54.18460464 8.85349178 0.00000000
v -3.25889373 5.90132952 27.25230026
v -3.04668808 5.88902760 26.92911530
v -54.18460464 8.85349178 0.00000000
v -3.04668808 5.88902760 26.92911530
v 0.72321296 5.67048645 0.00000000
v 0.72321296 5.67048645 0.00000000
v -3.04668808 5.88902760 26.92911530
v -2.76579571 5.87274456 26.66366196
v 0.72321296 5.67048645 0.00000000
v -2.76579571 5.87274456 26.66366196
v -2.43136001 5.85335732 26.47025108
v -2.43136001 5.85335732 26.47025108
v -2.06140995 5.83191109 26.35931015
v 0.72321296 5.67048645 0.00000000
v 0.72321296 5.67048645 0.00000000
v -2.06140995 5.83191109 26.35931015
v -1.67589009 5.80956268 26.33681870
v 0.72321296 5.67048645 0.00000000
v -1.67589009 5.80956268 26.33681870
v -1.29558361 5.78751612 26.40398979
v -1.29558361 5.78751612 26.40398979
v -0.94099313 5.76696062 26.55720139
v 0.72321296 5.67048645 0.00000000
v 0.72321296 5.67048645 0.00000000
v -0.94099313 5.76696062 26.55720139
v -0.63123459 5.74900389 26.78819466
v 0.72321296 5.67048645 0.00000000
v -0.63123459 5.74900389 26.78819466
v -0.38300720 5.73461437 27.08451843
v -0.38300720 5.73461437 27.08451843
v -0.20969296 5.72456741 27.43019485
v 0.72321296 5.67048645 0.00000000
v 0.72321296 5.67048645 0.00000000
v -0.20969296 5.72456741 27.43019485
v -0.12063527 5.71940470 27.80658913
v 0.72321296 5.67048645 0.00000000
v -0.12063527 5.71940470 27.80658913
v 0.72321296 5.67048645 48.00000000
v 0.72321296 5.67048645 48.00000000
v -0.12063527 5.71940470 27.80658913
v -0.12063527 5.71940470 28.19341087
v 0.72321296 5.67048645 48.00000000
v -0.12063527 5.71940470 28.19341087
v -0.12063527 5.71940470 37.80659103
v -0.12063527 5.71940470 37.80659103
v -0.12063527 5.71940470 28.19341087
v -0.20969296 5.72456741 28.56980515
v -0.12063527 5.71940470 37.80659103
v -0.20969296 5.72456741 28.56980515
v -0.20969296 5.72456741 37.43019485
v -0.20969296 5.72456741 37.43019485
v -0.20969296 5.72456741 28.56980515
v -0.38300720 5.73461437 28.91548157
v -0.20969296 5.72456741 37.43019485
v -0.38300720 5.73461437 28.91548157
v -0.38300720 5.73461437 37.08451843
v -0.38300720 5.73461437 37.08451843
v -0.38300720 5.73461437 28.91548157
v -0.63123459 5.74900389 29.21180534
v -0.38300720 5.73461437 37.08451843
v -0.63123459 5.74900389 29.21180534
v -0.63123459 5.74900389 36.78819656
v -0.63123459 5.74900389 36.78819656
v -0.63123459 5.74900389 29.21180534
v -0.94099313 5.76696062 29.44279861
v -0.63123459 5.74900389 36.78819656
v -0.94099313 5.76696062 29.44279861
v -0.94099313 5.76696062 36.55720139
v -0.94099313 5.76696062 36.55720139
v -0.94099313 5.76696062 29.44279861
v -1.29558361 5.78751612 29.59601021
v -0.94099313 5.76696062 36.55720139
v -1.29558361 5.78751612 29.59601021
v -1.29558361 5.78751612 36.40398788
v -1.29558361 5.78751612 36.40398788
v -1.29558361 5.78751612 29.59601021
v -1.67589009 5.80956268 29.66318130
v -1.29558361 5.78751612 36.40398788
v -1.67589009 5.80956268 29.66318130
v -1.67589009 5.80956268 36.33681870
v -1.67589009 5.80956268 36.33681870
v -1.67589009 5.80956268 29.66318130
v -2.06140995 5.83191109 36.35931015
v -2.06140995 5.83191109 36.35931015
v -1.67589009 5.80956268 29.66318130
v -2.06140995 5.83191109 29.64068985
v -2.06140995 5.83191109 36.35931015
v -2.06140995 5.83191109 29.64068985
v -2.43136001 5.85335732 29.52974892
v -2.06140995 5.83191109 36.35931015
v -2.43136001 5.85335732 29.52974892
v -2.43136001 5.85335732 36.47025299
v -2.43136001 5.85335732 36.47025299
v -2.43136001 5.85335732 29.52974892
v -2.76579571 5.87274456 29.33633804
v -2.43136001 5.85335732 36.47025299
v -2.76579571 5.87274456 29.33633804
v -2.76579571 5.87274456 36.66366196
v -2.76579571 5.87274456 36.66366196
v -2.76579571 5.87274456 29.33633804
v -3.04668808 5.88902760 29.07088470
v -2.76579571 5.87274456 36.66366196
v -3.04668808 5.88902760 29.07088470
v -3.04668808 5.88902760 36.92911530
v -3.04668808 5.88902760 36.92911530
v -3.04668808 5.88902760 29.07088470
v -3.25889373 5.90132952 28.74769974
v -3.04668808 5.88902760 36.92911530
v -3.25889373 5.90132952 28.74769974
v -3.25889373 5.90132952 37.25230026
v -3.25889373 5.90132952 37.25230026
v -3.25889373 5.90132952 28.74769974
v -3.39097261 5.90898609 28.38420677
v -3.25889373 5.90132952 37.25230026
v -3.39097261 5.90898609 28.38420677
v -3.39097261 5.90898609 37.61579514
v -3.39097261 5.90898609 37.61579514
v -3.39097261 5.90898609 28.38420677
v -54.18460464 8.85349178 48.00000000
v -3.39097261 5.90898609 37.61579514
v -54.18460464 8.85349178 48.00000000
v -3.43580461 5.91158485 38.00000000
v -3.43580461 5.91158485 38.00000000
v -54.18460464 8.85349178 48.00000000
v -3.39097261 5.90898609 38.38420486
v -3.39097261 5.90898609 38.38420486
v -54.18460464 8.85349178 48.00000000
v -3.25889373 5.90132952 38.74769974
v -3.25889373 5.90132952 38.74769974
v -54.18460464 8.85349178 48.00000000
v -3.04668808 5.88902760 39.07088470
v -3.04668808 5.88902760 39.07088470
v -54.18460464 8.85349178 48.00000000
v 0.72321296 5.67048645 48.00000000
v -3.04668808 5.88902760 39.07088470
v 0.72321296 5.67048645 48.00000000
v -2.76579571 5.87274456 39.33633804
v -2.76579571 5.87274456 39.33633804
v 0.72321296 5.67048645 48.00000000
v -2.43136001 5.85335732 39.52974701
v -2.43136001 5.85335732 39.52974701
v 0.72321296 5.67048645 48.00000000
v -2.06140995 5.83191109 39.64068985
v -2.06140995 5.83191109 39.64068985
v 0.72321296 5.67048645 48.00000000
v -1.67589009 5.80956268 39.66318130
v -1.67589009 5.80956268 39.66318130
v 0.72321296 5.67048645 48.00000000
v -1.29558361 5.78751612 39.59601212
v -1.29558361 5.78751612 39.59601212
v 0.72321296 5.67048645 48.00000000
v -0.94099313 5.76696062 39.44279861
v -0.94099313 5.76696062 39.44279861
v 0.72321296 5.67048645 48.00000000
v -0.63123459 5.74900389 39.21180344
v -0.63123459 5.74900389 39.21180344
v 0.72321296 5.67048645 48.00000000
v -0.38300720 5.73461437 38.91548157
v -0.38300720 5.73461437 38.91548157
v 0.72321296 5.67048645 48.00000000
v -0.20969296 5.72456741 38.56980515
v -0.20969296 5.72456741 38.56980515
v 0.72321296 5.67048645 48.00000000
v -0.12063527 5.71940470 38.19340897
v -0.12063527 5.71940470 38.19340897
v 0.72321296 5.67048645 48.00000000
v -0.12063527 5.71940470 37.80659103
v -39.83180618 3.89344907 48.00000000
v -54.47396851 3.86187196 48.00000000
v -39.45084381 3.82638192 48.00000000
v -39.45084381 3.82638192 48.00000000
v -54.47396851 3.86187196 48.00000000
v -19.48436546 2.66892552 48.00000000
v -39.45084381 3.82638192 48.00000000
v -19.48436546 2.66892552 48.00000000
v -39.06468201 3.84897876 48.00000000
v -39.06468201 3.84897876 48.00000000
v -19.48436546 2.66892552 48.00000000
v -19.86532784 2.73599243 48.00000000
v -39.06468201 3.84897876 48.00000000
v -19.86532784 2.73599243 48.00000000
v -38.69414139 3.96002150 48.00000000
v -38.69414139 3.96002150 48.00000000
v -19.86532784 2.73599243 48.00000000
v -20.22055435 2.88910794 48.00000000
v -38.69414139 3.96002150 48.00000000
v -20.22055435 2.88910794 48.00000000
v -38.35919571 4.15352345 48.00000000
v -38.35919571 4.15352345 48.00000000
v -20.22055435 2.88910794 48.00000000
v -20.53089714 3.12001729 48.00000000
v -38.35919571 4.15352345 48.00000000
v -20.53089714 3.12001729 48.00000000
v -38.07790756 4.41905308 48.00000000
v -38.07790756 4.41905308 48.00000000
v -20.53089714 3.12001729 48.00000000
v -20.77962112 3.41627192 48.00000000
v -38.07790756 4.41905308 48.00000000
v -20.77962112 3.41627192 48.00000000
v -37.86543274 4.74229574 48.00000000
v -37.86543274 4.74229574 48.00000000
v -20.77962112 3.41627192 48.00000000
v -20.95332146 3.76190114 48.00000000
v -37.86543274 4.74229574 48.00000000
v -20.95332146 3.76190114 48.00000000
v -37.73323059 5.10582542 48.00000000
v -37.73323059 5.10582542 48.00000000
v -20.95332146 3.76190114 48.00000000
v -21.04263115 4.13827133 48.00000000
v -37.73323059 5.10582542 48.00000000
v -21.04263115 4.13827133 48.00000000
v -37.68842697 5.49004364 48.00000000
v -37.68842697 5.49004364 48.00000000
v -21.04263115 4.13827133 48.00000000
v -21.04273605 4.52509308 48.00000000
v -37.68842697 5.49004364 48.00000000
v -21.04273605 4.52509308 48.00000000
v -37.73344040 5.87423754 48.00000000
v -37.73344040 5.87423754 48.00000000
v -21.04273605 4.52509308 48.00000000
v -20.95363235 4.90151215 48.00000000
v -37.73344040 5.87423754 48.00000000
v -20.95363235 4.90151215 48.00000000
v -37.86584091 6.23769474 48.00000000
v -37.86584091 6.23769474 48.00000000
v -20.95363235 4.90151215 48.00000000
v -20.78012085 5.24723577 48.00000000
v -37.86584091 6.23769474 48.00000000
v -20.78012085 5.24723577 48.00000000
v -38.07849121 6.56082153 48.00000000
v -38.07849121 6.56082153 48.00000000
v -20.78012085 5.24723577 48.00000000
v -20.53155708 5.54362631 48.00000000
v -38.07849121 6.56082153 48.00000000
v -20.53155708 5.54362631 48.00000000
v -38.35992432 6.82619810 48.00000000
v -38.35992432 6.82619810 48.00000000
v -20.53155708 5.54362631 48.00000000
v -20.22134209 5.77470446 48.00000000
v -38.35992432 6.82619810 48.00000000
v -20.22134209 5.77470446 48.00000000
v -38.69497681 7.01951742 48.00000000
v -38.69497681 7.01951742 48.00000000
v -20.22134209 5.77470446 48.00000000
v -19.86619759 5.92801332 48.00000000
v -38.69497681 7.01951742 48.00000000
v -19.86619759 5.92801332 48.00000000
v -39.06557846 7.13035822 48.00000000
v -39.06557846 7.13035822 48.00000000
v -19.86619759 5.92801332 48.00000000
v -19.48527145 5.99528790 48.00000000
v -39.06557846 7.13035822 48.00000000
v -19.48527145 5.99528790 48.00000000
v -54.18460464 8.85349178 48.00000000
v -54.18460464 8.85349178 48.00000000
v -19.48527145 5.99528790 48.00000000
v 0.72321296 5.67048645 48.00000000
v 0.72321296 5.67048645 48.00000000
v -19.48527145 5.99528790 48.00000000
v -19.09909821 5.97290182 48.00000000
v 0.72321296 5.67048645 48.00000000
v -19.09909821 5.97290182 48.00000000
v -18.72849655 5.86206102 48.00000000
v -39.83180618 3.89344907 48.00000000
v -40.18703461 4.04656458 48.00000000
v -54.47396851 3.86187196 48.00000000
v -54.47396851 3.86187196 48.00000000
v -40.18703461 4.04656458 48.00000000
v -40.49737549 4.27747345 48.00000000
v -54.47396851 3.86187196 48.00000000
v -40.49737549 4.27747345 48.00000000
v -40.74610138 4.57372856 48.00000000
v -40.74610138 4.57372856 48.00000000
v -40.91979980 4.91935778 48.00000000
v -54.47396851 3.86187196 48.00000000
v -54.47396851 3.86187196 48.00000000
v -40.91979980 4.91935778 48.00000000
v -41.00910950 5.29572821 48.00000000
v -54.47396851 3.86187196 48.00000000
v -41.00910950 5.29572821 48.00000000
v -41.00921631 5.68254948 48.00000000
v -54.47396851 3.86187196 48.00000000
v -41.00921631 5.68254948 48.00000000
v -54.18460464 8.85349178 48.00000000
v -54.18460464 8.85349178 48.00000000
v -41.00921631 5.68254948 48.00000000
v -40.92011261 6.05896854 48.00000000
v -54.18460464 8.85349178 48.00000000
v -40.92011261 6.05896854 48.00000000
v -40.74660110 6.40469217 48.00000000
v -40.74660110 6.40469217 48.00000000
v -40.49803543 6.70108271 48.00000000
v -54.18460464 8.85349178 48.00000000
v -54.18460464 8.85349178 48.00000000
v -40.49803543 6.70108271 48.00000000
v -40.18782043 6.93216085 48.00000000
v -54.18460464 8.85349178 48.00000000
v -40.18782043 6.93216085 48.00000000
v -39.83267593 7.08546972 48.00000000
v -39.83267593 7.08546972 48.00000000
v -39.45175171 7.15274477 48.00000000
v -54.18460464 8.85349178 48.00000000
v -54.18460464 8.85349178 48.00000000
v -39.45175171 7.15274477 48.00000000
v -39.06557846 7.13035822 48.00000000
v -18.72849655 5.86206102 48.00000000
v -18.39344597 5.66874123 48.00000000
v 0.72321296 5.67048645 48.00000000
v 0.72321296 5.67048645 48.00000000
v -18.39344597 5.66874123 48.00000000
v -18.11201096 5.40336514 48.00000000
v 0.72321296 5.67048645 48.00000000
v -18.11201096 5.40336514 48.00000000
v -17.89936066 5.08023834 48.00000000
v -17.89936066 5.08023834 48.00000000
v -17.76696014 4.71678066 48.00000000
v 0.72321296 5.67048645 48.00000000
v 0.72321296 5.67048645 48.00000000
v -17.76696014 4.71678066 48.00000000
v -17.72194862 4.33258724 48.00000000
v 0.72321296 5.67048645 48.00000000
v -17.72194862 4.33258724 48.00000000
v 0.43384883 0.67886680 48.00000000
v 0.43384883 0.67886680 48.00000000
v -17.72194862 4.33258724 48.00000000
v -17.76675034 3.94836879 48.00000000
v 0.43384883 0.67886680 48.00000000
v -17.76675034 3.94836879 48.00000000
v -17.89895248 3.58483934 48.00000000
v -17.89895248 3.58483934 48.00000000
v -18.11142731 3.26159668 48.00000000
v 0.43384883 0.67886680 48.00000000
v 0.43384883 0.67886680 48.00000000
v -18.11142731 3.26159668 48.00000000
v -18.39271736 2.99606705 48.00000000
v 0.43384883 0.67886680 48.00000000
v -18.39271736 2.99606705 48.00000000
v -18.72766304 2.80256510 48.00000000
v -18.72766304 2.80256510 48.00000000
v -19.09820366 2.69152236 48.00000000
v 0.43384883 0.67886680 48.00000000
v 0.43384883 0.67886680 48.00000000
v -19.09820366 2.69152236 48.00000000
v -19.48436546 2.66892552 48.00000000
v 0.43384883 0.67886680 48.00000000
v -19.48436546 2.66892552 48.00000000
v -54.47396851 3.86187196 48.00000000
f 1 2 3
f 4 5 6
f 7 8 9
f 10 11 12
f 13 14 15
f 16 17 18
f 19 20 21
f 22 23 24
f 25 26 27
f 28 29 30
f 31 32 33
f 34 35 36
f 37 38 39
f 40 41 42
f 43 44 45
f 46 47 48
f 49 50 51
f 52 53 54
f 55 56 57
f 58 59 60
f 61 62 63
f 64 65 66
f 67 68 69
f 70 71 72
f 73 74 75
f 76 77 78
f 79 80 81
f 82 83 84
f 85 86 87
f 88 89 90
f 91 92 93
f 94 95 96
f 97 98 99
f 100 101 102
f 103 104 105
f 106 107 108
f 109 110 111
f 112 113 114
f 115 116 117
f 118 119 120
f 121 122 123
f 124 125 126
f 127 128 129
f 130 131 132
f 133 134 135
f 136 137 138
f 139 140 141
f 142 143 144
f 145 146 147
f 148 149 150
f 151 152 153
f 154 155 156
f 157 158 159
f 160 161 162
f 163 164 165
f 166 167 168
f 169 170 171
f 172 173 174
f 175 176 177
f 178 179 180
f 181 182 183
f 184 185 186
f 187 188 189
f 190 191 192
f 193 194 195
f 196 197 198
f 199 200 201
f 202 203 204
f 205 206 207
f 208 209 210
f 211 212 213
f 214 215 216
f 217 218 219
f 220 221 222
f 223 224 225
f 226 227 228
f 229 230 231
f 232 233 234
f 235 236 237
f 238 239 240
f 241 242 243
f 244 245 246
f 247 248 249
f 250 251 252
f 253 254 255
f 256 257 258
f 259 260 261
f 262 263 264
f 265 266 267
f 268 269 270
f 271 272 273
f 274 275 276
f 277 278 279
f 280 281 282
f 283 284 285
f 286 287 288
f 289 290 291
f 292 293 294
f 295 296 297
f 298 299 300
f 301 302 303
f 304 305 306
f 307 308 309
f 310 311 312
f 313 314 315
f 316 317 318
f 319 320 321
f 322 323 324
f 325 326 327
f 328 329 330
f 331 332 333
f 334 335 336
f 337 338 339
f 340 341 342
f 343 344 345
f 346 347 348
f 349 350 351
f 352 353 354
f 355 356 357
f 358 359 360
f 361 362 363
f 364 365 366
f 367 368 369
f 370 371 372
f 373 374 375
f 376 377 378
f 379 380 381
f 382 383 384
f 385 386 387
f 388 389 390
f 391 392 393
f 394 395 396
f 397 398 399
f 400 401 402
f 403 404 405
f 406 407 408
f 409 410 411
f 412 413 414
f 415 416 417
f 418 419 420
f 421 422 423
f 424 425 426
f 427 428 429
f 430 431 432
f 433 434 435
f 436 437 438
f 439 440 441
f 442 443 444
f 445 446 447
f 448 449 450
f 451 452 453
f 454 455 456
f 457 458 459
f 460 461 462
f 463 464 465
f 466 467 468
f 469 470 471
f 472 473 474
f 475 476 477
f 478 479 480
f 481 482 483
f 484 485 486
f 487 488 489
f 490 491 492
f 493 494 495
f 496 497 498
f 499 500 501
f 502 503 504
f 505 506 507
f 508 509 510
f 511 512 513
f 514 515 516
f 517 518 519
f 520 521 522
f 523 524 525
f 526 527 528
f 529 530 531
f 532 533 534
f 535 536 537
f 538 539 540
f 541 542 543
f 544 545 546
f 547 548 549
f 550 551 552
f 553 554 555
f 556 557 558
f 559 560 561
f 562 563 564
f 565 566 567
f 568 569 570
f 571 572 573
f 574 575 576
f 577 578 579
f 580 581 582
f 583 584 585
f 586 587 588
f 589 590 591
f 592 593 594
f 595 596 597
f 598 599 600
f 601 602 603
f 604 605 606
f 607 608 609
f 610 611 612
f 613 614 615
f 616 617 618
f 619 620 621
f 622 623 624
f 625 626 627
f 628 629 630
f 631 632 633
f 634 635 636
f 637 638 639
f 640 641 642
f 643 644 645
f 646 647 648
f 649 650 651
f 652 653 654
f 655 656 657
f 658 659 660
f 661 662 663
f 664 665 666
f 667 668 669
f 670 671 672
f 673 674 675
f 676 677 678
f 679 680 681
f 682 683 684
f 685 686 687
f 688 689 690
f 691 692 693
f 694 695 696
f 697 698 699
f 700 701 702
f 703 704 705
f 706 707 708
f 709 710 711
f 712 713 714
f 715 716 717
f 718 719 720
f 721 722 723
f 724 725 726
f 727 728 729
f 730 731 732
f 733 734 735
f 736 737 738
f 739 740 741
f 742 743 744
f 745 746 747
f 748 749 750
f 751 752 753
f 754 755 756
f 757 758 759
f 760 761 762
f 763 764 765
f 766 767 768
f 769 770 771
f 772 773 774
f 775 776 777
f 778 779 780
f 781 782 783
f 784 785 786
f 787 788 789
f 790 791 792
f 793 794 795
f 796 797 798
f 799 800 801
f 802 803 804
f 805 806 807
f 808 809 810
f 811 812 813
f 814 815 816
f 817 818 819
f 820 821 822
f 823 824 825
f 826 827 828
f 829 830 831
f 832 833 834
f 835 836 837
f 838 839 840
f 841 842 843
f 844 845 846
f 847 848 849
f 850 851 852
f 853 854 855
f 856 857 858
f 859 860 861
f 862 863 864
f 865 866 867
f 868 869 870
f 871 872 873
f 874 875 876
f 877 878 879
f 880 881 882
f 883 884 885
f 886 887 888
f 889 890 891
f 892 893 894
f 895 896 897
f 898 899 900
f 901 902 903
f 904 905 906
f 907 908 909
f 910 911 912
f 913 914 915
f 916 917 918
f 919 920 921
f 922 923 924
f 925 926 927
f 928 929 930
f 931 932 933
f 934 935 936
f 937 938 939
f 940 941 942
f 943 944 945
f 946 947 948
f 949 950 951
f 952 953 954
f 955 956 957
f 958 959 960
f 961 962 963
f 964 965 966
f 967 968 969
f 970 971 972
f 973 974 975
f 976 977 978
f 979 980 981
f 982 983 984
f 985 986 987
f 988 989 990
f 991 992 993
f 994 995 996
f 997 998 999
f 1000 1001 1002
f 1003 1004 1005
f 1006 1007 1008
f 1009 1010 1011
f 1012 1013 1014
f 1015 1016 1017
f 1018 1019 1020
f 1021 1022 1023
f 1024 1025 1026
f 1027 1028 1029
f 1030 1031 1032
f 1033 1034 1035
f 1036 1037 1038
f 1039 1040 1041
f 1042 1043 1044
f 1045 1046 1047
f 1048 1049 1050
f 1051 1052 1053
f 1054 1055 1056
f 1057 1058 1059
f 1060 1061 1062
f 1063 1064 1065
f 1066 1067 1068
f 1069 1070 1071
f 1072 1073 1074
f 1075 1076 1077
f 1078 1079 1080
f 1081 1082 1083
f 1084 1085 1086
f 1087 1088 1089
f 1090 1091 1092
f 1093 1094 1095
f 1096 1097 1098
f 1099 1100 1101
f 1102 1103 1104
f 1105 1106 1107
f 1108 1109 1110
f 1111 1112 1113
f 1114 1115 1116
f 1117 1118 1119
f 1120 1121 1122
f 1123 1124 1125
f 1126 1127 1128
f 1129 1130 1131
f 1132 1133 1134
f 1135 1136 1137
f 1138 1139 1140
f 1141 1142 1143
f 1144 1145 1146
f 1147 1148 1149
f 1150 1151 1152
f 1153 1154 1155
f 1156 1157 1158
f 1159 1160 1161
f 1162 1163 1164
f 1165 1166 1167
f 1168 1169 1170
f 1171 1172 1173
f 1174 1175 1176
f 1177 1178 1179
f 1180 1181 1182
f 1183 1184 1185
f 1186 1187 1188
f 1189 1190 1191
f 1192 1193 1194
f 1195 1196 1197
f 1198 1199 1200
f 1201 1202 1203
f 1204 1205 1206
f 1207 1208 1209
f 1210 1211 1212
f 1213 1214 1215
f 1216 1217 1218
f 1219 1220 1221
f 1222 1223 1224
f 1225 1226 1227
f 1228 1229 1230
f 1231 1232 1233
f 1234 1235 1236
f 1237 1238 1239
f 1240 1241 1242
f 1243 1244 1245
f 1246 1247 1248
f 1249 1250 1251
f 1252 1253 1254
f 1255 1256 1257
f 1258 1259 1260
f 1261 1262 1263
f 1264 1265 1266
f 1267 1268 1269
f 1270 1271 1272
f 1273 1274 1275
f 1276 1277 1278
f 1279 1280 1281
f 1282 1283 1284
f 1285 1286 1287
f 1288 1289 1290
f 1291 1292 1293
f 1294 1295 1296
f 1297 1298 1299
f 1300 1301 1302
f 1303 1304 1305
f 1306 1307 1308
f 1309 1310 1311
f 1312 1313 1314
f 1315 1316 1317
f 1318 1319 1320
f 1321 1322 1323
f 1324 1325 1326
f 1327 1328 1329
f 1330 1331 1332
f 1333 1334 1335
f 1336 1337 1338
f 1339 1340 1341
f 1342 1343 1344
f 1345 1346 1347
f 1348 1349 1350
f 1351 1352 1353
f 1354 1355 1356
f 1357 1358 1359
f 1360 1361 1362
f 1363 1364 1365
f 1366 1367 1368
f 1369 1370 1371
f 1372 1373 1374
f 1375 1376 1377
f 1378 1379 1380
f 1381 1382 1383
f 1384 1385 1386
f 1387 1388 1389
f 1390 1391 1392
f 1393 1394 1395
f 1396 1397 1398
f 1399 1400 1401
f 1402 1403 1404
f 1405 1406 1407
f 1408 1409 1410
f 1411 1412 1413
f 1414 1415 1416
f 1417 1418 1419
f 1420 1421 1422
f 1423 1424 1425
f 1426 1427 1428
f 1429 1430 1431
f 1432 1433 1434
f 1435 1436 1437
f 1438 1439 1440
f 1441 1442 1443
f 1444 1445 1446
f 1447 1448 1449
f 1450 1451 1452
f 1453 1454 1455
f 1456 1457 1458
f 1459 1460 1461
f 1462 1463 1464
f 1465 1466 1467
f 1468 1469 1470
f 1471 1472 1473
f 1474 1475 1476
f 1477 1478 1479
f 1480 1481 1482
f 1483 1484 1485
f 1486 1487 1488
f 1489 1490 1491
f 1492 1493 1494
f 1495 1496 1497
f 1498 1499 1500
f 1501 1502 1503
f 1504 1505 1506
f 1507 1508 1509
f 1510 1511 1512
f 1513 1514 1515
f 1516 1517 1518
f 1519 1520 1521
f 1522 1523 1524
f 1525 1526 1527
f 1528 1529 1530
f 1531 1532 1533
f 1534 1535 1536
f 1537 1538 1539
f 1540 1541 1542
f 1543 1544 1545
f 1546 1547 1548
f 1549 1550 1551
f 1552 1553 1554
f 1555 1556 1557
f 1558 1559 1560
f 1561 1562 1563
f 1564 1565 1566
f 1567 1568 1569
f 1570 1571 1572
f 1573 1574 1575
f 1576 1577 1578
f 1579 1580 1581
f 1582 1583 1584
f 1585 1586 1587
f 1588 1589 1590
f 1591 1592 1593
f 1594 1595 1596
f 1597 1598 1599
f 1600 1601 1602
f 1603 1604 1605
f 1606 1607 1608
f 1609 1610 1611
f 1612 1613 1614
f 1615 1616 1617
f 1618 1619 1620
f 1621 1622 1623
f 1624 1625 1626
f 1627 1628 1629
f 1630 1631 1632
f 1633 1634 1635
f 1636 1637 1638
f 1639 1640 1641
f 1642 1643 1644
f 1645 1646 1647
f 1648 1649 1650
f 1651 1652 1653
f 1654 1655 1656
f 1657 1658 1659
f 1660 1661 1662
f 1663 1664 1665
f 1666 1667 1668
f 1669 1670 1671
f 1672 1673 1674
f 1675 1676 1677
f 1678 1679 1680

