# https://github.com/mikedh/trimesh

o M_RightLink_1.stl
v -47.62744141 104.68728638 56.43675232
v -47.58910751 105.34855652 56.50000000
v -47.58910751 105.34855652 55.50000000
v -47.58910751 105.34855652 55.50000000
v -47.58910751 105.34855652 56.50000000
v -47.55077362 106.00982666 56.43675232
v -47.58910751 105.34855652 55.50000000
v -47.55077362 106.00982666 56.43675232
v -47.55691528 105.90392303 55.43732071
v -47.55691528 105.90392303 55.43732071
v -47.55077362 106.00982666 56.43675232
v -47.51382828 106.64719391 56.24929047
v -47.55691528 105.90392303 55.43732071
v -47.51382828 106.64719391 56.24929047
v -47.52633286 106.43144989 55.25242233
v -47.52633286 106.43144989 55.25242233
v -47.51382828 106.64719391 56.24929047
v -47.47959900 107.23762512 55.94438934
v -47.52633286 106.43144989 55.25242233
v -47.47959900 107.23762512 55.94438934
v -47.49890137 106.90467072 54.95457840
v -47.49890137 106.90467072 54.95457840
v -47.47959900 107.23762512 55.94438934
v -47.44932938 107.75978088 55.53306961
v -47.49890137 106.90467072 54.95457840
v -47.44932938 107.75978088 55.53306961
v -47.47599030 107.29985809 54.55872345
v -47.47599030 107.29985809 54.55872345
v -47.44932938 107.75978088 55.53306961
v -47.42411423 108.19479370 55.03020096
v -47.47599030 107.29985809 54.55872345
v -47.42411423 108.19479370 55.03020096
v -47.45875549 107.59720612 54.08470917
v -47.45875549 107.59720612 54.08470917
v -47.42411423 108.19479370 55.03020096
v -47.40485764 108.52693176 54.45395279
v -47.45875549 107.59720612 54.08470917
v -47.40485764 108.52693176 54.45395279
v -47.44805527 107.78179169 53.55630112
v -47.44805527 107.78179169 53.55630112
v -47.40485764 108.52693176 54.45395279
v -47.39226532 108.74419403 53.82515717
v -47.44805527 107.78179169 53.55630112
v -47.39226532 108.74419403 53.82515717
v -47.38678360 108.83872986 53.16653824
v -47.44805527 107.78179169 53.55630112
v -47.38678360 108.83872986 53.16653824
v -47.44442749 107.84436798 53.00000000
v -47.44442749 107.84436798 53.00000000
v -47.38678360 108.83872986 53.16653824
v -47.38861465 108.80712128 52.50189972
v -47.44442749 107.84436798 53.00000000
v -47.38861465 108.80712128 52.50189972
v -47.44805527 107.78179169 52.44369888
v -47.44805527 107.78179169 52.44369888
v -47.38861465 108.80712128 52.50189972
v -47.39769363 108.65051270 51.85526276
v -47.44805527 107.78179169 52.44369888
v -47.39769363 108.65051270 51.85526276
v -47.45875549 107.59720612 51.91529083
v -47.45875549 107.59720612 51.91529083
v -47.39769363 108.65051270 51.85526276
v -47.41369247 108.37456512 51.25000000
v -47.45875549 107.59720612 51.91529083
v -47.41369247 108.37456512 51.25000000
v -47.47599030 107.29985809 51.44127655
v -47.47599030 107.29985809 51.44127655
v -47.41369247 108.37456512 51.25000000
v -47.43602753 107.98924255 50.70798874
v -47.47599030 107.29985809 51.44127655
v -47.43602753 107.98924255 50.70798874
v -47.49890137 106.90467072 51.04542160
v -47.49890137 106.90467072 51.04542160
v -47.43602753 107.98924255 50.70798874
v -47.46389771 107.50848389 50.24881363
v -47.49890137 106.90467072 51.04542160
v -47.46389771 107.50848389 50.24881363
v -47.49629211 106.94966125 49.88907623
v -47.49890137 106.90467072 51.04542160
v -47.49629211 106.94966125 49.88907623
v -47.52633286 106.43144989 50.74757767
v -47.52633286 106.43144989 50.74757767
v -47.49629211 106.94966125 49.88907623
v -47.53204346 106.33296967 49.64177704
v -47.52633286 106.43144989 50.74757767
v -47.53204346 106.33296967 49.64177704
v -47.55691528 105.90392303 50.56267929
v -47.55691528 105.90392303 50.56267929
v -47.53204346 106.33296967 49.64177704
v -47.56985474 105.68069458 49.51585007
v -47.55691528 105.90392303 50.56267929
v -47.56985474 105.68069458 49.51585007
v -47.58910751 105.34855652 50.50000000
v -47.58910751 105.34855652 50.50000000
v -47.56985474 105.68069458 49.51585007
v -47.60836411 105.01641846 49.51585007
v -47.58910751 105.34855652 50.50000000
v -47.60836411 105.01641846 49.51585007
v -47.62130356 104.79318237 50.56267929
v -47.62130356 104.79318237 50.56267929
v -47.60836411 105.01641846 49.51585007
v -47.64617538 104.36414337 49.64177704
v -47.62130356 104.79318237 50.56267929
v -47.64617538 104.36414337 49.64177704
v -47.65188599 104.26566315 50.74757767
v -47.65188599 104.26566315 50.74757767
v -47.64617538 104.36414337 49.64177704
v -47.68192673 103.74745178 49.88907623
v -47.65188599 104.26566315 50.74757767
v -47.68192673 103.74745178 49.88907623
v -47.67931747 103.79244232 51.04542160
v -47.67931747 103.79244232 51.04542160
v -47.68192673 103.74745178 49.88907623
v -47.71432114 103.18862915 50.24881363
v -47.67931747 103.79244232 51.04542160
v -47.71432114 103.18862915 50.24881363
v -47.74219131 102.70786285 50.70798874
v -47.67931747 103.79244232 51.04542160
v -47.74219131 102.70786285 50.70798874
v -47.70222473 103.39725494 51.44127655
v -47.70222473 103.39725494 51.44127655
v -47.74219131 102.70786285 50.70798874
v -47.76452637 102.32254791 51.25000000
v -47.70222473 103.39725494 51.44127655
v -47.76452637 102.32254791 51.25000000
v -47.71946335 103.09990692 51.91529083
v -47.71946335 103.09990692 51.91529083
v -47.76452637 102.32254791 51.25000000
v -47.78052521 102.04659271 51.85526276
v -47.71946335 103.09990692 51.91529083
v -47.78052521 102.04659271 51.85526276
v -47.73016357 102.91532135 52.44369888
v -47.73016357 102.91532135 52.44369888
v -47.78052521 102.04659271 51.85526276
v -47.78960037 101.88998413 52.50189972
v -47.73016357 102.91532135 52.44369888
v -47.78960037 101.88998413 52.50189972
v -47.73379135 102.85274506 53.00000000
v -47.73379135 102.85274506 53.00000000
v -47.78960037 101.88998413 52.50189972
v -47.79143524 101.85838318 53.16653824
v -47.73379135 102.85274506 53.00000000
v -47.79143524 101.85838318 53.16653824
v -47.73016357 102.91532135 53.55630112
v -47.73016357 102.91532135 53.55630112
v -47.79143524 101.85838318 53.16653824
v -47.78595352 101.95291901 53.82515717
v -47.73016357 102.91532135 53.55630112
v -47.78595352 101.95291901 53.82515717
v -47.77336121 102.17018127 54.45395279
v -47.73016357 102.91532135 53.55630112
v -47.77336121 102.17018127 54.45395279
v -47.71946335 103.09990692 54.08470917
v -47.71946335 103.09990692 54.08470917
v -47.77336121 102.17018127 54.45395279
v -47.75410461 102.50231934 55.03020096
v -47.71946335 103.09990692 54.08470917
v -47.75410461 102.50231934 55.03020096
v -47.70222473 103.39725494 54.55872345
v -47.70222473 103.39725494 54.55872345
v -47.75410461 102.50231934 55.03020096
v -47.72888947 102.93732452 55.53306961
v -47.70222473 103.39725494 54.55872345
v -47.72888947 102.93732452 55.53306961
v -47.67931747 103.79244232 54.95457840
v -47.67931747 103.79244232 54.95457840
v -47.72888947 102.93732452 55.53306961
v -47.69861984 103.45948792 55.94438934
v -47.67931747 103.79244232 54.95457840
v -47.69861984 103.45948792 55.94438934
v -47.65188599 104.26566315 55.25242233
v -47.65188599 104.26566315 55.25242233
v -47.69861984 103.45948792 55.94438934
v -47.66439056 104.04991913 56.24929047
v -47.65188599 104.26566315 55.25242233
v -47.66439056 104.04991913 56.24929047
v -47.62130356 104.79318237 55.43732071
v -47.62130356 104.79318237 55.43732071
v -47.66439056 104.04991913 56.24929047
v -47.62744141 104.68728638 56.43675232
v -47.62130356 104.79318237 55.43732071
v -47.62744141 104.68728638 56.43675232
v -47.58910751 105.34855652 55.50000000
v -48.54909897 106.06769562 56.43675232
v -47.58910751 105.34855652 56.50000000
v -48.58743286 105.40642548 56.50000000
v -48.58743286 105.40642548 56.50000000
v -47.58910751 105.34855652 56.50000000
v -47.62744141 104.68728638 56.43675232
v -48.58743286 105.40642548 56.50000000
v -47.62744141 104.68728638 56.43675232
v -48.62576675 104.74516296 56.43675232
v -48.62576675 104.74516296 56.43675232
v -47.62744141 104.68728638 56.43675232
v -47.66439056 104.04991913 56.24929047
v -48.62576675 104.74516296 56.43675232
v -47.66439056 104.04991913 56.24929047
v -48.66271591 104.10778809 56.24929047
v -48.66271591 104.10778809 56.24929047
v -47.66439056 104.04991913 56.24929047
v -47.69861984 103.45948792 55.94438934
v -48.66271591 104.10778809 56.24929047
v -47.69861984 103.45948792 55.94438934
v -48.69694138 103.51735687 55.94438934
v -48.69694138 103.51735687 55.94438934
v -47.69861984 103.45948792 55.94438934
v -47.72888947 102.93732452 55.53306961
v -48.69694138 103.51735687 55.94438934
v -47.72888947 102.93732452 55.53306961
v -48.72721100 102.99520111 55.53306961
v -48.72721100 102.99520111 55.53306961
v -47.72888947 102.93732452 55.53306961
v -47.75410461 102.50231934 55.03020096
v -48.72721100 102.99520111 55.53306961
v -47.75410461 102.50231934 55.03020096
v -48.75242996 102.56018829 55.03020096
v -48.75242996 102.56018829 55.03020096
v -47.75410461 102.50231934 55.03020096
v -47.77336121 102.17018127 54.45395279
v -48.75242996 102.56018829 55.03020096
v -47.77336121 102.17018127 54.45395279
v -48.77168274 102.22805023 54.45395279
v -48.77168274 102.22805023 54.45395279
v -47.77336121 102.17018127 54.45395279
v -47.78595352 101.95291901 53.82515717
v -48.77168274 102.22805023 54.45395279
v -47.78595352 101.95291901 53.82515717
v -48.78427887 102.01078796 53.82515717
v -48.78427887 102.01078796 53.82515717
v -47.78595352 101.95291901 53.82515717
v -47.79143524 101.85838318 53.16653824
v -48.78427887 102.01078796 53.82515717
v -47.79143524 101.85838318 53.16653824
v -48.78975677 101.91625214 53.16653824
v -48.78975677 101.91625214 53.16653824
v -47.79143524 101.85838318 53.16653824
v -47.78960037 101.88998413 52.50189972
v -48.78975677 101.91625214 53.16653824
v -47.78960037 101.88998413 52.50189972
v -48.78792572 101.94786072 52.50189972
v -48.78792572 101.94786072 52.50189972
v -47.78960037 101.88998413 52.50189972
v -47.78052521 102.04659271 51.85526276
v -48.78792572 101.94786072 52.50189972
v -47.78052521 102.04659271 51.85526276
v -48.77884674 102.10446930 51.85526276
v -48.77884674 102.10446930 51.85526276
v -47.78052521 102.04659271 51.85526276
v -47.76452637 102.32254791 51.25000000
v -48.77884674 102.10446930 51.85526276
v -47.76452637 102.32254791 51.25000000
v -48.76285172 102.38041687 51.25000000
v -48.76285172 102.38041687 51.25000000
v -47.76452637 102.32254791 51.25000000
v -47.74219131 102.70786285 50.70798874
v -48.76285172 102.38041687 51.25000000
v -47.74219131 102.70786285 50.70798874
v -48.74051285 102.76573944 50.70798874
v -48.74051285 102.76573944 50.70798874
v -47.74219131 102.70786285 50.70798874
v -47.71432114 103.18862915 50.24881363
v -48.74051285 102.76573944 50.70798874
v -47.71432114 103.18862915 50.24881363
v -48.71264267 103.24649811 50.24881363
v -48.71264267 103.24649811 50.24881363
v -47.71432114 103.18862915 50.24881363
v -47.68192673 103.74745178 49.88907623
v -48.71264267 103.24649811 50.24881363
v -47.68192673 103.74745178 49.88907623
v -48.68024826 103.80532074 49.88907623
v -48.68024826 103.80532074 49.88907623
v -47.68192673 103.74745178 49.88907623
v -47.64617538 104.36414337 49.64177704
v -48.68024826 103.80532074 49.88907623
v -47.64617538 104.36414337 49.64177704
v -48.64450073 104.42201996 49.64177704
v -48.64450073 104.42201996 49.64177704
v -47.64617538 104.36414337 49.64177704
v -47.60836411 105.01641846 49.51585007
v -48.64450073 104.42201996 49.64177704
v -47.60836411 105.01641846 49.51585007
v -48.60668564 105.07428741 49.51585007
v -48.60668564 105.07428741 49.51585007
v -47.60836411 105.01641846 49.51585007
v -47.56985474 105.68069458 49.51585007
v -48.60668564 105.07428741 49.51585007
v -47.56985474 105.68069458 49.51585007
v -48.56818008 105.73856354 49.51585007
v -48.56818008 105.73856354 49.51585007
v -47.56985474 105.68069458 49.51585007
v -47.53204346 106.33296967 49.64177704
v -48.56818008 105.73856354 49.51585007
v -47.53204346 106.33296967 49.64177704
v -48.53036499 106.39083862 49.64177704
v -48.53036499 106.39083862 49.64177704
v -47.53204346 106.33296967 49.64177704
v -47.49629211 106.94966125 49.88907623
v -48.53036499 106.39083862 49.64177704
v -47.49629211 106.94966125 49.88907623
v -48.49461746 107.00753021 49.88907623
v -48.49461746 107.00753021 49.88907623
v -47.49629211 106.94966125 49.88907623
v -47.46389771 107.50848389 50.24881363
v -48.49461746 107.00753021 49.88907623
v -47.46389771 107.50848389 50.24881363
v -48.46222305 107.56636047 50.24881363
v -48.46222305 107.56636047 50.24881363
v -47.46389771 107.50848389 50.24881363
v -47.43602753 107.98924255 50.70798874
v -48.46222305 107.56636047 50.24881363
v -47.43602753 107.98924255 50.70798874
v -48.43435287 108.04711914 50.70798874
v -48.43435287 108.04711914 50.70798874
v -47.43602753 107.98924255 50.70798874
v -47.41369247 108.37456512 51.25000000
v -48.43435287 108.04711914 50.70798874
v -47.41369247 108.37456512 51.25000000
v -48.41201401 108.43243408 51.25000000
v -48.41201401 108.43243408 51.25000000
v -47.41369247 108.37456512 51.25000000
v -47.39769363 108.65051270 51.85526276
v -48.41201401 108.43243408 51.25000000
v -47.39769363 108.65051270 51.85526276
v -48.39601898 108.70838928 51.85526276
v -48.39601898 108.70838928 51.85526276
v -47.39769363 108.65051270 51.85526276
v -47.38861465 108.80712128 52.50189972
v -48.39601898 108.70838928 51.85526276
v -47.38861465 108.80712128 52.50189972
v -48.38694000 108.86499786 52.50189972
v -48.38694000 108.86499786 52.50189972
v -47.38861465 108.80712128 52.50189972
v -47.38678360 108.83872986 53.16653824
v -48.38694000 108.86499786 52.50189972
v -47.38678360 108.83872986 53.16653824
v -48.38510895 108.89660645 53.16653824
v -48.38510895 108.89660645 53.16653824
v -47.38678360 108.83872986 53.16653824
v -47.39226532 108.74419403 53.82515717
v -48.38510895 108.89660645 53.16653824
v -47.39226532 108.74419403 53.82515717
v -48.39058685 108.80207062 53.82515717
v -48.39058685 108.80207062 53.82515717
v -47.39226532 108.74419403 53.82515717
v -47.40485764 108.52693176 54.45395279
v -48.39058685 108.80207062 53.82515717
v -47.40485764 108.52693176 54.45395279
v -48.40318298 108.58480072 54.45395279
v -48.40318298 108.58480072 54.45395279
v -47.40485764 108.52693176 54.45395279
v -47.42411423 108.19479370 55.03020096
v -48.40318298 108.58480072 54.45395279
v -47.42411423 108.19479370 55.03020096
v -48.42243576 108.25266266 55.03020096
v -48.42243576 108.25266266 55.03020096
v -47.42411423 108.19479370 55.03020096
v -47.44932938 107.75978088 55.53306961
v -48.42243576 108.25266266 55.03020096
v -47.44932938 107.75978088 55.53306961
v -48.44765472 107.81765747 55.53306961
v -48.44765472 107.81765747 55.53306961
v -47.44932938 107.75978088 55.53306961
v -47.47959900 107.23762512 55.94438934
v -48.44765472 107.81765747 55.53306961
v -47.47959900 107.23762512 55.94438934
v -48.47792435 107.29550171 55.94438934
v -48.47792435 107.29550171 55.94438934
v -47.47959900 107.23762512 55.94438934
v -47.51382828 106.64719391 56.24929047
v -48.47792435 107.29550171 55.94438934
v -47.51382828 106.64719391 56.24929047
v -48.51214981 106.70507050 56.24929047
v -48.51214981 106.70507050 56.24929047
v -47.51382828 106.64719391 56.24929047
v -47.55077362 106.00982666 56.43675232
v -48.51214981 106.70507050 56.24929047
v -47.55077362 106.00982666 56.43675232
v -48.54909897 106.06769562 56.43675232
v -48.54909897 106.06769562 56.43675232
v -47.55077362 106.00982666 56.43675232
v -47.58910751 105.34855652 56.50000000
v -44.55580521 105.83620453 56.43675232
v -44.59413528 105.17493439 56.50000000
v -44.59413528 105.17493439 55.50000000
v -44.59413528 105.17493439 55.50000000
v -44.59413528 105.17493439 56.50000000
v -44.63246918 104.51367188 56.43675232
v -44.59413528 105.17493439 55.50000000
v -44.63246918 104.51367188 56.43675232
v -44.62633133 104.61956787 55.43732071
v -44.62633133 104.61956787 55.43732071
v -44.63246918 104.51367188 56.43675232
v -44.66941833 103.87629700 56.24928665
v -44.62633133 104.61956787 55.43732071
v -44.66941833 103.87629700 56.24928665
v -44.65691376 104.09204865 55.25242233
v -44.65691376 104.09204865 55.25242233
v -44.66941833 103.87629700 56.24928665
v -44.70364761 103.28586578 55.94438553
v -44.65691376 104.09204865 55.25242233
v -44.70364761 103.28586578 55.94438553
v -44.68434525 103.61882782 54.95457840
v -44.68434525 103.61882782 54.95457840
v -44.70364761 103.28586578 55.94438553
v -44.73391724 102.76371002 55.53306961
v -44.68434525 103.61882782 54.95457840
v -44.73391724 102.76371002 55.53306961
v -44.70725250 103.22363281 54.55872345
v -44.70725250 103.22363281 54.55872345
v -44.73391724 102.76371002 55.53306961
v -44.75913239 102.32869720 55.03020096
v -44.70725250 103.22363281 54.55872345
v -44.75913239 102.32869720 55.03020096
v -44.72449112 102.92629242 54.08470917
v -44.72449112 102.92629242 54.08470917
v -44.75913239 102.32869720 55.03020096
v -44.77838898 101.99655914 54.45395279
v -44.72449112 102.92629242 54.08470917
v -44.77838898 101.99655914 54.45395279
v -44.73519135 102.74169922 53.55630112
v -44.73519135 102.74169922 53.55630112
v -44.77838898 101.99655914 54.45395279
v -44.79098129 101.77929688 53.82515717
v -44.73519135 102.74169922 53.55630112
v -44.79098129 101.77929688 53.82515717
v -44.79646301 101.68476105 53.16653824
v -44.73519135 102.74169922 53.55630112
v -44.79646301 101.68476105 53.16653824
v -44.73881912 102.67913055 53.00000000
v -44.73881912 102.67913055 53.00000000
v -44.79646301 101.68476105 53.16653824
v -44.79463196 101.71636963 52.50189972
v -44.73881912 102.67913055 53.00000000
v -44.79463196 101.71636963 52.50189972
v -44.73519135 102.74169922 52.44369888
v -44.73519135 102.74169922 52.44369888
v -44.79463196 101.71636963 52.50189972
v -44.78555298 101.87297821 51.85526276
v -44.73519135 102.74169922 52.44369888
v -44.78555298 101.87297821 51.85526276
v -44.72449112 102.92629242 51.91529083
v -44.72449112 102.92629242 51.91529083
v -44.78555298 101.87297821 51.85526276
v -44.76955414 102.14892578 51.25000000
v -44.72449112 102.92629242 51.91529083
v -44.76955414 102.14892578 51.25000000
v -44.70725250 103.22363281 51.44127655
v -44.70725250 103.22363281 51.44127655
v -44.76955414 102.14892578 51.25000000
v -44.74721909 102.53424835 50.70798874
v -44.70725250 103.22363281 51.44127655
v -44.74721909 102.53424835 50.70798874
v -44.68434525 103.61882782 51.04542160
v -44.68434525 103.61882782 51.04542160
v -44.74721909 102.53424835 50.70798874
v -44.71934891 103.01500702 50.24881363
v -44.68434525 103.61882782 51.04542160
v -44.71934891 103.01500702 50.24881363
v -44.68695450 103.57382965 49.88907623
v -44.68434525 103.61882782 51.04542160
v -44.68695450 103.57382965 49.88907623
v -44.65691376 104.09204865 50.74757767
v -44.65691376 104.09204865 50.74757767
v -44.68695450 103.57382965 49.88907623
v -44.65120316 104.19052887 49.64177322
v -44.65691376 104.09204865 50.74757767
v -44.65120316 104.19052887 49.64177322
v -44.62633133 104.61956787 50.56267929
v -44.62633133 104.61956787 50.56267929
v -44.65120316 104.19052887 49.64177322
v -44.61339188 104.84279633 49.51585007
v -44.62633133 104.61956787 50.56267929
v -44.61339188 104.84279633 49.51585007
v -44.59413528 105.17493439 50.50000000
v -44.59413528 105.17493439 50.50000000
v -44.61339188 104.84279633 49.51585007
v -44.57488251 105.50707245 49.51585007
v -44.59413528 105.17493439 50.50000000
v -44.57488251 105.50707245 49.51585007
v -44.56194305 105.73030853 50.56267929
v -44.56194305 105.73030853 50.56267929
v -44.57488251 105.50707245 49.51585007
v -44.53707123 106.15934753 49.64177322
v -44.56194305 105.73030853 50.56267929
v -44.53707123 106.15934753 49.64177322
v -44.53136063 106.25782776 50.74757767
v -44.53136063 106.25782776 50.74757767
v -44.53707123 106.15934753 49.64177322
v -44.50131989 106.77603912 49.88907623
v -44.53136063 106.25782776 50.74757767
v -44.50131989 106.77603912 49.88907623
v -44.50392914 106.73104858 51.04542160
v -44.50392914 106.73104858 51.04542160
v -44.50131989 106.77603912 49.88907623
v -44.46892548 107.33486938 50.24881363
v -44.50392914 106.73104858 51.04542160
v -44.46892548 107.33486938 50.24881363
v -44.44105530 107.81562805 50.70798874
v -44.50392914 106.73104858 51.04542160
v -44.44105530 107.81562805 50.70798874
v -44.48102188 107.12624359 51.44127655
v -44.48102188 107.12624359 51.44127655
v -44.44105530 107.81562805 50.70798874
v -44.41872025 108.20094299 51.25000000
v -44.48102188 107.12624359 51.44127655
v -44.41872025 108.20094299 51.25000000
v -44.46378326 107.42358398 51.91529083
v -44.46378326 107.42358398 51.91529083
v -44.41872025 108.20094299 51.25000000
v -44.40272141 108.47689819 51.85526276
v -44.46378326 107.42358398 51.91529083
v -44.40272141 108.47689819 51.85526276
v -44.45308304 107.60816956 52.44369888
v -44.45308304 107.60816956 52.44369888
v -44.40272141 108.47689819 51.85526276
v -44.39364243 108.63350677 52.50189972
v -44.45308304 107.60816956 52.44369888
v -44.39364243 108.63350677 52.50189972
v -44.44945526 107.67074585 53.00000000
v -44.44945526 107.67074585 53.00000000
v -44.39364243 108.63350677 52.50189972
v -44.39181137 108.66511536 53.16653824
v -44.44945526 107.67074585 53.00000000
v -44.39181137 108.66511536 53.16653824
v -44.45308304 107.60816956 53.55630112
v -44.45308304 107.60816956 53.55630112
v -44.39181137 108.66511536 53.16653824
v -44.39729309 108.57057953 53.82515717
v -44.45308304 107.60816956 53.55630112
v -44.39729309 108.57057953 53.82515717
v -44.40988541 108.35330963 54.45395279
v -44.45308304 107.60816956 53.55630112
v -44.40988541 108.35330963 54.45395279
v -44.46378326 107.42358398 54.08470917
v -44.46378326 107.42358398 54.08470917
v -44.40988541 108.35330963 54.45395279
v -44.42914200 108.02117157 55.03020096
v -44.46378326 107.42358398 54.08470917
v -44.42914200 108.02117157 55.03020096
v -44.48102188 107.12624359 54.55872345
v -44.48102188 107.12624359 54.55872345
v -44.42914200 108.02117157 55.03020096
v -44.45435715 107.58616638 55.53306961
v -44.48102188 107.12624359 54.55872345
v -44.45435715 107.58616638 55.53306961
v -44.50392914 106.73104858 54.95457840
v -44.50392914 106.73104858 54.95457840
v -44.45435715 107.58616638 55.53306961
v -44.48462677 107.06401062 55.94438553
v -44.50392914 106.73104858 54.95457840
v -44.48462677 107.06401062 55.94438553
v -44.53136063 106.25782776 55.25242233
v -44.53136063 106.25782776 55.25242233
v -44.48462677 107.06401062 55.94438553
v -44.51885605 106.47357941 56.24928665
v -44.53136063 106.25782776 55.25242233
v -44.51885605 106.47357941 56.24928665
v -44.56194305 105.73030853 55.43732071
v -44.56194305 105.73030853 55.43732071
v -44.51885605 106.47357941 56.24928665
v -44.55580521 105.83620453 56.43675232
v -44.56194305 105.73030853 55.43732071
v -44.55580521 105.83620453 56.43675232
v -44.59413528 105.17493439 55.50000000
v -43.63414764 104.45579529 56.43675232
v -44.59413528 105.17493439 56.50000000
v -43.59581375 105.11706543 56.50000000
v -43.59581375 105.11706543 56.50000000
v -44.59413528 105.17493439 56.50000000
v -44.55580521 105.83620453 56.43675232
v -43.59581375 105.11706543 56.50000000
v -44.55580521 105.83620453 56.43675232
v -43.55747986 105.77833557 56.43675232
v -43.55747986 105.77833557 56.43675232
v -44.55580521 105.83620453 56.43675232
v -44.51885605 106.47357941 56.24928665
v -43.55747986 105.77833557 56.43675232
v -44.51885605 106.47357941 56.24928665
v -43.52053070 106.41570282 56.24928665
v -43.52053070 106.41570282 56.24928665
v -44.51885605 106.47357941 56.24928665
v -44.48462677 107.06401062 55.94438553
v -43.52053070 106.41570282 56.24928665
v -44.48462677 107.06401062 55.94438553
v -43.48630524 107.00613403 55.94438553
v -43.48630524 107.00613403 55.94438553
v -44.48462677 107.06401062 55.94438553
v -44.45435715 107.58616638 55.53306961
v -43.48630524 107.00613403 55.94438553
v -44.45435715 107.58616638 55.53306961
v -43.45603561 107.52828979 55.53306961
v -43.45603561 107.52828979 55.53306961
v -44.45435715 107.58616638 55.53306961
v -44.42914200 108.02117157 55.03020096
v -43.45603561 107.52828979 55.53306961
v -44.42914200 108.02117157 55.03020096
v -43.43081665 107.96330261 55.03020096
v -43.43081665 107.96330261 55.03020096
v -44.42914200 108.02117157 55.03020096
v -44.40988541 108.35330963 54.45395279
v -43.43081665 107.96330261 55.03020096
v -44.40988541 108.35330963 54.45395279
v -43.41156387 108.29544067 54.45395279
v -43.41156387 108.29544067 54.45395279
v -44.40988541 108.35330963 54.45395279
v -44.39729309 108.57057953 53.82515717
v -43.41156387 108.29544067 54.45395279
v -44.39729309 108.57057953 53.82515717
v -43.39896774 108.51270294 53.82515717
v -43.39896774 108.51270294 53.82515717
v -44.39729309 108.57057953 53.82515717
v -44.39181137 108.66511536 53.16653824
v -43.39896774 108.51270294 53.82515717
v -44.39181137 108.66511536 53.16653824
v -43.39348602 108.60723877 53.16653824
v -43.39348602 108.60723877 53.16653824
v -44.39181137 108.66511536 53.16653824
v -44.39364243 108.63350677 52.50189972
v -43.39348602 108.60723877 53.16653824
v -44.39364243 108.63350677 52.50189972
v -43.39532089 108.57563019 52.50189972
v -43.39532089 108.57563019 52.50189972
v -44.39364243 108.63350677 52.50189972
v -44.40272141 108.47689819 51.85526276
v -43.39532089 108.57563019 52.50189972
v -44.40272141 108.47689819 51.85526276
v -43.40439987 108.41902161 51.85526276
v -43.40439987 108.41902161 51.85526276
v -44.40272141 108.47689819 51.85526276
v -44.41872025 108.20094299 51.25000000
v -43.40439987 108.41902161 51.85526276
v -44.41872025 108.20094299 51.25000000
v -43.42039490 108.14307404 51.25000000
v -43.42039490 108.14307404 51.25000000
v -44.41872025 108.20094299 51.25000000
v -44.44105530 107.81562805 50.70798874
v -43.42039490 108.14307404 51.25000000
v -44.44105530 107.81562805 50.70798874
v -43.44273376 107.75775146 50.70798874
v -43.44273376 107.75775146 50.70798874
v -44.44105530 107.81562805 50.70798874
v -44.46892548 107.33486938 50.24881363
v -43.44273376 107.75775146 50.70798874
v -44.46892548 107.33486938 50.24881363
v -43.47060394 107.27699280 50.24881363
v -43.47060394 107.27699280 50.24881363
v -44.46892548 107.33486938 50.24881363
v -44.50131989 106.77603912 49.88907623
v -43.47060394 107.27699280 50.24881363
v -44.50131989 106.77603912 49.88907623
v -43.50299835 106.71817017 49.88907623
v -43.50299835 106.71817017 49.88907623
v -44.50131989 106.77603912 49.88907623
v -44.53707123 106.15934753 49.64177322
v -43.50299835 106.71817017 49.88907623
v -44.53707123 106.15934753 49.64177322
v -43.53874588 106.10147858 49.64177322
v -43.53874588 106.10147858 49.64177322
v -44.53707123 106.15934753 49.64177322
v -44.57488251 105.50707245 49.51585007
v -43.53874588 106.10147858 49.64177322
v -44.57488251 105.50707245 49.51585007
v -43.57656097 105.44920349 49.51585007
v -43.57656097 105.44920349 49.51585007
v -44.57488251 105.50707245 49.51585007
v -44.61339188 104.84279633 49.51585007
v -43.57656097 105.44920349 49.51585007
v -44.61339188 104.84279633 49.51585007
v -43.61506653 104.78492737 49.51585007
v -43.61506653 104.78492737 49.51585007
v -44.61339188 104.84279633 49.51585007
v -44.65120316 104.19052887 49.64177322
v -43.61506653 104.78492737 49.51585007
v -44.65120316 104.19052887 49.64177322
v -43.65287781 104.13265228 49.64177322
v -43.65287781 104.13265228 49.64177322
v -44.65120316 104.19052887 49.64177322
v -44.68695450 103.57382965 49.88907623
v -43.65287781 104.13265228 49.64177322
v -44.68695450 103.57382965 49.88907623
v -43.68862915 103.51596069 49.88907623
v -43.68862915 103.51596069 49.88907623
v -44.68695450 103.57382965 49.88907623
v -44.71934891 103.01500702 50.24881363
v -43.68862915 103.51596069 49.88907623
v -44.71934891 103.01500702 50.24881363
v -43.72102356 102.95713806 50.24881363
v -43.72102356 102.95713806 50.24881363
v -44.71934891 103.01500702 50.24881363
v -44.74721909 102.53424835 50.70798874
v -43.72102356 102.95713806 50.24881363
v -44.74721909 102.53424835 50.70798874
v -43.74889374 102.47637177 50.70798874
v -43.74889374 102.47637177 50.70798874
v -44.74721909 102.53424835 50.70798874
v -44.76955414 102.14892578 51.25000000
v -43.74889374 102.47637177 50.70798874
v -44.76955414 102.14892578 51.25000000
v -43.77123260 102.09105682 51.25000000
v -43.77123260 102.09105682 51.25000000
v -44.76955414 102.14892578 51.25000000
v -44.78555298 101.87297821 51.85526276
v -43.77123260 102.09105682 51.25000000
v -44.78555298 101.87297821 51.85526276
v -43.78722763 101.81510162 51.85526276
v -43.78722763 101.81510162 51.85526276
v -44.78555298 101.87297821 51.85526276
v -44.79463196 101.71636963 52.50189972
v -43.78722763 101.81510162 51.85526276
v -44.79463196 101.71636963 52.50189972
v -43.79630661 101.65849304 52.50189972
v -43.79630661 101.65849304 52.50189972
v -44.79463196 101.71636963 52.50189972
v -44.79646301 101.68476105 53.16653824
v -43.79630661 101.65849304 52.50189972
v -44.79646301 101.68476105 53.16653824
v -43.79813766 101.62689209 53.16653824
v -43.79813766 101.62689209 53.16653824
v -44.79646301 101.68476105 53.16653824
v -44.79098129 101.77929688 53.82515717
v -43.79813766 101.62689209 53.16653824
v -44.79098129 101.77929688 53.82515717
v -43.79265976 101.72142792 53.82515717
v -43.79265976 101.72142792 53.82515717
v -44.79098129 101.77929688 53.82515717
v -44.77838898 101.99655914 54.45395279
v -43.79265976 101.72142792 53.82515717
v -44.77838898 101.99655914 54.45395279
v -43.78006363 101.93869019 54.45395279
v -43.78006363 101.93869019 54.45395279
v -44.77838898 101.99655914 54.45395279
v -44.75913239 102.32869720 55.03020096
v -43.78006363 101.93869019 54.45395279
v -44.75913239 102.32869720 55.03020096
v -43.76081085 102.27082825 55.03020096
v -43.76081085 102.27082825 55.03020096
v -44.75913239 102.32869720 55.03020096
v -44.73391724 102.76371002 55.53306961
v -43.76081085 102.27082825 55.03020096
v -44.73391724 102.76371002 55.53306961
v -43.73559189 102.70583344 55.53306961
v -43.73559189 102.70583344 55.53306961
v -44.73391724 102.76371002 55.53306961
v -44.70364761 103.28586578 55.94438553
v -43.73559189 102.70583344 55.53306961
v -44.70364761 103.28586578 55.94438553
v -43.70532227 103.22799683 55.94438553
v -43.70532227 103.22799683 55.94438553
v -44.70364761 103.28586578 55.94438553
v -44.66941833 103.87629700 56.24928665
v -43.70532227 103.22799683 55.94438553
v -44.66941833 103.87629700 56.24928665
v -43.67109680 103.81842804 56.24928665
v -43.67109680 103.81842804 56.24928665
v -44.66941833 103.87629700 56.24928665
v -44.63246918 104.51367188 56.43675232
v -43.67109680 103.81842804 56.24928665
v -44.63246918 104.51367188 56.43675232
v -43.63414764 104.45579529 56.43675232
v -43.63414764 104.45579529 56.43675232
v -44.63246918 104.51367188 56.43675232
v -44.59413528 105.17493439 56.50000000
v -47.62130356 104.79318237 50.56267929
v -44.62633133 104.61956787 50.56267929
v -47.58910751 105.34855652 50.50000000
v -47.58910751 105.34855652 50.50000000
v -44.62633133 104.61956787 50.56267929
v -44.59413528 105.17493439 50.50000000
v -47.58910751 105.34855652 50.50000000
v -44.59413528 105.17493439 50.50000000
v -47.55691528 105.90392303 50.56267929
v -47.55691528 105.90392303 50.56267929
v -44.59413528 105.17493439 50.50000000
v -44.56194305 105.73030853 50.56267929
v -47.55691528 105.90392303 50.56267929
v -44.56194305 105.73030853 50.56267929
v -47.52633286 106.43144989 50.74757767
v -47.52633286 106.43144989 50.74757767
v -44.56194305 105.73030853 50.56267929
v -44.53136063 106.25782776 50.74757767
v -47.52633286 106.43144989 50.74757767
v -44.53136063 106.25782776 50.74757767
v -47.49890137 106.90467072 51.04542160
v -47.49890137 106.90467072 51.04542160
v -44.53136063 106.25782776 50.74757767
v -44.50392914 106.73104858 51.04542160
v -47.49890137 106.90467072 51.04542160
v -44.50392914 106.73104858 51.04542160
v -47.47599030 107.29985809 51.44127655
v -47.47599030 107.29985809 51.44127655
v -44.50392914 106.73104858 51.04542160
v -44.48102188 107.12624359 51.44127655
v -47.47599030 107.29985809 51.44127655
v -44.48102188 107.12624359 51.44127655
v -47.45875549 107.59720612 51.91529083
v -47.45875549 107.59720612 51.91529083
v -44.48102188 107.12624359 51.44127655
v -44.46378326 107.42358398 51.91529083
v -47.45875549 107.59720612 51.91529083
v -44.46378326 107.42358398 51.91529083
v -47.44805527 107.78179169 52.44369888
v -47.44805527 107.78179169 52.44369888
v -44.46378326 107.42358398 51.91529083
v -44.45308304 107.60816956 52.44369888
v -47.44805527 107.78179169 52.44369888
v -44.45308304 107.60816956 52.44369888
v -47.44442749 107.84436798 53.00000000
v -47.44442749 107.84436798 53.00000000
v -44.45308304 107.60816956 52.44369888
v -44.44945526 107.67074585 53.00000000
v -47.44442749 107.84436798 53.00000000
v -44.44945526 107.67074585 53.00000000
v -47.44805527 107.78179169 53.55630112
v -47.44805527 107.78179169 53.55630112
v -44.44945526 107.67074585 53.00000000
v -44.45308304 107.60816956 53.55630112
v -47.44805527 107.78179169 53.55630112
v -44.45308304 107.60816956 53.55630112
v -47.45875549 107.59720612 54.08470917
v -47.45875549 107.59720612 54.08470917
v -44.45308304 107.60816956 53.55630112
v -44.46378326 107.42358398 54.08470917
v -47.45875549 107.59720612 54.08470917
v -44.46378326 107.42358398 54.08470917
v -47.47599030 107.29985809 54.55872345
v -47.47599030 107.29985809 54.55872345
v -44.46378326 107.42358398 54.08470917
v -44.48102188 107.12624359 54.55872345
v -47.47599030 107.29985809 54.55872345
v -44.48102188 107.12624359 54.55872345
v -47.49890137 106.90467072 54.95457840
v -47.49890137 106.90467072 54.95457840
v -44.48102188 107.12624359 54.55872345
v -44.50392914 106.73104858 54.95457840
v -47.49890137 106.90467072 54.95457840
v -44.50392914 106.73104858 54.95457840
v -47.52633286 106.43144989 55.25242233
v -47.52633286 106.43144989 55.25242233
v -44.50392914 106.73104858 54.95457840
v -44.53136063 106.25782776 55.25242233
v -47.52633286 106.43144989 55.25242233
v -44.53136063 106.25782776 55.25242233
v -47.55691528 105.90392303 55.43732071
v -47.55691528 105.90392303 55.43732071
v -44.53136063 106.25782776 55.25242233
v -44.56194305 105.73030853 55.43732071
v -47.55691528 105.90392303 55.43732071
v -44.56194305 105.73030853 55.43732071
v -47.58910751 105.34855652 55.50000000
v -47.58910751 105.34855652 55.50000000
v -44.56194305 105.73030853 55.43732071
v -44.59413528 105.17493439 55.50000000
v -47.58910751 105.34855652 55.50000000
v -44.59413528 105.17493439 55.50000000
v -47.62130356 104.79318237 55.43732071
v -47.62130356 104.79318237 55.43732071
v -44.59413528 105.17493439 55.50000000
v -44.62633133 104.61956787 55.43732071
v -47.62130356 104.79318237 55.43732071
v -44.62633133 104.61956787 55.43732071
v -47.65188599 104.26566315 55.25242233
v -47.65188599 104.26566315 55.25242233
v -44.62633133 104.61956787 55.43732071
v -44.65691376 104.09204865 55.25242233
v -47.65188599 104.26566315 55.25242233
v -44.65691376 104.09204865 55.25242233
v -47.67931747 103.79244232 54.95457840
v -47.67931747 103.79244232 54.95457840
v -44.65691376 104.09204865 55.25242233
v -44.68434525 103.61882782 54.95457840
v -47.67931747 103.79244232 54.95457840
v -44.68434525 103.61882782 54.95457840
v -47.70222473 103.39725494 54.55872345
v -47.70222473 103.39725494 54.55872345
v -44.68434525 103.61882782 54.95457840
v -44.70725250 103.22363281 54.55872345
v -47.70222473 103.39725494 54.55872345
v -44.70725250 103.22363281 54.55872345
v -47.71946335 103.09990692 54.08470917
v -47.71946335 103.09990692 54.08470917
v -44.70725250 103.22363281 54.55872345
v -44.72449112 102.92629242 54.08470917
v -47.71946335 103.09990692 54.08470917
v -44.72449112 102.92629242 54.08470917
v -47.73016357 102.91532135 53.55630112
v -47.73016357 102.91532135 53.55630112
v -44.72449112 102.92629242 54.08470917
v -44.73519135 102.74169922 53.55630112
v -47.73016357 102.91532135 53.55630112
v -44.73519135 102.74169922 53.55630112
v -47.73379135 102.85274506 53.00000000
v -47.73379135 102.85274506 53.00000000
v -44.73519135 102.74169922 53.55630112
v -44.73881912 102.67913055 53.00000000
v -47.73379135 102.85274506 53.00000000
v -44.73881912 102.67913055 53.00000000
v -47.73016357 102.91532135 52.44369888
v -47.73016357 102.91532135 52.44369888
v -44.73881912 102.67913055 53.00000000
v -44.73519135 102.74169922 52.44369888
v -47.73016357 102.91532135 52.44369888
v -44.73519135 102.74169922 52.44369888
v -47.71946335 103.09990692 51.91529083
v -47.71946335 103.09990692 51.91529083
v -44.73519135 102.74169922 52.44369888
v -44.72449112 102.92629242 51.91529083
v -47.71946335 103.09990692 51.91529083
v -44.72449112 102.92629242 51.91529083
v -47.70222473 103.39725494 51.44127655
v -47.70222473 103.39725494 51.44127655
v -44.72449112 102.92629242 51.91529083
v -44.70725250 103.22363281 51.44127655
v -47.70222473 103.39725494 51.44127655
v -44.70725250 103.22363281 51.44127655
v -47.67931747 103.79244232 51.04542160
v -47.67931747 103.79244232 51.04542160
v -44.70725250 103.22363281 51.44127655
v -44.68434525 103.61882782 51.04542160
v -47.67931747 103.79244232 51.04542160
v -44.68434525 103.61882782 51.04542160
v -47.65188599 104.26566315 50.74757767
v -47.65188599 104.26566315 50.74757767
v -44.68434525 103.61882782 51.04542160
v -44.65691376 104.09204865 50.74757767
v -47.65188599 104.26566315 50.74757767
v -44.65691376 104.09204865 50.74757767
v -47.62130356 104.79318237 50.56267929
v -47.62130356 104.79318237 50.56267929
v -44.65691376 104.09204865 50.74757767
v -44.62633133 104.61956787 50.56267929
v -48.29806900 110.39804840 53.00000000
v -43.30644989 110.10868073 53.00000000
v -48.30163193 110.33659363 52.21783066
v -48.30163193 110.33659363 52.21783066
v -43.30644989 110.10868073 53.00000000
v -43.31001282 110.04722595 52.21783066
v -48.30163193 110.33659363 52.21783066
v -43.31001282 110.04722595 52.21783066
v -48.31223297 110.15373993 51.45491791
v -48.31223297 110.15373993 51.45491791
v -43.31001282 110.04722595 52.21783066
v -43.32061005 109.86437988 51.45491791
v -48.31223297 110.15373993 51.45491791
v -43.32061005 109.86437988 51.45491791
v -48.32960892 109.85399628 50.73004913
v -48.32960892 109.85399628 50.73004913
v -43.32061005 109.86437988 51.45491791
v -43.33798981 109.56462860 50.73004913
v -48.32960892 109.85399628 50.73004913
v -43.33798981 109.56462860 50.73004913
v -48.35333252 109.44473267 50.06107330
v -48.35333252 109.44473267 50.06107330
v -43.33798981 109.56462860 50.73004913
v -43.36171341 109.15537262 50.06107330
v -48.35333252 109.44473267 50.06107330
v -43.36171341 109.15537262 50.06107330
v -48.38282013 108.93603516 49.46446609
v -48.38282013 108.93603516 49.46446609
v -43.36171341 109.15537262 50.06107330
v -43.39120102 108.64667511 49.46446609
v -48.38282013 108.93603516 49.46446609
v -43.39120102 108.64667511 49.46446609
v -48.41735077 108.34043121 48.95491791
v -48.41735077 108.34043121 48.95491791
v -43.39120102 108.64667511 49.46446609
v -43.42572784 108.05106354 48.95491791
v -48.41735077 108.34043121 48.95491791
v -43.42572784 108.05106354 48.95491791
v -48.45606613 107.67257690 48.54496765
v -48.45606613 107.67257690 48.54496765
v -43.42572784 108.05106354 48.95491791
v -43.46444321 107.38320923 48.54496765
v -48.45606613 107.67257690 48.54496765
v -43.46444321 107.38320923 48.54496765
v -48.49801636 106.94892120 48.24471664
v -48.49801636 106.94892120 48.24471664
v -43.46444321 107.38320923 48.54496765
v -43.50639343 106.65956116 48.24471664
v -48.49801636 106.94892120 48.24471664
v -43.50639343 106.65956116 48.24471664
v -48.54216766 106.18728638 48.06155777
v -48.54216766 106.18728638 48.06155777
v -43.50639343 106.65956116 48.24471664
v -43.55054855 105.89792633 48.06155777
v -48.54216766 106.18728638 48.06155777
v -43.55054855 105.89792633 48.06155777
v -48.58743286 105.40642548 48.00000000
v -48.58743286 105.40642548 48.00000000
v -43.55054855 105.89792633 48.06155777
v -43.59581375 105.11706543 48.00000000
v -43.59581375 105.11706543 48.00000000
v -43.88517761 100.12544250 48.00000000
v -48.58743286 105.40642548 48.00000000
v -48.58743286 105.40642548 48.00000000
v -43.88517761 100.12544250 48.00000000
v -48.87679672 100.41481018 48.00000000
v -43.55747986 105.77833557 56.43675232
v -43.56361771 105.67243195 140.56268311
v -43.59581375 105.11706543 56.50000000
v -43.59581375 105.11706543 56.50000000
v -43.56361771 105.67243195 140.56268311
v -43.59581375 105.11706543 140.50000000
v -43.59581375 105.11706543 56.50000000
v -43.59581375 105.11706543 140.50000000
v -43.62800980 104.56169128 140.56268311
v -43.56361771 105.67243195 140.56268311
v -43.55747986 105.77833557 56.43675232
v -43.53303909 106.19995880 140.74757385
v -43.53303909 106.19995880 140.74757385
v -43.55747986 105.77833557 56.43675232
v -43.52053070 106.41570282 56.24928665
v -43.53303909 106.19995880 140.74757385
v -43.52053070 106.41570282 56.24928665
v -43.50560379 106.67317963 141.04542542
v -43.50560379 106.67317963 141.04542542
v -43.52053070 106.41570282 56.24928665
v -43.48630524 107.00613403 55.94438553
v -43.50560379 106.67317963 141.04542542
v -43.48630524 107.00613403 55.94438553
v -43.48269653 107.06836700 141.44126892
v -43.48269653 107.06836700 141.44126892
v -43.48630524 107.00613403 55.94438553
v -43.45603561 107.52828979 55.53306961
v -43.48269653 107.06836700 141.44126892
v -43.45603561 107.52828979 55.53306961
v -43.43081665 107.96330261 55.03020096
v -43.41156387 108.29544067 54.45395279
v -43.30644989 110.10868073 53.00000000
v -43.43081665 107.96330261 55.03020096
v -43.43081665 107.96330261 55.03020096
v -43.30644989 110.10868073 53.00000000
v -43.46545792 107.36571503 141.91529846
v -43.43081665 107.96330261 55.03020096
v -43.46545792 107.36571503 141.91529846
v -43.48269653 107.06836700 141.44126892
v -43.41156387 108.29544067 54.45395279
v -43.39896774 108.51270294 53.82515717
v -43.30644989 110.10868073 53.00000000
v -43.30644989 110.10868073 53.00000000
v -43.39896774 108.51270294 53.82515717
v -43.39348602 108.60723877 53.16653824
v -43.30644989 110.10868073 53.00000000
v -43.39348602 108.60723877 53.16653824
v -43.32061005 109.86437988 51.45491791
v -43.32061005 109.86437988 51.45491791
v -43.39348602 108.60723877 53.16653824
v -43.33798981 109.56462860 50.73004913
v -43.33798981 109.56462860 50.73004913
v -43.39348602 108.60723877 53.16653824
v -43.36171341 109.15537262 50.06107330
v -43.36171341 109.15537262 50.06107330
v -43.39348602 108.60723877 53.16653824
v -43.39532089 108.57563019 52.50189972
v -43.36171341 109.15537262 50.06107330
v -43.39532089 108.57563019 52.50189972
v -43.39120102 108.64667511 49.46446609
v -43.39120102 108.64667511 49.46446609
v -43.39532089 108.57563019 52.50189972
v -43.40439987 108.41902161 51.85526276
v -43.39120102 108.64667511 49.46446609
v -43.40439987 108.41902161 51.85526276
v -43.42039490 108.14307404 51.25000000
v -43.39120102 108.64667511 49.46446609
v -43.42039490 108.14307404 51.25000000
v -43.42572784 108.05106354 48.95491791
v -43.42572784 108.05106354 48.95491791
v -43.42039490 108.14307404 51.25000000
v -43.44273376 107.75775146 50.70798874
v -43.42572784 108.05106354 48.95491791
v -43.44273376 107.75775146 50.70798874
v -43.46444321 107.38320923 48.54496765
v -43.46444321 107.38320923 48.54496765
v -43.44273376 107.75775146 50.70798874
v -43.47060394 107.27699280 50.24881363
v -43.46444321 107.38320923 48.54496765
v -43.47060394 107.27699280 50.24881363
v -43.50299835 106.71817017 49.88907623
v -43.46444321 107.38320923 48.54496765
v -43.50299835 106.71817017 49.88907623
v -43.50639343 106.65956116 48.24471664
v -43.50639343 106.65956116 48.24471664
v -43.50299835 106.71817017 49.88907623
v -43.53874588 106.10147858 49.64177322
v -43.50639343 106.65956116 48.24471664
v -43.53874588 106.10147858 49.64177322
v -43.55054855 105.89792633 48.06155777
v -43.55054855 105.89792633 48.06155777
v -43.53874588 106.10147858 49.64177322
v -43.57656097 105.44920349 49.51585007
v -43.55054855 105.89792633 48.06155777
v -43.57656097 105.44920349 49.51585007
v -43.59581375 105.11706543 48.00000000
v -43.59581375 105.11706543 48.00000000
v -43.57656097 105.44920349 49.51585007
v -43.61506653 104.78492737 49.51585007
v -43.59581375 105.11706543 48.00000000
v -43.61506653 104.78492737 49.51585007
v -43.65287781 104.13265228 49.64177322
v -43.65287781 104.13265228 49.64177322
v -43.68862915 103.51596069 49.88907623
v -43.59581375 105.11706543 48.00000000
v -43.59581375 105.11706543 48.00000000
v -43.68862915 103.51596069 49.88907623
v -43.88517761 100.12544250 48.00000000
v -43.88517761 100.12544250 48.00000000
v -43.68862915 103.51596069 49.88907623
v -43.72102356 102.95713806 50.24881363
v -43.88517761 100.12544250 48.00000000
v -43.72102356 102.95713806 50.24881363
v -43.74889374 102.47637177 50.70798874
v -43.74889374 102.47637177 50.70798874
v -43.77123260 102.09105682 51.25000000
v -43.88517761 100.12544250 48.00000000
v -43.88517761 100.12544250 48.00000000
v -43.77123260 102.09105682 51.25000000
v -43.78722763 101.81510162 51.85526276
v -43.88517761 100.12544250 48.00000000
v -43.78722763 101.81510162 51.85526276
v -43.79630661 101.65849304 52.50189972
v -43.79630661 101.65849304 52.50189972
v -43.79813766 101.62689209 53.16653824
v -43.88517761 100.12544250 48.00000000
v -43.88517761 100.12544250 48.00000000
v -43.79813766 101.62689209 53.16653824
v -43.94997406 99.00767517 48.06287766
v -43.94997406 99.00767517 48.06287766
v -43.79813766 101.62689209 53.16653824
v -43.79265976 101.72142792 53.82515717
v -43.94997406 99.00767517 48.06287766
v -43.79265976 101.72142792 53.82515717
v -44.01395798 97.90396118 48.25072098
v -44.01395798 97.90396118 48.25072098
v -43.79265976 101.72142792 53.82515717
v -44.07632065 96.82818604 48.56116867
v -44.07632065 96.82818604 48.56116867
v -43.79265976 101.72142792 53.82515717
v -43.78006363 101.93869019 54.45395279
v -44.07632065 96.82818604 48.56116867
v -43.78006363 101.93869019 54.45395279
v -43.73686600 102.68383026 142.44369507
v -43.73686600 102.68383026 142.44369507
v -43.78006363 101.93869019 54.45395279
v -43.72616577 102.86841583 141.91529846
v -43.72616577 102.86841583 141.91529846
v -43.78006363 101.93869019 54.45395279
v -43.76081085 102.27082825 55.03020096
v -43.72616577 102.86841583 141.91529846
v -43.76081085 102.27082825 55.03020096
v -43.70893097 103.16576385 141.44126892
v -43.70893097 103.16576385 141.44126892
v -43.76081085 102.27082825 55.03020096
v -43.73559189 102.70583344 55.53306961
v -43.70893097 103.16576385 141.44126892
v -43.73559189 102.70583344 55.53306961
v -43.70532227 103.22799683 55.94438553
v -43.70893097 103.16576385 141.44126892
v -43.70532227 103.22799683 55.94438553
v -43.68601990 103.56095123 141.04542542
v -43.68601990 103.56095123 141.04542542
v -43.70532227 103.22799683 55.94438553
v -43.67109680 103.81842804 56.24928665
v -43.68601990 103.56095123 141.04542542
v -43.67109680 103.81842804 56.24928665
v -43.65858841 104.03417206 140.74757385
v -43.65858841 104.03417206 140.74757385
v -43.67109680 103.81842804 56.24928665
v -43.63414764 104.45579529 56.43675232
v -43.65858841 104.03417206 140.74757385
v -43.63414764 104.45579529 56.43675232
v -43.62800980 104.56169128 140.56268311
v -43.62800980 104.56169128 140.56268311
v -43.63414764 104.45579529 56.43675232
v -43.59581375 105.11706543 56.50000000
v -43.73686600 102.68383026 142.44369507
v -43.74049377 102.62125397 143.00000000
v -44.46390533 90.14220428 148.00000000
v -44.46390533 90.14220428 148.00000000
v -43.74049377 102.62125397 143.00000000
v -43.73686600 102.68383026 143.55630493
v -44.46390533 90.14220428 148.00000000
v -43.73686600 102.68383026 143.55630493
v -43.72616577 102.86841583 144.08471680
v -43.72616577 102.86841583 144.08471680
v -43.70893097 103.16576385 144.55873108
v -44.46390533 90.14220428 148.00000000
v -44.46390533 90.14220428 148.00000000
v -43.70893097 103.16576385 144.55873108
v -43.68601990 103.56095123 144.95457458
v -44.46390533 90.14220428 148.00000000
v -43.68601990 103.56095123 144.95457458
v -43.65858841 104.03417206 145.25242615
v -43.65858841 104.03417206 145.25242615
v -43.62800980 104.56169128 145.43731689
v -44.46390533 90.14220428 148.00000000
v -44.46390533 90.14220428 148.00000000
v -43.62800980 104.56169128 145.43731689
v -43.30644989 110.10868073 148.00000000
v -43.30644989 110.10868073 148.00000000
v -43.62800980 104.56169128 145.43731689
v -43.59581375 105.11706543 145.50000000
v -43.30644989 110.10868073 148.00000000
v -43.59581375 105.11706543 145.50000000
v -43.56361771 105.67243195 145.43731689
v -43.56361771 105.67243195 145.43731689
v -43.53303909 106.19995880 145.25242615
v -43.30644989 110.10868073 148.00000000
v -43.30644989 110.10868073 148.00000000
v -43.53303909 106.19995880 145.25242615
v -43.50560379 106.67317963 144.95457458
v -43.30644989 110.10868073 148.00000000
v -43.50560379 106.67317963 144.95457458
v -43.48269653 107.06836700 144.55873108
v -43.48269653 107.06836700 144.55873108
v -43.46545792 107.36571503 144.08471680
v -43.30644989 110.10868073 148.00000000
v -43.30644989 110.10868073 148.00000000
v -43.46545792 107.36571503 144.08471680
v -43.45475769 107.55030060 143.55630493
v -43.30644989 110.10868073 148.00000000
v -43.45475769 107.55030060 143.55630493
v -43.45112991 107.61287689 143.00000000
v -43.45112991 107.61287689 143.00000000
v -43.45475769 107.55030060 142.44369507
v -43.30644989 110.10868073 148.00000000
v -43.30644989 110.10868073 148.00000000
v -43.45475769 107.55030060 142.44369507
v -43.30644989 110.10868073 53.00000000
v -43.30644989 110.10868073 53.00000000
v -43.45475769 107.55030060 142.44369507
v -43.46545792 107.36571503 141.91529846
v -43.32061005 109.86437988 51.45491791
v -43.31001282 110.04722595 52.21783066
v -43.30644989 110.10868073 53.00000000
v -44.46390533 90.14220428 148.00000000
v -44.46390533 90.14220428 58.00000000
v -43.73686600 102.68383026 142.44369507
v -43.73686600 102.68383026 142.44369507
v -44.46390533 90.14220428 58.00000000
v -44.19308090 94.81404114 49.53276062
v -43.73686600 102.68383026 142.44369507
v -44.19308090 94.81404114 49.53276062
v -44.13627625 95.79387665 48.99031067
v -44.46026611 90.20497894 56.88035583
v -44.44939423 90.39250183 55.77479172
v -44.46390533 90.14220428 58.00000000
v -44.46390533 90.14220428 58.00000000
v -44.44939423 90.39250183 55.77479172
v -44.43143082 90.70243073 54.69721222
v -44.46390533 90.14220428 58.00000000
v -44.43143082 90.70243073 54.69721222
v -44.40659332 91.13085938 53.66116333
v -44.40659332 91.13085938 53.66116333
v -44.37520218 91.67239380 52.67967987
v -44.46390533 90.14220428 58.00000000
v -44.46390533 90.14220428 58.00000000
v -44.37520218 91.67239380 52.67967987
v -44.33764648 92.32023621 51.76510239
v -44.46390533 90.14220428 58.00000000
v -44.33764648 92.32023621 51.76510239
v -44.29439926 93.06623077 50.92893219
v -44.29439926 93.06623077 50.92893219
v -44.24600983 93.90099335 50.18168640
v -44.46390533 90.14220428 58.00000000
v -44.46390533 90.14220428 58.00000000
v -44.24600983 93.90099335 50.18168640
v -44.19308090 94.81404114 49.53276062
v -44.13627625 95.79387665 48.99031067
v -44.07632065 96.82818604 48.56116867
v -43.73686600 102.68383026 142.44369507
v -48.87679672 100.41481018 48.00000000
v -43.88517761 100.12544250 48.00000000
v -48.94159317 99.29704285 48.06287766
v -48.94159317 99.29704285 48.06287766
v -43.88517761 100.12544250 48.00000000
v -43.94997406 99.00767517 48.06287766
v -48.94159317 99.29704285 48.06287766
v -43.94997406 99.00767517 48.06287766
v -49.00557709 98.19332886 48.25072098
v -49.00557709 98.19332886 48.25072098
v -43.94997406 99.00767517 48.06287766
v -44.01395798 97.90396118 48.25072098
v -49.00557709 98.19332886 48.25072098
v -44.01395798 97.90396118 48.25072098
v -49.06793976 97.11755371 48.56116867
v -49.06793976 97.11755371 48.56116867
v -44.01395798 97.90396118 48.25072098
v -44.07632065 96.82818604 48.56116867
v -49.06793976 97.11755371 48.56116867
v -44.07632065 96.82818604 48.56116867
v -49.12789917 96.08324432 48.99031067
v -49.12789917 96.08324432 48.99031067
v -44.07632065 96.82818604 48.56116867
v -44.13627625 95.79387665 48.99031067
v -49.12789917 96.08324432 48.99031067
v -44.13627625 95.79387665 48.99031067
v -49.18470001 95.10340118 49.53276062
v -49.18470001 95.10340118 49.53276062
v -44.13627625 95.79387665 48.99031067
v -44.19308090 94.81404114 49.53276062
v -49.18470001 95.10340118 49.53276062
v -44.19308090 94.81404114 49.53276062
v -49.23762894 94.19036102 50.18168640
v -49.23762894 94.19036102 50.18168640
v -44.19308090 94.81404114 49.53276062
v -44.24600983 93.90099335 50.18168640
v -49.23762894 94.19036102 50.18168640
v -44.24600983 93.90099335 50.18168640
v -49.28601837 93.35559082 50.92893219
v -49.28601837 93.35559082 50.92893219
v -44.24600983 93.90099335 50.18168640
v -44.29439926 93.06623077 50.92893219
v -49.28601837 93.35559082 50.92893219
v -44.29439926 93.06623077 50.92893219
v -49.32926559 92.60959625 51.76510239
v -49.32926559 92.60959625 51.76510239
v -44.29439926 93.06623077 50.92893219
v -44.33764648 92.32023621 51.76510239
v -49.32926559 92.60959625 51.76510239
v -44.33764648 92.32023621 51.76510239
v -49.36682129 91.96176147 52.67967987
v -49.36682129 91.96176147 52.67967987
v -44.33764648 92.32023621 51.76510239
v -44.37520218 91.67239380 52.67967987
v -49.36682129 91.96176147 52.67967987
v -44.37520218 91.67239380 52.67967987
v -49.39821243 91.42021942 53.66116333
v -49.39821243 91.42021942 53.66116333
v -44.37520218 91.67239380 52.67967987
v -44.40659332 91.13085938 53.66116333
v -49.39821243 91.42021942 53.66116333
v -44.40659332 91.13085938 53.66116333
v -49.42304993 90.99179840 54.69721222
v -49.42304993 90.99179840 54.69721222
v -44.40659332 91.13085938 53.66116333
v -44.43143082 90.70243073 54.69721222
v -49.42304993 90.99179840 54.69721222
v -44.43143082 90.70243073 54.69721222
v -49.44101715 90.68186951 55.77479172
v -49.44101715 90.68186951 55.77479172
v -44.43143082 90.70243073 54.69721222
v -44.44939423 90.39250183 55.77479172
v -49.44101715 90.68186951 55.77479172
v -44.44939423 90.39250183 55.77479172
v -49.45188522 90.49433899 56.88035583
v -49.45188522 90.49433899 56.88035583
v -44.44939423 90.39250183 55.77479172
v -44.46026611 90.20497894 56.88035583
v -49.45188522 90.49433899 56.88035583
v -44.46026611 90.20497894 56.88035583
v -49.45552444 90.43157196 58.00000000
v -49.45552444 90.43157196 58.00000000
v -44.46026611 90.20497894 56.88035583
v -44.46390533 90.14220428 58.00000000
v -43.73686600 102.68383026 142.44369507
v -48.72848892 102.97319031 142.44369507
v -43.74049377 102.62125397 143.00000000
v -43.74049377 102.62125397 143.00000000
v -48.72848892 102.97319031 142.44369507
v -48.73211670 102.91062164 143.00000000
v -43.74049377 102.62125397 143.00000000
v -48.73211670 102.91062164 143.00000000
v -43.73686600 102.68383026 143.55630493
v -43.73686600 102.68383026 143.55630493
v -48.73211670 102.91062164 143.00000000
v -48.72848892 102.97319031 143.55630493
v -43.73686600 102.68383026 143.55630493
v -48.72848892 102.97319031 143.55630493
v -43.72616577 102.86841583 144.08471680
v -43.72616577 102.86841583 144.08471680
v -48.72848892 102.97319031 143.55630493
v -48.71778870 103.15778351 144.08471680
v -43.72616577 102.86841583 144.08471680
v -48.71778870 103.15778351 144.08471680
v -43.70893097 103.16576385 144.55873108
v -43.70893097 103.16576385 144.55873108
v -48.71778870 103.15778351 144.08471680
v -48.70055008 103.45512390 144.55873108
v -43.70893097 103.16576385 144.55873108
v -48.70055008 103.45512390 144.55873108
v -43.68601990 103.56095123 144.95457458
v -43.68601990 103.56095123 144.95457458
v -48.70055008 103.45512390 144.55873108
v -48.67763901 103.85031891 144.95457458
v -43.68601990 103.56095123 144.95457458
v -48.67763901 103.85031891 144.95457458
v -43.65858841 104.03417206 145.25242615
v -43.65858841 104.03417206 145.25242615
v -48.67763901 103.85031891 144.95457458
v -48.65020752 104.32353973 145.25242615
v -43.65858841 104.03417206 145.25242615
v -48.65020752 104.32353973 145.25242615
v -43.62800980 104.56169128 145.43731689
v -43.62800980 104.56169128 145.43731689
v -48.65020752 104.32353973 145.25242615
v -48.61962891 104.85105896 145.43731689
v -43.62800980 104.56169128 145.43731689
v -48.61962891 104.85105896 145.43731689
v -43.59581375 105.11706543 145.50000000
v -43.59581375 105.11706543 145.50000000
v -48.61962891 104.85105896 145.43731689
v -48.58743286 105.40642548 145.50000000
v -43.59581375 105.11706543 145.50000000
v -48.58743286 105.40642548 145.50000000
v -43.56361771 105.67243195 145.43731689
v -43.56361771 105.67243195 145.43731689
v -48.58743286 105.40642548 145.50000000
v -48.55523682 105.96179962 145.43731689
v -43.56361771 105.67243195 145.43731689
v -48.55523682 105.96179962 145.43731689
v -43.53303909 106.19995880 145.25242615
v -43.53303909 106.19995880 145.25242615
v -48.55523682 105.96179962 145.43731689
v -48.52465820 106.48931885 145.25242615
v -43.53303909 106.19995880 145.25242615
v -48.52465820 106.48931885 145.25242615
v -43.50560379 106.67317963 144.95457458
v -43.50560379 106.67317963 144.95457458
v -48.52465820 106.48931885 145.25242615
v -48.49722672 106.96253967 144.95457458
v -43.50560379 106.67317963 144.95457458
v -48.49722672 106.96253967 144.95457458
v -43.48269653 107.06836700 144.55873108
v -43.48269653 107.06836700 144.55873108
v -48.49722672 106.96253967 144.95457458
v -48.47431564 107.35773468 144.55873108
v -43.48269653 107.06836700 144.55873108
v -48.47431564 107.35773468 144.55873108
v -43.46545792 107.36571503 144.08471680
v -43.46545792 107.36571503 144.08471680
v -48.47431564 107.35773468 144.55873108
v -48.45708084 107.65507507 144.08471680
v -43.46545792 107.36571503 144.08471680
v -48.45708084 107.65507507 144.08471680
v -43.45475769 107.55030060 143.55630493
v -43.45475769 107.55030060 143.55630493
v -48.45708084 107.65507507 144.08471680
v -48.44637680 107.83966064 143.55630493
v -43.45475769 107.55030060 143.55630493
v -48.44637680 107.83966064 143.55630493
v -43.45112991 107.61287689 143.00000000
v -43.45112991 107.61287689 143.00000000
v -48.44637680 107.83966064 143.55630493
v -48.44275284 107.90223694 143.00000000
v -43.45112991 107.61287689 143.00000000
v -48.44275284 107.90223694 143.00000000
v -43.45475769 107.55030060 142.44369507
v -43.45475769 107.55030060 142.44369507
v -48.44275284 107.90223694 143.00000000
v -48.44637680 107.83966064 142.44369507
v -43.45475769 107.55030060 142.44369507
v -48.44637680 107.83966064 142.44369507
v -43.46545792 107.36571503 141.91529846
v -43.46545792 107.36571503 141.91529846
v -48.44637680 107.83966064 142.44369507
v -48.45708084 107.65507507 141.91529846
v -43.46545792 107.36571503 141.91529846
v -48.45708084 107.65507507 141.91529846
v -43.48269653 107.06836700 141.44126892
v -43.48269653 107.06836700 141.44126892
v -48.45708084 107.65507507 141.91529846
v -48.47431564 107.35773468 141.44126892
v -43.48269653 107.06836700 141.44126892
v -48.47431564 107.35773468 141.44126892
v -43.50560379 106.67317963 141.04542542
v -43.50560379 106.67317963 141.04542542
v -48.47431564 107.35773468 141.44126892
v -48.49722672 106.96253967 141.04542542
v -43.50560379 106.67317963 141.04542542
v -48.49722672 106.96253967 141.04542542
v -43.53303909 106.19995880 140.74757385
v -43.53303909 106.19995880 140.74757385
v -48.49722672 106.96253967 141.04542542
v -48.52465820 106.48931885 140.74757385
v -43.53303909 106.19995880 140.74757385
v -48.52465820 106.48931885 140.74757385
v -43.56361771 105.67243195 140.56268311
v -43.56361771 105.67243195 140.56268311
v -48.52465820 106.48931885 140.74757385
v -48.55523682 105.96179962 140.56268311
v -43.56361771 105.67243195 140.56268311
v -48.55523682 105.96179962 140.56268311
v -43.59581375 105.11706543 140.50000000
v -43.59581375 105.11706543 140.50000000
v -48.55523682 105.96179962 140.56268311
v -48.58743286 105.40642548 140.50000000
v -43.59581375 105.11706543 140.50000000
v -48.58743286 105.40642548 140.50000000
v -43.62800980 104.56169128 140.56268311
v -43.62800980 104.56169128 140.56268311
v -48.58743286 105.40642548 140.50000000
v -48.61962891 104.85105896 140.56268311
v -43.62800980 104.56169128 140.56268311
v -48.61962891 104.85105896 140.56268311
v -43.65858841 104.03417206 140.74757385
v -43.65858841 104.03417206 140.74757385
v -48.61962891 104.85105896 140.56268311
v -48.65020752 104.32353973 140.74757385
v -43.65858841 104.03417206 140.74757385
v -48.65020752 104.32353973 140.74757385
v -43.68601990 103.56095123 141.04542542
v -43.68601990 103.56095123 141.04542542
v -48.65020752 104.32353973 140.74757385
v -48.67763901 103.85031891 141.04542542
v -43.68601990 103.56095123 141.04542542
v -48.67763901 103.85031891 141.04542542
v -43.70893097 103.16576385 141.44126892
v -43.70893097 103.16576385 141.44126892
v -48.67763901 103.85031891 141.04542542
v -48.70055008 103.45512390 141.44126892
v -43.70893097 103.16576385 141.44126892
v -48.70055008 103.45512390 141.44126892
v -43.72616577 102.86841583 141.91529846
v -43.72616577 102.86841583 141.91529846
v -48.70055008 103.45512390 141.44126892
v -48.71778870 103.15778351 141.91529846
v -43.72616577 102.86841583 141.91529846
v -48.71778870 103.15778351 141.91529846
v -43.73686600 102.68383026 142.44369507
v -43.73686600 102.68383026 142.44369507
v -48.71778870 103.15778351 141.91529846
v -48.72848892 102.97319031 142.44369507
v -44.46390533 90.14220428 58.00000000
v -44.46390533 90.14220428 148.00000000
v -49.45552444 90.43157196 58.00000000
v -49.45552444 90.43157196 58.00000000
v -44.46390533 90.14220428 148.00000000
v -49.45552444 90.43157196 148.00000000
v -48.29806900 110.39804840 148.00000000
v -49.45552444 90.43157196 148.00000000
v -43.30644989 110.10868073 148.00000000
v -43.30644989 110.10868073 148.00000000
v -49.45552444 90.43157196 148.00000000
v -44.46390533 90.14220428 148.00000000
v -48.29806900 110.39804840 53.00000000
v -48.29806900 110.39804840 148.00000000
v -43.30644989 110.10868073 53.00000000
v -43.30644989 110.10868073 53.00000000
v -48.29806900 110.39804840 148.00000000
v -43.30644989 110.10868073 148.00000000
v -48.62576675 104.74516296 56.43675232
v -48.61962891 104.85105896 140.56268311
v -48.58743286 105.40642548 56.50000000
v -48.58743286 105.40642548 56.50000000
v -48.61962891 104.85105896 140.56268311
v -48.58743286 105.40642548 140.50000000
v -48.58743286 105.40642548 56.50000000
v -48.58743286 105.40642548 140.50000000
v -48.55523682 105.96179962 140.56268311
v -48.61962891 104.85105896 140.56268311
v -48.62576675 104.74516296 56.43675232
v -48.65020752 104.32353973 140.74757385
v -48.65020752 104.32353973 140.74757385
v -48.62576675 104.74516296 56.43675232
v -48.66271591 104.10778809 56.24929047
v -48.65020752 104.32353973 140.74757385
v -48.66271591 104.10778809 56.24929047
v -48.67763901 103.85031891 141.04542542
v -48.67763901 103.85031891 141.04542542
v -48.66271591 104.10778809 56.24929047
v -48.69694138 103.51735687 55.94438934
v -48.67763901 103.85031891 141.04542542
v -48.69694138 103.51735687 55.94438934
v -48.70055008 103.45512390 141.44126892
v -48.70055008 103.45512390 141.44126892
v -48.69694138 103.51735687 55.94438934
v -48.72721100 102.99520111 55.53306961
v -48.70055008 103.45512390 141.44126892
v -48.72721100 102.99520111 55.53306961
v -48.75242996 102.56018829 55.03020096
v -48.70055008 103.45512390 141.44126892
v -48.75242996 102.56018829 55.03020096
v -48.71778870 103.15778351 141.91529846
v -48.71778870 103.15778351 141.91529846
v -48.75242996 102.56018829 55.03020096
v -48.77168274 102.22805023 54.45395279
v -48.71778870 103.15778351 141.91529846
v -48.77168274 102.22805023 54.45395279
v -48.72848892 102.97319031 142.44369507
v -48.72848892 102.97319031 142.44369507
v -48.77168274 102.22805023 54.45395279
v -49.06793976 97.11755371 48.56116867
v -48.72848892 102.97319031 142.44369507
v -49.06793976 97.11755371 48.56116867
v -49.12789917 96.08324432 48.99031067
v -48.77168274 102.22805023 54.45395279
v -48.78427887 102.01078796 53.82515717
v -49.06793976 97.11755371 48.56116867
v -49.06793976 97.11755371 48.56116867
v -48.78427887 102.01078796 53.82515717
v -49.00557709 98.19332886 48.25072098
v -49.00557709 98.19332886 48.25072098
v -48.78427887 102.01078796 53.82515717
v -48.94159317 99.29704285 48.06287766
v -48.94159317 99.29704285 48.06287766
v -48.78427887 102.01078796 53.82515717
v -48.78975677 101.91625214 53.16653824
v -48.94159317 99.29704285 48.06287766
v -48.78975677 101.91625214 53.16653824
v -48.87679672 100.41481018 48.00000000
v -48.87679672 100.41481018 48.00000000
v -48.78975677 101.91625214 53.16653824
v -48.78792572 101.94786072 52.50189972
v -48.87679672 100.41481018 48.00000000
v -48.78792572 101.94786072 52.50189972
v -48.77884674 102.10446930 51.85526276
v -48.77884674 102.10446930 51.85526276
v -48.76285172 102.38041687 51.25000000
v -48.87679672 100.41481018 48.00000000
v -48.87679672 100.41481018 48.00000000
v -48.76285172 102.38041687 51.25000000
v -48.74051285 102.76573944 50.70798874
v -48.87679672 100.41481018 48.00000000
v -48.74051285 102.76573944 50.70798874
v -48.71264267 103.24649811 50.24881363
v -48.71264267 103.24649811 50.24881363
v -48.68024826 103.80532074 49.88907623
v -48.87679672 100.41481018 48.00000000
v -48.87679672 100.41481018 48.00000000
v -48.68024826 103.80532074 49.88907623
v -48.58743286 105.40642548 48.00000000
v -48.58743286 105.40642548 48.00000000
v -48.68024826 103.80532074 49.88907623
v -48.64450073 104.42201996 49.64177704
v -48.58743286 105.40642548 48.00000000
v -48.64450073 104.42201996 49.64177704
v -48.60668564 105.07428741 49.51585007
v -48.60668564 105.07428741 49.51585007
v -48.56818008 105.73856354 49.51585007
v -48.58743286 105.40642548 48.00000000
v -48.58743286 105.40642548 48.00000000
v -48.56818008 105.73856354 49.51585007
v -48.54216766 106.18728638 48.06155777
v -48.54216766 106.18728638 48.06155777
v -48.56818008 105.73856354 49.51585007
v -48.53036499 106.39083862 49.64177704
v -48.54216766 106.18728638 48.06155777
v -48.53036499 106.39083862 49.64177704
v -48.49801636 106.94892120 48.24471664
v -48.49801636 106.94892120 48.24471664
v -48.53036499 106.39083862 49.64177704
v -48.49461746 107.00753021 49.88907623
v -48.49801636 106.94892120 48.24471664
v -48.49461746 107.00753021 49.88907623
v -48.45606613 107.67257690 48.54496765
v -48.45606613 107.67257690 48.54496765
v -48.49461746 107.00753021 49.88907623
v -48.46222305 107.56636047 50.24881363
v -48.45606613 107.67257690 48.54496765
v -48.46222305 107.56636047 50.24881363
v -48.43435287 108.04711914 50.70798874
v -48.45606613 107.67257690 48.54496765
v -48.43435287 108.04711914 50.70798874
v -48.41735077 108.34043121 48.95491791
v -48.41735077 108.34043121 48.95491791
v -48.43435287 108.04711914 50.70798874
v -48.41201401 108.43243408 51.25000000
v -48.41735077 108.34043121 48.95491791
v -48.41201401 108.43243408 51.25000000
v -48.38282013 108.93603516 49.46446609
v -48.38282013 108.93603516 49.46446609
v -48.41201401 108.43243408 51.25000000
v -48.39601898 108.70838928 51.85526276
v -48.38282013 108.93603516 49.46446609
v -48.39601898 108.70838928 51.85526276
v -48.38694000 108.86499786 52.50189972
v -48.38282013 108.93603516 49.46446609
v -48.38694000 108.86499786 52.50189972
v -48.35333252 109.44473267 50.06107330
v -48.35333252 109.44473267 50.06107330
v -48.38694000 108.86499786 52.50189972
v -48.38510895 108.89660645 53.16653824
v -48.35333252 109.44473267 50.06107330
v -48.38510895 108.89660645 53.16653824
v -48.32960892 109.85399628 50.73004913
v -48.32960892 109.85399628 50.73004913
v -48.38510895 108.89660645 53.16653824
v -48.31223297 110.15373993 51.45491791
v -48.31223297 110.15373993 51.45491791
v -48.38510895 108.89660645 53.16653824
v -48.29806900 110.39804840 53.00000000
v -48.31223297 110.15373993 51.45491791
v -48.29806900 110.39804840 53.00000000
v -48.30163193 110.33659363 52.21783066
v -48.38510895 108.89660645 53.16653824
v -48.39058685 108.80207062 53.82515717
v -48.29806900 110.39804840 53.00000000
v -48.29806900 110.39804840 53.00000000
v -48.39058685 108.80207062 53.82515717
v -48.40318298 108.58480072 54.45395279
v -48.29806900 110.39804840 53.00000000
v -48.40318298 108.58480072 54.45395279
v -48.42243576 108.25266266 55.03020096
v -48.44765472 107.81765747 55.53306961
v -48.47431564 107.35773468 141.44126892
v -48.42243576 108.25266266 55.03020096
v -48.42243576 108.25266266 55.03020096
v -48.47431564 107.35773468 141.44126892
v -48.45708084 107.65507507 141.91529846
v -48.42243576 108.25266266 55.03020096
v -48.45708084 107.65507507 141.91529846
v -48.29806900 110.39804840 53.00000000
v -48.29806900 110.39804840 53.00000000
v -48.45708084 107.65507507 141.91529846
v -48.44637680 107.83966064 142.44369507
v -48.29806900 110.39804840 53.00000000
v -48.44637680 107.83966064 142.44369507
v -48.29806900 110.39804840 148.00000000
v -48.29806900 110.39804840 148.00000000
v -48.44637680 107.83966064 142.44369507
v -48.44275284 107.90223694 143.00000000
v -48.29806900 110.39804840 148.00000000
v -48.44275284 107.90223694 143.00000000
v -48.44637680 107.83966064 143.55630493
v -48.44765472 107.81765747 55.53306961
v -48.47792435 107.29550171 55.94438934
v -48.47431564 107.35773468 141.44126892
v -48.47431564 107.35773468 141.44126892
v -48.47792435 107.29550171 55.94438934
v -48.49722672 106.96253967 141.04542542
v -48.49722672 106.96253967 141.04542542
v -48.47792435 107.29550171 55.94438934
v -48.51214981 106.70507050 56.24929047
v -48.49722672 106.96253967 141.04542542
v -48.51214981 106.70507050 56.24929047
v -48.52465820 106.48931885 140.74757385
v -48.52465820 106.48931885 140.74757385
v -48.51214981 106.70507050 56.24929047
v -48.54909897 106.06769562 56.43675232
v -48.52465820 106.48931885 140.74757385
v -48.54909897 106.06769562 56.43675232
v -48.55523682 105.96179962 140.56268311
v -48.55523682 105.96179962 140.56268311
v -48.54909897 106.06769562 56.43675232
v -48.58743286 105.40642548 56.50000000
v -49.12789917 96.08324432 48.99031067
v -49.18470001 95.10340118 49.53276062
v -48.72848892 102.97319031 142.44369507
v -48.72848892 102.97319031 142.44369507
v -49.18470001 95.10340118 49.53276062
v -49.45552444 90.43157196 58.00000000
v -48.72848892 102.97319031 142.44369507
v -49.45552444 90.43157196 58.00000000
v -49.45552444 90.43157196 148.00000000
v -49.18470001 95.10340118 49.53276062
v -49.23762894 94.19036102 50.18168640
v -49.45552444 90.43157196 58.00000000
v -49.45552444 90.43157196 58.00000000
v -49.23762894 94.19036102 50.18168640
v -49.28601837 93.35559082 50.92893219
v -49.45552444 90.43157196 58.00000000
v -49.28601837 93.35559082 50.92893219
v -49.32926559 92.60959625 51.76510239
v -49.32926559 92.60959625 51.76510239
v -49.36682129 91.96176147 52.67967987
v -49.45552444 90.43157196 58.00000000
v -49.45552444 90.43157196 58.00000000
v -49.36682129 91.96176147 52.67967987
v -49.39821243 91.42021942 53.66116333
v -49.45552444 90.43157196 58.00000000
v -49.39821243 91.42021942 53.66116333
v -49.42304993 90.99179840 54.69721222
v -49.42304993 90.99179840 54.69721222
v -49.44101715 90.68186951 55.77479172
v -49.45552444 90.43157196 58.00000000
v -49.45552444 90.43157196 58.00000000
v -49.44101715 90.68186951 55.77479172
v -49.45188522 90.49433899 56.88035583
v -48.29806900 110.39804840 148.00000000
v -48.61962891 104.85105896 145.43731689
v -49.45552444 90.43157196 148.00000000
v -49.45552444 90.43157196 148.00000000
v -48.61962891 104.85105896 145.43731689
v -48.65020752 104.32353973 145.25242615
v -49.45552444 90.43157196 148.00000000
v -48.65020752 104.32353973 145.25242615
v -48.67763901 103.85031891 144.95457458
v -48.72848892 102.97319031 143.55630493
v -48.73211670 102.91062164 143.00000000
v -49.45552444 90.43157196 148.00000000
v -49.45552444 90.43157196 148.00000000
v -48.73211670 102.91062164 143.00000000
v -48.72848892 102.97319031 142.44369507
v -48.44637680 107.83966064 143.55630493
v -48.45708084 107.65507507 144.08471680
v -48.29806900 110.39804840 148.00000000
v -48.29806900 110.39804840 148.00000000
v -48.45708084 107.65507507 144.08471680
v -48.47431564 107.35773468 144.55873108
v -48.29806900 110.39804840 148.00000000
v -48.47431564 107.35773468 144.55873108
v -48.49722672 106.96253967 144.95457458
v -48.49722672 106.96253967 144.95457458
v -48.52465820 106.48931885 145.25242615
v -48.29806900 110.39804840 148.00000000
v -48.29806900 110.39804840 148.00000000
v -48.52465820 106.48931885 145.25242615
v -48.55523682 105.96179962 145.43731689
v -48.29806900 110.39804840 148.00000000
v -48.55523682 105.96179962 145.43731689
v -48.58743286 105.40642548 145.50000000
v -48.58743286 105.40642548 145.50000000
v -48.61962891 104.85105896 145.43731689
v -48.29806900 110.39804840 148.00000000
v -48.67763901 103.85031891 144.95457458
v -48.70055008 103.45512390 144.55873108
v -49.45552444 90.43157196 148.00000000
v -49.45552444 90.43157196 148.00000000
v -48.70055008 103.45512390 144.55873108
v -48.71778870 103.15778351 144.08471680
v -49.45552444 90.43157196 148.00000000
v -48.71778870 103.15778351 144.08471680
v -48.72848892 102.97319031 143.55630493
f 1 2 3
f 4 5 6
f 7 8 9
f 10 11 12
f 13 14 15
f 16 17 18
f 19 20 21
f 22 23 24
f 25 26 27
f 28 29 30
f 31 32 33
f 34 35 36
f 37 38 39
f 40 41 42
f 43 44 45
f 46 47 48
f 49 50 51
f 52 53 54
f 55 56 57
f 58 59 60
f 61 62 63
f 64 65 66
f 67 68 69
f 70 71 72
f 73 74 75
f 76 77 78
f 79 80 81
f 82 83 84
f 85 86 87
f 88 89 90
f 91 92 93
f 94 95 96
f 97 98 99
f 100 101 102
f 103 104 105
f 106 107 108
f 109 110 111
f 112 113 114
f 115 116 117
f 118 119 120
f 121 122 123
f 124 125 126
f 127 128 129
f 130 131 132
f 133 134 135
f 136 137 138
f 139 140 141
f 142 143 144
f 145 146 147
f 148 149 150
f 151 152 153
f 154 155 156
f 157 158 159
f 160 161 162
f 163 164 165
f 166 167 168
f 169 170 171
f 172 173 174
f 175 176 177
f 178 179 180
f 181 182 183
f 184 185 186
f 187 188 189
f 190 191 192
f 193 194 195
f 196 197 198
f 199 200 201
f 202 203 204
f 205 206 207
f 208 209 210
f 211 212 213
f 214 215 216
f 217 218 219
f 220 221 222
f 223 224 225
f 226 227 228
f 229 230 231
f 232 233 234
f 235 236 237
f 238 239 240
f 241 242 243
f 244 245 246
f 247 248 249
f 250 251 252
f 253 254 255
f 256 257 258
f 259 260 261
f 262 263 264
f 265 266 267
f 268 269 270
f 271 272 273
f 274 275 276
f 277 278 279
f 280 281 282
f 283 284 285
f 286 287 288
f 289 290 291
f 292 293 294
f 295 296 297
f 298 299 300
f 301 302 303
f 304 305 306
f 307 308 309
f 310 311 312
f 313 314 315
f 316 317 318
f 319 320 321
f 322 323 324
f 325 326 327
f 328 329 330
f 331 332 333
f 334 335 336
f 337 338 339
f 340 341 342
f 343 344 345
f 346 347 348
f 349 350 351
f 352 353 354
f 355 356 357
f 358 359 360
f 361 362 363
f 364 365 366
f 367 368 369
f 370 371 372
f 373 374 375
f 376 377 378
f 379 380 381
f 382 383 384
f 385 386 387
f 388 389 390
f 391 392 393
f 394 395 396
f 397 398 399
f 400 401 402
f 403 404 405
f 406 407 408
f 409 410 411
f 412 413 414
f 415 416 417
f 418 419 420
f 421 422 423
f 424 425 426
f 427 428 429
f 430 431 432
f 433 434 435
f 436 437 438
f 439 440 441
f 442 443 444
f 445 446 447
f 448 449 450
f 451 452 453
f 454 455 456
f 457 458 459
f 460 461 462
f 463 464 465
f 466 467 468
f 469 470 471
f 472 473 474
f 475 476 477
f 478 479 480
f 481 482 483
f 484 485 486
f 487 488 489
f 490 491 492
f 493 494 495
f 496 497 498
f 499 500 501
f 502 503 504
f 505 506 507
f 508 509 510
f 511 512 513
f 514 515 516
f 517 518 519
f 520 521 522
f 523 524 525
f 526 527 528
f 529 530 531
f 532 533 534
f 535 536 537
f 538 539 540
f 541 542 543
f 544 545 546
f 547 548 549
f 550 551 552
f 553 554 555
f 556 557 558
f 559 560 561
f 562 563 564
f 565 566 567
f 568 569 570
f 571 572 573
f 574 575 576
f 577 578 579
f 580 581 582
f 583 584 585
f 586 587 588
f 589 590 591
f 592 593 594
f 595 596 597
f 598 599 600
f 601 602 603
f 604 605 606
f 607 608 609
f 610 611 612
f 613 614 615
f 616 617 618
f 619 620 621
f 622 623 624
f 625 626 627
f 628 629 630
f 631 632 633
f 634 635 636
f 637 638 639
f 640 641 642
f 643 644 645
f 646 647 648
f 649 650 651
f 652 653 654
f 655 656 657
f 658 659 660
f 661 662 663
f 664 665 666
f 667 668 669
f 670 671 672
f 673 674 675
f 676 677 678
f 679 680 681
f 682 683 684
f 685 686 687
f 688 689 690
f 691 692 693
f 694 695 696
f 697 698 699
f 700 701 702
f 703 704 705
f 706 707 708
f 709 710 711
f 712 713 714
f 715 716 717
f 718 719 720
f 721 722 723
f 724 725 726
f 727 728 729
f 730 731 732
f 733 734 735
f 736 737 738
f 739 740 741
f 742 743 744
f 745 746 747
f 748 749 750
f 751 752 753
f 754 755 756
f 757 758 759
f 760 761 762
f 763 764 765
f 766 767 768
f 769 770 771
f 772 773 774
f 775 776 777
f 778 779 780
f 781 782 783
f 784 785 786
f 787 788 789
f 790 791 792
f 793 794 795
f 796 797 798
f 799 800 801
f 802 803 804
f 805 806 807
f 808 809 810
f 811 812 813
f 814 815 816
f 817 818 819
f 820 821 822
f 823 824 825
f 826 827 828
f 829 830 831
f 832 833 834
f 835 836 837
f 838 839 840
f 841 842 843
f 844 845 846
f 847 848 849
f 850 851 852
f 853 854 855
f 856 857 858
f 859 860 861
f 862 863 864
f 865 866 867
f 868 869 870
f 871 872 873
f 874 875 876
f 877 878 879
f 880 881 882
f 883 884 885
f 886 887 888
f 889 890 891
f 892 893 894
f 895 896 897
f 898 899 900
f 901 902 903
f 904 905 906
f 907 908 909
f 910 911 912
f 913 914 915
f 916 917 918
f 919 920 921
f 922 923 924
f 925 926 927
f 928 929 930
f 931 932 933
f 934 935 936
f 937 938 939
f 940 941 942
f 943 944 945
f 946 947 948
f 949 950 951
f 952 953 954
f 955 956 957
f 958 959 960
f 961 962 963
f 964 965 966
f 967 968 969
f 970 971 972
f 973 974 975
f 976 977 978
f 979 980 981
f 982 983 984
f 985 986 987
f 988 989 990
f 991 992 993
f 994 995 996
f 997 998 999
f 1000 1001 1002
f 1003 1004 1005
f 1006 1007 1008
f 1009 1010 1011
f 1012 1013 1014
f 1015 1016 1017
f 1018 1019 1020
f 1021 1022 1023
f 1024 1025 1026
f 1027 1028 1029
f 1030 1031 1032
f 1033 1034 1035
f 1036 1037 1038
f 1039 1040 1041
f 1042 1043 1044
f 1045 1046 1047
f 1048 1049 1050
f 1051 1052 1053
f 1054 1055 1056
f 1057 1058 1059
f 1060 1061 1062
f 1063 1064 1065
f 1066 1067 1068
f 1069 1070 1071
f 1072 1073 1074
f 1075 1076 1077
f 1078 1079 1080
f 1081 1082 1083
f 1084 1085 1086
f 1087 1088 1089
f 1090 1091 1092
f 1093 1094 1095
f 1096 1097 1098
f 1099 1100 1101
f 1102 1103 1104
f 1105 1106 1107
f 1108 1109 1110
f 1111 1112 1113
f 1114 1115 1116
f 1117 1118 1119
f 1120 1121 1122
f 1123 1124 1125
f 1126 1127 1128
f 1129 1130 1131
f 1132 1133 1134
f 1135 1136 1137
f 1138 1139 1140
f 1141 1142 1143
f 1144 1145 1146
f 1147 1148 1149
f 1150 1151 1152
f 1153 1154 1155
f 1156 1157 1158
f 1159 1160 1161
f 1162 1163 1164
f 1165 1166 1167
f 1168 1169 1170
f 1171 1172 1173
f 1174 1175 1176
f 1177 1178 1179
f 1180 1181 1182
f 1183 1184 1185
f 1186 1187 1188
f 1189 1190 1191
f 1192 1193 1194
f 1195 1196 1197
f 1198 1199 1200
f 1201 1202 1203
f 1204 1205 1206
f 1207 1208 1209
f 1210 1211 1212
f 1213 1214 1215
f 1216 1217 1218
f 1219 1220 1221
f 1222 1223 1224
f 1225 1226 1227
f 1228 1229 1230
f 1231 1232 1233
f 1234 1235 1236
f 1237 1238 1239
f 1240 1241 1242
f 1243 1244 1245
f 1246 1247 1248
f 1249 1250 1251
f 1252 1253 1254
f 1255 1256 1257
f 1258 1259 1260
f 1261 1262 1263
f 1264 1265 1266
f 1267 1268 1269
f 1270 1271 1272
f 1273 1274 1275
f 1276 1277 1278
f 1279 1280 1281
f 1282 1283 1284
f 1285 1286 1287
f 1288 1289 1290
f 1291 1292 1293
f 1294 1295 1296
f 1297 1298 1299
f 1300 1301 1302
f 1303 1304 1305
f 1306 1307 1308
f 1309 1310 1311
f 1312 1313 1314
f 1315 1316 1317
f 1318 1319 1320
f 1321 1322 1323
f 1324 1325 1326
f 1327 1328 1329
f 1330 1331 1332
f 1333 1334 1335
f 1336 1337 1338
f 1339 1340 1341
f 1342 1343 1344
f 1345 1346 1347
f 1348 1349 1350
f 1351 1352 1353
f 1354 1355 1356
f 1357 1358 1359
f 1360 1361 1362
f 1363 1364 1365
f 1366 1367 1368
f 1369 1370 1371
f 1372 1373 1374
f 1375 1376 1377
f 1378 1379 1380
f 1381 1382 1383
f 1384 1385 1386
f 1387 1388 1389
f 1390 1391 1392
f 1393 1394 1395
f 1396 1397 1398
f 1399 1400 1401
f 1402 1403 1404
f 1405 1406 1407
f 1408 1409 1410
f 1411 1412 1413
f 1414 1415 1416
f 1417 1418 1419
f 1420 1421 1422
f 1423 1424 1425
f 1426 1427 1428
f 1429 1430 1431
f 1432 1433 1434
f 1435 1436 1437
f 1438 1439 1440
f 1441 1442 1443
f 1444 1445 1446
f 1447 1448 1449
f 1450 1451 1452
f 1453 1454 1455
f 1456 1457 1458
f 1459 1460 1461
f 1462 1463 1464
f 1465 1466 1467
f 1468 1469 1470
f 1471 1472 1473
f 1474 1475 1476
f 1477 1478 1479
f 1480 1481 1482
f 1483 1484 1485
f 1486 1487 1488
f 1489 1490 1491
f 1492 1493 1494
f 1495 1496 1497
f 1498 1499 1500
f 1501 1502 1503
f 1504 1505 1506
f 1507 1508 1509
f 1510 1511 1512
f 1513 1514 1515
f 1516 1517 1518
f 1519 1520 1521
f 1522 1523 1524
f 1525 1526 1527
f 1528 1529 1530
f 1531 1532 1533
f 1534 1535 1536
f 1537 1538 1539
f 1540 1541 1542
f 1543 1544 1545
f 1546 1547 1548
f 1549 1550 1551
f 1552 1553 1554
f 1555 1556 1557
f 1558 1559 1560
f 1561 1562 1563
f 1564 1565 1566
f 1567 1568 1569
f 1570 1571 1572
f 1573 1574 1575
f 1576 1577 1578
f 1579 1580 1581
f 1582 1583 1584
f 1585 1586 1587
f 1588 1589 1590
f 1591 1592 1593
f 1594 1595 1596
f 1597 1598 1599
f 1600 1601 1602
f 1603 1604 1605
f 1606 1607 1608
f 1609 1610 1611
f 1612 1613 1614
f 1615 1616 1617
f 1618 1619 1620
f 1621 1622 1623
f 1624 1625 1626
f 1627 1628 1629
f 1630 1631 1632
f 1633 1634 1635
f 1636 1637 1638
f 1639 1640 1641
f 1642 1643 1644
f 1645 1646 1647
f 1648 1649 1650
f 1651 1652 1653
f 1654 1655 1656
f 1657 1658 1659
f 1660 1661 1662
f 1663 1664 1665
f 1666 1667 1668
f 1669 1670 1671
f 1672 1673 1674
f 1675 1676 1677
f 1678 1679 1680
f 1681 1682 1683
f 1684 1685 1686
f 1687 1688 1689
f 1690 1691 1692
f 1693 1694 1695
f 1696 1697 1698
f 1699 1700 1701
f 1702 1703 1704
f 1705 1706 1707
f 1708 1709 1710
f 1711 1712 1713
f 1714 1715 1716
f 1717 1718 1719
f 1720 1721 1722
f 1723 1724 1725
f 1726 1727 1728
f 1729 1730 1731
f 1732 1733 1734
f 1735 1736 1737
f 1738 1739 1740
f 1741 1742 1743
f 1744 1745 1746
f 1747 1748 1749
f 1750 1751 1752
f 1753 1754 1755
f 1756 1757 1758
f 1759 1760 1761
f 1762 1763 1764
f 1765 1766 1767
f 1768 1769 1770
f 1771 1772 1773
f 1774 1775 1776
f 1777 1778 1779
f 1780 1781 1782
f 1783 1784 1785
f 1786 1787 1788
f 1789 1790 1791
f 1792 1793 1794
f 1795 1796 1797
f 1798 1799 1800
f 1801 1802 1803
f 1804 1805 1806
f 1807 1808 1809
f 1810 1811 1812

