42  3  0  0
   0    -0.0024000000953674316  -0.0024000000953674316  -0.0012000000476837158
   1    -0.0024000000953674316  0.0024000000953674316  -0.0012000000476837158
   2    -0.0024000000953674316  -0.0024000000953674316  -0.002
   3    0.0024000000953674316  -0.0024000000953674316  -0.002
   4    -0.0024000000953674316  0.0024000000953674316  -0.002
   5    0.0024000000953674316  0.0024000000953674316  -0.0012000000476837158
   6    0.0024000000953674316  -0.0024000000953674316  -0.0012000000476837158
   7    0.0024000000953674316  0.0024000000953674316  -0.002
   8    -0.0036660604476928711  -0.0036660604476928711  -0.00040000000596046451
   9    -0.0036660604476928711  0.0036660604476928711  -0.00040000000596046451
  10    -0.0036660604476928711  -0.0036660604476928711  -0.0012000000476837158
  11    0.0036660604476928711  -0.0036660604476928711  -0.0012000000476837158
  12    -0.0036660604476928711  0.0036660604476928711  -0.0012000000476837158
  13    0.0036660604476928711  0.0036660604476928711  -0.00040000000596046451
  14    0.0036660604476928711  -0.0036660604476928711  -0.00040000000596046451
  15    0.0036660604476928711  0.0036660604476928711  -0.0012000000476837158
  16    -0.0040000000000000001  -0.0040000000000000001  0.00040000000596046451
  17    -0.0040000000000000001  0.0040000000000000001  0.00040000000596046451
  18    -0.0040000000000000001  -0.0040000000000000001  -0.00040000000596046451
  19    0.0040000000000000001  -0.0040000000000000001  -0.00040000000596046451
  20    -0.0040000000000000001  0.0040000000000000001  -0.00040000000596046451
  21    0.0040000000000000001  0.0040000000000000001  0.00040000000596046451
  22    0.0040000000000000001  -0.0040000000000000001  0.00040000000596046451
  23    0.0040000000000000001  0.0040000000000000001  -0.00040000000596046451
  24    -0.0036660604476928711  -0.0036660604476928711  0.0012000000476837158
  25    -0.0036660604476928711  0.0036660604476928711  0.0012000000476837158
  26    -0.0036660604476928711  -0.0036660604476928711  0.00040000000596046451
  27    0.0036660604476928711  -0.0036660604476928711  0.00040000000596046451
  28    -0.0036660604476928711  0.0036660604476928711  0.00040000000596046451
  29    0.0036660604476928711  0.0036660604476928711  0.0012000000476837158
  30    0.0036660604476928711  -0.0036660604476928711  0.0012000000476837158
  31    0.0036660604476928711  0.0036660604476928711  0.00040000000596046451
  32    -0.0024000000953674316  -0.0024000000953674316  0.002
  33    -0.0024000000953674316  0.0024000000953674316  0.002
  34    -0.0024000000953674316  -0.0024000000953674316  0.0012000000476837158
  35    0.0024000000953674316  -0.0024000000953674316  0.0012000000476837158
  36    -0.0024000000953674316  0.0024000000953674316  0.0012000000476837158
  37    0.0024000000953674316  0.0024000000953674316  0.002
  38    0.0024000000953674316  -0.0024000000953674316  0.002
  39    0.0024000000953674316  0.0024000000953674316  0.0012000000476837158
  40    0.0010344664955549534  0.00032980799207274464  0.0016530826898706629
  41    -0.00080000011598030938  0.00080000003253021923  -0.001594317502078673
# Generated by pq1.1/10Y 
