# https://github.com/mikedh/trimesh

o base_link.stl
v -85.88722992 60.42844009 24.37977791
v -85.51451874 60.48461914 19.37977791
v -85.51451874 60.48461914 24.37977791
v -85.14179993 60.42844009 19.37977791
v -85.14179993 60.42844009 24.37977791
v -84.80220032 60.26489639 19.37977791
v -84.80220032 60.26489639 24.37977791
v -84.52588654 60.00852203 19.37977791
v -84.52588654 60.00852203 24.37977791
v -84.33742523 59.68209076 19.37977791
v -84.33742523 59.68209076 24.37977791
v -84.25355530 59.31461334 19.37977791
v -84.25355530 59.31461334 24.37977791
v -84.28172302 58.93873978 19.37977791
v -84.28172302 58.93873978 24.37977791
v -84.41942596 58.58786774 19.37977791
v -84.41942596 58.58786774 24.37977791
v -84.65443420 58.29317474 19.37977791
v -84.65443420 58.29317474 24.37977791
v -84.96586609 58.08084106 19.37977791
v -84.96586609 58.08084106 24.37977791
v -85.32604980 57.96974182 19.37977791
v -85.32604980 57.96974182 24.37977791
v -85.70298004 57.96974182 19.37977791
v -85.70298004 57.96974182 24.37977791
v -86.06316376 58.08084106 19.37977791
v -86.06316376 58.08084106 24.37977791
v -86.37459564 58.29317474 19.37977791
v -86.37459564 58.29317474 24.37977791
v -86.60960388 58.58786774 19.37977791
v -86.60960388 58.58786774 24.37977791
v -86.74731445 58.93873978 19.37977791
v -86.74731445 58.93873978 24.37977791
v -86.77548218 59.31461334 19.37977791
v -86.77548218 59.31461334 24.37977791
v -86.69160461 59.68209076 19.37977791
v -86.69160461 59.68209076 24.37977791
v -86.50314331 60.00852203 19.37977791
v -86.50314331 60.00852203 24.37977791
v -86.22683716 60.26489639 19.37977791
v -86.22683716 60.26489639 24.37977791
v -85.88722992 60.42844009 19.37977791
v -85.51451874 60.48461914 19.37977791
v -85.14179993 60.42844009 19.37977791
v -84.80220032 60.26489639 19.37977791
v -84.52588654 60.00852203 19.37977791
v -84.33742523 59.68209076 19.37977791
v -84.25355530 59.31461334 19.37977791
v -84.28172302 58.93873978 19.37977791
v -84.41942596 58.58786774 19.37977791
v -84.65443420 58.29317474 19.37977791
v -84.96586609 58.08084106 19.37977791
v -85.32604980 57.96974182 19.37977791
v -85.70298004 57.96974182 19.37977791
v -86.06316376 58.08084106 19.37977791
v -86.37459564 58.29317474 19.37977791
v -86.60960388 58.58786774 19.37977791
v -86.74731445 58.93873978 19.37977791
v -86.77548218 59.31461334 19.37977791
v -86.69160461 59.68209076 19.37977791
v -86.50314331 60.00852203 19.37977791
v -86.22683716 60.26489639 19.37977791
v -85.88722992 60.42844009 19.37977791
v -62.88723373 60.42844009 24.37977791
v -62.51451492 60.48461914 19.37977791
v -62.51451492 60.48461914 24.37977791
v -62.14179611 60.42844009 19.37977791
v -62.14179611 60.42844009 24.37977791
v -61.80219650 60.26489639 19.37977791
v -61.80219650 60.26489639 24.37977791
v -61.52589035 60.00852203 19.37977791
v -61.52589035 60.00852203 24.37977791
v -61.33742523 59.68209076 19.37977791
v -61.33742523 59.68209076 24.37977791
v -61.25355148 59.31461334 19.37977791
v -61.25355148 59.31461334 24.37977791
v -61.28171921 58.93873978 19.37977791
v -61.28171921 58.93873978 24.37977791
v -61.41942596 58.58786774 19.37977791
v -61.41942596 58.58786774 24.37977791
v -61.65443802 58.29317474 19.37977791
v -61.65443802 58.29317474 24.37977791
v -61.96586990 58.08084106 19.37977791
v -61.96586990 58.08084106 24.37977791
v -62.32605362 57.96974182 19.37977791
v -62.32605362 57.96974182 24.37977791
v -62.70298004 57.96974182 19.37977791
v -62.70298004 57.96974182 24.37977791
v -63.06315994 58.08084106 19.37977791
v -63.06315994 58.08084106 24.37977791
v -63.37459564 58.29317474 19.37977791
v -63.37459564 58.29317474 24.37977791
v -63.60960388 58.58786774 19.37977791
v -63.60960388 58.58786774 24.37977791
v -63.74731064 58.93873978 19.37977791
v -63.74731064 58.93873978 24.37977791
v -63.77547836 59.31461334 19.37977791
v -63.77547836 59.31461334 24.37977791
v -63.69160461 59.68209076 19.37977791
v -63.69160461 59.68209076 24.37977791
v -63.50314331 60.00852203 19.37977791
v -63.50314331 60.00852203 24.37977791
v -63.22683334 60.26489639 19.37977791
v -63.22683334 60.26489639 24.37977791
v -62.88723373 60.42844009 19.37977791
v -62.51451492 60.48461914 19.37977791
v -62.14179611 60.42844009 19.37977791
v -61.80219650 60.26489639 19.37977791
v -61.52589035 60.00852203 19.37977791
v -61.33742523 59.68209076 19.37977791
v -61.25355148 59.31461334 19.37977791
v -61.28171921 58.93873978 19.37977791
v -61.41942596 58.58786774 19.37977791
v -61.65443802 58.29317474 19.37977791
v -61.96586990 58.08084106 19.37977791
v -62.32605362 57.96974182 19.37977791
v -62.70298004 57.96974182 19.37977791
v -63.06315994 58.08084106 19.37977791
v -63.37459564 58.29317474 19.37977791
v -63.60960388 58.58786774 19.37977791
v -63.74731064 58.93873978 19.37977791
v -63.77547836 59.31461334 19.37977791
v -63.69160461 59.68209076 19.37977791
v -63.50314331 60.00852203 19.37977791
v -63.22683334 60.26489639 19.37977791
v -62.88723373 60.42844009 19.37977791
v -74.38722992 71.92843628 24.37977791
v -74.01451874 71.98461914 19.37977791
v -74.01451874 71.98461914 24.37977791
v -73.64179993 71.92843628 19.37977791
v -73.64179993 71.92843628 24.37977791
v -73.30220032 71.76490021 19.37977791
v -73.30220032 71.76490021 24.37977791
v -73.02588654 71.50852203 19.37977791
v -73.02588654 71.50852203 24.37977791
v -72.83742523 71.18209076 19.37977791
v -72.83742523 71.18209076 24.37977791
v -72.75355530 70.81461334 19.37977791
v -72.75355530 70.81461334 24.37977791
v -72.78172302 70.43874359 19.37977791
v -72.78172302 70.43874359 24.37977791
v -72.91942596 70.08786774 19.37977791
v -72.91942596 70.08786774 24.37977791
v -73.15443420 69.79317474 19.37977791
v -73.15443420 69.79317474 24.37977791
v -73.46586609 69.58084106 19.37977791
v -73.46586609 69.58084106 24.37977791
v -73.82604980 69.46974182 19.37977791
v -73.82604980 69.46974182 24.37977791
v -74.20298004 69.46974182 19.37977791
v -74.20298004 69.46974182 24.37977791
v -74.56316376 69.58084106 19.37977791
v -74.56316376 69.58084106 24.37977791
v -74.87459564 69.79317474 19.37977791
v -74.87459564 69.79317474 24.37977791
v -75.10960388 70.08786774 19.37977791
v -75.10960388 70.08786774 24.37977791
v -75.24731445 70.43874359 19.37977791
v -75.24731445 70.43874359 24.37977791
v -75.27548218 70.81461334 19.37977791
v -75.27548218 70.81461334 24.37977791
v -75.19160461 71.18209076 19.37977791
v -75.19160461 71.18209076 24.37977791
v -75.00314331 71.50852203 19.37977791
v -75.00314331 71.50852203 24.37977791
v -74.72683716 71.76490021 19.37977791
v -74.72683716 71.76490021 24.37977791
v -74.38722992 71.92843628 19.37977791
v -74.01451874 71.98461914 19.37977791
v -73.64179993 71.92843628 19.37977791
v -73.30220032 71.76490021 19.37977791
v -73.02588654 71.50852203 19.37977791
v -72.83742523 71.18209076 19.37977791
v -72.75355530 70.81461334 19.37977791
v -72.78172302 70.43874359 19.37977791
v -72.91942596 70.08786774 19.37977791
v -73.15443420 69.79317474 19.37977791
v -73.46586609 69.58084106 19.37977791
v -73.82604980 69.46974182 19.37977791
v -74.20298004 69.46974182 19.37977791
v -74.56316376 69.58084106 19.37977791
v -74.87459564 69.79317474 19.37977791
v -75.10960388 70.08786774 19.37977791
v -75.24731445 70.43874359 19.37977791
v -75.27548218 70.81461334 19.37977791
v -75.19160461 71.18209076 19.37977791
v -75.00314331 71.50852203 19.37977791
v -74.72683716 71.76490021 19.37977791
v -74.38722992 71.92843628 19.37977791
v -74.38722992 48.92844009 24.37977791
v -74.01451874 48.98461914 19.37977791
v -74.01451874 48.98461914 24.37977791
v -73.64179993 48.92844009 19.37977791
v -73.64179993 48.92844009 24.37977791
v -73.30220032 48.76489639 19.37977791
v -73.30220032 48.76489639 24.37977791
v -73.02588654 48.50852203 19.37977791
v -73.02588654 48.50852203 24.37977791
v -72.83742523 48.18209076 19.37977791
v -72.83742523 48.18209076 24.37977791
v -72.75355530 47.81461334 19.37977791
v -72.75355530 47.81461334 24.37977791
v -72.78172302 47.43873978 19.37977791
v -72.78172302 47.43873978 24.37977791
v -72.91942596 47.08786774 19.37977791
v -72.91942596 47.08786774 24.37977791
v -73.15443420 46.79317474 19.37977791
v -73.15443420 46.79317474 24.37977791
v -73.46586609 46.58084106 19.37977791
v -73.46586609 46.58084106 24.37977791
v -73.82604980 46.46974182 19.37977791
v -73.82604980 46.46974182 24.37977791
v -74.20298004 46.46974182 19.37977791
v -74.20298004 46.46974182 24.37977791
v -74.56316376 46.58084106 19.37977791
v -74.56316376 46.58084106 24.37977791
v -74.87459564 46.79317474 19.37977791
v -74.87459564 46.79317474 24.37977791
v -75.10960388 47.08786774 19.37977791
v -75.10960388 47.08786774 24.37977791
v -75.24731445 47.43873978 19.37977791
v -75.24731445 47.43873978 24.37977791
v -75.27548218 47.81461334 19.37977791
v -75.27548218 47.81461334 24.37977791
v -75.19160461 48.18209076 19.37977791
v -75.19160461 48.18209076 24.37977791
v -75.00314331 48.50852203 19.37977791
v -75.00314331 48.50852203 24.37977791
v -74.72683716 48.76489639 19.37977791
v -74.72683716 48.76489639 24.37977791
v -74.38722992 48.92844009 19.37977791
v -74.01451874 48.98461914 19.37977791
v -73.64179993 48.92844009 19.37977791
v -73.30220032 48.76489639 19.37977791
v -73.02588654 48.50852203 19.37977791
v -72.83742523 48.18209076 19.37977791
v -72.75355530 47.81461334 19.37977791
v -72.78172302 47.43873978 19.37977791
v -72.91942596 47.08786774 19.37977791
v -73.15443420 46.79317474 19.37977791
v -73.46586609 46.58084106 19.37977791
v -73.82604980 46.46974182 19.37977791
v -74.20298004 46.46974182 19.37977791
v -74.56316376 46.58084106 19.37977791
v -74.87459564 46.79317474 19.37977791
v -75.10960388 47.08786774 19.37977791
v -75.24731445 47.43873978 19.37977791
v -75.27548218 47.81461334 19.37977791
v -75.19160461 48.18209076 19.37977791
v -75.00314331 48.50852203 19.37977791
v -74.72683716 48.76489639 19.37977791
v -74.38722992 48.92844009 19.37977791
v -69.57279205 59.94196701 19.37977791
v -69.57279205 59.94196701 18.37977791
v -69.51451874 59.22011948 19.37977791
v -69.51451874 59.22011948 18.37977791
v -69.57279205 58.49826813 19.37977791
v -69.57279205 58.49826813 18.37977791
v -69.74610138 57.79511261 18.37977791
v -69.74610138 60.64512253 19.37977791
v -69.74610138 60.64512253 18.37977791
v -70.02996063 61.31137085 19.37977791
v -70.02996063 61.31137085 18.37977791
v -70.41702271 61.92345810 19.37977791
v -70.41702271 61.92345810 18.37977791
v -70.89725494 62.46553040 19.37977791
v -70.89725494 62.46553040 18.37977791
v -71.45822144 62.92354584 19.37977791
v -71.45822144 62.92354584 18.37977791
v -72.08539581 63.28564453 19.37977791
v -72.08539581 63.28564453 18.37977791
v -72.76253510 63.54244995 19.37977791
v -72.76253510 63.54244995 18.37977791
v -73.47209930 63.68730927 19.37977791
v -73.47209930 63.68730927 18.37977791
v -74.19570923 63.71646881 19.37977791
v -74.19570923 63.71646881 18.37977791
v -74.91463470 63.62917709 19.37977791
v -74.91463470 63.62917709 18.37977791
v -75.61023712 63.42769241 19.37977791
v -75.61023712 63.42769241 18.37977791
v -76.26451874 63.11723328 19.37977791
v -76.26451874 63.11723328 18.37977791
v -76.86051941 62.70584106 19.37977791
v -76.86051941 62.70584106 18.37977791
v -77.38281250 62.20417023 19.37977791
v -77.38281250 62.20417023 18.37977791
v -77.81787109 61.62521362 19.37977791
v -77.81787109 61.62521362 18.37977791
v -78.15442657 60.98396683 19.37977791
v -78.15442657 60.98396683 18.37977791
v -78.38375092 60.29703903 19.37977791
v -78.38375092 60.29703903 18.37977791
v -78.49992371 59.58221817 19.37977791
v -78.49992371 59.58221817 18.37977791
v -78.49992371 58.85801697 19.37977791
v -78.49992371 58.85801697 18.37977791
v -78.38375092 58.14319611 19.37977791
v -78.38375092 58.14319611 18.37977791
v -78.15442657 57.45626831 19.37977791
v -78.15442657 57.45626831 18.37977791
v -77.81787109 56.81502151 19.37977791
v -77.81787109 56.81502151 18.37977791
v -77.38281250 56.23606491 19.37977791
v -77.38281250 56.23606491 18.37977791
v -76.86051941 55.73439407 19.37977791
v -76.86051941 55.73439407 18.37977791
v -76.26451874 55.32300186 19.37977791
v -76.26451874 55.32300186 18.37977791
v -75.61023712 55.01254654 19.37977791
v -75.61023712 55.01254654 18.37977791
v -74.91463470 54.81106186 19.37977791
v -74.91463470 54.81106186 18.37977791
v -74.19570923 54.72376633 19.37977791
v -74.19570923 54.72376633 18.37977791
v -73.47209930 54.75292969 19.37977791
v -73.47209930 54.75292969 18.37977791
v -72.76253510 54.89778519 19.37977791
v -72.76253510 54.89778519 18.37977791
v -72.08539581 55.15459061 19.37977791
v -72.08539581 55.15459061 18.37977791
v -71.45822144 55.51668930 19.37977791
v -71.45822144 55.51668930 18.37977791
v -70.89725494 55.97470856 19.37977791
v -70.89725494 55.97470856 18.37977791
v -70.41702271 56.51677704 19.37977791
v -70.41702271 56.51677704 18.37977791
v -70.02996063 57.12886429 19.37977791
v -70.02996063 57.12886429 18.37977791
v -69.74610138 57.79511261 19.37977791
v -85.95488739 58.02530289 18.37977791
v -85.95488739 58.02530289 14.37977695
v -86.01451874 59.22011948 18.37977791
v -86.01451874 59.22011948 14.37977695
v -85.95488739 60.41493225 18.37977791
v -85.95488739 60.41493225 14.37977695
v -85.77658844 61.59787369 14.37977695
v -85.77658844 56.84236526 18.37977791
v -85.77658844 56.84236526 14.37977695
v -85.48139191 55.68305588 18.37977791
v -85.48139191 55.68305588 14.37977695
v -85.07222748 54.55889893 18.37977791
v -85.07222748 54.55889893 14.37977695
v -84.55317688 53.48107147 18.37977791
v -84.55317688 53.48107147 14.37977695
v -83.92938232 52.46027756 18.37977791
v -83.92938232 52.46027756 14.37977695
v -83.20704651 51.50666809 18.37977791
v -83.20704651 51.50666809 14.37977695
v -82.39335632 50.62971497 18.37977791
v -82.39335632 50.62971497 14.37977695
v -81.49639130 49.83813858 18.37977791
v -81.49639130 49.83813858 14.37977695
v -80.52507019 49.13980865 18.37977791
v -80.52507019 49.13980865 14.37977695
v -79.48904419 48.54165649 18.37977791
v -79.48904419 48.54165649 14.37977695
v -78.39860535 48.04963303 18.37977791
v -78.39860535 48.04963303 14.37977695
v -77.26460266 47.66862869 18.37977791
v -77.26460266 47.66862869 14.37977695
v -76.09829712 47.40242386 18.37977791
v -76.09829712 47.40242386 14.37977695
v -74.91127777 47.25367355 18.37977791
v -74.91127777 47.25367355 14.37977695
v -73.71534729 47.22384644 18.37977791
v -73.71534729 47.22384644 14.37977695
v -72.52239227 47.31324768 18.37977791
v -72.52239227 47.31324768 14.37977695
v -71.34426117 47.52098465 18.37977791
v -71.34426117 47.52098465 14.37977695
v -70.19267273 47.84498978 18.37977791
v -70.19267273 47.84498978 14.37977695
v -69.07907104 48.28204727 18.37977791
v -69.07907104 48.28204727 14.37977695
v -68.01451874 48.82781219 18.37977791
v -68.01451874 48.82781219 14.37977695
v -67.00959015 49.47686386 18.37977791
v -67.00959015 49.47686386 14.37977695
v -66.07428741 50.22274399 18.37977791
v -66.07428741 50.22274399 14.37977695
v -65.21789551 51.05804443 18.37977791
v -65.21789551 51.05804443 14.37977695
v -64.44892883 51.97446442 18.37977791
v -64.44892883 51.97446442 14.37977695
v -63.77502441 52.96289444 18.37977791
v -63.77502441 52.96289444 14.37977695
v -63.20288849 54.01351166 18.37977791
v -63.20288849 54.01351166 14.37977695
v -62.73820496 55.11587524 18.37977791
v -62.73820496 55.11587524 14.37977695
v -62.38558960 56.25902939 18.37977791
v -62.38558960 56.25902939 14.37977695
v -62.14854431 57.43161011 18.37977791
v -62.14854431 57.43161011 14.37977695
v -62.02943420 58.62196732 18.37977791
v -62.02943420 58.62196732 14.37977695
v -62.02943420 59.81826782 18.37977791
v -62.02943420 59.81826782 14.37977695
v -62.14854431 61.00862503 18.37977791
v -62.14854431 61.00862503 14.37977695
v -62.38558960 62.18120575 18.37977791
v -62.38558960 62.18120575 14.37977695
v -62.73820496 63.32435989 18.37977791
v -62.73820496 63.32435989 14.37977695
v -63.20288849 64.42671967 18.37977791
v -63.20288849 64.42671967 14.37977695
v -63.77502441 65.47734070 18.37977791
v -63.77502441 65.47734070 14.37977695
v -64.44892883 66.46577454 18.37977791
v -64.44892883 66.46577454 14.37977695
v -65.21789551 67.38219452 18.37977791
v -65.21789551 67.38219452 14.37977695
v -66.07428741 68.21749115 18.37977791
v -66.07428741 68.21749115 14.37977695
v -67.00959015 68.96337128 18.37977791
v -67.00959015 68.96337128 14.37977695
v -68.01451874 69.61241913 18.37977791
v -68.01451874 69.61241913 14.37977695
v -69.07907104 70.15818787 18.37977791
v -69.07907104 70.15818787 14.37977695
v -70.19267273 70.59524536 18.37977791
v -70.19267273 70.59524536 14.37977695
v -71.34426117 70.91925049 18.37977791
v -71.34426117 70.91925049 14.37977695
v -72.52239227 71.12699127 18.37977791
v -72.52239227 71.12699127 14.37977695
v -73.71534729 71.21638489 18.37977791
v -73.71534729 71.21638489 14.37977695
v -74.91127777 71.18656158 18.37977791
v -74.91127777 71.18656158 14.37977695
v -76.09829712 71.03781128 18.37977791
v -76.09829712 71.03781128 14.37977695
v -77.26460266 70.77160645 18.37977791
v -77.26460266 70.77160645 14.37977695
v -78.39860535 70.39060211 18.37977791
v -78.39860535 70.39060211 14.37977695
v -79.48904419 69.89858246 18.37977791
v -79.48904419 69.89858246 14.37977695
v -80.52507019 69.30043030 18.37977791
v -80.52507019 69.30043030 14.37977695
v -81.49639130 68.60209656 18.37977791
v -81.49639130 68.60209656 14.37977695
v -82.39335632 67.81052399 18.37977791
v -82.39335632 67.81052399 14.37977695
v -83.20704651 66.93357086 18.37977791
v -83.20704651 66.93357086 14.37977695
v -83.92938232 65.97995758 18.37977791
v -83.92938232 65.97995758 14.37977695
v -84.55317688 64.95916748 18.37977791
v -84.55317688 64.95916748 14.37977695
v -85.07222748 63.88133621 18.37977791
v -85.07222748 63.88133621 14.37977695
v -85.48139191 62.75717926 18.37977791
v -85.48139191 62.75717926 14.37977695
v -85.77658844 61.59787369 18.37977791
v -69.57279205 59.94196701 18.37977791
v -69.51451874 59.22011948 18.37977791
v -69.57279205 58.49826813 18.37977791
v -69.74610138 57.79511261 18.37977791
v -69.74610138 60.64512253 18.37977791
v -70.02996063 61.31137085 18.37977791
v -70.41702271 61.92345810 18.37977791
v -70.89725494 62.46553040 18.37977791
v -71.45822144 62.92354584 18.37977791
v -72.08539581 63.28564453 18.37977791
v -72.76253510 63.54244995 18.37977791
v -73.47209930 63.68730927 18.37977791
v -74.19570923 63.71646881 18.37977791
v -74.91463470 63.62917709 18.37977791
v -75.61023712 63.42769241 18.37977791
v -76.26451874 63.11723328 18.37977791
v -76.86051941 62.70584106 18.37977791
v -77.38281250 62.20417023 18.37977791
v -77.81787109 61.62521362 18.37977791
v -78.15442657 60.98396683 18.37977791
v -78.38375092 60.29703903 18.37977791
v -78.49992371 59.58221817 18.37977791
v -78.49992371 58.85801697 18.37977791
v -78.38375092 58.14319611 18.37977791
v -78.15442657 57.45626831 18.37977791
v -77.81787109 56.81502151 18.37977791
v -77.38281250 56.23606491 18.37977791
v -76.86051941 55.73439407 18.37977791
v -76.26451874 55.32300186 18.37977791
v -75.61023712 55.01254654 18.37977791
v -74.91463470 54.81106186 18.37977791
v -74.19570923 54.72376633 18.37977791
v -73.47209930 54.75292969 18.37977791
v -72.76253510 54.89778519 18.37977791
v -72.08539581 55.15459061 18.37977791
v -71.45822144 55.51668930 18.37977791
v -70.89725494 55.97470856 18.37977791
v -70.41702271 56.51677704 18.37977791
v -70.02996063 57.12886429 18.37977791
v -85.95488739 58.02530289 18.37977791
v -86.01451874 59.22011948 18.37977791
v -85.95488739 60.41493225 18.37977791
v -85.77658844 56.84236526 18.37977791
v -85.48139191 55.68305588 18.37977791
v -85.07222748 54.55889893 18.37977791
v -84.55317688 53.48107147 18.37977791
v -83.92938232 52.46027756 18.37977791
v -83.20704651 51.50666809 18.37977791
v -82.39335632 50.62971497 18.37977791
v -81.49639130 49.83813858 18.37977791
v -80.52507019 49.13980865 18.37977791
v -79.48904419 48.54165649 18.37977791
v -78.39860535 48.04963303 18.37977791
v -77.26460266 47.66862869 18.37977791
v -76.09829712 47.40242386 18.37977791
v -74.91127777 47.25367355 18.37977791
v -73.71534729 47.22384644 18.37977791
v -72.52239227 47.31324768 18.37977791
v -71.34426117 47.52098465 18.37977791
v -70.19267273 47.84498978 18.37977791
v -69.07907104 48.28204727 18.37977791
v -68.01451874 48.82781219 18.37977791
v -67.00959015 49.47686386 18.37977791
v -66.07428741 50.22274399 18.37977791
v -65.21789551 51.05804443 18.37977791
v -64.44892883 51.97446442 18.37977791
v -63.77502441 52.96289444 18.37977791
v -63.20288849 54.01351166 18.37977791
v -62.73820496 55.11587524 18.37977791
v -62.38558960 56.25902939 18.37977791
v -62.14854431 57.43161011 18.37977791
v -62.02943420 58.62196732 18.37977791
v -62.02943420 59.81826782 18.37977791
v -62.14854431 61.00862503 18.37977791
v -62.38558960 62.18120575 18.37977791
v -62.73820496 63.32435989 18.37977791
v -63.20288849 64.42671967 18.37977791
v -63.77502441 65.47734070 18.37977791
v -64.44892883 66.46577454 18.37977791
v -65.21789551 67.38219452 18.37977791
v -66.07428741 68.21749115 18.37977791
v -67.00959015 68.96337128 18.37977791
v -68.01451874 69.61241913 18.37977791
v -69.07907104 70.15818787 18.37977791
v -70.19267273 70.59524536 18.37977791
v -71.34426117 70.91925049 18.37977791
v -72.52239227 71.12699127 18.37977791
v -73.71534729 71.21638489 18.37977791
v -74.91127777 71.18656158 18.37977791
v -76.09829712 71.03781128 18.37977791
v -77.26460266 70.77160645 18.37977791
v -78.39860535 70.39060211 18.37977791
v -79.48904419 69.89858246 18.37977791
v -80.52507019 69.30043030 18.37977791
v -81.49639130 68.60209656 18.37977791
v -82.39335632 67.81052399 18.37977791
v -83.20704651 66.93357086 18.37977791
v -83.92938232 65.97995758 18.37977791
v -84.55317688 64.95916748 18.37977791
v -85.07222748 63.88133621 18.37977791
v -85.48139191 62.75717926 18.37977791
v -85.77658844 61.59787369 18.37977791
v -65.57417297 58.21479797 19.37977791
v -65.57417297 58.21479797 24.37977791
v -65.51451874 59.22011948 19.37977791
v -65.51451874 59.22011948 24.37977791
v -65.57417297 60.22544098 19.37977791
v -65.57417297 60.22544098 24.37977791
v -65.75231934 61.21664810 19.37977791
v -65.75231934 61.21664810 24.37977791
v -66.04644775 62.17983246 19.37977791
v -66.04644775 62.17983246 24.37977791
v -66.45243073 63.10146713 19.37977791
v -66.45243073 63.10146713 24.37977791
v -66.96456909 63.96861649 19.37977791
v -66.96456909 63.96861649 24.37977791
v -67.57566833 64.76910400 19.37977791
v -67.57566833 64.76910400 24.37977791
v -68.27716064 65.49169922 19.37977791
v -68.27716064 65.49169922 24.37977791
v -69.05918884 66.12625885 19.37977791
v -69.05918884 66.12625885 24.37977791
v -69.91078186 66.66386414 19.37977791
v -69.91078186 66.66386414 24.37977791
v -70.81998444 67.09697723 19.37977791
v -70.81998444 67.09697723 24.37977791
v -71.77402496 67.41951752 19.37977791
v -71.77402496 67.41951752 24.37977791
v -72.75952148 67.62696075 19.37977791
v -72.75952148 67.62696075 24.37977791
v -73.76263428 67.71638489 19.37977791
v -73.76263428 67.71638489 24.37977791
v -74.76927948 67.68653870 19.37977791
v -74.76927948 67.68653870 24.37977791
v -75.76533508 67.53784943 19.37977791
v -75.76533508 67.53784943 24.37977791
v -76.73680878 67.27239227 19.37977791
v -76.73680878 67.27239227 24.37977791
v -77.67006683 66.89389801 19.37977791
v -77.67006683 66.89389801 24.37977791
v -78.55201721 66.40768433 19.37977791
v -78.55201721 66.40768433 24.37977791
v -79.37026215 65.82057190 19.37977791
v -79.37026215 65.82057190 24.37977791
v -80.11332703 65.14080048 19.37977791
v -80.11332703 65.14080048 24.37977791
v -80.77077484 64.37792206 19.37977791
v -80.77077484 64.37792206 24.37977791
v -81.33338928 63.54263306 19.37977791
v -81.33338928 63.54263306 24.37977791
v -81.79325104 62.64666748 19.37977791
v -81.79325104 62.64666748 24.37977791
v -82.14392090 61.70260239 19.37977791
v -82.14392090 61.70260239 24.37977791
v -82.38047791 60.72368622 19.37977791
v -82.38047791 60.72368622 24.37977791
v -82.49958801 59.72366333 19.37977791
v -82.49958801 59.72366333 24.37977791
v -82.49958801 58.71657181 19.37977791
v -82.49958801 58.71657181 24.37977791
v -82.38047791 57.71654892 19.37977791
v -82.38047791 57.71654892 24.37977791
v -82.14392090 56.73763657 19.37977791
v -82.14392090 56.73763657 24.37977791
v -81.79325104 55.79356766 19.37977791
v -81.79325104 55.79356766 24.37977791
v -81.33338928 54.89760208 19.37977791
v -81.33338928 54.89760208 24.37977791
v -80.77077484 54.06231689 19.37977791
v -80.77077484 54.06231689 24.37977791
v -80.11332703 53.29943466 19.37977791
v -80.11332703 53.29943466 24.37977791
v -79.37026215 52.61966705 19.37977791
v -79.37026215 52.61966705 24.37977791
v -78.55201721 52.03255081 19.37977791
v -78.55201721 52.03255081 24.37977791
v -77.67006683 51.54633713 19.37977791
v -77.67006683 51.54633713 24.37977791
v -76.73680878 51.16784286 19.37977791
v -76.73680878 51.16784286 24.37977791
v -75.76533508 50.90238953 19.37977791
v -75.76533508 50.90238953 24.37977791
v -74.76927948 50.75369263 19.37977791
v -74.76927948 50.75369263 24.37977791
v -73.76263428 50.72385025 19.37977791
v -73.76263428 50.72385025 24.37977791
v -72.75952148 50.81327820 19.37977791
v -72.75952148 50.81327820 24.37977791
v -71.77402496 51.02071381 19.37977791
v -71.77402496 51.02071381 24.37977791
v -70.81998444 51.34325790 19.37977791
v -70.81998444 51.34325790 24.37977791
v -69.91078186 51.77637100 19.37977791
v -69.91078186 51.77637100 24.37977791
v -69.05918884 52.31398010 19.37977791
v -69.05918884 52.31398010 24.37977791
v -68.27716064 52.94853592 19.37977791
v -68.27716064 52.94853592 24.37977791
v -67.57566833 53.67113113 19.37977791
v -67.57566833 53.67113113 24.37977791
v -66.96456909 54.47162247 19.37977791
v -66.96456909 54.47162247 24.37977791
v -66.45243073 55.33876801 19.37977791
v -66.45243073 55.33876801 24.37977791
v -66.04644775 56.26040268 19.37977791
v -66.04644775 56.26040268 24.37977791
v -65.75231934 57.22358704 19.37977791
v -65.75231934 57.22358704 24.37977791
v -69.57279205 59.94196701 19.37977791
v -69.51451874 59.22011948 19.37977791
v -69.57279205 58.49826813 19.37977791
v -69.74610138 60.64512253 19.37977791
v -70.02996063 61.31137085 19.37977791
v -70.41702271 61.92345810 19.37977791
v -70.89725494 62.46553040 19.37977791
v -71.45822144 62.92354584 19.37977791
v -72.08539581 63.28564453 19.37977791
v -72.76253510 63.54244995 19.37977791
v -73.47209930 63.68730927 19.37977791
v -74.19570923 63.71646881 19.37977791
v -74.91463470 63.62917709 19.37977791
v -75.61023712 63.42769241 19.37977791
v -76.26451874 63.11723328 19.37977791
v -76.86051941 62.70584106 19.37977791
v -77.38281250 62.20417023 19.37977791
v -77.81787109 61.62521362 19.37977791
v -78.15442657 60.98396683 19.37977791
v -78.38375092 60.29703903 19.37977791
v -78.49992371 59.58221817 19.37977791
v -78.49992371 58.85801697 19.37977791
v -78.38375092 58.14319611 19.37977791
v -78.15442657 57.45626831 19.37977791
v -77.81787109 56.81502151 19.37977791
v -77.38281250 56.23606491 19.37977791
v -76.86051941 55.73439407 19.37977791
v -76.26451874 55.32300186 19.37977791
v -75.61023712 55.01254654 19.37977791
v -74.91463470 54.81106186 19.37977791
v -74.19570923 54.72376633 19.37977791
v -73.47209930 54.75292969 19.37977791
v -72.76253510 54.89778519 19.37977791
v -72.08539581 55.15459061 19.37977791
v -71.45822144 55.51668930 19.37977791
v -70.89725494 55.97470856 19.37977791
v -70.41702271 56.51677704 19.37977791
v -70.02996063 57.12886429 19.37977791
v -69.74610138 57.79511261 19.37977791
v -65.57417297 58.21479797 19.37977791
v -65.51451874 59.22011948 19.37977791
v -65.57417297 60.22544098 19.37977791
v -65.75231934 61.21664810 19.37977791
v -66.04644775 62.17983246 19.37977791
v -66.45243073 63.10146713 19.37977791
v -66.96456909 63.96861649 19.37977791
v -67.57566833 64.76910400 19.37977791
v -68.27716064 65.49169922 19.37977791
v -69.05918884 66.12625885 19.37977791
v -69.91078186 66.66386414 19.37977791
v -70.81998444 67.09697723 19.37977791
v -71.77402496 67.41951752 19.37977791
v -72.75952148 67.62696075 19.37977791
v -73.76263428 67.71638489 19.37977791
v -74.76927948 67.68653870 19.37977791
v -75.76533508 67.53784943 19.37977791
v -76.73680878 67.27239227 19.37977791
v -77.67006683 66.89389801 19.37977791
v -78.55201721 66.40768433 19.37977791
v -79.37026215 65.82057190 19.37977791
v -80.11332703 65.14080048 19.37977791
v -80.77077484 64.37792206 19.37977791
v -81.33338928 63.54263306 19.37977791
v -81.79325104 62.64666748 19.37977791
v -82.14392090 61.70260239 19.37977791
v -82.38047791 60.72368622 19.37977791
v -82.49958801 59.72366333 19.37977791
v -82.49958801 58.71657181 19.37977791
v -82.38047791 57.71654892 19.37977791
v -82.14392090 56.73763657 19.37977791
v -81.79325104 55.79356766 19.37977791
v -81.33338928 54.89760208 19.37977791
v -80.77077484 54.06231689 19.37977791
v -80.11332703 53.29943466 19.37977791
v -79.37026215 52.61966705 19.37977791
v -78.55201721 52.03255081 19.37977791
v -77.67006683 51.54633713 19.37977791
v -76.73680878 51.16784286 19.37977791
v -75.76533508 50.90238953 19.37977791
v -74.76927948 50.75369263 19.37977791
v -73.76263428 50.72385025 19.37977791
v -72.75952148 50.81327820 19.37977791
v -71.77402496 51.02071381 19.37977791
v -70.81998444 51.34325790 19.37977791
v -69.91078186 51.77637100 19.37977791
v -69.05918884 52.31398010 19.37977791
v -68.27716064 52.94853592 19.37977791
v -67.57566833 53.67113113 19.37977791
v -66.96456909 54.47162247 19.37977791
v -66.45243073 55.33876801 19.37977791
v -66.04644775 56.26040268 19.37977791
v -65.75231934 57.22358704 19.37977791
v -105.14819336 38.57255173 20.98900986
v -97.64819336 38.57255173 20.98900986
v -105.14819336 38.14136124 21.04577637
v -97.64819336 38.14136124 21.04577637
v -105.14819336 37.71016693 20.98900986
v -97.64819336 37.71016693 20.98900986
v -105.14819336 37.30836105 20.82257652
v -97.64819336 37.30836105 20.82257652
v -105.14819336 36.96332169 20.55781746
v -97.64819336 36.96332169 20.55781746
v -105.14819336 36.69856262 20.21277809
v -97.64819336 36.69856262 20.21277809
v -105.14819336 36.53212738 19.81097031
v -97.64819336 36.53212738 19.81097031
v -105.14819336 36.47536087 19.37977791
v -97.64819336 36.47536087 19.37977791
v -105.14819336 36.53212738 18.94858551
v -97.64819336 36.53212738 18.94858551
v -105.14819336 36.69856262 18.54677773
v -97.64819336 36.69856262 18.54677773
v -105.14819336 36.96332169 18.20173836
v -97.64819336 36.96332169 18.20173836
v -105.14819336 37.30836105 17.93697929
v -97.64819336 37.30836105 17.93697929
v -105.14819336 37.71016693 17.77054405
v -97.64819336 37.71016693 17.77054405
v -105.14819336 38.14136124 17.71377754
v -97.64819336 38.14136124 17.71377754
v -105.14819336 38.57255173 17.77054405
v -97.64819336 38.57255173 17.77054405
v -105.14819336 38.97436142 17.93697929
v -97.64819336 38.97436142 17.93697929
v -105.14819336 39.31940079 18.20173836
v -97.64819336 39.31940079 18.20173836
v -105.14819336 39.58415985 18.54677773
v -97.64819336 39.58415985 18.54677773
v -105.14819336 39.75059128 18.94858551
v -97.64819336 39.75059128 18.94858551
v -105.14819336 39.80736160 19.37977791
v -97.64819336 39.80736160 19.37977791
v -105.14819336 39.75059128 19.81097031
v -97.64819336 39.75059128 19.81097031
v -105.14819336 39.58415985 20.21277809
v -97.64819336 39.58415985 20.21277809
v -105.14819336 39.31940079 20.55781746
v -97.64819336 39.31940079 20.55781746
v -105.14819336 38.97436142 20.82257652
v -97.64819336 38.97436142 20.82257652
v -90.14819336 38.57255173 17.77054405
v -90.14819336 38.14136124 17.71377754
v -90.14819336 37.71016693 17.77054405
v -90.14819336 37.30836105 17.93697929
v -90.14819336 36.96332169 18.20173836
v -90.14819336 36.69856262 18.54677773
v -90.14819336 36.53212738 18.94858551
v -90.14819336 36.47536087 19.37977791
v -90.14819336 36.53212738 19.81097031
v -90.14819336 36.69856262 20.21277809
v -90.14819336 36.96332169 20.55781746
v -90.14819336 37.30836105 20.82257652
v -90.14819336 37.71016693 20.98900986
v -90.14819336 38.14136124 21.04577637
v -90.14819336 38.57255173 20.98900986
v -90.14819336 38.97436142 20.82257652
v -90.14819336 39.31940079 20.55781746
v -90.14819336 39.58415985 20.21277809
v -90.14819336 39.75059128 19.81097031
v -90.14819336 39.80736160 19.37977791
v -90.14819336 39.75059128 18.94858551
v -90.14819336 39.58415985 18.54677773
v -90.14819336 39.31940079 18.20173836
v -90.14819336 38.97436142 17.93697929
v -90.14819336 38.57255173 17.77054405
v -90.14819336 38.14136124 17.71377754
v -90.14819336 37.71016693 17.77054405
v -90.14819336 37.30836105 17.93697929
v -90.14819336 36.96332169 18.20173836
v -90.14819336 36.69856262 18.54677773
v -90.14819336 36.53212738 18.94858551
v -90.14819336 36.47536087 19.37977791
v -90.14819336 36.53212738 19.81097031
v -90.14819336 36.69856262 20.21277809
v -90.14819336 36.96332169 20.55781746
v -90.14819336 37.30836105 20.82257652
v -90.14819336 37.71016693 20.98900986
v -90.14819336 38.14136124 21.04577637
v -90.14819336 38.57255173 20.98900986
v -90.14819336 38.97436142 20.82257652
v -90.14819336 39.31940079 20.55781746
v -90.14819336 39.58415985 20.21277809
v -90.14819336 39.75059128 19.81097031
v -90.14819336 39.80736160 19.37977791
v -90.14819336 39.75059128 18.94858551
v -90.14819336 39.58415985 18.54677773
v -90.14819336 39.31940079 18.20173836
v -90.14819336 38.97436142 17.93697929
v -105.14819336 80.84729767 20.98900986
v -97.64819336 80.84729767 20.98900986
v -105.14819336 80.41610718 21.04577637
v -97.64819336 80.41610718 21.04577637
v -105.14819336 79.98490906 20.98900986
v -97.64819336 79.98490906 20.98900986
v -105.14819336 79.58310699 20.82257652
v -97.64819336 79.58310699 20.82257652
v -105.14819336 79.23806763 20.55781746
v -97.64819336 79.23806763 20.55781746
v -105.14819336 78.97330475 20.21277809
v -97.64819336 78.97330475 20.21277809
v -105.14819336 78.80686951 19.81097031
v -97.64819336 78.80686951 19.81097031
v -105.14819336 78.75010681 19.37977791
v -97.64819336 78.75010681 19.37977791
v -105.14819336 78.80686951 18.94858551
v -97.64819336 78.80686951 18.94858551
v -105.14819336 78.97330475 18.54677773
v -97.64819336 78.97330475 18.54677773
v -105.14819336 79.23806763 18.20173836
v -97.64819336 79.23806763 18.20173836
v -105.14819336 79.58310699 17.93697929
v -97.64819336 79.58310699 17.93697929
v -105.14819336 79.98490906 17.77054405
v -97.64819336 79.98490906 17.77054405
v -105.14819336 80.41610718 17.71377754
v -97.64819336 80.41610718 17.71377754
v -105.14819336 80.84729767 17.77054405
v -97.64819336 80.84729767 17.77054405
v -105.14819336 81.24910736 17.93697929
v -97.64819336 81.24910736 17.93697929
v -105.14819336 81.59414673 18.20173836
v -97.64819336 81.59414673 18.20173836
v -105.14819336 81.85890198 18.54677773
v -97.64819336 81.85890198 18.54677773
v -105.14819336 82.02533722 18.94858551
v -97.64819336 82.02533722 18.94858551
v -105.14819336 82.08210754 19.37977791
v -97.64819336 82.08210754 19.37977791
v -105.14819336 82.02533722 19.81097031
v -97.64819336 82.02533722 19.81097031
v -105.14819336 81.85890198 20.21277809
v -97.64819336 81.85890198 20.21277809
v -105.14819336 81.59414673 20.55781746
v -97.64819336 81.59414673 20.55781746
v -105.14819336 81.24910736 20.82257652
v -97.64819336 81.24910736 20.82257652
v -90.14819336 80.84729767 17.77054405
v -90.14819336 80.41610718 17.71377754
v -90.14819336 79.98490906 17.77054405
v -90.14819336 79.58310699 17.93697929
v -90.14819336 79.23806763 18.20173836
v -90.14819336 78.97330475 18.54677773
v -90.14819336 78.80686951 18.94858551
v -90.14819336 78.75010681 19.37977791
v -90.14819336 78.80686951 19.81097031
v -90.14819336 78.97330475 20.21277809
v -90.14819336 79.23806763 20.55781746
v -90.14819336 79.58310699 20.82257652
v -90.14819336 79.98490906 20.98900986
v -90.14819336 80.41610718 21.04577637
v -90.14819336 80.84729767 20.98900986
v -90.14819336 81.24910736 20.82257652
v -90.14819336 81.59414673 20.55781746
v -90.14819336 81.85890198 20.21277809
v -90.14819336 82.02533722 19.81097031
v -90.14819336 82.08210754 19.37977791
v -90.14819336 82.02533722 18.94858551
v -90.14819336 81.85890198 18.54677773
v -90.14819336 81.59414673 18.20173836
v -90.14819336 81.24910736 17.93697929
v -90.14819336 80.84729767 17.77054405
v -90.14819336 80.41610718 17.71377754
v -90.14819336 79.98490906 17.77054405
v -90.14819336 79.58310699 17.93697929
v -90.14819336 79.23806763 18.20173836
v -90.14819336 78.97330475 18.54677773
v -90.14819336 78.80686951 18.94858551
v -90.14819336 78.75010681 19.37977791
v -90.14819336 78.80686951 19.81097031
v -90.14819336 78.97330475 20.21277809
v -90.14819336 79.23806763 20.55781746
v -90.14819336 79.58310699 20.82257652
v -90.14819336 79.98490906 20.98900986
v -90.14819336 80.41610718 21.04577637
v -90.14819336 80.84729767 20.98900986
v -90.14819336 81.24910736 20.82257652
v -90.14819336 81.59414673 20.55781746
v -90.14819336 81.85890198 20.21277809
v -90.14819336 82.02533722 19.81097031
v -90.14819336 82.08210754 19.37977791
v -90.14819336 82.02533722 18.94858551
v -90.14819336 81.85890198 18.54677773
v -90.14819336 81.59414673 18.20173836
v -90.14819336 81.24910736 17.93697929
v -55.00151443 100.41610718 24.37977791
v -55.00151443 18.14136124 24.37977791
v -55.00151443 100.41610718 14.37977695
v -55.00151443 18.14136124 14.37977695
v -55.00151443 100.41610718 24.37977791
v -55.00151443 100.41610718 14.37977695
v -105.14819336 100.41610718 24.37977791
v -105.14819336 100.41610718 14.37977695
v -105.14819336 38.57255173 20.98900986
v -105.14819336 38.14136124 21.04577637
v -105.14819336 37.71016693 20.98900986
v -105.14819336 37.30836105 20.82257652
v -105.14819336 36.96332169 20.55781746
v -105.14819336 36.69856262 20.21277809
v -105.14819336 36.53212738 19.81097031
v -105.14819336 36.47536087 19.37977791
v -105.14819336 36.53212738 18.94858551
v -105.14819336 36.69856262 18.54677773
v -105.14819336 36.96332169 18.20173836
v -105.14819336 37.30836105 17.93697929
v -105.14819336 37.71016693 17.77054405
v -105.14819336 38.14136124 17.71377754
v -105.14819336 38.57255173 17.77054405
v -105.14819336 38.97436142 17.93697929
v -105.14819336 39.31940079 18.20173836
v -105.14819336 39.58415985 18.54677773
v -105.14819336 39.75059128 18.94858551
v -105.14819336 39.80736160 19.37977791
v -105.14819336 39.75059128 19.81097031
v -105.14819336 39.58415985 20.21277809
v -105.14819336 39.31940079 20.55781746
v -105.14819336 38.97436142 20.82257652
v -105.14819336 80.84729767 20.98900986
v -105.14819336 80.41610718 21.04577637
v -105.14819336 79.98490906 20.98900986
v -105.14819336 79.58310699 20.82257652
v -105.14819336 79.23806763 20.55781746
v -105.14819336 78.97330475 20.21277809
v -105.14819336 78.80686951 19.81097031
v -105.14819336 78.75010681 19.37977791
v -105.14819336 78.80686951 18.94858551
v -105.14819336 78.97330475 18.54677773
v -105.14819336 79.23806763 18.20173836
v -105.14819336 79.58310699 17.93697929
v -105.14819336 79.98490906 17.77054405
v -105.14819336 80.41610718 17.71377754
v -105.14819336 80.84729767 17.77054405
v -105.14819336 81.24910736 17.93697929
v -105.14819336 81.59414673 18.20173836
v -105.14819336 81.85890198 18.54677773
v -105.14819336 82.02533722 18.94858551
v -105.14819336 82.08210754 19.37977791
v -105.14819336 82.02533722 19.81097031
v -105.14819336 81.85890198 20.21277809
v -105.14819336 81.59414673 20.55781746
v -105.14819336 81.24910736 20.82257652
v -105.14819336 100.41610718 24.37977791
v -105.14819336 100.41610718 14.37977695
v -105.14819336 18.14136124 24.37977791
v -105.14819336 18.14136124 14.37977695
v -55.00151443 18.14136124 24.37977791
v -55.00151443 18.14136124 14.37977695
v -105.14819336 18.14136124 24.37977791
v -105.14819336 18.14136124 14.37977695
v -85.95488739 58.02530289 14.37977695
v -86.01451874 59.22011948 14.37977695
v -85.95488739 60.41493225 14.37977695
v -85.77658844 61.59787369 14.37977695
v -85.77658844 56.84236526 14.37977695
v -85.48139191 55.68305588 14.37977695
v -85.07222748 54.55889893 14.37977695
v -84.55317688 53.48107147 14.37977695
v -83.92938232 52.46027756 14.37977695
v -83.20704651 51.50666809 14.37977695
v -82.39335632 50.62971497 14.37977695
v -81.49639130 49.83813858 14.37977695
v -80.52507019 49.13980865 14.37977695
v -79.48904419 48.54165649 14.37977695
v -78.39860535 48.04963303 14.37977695
v -77.26460266 47.66862869 14.37977695
v -76.09829712 47.40242386 14.37977695
v -74.91127777 47.25367355 14.37977695
v -73.71534729 47.22384644 14.37977695
v -72.52239227 47.31324768 14.37977695
v -71.34426117 47.52098465 14.37977695
v -70.19267273 47.84498978 14.37977695
v -69.07907104 48.28204727 14.37977695
v -68.01451874 48.82781219 14.37977695
v -67.00959015 49.47686386 14.37977695
v -66.07428741 50.22274399 14.37977695
v -65.21789551 51.05804443 14.37977695
v -64.44892883 51.97446442 14.37977695
v -63.77502441 52.96289444 14.37977695
v -63.20288849 54.01351166 14.37977695
v -62.73820496 55.11587524 14.37977695
v -62.38558960 56.25902939 14.37977695
v -62.14854431 57.43161011 14.37977695
v -62.02943420 58.62196732 14.37977695
v -62.02943420 59.81826782 14.37977695
v -62.14854431 61.00862503 14.37977695
v -62.38558960 62.18120575 14.37977695
v -62.73820496 63.32435989 14.37977695
v -63.20288849 64.42671967 14.37977695
v -63.77502441 65.47734070 14.37977695
v -64.44892883 66.46577454 14.37977695
v -65.21789551 67.38219452 14.37977695
v -66.07428741 68.21749115 14.37977695
v -67.00959015 68.96337128 14.37977695
v -68.01451874 69.61241913 14.37977695
v -69.07907104 70.15818787 14.37977695
v -70.19267273 70.59524536 14.37977695
v -71.34426117 70.91925049 14.37977695
v -72.52239227 71.12699127 14.37977695
v -73.71534729 71.21638489 14.37977695
v -74.91127777 71.18656158 14.37977695
v -76.09829712 71.03781128 14.37977695
v -77.26460266 70.77160645 14.37977695
v -78.39860535 70.39060211 14.37977695
v -79.48904419 69.89858246 14.37977695
v -80.52507019 69.30043030 14.37977695
v -81.49639130 68.60209656 14.37977695
v -82.39335632 67.81052399 14.37977695
v -83.20704651 66.93357086 14.37977695
v -83.92938232 65.97995758 14.37977695
v -84.55317688 64.95916748 14.37977695
v -85.07222748 63.88133621 14.37977695
v -85.48139191 62.75717926 14.37977695
v -55.00151443 100.41610718 14.37977695
v -55.00151443 18.14136124 14.37977695
v -105.14819336 100.41610718 14.37977695
v -105.14819336 18.14136124 14.37977695
v -85.88722992 60.42844009 24.37977791
v -85.51451874 60.48461914 24.37977791
v -85.14179993 60.42844009 24.37977791
v -84.80220032 60.26489639 24.37977791
v -84.52588654 60.00852203 24.37977791
v -84.33742523 59.68209076 24.37977791
v -84.25355530 59.31461334 24.37977791
v -84.28172302 58.93873978 24.37977791
v -84.41942596 58.58786774 24.37977791
v -84.65443420 58.29317474 24.37977791
v -84.96586609 58.08084106 24.37977791
v -85.32604980 57.96974182 24.37977791
v -85.70298004 57.96974182 24.37977791
v -86.06316376 58.08084106 24.37977791
v -86.37459564 58.29317474 24.37977791
v -86.60960388 58.58786774 24.37977791
v -86.74731445 58.93873978 24.37977791
v -86.77548218 59.31461334 24.37977791
v -86.69160461 59.68209076 24.37977791
v -86.50314331 60.00852203 24.37977791
v -86.22683716 60.26489639 24.37977791
v -62.88723373 60.42844009 24.37977791
v -62.51451492 60.48461914 24.37977791
v -62.14179611 60.42844009 24.37977791
v -61.80219650 60.26489639 24.37977791
v -61.52589035 60.00852203 24.37977791
v -61.33742523 59.68209076 24.37977791
v -61.25355148 59.31461334 24.37977791
v -61.28171921 58.93873978 24.37977791
v -61.41942596 58.58786774 24.37977791
v -61.65443802 58.29317474 24.37977791
v -61.96586990 58.08084106 24.37977791
v -62.32605362 57.96974182 24.37977791
v -62.70298004 57.96974182 24.37977791
v -63.06315994 58.08084106 24.37977791
v -63.37459564 58.29317474 24.37977791
v -63.60960388 58.58786774 24.37977791
v -63.74731064 58.93873978 24.37977791
v -63.77547836 59.31461334 24.37977791
v -63.69160461 59.68209076 24.37977791
v -63.50314331 60.00852203 24.37977791
v -63.22683334 60.26489639 24.37977791
v -74.38722992 71.92843628 24.37977791
v -74.01451874 71.98461914 24.37977791
v -73.64179993 71.92843628 24.37977791
v -73.30220032 71.76490021 24.37977791
v -73.02588654 71.50852203 24.37977791
v -72.83742523 71.18209076 24.37977791
v -72.75355530 70.81461334 24.37977791
v -72.78172302 70.43874359 24.37977791
v -72.91942596 70.08786774 24.37977791
v -73.15443420 69.79317474 24.37977791
v -73.46586609 69.58084106 24.37977791
v -73.82604980 69.46974182 24.37977791
v -74.20298004 69.46974182 24.37977791
v -74.56316376 69.58084106 24.37977791
v -74.87459564 69.79317474 24.37977791
v -75.10960388 70.08786774 24.37977791
v -75.24731445 70.43874359 24.37977791
v -75.27548218 70.81461334 24.37977791
v -75.19160461 71.18209076 24.37977791
v -75.00314331 71.50852203 24.37977791
v -74.72683716 71.76490021 24.37977791
v -74.38722992 48.92844009 24.37977791
v -74.01451874 48.98461914 24.37977791
v -73.64179993 48.92844009 24.37977791
v -73.30220032 48.76489639 24.37977791
v -73.02588654 48.50852203 24.37977791
v -72.83742523 48.18209076 24.37977791
v -72.75355530 47.81461334 24.37977791
v -72.78172302 47.43873978 24.37977791
v -72.91942596 47.08786774 24.37977791
v -73.15443420 46.79317474 24.37977791
v -73.46586609 46.58084106 24.37977791
v -73.82604980 46.46974182 24.37977791
v -74.20298004 46.46974182 24.37977791
v -74.56316376 46.58084106 24.37977791
v -74.87459564 46.79317474 24.37977791
v -75.10960388 47.08786774 24.37977791
v -75.24731445 47.43873978 24.37977791
v -75.27548218 47.81461334 24.37977791
v -75.19160461 48.18209076 24.37977791
v -75.00314331 48.50852203 24.37977791
v -74.72683716 48.76489639 24.37977791
v -65.57417297 58.21479797 24.37977791
v -65.51451874 59.22011948 24.37977791
v -65.57417297 60.22544098 24.37977791
v -65.75231934 61.21664810 24.37977791
v -66.04644775 62.17983246 24.37977791
v -66.45243073 63.10146713 24.37977791
v -66.96456909 63.96861649 24.37977791
v -67.57566833 64.76910400 24.37977791
v -68.27716064 65.49169922 24.37977791
v -69.05918884 66.12625885 24.37977791
v -69.91078186 66.66386414 24.37977791
v -70.81998444 67.09697723 24.37977791
v -71.77402496 67.41951752 24.37977791
v -72.75952148 67.62696075 24.37977791
v -73.76263428 67.71638489 24.37977791
v -74.76927948 67.68653870 24.37977791
v -75.76533508 67.53784943 24.37977791
v -76.73680878 67.27239227 24.37977791
v -77.67006683 66.89389801 24.37977791
v -78.55201721 66.40768433 24.37977791
v -79.37026215 65.82057190 24.37977791
v -80.11332703 65.14080048 24.37977791
v -80.77077484 64.37792206 24.37977791
v -81.33338928 63.54263306 24.37977791
v -81.79325104 62.64666748 24.37977791
v -82.14392090 61.70260239 24.37977791
v -82.38047791 60.72368622 24.37977791
v -82.49958801 59.72366333 24.37977791
v -82.49958801 58.71657181 24.37977791
v -82.38047791 57.71654892 24.37977791
v -82.14392090 56.73763657 24.37977791
v -81.79325104 55.79356766 24.37977791
v -81.33338928 54.89760208 24.37977791
v -80.77077484 54.06231689 24.37977791
v -80.11332703 53.29943466 24.37977791
v -79.37026215 52.61966705 24.37977791
v -78.55201721 52.03255081 24.37977791
v -77.67006683 51.54633713 24.37977791
v -76.73680878 51.16784286 24.37977791
v -75.76533508 50.90238953 24.37977791
v -74.76927948 50.75369263 24.37977791
v -73.76263428 50.72385025 24.37977791
v -72.75952148 50.81327820 24.37977791
v -71.77402496 51.02071381 24.37977791
v -70.81998444 51.34325790 24.37977791
v -69.91078186 51.77637100 24.37977791
v -69.05918884 52.31398010 24.37977791
v -68.27716064 52.94853592 24.37977791
v -67.57566833 53.67113113 24.37977791
v -66.96456909 54.47162247 24.37977791
v -66.45243073 55.33876801 24.37977791
v -66.04644775 56.26040268 24.37977791
v -65.75231934 57.22358704 24.37977791
v -55.00151443 100.41610718 24.37977791
v -55.00151443 18.14136124 24.37977791
v -105.14819336 100.41610718 24.37977791
v -105.14819336 18.14136124 24.37977791
f 1 2 3
f 3 2 4
f 3 4 5
f 5 4 6
f 5 6 7
f 7 6 8
f 7 8 9
f 9 8 10
f 9 10 11
f 11 10 12
f 11 12 13
f 13 12 14
f 13 14 15
f 15 14 16
f 15 16 17
f 17 16 18
f 17 18 19
f 19 18 20
f 19 20 21
f 21 20 22
f 21 22 23
f 23 22 24
f 23 24 25
f 25 24 26
f 25 26 27
f 27 26 28
f 27 28 29
f 29 28 30
f 29 30 31
f 31 30 32
f 31 32 33
f 33 32 34
f 33 34 35
f 35 34 36
f 35 36 37
f 37 36 38
f 37 38 39
f 39 38 40
f 39 40 41
f 41 40 42
f 41 42 1
f 1 42 2
f 44 43 58
f 58 43 63
f 58 63 62
f 62 61 58
f 58 61 60
f 58 60 59
f 57 49 58
f 58 49 48
f 58 48 47
f 49 57 50
f 50 57 56
f 50 56 51
f 51 56 55
f 51 55 52
f 52 55 54
f 52 54 53
f 47 46 58
f 58 46 45
f 58 45 44
f 64 65 66
f 66 65 67
f 66 67 68
f 68 67 69
f 68 69 70
f 70 69 71
f 70 71 72
f 72 71 73
f 72 73 74
f 74 73 75
f 74 75 76
f 76 75 77
f 76 77 78
f 78 77 79
f 78 79 80
f 80 79 81
f 80 81 82
f 82 81 83
f 82 83 84
f 84 83 85
f 84 85 86
f 86 85 87
f 86 87 88
f 88 87 89
f 88 89 90
f 90 89 91
f 90 91 92
f 92 91 93
f 92 93 94
f 94 93 95
f 94 95 96
f 96 95 97
f 96 97 98
f 98 97 99
f 98 99 100
f 100 99 101
f 100 101 102
f 102 101 103
f 102 103 104
f 104 103 105
f 104 105 64
f 64 105 65
f 107 106 121
f 121 106 126
f 121 126 125
f 125 124 121
f 121 124 123
f 121 123 122
f 120 112 121
f 121 112 111
f 121 111 110
f 112 120 113
f 113 120 119
f 113 119 114
f 114 119 118
f 114 118 115
f 115 118 117
f 115 117 116
f 110 109 121
f 121 109 108
f 121 108 107
f 127 128 129
f 129 128 130
f 129 130 131
f 131 130 132
f 131 132 133
f 133 132 134
f 133 134 135
f 135 134 136
f 135 136 137
f 137 136 138
f 137 138 139
f 139 138 140
f 139 140 141
f 141 140 142
f 141 142 143
f 143 142 144
f 143 144 145
f 145 144 146
f 145 146 147
f 147 146 148
f 147 148 149
f 149 148 150
f 149 150 151
f 151 150 152
f 151 152 153
f 153 152 154
f 153 154 155
f 155 154 156
f 155 156 157
f 157 156 158
f 157 158 159
f 159 158 160
f 159 160 161
f 161 160 162
f 161 162 163
f 163 162 164
f 163 164 165
f 165 164 166
f 165 166 167
f 167 166 168
f 167 168 127
f 127 168 128
f 170 169 184
f 184 169 189
f 184 189 188
f 188 187 184
f 184 187 186
f 184 186 185
f 183 175 184
f 184 175 174
f 184 174 173
f 175 183 176
f 176 183 182
f 176 182 177
f 177 182 181
f 177 181 178
f 178 181 180
f 178 180 179
f 173 172 184
f 184 172 171
f 184 171 170
f 190 191 192
f 192 191 193
f 192 193 194
f 194 193 195
f 194 195 196
f 196 195 197
f 196 197 198
f 198 197 199
f 198 199 200
f 200 199 201
f 200 201 202
f 202 201 203
f 202 203 204
f 204 203 205
f 204 205 206
f 206 205 207
f 206 207 208
f 208 207 209
f 208 209 210
f 210 209 211
f 210 211 212
f 212 211 213
f 212 213 214
f 214 213 215
f 214 215 216
f 216 215 217
f 216 217 218
f 218 217 219
f 218 219 220
f 220 219 221
f 220 221 222
f 222 221 223
f 222 223 224
f 224 223 225
f 224 225 226
f 226 225 227
f 226 227 228
f 228 227 229
f 228 229 230
f 230 229 231
f 230 231 190
f 190 231 191
f 233 232 247
f 247 232 252
f 247 252 251
f 251 250 247
f 247 250 249
f 247 249 248
f 246 238 247
f 247 238 237
f 247 237 236
f 238 246 239
f 239 246 245
f 239 245 240
f 240 245 244
f 240 244 241
f 241 244 243
f 241 243 242
f 236 235 247
f 247 235 234
f 247 234 233
f 253 254 255
f 255 254 256
f 255 256 257
f 257 256 258
f 257 258 259
f 253 260 254
f 254 260 261
f 261 260 262
f 261 262 263
f 263 262 264
f 263 264 265
f 265 264 266
f 265 266 267
f 267 266 268
f 267 268 269
f 269 268 270
f 269 270 271
f 271 270 272
f 271 272 273
f 273 272 274
f 273 274 275
f 275 274 276
f 275 276 277
f 277 276 278
f 277 278 279
f 279 278 280
f 279 280 281
f 281 280 282
f 281 282 283
f 283 282 284
f 283 284 285
f 285 284 286
f 285 286 287
f 287 286 288
f 287 288 289
f 289 288 290
f 289 290 291
f 291 290 292
f 291 292 293
f 293 292 294
f 293 294 295
f 295 294 296
f 295 296 297
f 297 296 298
f 297 298 299
f 299 298 300
f 299 300 301
f 301 300 302
f 301 302 303
f 303 302 304
f 303 304 305
f 305 304 306
f 305 306 307
f 307 306 308
f 307 308 309
f 309 308 310
f 309 310 311
f 311 310 312
f 311 312 313
f 313 312 314
f 313 314 315
f 315 314 316
f 315 316 317
f 317 316 318
f 317 318 319
f 319 318 320
f 319 320 321
f 321 320 322
f 321 322 323
f 323 322 324
f 323 324 325
f 325 324 326
f 325 326 327
f 327 326 328
f 327 328 329
f 329 328 330
f 329 330 259
f 259 330 257
f 331 332 333
f 333 332 334
f 333 334 335
f 335 334 336
f 335 336 337
f 331 338 332
f 332 338 339
f 339 338 340
f 339 340 341
f 341 340 342
f 341 342 343
f 343 342 344
f 343 344 345
f 345 344 346
f 345 346 347
f 347 346 348
f 347 348 349
f 349 348 350
f 349 350 351
f 351 350 352
f 351 352 353
f 353 352 354
f 353 354 355
f 355 354 356
f 355 356 357
f 357 356 358
f 357 358 359
f 359 358 360
f 359 360 361
f 361 360 362
f 361 362 363
f 363 362 364
f 363 364 365
f 365 364 366
f 365 366 367
f 367 366 368
f 367 368 369
f 369 368 370
f 369 370 371
f 371 370 372
f 371 372 373
f 373 372 374
f 373 374 375
f 375 374 376
f 375 376 377
f 377 376 378
f 377 378 379
f 379 378 380
f 379 380 381
f 381 380 382
f 381 382 383
f 383 382 384
f 383 384 385
f 385 384 386
f 385 386 387
f 387 386 388
f 387 388 389
f 389 388 390
f 389 390 391
f 391 390 392
f 391 392 393
f 393 392 394
f 393 394 395
f 395 394 396
f 395 396 397
f 397 396 398
f 397 398 399
f 399 398 400
f 399 400 401
f 401 400 402
f 401 402 403
f 403 402 404
f 403 404 405
f 405 404 406
f 405 406 407
f 407 406 408
f 407 408 409
f 409 408 410
f 409 410 411
f 411 410 412
f 411 412 413
f 413 412 414
f 413 414 415
f 415 414 416
f 415 416 417
f 417 416 418
f 417 418 419
f 419 418 420
f 419 420 421
f 421 420 422
f 421 422 423
f 423 422 424
f 423 424 425
f 425 424 426
f 425 426 427
f 427 426 428
f 427 428 429
f 429 428 430
f 429 430 431
f 431 430 432
f 431 432 433
f 433 432 434
f 433 434 435
f 435 434 436
f 435 436 437
f 437 436 438
f 437 438 439
f 439 438 440
f 439 440 441
f 441 440 442
f 441 442 443
f 443 442 444
f 443 444 445
f 445 444 446
f 445 446 447
f 447 446 448
f 447 448 449
f 449 448 450
f 449 450 451
f 451 450 452
f 451 452 453
f 453 452 454
f 453 454 455
f 455 454 456
f 455 456 337
f 337 456 335
f 457 529 458
f 458 529 528
f 458 528 459
f 459 528 527
f 459 527 526
f 461 531 457
f 457 531 530
f 457 530 529
f 462 533 461
f 461 533 532
f 461 532 531
f 533 462 534
f 534 462 463
f 534 463 535
f 535 463 536
f 536 463 464
f 536 464 537
f 537 464 465
f 537 465 538
f 538 465 539
f 539 465 466
f 539 466 540
f 540 466 541
f 541 466 467
f 541 467 542
f 542 467 468
f 542 468 543
f 543 468 544
f 544 468 469
f 544 469 545
f 545 469 470
f 545 470 546
f 546 470 547
f 547 470 548
f 548 470 549
f 549 470 550
f 550 470 551
f 551 470 552
f 552 470 553
f 553 470 554
f 554 470 471
f 554 471 472
f 472 473 554
f 554 473 555
f 555 473 474
f 555 474 475
f 475 476 555
f 555 476 556
f 556 476 557
f 557 476 477
f 557 477 558
f 558 477 478
f 558 478 498
f 498 478 497
f 497 478 479
f 497 479 496
f 496 479 499
f 499 479 480
f 499 480 500
f 500 480 481
f 500 481 501
f 501 481 502
f 502 481 482
f 502 482 503
f 503 482 483
f 503 483 504
f 504 483 505
f 505 483 484
f 505 484 506
f 506 484 507
f 507 484 485
f 507 485 508
f 508 485 486
f 508 486 509
f 509 486 510
f 510 486 487
f 510 487 511
f 511 487 512
f 512 487 488
f 512 488 513
f 513 488 489
f 513 489 514
f 514 489 515
f 515 489 490
f 515 490 516
f 516 490 491
f 516 491 517
f 517 491 518
f 518 491 492
f 518 492 519
f 519 492 520
f 520 492 493
f 520 493 521
f 521 493 494
f 521 494 522
f 522 494 523
f 523 494 495
f 523 495 524
f 524 495 460
f 524 460 525
f 525 460 526
f 526 460 459
f 559 560 561
f 561 560 562
f 561 562 563
f 563 562 564
f 563 564 565
f 565 564 566
f 565 566 567
f 567 566 568
f 567 568 569
f 569 568 570
f 569 570 571
f 571 570 572
f 571 572 573
f 573 572 574
f 573 574 575
f 575 574 576
f 575 576 577
f 577 576 578
f 577 578 579
f 579 578 580
f 579 580 581
f 581 580 582
f 581 582 583
f 583 582 584
f 583 584 585
f 585 584 586
f 585 586 587
f 587 586 588
f 587 588 589
f 589 588 590
f 589 590 591
f 591 590 592
f 591 592 593
f 593 592 594
f 593 594 595
f 595 594 596
f 595 596 597
f 597 596 598
f 597 598 599
f 599 598 600
f 599 600 601
f 601 600 602
f 601 602 603
f 603 602 604
f 603 604 605
f 605 604 606
f 605 606 607
f 607 606 608
f 607 608 609
f 609 608 610
f 609 610 611
f 611 610 612
f 611 612 613
f 613 612 614
f 613 614 615
f 615 614 616
f 615 616 617
f 617 616 618
f 617 618 619
f 619 618 620
f 619 620 621
f 621 620 622
f 621 622 623
f 623 622 624
f 623 624 625
f 625 624 626
f 625 626 627
f 627 626 628
f 627 628 629
f 629 628 630
f 629 630 631
f 631 630 632
f 631 632 633
f 633 632 634
f 633 634 635
f 635 634 636
f 635 636 637
f 637 636 638
f 637 638 639
f 639 638 640
f 639 640 641
f 641 640 642
f 641 642 643
f 643 642 644
f 643 644 645
f 645 644 646
f 645 646 647
f 647 646 648
f 647 648 649
f 649 648 650
f 649 650 651
f 651 650 652
f 651 652 653
f 653 652 654
f 653 654 655
f 655 654 656
f 655 656 657
f 657 656 658
f 657 658 659
f 659 658 660
f 659 660 661
f 661 660 662
f 661 662 663
f 663 662 664
f 663 664 559
f 559 664 560
f 667 704 666
f 666 704 705
f 666 705 706
f 704 667 756
f 756 667 703
f 756 703 755
f 755 703 702
f 755 702 754
f 754 702 753
f 753 702 701
f 753 701 752
f 752 701 700
f 752 700 751
f 751 700 699
f 751 699 750
f 750 699 749
f 749 699 698
f 749 698 748
f 748 698 697
f 748 697 747
f 747 697 746
f 746 697 696
f 746 696 745
f 745 696 695
f 745 695 744
f 744 695 694
f 744 694 743
f 743 694 742
f 742 694 693
f 742 693 741
f 741 693 692
f 741 692 740
f 740 692 691
f 740 691 739
f 739 691 738
f 738 691 690
f 738 690 737
f 737 690 689
f 737 689 736
f 736 689 688
f 736 688 735
f 735 688 734
f 734 688 687
f 734 687 733
f 733 687 686
f 733 686 732
f 732 686 731
f 731 686 685
f 731 685 730
f 730 685 684
f 730 684 729
f 729 684 683
f 729 683 728
f 728 683 727
f 727 683 682
f 727 682 726
f 726 682 681
f 726 681 725
f 725 681 680
f 725 680 724
f 724 680 723
f 723 680 679
f 723 679 722
f 722 679 678
f 722 678 721
f 721 678 677
f 721 677 720
f 720 677 719
f 719 677 676
f 719 676 718
f 718 676 675
f 718 675 717
f 717 675 674
f 717 674 716
f 716 674 715
f 715 674 673
f 715 673 714
f 714 673 672
f 714 672 713
f 713 672 712
f 712 672 671
f 712 671 711
f 711 671 670
f 711 670 710
f 710 670 669
f 710 669 709
f 709 669 708
f 708 669 668
f 708 668 707
f 707 668 665
f 707 665 706
f 706 665 666
f 757 758 759
f 759 758 760
f 759 760 761
f 761 760 762
f 761 762 763
f 763 762 764
f 763 764 765
f 765 764 766
f 765 766 767
f 767 766 768
f 767 768 769
f 769 768 770
f 769 770 771
f 771 770 772
f 771 772 773
f 773 772 774
f 773 774 775
f 775 774 776
f 775 776 777
f 777 776 778
f 777 778 779
f 779 778 780
f 779 780 781
f 781 780 782
f 781 782 783
f 783 782 784
f 783 784 785
f 785 784 786
f 785 786 787
f 787 786 788
f 787 788 789
f 789 788 790
f 789 790 791
f 791 790 792
f 791 792 793
f 793 792 794
f 793 794 795
f 795 794 796
f 795 796 797
f 797 796 798
f 797 798 799
f 799 798 800
f 799 800 801
f 801 800 802
f 801 802 803
f 803 802 804
f 803 804 757
f 757 804 758
f 805 786 806
f 806 786 784
f 806 784 807
f 807 784 782
f 807 782 808
f 808 782 780
f 808 780 809
f 809 780 778
f 809 778 810
f 810 778 776
f 810 776 811
f 811 776 774
f 811 774 812
f 812 774 772
f 812 772 813
f 813 772 770
f 813 770 814
f 814 770 768
f 814 768 815
f 815 768 766
f 815 766 816
f 816 766 764
f 816 764 817
f 817 764 762
f 817 762 818
f 818 762 760
f 818 760 819
f 819 760 758
f 819 758 820
f 820 758 804
f 820 804 821
f 821 804 802
f 821 802 822
f 822 802 800
f 822 800 823
f 823 800 798
f 823 798 824
f 824 798 796
f 824 796 825
f 825 796 794
f 825 794 826
f 826 794 792
f 826 792 827
f 827 792 790
f 827 790 828
f 828 790 788
f 828 788 805
f 805 788 786
f 831 841 830
f 830 841 842
f 830 842 829
f 829 842 843
f 829 843 852
f 852 843 844
f 852 844 851
f 851 844 845
f 851 845 850
f 850 845 846
f 850 846 849
f 849 846 847
f 849 847 848
f 841 831 840
f 840 831 832
f 840 832 839
f 839 832 833
f 839 833 838
f 838 833 834
f 838 834 837
f 837 834 835
f 837 835 836
f 853 854 855
f 855 854 856
f 855 856 857
f 857 856 858
f 857 858 859
f 859 858 860
f 859 860 861
f 861 860 862
f 861 862 863
f 863 862 864
f 863 864 865
f 865 864 866
f 865 866 867
f 867 866 868
f 867 868 869
f 869 868 870
f 869 870 871
f 871 870 872
f 871 872 873
f 873 872 874
f 873 874 875
f 875 874 876
f 875 876 877
f 877 876 878
f 877 878 879
f 879 878 880
f 879 880 881
f 881 880 882
f 881 882 883
f 883 882 884
f 883 884 885
f 885 884 886
f 885 886 887
f 887 886 888
f 887 888 889
f 889 888 890
f 889 890 891
f 891 890 892
f 891 892 893
f 893 892 894
f 893 894 895
f 895 894 896
f 895 896 897
f 897 896 898
f 897 898 899
f 899 898 900
f 899 900 853
f 853 900 854
f 901 882 902
f 902 882 880
f 902 880 903
f 903 880 878
f 903 878 904
f 904 878 876
f 904 876 905
f 905 876 874
f 905 874 906
f 906 874 872
f 906 872 907
f 907 872 870
f 907 870 908
f 908 870 868
f 908 868 909
f 909 868 866
f 909 866 910
f 910 866 864
f 910 864 911
f 911 864 862
f 911 862 912
f 912 862 860
f 912 860 913
f 913 860 858
f 913 858 914
f 914 858 856
f 914 856 915
f 915 856 854
f 915 854 916
f 916 854 900
f 916 900 917
f 917 900 898
f 917 898 918
f 918 898 896
f 918 896 919
f 919 896 894
f 919 894 920
f 920 894 892
f 920 892 921
f 921 892 890
f 921 890 922
f 922 890 888
f 922 888 923
f 923 888 886
f 923 886 924
f 924 886 884
f 924 884 901
f 901 884 882
f 927 937 926
f 926 937 938
f 926 938 925
f 925 938 939
f 925 939 948
f 948 939 940
f 948 940 947
f 947 940 941
f 947 941 946
f 946 941 942
f 946 942 945
f 945 942 943
f 945 943 944
f 937 927 936
f 936 927 928
f 936 928 935
f 935 928 929
f 935 929 934
f 934 929 930
f 934 930 933
f 933 930 931
f 933 931 932
f 949 950 951
f 951 950 952
f 955 953 956
f 956 953 954
f 959 1007 958
f 958 1007 1005
f 958 1005 982
f 982 1005 981
f 981 1005 1004
f 1004 1005 1003
f 1003 1005 1002
f 1002 1005 1001
f 1001 1005 1000
f 1000 1005 1006
f 1000 1006 999
f 999 1006 998
f 998 1006 997
f 997 1006 996
f 996 1006 995
f 995 1006 994
f 994 1006 1008
f 994 1008 970
f 970 1008 969
f 969 1008 968
f 968 1008 967
f 967 1008 966
f 966 1008 965
f 965 1008 964
f 964 1008 1007
f 964 1007 963
f 963 1007 962
f 962 1007 961
f 961 1007 960
f 960 1007 959
f 994 970 993
f 993 970 971
f 993 971 992
f 992 971 972
f 992 972 991
f 991 972 973
f 991 973 990
f 990 973 974
f 990 974 989
f 989 974 975
f 989 975 988
f 988 975 976
f 988 976 987
f 987 976 977
f 987 977 986
f 986 977 978
f 986 978 985
f 985 978 979
f 985 979 984
f 984 979 980
f 984 980 983
f 983 980 957
f 983 957 982
f 982 957 958
f 1009 1011 1010
f 1010 1011 1012
f 1063 1076 1062
f 1062 1076 1061
f 1056 1076 1055
f 1057 1076 1056
f 1028 1079 1027
f 1029 1079 1028
f 1029 1077 1079
f 1030 1077 1029
f 1031 1077 1030
f 1032 1077 1031
f 1064 1076 1063
f 1064 1078 1076
f 1065 1078 1064
f 1066 1078 1065
f 1067 1078 1066
f 1068 1078 1067
f 1069 1078 1068
f 1070 1078 1069
f 1071 1078 1070
f 1072 1078 1071
f 1043 1077 1042
f 1044 1077 1043
f 1045 1077 1044
f 1046 1077 1045
f 1047 1077 1046
f 1047 1076 1077
f 1014 1079 1078
f 1013 1079 1014
f 1058 1076 1057
f 1059 1076 1058
f 1060 1076 1059
f 1061 1076 1060
f 1055 1076 1054
f 1054 1076 1053
f 1036 1077 1035
f 1035 1077 1034
f 1034 1077 1033
f 1018 1079 1017
f 1019 1079 1018
f 1020 1079 1019
f 1023 1079 1022
f 1022 1079 1021
f 1021 1079 1020
f 1033 1077 1032
f 1024 1079 1023
f 1025 1079 1024
f 1027 1079 1026
f 1026 1079 1025
f 1038 1077 1037
f 1037 1077 1036
f 1048 1076 1047
f 1049 1076 1048
f 1050 1076 1049
f 1042 1077 1041
f 1040 1077 1039
f 1041 1077 1040
f 1039 1077 1038
f 1017 1079 1013
f 1052 1076 1051
f 1053 1076 1052
f 1051 1076 1050
f 1074 1078 1073
f 1075 1078 1074
f 1016 1078 1075
f 1073 1078 1072
f 1015 1078 1016
f 1014 1078 1015
f 1219 1122 1217
f 1143 1144 1205
f 1159 1200 1158
f 1218 1156 1220
f 1220 1156 1157
f 1182 1140 1183
f 1183 1140 1184
f 1218 1154 1155
f 1218 1155 1156
f 1220 1157 1158
f 1219 1142 1122
f 1181 1139 1182
f 1182 1139 1140
f 1202 1160 1161
f 1201 1160 1202
f 1158 1200 1199
f 1158 1199 1220
f 1200 1159 1201
f 1201 1159 1160
f 1220 1199 1198
f 1220 1198 1197
f 1204 1162 1163
f 1203 1162 1204
f 1184 1140 1219
f 1140 1141 1219
f 1219 1141 1142
f 1082 1188 1081
f 1080 1187 1186
f 1080 1186 1219
f 1193 1087 1088
f 1193 1088 1089
f 1193 1089 1194
f 1194 1089 1090
f 1192 1086 1087
f 1192 1087 1193
f 1220 1096 1097
f 1220 1097 1219
f 1219 1097 1098
f 1219 1098 1099
f 1099 1100 1219
f 1219 1100 1080
f 1219 1186 1185
f 1219 1185 1184
f 1082 1083 1188
f 1188 1083 1189
f 1189 1083 1084
f 1189 1084 1190
f 1190 1084 1085
f 1190 1085 1191
f 1191 1085 1086
f 1191 1086 1192
f 1118 1166 1165
f 1118 1165 1117
f 1117 1165 1164
f 1117 1164 1116
f 1202 1161 1203
f 1081 1187 1080
f 1081 1188 1187
f 1203 1161 1162
f 1204 1163 1143
f 1153 1154 1218
f 1196 1091 1092
f 1195 1091 1196
f 1195 1090 1091
f 1194 1090 1195
f 1116 1216 1115
f 1116 1164 1216
f 1196 1092 1197
f 1197 1092 1093
f 1103 1217 1171
f 1103 1171 1170
f 1197 1093 1220
f 1220 1093 1094
f 1220 1094 1095
f 1095 1096 1220
f 1218 1211 1210
f 1104 1217 1103
f 1101 1168 1121
f 1121 1168 1167
f 1121 1167 1120
f 1120 1167 1166
f 1120 1166 1119
f 1119 1166 1118
f 1217 1126 1127
f 1217 1127 1173
f 1173 1127 1174
f 1174 1127 1128
f 1104 1105 1217
f 1217 1105 1106
f 1103 1170 1102
f 1102 1170 1169
f 1102 1169 1101
f 1101 1169 1168
f 1113 1214 1112
f 1112 1214 1213
f 1112 1213 1111
f 1111 1213 1212
f 1111 1212 1218
f 1218 1212 1211
f 1179 1135 1136
f 1179 1136 1180
f 1180 1136 1137
f 1180 1137 1138
f 1180 1138 1181
f 1181 1138 1139
f 1217 1106 1107
f 1217 1107 1218
f 1218 1107 1108
f 1218 1108 1109
f 1109 1110 1218
f 1218 1110 1111
f 1122 1123 1217
f 1217 1123 1124
f 1217 1124 1125
f 1125 1126 1217
f 1205 1144 1145
f 1205 1145 1146
f 1205 1146 1206
f 1206 1146 1147
f 1174 1128 1175
f 1175 1128 1129
f 1115 1216 1215
f 1115 1215 1114
f 1114 1215 1214
f 1114 1214 1113
f 1177 1130 1131
f 1176 1130 1177
f 1176 1129 1130
f 1175 1129 1176
f 1206 1148 1207
f 1206 1147 1148
f 1177 1131 1132
f 1177 1132 1178
f 1178 1134 1179
f 1179 1134 1135
f 1178 1132 1133
f 1178 1133 1134
f 1218 1152 1153
f 1218 1151 1152
f 1210 1151 1218
f 1210 1150 1151
f 1209 1150 1210
f 1208 1150 1209
f 1208 1149 1150
f 1207 1149 1208
f 1207 1148 1149
f 1204 1143 1205
f 1173 1172 1217
f 1217 1172 1171

