# https://github.com/mikedh/trimesh

o F_Back_1.stl
v -106.64819336 37.67043686 44.59851456
v -105.64716339 37.20106888 43.00000000
v -106.64819336 37.20106888 44.66600037
v -106.64819336 38.46014786 44.09099960
v -106.64819336 38.10177612 44.40152740
v -106.64819336 38.85011292 43.23709488
v -106.64819336 38.71651840 43.69208145
v -106.64819336 38.71651840 42.30791855
v -106.64819336 38.85011292 42.76290512
v -106.64819336 38.10177612 41.59847260
v -106.64819336 38.46014786 41.90900040
v -106.64819336 37.20106888 41.33399963
v -106.64819336 37.67043686 41.40148544
v -106.64819336 36.30036163 41.59847260
v -106.64819336 36.73170471 41.40148544
v -106.64819336 35.68562317 42.30791855
v -106.64819336 35.94198990 41.90900040
v -106.64819336 35.55202866 43.23709488
v -106.64819336 35.55202866 42.76290512
v -106.64819336 35.94198990 44.09099960
v -106.64819336 35.68562317 43.69208145
v -106.64819336 36.30036163 44.40152740
v -106.64819336 36.73170471 44.59851456
v -106.64819336 37.67043686 44.59851456
v -106.64819336 37.20106888 44.66600037
v -106.64819336 38.46014786 44.09099960
v -106.64819336 38.10177612 44.40152740
v -106.64819336 38.85011292 43.23709488
v -106.64819336 38.71651840 43.69208145
v -106.64819336 38.71651840 42.30791855
v -106.64819336 38.85011292 42.76290512
v -106.64819336 38.10177612 41.59847260
v -106.64819336 38.46014786 41.90900040
v -106.64819336 37.20106888 41.33399963
v -106.64819336 37.67043686 41.40148544
v -106.64819336 36.30036163 41.59847260
v -106.64819336 36.73170471 41.40148544
v -106.64819336 35.68562317 42.30791855
v -106.64819336 35.94198990 41.90900040
v -106.64819336 35.55202866 43.23709488
v -106.64819336 35.55202866 42.76290512
v -106.64819336 35.94198990 44.09099960
v -106.64819336 35.68562317 43.69208145
v -106.64819336 36.30036163 44.40152740
v -106.64819336 36.73170471 44.59851456
v -110.14819336 36.73170471 41.40148544
v -110.14819336 37.20106888 41.33399963
v -110.14819336 37.67043686 41.40148544
v -110.14819336 38.10177612 41.59847260
v -110.14819336 38.46014786 41.90900040
v -110.14819336 38.71651840 42.30791855
v -110.14819336 38.85011292 42.76290512
v -110.14819336 38.85011292 43.23709488
v -110.14819336 38.71651840 43.69208145
v -110.14819336 38.46014786 44.09099960
v -110.14819336 38.10177612 44.40152740
v -110.14819336 37.67043686 44.59851456
v -110.14819336 37.20106888 44.66600037
v -110.14819336 36.73170471 44.59851456
v -110.14819336 36.30036163 44.40152740
v -110.14819336 35.94198990 44.09099960
v -110.14819336 35.68562317 43.69208145
v -110.14819336 35.55202866 43.23709488
v -110.14819336 35.55202866 42.76290512
v -110.14819336 35.68562317 42.30791855
v -110.14819336 35.94198990 41.90900040
v -110.14819336 36.30036163 41.59847260
v -106.64819336 81.67043304 44.59851456
v -105.64716339 81.20107269 43.00000000
v -106.64819336 81.20107269 44.66600037
v -106.64819336 82.46015167 44.09099960
v -106.64819336 82.10177612 44.40152740
v -106.64819336 82.85011292 43.23709488
v -106.64819336 82.71651459 43.69208145
v -106.64819336 82.71651459 42.30791855
v -106.64819336 82.85011292 42.76290512
v -106.64819336 82.10177612 41.59847260
v -106.64819336 82.46015167 41.90900040
v -106.64819336 81.20107269 41.33399963
v -106.64819336 81.67043304 41.40148544
v -106.64819336 80.30036163 41.59847260
v -106.64819336 80.73170471 41.40148544
v -106.64819336 79.68562317 42.30791855
v -106.64819336 79.94199371 41.90900040
v -106.64819336 79.55202484 43.23709488
v -106.64819336 79.55202484 42.76290512
v -106.64819336 79.94199371 44.09099960
v -106.64819336 79.68562317 43.69208145
v -106.64819336 80.30036163 44.40152740
v -106.64819336 80.73170471 44.59851456
v -106.64819336 81.67043304 44.59851456
v -106.64819336 81.20107269 44.66600037
v -106.64819336 82.46015167 44.09099960
v -106.64819336 82.10177612 44.40152740
v -106.64819336 82.85011292 43.23709488
v -106.64819336 82.71651459 43.69208145
v -106.64819336 82.71651459 42.30791855
v -106.64819336 82.85011292 42.76290512
v -106.64819336 82.10177612 41.59847260
v -106.64819336 82.46015167 41.90900040
v -106.64819336 81.20107269 41.33399963
v -106.64819336 81.67043304 41.40148544
v -106.64819336 80.30036163 41.59847260
v -106.64819336 80.73170471 41.40148544
v -106.64819336 79.68562317 42.30791855
v -106.64819336 79.94199371 41.90900040
v -106.64819336 79.55202484 43.23709488
v -106.64819336 79.55202484 42.76290512
v -106.64819336 79.94199371 44.09099960
v -106.64819336 79.68562317 43.69208145
v -106.64819336 80.30036163 44.40152740
v -106.64819336 80.73170471 44.59851456
v -110.14819336 80.73170471 41.40148544
v -110.14819336 81.20107269 41.33399963
v -110.14819336 81.67043304 41.40148544
v -110.14819336 82.10177612 41.59847260
v -110.14819336 82.46015167 41.90900040
v -110.14819336 82.71651459 42.30791855
v -110.14819336 82.85011292 42.76290512
v -110.14819336 82.85011292 43.23709488
v -110.14819336 82.71651459 43.69208145
v -110.14819336 82.46015167 44.09099960
v -110.14819336 82.10177612 44.40152740
v -110.14819336 81.67043304 44.59851456
v -110.14819336 81.20107269 44.66600037
v -110.14819336 80.73170471 44.59851456
v -110.14819336 80.30036163 44.40152740
v -110.14819336 79.94199371 44.09099960
v -110.14819336 79.68562317 43.69208145
v -110.14819336 79.55202484 43.23709488
v -110.14819336 79.55202484 42.76290512
v -110.14819336 79.68562317 42.30791855
v -110.14819336 79.94199371 41.90900040
v -110.14819336 80.30036163 41.59847260
v -105.14819336 37.67199326 20.97829247
v -110.14819336 37.67199326 20.97829247
v -105.14819336 38.14136124 21.04577637
v -110.14819336 38.14136124 21.04577637
v -105.14819336 38.61072540 20.97829247
v -110.14819336 38.61072540 20.97829247
v -105.14819336 39.04206848 20.78130531
v -110.14819336 39.04206848 20.78130531
v -105.14819336 39.40044022 20.47077560
v -110.14819336 39.40044022 20.47077560
v -105.14819336 39.65680695 20.07185936
v -110.14819336 39.65680695 20.07185936
v -105.14819336 39.79040146 19.61687469
v -110.14819336 39.79040146 19.61687469
v -105.14819336 39.79040146 19.14268112
v -110.14819336 39.79040146 19.14268112
v -105.14819336 39.65680695 18.68769646
v -110.14819336 39.65680695 18.68769646
v -105.14819336 39.40044022 18.28878021
v -110.14819336 39.40044022 18.28878021
v -105.14819336 39.04206848 17.97824860
v -110.14819336 39.04206848 17.97824860
v -105.14819336 38.61072540 17.78126144
v -110.14819336 38.61072540 17.78126144
v -105.14819336 38.14136124 17.71377754
v -110.14819336 38.14136124 17.71377754
v -105.14819336 37.67199326 17.78126144
v -110.14819336 37.67199326 17.78126144
v -105.14819336 37.24065399 17.97824860
v -110.14819336 37.24065399 17.97824860
v -105.14819336 36.88228226 18.28878021
v -110.14819336 36.88228226 18.28878021
v -105.14819336 36.62591171 18.68769646
v -110.14819336 36.62591171 18.68769646
v -105.14819336 36.49231720 19.14268112
v -110.14819336 36.49231720 19.14268112
v -105.14819336 36.49231720 19.61687469
v -110.14819336 36.49231720 19.61687469
v -105.14819336 36.62591171 20.07185936
v -110.14819336 36.62591171 20.07185936
v -105.14819336 36.88228226 20.47077560
v -110.14819336 36.88228226 20.47077560
v -105.14819336 37.24065399 20.78130531
v -110.14819336 37.24065399 20.78130531
v -105.14819336 79.94673920 20.97829247
v -110.14819336 79.94673920 20.97829247
v -105.14819336 80.41610718 21.04577637
v -110.14819336 80.41610718 21.04577637
v -105.14819336 80.88546753 20.97829247
v -110.14819336 80.88546753 20.97829247
v -105.14819336 81.31681061 20.78130531
v -110.14819336 81.31681061 20.78130531
v -105.14819336 81.67518616 20.47077560
v -110.14819336 81.67518616 20.47077560
v -105.14819336 81.93154907 20.07185936
v -110.14819336 81.93154907 20.07185936
v -105.14819336 82.06514740 19.61687469
v -110.14819336 82.06514740 19.61687469
v -105.14819336 82.06514740 19.14268112
v -110.14819336 82.06514740 19.14268112
v -105.14819336 81.93154907 18.68769646
v -110.14819336 81.93154907 18.68769646
v -105.14819336 81.67518616 18.28878021
v -110.14819336 81.67518616 18.28878021
v -105.14819336 81.31681061 17.97824860
v -110.14819336 81.31681061 17.97824860
v -105.14819336 80.88546753 17.78126144
v -110.14819336 80.88546753 17.78126144
v -105.14819336 80.41610718 17.71377754
v -110.14819336 80.41610718 17.71377754
v -105.14819336 79.94673920 17.78126144
v -110.14819336 79.94673920 17.78126144
v -105.14819336 79.51539612 17.97824860
v -110.14819336 79.51539612 17.97824860
v -105.14819336 79.15702820 18.28878021
v -110.14819336 79.15702820 18.28878021
v -105.14819336 78.90065765 18.68769646
v -110.14819336 78.90065765 18.68769646
v -105.14819336 78.76705933 19.14268112
v -110.14819336 78.76705933 19.14268112
v -105.14819336 78.76705933 19.61687469
v -110.14819336 78.76705933 19.61687469
v -105.14819336 78.90065765 20.07185936
v -110.14819336 78.90065765 20.07185936
v -105.14819336 79.15702820 20.47077560
v -110.14819336 79.15702820 20.47077560
v -105.14819336 79.51539612 20.78130531
v -110.14819336 79.51539612 20.78130531
v -108.11756134 31.58455086 48.00000000
v -108.11756134 31.58455086 38.00000000
v -107.64819336 31.65203476 48.00000000
v -107.64819336 31.65203476 38.00000000
v -107.17883301 31.58455086 48.00000000
v -107.17883301 31.58455086 38.00000000
v -106.74748993 31.38756371 48.00000000
v -106.74748993 31.38756371 38.00000000
v -106.38911438 31.07703400 48.00000000
v -106.38911438 31.07703400 38.00000000
v -106.13275146 30.67811584 48.00000000
v -106.13275146 30.67811584 38.00000000
v -105.99915314 30.22313118 48.00000000
v -105.99915314 30.22313118 38.00000000
v -105.99915314 29.74893951 48.00000000
v -105.99915314 29.74893951 38.00000000
v -106.13275146 29.29395294 48.00000000
v -106.13275146 29.29395294 38.00000000
v -106.38911438 28.89503670 48.00000000
v -106.38911438 28.89503670 38.00000000
v -106.74748993 28.58450699 48.00000000
v -106.74748993 28.58450699 38.00000000
v -107.17883301 28.38751984 48.00000000
v -107.17883301 28.38751984 38.00000000
v -107.64819336 28.32003593 48.00000000
v -107.64819336 28.32003593 38.00000000
v -108.11756134 28.38751984 48.00000000
v -108.11756134 28.38751984 38.00000000
v -108.54890442 28.58450699 48.00000000
v -108.54890442 28.58450699 38.00000000
v -108.90727234 28.89503670 48.00000000
v -108.90727234 28.89503670 38.00000000
v -109.16364288 29.29395294 48.00000000
v -109.16364288 29.29395294 38.00000000
v -109.29724121 29.74893951 48.00000000
v -109.29724121 29.74893951 38.00000000
v -109.29724121 30.22313118 48.00000000
v -109.29724121 30.22313118 38.00000000
v -109.16364288 30.67811584 48.00000000
v -109.16364288 30.67811584 38.00000000
v -108.90727234 31.07703400 48.00000000
v -108.90727234 31.07703400 38.00000000
v -108.54890442 31.38756371 48.00000000
v -108.54890442 31.38756371 38.00000000
v -108.11756134 31.58455086 38.00000000
v -107.64819336 31.65203476 38.00000000
v -107.17883301 31.58455086 38.00000000
v -106.74748993 31.38756371 38.00000000
v -106.38911438 31.07703400 38.00000000
v -106.13275146 30.67811584 38.00000000
v -105.99915314 30.22313118 38.00000000
v -105.99915314 29.74893951 38.00000000
v -106.13275146 29.29395294 38.00000000
v -106.38911438 28.89503670 38.00000000
v -106.74748993 28.58450699 38.00000000
v -107.17883301 28.38751984 38.00000000
v -107.64819336 28.32003593 38.00000000
v -108.11756134 28.38751984 38.00000000
v -108.54890442 28.58450699 38.00000000
v -108.90727234 28.89503670 38.00000000
v -109.16364288 29.29395294 38.00000000
v -109.29724121 29.74893951 38.00000000
v -109.29724121 30.22313118 38.00000000
v -109.16364288 30.67811584 38.00000000
v -108.90727234 31.07703400 38.00000000
v -108.54890442 31.38756371 38.00000000
v -108.11756134 90.01461792 48.00000000
v -108.11756134 90.01461792 38.00000000
v -107.64819336 90.08210754 48.00000000
v -107.64819336 90.08210754 38.00000000
v -107.17883301 90.01461792 48.00000000
v -107.17883301 90.01461792 38.00000000
v -106.74748993 89.81763458 48.00000000
v -106.74748993 89.81763458 38.00000000
v -106.38911438 89.50710297 48.00000000
v -106.38911438 89.50710297 38.00000000
v -106.13275146 89.10818481 48.00000000
v -106.13275146 89.10818481 38.00000000
v -105.99915314 88.65319824 48.00000000
v -105.99915314 88.65319824 38.00000000
v -105.99915314 88.17900848 48.00000000
v -105.99915314 88.17900848 38.00000000
v -106.13275146 87.72402191 48.00000000
v -106.13275146 87.72402191 38.00000000
v -106.38911438 87.32510376 48.00000000
v -106.38911438 87.32510376 38.00000000
v -106.74748993 87.01457977 48.00000000
v -106.74748993 87.01457977 38.00000000
v -107.17883301 86.81758881 48.00000000
v -107.17883301 86.81758881 38.00000000
v -107.64819336 86.75010681 48.00000000
v -107.64819336 86.75010681 38.00000000
v -108.11756134 86.81758881 48.00000000
v -108.11756134 86.81758881 38.00000000
v -108.54890442 87.01457977 48.00000000
v -108.54890442 87.01457977 38.00000000
v -108.90727234 87.32510376 48.00000000
v -108.90727234 87.32510376 38.00000000
v -109.16364288 87.72402191 48.00000000
v -109.16364288 87.72402191 38.00000000
v -109.29724121 88.17900848 48.00000000
v -109.29724121 88.17900848 38.00000000
v -109.29724121 88.65319824 48.00000000
v -109.29724121 88.65319824 38.00000000
v -109.16364288 89.10818481 48.00000000
v -109.16364288 89.10818481 38.00000000
v -108.90727234 89.50710297 48.00000000
v -108.90727234 89.50710297 38.00000000
v -108.54890442 89.81763458 48.00000000
v -108.54890442 89.81763458 38.00000000
v -108.11756134 90.01461792 38.00000000
v -107.64819336 90.08210754 38.00000000
v -107.17883301 90.01461792 38.00000000
v -106.74748993 89.81763458 38.00000000
v -106.38911438 89.50710297 38.00000000
v -106.13275146 89.10818481 38.00000000
v -105.99915314 88.65319824 38.00000000
v -105.99915314 88.17900848 38.00000000
v -106.13275146 87.72402191 38.00000000
v -106.38911438 87.32510376 38.00000000
v -106.74748993 87.01457977 38.00000000
v -107.17883301 86.81758881 38.00000000
v -107.64819336 86.75010681 38.00000000
v -108.11756134 86.81758881 38.00000000
v -108.54890442 87.01457977 38.00000000
v -108.90727234 87.32510376 38.00000000
v -109.16364288 87.72402191 38.00000000
v -109.29724121 88.17900848 38.00000000
v -109.29724121 88.65319824 38.00000000
v -109.16364288 89.10818481 38.00000000
v -108.90727234 89.50710297 38.00000000
v -108.54890442 89.81763458 38.00000000
v -106.04968262 113.41610718 37.53063202
v -106.04968262 103.41610718 37.53063202
v -105.98219299 113.41610718 38.00000000
v -105.98219299 103.41610718 38.00000000
v -106.04968262 113.41610718 38.46936798
v -106.04968262 103.41610718 38.46936798
v -106.24666595 113.41610718 38.90070724
v -106.24666595 103.41610718 38.90070724
v -106.55719757 113.41610718 39.25907898
v -106.55719757 103.41610718 39.25907898
v -106.95611572 113.41610718 39.51544571
v -106.95611572 103.41610718 39.51544571
v -107.41110229 113.41610718 39.64904404
v -107.41110229 103.41610718 39.64904404
v -107.88529205 113.41610718 39.64904404
v -107.88529205 103.41610718 39.64904404
v -108.34027863 113.41610718 39.51544571
v -108.34027863 103.41610718 39.51544571
v -108.73919678 113.41610718 39.25907898
v -108.73919678 103.41610718 39.25907898
v -109.04972076 113.41610718 38.90070724
v -109.04972076 103.41610718 38.90070724
v -109.24671173 113.41610718 38.46936798
v -109.24671173 103.41610718 38.46936798
v -109.31419373 113.41610718 38.00000000
v -109.31419373 103.41610718 38.00000000
v -109.24671173 113.41610718 37.53063202
v -109.24671173 103.41610718 37.53063202
v -109.04972076 113.41610718 37.09929276
v -109.04972076 103.41610718 37.09929276
v -108.73919678 113.41610718 36.74092102
v -108.73919678 103.41610718 36.74092102
v -108.34027863 113.41610718 36.48455429
v -108.34027863 103.41610718 36.48455429
v -107.88529205 113.41610718 36.35095596
v -107.88529205 103.41610718 36.35095596
v -107.41110229 113.41610718 36.35095596
v -107.41110229 103.41610718 36.35095596
v -106.95611572 113.41610718 36.48455429
v -106.95611572 103.41610718 36.48455429
v -106.55719757 113.41610718 36.74092102
v -106.55719757 103.41610718 36.74092102
v -106.24666595 113.41610718 37.09929276
v -106.24666595 103.41610718 37.09929276
v -106.04968262 103.41610718 37.53063202
v -105.98219299 103.41610718 38.00000000
v -106.04968262 103.41610718 38.46936798
v -106.24666595 103.41610718 38.90070724
v -106.55719757 103.41610718 39.25907898
v -106.95611572 103.41610718 39.51544571
v -107.41110229 103.41610718 39.64904404
v -107.88529205 103.41610718 39.64904404
v -108.34027863 103.41610718 39.51544571
v -108.73919678 103.41610718 39.25907898
v -109.04972076 103.41610718 38.90070724
v -109.24671173 103.41610718 38.46936798
v -109.31419373 103.41610718 38.00000000
v -109.24671173 103.41610718 37.53063202
v -109.04972076 103.41610718 37.09929276
v -108.73919678 103.41610718 36.74092102
v -108.34027863 103.41610718 36.48455429
v -107.88529205 103.41610718 36.35095596
v -107.41110229 103.41610718 36.35095596
v -106.95611572 103.41610718 36.48455429
v -106.55719757 103.41610718 36.74092102
v -106.24666595 103.41610718 37.09929276
v -106.04968262 113.41610718 27.53063393
v -106.04968262 103.41610718 27.53063393
v -105.98219299 113.41610718 28.00000000
v -105.98219299 103.41610718 28.00000000
v -106.04968262 113.41610718 28.46936607
v -106.04968262 103.41610718 28.46936607
v -106.24666595 113.41610718 28.90070724
v -106.24666595 103.41610718 28.90070724
v -106.55719757 113.41610718 29.25907898
v -106.55719757 103.41610718 29.25907898
v -106.95611572 113.41610718 29.51544762
v -106.95611572 103.41610718 29.51544762
v -107.41110229 113.41610718 29.64904213
v -107.41110229 103.41610718 29.64904213
v -107.88529205 113.41610718 29.64904213
v -107.88529205 103.41610718 29.64904213
v -108.34027863 113.41610718 29.51544762
v -108.34027863 103.41610718 29.51544762
v -108.73919678 113.41610718 29.25907898
v -108.73919678 103.41610718 29.25907898
v -109.04972076 113.41610718 28.90070724
v -109.04972076 103.41610718 28.90070724
v -109.24671173 113.41610718 28.46936607
v -109.24671173 103.41610718 28.46936607
v -109.31419373 113.41610718 28.00000000
v -109.31419373 103.41610718 28.00000000
v -109.24671173 113.41610718 27.53063393
v -109.24671173 103.41610718 27.53063393
v -109.04972076 113.41610718 27.09929276
v -109.04972076 103.41610718 27.09929276
v -108.73919678 113.41610718 26.74092102
v -108.73919678 103.41610718 26.74092102
v -108.34027863 113.41610718 26.48455238
v -108.34027863 103.41610718 26.48455238
v -107.88529205 113.41610718 26.35095787
v -107.88529205 103.41610718 26.35095787
v -107.41110229 113.41610718 26.35095787
v -107.41110229 103.41610718 26.35095787
v -106.95611572 113.41610718 26.48455238
v -106.95611572 103.41610718 26.48455238
v -106.55719757 113.41610718 26.74092102
v -106.55719757 103.41610718 26.74092102
v -106.24666595 113.41610718 27.09929276
v -106.24666595 103.41610718 27.09929276
v -106.04968262 103.41610718 27.53063393
v -105.98219299 103.41610718 28.00000000
v -106.04968262 103.41610718 28.46936607
v -106.24666595 103.41610718 28.90070724
v -106.55719757 103.41610718 29.25907898
v -106.95611572 103.41610718 29.51544762
v -107.41110229 103.41610718 29.64904213
v -107.88529205 103.41610718 29.64904213
v -108.34027863 103.41610718 29.51544762
v -108.73919678 103.41610718 29.25907898
v -109.04972076 103.41610718 28.90070724
v -109.24671173 103.41610718 28.46936607
v -109.31419373 103.41610718 28.00000000
v -109.24671173 103.41610718 27.53063393
v -109.04972076 103.41610718 27.09929276
v -108.73919678 103.41610718 26.74092102
v -108.34027863 103.41610718 26.48455238
v -107.88529205 103.41610718 26.35095787
v -107.41110229 103.41610718 26.35095787
v -106.95611572 103.41610718 26.48455238
v -106.55719757 103.41610718 26.74092102
v -106.24666595 103.41610718 27.09929276
v -109.24671173 4.98603535 37.53063202
v -109.24671173 14.98603535 37.53063202
v -109.31419373 4.98603535 38.00000000
v -109.31419373 14.98603535 38.00000000
v -109.24671173 4.98603535 38.46936798
v -109.24671173 14.98603535 38.46936798
v -109.04972076 4.98603535 38.90070724
v -109.04972076 14.98603535 38.90070724
v -108.73919678 4.98603535 39.25907898
v -108.73919678 14.98603535 39.25907898
v -108.34027863 4.98603535 39.51544571
v -108.34027863 14.98603535 39.51544571
v -107.88529205 4.98603535 39.64904404
v -107.88529205 14.98603535 39.64904404
v -107.41110229 4.98603535 39.64904404
v -107.41110229 14.98603535 39.64904404
v -106.95611572 4.98603535 39.51544571
v -106.95611572 14.98603535 39.51544571
v -106.55719757 4.98603535 39.25907898
v -106.55719757 14.98603535 39.25907898
v -106.24666595 4.98603535 38.90070724
v -106.24666595 14.98603535 38.90070724
v -106.04968262 4.98603535 38.46936798
v -106.04968262 14.98603535 38.46936798
v -105.98219299 4.98603535 38.00000000
v -105.98219299 14.98603535 38.00000000
v -106.04968262 4.98603535 37.53063202
v -106.04968262 14.98603535 37.53063202
v -106.24666595 4.98603535 37.09929276
v -106.24666595 14.98603535 37.09929276
v -106.55719757 4.98603535 36.74092102
v -106.55719757 14.98603535 36.74092102
v -106.95611572 4.98603535 36.48455429
v -106.95611572 14.98603535 36.48455429
v -107.41110229 4.98603535 36.35095596
v -107.41110229 14.98603535 36.35095596
v -107.88529205 4.98603535 36.35095596
v -107.88529205 14.98603535 36.35095596
v -108.34027863 4.98603535 36.48455429
v -108.34027863 14.98603535 36.48455429
v -108.73919678 4.98603535 36.74092102
v -108.73919678 14.98603535 36.74092102
v -109.04972076 4.98603535 37.09929276
v -109.04972076 14.98603535 37.09929276
v -109.24671173 14.98603535 37.53063202
v -109.31419373 14.98603535 38.00000000
v -109.24671173 14.98603535 38.46936798
v -109.04972076 14.98603535 38.90070724
v -108.73919678 14.98603535 39.25907898
v -108.34027863 14.98603535 39.51544571
v -107.88529205 14.98603535 39.64904404
v -107.41110229 14.98603535 39.64904404
v -106.95611572 14.98603535 39.51544571
v -106.55719757 14.98603535 39.25907898
v -106.24666595 14.98603535 38.90070724
v -106.04968262 14.98603535 38.46936798
v -105.98219299 14.98603535 38.00000000
v -106.04968262 14.98603535 37.53063202
v -106.24666595 14.98603535 37.09929276
v -106.55719757 14.98603535 36.74092102
v -106.95611572 14.98603535 36.48455429
v -107.41110229 14.98603535 36.35095596
v -107.88529205 14.98603535 36.35095596
v -108.34027863 14.98603535 36.48455429
v -108.73919678 14.98603535 36.74092102
v -109.04972076 14.98603535 37.09929276
v -109.24671173 4.98603535 27.53063393
v -109.24671173 14.98603535 27.53063393
v -109.31419373 4.98603535 28.00000000
v -109.31419373 14.98603535 28.00000000
v -109.24671173 4.98603535 28.46936607
v -109.24671173 14.98603535 28.46936607
v -109.04972076 4.98603535 28.90070724
v -109.04972076 14.98603535 28.90070724
v -108.73919678 4.98603535 29.25907898
v -108.73919678 14.98603535 29.25907898
v -108.34027863 4.98603535 29.51544762
v -108.34027863 14.98603535 29.51544762
v -107.88529205 4.98603535 29.64904213
v -107.88529205 14.98603535 29.64904213
v -107.41110229 4.98603535 29.64904213
v -107.41110229 14.98603535 29.64904213
v -106.95611572 4.98603535 29.51544762
v -106.95611572 14.98603535 29.51544762
v -106.55719757 4.98603535 29.25907898
v -106.55719757 14.98603535 29.25907898
v -106.24666595 4.98603535 28.90070724
v -106.24666595 14.98603535 28.90070724
v -106.04968262 4.98603535 28.46936607
v -106.04968262 14.98603535 28.46936607
v -105.98219299 4.98603535 28.00000000
v -105.98219299 14.98603535 28.00000000
v -106.04968262 4.98603535 27.53063393
v -106.04968262 14.98603535 27.53063393
v -106.24666595 4.98603535 27.09929276
v -106.24666595 14.98603535 27.09929276
v -106.55719757 4.98603535 26.74092102
v -106.55719757 14.98603535 26.74092102
v -106.95611572 4.98603535 26.48455238
v -106.95611572 14.98603535 26.48455238
v -107.41110229 4.98603535 26.35095787
v -107.41110229 14.98603535 26.35095787
v -107.88529205 4.98603535 26.35095787
v -107.88529205 14.98603535 26.35095787
v -108.34027863 4.98603535 26.48455238
v -108.34027863 14.98603535 26.48455238
v -108.73919678 4.98603535 26.74092102
v -108.73919678 14.98603535 26.74092102
v -109.04972076 4.98603535 27.09929276
v -109.04972076 14.98603535 27.09929276
v -109.24671173 14.98603535 27.53063393
v -109.31419373 14.98603535 28.00000000
v -109.24671173 14.98603535 28.46936607
v -109.04972076 14.98603535 28.90070724
v -108.73919678 14.98603535 29.25907898
v -108.34027863 14.98603535 29.51544762
v -107.88529205 14.98603535 29.64904213
v -107.41110229 14.98603535 29.64904213
v -106.95611572 14.98603535 29.51544762
v -106.55719757 14.98603535 29.25907898
v -106.24666595 14.98603535 28.90070724
v -106.04968262 14.98603535 28.46936607
v -105.98219299 14.98603535 28.00000000
v -106.04968262 14.98603535 27.53063393
v -106.24666595 14.98603535 27.09929276
v -106.55719757 14.98603535 26.74092102
v -106.95611572 14.98603535 26.48455238
v -107.41110229 14.98603535 26.35095787
v -107.88529205 14.98603535 26.35095787
v -108.34027863 14.98603535 26.48455238
v -108.73919678 14.98603535 26.74092102
v -109.04972076 14.98603535 27.09929276
v -109.24671173 4.98603535 37.53063202
v -109.31419373 4.98603535 38.00000000
v -109.24671173 4.98603535 38.46936798
v -109.04972076 4.98603535 38.90070724
v -108.73919678 4.98603535 39.25907898
v -108.34027863 4.98603535 39.51544571
v -107.88529205 4.98603535 39.64904404
v -107.41110229 4.98603535 39.64904404
v -106.95611572 4.98603535 39.51544571
v -106.55719757 4.98603535 39.25907898
v -106.24666595 4.98603535 38.90070724
v -106.04968262 4.98603535 38.46936798
v -105.98219299 4.98603535 38.00000000
v -106.04968262 4.98603535 37.53063202
v -106.24666595 4.98603535 37.09929276
v -106.55719757 4.98603535 36.74092102
v -106.95611572 4.98603535 36.48455429
v -107.41110229 4.98603535 36.35095596
v -107.88529205 4.98603535 36.35095596
v -108.34027863 4.98603535 36.48455429
v -108.73919678 4.98603535 36.74092102
v -109.04972076 4.98603535 37.09929276
v -109.24671173 4.98603535 27.53063393
v -109.31419373 4.98603535 28.00000000
v -109.24671173 4.98603535 28.46936607
v -109.04972076 4.98603535 28.90070724
v -108.73919678 4.98603535 29.25907898
v -108.34027863 4.98603535 29.51544762
v -107.88529205 4.98603535 29.64904213
v -107.41110229 4.98603535 29.64904213
v -106.95611572 4.98603535 29.51544762
v -106.55719757 4.98603535 29.25907898
v -106.24666595 4.98603535 28.90070724
v -106.04968262 4.98603535 28.46936607
v -105.98219299 4.98603535 28.00000000
v -106.04968262 4.98603535 27.53063393
v -106.24666595 4.98603535 27.09929276
v -106.55719757 4.98603535 26.74092102
v -106.95611572 4.98603535 26.48455238
v -107.41110229 4.98603535 26.35095787
v -107.88529205 4.98603535 26.35095787
v -108.34027863 4.98603535 26.48455238
v -108.73919678 4.98603535 26.74092102
v -109.04972076 4.98603535 27.09929276
v -110.14819336 4.98603535 48.00000000
v -105.14819336 4.98603535 48.00000000
v -105.14819336 4.98603535 14.37977695
v -110.14819336 4.98603535 14.37977695
v -105.14819336 4.98603535 14.37977695
v -110.14819336 4.98603535 14.37977695
v -110.14819336 113.41610718 14.37977695
v -105.14819336 113.41610718 14.37977695
v -106.04968262 113.41610718 37.53063202
v -105.98219299 113.41610718 38.00000000
v -106.04968262 113.41610718 38.46936798
v -106.24666595 113.41610718 38.90070724
v -106.55719757 113.41610718 39.25907898
v -106.95611572 113.41610718 39.51544571
v -107.41110229 113.41610718 39.64904404
v -107.88529205 113.41610718 39.64904404
v -108.34027863 113.41610718 39.51544571
v -108.73919678 113.41610718 39.25907898
v -109.04972076 113.41610718 38.90070724
v -109.24671173 113.41610718 38.46936798
v -109.31419373 113.41610718 38.00000000
v -109.24671173 113.41610718 37.53063202
v -109.04972076 113.41610718 37.09929276
v -108.73919678 113.41610718 36.74092102
v -108.34027863 113.41610718 36.48455429
v -107.88529205 113.41610718 36.35095596
v -107.41110229 113.41610718 36.35095596
v -106.95611572 113.41610718 36.48455429
v -106.55719757 113.41610718 36.74092102
v -106.24666595 113.41610718 37.09929276
v -106.04968262 113.41610718 27.53063393
v -105.98219299 113.41610718 28.00000000
v -106.04968262 113.41610718 28.46936607
v -106.24666595 113.41610718 28.90070724
v -106.55719757 113.41610718 29.25907898
v -106.95611572 113.41610718 29.51544762
v -107.41110229 113.41610718 29.64904213
v -107.88529205 113.41610718 29.64904213
v -108.34027863 113.41610718 29.51544762
v -108.73919678 113.41610718 29.25907898
v -109.04972076 113.41610718 28.90070724
v -109.24671173 113.41610718 28.46936607
v -109.31419373 113.41610718 28.00000000
v -109.24671173 113.41610718 27.53063393
v -109.04972076 113.41610718 27.09929276
v -108.73919678 113.41610718 26.74092102
v -108.34027863 113.41610718 26.48455238
v -107.88529205 113.41610718 26.35095787
v -107.41110229 113.41610718 26.35095787
v -106.95611572 113.41610718 26.48455238
v -106.55719757 113.41610718 26.74092102
v -106.24666595 113.41610718 27.09929276
v -110.14819336 113.41610718 14.37977695
v -105.14819336 113.41610718 14.37977695
v -110.14819336 113.41610718 48.00000000
v -105.14819336 113.41610718 48.00000000
v -108.11756134 31.58455086 48.00000000
v -107.64819336 31.65203476 48.00000000
v -107.17883301 31.58455086 48.00000000
v -106.74748993 31.38756371 48.00000000
v -106.38911438 31.07703400 48.00000000
v -106.13275146 30.67811584 48.00000000
v -105.99915314 30.22313118 48.00000000
v -105.99915314 29.74893951 48.00000000
v -106.13275146 29.29395294 48.00000000
v -106.38911438 28.89503670 48.00000000
v -106.74748993 28.58450699 48.00000000
v -107.17883301 28.38751984 48.00000000
v -107.64819336 28.32003593 48.00000000
v -108.11756134 28.38751984 48.00000000
v -108.54890442 28.58450699 48.00000000
v -108.90727234 28.89503670 48.00000000
v -109.16364288 29.29395294 48.00000000
v -109.29724121 29.74893951 48.00000000
v -109.29724121 30.22313118 48.00000000
v -109.16364288 30.67811584 48.00000000
v -108.90727234 31.07703400 48.00000000
v -108.54890442 31.38756371 48.00000000
v -108.11756134 90.01461792 48.00000000
v -107.64819336 90.08210754 48.00000000
v -107.17883301 90.01461792 48.00000000
v -106.74748993 89.81763458 48.00000000
v -106.38911438 89.50710297 48.00000000
v -106.13275146 89.10818481 48.00000000
v -105.99915314 88.65319824 48.00000000
v -105.99915314 88.17900848 48.00000000
v -106.13275146 87.72402191 48.00000000
v -106.38911438 87.32510376 48.00000000
v -106.74748993 87.01457977 48.00000000
v -107.17883301 86.81758881 48.00000000
v -107.64819336 86.75010681 48.00000000
v -108.11756134 86.81758881 48.00000000
v -108.54890442 87.01457977 48.00000000
v -108.90727234 87.32510376 48.00000000
v -109.16364288 87.72402191 48.00000000
v -109.29724121 88.17900848 48.00000000
v -109.29724121 88.65319824 48.00000000
v -109.16364288 89.10818481 48.00000000
v -108.90727234 89.50710297 48.00000000
v -108.54890442 89.81763458 48.00000000
v -110.14819336 4.98603535 48.00000000
v -105.14819336 4.98603535 48.00000000
v -110.14819336 113.41610718 48.00000000
v -105.14819336 113.41610718 48.00000000
v -110.14819336 36.73170471 41.40148544
v -110.14819336 37.20106888 41.33399963
v -110.14819336 37.67043686 41.40148544
v -110.14819336 38.10177612 41.59847260
v -110.14819336 38.46014786 41.90900040
v -110.14819336 38.71651840 42.30791855
v -110.14819336 38.85011292 42.76290512
v -110.14819336 38.85011292 43.23709488
v -110.14819336 38.71651840 43.69208145
v -110.14819336 38.46014786 44.09099960
v -110.14819336 38.10177612 44.40152740
v -110.14819336 37.67043686 44.59851456
v -110.14819336 37.20106888 44.66600037
v -110.14819336 36.73170471 44.59851456
v -110.14819336 36.30036163 44.40152740
v -110.14819336 35.94198990 44.09099960
v -110.14819336 35.68562317 43.69208145
v -110.14819336 35.55202866 43.23709488
v -110.14819336 35.55202866 42.76290512
v -110.14819336 35.68562317 42.30791855
v -110.14819336 35.94198990 41.90900040
v -110.14819336 36.30036163 41.59847260
v -110.14819336 80.73170471 41.40148544
v -110.14819336 81.20107269 41.33399963
v -110.14819336 81.67043304 41.40148544
v -110.14819336 82.10177612 41.59847260
v -110.14819336 82.46015167 41.90900040
v -110.14819336 82.71651459 42.30791855
v -110.14819336 82.85011292 42.76290512
v -110.14819336 82.85011292 43.23709488
v -110.14819336 82.71651459 43.69208145
v -110.14819336 82.46015167 44.09099960
v -110.14819336 82.10177612 44.40152740
v -110.14819336 81.67043304 44.59851456
v -110.14819336 81.20107269 44.66600037
v -110.14819336 80.73170471 44.59851456
v -110.14819336 80.30036163 44.40152740
v -110.14819336 79.94199371 44.09099960
v -110.14819336 79.68562317 43.69208145
v -110.14819336 79.55202484 43.23709488
v -110.14819336 79.55202484 42.76290512
v -110.14819336 79.68562317 42.30791855
v -110.14819336 79.94199371 41.90900040
v -110.14819336 80.30036163 41.59847260
v -110.14819336 37.67199326 20.97829247
v -110.14819336 38.14136124 21.04577637
v -110.14819336 38.61072540 20.97829247
v -110.14819336 39.04206848 20.78130531
v -110.14819336 39.40044022 20.47077560
v -110.14819336 39.65680695 20.07185936
v -110.14819336 39.79040146 19.61687469
v -110.14819336 39.79040146 19.14268112
v -110.14819336 39.65680695 18.68769646
v -110.14819336 39.40044022 18.28878021
v -110.14819336 39.04206848 17.97824860
v -110.14819336 38.61072540 17.78126144
v -110.14819336 38.14136124 17.71377754
v -110.14819336 37.67199326 17.78126144
v -110.14819336 37.24065399 17.97824860
v -110.14819336 36.88228226 18.28878021
v -110.14819336 36.62591171 18.68769646
v -110.14819336 36.49231720 19.14268112
v -110.14819336 36.49231720 19.61687469
v -110.14819336 36.62591171 20.07185936
v -110.14819336 36.88228226 20.47077560
v -110.14819336 37.24065399 20.78130531
v -110.14819336 79.94673920 20.97829247
v -110.14819336 80.41610718 21.04577637
v -110.14819336 80.88546753 20.97829247
v -110.14819336 81.31681061 20.78130531
v -110.14819336 81.67518616 20.47077560
v -110.14819336 81.93154907 20.07185936
v -110.14819336 82.06514740 19.61687469
v -110.14819336 82.06514740 19.14268112
v -110.14819336 81.93154907 18.68769646
v -110.14819336 81.67518616 18.28878021
v -110.14819336 81.31681061 17.97824860
v -110.14819336 80.88546753 17.78126144
v -110.14819336 80.41610718 17.71377754
v -110.14819336 79.94673920 17.78126144
v -110.14819336 79.51539612 17.97824860
v -110.14819336 79.15702820 18.28878021
v -110.14819336 78.90065765 18.68769646
v -110.14819336 78.76705933 19.14268112
v -110.14819336 78.76705933 19.61687469
v -110.14819336 78.90065765 20.07185936
v -110.14819336 79.15702820 20.47077560
v -110.14819336 79.51539612 20.78130531
v -110.14819336 4.98603535 48.00000000
v -110.14819336 4.98603535 14.37977695
v -110.14819336 113.41610718 14.37977695
v -110.14819336 113.41610718 48.00000000
v -105.14819336 37.67199326 20.97829247
v -105.14819336 38.14136124 21.04577637
v -105.14819336 38.61072540 20.97829247
v -105.14819336 39.04206848 20.78130531
v -105.14819336 39.40044022 20.47077560
v -105.14819336 39.65680695 20.07185936
v -105.14819336 39.79040146 19.61687469
v -105.14819336 39.79040146 19.14268112
v -105.14819336 39.65680695 18.68769646
v -105.14819336 39.40044022 18.28878021
v -105.14819336 39.04206848 17.97824860
v -105.14819336 38.61072540 17.78126144
v -105.14819336 38.14136124 17.71377754
v -105.14819336 37.67199326 17.78126144
v -105.14819336 37.24065399 17.97824860
v -105.14819336 36.88228226 18.28878021
v -105.14819336 36.62591171 18.68769646
v -105.14819336 36.49231720 19.14268112
v -105.14819336 36.49231720 19.61687469
v -105.14819336 36.62591171 20.07185936
v -105.14819336 36.88228226 20.47077560
v -105.14819336 37.24065399 20.78130531
v -105.14819336 79.94673920 20.97829247
v -105.14819336 80.41610718 21.04577637
v -105.14819336 80.88546753 20.97829247
v -105.14819336 81.31681061 20.78130531
v -105.14819336 81.67518616 20.47077560
v -105.14819336 81.93154907 20.07185936
v -105.14819336 82.06514740 19.61687469
v -105.14819336 82.06514740 19.14268112
v -105.14819336 81.93154907 18.68769646
v -105.14819336 81.67518616 18.28878021
v -105.14819336 81.31681061 17.97824860
v -105.14819336 80.88546753 17.78126144
v -105.14819336 80.41610718 17.71377754
v -105.14819336 79.94673920 17.78126144
v -105.14819336 79.51539612 17.97824860
v -105.14819336 79.15702820 18.28878021
v -105.14819336 78.90065765 18.68769646
v -105.14819336 78.76705933 19.14268112
v -105.14819336 78.76705933 19.61687469
v -105.14819336 78.90065765 20.07185936
v -105.14819336 79.15702820 20.47077560
v -105.14819336 79.51539612 20.78130531
v -105.14819336 4.98603535 48.00000000
v -105.14819336 4.98603535 14.37977695
v -105.14819336 113.41610718 14.37977695
v -105.14819336 113.41610718 48.00000000
f 1 2 3
f 4 2 5
f 6 2 7
f 8 2 9
f 10 2 11
f 12 2 13
f 14 2 15
f 16 2 17
f 18 2 19
f 20 2 21
f 22 2 20
f 3 2 23
f 15 2 12
f 13 2 10
f 11 2 8
f 9 2 6
f 5 2 1
f 23 2 22
f 21 2 18
f 19 2 16
f 17 2 14
f 7 2 4
f 46 37 47
f 47 37 34
f 47 34 48
f 48 34 35
f 48 35 49
f 49 35 32
f 49 32 50
f 50 32 33
f 50 33 51
f 51 33 30
f 51 30 52
f 52 30 31
f 52 31 53
f 53 31 28
f 53 28 54
f 54 28 29
f 54 29 55
f 55 29 26
f 55 26 56
f 56 26 27
f 56 27 57
f 57 27 24
f 57 24 58
f 58 24 25
f 58 25 59
f 59 25 45
f 59 45 60
f 60 45 44
f 60 44 61
f 61 44 42
f 61 42 62
f 62 42 43
f 62 43 63
f 63 43 40
f 63 40 64
f 64 40 41
f 64 41 65
f 65 41 38
f 65 38 66
f 66 38 39
f 66 39 67
f 67 39 36
f 67 36 46
f 46 36 37
f 68 69 70
f 71 69 72
f 73 69 74
f 75 69 76
f 77 69 78
f 79 69 80
f 81 69 82
f 83 69 84
f 85 69 86
f 87 69 88
f 89 69 87
f 70 69 90
f 82 69 79
f 80 69 77
f 78 69 75
f 76 69 73
f 72 69 68
f 90 69 89
f 88 69 85
f 86 69 83
f 84 69 81
f 74 69 71
f 113 104 114
f 114 104 101
f 114 101 115
f 115 101 102
f 115 102 116
f 116 102 99
f 116 99 117
f 117 99 100
f 117 100 118
f 118 100 97
f 118 97 119
f 119 97 98
f 119 98 120
f 120 98 95
f 120 95 121
f 121 95 96
f 121 96 122
f 122 96 93
f 122 93 123
f 123 93 94
f 123 94 124
f 124 94 91
f 124 91 125
f 125 91 92
f 125 92 126
f 126 92 112
f 126 112 127
f 127 112 111
f 127 111 128
f 128 111 109
f 128 109 129
f 129 109 110
f 129 110 130
f 130 110 107
f 130 107 131
f 131 107 108
f 131 108 132
f 132 108 105
f 132 105 133
f 133 105 106
f 133 106 134
f 134 106 103
f 134 103 113
f 113 103 104
f 135 136 137
f 137 136 138
f 137 138 139
f 139 138 140
f 139 140 141
f 141 140 142
f 141 142 143
f 143 142 144
f 143 144 145
f 145 144 146
f 145 146 147
f 147 146 148
f 147 148 149
f 149 148 150
f 149 150 151
f 151 150 152
f 151 152 153
f 153 152 154
f 153 154 155
f 155 154 156
f 155 156 157
f 157 156 158
f 157 158 159
f 159 158 160
f 159 160 161
f 161 160 162
f 161 162 163
f 163 162 164
f 163 164 165
f 165 164 166
f 165 166 167
f 167 166 168
f 167 168 169
f 169 168 170
f 169 170 171
f 171 170 172
f 171 172 173
f 173 172 174
f 173 174 175
f 175 174 176
f 175 176 177
f 177 176 178
f 177 178 135
f 135 178 136
f 179 180 181
f 181 180 182
f 181 182 183
f 183 182 184
f 183 184 185
f 185 184 186
f 185 186 187
f 187 186 188
f 187 188 189
f 189 188 190
f 189 190 191
f 191 190 192
f 191 192 193
f 193 192 194
f 193 194 195
f 195 194 196
f 195 196 197
f 197 196 198
f 197 198 199
f 199 198 200
f 199 200 201
f 201 200 202
f 201 202 203
f 203 202 204
f 203 204 205
f 205 204 206
f 205 206 207
f 207 206 208
f 207 208 209
f 209 208 210
f 209 210 211
f 211 210 212
f 211 212 213
f 213 212 214
f 213 214 215
f 215 214 216
f 215 216 217
f 217 216 218
f 217 218 219
f 219 218 220
f 219 220 221
f 221 220 222
f 221 222 179
f 179 222 180
f 223 224 225
f 225 224 226
f 225 226 227
f 227 226 228
f 227 228 229
f 229 228 230
f 229 230 231
f 231 230 232
f 231 232 233
f 233 232 234
f 233 234 235
f 235 234 236
f 235 236 237
f 237 236 238
f 237 238 239
f 239 238 240
f 239 240 241
f 241 240 242
f 241 242 243
f 243 242 244
f 243 244 245
f 245 244 246
f 245 246 247
f 247 246 248
f 247 248 249
f 249 248 250
f 249 250 251
f 251 250 252
f 251 252 253
f 253 252 254
f 253 254 255
f 255 254 256
f 255 256 257
f 257 256 258
f 257 258 259
f 259 258 260
f 259 260 261
f 261 260 262
f 261 262 263
f 263 262 264
f 263 264 265
f 265 264 266
f 265 266 223
f 223 266 224
f 278 269 279
f 279 269 268
f 279 268 280
f 280 268 267
f 280 267 281
f 281 267 288
f 281 288 282
f 282 288 287
f 282 287 283
f 283 287 286
f 283 286 284
f 284 286 285
f 269 278 270
f 270 278 277
f 270 277 271
f 271 277 276
f 271 276 272
f 272 276 275
f 272 275 273
f 273 275 274
f 289 290 291
f 291 290 292
f 291 292 293
f 293 292 294
f 293 294 295
f 295 294 296
f 295 296 297
f 297 296 298
f 297 298 299
f 299 298 300
f 299 300 301
f 301 300 302
f 301 302 303
f 303 302 304
f 303 304 305
f 305 304 306
f 305 306 307
f 307 306 308
f 307 308 309
f 309 308 310
f 309 310 311
f 311 310 312
f 311 312 313
f 313 312 314
f 313 314 315
f 315 314 316
f 315 316 317
f 317 316 318
f 317 318 319
f 319 318 320
f 319 320 321
f 321 320 322
f 321 322 323
f 323 322 324
f 323 324 325
f 325 324 326
f 325 326 327
f 327 326 328
f 327 328 329
f 329 328 330
f 329 330 331
f 331 330 332
f 331 332 289
f 289 332 290
f 344 335 345
f 345 335 334
f 345 334 346
f 346 334 333
f 346 333 347
f 347 333 354
f 347 354 348
f 348 354 353
f 348 353 349
f 349 353 352
f 349 352 350
f 350 352 351
f 335 344 336
f 336 344 343
f 336 343 337
f 337 343 342
f 337 342 338
f 338 342 341
f 338 341 339
f 339 341 340
f 355 356 357
f 357 356 358
f 357 358 359
f 359 358 360
f 359 360 361
f 361 360 362
f 361 362 363
f 363 362 364
f 363 364 365
f 365 364 366
f 365 366 367
f 367 366 368
f 367 368 369
f 369 368 370
f 369 370 371
f 371 370 372
f 371 372 373
f 373 372 374
f 373 374 375
f 375 374 376
f 375 376 377
f 377 376 378
f 377 378 379
f 379 378 380
f 379 380 381
f 381 380 382
f 381 382 383
f 383 382 384
f 383 384 385
f 385 384 386
f 385 386 387
f 387 386 388
f 387 388 389
f 389 388 390
f 389 390 391
f 391 390 392
f 391 392 393
f 393 392 394
f 393 394 395
f 395 394 396
f 395 396 397
f 397 396 398
f 397 398 355
f 355 398 356
f 410 401 411
f 411 401 400
f 411 400 412
f 412 400 399
f 412 399 413
f 413 399 420
f 413 420 414
f 414 420 419
f 414 419 415
f 415 419 418
f 415 418 416
f 416 418 417
f 401 410 402
f 402 410 409
f 402 409 403
f 403 409 408
f 403 408 404
f 404 408 407
f 404 407 405
f 405 407 406
f 421 422 423
f 423 422 424
f 423 424 425
f 425 424 426
f 425 426 427
f 427 426 428
f 427 428 429
f 429 428 430
f 429 430 431
f 431 430 432
f 431 432 433
f 433 432 434
f 433 434 435
f 435 434 436
f 435 436 437
f 437 436 438
f 437 438 439
f 439 438 440
f 439 440 441
f 441 440 442
f 441 442 443
f 443 442 444
f 443 444 445
f 445 444 446
f 445 446 447
f 447 446 448
f 447 448 449
f 449 448 450
f 449 450 451
f 451 450 452
f 451 452 453
f 453 452 454
f 453 454 455
f 455 454 456
f 455 456 457
f 457 456 458
f 457 458 459
f 459 458 460
f 459 460 461
f 461 460 462
f 461 462 463
f 463 462 464
f 463 464 421
f 421 464 422
f 476 467 477
f 477 467 466
f 477 466 478
f 478 466 465
f 478 465 479
f 479 465 486
f 479 486 480
f 480 486 485
f 480 485 481
f 481 485 484
f 481 484 482
f 482 484 483
f 467 476 468
f 468 476 475
f 468 475 469
f 469 475 474
f 469 474 470
f 470 474 473
f 470 473 471
f 471 473 472
f 487 488 489
f 489 488 490
f 489 490 491
f 491 490 492
f 491 492 493
f 493 492 494
f 493 494 495
f 495 494 496
f 495 496 497
f 497 496 498
f 497 498 499
f 499 498 500
f 499 500 501
f 501 500 502
f 501 502 503
f 503 502 504
f 503 504 505
f 505 504 506
f 505 506 507
f 507 506 508
f 507 508 509
f 509 508 510
f 509 510 511
f 511 510 512
f 511 512 513
f 513 512 514
f 513 514 515
f 515 514 516
f 515 516 517
f 517 516 518
f 517 518 519
f 519 518 520
f 519 520 521
f 521 520 522
f 521 522 523
f 523 522 524
f 523 524 525
f 525 524 526
f 525 526 527
f 527 526 528
f 527 528 529
f 529 528 530
f 529 530 487
f 487 530 488
f 531 544 532
f 532 544 543
f 532 543 533
f 533 543 542
f 533 542 534
f 534 542 541
f 534 541 535
f 535 541 540
f 535 540 536
f 536 540 539
f 536 539 537
f 537 539 538
f 544 531 545
f 545 531 552
f 545 552 546
f 546 552 551
f 546 551 547
f 547 551 550
f 547 550 548
f 548 550 549
f 553 554 555
f 555 554 556
f 555 556 557
f 557 556 558
f 557 558 559
f 559 558 560
f 559 560 561
f 561 560 562
f 561 562 563
f 563 562 564
f 563 564 565
f 565 564 566
f 565 566 567
f 567 566 568
f 567 568 569
f 569 568 570
f 569 570 571
f 571 570 572
f 571 572 573
f 573 572 574
f 573 574 575
f 575 574 576
f 575 576 577
f 577 576 578
f 577 578 579
f 579 578 580
f 579 580 581
f 581 580 582
f 581 582 583
f 583 582 584
f 583 584 585
f 585 584 586
f 585 586 587
f 587 586 588
f 587 588 589
f 589 588 590
f 589 590 591
f 591 590 592
f 591 592 593
f 593 592 594
f 593 594 595
f 595 594 596
f 595 596 553
f 553 596 554
f 597 610 598
f 598 610 609
f 598 609 599
f 599 609 608
f 599 608 600
f 600 608 607
f 600 607 601
f 601 607 606
f 601 606 602
f 602 606 605
f 602 605 603
f 603 605 604
f 610 597 611
f 611 597 618
f 611 618 612
f 612 618 617
f 612 617 613
f 613 617 616
f 613 616 614
f 614 616 615
f 621 663 620
f 620 663 642
f 620 642 619
f 619 642 643
f 619 643 640
f 640 643 644
f 640 644 639
f 639 644 645
f 639 645 638
f 638 645 646
f 638 646 637
f 637 646 647
f 637 647 648
f 621 622 663
f 663 622 623
f 663 623 624
f 624 625 663
f 663 625 626
f 663 626 664
f 664 626 627
f 664 627 628
f 628 629 664
f 664 629 630
f 664 630 631
f 664 631 653
f 653 631 632
f 653 632 652
f 652 632 633
f 652 633 651
f 651 633 634
f 651 634 650
f 650 634 635
f 650 635 649
f 649 635 636
f 649 636 648
f 648 636 637
f 664 653 665
f 665 653 654
f 665 654 655
f 655 656 665
f 665 656 657
f 665 657 658
f 658 659 665
f 665 659 666
f 666 659 660
f 666 660 661
f 661 662 666
f 666 662 641
f 666 641 642
f 663 666 642
f 669 670 668
f 668 670 667
f 673 718 672
f 672 718 694
f 672 694 671
f 671 694 695
f 671 695 692
f 692 695 696
f 692 696 691
f 691 696 697
f 691 697 690
f 690 697 698
f 690 698 689
f 689 698 699
f 689 699 700
f 673 674 718
f 718 674 675
f 718 675 676
f 676 677 718
f 718 677 678
f 718 678 717
f 717 678 679
f 717 679 680
f 680 681 717
f 717 681 682
f 717 682 683
f 717 683 705
f 705 683 684
f 705 684 704
f 704 684 685
f 704 685 703
f 703 685 686
f 703 686 702
f 702 686 687
f 702 687 701
f 701 687 688
f 701 688 700
f 700 688 689
f 717 705 715
f 715 705 706
f 715 706 707
f 707 708 715
f 715 708 709
f 715 709 710
f 710 711 715
f 715 711 716
f 716 711 712
f 716 712 713
f 713 714 716
f 716 714 693
f 716 693 694
f 718 716 694
f 721 752 720
f 720 752 753
f 720 753 719
f 719 753 754
f 719 754 740
f 740 754 755
f 740 755 739
f 739 755 756
f 739 756 738
f 738 756 757
f 738 757 737
f 737 757 758
f 737 758 763
f 763 758 765
f 765 758 759
f 765 759 760
f 752 721 751
f 751 721 722
f 751 722 750
f 750 722 723
f 750 723 749
f 749 723 724
f 749 724 748
f 748 724 725
f 748 725 766
f 766 725 764
f 764 725 726
f 764 726 727
f 727 728 764
f 764 728 729
f 764 729 730
f 730 731 764
f 764 731 763
f 763 731 732
f 763 732 733
f 733 734 763
f 763 734 735
f 763 735 736
f 736 737 763
f 743 766 742
f 742 766 765
f 742 765 741
f 741 765 762
f 762 765 761
f 761 765 760
f 743 744 766
f 766 744 745
f 766 745 746
f 746 747 766
f 766 747 748
f 769 812 768
f 768 812 811
f 768 811 767
f 767 811 856
f 767 856 855
f 770 810 769
f 769 810 789
f 769 789 813
f 813 789 833
f 813 833 854
f 810 770 809
f 809 770 771
f 809 771 808
f 808 771 772
f 808 772 807
f 807 772 773
f 807 773 774
f 807 774 806
f 806 774 775
f 806 775 805
f 805 775 776
f 805 776 804
f 804 776 777
f 804 777 803
f 803 777 778
f 803 778 802
f 802 778 779
f 802 779 801
f 801 779 855
f 801 855 858
f 779 780 855
f 855 780 781
f 855 781 782
f 782 783 855
f 855 783 784
f 855 784 785
f 785 786 855
f 855 786 787
f 855 787 788
f 788 767 855
f 791 835 790
f 790 835 834
f 790 834 789
f 789 834 833
f 792 858 791
f 791 858 857
f 791 857 835
f 835 857 836
f 836 857 837
f 837 857 838
f 838 857 839
f 839 857 840
f 840 857 841
f 841 857 842
f 842 857 843
f 843 857 844
f 844 857 845
f 845 857 823
f 845 823 846
f 846 823 822
f 846 822 847
f 847 822 821
f 847 821 848
f 848 821 820
f 848 820 849
f 849 820 819
f 849 819 850
f 850 819 818
f 850 818 817
f 792 793 858
f 858 793 794
f 858 794 795
f 795 796 858
f 858 796 797
f 858 797 798
f 798 799 858
f 858 799 800
f 858 800 801
f 816 852 817
f 817 852 851
f 817 851 850
f 852 816 853
f 853 816 815
f 853 815 854
f 854 815 814
f 854 814 813
f 813 812 769
f 811 832 856
f 856 832 831
f 856 831 830
f 830 829 856
f 856 829 828
f 856 828 827
f 827 826 856
f 856 826 825
f 856 825 824
f 824 823 856
f 856 823 857
f 861 882 860
f 860 882 906
f 860 906 903
f 882 861 881
f 881 861 862
f 881 862 902
f 902 862 901
f 901 862 863
f 901 863 900
f 900 863 864
f 900 864 899
f 899 864 865
f 899 865 866
f 899 866 898
f 898 866 867
f 898 867 897
f 897 867 868
f 897 868 896
f 896 868 869
f 896 869 895
f 895 869 870
f 895 870 894
f 894 870 871
f 894 871 893
f 893 871 905
f 893 905 892
f 892 905 891
f 891 905 890
f 890 905 889
f 889 905 888
f 888 905 887
f 887 905 886
f 886 905 885
f 885 905 884
f 884 905 883
f 883 905 906
f 883 906 882
f 905 871 904
f 904 871 872
f 904 872 873
f 873 874 904
f 904 874 875
f 904 875 876
f 876 877 904
f 904 877 878
f 904 878 879
f 879 880 904
f 904 880 859
f 904 859 903
f 903 859 860

