# https://github.com/mikedh/trimesh

o F_LeftLink_1.stl
v -56.00151443 17.36344910 56.43675232
v -56.00151443 16.70107079 56.50000000
v -56.00151443 16.70106888 55.50000000
v -56.00151443 16.03869057 56.43675232
v -56.00151443 16.14476776 55.43732071
v -56.00151443 15.40025139 56.24929047
v -56.00151443 15.61636066 55.25242233
v -56.00151443 14.80882740 55.94438934
v -56.00151443 15.14234543 54.95457840
v -56.00151443 14.28579330 55.53306961
v -56.00151443 14.74649143 54.55872345
v -56.00151443 13.85005379 55.03020096
v -56.00151443 14.44864750 54.08470917
v -56.00151443 13.51735783 54.45395279
v -56.00151443 14.26375008 53.55630112
v -56.00151443 13.29972935 53.82515717
v -56.00151443 13.20503426 53.16653824
v -56.00151443 14.20106983 53.00000000
v -56.00151443 13.23669529 52.50189972
v -56.00151443 14.26375008 52.44369888
v -56.00151443 13.39356709 51.85526276
v -56.00151443 14.44864750 51.91529083
v -56.00151443 13.66998100 51.25000000
v -56.00151443 14.74649143 51.44127655
v -56.00151443 14.05594635 50.70798874
v -56.00151443 15.14234543 51.04542160
v -56.00151443 14.53751373 50.24881363
v -56.00151443 15.09727764 49.88907623
v -56.00151443 15.61636066 50.74757767
v -56.00151443 15.71500587 49.64177704
v -56.00151443 16.14476776 50.56267929
v -56.00151443 16.36837387 49.51585007
v -56.00151443 16.70107079 50.50000000
v -56.00151443 17.03376579 49.51585007
v -56.00151443 17.25737190 50.56267929
v -56.00151443 17.68713379 49.64177704
v -56.00151443 17.78577995 50.74757767
v -56.00151443 18.30486298 49.88907623
v -56.00151443 18.25979424 51.04542160
v -56.00151443 18.86462593 50.24881363
v -56.00151443 19.34619331 50.70798874
v -56.00151443 18.65564919 51.44127655
v -56.00151443 19.73215866 51.25000000
v -56.00151443 18.95349121 51.91529083
v -56.00151443 20.00857353 51.85526276
v -56.00151443 19.13838959 52.44369888
v -56.00151443 20.16544533 52.50189972
v -56.00151443 19.20107079 53.00000000
v -56.00151443 20.19710541 53.16653824
v -56.00151443 19.13838959 53.55630112
v -56.00151443 20.10241127 53.82515717
v -56.00151443 19.88478279 54.45395279
v -56.00151443 18.95349121 54.08470917
v -56.00151443 19.55208588 55.03020096
v -56.00151443 18.65564919 54.55872345
v -56.00151443 19.11634636 55.53306961
v -56.00151443 18.25979424 54.95457840
v -56.00151443 18.59331322 55.94438934
v -56.00151443 17.78577995 55.25242233
v -56.00151443 18.00188828 56.24929047
v -56.00151443 17.25737190 55.43732071
v -56.00151443 17.36344910 56.43675232
v -56.00151443 16.70107079 56.50000000
v -56.00151443 16.03869057 56.43675232
v -56.00151443 15.40025139 56.24929047
v -56.00151443 14.80882740 55.94438934
v -56.00151443 14.28579330 55.53306961
v -56.00151443 13.85005379 55.03020096
v -56.00151443 13.51735783 54.45395279
v -56.00151443 13.29972935 53.82515717
v -56.00151443 13.20503426 53.16653824
v -56.00151443 13.23669529 52.50189972
v -56.00151443 13.39356709 51.85526276
v -56.00151443 13.66998100 51.25000000
v -56.00151443 14.05594635 50.70798874
v -56.00151443 14.53751373 50.24881363
v -56.00151443 15.09727764 49.88907623
v -56.00151443 15.71500587 49.64177704
v -56.00151443 16.36837387 49.51585007
v -56.00151443 17.03376579 49.51585007
v -56.00151443 17.68713379 49.64177704
v -56.00151443 18.30486298 49.88907623
v -56.00151443 18.86462593 50.24881363
v -56.00151443 19.34619331 50.70798874
v -56.00151443 19.73215866 51.25000000
v -56.00151443 20.00857353 51.85526276
v -56.00151443 20.16544533 52.50189972
v -56.00151443 20.19710541 53.16653824
v -56.00151443 20.10241127 53.82515717
v -56.00151443 19.88478279 54.45395279
v -56.00151443 19.55208588 55.03020096
v -56.00151443 19.11634636 55.53306961
v -56.00151443 18.59331322 55.94438934
v -56.00151443 18.00188828 56.24929047
v -55.00151443 16.03869057 56.43675232
v -55.00151443 16.70107079 56.50000000
v -55.00151443 17.36344910 56.43675232
v -55.00151443 18.00188828 56.24929047
v -55.00151443 18.59331322 55.94438934
v -55.00151443 19.11634636 55.53306961
v -55.00151443 19.55208588 55.03020096
v -55.00151443 19.88478279 54.45395279
v -55.00151443 20.10241127 53.82515717
v -55.00151443 20.19710541 53.16653824
v -55.00151443 20.16544533 52.50189972
v -55.00151443 20.00857353 51.85526276
v -55.00151443 19.73215866 51.25000000
v -55.00151443 19.34619331 50.70798874
v -55.00151443 18.86462593 50.24881363
v -55.00151443 18.30486298 49.88907623
v -55.00151443 17.68713379 49.64177704
v -55.00151443 17.03376579 49.51585007
v -55.00151443 16.36837387 49.51585007
v -55.00151443 15.71500587 49.64177704
v -55.00151443 15.09727764 49.88907623
v -55.00151443 14.53751373 50.24881363
v -55.00151443 14.05594635 50.70798874
v -55.00151443 13.66998100 51.25000000
v -55.00151443 13.39356709 51.85526276
v -55.00151443 13.23669529 52.50189972
v -55.00151443 13.20503426 53.16653824
v -55.00151443 13.29972935 53.82515717
v -55.00151443 13.51735783 54.45395279
v -55.00151443 13.85005379 55.03020096
v -55.00151443 14.28579330 55.53306961
v -55.00151443 14.80882740 55.94438934
v -55.00151443 15.40025139 56.24929047
v -59.00151443 16.03869057 56.43675232
v -59.00151443 16.70107079 56.50000000
v -59.00151443 16.70107079 55.50000000
v -59.00151443 17.36344910 56.43675232
v -59.00151443 17.25737190 55.43732071
v -59.00151443 18.00188828 56.24928665
v -59.00151443 17.78577995 55.25242233
v -59.00151443 18.59331322 55.94438553
v -59.00151443 18.25979424 54.95457840
v -59.00151443 19.11634636 55.53306961
v -59.00151443 18.65564919 54.55872345
v -59.00151443 19.55208588 55.03020096
v -59.00151443 18.95349121 54.08470917
v -59.00151443 19.88478279 54.45395279
v -59.00151443 19.13838959 53.55630112
v -59.00151443 20.10241127 53.82515717
v -59.00151443 20.19710541 53.16653824
v -59.00151443 19.20107079 53.00000000
v -59.00151443 20.16544533 52.50189972
v -59.00151443 19.13838959 52.44369888
v -59.00151443 20.00857353 51.85526276
v -59.00151443 18.95349121 51.91529083
v -59.00151443 19.73215866 51.25000000
v -59.00151443 18.65564919 51.44127655
v -59.00151443 19.34619331 50.70798874
v -59.00151443 18.25979424 51.04542160
v -59.00151443 18.86462593 50.24881363
v -59.00151443 18.30486298 49.88907623
v -59.00151443 17.78577995 50.74757767
v -59.00151443 17.68713379 49.64177322
v -59.00151443 17.25737190 50.56267929
v -59.00151443 17.03376579 49.51585007
v -59.00151443 16.70107079 50.50000000
v -59.00151443 16.36837387 49.51585007
v -59.00151443 16.14476776 50.56267929
v -59.00151443 15.71500587 49.64177322
v -59.00151443 15.61636066 50.74757767
v -59.00151443 15.09727669 49.88907623
v -59.00151443 15.14234543 51.04542160
v -59.00151443 14.53751373 50.24881363
v -59.00151443 14.05594635 50.70798874
v -59.00151443 14.74649143 51.44127655
v -59.00151443 13.66998100 51.25000000
v -59.00151443 14.44864750 51.91529083
v -59.00151443 13.39356709 51.85526276
v -59.00151443 14.26375008 52.44369888
v -59.00151443 13.23669529 52.50189972
v -59.00151443 14.20106983 53.00000000
v -59.00151443 13.20503426 53.16653824
v -59.00151443 14.26375008 53.55630112
v -59.00151443 13.29972935 53.82515717
v -59.00151443 13.51735783 54.45395279
v -59.00151443 14.44864750 54.08470917
v -59.00151443 13.85005379 55.03020096
v -59.00151443 14.74649143 54.55872345
v -59.00151443 14.28579330 55.53306961
v -59.00151443 15.14234543 54.95457840
v -59.00151443 14.80882740 55.94438553
v -59.00151443 15.61636066 55.25242233
v -59.00151443 15.40025139 56.24928665
v -59.00151443 16.14476776 55.43732071
v -59.00151443 16.03869057 56.43675232
v -59.00151443 16.70107079 56.50000000
v -59.00151443 17.36344910 56.43675232
v -59.00151443 18.00188828 56.24928665
v -59.00151443 18.59331322 55.94438553
v -59.00151443 19.11634636 55.53306961
v -59.00151443 19.55208588 55.03020096
v -59.00151443 19.88478279 54.45395279
v -59.00151443 20.10241127 53.82515717
v -59.00151443 20.19710541 53.16653824
v -59.00151443 20.16544533 52.50189972
v -59.00151443 20.00857353 51.85526276
v -59.00151443 19.73215866 51.25000000
v -59.00151443 19.34619331 50.70798874
v -59.00151443 18.86462593 50.24881363
v -59.00151443 18.30486298 49.88907623
v -59.00151443 17.68713379 49.64177322
v -59.00151443 17.03376579 49.51585007
v -59.00151443 16.36837387 49.51585007
v -59.00151443 15.71500587 49.64177322
v -59.00151443 15.09727669 49.88907623
v -59.00151443 14.53751373 50.24881363
v -59.00151443 14.05594635 50.70798874
v -59.00151443 13.66998100 51.25000000
v -59.00151443 13.39356709 51.85526276
v -59.00151443 13.23669529 52.50189972
v -59.00151443 13.20503426 53.16653824
v -59.00151443 13.29972935 53.82515717
v -59.00151443 13.51735783 54.45395279
v -59.00151443 13.85005379 55.03020096
v -59.00151443 14.28579330 55.53306961
v -59.00151443 14.80882740 55.94438553
v -59.00151443 15.40025139 56.24928665
v -60.00151443 17.36344910 56.43675232
v -60.00151443 16.70107079 56.50000000
v -60.00151443 16.03869057 56.43675232
v -60.00151443 15.40025139 56.24928665
v -60.00151443 14.80882740 55.94438553
v -60.00151443 14.28579330 55.53306961
v -60.00151443 13.85005379 55.03020096
v -60.00151443 13.51735783 54.45395279
v -60.00151443 13.29972935 53.82515717
v -60.00151443 13.20503426 53.16653824
v -60.00151443 13.23669529 52.50189972
v -60.00151443 13.39356709 51.85526276
v -60.00151443 13.66998100 51.25000000
v -60.00151443 14.05594635 50.70798874
v -60.00151443 14.53751373 50.24881363
v -60.00151443 15.09727669 49.88907623
v -60.00151443 15.71500587 49.64177322
v -60.00151443 16.36837387 49.51585007
v -60.00151443 17.03376579 49.51585007
v -60.00151443 17.68713379 49.64177322
v -60.00151443 18.30486298 49.88907623
v -60.00151443 18.86462593 50.24881363
v -60.00151443 19.34619331 50.70798874
v -60.00151443 19.73215866 51.25000000
v -60.00151443 20.00857353 51.85526276
v -60.00151443 20.16544533 52.50189972
v -60.00151443 20.19710541 53.16653824
v -60.00151443 20.10241127 53.82515717
v -60.00151443 19.88478279 54.45395279
v -60.00151443 19.55208588 55.03020096
v -60.00151443 19.11634636 55.53306961
v -60.00151443 18.59331322 55.94438553
v -60.00151443 18.00188828 56.24928665
v -56.00151443 16.70106888 55.50000000
v -56.00151443 16.14476776 55.43732071
v -56.00151443 15.61636066 55.25242233
v -56.00151443 15.14234543 54.95457840
v -56.00151443 14.74649143 54.55872345
v -56.00151443 14.44864750 54.08470917
v -56.00151443 14.26375008 53.55630112
v -56.00151443 14.20106983 53.00000000
v -56.00151443 14.26375008 52.44369888
v -56.00151443 14.44864750 51.91529083
v -56.00151443 14.74649143 51.44127655
v -56.00151443 15.14234543 51.04542160
v -56.00151443 15.61636066 50.74757767
v -56.00151443 16.14476776 50.56267929
v -56.00151443 16.70107079 50.50000000
v -56.00151443 17.25737190 50.56267929
v -56.00151443 17.78577995 50.74757767
v -56.00151443 18.25979424 51.04542160
v -56.00151443 18.65564919 51.44127655
v -56.00151443 18.95349121 51.91529083
v -56.00151443 19.13838959 52.44369888
v -56.00151443 19.20107079 53.00000000
v -56.00151443 19.13838959 53.55630112
v -56.00151443 18.95349121 54.08470917
v -56.00151443 18.65564919 54.55872345
v -56.00151443 18.25979424 54.95457840
v -56.00151443 17.78577995 55.25242233
v -56.00151443 17.25737190 55.43732071
v -59.00151443 16.70107079 55.50000000
v -59.00151443 17.25737190 55.43732071
v -59.00151443 17.78577995 55.25242233
v -59.00151443 18.25979424 54.95457840
v -59.00151443 18.65564919 54.55872345
v -59.00151443 18.95349121 54.08470917
v -59.00151443 19.13838959 53.55630112
v -59.00151443 19.20107079 53.00000000
v -59.00151443 19.13838959 52.44369888
v -59.00151443 18.95349121 51.91529083
v -59.00151443 18.65564919 51.44127655
v -59.00151443 18.25979424 51.04542160
v -59.00151443 17.78577995 50.74757767
v -59.00151443 17.25737190 50.56267929
v -59.00151443 16.70107079 50.50000000
v -59.00151443 16.14476776 50.56267929
v -59.00151443 15.61636066 50.74757767
v -59.00151443 15.14234543 51.04542160
v -59.00151443 14.74649143 51.44127655
v -59.00151443 14.44864750 51.91529083
v -59.00151443 14.26375008 52.44369888
v -59.00151443 14.20106983 53.00000000
v -59.00151443 14.26375008 53.55630112
v -59.00151443 14.44864750 54.08470917
v -59.00151443 14.74649143 54.55872345
v -59.00151443 15.14234543 54.95457840
v -59.00151443 15.61636066 55.25242233
v -59.00151443 16.14476776 55.43732071
v -55.00151443 11.70106983 53.00000000
v -60.00151443 11.70106983 53.00000000
v -55.00151443 11.76262856 52.21783066
v -60.00151443 11.76262856 52.21783066
v -55.00151443 11.94578743 51.45491791
v -60.00151443 11.94578743 51.45491791
v -55.00151443 12.24603748 50.73004913
v -60.00151443 12.24603748 50.73004913
v -55.00151443 12.65598488 50.06107330
v -60.00151443 12.65598488 50.06107330
v -55.00151443 13.16553593 49.46446609
v -60.00151443 13.16553593 49.46446609
v -55.00151443 13.76214409 48.95491791
v -60.00151443 13.76214409 48.95491791
v -55.00151443 14.43111801 48.54496765
v -60.00151443 14.43111801 48.54496765
v -55.00151443 15.15598488 48.24471664
v -60.00151443 15.15598488 48.24471664
v -55.00151443 15.91889763 48.06155777
v -60.00151443 15.91889763 48.06155777
v -55.00151443 16.70107079 48.00000000
v -60.00151443 16.70107079 48.00000000
v -60.00151443 21.70107079 48.00000000
v -55.00151443 21.70107079 48.00000000
v -60.00151443 22.82071495 48.06287766
v -60.00151443 23.92627907 48.25072098
v -60.00151443 25.00386047 48.56116867
v -60.00151443 31.70107079 148.00000000
v -60.00151443 11.70106983 148.00000000
v -60.00151443 31.70107079 58.00000000
v -60.00151443 27.02139091 49.53276062
v -60.00151443 26.03990746 48.99031067
v -60.00151443 31.63819313 56.88035583
v -60.00151443 31.45034981 55.77479172
v -60.00151443 31.13990402 54.69721222
v -60.00151443 30.71075821 53.66116333
v -60.00151443 30.16831207 52.67967987
v -60.00151443 29.51938438 51.76510239
v -60.00151443 28.77213860 50.92893219
v -60.00151443 27.93596840 50.18168640
v -55.00151443 22.82071495 48.06287766
v -55.00151443 23.92627907 48.25072098
v -55.00151443 25.00386047 48.56116867
v -55.00151443 26.03990746 48.99031067
v -55.00151443 27.02139091 49.53276062
v -55.00151443 27.93596840 50.18168640
v -55.00151443 28.77213860 50.92893219
v -55.00151443 29.51938438 51.76510239
v -55.00151443 30.16831207 52.67967987
v -55.00151443 30.71075821 53.66116333
v -55.00151443 31.13990402 54.69721222
v -55.00151443 31.45034981 55.77479172
v -55.00151443 31.63819313 56.88035583
v -55.00151443 31.70107079 58.00000000
v -55.00151443 31.70107079 148.00000000
v -55.00151443 11.70106983 148.00000000
v -60.00151443 16.14476776 140.56268311
v -60.00151443 16.70107079 140.50000000
v -60.00151443 17.25737190 140.56268311
v -60.00151443 15.61636066 140.74757385
v -60.00151443 15.14234543 141.04542542
v -60.00151443 14.74649143 141.44126892
v -60.00151443 14.44864750 141.91529846
v -60.00151443 19.13838959 142.44369507
v -60.00151443 18.95349121 141.91529846
v -60.00151443 18.65564919 141.44126892
v -60.00151443 18.25979424 141.04542542
v -60.00151443 17.78577995 140.74757385
v -60.00151443 19.20107079 143.00000000
v -60.00151443 19.13838959 143.55630493
v -60.00151443 18.95349121 144.08471680
v -60.00151443 18.65564919 144.55873108
v -60.00151443 18.25979424 144.95457458
v -60.00151443 17.78577995 145.25242615
v -60.00151443 17.25737190 145.43731689
v -60.00151443 16.70107079 145.50000000
v -60.00151443 16.14476776 145.43731689
v -60.00151443 15.61636066 145.25242615
v -60.00151443 15.14234543 144.95457458
v -60.00151443 14.74649143 144.55873108
v -60.00151443 14.44864750 144.08471680
v -60.00151443 14.26375008 143.55630493
v -60.00151443 14.20106983 143.00000000
v -60.00151443 14.26375008 142.44369507
v -55.00151443 19.13838959 142.44369507
v -55.00151443 19.20107079 143.00000000
v -55.00151443 19.13838959 143.55630493
v -55.00151443 18.95349121 144.08471680
v -55.00151443 18.65564919 144.55873108
v -55.00151443 18.25979424 144.95457458
v -55.00151443 17.78577995 145.25242615
v -55.00151443 17.25737190 145.43731689
v -55.00151443 16.70107079 145.50000000
v -55.00151443 16.14476776 145.43731689
v -55.00151443 15.61636066 145.25242615
v -55.00151443 15.14234543 144.95457458
v -55.00151443 14.74649143 144.55873108
v -55.00151443 14.44864750 144.08471680
v -55.00151443 14.26375008 143.55630493
v -55.00151443 14.20106983 143.00000000
v -55.00151443 14.26375008 142.44369507
v -55.00151443 14.44864750 141.91529846
v -55.00151443 14.74649143 141.44126892
v -55.00151443 15.14234543 141.04542542
v -55.00151443 15.61636066 140.74757385
v -55.00151443 16.14476776 140.56268311
v -55.00151443 16.70107079 140.50000000
v -55.00151443 17.25737190 140.56268311
v -55.00151443 17.78577995 140.74757385
v -55.00151443 18.25979424 141.04542542
v -55.00151443 18.65564919 141.44126892
v -55.00151443 18.95349121 141.91529846
v -60.00151443 31.70107079 148.00000000
v -60.00151443 11.70106983 148.00000000
v -55.00151443 31.70107079 148.00000000
v -55.00151443 11.70106983 148.00000000
v -60.00151443 17.36344910 56.43675232
v -60.00151443 16.70107079 56.50000000
v -60.00151443 16.03869057 56.43675232
v -60.00151443 15.40025139 56.24928665
v -60.00151443 14.80882740 55.94438553
v -60.00151443 14.28579330 55.53306961
v -60.00151443 13.85005379 55.03020096
v -60.00151443 13.51735783 54.45395279
v -60.00151443 13.29972935 53.82515717
v -60.00151443 13.20503426 53.16653824
v -60.00151443 13.23669529 52.50189972
v -60.00151443 13.39356709 51.85526276
v -60.00151443 13.66998100 51.25000000
v -60.00151443 14.05594635 50.70798874
v -60.00151443 14.53751373 50.24881363
v -60.00151443 15.09727669 49.88907623
v -60.00151443 15.71500587 49.64177322
v -60.00151443 16.36837387 49.51585007
v -60.00151443 17.03376579 49.51585007
v -60.00151443 17.68713379 49.64177322
v -60.00151443 18.30486298 49.88907623
v -60.00151443 18.86462593 50.24881363
v -60.00151443 19.34619331 50.70798874
v -60.00151443 19.73215866 51.25000000
v -60.00151443 20.00857353 51.85526276
v -60.00151443 20.16544533 52.50189972
v -60.00151443 20.19710541 53.16653824
v -60.00151443 20.10241127 53.82515717
v -60.00151443 19.88478279 54.45395279
v -60.00151443 19.55208588 55.03020096
v -60.00151443 19.11634636 55.53306961
v -60.00151443 18.59331322 55.94438553
v -60.00151443 18.00188828 56.24928665
v -60.00151443 11.70106983 53.00000000
v -60.00151443 11.76262856 52.21783066
v -60.00151443 11.94578743 51.45491791
v -60.00151443 12.24603748 50.73004913
v -60.00151443 12.65598488 50.06107330
v -60.00151443 13.16553593 49.46446609
v -60.00151443 13.76214409 48.95491791
v -60.00151443 14.43111801 48.54496765
v -60.00151443 15.15598488 48.24471664
v -60.00151443 15.91889763 48.06155777
v -60.00151443 16.70107079 48.00000000
v -60.00151443 21.70107079 48.00000000
v -60.00151443 16.14476776 140.56268311
v -60.00151443 16.70107079 140.50000000
v -60.00151443 17.25737190 140.56268311
v -60.00151443 15.61636066 140.74757385
v -60.00151443 15.14234543 141.04542542
v -60.00151443 14.74649143 141.44126892
v -60.00151443 14.44864750 141.91529846
v -60.00151443 22.82071495 48.06287766
v -60.00151443 23.92627907 48.25072098
v -60.00151443 25.00386047 48.56116867
v -60.00151443 19.13838959 142.44369507
v -60.00151443 18.95349121 141.91529846
v -60.00151443 18.65564919 141.44126892
v -60.00151443 18.25979424 141.04542542
v -60.00151443 17.78577995 140.74757385
v -60.00151443 19.20107079 143.00000000
v -60.00151443 31.70107079 148.00000000
v -60.00151443 19.13838959 143.55630493
v -60.00151443 18.95349121 144.08471680
v -60.00151443 18.65564919 144.55873108
v -60.00151443 18.25979424 144.95457458
v -60.00151443 17.78577995 145.25242615
v -60.00151443 17.25737190 145.43731689
v -60.00151443 11.70106983 148.00000000
v -60.00151443 16.70107079 145.50000000
v -60.00151443 16.14476776 145.43731689
v -60.00151443 15.61636066 145.25242615
v -60.00151443 15.14234543 144.95457458
v -60.00151443 14.74649143 144.55873108
v -60.00151443 14.44864750 144.08471680
v -60.00151443 14.26375008 143.55630493
v -60.00151443 14.20106983 143.00000000
v -60.00151443 14.26375008 142.44369507
v -60.00151443 31.70107079 58.00000000
v -60.00151443 27.02139091 49.53276062
v -60.00151443 26.03990746 48.99031067
v -60.00151443 31.63819313 56.88035583
v -60.00151443 31.45034981 55.77479172
v -60.00151443 31.13990402 54.69721222
v -60.00151443 30.71075821 53.66116333
v -60.00151443 30.16831207 52.67967987
v -60.00151443 29.51938438 51.76510239
v -60.00151443 28.77213860 50.92893219
v -60.00151443 27.93596840 50.18168640
v -55.00151443 16.03869057 56.43675232
v -55.00151443 16.70107079 56.50000000
v -55.00151443 17.36344910 56.43675232
v -55.00151443 18.00188828 56.24929047
v -55.00151443 18.59331322 55.94438934
v -55.00151443 19.11634636 55.53306961
v -55.00151443 19.55208588 55.03020096
v -55.00151443 19.88478279 54.45395279
v -55.00151443 20.10241127 53.82515717
v -55.00151443 20.19710541 53.16653824
v -55.00151443 20.16544533 52.50189972
v -55.00151443 20.00857353 51.85526276
v -55.00151443 19.73215866 51.25000000
v -55.00151443 19.34619331 50.70798874
v -55.00151443 18.86462593 50.24881363
v -55.00151443 18.30486298 49.88907623
v -55.00151443 17.68713379 49.64177704
v -55.00151443 17.03376579 49.51585007
v -55.00151443 16.36837387 49.51585007
v -55.00151443 15.71500587 49.64177704
v -55.00151443 15.09727764 49.88907623
v -55.00151443 14.53751373 50.24881363
v -55.00151443 14.05594635 50.70798874
v -55.00151443 13.66998100 51.25000000
v -55.00151443 13.39356709 51.85526276
v -55.00151443 13.23669529 52.50189972
v -55.00151443 13.20503426 53.16653824
v -55.00151443 13.29972935 53.82515717
v -55.00151443 13.51735783 54.45395279
v -55.00151443 13.85005379 55.03020096
v -55.00151443 14.28579330 55.53306961
v -55.00151443 14.80882740 55.94438934
v -55.00151443 15.40025139 56.24929047
v -55.00151443 11.70106983 53.00000000
v -55.00151443 11.76262856 52.21783066
v -55.00151443 11.94578743 51.45491791
v -55.00151443 12.24603748 50.73004913
v -55.00151443 12.65598488 50.06107330
v -55.00151443 13.16553593 49.46446609
v -55.00151443 13.76214409 48.95491791
v -55.00151443 14.43111801 48.54496765
v -55.00151443 15.15598488 48.24471664
v -55.00151443 15.91889763 48.06155777
v -55.00151443 16.70107079 48.00000000
v -55.00151443 21.70107079 48.00000000
v -55.00151443 22.82071495 48.06287766
v -55.00151443 23.92627907 48.25072098
v -55.00151443 25.00386047 48.56116867
v -55.00151443 26.03990746 48.99031067
v -55.00151443 27.02139091 49.53276062
v -55.00151443 27.93596840 50.18168640
v -55.00151443 28.77213860 50.92893219
v -55.00151443 29.51938438 51.76510239
v -55.00151443 30.16831207 52.67967987
v -55.00151443 30.71075821 53.66116333
v -55.00151443 31.13990402 54.69721222
v -55.00151443 31.45034981 55.77479172
v -55.00151443 31.63819313 56.88035583
v -55.00151443 31.70107079 58.00000000
v -55.00151443 19.13838959 142.44369507
v -55.00151443 19.20107079 143.00000000
v -55.00151443 19.13838959 143.55630493
v -55.00151443 18.95349121 144.08471680
v -55.00151443 18.65564919 144.55873108
v -55.00151443 18.25979424 144.95457458
v -55.00151443 17.78577995 145.25242615
v -55.00151443 17.25737190 145.43731689
v -55.00151443 16.70107079 145.50000000
v -55.00151443 16.14476776 145.43731689
v -55.00151443 15.61636066 145.25242615
v -55.00151443 15.14234543 144.95457458
v -55.00151443 14.74649143 144.55873108
v -55.00151443 14.44864750 144.08471680
v -55.00151443 14.26375008 143.55630493
v -55.00151443 14.20106983 143.00000000
v -55.00151443 14.26375008 142.44369507
v -55.00151443 14.44864750 141.91529846
v -55.00151443 14.74649143 141.44126892
v -55.00151443 15.14234543 141.04542542
v -55.00151443 15.61636066 140.74757385
v -55.00151443 16.14476776 140.56268311
v -55.00151443 16.70107079 140.50000000
v -55.00151443 17.25737190 140.56268311
v -55.00151443 17.78577995 140.74757385
v -55.00151443 18.25979424 141.04542542
v -55.00151443 18.65564919 141.44126892
v -55.00151443 18.95349121 141.91529846
v -55.00151443 31.70107079 148.00000000
v -55.00151443 11.70106983 148.00000000
f 1 2 3
f 3 2 4
f 3 4 5
f 5 4 6
f 5 6 7
f 7 6 8
f 39 40 41
f 39 41 42
f 42 41 43
f 42 43 44
f 44 43 45
f 44 45 46
f 46 45 47
f 46 47 48
f 48 47 49
f 48 49 50
f 50 49 51
f 50 51 52
f 50 52 53
f 53 52 54
f 53 54 55
f 55 54 56
f 55 56 57
f 57 56 58
f 57 58 59
f 59 58 60
f 59 60 61
f 61 60 1
f 61 1 3
f 22 21 23
f 22 23 24
f 24 23 25
f 24 25 26
f 26 25 27
f 26 27 28
f 26 28 29
f 29 28 30
f 29 30 31
f 31 30 32
f 31 32 33
f 33 32 34
f 33 34 35
f 35 34 36
f 35 36 37
f 37 36 38
f 37 38 39
f 39 38 40
f 7 8 9
f 9 8 10
f 9 10 11
f 11 10 12
f 11 12 13
f 13 12 14
f 13 14 15
f 15 14 16
f 15 16 17
f 15 17 18
f 18 17 19
f 18 19 20
f 20 19 21
f 20 21 22
f 95 63 96
f 96 63 62
f 96 62 97
f 112 79 113
f 112 80 79
f 111 80 112
f 111 81 80
f 110 81 111
f 110 82 81
f 109 82 110
f 109 83 82
f 108 83 109
f 108 84 83
f 107 84 108
f 107 85 84
f 106 85 107
f 106 86 85
f 105 86 106
f 105 87 86
f 104 87 105
f 104 88 87
f 103 88 104
f 103 89 88
f 102 89 103
f 102 90 89
f 101 90 102
f 101 91 90
f 100 91 101
f 100 92 91
f 99 92 100
f 99 93 92
f 98 93 99
f 98 94 93
f 97 94 98
f 97 62 94
f 95 64 63
f 127 64 95
f 127 65 64
f 126 65 127
f 125 66 126
f 126 66 65
f 125 67 66
f 124 67 125
f 122 69 123
f 124 68 67
f 123 68 124
f 123 69 68
f 121 70 122
f 122 70 69
f 121 71 70
f 120 71 121
f 116 75 117
f 120 72 71
f 119 72 120
f 119 73 72
f 118 73 119
f 118 74 73
f 117 74 118
f 117 75 74
f 114 77 115
f 116 76 75
f 115 76 116
f 115 77 76
f 113 78 114
f 114 78 77
f 113 79 78
f 151 150 152
f 149 150 151
f 149 148 150
f 147 148 149
f 147 146 148
f 145 146 147
f 145 144 146
f 142 144 145
f 142 143 144
f 142 141 143
f 140 141 142
f 140 139 141
f 138 139 140
f 138 137 139
f 136 137 138
f 136 135 137
f 166 167 168
f 166 165 167
f 164 165 166
f 164 163 165
f 162 163 164
f 162 161 163
f 160 161 162
f 160 159 161
f 158 159 160
f 158 157 159
f 156 157 158
f 156 155 157
f 153 155 156
f 153 154 155
f 153 152 154
f 151 152 153
f 182 183 184
f 182 181 183
f 180 181 182
f 180 179 181
f 177 179 180
f 177 178 179
f 177 176 178
f 175 176 177
f 175 174 176
f 173 174 175
f 173 172 174
f 171 172 173
f 171 170 172
f 169 170 171
f 169 168 170
f 166 168 169
f 186 187 188
f 186 185 187
f 184 183 185
f 184 185 186
f 188 128 130
f 188 187 128
f 134 135 136
f 130 131 132
f 134 133 135
f 132 131 133
f 130 129 131
f 128 129 130
f 132 133 134
f 223 189 224
f 227 219 218
f 226 219 227
f 235 211 210
f 234 211 235
f 234 212 211
f 233 212 234
f 233 213 212
f 232 213 233
f 232 214 213
f 231 214 232
f 231 215 214
f 230 215 231
f 230 216 215
f 229 216 230
f 229 217 216
f 228 217 229
f 228 218 217
f 227 218 228
f 243 203 202
f 242 203 243
f 242 204 203
f 241 204 242
f 241 205 204
f 240 205 241
f 240 206 205
f 239 206 240
f 239 207 206
f 238 207 239
f 238 208 207
f 237 208 238
f 237 209 208
f 236 209 237
f 236 210 209
f 235 210 236
f 251 195 194
f 250 195 251
f 250 196 195
f 249 196 250
f 249 197 196
f 248 197 249
f 248 198 197
f 247 198 248
f 247 199 198
f 246 199 247
f 246 200 199
f 245 200 246
f 245 201 200
f 244 201 245
f 244 202 201
f 243 202 244
f 251 194 252
f 252 194 193
f 252 193 253
f 253 193 192
f 253 192 254
f 254 192 191
f 254 191 222
f 222 191 190
f 225 220 226
f 224 189 221
f 224 221 225
f 225 221 220
f 223 190 189
f 226 220 219
f 222 190 223
f 270 296 269
f 266 299 300
f 267 299 266
f 267 298 299
f 268 298 267
f 268 297 298
f 269 297 268
f 269 296 297
f 258 307 308
f 262 303 304
f 259 307 258
f 259 306 307
f 260 306 259
f 260 305 306
f 261 305 260
f 261 304 305
f 262 304 261
f 278 287 288
f 279 287 278
f 279 286 287
f 280 286 279
f 280 285 286
f 281 285 280
f 281 284 285
f 282 284 281
f 282 283 284
f 263 303 262
f 263 302 303
f 264 302 263
f 264 301 302
f 265 301 264
f 265 300 301
f 266 300 265
f 258 308 257
f 257 308 309
f 257 309 256
f 256 309 310
f 256 310 255
f 255 310 283
f 255 283 282
f 270 295 296
f 274 291 292
f 271 295 270
f 271 294 295
f 272 294 271
f 272 293 294
f 273 293 272
f 273 292 293
f 274 292 273
f 278 288 277
f 277 288 289
f 277 289 276
f 276 289 290
f 276 290 275
f 275 290 291
f 275 291 274
f 312 366 339
f 311 366 312
f 340 338 364
f 364 338 365
f 332 333 331
f 331 333 334
f 334 333 351
f 351 333 335
f 351 335 352
f 352 335 336
f 352 336 353
f 353 336 337
f 353 337 354
f 354 337 342
f 354 342 355
f 355 342 341
f 331 330 332
f 329 330 331
f 329 328 330
f 327 328 329
f 357 349 358
f 358 349 348
f 358 348 359
f 359 348 347
f 359 347 360
f 360 347 346
f 360 346 361
f 361 346 345
f 361 345 362
f 362 345 344
f 362 344 363
f 363 344 343
f 363 343 364
f 364 343 340
f 356 341 350
f 355 341 356
f 357 350 349
f 356 350 357
f 321 320 322
f 319 320 321
f 319 318 320
f 317 318 319
f 317 316 318
f 315 316 317
f 315 314 316
f 313 314 315
f 313 312 314
f 311 312 313
f 327 326 328
f 325 326 327
f 325 324 326
f 323 324 325
f 323 322 324
f 321 322 323
f 377 419 420
f 378 419 377
f 378 418 419
f 369 418 378
f 376 421 375
f 375 421 422
f 374 422 395
f 375 422 374
f 376 420 421
f 377 420 376
f 393 410 394
f 394 410 411
f 379 395 396
f 374 395 379
f 380 397 381
f 381 397 398
f 380 396 397
f 379 396 380
f 383 400 384
f 384 400 401
f 382 399 383
f 383 399 400
f 384 401 385
f 385 401 402
f 382 398 399
f 381 398 382
f 393 409 410
f 392 409 393
f 392 408 409
f 391 408 392
f 391 407 408
f 390 407 391
f 390 406 407
f 389 406 390
f 389 405 406
f 388 405 389
f 388 404 405
f 387 404 388
f 387 403 404
f 386 403 387
f 386 402 403
f 385 402 386
f 371 414 370
f 370 414 415
f 394 411 373
f 373 411 412
f 373 412 372
f 372 412 413
f 372 413 371
f 371 413 414
f 367 416 368
f 368 416 417
f 370 415 367
f 367 415 416
f 368 417 369
f 369 417 418
f 426 425 424
f 424 425 423
f 472 429 475
f 428 473 474
f 475 429 430
f 429 472 428
f 464 437 465
f 464 436 437
f 463 436 464
f 462 436 463
f 460 436 462
f 460 435 436
f 434 435 460
f 433 478 477
f 433 460 478
f 434 460 433
f 477 432 433
f 477 431 432
f 476 431 477
f 476 430 431
f 475 430 476
f 471 447 448
f 470 447 471
f 446 447 470
f 470 445 446
f 470 444 445
f 469 444 470
f 469 443 444
f 468 443 469
f 468 442 443
f 467 442 468
f 467 441 442
f 467 440 441
f 466 440 467
f 466 439 440
f 465 439 466
f 428 472 473
f 465 437 438
f 484 457 458
f 465 438 439
f 484 456 457
f 483 456 484
f 481 455 482
f 481 454 455
f 483 455 456
f 482 455 483
f 479 453 454
f 471 453 479
f 452 453 471
f 471 451 452
f 471 450 451
f 449 450 471
f 480 454 481
f 479 454 480
f 495 494 496
f 488 494 495
f 493 494 488
f 488 492 493
f 488 491 492
f 490 491 488
f 488 489 490
f 488 487 489
f 482 487 488
f 474 427 428
f 486 427 474
f 486 459 427
f 485 459 486
f 485 458 459
f 471 448 449
f 495 496 497
f 505 509 510
f 508 509 505
f 482 506 507
f 482 505 506
f 488 505 482
f 462 461 460
f 460 504 478
f 495 504 460
f 503 504 495
f 495 502 503
f 495 501 502
f 500 501 495
f 495 499 500
f 495 498 499
f 497 498 495
f 505 513 514
f 505 515 506
f 514 515 505
f 505 512 513
f 511 512 505
f 507 481 482
f 505 510 511
f 484 458 485
f 574 572 573
f 604 582 603
f 603 582 581
f 603 581 580
f 577 576 603
f 601 522 602
f 601 520 521
f 601 521 522
f 598 518 599
f 599 518 519
f 599 519 600
f 600 519 520
f 600 520 601
f 518 598 517
f 517 597 596
f 517 598 597
f 560 531 559
f 530 531 560
f 560 529 530
f 560 528 529
f 527 528 560
f 560 526 527
f 560 525 526
f 561 525 560
f 561 524 525
f 562 524 561
f 563 524 562
f 523 524 563
f 575 563 564
f 575 523 563
f 602 523 575
f 602 522 523
f 554 541 553
f 554 540 541
f 554 539 540
f 555 539 554
f 555 538 539
f 556 538 555
f 556 537 538
f 556 536 537
f 557 536 556
f 557 535 536
f 558 535 557
f 558 534 535
f 559 534 558
f 533 534 559
f 559 532 533
f 559 531 532
f 546 547 593
f 604 590 589
f 604 591 590
f 549 591 604
f 549 592 591
f 603 578 577
f 580 579 603
f 603 579 578
f 604 588 587
f 589 588 604
f 603 576 575
f 583 582 604
f 604 584 583
f 604 585 584
f 586 585 604
f 604 587 586
f 553 541 542
f 553 542 552
f 552 542 551
f 551 542 549
f 551 549 550
f 542 543 549
f 549 543 544
f 549 544 545
f 546 593 545
f 545 593 592
f 545 592 549
f 571 572 574
f 574 567 568
f 574 570 571
f 574 569 570
f 568 569 574
f 593 547 594
f 594 547 548
f 594 548 595
f 595 548 516
f 595 516 596
f 596 516 517
f 564 565 575
f 575 565 574
f 575 574 603
f 565 566 574
f 574 566 567

