# https://github.com/mikedh/trimesh

o F_Left_1.stl
v -70.53240204 4.10712767 48.00000000
v -70.53240204 4.10712767 43.00000000
v -70.14819336 4.15203524 48.00000000
v -70.14819336 4.15203524 43.00000000
v -69.76399231 4.10712767 48.00000000
v -69.76399231 4.10712767 43.00000000
v -69.40049744 3.97482705 48.00000000
v -69.40049744 3.97482705 43.00000000
v -69.07730865 3.76226521 48.00000000
v -69.07730865 3.76226521 43.00000000
v -68.81185913 3.48090124 48.00000000
v -68.81185913 3.48090124 43.00000000
v -68.61844635 3.14590406 48.00000000
v -68.61844635 3.14590406 43.00000000
v -68.50750732 2.77533293 48.00000000
v -68.50750732 2.77533293 43.00000000
v -68.48501587 2.38916588 48.00000000
v -68.48501587 2.38916588 43.00000000
v -68.55218506 2.00822091 48.00000000
v -68.55218506 2.00822091 43.00000000
v -68.70539856 1.65303516 48.00000000
v -68.70539856 1.65303516 43.00000000
v -68.93639374 1.34275651 48.00000000
v -68.93639374 1.34275651 43.00000000
v -69.23271179 1.09411240 48.00000000
v -69.23271179 1.09411240 43.00000000
v -69.57839203 0.92050725 48.00000000
v -69.57839203 0.92050725 43.00000000
v -69.95478821 0.83130002 48.00000000
v -69.95478821 0.83130002 43.00000000
v -70.34160614 0.83130002 48.00000000
v -70.34160614 0.83130002 43.00000000
v -70.71800232 0.92050725 48.00000000
v -70.71800232 0.92050725 43.00000000
v -71.06367493 1.09411240 48.00000000
v -71.06367493 1.09411240 43.00000000
v -71.36000061 1.34275651 48.00000000
v -71.36000061 1.34275651 43.00000000
v -71.59099579 1.65303516 48.00000000
v -71.59099579 1.65303516 43.00000000
v -71.74420929 2.00822091 48.00000000
v -71.74420929 2.00822091 43.00000000
v -71.81137848 2.38916588 48.00000000
v -71.81137848 2.38916588 43.00000000
v -71.78888702 2.77533293 48.00000000
v -71.78888702 2.77533293 43.00000000
v -71.67794037 3.14590406 48.00000000
v -71.67794037 3.14590406 43.00000000
v -71.48453522 3.48090124 48.00000000
v -71.48453522 3.48090124 43.00000000
v -71.21907806 3.76226521 48.00000000
v -71.21907806 3.76226521 43.00000000
v -70.89589691 3.97482705 48.00000000
v -70.89589691 3.97482705 43.00000000
v -70.53240204 0.86494237 38.00000000
v -70.14819336 0.82003516 38.00000000
v -69.76399231 0.86494237 38.00000000
v -69.40049744 0.99724317 38.00000000
v -69.07730865 1.20980513 38.00000000
v -68.81185913 1.49116898 38.00000000
v -68.61844635 1.82616627 38.00000000
v -68.50750732 2.19673729 38.00000000
v -68.48501587 2.58290434 38.00000000
v -68.55218506 2.96384931 38.00000000
v -68.70539856 3.31903505 38.00000000
v -68.93639374 3.62931371 38.00000000
v -69.23271179 3.87795782 38.00000000
v -69.57839203 4.05156326 38.00000000
v -69.95478821 4.14077044 38.00000000
v -70.34160614 4.14077044 38.00000000
v -70.71800232 4.05156326 38.00000000
v -71.06367493 3.87795782 38.00000000
v -71.36000061 3.62931371 38.00000000
v -71.59099579 3.31903505 38.00000000
v -71.74420929 2.96384931 38.00000000
v -71.81137848 2.58290434 38.00000000
v -71.78888702 2.19673729 38.00000000
v -71.67794037 1.82616627 38.00000000
v -71.48453522 1.49116898 38.00000000
v -71.21907806 1.20980513 38.00000000
v -70.89589691 0.99724317 38.00000000
v -70.53240204 0.86494237 38.00000000
v -70.14819336 0.82003516 38.00000000
v -69.76399231 0.86494237 38.00000000
v -69.40049744 0.99724317 38.00000000
v -69.07730865 1.20980513 38.00000000
v -68.81185913 1.49116898 38.00000000
v -68.61844635 1.82616627 38.00000000
v -68.50750732 2.19673729 38.00000000
v -68.48501587 2.58290434 38.00000000
v -68.55218506 2.96384931 38.00000000
v -68.70539856 3.31903505 38.00000000
v -68.93639374 3.62931371 38.00000000
v -69.23271179 3.87795782 38.00000000
v -69.57839203 4.05156326 38.00000000
v -69.95478821 4.14077044 38.00000000
v -70.34160614 4.14077044 38.00000000
v -70.71800232 4.05156326 38.00000000
v -71.06367493 3.87795782 38.00000000
v -71.36000061 3.62931371 38.00000000
v -71.59099579 3.31903505 38.00000000
v -71.74420929 2.96384931 38.00000000
v -71.81137848 2.58290434 38.00000000
v -71.78888702 2.19673729 38.00000000
v -71.67794037 1.82616627 38.00000000
v -71.48453522 1.49116898 38.00000000
v -71.21907806 1.20980513 38.00000000
v -70.89589691 0.99724317 38.00000000
v -90.53240204 4.10712767 48.00000000
v -90.53240204 4.10712767 43.00000000
v -90.14819336 4.15203524 48.00000000
v -90.14819336 4.15203524 43.00000000
v -89.76399231 4.10712767 48.00000000
v -89.76399231 4.10712767 43.00000000
v -89.40049744 3.97482705 48.00000000
v -89.40049744 3.97482705 43.00000000
v -89.07730865 3.76226521 48.00000000
v -89.07730865 3.76226521 43.00000000
v -88.81185913 3.48090124 48.00000000
v -88.81185913 3.48090124 43.00000000
v -88.61844635 3.14590406 48.00000000
v -88.61844635 3.14590406 43.00000000
v -88.50750732 2.77533293 48.00000000
v -88.50750732 2.77533293 43.00000000
v -88.48501587 2.38916588 48.00000000
v -88.48501587 2.38916588 43.00000000
v -88.55218506 2.00822091 48.00000000
v -88.55218506 2.00822091 43.00000000
v -88.70539856 1.65303516 48.00000000
v -88.70539856 1.65303516 43.00000000
v -88.93639374 1.34275651 48.00000000
v -88.93639374 1.34275651 43.00000000
v -89.23271179 1.09411240 48.00000000
v -89.23271179 1.09411240 43.00000000
v -89.57839203 0.92050725 48.00000000
v -89.57839203 0.92050725 43.00000000
v -89.95478821 0.83130002 48.00000000
v -89.95478821 0.83130002 43.00000000
v -90.34160614 0.83130002 48.00000000
v -90.34160614 0.83130002 43.00000000
v -90.71800232 0.92050725 48.00000000
v -90.71800232 0.92050725 43.00000000
v -91.06367493 1.09411240 48.00000000
v -91.06367493 1.09411240 43.00000000
v -91.36000061 1.34275651 48.00000000
v -91.36000061 1.34275651 43.00000000
v -91.59099579 1.65303516 48.00000000
v -91.59099579 1.65303516 43.00000000
v -91.74420929 2.00822091 48.00000000
v -91.74420929 2.00822091 43.00000000
v -91.81137848 2.38916588 48.00000000
v -91.81137848 2.38916588 43.00000000
v -91.78888702 2.77533293 48.00000000
v -91.78888702 2.77533293 43.00000000
v -91.67794037 3.14590406 48.00000000
v -91.67794037 3.14590406 43.00000000
v -91.48453522 3.48090124 48.00000000
v -91.48453522 3.48090124 43.00000000
v -91.21907806 3.76226521 48.00000000
v -91.21907806 3.76226521 43.00000000
v -90.89589691 3.97482705 48.00000000
v -90.89589691 3.97482705 43.00000000
v -90.53240204 0.86494237 38.00000000
v -90.14819336 0.82003516 38.00000000
v -89.76399231 0.86494237 38.00000000
v -89.40049744 0.99724317 38.00000000
v -89.07730865 1.20980513 38.00000000
v -88.81185913 1.49116898 38.00000000
v -88.61844635 1.82616627 38.00000000
v -88.50750732 2.19673729 38.00000000
v -88.48501587 2.58290434 38.00000000
v -88.55218506 2.96384931 38.00000000
v -88.70539856 3.31903505 38.00000000
v -88.93639374 3.62931371 38.00000000
v -89.23271179 3.87795782 38.00000000
v -89.57839203 4.05156326 38.00000000
v -89.95478821 4.14077044 38.00000000
v -90.34160614 4.14077044 38.00000000
v -90.71800232 4.05156326 38.00000000
v -91.06367493 3.87795782 38.00000000
v -91.36000061 3.62931371 38.00000000
v -91.59099579 3.31903505 38.00000000
v -91.74420929 2.96384931 38.00000000
v -91.81137848 2.58290434 38.00000000
v -91.78888702 2.19673729 38.00000000
v -91.67794037 1.82616627 38.00000000
v -91.48453522 1.49116898 38.00000000
v -91.21907806 1.20980513 38.00000000
v -90.89589691 0.99724317 38.00000000
v -90.53240204 0.86494237 38.00000000
v -90.14819336 0.82003516 38.00000000
v -89.76399231 0.86494237 38.00000000
v -89.40049744 0.99724317 38.00000000
v -89.07730865 1.20980513 38.00000000
v -88.81185913 1.49116898 38.00000000
v -88.61844635 1.82616627 38.00000000
v -88.50750732 2.19673729 38.00000000
v -88.48501587 2.58290434 38.00000000
v -88.55218506 2.96384931 38.00000000
v -88.70539856 3.31903505 38.00000000
v -88.93639374 3.62931371 38.00000000
v -89.23271179 3.87795782 38.00000000
v -89.57839203 4.05156326 38.00000000
v -89.95478821 4.14077044 38.00000000
v -90.34160614 4.14077044 38.00000000
v -90.71800232 4.05156326 38.00000000
v -91.06367493 3.87795782 38.00000000
v -91.36000061 3.62931371 38.00000000
v -91.59099579 3.31903505 38.00000000
v -91.74420929 2.96384931 38.00000000
v -91.81137848 2.58290434 38.00000000
v -91.78888702 2.19673729 38.00000000
v -91.67794037 1.82616627 38.00000000
v -91.48453522 1.49116898 38.00000000
v -91.21907806 1.20980513 38.00000000
v -90.89589691 0.99724317 38.00000000
v -109.26928711 4.98603535 38.38420486
v -109.26928711 -0.01396486 38.38420486
v -109.31419373 4.98603535 38.00000000
v -109.31419373 -0.01396486 38.00000000
v -109.26928711 4.98603535 37.61579514
v -109.26928711 -0.01396486 37.61579514
v -109.13698578 4.98603535 37.25230026
v -109.13698578 -0.01396486 37.25230026
v -108.92442322 4.98603535 36.92911530
v -108.92442322 -0.01396486 36.92911530
v -108.64305878 4.98603535 36.66366196
v -108.64305878 -0.01396486 36.66366196
v -108.30806732 4.98603535 36.47025299
v -108.30806732 -0.01396486 36.47025299
v -107.93749237 4.98603535 36.35931015
v -107.93749237 -0.01396486 36.35931015
v -107.55132294 4.98603535 36.33681870
v -107.55132294 -0.01396486 36.33681870
v -107.17037964 4.98603535 36.40398788
v -107.17037964 -0.01396486 36.40398788
v -106.81519318 4.98603535 36.55720139
v -106.81519318 -0.01396486 36.55720139
v -106.50492096 4.98603535 36.78819656
v -106.50492096 -0.01396486 36.78819656
v -106.25627136 4.98603535 37.08451843
v -106.25627136 -0.01396486 37.08451843
v -106.08266449 4.98603535 37.43019485
v -106.08266449 -0.01396486 37.43019485
v -105.99346161 4.98603535 37.80659103
v -105.99346161 -0.01396486 37.80659103
v -105.99346161 4.98603535 38.19340897
v -105.99346161 -0.01396486 38.19340897
v -106.08266449 4.98603535 38.56980515
v -106.08266449 -0.01396486 38.56980515
v -106.25627136 4.98603535 38.91548157
v -106.25627136 -0.01396486 38.91548157
v -106.50492096 4.98603535 39.21180344
v -106.50492096 -0.01396486 39.21180344
v -106.81519318 4.98603535 39.44279861
v -106.81519318 -0.01396486 39.44279861
v -107.17037964 4.98603535 39.59601212
v -107.17037964 -0.01396486 39.59601212
v -107.55132294 4.98603535 39.66318130
v -107.55132294 -0.01396486 39.66318130
v -107.93749237 4.98603535 39.64068985
v -107.93749237 -0.01396486 39.64068985
v -108.30806732 4.98603535 39.52974701
v -108.30806732 -0.01396486 39.52974701
v -108.64305878 4.98603535 39.33633804
v -108.64305878 -0.01396486 39.33633804
v -108.92442322 4.98603535 39.07088470
v -108.92442322 -0.01396486 39.07088470
v -109.13698578 4.98603535 38.74769974
v -109.13698578 -0.01396486 38.74769974
v -109.26928711 4.98603535 28.38420677
v -109.26928711 -0.01396486 28.38420677
v -109.31419373 4.98603535 28.00000000
v -109.31419373 -0.01396486 28.00000000
v -109.26928711 4.98603535 27.61579323
v -109.26928711 -0.01396486 27.61579323
v -109.13698578 4.98603535 27.25230026
v -109.13698578 -0.01396486 27.25230026
v -108.92442322 4.98603535 26.92911530
v -108.92442322 -0.01396486 26.92911530
v -108.64305878 4.98603535 26.66366196
v -108.64305878 -0.01396486 26.66366196
v -108.30806732 4.98603535 26.47025108
v -108.30806732 -0.01396486 26.47025108
v -107.93749237 4.98603535 26.35931015
v -107.93749237 -0.01396486 26.35931015
v -107.55132294 4.98603535 26.33681870
v -107.55132294 -0.01396486 26.33681870
v -107.17037964 4.98603535 26.40398979
v -107.17037964 -0.01396486 26.40398979
v -106.81519318 4.98603535 26.55720139
v -106.81519318 -0.01396486 26.55720139
v -106.50492096 4.98603535 26.78819466
v -106.50492096 -0.01396486 26.78819466
v -106.25627136 4.98603535 27.08451843
v -106.25627136 -0.01396486 27.08451843
v -106.08266449 4.98603535 27.43019485
v -106.08266449 -0.01396486 27.43019485
v -105.99346161 4.98603535 27.80658913
v -105.99346161 -0.01396486 27.80658913
v -105.99346161 4.98603535 28.19341087
v -105.99346161 -0.01396486 28.19341087
v -106.08266449 4.98603535 28.56980515
v -106.08266449 -0.01396486 28.56980515
v -106.25627136 4.98603535 28.91548157
v -106.25627136 -0.01396486 28.91548157
v -106.50492096 4.98603535 29.21180534
v -106.50492096 -0.01396486 29.21180534
v -106.81519318 4.98603535 29.44279861
v -106.81519318 -0.01396486 29.44279861
v -107.17037964 4.98603535 29.59601021
v -107.17037964 -0.01396486 29.59601021
v -107.55132294 4.98603535 29.66318130
v -107.55132294 -0.01396486 29.66318130
v -107.93749237 4.98603535 29.64068985
v -107.93749237 -0.01396486 29.64068985
v -108.30806732 4.98603535 29.52974892
v -108.30806732 -0.01396486 29.52974892
v -108.64305878 4.98603535 29.33633804
v -108.64305878 -0.01396486 29.33633804
v -108.92442322 4.98603535 29.07088470
v -108.92442322 -0.01396486 29.07088470
v -109.13698578 4.98603535 28.74769974
v -109.13698578 -0.01396486 28.74769974
v -86.72692871 -0.01396486 32.13946533
v -86.72692871 4.98603535 32.13946533
v -86.77183533 -0.01396486 32.52367020
v -86.77183533 4.98603535 32.52367020
v -86.72692871 -0.01396486 32.90787506
v -86.72692871 4.98603535 32.90787506
v -86.59462738 -0.01396486 33.27136993
v -86.59462738 4.98603535 33.27136993
v -86.38206482 -0.01396486 33.59455490
v -86.38206482 4.98603535 33.59455490
v -86.10070038 -0.01396486 33.86000824
v -86.10070038 4.98603535 33.86000824
v -85.76570892 -0.01396486 34.05341721
v -85.76570892 4.98603535 34.05341721
v -85.39513397 -0.01396486 34.16436005
v -85.39513397 4.98603535 34.16436005
v -85.00897217 -0.01396486 34.18685150
v -85.00897217 4.98603535 34.18685150
v -84.62802124 -0.01396486 34.11967850
v -84.62802124 4.98603535 34.11967850
v -84.27283478 -0.01396486 33.96646881
v -84.27283478 4.98603535 33.96646881
v -83.96256256 -0.01396486 33.73547363
v -83.96256256 4.98603535 33.73547363
v -83.71391296 -0.01396486 33.43915176
v -83.71391296 4.98603535 33.43915176
v -83.54030609 -0.01396486 33.09347534
v -83.54030609 4.98603535 33.09347534
v -83.45110321 -0.01396486 32.71707916
v -83.45110321 4.98603535 32.71707916
v -83.45110321 -0.01396486 32.33025742
v -83.45110321 4.98603535 32.33025742
v -83.54030609 -0.01396486 31.95386505
v -83.54030609 4.98603535 31.95386505
v -83.71391296 -0.01396486 31.60818863
v -83.71391296 4.98603535 31.60818863
v -83.96256256 -0.01396486 31.31186485
v -83.96256256 4.98603535 31.31186485
v -84.27283478 -0.01396486 31.08087158
v -84.27283478 4.98603535 31.08087158
v -84.62802124 -0.01396486 30.92765999
v -84.62802124 4.98603535 30.92765999
v -85.00897217 -0.01396486 30.86048889
v -85.00897217 4.98603535 30.86048889
v -85.39513397 -0.01396486 30.88298035
v -85.39513397 4.98603535 30.88298035
v -85.76570892 -0.01396486 30.99392128
v -85.76570892 4.98603535 30.99392128
v -86.10070038 -0.01396486 31.18733215
v -86.10070038 4.98603535 31.18733215
v -86.38206482 -0.01396486 31.45278549
v -86.38206482 4.98603535 31.45278549
v -86.59462738 -0.01396486 31.77597046
v -86.59462738 4.98603535 31.77597046
v -72.12693024 -0.01396486 32.13946533
v -72.12693024 4.98603535 32.13946533
v -72.17183685 -0.01396486 32.52367020
v -72.17183685 4.98603535 32.52367020
v -72.12693024 -0.01396486 32.90787506
v -72.12693024 4.98603535 32.90787506
v -71.99462891 -0.01396486 33.27136993
v -71.99462891 4.98603535 33.27136993
v -71.78206635 -0.01396486 33.59455490
v -71.78206635 4.98603535 33.59455490
v -71.50070190 -0.01396486 33.86000824
v -71.50070190 4.98603535 33.86000824
v -71.16571045 -0.01396486 34.05341721
v -71.16571045 4.98603535 34.05341721
v -70.79513550 -0.01396486 34.16436005
v -70.79513550 4.98603535 34.16436005
v -70.40896606 -0.01396486 34.18685150
v -70.40896606 4.98603535 34.18685150
v -70.02802277 -0.01396486 34.11967850
v -70.02802277 4.98603535 34.11967850
v -69.67283630 -0.01396486 33.96646881
v -69.67283630 4.98603535 33.96646881
v -69.36255646 -0.01396486 33.73547363
v -69.36255646 4.98603535 33.73547363
v -69.11391449 -0.01396486 33.43915176
v -69.11391449 4.98603535 33.43915176
v -68.94030762 -0.01396486 33.09347534
v -68.94030762 4.98603535 33.09347534
v -68.85110474 -0.01396486 32.71707916
v -68.85110474 4.98603535 32.71707916
v -68.85110474 -0.01396486 32.33025742
v -68.85110474 4.98603535 32.33025742
v -68.94030762 -0.01396486 31.95386505
v -68.94030762 4.98603535 31.95386505
v -69.11391449 -0.01396486 31.60818863
v -69.11391449 4.98603535 31.60818863
v -69.36255646 -0.01396486 31.31186485
v -69.36255646 4.98603535 31.31186485
v -69.67283630 -0.01396486 31.08087158
v -69.67283630 4.98603535 31.08087158
v -70.02802277 -0.01396486 30.92765999
v -70.02802277 4.98603535 30.92765999
v -70.40896606 -0.01396486 30.86048889
v -70.40896606 4.98603535 30.86048889
v -70.79513550 -0.01396486 30.88298035
v -70.79513550 4.98603535 30.88298035
v -71.16571045 -0.01396486 30.99392128
v -71.16571045 4.98603535 30.99392128
v -71.50070190 -0.01396486 31.18733215
v -71.50070190 4.98603535 31.18733215
v -71.78206635 -0.01396486 31.45278549
v -71.78206635 4.98603535 31.45278549
v -71.99462891 -0.01396486 31.77597046
v -71.99462891 4.98603535 31.77597046
v -55.00151443 4.98603535 0.00000000
v -55.00151443 -0.01396486 0.00000000
v -110.14819336 4.98603535 0.00000000
v -110.14819336 -0.01396486 0.00000000
v -55.00151443 4.98603535 0.00000000
v -55.00151443 -0.01396486 0.00000000
v -55.00151443 4.98603535 48.00000000
v -55.00151443 -0.01396486 48.00000000
v -110.14819336 4.98603535 0.00000000
v -110.14819336 -0.01396486 0.00000000
v -110.14819336 -0.01396486 48.00000000
v -110.14819336 4.98603535 48.00000000
v -70.53240204 4.10712767 48.00000000
v -70.14819336 4.15203524 48.00000000
v -69.76399231 4.10712767 48.00000000
v -69.40049744 3.97482705 48.00000000
v -69.07730865 3.76226521 48.00000000
v -68.81185913 3.48090124 48.00000000
v -68.61844635 3.14590406 48.00000000
v -68.50750732 2.77533293 48.00000000
v -68.48501587 2.38916588 48.00000000
v -68.55218506 2.00822091 48.00000000
v -68.70539856 1.65303516 48.00000000
v -68.93639374 1.34275651 48.00000000
v -69.23271179 1.09411240 48.00000000
v -69.57839203 0.92050725 48.00000000
v -69.95478821 0.83130002 48.00000000
v -70.34160614 0.83130002 48.00000000
v -70.71800232 0.92050725 48.00000000
v -71.06367493 1.09411240 48.00000000
v -71.36000061 1.34275651 48.00000000
v -71.59099579 1.65303516 48.00000000
v -71.74420929 2.00822091 48.00000000
v -71.81137848 2.38916588 48.00000000
v -71.78888702 2.77533293 48.00000000
v -71.67794037 3.14590406 48.00000000
v -71.48453522 3.48090124 48.00000000
v -71.21907806 3.76226521 48.00000000
v -70.89589691 3.97482705 48.00000000
v -90.53240204 4.10712767 48.00000000
v -90.14819336 4.15203524 48.00000000
v -89.76399231 4.10712767 48.00000000
v -89.40049744 3.97482705 48.00000000
v -89.07730865 3.76226521 48.00000000
v -88.81185913 3.48090124 48.00000000
v -88.61844635 3.14590406 48.00000000
v -88.50750732 2.77533293 48.00000000
v -88.48501587 2.38916588 48.00000000
v -88.55218506 2.00822091 48.00000000
v -88.70539856 1.65303516 48.00000000
v -88.93639374 1.34275651 48.00000000
v -89.23271179 1.09411240 48.00000000
v -89.57839203 0.92050725 48.00000000
v -89.95478821 0.83130002 48.00000000
v -90.34160614 0.83130002 48.00000000
v -90.71800232 0.92050725 48.00000000
v -91.06367493 1.09411240 48.00000000
v -91.36000061 1.34275651 48.00000000
v -91.59099579 1.65303516 48.00000000
v -91.74420929 2.00822091 48.00000000
v -91.81137848 2.38916588 48.00000000
v -91.78888702 2.77533293 48.00000000
v -91.67794037 3.14590406 48.00000000
v -91.48453522 3.48090124 48.00000000
v -91.21907806 3.76226521 48.00000000
v -90.89589691 3.97482705 48.00000000
v -55.00151443 4.98603535 48.00000000
v -55.00151443 -0.01396486 48.00000000
v -110.14819336 -0.01396486 48.00000000
v -110.14819336 4.98603535 48.00000000
v -109.26928711 -0.01396486 38.38420486
v -109.31419373 -0.01396486 38.00000000
v -109.26928711 -0.01396486 37.61579514
v -109.13698578 -0.01396486 37.25230026
v -108.92442322 -0.01396486 36.92911530
v -108.64305878 -0.01396486 36.66366196
v -108.30806732 -0.01396486 36.47025299
v -107.93749237 -0.01396486 36.35931015
v -107.55132294 -0.01396486 36.33681870
v -107.17037964 -0.01396486 36.40398788
v -106.81519318 -0.01396486 36.55720139
v -106.50492096 -0.01396486 36.78819656
v -106.25627136 -0.01396486 37.08451843
v -106.08266449 -0.01396486 37.43019485
v -105.99346161 -0.01396486 37.80659103
v -105.99346161 -0.01396486 38.19340897
v -106.08266449 -0.01396486 38.56980515
v -106.25627136 -0.01396486 38.91548157
v -106.50492096 -0.01396486 39.21180344
v -106.81519318 -0.01396486 39.44279861
v -107.17037964 -0.01396486 39.59601212
v -107.55132294 -0.01396486 39.66318130
v -107.93749237 -0.01396486 39.64068985
v -108.30806732 -0.01396486 39.52974701
v -108.64305878 -0.01396486 39.33633804
v -108.92442322 -0.01396486 39.07088470
v -109.13698578 -0.01396486 38.74769974
v -109.26928711 -0.01396486 28.38420677
v -109.31419373 -0.01396486 28.00000000
v -109.26928711 -0.01396486 27.61579323
v -109.13698578 -0.01396486 27.25230026
v -108.92442322 -0.01396486 26.92911530
v -108.64305878 -0.01396486 26.66366196
v -108.30806732 -0.01396486 26.47025108
v -107.93749237 -0.01396486 26.35931015
v -107.55132294 -0.01396486 26.33681870
v -107.17037964 -0.01396486 26.40398979
v -106.81519318 -0.01396486 26.55720139
v -106.50492096 -0.01396486 26.78819466
v -106.25627136 -0.01396486 27.08451843
v -106.08266449 -0.01396486 27.43019485
v -105.99346161 -0.01396486 27.80658913
v -105.99346161 -0.01396486 28.19341087
v -106.08266449 -0.01396486 28.56980515
v -106.25627136 -0.01396486 28.91548157
v -106.50492096 -0.01396486 29.21180534
v -106.81519318 -0.01396486 29.44279861
v -107.17037964 -0.01396486 29.59601021
v -107.55132294 -0.01396486 29.66318130
v -107.93749237 -0.01396486 29.64068985
v -108.30806732 -0.01396486 29.52974892
v -108.64305878 -0.01396486 29.33633804
v -108.92442322 -0.01396486 29.07088470
v -109.13698578 -0.01396486 28.74769974
v -86.72692871 -0.01396486 32.13946533
v -86.77183533 -0.01396486 32.52367020
v -86.72692871 -0.01396486 32.90787506
v -86.59462738 -0.01396486 33.27136993
v -86.38206482 -0.01396486 33.59455490
v -86.10070038 -0.01396486 33.86000824
v -85.76570892 -0.01396486 34.05341721
v -85.39513397 -0.01396486 34.16436005
v -85.00897217 -0.01396486 34.18685150
v -84.62802124 -0.01396486 34.11967850
v -84.27283478 -0.01396486 33.96646881
v -83.96256256 -0.01396486 33.73547363
v -83.71391296 -0.01396486 33.43915176
v -83.54030609 -0.01396486 33.09347534
v -83.45110321 -0.01396486 32.71707916
v -83.45110321 -0.01396486 32.33025742
v -83.54030609 -0.01396486 31.95386505
v -83.71391296 -0.01396486 31.60818863
v -83.96256256 -0.01396486 31.31186485
v -84.27283478 -0.01396486 31.08087158
v -84.62802124 -0.01396486 30.92765999
v -85.00897217 -0.01396486 30.86048889
v -85.39513397 -0.01396486 30.88298035
v -85.76570892 -0.01396486 30.99392128
v -86.10070038 -0.01396486 31.18733215
v -86.38206482 -0.01396486 31.45278549
v -86.59462738 -0.01396486 31.77597046
v -72.12693024 -0.01396486 32.13946533
v -72.17183685 -0.01396486 32.52367020
v -72.12693024 -0.01396486 32.90787506
v -71.99462891 -0.01396486 33.27136993
v -71.78206635 -0.01396486 33.59455490
v -71.50070190 -0.01396486 33.86000824
v -71.16571045 -0.01396486 34.05341721
v -70.79513550 -0.01396486 34.16436005
v -70.40896606 -0.01396486 34.18685150
v -70.02802277 -0.01396486 34.11967850
v -69.67283630 -0.01396486 33.96646881
v -69.36255646 -0.01396486 33.73547363
v -69.11391449 -0.01396486 33.43915176
v -68.94030762 -0.01396486 33.09347534
v -68.85110474 -0.01396486 32.71707916
v -68.85110474 -0.01396486 32.33025742
v -68.94030762 -0.01396486 31.95386505
v -69.11391449 -0.01396486 31.60818863
v -69.36255646 -0.01396486 31.31186485
v -69.67283630 -0.01396486 31.08087158
v -70.02802277 -0.01396486 30.92765999
v -70.40896606 -0.01396486 30.86048889
v -70.79513550 -0.01396486 30.88298035
v -71.16571045 -0.01396486 30.99392128
v -71.50070190 -0.01396486 31.18733215
v -71.78206635 -0.01396486 31.45278549
v -71.99462891 -0.01396486 31.77597046
v -55.00151443 -0.01396486 0.00000000
v -110.14819336 -0.01396486 0.00000000
v -55.00151443 -0.01396486 48.00000000
v -110.14819336 -0.01396486 48.00000000
v -109.26928711 4.98603535 38.38420486
v -109.31419373 4.98603535 38.00000000
v -109.26928711 4.98603535 37.61579514
v -109.13698578 4.98603535 37.25230026
v -108.92442322 4.98603535 36.92911530
v -108.64305878 4.98603535 36.66366196
v -108.30806732 4.98603535 36.47025299
v -107.93749237 4.98603535 36.35931015
v -107.55132294 4.98603535 36.33681870
v -107.17037964 4.98603535 36.40398788
v -106.81519318 4.98603535 36.55720139
v -106.50492096 4.98603535 36.78819656
v -106.25627136 4.98603535 37.08451843
v -106.08266449 4.98603535 37.43019485
v -105.99346161 4.98603535 37.80659103
v -105.99346161 4.98603535 38.19340897
v -106.08266449 4.98603535 38.56980515
v -106.25627136 4.98603535 38.91548157
v -106.50492096 4.98603535 39.21180344
v -106.81519318 4.98603535 39.44279861
v -107.17037964 4.98603535 39.59601212
v -107.55132294 4.98603535 39.66318130
v -107.93749237 4.98603535 39.64068985
v -108.30806732 4.98603535 39.52974701
v -108.64305878 4.98603535 39.33633804
v -108.92442322 4.98603535 39.07088470
v -109.13698578 4.98603535 38.74769974
v -109.26928711 4.98603535 28.38420677
v -109.31419373 4.98603535 28.00000000
v -109.26928711 4.98603535 27.61579323
v -109.13698578 4.98603535 27.25230026
v -108.92442322 4.98603535 26.92911530
v -108.64305878 4.98603535 26.66366196
v -108.30806732 4.98603535 26.47025108
v -107.93749237 4.98603535 26.35931015
v -107.55132294 4.98603535 26.33681870
v -107.17037964 4.98603535 26.40398979
v -106.81519318 4.98603535 26.55720139
v -106.50492096 4.98603535 26.78819466
v -106.25627136 4.98603535 27.08451843
v -106.08266449 4.98603535 27.43019485
v -105.99346161 4.98603535 27.80658913
v -105.99346161 4.98603535 28.19341087
v -106.08266449 4.98603535 28.56980515
v -106.25627136 4.98603535 28.91548157
v -106.50492096 4.98603535 29.21180534
v -106.81519318 4.98603535 29.44279861
v -107.17037964 4.98603535 29.59601021
v -107.55132294 4.98603535 29.66318130
v -107.93749237 4.98603535 29.64068985
v -108.30806732 4.98603535 29.52974892
v -108.64305878 4.98603535 29.33633804
v -108.92442322 4.98603535 29.07088470
v -109.13698578 4.98603535 28.74769974
v -86.72692871 4.98603535 32.13946533
v -86.77183533 4.98603535 32.52367020
v -86.72692871 4.98603535 32.90787506
v -86.59462738 4.98603535 33.27136993
v -86.38206482 4.98603535 33.59455490
v -86.10070038 4.98603535 33.86000824
v -85.76570892 4.98603535 34.05341721
v -85.39513397 4.98603535 34.16436005
v -85.00897217 4.98603535 34.18685150
v -84.62802124 4.98603535 34.11967850
v -84.27283478 4.98603535 33.96646881
v -83.96256256 4.98603535 33.73547363
v -83.71391296 4.98603535 33.43915176
v -83.54030609 4.98603535 33.09347534
v -83.45110321 4.98603535 32.71707916
v -83.45110321 4.98603535 32.33025742
v -83.54030609 4.98603535 31.95386505
v -83.71391296 4.98603535 31.60818863
v -83.96256256 4.98603535 31.31186485
v -84.27283478 4.98603535 31.08087158
v -84.62802124 4.98603535 30.92765999
v -85.00897217 4.98603535 30.86048889
v -85.39513397 4.98603535 30.88298035
v -85.76570892 4.98603535 30.99392128
v -86.10070038 4.98603535 31.18733215
v -86.38206482 4.98603535 31.45278549
v -86.59462738 4.98603535 31.77597046
v -72.12693024 4.98603535 32.13946533
v -72.17183685 4.98603535 32.52367020
v -72.12693024 4.98603535 32.90787506
v -71.99462891 4.98603535 33.27136993
v -71.78206635 4.98603535 33.59455490
v -71.50070190 4.98603535 33.86000824
v -71.16571045 4.98603535 34.05341721
v -70.79513550 4.98603535 34.16436005
v -70.40896606 4.98603535 34.18685150
v -70.02802277 4.98603535 34.11967850
v -69.67283630 4.98603535 33.96646881
v -69.36255646 4.98603535 33.73547363
v -69.11391449 4.98603535 33.43915176
v -68.94030762 4.98603535 33.09347534
v -68.85110474 4.98603535 32.71707916
v -68.85110474 4.98603535 32.33025742
v -68.94030762 4.98603535 31.95386505
v -69.11391449 4.98603535 31.60818863
v -69.36255646 4.98603535 31.31186485
v -69.67283630 4.98603535 31.08087158
v -70.02802277 4.98603535 30.92765999
v -70.40896606 4.98603535 30.86048889
v -70.79513550 4.98603535 30.88298035
v -71.16571045 4.98603535 30.99392128
v -71.50070190 4.98603535 31.18733215
v -71.78206635 4.98603535 31.45278549
v -71.99462891 4.98603535 31.77597046
v -55.00151443 4.98603535 0.00000000
v -110.14819336 4.98603535 0.00000000
v -55.00151443 4.98603535 48.00000000
v -110.14819336 4.98603535 48.00000000
f 1 2 3
f 3 2 4
f 3 4 5
f 5 4 6
f 5 6 7
f 7 6 8
f 7 8 9
f 9 8 10
f 9 10 11
f 11 10 12
f 11 12 13
f 13 12 14
f 13 14 15
f 15 14 16
f 15 16 17
f 17 16 18
f 17 18 19
f 19 18 20
f 19 20 21
f 21 20 22
f 21 22 23
f 23 22 24
f 23 24 25
f 25 24 26
f 25 26 27
f 27 26 28
f 27 28 29
f 29 28 30
f 29 30 31
f 31 30 32
f 31 32 33
f 33 32 34
f 33 34 35
f 35 34 36
f 35 36 37
f 37 36 38
f 37 38 39
f 39 38 40
f 39 40 41
f 41 40 42
f 41 42 43
f 43 42 44
f 43 44 45
f 45 44 46
f 45 46 47
f 47 46 48
f 47 48 49
f 49 48 50
f 49 50 51
f 51 50 52
f 51 52 53
f 53 52 54
f 53 54 1
f 1 54 2
f 55 32 56
f 56 32 30
f 56 30 57
f 57 30 28
f 57 28 58
f 58 28 26
f 58 26 59
f 59 26 24
f 59 24 60
f 60 24 22
f 60 22 61
f 61 22 20
f 61 20 62
f 62 20 18
f 62 18 63
f 63 18 16
f 63 16 64
f 64 16 14
f 64 14 65
f 65 14 12
f 65 12 66
f 66 12 10
f 66 10 67
f 67 10 8
f 67 8 68
f 68 8 6
f 68 6 69
f 69 6 4
f 69 4 70
f 70 4 2
f 70 2 71
f 71 2 54
f 71 54 72
f 72 54 52
f 72 52 73
f 73 52 50
f 73 50 74
f 74 50 48
f 74 48 75
f 75 48 46
f 75 46 76
f 76 46 44
f 76 44 77
f 77 44 42
f 77 42 78
f 78 42 40
f 78 40 79
f 79 40 38
f 79 38 80
f 80 38 36
f 80 36 81
f 81 36 34
f 81 34 55
f 55 34 32
f 83 84 82
f 82 84 108
f 108 84 85
f 108 85 107
f 107 85 86
f 107 86 106
f 106 86 87
f 106 87 105
f 105 87 104
f 104 87 103
f 103 87 102
f 102 87 101
f 101 87 100
f 100 87 99
f 99 87 98
f 98 87 97
f 97 87 96
f 96 87 95
f 95 87 94
f 94 87 93
f 93 87 88
f 93 88 92
f 92 88 91
f 91 88 89
f 91 89 90
f 109 110 111
f 111 110 112
f 111 112 113
f 113 112 114
f 113 114 115
f 115 114 116
f 115 116 117
f 117 116 118
f 117 118 119
f 119 118 120
f 119 120 121
f 121 120 122
f 121 122 123
f 123 122 124
f 123 124 125
f 125 124 126
f 125 126 127
f 127 126 128
f 127 128 129
f 129 128 130
f 129 130 131
f 131 130 132
f 131 132 133
f 133 132 134
f 133 134 135
f 135 134 136
f 135 136 137
f 137 136 138
f 137 138 139
f 139 138 140
f 139 140 141
f 141 140 142
f 141 142 143
f 143 142 144
f 143 144 145
f 145 144 146
f 145 146 147
f 147 146 148
f 147 148 149
f 149 148 150
f 149 150 151
f 151 150 152
f 151 152 153
f 153 152 154
f 153 154 155
f 155 154 156
f 155 156 157
f 157 156 158
f 157 158 159
f 159 158 160
f 159 160 161
f 161 160 162
f 161 162 109
f 109 162 110
f 163 140 164
f 164 140 138
f 164 138 165
f 165 138 136
f 165 136 166
f 166 136 134
f 166 134 167
f 167 134 132
f 167 132 168
f 168 132 130
f 168 130 169
f 169 130 128
f 169 128 170
f 170 128 126
f 170 126 171
f 171 126 124
f 171 124 172
f 172 124 122
f 172 122 173
f 173 122 120
f 173 120 174
f 174 120 118
f 174 118 175
f 175 118 116
f 175 116 176
f 176 116 114
f 176 114 177
f 177 114 112
f 177 112 178
f 178 112 110
f 178 110 179
f 179 110 162
f 179 162 180
f 180 162 160
f 180 160 181
f 181 160 158
f 181 158 182
f 182 158 156
f 182 156 183
f 183 156 154
f 183 154 184
f 184 154 152
f 184 152 185
f 185 152 150
f 185 150 186
f 186 150 148
f 186 148 187
f 187 148 146
f 187 146 188
f 188 146 144
f 188 144 189
f 189 144 142
f 189 142 163
f 163 142 140
f 191 192 190
f 190 192 216
f 216 192 193
f 216 193 215
f 215 193 194
f 215 194 214
f 214 194 195
f 214 195 213
f 213 195 212
f 212 195 211
f 211 195 210
f 210 195 209
f 209 195 208
f 208 195 207
f 207 195 206
f 206 195 205
f 205 195 204
f 204 195 203
f 203 195 202
f 202 195 201
f 201 195 196
f 201 196 200
f 200 196 199
f 199 196 197
f 199 197 198
f 217 218 219
f 219 218 220
f 219 220 221
f 221 220 222
f 221 222 223
f 223 222 224
f 223 224 225
f 225 224 226
f 225 226 227
f 227 226 228
f 227 228 229
f 229 228 230
f 229 230 231
f 231 230 232
f 231 232 233
f 233 232 234
f 233 234 235
f 235 234 236
f 235 236 237
f 237 236 238
f 237 238 239
f 239 238 240
f 239 240 241
f 241 240 242
f 241 242 243
f 243 242 244
f 243 244 245
f 245 244 246
f 245 246 247
f 247 246 248
f 247 248 249
f 249 248 250
f 249 250 251
f 251 250 252
f 251 252 253
f 253 252 254
f 253 254 255
f 255 254 256
f 255 256 257
f 257 256 258
f 257 258 259
f 259 258 260
f 259 260 261
f 261 260 262
f 261 262 263
f 263 262 264
f 263 264 265
f 265 264 266
f 265 266 267
f 267 266 268
f 267 268 269
f 269 268 270
f 269 270 217
f 217 270 218
f 271 272 273
f 273 272 274
f 273 274 275
f 275 274 276
f 275 276 277
f 277 276 278
f 277 278 279
f 279 278 280
f 279 280 281
f 281 280 282
f 281 282 283
f 283 282 284
f 283 284 285
f 285 284 286
f 285 286 287
f 287 286 288
f 287 288 289
f 289 288 290
f 289 290 291
f 291 290 292
f 291 292 293
f 293 292 294
f 293 294 295
f 295 294 296
f 295 296 297
f 297 296 298
f 297 298 299
f 299 298 300
f 299 300 301
f 301 300 302
f 301 302 303
f 303 302 304
f 303 304 305
f 305 304 306
f 305 306 307
f 307 306 308
f 307 308 309
f 309 308 310
f 309 310 311
f 311 310 312
f 311 312 313
f 313 312 314
f 313 314 315
f 315 314 316
f 315 316 317
f 317 316 318
f 317 318 319
f 319 318 320
f 319 320 321
f 321 320 322
f 321 322 323
f 323 322 324
f 323 324 271
f 271 324 272
f 325 326 327
f 327 326 328
f 327 328 329
f 329 328 330
f 329 330 331
f 331 330 332
f 331 332 333
f 333 332 334
f 333 334 335
f 335 334 336
f 335 336 337
f 337 336 338
f 337 338 339
f 339 338 340
f 339 340 341
f 341 340 342
f 341 342 343
f 343 342 344
f 343 344 345
f 345 344 346
f 345 346 347
f 347 346 348
f 347 348 349
f 349 348 350
f 349 350 351
f 351 350 352
f 351 352 353
f 353 352 354
f 353 354 355
f 355 354 356
f 355 356 357
f 357 356 358
f 357 358 359
f 359 358 360
f 359 360 361
f 361 360 362
f 361 362 363
f 363 362 364
f 363 364 365
f 365 364 366
f 365 366 367
f 367 366 368
f 367 368 369
f 369 368 370
f 369 370 371
f 371 370 372
f 371 372 373
f 373 372 374
f 373 374 375
f 375 374 376
f 375 376 377
f 377 376 378
f 377 378 325
f 325 378 326
f 379 380 381
f 381 380 382
f 381 382 383
f 383 382 384
f 383 384 385
f 385 384 386
f 385 386 387
f 387 386 388
f 387 388 389
f 389 388 390
f 389 390 391
f 391 390 392
f 391 392 393
f 393 392 394
f 393 394 395
f 395 394 396
f 395 396 397
f 397 396 398
f 397 398 399
f 399 398 400
f 399 400 401
f 401 400 402
f 401 402 403
f 403 402 404
f 403 404 405
f 405 404 406
f 405 406 407
f 407 406 408
f 407 408 409
f 409 408 410
f 409 410 411
f 411 410 412
f 411 412 413
f 413 412 414
f 413 414 415
f 415 414 416
f 415 416 417
f 417 416 418
f 417 418 419
f 419 418 420
f 419 420 421
f 421 420 422
f 421 422 423
f 423 422 424
f 423 424 425
f 425 424 426
f 425 426 427
f 427 426 428
f 427 428 429
f 429 428 430
f 429 430 431
f 431 430 432
f 431 432 379
f 379 432 380
f 433 434 435
f 435 434 436
f 439 440 437
f 437 440 438
f 443 444 442
f 442 444 441
f 447 499 446
f 446 499 473
f 446 473 445
f 445 473 474
f 445 474 471
f 471 474 475
f 471 475 470
f 470 475 476
f 470 476 469
f 469 476 477
f 469 477 468
f 468 477 478
f 468 478 467
f 467 478 479
f 467 479 466
f 466 479 480
f 466 480 481
f 447 448 499
f 499 448 449
f 499 449 450
f 450 451 499
f 499 451 452
f 499 452 453
f 499 453 500
f 500 453 454
f 500 454 455
f 455 456 500
f 500 456 457
f 500 457 458
f 458 459 500
f 500 459 460
f 500 460 486
f 486 460 461
f 486 461 485
f 485 461 462
f 485 462 484
f 484 462 463
f 484 463 483
f 483 463 464
f 483 464 482
f 482 464 465
f 482 465 481
f 481 465 466
f 500 486 501
f 501 486 487
f 501 487 488
f 488 489 501
f 501 489 490
f 501 490 491
f 491 492 501
f 501 492 493
f 501 493 502
f 502 493 494
f 502 494 495
f 495 496 502
f 502 496 497
f 502 497 498
f 498 472 502
f 502 472 473
f 502 473 499
f 503 614 504
f 504 614 531
f 504 531 505
f 505 531 530
f 505 530 506
f 513 549 514
f 513 550 549
f 512 550 513
f 512 551 550
f 511 551 512
f 511 552 551
f 510 552 511
f 510 553 552
f 509 553 510
f 509 554 553
f 508 554 509
f 577 611 606
f 578 611 577
f 578 612 611
f 579 612 578
f 579 541 612
f 580 541 579
f 580 542 541
f 581 542 580
f 581 543 542
f 582 543 581
f 582 544 543
f 583 544 582
f 583 545 544
f 557 545 583
f 557 546 545
f 558 546 557
f 561 519 518
f 562 519 561
f 562 520 519
f 563 520 562
f 563 521 520
f 614 521 563
f 614 522 521
f 614 523 522
f 524 523 614
f 614 525 524
f 614 526 525
f 527 526 614
f 614 528 527
f 614 529 528
f 503 529 614
f 577 606 607
f 532 531 612
f 612 533 532
f 612 534 533
f 535 534 612
f 612 536 535
f 612 537 536
f 538 537 612
f 612 539 538
f 612 540 539
f 541 540 612
f 559 515 558
f 559 516 515
f 560 516 559
f 560 517 516
f 561 517 560
f 561 518 517
f 586 570 571
f 587 570 586
f 587 569 570
f 588 569 587
f 588 568 569
f 589 568 588
f 589 567 568
f 590 567 589
f 590 566 567
f 591 566 590
f 613 566 591
f 613 565 566
f 614 565 613
f 614 564 565
f 563 564 614
f 612 531 614
f 594 595 613
f 613 593 594
f 613 592 593
f 591 592 613
f 607 576 577
f 608 576 607
f 608 575 576
f 609 575 608
f 609 574 575
f 610 574 609
f 610 573 574
f 584 573 610
f 584 572 573
f 585 572 584
f 585 571 572
f 586 571 585
f 605 606 611
f 611 604 605
f 611 603 604
f 602 603 611
f 611 601 602
f 611 600 601
f 613 600 611
f 613 599 600
f 613 598 599
f 597 598 613
f 613 596 597
f 613 595 596
f 558 547 546
f 515 547 558
f 515 548 547
f 514 548 515
f 514 549 548
f 508 555 554
f 507 555 508
f 507 556 555
f 506 556 507
f 506 530 556
f 663 622 623
f 663 623 662
f 662 623 624
f 672 629 673
f 673 629 630
f 673 630 631
f 674 631 632
f 673 631 674
f 664 622 663
f 664 621 622
f 659 626 627
f 660 626 659
f 660 625 626
f 661 625 660
f 661 624 625
f 662 624 661
f 724 647 648
f 724 646 647
f 645 646 724
f 726 615 616
f 641 615 726
f 665 621 664
f 665 620 621
f 666 620 665
f 666 619 620
f 667 619 666
f 667 618 619
f 668 618 667
f 668 617 618
f 642 617 668
f 724 644 645
f 724 643 644
f 671 627 628
f 671 628 672
f 672 628 629
f 694 655 656
f 694 656 695
f 695 656 657
f 659 627 670
f 670 627 671
f 695 657 669
f 669 657 658
f 724 653 691
f 724 652 653
f 651 652 724
f 724 650 651
f 724 649 650
f 648 649 724
f 696 685 684
f 722 685 696
f 722 686 685
f 721 686 722
f 721 687 686
f 726 640 641
f 726 639 640
f 638 639 726
f 726 637 638
f 726 636 637
f 635 636 726
f 726 634 635
f 726 633 634
f 675 633 726
f 675 632 633
f 674 632 675
f 669 658 670
f 670 658 659
f 691 690 724
f 724 690 723
f 723 690 689
f 723 689 718
f 718 689 719
f 719 689 688
f 719 688 720
f 720 688 687
f 720 687 721
f 715 723 716
f 716 723 717
f 717 723 718
f 678 677 725
f 725 677 726
f 696 684 697
f 697 684 683
f 697 683 698
f 698 683 682
f 698 682 699
f 699 682 681
f 691 653 692
f 692 653 654
f 692 654 693
f 693 654 655
f 693 655 694
f 702 679 678
f 702 678 703
f 703 678 725
f 703 725 704
f 704 725 705
f 700 680 701
f 701 680 679
f 701 679 702
f 700 681 680
f 699 681 700
f 714 723 715
f 713 723 714
f 712 723 713
f 712 725 723
f 711 725 712
f 710 725 711
f 709 725 710
f 708 725 709
f 707 725 708
f 706 725 707
f 617 642 616
f 616 642 643
f 616 643 726
f 726 643 724
f 726 676 675
f 726 677 676
f 705 725 706

