# https://github.com/mikedh/trimesh

o F_Right_1.stl
v -70.53240204 117.53720093 48.00000000
v -70.53240204 117.53720093 43.00000000
v -70.14819336 117.58210754 48.00000000
v -70.14819336 117.58210754 43.00000000
v -69.76399231 117.53720093 48.00000000
v -69.76399231 117.53720093 43.00000000
v -69.40049744 117.40489960 48.00000000
v -69.40049744 117.40489960 43.00000000
v -69.07730865 117.19233704 48.00000000
v -69.07730865 117.19233704 43.00000000
v -68.81185913 116.91097260 48.00000000
v -68.81185913 116.91097260 43.00000000
v -68.61844635 116.57597351 48.00000000
v -68.61844635 116.57597351 43.00000000
v -68.50750732 116.20540619 48.00000000
v -68.50750732 116.20540619 43.00000000
v -68.48501587 115.81923676 48.00000000
v -68.48501587 115.81923676 43.00000000
v -68.55218506 115.43829346 48.00000000
v -68.55218506 115.43829346 43.00000000
v -68.70539856 115.08310699 48.00000000
v -68.70539856 115.08310699 43.00000000
v -68.93639374 114.77282715 48.00000000
v -68.93639374 114.77282715 43.00000000
v -69.23271179 114.52418518 48.00000000
v -69.23271179 114.52418518 43.00000000
v -69.57839203 114.35057831 48.00000000
v -69.57839203 114.35057831 43.00000000
v -69.95478821 114.26136780 48.00000000
v -69.95478821 114.26136780 43.00000000
v -70.34160614 114.26136780 48.00000000
v -70.34160614 114.26136780 43.00000000
v -70.71800232 114.35057831 48.00000000
v -70.71800232 114.35057831 43.00000000
v -71.06367493 114.52418518 48.00000000
v -71.06367493 114.52418518 43.00000000
v -71.36000061 114.77282715 48.00000000
v -71.36000061 114.77282715 43.00000000
v -71.59099579 115.08310699 48.00000000
v -71.59099579 115.08310699 43.00000000
v -71.74420929 115.43829346 48.00000000
v -71.74420929 115.43829346 43.00000000
v -71.81137848 115.81923676 48.00000000
v -71.81137848 115.81923676 43.00000000
v -71.78888702 116.20540619 48.00000000
v -71.78888702 116.20540619 43.00000000
v -71.67794037 116.57597351 48.00000000
v -71.67794037 116.57597351 43.00000000
v -71.48453522 116.91097260 48.00000000
v -71.48453522 116.91097260 43.00000000
v -71.21907806 117.19233704 48.00000000
v -71.21907806 117.19233704 43.00000000
v -70.89589691 117.40489960 48.00000000
v -70.89589691 117.40489960 43.00000000
v -70.53240204 114.29501343 38.00000000
v -70.14819336 114.25010681 38.00000000
v -69.76399231 114.29501343 38.00000000
v -69.40049744 114.42731476 38.00000000
v -69.07730865 114.63987732 38.00000000
v -68.81185913 114.92124176 38.00000000
v -68.61844635 115.25623322 38.00000000
v -68.50750732 115.62680817 38.00000000
v -68.48501587 116.01297760 38.00000000
v -68.55218506 116.39392090 38.00000000
v -68.70539856 116.74910736 38.00000000
v -68.93639374 117.05937958 38.00000000
v -69.23271179 117.30802917 38.00000000
v -69.57839203 117.48163605 38.00000000
v -69.95478821 117.57083893 38.00000000
v -70.34160614 117.57083893 38.00000000
v -70.71800232 117.48163605 38.00000000
v -71.06367493 117.30802917 38.00000000
v -71.36000061 117.05937958 38.00000000
v -71.59099579 116.74910736 38.00000000
v -71.74420929 116.39392090 38.00000000
v -71.81137848 116.01297760 38.00000000
v -71.78888702 115.62680817 38.00000000
v -71.67794037 115.25623322 38.00000000
v -71.48453522 114.92124176 38.00000000
v -71.21907806 114.63987732 38.00000000
v -70.89589691 114.42731476 38.00000000
v -70.53240204 114.29501343 38.00000000
v -70.14819336 114.25010681 38.00000000
v -69.76399231 114.29501343 38.00000000
v -69.40049744 114.42731476 38.00000000
v -69.07730865 114.63987732 38.00000000
v -68.81185913 114.92124176 38.00000000
v -68.61844635 115.25623322 38.00000000
v -68.50750732 115.62680817 38.00000000
v -68.48501587 116.01297760 38.00000000
v -68.55218506 116.39392090 38.00000000
v -68.70539856 116.74910736 38.00000000
v -68.93639374 117.05937958 38.00000000
v -69.23271179 117.30802917 38.00000000
v -69.57839203 117.48163605 38.00000000
v -69.95478821 117.57083893 38.00000000
v -70.34160614 117.57083893 38.00000000
v -70.71800232 117.48163605 38.00000000
v -71.06367493 117.30802917 38.00000000
v -71.36000061 117.05937958 38.00000000
v -71.59099579 116.74910736 38.00000000
v -71.74420929 116.39392090 38.00000000
v -71.81137848 116.01297760 38.00000000
v -71.78888702 115.62680817 38.00000000
v -71.67794037 115.25623322 38.00000000
v -71.48453522 114.92124176 38.00000000
v -71.21907806 114.63987732 38.00000000
v -70.89589691 114.42731476 38.00000000
v -90.53240204 117.53720093 48.00000000
v -90.53240204 117.53720093 43.00000000
v -90.14819336 117.58210754 48.00000000
v -90.14819336 117.58210754 43.00000000
v -89.76399231 117.53720093 48.00000000
v -89.76399231 117.53720093 43.00000000
v -89.40049744 117.40489960 48.00000000
v -89.40049744 117.40489960 43.00000000
v -89.07730865 117.19233704 48.00000000
v -89.07730865 117.19233704 43.00000000
v -88.81185913 116.91097260 48.00000000
v -88.81185913 116.91097260 43.00000000
v -88.61844635 116.57597351 48.00000000
v -88.61844635 116.57597351 43.00000000
v -88.50750732 116.20540619 48.00000000
v -88.50750732 116.20540619 43.00000000
v -88.48501587 115.81923676 48.00000000
v -88.48501587 115.81923676 43.00000000
v -88.55218506 115.43829346 48.00000000
v -88.55218506 115.43829346 43.00000000
v -88.70539856 115.08310699 48.00000000
v -88.70539856 115.08310699 43.00000000
v -88.93639374 114.77282715 48.00000000
v -88.93639374 114.77282715 43.00000000
v -89.23271179 114.52418518 48.00000000
v -89.23271179 114.52418518 43.00000000
v -89.57839203 114.35057831 48.00000000
v -89.57839203 114.35057831 43.00000000
v -89.95478821 114.26136780 48.00000000
v -89.95478821 114.26136780 43.00000000
v -90.34160614 114.26136780 48.00000000
v -90.34160614 114.26136780 43.00000000
v -90.71800232 114.35057831 48.00000000
v -90.71800232 114.35057831 43.00000000
v -91.06367493 114.52418518 48.00000000
v -91.06367493 114.52418518 43.00000000
v -91.36000061 114.77282715 48.00000000
v -91.36000061 114.77282715 43.00000000
v -91.59099579 115.08310699 48.00000000
v -91.59099579 115.08310699 43.00000000
v -91.74420929 115.43829346 48.00000000
v -91.74420929 115.43829346 43.00000000
v -91.81137848 115.81923676 48.00000000
v -91.81137848 115.81923676 43.00000000
v -91.78888702 116.20540619 48.00000000
v -91.78888702 116.20540619 43.00000000
v -91.67794037 116.57597351 48.00000000
v -91.67794037 116.57597351 43.00000000
v -91.48453522 116.91097260 48.00000000
v -91.48453522 116.91097260 43.00000000
v -91.21907806 117.19233704 48.00000000
v -91.21907806 117.19233704 43.00000000
v -90.89589691 117.40489960 48.00000000
v -90.89589691 117.40489960 43.00000000
v -90.53240204 114.29501343 38.00000000
v -90.14819336 114.25010681 38.00000000
v -89.76399231 114.29501343 38.00000000
v -89.40049744 114.42731476 38.00000000
v -89.07730865 114.63987732 38.00000000
v -88.81185913 114.92124176 38.00000000
v -88.61844635 115.25623322 38.00000000
v -88.50750732 115.62680817 38.00000000
v -88.48501587 116.01297760 38.00000000
v -88.55218506 116.39392090 38.00000000
v -88.70539856 116.74910736 38.00000000
v -88.93639374 117.05937958 38.00000000
v -89.23271179 117.30802917 38.00000000
v -89.57839203 117.48163605 38.00000000
v -89.95478821 117.57083893 38.00000000
v -90.34160614 117.57083893 38.00000000
v -90.71800232 117.48163605 38.00000000
v -91.06367493 117.30802917 38.00000000
v -91.36000061 117.05937958 38.00000000
v -91.59099579 116.74910736 38.00000000
v -91.74420929 116.39392090 38.00000000
v -91.81137848 116.01297760 38.00000000
v -91.78888702 115.62680817 38.00000000
v -91.67794037 115.25623322 38.00000000
v -91.48453522 114.92124176 38.00000000
v -91.21907806 114.63987732 38.00000000
v -90.89589691 114.42731476 38.00000000
v -90.53240204 114.29501343 38.00000000
v -90.14819336 114.25010681 38.00000000
v -89.76399231 114.29501343 38.00000000
v -89.40049744 114.42731476 38.00000000
v -89.07730865 114.63987732 38.00000000
v -88.81185913 114.92124176 38.00000000
v -88.61844635 115.25623322 38.00000000
v -88.50750732 115.62680817 38.00000000
v -88.48501587 116.01297760 38.00000000
v -88.55218506 116.39392090 38.00000000
v -88.70539856 116.74910736 38.00000000
v -88.93639374 117.05937958 38.00000000
v -89.23271179 117.30802917 38.00000000
v -89.57839203 117.48163605 38.00000000
v -89.95478821 117.57083893 38.00000000
v -90.34160614 117.57083893 38.00000000
v -90.71800232 117.48163605 38.00000000
v -91.06367493 117.30802917 38.00000000
v -91.36000061 117.05937958 38.00000000
v -91.59099579 116.74910736 38.00000000
v -91.74420929 116.39392090 38.00000000
v -91.81137848 116.01297760 38.00000000
v -91.78888702 115.62680817 38.00000000
v -91.67794037 115.25623322 38.00000000
v -91.48453522 114.92124176 38.00000000
v -91.21907806 114.63987732 38.00000000
v -90.89589691 114.42731476 38.00000000
v -83.52709961 113.41610718 32.88420486
v -83.49346161 118.41610718 32.69340897
v -83.48219299 113.41610718 32.50000000
v -83.49346161 118.41610718 32.30659103
v -83.52709961 113.41610718 32.11579514
v -83.58266449 118.41610718 31.93019485
v -83.65940094 113.41610718 31.75230026
v -83.75627136 118.41610718 31.58451843
v -83.87196350 113.41610718 31.42911530
v -84.00492096 118.41610718 31.28819466
v -84.15332794 113.41610718 31.16366196
v -84.31519318 118.41610718 31.05720139
v -84.48832703 113.41610718 30.97025108
v -84.67037964 118.41610718 30.90398979
v -84.85889435 113.41610718 30.85931015
v -85.05132294 118.41610718 30.83681870
v -85.24506378 113.41610718 30.83681870
v -85.43749237 118.41610718 30.85931015
v -85.62600708 113.41610718 30.90398979
v -85.80806732 118.41610718 30.97025108
v -85.98119354 113.41610718 31.05720139
v -86.14305878 118.41610718 31.16366196
v -86.29147339 113.41610718 31.28819466
v -86.42442322 118.41610718 31.42911530
v -86.54011536 113.41610718 31.58451843
v -86.63698578 118.41610718 31.75230026
v -86.71372223 113.41610718 31.93019485
v -86.76928711 118.41610718 32.11579514
v -86.80293274 113.41610718 32.30659103
v -86.81419373 118.41610718 32.50000000
v -86.80293274 113.41610718 32.69340897
v -86.76928711 118.41610718 32.88420486
v -86.71372223 113.41610718 33.06980515
v -86.63698578 118.41610718 33.24769974
v -86.54011536 113.41610718 33.41548157
v -86.42442322 118.41610718 33.57088470
v -86.29147339 113.41610718 33.71180344
v -86.14305878 118.41610718 33.83633804
v -85.98119354 113.41610718 33.94279861
v -85.80806732 118.41610718 34.02974701
v -85.62600708 113.41610718 34.09601212
v -85.43749237 118.41610718 34.14068985
v -85.24506378 113.41610718 34.16318130
v -85.05132294 118.41610718 34.16318130
v -84.85889435 113.41610718 34.14068985
v -84.67037964 118.41610718 34.09601212
v -84.48832703 113.41610718 34.02974701
v -84.31519318 118.41610718 33.94279861
v -84.15332794 113.41610718 33.83633804
v -84.00492096 118.41610718 33.71180344
v -83.87196350 113.41610718 33.57088470
v -83.75627136 118.41610718 33.41548157
v -83.65940094 113.41610718 33.24769974
v -83.58266449 118.41610718 33.06980515
v -106.02709961 113.41610718 38.38420486
v -105.99346161 118.41610718 38.19340897
v -105.98219299 113.41610718 38.00000000
v -105.99346161 118.41610718 37.80659103
v -106.02709961 113.41610718 37.61579514
v -106.08266449 118.41610718 37.43019485
v -106.15940094 113.41610718 37.25230026
v -106.25627136 118.41610718 37.08451843
v -106.37196350 113.41610718 36.92911530
v -106.50492096 118.41610718 36.78819656
v -106.65332794 113.41610718 36.66366196
v -106.81519318 118.41610718 36.55720139
v -106.98832703 113.41610718 36.47025299
v -107.17037964 118.41610718 36.40398788
v -107.35889435 113.41610718 36.35931015
v -107.55132294 118.41610718 36.33681870
v -107.74506378 113.41610718 36.33681870
v -107.93749237 118.41610718 36.35931015
v -108.12600708 113.41610718 36.40398788
v -108.30806732 118.41610718 36.47025299
v -108.48119354 113.41610718 36.55720139
v -108.64305878 118.41610718 36.66366196
v -108.79147339 113.41610718 36.78819656
v -108.92442322 118.41610718 36.92911530
v -109.04011536 113.41610718 37.08451843
v -109.13698578 118.41610718 37.25230026
v -109.21372223 113.41610718 37.43019485
v -109.26928711 118.41610718 37.61579514
v -109.30293274 113.41610718 37.80659103
v -109.31419373 118.41610718 38.00000000
v -109.30293274 113.41610718 38.19340897
v -109.26928711 118.41610718 38.38420486
v -109.21372223 113.41610718 38.56980515
v -109.13698578 118.41610718 38.74769974
v -109.04011536 113.41610718 38.91548157
v -108.92442322 118.41610718 39.07088470
v -108.79147339 113.41610718 39.21180344
v -108.64305878 118.41610718 39.33633804
v -108.48119354 113.41610718 39.44279861
v -108.30806732 118.41610718 39.52974701
v -108.12600708 113.41610718 39.59601212
v -107.93749237 118.41610718 39.64068985
v -107.74506378 113.41610718 39.66318130
v -107.55132294 118.41610718 39.66318130
v -107.35889435 113.41610718 39.64068985
v -107.17037964 118.41610718 39.59601212
v -106.98832703 113.41610718 39.52974701
v -106.81519318 118.41610718 39.44279861
v -106.65332794 113.41610718 39.33633804
v -106.50492096 118.41610718 39.21180344
v -106.37196350 113.41610718 39.07088470
v -106.25627136 118.41610718 38.91548157
v -106.15940094 113.41610718 38.74769974
v -106.08266449 118.41610718 38.56980515
v -106.02709961 113.41610718 28.38420677
v -105.99346161 118.41610718 28.19341087
v -105.98219299 113.41610718 28.00000000
v -105.99346161 118.41610718 27.80658913
v -106.02709961 113.41610718 27.61579323
v -106.08266449 118.41610718 27.43019485
v -106.15940094 113.41610718 27.25230026
v -106.25627136 118.41610718 27.08451843
v -106.37196350 113.41610718 26.92911530
v -106.50492096 118.41610718 26.78819466
v -106.65332794 113.41610718 26.66366196
v -106.81519318 118.41610718 26.55720139
v -106.98832703 113.41610718 26.47025108
v -107.17037964 118.41610718 26.40398979
v -107.35889435 113.41610718 26.35931015
v -107.55132294 118.41610718 26.33681870
v -107.74506378 113.41610718 26.33681870
v -107.93749237 118.41610718 26.35931015
v -108.12600708 113.41610718 26.40398979
v -108.30806732 118.41610718 26.47025108
v -108.48119354 113.41610718 26.55720139
v -108.64305878 118.41610718 26.66366196
v -108.79147339 113.41610718 26.78819466
v -108.92442322 118.41610718 26.92911530
v -109.04011536 113.41610718 27.08451843
v -109.13698578 118.41610718 27.25230026
v -109.21372223 113.41610718 27.43019485
v -109.26928711 118.41610718 27.61579323
v -109.30293274 113.41610718 27.80658913
v -109.31419373 118.41610718 28.00000000
v -109.30293274 113.41610718 28.19341087
v -109.26928711 118.41610718 28.38420677
v -109.21372223 113.41610718 28.56980515
v -109.13698578 118.41610718 28.74769974
v -109.04011536 113.41610718 28.91548157
v -108.92442322 118.41610718 29.07088470
v -108.79147339 113.41610718 29.21180534
v -108.64305878 118.41610718 29.33633804
v -108.48119354 113.41610718 29.44279861
v -108.30806732 118.41610718 29.52974892
v -108.12600708 113.41610718 29.59601021
v -107.93749237 118.41610718 29.64068985
v -107.74506378 113.41610718 29.66318130
v -107.55132294 118.41610718 29.66318130
v -107.35889435 113.41610718 29.64068985
v -107.17037964 118.41610718 29.59601021
v -106.98832703 113.41610718 29.52974892
v -106.81519318 118.41610718 29.44279861
v -106.65332794 113.41610718 29.33633804
v -106.50492096 118.41610718 29.21180534
v -106.37196350 113.41610718 29.07088470
v -106.25627136 118.41610718 28.91548157
v -106.15940094 113.41610718 28.74769974
v -106.08266449 118.41610718 28.56980515
v -68.92710114 113.41610718 32.88420486
v -68.89346313 118.41610718 32.69340897
v -68.88219452 113.41610718 32.50000000
v -68.89346313 118.41610718 32.30659103
v -68.92710114 113.41610718 32.11579514
v -68.98266602 118.41610718 31.93019485
v -69.05940247 113.41610718 31.75230026
v -69.15627289 118.41610718 31.58451843
v -69.27196503 113.41610718 31.42911530
v -69.40491486 118.41610718 31.28819466
v -69.55332947 113.41610718 31.16366196
v -69.71519470 118.41610718 31.05720139
v -69.88832855 113.41610718 30.97025108
v -70.07038116 118.41610718 30.90398979
v -70.25889587 113.41610718 30.85931015
v -70.45132446 118.41610718 30.83681870
v -70.64506531 113.41610718 30.83681870
v -70.83749390 118.41610718 30.85931015
v -71.02600861 113.41610718 30.90398979
v -71.20806122 118.41610718 30.97025108
v -71.38119507 113.41610718 31.05720139
v -71.54306030 118.41610718 31.16366196
v -71.69147491 113.41610718 31.28819466
v -71.82442474 118.41610718 31.42911530
v -71.94011688 113.41610718 31.58451843
v -72.03698730 118.41610718 31.75230026
v -72.11372375 113.41610718 31.93019485
v -72.16928864 118.41610718 32.11579514
v -72.20293427 113.41610718 32.30659103
v -72.21419525 118.41610718 32.50000000
v -72.20293427 113.41610718 32.69340897
v -72.16928864 118.41610718 32.88420486
v -72.11372375 113.41610718 33.06980515
v -72.03698730 118.41610718 33.24769974
v -71.94011688 113.41610718 33.41548157
v -71.82442474 118.41610718 33.57088470
v -71.69147491 113.41610718 33.71180344
v -71.54306030 118.41610718 33.83633804
v -71.38119507 113.41610718 33.94279861
v -71.20806122 118.41610718 34.02974701
v -71.02600861 113.41610718 34.09601212
v -70.83749390 118.41610718 34.14068985
v -70.64506531 113.41610718 34.16318130
v -70.45132446 118.41610718 34.16318130
v -70.25889587 113.41610718 34.14068985
v -70.07038116 118.41610718 34.09601212
v -69.88832855 113.41610718 34.02974701
v -69.71519470 118.41610718 33.94279861
v -69.55332947 113.41610718 33.83633804
v -69.40491486 118.41610718 33.71180344
v -69.27196503 113.41610718 33.57088470
v -69.15627289 118.41610718 33.41548157
v -69.05940247 113.41610718 33.24769974
v -68.98266602 118.41610718 33.06980515
v -55.00151443 118.41610718 0.00000000
v -55.00151443 113.41610718 0.00000000
v -110.14819336 118.41610718 0.00000000
v -110.14819336 113.41610718 0.00000000
v -110.14819336 118.41610718 0.00000000
v -110.14819336 113.41610718 0.00000000
v -110.14819336 113.41610718 48.00000000
v -110.14819336 118.41610718 48.00000000
v -55.00151443 118.41610718 0.00000000
v -55.00151443 113.41610718 0.00000000
v -55.00151443 118.41610718 48.00000000
v -55.00151443 113.41610718 48.00000000
v -70.53240204 117.53720093 48.00000000
v -70.14819336 117.58210754 48.00000000
v -69.76399231 117.53720093 48.00000000
v -69.40049744 117.40489960 48.00000000
v -69.07730865 117.19233704 48.00000000
v -68.81185913 116.91097260 48.00000000
v -68.61844635 116.57597351 48.00000000
v -68.50750732 116.20540619 48.00000000
v -68.48501587 115.81923676 48.00000000
v -68.55218506 115.43829346 48.00000000
v -68.70539856 115.08310699 48.00000000
v -68.93639374 114.77282715 48.00000000
v -69.23271179 114.52418518 48.00000000
v -69.57839203 114.35057831 48.00000000
v -69.95478821 114.26136780 48.00000000
v -70.34160614 114.26136780 48.00000000
v -70.71800232 114.35057831 48.00000000
v -71.06367493 114.52418518 48.00000000
v -71.36000061 114.77282715 48.00000000
v -71.59099579 115.08310699 48.00000000
v -71.74420929 115.43829346 48.00000000
v -71.81137848 115.81923676 48.00000000
v -71.78888702 116.20540619 48.00000000
v -71.67794037 116.57597351 48.00000000
v -71.48453522 116.91097260 48.00000000
v -71.21907806 117.19233704 48.00000000
v -70.89589691 117.40489960 48.00000000
v -90.53240204 117.53720093 48.00000000
v -90.14819336 117.58210754 48.00000000
v -89.76399231 117.53720093 48.00000000
v -89.40049744 117.40489960 48.00000000
v -89.07730865 117.19233704 48.00000000
v -88.81185913 116.91097260 48.00000000
v -88.61844635 116.57597351 48.00000000
v -88.50750732 116.20540619 48.00000000
v -88.48501587 115.81923676 48.00000000
v -88.55218506 115.43829346 48.00000000
v -88.70539856 115.08310699 48.00000000
v -88.93639374 114.77282715 48.00000000
v -89.23271179 114.52418518 48.00000000
v -89.57839203 114.35057831 48.00000000
v -89.95478821 114.26136780 48.00000000
v -90.34160614 114.26136780 48.00000000
v -90.71800232 114.35057831 48.00000000
v -91.06367493 114.52418518 48.00000000
v -91.36000061 114.77282715 48.00000000
v -91.59099579 115.08310699 48.00000000
v -91.74420929 115.43829346 48.00000000
v -91.81137848 115.81923676 48.00000000
v -91.78888702 116.20540619 48.00000000
v -91.67794037 116.57597351 48.00000000
v -91.48453522 116.91097260 48.00000000
v -91.21907806 117.19233704 48.00000000
v -90.89589691 117.40489960 48.00000000
v -110.14819336 113.41610718 48.00000000
v -110.14819336 118.41610718 48.00000000
v -55.00151443 118.41610718 48.00000000
v -55.00151443 113.41610718 48.00000000
v -83.49346161 118.41610718 32.69340897
v -83.49346161 118.41610718 32.30659103
v -83.58266449 118.41610718 31.93019485
v -83.75627136 118.41610718 31.58451843
v -84.00492096 118.41610718 31.28819466
v -84.31519318 118.41610718 31.05720139
v -84.67037964 118.41610718 30.90398979
v -85.05132294 118.41610718 30.83681870
v -85.43749237 118.41610718 30.85931015
v -85.80806732 118.41610718 30.97025108
v -86.14305878 118.41610718 31.16366196
v -86.42442322 118.41610718 31.42911530
v -86.63698578 118.41610718 31.75230026
v -86.76928711 118.41610718 32.11579514
v -86.81419373 118.41610718 32.50000000
v -86.76928711 118.41610718 32.88420486
v -86.63698578 118.41610718 33.24769974
v -86.42442322 118.41610718 33.57088470
v -86.14305878 118.41610718 33.83633804
v -85.80806732 118.41610718 34.02974701
v -85.43749237 118.41610718 34.14068985
v -85.05132294 118.41610718 34.16318130
v -84.67037964 118.41610718 34.09601212
v -84.31519318 118.41610718 33.94279861
v -84.00492096 118.41610718 33.71180344
v -83.75627136 118.41610718 33.41548157
v -83.58266449 118.41610718 33.06980515
v -105.99346161 118.41610718 38.19340897
v -105.99346161 118.41610718 37.80659103
v -106.08266449 118.41610718 37.43019485
v -106.25627136 118.41610718 37.08451843
v -106.50492096 118.41610718 36.78819656
v -106.81519318 118.41610718 36.55720139
v -107.17037964 118.41610718 36.40398788
v -107.55132294 118.41610718 36.33681870
v -107.93749237 118.41610718 36.35931015
v -108.30806732 118.41610718 36.47025299
v -108.64305878 118.41610718 36.66366196
v -108.92442322 118.41610718 36.92911530
v -109.13698578 118.41610718 37.25230026
v -109.26928711 118.41610718 37.61579514
v -109.31419373 118.41610718 38.00000000
v -109.26928711 118.41610718 38.38420486
v -109.13698578 118.41610718 38.74769974
v -108.92442322 118.41610718 39.07088470
v -108.64305878 118.41610718 39.33633804
v -108.30806732 118.41610718 39.52974701
v -107.93749237 118.41610718 39.64068985
v -107.55132294 118.41610718 39.66318130
v -107.17037964 118.41610718 39.59601212
v -106.81519318 118.41610718 39.44279861
v -106.50492096 118.41610718 39.21180344
v -106.25627136 118.41610718 38.91548157
v -106.08266449 118.41610718 38.56980515
v -105.99346161 118.41610718 28.19341087
v -105.99346161 118.41610718 27.80658913
v -106.08266449 118.41610718 27.43019485
v -106.25627136 118.41610718 27.08451843
v -106.50492096 118.41610718 26.78819466
v -106.81519318 118.41610718 26.55720139
v -107.17037964 118.41610718 26.40398979
v -107.55132294 118.41610718 26.33681870
v -107.93749237 118.41610718 26.35931015
v -108.30806732 118.41610718 26.47025108
v -108.64305878 118.41610718 26.66366196
v -108.92442322 118.41610718 26.92911530
v -109.13698578 118.41610718 27.25230026
v -109.26928711 118.41610718 27.61579323
v -109.31419373 118.41610718 28.00000000
v -109.26928711 118.41610718 28.38420677
v -109.13698578 118.41610718 28.74769974
v -108.92442322 118.41610718 29.07088470
v -108.64305878 118.41610718 29.33633804
v -108.30806732 118.41610718 29.52974892
v -107.93749237 118.41610718 29.64068985
v -107.55132294 118.41610718 29.66318130
v -107.17037964 118.41610718 29.59601021
v -106.81519318 118.41610718 29.44279861
v -106.50492096 118.41610718 29.21180534
v -106.25627136 118.41610718 28.91548157
v -106.08266449 118.41610718 28.56980515
v -68.89346313 118.41610718 32.69340897
v -68.89346313 118.41610718 32.30659103
v -68.98266602 118.41610718 31.93019485
v -69.15627289 118.41610718 31.58451843
v -69.40491486 118.41610718 31.28819466
v -69.71519470 118.41610718 31.05720139
v -70.07038116 118.41610718 30.90398979
v -70.45132446 118.41610718 30.83681870
v -70.83749390 118.41610718 30.85931015
v -71.20806122 118.41610718 30.97025108
v -71.54306030 118.41610718 31.16366196
v -71.82442474 118.41610718 31.42911530
v -72.03698730 118.41610718 31.75230026
v -72.16928864 118.41610718 32.11579514
v -72.21419525 118.41610718 32.50000000
v -72.16928864 118.41610718 32.88420486
v -72.03698730 118.41610718 33.24769974
v -71.82442474 118.41610718 33.57088470
v -71.54306030 118.41610718 33.83633804
v -71.20806122 118.41610718 34.02974701
v -70.83749390 118.41610718 34.14068985
v -70.45132446 118.41610718 34.16318130
v -70.07038116 118.41610718 34.09601212
v -69.71519470 118.41610718 33.94279861
v -69.40491486 118.41610718 33.71180344
v -69.15627289 118.41610718 33.41548157
v -68.98266602 118.41610718 33.06980515
v -55.00151443 118.41610718 0.00000000
v -110.14819336 118.41610718 0.00000000
v -110.14819336 118.41610718 48.00000000
v -55.00151443 118.41610718 48.00000000
v -83.52709961 113.41610718 32.88420486
v -83.48219299 113.41610718 32.50000000
v -83.52709961 113.41610718 32.11579514
v -83.65940094 113.41610718 31.75230026
v -83.87196350 113.41610718 31.42911530
v -84.15332794 113.41610718 31.16366196
v -84.48832703 113.41610718 30.97025108
v -84.85889435 113.41610718 30.85931015
v -85.24506378 113.41610718 30.83681870
v -85.62600708 113.41610718 30.90398979
v -85.98119354 113.41610718 31.05720139
v -86.29147339 113.41610718 31.28819466
v -86.54011536 113.41610718 31.58451843
v -86.71372223 113.41610718 31.93019485
v -86.80293274 113.41610718 32.30659103
v -86.80293274 113.41610718 32.69340897
v -86.71372223 113.41610718 33.06980515
v -86.54011536 113.41610718 33.41548157
v -86.29147339 113.41610718 33.71180344
v -85.98119354 113.41610718 33.94279861
v -85.62600708 113.41610718 34.09601212
v -85.24506378 113.41610718 34.16318130
v -84.85889435 113.41610718 34.14068985
v -84.48832703 113.41610718 34.02974701
v -84.15332794 113.41610718 33.83633804
v -83.87196350 113.41610718 33.57088470
v -83.65940094 113.41610718 33.24769974
v -106.02709961 113.41610718 38.38420486
v -105.98219299 113.41610718 38.00000000
v -106.02709961 113.41610718 37.61579514
v -106.15940094 113.41610718 37.25230026
v -106.37196350 113.41610718 36.92911530
v -106.65332794 113.41610718 36.66366196
v -106.98832703 113.41610718 36.47025299
v -107.35889435 113.41610718 36.35931015
v -107.74506378 113.41610718 36.33681870
v -108.12600708 113.41610718 36.40398788
v -108.48119354 113.41610718 36.55720139
v -108.79147339 113.41610718 36.78819656
v -109.04011536 113.41610718 37.08451843
v -109.21372223 113.41610718 37.43019485
v -109.30293274 113.41610718 37.80659103
v -109.30293274 113.41610718 38.19340897
v -109.21372223 113.41610718 38.56980515
v -109.04011536 113.41610718 38.91548157
v -108.79147339 113.41610718 39.21180344
v -108.48119354 113.41610718 39.44279861
v -108.12600708 113.41610718 39.59601212
v -107.74506378 113.41610718 39.66318130
v -107.35889435 113.41610718 39.64068985
v -106.98832703 113.41610718 39.52974701
v -106.65332794 113.41610718 39.33633804
v -106.37196350 113.41610718 39.07088470
v -106.15940094 113.41610718 38.74769974
v -106.02709961 113.41610718 28.38420677
v -105.98219299 113.41610718 28.00000000
v -106.02709961 113.41610718 27.61579323
v -106.15940094 113.41610718 27.25230026
v -106.37196350 113.41610718 26.92911530
v -106.65332794 113.41610718 26.66366196
v -106.98832703 113.41610718 26.47025108
v -107.35889435 113.41610718 26.35931015
v -107.74506378 113.41610718 26.33681870
v -108.12600708 113.41610718 26.40398979
v -108.48119354 113.41610718 26.55720139
v -108.79147339 113.41610718 26.78819466
v -109.04011536 113.41610718 27.08451843
v -109.21372223 113.41610718 27.43019485
v -109.30293274 113.41610718 27.80658913
v -109.30293274 113.41610718 28.19341087
v -109.21372223 113.41610718 28.56980515
v -109.04011536 113.41610718 28.91548157
v -108.79147339 113.41610718 29.21180534
v -108.48119354 113.41610718 29.44279861
v -108.12600708 113.41610718 29.59601021
v -107.74506378 113.41610718 29.66318130
v -107.35889435 113.41610718 29.64068985
v -106.98832703 113.41610718 29.52974892
v -106.65332794 113.41610718 29.33633804
v -106.37196350 113.41610718 29.07088470
v -106.15940094 113.41610718 28.74769974
v -68.92710114 113.41610718 32.88420486
v -68.88219452 113.41610718 32.50000000
v -68.92710114 113.41610718 32.11579514
v -69.05940247 113.41610718 31.75230026
v -69.27196503 113.41610718 31.42911530
v -69.55332947 113.41610718 31.16366196
v -69.88832855 113.41610718 30.97025108
v -70.25889587 113.41610718 30.85931015
v -70.64506531 113.41610718 30.83681870
v -71.02600861 113.41610718 30.90398979
v -71.38119507 113.41610718 31.05720139
v -71.69147491 113.41610718 31.28819466
v -71.94011688 113.41610718 31.58451843
v -72.11372375 113.41610718 31.93019485
v -72.20293427 113.41610718 32.30659103
v -72.20293427 113.41610718 32.69340897
v -72.11372375 113.41610718 33.06980515
v -71.94011688 113.41610718 33.41548157
v -71.69147491 113.41610718 33.71180344
v -71.38119507 113.41610718 33.94279861
v -71.02600861 113.41610718 34.09601212
v -70.64506531 113.41610718 34.16318130
v -70.25889587 113.41610718 34.14068985
v -69.88832855 113.41610718 34.02974701
v -69.55332947 113.41610718 33.83633804
v -69.27196503 113.41610718 33.57088470
v -69.05940247 113.41610718 33.24769974
v -55.00151443 113.41610718 0.00000000
v -110.14819336 113.41610718 0.00000000
v -110.14819336 113.41610718 48.00000000
v -55.00151443 113.41610718 48.00000000
f 1 2 3
f 3 2 4
f 3 4 5
f 5 4 6
f 5 6 7
f 7 6 8
f 7 8 9
f 9 8 10
f 9 10 11
f 11 10 12
f 11 12 13
f 13 12 14
f 13 14 15
f 15 14 16
f 15 16 17
f 17 16 18
f 17 18 19
f 19 18 20
f 19 20 21
f 21 20 22
f 21 22 23
f 23 22 24
f 23 24 25
f 25 24 26
f 25 26 27
f 27 26 28
f 27 28 29
f 29 28 30
f 29 30 31
f 31 30 32
f 31 32 33
f 33 32 34
f 33 34 35
f 35 34 36
f 35 36 37
f 37 36 38
f 37 38 39
f 39 38 40
f 39 40 41
f 41 40 42
f 41 42 43
f 43 42 44
f 43 44 45
f 45 44 46
f 45 46 47
f 47 46 48
f 47 48 49
f 49 48 50
f 49 50 51
f 51 50 52
f 51 52 53
f 53 52 54
f 53 54 1
f 1 54 2
f 55 32 56
f 56 32 30
f 56 30 57
f 57 30 28
f 57 28 58
f 58 28 26
f 58 26 59
f 59 26 24
f 59 24 60
f 60 24 22
f 60 22 61
f 61 22 20
f 61 20 62
f 62 20 18
f 62 18 63
f 63 18 16
f 63 16 64
f 64 16 14
f 64 14 65
f 65 14 12
f 65 12 66
f 66 12 10
f 66 10 67
f 67 10 8
f 67 8 68
f 68 8 6
f 68 6 69
f 69 6 4
f 69 4 70
f 70 4 2
f 70 2 71
f 71 2 54
f 71 54 72
f 72 54 52
f 72 52 73
f 73 52 50
f 73 50 74
f 74 50 48
f 74 48 75
f 75 48 46
f 75 46 76
f 76 46 44
f 76 44 77
f 77 44 42
f 77 42 78
f 78 42 40
f 78 40 79
f 79 40 38
f 79 38 80
f 80 38 36
f 80 36 81
f 81 36 34
f 81 34 55
f 55 34 32
f 83 84 82
f 82 84 108
f 108 84 85
f 108 85 107
f 107 85 86
f 107 86 106
f 106 86 87
f 106 87 105
f 105 87 104
f 104 87 103
f 103 87 102
f 102 87 101
f 101 87 100
f 100 87 99
f 99 87 98
f 98 87 97
f 97 87 96
f 96 87 95
f 95 87 94
f 94 87 93
f 93 87 88
f 93 88 92
f 92 88 91
f 91 88 89
f 91 89 90
f 109 110 111
f 111 110 112
f 111 112 113
f 113 112 114
f 113 114 115
f 115 114 116
f 115 116 117
f 117 116 118
f 117 118 119
f 119 118 120
f 119 120 121
f 121 120 122
f 121 122 123
f 123 122 124
f 123 124 125
f 125 124 126
f 125 126 127
f 127 126 128
f 127 128 129
f 129 128 130
f 129 130 131
f 131 130 132
f 131 132 133
f 133 132 134
f 133 134 135
f 135 134 136
f 135 136 137
f 137 136 138
f 137 138 139
f 139 138 140
f 139 140 141
f 141 140 142
f 141 142 143
f 143 142 144
f 143 144 145
f 145 144 146
f 145 146 147
f 147 146 148
f 147 148 149
f 149 148 150
f 149 150 151
f 151 150 152
f 151 152 153
f 153 152 154
f 153 154 155
f 155 154 156
f 155 156 157
f 157 156 158
f 157 158 159
f 159 158 160
f 159 160 161
f 161 160 162
f 161 162 109
f 109 162 110
f 163 140 164
f 164 140 138
f 164 138 165
f 165 138 136
f 165 136 166
f 166 136 134
f 166 134 167
f 167 134 132
f 167 132 168
f 168 132 130
f 168 130 169
f 169 130 128
f 169 128 170
f 170 128 126
f 170 126 171
f 171 126 124
f 171 124 172
f 172 124 122
f 172 122 173
f 173 122 120
f 173 120 174
f 174 120 118
f 174 118 175
f 175 118 116
f 175 116 176
f 176 116 114
f 176 114 177
f 177 114 112
f 177 112 178
f 178 112 110
f 178 110 179
f 179 110 162
f 179 162 180
f 180 162 160
f 180 160 181
f 181 160 158
f 181 158 182
f 182 158 156
f 182 156 183
f 183 156 154
f 183 154 184
f 184 154 152
f 184 152 185
f 185 152 150
f 185 150 186
f 186 150 148
f 186 148 187
f 187 148 146
f 187 146 188
f 188 146 144
f 188 144 189
f 189 144 142
f 189 142 163
f 163 142 140
f 191 192 190
f 190 192 216
f 216 192 193
f 216 193 215
f 215 193 194
f 215 194 214
f 214 194 195
f 214 195 213
f 213 195 212
f 212 195 211
f 211 195 210
f 210 195 209
f 209 195 208
f 208 195 207
f 207 195 206
f 206 195 205
f 205 195 204
f 204 195 203
f 203 195 202
f 202 195 201
f 201 195 196
f 201 196 200
f 200 196 199
f 199 196 197
f 199 197 198
f 217 218 219
f 219 218 220
f 219 220 221
f 221 220 222
f 221 222 223
f 223 222 224
f 223 224 225
f 225 224 226
f 225 226 227
f 227 226 228
f 227 228 229
f 229 228 230
f 229 230 231
f 231 230 232
f 231 232 233
f 233 232 234
f 233 234 235
f 235 234 236
f 235 236 237
f 237 236 238
f 237 238 239
f 239 238 240
f 239 240 241
f 241 240 242
f 241 242 243
f 243 242 244
f 243 244 245
f 245 244 246
f 245 246 247
f 247 246 248
f 247 248 249
f 249 248 250
f 249 250 251
f 251 250 252
f 251 252 253
f 253 252 254
f 253 254 255
f 255 254 256
f 255 256 257
f 257 256 258
f 257 258 259
f 259 258 260
f 259 260 261
f 261 260 262
f 261 262 263
f 263 262 264
f 263 264 265
f 265 264 266
f 265 266 267
f 267 266 268
f 267 268 269
f 269 268 270
f 269 270 217
f 217 270 218
f 271 272 273
f 273 272 274
f 273 274 275
f 275 274 276
f 275 276 277
f 277 276 278
f 277 278 279
f 279 278 280
f 279 280 281
f 281 280 282
f 281 282 283
f 283 282 284
f 283 284 285
f 285 284 286
f 285 286 287
f 287 286 288
f 287 288 289
f 289 288 290
f 289 290 291
f 291 290 292
f 291 292 293
f 293 292 294
f 293 294 295
f 295 294 296
f 295 296 297
f 297 296 298
f 297 298 299
f 299 298 300
f 299 300 301
f 301 300 302
f 301 302 303
f 303 302 304
f 303 304 305
f 305 304 306
f 305 306 307
f 307 306 308
f 307 308 309
f 309 308 310
f 309 310 311
f 311 310 312
f 311 312 313
f 313 312 314
f 313 314 315
f 315 314 316
f 315 316 317
f 317 316 318
f 317 318 319
f 319 318 320
f 319 320 321
f 321 320 322
f 321 322 323
f 323 322 324
f 323 324 271
f 271 324 272
f 325 326 327
f 327 326 328
f 327 328 329
f 329 328 330
f 329 330 331
f 331 330 332
f 331 332 333
f 333 332 334
f 333 334 335
f 335 334 336
f 335 336 337
f 337 336 338
f 337 338 339
f 339 338 340
f 339 340 341
f 341 340 342
f 341 342 343
f 343 342 344
f 343 344 345
f 345 344 346
f 345 346 347
f 347 346 348
f 347 348 349
f 349 348 350
f 349 350 351
f 351 350 352
f 351 352 353
f 353 352 354
f 353 354 355
f 355 354 356
f 355 356 357
f 357 356 358
f 357 358 359
f 359 358 360
f 359 360 361
f 361 360 362
f 361 362 363
f 363 362 364
f 363 364 365
f 365 364 366
f 365 366 367
f 367 366 368
f 367 368 369
f 369 368 370
f 369 370 371
f 371 370 372
f 371 372 373
f 373 372 374
f 373 374 375
f 375 374 376
f 375 376 377
f 377 376 378
f 377 378 325
f 325 378 326
f 379 380 381
f 381 380 382
f 381 382 383
f 383 382 384
f 383 384 385
f 385 384 386
f 385 386 387
f 387 386 388
f 387 388 389
f 389 388 390
f 389 390 391
f 391 390 392
f 391 392 393
f 393 392 394
f 393 394 395
f 395 394 396
f 395 396 397
f 397 396 398
f 397 398 399
f 399 398 400
f 399 400 401
f 401 400 402
f 401 402 403
f 403 402 404
f 403 404 405
f 405 404 406
f 405 406 407
f 407 406 408
f 407 408 409
f 409 408 410
f 409 410 411
f 411 410 412
f 411 412 413
f 413 412 414
f 413 414 415
f 415 414 416
f 415 416 417
f 417 416 418
f 417 418 419
f 419 418 420
f 419 420 421
f 421 420 422
f 421 422 423
f 423 422 424
f 423 424 425
f 425 424 426
f 425 426 427
f 427 426 428
f 427 428 429
f 429 428 430
f 429 430 431
f 431 430 432
f 431 432 379
f 379 432 380
f 433 434 435
f 435 434 436
f 439 440 438
f 438 440 437
f 443 444 441
f 441 444 442
f 447 501 446
f 446 501 473
f 446 473 445
f 445 473 474
f 445 474 471
f 471 474 475
f 471 475 470
f 470 475 476
f 470 476 469
f 469 476 477
f 469 477 468
f 468 477 478
f 468 478 467
f 467 478 479
f 467 479 466
f 466 479 480
f 466 480 481
f 447 448 501
f 501 448 449
f 501 449 450
f 450 451 501
f 501 451 452
f 501 452 453
f 501 453 502
f 502 453 454
f 502 454 455
f 455 456 502
f 502 456 457
f 502 457 458
f 458 459 502
f 502 459 460
f 502 460 486
f 486 460 461
f 486 461 485
f 485 461 462
f 485 462 484
f 484 462 463
f 484 463 483
f 483 463 464
f 483 464 482
f 482 464 465
f 482 465 481
f 481 465 466
f 502 486 499
f 499 486 487
f 499 487 488
f 488 489 499
f 499 489 490
f 499 490 491
f 491 492 499
f 499 492 493
f 499 493 500
f 500 493 494
f 500 494 495
f 495 496 500
f 500 496 497
f 500 497 498
f 498 472 500
f 500 472 473
f 500 473 501
f 516 583 517
f 517 583 582
f 517 582 533
f 533 582 534
f 534 582 581
f 542 574 573
f 541 574 542
f 541 575 574
f 540 575 541
f 540 576 575
f 539 576 540
f 539 577 576
f 538 577 539
f 538 578 577
f 537 578 538
f 537 579 578
f 612 510 611
f 612 511 510
f 561 511 612
f 561 512 511
f 560 512 561
f 560 513 512
f 559 513 560
f 559 514 513
f 558 514 559
f 558 515 514
f 557 515 558
f 557 516 515
f 583 516 557
f 612 570 569
f 612 571 570
f 613 571 612
f 599 503 529
f 598 503 599
f 598 504 503
f 597 504 598
f 597 505 504
f 596 505 597
f 596 506 505
f 595 506 596
f 595 507 506
f 594 507 595
f 594 508 507
f 593 508 594
f 593 509 508
f 592 509 593
f 611 509 592
f 611 510 509
f 609 614 610
f 608 614 609
f 607 614 608
f 606 614 607
f 605 614 606
f 604 614 605
f 604 525 614
f 603 525 604
f 603 526 525
f 602 526 603
f 602 527 526
f 601 527 602
f 601 528 527
f 600 528 601
f 600 529 528
f 599 529 600
f 522 555 554
f 521 555 522
f 613 523 522
f 613 524 523
f 614 524 613
f 525 524 614
f 591 611 592
f 590 611 591
f 589 611 590
f 588 611 589
f 587 611 588
f 586 611 587
f 586 614 611
f 585 614 586
f 584 614 585
f 610 614 584
f 549 548 613
f 613 550 549
f 613 551 550
f 552 551 613
f 533 518 517
f 532 518 533
f 532 519 518
f 531 519 532
f 531 520 519
f 530 520 531
f 556 520 530
f 556 521 520
f 555 521 556
f 613 553 552
f 613 554 553
f 522 554 613
f 612 562 561
f 563 562 612
f 612 564 563
f 612 565 564
f 566 565 612
f 612 567 566
f 612 568 567
f 569 568 612
f 613 545 544
f 546 545 613
f 613 547 546
f 613 548 547
f 544 571 613
f 544 572 571
f 543 572 544
f 543 573 572
f 542 573 543
f 536 579 537
f 536 580 579
f 535 580 536
f 535 581 580
f 534 581 535
f 709 618 708
f 708 618 619
f 708 619 707
f 624 674 724
f 724 674 675
f 724 675 676
f 672 625 626
f 673 625 672
f 709 617 618
f 710 617 709
f 705 622 723
f 705 621 622
f 706 621 705
f 706 620 621
f 707 620 706
f 707 619 620
f 642 633 668
f 643 633 642
f 643 632 633
f 644 632 643
f 644 631 632
f 637 726 725
f 637 716 726
f 638 716 637
f 638 715 716
f 639 715 638
f 639 714 715
f 640 714 639
f 640 713 714
f 641 713 640
f 641 712 713
f 615 712 641
f 724 623 624
f 625 673 624
f 624 673 674
f 692 647 648
f 692 648 691
f 691 648 649
f 723 622 724
f 724 622 623
f 691 649 690
f 690 649 650
f 725 636 637
f 725 635 636
f 667 635 725
f 667 634 635
f 668 634 667
f 668 633 634
f 658 659 725
f 725 657 658
f 725 656 657
f 684 656 725
f 684 655 656
f 645 631 644
f 645 630 631
f 695 630 645
f 695 629 630
f 669 629 695
f 669 628 629
f 670 628 669
f 670 627 628
f 671 627 670
f 671 626 627
f 672 626 671
f 690 650 689
f 689 650 651
f 689 651 688
f 688 651 652
f 688 652 687
f 687 652 653
f 687 653 686
f 686 653 654
f 686 654 685
f 685 654 655
f 685 655 684
f 716 717 726
f 726 717 718
f 726 718 719
f 719 720 726
f 726 720 721
f 725 659 660
f 725 660 661
f 661 662 725
f 725 662 663
f 725 663 664
f 664 665 725
f 695 645 694
f 694 645 646
f 694 646 693
f 693 646 647
f 693 647 692
f 679 680 724
f 724 680 681
f 724 681 682
f 682 683 724
f 724 683 725
f 676 677 724
f 724 677 678
f 724 678 679
f 725 666 667
f 725 665 666
f 723 704 705
f 703 704 723
f 723 702 703
f 723 701 702
f 700 701 723
f 723 699 700
f 723 698 699
f 726 698 723
f 726 697 698
f 696 697 726
f 617 710 616
f 616 710 711
f 616 711 615
f 615 711 712
f 722 696 726
f 726 721 722
f 725 683 684

