# https://github.com/mikedh/trimesh

o F_RightLink2_1.stl
v -69.13117981 93.92037964 60.00000000
v -69.50151825 93.95107269 60.00000000
v -69.50151825 93.36707306 60.00000000
v -69.87185669 93.92037964 60.00000000
v -69.82653809 93.33506012 60.00000000
v -70.23208618 93.82915497 60.00000000
v -70.13906860 93.24024963 60.00000000
v -70.57239532 93.67988586 60.00000000
v -70.42709351 93.08629608 60.00000000
v -70.88349152 93.47663879 60.00000000
v -70.67955780 92.87911224 60.00000000
v -71.15689087 93.22495270 60.00000000
v -70.88674164 92.62664795 60.00000000
v -71.38513947 92.93170166 60.00000000
v -71.56200409 92.60488129 60.00000000
v -71.04069519 92.33862305 60.00000000
v -71.68266296 92.25341034 60.00000000
v -71.13550568 92.02609253 60.00000000
v -71.74382782 91.88687134 60.00000000
v -71.16751862 91.70107269 60.00000000
v -71.74382782 91.51526642 60.00000000
v -71.13550568 91.37605286 60.00000000
v -71.68266296 91.14872742 60.00000000
v -71.04069519 91.06352234 60.00000000
v -71.56200409 90.79725647 60.00000000
v -70.88674164 90.77548981 60.00000000
v -71.38513947 90.47043610 60.00000000
v -71.15689087 90.17718506 60.00000000
v -70.67955780 90.52303314 60.00000000
v -70.88349152 89.92550659 60.00000000
v -70.42709351 90.31584167 60.00000000
v -70.57239532 89.72225189 60.00000000
v -70.13906860 90.16188812 60.00000000
v -70.23208618 89.57298279 60.00000000
v -69.82653809 90.06708527 60.00000000
v -69.87185669 89.48175812 60.00000000
v -69.50151825 90.03507233 60.00000000
v -69.50151825 89.45107269 60.00000000
v -69.13117981 89.48175812 60.00000000
v -69.17649841 90.06708527 60.00000000
v -68.77094269 89.57298279 60.00000000
v -68.86396790 90.16188812 60.00000000
v -68.43063354 89.72225189 60.00000000
v -68.57593536 90.31584167 60.00000000
v -68.11953735 89.92550659 60.00000000
v -68.32347870 90.52303314 60.00000000
v -67.84613800 90.17718506 60.00000000
v -68.11628723 90.77548981 60.00000000
v -67.61788940 90.47043610 60.00000000
v -67.44102478 90.79725647 60.00000000
v -67.96233368 91.06352234 60.00000000
v -67.32036591 91.14872742 60.00000000
v -67.86752319 91.37605286 60.00000000
v -67.25920105 91.51526642 60.00000000
v -67.83551788 91.70107269 60.00000000
v -67.25920105 91.88687134 60.00000000
v -67.86752319 92.02609253 60.00000000
v -67.32036591 92.25341034 60.00000000
v -67.96233368 92.33862305 60.00000000
v -67.44102478 92.60488129 60.00000000
v -68.11628723 92.62664795 60.00000000
v -67.61788940 92.93170166 60.00000000
v -67.84613800 93.22495270 60.00000000
v -68.32347870 92.87911224 60.00000000
v -68.11953735 93.47663879 60.00000000
v -68.57593536 93.08629608 60.00000000
v -68.43063354 93.67988586 60.00000000
v -68.86396790 93.24024963 60.00000000
v -68.77094269 93.82915497 60.00000000
v -69.17649841 93.33506012 60.00000000
v -69.13117981 93.92037964 60.00000000
v -69.50151825 93.95107269 60.00000000
v -69.87185669 93.92037964 60.00000000
v -70.23208618 93.82915497 60.00000000
v -70.57239532 93.67988586 60.00000000
v -70.88349152 93.47663879 60.00000000
v -71.15689087 93.22495270 60.00000000
v -71.38513947 92.93170166 60.00000000
v -71.56200409 92.60488129 60.00000000
v -71.68266296 92.25341034 60.00000000
v -71.74382782 91.88687134 60.00000000
v -71.74382782 91.51526642 60.00000000
v -71.68266296 91.14872742 60.00000000
v -71.56200409 90.79725647 60.00000000
v -71.38513947 90.47043610 60.00000000
v -71.15689087 90.17718506 60.00000000
v -70.88349152 89.92550659 60.00000000
v -70.57239532 89.72225189 60.00000000
v -70.23208618 89.57298279 60.00000000
v -69.87185669 89.48175812 60.00000000
v -69.50151825 89.45107269 60.00000000
v -69.13117981 89.48175812 60.00000000
v -68.77094269 89.57298279 60.00000000
v -68.43063354 89.72225189 60.00000000
v -68.11953735 89.92550659 60.00000000
v -67.84613800 90.17718506 60.00000000
v -67.61788940 90.47043610 60.00000000
v -67.44102478 90.79725647 60.00000000
v -67.32036591 91.14872742 60.00000000
v -67.25920105 91.51526642 60.00000000
v -67.25920105 91.88687134 60.00000000
v -67.32036591 92.25341034 60.00000000
v -67.44102478 92.60488129 60.00000000
v -67.61788940 92.93170166 60.00000000
v -67.84613800 93.22495270 60.00000000
v -68.11953735 93.47663879 60.00000000
v -68.43063354 93.67988586 60.00000000
v -68.77094269 93.82915497 60.00000000
v -69.87185669 93.92037964 63.00000000
v -69.50151825 93.95107269 63.00000000
v -69.13117981 93.92037964 63.00000000
v -68.77094269 93.82915497 63.00000000
v -68.43063354 93.67988586 63.00000000
v -68.11953735 93.47663879 63.00000000
v -67.84613800 93.22495270 63.00000000
v -67.61788940 92.93170166 63.00000000
v -67.44102478 92.60488129 63.00000000
v -67.32036591 92.25341034 63.00000000
v -67.25920105 91.88687134 63.00000000
v -67.25920105 91.51526642 63.00000000
v -67.32036591 91.14872742 63.00000000
v -67.44102478 90.79725647 63.00000000
v -67.61788940 90.47043610 63.00000000
v -67.84613800 90.17718506 63.00000000
v -68.11953735 89.92550659 63.00000000
v -68.43063354 89.72225189 63.00000000
v -68.77094269 89.57298279 63.00000000
v -69.13117981 89.48175812 63.00000000
v -69.50151825 89.45107269 63.00000000
v -69.87185669 89.48175812 63.00000000
v -70.23208618 93.82915497 63.00000000
v -70.57239532 93.67988586 63.00000000
v -70.88349152 93.47663879 63.00000000
v -71.15689087 93.22495270 63.00000000
v -71.38513947 92.93170166 63.00000000
v -71.56200409 92.60488129 63.00000000
v -71.68266296 92.25341034 63.00000000
v -71.74382782 91.88687134 63.00000000
v -71.74382782 91.51526642 63.00000000
v -71.68266296 91.14872742 63.00000000
v -71.56200409 90.79725647 63.00000000
v -71.38513947 90.47043610 63.00000000
v -71.15689087 90.17718506 63.00000000
v -70.88349152 89.92550659 63.00000000
v -70.57239532 89.72225189 63.00000000
v -70.23208618 89.57298279 63.00000000
v -69.50151825 93.36707306 60.00000000
v -69.82653809 93.33506012 60.00000000
v -70.13906860 93.24024963 60.00000000
v -70.42709351 93.08629608 60.00000000
v -70.67955780 92.87911224 60.00000000
v -70.88674164 92.62664795 60.00000000
v -71.04069519 92.33862305 60.00000000
v -71.13550568 92.02609253 60.00000000
v -71.16751862 91.70107269 60.00000000
v -71.13550568 91.37605286 60.00000000
v -71.04069519 91.06352234 60.00000000
v -70.88674164 90.77548981 60.00000000
v -70.67955780 90.52303314 60.00000000
v -70.42709351 90.31584167 60.00000000
v -70.13906860 90.16188812 60.00000000
v -69.82653809 90.06708527 60.00000000
v -69.50151825 90.03507233 60.00000000
v -69.17649841 90.06708527 60.00000000
v -68.86396790 90.16188812 60.00000000
v -68.57593536 90.31584167 60.00000000
v -68.32347870 90.52303314 60.00000000
v -68.11628723 90.77548981 60.00000000
v -67.96233368 91.06352234 60.00000000
v -67.86752319 91.37605286 60.00000000
v -67.83551788 91.70107269 60.00000000
v -67.86752319 92.02609253 60.00000000
v -67.96233368 92.33862305 60.00000000
v -68.11628723 92.62664795 60.00000000
v -68.32347870 92.87911224 60.00000000
v -68.57593536 93.08629608 60.00000000
v -68.86396790 93.24024963 60.00000000
v -69.17649841 93.33506012 60.00000000
v -69.82653809 90.06708527 58.00000000
v -69.50151825 90.03507233 58.00000000
v -69.17649841 90.06708527 58.00000000
v -68.86396790 90.16188812 58.00000000
v -68.57593536 90.31584167 58.00000000
v -68.32347870 90.52303314 58.00000000
v -68.11628723 90.77548981 58.00000000
v -67.96233368 91.06352234 58.00000000
v -67.86752319 91.37605286 58.00000000
v -67.83551788 91.70107269 58.00000000
v -67.86752319 92.02609253 58.00000000
v -67.96233368 92.33862305 58.00000000
v -68.11628723 92.62664795 58.00000000
v -68.32347870 92.87911224 58.00000000
v -68.57593536 93.08629608 58.00000000
v -68.86396790 93.24024963 58.00000000
v -69.17649841 93.33506012 58.00000000
v -69.50151825 93.36707306 58.00000000
v -69.82653809 93.33506012 58.00000000
v -70.13906860 93.24024963 58.00000000
v -70.42709351 93.08629608 58.00000000
v -70.67955780 92.87911224 58.00000000
v -70.88674164 92.62664795 58.00000000
v -71.04069519 92.33862305 58.00000000
v -71.13550568 92.02609253 58.00000000
v -71.16751862 91.70107269 58.00000000
v -71.13550568 91.37605286 58.00000000
v -71.04069519 91.06352234 58.00000000
v -70.88674164 90.77548981 58.00000000
v -70.67955780 90.52303314 58.00000000
v -70.42709351 90.31584167 58.00000000
v -70.13906860 90.16188812 58.00000000
v -64.13117981 99.48175812 61.00000000
v -64.50151825 99.45107269 61.00000000
v -64.50151825 100.43656921 61.00000000
v -64.87185669 99.48175812 61.00000000
v -64.78289032 100.46827698 61.00000000
v -65.23208618 99.57298279 61.00000000
v -65.05016327 100.56179810 61.00000000
v -65.57239532 99.72225189 61.00000000
v -65.28991699 100.71244049 61.00000000
v -65.88349152 99.92550659 61.00000000
v -66.15689087 100.17718506 61.00000000
v -65.49014282 100.91266632 61.00000000
v -66.38513947 100.47043610 61.00000000
v -65.64079285 101.15242767 61.00000000
v -66.56200409 100.79725647 61.00000000
v -65.73431396 101.41969299 61.00000000
v -66.68266296 101.14872742 61.00000000
v -66.74382782 101.51526642 61.00000000
v -65.76601410 101.70107269 61.00000000
v -66.74382782 101.88687134 61.00000000
v -65.73431396 101.98244476 61.00000000
v -66.68266296 102.25341034 61.00000000
v -66.56200409 102.60488129 61.00000000
v -65.64079285 102.24971771 61.00000000
v -66.38513947 102.93170166 61.00000000
v -65.49014282 102.48947144 61.00000000
v -66.15689087 103.22495270 61.00000000
v -65.28991699 102.68969727 61.00000000
v -65.88349152 103.47663879 61.00000000
v -65.57239532 103.67988586 61.00000000
v -65.05016327 102.84034729 61.00000000
v -65.23208618 103.82915497 61.00000000
v -64.78289032 102.93386841 61.00000000
v -64.87185669 103.92037964 61.00000000
v -64.50151825 102.96556854 61.00000000
v -64.50151825 103.95107269 61.00000000
v -64.13117981 103.92037964 61.00000000
v -64.22013855 102.93386841 61.00000000
v -63.77094269 103.82915497 61.00000000
v -63.95286942 102.84034729 61.00000000
v -63.43063354 103.67988586 61.00000000
v -63.71311188 102.68969727 61.00000000
v -63.11953735 103.47663879 61.00000000
v -62.84613800 103.22495270 61.00000000
v -63.51288986 102.48947144 61.00000000
v -62.61788940 102.93170166 61.00000000
v -63.36223984 102.24971771 61.00000000
v -62.44102478 102.60488129 61.00000000
v -63.26871872 101.98244476 61.00000000
v -62.32036591 102.25341034 61.00000000
v -62.25920105 101.88687134 61.00000000
v -63.23701477 101.70107269 61.00000000
v -62.25920105 101.51526642 61.00000000
v -63.26871872 101.41969299 61.00000000
v -62.32036591 101.14872742 61.00000000
v -62.44102478 100.79725647 61.00000000
v -63.36223984 101.15242767 61.00000000
v -62.61788940 100.47043610 61.00000000
v -63.51288986 100.91266632 61.00000000
v -62.84613800 100.17718506 61.00000000
v -63.71311188 100.71244049 61.00000000
v -63.11953735 99.92550659 61.00000000
v -63.43063354 99.72225189 61.00000000
v -63.95286942 100.56179810 61.00000000
v -63.77094269 99.57298279 61.00000000
v -64.22013855 100.46827698 61.00000000
v -64.13117981 99.48175812 61.00000000
v -64.50151825 99.45107269 61.00000000
v -64.87185669 99.48175812 61.00000000
v -65.23208618 99.57298279 61.00000000
v -65.57239532 99.72225189 61.00000000
v -65.88349152 99.92550659 61.00000000
v -66.15689087 100.17718506 61.00000000
v -66.38513947 100.47043610 61.00000000
v -66.56200409 100.79725647 61.00000000
v -66.68266296 101.14872742 61.00000000
v -66.74382782 101.51526642 61.00000000
v -66.74382782 101.88687134 61.00000000
v -66.68266296 102.25341034 61.00000000
v -66.56200409 102.60488129 61.00000000
v -66.38513947 102.93170166 61.00000000
v -66.15689087 103.22495270 61.00000000
v -65.88349152 103.47663879 61.00000000
v -65.57239532 103.67988586 61.00000000
v -65.23208618 103.82915497 61.00000000
v -64.87185669 103.92037964 61.00000000
v -64.50151825 103.95107269 61.00000000
v -64.13117981 103.92037964 61.00000000
v -63.77094269 103.82915497 61.00000000
v -63.43063354 103.67988586 61.00000000
v -63.11953735 103.47663879 61.00000000
v -62.84613800 103.22495270 61.00000000
v -62.61788940 102.93170166 61.00000000
v -62.44102478 102.60488129 61.00000000
v -62.32036591 102.25341034 61.00000000
v -62.25920105 101.88687134 61.00000000
v -62.25920105 101.51526642 61.00000000
v -62.32036591 101.14872742 61.00000000
v -62.44102478 100.79725647 61.00000000
v -62.61788940 100.47043610 61.00000000
v -62.84613800 100.17718506 61.00000000
v -63.11953735 99.92550659 61.00000000
v -63.43063354 99.72225189 61.00000000
v -63.77094269 99.57298279 61.00000000
v -64.87185669 99.48175812 58.00000000
v -64.50151825 99.45107269 58.00000000
v -64.13117981 99.48175812 58.00000000
v -63.77094269 99.57298279 58.00000000
v -63.43063354 99.72225189 58.00000000
v -63.11953735 99.92550659 58.00000000
v -62.84613800 100.17718506 58.00000000
v -62.61788940 100.47043610 58.00000000
v -62.44102478 100.79725647 58.00000000
v -62.32036591 101.14872742 58.00000000
v -62.25920105 101.51526642 58.00000000
v -62.25920105 101.88687134 58.00000000
v -62.32036591 102.25341034 58.00000000
v -62.44102478 102.60488129 58.00000000
v -62.61788940 102.93170166 58.00000000
v -62.84613800 103.22495270 58.00000000
v -63.11953735 103.47663879 58.00000000
v -63.43063354 103.67988586 58.00000000
v -63.77094269 103.82915497 58.00000000
v -64.13117981 103.92037964 58.00000000
v -64.50151825 103.95107269 58.00000000
v -64.87185669 103.92037964 58.00000000
v -65.23208618 99.57298279 58.00000000
v -65.57239532 99.72225189 58.00000000
v -65.88349152 99.92550659 58.00000000
v -66.15689087 100.17718506 58.00000000
v -66.38513947 100.47043610 58.00000000
v -66.56200409 100.79725647 58.00000000
v -66.68266296 101.14872742 58.00000000
v -66.74382782 101.51526642 58.00000000
v -66.74382782 101.88687134 58.00000000
v -66.68266296 102.25341034 58.00000000
v -66.56200409 102.60488129 58.00000000
v -66.38513947 102.93170166 58.00000000
v -66.15689087 103.22495270 58.00000000
v -65.88349152 103.47663879 58.00000000
v -65.57239532 103.67988586 58.00000000
v -65.23208618 103.82915497 58.00000000
v -64.13117981 89.48175812 61.00000000
v -64.50151825 89.45107269 61.00000000
v -64.50151825 90.43656921 61.00000000
v -64.87185669 89.48175812 61.00000000
v -64.78289032 90.46827698 61.00000000
v -65.23208618 89.57298279 61.00000000
v -65.05016327 90.56179810 61.00000000
v -65.57239532 89.72225189 61.00000000
v -65.28991699 90.71244049 61.00000000
v -65.88349152 89.92550659 61.00000000
v -66.15689087 90.17718506 61.00000000
v -65.49014282 90.91266632 61.00000000
v -66.38513947 90.47043610 61.00000000
v -65.64079285 91.15242767 61.00000000
v -66.56200409 90.79725647 61.00000000
v -65.73431396 91.41969299 61.00000000
v -66.68266296 91.14872742 61.00000000
v -66.74382782 91.51526642 61.00000000
v -65.76601410 91.70107269 61.00000000
v -66.74382782 91.88687134 61.00000000
v -65.73431396 91.98244476 61.00000000
v -66.68266296 92.25341034 61.00000000
v -66.56200409 92.60488129 61.00000000
v -65.64079285 92.24971771 61.00000000
v -66.38513947 92.93170166 61.00000000
v -65.49014282 92.48947144 61.00000000
v -66.15689087 93.22495270 61.00000000
v -65.28991699 92.68969727 61.00000000
v -65.88349152 93.47663879 61.00000000
v -65.57239532 93.67988586 61.00000000
v -65.05016327 92.84034729 61.00000000
v -65.23208618 93.82915497 61.00000000
v -64.78289032 92.93386841 61.00000000
v -64.87185669 93.92037964 61.00000000
v -64.50151825 92.96556854 61.00000000
v -64.50151825 93.95107269 61.00000000
v -64.13117981 93.92037964 61.00000000
v -64.22013855 92.93386841 61.00000000
v -63.77094269 93.82915497 61.00000000
v -63.95286942 92.84034729 61.00000000
v -63.43063354 93.67988586 61.00000000
v -63.71311188 92.68969727 61.00000000
v -63.11953735 93.47663879 61.00000000
v -62.84613800 93.22495270 61.00000000
v -63.51288986 92.48947144 61.00000000
v -62.61788940 92.93170166 61.00000000
v -63.36223984 92.24971771 61.00000000
v -62.44102478 92.60488129 61.00000000
v -63.26871872 91.98244476 61.00000000
v -62.32036591 92.25341034 61.00000000
v -62.25920105 91.88687134 61.00000000
v -63.23701477 91.70107269 61.00000000
v -62.25920105 91.51526642 61.00000000
v -63.26871872 91.41969299 61.00000000
v -62.32036591 91.14872742 61.00000000
v -62.44102478 90.79725647 61.00000000
v -63.36223984 91.15242767 61.00000000
v -62.61788940 90.47043610 61.00000000
v -63.51288986 90.91266632 61.00000000
v -62.84613800 90.17718506 61.00000000
v -63.71311188 90.71244049 61.00000000
v -63.11953735 89.92550659 61.00000000
v -63.43063354 89.72225189 61.00000000
v -63.95286942 90.56179810 61.00000000
v -63.77094269 89.57298279 61.00000000
v -64.22013855 90.46827698 61.00000000
v -64.13117981 89.48175812 61.00000000
v -64.50151825 89.45107269 61.00000000
v -64.87185669 89.48175812 61.00000000
v -65.23208618 89.57298279 61.00000000
v -65.57239532 89.72225189 61.00000000
v -65.88349152 89.92550659 61.00000000
v -66.15689087 90.17718506 61.00000000
v -66.38513947 90.47043610 61.00000000
v -66.56200409 90.79725647 61.00000000
v -66.68266296 91.14872742 61.00000000
v -66.74382782 91.51526642 61.00000000
v -66.74382782 91.88687134 61.00000000
v -66.68266296 92.25341034 61.00000000
v -66.56200409 92.60488129 61.00000000
v -66.38513947 92.93170166 61.00000000
v -66.15689087 93.22495270 61.00000000
v -65.88349152 93.47663879 61.00000000
v -65.57239532 93.67988586 61.00000000
v -65.23208618 93.82915497 61.00000000
v -64.87185669 93.92037964 61.00000000
v -64.50151825 93.95107269 61.00000000
v -64.13117981 93.92037964 61.00000000
v -63.77094269 93.82915497 61.00000000
v -63.43063354 93.67988586 61.00000000
v -63.11953735 93.47663879 61.00000000
v -62.84613800 93.22495270 61.00000000
v -62.61788940 92.93170166 61.00000000
v -62.44102478 92.60488129 61.00000000
v -62.32036591 92.25341034 61.00000000
v -62.25920105 91.88687134 61.00000000
v -62.25920105 91.51526642 61.00000000
v -62.32036591 91.14872742 61.00000000
v -62.44102478 90.79725647 61.00000000
v -62.61788940 90.47043610 61.00000000
v -62.84613800 90.17718506 61.00000000
v -63.11953735 89.92550659 61.00000000
v -63.43063354 89.72225189 61.00000000
v -63.77094269 89.57298279 61.00000000
v -64.87185669 89.48175812 58.00000000
v -64.50151825 89.45107269 58.00000000
v -64.13117981 89.48175812 58.00000000
v -63.77094269 89.57298279 58.00000000
v -63.43063354 89.72225189 58.00000000
v -63.11953735 89.92550659 58.00000000
v -62.84613800 90.17718506 58.00000000
v -62.61788940 90.47043610 58.00000000
v -62.44102478 90.79725647 58.00000000
v -62.32036591 91.14872742 58.00000000
v -62.25920105 91.51526642 58.00000000
v -62.25920105 91.88687134 58.00000000
v -62.32036591 92.25341034 58.00000000
v -62.44102478 92.60488129 58.00000000
v -62.61788940 92.93170166 58.00000000
v -62.84613800 93.22495270 58.00000000
v -63.11953735 93.47663879 58.00000000
v -63.43063354 93.67988586 58.00000000
v -63.77094269 93.82915497 58.00000000
v -64.13117981 93.92037964 58.00000000
v -64.50151825 93.95107269 58.00000000
v -64.87185669 93.92037964 58.00000000
v -65.23208618 89.57298279 58.00000000
v -65.57239532 89.72225189 58.00000000
v -65.88349152 89.92550659 58.00000000
v -66.15689087 90.17718506 58.00000000
v -66.38513947 90.47043610 58.00000000
v -66.56200409 90.79725647 58.00000000
v -66.68266296 91.14872742 58.00000000
v -66.74382782 91.51526642 58.00000000
v -66.74382782 91.88687134 58.00000000
v -66.68266296 92.25341034 58.00000000
v -66.56200409 92.60488129 58.00000000
v -66.38513947 92.93170166 58.00000000
v -66.15689087 93.22495270 58.00000000
v -65.88349152 93.47663879 58.00000000
v -65.57239532 93.67988586 58.00000000
v -65.23208618 93.82915497 58.00000000
v -72.00151825 106.70107269 58.00000000
v -72.00151825 86.70107269 58.00000000
v -72.00151825 106.70107269 63.00000000
v -72.00151825 86.70107269 63.00000000
v -69.87185669 93.92037964 63.00000000
v -69.50151825 93.95107269 63.00000000
v -69.13117981 93.92037964 63.00000000
v -68.77094269 93.82915497 63.00000000
v -68.43063354 93.67988586 63.00000000
v -68.11953735 93.47663879 63.00000000
v -67.84613800 93.22495270 63.00000000
v -67.61788940 92.93170166 63.00000000
v -67.44102478 92.60488129 63.00000000
v -67.32036591 92.25341034 63.00000000
v -67.25920105 91.88687134 63.00000000
v -67.25920105 91.51526642 63.00000000
v -67.32036591 91.14872742 63.00000000
v -67.44102478 90.79725647 63.00000000
v -67.61788940 90.47043610 63.00000000
v -67.84613800 90.17718506 63.00000000
v -68.11953735 89.92550659 63.00000000
v -68.43063354 89.72225189 63.00000000
v -68.77094269 89.57298279 63.00000000
v -69.13117981 89.48175812 63.00000000
v -69.50151825 89.45107269 63.00000000
v -69.87185669 89.48175812 63.00000000
v -70.23208618 93.82915497 63.00000000
v -70.57239532 93.67988586 63.00000000
v -70.88349152 93.47663879 63.00000000
v -71.15689087 93.22495270 63.00000000
v -71.38513947 92.93170166 63.00000000
v -71.56200409 92.60488129 63.00000000
v -71.68266296 92.25341034 63.00000000
v -71.74382782 91.88687134 63.00000000
v -71.74382782 91.51526642 63.00000000
v -71.68266296 91.14872742 63.00000000
v -71.56200409 90.79725647 63.00000000
v -71.38513947 90.47043610 63.00000000
v -71.15689087 90.17718506 63.00000000
v -70.88349152 89.92550659 63.00000000
v -70.57239532 89.72225189 63.00000000
v -70.23208618 89.57298279 63.00000000
v -72.00151825 106.70107269 63.00000000
v -72.00151825 86.70107269 63.00000000
v -67.00151825 106.70107269 63.00000000
v -67.00151825 86.70107269 63.00000000
v -69.82653809 90.06708527 58.00000000
v -69.50151825 90.03507233 58.00000000
v -69.17649841 90.06708527 58.00000000
v -68.86396790 90.16188812 58.00000000
v -68.57593536 90.31584167 58.00000000
v -68.32347870 90.52303314 58.00000000
v -68.11628723 90.77548981 58.00000000
v -67.96233368 91.06352234 58.00000000
v -67.86752319 91.37605286 58.00000000
v -67.83551788 91.70107269 58.00000000
v -67.86752319 92.02609253 58.00000000
v -67.96233368 92.33862305 58.00000000
v -68.11628723 92.62664795 58.00000000
v -68.32347870 92.87911224 58.00000000
v -68.57593536 93.08629608 58.00000000
v -68.86396790 93.24024963 58.00000000
v -69.17649841 93.33506012 58.00000000
v -69.50151825 93.36707306 58.00000000
v -69.82653809 93.33506012 58.00000000
v -70.13906860 93.24024963 58.00000000
v -70.42709351 93.08629608 58.00000000
v -70.67955780 92.87911224 58.00000000
v -70.88674164 92.62664795 58.00000000
v -71.04069519 92.33862305 58.00000000
v -71.13550568 92.02609253 58.00000000
v -71.16751862 91.70107269 58.00000000
v -71.13550568 91.37605286 58.00000000
v -71.04069519 91.06352234 58.00000000
v -70.88674164 90.77548981 58.00000000
v -70.67955780 90.52303314 58.00000000
v -70.42709351 90.31584167 58.00000000
v -70.13906860 90.16188812 58.00000000
v -64.87185669 99.48175812 58.00000000
v -64.50151825 99.45107269 58.00000000
v -64.13117981 99.48175812 58.00000000
v -63.77094269 99.57298279 58.00000000
v -63.43063354 99.72225189 58.00000000
v -63.11953735 99.92550659 58.00000000
v -62.84613800 100.17718506 58.00000000
v -62.61788940 100.47043610 58.00000000
v -62.44102478 100.79725647 58.00000000
v -62.32036591 101.14872742 58.00000000
v -62.25920105 101.51526642 58.00000000
v -62.25920105 101.88687134 58.00000000
v -62.32036591 102.25341034 58.00000000
v -62.44102478 102.60488129 58.00000000
v -62.61788940 102.93170166 58.00000000
v -62.84613800 103.22495270 58.00000000
v -63.11953735 103.47663879 58.00000000
v -63.43063354 103.67988586 58.00000000
v -63.77094269 103.82915497 58.00000000
v -64.13117981 103.92037964 58.00000000
v -64.50151825 103.95107269 58.00000000
v -64.87185669 103.92037964 58.00000000
v -65.23208618 99.57298279 58.00000000
v -65.57239532 99.72225189 58.00000000
v -65.88349152 99.92550659 58.00000000
v -66.15689087 100.17718506 58.00000000
v -66.38513947 100.47043610 58.00000000
v -66.56200409 100.79725647 58.00000000
v -66.68266296 101.14872742 58.00000000
v -66.74382782 101.51526642 58.00000000
v -66.74382782 101.88687134 58.00000000
v -66.68266296 102.25341034 58.00000000
v -66.56200409 102.60488129 58.00000000
v -66.38513947 102.93170166 58.00000000
v -66.15689087 103.22495270 58.00000000
v -65.88349152 103.47663879 58.00000000
v -65.57239532 103.67988586 58.00000000
v -65.23208618 103.82915497 58.00000000
v -64.87185669 89.48175812 58.00000000
v -64.50151825 89.45107269 58.00000000
v -64.13117981 89.48175812 58.00000000
v -63.77094269 89.57298279 58.00000000
v -63.43063354 89.72225189 58.00000000
v -63.11953735 89.92550659 58.00000000
v -62.84613800 90.17718506 58.00000000
v -62.61788940 90.47043610 58.00000000
v -62.44102478 90.79725647 58.00000000
v -62.32036591 91.14872742 58.00000000
v -62.25920105 91.51526642 58.00000000
v -62.25920105 91.88687134 58.00000000
v -62.32036591 92.25341034 58.00000000
v -62.44102478 92.60488129 58.00000000
v -62.61788940 92.93170166 58.00000000
v -62.84613800 93.22495270 58.00000000
v -63.11953735 93.47663879 58.00000000
v -63.43063354 93.67988586 58.00000000
v -63.77094269 93.82915497 58.00000000
v -64.13117981 93.92037964 58.00000000
v -64.50151825 93.95107269 58.00000000
v -64.87185669 93.92037964 58.00000000
v -65.23208618 89.57298279 58.00000000
v -65.57239532 89.72225189 58.00000000
v -65.88349152 89.92550659 58.00000000
v -66.15689087 90.17718506 58.00000000
v -66.38513947 90.47043610 58.00000000
v -66.56200409 90.79725647 58.00000000
v -66.68266296 91.14872742 58.00000000
v -66.74382782 91.51526642 58.00000000
v -66.74382782 91.88687134 58.00000000
v -66.68266296 92.25341034 58.00000000
v -66.56200409 92.60488129 58.00000000
v -66.38513947 92.93170166 58.00000000
v -66.15689087 93.22495270 58.00000000
v -65.88349152 93.47663879 58.00000000
v -65.57239532 93.67988586 58.00000000
v -65.23208618 93.82915497 58.00000000
v -72.00151825 106.70107269 58.00000000
v -72.00151825 86.70107269 58.00000000
v -62.00151443 86.70107269 58.00000000
v -62.00151443 106.70107269 58.00000000
v -68.95118713 89.85426331 92.36170197
v -67.00151825 89.85426331 92.36170197
v -68.95118713 89.76997375 92.70172119
v -67.00151825 89.76997375 92.70172119
v -68.95118713 89.74774170 93.05132294
v -67.00151825 89.74774170 93.05132294
v -68.95118713 89.78829956 93.39927673
v -67.00151825 89.78829956 93.39927673
v -68.95118713 89.89033508 93.73439789
v -67.00151825 89.89033508 93.73439789
v -68.95118713 90.05056000 94.04592133
v -67.00151825 90.05056000 94.04592133
v -68.95118713 90.26384735 94.32382202
v -67.00151825 90.26384735 94.32382202
v -68.95118713 90.52331543 94.55917358
v -67.00151825 90.52331543 94.55917358
v -68.95118713 90.82064819 94.74440765
v -67.00151825 90.82064819 94.74440765
v -68.95118713 91.14627075 94.87358093
v -67.00151825 91.14627075 94.87358093
v -68.95118713 91.48973083 94.94253540
v -67.00151825 91.48973083 94.94253540
v -68.95118713 91.83998108 94.94905853
v -67.00151825 91.83998108 94.94905853
v -68.95118713 92.18576050 94.89292908
v -67.00151825 92.18576050 94.89292908
v -68.95118713 92.51596832 94.77596283
v -67.00151825 92.51596832 94.77596283
v -68.95118713 92.81998444 94.60192108
v -67.00151825 92.81998444 94.60192108
v -68.95118713 93.08803558 94.37638855
v -67.00151825 93.08803558 94.37638855
v -68.95118713 93.31150818 94.10661316
v -67.00151825 93.31150818 94.10661316
v -68.95118713 93.48322296 93.80127716
v -67.00151825 93.48322296 93.80127716
v -68.95118713 93.59765625 93.47018433
v -67.00151825 93.59765625 93.47018433
v -68.95118713 93.65113068 93.12397766
v -67.00151825 93.65113068 93.12397766
v -68.95118713 93.64192963 92.77378845
v -67.00151825 93.64192963 92.77378845
v -68.95118713 93.57035065 92.43087006
v -67.00151825 93.57035065 92.43087006
v -68.95118713 93.43869019 92.10623932
v -67.00151825 93.43869019 92.10623932
v -68.95118713 93.25117493 91.81034088
v -67.00151825 93.25117493 91.81034088
v -68.95118713 93.01384735 91.55268097
v -67.00151825 93.01384735 91.55268097
v -68.95118713 92.73431396 91.34152985
v -67.00151825 92.73431396 91.34152985
v -68.95118713 92.42158508 91.18369293
v -67.00151825 92.42158508 91.18369293
v -68.95118713 92.08568573 91.08422852
v -67.00151825 92.08568573 91.08422852
v -68.95118713 91.73743439 91.04634094
v -67.00151825 91.73743439 91.04634094
v -68.95118713 91.38800812 91.07124329
v -67.00151825 91.38800812 91.07124329
v -68.95118713 91.04864502 91.15813446
v -67.00151825 91.04864502 91.15813446
v -68.95118713 90.73025513 91.30422974
v -67.00151825 90.73025513 91.30422974
v -68.95118713 90.44306183 91.50482941
v -67.00151825 90.44306183 91.50482941
v -68.95118713 90.19630432 91.75347900
v -67.00151825 90.19630432 91.75347900
v -68.95118713 89.99791718 92.04219818
v -67.00151825 89.99791718 92.04219818
v -59.99551392 89.74774170 93.05132294
v -62.00151443 89.74774170 93.05132294
v -59.99551392 89.76997375 92.70172119
v -62.00151443 89.76997375 92.70172119
v -59.99551392 89.85426331 92.36170197
v -62.00151443 89.85426331 92.36170197
v -59.99551392 89.99791718 92.04219818
v -62.00151443 89.99791718 92.04219818
v -59.99551392 90.19630432 91.75347900
v -62.00151443 90.19630432 91.75347900
v -59.99551392 90.44306183 91.50482941
v -62.00151443 90.44306183 91.50482941
v -59.99551392 90.73025513 91.30422974
v -62.00151443 90.73025513 91.30422974
v -59.99551392 91.04864502 91.15813446
v -62.00151443 91.04864502 91.15813446
v -59.99551392 91.38800812 91.07124329
v -62.00151443 91.38800812 91.07124329
v -59.99551392 91.73743439 91.04634094
v -62.00151443 91.73743439 91.04634094
v -59.99551392 92.08568573 91.08422852
v -62.00151443 92.08568573 91.08422852
v -59.99551392 92.42158508 91.18369293
v -62.00151443 92.42158508 91.18369293
v -59.99551392 92.73431396 91.34152985
v -62.00151443 92.73431396 91.34152985
v -59.99551392 93.01384735 91.55268097
v -62.00151443 93.01384735 91.55268097
v -59.99551392 93.25117493 91.81034088
v -62.00151443 93.25117493 91.81034088
v -59.99551392 93.43869019 92.10623932
v -62.00151443 93.43869019 92.10623932
v -59.99551392 93.57035065 92.43087006
v -62.00151443 93.57035065 92.43087006
v -59.99551392 93.64192963 92.77378845
v -62.00151443 93.64192963 92.77378845
v -59.99551392 93.65113068 93.12397766
v -62.00151443 93.65113068 93.12397766
v -59.99551392 93.59765625 93.47018433
v -62.00151443 93.59765625 93.47018433
v -59.99551392 93.48322296 93.80127716
v -62.00151443 93.48322296 93.80127716
v -59.99551392 93.31150818 94.10661316
v -62.00151443 93.31150818 94.10661316
v -59.99551392 93.08803558 94.37638855
v -62.00151443 93.08803558 94.37638855
v -59.99551392 92.81998444 94.60192108
v -62.00151443 92.81998444 94.60192108
v -59.99551392 92.51596832 94.77596283
v -62.00151443 92.51596832 94.77596283
v -59.99551392 92.18576050 94.89292908
v -62.00151443 92.18576050 94.89292908
v -59.99551392 91.83998108 94.94905853
v -62.00151443 91.83998108 94.94905853
v -59.99551392 91.48973083 94.94253540
v -62.00151443 91.48973083 94.94253540
v -59.99551392 91.14627075 94.87358093
v -62.00151443 91.14627075 94.87358093
v -59.99551392 90.82064819 94.74440765
v -62.00151443 90.82064819 94.74440765
v -59.99551392 90.52331543 94.55917358
v -62.00151443 90.52331543 94.55917358
v -59.99551392 90.26384735 94.32382202
v -62.00151443 90.26384735 94.32382202
v -59.99551392 90.05056000 94.04592133
v -62.00151443 90.05056000 94.04592133
v -59.99551392 89.89033508 93.73439789
v -62.00151443 89.89033508 93.73439789
v -59.99551392 89.78829956 93.39927673
v -62.00151443 89.78829956 93.39927673
v -68.11151886 92.15164185 92.10726166
v -67.51065826 91.70107269 93.00000000
v -68.11151886 92.32740784 92.22045135
v -68.11151886 91.74958038 92.00117493
v -68.11151886 91.95619202 92.03308868
v -68.11151886 91.33912659 92.06780243
v -68.11151886 91.54085541 92.01291656
v -68.11151886 91.15322113 92.16342163
v -68.11151886 90.99126434 92.29560852
v -68.11151886 90.86032104 92.45858002
v -68.11151886 90.76612091 92.64521027
v -68.11151886 90.71279144 92.84735107
v -68.11151886 90.70264435 93.05615997
v -68.11151886 90.73614502 93.26251221
v -68.11151886 90.81180573 93.45739746
v -68.11151886 91.07472992 93.77954865
v -68.11151886 90.92633820 93.63229370
v -68.11151886 91.44595337 93.96691132
v -68.11151886 91.25049591 93.89273834
v -68.11151886 91.65255737 93.99882507
v -68.11151886 91.86128235 93.98708344
v -68.11151886 92.06301117 93.93219757
v -68.11151886 92.24891663 93.83657837
v -68.11151886 92.41088104 93.70439148
v -68.11151886 92.54181671 93.54141998
v -68.11151886 92.63601685 93.35478973
v -68.11151886 92.68934631 93.15264893
v -68.11151886 92.69949341 92.94384003
v -68.11151886 92.66600037 92.73748779
v -68.11151886 92.59033203 92.54260254
v -68.11151886 92.47579956 92.36770630
v -59.61151505 91.27783966 94.04157257
v -59.37476730 91.41654205 93.97074127
v -59.61151505 91.52944946 94.11109924
v -59.37476730 91.67944336 94.01134491
v -59.61151505 91.79031372 94.12072754
v -59.40608597 91.94342041 94.00141907
v -59.61151505 92.04636383 94.06993866
v -59.46715927 92.19528198 93.94144440
v -59.61151505 92.28379822 93.96147156
v -59.55493546 92.42245483 93.83442688
v -59.61151505 92.48982239 93.80116272
v -59.40695572 92.44038391 93.71833801
v -59.55352783 92.62709045 93.59824371
v -59.46455002 92.64405060 93.48841858
v -59.61151505 92.65332794 93.59767151
v -59.61151505 92.76548767 93.36195374
v -59.40257263 92.66362000 93.36176300
v -59.37070847 92.68479919 93.22463989
v -59.20661163 92.48886108 93.40448761
v -59.16432190 92.51697540 93.22250366
v -59.05037689 92.27474976 93.42700195
v -58.99977112 92.30838013 93.20925140
v -58.94166565 92.03195953 93.42817688
v -58.88528061 92.06944275 93.18553925
v -58.88592148 91.77264404 93.40795135
v -58.82656860 91.81208801 93.15254974
v -58.88592148 91.50974274 93.36734772
v -58.82656860 91.54919434 93.11194611
v -58.94166565 91.25640869 93.30838013
v -58.88528061 91.29388428 93.06574249
v -59.05037689 91.02529144 93.23400879
v -58.99977112 91.05892944 93.01625824
v -59.20661163 90.82794952 93.14794159
v -59.16432190 90.85605621 92.96595764
v -59.40257263 90.67423248 93.05448151
v -59.37070847 90.69541168 92.91735840
v -59.61151505 90.57704926 93.02392578
v -59.61151505 90.60182953 92.76406097
v -59.40608597 91.16786194 93.88162231
v -59.61151505 91.04904175 93.91589355
v -59.46715927 90.94583130 93.74845123
v -59.61151505 90.85540009 93.74083710
v -59.55493546 90.76153564 93.57788086
v -59.61151505 90.70734406 93.52584076
v -59.40695572 90.77946472 93.46179199
v -59.55352783 90.63770294 93.29096222
v -59.28886795 90.80197906 93.31603241
v -59.46455002 90.65466309 93.18113708
v -59.61151505 90.61286163 93.28250122
v -59.61151505 90.68586731 92.51692200
v -59.40213013 90.73833466 92.63948059
v -59.37055588 90.71714020 92.77667236
v -59.16412354 90.88489532 92.77923584
v -58.99953461 91.09343719 92.79283905
v -58.88501358 91.33234406 92.81678772
v -58.82628632 91.58966827 92.84989166
v -58.82628632 91.85256958 92.89050293
v -58.88501358 92.10789490 92.93658447
v -58.99953461 92.34288788 92.98583221
v -59.16412354 92.54581451 93.03578186
v -59.37055588 92.70652771 93.08395386
v -59.61151505 92.82026672 93.10672760
v -59.61151505 90.82463837 92.29582214
v -59.55258179 90.77490997 92.40268707
v -59.46384048 90.75791168 92.51270294
v -59.28792572 90.93901062 92.42890167
v -59.20602798 90.91301727 92.59716797
v -59.14766693 91.15818787 92.37364197
v -59.04967499 91.12709045 92.57498169
v -59.05007935 91.40448761 92.34968567
v -58.94088364 91.36983490 92.57403564
v -59.00003433 91.66561890 92.35822296
v -58.88509750 91.62914276 92.59436798
v -59.00003433 91.92851257 92.39882660
v -58.88509750 91.89203644 92.63497925
v -59.05007935 92.18004608 92.46947479
v -58.94088364 92.14539337 92.69382477
v -59.14766693 92.40763855 92.56663513
v -59.04967499 92.37654114 92.76797485
v -59.28792572 92.59992981 92.68544769
v -59.20602798 92.57393646 92.85371399
v -59.46384048 92.74729919 92.81998444
v -59.40213013 92.72771454 92.94676971
v -59.61151505 91.01065826 92.11268616
v -59.55343246 90.97953796 92.16650391
v -59.40570068 90.96156311 92.28289795
v -59.46535873 91.20668030 92.05966949
v -59.61151505 91.23390198 91.97737885
v -59.40408325 91.45852661 91.99982452
v -59.61151505 91.48232269 91.89720917
v -59.37265778 91.72249603 91.98995972
v -59.61151505 91.74253845 91.87648773
v -59.61151505 92.00052643 91.91633606
v -59.37265778 91.98539734 92.03057098
v -59.61151505 92.24236298 92.01460266
v -59.40408325 92.23408508 92.11962128
v -59.61151505 92.45501709 92.16600037
v -59.46535873 92.45613861 92.25266266
v -59.61151505 92.62702942 92.36235046
v -59.55343246 92.64045715 92.42304993
v -59.61151505 92.74912262 92.59307861
v -59.40570068 92.62248230 92.53945160
v -59.55258179 92.76428986 92.70997620
v -59.61151505 92.81471252 92.84574890
v -59.29009628 90.96728516 93.60954285
v -59.14879990 90.99422455 93.43514252
v -59.20878601 91.19177246 93.72683716
v -59.05134201 91.22179413 93.53250122
v -59.16708755 91.44171143 93.80781555
v -59.00136185 91.47330475 93.60325623
v -59.16708755 91.70460510 93.84841919
v -59.00136185 91.73620605 93.64385986
v -59.20878601 91.96732330 93.84663391
v -59.05134201 91.99734497 93.65229797
v -59.29009628 92.21674347 93.80253601
v -59.14879990 92.24368286 93.62813568
v -59.28886795 92.46289825 93.57257843
v -59.28859329 92.43462372 92.39193726
v -59.20711136 92.21011353 92.27481079
v -59.16532516 91.96015930 92.19392395
v -59.16532516 91.69726562 92.15332031
v -59.20711136 91.43456268 92.15502167
v -59.28859329 91.18517303 92.19894409
v -59.99551392 89.74774170 93.05132294
v -59.99551392 89.76997375 92.70172119
v -59.99551392 89.85426331 92.36170197
v -59.99551392 89.99791718 92.04219818
v -59.99551392 90.19630432 91.75347900
v -59.99551392 90.44306183 91.50482941
v -59.99551392 90.73025513 91.30422974
v -59.99551392 91.04864502 91.15813446
v -59.99551392 91.38800812 91.07124329
v -59.99551392 91.73743439 91.04634094
v -59.99551392 92.08568573 91.08422852
v -59.99551392 92.42158508 91.18369293
v -59.99551392 92.73431396 91.34152985
v -59.99551392 93.01384735 91.55268097
v -59.99551392 93.25117493 91.81034088
v -59.99551392 93.43869019 92.10623932
v -59.99551392 93.57035065 92.43087006
v -59.99551392 93.64192963 92.77378845
v -59.99551392 93.65113068 93.12397766
v -59.99551392 93.59765625 93.47018433
v -59.99551392 93.48322296 93.80127716
v -59.99551392 93.31150818 94.10661316
v -59.99551392 93.08803558 94.37638855
v -59.99551392 92.81998444 94.60192108
v -59.99551392 92.51596832 94.77596283
v -59.99551392 92.18576050 94.89292908
v -59.99551392 91.83998108 94.94905853
v -59.99551392 91.48973083 94.94253540
v -59.99551392 91.14627075 94.87358093
v -59.99551392 90.82064819 94.74440765
v -59.99551392 90.52331543 94.55917358
v -59.99551392 90.26384735 94.32382202
v -59.99551392 90.05056000 94.04592133
v -59.99551392 89.89033508 93.73439789
v -59.99551392 89.78829956 93.39927673
v -59.61151505 90.13298798 93.07757568
v -59.61151505 90.14946747 92.76033783
v -59.61151505 90.18070221 93.39163971
v -59.61151505 90.29066467 93.68967438
v -59.61151505 90.45836639 93.95946503
v -59.61151505 90.67694092 94.18998718
v -59.61151505 90.93744659 94.37178040
v -59.61151505 91.22921753 94.49741364
v -59.61151505 91.54029846 94.56174469
v -59.61151505 91.85797119 94.56214142
v -59.61151505 92.16921234 94.49858093
v -59.61151505 92.46129608 94.37366486
v -59.61151505 92.72225189 94.19251251
v -59.61151505 92.94139862 93.96253967
v -59.61151505 93.10976410 93.69316101
v -59.61151505 93.22045898 93.39540863
v -59.61151505 93.26895142 93.08145905
v -59.61151505 93.25325775 92.76418304
v -59.61151505 93.17401123 92.45655060
v -59.61151505 93.03446960 92.17117310
v -59.61151505 92.84033203 91.91973114
v -59.61151505 92.59955597 91.71250916
v -59.61151505 92.32199097 91.55800629
v -59.61151505 92.01901245 91.46253204
v -59.61151505 91.70301056 91.43000031
v -59.61151505 91.38693237 91.46174622
v -59.61151505 91.08371735 91.55647278
v -59.61151505 90.80577087 91.71028900
v -59.61151505 90.56448364 91.91691589
v -59.61151505 90.36972809 92.16787720
v -59.61151505 90.22947693 92.45291138
v -68.95118713 89.85426331 92.36170197
v -68.95118713 89.76997375 92.70172119
v -68.95118713 89.74774170 93.05132294
v -68.95118713 89.78829956 93.39927673
v -68.95118713 89.89033508 93.73439789
v -68.95118713 90.05056000 94.04592133
v -68.95118713 90.26384735 94.32382202
v -68.95118713 90.52331543 94.55917358
v -68.95118713 90.82064819 94.74440765
v -68.95118713 91.14627075 94.87358093
v -68.95118713 91.48973083 94.94253540
v -68.95118713 91.83998108 94.94905853
v -68.95118713 92.18576050 94.89292908
v -68.95118713 92.51596832 94.77596283
v -68.95118713 92.81998444 94.60192108
v -68.95118713 93.08803558 94.37638855
v -68.95118713 93.31150818 94.10661316
v -68.95118713 93.48322296 93.80127716
v -68.95118713 93.59765625 93.47018433
v -68.95118713 93.65113068 93.12397766
v -68.95118713 93.64192963 92.77378845
v -68.95118713 93.57035065 92.43087006
v -68.95118713 93.43869019 92.10623932
v -68.95118713 93.25117493 91.81034088
v -68.95118713 93.01384735 91.55268097
v -68.95118713 92.73431396 91.34152985
v -68.95118713 92.42158508 91.18369293
v -68.95118713 92.08568573 91.08422852
v -68.95118713 91.73743439 91.04634094
v -68.95118713 91.38800812 91.07124329
v -68.95118713 91.04864502 91.15813446
v -68.95118713 90.73025513 91.30422974
v -68.95118713 90.44306183 91.50482941
v -68.95118713 90.19630432 91.75347900
v -68.95118713 89.99791718 92.04219818
v -69.61151886 93.17525482 93.54804993
v -69.61151886 93.25540161 93.24008179
v -69.61151886 93.27191162 92.92228699
v -69.61151886 93.22411346 92.60766602
v -69.61151886 93.11396027 92.30911255
v -69.61151886 92.94596100 92.03884125
v -69.61151886 93.03475189 93.83358765
v -69.61151886 92.83965302 94.08499146
v -69.61151886 92.59793854 94.29197693
v -69.61151886 92.31951141 94.44606781
v -69.61151886 92.01575470 94.54095459
v -69.61151886 91.69911957 94.57276154
v -69.61151886 91.38256836 94.54017639
v -69.61151886 91.07905579 94.44453430
v -69.61151886 90.80100250 94.28974915
v -69.61151886 90.55980682 94.08216858
v -69.61151886 90.36532593 93.83028412
v -69.61151886 90.22553253 93.54440308
v -69.61151886 90.14614868 93.23623657
v -69.61151886 90.13042450 92.91839600
v -69.61151886 90.17900848 92.60389709
v -69.61151886 90.28989410 92.30561829
v -69.61151886 90.45856476 92.03576660
v -69.61151886 90.67809296 91.80538940
v -69.61151886 90.93950653 91.62391663
v -69.61151886 91.23210144 91.49878693
v -69.61151886 91.54389191 91.43511200
v -69.61151886 91.86212158 91.43550873
v -69.61151886 92.17375183 91.49995422
v -69.61151886 92.46603394 91.62580872
v -69.61151886 92.72699738 91.80792236
v -69.61151886 93.17525482 93.54804993
v -69.61151886 93.25540161 93.24008179
v -69.61151886 93.27191162 92.92228699
v -69.61151886 93.22411346 92.60766602
v -69.61151886 93.11396027 92.30911255
v -69.61151886 92.94596100 92.03884125
v -69.61151886 93.03475189 93.83358765
v -69.61151886 92.83965302 94.08499146
v -69.61151886 92.59793854 94.29197693
v -69.61151886 92.31951141 94.44606781
v -69.61151886 92.01575470 94.54095459
v -69.61151886 91.69911957 94.57276154
v -69.61151886 91.38256836 94.54017639
v -69.61151886 91.07905579 94.44453430
v -69.61151886 90.80100250 94.28974915
v -69.61151886 90.55980682 94.08216858
v -69.61151886 90.36532593 93.83028412
v -69.61151886 90.22553253 93.54440308
v -69.61151886 90.14614868 93.23623657
v -69.61151886 90.13042450 92.91839600
v -69.61151886 90.17900848 92.60389709
v -69.61151886 90.28989410 92.30561829
v -69.61151886 90.45856476 92.03576660
v -69.61151886 90.67809296 91.80538940
v -69.61151886 90.93950653 91.62391663
v -69.61151886 91.23210144 91.49878693
v -69.61151886 91.54389191 91.43511200
v -69.61151886 91.86212158 91.43550873
v -69.61151886 92.17375183 91.49995422
v -69.61151886 92.46603394 91.62580872
v -69.61151886 92.72699738 91.80792236
v -69.61151886 92.77748108 92.58206940
v -69.61151886 92.60121918 93.72323608
v -69.61151886 91.52480316 94.14116669
v -69.61151886 90.62465668 93.41793060
v -69.61151886 90.80092621 92.27676392
v -69.61151886 91.87733459 91.85883331
v -59.61151505 91.27783966 94.04157257
v -59.61151505 91.52944946 94.11109924
v -59.61151505 91.79031372 94.12072754
v -59.61151505 92.04636383 94.06993866
v -59.61151505 92.28379822 93.96147156
v -59.61151505 92.48982239 93.80116272
v -59.61151505 92.65332794 93.59767151
v -59.61151505 92.76548767 93.36195374
v -59.61151505 90.57704926 93.02392578
v -59.61151505 90.60182953 92.76406097
v -59.61151505 91.04904175 93.91589355
v -59.61151505 90.85540009 93.74083710
v -59.61151505 90.70734406 93.52584076
v -59.61151505 90.61286163 93.28250122
v -59.61151505 90.68586731 92.51692200
v -59.61151505 92.82026672 93.10672760
v -59.61151505 90.82463837 92.29582214
v -59.61151505 91.01065826 92.11268616
v -59.61151505 91.23390198 91.97737885
v -59.61151505 91.48232269 91.89720917
v -59.61151505 91.74253845 91.87648773
v -59.61151505 92.00052643 91.91633606
v -59.61151505 92.24236298 92.01460266
v -59.61151505 92.45501709 92.16600037
v -59.61151505 92.62702942 92.36235046
v -59.61151505 92.74912262 92.59307861
v -59.61151505 92.81471252 92.84574890
v -59.61151505 90.13298798 93.07757568
v -59.61151505 90.14946747 92.76033783
v -59.61151505 90.18070221 93.39163971
v -59.61151505 90.29066467 93.68967438
v -59.61151505 90.45836639 93.95946503
v -59.61151505 90.67694092 94.18998718
v -59.61151505 90.93744659 94.37178040
v -59.61151505 91.22921753 94.49741364
v -59.61151505 91.54029846 94.56174469
v -59.61151505 91.85797119 94.56214142
v -59.61151505 92.16921234 94.49858093
v -59.61151505 92.46129608 94.37366486
v -59.61151505 92.72225189 94.19251251
v -59.61151505 92.94139862 93.96253967
v -59.61151505 93.10976410 93.69316101
v -59.61151505 93.22045898 93.39540863
v -59.61151505 93.26895142 93.08145905
v -59.61151505 93.25325775 92.76418304
v -59.61151505 93.17401123 92.45655060
v -59.61151505 93.03446960 92.17117310
v -59.61151505 92.84033203 91.91973114
v -59.61151505 92.59955597 91.71250916
v -59.61151505 92.32199097 91.55800629
v -59.61151505 92.01901245 91.46253204
v -59.61151505 91.70301056 91.43000031
v -59.61151505 91.38693237 91.46174622
v -59.61151505 91.08371735 91.55647278
v -59.61151505 90.80577087 91.71028900
v -59.61151505 90.56448364 91.91691589
v -59.61151505 90.36972809 92.16787720
v -59.61151505 90.22947693 92.45291138
v -68.11151886 91.07472992 93.77954865
v -69.61151886 91.52480316 94.14116669
v -69.61151886 90.62465668 93.41793060
v -68.11151886 90.62465668 93.41793060
v -68.11151886 91.52480316 94.14116669
v -68.11151886 90.71279144 92.84735107
v -69.61151886 90.62465668 93.41793060
v -69.61151886 90.80092621 92.27676392
v -68.11151886 90.62465668 93.41793060
v -68.11151886 90.80092621 92.27676392
v -68.11151886 91.33912659 92.06780243
v -69.61151886 90.80092621 92.27676392
v -69.61151886 91.87733459 91.85883331
v -68.11151886 90.80092621 92.27676392
v -68.11151886 91.87733459 91.85883331
v -68.11151886 92.32740784 92.22045135
v -69.61151886 92.77748108 92.58206940
v -69.61151886 91.87733459 91.85883331
v -68.11151886 91.87733459 91.85883331
v -68.11151886 92.77748108 92.58206940
v -68.11151886 92.68934631 93.15264893
v -69.61151886 92.77748108 92.58206940
v -69.61151886 92.60121918 93.72323608
v -68.11151886 92.77748108 92.58206940
v -68.11151886 92.60121918 93.72323608
v -68.11151886 92.06301117 93.93219757
v -69.61151886 92.60121918 93.72323608
v -69.61151886 91.52480316 94.14116669
v -68.11151886 91.52480316 94.14116669
v -68.11151886 92.60121918 93.72323608
v -68.11151886 90.71279144 92.84735107
v -68.11151886 90.70264435 93.05615997
v -68.11151886 90.73614502 93.26251221
v -68.11151886 90.81180573 93.45739746
v -68.11151886 91.07472992 93.77954865
v -68.11151886 90.92633820 93.63229370
v -68.11151886 90.62465668 93.41793060
v -68.11151886 91.07472992 93.77954865
v -68.11151886 91.44595337 93.96691132
v -68.11151886 91.25049591 93.89273834
v -68.11151886 91.65255737 93.99882507
v -68.11151886 91.86128235 93.98708344
v -68.11151886 92.06301117 93.93219757
v -68.11151886 91.52480316 94.14116669
v -68.11151886 92.06301117 93.93219757
v -68.11151886 92.24891663 93.83657837
v -68.11151886 92.41088104 93.70439148
v -68.11151886 92.54181671 93.54141998
v -68.11151886 92.63601685 93.35478973
v -68.11151886 92.68934631 93.15264893
v -68.11151886 92.60121918 93.72323608
v -68.11151886 92.32740784 92.22045135
v -68.11151886 92.68934631 93.15264893
v -68.11151886 92.69949341 92.94384003
v -68.11151886 92.66600037 92.73748779
v -68.11151886 92.59033203 92.54260254
v -68.11151886 92.47579956 92.36770630
v -68.11151886 92.77748108 92.58206940
v -68.11151886 92.15164185 92.10726166
v -68.11151886 92.32740784 92.22045135
v -68.11151886 91.74958038 92.00117493
v -68.11151886 91.95619202 92.03308868
v -68.11151886 91.33912659 92.06780243
v -68.11151886 91.54085541 92.01291656
v -68.11151886 91.87733459 91.85883331
v -68.11151886 91.33912659 92.06780243
v -68.11151886 91.15322113 92.16342163
v -68.11151886 90.99126434 92.29560852
v -68.11151886 90.86032104 92.45858002
v -68.11151886 90.76612091 92.64521027
v -68.11151886 90.71279144 92.84735107
v -68.11151886 90.80092621 92.27676392
v -64.50151825 100.43656921 61.00000000
v -64.78289032 100.46827698 61.00000000
v -65.05016327 100.56179810 61.00000000
v -65.28991699 100.71244049 61.00000000
v -65.49014282 100.91266632 61.00000000
v -65.64079285 101.15242767 61.00000000
v -65.73431396 101.41969299 61.00000000
v -65.76601410 101.70107269 61.00000000
v -65.73431396 101.98244476 61.00000000
v -65.64079285 102.24971771 61.00000000
v -65.49014282 102.48947144 61.00000000
v -65.28991699 102.68969727 61.00000000
v -65.05016327 102.84034729 61.00000000
v -64.78289032 102.93386841 61.00000000
v -64.50151825 102.96556854 61.00000000
v -64.22013855 102.93386841 61.00000000
v -63.95286942 102.84034729 61.00000000
v -63.71311188 102.68969727 61.00000000
v -63.51288986 102.48947144 61.00000000
v -63.36223984 102.24971771 61.00000000
v -63.26871872 101.98244476 61.00000000
v -63.23701477 101.70107269 61.00000000
v -63.26871872 101.41969299 61.00000000
v -63.36223984 101.15242767 61.00000000
v -63.51288986 100.91266632 61.00000000
v -63.71311188 100.71244049 61.00000000
v -63.95286942 100.56179810 61.00000000
v -64.22013855 100.46827698 61.00000000
v -64.22013855 102.93386841 64.50000000
v -64.50151825 102.96556854 64.50000000
v -64.78289032 102.93386841 64.50000000
v -65.05016327 102.84034729 64.50000000
v -65.28991699 102.68969727 64.50000000
v -65.49014282 102.48947144 64.50000000
v -65.64079285 102.24971771 64.50000000
v -65.73431396 101.98244476 64.50000000
v -65.76601410 101.70107269 64.50000000
v -65.73431396 101.41969299 64.50000000
v -65.64079285 101.15242767 64.50000000
v -65.49014282 100.91266632 64.50000000
v -65.28991699 100.71244049 64.50000000
v -65.05016327 100.56179810 64.50000000
v -64.78289032 100.46827698 64.50000000
v -64.50151825 100.43656921 64.50000000
v -64.22013855 100.46827698 64.50000000
v -63.95286942 100.56179810 64.50000000
v -63.71311188 100.71244049 64.50000000
v -63.51288986 100.91266632 64.50000000
v -63.36223984 101.15242767 64.50000000
v -63.26871872 101.41969299 64.50000000
v -63.23701477 101.70107269 64.50000000
v -63.26871872 101.98244476 64.50000000
v -63.36223984 102.24971771 64.50000000
v -63.51288986 102.48947144 64.50000000
v -63.71311188 102.68969727 64.50000000
v -63.95286942 102.84034729 64.50000000
v -64.22013855 100.46827698 68.00000000
v -64.50151825 100.43656921 68.00000000
v -64.78289032 100.46827698 68.00000000
v -65.05016327 100.56179810 68.00000000
v -65.28991699 100.71244049 68.00000000
v -65.49014282 100.91266632 68.00000000
v -65.64079285 101.15242767 68.00000000
v -65.73431396 101.41969299 68.00000000
v -65.76601410 101.70107269 68.00000000
v -65.73431396 101.98244476 68.00000000
v -65.64079285 102.24971771 68.00000000
v -65.49014282 102.48947144 68.00000000
v -65.28991699 102.68969727 68.00000000
v -65.05016327 102.84034729 68.00000000
v -64.78289032 102.93386841 68.00000000
v -64.50151825 102.96556854 68.00000000
v -64.22013855 102.93386841 68.00000000
v -63.95286942 102.84034729 68.00000000
v -63.71311188 102.68969727 68.00000000
v -63.51288986 102.48947144 68.00000000
v -63.36223984 102.24971771 68.00000000
v -63.26871872 101.98244476 68.00000000
v -63.23701477 101.70107269 68.00000000
v -63.26871872 101.41969299 68.00000000
v -63.36223984 101.15242767 68.00000000
v -63.51288986 100.91266632 68.00000000
v -63.71311188 100.71244049 68.00000000
v -63.95286942 100.56179810 68.00000000
v -64.22013855 100.46827698 68.00000000
v -64.50151825 100.43656921 68.00000000
v -64.78289032 100.46827698 68.00000000
v -65.05016327 100.56179810 68.00000000
v -65.28991699 100.71244049 68.00000000
v -65.49014282 100.91266632 68.00000000
v -65.64079285 101.15242767 68.00000000
v -65.73431396 101.41969299 68.00000000
v -65.76601410 101.70107269 68.00000000
v -65.73431396 101.98244476 68.00000000
v -65.64079285 102.24971771 68.00000000
v -65.49014282 102.48947144 68.00000000
v -65.28991699 102.68969727 68.00000000
v -65.05016327 102.84034729 68.00000000
v -64.78289032 102.93386841 68.00000000
v -64.50151825 102.96556854 68.00000000
v -64.22013855 102.93386841 68.00000000
v -63.95286942 102.84034729 68.00000000
v -63.71311188 102.68969727 68.00000000
v -63.51288986 102.48947144 68.00000000
v -63.36223984 102.24971771 68.00000000
v -63.26871872 101.98244476 68.00000000
v -63.23701477 101.70107269 68.00000000
v -63.26871872 101.41969299 68.00000000
v -63.36223984 101.15242767 68.00000000
v -63.51288986 100.91266632 68.00000000
v -63.71311188 100.71244049 68.00000000
v -63.95286942 100.56179810 68.00000000
v -64.50151825 90.43656921 61.00000000
v -64.78289032 90.46827698 61.00000000
v -65.05016327 90.56179810 61.00000000
v -65.28991699 90.71244049 61.00000000
v -65.49014282 90.91266632 61.00000000
v -65.64079285 91.15242767 61.00000000
v -65.73431396 91.41969299 61.00000000
v -65.76601410 91.70107269 61.00000000
v -65.73431396 91.98244476 61.00000000
v -65.64079285 92.24971771 61.00000000
v -65.49014282 92.48947144 61.00000000
v -65.28991699 92.68969727 61.00000000
v -65.05016327 92.84034729 61.00000000
v -64.78289032 92.93386841 61.00000000
v -64.50151825 92.96556854 61.00000000
v -64.22013855 92.93386841 61.00000000
v -63.95286942 92.84034729 61.00000000
v -63.71311188 92.68969727 61.00000000
v -63.51288986 92.48947144 61.00000000
v -63.36223984 92.24971771 61.00000000
v -63.26871872 91.98244476 61.00000000
v -63.23701477 91.70107269 61.00000000
v -63.26871872 91.41969299 61.00000000
v -63.36223984 91.15242767 61.00000000
v -63.51288986 90.91266632 61.00000000
v -63.71311188 90.71244049 61.00000000
v -63.95286942 90.56179810 61.00000000
v -64.22013855 90.46827698 61.00000000
v -64.22013855 92.93386841 64.50000000
v -64.50151825 92.96556854 64.50000000
v -64.78289032 92.93386841 64.50000000
v -65.05016327 92.84034729 64.50000000
v -65.28991699 92.68969727 64.50000000
v -65.49014282 92.48947144 64.50000000
v -65.64079285 92.24971771 64.50000000
v -65.73431396 91.98244476 64.50000000
v -65.76601410 91.70107269 64.50000000
v -65.73431396 91.41969299 64.50000000
v -65.64079285 91.15242767 64.50000000
v -65.49014282 90.91266632 64.50000000
v -65.28991699 90.71244049 64.50000000
v -65.05016327 90.56179810 64.50000000
v -64.78289032 90.46827698 64.50000000
v -64.50151825 90.43656921 64.50000000
v -64.22013855 90.46827698 64.50000000
v -63.95286942 90.56179810 64.50000000
v -63.71311188 90.71244049 64.50000000
v -63.51288986 90.91266632 64.50000000
v -63.36223984 91.15242767 64.50000000
v -63.26871872 91.41969299 64.50000000
v -63.23701477 91.70107269 64.50000000
v -63.26871872 91.98244476 64.50000000
v -63.36223984 92.24971771 64.50000000
v -63.51288986 92.48947144 64.50000000
v -63.71311188 92.68969727 64.50000000
v -63.95286942 92.84034729 64.50000000
v -64.22013855 90.46827698 68.00000000
v -64.50151825 90.43656921 68.00000000
v -64.78289032 90.46827698 68.00000000
v -65.05016327 90.56179810 68.00000000
v -65.28991699 90.71244049 68.00000000
v -65.49014282 90.91266632 68.00000000
v -65.64079285 91.15242767 68.00000000
v -65.73431396 91.41969299 68.00000000
v -65.76601410 91.70107269 68.00000000
v -65.73431396 91.98244476 68.00000000
v -65.64079285 92.24971771 68.00000000
v -65.49014282 92.48947144 68.00000000
v -65.28991699 92.68969727 68.00000000
v -65.05016327 92.84034729 68.00000000
v -64.78289032 92.93386841 68.00000000
v -64.50151825 92.96556854 68.00000000
v -64.22013855 92.93386841 68.00000000
v -63.95286942 92.84034729 68.00000000
v -63.71311188 92.68969727 68.00000000
v -63.51288986 92.48947144 68.00000000
v -63.36223984 92.24971771 68.00000000
v -63.26871872 91.98244476 68.00000000
v -63.23701477 91.70107269 68.00000000
v -63.26871872 91.41969299 68.00000000
v -63.36223984 91.15242767 68.00000000
v -63.51288986 90.91266632 68.00000000
v -63.71311188 90.71244049 68.00000000
v -63.95286942 90.56179810 68.00000000
v -64.22013855 90.46827698 68.00000000
v -64.50151825 90.43656921 68.00000000
v -64.78289032 90.46827698 68.00000000
v -65.05016327 90.56179810 68.00000000
v -65.28991699 90.71244049 68.00000000
v -65.49014282 90.91266632 68.00000000
v -65.64079285 91.15242767 68.00000000
v -65.73431396 91.41969299 68.00000000
v -65.76601410 91.70107269 68.00000000
v -65.73431396 91.98244476 68.00000000
v -65.64079285 92.24971771 68.00000000
v -65.49014282 92.48947144 68.00000000
v -65.28991699 92.68969727 68.00000000
v -65.05016327 92.84034729 68.00000000
v -64.78289032 92.93386841 68.00000000
v -64.50151825 92.96556854 68.00000000
v -64.22013855 92.93386841 68.00000000
v -63.95286942 92.84034729 68.00000000
v -63.71311188 92.68969727 68.00000000
v -63.51288986 92.48947144 68.00000000
v -63.36223984 92.24971771 68.00000000
v -63.26871872 91.98244476 68.00000000
v -63.23701477 91.70107269 68.00000000
v -63.26871872 91.41969299 68.00000000
v -63.36223984 91.15242767 68.00000000
v -63.51288986 90.91266632 68.00000000
v -63.71311188 90.71244049 68.00000000
v -63.95286942 90.56179810 68.00000000
v -72.00151825 86.70107269 58.00000000
v -72.00151825 86.70107269 63.00000000
v -67.00151825 86.70107269 63.00000000
v -62.00151443 86.70107269 58.00000000
v -62.00151443 86.70107269 103.00000000
v -67.00151825 86.70107269 103.00000000
v -72.00151825 106.70107269 58.00000000
v -72.00151825 106.70107269 63.00000000
v -67.00151825 106.70107269 63.00000000
v -62.00151443 106.70107269 58.00000000
v -62.00151443 106.70107269 103.00000000
v -67.00151825 106.70107269 103.00000000
v -62.00151443 86.70107269 103.00000000
v -62.00151443 106.70107269 103.00000000
v -67.00151825 86.70107269 103.00000000
v -67.00151825 106.70107269 103.00000000
v -62.00151443 86.70107269 58.00000000
v -62.00151443 106.70107269 58.00000000
v -62.00151443 89.74774170 93.05132294
v -62.00151443 89.76997375 92.70172119
v -62.00151443 89.85426331 92.36170197
v -62.00151443 89.99791718 92.04219818
v -62.00151443 90.19630432 91.75347900
v -62.00151443 90.44306183 91.50482941
v -62.00151443 90.73025513 91.30422974
v -62.00151443 91.04864502 91.15813446
v -62.00151443 91.38800812 91.07124329
v -62.00151443 91.73743439 91.04634094
v -62.00151443 92.08568573 91.08422852
v -62.00151443 92.42158508 91.18369293
v -62.00151443 92.73431396 91.34152985
v -62.00151443 93.01384735 91.55268097
v -62.00151443 93.25117493 91.81034088
v -62.00151443 93.43869019 92.10623932
v -62.00151443 93.57035065 92.43087006
v -62.00151443 93.64192963 92.77378845
v -62.00151443 93.65113068 93.12397766
v -62.00151443 93.59765625 93.47018433
v -62.00151443 93.48322296 93.80127716
v -62.00151443 93.31150818 94.10661316
v -62.00151443 93.08803558 94.37638855
v -62.00151443 92.81998444 94.60192108
v -62.00151443 92.51596832 94.77596283
v -62.00151443 92.18576050 94.89292908
v -62.00151443 91.83998108 94.94905853
v -62.00151443 91.48973083 94.94253540
v -62.00151443 91.14627075 94.87358093
v -62.00151443 90.82064819 94.74440765
v -62.00151443 90.52331543 94.55917358
v -62.00151443 90.26384735 94.32382202
v -62.00151443 90.05056000 94.04592133
v -62.00151443 89.89033508 93.73439789
v -62.00151443 89.78829956 93.39927673
v -62.00151443 86.70107269 103.00000000
v -62.00151443 106.70107269 103.00000000
v -67.00151825 106.70107269 63.00000000
v -67.00151825 86.70107269 63.00000000
v -67.00151825 89.85426331 92.36170197
v -67.00151825 89.76997375 92.70172119
v -67.00151825 89.74774170 93.05132294
v -67.00151825 89.78829956 93.39927673
v -67.00151825 89.89033508 93.73439789
v -67.00151825 90.05056000 94.04592133
v -67.00151825 90.26384735 94.32382202
v -67.00151825 90.52331543 94.55917358
v -67.00151825 90.82064819 94.74440765
v -67.00151825 91.14627075 94.87358093
v -67.00151825 91.48973083 94.94253540
v -67.00151825 91.83998108 94.94905853
v -67.00151825 92.18576050 94.89292908
v -67.00151825 92.51596832 94.77596283
v -67.00151825 92.81998444 94.60192108
v -67.00151825 93.08803558 94.37638855
v -67.00151825 93.31150818 94.10661316
v -67.00151825 93.48322296 93.80127716
v -67.00151825 93.59765625 93.47018433
v -67.00151825 93.65113068 93.12397766
v -67.00151825 93.64192963 92.77378845
v -67.00151825 93.57035065 92.43087006
v -67.00151825 93.43869019 92.10623932
v -67.00151825 93.25117493 91.81034088
v -67.00151825 93.01384735 91.55268097
v -67.00151825 92.73431396 91.34152985
v -67.00151825 92.42158508 91.18369293
v -67.00151825 92.08568573 91.08422852
v -67.00151825 91.73743439 91.04634094
v -67.00151825 91.38800812 91.07124329
v -67.00151825 91.04864502 91.15813446
v -67.00151825 90.73025513 91.30422974
v -67.00151825 90.44306183 91.50482941
v -67.00151825 90.19630432 91.75347900
v -67.00151825 89.99791718 92.04219818
v -67.00151825 86.70107269 103.00000000
v -67.00151825 106.70107269 103.00000000
f 1 2 3
f 3 2 4
f 3 4 5
f 5 4 6
f 5 6 7
f 7 6 8
f 7 8 9
f 9 8 10
f 9 10 11
f 11 10 12
f 11 12 13
f 13 12 14
f 13 14 15
f 13 15 16
f 16 15 17
f 16 17 18
f 18 17 19
f 18 19 20
f 20 19 21
f 20 21 22
f 22 21 23
f 22 23 24
f 24 23 25
f 24 25 26
f 26 25 27
f 26 27 28
f 26 28 29
f 29 28 30
f 29 30 31
f 31 30 32
f 31 32 33
f 33 32 34
f 33 34 35
f 35 34 36
f 35 36 37
f 37 36 38
f 37 38 39
f 37 39 40
f 40 39 41
f 40 41 42
f 42 41 43
f 42 43 44
f 44 43 45
f 44 45 46
f 46 45 47
f 46 47 48
f 48 47 49
f 48 49 50
f 48 50 51
f 51 50 52
f 51 52 53
f 53 52 54
f 53 54 55
f 55 54 56
f 55 56 57
f 57 56 58
f 57 58 59
f 59 58 60
f 59 60 61
f 61 60 62
f 61 62 63
f 61 63 64
f 64 63 65
f 64 65 66
f 66 65 67
f 66 67 68
f 68 67 69
f 68 69 70
f 70 69 1
f 70 1 3
f 109 72 110
f 110 72 71
f 110 71 111
f 111 71 108
f 111 108 112
f 112 108 107
f 112 107 113
f 113 107 106
f 113 106 114
f 114 106 105
f 114 105 115
f 115 105 104
f 115 104 116
f 116 104 103
f 116 103 117
f 117 103 102
f 117 102 118
f 118 102 101
f 118 101 119
f 119 101 100
f 119 100 120
f 120 100 99
f 120 99 121
f 121 99 98
f 121 98 122
f 122 98 97
f 122 97 123
f 123 97 96
f 123 96 124
f 124 96 95
f 124 95 125
f 125 95 94
f 125 94 126
f 126 94 93
f 126 93 127
f 127 93 92
f 127 92 128
f 128 92 129
f 129 92 91
f 129 91 130
f 130 91 90
f 130 90 89
f 72 109 73
f 73 109 131
f 73 131 74
f 74 131 132
f 74 132 75
f 75 132 133
f 75 133 76
f 76 133 134
f 76 134 77
f 77 134 135
f 77 135 78
f 78 135 136
f 78 136 79
f 79 136 137
f 79 137 80
f 80 137 138
f 80 138 81
f 81 138 139
f 81 139 82
f 82 139 140
f 82 140 83
f 83 140 141
f 83 141 84
f 84 141 142
f 84 142 85
f 85 142 143
f 85 143 86
f 86 143 144
f 86 144 87
f 87 144 145
f 87 145 88
f 88 145 146
f 88 146 89
f 89 146 130
f 179 162 180
f 180 162 163
f 180 163 181
f 181 163 164
f 181 164 182
f 182 164 165
f 182 165 183
f 183 165 166
f 183 166 184
f 184 166 167
f 184 167 185
f 185 167 168
f 185 168 186
f 186 168 169
f 186 169 187
f 187 169 170
f 187 170 188
f 188 170 171
f 188 171 189
f 189 171 172
f 189 172 190
f 190 172 173
f 190 173 191
f 191 173 174
f 191 174 192
f 192 174 175
f 192 175 193
f 193 175 176
f 193 176 194
f 194 176 177
f 194 177 195
f 195 177 178
f 195 178 196
f 196 178 147
f 196 147 197
f 197 147 148
f 197 148 198
f 198 148 149
f 198 149 199
f 199 149 150
f 199 150 200
f 200 150 151
f 200 151 201
f 201 151 152
f 201 152 202
f 202 152 153
f 202 153 203
f 203 153 154
f 203 154 204
f 204 154 155
f 204 155 205
f 205 155 156
f 205 156 206
f 206 156 157
f 206 157 207
f 207 157 158
f 207 158 208
f 208 158 159
f 208 159 209
f 209 159 160
f 209 160 210
f 210 160 161
f 210 161 179
f 179 161 162
f 211 212 213
f 213 212 214
f 213 214 215
f 215 214 216
f 215 216 217
f 217 216 218
f 217 218 219
f 219 218 220
f 219 220 221
f 219 221 222
f 222 221 223
f 222 223 224
f 224 223 225
f 224 225 226
f 226 225 227
f 226 227 228
f 226 228 229
f 229 228 230
f 229 230 231
f 231 230 232
f 231 232 233
f 231 233 234
f 234 233 235
f 234 235 236
f 236 235 237
f 236 237 238
f 238 237 239
f 238 239 240
f 238 240 241
f 241 240 242
f 241 242 243
f 243 242 244
f 243 244 245
f 245 244 246
f 245 246 247
f 245 247 248
f 248 247 249
f 248 249 250
f 250 249 251
f 250 251 252
f 252 251 253
f 252 253 254
f 252 254 255
f 255 254 256
f 255 256 257
f 257 256 258
f 257 258 259
f 259 258 260
f 259 260 261
f 259 261 262
f 262 261 263
f 262 263 264
f 264 263 265
f 264 265 266
f 264 266 267
f 267 266 268
f 267 268 269
f 269 268 270
f 269 270 271
f 271 270 272
f 271 272 273
f 271 273 274
f 274 273 275
f 274 275 276
f 276 275 211
f 276 211 213
f 315 278 316
f 316 278 277
f 316 277 317
f 317 277 314
f 317 314 318
f 318 314 313
f 318 313 319
f 319 313 312
f 319 312 320
f 320 312 311
f 320 311 321
f 321 311 310
f 321 310 322
f 322 310 309
f 322 309 323
f 323 309 308
f 323 308 324
f 324 308 307
f 324 307 325
f 325 307 306
f 325 306 326
f 326 306 305
f 326 305 327
f 327 305 304
f 327 304 328
f 328 304 303
f 328 303 329
f 329 303 302
f 329 302 330
f 330 302 301
f 330 301 331
f 331 301 300
f 331 300 332
f 332 300 299
f 332 299 333
f 333 299 298
f 333 298 334
f 334 298 335
f 335 298 297
f 335 297 336
f 336 297 296
f 336 296 295
f 278 315 279
f 279 315 337
f 279 337 280
f 280 337 338
f 280 338 281
f 281 338 339
f 281 339 282
f 282 339 340
f 282 340 283
f 283 340 341
f 283 341 284
f 284 341 342
f 284 342 285
f 285 342 343
f 285 343 286
f 286 343 344
f 286 344 287
f 287 344 345
f 287 345 288
f 288 345 346
f 288 346 289
f 289 346 347
f 289 347 290
f 290 347 348
f 290 348 291
f 291 348 349
f 291 349 292
f 292 349 350
f 292 350 293
f 293 350 351
f 293 351 294
f 294 351 352
f 294 352 295
f 295 352 336
f 353 354 355
f 355 354 356
f 355 356 357
f 357 356 358
f 357 358 359
f 359 358 360
f 359 360 361
f 361 360 362
f 361 362 363
f 361 363 364
f 364 363 365
f 364 365 366
f 366 365 367
f 366 367 368
f 368 367 369
f 368 369 370
f 368 370 371
f 371 370 372
f 371 372 373
f 373 372 374
f 373 374 375
f 373 375 376
f 376 375 377
f 376 377 378
f 378 377 379
f 378 379 380
f 380 379 381
f 380 381 382
f 380 382 383
f 383 382 384
f 383 384 385
f 385 384 386
f 385 386 387
f 387 386 388
f 387 388 389
f 387 389 390
f 390 389 391
f 390 391 392
f 392 391 393
f 392 393 394
f 394 393 395
f 394 395 396
f 394 396 397
f 397 396 398
f 397 398 399
f 399 398 400
f 399 400 401
f 401 400 402
f 401 402 403
f 401 403 404
f 404 403 405
f 404 405 406
f 406 405 407
f 406 407 408
f 406 408 409
f 409 408 410
f 409 410 411
f 411 410 412
f 411 412 413
f 413 412 414
f 413 414 415
f 413 415 416
f 416 415 417
f 416 417 418
f 418 417 353
f 418 353 355
f 457 420 458
f 458 420 419
f 458 419 459
f 459 419 456
f 459 456 460
f 460 456 455
f 460 455 461
f 461 455 454
f 461 454 462
f 462 454 453
f 462 453 463
f 463 453 452
f 463 452 464
f 464 452 451
f 464 451 465
f 465 451 450
f 465 450 466
f 466 450 449
f 466 449 467
f 467 449 448
f 467 448 468
f 468 448 447
f 468 447 469
f 469 447 446
f 469 446 470
f 470 446 445
f 470 445 471
f 471 445 444
f 471 444 472
f 472 444 443
f 472 443 473
f 473 443 442
f 473 442 474
f 474 442 441
f 474 441 475
f 475 441 440
f 475 440 476
f 476 440 477
f 477 440 439
f 477 439 478
f 478 439 438
f 478 438 437
f 420 457 421
f 421 457 479
f 421 479 422
f 422 479 480
f 422 480 423
f 423 480 481
f 423 481 424
f 424 481 482
f 424 482 425
f 425 482 483
f 425 483 426
f 426 483 484
f 426 484 427
f 427 484 485
f 427 485 428
f 428 485 486
f 428 486 429
f 429 486 487
f 429 487 430
f 430 487 488
f 430 488 431
f 431 488 489
f 431 489 432
f 432 489 490
f 432 490 433
f 433 490 491
f 433 491 434
f 434 491 492
f 434 492 435
f 435 492 493
f 435 493 436
f 436 493 494
f 436 494 437
f 437 494 478
f 495 496 497
f 497 496 498
f 539 509 540
f 540 509 510
f 540 510 511
f 537 500 539
f 539 500 501
f 539 501 502
f 538 528 537
f 537 528 527
f 537 527 526
f 540 519 538
f 538 519 520
f 538 520 536
f 502 503 539
f 539 503 504
f 539 504 505
f 505 506 539
f 539 506 507
f 539 507 508
f 508 509 539
f 511 512 540
f 540 512 513
f 540 513 514
f 514 515 540
f 540 515 516
f 540 516 517
f 517 518 540
f 540 518 519
f 536 535 538
f 538 535 534
f 538 534 533
f 533 532 538
f 538 532 531
f 538 531 530
f 530 529 538
f 538 529 528
f 526 525 537
f 537 525 524
f 537 524 523
f 523 522 537
f 537 522 521
f 537 521 499
f 499 500 537
f 541 542 650
f 650 542 543
f 650 543 544
f 650 544 635
f 635 544 545
f 635 545 636
f 636 545 546
f 636 546 637
f 637 546 547
f 637 547 638
f 638 547 548
f 638 548 639
f 639 548 549
f 639 549 640
f 640 549 550
f 640 550 641
f 641 550 551
f 641 551 642
f 642 551 552
f 642 552 643
f 643 552 553
f 643 553 644
f 644 553 554
f 644 554 645
f 645 554 598
f 645 598 646
f 646 598 597
f 646 597 647
f 647 597 596
f 647 596 648
f 648 596 595
f 648 595 632
f 632 595 573
f 632 573 574
f 598 554 599
f 599 554 555
f 599 555 600
f 600 555 556
f 600 556 557
f 600 557 601
f 601 557 558
f 601 558 602
f 602 558 559
f 602 559 649
f 649 559 560
f 649 560 561
f 561 562 649
f 649 562 563
f 649 563 564
f 564 565 649
f 649 565 650
f 650 565 566
f 650 566 567
f 567 568 650
f 650 568 569
f 650 569 570
f 570 571 650
f 650 571 572
f 650 572 541
f 575 630 574
f 574 630 631
f 574 631 632
f 630 575 629
f 629 575 576
f 629 576 628
f 628 576 577
f 628 577 627
f 627 577 578
f 627 578 626
f 626 578 579
f 626 579 625
f 625 579 580
f 625 580 624
f 624 580 581
f 624 581 623
f 623 581 582
f 623 582 622
f 622 582 583
f 622 583 651
f 651 583 652
f 652 583 584
f 652 584 585
f 585 586 652
f 652 586 587
f 652 587 588
f 588 589 652
f 652 589 590
f 652 590 591
f 591 592 652
f 652 592 593
f 652 593 594
f 594 610 652
f 652 610 649
f 649 610 609
f 649 609 608
f 608 607 649
f 649 607 606
f 649 606 605
f 605 604 649
f 649 604 603
f 649 603 602
f 611 612 651
f 651 612 613
f 651 613 614
f 614 615 651
f 651 615 616
f 651 616 617
f 617 618 651
f 651 618 619
f 651 619 620
f 620 621 651
f 651 621 622
f 635 634 650
f 650 634 633
f 650 633 651
f 651 633 611
f 653 654 655
f 655 654 656
f 655 656 657
f 657 656 658
f 657 658 659
f 659 658 660
f 659 660 661
f 661 660 662
f 661 662 663
f 663 662 664
f 663 664 665
f 665 664 666
f 665 666 667
f 667 666 668
f 667 668 669
f 669 668 670
f 669 670 671
f 671 670 672
f 671 672 673
f 673 672 674
f 673 674 675
f 675 674 676
f 675 676 677
f 677 676 678
f 677 678 679
f 679 678 680
f 679 680 681
f 681 680 682
f 681 682 683
f 683 682 684
f 683 684 685
f 685 684 686
f 685 686 687
f 687 686 688
f 687 688 689
f 689 688 690
f 689 690 691
f 691 690 692
f 691 692 693
f 693 692 694
f 693 694 695
f 695 694 696
f 695 696 697
f 697 696 698
f 697 698 699
f 699 698 700
f 699 700 701
f 701 700 702
f 701 702 703
f 703 702 704
f 703 704 705
f 705 704 706
f 705 706 707
f 707 706 708
f 707 708 709
f 709 708 710
f 709 710 711
f 711 710 712
f 711 712 713
f 713 712 714
f 713 714 715
f 715 714 716
f 715 716 717
f 717 716 718
f 717 718 719
f 719 718 720
f 719 720 721
f 721 720 722
f 721 722 653
f 653 722 654
f 723 724 725
f 725 724 726
f 725 726 727
f 727 726 728
f 727 728 729
f 729 728 730
f 729 730 731
f 731 730 732
f 731 732 733
f 733 732 734
f 733 734 735
f 735 734 736
f 735 736 737
f 737 736 738
f 737 738 739
f 739 738 740
f 739 740 741
f 741 740 742
f 741 742 743
f 743 742 744
f 743 744 745
f 745 744 746
f 745 746 747
f 747 746 748
f 747 748 749
f 749 748 750
f 749 750 751
f 751 750 752
f 751 752 753
f 753 752 754
f 753 754 755
f 755 754 756
f 755 756 757
f 757 756 758
f 757 758 759
f 759 758 760
f 759 760 761
f 761 760 762
f 761 762 763
f 763 762 764
f 763 764 765
f 765 764 766
f 765 766 767
f 767 766 768
f 767 768 769
f 769 768 770
f 769 770 771
f 771 770 772
f 771 772 773
f 773 772 774
f 773 774 775
f 775 774 776
f 775 776 777
f 777 776 778
f 777 778 779
f 779 778 780
f 779 780 781
f 781 780 782
f 781 782 783
f 783 782 784
f 783 784 785
f 785 784 786
f 785 786 787
f 787 786 788
f 787 788 789
f 789 788 790
f 789 790 791
f 791 790 792
f 791 792 723
f 723 792 724
f 793 794 795
f 796 794 797
f 798 794 799
f 798 800 794
f 800 801 794
f 801 802 794
f 802 803 794
f 803 804 794
f 804 805 794
f 794 805 806
f 806 807 794
f 808 794 809
f 810 794 811
f 810 812 794
f 812 813 794
f 813 814 794
f 814 815 794
f 815 816 794
f 816 817 794
f 794 817 818
f 818 819 794
f 819 820 794
f 820 821 794
f 821 822 794
f 822 823 794
f 794 823 795
f 797 794 793
f 811 794 808
f 809 794 807
f 799 794 796
f 824 825 826
f 826 825 827
f 826 827 828
f 828 827 829
f 828 829 830
f 830 829 831
f 830 831 832
f 832 831 833
f 832 833 834
f 834 833 835
f 834 835 836
f 836 835 837
f 836 837 838
f 838 837 839
f 839 837 840
f 839 840 841
f 841 840 842
f 841 842 843
f 843 842 844
f 843 844 845
f 845 844 846
f 845 846 847
f 847 846 848
f 847 848 849
f 849 848 850
f 849 850 851
f 851 850 852
f 851 852 853
f 853 852 854
f 853 854 855
f 855 854 856
f 855 856 857
f 857 856 858
f 857 858 859
f 859 858 860
f 859 860 861
f 825 824 862
f 862 824 863
f 862 863 864
f 864 863 865
f 864 865 866
f 866 865 867
f 866 867 868
f 868 867 869
f 868 869 870
f 870 869 871
f 870 871 856
f 856 871 858
f 867 872 869
f 869 872 860
f 869 860 871
f 871 860 858
f 873 874 861
f 861 874 875
f 861 875 859
f 859 875 876
f 859 876 857
f 857 876 877
f 857 877 855
f 855 877 878
f 855 878 853
f 853 878 879
f 853 879 851
f 851 879 880
f 851 880 849
f 849 880 881
f 849 881 847
f 847 881 882
f 847 882 845
f 845 882 883
f 845 883 843
f 843 883 884
f 843 884 841
f 841 884 885
f 841 885 839
f 886 887 873
f 873 887 888
f 873 888 874
f 874 888 889
f 874 889 890
f 890 889 891
f 890 891 892
f 892 891 893
f 892 893 894
f 894 893 895
f 894 895 896
f 896 895 897
f 896 897 898
f 898 897 899
f 898 899 900
f 900 899 901
f 900 901 902
f 902 901 903
f 902 903 904
f 904 903 905
f 904 905 906
f 906 905 885
f 906 885 884
f 907 908 886
f 886 908 909
f 886 909 887
f 887 909 888
f 908 907 910
f 910 907 911
f 910 911 912
f 912 911 913
f 912 913 914
f 914 913 915
f 914 915 916
f 914 916 917
f 917 916 918
f 917 918 919
f 919 918 920
f 919 920 921
f 921 920 922
f 921 922 923
f 923 922 924
f 923 924 925
f 925 924 926
f 925 926 903
f 903 926 905
f 924 927 926
f 926 927 905
f 927 885 905
f 838 834 836
f 864 866 928
f 928 866 868
f 928 868 929
f 929 868 870
f 929 870 854
f 854 870 856
f 862 864 930
f 930 864 928
f 930 928 931
f 931 928 929
f 931 929 852
f 852 929 854
f 825 862 932
f 932 862 930
f 932 930 933
f 933 930 931
f 933 931 850
f 850 931 852
f 827 825 934
f 934 825 932
f 934 932 935
f 935 932 933
f 935 933 848
f 848 933 850
f 829 827 936
f 936 827 934
f 936 934 937
f 937 934 935
f 937 935 846
f 846 935 848
f 835 833 831
f 831 829 938
f 938 829 936
f 938 936 939
f 939 936 937
f 939 937 844
f 844 937 846
f 831 938 835
f 835 938 940
f 835 940 837
f 837 940 840
f 940 938 939
f 940 939 842
f 842 939 844
f 842 840 940
f 904 906 883
f 883 906 884
f 902 904 882
f 882 904 883
f 900 902 881
f 881 902 882
f 898 900 880
f 880 900 881
f 896 898 879
f 879 898 880
f 894 896 878
f 878 896 879
f 892 894 877
f 877 894 878
f 890 892 876
f 876 892 877
f 874 890 875
f 875 890 876
f 903 901 925
f 925 901 941
f 925 941 923
f 923 941 921
f 901 899 941
f 941 899 942
f 941 942 921
f 921 942 919
f 899 897 942
f 942 897 943
f 942 943 919
f 919 943 917
f 897 895 943
f 943 895 944
f 943 944 917
f 917 944 914
f 895 893 944
f 944 893 945
f 944 945 914
f 914 945 912
f 893 891 945
f 945 891 946
f 945 946 912
f 912 946 910
f 891 889 946
f 946 889 909
f 946 909 910
f 910 909 908
f 889 888 909
f 982 947 983
f 983 947 948
f 983 948 949
f 947 982 981
f 981 982 984
f 981 984 980
f 980 984 985
f 980 985 979
f 979 985 986
f 979 986 978
f 978 986 987
f 978 987 977
f 977 987 988
f 977 988 976
f 976 988 989
f 976 989 975
f 975 989 990
f 975 990 974
f 974 990 973
f 973 990 991
f 973 991 972
f 972 991 992
f 972 992 971
f 971 992 993
f 971 993 970
f 970 993 994
f 970 994 969
f 969 994 995
f 969 995 968
f 968 995 996
f 968 996 967
f 967 996 997
f 967 997 966
f 966 997 998
f 966 998 965
f 965 998 964
f 964 998 999
f 964 999 963
f 963 999 1000
f 963 1000 962
f 962 1000 1001
f 962 1001 961
f 961 1001 1002
f 961 1002 960
f 960 1002 1003
f 960 1003 959
f 959 1003 1004
f 959 1004 958
f 958 1004 1005
f 958 1005 957
f 957 1005 956
f 956 1005 1006
f 956 1006 955
f 955 1006 1007
f 955 1007 954
f 954 1007 1008
f 954 1008 953
f 953 1008 1009
f 953 1009 952
f 952 1009 1010
f 952 1010 951
f 951 1010 1011
f 951 1011 950
f 950 1011 1012
f 950 1012 949
f 949 1012 983
f 1048 1031 1049
f 1049 1031 1032
f 1049 1032 1050
f 1050 1032 1033
f 1050 1033 1051
f 1051 1033 1034
f 1051 1034 1052
f 1052 1034 1035
f 1052 1035 1053
f 1053 1035 1036
f 1053 1036 1037
f 1031 1048 1030
f 1030 1048 1054
f 1030 1054 1029
f 1029 1054 1055
f 1029 1055 1028
f 1028 1055 1056
f 1028 1056 1027
f 1027 1056 1026
f 1026 1056 1057
f 1026 1057 1025
f 1025 1057 1058
f 1025 1058 1024
f 1024 1058 1059
f 1024 1059 1023
f 1023 1059 1060
f 1023 1060 1022
f 1022 1060 1061
f 1022 1061 1021
f 1021 1061 1062
f 1021 1062 1020
f 1020 1062 1063
f 1020 1063 1019
f 1019 1063 1064
f 1019 1064 1018
f 1018 1064 1017
f 1017 1064 1065
f 1017 1065 1016
f 1016 1065 1066
f 1016 1066 1015
f 1015 1066 1067
f 1015 1067 1014
f 1014 1067 1068
f 1014 1068 1013
f 1013 1068 1069
f 1013 1069 1047
f 1047 1069 1070
f 1047 1070 1046
f 1046 1070 1071
f 1046 1071 1045
f 1045 1071 1044
f 1044 1071 1072
f 1044 1072 1043
f 1043 1072 1073
f 1043 1073 1042
f 1042 1073 1074
f 1042 1074 1041
f 1041 1074 1075
f 1041 1075 1040
f 1040 1075 1076
f 1040 1076 1039
f 1039 1076 1077
f 1039 1077 1038
f 1038 1077 1078
f 1038 1078 1037
f 1037 1078 1053
f 1081 1110 1080
f 1080 1110 1111
f 1080 1111 1079
f 1079 1111 1085
f 1085 1111 1086
f 1086 1111 1087
f 1087 1111 1088
f 1088 1111 1112
f 1088 1112 1089
f 1089 1112 1090
f 1090 1112 1091
f 1091 1112 1092
f 1092 1112 1093
f 1093 1112 1113
f 1093 1113 1094
f 1094 1113 1095
f 1095 1113 1096
f 1096 1113 1097
f 1097 1113 1098
f 1098 1113 1114
f 1098 1114 1099
f 1099 1114 1100
f 1100 1114 1101
f 1101 1114 1102
f 1102 1114 1103
f 1103 1114 1104
f 1104 1114 1115
f 1104 1115 1105
f 1105 1115 1106
f 1106 1115 1107
f 1107 1115 1108
f 1108 1115 1109
f 1109 1115 1110
f 1109 1110 1084
f 1084 1110 1083
f 1083 1110 1082
f 1082 1110 1081
f 1173 1125 1144
f 1144 1125 1124
f 1144 1124 1143
f 1143 1124 1129
f 1143 1129 1145
f 1145 1129 1146
f 1146 1129 1128
f 1146 1128 1147
f 1147 1128 1127
f 1147 1127 1148
f 1148 1127 1126
f 1148 1126 1149
f 1149 1126 1116
f 1149 1116 1150
f 1150 1116 1117
f 1150 1117 1151
f 1151 1117 1118
f 1151 1118 1152
f 1152 1118 1119
f 1152 1119 1153
f 1153 1119 1154
f 1154 1119 1120
f 1154 1120 1155
f 1155 1120 1121
f 1155 1121 1156
f 1156 1121 1122
f 1156 1122 1157
f 1157 1122 1123
f 1157 1123 1158
f 1158 1123 1131
f 1158 1131 1159
f 1159 1131 1142
f 1159 1142 1160
f 1160 1142 1161
f 1161 1142 1141
f 1161 1141 1162
f 1162 1141 1140
f 1162 1140 1163
f 1163 1140 1139
f 1163 1139 1164
f 1164 1139 1138
f 1164 1138 1165
f 1165 1138 1137
f 1165 1137 1166
f 1166 1137 1136
f 1166 1136 1167
f 1167 1136 1135
f 1167 1135 1168
f 1168 1135 1169
f 1169 1135 1134
f 1169 1134 1170
f 1170 1134 1133
f 1170 1133 1171
f 1171 1133 1132
f 1171 1132 1172
f 1172 1132 1130
f 1172 1130 1173
f 1173 1130 1125
f 1177 1176 1174
f 1174 1176 1175
f 1174 1175 1178
f 1183 1181 1179
f 1179 1181 1180
f 1179 1180 1182
f 1188 1186 1184
f 1184 1186 1185
f 1184 1185 1187
f 1193 1190 1189
f 1189 1190 1191
f 1189 1191 1192
f 1198 1196 1194
f 1194 1196 1195
f 1194 1195 1197
f 1202 1201 1199
f 1199 1201 1200
f 1199 1200 1203
f 1204 1210 1205
f 1205 1210 1206
f 1206 1210 1207
f 1207 1210 1209
f 1209 1210 1208
f 1211 1217 1213
f 1213 1217 1212
f 1212 1217 1214
f 1214 1217 1215
f 1215 1217 1216
f 1218 1224 1219
f 1219 1224 1220
f 1220 1224 1221
f 1221 1224 1222
f 1222 1224 1223
f 1226 1231 1227
f 1227 1231 1228
f 1228 1231 1229
f 1229 1231 1230
f 1230 1231 1225
f 1233 1238 1232
f 1232 1238 1235
f 1235 1238 1234
f 1234 1238 1237
f 1237 1238 1236
f 1239 1245 1240
f 1240 1245 1241
f 1241 1245 1242
f 1242 1245 1243
f 1243 1245 1244
f 1261 1274 1260
f 1260 1274 1275
f 1260 1275 1259
f 1259 1275 1276
f 1259 1276 1258
f 1258 1276 1277
f 1258 1277 1257
f 1257 1277 1278
f 1257 1278 1256
f 1256 1278 1279
f 1256 1279 1255
f 1255 1279 1280
f 1255 1280 1254
f 1254 1280 1281
f 1254 1281 1253
f 1253 1281 1282
f 1253 1282 1252
f 1252 1282 1283
f 1252 1283 1251
f 1251 1283 1284
f 1251 1284 1250
f 1250 1284 1285
f 1250 1285 1249
f 1249 1285 1286
f 1249 1286 1248
f 1248 1286 1287
f 1248 1287 1247
f 1247 1287 1288
f 1247 1288 1246
f 1246 1288 1289
f 1246 1289 1273
f 1273 1289 1290
f 1273 1290 1272
f 1272 1290 1291
f 1272 1291 1271
f 1271 1291 1292
f 1271 1292 1270
f 1270 1292 1293
f 1270 1293 1269
f 1269 1293 1294
f 1269 1294 1268
f 1268 1294 1295
f 1268 1295 1267
f 1267 1295 1296
f 1267 1296 1266
f 1266 1296 1297
f 1266 1297 1265
f 1265 1297 1298
f 1265 1298 1264
f 1264 1298 1299
f 1264 1299 1263
f 1263 1299 1300
f 1263 1300 1262
f 1262 1300 1301
f 1262 1301 1261
f 1261 1301 1274
f 1302 1290 1303
f 1303 1290 1289
f 1303 1289 1304
f 1304 1289 1288
f 1304 1288 1305
f 1305 1288 1287
f 1305 1287 1306
f 1306 1287 1286
f 1306 1286 1307
f 1307 1286 1285
f 1307 1285 1308
f 1308 1285 1284
f 1308 1284 1309
f 1309 1284 1283
f 1309 1283 1310
f 1310 1283 1282
f 1310 1282 1311
f 1311 1282 1281
f 1311 1281 1312
f 1312 1281 1280
f 1312 1280 1313
f 1313 1280 1279
f 1313 1279 1314
f 1314 1279 1278
f 1314 1278 1315
f 1315 1278 1277
f 1315 1277 1316
f 1316 1277 1276
f 1316 1276 1317
f 1317 1276 1275
f 1317 1275 1318
f 1318 1275 1274
f 1318 1274 1319
f 1319 1274 1301
f 1319 1301 1320
f 1320 1301 1300
f 1320 1300 1321
f 1321 1300 1299
f 1321 1299 1322
f 1322 1299 1298
f 1322 1298 1323
f 1323 1298 1297
f 1323 1297 1324
f 1324 1297 1296
f 1324 1296 1325
f 1325 1296 1295
f 1325 1295 1326
f 1326 1295 1294
f 1326 1294 1327
f 1327 1294 1293
f 1327 1293 1328
f 1328 1293 1292
f 1328 1292 1329
f 1329 1292 1291
f 1329 1291 1302
f 1302 1291 1290
f 1332 1344 1331
f 1331 1344 1345
f 1331 1345 1330
f 1330 1345 1346
f 1330 1346 1357
f 1357 1346 1347
f 1357 1347 1356
f 1356 1347 1348
f 1356 1348 1355
f 1355 1348 1349
f 1355 1349 1354
f 1354 1349 1350
f 1354 1350 1353
f 1353 1350 1351
f 1353 1351 1352
f 1344 1332 1343
f 1343 1332 1333
f 1343 1333 1342
f 1342 1333 1334
f 1342 1334 1341
f 1341 1334 1335
f 1341 1335 1340
f 1340 1335 1336
f 1340 1336 1339
f 1339 1336 1337
f 1339 1337 1338
f 1373 1386 1372
f 1372 1386 1387
f 1372 1387 1371
f 1371 1387 1388
f 1371 1388 1370
f 1370 1388 1389
f 1370 1389 1369
f 1369 1389 1390
f 1369 1390 1368
f 1368 1390 1391
f 1368 1391 1367
f 1367 1391 1392
f 1367 1392 1366
f 1366 1392 1393
f 1366 1393 1365
f 1365 1393 1394
f 1365 1394 1364
f 1364 1394 1395
f 1364 1395 1363
f 1363 1395 1396
f 1363 1396 1362
f 1362 1396 1397
f 1362 1397 1361
f 1361 1397 1398
f 1361 1398 1360
f 1360 1398 1399
f 1360 1399 1359
f 1359 1399 1400
f 1359 1400 1358
f 1358 1400 1401
f 1358 1401 1385
f 1385 1401 1402
f 1385 1402 1384
f 1384 1402 1403
f 1384 1403 1383
f 1383 1403 1404
f 1383 1404 1382
f 1382 1404 1405
f 1382 1405 1381
f 1381 1405 1406
f 1381 1406 1380
f 1380 1406 1407
f 1380 1407 1379
f 1379 1407 1408
f 1379 1408 1378
f 1378 1408 1409
f 1378 1409 1377
f 1377 1409 1410
f 1377 1410 1376
f 1376 1410 1411
f 1376 1411 1375
f 1375 1411 1412
f 1375 1412 1374
f 1374 1412 1413
f 1374 1413 1373
f 1373 1413 1386
f 1414 1402 1415
f 1415 1402 1401
f 1415 1401 1416
f 1416 1401 1400
f 1416 1400 1417
f 1417 1400 1399
f 1417 1399 1418
f 1418 1399 1398
f 1418 1398 1419
f 1419 1398 1397
f 1419 1397 1420
f 1420 1397 1396
f 1420 1396 1421
f 1421 1396 1395
f 1421 1395 1422
f 1422 1395 1394
f 1422 1394 1423
f 1423 1394 1393
f 1423 1393 1424
f 1424 1393 1392
f 1424 1392 1425
f 1425 1392 1391
f 1425 1391 1426
f 1426 1391 1390
f 1426 1390 1427
f 1427 1390 1389
f 1427 1389 1428
f 1428 1389 1388
f 1428 1388 1429
f 1429 1388 1387
f 1429 1387 1430
f 1430 1387 1386
f 1430 1386 1431
f 1431 1386 1413
f 1431 1413 1432
f 1432 1413 1412
f 1432 1412 1433
f 1433 1412 1411
f 1433 1411 1434
f 1434 1411 1410
f 1434 1410 1435
f 1435 1410 1409
f 1435 1409 1436
f 1436 1409 1408
f 1436 1408 1437
f 1437 1408 1407
f 1437 1407 1438
f 1438 1407 1406
f 1438 1406 1439
f 1439 1406 1405
f 1439 1405 1440
f 1440 1405 1404
f 1440 1404 1441
f 1441 1404 1403
f 1441 1403 1414
f 1414 1403 1402
f 1444 1456 1443
f 1443 1456 1457
f 1443 1457 1442
f 1442 1457 1458
f 1442 1458 1469
f 1469 1458 1459
f 1469 1459 1468
f 1468 1459 1460
f 1468 1460 1467
f 1467 1460 1461
f 1467 1461 1466
f 1466 1461 1462
f 1466 1462 1465
f 1465 1462 1463
f 1465 1463 1464
f 1456 1444 1455
f 1455 1444 1445
f 1455 1445 1454
f 1454 1445 1446
f 1454 1446 1453
f 1453 1446 1447
f 1453 1447 1452
f 1452 1447 1448
f 1452 1448 1451
f 1451 1448 1449
f 1451 1449 1450
f 1470 1473 1472
f 1472 1473 1474
f 1472 1474 1475
f 1472 1471 1470
f 1481 1480 1478
f 1478 1480 1479
f 1478 1479 1476
f 1476 1477 1478
f 1485 1484 1483
f 1483 1484 1482
f 1508 1524 1509
f 1507 1524 1508
f 1489 1523 1486
f 1489 1486 1490
f 1495 1486 1496
f 1496 1486 1497
f 1506 1524 1507
f 1494 1486 1495
f 1490 1486 1491
f 1488 1523 1489
f 1521 1523 1522
f 1522 1523 1488
f 1513 1523 1514
f 1502 1487 1503
f 1503 1487 1504
f 1504 1487 1524
f 1504 1524 1505
f 1505 1524 1506
f 1510 1524 1511
f 1509 1524 1510
f 1514 1523 1515
f 1512 1523 1513
f 1497 1486 1498
f 1498 1486 1499
f 1500 1486 1501
f 1491 1486 1492
f 1492 1486 1493
f 1493 1486 1494
f 1520 1523 1521
f 1516 1523 1517
f 1517 1523 1518
f 1518 1523 1519
f 1519 1523 1520
f 1499 1486 1500
f 1501 1486 1487
f 1501 1487 1502
f 1515 1523 1516
f 1511 1523 1512
f 1511 1524 1523
f 1555 1526 1556
f 1549 1525 1550
f 1552 1526 1553
f 1553 1526 1554
f 1548 1525 1549
f 1554 1526 1555
f 1560 1526 1561
f 1547 1563 1548
f 1546 1563 1547
f 1561 1526 1527
f 1558 1526 1559
f 1543 1563 1544
f 1557 1526 1558
f 1559 1526 1560
f 1541 1562 1563
f 1545 1563 1546
f 1544 1563 1545
f 1529 1562 1530
f 1528 1562 1529
f 1528 1526 1562
f 1540 1562 1541
f 1541 1563 1542
f 1539 1562 1540
f 1548 1563 1525
f 1542 1563 1543
f 1556 1526 1557
f 1538 1562 1539
f 1536 1562 1537
f 1537 1562 1538
f 1527 1526 1528
f 1550 1525 1551
f 1551 1525 1526
f 1551 1526 1552
f 1534 1562 1535
f 1532 1562 1533
f 1535 1562 1536
f 1530 1562 1531
f 1533 1562 1534
f 1531 1562 1532

