# https://github.com/mikedh/trimesh

o F_Top_1.stl
v -68.98669434 90.11660767 58.00000000
v -68.98669434 90.11660767 53.00000000
v -69.50151825 90.03507233 58.00000000
v -69.50151825 90.03507233 53.00000000
v -70.01633453 90.11660767 58.00000000
v -70.01633453 90.11660767 53.00000000
v -70.48076630 90.35324860 58.00000000
v -70.48076630 90.35324860 53.00000000
v -70.84933472 90.72181702 58.00000000
v -70.84933472 90.72181702 53.00000000
v -71.08597565 91.18624878 58.00000000
v -71.08597565 91.18624878 53.00000000
v -71.16751862 91.70107269 58.00000000
v -71.16751862 91.70107269 53.00000000
v -71.08597565 92.21588898 58.00000000
v -71.08597565 92.21588898 53.00000000
v -70.84933472 92.68032074 58.00000000
v -70.84933472 92.68032074 53.00000000
v -70.48076630 93.04888916 58.00000000
v -70.48076630 93.04888916 53.00000000
v -70.01633453 93.28553009 58.00000000
v -70.01633453 93.28553009 53.00000000
v -69.50151825 93.36707306 58.00000000
v -69.50151825 93.36707306 53.00000000
v -68.98669434 93.28553009 58.00000000
v -68.98669434 93.28553009 53.00000000
v -68.52226257 93.04888916 58.00000000
v -68.52226257 93.04888916 53.00000000
v -68.15369415 92.68032074 58.00000000
v -68.15369415 92.68032074 53.00000000
v -67.91705322 92.21588898 58.00000000
v -67.91705322 92.21588898 53.00000000
v -67.83551788 91.70107269 58.00000000
v -67.83551788 91.70107269 53.00000000
v -67.91705322 91.18624878 58.00000000
v -67.91705322 91.18624878 53.00000000
v -68.15369415 90.72181702 58.00000000
v -68.15369415 90.72181702 53.00000000
v -68.52226257 90.35324860 58.00000000
v -68.52226257 90.35324860 53.00000000
v -68.98669434 90.11660767 53.00000000
v -69.50151825 90.03507233 53.00000000
v -70.01633453 90.11660767 53.00000000
v -70.48076630 90.35324860 53.00000000
v -70.84933472 90.72181702 53.00000000
v -71.08597565 91.18624878 53.00000000
v -71.16751862 91.70107269 53.00000000
v -71.08597565 92.21588898 53.00000000
v -70.84933472 92.68032074 53.00000000
v -70.48076630 93.04888916 53.00000000
v -70.01633453 93.28553009 53.00000000
v -69.50151825 93.36707306 53.00000000
v -68.98669434 93.28553009 53.00000000
v -68.52226257 93.04888916 53.00000000
v -68.15369415 92.68032074 53.00000000
v -67.91705322 92.21588898 53.00000000
v -67.83551788 91.70107269 53.00000000
v -67.91705322 91.18624878 53.00000000
v -68.15369415 90.72181702 53.00000000
v -68.52226257 90.35324860 53.00000000
v -60.00151443 14.27961159 52.37827682
v -70.00151825 14.27961159 52.37827682
v -60.00151443 14.20106983 53.00000000
v -70.00151825 14.20106983 53.00000000
v -60.00151443 14.27961159 53.62172318
v -70.00151825 14.27961159 53.62172318
v -60.00151443 14.51030350 54.20438385
v -70.00151825 14.51030350 54.20438385
v -60.00151443 14.87864876 54.71136856
v -70.00151825 14.87864876 54.71136856
v -60.00151443 15.36150265 55.11082077
v -70.00151825 15.36150265 55.11082077
v -60.00151443 15.92852783 55.37763977
v -70.00151825 15.92852783 55.37763977
v -60.00151443 16.54409409 55.49506760
v -70.00151825 16.54409409 55.49506760
v -60.00151443 17.16952324 55.45571899
v -70.00151825 17.16952324 55.45571899
v -60.00151443 17.76551819 55.26206589
v -70.00151825 17.76551819 55.26206589
v -60.00151443 18.29463005 54.92628479
v -70.00151825 18.29463005 54.92628479
v -60.00151443 18.72361183 54.46946335
v -70.00151825 18.72361183 54.46946335
v -60.00151443 19.02551079 53.92031097
v -70.00151825 19.02551079 53.92031097
v -60.00151443 19.18135643 53.31333160
v -70.00151825 19.18135643 53.31333160
v -60.00151443 19.18135643 52.68666840
v -70.00151825 19.18135643 52.68666840
v -60.00151443 19.02551079 52.07968903
v -70.00151825 19.02551079 52.07968903
v -60.00151443 18.72361183 51.53053665
v -70.00151825 18.72361183 51.53053665
v -60.00151443 18.29463005 51.07371521
v -70.00151825 18.29463005 51.07371521
v -60.00151443 17.76551819 50.73793411
v -70.00151825 17.76551819 50.73793411
v -60.00151443 17.16952324 50.54428101
v -70.00151825 17.16952324 50.54428101
v -60.00151443 16.54409409 50.50493240
v -70.00151825 16.54409409 50.50493240
v -60.00151443 15.92852783 50.62236023
v -70.00151825 15.92852783 50.62236023
v -60.00151443 15.36150265 50.88917923
v -70.00151825 15.36150265 50.88917923
v -60.00151443 14.87864876 51.28863144
v -70.00151825 14.87864876 51.28863144
v -60.00151443 14.51030350 51.79561615
v -70.00151825 14.51030350 51.79561615
v -70.00151825 14.27961159 52.37827682
v -70.00151825 14.20106983 53.00000000
v -70.00151825 14.27961159 53.62172318
v -70.00151825 14.51030350 54.20438385
v -70.00151825 14.87864876 54.71136856
v -70.00151825 15.36150265 55.11082077
v -70.00151825 15.92852783 55.37763977
v -70.00151825 16.54409409 55.49506760
v -70.00151825 17.16952324 55.45571899
v -70.00151825 17.76551819 55.26206589
v -70.00151825 18.29463005 54.92628479
v -70.00151825 18.72361183 54.46946335
v -70.00151825 19.02551079 53.92031097
v -70.00151825 19.18135643 53.31333160
v -70.00151825 19.18135643 52.68666840
v -70.00151825 19.02551079 52.07968903
v -70.00151825 18.72361183 51.53053665
v -70.00151825 18.29463005 51.07371521
v -70.00151825 17.76551819 50.73793411
v -70.00151825 17.16952324 50.54428101
v -70.00151825 16.54409409 50.50493240
v -70.00151825 15.92852783 50.62236023
v -70.00151825 15.36150265 50.88917923
v -70.00151825 14.87864876 51.28863144
v -70.00151825 14.51030350 51.79561615
v -60.00151443 99.27960968 52.37827682
v -70.00151825 99.27960968 52.37827682
v -60.00151443 99.20107269 53.00000000
v -70.00151825 99.20107269 53.00000000
v -60.00151443 99.27960968 53.62172318
v -70.00151825 99.27960968 53.62172318
v -60.00151443 99.51029968 54.20438385
v -70.00151825 99.51029968 54.20438385
v -60.00151443 99.87864685 54.71136856
v -70.00151825 99.87864685 54.71136856
v -60.00151443 100.36150360 55.11082077
v -70.00151825 100.36150360 55.11082077
v -60.00151443 100.92852783 55.37763977
v -70.00151825 100.92852783 55.37763977
v -60.00151443 101.54409027 55.49506760
v -70.00151825 101.54409027 55.49506760
v -60.00151443 102.16952515 55.45571899
v -70.00151825 102.16952515 55.45571899
v -60.00151443 102.76551819 55.26206589
v -70.00151825 102.76551819 55.26206589
v -60.00151443 103.29463196 54.92628479
v -70.00151825 103.29463196 54.92628479
v -60.00151443 103.72360992 54.46946335
v -70.00151825 103.72360992 54.46946335
v -60.00151443 104.02551270 53.92031097
v -70.00151825 104.02551270 53.92031097
v -60.00151443 104.18135834 53.31333160
v -70.00151825 104.18135834 53.31333160
v -60.00151443 104.18135834 52.68666840
v -70.00151825 104.18135834 52.68666840
v -60.00151443 104.02551270 52.07968903
v -70.00151825 104.02551270 52.07968903
v -60.00151443 103.72360992 51.53053665
v -70.00151825 103.72360992 51.53053665
v -60.00151443 103.29463196 51.07371521
v -70.00151825 103.29463196 51.07371521
v -60.00151443 102.76551819 50.73793411
v -70.00151825 102.76551819 50.73793411
v -60.00151443 102.16952515 50.54428101
v -70.00151825 102.16952515 50.54428101
v -60.00151443 101.54409027 50.50493240
v -70.00151825 101.54409027 50.50493240
v -60.00151443 100.92852783 50.62236023
v -70.00151825 100.92852783 50.62236023
v -60.00151443 100.36150360 50.88917923
v -70.00151825 100.36150360 50.88917923
v -60.00151443 99.87864685 51.28863144
v -70.00151825 99.87864685 51.28863144
v -60.00151443 99.51029968 51.79561615
v -70.00151825 99.51029968 51.79561615
v -70.00151825 99.27960968 52.37827682
v -70.00151825 99.20107269 53.00000000
v -70.00151825 99.27960968 53.62172318
v -70.00151825 99.51029968 54.20438385
v -70.00151825 99.87864685 54.71136856
v -70.00151825 100.36150360 55.11082077
v -70.00151825 100.92852783 55.37763977
v -70.00151825 101.54409027 55.49506760
v -70.00151825 102.16952515 55.45571899
v -70.00151825 102.76551819 55.26206589
v -70.00151825 103.29463196 54.92628479
v -70.00151825 103.72360992 54.46946335
v -70.00151825 104.02551270 53.92031097
v -70.00151825 104.18135834 53.31333160
v -70.00151825 104.18135834 52.68666840
v -70.00151825 104.02551270 52.07968903
v -70.00151825 103.72360992 51.53053665
v -70.00151825 103.29463196 51.07371521
v -70.00151825 102.76551819 50.73793411
v -70.00151825 102.16952515 50.54428101
v -70.00151825 101.54409027 50.50493240
v -70.00151825 100.92852783 50.62236023
v -70.00151825 100.36150360 50.88917923
v -70.00151825 99.87864685 51.28863144
v -70.00151825 99.51029968 51.79561615
v -69.63337708 117.50056458 48.00000000
v -69.63337708 117.50056458 58.00000000
v -70.14819336 117.58210754 48.00000000
v -70.14819336 117.58210754 58.00000000
v -70.66301727 117.50056458 48.00000000
v -70.66301727 117.50056458 58.00000000
v -71.12744904 117.26392365 48.00000000
v -71.12744904 117.26392365 58.00000000
v -71.49601746 116.89535522 48.00000000
v -71.49601746 116.89535522 58.00000000
v -71.73265839 116.43092346 48.00000000
v -71.73265839 116.43092346 58.00000000
v -71.81419373 115.91610718 48.00000000
v -71.81419373 115.91610718 58.00000000
v -71.73265839 115.40128326 48.00000000
v -71.73265839 115.40128326 58.00000000
v -71.49601746 114.93685150 48.00000000
v -71.49601746 114.93685150 58.00000000
v -71.12744904 114.56828308 48.00000000
v -71.12744904 114.56828308 58.00000000
v -70.66301727 114.33164215 48.00000000
v -70.66301727 114.33164215 58.00000000
v -70.14819336 114.25010681 48.00000000
v -70.14819336 114.25010681 58.00000000
v -69.63337708 114.33164215 48.00000000
v -69.63337708 114.33164215 58.00000000
v -69.16894531 114.56828308 48.00000000
v -69.16894531 114.56828308 58.00000000
v -68.80037689 114.93685150 48.00000000
v -68.80037689 114.93685150 58.00000000
v -68.56373596 115.40128326 48.00000000
v -68.56373596 115.40128326 58.00000000
v -68.48219299 115.91610718 48.00000000
v -68.48219299 115.91610718 58.00000000
v -68.56373596 116.43092346 48.00000000
v -68.56373596 116.43092346 58.00000000
v -68.80037689 116.89535522 48.00000000
v -68.80037689 116.89535522 58.00000000
v -69.16894531 117.26392365 48.00000000
v -69.16894531 117.26392365 58.00000000
v -69.63337708 4.07049513 48.00000000
v -69.63337708 4.07049513 58.00000000
v -70.14819336 4.15203524 48.00000000
v -70.14819336 4.15203524 58.00000000
v -70.66301727 4.07049513 48.00000000
v -70.66301727 4.07049513 58.00000000
v -71.12744904 3.83385754 48.00000000
v -71.12744904 3.83385754 58.00000000
v -71.49601746 3.46528530 48.00000000
v -71.49601746 3.46528530 58.00000000
v -71.73265839 3.00085735 48.00000000
v -71.73265839 3.00085735 58.00000000
v -71.81419373 2.48603511 48.00000000
v -71.81419373 2.48603511 58.00000000
v -71.73265839 1.97121286 48.00000000
v -71.73265839 1.97121286 58.00000000
v -71.49601746 1.50678492 48.00000000
v -71.49601746 1.50678492 58.00000000
v -71.12744904 1.13821280 48.00000000
v -71.12744904 1.13821280 58.00000000
v -70.66301727 0.90157497 48.00000000
v -70.66301727 0.90157497 58.00000000
v -70.14819336 0.82003516 48.00000000
v -70.14819336 0.82003516 58.00000000
v -69.63337708 0.90157497 48.00000000
v -69.63337708 0.90157497 58.00000000
v -69.16894531 1.13821280 48.00000000
v -69.16894531 1.13821280 58.00000000
v -68.80037689 1.50678492 48.00000000
v -68.80037689 1.50678492 58.00000000
v -68.56373596 1.97121286 48.00000000
v -68.56373596 1.97121286 58.00000000
v -68.48219299 2.48603511 48.00000000
v -68.48219299 2.48603511 58.00000000
v -68.56373596 3.00085735 48.00000000
v -68.56373596 3.00085735 58.00000000
v -68.80037689 3.46528530 48.00000000
v -68.80037689 3.46528530 58.00000000
v -69.16894531 3.83385754 48.00000000
v -69.16894531 3.83385754 58.00000000
v -107.13337708 31.57049561 48.00000000
v -107.13337708 31.57049561 58.00000000
v -107.64819336 31.65203476 48.00000000
v -107.64819336 31.65203476 58.00000000
v -108.16301727 31.57049561 48.00000000
v -108.16301727 31.57049561 58.00000000
v -108.62744904 31.33385658 48.00000000
v -108.62744904 31.33385658 58.00000000
v -108.99601746 30.96528625 48.00000000
v -108.99601746 30.96528625 58.00000000
v -109.23265839 30.50085831 48.00000000
v -109.23265839 30.50085831 58.00000000
v -109.31419373 29.98603439 48.00000000
v -109.31419373 29.98603439 58.00000000
v -109.23265839 29.47121239 48.00000000
v -109.23265839 29.47121239 58.00000000
v -108.99601746 29.00678444 48.00000000
v -108.99601746 29.00678444 58.00000000
v -108.62744904 28.63821220 48.00000000
v -108.62744904 28.63821220 58.00000000
v -108.16301727 28.40157509 48.00000000
v -108.16301727 28.40157509 58.00000000
v -107.64819336 28.32003593 48.00000000
v -107.64819336 28.32003593 58.00000000
v -107.13337708 28.40157509 48.00000000
v -107.13337708 28.40157509 58.00000000
v -106.66894531 28.63821220 48.00000000
v -106.66894531 28.63821220 58.00000000
v -106.30037689 29.00678444 48.00000000
v -106.30037689 29.00678444 58.00000000
v -106.06373596 29.47121239 48.00000000
v -106.06373596 29.47121239 58.00000000
v -105.98219299 29.98603439 48.00000000
v -105.98219299 29.98603439 58.00000000
v -106.06373596 30.50085831 48.00000000
v -106.06373596 30.50085831 58.00000000
v -106.30037689 30.96528625 48.00000000
v -106.30037689 30.96528625 58.00000000
v -106.66894531 31.33385658 48.00000000
v -106.66894531 31.33385658 58.00000000
v -89.63337708 4.07049513 48.00000000
v -89.63337708 4.07049513 58.00000000
v -90.14819336 4.15203524 48.00000000
v -90.14819336 4.15203524 58.00000000
v -90.66301727 4.07049513 48.00000000
v -90.66301727 4.07049513 58.00000000
v -91.12744904 3.83385754 48.00000000
v -91.12744904 3.83385754 58.00000000
v -91.49601746 3.46528530 48.00000000
v -91.49601746 3.46528530 58.00000000
v -91.73265839 3.00085735 48.00000000
v -91.73265839 3.00085735 58.00000000
v -91.81419373 2.48603511 48.00000000
v -91.81419373 2.48603511 58.00000000
v -91.73265839 1.97121286 48.00000000
v -91.73265839 1.97121286 58.00000000
v -91.49601746 1.50678492 48.00000000
v -91.49601746 1.50678492 58.00000000
v -91.12744904 1.13821280 48.00000000
v -91.12744904 1.13821280 58.00000000
v -90.66301727 0.90157497 48.00000000
v -90.66301727 0.90157497 58.00000000
v -90.14819336 0.82003516 48.00000000
v -90.14819336 0.82003516 58.00000000
v -89.63337708 0.90157497 48.00000000
v -89.63337708 0.90157497 58.00000000
v -89.16894531 1.13821280 48.00000000
v -89.16894531 1.13821280 58.00000000
v -88.80037689 1.50678492 48.00000000
v -88.80037689 1.50678492 58.00000000
v -88.56373596 1.97121286 48.00000000
v -88.56373596 1.97121286 58.00000000
v -88.48219299 2.48603511 48.00000000
v -88.48219299 2.48603511 58.00000000
v -88.56373596 3.00085735 48.00000000
v -88.56373596 3.00085735 58.00000000
v -88.80037689 3.46528530 48.00000000
v -88.80037689 3.46528530 58.00000000
v -89.16894531 3.83385754 48.00000000
v -89.16894531 3.83385754 58.00000000
v -89.63337708 117.50056458 48.00000000
v -89.63337708 117.50056458 58.00000000
v -90.14819336 117.58210754 48.00000000
v -90.14819336 117.58210754 58.00000000
v -90.66301727 117.50056458 48.00000000
v -90.66301727 117.50056458 58.00000000
v -91.12744904 117.26392365 48.00000000
v -91.12744904 117.26392365 58.00000000
v -91.49601746 116.89535522 48.00000000
v -91.49601746 116.89535522 58.00000000
v -91.73265839 116.43092346 48.00000000
v -91.73265839 116.43092346 58.00000000
v -91.81419373 115.91610718 48.00000000
v -91.81419373 115.91610718 58.00000000
v -91.73265839 115.40128326 48.00000000
v -91.73265839 115.40128326 58.00000000
v -91.49601746 114.93685150 48.00000000
v -91.49601746 114.93685150 58.00000000
v -91.12744904 114.56828308 48.00000000
v -91.12744904 114.56828308 58.00000000
v -90.66301727 114.33164215 48.00000000
v -90.66301727 114.33164215 58.00000000
v -90.14819336 114.25010681 48.00000000
v -90.14819336 114.25010681 58.00000000
v -89.63337708 114.33164215 48.00000000
v -89.63337708 114.33164215 58.00000000
v -89.16894531 114.56828308 48.00000000
v -89.16894531 114.56828308 58.00000000
v -88.80037689 114.93685150 48.00000000
v -88.80037689 114.93685150 58.00000000
v -88.56373596 115.40128326 48.00000000
v -88.56373596 115.40128326 58.00000000
v -88.48219299 115.91610718 48.00000000
v -88.48219299 115.91610718 58.00000000
v -88.56373596 116.43092346 48.00000000
v -88.56373596 116.43092346 58.00000000
v -88.80037689 116.89535522 48.00000000
v -88.80037689 116.89535522 58.00000000
v -89.16894531 117.26392365 48.00000000
v -89.16894531 117.26392365 58.00000000
v -107.13337708 90.00056458 48.00000000
v -107.13337708 90.00056458 58.00000000
v -107.64819336 90.08210754 48.00000000
v -107.64819336 90.08210754 58.00000000
v -108.16301727 90.00056458 48.00000000
v -108.16301727 90.00056458 58.00000000
v -108.62744904 89.76392365 48.00000000
v -108.62744904 89.76392365 58.00000000
v -108.99601746 89.39535522 48.00000000
v -108.99601746 89.39535522 58.00000000
v -109.23265839 88.93092346 48.00000000
v -109.23265839 88.93092346 58.00000000
v -109.31419373 88.41610718 48.00000000
v -109.31419373 88.41610718 58.00000000
v -109.23265839 87.90128326 48.00000000
v -109.23265839 87.90128326 58.00000000
v -108.99601746 87.43685150 48.00000000
v -108.99601746 87.43685150 58.00000000
v -108.62744904 87.06828308 48.00000000
v -108.62744904 87.06828308 58.00000000
v -108.16301727 86.83164215 48.00000000
v -108.16301727 86.83164215 58.00000000
v -107.64819336 86.75010681 48.00000000
v -107.64819336 86.75010681 58.00000000
v -107.13337708 86.83164215 48.00000000
v -107.13337708 86.83164215 58.00000000
v -106.66894531 87.06828308 48.00000000
v -106.66894531 87.06828308 58.00000000
v -106.30037689 87.43685150 48.00000000
v -106.30037689 87.43685150 58.00000000
v -106.06373596 87.90128326 48.00000000
v -106.06373596 87.90128326 58.00000000
v -105.98219299 88.41610718 48.00000000
v -105.98219299 88.41610718 58.00000000
v -106.06373596 88.93092346 48.00000000
v -106.06373596 88.93092346 58.00000000
v -106.30037689 89.39535522 48.00000000
v -106.30037689 89.39535522 58.00000000
v -106.66894531 89.76392365 48.00000000
v -106.66894531 89.76392365 58.00000000
v -55.00151443 84.20107269 58.00000000
v -55.00151443 34.20106888 58.00000000
v -55.00151443 84.20107269 48.00000000
v -55.00151443 34.20106888 48.00000000
v -55.00151443 84.20107269 58.00000000
v -55.00151443 84.20107269 48.00000000
v -60.00151443 84.20107269 58.00000000
v -60.00151443 84.20107269 48.00000000
v -55.00151443 34.20106888 58.00000000
v -55.00151443 34.20106888 48.00000000
v -60.00151443 34.20106888 58.00000000
v -60.00151443 34.20106888 48.00000000
v -60.00151443 99.27960968 52.37827682
v -60.00151443 99.20107269 53.00000000
v -60.00151443 99.27960968 53.62172318
v -60.00151443 99.51029968 54.20438385
v -60.00151443 99.87864685 54.71136856
v -60.00151443 100.36150360 55.11082077
v -60.00151443 100.92852783 55.37763977
v -60.00151443 101.54409027 55.49506760
v -60.00151443 102.16952515 55.45571899
v -60.00151443 102.76551819 55.26206589
v -60.00151443 103.29463196 54.92628479
v -60.00151443 103.72360992 54.46946335
v -60.00151443 104.02551270 53.92031097
v -60.00151443 104.18135834 53.31333160
v -60.00151443 104.18135834 52.68666840
v -60.00151443 104.02551270 52.07968903
v -60.00151443 103.72360992 51.53053665
v -60.00151443 103.29463196 51.07371521
v -60.00151443 102.76551819 50.73793411
v -60.00151443 102.16952515 50.54428101
v -60.00151443 101.54409027 50.50493240
v -60.00151443 100.92852783 50.62236023
v -60.00151443 100.36150360 50.88917923
v -60.00151443 99.87864685 51.28863144
v -60.00151443 99.51029968 51.79561615
v -60.00151443 84.20107269 58.00000000
v -60.00151443 84.20107269 48.00000000
v -60.00151443 118.41610718 48.00000000
v -60.00151443 118.41610718 58.00000000
v -60.00151443 14.27961159 52.37827682
v -60.00151443 14.20106983 53.00000000
v -60.00151443 14.27961159 53.62172318
v -60.00151443 14.51030350 54.20438385
v -60.00151443 14.87864876 54.71136856
v -60.00151443 15.36150265 55.11082077
v -60.00151443 15.92852783 55.37763977
v -60.00151443 16.54409409 55.49506760
v -60.00151443 17.16952324 55.45571899
v -60.00151443 17.76551819 55.26206589
v -60.00151443 18.29463005 54.92628479
v -60.00151443 18.72361183 54.46946335
v -60.00151443 19.02551079 53.92031097
v -60.00151443 19.18135643 53.31333160
v -60.00151443 19.18135643 52.68666840
v -60.00151443 19.02551079 52.07968903
v -60.00151443 18.72361183 51.53053665
v -60.00151443 18.29463005 51.07371521
v -60.00151443 17.76551819 50.73793411
v -60.00151443 17.16952324 50.54428101
v -60.00151443 16.54409409 50.50493240
v -60.00151443 15.92852783 50.62236023
v -60.00151443 15.36150265 50.88917923
v -60.00151443 14.87864876 51.28863144
v -60.00151443 14.51030350 51.79561615
v -60.00151443 34.20106888 58.00000000
v -60.00151443 34.20106888 48.00000000
v -60.00151443 -0.01396486 58.00000000
v -60.00151443 -0.01396486 48.00000000
v -60.00151443 118.41610718 48.00000000
v -60.00151443 118.41610718 58.00000000
v -110.14819336 118.41610718 48.00000000
v -110.14819336 118.41610718 58.00000000
v -60.00151443 -0.01396486 58.00000000
v -60.00151443 -0.01396486 48.00000000
v -110.14819336 -0.01396486 48.00000000
v -110.14819336 -0.01396486 58.00000000
v -110.14819336 118.41610718 48.00000000
v -110.14819336 -0.01396486 48.00000000
v -110.14819336 118.41610718 58.00000000
v -110.14819336 -0.01396486 58.00000000
v -69.63337708 117.50056458 48.00000000
v -70.14819336 117.58210754 48.00000000
v -70.66301727 117.50056458 48.00000000
v -71.12744904 117.26392365 48.00000000
v -71.49601746 116.89535522 48.00000000
v -71.73265839 116.43092346 48.00000000
v -71.81419373 115.91610718 48.00000000
v -71.73265839 115.40128326 48.00000000
v -71.49601746 114.93685150 48.00000000
v -71.12744904 114.56828308 48.00000000
v -70.66301727 114.33164215 48.00000000
v -70.14819336 114.25010681 48.00000000
v -69.63337708 114.33164215 48.00000000
v -69.16894531 114.56828308 48.00000000
v -68.80037689 114.93685150 48.00000000
v -68.56373596 115.40128326 48.00000000
v -68.48219299 115.91610718 48.00000000
v -68.56373596 116.43092346 48.00000000
v -68.80037689 116.89535522 48.00000000
v -69.16894531 117.26392365 48.00000000
v -69.63337708 4.07049513 48.00000000
v -70.14819336 4.15203524 48.00000000
v -70.66301727 4.07049513 48.00000000
v -71.12744904 3.83385754 48.00000000
v -71.49601746 3.46528530 48.00000000
v -71.73265839 3.00085735 48.00000000
v -71.81419373 2.48603511 48.00000000
v -71.73265839 1.97121286 48.00000000
v -71.49601746 1.50678492 48.00000000
v -71.12744904 1.13821280 48.00000000
v -70.66301727 0.90157497 48.00000000
v -70.14819336 0.82003516 48.00000000
v -69.63337708 0.90157497 48.00000000
v -69.16894531 1.13821280 48.00000000
v -68.80037689 1.50678492 48.00000000
v -68.56373596 1.97121286 48.00000000
v -68.48219299 2.48603511 48.00000000
v -68.56373596 3.00085735 48.00000000
v -68.80037689 3.46528530 48.00000000
v -69.16894531 3.83385754 48.00000000
v -107.13337708 31.57049561 48.00000000
v -107.64819336 31.65203476 48.00000000
v -108.16301727 31.57049561 48.00000000
v -108.62744904 31.33385658 48.00000000
v -108.99601746 30.96528625 48.00000000
v -109.23265839 30.50085831 48.00000000
v -109.31419373 29.98603439 48.00000000
v -109.23265839 29.47121239 48.00000000
v -108.99601746 29.00678444 48.00000000
v -108.62744904 28.63821220 48.00000000
v -108.16301727 28.40157509 48.00000000
v -107.64819336 28.32003593 48.00000000
v -107.13337708 28.40157509 48.00000000
v -106.66894531 28.63821220 48.00000000
v -106.30037689 29.00678444 48.00000000
v -106.06373596 29.47121239 48.00000000
v -105.98219299 29.98603439 48.00000000
v -106.06373596 30.50085831 48.00000000
v -106.30037689 30.96528625 48.00000000
v -106.66894531 31.33385658 48.00000000
v -89.63337708 4.07049513 48.00000000
v -90.14819336 4.15203524 48.00000000
v -90.66301727 4.07049513 48.00000000
v -91.12744904 3.83385754 48.00000000
v -91.49601746 3.46528530 48.00000000
v -91.73265839 3.00085735 48.00000000
v -91.81419373 2.48603511 48.00000000
v -91.73265839 1.97121286 48.00000000
v -91.49601746 1.50678492 48.00000000
v -91.12744904 1.13821280 48.00000000
v -90.66301727 0.90157497 48.00000000
v -90.14819336 0.82003516 48.00000000
v -89.63337708 0.90157497 48.00000000
v -89.16894531 1.13821280 48.00000000
v -88.80037689 1.50678492 48.00000000
v -88.56373596 1.97121286 48.00000000
v -88.48219299 2.48603511 48.00000000
v -88.56373596 3.00085735 48.00000000
v -88.80037689 3.46528530 48.00000000
v -89.16894531 3.83385754 48.00000000
v -89.63337708 117.50056458 48.00000000
v -90.14819336 117.58210754 48.00000000
v -90.66301727 117.50056458 48.00000000
v -91.12744904 117.26392365 48.00000000
v -91.49601746 116.89535522 48.00000000
v -91.73265839 116.43092346 48.00000000
v -91.81419373 115.91610718 48.00000000
v -91.73265839 115.40128326 48.00000000
v -91.49601746 114.93685150 48.00000000
v -91.12744904 114.56828308 48.00000000
v -90.66301727 114.33164215 48.00000000
v -90.14819336 114.25010681 48.00000000
v -89.63337708 114.33164215 48.00000000
v -89.16894531 114.56828308 48.00000000
v -88.80037689 114.93685150 48.00000000
v -88.56373596 115.40128326 48.00000000
v -88.48219299 115.91610718 48.00000000
v -88.56373596 116.43092346 48.00000000
v -88.80037689 116.89535522 48.00000000
v -89.16894531 117.26392365 48.00000000
v -107.13337708 90.00056458 48.00000000
v -107.64819336 90.08210754 48.00000000
v -108.16301727 90.00056458 48.00000000
v -108.62744904 89.76392365 48.00000000
v -108.99601746 89.39535522 48.00000000
v -109.23265839 88.93092346 48.00000000
v -109.31419373 88.41610718 48.00000000
v -109.23265839 87.90128326 48.00000000
v -108.99601746 87.43685150 48.00000000
v -108.62744904 87.06828308 48.00000000
v -108.16301727 86.83164215 48.00000000
v -107.64819336 86.75010681 48.00000000
v -107.13337708 86.83164215 48.00000000
v -106.66894531 87.06828308 48.00000000
v -106.30037689 87.43685150 48.00000000
v -106.06373596 87.90128326 48.00000000
v -105.98219299 88.41610718 48.00000000
v -106.06373596 88.93092346 48.00000000
v -106.30037689 89.39535522 48.00000000
v -106.66894531 89.76392365 48.00000000
v -55.00151443 84.20107269 48.00000000
v -55.00151443 34.20106888 48.00000000
v -60.00151443 84.20107269 48.00000000
v -60.00151443 34.20106888 48.00000000
v -60.00151443 118.41610718 48.00000000
v -60.00151443 -0.01396486 48.00000000
v -110.14819336 118.41610718 48.00000000
v -110.14819336 -0.01396486 48.00000000
v -68.98669434 90.11660767 58.00000000
v -69.50151825 90.03507233 58.00000000
v -70.01633453 90.11660767 58.00000000
v -70.48076630 90.35324860 58.00000000
v -70.84933472 90.72181702 58.00000000
v -71.08597565 91.18624878 58.00000000
v -71.16751862 91.70107269 58.00000000
v -71.08597565 92.21588898 58.00000000
v -70.84933472 92.68032074 58.00000000
v -70.48076630 93.04888916 58.00000000
v -70.01633453 93.28553009 58.00000000
v -69.50151825 93.36707306 58.00000000
v -68.98669434 93.28553009 58.00000000
v -68.52226257 93.04888916 58.00000000
v -68.15369415 92.68032074 58.00000000
v -67.91705322 92.21588898 58.00000000
v -67.83551788 91.70107269 58.00000000
v -67.91705322 91.18624878 58.00000000
v -68.15369415 90.72181702 58.00000000
v -68.52226257 90.35324860 58.00000000
v -69.63337708 117.50056458 58.00000000
v -70.14819336 117.58210754 58.00000000
v -70.66301727 117.50056458 58.00000000
v -71.12744904 117.26392365 58.00000000
v -71.49601746 116.89535522 58.00000000
v -71.73265839 116.43092346 58.00000000
v -71.81419373 115.91610718 58.00000000
v -71.73265839 115.40128326 58.00000000
v -71.49601746 114.93685150 58.00000000
v -71.12744904 114.56828308 58.00000000
v -70.66301727 114.33164215 58.00000000
v -70.14819336 114.25010681 58.00000000
v -69.63337708 114.33164215 58.00000000
v -69.16894531 114.56828308 58.00000000
v -68.80037689 114.93685150 58.00000000
v -68.56373596 115.40128326 58.00000000
v -68.48219299 115.91610718 58.00000000
v -68.56373596 116.43092346 58.00000000
v -68.80037689 116.89535522 58.00000000
v -69.16894531 117.26392365 58.00000000
v -69.63337708 4.07049513 58.00000000
v -70.14819336 4.15203524 58.00000000
v -70.66301727 4.07049513 58.00000000
v -71.12744904 3.83385754 58.00000000
v -71.49601746 3.46528530 58.00000000
v -71.73265839 3.00085735 58.00000000
v -71.81419373 2.48603511 58.00000000
v -71.73265839 1.97121286 58.00000000
v -71.49601746 1.50678492 58.00000000
v -71.12744904 1.13821280 58.00000000
v -70.66301727 0.90157497 58.00000000
v -70.14819336 0.82003516 58.00000000
v -69.63337708 0.90157497 58.00000000
v -69.16894531 1.13821280 58.00000000
v -68.80037689 1.50678492 58.00000000
v -68.56373596 1.97121286 58.00000000
v -68.48219299 2.48603511 58.00000000
v -68.56373596 3.00085735 58.00000000
v -68.80037689 3.46528530 58.00000000
v -69.16894531 3.83385754 58.00000000
v -107.13337708 31.57049561 58.00000000
v -107.64819336 31.65203476 58.00000000
v -108.16301727 31.57049561 58.00000000
v -108.62744904 31.33385658 58.00000000
v -108.99601746 30.96528625 58.00000000
v -109.23265839 30.50085831 58.00000000
v -109.31419373 29.98603439 58.00000000
v -109.23265839 29.47121239 58.00000000
v -108.99601746 29.00678444 58.00000000
v -108.62744904 28.63821220 58.00000000
v -108.16301727 28.40157509 58.00000000
v -107.64819336 28.32003593 58.00000000
v -107.13337708 28.40157509 58.00000000
v -106.66894531 28.63821220 58.00000000
v -106.30037689 29.00678444 58.00000000
v -106.06373596 29.47121239 58.00000000
v -105.98219299 29.98603439 58.00000000
v -106.06373596 30.50085831 58.00000000
v -106.30037689 30.96528625 58.00000000
v -106.66894531 31.33385658 58.00000000
v -89.63337708 4.07049513 58.00000000
v -90.14819336 4.15203524 58.00000000
v -90.66301727 4.07049513 58.00000000
v -91.12744904 3.83385754 58.00000000
v -91.49601746 3.46528530 58.00000000
v -91.73265839 3.00085735 58.00000000
v -91.81419373 2.48603511 58.00000000
v -91.73265839 1.97121286 58.00000000
v -91.49601746 1.50678492 58.00000000
v -91.12744904 1.13821280 58.00000000
v -90.66301727 0.90157497 58.00000000
v -90.14819336 0.82003516 58.00000000
v -89.63337708 0.90157497 58.00000000
v -89.16894531 1.13821280 58.00000000
v -88.80037689 1.50678492 58.00000000
v -88.56373596 1.97121286 58.00000000
v -88.48219299 2.48603511 58.00000000
v -88.56373596 3.00085735 58.00000000
v -88.80037689 3.46528530 58.00000000
v -89.16894531 3.83385754 58.00000000
v -89.63337708 117.50056458 58.00000000
v -90.14819336 117.58210754 58.00000000
v -90.66301727 117.50056458 58.00000000
v -91.12744904 117.26392365 58.00000000
v -91.49601746 116.89535522 58.00000000
v -91.73265839 116.43092346 58.00000000
v -91.81419373 115.91610718 58.00000000
v -91.73265839 115.40128326 58.00000000
v -91.49601746 114.93685150 58.00000000
v -91.12744904 114.56828308 58.00000000
v -90.66301727 114.33164215 58.00000000
v -90.14819336 114.25010681 58.00000000
v -89.63337708 114.33164215 58.00000000
v -89.16894531 114.56828308 58.00000000
v -88.80037689 114.93685150 58.00000000
v -88.56373596 115.40128326 58.00000000
v -88.48219299 115.91610718 58.00000000
v -88.56373596 116.43092346 58.00000000
v -88.80037689 116.89535522 58.00000000
v -89.16894531 117.26392365 58.00000000
v -107.13337708 90.00056458 58.00000000
v -107.64819336 90.08210754 58.00000000
v -108.16301727 90.00056458 58.00000000
v -108.62744904 89.76392365 58.00000000
v -108.99601746 89.39535522 58.00000000
v -109.23265839 88.93092346 58.00000000
v -109.31419373 88.41610718 58.00000000
v -109.23265839 87.90128326 58.00000000
v -108.99601746 87.43685150 58.00000000
v -108.62744904 87.06828308 58.00000000
v -108.16301727 86.83164215 58.00000000
v -107.64819336 86.75010681 58.00000000
v -107.13337708 86.83164215 58.00000000
v -106.66894531 87.06828308 58.00000000
v -106.30037689 87.43685150 58.00000000
v -106.06373596 87.90128326 58.00000000
v -105.98219299 88.41610718 58.00000000
v -106.06373596 88.93092346 58.00000000
v -106.30037689 89.39535522 58.00000000
v -106.66894531 89.76392365 58.00000000
v -55.00151443 84.20107269 58.00000000
v -55.00151443 34.20106888 58.00000000
v -60.00151443 84.20107269 58.00000000
v -60.00151443 34.20106888 58.00000000
v -60.00151443 118.41610718 58.00000000
v -60.00151443 -0.01396486 58.00000000
v -110.14819336 118.41610718 58.00000000
v -110.14819336 -0.01396486 58.00000000
f 1 2 3
f 3 2 4
f 3 4 5
f 5 4 6
f 5 6 7
f 7 6 8
f 7 8 9
f 9 8 10
f 9 10 11
f 11 10 12
f 11 12 13
f 13 12 14
f 13 14 15
f 15 14 16
f 15 16 17
f 17 16 18
f 17 18 19
f 19 18 20
f 19 20 21
f 21 20 22
f 21 22 23
f 23 22 24
f 23 24 25
f 25 24 26
f 25 26 27
f 27 26 28
f 27 28 29
f 29 28 30
f 29 30 31
f 31 30 32
f 31 32 33
f 33 32 34
f 33 34 35
f 35 34 36
f 35 36 37
f 37 36 38
f 37 38 39
f 39 38 40
f 39 40 1
f 1 40 2
f 51 43 52
f 52 43 42
f 52 42 53
f 53 42 41
f 53 41 54
f 54 41 60
f 54 60 55
f 55 60 59
f 55 59 56
f 56 59 58
f 56 58 57
f 43 51 44
f 44 51 50
f 44 50 45
f 45 50 49
f 45 49 46
f 46 49 48
f 46 48 47
f 61 62 63
f 63 62 64
f 63 64 65
f 65 64 66
f 65 66 67
f 67 66 68
f 67 68 69
f 69 68 70
f 69 70 71
f 71 70 72
f 71 72 73
f 73 72 74
f 73 74 75
f 75 74 76
f 75 76 77
f 77 76 78
f 77 78 79
f 79 78 80
f 79 80 81
f 81 80 82
f 81 82 83
f 83 82 84
f 83 84 85
f 85 84 86
f 85 86 87
f 87 86 88
f 87 88 89
f 89 88 90
f 89 90 91
f 91 90 92
f 91 92 93
f 93 92 94
f 93 94 95
f 95 94 96
f 95 96 97
f 97 96 98
f 97 98 99
f 99 98 100
f 99 100 101
f 101 100 102
f 101 102 103
f 103 102 104
f 103 104 105
f 105 104 106
f 105 106 107
f 107 106 108
f 107 108 109
f 109 108 110
f 109 110 61
f 61 110 62
f 113 112 129
f 129 112 111
f 129 111 135
f 135 134 129
f 129 134 133
f 129 133 132
f 131 130 132
f 132 130 129
f 128 120 129
f 129 120 119
f 129 119 118
f 120 128 121
f 121 128 127
f 121 127 122
f 122 127 126
f 122 126 123
f 123 126 125
f 123 125 124
f 118 117 129
f 129 117 116
f 129 116 115
f 115 114 129
f 129 114 113
f 136 137 138
f 138 137 139
f 138 139 140
f 140 139 141
f 140 141 142
f 142 141 143
f 142 143 144
f 144 143 145
f 144 145 146
f 146 145 147
f 146 147 148
f 148 147 149
f 148 149 150
f 150 149 151
f 150 151 152
f 152 151 153
f 152 153 154
f 154 153 155
f 154 155 156
f 156 155 157
f 156 157 158
f 158 157 159
f 158 159 160
f 160 159 161
f 160 161 162
f 162 161 163
f 162 163 164
f 164 163 165
f 164 165 166
f 166 165 167
f 166 167 168
f 168 167 169
f 168 169 170
f 170 169 171
f 170 171 172
f 172 171 173
f 172 173 174
f 174 173 175
f 174 175 176
f 176 175 177
f 176 177 178
f 178 177 179
f 178 179 180
f 180 179 181
f 180 181 182
f 182 181 183
f 182 183 184
f 184 183 185
f 184 185 136
f 136 185 137
f 188 187 204
f 204 187 186
f 204 186 210
f 210 209 204
f 204 209 208
f 204 208 207
f 206 205 207
f 207 205 204
f 203 195 204
f 204 195 194
f 204 194 193
f 195 203 196
f 196 203 202
f 196 202 197
f 197 202 201
f 197 201 198
f 198 201 200
f 198 200 199
f 193 192 204
f 204 192 191
f 204 191 190
f 190 189 204
f 204 189 188
f 211 212 213
f 213 212 214
f 213 214 215
f 215 214 216
f 215 216 217
f 217 216 218
f 217 218 219
f 219 218 220
f 219 220 221
f 221 220 222
f 221 222 223
f 223 222 224
f 223 224 225
f 225 224 226
f 225 226 227
f 227 226 228
f 227 228 229
f 229 228 230
f 229 230 231
f 231 230 232
f 231 232 233
f 233 232 234
f 233 234 235
f 235 234 236
f 235 236 237
f 237 236 238
f 237 238 239
f 239 238 240
f 239 240 241
f 241 240 242
f 241 242 243
f 243 242 244
f 243 244 245
f 245 244 246
f 245 246 247
f 247 246 248
f 247 248 249
f 249 248 250
f 249 250 211
f 211 250 212
f 251 252 253
f 253 252 254
f 253 254 255
f 255 254 256
f 255 256 257
f 257 256 258
f 257 258 259
f 259 258 260
f 259 260 261
f 261 260 262
f 261 262 263
f 263 262 264
f 263 264 265
f 265 264 266
f 265 266 267
f 267 266 268
f 267 268 269
f 269 268 270
f 269 270 271
f 271 270 272
f 271 272 273
f 273 272 274
f 273 274 275
f 275 274 276
f 275 276 277
f 277 276 278
f 277 278 279
f 279 278 280
f 279 280 281
f 281 280 282
f 281 282 283
f 283 282 284
f 283 284 285
f 285 284 286
f 285 286 287
f 287 286 288
f 287 288 289
f 289 288 290
f 289 290 251
f 251 290 252
f 291 292 293
f 293 292 294
f 293 294 295
f 295 294 296
f 295 296 297
f 297 296 298
f 297 298 299
f 299 298 300
f 299 300 301
f 301 300 302
f 301 302 303
f 303 302 304
f 303 304 305
f 305 304 306
f 305 306 307
f 307 306 308
f 307 308 309
f 309 308 310
f 309 310 311
f 311 310 312
f 311 312 313
f 313 312 314
f 313 314 315
f 315 314 316
f 315 316 317
f 317 316 318
f 317 318 319
f 319 318 320
f 319 320 321
f 321 320 322
f 321 322 323
f 323 322 324
f 323 324 325
f 325 324 326
f 325 326 327
f 327 326 328
f 327 328 329
f 329 328 330
f 329 330 291
f 291 330 292
f 331 332 333
f 333 332 334
f 333 334 335
f 335 334 336
f 335 336 337
f 337 336 338
f 337 338 339
f 339 338 340
f 339 340 341
f 341 340 342
f 341 342 343
f 343 342 344
f 343 344 345
f 345 344 346
f 345 346 347
f 347 346 348
f 347 348 349
f 349 348 350
f 349 350 351
f 351 350 352
f 351 352 353
f 353 352 354
f 353 354 355
f 355 354 356
f 355 356 357
f 357 356 358
f 357 358 359
f 359 358 360
f 359 360 361
f 361 360 362
f 361 362 363
f 363 362 364
f 363 364 365
f 365 364 366
f 365 366 367
f 367 366 368
f 367 368 369
f 369 368 370
f 369 370 331
f 331 370 332
f 371 372 373
f 373 372 374
f 373 374 375
f 375 374 376
f 375 376 377
f 377 376 378
f 377 378 379
f 379 378 380
f 379 380 381
f 381 380 382
f 381 382 383
f 383 382 384
f 383 384 385
f 385 384 386
f 385 386 387
f 387 386 388
f 387 388 389
f 389 388 390
f 389 390 391
f 391 390 392
f 391 392 393
f 393 392 394
f 393 394 395
f 395 394 396
f 395 396 397
f 397 396 398
f 397 398 399
f 399 398 400
f 399 400 401
f 401 400 402
f 401 402 403
f 403 402 404
f 403 404 405
f 405 404 406
f 405 406 407
f 407 406 408
f 407 408 409
f 409 408 410
f 409 410 371
f 371 410 372
f 411 412 413
f 413 412 414
f 413 414 415
f 415 414 416
f 415 416 417
f 417 416 418
f 417 418 419
f 419 418 420
f 419 420 421
f 421 420 422
f 421 422 423
f 423 422 424
f 423 424 425
f 425 424 426
f 425 426 427
f 427 426 428
f 427 428 429
f 429 428 430
f 429 430 431
f 431 430 432
f 431 432 433
f 433 432 434
f 433 434 435
f 435 434 436
f 435 436 437
f 437 436 438
f 437 438 439
f 439 438 440
f 439 440 441
f 441 440 442
f 441 442 443
f 443 442 444
f 443 444 445
f 445 444 446
f 445 446 447
f 447 446 448
f 447 448 449
f 449 448 450
f 449 450 411
f 411 450 412
f 451 452 453
f 453 452 454
f 457 455 458
f 458 455 456
f 459 461 460
f 460 461 462
f 465 488 464
f 464 488 489
f 464 489 463
f 463 489 487
f 487 489 486
f 486 489 485
f 485 489 484
f 484 489 483
f 483 489 490
f 483 490 482
f 482 490 481
f 481 490 480
f 480 490 479
f 479 490 478
f 478 490 477
f 477 490 491
f 477 491 476
f 476 491 475
f 475 491 474
f 474 491 473
f 473 491 472
f 472 491 471
f 471 491 470
f 470 491 488
f 470 488 469
f 469 488 468
f 468 488 467
f 467 488 466
f 466 488 465
f 494 519 493
f 493 519 520
f 493 520 492
f 492 520 516
f 516 520 515
f 515 520 514
f 514 520 513
f 513 520 512
f 512 520 518
f 512 518 511
f 511 518 510
f 510 518 509
f 509 518 508
f 508 518 507
f 507 518 506
f 506 518 517
f 506 517 505
f 505 517 504
f 504 517 503
f 503 517 502
f 502 517 501
f 501 517 500
f 500 517 499
f 499 517 519
f 499 519 498
f 498 519 497
f 497 519 496
f 496 519 495
f 495 519 494
f 521 523 522
f 522 523 524
f 525 528 526
f 526 528 527
f 529 530 531
f 531 530 532
f 535 613 534
f 534 613 614
f 534 614 657
f 657 614 659
f 659 614 615
f 659 615 616
f 613 535 632
f 632 535 536
f 632 536 631
f 631 536 537
f 631 537 630
f 630 537 538
f 630 538 629
f 629 538 539
f 629 539 628
f 628 539 540
f 628 540 627
f 627 540 541
f 627 541 655
f 655 541 542
f 655 542 543
f 543 544 655
f 655 544 545
f 655 545 546
f 546 547 655
f 655 547 657
f 657 547 548
f 657 548 549
f 549 550 657
f 657 550 551
f 657 551 552
f 552 533 657
f 657 533 534
f 553 554 656
f 656 554 555
f 656 555 556
f 556 557 656
f 656 557 611
f 656 611 612
f 611 557 610
f 610 557 558
f 610 558 609
f 609 558 559
f 609 559 608
f 608 559 560
f 608 560 607
f 607 560 561
f 607 561 606
f 606 561 562
f 606 562 605
f 605 562 563
f 605 563 604
f 604 563 564
f 604 564 658
f 658 564 565
f 658 565 566
f 566 567 658
f 658 567 568
f 658 568 569
f 569 570 658
f 658 570 571
f 658 571 656
f 656 571 572
f 656 572 553
f 573 574 644
f 644 574 575
f 644 575 643
f 643 575 576
f 643 576 642
f 642 576 577
f 642 577 641
f 641 577 578
f 641 578 640
f 640 578 579
f 640 579 639
f 639 579 660
f 639 660 659
f 579 580 660
f 660 580 581
f 660 581 582
f 582 583 660
f 660 583 584
f 660 584 585
f 585 586 660
f 660 586 587
f 660 587 598
f 598 587 588
f 598 588 597
f 597 588 589
f 597 589 596
f 596 589 595
f 595 589 594
f 594 589 590
f 594 590 593
f 593 590 655
f 593 655 656
f 656 655 653
f 656 653 654
f 591 647 590
f 590 647 648
f 590 648 655
f 655 648 625
f 655 625 626
f 647 591 646
f 646 591 592
f 646 592 645
f 645 592 573
f 645 573 644
f 598 599 660
f 660 599 600
f 660 600 601
f 601 602 660
f 660 602 603
f 660 603 604
f 612 593 656
f 616 617 659
f 659 617 618
f 659 618 619
f 619 620 659
f 659 620 651
f 659 651 652
f 651 620 650
f 650 620 621
f 650 621 649
f 649 621 622
f 649 622 623
f 623 624 649
f 649 624 648
f 648 624 625
f 626 627 655
f 633 634 659
f 659 634 635
f 659 635 636
f 636 637 659
f 659 637 638
f 659 638 639
f 652 633 659
f 658 660 604
f 663 804 662
f 662 804 803
f 662 803 661
f 661 803 680
f 680 803 679
f 679 803 678
f 678 803 677
f 677 803 676
f 676 803 805
f 676 805 675
f 675 805 696
f 675 696 695
f 663 664 804
f 804 664 665
f 804 665 704
f 704 665 760
f 704 760 759
f 666 738 665
f 665 738 741
f 665 741 760
f 667 773 666
f 666 773 796
f 666 796 738
f 738 796 739
f 739 796 795
f 739 795 740
f 740 795 794
f 740 794 721
f 721 794 793
f 721 793 722
f 722 793 792
f 722 792 723
f 723 792 791
f 723 791 724
f 724 791 790
f 724 790 725
f 725 790 789
f 725 789 726
f 726 789 788
f 726 788 727
f 727 788 787
f 727 787 808
f 808 787 807
f 807 787 786
f 807 786 785
f 668 776 667
f 667 776 775
f 667 775 774
f 669 689 668
f 668 689 688
f 668 688 776
f 776 688 777
f 777 688 687
f 777 687 686
f 689 669 690
f 690 669 670
f 690 670 691
f 691 670 671
f 691 671 692
f 692 671 672
f 692 672 693
f 693 672 673
f 693 673 694
f 694 673 674
f 694 674 695
f 695 674 675
f 777 686 778
f 778 686 685
f 778 685 779
f 779 685 684
f 779 684 780
f 780 684 683
f 780 683 761
f 761 683 682
f 761 682 762
f 762 682 805
f 762 805 807
f 682 681 805
f 805 681 700
f 805 700 699
f 699 698 805
f 805 698 697
f 805 697 696
f 711 753 712
f 712 753 752
f 712 752 806
f 806 752 808
f 808 752 751
f 808 751 750
f 753 711 754
f 754 711 710
f 754 710 755
f 755 710 709
f 755 709 756
f 756 709 708
f 756 708 757
f 757 708 707
f 757 707 706
f 757 706 758
f 758 706 705
f 758 705 759
f 759 705 704
f 704 703 804
f 804 703 702
f 804 702 701
f 701 720 804
f 804 720 719
f 804 719 806
f 806 719 718
f 806 718 717
f 717 716 806
f 806 716 715
f 806 715 714
f 714 713 806
f 806 713 712
f 733 732 808
f 808 732 731
f 808 731 730
f 730 729 808
f 808 729 728
f 808 728 727
f 741 738 742
f 742 738 737
f 742 737 743
f 743 737 744
f 744 737 745
f 745 737 736
f 745 736 746
f 746 736 735
f 746 735 808
f 808 735 734
f 808 734 733
f 750 749 808
f 808 749 748
f 808 748 747
f 747 746 808
f 771 797 772
f 772 797 796
f 772 796 773
f 771 770 797
f 797 770 769
f 797 769 798
f 798 769 768
f 798 768 799
f 799 768 807
f 799 807 800
f 800 807 781
f 781 807 782
f 782 807 783
f 783 807 784
f 784 807 785
f 768 767 807
f 807 767 766
f 807 766 765
f 765 764 807
f 807 764 763
f 807 763 762
f 774 773 667
f 802 801 804
f 804 801 803

