# https://github.com/mikedh/trimesh

o Handle_1.stl
v -110.14819336 83.14716339 43.46123123
v -112.64819336 83.14716339 43.46123123
v -110.14819336 83.20107269 43.00000000
v -112.64819336 83.20107269 43.00000000
v -110.14819336 83.14716339 42.53876877
v -112.64819336 83.14716339 42.53876877
v -112.64819336 82.98833466 42.10240173
v -110.14819336 82.98833466 43.89759827
v -112.64819336 82.98833466 43.89759827
v -110.14819336 82.73316193 44.28557587
v -112.64819336 82.73316193 44.28557587
v -110.14819336 82.39538574 44.60424805
v -112.64819336 82.39538574 44.60424805
v -110.14819336 81.99323273 44.83643341
v -112.64819336 81.99323273 44.83643341
v -110.14819336 81.54836273 44.96961594
v -112.64819336 81.54836273 44.96961594
v -110.14819336 81.08477783 44.99661636
v -112.64819336 81.08477783 44.99661636
v -110.14819336 80.62746429 44.91597748
v -112.64819336 80.62746429 44.91597748
v -110.14819336 80.20107269 44.73205185
v -112.64819336 80.20107269 44.73205185
v -110.14819336 79.82859039 44.45474625
v -112.64819336 79.82859039 44.45474625
v -110.14819336 79.53009796 44.09901810
v -112.64819336 79.53009796 44.09901810
v -110.14819336 79.32168579 43.68404007
v -112.64819336 79.32168579 43.68404007
v -110.14819336 79.21459198 43.23218536
v -112.64819336 79.21459198 43.23218536
v -110.14819336 79.21459198 42.76781464
v -112.64819336 79.21459198 42.76781464
v -110.14819336 79.32168579 42.31595993
v -112.64819336 79.32168579 42.31595993
v -110.14819336 79.53009796 41.90098190
v -112.64819336 79.53009796 41.90098190
v -110.14819336 79.82859039 41.54525375
v -112.64819336 79.82859039 41.54525375
v -110.14819336 80.20107269 41.26794815
v -112.64819336 80.20107269 41.26794815
v -110.14819336 80.62746429 41.08402252
v -112.64819336 80.62746429 41.08402252
v -110.14819336 81.08477783 41.00338364
v -112.64819336 81.08477783 41.00338364
v -110.14819336 81.54836273 41.03038406
v -112.64819336 81.54836273 41.03038406
v -110.14819336 81.99323273 41.16356659
v -112.64819336 81.99323273 41.16356659
v -110.14819336 82.39538574 41.39575195
v -112.64819336 82.39538574 41.39575195
v -110.14819336 82.73316193 41.71442413
v -112.64819336 82.73316193 41.71442413
v -110.14819336 82.98833466 42.10240173
v -109.59428406 30.44726753 58.00000000
v -109.59428406 30.44726753 63.00000000
v -109.64819336 29.98603439 58.00000000
v -109.64819336 29.98603439 63.00000000
v -109.59428406 29.52480316 58.00000000
v -109.59428406 29.52480316 63.00000000
v -109.43546295 29.08843613 63.00000000
v -109.43546295 30.88363266 58.00000000
v -109.43546295 30.88363266 63.00000000
v -109.18028259 31.27161026 58.00000000
v -109.18028259 31.27161026 63.00000000
v -108.84251404 31.59028244 58.00000000
v -108.84251404 31.59028244 63.00000000
v -108.44035339 31.82246780 58.00000000
v -108.44035339 31.82246780 63.00000000
v -107.99549103 31.95565033 58.00000000
v -107.99549103 31.95565033 63.00000000
v -107.53190613 31.98265076 58.00000000
v -107.53190613 31.98265076 63.00000000
v -107.07459259 31.90201378 58.00000000
v -107.07459259 31.90201378 63.00000000
v -106.64819336 31.71808624 58.00000000
v -106.64819336 31.71808624 63.00000000
v -106.27571106 31.44078255 58.00000000
v -106.27571106 31.44078255 63.00000000
v -105.97721863 31.08505249 58.00000000
v -105.97721863 31.08505249 63.00000000
v -105.76881409 30.67007637 58.00000000
v -105.76881409 30.67007637 63.00000000
v -105.66172028 30.21822166 58.00000000
v -105.66172028 30.21822166 63.00000000
v -105.66172028 29.75384903 58.00000000
v -105.66172028 29.75384903 63.00000000
v -105.76881409 29.30199432 58.00000000
v -105.76881409 29.30199432 63.00000000
v -105.97721863 28.88701630 58.00000000
v -105.97721863 28.88701630 63.00000000
v -106.27571106 28.53128815 58.00000000
v -106.27571106 28.53128815 63.00000000
v -106.64819336 28.25398445 58.00000000
v -106.64819336 28.25398445 63.00000000
v -107.07459259 28.07005692 58.00000000
v -107.07459259 28.07005692 63.00000000
v -107.53190613 27.98941803 58.00000000
v -107.53190613 27.98941803 63.00000000
v -107.99549103 28.01642036 58.00000000
v -107.99549103 28.01642036 63.00000000
v -108.44035339 28.14960289 58.00000000
v -108.44035339 28.14960289 63.00000000
v -108.84251404 28.38178825 58.00000000
v -108.84251404 28.38178825 63.00000000
v -109.18028259 28.70046043 58.00000000
v -109.18028259 28.70046043 63.00000000
v -109.43546295 29.08843613 58.00000000
v -109.59428406 88.87733459 58.00000000
v -109.59428406 88.87733459 63.00000000
v -109.64819336 88.41610718 58.00000000
v -109.64819336 88.41610718 63.00000000
v -109.59428406 87.95487213 58.00000000
v -109.59428406 87.95487213 63.00000000
v -109.43546295 87.51850891 63.00000000
v -109.43546295 89.31370544 58.00000000
v -109.43546295 89.31370544 63.00000000
v -109.18028259 89.70168304 58.00000000
v -109.18028259 89.70168304 63.00000000
v -108.84251404 90.02034760 58.00000000
v -108.84251404 90.02034760 63.00000000
v -108.44035339 90.25254059 58.00000000
v -108.44035339 90.25254059 63.00000000
v -107.99549103 90.38571930 58.00000000
v -107.99549103 90.38571930 63.00000000
v -107.53190613 90.41271973 58.00000000
v -107.53190613 90.41271973 63.00000000
v -107.07459259 90.33208466 58.00000000
v -107.07459259 90.33208466 63.00000000
v -106.64819336 90.14815521 58.00000000
v -106.64819336 90.14815521 63.00000000
v -106.27571106 89.87084961 58.00000000
v -106.27571106 89.87084961 63.00000000
v -105.97721863 89.51512146 58.00000000
v -105.97721863 89.51512146 63.00000000
v -105.76881409 89.10014343 58.00000000
v -105.76881409 89.10014343 63.00000000
v -105.66172028 88.64829254 58.00000000
v -105.66172028 88.64829254 63.00000000
v -105.66172028 88.18392181 58.00000000
v -105.66172028 88.18392181 63.00000000
v -105.76881409 87.73206329 58.00000000
v -105.76881409 87.73206329 63.00000000
v -105.97721863 87.31708527 58.00000000
v -105.97721863 87.31708527 63.00000000
v -106.27571106 86.96135712 58.00000000
v -106.27571106 86.96135712 63.00000000
v -106.64819336 86.68405151 58.00000000
v -106.64819336 86.68405151 63.00000000
v -107.07459259 86.50012207 58.00000000
v -107.07459259 86.50012207 63.00000000
v -107.53190613 86.41948700 58.00000000
v -107.53190613 86.41948700 63.00000000
v -107.99549103 86.44648743 58.00000000
v -107.99549103 86.44648743 63.00000000
v -108.44035339 86.57967377 58.00000000
v -108.44035339 86.57967377 63.00000000
v -108.84251404 86.81185913 58.00000000
v -108.84251404 86.81185913 63.00000000
v -109.18028259 87.13053131 58.00000000
v -109.18028259 87.13053131 63.00000000
v -109.43546295 87.51850891 58.00000000
v -110.14819336 37.63226318 41.39076614
v -112.64819336 37.63226318 41.39076614
v -110.14819336 37.20106888 41.33399963
v -112.64819336 37.20106888 41.33399963
v -110.14819336 36.76987839 41.39076614
v -112.64819336 36.76987839 41.39076614
v -110.14819336 36.36806870 41.55720139
v -112.64819336 36.36806870 41.55720139
v -110.14819336 36.02302933 41.82196045
v -112.64819336 36.02302933 41.82196045
v -110.14819336 35.75827026 42.16699982
v -112.64819336 35.75827026 42.16699982
v -110.14819336 35.59183884 42.56880569
v -112.64819336 35.59183884 42.56880569
v -110.14819336 35.53506851 43.00000000
v -112.64819336 35.53506851 43.00000000
v -110.14819336 35.59183884 43.43119431
v -112.64819336 35.59183884 43.43119431
v -110.14819336 35.75827026 43.83300018
v -112.64819336 35.75827026 43.83300018
v -110.14819336 36.02302933 44.17803955
v -112.64819336 36.02302933 44.17803955
v -110.14819336 36.36806870 44.44279861
v -112.64819336 36.36806870 44.44279861
v -110.14819336 36.76987839 44.60923386
v -112.64819336 36.76987839 44.60923386
v -110.14819336 37.20106888 44.66600037
v -112.64819336 37.20106888 44.66600037
v -110.14819336 37.63226318 44.60923386
v -112.64819336 37.63226318 44.60923386
v -110.14819336 38.03406906 44.44279861
v -112.64819336 38.03406906 44.44279861
v -110.14819336 38.37910843 44.17803955
v -112.64819336 38.37910843 44.17803955
v -110.14819336 38.64386749 43.83300018
v -112.64819336 38.64386749 43.83300018
v -110.14819336 38.81030273 43.43119431
v -112.64819336 38.81030273 43.43119431
v -110.14819336 38.86706924 43.00000000
v -112.64819336 38.86706924 43.00000000
v -110.14819336 38.81030273 42.56880569
v -112.64819336 38.81030273 42.56880569
v -110.14819336 38.64386749 42.16699982
v -112.64819336 38.64386749 42.16699982
v -110.14819336 38.37910843 41.82196045
v -112.64819336 38.37910843 41.82196045
v -110.14819336 38.03406906 41.55720139
v -112.64819336 38.03406906 41.55720139
v -111.64819336 98.41610718 62.00000000
v -111.64819336 97.41610718 63.00000000
v -97.64819336 98.41610718 62.00000000
v -98.64819336 97.41610718 63.00000000
v -97.64819336 98.41610718 62.00000000
v -98.64819336 97.41610718 63.00000000
v -98.64819336 20.98603439 63.00000000
v -97.64819336 19.98603439 62.00000000
v -98.64819336 20.98603439 63.00000000
v -97.64819336 19.98603439 62.00000000
v -111.64819336 19.98603439 62.00000000
v -111.64819336 20.98603439 63.00000000
v -112.64819336 20.98603439 62.00000000
v -111.64819336 20.98603439 63.00000000
v -112.64819336 49.20106888 62.00000000
v -111.64819336 50.20106888 63.00000000
v -112.64819336 49.20106888 62.00000000
v -111.64819336 50.20106888 63.00000000
v -136.64819336 49.20106888 62.00000000
v -136.64819336 50.20106888 63.00000000
v -137.64819336 68.20107269 62.00000000
v -136.64819336 68.20107269 63.00000000
v -137.64819336 50.20106888 62.00000000
v -136.64819336 50.20106888 63.00000000
v -137.64819336 50.20106888 62.00000000
v -136.64819336 49.20106888 62.00000000
v -137.64819336 50.20106888 38.00000000
v -136.64819336 49.20106888 38.00000000
v -136.64819336 69.20107269 62.00000000
v -136.64819336 68.20107269 63.00000000
v -112.64819336 69.20107269 62.00000000
v -111.64819336 68.20107269 63.00000000
v -136.64819336 69.20107269 62.00000000
v -137.64819336 68.20107269 62.00000000
v -136.64819336 69.20107269 38.00000000
v -137.64819336 68.20107269 38.00000000
v -112.64819336 20.98603439 62.00000000
v -111.64819336 19.98603439 62.00000000
v -112.64819336 20.98603439 38.00000000
v -111.64819336 19.98603439 38.00000000
v -112.64819336 97.41610718 62.00000000
v -111.64819336 97.41610718 63.00000000
v -112.64819336 69.20107269 62.00000000
v -111.64819336 68.20107269 63.00000000
v -111.64819336 98.41610718 62.00000000
v -112.64819336 97.41610718 62.00000000
v -111.64819336 98.41610718 38.00000000
v -112.64819336 97.41610718 38.00000000
v -112.64819336 37.63226318 41.39076614
v -112.64819336 37.20106888 41.33399963
v -112.64819336 36.76987839 41.39076614
v -112.64819336 36.36806870 41.55720139
v -112.64819336 36.02302933 41.82196045
v -112.64819336 35.75827026 42.16699982
v -112.64819336 35.59183884 42.56880569
v -112.64819336 35.53506851 43.00000000
v -112.64819336 35.59183884 43.43119431
v -112.64819336 35.75827026 43.83300018
v -112.64819336 36.02302933 44.17803955
v -112.64819336 36.36806870 44.44279861
v -112.64819336 36.76987839 44.60923386
v -112.64819336 37.20106888 44.66600037
v -112.64819336 37.63226318 44.60923386
v -112.64819336 38.03406906 44.44279861
v -112.64819336 38.37910843 44.17803955
v -112.64819336 38.64386749 43.83300018
v -112.64819336 38.81030273 43.43119431
v -112.64819336 38.86706924 43.00000000
v -112.64819336 38.81030273 42.56880569
v -112.64819336 38.64386749 42.16699982
v -112.64819336 38.37910843 41.82196045
v -112.64819336 38.03406906 41.55720139
v -112.64819336 20.98603439 62.00000000
v -112.64819336 49.20106888 62.00000000
v -112.64819336 20.98603439 38.00000000
v -112.64819336 49.20106888 38.00000000
v -112.64819336 49.20106888 62.00000000
v -136.64819336 49.20106888 62.00000000
v -136.64819336 49.20106888 38.00000000
v -112.64819336 49.20106888 38.00000000
v -137.64819336 68.20107269 62.00000000
v -137.64819336 50.20106888 62.00000000
v -137.64819336 50.20106888 38.00000000
v -137.64819336 68.20107269 38.00000000
v -136.64819336 69.20107269 62.00000000
v -112.64819336 69.20107269 62.00000000
v -136.64819336 69.20107269 38.00000000
v -112.64819336 69.20107269 38.00000000
v -112.64819336 83.14716339 43.46123123
v -112.64819336 83.20107269 43.00000000
v -112.64819336 83.14716339 42.53876877
v -112.64819336 82.98833466 42.10240173
v -112.64819336 82.98833466 43.89759827
v -112.64819336 82.73316193 44.28557587
v -112.64819336 82.39538574 44.60424805
v -112.64819336 81.99323273 44.83643341
v -112.64819336 81.54836273 44.96961594
v -112.64819336 81.08477783 44.99661636
v -112.64819336 80.62746429 44.91597748
v -112.64819336 80.20107269 44.73205185
v -112.64819336 79.82859039 44.45474625
v -112.64819336 79.53009796 44.09901810
v -112.64819336 79.32168579 43.68404007
v -112.64819336 79.21459198 43.23218536
v -112.64819336 79.21459198 42.76781464
v -112.64819336 79.32168579 42.31595993
v -112.64819336 79.53009796 41.90098190
v -112.64819336 79.82859039 41.54525375
v -112.64819336 80.20107269 41.26794815
v -112.64819336 80.62746429 41.08402252
v -112.64819336 81.08477783 41.00338364
v -112.64819336 81.54836273 41.03038406
v -112.64819336 81.99323273 41.16356659
v -112.64819336 82.39538574 41.39575195
v -112.64819336 82.73316193 41.71442413
v -112.64819336 97.41610718 62.00000000
v -112.64819336 69.20107269 62.00000000
v -112.64819336 97.41610718 38.00000000
v -112.64819336 69.20107269 38.00000000
v -111.64819336 98.41610718 62.00000000
v -97.64819336 98.41610718 62.00000000
v -111.64819336 98.41610718 38.00000000
v -110.14819336 98.41610718 58.00000000
v -97.64819336 98.41610718 58.00000000
v -110.14819336 98.41610718 38.00000000
v -97.64819336 98.41610718 62.00000000
v -97.64819336 19.98603439 62.00000000
v -97.64819336 98.41610718 58.00000000
v -97.64819336 19.98603439 58.00000000
v -97.64819336 19.98603439 62.00000000
v -111.64819336 19.98603439 62.00000000
v -111.64819336 19.98603439 38.00000000
v -97.64819336 19.98603439 58.00000000
v -110.14819336 19.98603439 58.00000000
v -110.14819336 19.98603439 38.00000000
v -137.64819336 50.20106888 38.00000000
v -136.64819336 49.20106888 38.00000000
v -136.64819336 69.20107269 38.00000000
v -137.64819336 68.20107269 38.00000000
v -112.64819336 20.98603439 38.00000000
v -111.64819336 19.98603439 38.00000000
v -111.64819336 98.41610718 38.00000000
v -112.64819336 97.41610718 38.00000000
v -112.64819336 49.20106888 38.00000000
v -112.64819336 69.20107269 38.00000000
v -110.14819336 98.41610718 38.00000000
v -110.14819336 19.98603439 38.00000000
v -109.59428406 30.44726753 63.00000000
v -109.64819336 29.98603439 63.00000000
v -109.59428406 29.52480316 63.00000000
v -109.43546295 29.08843613 63.00000000
v -109.43546295 30.88363266 63.00000000
v -109.18028259 31.27161026 63.00000000
v -108.84251404 31.59028244 63.00000000
v -108.44035339 31.82246780 63.00000000
v -107.99549103 31.95565033 63.00000000
v -107.53190613 31.98265076 63.00000000
v -107.07459259 31.90201378 63.00000000
v -106.64819336 31.71808624 63.00000000
v -106.27571106 31.44078255 63.00000000
v -105.97721863 31.08505249 63.00000000
v -105.76881409 30.67007637 63.00000000
v -105.66172028 30.21822166 63.00000000
v -105.66172028 29.75384903 63.00000000
v -105.76881409 29.30199432 63.00000000
v -105.97721863 28.88701630 63.00000000
v -106.27571106 28.53128815 63.00000000
v -106.64819336 28.25398445 63.00000000
v -107.07459259 28.07005692 63.00000000
v -107.53190613 27.98941803 63.00000000
v -107.99549103 28.01642036 63.00000000
v -108.44035339 28.14960289 63.00000000
v -108.84251404 28.38178825 63.00000000
v -109.18028259 28.70046043 63.00000000
v -109.59428406 88.87733459 63.00000000
v -109.64819336 88.41610718 63.00000000
v -109.59428406 87.95487213 63.00000000
v -109.43546295 87.51850891 63.00000000
v -109.43546295 89.31370544 63.00000000
v -109.18028259 89.70168304 63.00000000
v -108.84251404 90.02034760 63.00000000
v -108.44035339 90.25254059 63.00000000
v -107.99549103 90.38571930 63.00000000
v -107.53190613 90.41271973 63.00000000
v -107.07459259 90.33208466 63.00000000
v -106.64819336 90.14815521 63.00000000
v -106.27571106 89.87084961 63.00000000
v -105.97721863 89.51512146 63.00000000
v -105.76881409 89.10014343 63.00000000
v -105.66172028 88.64829254 63.00000000
v -105.66172028 88.18392181 63.00000000
v -105.76881409 87.73206329 63.00000000
v -105.97721863 87.31708527 63.00000000
v -106.27571106 86.96135712 63.00000000
v -106.64819336 86.68405151 63.00000000
v -107.07459259 86.50012207 63.00000000
v -107.53190613 86.41948700 63.00000000
v -107.99549103 86.44648743 63.00000000
v -108.44035339 86.57967377 63.00000000
v -108.84251404 86.81185913 63.00000000
v -109.18028259 87.13053131 63.00000000
v -111.64819336 97.41610718 63.00000000
v -98.64819336 97.41610718 63.00000000
v -98.64819336 20.98603439 63.00000000
v -111.64819336 20.98603439 63.00000000
v -136.64819336 68.20107269 63.00000000
v -111.64819336 50.20106888 63.00000000
v -136.64819336 50.20106888 63.00000000
v -111.64819336 68.20107269 63.00000000
v -109.59428406 30.44726753 58.00000000
v -109.64819336 29.98603439 58.00000000
v -109.59428406 29.52480316 58.00000000
v -109.43546295 30.88363266 58.00000000
v -109.18028259 31.27161026 58.00000000
v -108.84251404 31.59028244 58.00000000
v -108.44035339 31.82246780 58.00000000
v -107.99549103 31.95565033 58.00000000
v -107.53190613 31.98265076 58.00000000
v -107.07459259 31.90201378 58.00000000
v -106.64819336 31.71808624 58.00000000
v -106.27571106 31.44078255 58.00000000
v -105.97721863 31.08505249 58.00000000
v -105.76881409 30.67007637 58.00000000
v -105.66172028 30.21822166 58.00000000
v -105.66172028 29.75384903 58.00000000
v -105.76881409 29.30199432 58.00000000
v -105.97721863 28.88701630 58.00000000
v -106.27571106 28.53128815 58.00000000
v -106.64819336 28.25398445 58.00000000
v -107.07459259 28.07005692 58.00000000
v -107.53190613 27.98941803 58.00000000
v -107.99549103 28.01642036 58.00000000
v -108.44035339 28.14960289 58.00000000
v -108.84251404 28.38178825 58.00000000
v -109.18028259 28.70046043 58.00000000
v -109.43546295 29.08843613 58.00000000
v -109.59428406 88.87733459 58.00000000
v -109.64819336 88.41610718 58.00000000
v -109.59428406 87.95487213 58.00000000
v -109.43546295 89.31370544 58.00000000
v -109.18028259 89.70168304 58.00000000
v -108.84251404 90.02034760 58.00000000
v -108.44035339 90.25254059 58.00000000
v -107.99549103 90.38571930 58.00000000
v -107.53190613 90.41271973 58.00000000
v -107.07459259 90.33208466 58.00000000
v -106.64819336 90.14815521 58.00000000
v -106.27571106 89.87084961 58.00000000
v -105.97721863 89.51512146 58.00000000
v -105.76881409 89.10014343 58.00000000
v -105.66172028 88.64829254 58.00000000
v -105.66172028 88.18392181 58.00000000
v -105.76881409 87.73206329 58.00000000
v -105.97721863 87.31708527 58.00000000
v -106.27571106 86.96135712 58.00000000
v -106.64819336 86.68405151 58.00000000
v -107.07459259 86.50012207 58.00000000
v -107.53190613 86.41948700 58.00000000
v -107.99549103 86.44648743 58.00000000
v -108.44035339 86.57967377 58.00000000
v -108.84251404 86.81185913 58.00000000
v -109.18028259 87.13053131 58.00000000
v -109.43546295 87.51850891 58.00000000
v -110.14819336 98.41610718 58.00000000
v -97.64819336 98.41610718 58.00000000
v -97.64819336 19.98603439 58.00000000
v -110.14819336 19.98603439 58.00000000
v -110.14819336 83.14716339 43.46123123
v -110.14819336 83.20107269 43.00000000
v -110.14819336 83.14716339 42.53876877
v -110.14819336 82.98833466 43.89759827
v -110.14819336 82.73316193 44.28557587
v -110.14819336 82.39538574 44.60424805
v -110.14819336 81.99323273 44.83643341
v -110.14819336 81.54836273 44.96961594
v -110.14819336 81.08477783 44.99661636
v -110.14819336 80.62746429 44.91597748
v -110.14819336 80.20107269 44.73205185
v -110.14819336 79.82859039 44.45474625
v -110.14819336 79.53009796 44.09901810
v -110.14819336 79.32168579 43.68404007
v -110.14819336 79.21459198 43.23218536
v -110.14819336 79.21459198 42.76781464
v -110.14819336 79.32168579 42.31595993
v -110.14819336 79.53009796 41.90098190
v -110.14819336 79.82859039 41.54525375
v -110.14819336 80.20107269 41.26794815
v -110.14819336 80.62746429 41.08402252
v -110.14819336 81.08477783 41.00338364
v -110.14819336 81.54836273 41.03038406
v -110.14819336 81.99323273 41.16356659
v -110.14819336 82.39538574 41.39575195
v -110.14819336 82.73316193 41.71442413
v -110.14819336 82.98833466 42.10240173
v -110.14819336 37.63226318 41.39076614
v -110.14819336 37.20106888 41.33399963
v -110.14819336 36.76987839 41.39076614
v -110.14819336 36.36806870 41.55720139
v -110.14819336 36.02302933 41.82196045
v -110.14819336 35.75827026 42.16699982
v -110.14819336 35.59183884 42.56880569
v -110.14819336 35.53506851 43.00000000
v -110.14819336 35.59183884 43.43119431
v -110.14819336 35.75827026 43.83300018
v -110.14819336 36.02302933 44.17803955
v -110.14819336 36.36806870 44.44279861
v -110.14819336 36.76987839 44.60923386
v -110.14819336 37.20106888 44.66600037
v -110.14819336 37.63226318 44.60923386
v -110.14819336 38.03406906 44.44279861
v -110.14819336 38.37910843 44.17803955
v -110.14819336 38.64386749 43.83300018
v -110.14819336 38.81030273 43.43119431
v -110.14819336 38.86706924 43.00000000
v -110.14819336 38.81030273 42.56880569
v -110.14819336 38.64386749 42.16699982
v -110.14819336 38.37910843 41.82196045
v -110.14819336 38.03406906 41.55720139
v -110.14819336 98.41610718 58.00000000
v -110.14819336 98.41610718 38.00000000
v -110.14819336 19.98603439 58.00000000
v -110.14819336 19.98603439 38.00000000
v -111.64819336 98.41610718 62.00000000
v -112.64819336 97.41610718 62.00000000
v -111.64819336 97.41610718 63.00000000
v -112.64819336 20.98603439 62.00000000
v -111.64819336 19.98603439 62.00000000
v -111.64819336 20.98603439 63.00000000
v -136.64819336 69.20107269 62.00000000
v -137.64819336 68.20107269 62.00000000
v -136.64819336 68.20107269 63.00000000
v -137.64819336 50.20106888 62.00000000
v -136.64819336 49.20106888 62.00000000
v -136.64819336 50.20106888 63.00000000
f 1 2 3
f 3 2 4
f 3 4 5
f 5 4 6
f 5 6 7
f 1 8 2
f 2 8 9
f 9 8 10
f 9 10 11
f 11 10 12
f 11 12 13
f 13 12 14
f 13 14 15
f 15 14 16
f 15 16 17
f 17 16 18
f 17 18 19
f 19 18 20
f 19 20 21
f 21 20 22
f 21 22 23
f 23 22 24
f 23 24 25
f 25 24 26
f 25 26 27
f 27 26 28
f 27 28 29
f 29 28 30
f 29 30 31
f 31 30 32
f 31 32 33
f 33 32 34
f 33 34 35
f 35 34 36
f 35 36 37
f 37 36 38
f 37 38 39
f 39 38 40
f 39 40 41
f 41 40 42
f 41 42 43
f 43 42 44
f 43 44 45
f 45 44 46
f 45 46 47
f 47 46 48
f 47 48 49
f 49 48 50
f 49 50 51
f 51 50 52
f 51 52 53
f 53 52 54
f 53 54 7
f 7 54 5
f 55 56 57
f 57 56 58
f 57 58 59
f 59 58 60
f 59 60 61
f 55 62 56
f 56 62 63
f 63 62 64
f 63 64 65
f 65 64 66
f 65 66 67
f 67 66 68
f 67 68 69
f 69 68 70
f 69 70 71
f 71 70 72
f 71 72 73
f 73 72 74
f 73 74 75
f 75 74 76
f 75 76 77
f 77 76 78
f 77 78 79
f 79 78 80
f 79 80 81
f 81 80 82
f 81 82 83
f 83 82 84
f 83 84 85
f 85 84 86
f 85 86 87
f 87 86 88
f 87 88 89
f 89 88 90
f 89 90 91
f 91 90 92
f 91 92 93
f 93 92 94
f 93 94 95
f 95 94 96
f 95 96 97
f 97 96 98
f 97 98 99
f 99 98 100
f 99 100 101
f 101 100 102
f 101 102 103
f 103 102 104
f 103 104 105
f 105 104 106
f 105 106 107
f 107 106 108
f 107 108 61
f 61 108 59
f 109 110 111
f 111 110 112
f 111 112 113
f 113 112 114
f 113 114 115
f 109 116 110
f 110 116 117
f 117 116 118
f 117 118 119
f 119 118 120
f 119 120 121
f 121 120 122
f 121 122 123
f 123 122 124
f 123 124 125
f 125 124 126
f 125 126 127
f 127 126 128
f 127 128 129
f 129 128 130
f 129 130 131
f 131 130 132
f 131 132 133
f 133 132 134
f 133 134 135
f 135 134 136
f 135 136 137
f 137 136 138
f 137 138 139
f 139 138 140
f 139 140 141
f 141 140 142
f 141 142 143
f 143 142 144
f 143 144 145
f 145 144 146
f 145 146 147
f 147 146 148
f 147 148 149
f 149 148 150
f 149 150 151
f 151 150 152
f 151 152 153
f 153 152 154
f 153 154 155
f 155 154 156
f 155 156 157
f 157 156 158
f 157 158 159
f 159 158 160
f 159 160 161
f 161 160 162
f 161 162 115
f 115 162 113
f 163 164 165
f 165 164 166
f 165 166 167
f 167 166 168
f 167 168 169
f 169 168 170
f 169 170 171
f 171 170 172
f 171 172 173
f 173 172 174
f 173 174 175
f 175 174 176
f 175 176 177
f 177 176 178
f 177 178 179
f 179 178 180
f 179 180 181
f 181 180 182
f 181 182 183
f 183 182 184
f 183 184 185
f 185 184 186
f 185 186 187
f 187 186 188
f 187 188 189
f 189 188 190
f 189 190 191
f 191 190 192
f 191 192 193
f 193 192 194
f 193 194 195
f 195 194 196
f 195 196 197
f 197 196 198
f 197 198 199
f 199 198 200
f 199 200 201
f 201 200 202
f 201 202 203
f 203 202 204
f 203 204 205
f 205 204 206
f 205 206 207
f 207 206 208
f 207 208 209
f 209 208 210
f 209 210 163
f 163 210 164
f 213 211 214
f 214 211 212
f 216 217 215
f 215 217 218
f 222 221 219
f 219 221 220
f 223 224 225
f 225 224 226
f 228 230 227
f 227 230 229
f 234 232 233
f 233 232 231
f 237 238 235
f 235 238 236
f 239 240 241
f 241 240 242
f 245 246 243
f 243 246 244
f 249 250 247
f 247 250 248
f 254 252 253
f 253 252 251
f 257 258 255
f 255 258 256
f 271 283 272
f 272 283 284
f 272 284 273
f 273 284 274
f 274 284 275
f 275 284 276
f 276 284 286
f 276 286 277
f 277 286 278
f 278 286 279
f 279 286 280
f 280 286 281
f 281 286 282
f 282 286 259
f 259 286 260
f 260 286 285
f 260 285 261
f 261 285 262
f 262 285 263
f 263 285 264
f 264 285 265
f 265 285 266
f 266 285 267
f 267 285 268
f 268 285 283
f 268 283 269
f 269 283 270
f 270 283 271
f 287 288 290
f 290 288 289
f 292 291 293
f 293 291 294
f 295 296 297
f 297 296 298
f 301 300 328
f 328 300 299
f 328 299 303
f 328 303 326
f 326 303 304
f 326 304 305
f 305 306 326
f 326 306 307
f 326 307 327
f 327 307 308
f 327 308 309
f 309 310 327
f 327 310 311
f 327 311 312
f 327 312 329
f 329 312 313
f 329 313 314
f 314 315 329
f 329 315 316
f 329 316 317
f 317 318 329
f 329 318 319
f 329 319 320
f 320 321 329
f 329 321 328
f 328 321 322
f 328 322 323
f 323 324 328
f 328 324 325
f 328 325 302
f 302 301 328
f 332 330 333
f 333 330 331
f 333 331 334
f 333 335 332
f 336 337 338
f 338 337 339
f 340 341 344
f 344 341 342
f 344 342 345
f 344 343 340
f 351 350 357
f 357 350 354
f 357 354 355
f 355 354 348
f 348 354 347
f 348 347 349
f 349 347 346
f 357 355 356
f 356 355 353
f 356 353 352
f 374 414 373
f 373 414 372
f 371 402 403
f 372 402 371
f 372 414 402
f 380 415 379
f 381 415 380
f 382 415 381
f 383 415 382
f 384 415 383
f 385 412 386
f 417 419 416
f 417 371 419
f 370 371 417
f 417 369 370
f 375 414 374
f 376 414 375
f 377 414 376
f 378 414 377
f 378 415 414
f 379 415 378
f 417 362 363
f 358 362 417
f 419 404 405
f 419 403 404
f 371 403 419
f 412 393 394
f 412 392 393
f 391 392 412
f 412 390 391
f 412 389 390
f 385 389 412
f 406 419 405
f 407 419 406
f 408 419 407
f 409 419 408
f 410 419 409
f 411 419 410
f 388 419 411
f 387 419 388
f 386 419 387
f 386 412 419
f 413 402 414
f 401 402 413
f 416 418 417
f 413 396 397
f 413 397 398
f 417 368 369
f 367 368 417
f 417 366 367
f 417 365 366
f 364 365 417
f 417 363 364
f 358 417 359
f 361 415 384
f 360 415 361
f 359 415 360
f 359 417 415
f 413 400 401
f 413 399 400
f 398 399 413
f 412 395 396
f 412 396 413
f 394 395 412
f 422 446 477
f 477 446 445
f 477 445 444
f 444 443 477
f 477 443 442
f 477 442 441
f 441 440 477
f 477 440 439
f 477 439 438
f 477 438 476
f 476 438 437
f 476 437 436
f 436 435 476
f 476 435 434
f 476 434 462
f 462 434 433
f 462 433 463
f 463 433 432
f 463 432 464
f 464 432 465
f 465 432 431
f 465 431 466
f 466 431 430
f 466 430 467
f 467 430 429
f 467 429 468
f 468 429 428
f 468 428 427
f 468 427 469
f 469 427 426
f 469 426 470
f 470 426 425
f 474 457 456
f 474 458 457
f 475 458 474
f 475 459 458
f 460 459 475
f 475 461 460
f 475 462 461
f 476 462 475
f 449 420 421
f 473 420 449
f 473 423 420
f 472 423 473
f 472 424 423
f 471 424 472
f 471 425 424
f 470 425 471
f 474 447 448
f 450 447 474
f 474 451 450
f 474 452 451
f 453 452 474
f 474 454 453
f 474 455 454
f 456 455 474
f 474 448 477
f 422 477 421
f 421 477 448
f 421 448 449
f 519 487 486
f 519 488 487
f 520 488 519
f 520 489 488
f 521 489 520
f 521 490 489
f 522 490 521
f 522 491 490
f 523 491 522
f 523 492 491
f 529 484 483
f 485 484 529
f 529 483 530
f 530 479 480
f 478 479 530
f 530 480 504
f 527 495 526
f 527 496 495
f 528 496 527
f 528 497 496
f 505 497 528
f 505 498 497
f 505 499 498
f 506 499 505
f 532 506 507
f 532 499 506
f 530 499 532
f 530 500 499
f 501 500 530
f 530 502 501
f 530 503 502
f 504 503 530
f 508 532 507
f 509 532 508
f 510 532 509
f 511 532 510
f 512 532 511
f 513 532 512
f 514 532 513
f 515 532 514
f 515 531 532
f 516 531 515
f 524 492 523
f 524 493 492
f 525 493 524
f 525 494 493
f 526 494 525
f 526 495 494
f 519 531 518
f 486 531 519
f 517 531 516
f 518 531 517
f 486 529 531
f 485 529 486
f 530 483 482
f 530 482 481
f 481 478 530
f 533 534 535
f 536 537 538
f 539 540 541
f 542 543 544

