# https://github.com/mikedh/trimesh

o HexNut_1.stl
v -78.00154877 59.54198456 7.87977743
v -78.00154877 59.54198456 14.37977695
v -78.01451874 59.22011948 7.87977743
v -78.01451874 59.22011948 14.37977695
v -78.00154877 58.89825058 7.87977743
v -78.00154877 58.89825058 14.37977695
v -77.96271515 58.57847214 7.87977743
v -77.96271515 58.57847214 14.37977695
v -77.89828491 58.26285553 7.87977743
v -77.89828491 58.26285553 14.37977695
v -77.80866241 57.95344543 7.87977743
v -77.80866241 57.95344543 14.37977695
v -77.69443512 57.65225220 7.87977743
v -77.69443512 57.65225220 14.37977695
v -77.55634308 57.36122513 7.87977743
v -77.55634308 57.36122513 14.37977695
v -77.39527893 57.08225632 7.87977743
v -77.39527893 57.08225632 14.37977695
v -77.21228790 56.81715012 7.87977743
v -77.21228790 56.81715012 14.37977695
v -77.00856018 56.56762695 7.87977743
v -77.00856018 56.56762695 14.37977695
v -76.78541565 56.33530807 7.87977743
v -76.78541565 56.33530807 14.37977695
v -76.54429626 56.12169647 7.87977743
v -76.54429626 56.12169647 14.37977695
v -76.28677368 55.92818451 7.87977743
v -76.28677368 55.92818451 14.37977695
v -76.01451874 55.75601578 7.87977743
v -76.01451874 55.75601578 14.37977695
v -75.72928619 55.60631561 7.87977743
v -75.72928619 55.60631561 14.37977695
v -75.43293762 55.48005295 7.87977743
v -75.43293762 55.48005295 14.37977695
v -75.12738800 55.37804413 7.87977743
v -75.12738800 55.37804413 14.37977695
v -74.81462097 55.30095673 7.87977743
v -74.81462097 55.30095673 14.37977695
v -74.49666595 55.24928284 7.87977743
v -74.49666595 55.24928284 14.37977695
v -74.17558289 55.22336197 7.87977743
v -74.17558289 55.22336197 14.37977695
v -73.85345459 55.22336197 7.87977743
v -73.85345459 55.22336197 14.37977695
v -73.53237152 55.24928284 7.87977743
v -73.53237152 55.24928284 14.37977695
v -73.21441650 55.30095673 7.87977743
v -73.21441650 55.30095673 14.37977695
v -72.90164948 55.37804413 7.87977743
v -72.90164948 55.37804413 14.37977695
v -72.59609985 55.48005295 7.87977743
v -72.59609985 55.48005295 14.37977695
v -72.29974365 55.60631561 7.87977743
v -72.29974365 55.60631561 14.37977695
v -72.01451874 55.75601578 7.87977743
v -72.01451874 55.75601578 14.37977695
v -71.74225616 55.92818451 7.87977743
v -71.74225616 55.92818451 14.37977695
v -71.48473358 56.12169647 7.87977743
v -71.48473358 56.12169647 14.37977695
v -71.24362183 56.33530807 7.87977743
v -71.24362183 56.33530807 14.37977695
v -71.02046967 56.56762695 7.87977743
v -71.02046967 56.56762695 14.37977695
v -70.81674194 56.81715012 7.87977743
v -70.81674194 56.81715012 14.37977695
v -70.63375854 57.08225632 7.87977743
v -70.63375854 57.08225632 14.37977695
v -70.47269440 57.36122513 7.87977743
v -70.47269440 57.36122513 14.37977695
v -70.33459473 57.65225220 7.87977743
v -70.33459473 57.65225220 14.37977695
v -70.22036743 57.95344543 7.87977743
v -70.22036743 57.95344543 14.37977695
v -70.13074493 58.26285553 7.87977743
v -70.13074493 58.26285553 14.37977695
v -70.06631470 58.57847214 7.87977743
v -70.06631470 58.57847214 14.37977695
v -70.02748871 58.89825058 7.87977743
v -70.02748871 58.89825058 14.37977695
v -70.01451874 59.22011948 7.87977743
v -70.01451874 59.22011948 14.37977695
v -70.02748871 59.54198456 7.87977743
v -70.02748871 59.54198456 14.37977695
v -70.06631470 59.86176300 7.87977743
v -70.06631470 59.86176300 14.37977695
v -70.13074493 60.17737961 7.87977743
v -70.13074493 60.17737961 14.37977695
v -70.22036743 60.48678970 7.87977743
v -70.22036743 60.48678970 14.37977695
v -70.33459473 60.78798294 7.87977743
v -70.33459473 60.78798294 14.37977695
v -70.47269440 61.07901001 7.87977743
v -70.47269440 61.07901001 14.37977695
v -70.63375854 61.35798264 7.87977743
v -70.63375854 61.35798264 14.37977695
v -70.81674194 61.62308884 7.87977743
v -70.81674194 61.62308884 14.37977695
v -71.02046967 61.87260818 7.87977743
v -71.02046967 61.87260818 14.37977695
v -71.24362183 62.10492706 7.87977743
v -71.24362183 62.10492706 14.37977695
v -71.48473358 62.31853867 7.87977743
v -71.48473358 62.31853867 14.37977695
v -71.74225616 62.51205444 7.87977743
v -71.74225616 62.51205444 14.37977695
v -72.01451874 62.68421936 7.87977743
v -72.01451874 62.68421936 14.37977695
v -72.29974365 62.83391953 7.87977743
v -72.29974365 62.83391953 14.37977695
v -72.59609985 62.96018219 7.87977743
v -72.59609985 62.96018219 14.37977695
v -72.90164948 63.06219101 7.87977743
v -72.90164948 63.06219101 14.37977695
v -73.21441650 63.13928223 7.87977743
v -73.21441650 63.13928223 14.37977695
v -73.53237152 63.19095230 7.87977743
v -73.53237152 63.19095230 14.37977695
v -73.85345459 63.21687317 7.87977743
v -73.85345459 63.21687317 14.37977695
v -74.17558289 63.21687317 7.87977743
v -74.17558289 63.21687317 14.37977695
v -74.49666595 63.19095230 7.87977743
v -74.49666595 63.19095230 14.37977695
v -74.81462097 63.13928223 7.87977743
v -74.81462097 63.13928223 14.37977695
v -75.12738800 63.06219101 7.87977743
v -75.12738800 63.06219101 14.37977695
v -75.43293762 62.96018219 7.87977743
v -75.43293762 62.96018219 14.37977695
v -75.72928619 62.83391953 7.87977743
v -75.72928619 62.83391953 14.37977695
v -76.01451874 62.68421936 7.87977743
v -76.01451874 62.68421936 14.37977695
v -76.28677368 62.51205444 7.87977743
v -76.28677368 62.51205444 14.37977695
v -76.54429626 62.31853867 7.87977743
v -76.54429626 62.31853867 14.37977695
v -76.78541565 62.10492706 7.87977743
v -76.78541565 62.10492706 14.37977695
v -77.00856018 61.87260818 7.87977743
v -77.00856018 61.87260818 14.37977695
v -77.21228790 61.62308884 7.87977743
v -77.21228790 61.62308884 14.37977695
v -77.39527893 61.35798264 7.87977743
v -77.39527893 61.35798264 14.37977695
v -77.55634308 61.07901001 7.87977743
v -77.55634308 61.07901001 14.37977695
v -77.69443512 60.78798294 7.87977743
v -77.69443512 60.78798294 14.37977695
v -77.80866241 60.48678970 7.87977743
v -77.80866241 60.48678970 14.37977695
v -77.89828491 60.17737961 7.87977743
v -77.89828491 60.17737961 14.37977695
v -77.96271515 59.86176300 7.87977743
v -77.96271515 59.86176300 14.37977695
v -74.01451874 51.71456528 13.79922104
v -74.24591827 51.84816360 13.87425709
v -74.01451874 51.71456528 8.46033382
v -74.24591827 51.84816360 8.38529682
v -74.47140503 51.97834778 13.94320297
v -74.47140503 51.97834778 8.31635094
v -74.69152832 52.10543823 14.00633621
v -74.69152832 52.10543823 8.25321865
v -74.90679932 52.22972488 14.06390381
v -74.90679932 52.22972488 8.19565105
v -75.11770630 52.35149384 14.11612797
v -75.11770630 52.35149384 8.14342690
v -75.32469940 52.47100067 14.16320515
v -75.32469940 52.47100067 8.09634876
v -75.72861481 52.70420074 14.24259663
v -75.72861481 52.70420074 8.01695824
v -76.12172699 52.93116379 14.30322552
v -76.50695038 53.15357208 14.34594536
v -76.88700867 53.37300110 14.37134838
v -77.26451874 53.59095383 14.37977695
v -77.64202118 53.80890656 14.37134838
v -78.80041504 54.47770309 8.01695824
v -78.02207947 54.02833176 14.34594536
v -78.40730286 54.25074005 14.30322552
v -78.80041504 54.47770309 14.24259663
v -79.20433044 54.71090698 8.09634876
v -79.20433044 54.71090698 14.16320515
v -79.41132355 54.83041382 8.14342690
v -79.41132355 54.83041382 14.11612797
v -79.62223053 54.95217896 8.19565105
v -79.62223053 54.95217896 14.06390381
v -79.83750153 55.07646942 8.25321865
v -79.83750153 55.07646942 14.00633621
v -80.05763245 55.20355606 8.31635094
v -80.05763245 55.20355606 13.94320297
v -80.28311920 55.33374405 8.38529682
v -80.28311920 55.33374405 13.87425709
v -80.51451874 55.46734238 8.46033382
v -80.51451874 55.46734238 13.79922104
v -76.12172699 52.93116379 7.95632935
v -78.40730286 54.25074005 7.95632935
v -76.50695038 53.15357208 7.91360855
v -78.02207947 54.02833176 7.91360855
v -76.88700867 53.37300110 7.88820648
v -77.64202118 53.80890656 7.88820648
v -77.26451874 53.59095383 7.87977743
v -74.01451874 51.71456528 13.79922104
v -74.01451874 51.71456528 8.46033382
v -67.51451874 55.46734238 13.79922104
v -67.74591827 55.33374405 13.87425709
v -67.51451874 55.46734238 8.46033382
v -67.74591827 55.33374405 8.38529682
v -67.97140503 55.20355606 13.94320297
v -67.97140503 55.20355606 8.31635094
v -68.19152832 55.07646942 14.00633621
v -68.19152832 55.07646942 8.25321865
v -68.40679932 54.95217896 14.06390381
v -68.40679932 54.95217896 8.19565105
v -68.61770630 54.83041382 14.11612797
v -68.61770630 54.83041382 8.14342690
v -68.82469940 54.71090698 14.16320515
v -68.82469940 54.71090698 8.09634876
v -69.22861481 54.47770309 14.24259663
v -69.22861481 54.47770309 8.01695824
v -69.62172699 54.25074005 14.30322552
v -70.00695038 54.02833176 14.34594536
v -70.38700867 53.80890656 14.37134838
v -70.76451874 53.59095383 14.37977695
v -71.14202118 53.37300110 14.37134838
v -72.30041504 52.70420074 8.01695824
v -71.52207947 53.15357208 14.34594536
v -71.90730286 52.93116379 14.30322552
v -72.30041504 52.70420074 14.24259663
v -72.70433044 52.47100067 8.09634876
v -72.70433044 52.47100067 14.16320515
v -72.91132355 52.35149384 8.14342690
v -72.91132355 52.35149384 14.11612797
v -73.12223053 52.22972488 8.19565105
v -73.12223053 52.22972488 14.06390381
v -73.33750153 52.10543823 8.25321865
v -73.33750153 52.10543823 14.00633621
v -73.55763245 51.97834778 8.31635094
v -73.55763245 51.97834778 13.94320297
v -73.78311920 51.84816360 8.38529682
v -73.78311920 51.84816360 13.87425709
v -69.62172699 54.25074005 7.95632935
v -71.90730286 52.93116379 7.95632935
v -70.00695038 54.02833176 7.91360855
v -71.52207947 53.15357208 7.91360855
v -70.38700867 53.80890656 7.88820648
v -71.14202118 53.37300110 7.88820648
v -70.76451874 53.59095383 7.87977743
v -67.51451874 55.46734238 13.79922104
v -67.51451874 55.46734238 8.46033382
v -67.51451874 62.97289658 13.79922104
v -67.51451874 62.70569992 13.87425709
v -67.51451874 62.97289658 8.46033382
v -67.51451874 62.70569992 8.38529682
v -67.51451874 62.44532776 13.94320297
v -67.51451874 62.44532776 8.31635094
v -67.51451874 62.19115067 14.00633621
v -67.51451874 62.19115067 8.25321865
v -67.51451874 61.94256973 14.06390381
v -67.51451874 61.94256973 8.19565105
v -67.51451874 61.69903564 14.11612797
v -67.51451874 61.69903564 8.14342690
v -67.51451874 61.46002579 14.16320515
v -67.51451874 61.46002579 8.09634876
v -67.51451874 60.99362183 14.24259663
v -67.51451874 60.99362183 8.01695824
v -67.51451874 60.53969193 14.30322552
v -67.51451874 60.09487915 14.34594536
v -67.51451874 59.65602493 14.37134838
v -67.51451874 59.22011948 14.37977695
v -67.51451874 58.78421021 14.37134838
v -67.51451874 57.44661713 8.01695824
v -67.51451874 58.34535599 14.34594536
v -67.51451874 57.90054321 14.30322552
v -67.51451874 57.44661713 14.24259663
v -67.51451874 56.98021317 8.09634876
v -67.51451874 56.98021317 14.16320515
v -67.51451874 56.74119949 8.14342690
v -67.51451874 56.74119949 14.11612797
v -67.51451874 56.49766541 8.19565105
v -67.51451874 56.49766541 14.06390381
v -67.51451874 56.24908829 8.25321865
v -67.51451874 56.24908829 14.00633621
v -67.51451874 55.99490738 8.31635094
v -67.51451874 55.99490738 13.94320297
v -67.51451874 55.73453903 8.38529682
v -67.51451874 55.73453903 13.87425709
v -67.51451874 60.53969193 7.95632935
v -67.51451874 57.90054321 7.95632935
v -67.51451874 60.09487915 7.91360855
v -67.51451874 58.34535599 7.91360855
v -67.51451874 59.65602493 7.88820648
v -67.51451874 58.78421021 7.88820648
v -67.51451874 59.22011948 7.87977743
v -67.51451874 62.97289658 13.79922104
v -67.51451874 62.97289658 8.46033382
v -74.01451874 66.72566986 13.79922104
v -73.78311920 66.59207153 13.87425709
v -74.01451874 66.72566986 8.46033382
v -73.78311920 66.59207153 8.38529682
v -73.55763245 66.46189117 13.94320297
v -73.55763245 66.46189117 8.31635094
v -73.33750153 66.33480072 14.00633621
v -73.33750153 66.33480072 8.25321865
v -73.12223053 66.21051025 14.06390381
v -73.12223053 66.21051025 8.19565105
v -72.91132355 66.08874512 14.11612797
v -72.91132355 66.08874512 8.14342690
v -72.70433044 65.96923828 14.16320515
v -72.70433044 65.96923828 8.09634876
v -72.30041504 65.73603821 14.24259663
v -72.30041504 65.73603821 8.01695824
v -71.90730286 65.50907135 14.30322552
v -71.52207947 65.28666687 14.34594536
v -71.14202118 65.06723785 14.37134838
v -70.76451874 64.84928131 14.37977695
v -70.38700867 64.63133240 14.37134838
v -69.22861481 63.96253204 8.01695824
v -70.00695038 64.41190338 14.34594536
v -69.62172699 64.18949890 14.30322552
v -69.22861481 63.96253204 14.24259663
v -68.82469940 63.72932816 8.09634876
v -68.82469940 63.72932816 14.16320515
v -68.61770630 63.60982513 8.14342690
v -68.61770630 63.60982513 14.11612797
v -68.40679932 63.48805618 8.19565105
v -68.40679932 63.48805618 14.06390381
v -68.19152832 63.36376572 8.25321865
v -68.19152832 63.36376572 14.00633621
v -67.97140503 63.23667908 8.31635094
v -67.97140503 63.23667908 13.94320297
v -67.74591827 63.10649490 8.38529682
v -67.74591827 63.10649490 13.87425709
v -71.90730286 65.50907135 7.95632935
v -69.62172699 64.18949890 7.95632935
v -71.52207947 65.28666687 7.91360855
v -70.00695038 64.41190338 7.91360855
v -71.14202118 65.06723785 7.88820648
v -70.38700867 64.63133240 7.88820648
v -70.76451874 64.84928131 7.87977743
v -74.01451874 66.72566986 13.79922104
v -74.01451874 66.72566986 8.46033382
v -80.51451874 62.97289658 13.79922104
v -80.28311920 63.10649490 13.87425709
v -80.51451874 62.97289658 8.46033382
v -80.28311920 63.10649490 8.38529682
v -80.05763245 63.23667908 13.94320297
v -80.05763245 63.23667908 8.31635094
v -79.83750153 63.36376572 14.00633621
v -79.83750153 63.36376572 8.25321865
v -79.62223053 63.48805618 14.06390381
v -79.62223053 63.48805618 8.19565105
v -79.41132355 63.60982513 14.11612797
v -79.41132355 63.60982513 8.14342690
v -79.20433044 63.72932816 14.16320515
v -79.20433044 63.72932816 8.09634876
v -78.80041504 63.96253204 14.24259663
v -78.80041504 63.96253204 8.01695824
v -78.40730286 64.18949890 14.30322552
v -78.02207947 64.41190338 14.34594536
v -77.64202118 64.63133240 14.37134838
v -77.26451874 64.84928131 14.37977695
v -76.88700867 65.06723785 14.37134838
v -75.72861481 65.73603821 8.01695824
v -76.50695038 65.28666687 14.34594536
v -76.12172699 65.50907135 14.30322552
v -75.72861481 65.73603821 14.24259663
v -75.32469940 65.96923828 8.09634876
v -75.32469940 65.96923828 14.16320515
v -75.11770630 66.08874512 8.14342690
v -75.11770630 66.08874512 14.11612797
v -74.90679932 66.21051025 8.19565105
v -74.90679932 66.21051025 14.06390381
v -74.69152832 66.33480072 8.25321865
v -74.69152832 66.33480072 14.00633621
v -74.47140503 66.46189117 8.31635094
v -74.47140503 66.46189117 13.94320297
v -74.24591827 66.59207153 8.38529682
v -74.24591827 66.59207153 13.87425709
v -78.40730286 64.18949890 7.95632935
v -76.12172699 65.50907135 7.95632935
v -78.02207947 64.41190338 7.91360855
v -76.50695038 65.28666687 7.91360855
v -77.64202118 64.63133240 7.88820648
v -76.88700867 65.06723785 7.88820648
v -77.26451874 64.84928131 7.87977743
v -80.51451874 55.46734238 8.46033382
v -80.51451874 55.46734238 13.79922104
v -80.51451874 62.97289658 13.79922104
v -80.51451874 62.97289658 8.46033382
v -80.51451874 55.73453903 13.87425709
v -80.51451874 55.73453903 8.38529682
v -80.51451874 55.99490738 13.94320297
v -80.51451874 55.99490738 8.31635094
v -80.51451874 56.24908829 14.00633621
v -80.51451874 56.24908829 8.25321865
v -80.51451874 56.49766541 14.06390381
v -80.51451874 56.49766541 8.19565105
v -80.51451874 56.74119949 14.11612797
v -80.51451874 56.74119949 8.14342690
v -80.51451874 56.98021317 14.16320515
v -80.51451874 56.98021317 8.09634876
v -80.51451874 57.44661713 14.24259663
v -80.51451874 57.44661713 8.01695824
v -80.51451874 57.90054321 14.30322552
v -80.51451874 58.34535599 14.34594536
v -80.51451874 58.78421021 14.37134838
v -80.51451874 59.22011948 14.37977695
v -80.51451874 59.65602493 14.37134838
v -80.51451874 60.99362183 8.01695824
v -80.51451874 60.09487915 14.34594536
v -80.51451874 60.53969193 14.30322552
v -80.51451874 60.99362183 14.24259663
v -80.51451874 61.46002579 8.09634876
v -80.51451874 61.46002579 14.16320515
v -80.51451874 61.69903564 8.14342690
v -80.51451874 61.69903564 14.11612797
v -80.51451874 61.94256973 8.19565105
v -80.51451874 61.94256973 14.06390381
v -80.51451874 62.19115067 8.25321865
v -80.51451874 62.19115067 14.00633621
v -80.51451874 62.44532776 8.31635094
v -80.51451874 62.44532776 13.94320297
v -80.51451874 62.70569992 8.38529682
v -80.51451874 62.70569992 13.87425709
v -80.51451874 57.90054321 7.95632935
v -80.51451874 60.53969193 7.95632935
v -80.51451874 58.34535599 7.91360855
v -80.51451874 60.09487915 7.91360855
v -80.51451874 58.78421021 7.88820648
v -80.51451874 59.65602493 7.88820648
v -80.51451874 59.22011948 7.87977743
v -78.80041504 54.47770309 8.01695824
v -79.20433044 54.71090698 8.09634876
v -79.41132355 54.83041382 8.14342690
v -79.62223053 54.95217896 8.19565105
v -79.83750153 55.07646942 8.25321865
v -80.05763245 55.20355606 8.31635094
v -80.28311920 55.33374405 8.38529682
v -80.51451874 55.46734238 8.46033382
v -78.40730286 54.25074005 7.95632935
v -78.02207947 54.02833176 7.91360855
v -77.64202118 53.80890656 7.88820648
v -77.26451874 53.59095383 7.87977743
v -80.51451874 55.73453903 8.38529682
v -80.51451874 55.99490738 8.31635094
v -80.51451874 56.24908829 8.25321865
v -80.51451874 56.49766541 8.19565105
v -80.51451874 56.74119949 8.14342690
v -80.51451874 56.98021317 8.09634876
v -80.51451874 57.44661713 8.01695824
v -80.51451874 57.90054321 7.95632935
v -80.51451874 58.34535599 7.91360855
v -80.51451874 58.78421021 7.88820648
v -80.51451874 59.22011948 7.87977743
v -77.60488892 53.80170441 7.87977743
v -77.93164062 54.03300476 7.87977743
v -78.24353790 54.28398514 7.87977743
v -78.53938293 54.55369186 7.87977743
v -78.81807709 54.84109497 7.87977743
v -79.07853699 55.14511490 7.87977743
v -79.31979370 55.46458817 7.87977743
v -79.54092407 55.79830933 7.87977743
v -79.74109650 56.14500809 7.87977743
v -79.91954041 56.50337601 7.87977743
v -80.07558441 56.87204742 7.87977743
v -80.20864105 57.24962616 7.87977743
v -80.31819916 57.63467789 7.87977743
v -80.40383911 58.02574539 7.87977743
v -80.46524811 58.42134476 7.87977743
v -80.50218964 58.81997299 7.87977743
v -74.01451874 51.71456528 8.46033382
v -74.24591827 51.84816360 8.38529682
v -74.47140503 51.97834778 8.31635094
v -74.69152832 52.10543823 8.25321865
v -74.90679932 52.22972488 8.19565105
v -75.11770630 52.35149384 8.14342690
v -75.32469940 52.47100067 8.09634876
v -75.72861481 52.70420074 8.01695824
v -76.12172699 52.93116379 7.95632935
v -76.50695038 53.15357208 7.91360855
v -76.88700867 53.37300110 7.88820648
v -77.26451874 53.59095383 7.87977743
v -72.30041504 52.70420074 8.01695824
v -72.70433044 52.47100067 8.09634876
v -72.91132355 52.35149384 8.14342690
v -73.12223053 52.22972488 8.19565105
v -73.33750153 52.10543823 8.25321865
v -73.55763245 51.97834778 8.31635094
v -73.78311920 51.84816360 8.38529682
v -71.90730286 52.93116379 7.95632935
v -71.52207947 53.15357208 7.91360855
v -71.14202118 53.37300110 7.88820648
v -70.76451874 53.59095383 7.87977743
v -76.91181183 53.40155792 7.87977743
v -71.11721802 53.40155792 7.87977743
v -71.48091125 53.23423386 7.87977743
v -71.85420990 53.08961487 7.87977743
v -72.23570251 52.96825027 7.87977743
v -72.62394714 52.87060547 7.87977743
v -73.01747131 52.79704285 7.87977743
v -73.41477203 52.74784470 7.87977743
v -73.81434631 52.72320175 7.87977743
v -74.21468353 52.72320175 7.87977743
v -74.61425781 52.74784470 7.87977743
v -75.01155853 52.79704285 7.87977743
v -75.40508270 52.87060547 7.87977743
v -75.79332733 52.96825027 7.87977743
v -76.17481995 53.08961487 7.87977743
v -76.54812622 53.23423386 7.87977743
v -67.51451874 55.46734238 8.46033382
v -67.74591827 55.33374405 8.38529682
v -67.97140503 55.20355606 8.31635094
v -68.19152832 55.07646942 8.25321865
v -68.40679932 54.95217896 8.19565105
v -68.61770630 54.83041382 8.14342690
v -68.82469940 54.71090698 8.09634876
v -69.22861481 54.47770309 8.01695824
v -69.62172699 54.25074005 7.95632935
v -70.00695038 54.02833176 7.91360855
v -70.38700867 53.80890656 7.88820648
v -70.76451874 53.59095383 7.87977743
v -67.51451874 57.44661713 8.01695824
v -67.51451874 56.98021317 8.09634876
v -67.51451874 56.74119949 8.14342690
v -67.51451874 56.49766541 8.19565105
v -67.51451874 56.24908829 8.25321865
v -67.51451874 55.99490738 8.31635094
v -67.51451874 55.73453903 8.38529682
v -67.51451874 57.90054321 7.95632935
v -67.51451874 58.34535599 7.91360855
v -67.51451874 58.78421021 7.88820648
v -67.51451874 59.22011948 7.87977743
v -67.52684784 58.81997299 7.87977743
v -67.56378174 58.42134476 7.87977743
v -67.62519073 58.02574539 7.87977743
v -67.71083832 57.63467789 7.87977743
v -67.82039642 57.24962616 7.87977743
v -67.95344543 56.87204742 7.87977743
v -68.10948944 56.50337601 7.87977743
v -68.28793335 56.14500809 7.87977743
v -68.48810577 55.79830933 7.87977743
v -68.70923615 55.46458817 7.87977743
v -68.95049286 55.14511490 7.87977743
v -69.21096039 54.84109497 7.87977743
v -69.48964691 54.55369186 7.87977743
v -69.78549957 54.28398514 7.87977743
v -70.09738922 54.03300476 7.87977743
v -70.42414093 53.80170441 7.87977743
v -67.51451874 62.97289658 8.46033382
v -67.51451874 62.70569992 8.38529682
v -67.51451874 62.44532776 8.31635094
v -67.51451874 62.19115067 8.25321865
v -67.51451874 61.94256973 8.19565105
v -67.51451874 61.69903564 8.14342690
v -67.51451874 61.46002579 8.09634876
v -67.51451874 60.99362183 8.01695824
v -67.51451874 60.53969193 7.95632935
v -67.51451874 60.09487915 7.91360855
v -67.51451874 59.65602493 7.88820648
v -67.51451874 59.22011948 7.87977743
v -69.22861481 63.96253204 8.01695824
v -68.82469940 63.72932816 8.09634876
v -68.61770630 63.60982513 8.14342690
v -68.40679932 63.48805618 8.19565105
v -68.19152832 63.36376572 8.25321865
v -67.97140503 63.23667908 8.31635094
v -67.74591827 63.10649490 8.38529682
v -69.62172699 64.18949890 7.95632935
v -70.00695038 64.41190338 7.91360855
v -70.38700867 64.63133240 7.88820648
v -70.76451874 64.84928131 7.87977743
v -70.42414093 64.63853455 7.87977743
v -70.09738922 64.40722656 7.87977743
v -69.78549957 64.15625000 7.87977743
v -69.48964691 63.88654709 7.87977743
v -69.21096039 63.59914017 7.87977743
v -68.95049286 63.29512405 7.87977743
v -68.70923615 62.97564697 7.87977743
v -68.48810577 62.64192581 7.87977743
v -68.28793335 62.29522705 7.87977743
v -68.10948944 61.93685913 7.87977743
v -67.95344543 61.56818771 7.87977743
v -67.82039642 61.19060898 7.87977743
v -67.71083832 60.80555725 7.87977743
v -67.62519073 60.41448975 7.87977743
v -67.56378174 60.01889038 7.87977743
v -67.52684784 59.62026215 7.87977743
v -74.01451874 66.72566986 8.46033382
v -73.78311920 66.59207153 8.38529682
v -73.55763245 66.46189117 8.31635094
v -73.33750153 66.33480072 8.25321865
v -73.12223053 66.21051025 8.19565105
v -72.91132355 66.08874512 8.14342690
v -72.70433044 65.96923828 8.09634876
v -72.30041504 65.73603821 8.01695824
v -71.90730286 65.50907135 7.95632935
v -71.52207947 65.28666687 7.91360855
v -71.14202118 65.06723785 7.88820648
v -70.76451874 64.84928131 7.87977743
v -75.72861481 65.73603821 8.01695824
v -75.32469940 65.96923828 8.09634876
v -75.11770630 66.08874512 8.14342690
v -74.90679932 66.21051025 8.19565105
v -74.69152832 66.33480072 8.25321865
v -74.47140503 66.46189117 8.31635094
v -74.24591827 66.59207153 8.38529682
v -76.12172699 65.50907135 7.95632935
v -76.50695038 65.28666687 7.91360855
v -76.88700867 65.06723785 7.88820648
v -77.26451874 64.84928131 7.87977743
v -76.91181183 65.03868103 7.87977743
v -76.54812622 65.20600128 7.87977743
v -76.17481995 65.35062408 7.87977743
v -75.79332733 65.47198486 7.87977743
v -75.40508270 65.56963348 7.87977743
v -75.01155853 65.64319611 7.87977743
v -74.61425781 65.69239044 7.87977743
v -74.21468353 65.71703339 7.87977743
v -73.81434631 65.71703339 7.87977743
v -73.41477203 65.69239044 7.87977743
v -73.01747131 65.64319611 7.87977743
v -72.62394714 65.56963348 7.87977743
v -72.23570251 65.47198486 7.87977743
v -71.85420990 65.35062408 7.87977743
v -71.48091125 65.20600128 7.87977743
v -71.11721802 65.03868103 7.87977743
v -80.51451874 62.97289658 8.46033382
v -80.28311920 63.10649490 8.38529682
v -80.05763245 63.23667908 8.31635094
v -79.83750153 63.36376572 8.25321865
v -79.62223053 63.48805618 8.19565105
v -79.41132355 63.60982513 8.14342690
v -79.20433044 63.72932816 8.09634876
v -78.80041504 63.96253204 8.01695824
v -78.40730286 64.18949890 7.95632935
v -78.02207947 64.41190338 7.91360855
v -77.64202118 64.63133240 7.88820648
v -77.26451874 64.84928131 7.87977743
v -80.51451874 60.99362183 8.01695824
v -80.51451874 61.46002579 8.09634876
v -80.51451874 61.69903564 8.14342690
v -80.51451874 61.94256973 8.19565105
v -80.51451874 62.19115067 8.25321865
v -80.51451874 62.44532776 8.31635094
v -80.51451874 62.70569992 8.38529682
v -80.51451874 60.53969193 7.95632935
v -80.51451874 60.09487915 7.91360855
v -80.51451874 59.65602493 7.88820648
v -80.51451874 59.22011948 7.87977743
v -80.50218964 59.62026215 7.87977743
v -80.46524811 60.01889038 7.87977743
v -80.40383911 60.41448975 7.87977743
v -80.31819916 60.80555725 7.87977743
v -80.20864105 61.19060898 7.87977743
v -80.07558441 61.56818771 7.87977743
v -79.91954041 61.93685913 7.87977743
v -79.74109650 62.29522705 7.87977743
v -79.54092407 62.64192581 7.87977743
v -79.31979370 62.97564697 7.87977743
v -79.07853699 63.29512405 7.87977743
v -78.81807709 63.59914017 7.87977743
v -78.53938293 63.88654709 7.87977743
v -78.24353790 64.15625000 7.87977743
v -77.93164062 64.40722656 7.87977743
v -77.60488892 64.63853455 7.87977743
v -77.26451874 53.59095383 14.37977695
v -77.64202118 53.80890656 14.37134838
v -78.02207947 54.02833176 14.34594536
v -78.40730286 54.25074005 14.30322552
v -78.80041504 54.47770309 14.24259663
v -79.20433044 54.71090698 14.16320515
v -79.41132355 54.83041382 14.11612797
v -79.62223053 54.95217896 14.06390381
v -79.83750153 55.07646942 14.00633621
v -80.05763245 55.20355606 13.94320297
v -80.28311920 55.33374405 13.87425709
v -80.51451874 55.46734238 13.79922104
v -80.51451874 55.73453903 13.87425709
v -80.51451874 55.99490738 13.94320297
v -80.51451874 56.24908829 14.00633621
v -80.51451874 56.49766541 14.06390381
v -80.51451874 56.74119949 14.11612797
v -80.51451874 56.98021317 14.16320515
v -80.51451874 57.44661713 14.24259663
v -80.51451874 57.90054321 14.30322552
v -80.51451874 58.34535599 14.34594536
v -80.51451874 58.78421021 14.37134838
v -80.51451874 59.22011948 14.37977695
v -80.50218964 58.81997299 14.37977695
v -80.46524811 58.42134476 14.37977695
v -80.40383911 58.02574539 14.37977695
v -80.31819916 57.63467789 14.37977695
v -80.20864105 57.24962616 14.37977695
v -80.07558441 56.87204742 14.37977695
v -79.91954041 56.50337601 14.37977695
v -79.74109650 56.14500809 14.37977695
v -79.54092407 55.79830933 14.37977695
v -79.31979370 55.46458817 14.37977695
v -79.07853699 55.14511490 14.37977695
v -78.81807709 54.84109497 14.37977695
v -78.53938293 54.55369186 14.37977695
v -78.24353790 54.28398514 14.37977695
v -77.93164062 54.03300476 14.37977695
v -77.60488892 53.80170441 14.37977695
v -74.01451874 51.71456528 13.79922104
v -74.24591827 51.84816360 13.87425709
v -74.47140503 51.97834778 13.94320297
v -74.69152832 52.10543823 14.00633621
v -74.90679932 52.22972488 14.06390381
v -75.11770630 52.35149384 14.11612797
v -75.32469940 52.47100067 14.16320515
v -75.72861481 52.70420074 14.24259663
v -76.12172699 52.93116379 14.30322552
v -76.50695038 53.15357208 14.34594536
v -76.88700867 53.37300110 14.37134838
v -77.26451874 53.59095383 14.37977695
v -70.76451874 53.59095383 14.37977695
v -71.14202118 53.37300110 14.37134838
v -71.52207947 53.15357208 14.34594536
v -71.90730286 52.93116379 14.30322552
v -72.30041504 52.70420074 14.24259663
v -72.70433044 52.47100067 14.16320515
v -72.91132355 52.35149384 14.11612797
v -73.12223053 52.22972488 14.06390381
v -73.33750153 52.10543823 14.00633621
v -73.55763245 51.97834778 13.94320297
v -73.78311920 51.84816360 13.87425709
v -76.91181183 53.40155792 14.37977695
v -76.54812622 53.23423386 14.37977695
v -76.17481995 53.08961487 14.37977695
v -75.79332733 52.96825027 14.37977695
v -75.40508270 52.87060547 14.37977695
v -75.01155853 52.79704285 14.37977695
v -74.61425781 52.74784470 14.37977695
v -74.21468353 52.72320175 14.37977695
v -73.81434631 52.72320175 14.37977695
v -73.41477203 52.74784470 14.37977695
v -73.01747131 52.79704285 14.37977695
v -72.62394714 52.87060547 14.37977695
v -72.23570251 52.96825027 14.37977695
v -71.85420990 53.08961487 14.37977695
v -71.48091125 53.23423386 14.37977695
v -71.11721802 53.40155792 14.37977695
v -67.51451874 55.46734238 13.79922104
v -67.74591827 55.33374405 13.87425709
v -67.97140503 55.20355606 13.94320297
v -68.19152832 55.07646942 14.00633621
v -68.40679932 54.95217896 14.06390381
v -68.61770630 54.83041382 14.11612797
v -68.82469940 54.71090698 14.16320515
v -69.22861481 54.47770309 14.24259663
v -69.62172699 54.25074005 14.30322552
v -70.00695038 54.02833176 14.34594536
v -70.38700867 53.80890656 14.37134838
v -70.76451874 53.59095383 14.37977695
v -67.51451874 59.22011948 14.37977695
v -67.51451874 58.78421021 14.37134838
v -67.51451874 58.34535599 14.34594536
v -67.51451874 57.90054321 14.30322552
v -67.51451874 57.44661713 14.24259663
v -67.51451874 56.98021317 14.16320515
v -67.51451874 56.74119949 14.11612797
v -67.51451874 56.49766541 14.06390381
v -67.51451874 56.24908829 14.00633621
v -67.51451874 55.99490738 13.94320297
v -67.51451874 55.73453903 13.87425709
v -70.42414093 53.80170441 14.37977695
v -70.09738922 54.03300476 14.37977695
v -69.78549957 54.28398514 14.37977695
v -69.48964691 54.55369186 14.37977695
v -69.21096039 54.84109497 14.37977695
v -68.95049286 55.14511490 14.37977695
v -68.70923615 55.46458817 14.37977695
v -68.48810577 55.79830933 14.37977695
v -68.28793335 56.14500809 14.37977695
v -68.10948944 56.50337601 14.37977695
v -67.95344543 56.87204742 14.37977695
v -67.82039642 57.24962616 14.37977695
v -67.71083832 57.63467789 14.37977695
v -67.62519073 58.02574539 14.37977695
v -67.56378174 58.42134476 14.37977695
v -67.52684784 58.81997299 14.37977695
v -67.51451874 62.97289658 13.79922104
v -67.51451874 62.70569992 13.87425709
v -67.51451874 62.44532776 13.94320297
v -67.51451874 62.19115067 14.00633621
v -67.51451874 61.94256973 14.06390381
v -67.51451874 61.69903564 14.11612797
v -67.51451874 61.46002579 14.16320515
v -67.51451874 60.99362183 14.24259663
v -67.51451874 60.53969193 14.30322552
v -67.51451874 60.09487915 14.34594536
v -67.51451874 59.65602493 14.37134838
v -67.51451874 59.22011948 14.37977695
v -70.76451874 64.84928131 14.37977695
v -70.38700867 64.63133240 14.37134838
v -70.00695038 64.41190338 14.34594536
v -69.62172699 64.18949890 14.30322552
v -69.22861481 63.96253204 14.24259663
v -68.82469940 63.72932816 14.16320515
v -68.61770630 63.60982513 14.11612797
v -68.40679932 63.48805618 14.06390381
v -68.19152832 63.36376572 14.00633621
v -67.97140503 63.23667908 13.94320297
v -67.74591827 63.10649490 13.87425709
v -67.52684784 59.62026215 14.37977695
v -67.56378174 60.01889038 14.37977695
v -67.62519073 60.41448975 14.37977695
v -67.71083832 60.80555725 14.37977695
v -67.82039642 61.19060898 14.37977695
v -67.95344543 61.56818771 14.37977695
v -68.10948944 61.93685913 14.37977695
v -68.28793335 62.29522705 14.37977695
v -68.48810577 62.64192581 14.37977695
v -68.70923615 62.97564697 14.37977695
v -68.95049286 63.29512405 14.37977695
v -69.21096039 63.59914017 14.37977695
v -69.48964691 63.88654709 14.37977695
v -69.78549957 64.15625000 14.37977695
v -70.09738922 64.40722656 14.37977695
v -70.42414093 64.63853455 14.37977695
v -74.01451874 66.72566986 13.79922104
v -73.78311920 66.59207153 13.87425709
v -73.55763245 66.46189117 13.94320297
v -73.33750153 66.33480072 14.00633621
v -73.12223053 66.21051025 14.06390381
v -72.91132355 66.08874512 14.11612797
v -72.70433044 65.96923828 14.16320515
v -72.30041504 65.73603821 14.24259663
v -71.90730286 65.50907135 14.30322552
v -71.52207947 65.28666687 14.34594536
v -71.14202118 65.06723785 14.37134838
v -70.76451874 64.84928131 14.37977695
v -77.26451874 64.84928131 14.37977695
v -76.88700867 65.06723785 14.37134838
v -76.50695038 65.28666687 14.34594536
v -76.12172699 65.50907135 14.30322552
v -75.72861481 65.73603821 14.24259663
v -75.32469940 65.96923828 14.16320515
v -75.11770630 66.08874512 14.11612797
v -74.90679932 66.21051025 14.06390381
v -74.69152832 66.33480072 14.00633621
v -74.47140503 66.46189117 13.94320297
v -74.24591827 66.59207153 13.87425709
v -76.91181183 65.03868103 14.37977695
v -71.11721802 65.03868103 14.37977695
v -71.48091125 65.20600128 14.37977695
v -71.85420990 65.35062408 14.37977695
v -72.23570251 65.47198486 14.37977695
v -72.62394714 65.56963348 14.37977695
v -73.01747131 65.64319611 14.37977695
v -73.41477203 65.69239044 14.37977695
v -73.81434631 65.71703339 14.37977695
v -74.21468353 65.71703339 14.37977695
v -74.61425781 65.69239044 14.37977695
v -75.01155853 65.64319611 14.37977695
v -75.40508270 65.56963348 14.37977695
v -75.79332733 65.47198486 14.37977695
v -76.17481995 65.35062408 14.37977695
v -76.54812622 65.20600128 14.37977695
v -80.51451874 62.97289658 13.79922104
v -80.28311920 63.10649490 13.87425709
v -80.05763245 63.23667908 13.94320297
v -79.83750153 63.36376572 14.00633621
v -79.62223053 63.48805618 14.06390381
v -79.41132355 63.60982513 14.11612797
v -79.20433044 63.72932816 14.16320515
v -78.80041504 63.96253204 14.24259663
v -78.40730286 64.18949890 14.30322552
v -78.02207947 64.41190338 14.34594536
v -77.64202118 64.63133240 14.37134838
v -77.26451874 64.84928131 14.37977695
v -80.51451874 59.22011948 14.37977695
v -80.51451874 59.65602493 14.37134838
v -80.51451874 60.09487915 14.34594536
v -80.51451874 60.53969193 14.30322552
v -80.51451874 60.99362183 14.24259663
v -80.51451874 61.46002579 14.16320515
v -80.51451874 61.69903564 14.11612797
v -80.51451874 61.94256973 14.06390381
v -80.51451874 62.19115067 14.00633621
v -80.51451874 62.44532776 13.94320297
v -80.51451874 62.70569992 13.87425709
v -77.60488892 64.63853455 14.37977695
v -77.93164062 64.40722656 14.37977695
v -78.24353790 64.15625000 14.37977695
v -78.53938293 63.88654709 14.37977695
v -78.81807709 63.59914017 14.37977695
v -79.07853699 63.29512405 14.37977695
v -79.31979370 62.97564697 14.37977695
v -79.54092407 62.64192581 14.37977695
v -79.74109650 62.29522705 14.37977695
v -79.91954041 61.93685913 14.37977695
v -80.07558441 61.56818771 14.37977695
v -80.20864105 61.19060898 14.37977695
v -80.31819916 60.80555725 14.37977695
v -80.40383911 60.41448975 14.37977695
v -80.46524811 60.01889038 14.37977695
v -80.50218964 59.62026215 14.37977695
v -78.00154877 59.54198456 14.37977695
v -78.01451874 59.22011948 14.37977695
v -78.00154877 58.89825058 14.37977695
v -77.96271515 58.57847214 14.37977695
v -77.89828491 58.26285553 14.37977695
v -77.80866241 57.95344543 14.37977695
v -77.69443512 57.65225220 14.37977695
v -77.55634308 57.36122513 14.37977695
v -77.39527893 57.08225632 14.37977695
v -77.21228790 56.81715012 14.37977695
v -77.00856018 56.56762695 14.37977695
v -76.78541565 56.33530807 14.37977695
v -76.54429626 56.12169647 14.37977695
v -76.28677368 55.92818451 14.37977695
v -76.01451874 55.75601578 14.37977695
v -75.72928619 55.60631561 14.37977695
v -75.43293762 55.48005295 14.37977695
v -75.12738800 55.37804413 14.37977695
v -74.81462097 55.30095673 14.37977695
v -74.49666595 55.24928284 14.37977695
v -74.17558289 55.22336197 14.37977695
v -73.85345459 55.22336197 14.37977695
v -73.53237152 55.24928284 14.37977695
v -73.21441650 55.30095673 14.37977695
v -72.90164948 55.37804413 14.37977695
v -72.59609985 55.48005295 14.37977695
v -72.29974365 55.60631561 14.37977695
v -72.01451874 55.75601578 14.37977695
v -71.74225616 55.92818451 14.37977695
v -71.48473358 56.12169647 14.37977695
v -71.24362183 56.33530807 14.37977695
v -71.02046967 56.56762695 14.37977695
v -70.81674194 56.81715012 14.37977695
v -70.63375854 57.08225632 14.37977695
v -70.47269440 57.36122513 14.37977695
v -70.33459473 57.65225220 14.37977695
v -70.22036743 57.95344543 14.37977695
v -70.13074493 58.26285553 14.37977695
v -70.06631470 58.57847214 14.37977695
v -70.02748871 58.89825058 14.37977695
v -70.01451874 59.22011948 14.37977695
v -70.02748871 59.54198456 14.37977695
v -70.06631470 59.86176300 14.37977695
v -70.13074493 60.17737961 14.37977695
v -70.22036743 60.48678970 14.37977695
v -70.33459473 60.78798294 14.37977695
v -70.47269440 61.07901001 14.37977695
v -70.63375854 61.35798264 14.37977695
v -70.81674194 61.62308884 14.37977695
v -71.02046967 61.87260818 14.37977695
v -71.24362183 62.10492706 14.37977695
v -71.48473358 62.31853867 14.37977695
v -71.74225616 62.51205444 14.37977695
v -72.01451874 62.68421936 14.37977695
v -72.29974365 62.83391953 14.37977695
v -72.59609985 62.96018219 14.37977695
v -72.90164948 63.06219101 14.37977695
v -73.21441650 63.13928223 14.37977695
v -73.53237152 63.19095230 14.37977695
v -73.85345459 63.21687317 14.37977695
v -74.17558289 63.21687317 14.37977695
v -74.49666595 63.19095230 14.37977695
v -74.81462097 63.13928223 14.37977695
v -75.12738800 63.06219101 14.37977695
v -75.43293762 62.96018219 14.37977695
v -75.72928619 62.83391953 14.37977695
v -76.01451874 62.68421936 14.37977695
v -76.28677368 62.51205444 14.37977695
v -76.54429626 62.31853867 14.37977695
v -76.78541565 62.10492706 14.37977695
v -77.00856018 61.87260818 14.37977695
v -77.21228790 61.62308884 14.37977695
v -77.39527893 61.35798264 14.37977695
v -77.55634308 61.07901001 14.37977695
v -77.69443512 60.78798294 14.37977695
v -77.80866241 60.48678970 14.37977695
v -77.89828491 60.17737961 14.37977695
v -77.96271515 59.86176300 14.37977695
v -77.26451874 53.59095383 14.37977695
v -70.76451874 53.59095383 14.37977695
v -67.51451874 59.22011948 14.37977695
v -70.76451874 64.84928131 14.37977695
v -77.26451874 64.84928131 14.37977695
v -80.51451874 59.22011948 14.37977695
v -76.91181183 65.03868103 14.37977695
v -77.60488892 64.63853455 14.37977695
v -77.93164062 64.40722656 14.37977695
v -78.24353790 64.15625000 14.37977695
v -78.53938293 63.88654709 14.37977695
v -78.81807709 63.59914017 14.37977695
v -79.07853699 63.29512405 14.37977695
v -79.31979370 62.97564697 14.37977695
v -79.54092407 62.64192581 14.37977695
v -79.74109650 62.29522705 14.37977695
v -79.91954041 61.93685913 14.37977695
v -80.07558441 61.56818771 14.37977695
v -80.20864105 61.19060898 14.37977695
v -80.31819916 60.80555725 14.37977695
v -80.40383911 60.41448975 14.37977695
v -80.46524811 60.01889038 14.37977695
v -80.50218964 59.62026215 14.37977695
v -80.50218964 58.81997299 14.37977695
v -80.46524811 58.42134476 14.37977695
v -80.40383911 58.02574539 14.37977695
v -80.31819916 57.63467789 14.37977695
v -80.20864105 57.24962616 14.37977695
v -80.07558441 56.87204742 14.37977695
v -79.91954041 56.50337601 14.37977695
v -79.74109650 56.14500809 14.37977695
v -79.54092407 55.79830933 14.37977695
v -79.31979370 55.46458817 14.37977695
v -79.07853699 55.14511490 14.37977695
v -78.81807709 54.84109497 14.37977695
v -78.53938293 54.55369186 14.37977695
v -78.24353790 54.28398514 14.37977695
v -77.93164062 54.03300476 14.37977695
v -77.60488892 53.80170441 14.37977695
v -76.91181183 53.40155792 14.37977695
v -76.54812622 53.23423386 14.37977695
v -76.17481995 53.08961487 14.37977695
v -75.79332733 52.96825027 14.37977695
v -75.40508270 52.87060547 14.37977695
v -75.01155853 52.79704285 14.37977695
v -74.61425781 52.74784470 14.37977695
v -74.21468353 52.72320175 14.37977695
v -73.81434631 52.72320175 14.37977695
v -73.41477203 52.74784470 14.37977695
v -73.01747131 52.79704285 14.37977695
v -72.62394714 52.87060547 14.37977695
v -72.23570251 52.96825027 14.37977695
v -71.85420990 53.08961487 14.37977695
v -71.48091125 53.23423386 14.37977695
v -71.11721802 53.40155792 14.37977695
v -70.42414093 53.80170441 14.37977695
v -70.09738922 54.03300476 14.37977695
v -69.78549957 54.28398514 14.37977695
v -69.48964691 54.55369186 14.37977695
v -69.21096039 54.84109497 14.37977695
v -68.95049286 55.14511490 14.37977695
v -68.70923615 55.46458817 14.37977695
v -68.48810577 55.79830933 14.37977695
v -68.28793335 56.14500809 14.37977695
v -68.10948944 56.50337601 14.37977695
v -67.95344543 56.87204742 14.37977695
v -67.82039642 57.24962616 14.37977695
v -67.71083832 57.63467789 14.37977695
v -67.62519073 58.02574539 14.37977695
v -67.56378174 58.42134476 14.37977695
v -67.52684784 58.81997299 14.37977695
v -67.52684784 59.62026215 14.37977695
v -67.56378174 60.01889038 14.37977695
v -67.62519073 60.41448975 14.37977695
v -67.71083832 60.80555725 14.37977695
v -67.82039642 61.19060898 14.37977695
v -67.95344543 61.56818771 14.37977695
v -68.10948944 61.93685913 14.37977695
v -68.28793335 62.29522705 14.37977695
v -68.48810577 62.64192581 14.37977695
v -68.70923615 62.97564697 14.37977695
v -68.95049286 63.29512405 14.37977695
v -69.21096039 63.59914017 14.37977695
v -69.48964691 63.88654709 14.37977695
v -69.78549957 64.15625000 14.37977695
v -70.09738922 64.40722656 14.37977695
v -70.42414093 64.63853455 14.37977695
v -71.11721802 65.03868103 14.37977695
v -71.48091125 65.20600128 14.37977695
v -71.85420990 65.35062408 14.37977695
v -72.23570251 65.47198486 14.37977695
v -72.62394714 65.56963348 14.37977695
v -73.01747131 65.64319611 14.37977695
v -73.41477203 65.69239044 14.37977695
v -73.81434631 65.71703339 14.37977695
v -74.21468353 65.71703339 14.37977695
v -74.61425781 65.69239044 14.37977695
v -75.01155853 65.64319611 14.37977695
v -75.40508270 65.56963348 14.37977695
v -75.79332733 65.47198486 14.37977695
v -76.17481995 65.35062408 14.37977695
v -76.54812622 65.20600128 14.37977695
v -78.00154877 59.54198456 7.87977743
v -78.01451874 59.22011948 7.87977743
v -78.00154877 58.89825058 7.87977743
v -77.96271515 58.57847214 7.87977743
v -77.89828491 58.26285553 7.87977743
v -77.80866241 57.95344543 7.87977743
v -77.69443512 57.65225220 7.87977743
v -77.55634308 57.36122513 7.87977743
v -77.39527893 57.08225632 7.87977743
v -77.21228790 56.81715012 7.87977743
v -77.00856018 56.56762695 7.87977743
v -76.78541565 56.33530807 7.87977743
v -76.54429626 56.12169647 7.87977743
v -76.28677368 55.92818451 7.87977743
v -76.01451874 55.75601578 7.87977743
v -75.72928619 55.60631561 7.87977743
v -75.43293762 55.48005295 7.87977743
v -75.12738800 55.37804413 7.87977743
v -74.81462097 55.30095673 7.87977743
v -74.49666595 55.24928284 7.87977743
v -74.17558289 55.22336197 7.87977743
v -73.85345459 55.22336197 7.87977743
v -73.53237152 55.24928284 7.87977743
v -73.21441650 55.30095673 7.87977743
v -72.90164948 55.37804413 7.87977743
v -72.59609985 55.48005295 7.87977743
v -72.29974365 55.60631561 7.87977743
v -72.01451874 55.75601578 7.87977743
v -71.74225616 55.92818451 7.87977743
v -71.48473358 56.12169647 7.87977743
v -71.24362183 56.33530807 7.87977743
v -71.02046967 56.56762695 7.87977743
v -70.81674194 56.81715012 7.87977743
v -70.63375854 57.08225632 7.87977743
v -70.47269440 57.36122513 7.87977743
v -70.33459473 57.65225220 7.87977743
v -70.22036743 57.95344543 7.87977743
v -70.13074493 58.26285553 7.87977743
v -70.06631470 58.57847214 7.87977743
v -70.02748871 58.89825058 7.87977743
v -70.01451874 59.22011948 7.87977743
v -70.02748871 59.54198456 7.87977743
v -70.06631470 59.86176300 7.87977743
v -70.13074493 60.17737961 7.87977743
v -70.22036743 60.48678970 7.87977743
v -70.33459473 60.78798294 7.87977743
v -70.47269440 61.07901001 7.87977743
v -70.63375854 61.35798264 7.87977743
v -70.81674194 61.62308884 7.87977743
v -71.02046967 61.87260818 7.87977743
v -71.24362183 62.10492706 7.87977743
v -71.48473358 62.31853867 7.87977743
v -71.74225616 62.51205444 7.87977743
v -72.01451874 62.68421936 7.87977743
v -72.29974365 62.83391953 7.87977743
v -72.59609985 62.96018219 7.87977743
v -72.90164948 63.06219101 7.87977743
v -73.21441650 63.13928223 7.87977743
v -73.53237152 63.19095230 7.87977743
v -73.85345459 63.21687317 7.87977743
v -74.17558289 63.21687317 7.87977743
v -74.49666595 63.19095230 7.87977743
v -74.81462097 63.13928223 7.87977743
v -75.12738800 63.06219101 7.87977743
v -75.43293762 62.96018219 7.87977743
v -75.72928619 62.83391953 7.87977743
v -76.01451874 62.68421936 7.87977743
v -76.28677368 62.51205444 7.87977743
v -76.54429626 62.31853867 7.87977743
v -76.78541565 62.10492706 7.87977743
v -77.00856018 61.87260818 7.87977743
v -77.21228790 61.62308884 7.87977743
v -77.39527893 61.35798264 7.87977743
v -77.55634308 61.07901001 7.87977743
v -77.69443512 60.78798294 7.87977743
v -77.80866241 60.48678970 7.87977743
v -77.89828491 60.17737961 7.87977743
v -77.96271515 59.86176300 7.87977743
v -77.26451874 53.59095383 7.87977743
v -70.76451874 53.59095383 7.87977743
v -67.51451874 59.22011948 7.87977743
v -70.76451874 64.84928131 7.87977743
v -77.26451874 64.84928131 7.87977743
v -80.51451874 59.22011948 7.87977743
v -76.91181183 53.40155792 7.87977743
v -77.60488892 53.80170441 7.87977743
v -77.93164062 54.03300476 7.87977743
v -78.24353790 54.28398514 7.87977743
v -78.53938293 54.55369186 7.87977743
v -78.81807709 54.84109497 7.87977743
v -79.07853699 55.14511490 7.87977743
v -79.31979370 55.46458817 7.87977743
v -79.54092407 55.79830933 7.87977743
v -79.74109650 56.14500809 7.87977743
v -79.91954041 56.50337601 7.87977743
v -80.07558441 56.87204742 7.87977743
v -80.20864105 57.24962616 7.87977743
v -80.31819916 57.63467789 7.87977743
v -80.40383911 58.02574539 7.87977743
v -80.46524811 58.42134476 7.87977743
v -80.50218964 58.81997299 7.87977743
v -80.50218964 59.62026215 7.87977743
v -80.46524811 60.01889038 7.87977743
v -80.40383911 60.41448975 7.87977743
v -80.31819916 60.80555725 7.87977743
v -80.20864105 61.19060898 7.87977743
v -80.07558441 61.56818771 7.87977743
v -79.91954041 61.93685913 7.87977743
v -79.74109650 62.29522705 7.87977743
v -79.54092407 62.64192581 7.87977743
v -79.31979370 62.97564697 7.87977743
v -79.07853699 63.29512405 7.87977743
v -78.81807709 63.59914017 7.87977743
v -78.53938293 63.88654709 7.87977743
v -78.24353790 64.15625000 7.87977743
v -77.93164062 64.40722656 7.87977743
v -77.60488892 64.63853455 7.87977743
v -76.91181183 65.03868103 7.87977743
v -76.54812622 65.20600128 7.87977743
v -76.17481995 65.35062408 7.87977743
v -75.79332733 65.47198486 7.87977743
v -75.40508270 65.56963348 7.87977743
v -75.01155853 65.64319611 7.87977743
v -74.61425781 65.69239044 7.87977743
v -74.21468353 65.71703339 7.87977743
v -73.81434631 65.71703339 7.87977743
v -73.41477203 65.69239044 7.87977743
v -73.01747131 65.64319611 7.87977743
v -72.62394714 65.56963348 7.87977743
v -72.23570251 65.47198486 7.87977743
v -71.85420990 65.35062408 7.87977743
v -71.48091125 65.20600128 7.87977743
v -71.11721802 65.03868103 7.87977743
v -70.42414093 64.63853455 7.87977743
v -70.09738922 64.40722656 7.87977743
v -69.78549957 64.15625000 7.87977743
v -69.48964691 63.88654709 7.87977743
v -69.21096039 63.59914017 7.87977743
v -68.95049286 63.29512405 7.87977743
v -68.70923615 62.97564697 7.87977743
v -68.48810577 62.64192581 7.87977743
v -68.28793335 62.29522705 7.87977743
v -68.10948944 61.93685913 7.87977743
v -67.95344543 61.56818771 7.87977743
v -67.82039642 61.19060898 7.87977743
v -67.71083832 60.80555725 7.87977743
v -67.62519073 60.41448975 7.87977743
v -67.56378174 60.01889038 7.87977743
v -67.52684784 59.62026215 7.87977743
v -67.52684784 58.81997299 7.87977743
v -67.56378174 58.42134476 7.87977743
v -67.62519073 58.02574539 7.87977743
v -67.71083832 57.63467789 7.87977743
v -67.82039642 57.24962616 7.87977743
v -67.95344543 56.87204742 7.87977743
v -68.10948944 56.50337601 7.87977743
v -68.28793335 56.14500809 7.87977743
v -68.48810577 55.79830933 7.87977743
v -68.70923615 55.46458817 7.87977743
v -68.95049286 55.14511490 7.87977743
v -69.21096039 54.84109497 7.87977743
v -69.48964691 54.55369186 7.87977743
v -69.78549957 54.28398514 7.87977743
v -70.09738922 54.03300476 7.87977743
v -70.42414093 53.80170441 7.87977743
v -71.11721802 53.40155792 7.87977743
v -71.48091125 53.23423386 7.87977743
v -71.85420990 53.08961487 7.87977743
v -72.23570251 52.96825027 7.87977743
v -72.62394714 52.87060547 7.87977743
v -73.01747131 52.79704285 7.87977743
v -73.41477203 52.74784470 7.87977743
v -73.81434631 52.72320175 7.87977743
v -74.21468353 52.72320175 7.87977743
v -74.61425781 52.74784470 7.87977743
v -75.01155853 52.79704285 7.87977743
v -75.40508270 52.87060547 7.87977743
v -75.79332733 52.96825027 7.87977743
v -76.17481995 53.08961487 7.87977743
v -76.54812622 53.23423386 7.87977743
f 1 2 3
f 3 2 4
f 3 4 5
f 5 4 6
f 5 6 7
f 7 6 8
f 7 8 9
f 9 8 10
f 9 10 11
f 11 10 12
f 11 12 13
f 13 12 14
f 13 14 15
f 15 14 16
f 15 16 17
f 17 16 18
f 17 18 19
f 19 18 20
f 19 20 21
f 21 20 22
f 21 22 23
f 23 22 24
f 23 24 25
f 25 24 26
f 25 26 27
f 27 26 28
f 27 28 29
f 29 28 30
f 29 30 31
f 31 30 32
f 31 32 33
f 33 32 34
f 33 34 35
f 35 34 36
f 35 36 37
f 37 36 38
f 37 38 39
f 39 38 40
f 39 40 41
f 41 40 42
f 41 42 43
f 43 42 44
f 43 44 45
f 45 44 46
f 45 46 47
f 47 46 48
f 47 48 49
f 49 48 50
f 49 50 51
f 51 50 52
f 51 52 53
f 53 52 54
f 53 54 55
f 55 54 56
f 55 56 57
f 57 56 58
f 57 58 59
f 59 58 60
f 59 60 61
f 61 60 62
f 61 62 63
f 63 62 64
f 63 64 65
f 65 64 66
f 65 66 67
f 67 66 68
f 67 68 69
f 69 68 70
f 69 70 71
f 71 70 72
f 71 72 73
f 73 72 74
f 73 74 75
f 75 74 76
f 75 76 77
f 77 76 78
f 77 78 79
f 79 78 80
f 79 80 81
f 81 80 82
f 81 82 83
f 83 82 84
f 83 84 85
f 85 84 86
f 85 86 87
f 87 86 88
f 87 88 89
f 89 88 90
f 89 90 91
f 91 90 92
f 91 92 93
f 93 92 94
f 93 94 95
f 95 94 96
f 95 96 97
f 97 96 98
f 97 98 99
f 99 98 100
f 99 100 101
f 101 100 102
f 101 102 103
f 103 102 104
f 103 104 105
f 105 104 106
f 105 106 107
f 107 106 108
f 107 108 109
f 109 108 110
f 109 110 111
f 111 110 112
f 111 112 113
f 113 112 114
f 113 114 115
f 115 114 116
f 115 116 117
f 117 116 118
f 117 118 119
f 119 118 120
f 119 120 121
f 121 120 122
f 121 122 123
f 123 122 124
f 123 124 125
f 125 124 126
f 125 126 127
f 127 126 128
f 127 128 129
f 129 128 130
f 129 130 131
f 131 130 132
f 131 132 133
f 133 132 134
f 133 134 135
f 135 134 136
f 135 136 137
f 137 136 138
f 137 138 139
f 139 138 140
f 139 140 141
f 141 140 142
f 141 142 143
f 143 142 144
f 143 144 145
f 145 144 146
f 145 146 147
f 147 146 148
f 147 148 149
f 149 148 150
f 149 150 151
f 151 150 152
f 151 152 153
f 153 152 154
f 153 154 155
f 155 154 156
f 155 156 1
f 1 156 2
f 157 158 159
f 159 158 160
f 160 158 161
f 160 161 162
f 162 161 163
f 162 163 164
f 164 163 165
f 164 165 166
f 166 165 167
f 166 167 168
f 168 167 169
f 168 169 170
f 170 169 171
f 170 171 172
f 172 171 173
f 172 173 174
f 174 175 172
f 172 175 176
f 172 176 177
f 172 177 178
f 178 177 179
f 178 179 180
f 180 181 178
f 178 181 182
f 182 181 183
f 182 183 184
f 184 183 185
f 184 185 186
f 186 185 187
f 186 187 188
f 188 187 189
f 188 189 190
f 190 189 191
f 190 191 192
f 192 191 193
f 192 193 194
f 194 193 195
f 172 178 196
f 196 178 197
f 196 197 198
f 198 197 199
f 198 199 200
f 200 199 201
f 200 201 202
f 205 206 207
f 207 206 208
f 208 206 209
f 208 209 210
f 210 209 211
f 210 211 212
f 212 211 213
f 212 213 214
f 214 213 215
f 214 215 216
f 216 215 217
f 216 217 218
f 218 217 219
f 218 219 220
f 220 219 221
f 220 221 222
f 222 223 220
f 220 223 224
f 220 224 225
f 220 225 226
f 226 225 227
f 226 227 228
f 228 229 226
f 226 229 230
f 230 229 231
f 230 231 232
f 232 231 233
f 232 233 234
f 234 233 235
f 234 235 236
f 236 235 237
f 236 237 238
f 238 237 239
f 238 239 240
f 240 239 241
f 240 241 204
f 204 241 203
f 220 226 242
f 242 226 243
f 242 243 244
f 244 243 245
f 244 245 246
f 246 245 247
f 246 247 248
f 251 252 253
f 253 252 254
f 254 252 255
f 254 255 256
f 256 255 257
f 256 257 258
f 258 257 259
f 258 259 260
f 260 259 261
f 260 261 262
f 262 261 263
f 262 263 264
f 264 263 265
f 264 265 266
f 266 265 267
f 266 267 268
f 268 269 266
f 266 269 270
f 266 270 271
f 266 271 272
f 272 271 273
f 272 273 274
f 274 275 272
f 272 275 276
f 276 275 277
f 276 277 278
f 278 277 279
f 278 279 280
f 280 279 281
f 280 281 282
f 282 281 283
f 282 283 284
f 284 283 285
f 284 285 286
f 286 285 287
f 286 287 250
f 250 287 249
f 266 272 288
f 288 272 289
f 288 289 290
f 290 289 291
f 290 291 292
f 292 291 293
f 292 293 294
f 297 298 299
f 299 298 300
f 300 298 301
f 300 301 302
f 302 301 303
f 302 303 304
f 304 303 305
f 304 305 306
f 306 305 307
f 306 307 308
f 308 307 309
f 308 309 310
f 310 309 311
f 310 311 312
f 312 311 313
f 312 313 314
f 314 315 312
f 312 315 316
f 312 316 317
f 312 317 318
f 318 317 319
f 318 319 320
f 320 321 318
f 318 321 322
f 322 321 323
f 322 323 324
f 324 323 325
f 324 325 326
f 326 325 327
f 326 327 328
f 328 327 329
f 328 329 330
f 330 329 331
f 330 331 332
f 332 331 333
f 332 333 296
f 296 333 295
f 312 318 334
f 334 318 335
f 334 335 336
f 336 335 337
f 336 337 338
f 338 337 339
f 338 339 340
f 343 344 345
f 345 344 346
f 346 344 347
f 346 347 348
f 348 347 349
f 348 349 350
f 350 349 351
f 350 351 352
f 352 351 353
f 352 353 354
f 354 353 355
f 354 355 356
f 356 355 357
f 356 357 358
f 358 357 359
f 358 359 360
f 360 361 358
f 358 361 362
f 358 362 363
f 358 363 364
f 364 363 365
f 364 365 366
f 366 367 364
f 364 367 368
f 368 367 369
f 368 369 370
f 370 369 371
f 370 371 372
f 372 371 373
f 372 373 374
f 374 373 375
f 374 375 376
f 376 375 377
f 376 377 378
f 378 377 379
f 378 379 342
f 342 379 341
f 358 364 380
f 380 364 381
f 380 381 382
f 382 381 383
f 382 383 384
f 384 383 385
f 384 385 386
f 388 391 387
f 387 391 392
f 392 391 393
f 392 393 394
f 394 393 395
f 394 395 396
f 396 395 397
f 396 397 398
f 398 397 399
f 398 399 400
f 400 399 401
f 400 401 402
f 402 401 403
f 402 403 404
f 404 403 405
f 404 405 406
f 406 407 404
f 404 407 408
f 404 408 409
f 404 409 410
f 410 409 411
f 410 411 412
f 412 413 410
f 410 413 414
f 414 413 415
f 414 415 416
f 416 415 417
f 416 417 418
f 418 417 419
f 418 419 420
f 420 419 421
f 420 421 422
f 422 421 423
f 422 423 424
f 424 423 425
f 424 425 390
f 390 425 389
f 404 410 426
f 426 410 427
f 426 427 428
f 428 427 429
f 428 429 430
f 430 429 431
f 430 431 432
f 445 464 440
f 440 464 463
f 440 463 439
f 439 463 438
f 438 463 462
f 438 462 437
f 437 462 436
f 436 462 461
f 436 461 435
f 435 461 434
f 434 461 460
f 434 460 433
f 433 460 459
f 433 459 441
f 441 459 458
f 441 458 442
f 442 458 457
f 442 457 443
f 443 457 456
f 443 456 444
f 445 446 464
f 464 446 465
f 465 446 447
f 465 447 448
f 465 448 466
f 466 448 449
f 466 449 450
f 466 450 467
f 467 450 451
f 467 451 468
f 468 451 452
f 468 452 469
f 469 452 453
f 469 453 470
f 470 453 454
f 470 454 471
f 471 454 455
f 483 495 482
f 482 495 510
f 482 510 481
f 481 510 509
f 481 509 480
f 480 509 508
f 480 508 479
f 479 508 507
f 479 507 478
f 478 507 506
f 478 506 477
f 477 506 476
f 476 506 505
f 476 505 475
f 475 505 474
f 474 505 504
f 474 504 473
f 473 504 472
f 472 504 503
f 472 503 490
f 490 503 489
f 489 503 502
f 489 502 488
f 488 502 487
f 487 502 501
f 487 501 486
f 486 501 485
f 485 501 500
f 485 500 484
f 484 500 499
f 484 499 491
f 491 499 498
f 491 498 492
f 492 498 497
f 492 497 493
f 493 497 496
f 493 496 494
f 522 549 521
f 521 549 548
f 521 548 520
f 520 548 547
f 520 547 519
f 519 547 546
f 519 546 518
f 518 546 545
f 518 545 517
f 517 545 544
f 517 544 516
f 516 544 515
f 515 544 543
f 515 543 514
f 514 543 513
f 513 543 542
f 513 542 512
f 512 542 511
f 511 542 541
f 511 541 529
f 529 541 528
f 528 541 540
f 528 540 527
f 527 540 526
f 526 540 539
f 526 539 525
f 525 539 524
f 524 539 538
f 524 538 523
f 523 538 537
f 523 537 530
f 530 537 536
f 530 536 531
f 531 536 535
f 531 535 532
f 532 535 534
f 532 534 533
f 561 588 560
f 560 588 587
f 560 587 559
f 559 587 586
f 559 586 558
f 558 586 585
f 558 585 557
f 557 585 584
f 557 584 556
f 556 584 583
f 556 583 555
f 555 583 554
f 554 583 582
f 554 582 553
f 553 582 552
f 552 582 581
f 552 581 551
f 551 581 550
f 550 581 580
f 550 580 568
f 568 580 567
f 567 580 579
f 567 579 566
f 566 579 565
f 565 579 578
f 565 578 564
f 564 578 563
f 563 578 577
f 563 577 562
f 562 577 576
f 562 576 569
f 569 576 575
f 569 575 570
f 570 575 574
f 570 574 571
f 571 574 573
f 571 573 572
f 600 627 599
f 599 627 626
f 599 626 598
f 598 626 625
f 598 625 597
f 597 625 624
f 597 624 596
f 596 624 623
f 596 623 595
f 595 623 622
f 595 622 594
f 594 622 593
f 593 622 621
f 593 621 592
f 592 621 591
f 591 621 620
f 591 620 590
f 590 620 589
f 589 620 619
f 589 619 607
f 607 619 606
f 606 619 618
f 606 618 605
f 605 618 604
f 604 618 617
f 604 617 603
f 603 617 602
f 602 617 616
f 602 616 601
f 601 616 615
f 601 615 608
f 608 615 614
f 608 614 609
f 609 614 613
f 609 613 610
f 610 613 612
f 610 612 611
f 639 666 638
f 638 666 665
f 638 665 637
f 637 665 664
f 637 664 636
f 636 664 663
f 636 663 635
f 635 663 662
f 635 662 634
f 634 662 661
f 634 661 633
f 633 661 632
f 632 661 660
f 632 660 631
f 631 660 630
f 630 660 659
f 630 659 629
f 629 659 628
f 628 659 658
f 628 658 646
f 646 658 645
f 645 658 657
f 645 657 644
f 644 657 643
f 643 657 656
f 643 656 642
f 642 656 641
f 641 656 655
f 641 655 640
f 640 655 654
f 640 654 647
f 647 654 653
f 647 653 648
f 648 653 652
f 648 652 649
f 649 652 651
f 649 651 650
f 667 705 668
f 668 705 704
f 668 704 669
f 669 704 703
f 669 703 670
f 670 703 702
f 670 702 671
f 671 702 701
f 671 701 672
f 672 701 700
f 672 700 673
f 673 700 674
f 674 700 699
f 674 699 675
f 675 699 676
f 676 699 698
f 676 698 677
f 677 698 678
f 678 698 697
f 678 697 679
f 679 697 680
f 680 697 696
f 680 696 681
f 681 696 682
f 682 696 695
f 682 695 683
f 683 695 684
f 684 695 694
f 684 694 685
f 685 694 693
f 685 693 686
f 686 693 692
f 686 692 687
f 687 692 691
f 687 691 688
f 688 691 690
f 688 690 689
f 718 744 719
f 719 744 743
f 719 743 720
f 720 743 742
f 720 742 721
f 721 742 741
f 721 741 722
f 722 741 740
f 722 740 723
f 723 740 739
f 723 739 724
f 724 739 725
f 725 739 738
f 725 738 726
f 726 738 727
f 727 738 737
f 727 737 728
f 728 737 706
f 706 737 736
f 706 736 707
f 707 736 708
f 708 736 735
f 708 735 709
f 709 735 710
f 710 735 734
f 710 734 711
f 711 734 712
f 712 734 733
f 712 733 713
f 713 733 732
f 713 732 714
f 714 732 731
f 714 731 715
f 715 731 730
f 715 730 716
f 716 730 729
f 716 729 717
f 757 783 758
f 758 783 782
f 758 782 759
f 759 782 781
f 759 781 760
f 760 781 780
f 760 780 761
f 761 780 779
f 761 779 762
f 762 779 778
f 762 778 763
f 763 778 764
f 764 778 777
f 764 777 765
f 765 777 766
f 766 777 776
f 766 776 767
f 767 776 745
f 745 776 775
f 745 775 746
f 746 775 747
f 747 775 774
f 747 774 748
f 748 774 749
f 749 774 773
f 749 773 750
f 750 773 751
f 751 773 772
f 751 772 752
f 752 772 771
f 752 771 753
f 753 771 770
f 753 770 754
f 754 770 769
f 754 769 755
f 755 769 768
f 755 768 756
f 806 815 784
f 784 815 814
f 784 814 785
f 785 814 786
f 786 814 813
f 786 813 787
f 787 813 788
f 788 813 812
f 788 812 789
f 789 812 790
f 790 812 811
f 790 811 791
f 791 811 810
f 791 810 792
f 792 810 809
f 792 809 793
f 793 809 808
f 793 808 794
f 794 808 807
f 794 807 795
f 806 805 815
f 815 805 816
f 816 805 804
f 816 804 803
f 816 803 817
f 817 803 802
f 817 802 801
f 817 801 818
f 818 801 800
f 818 800 819
f 819 800 799
f 819 799 820
f 820 799 798
f 820 798 821
f 821 798 797
f 821 797 822
f 822 797 796
f 845 855 823
f 823 855 854
f 823 854 824
f 824 854 825
f 825 854 853
f 825 853 826
f 826 853 827
f 827 853 852
f 827 852 828
f 828 852 829
f 829 852 851
f 829 851 830
f 830 851 850
f 830 850 831
f 831 850 849
f 831 849 832
f 832 849 848
f 832 848 833
f 833 848 847
f 833 847 834
f 845 844 855
f 855 844 856
f 856 844 843
f 856 843 842
f 856 842 857
f 857 842 841
f 857 841 840
f 857 840 858
f 858 840 839
f 858 839 859
f 859 839 838
f 859 838 860
f 860 838 837
f 860 837 861
f 861 837 836
f 861 836 846
f 846 836 835
f 884 893 862
f 862 893 892
f 862 892 863
f 863 892 864
f 864 892 891
f 864 891 865
f 865 891 866
f 866 891 890
f 866 890 867
f 867 890 868
f 868 890 889
f 868 889 869
f 869 889 888
f 869 888 870
f 870 888 887
f 870 887 871
f 871 887 886
f 871 886 872
f 872 886 885
f 872 885 873
f 884 883 893
f 893 883 894
f 894 883 882
f 894 882 881
f 894 881 895
f 895 881 880
f 895 880 879
f 895 879 896
f 896 879 878
f 896 878 897
f 897 878 877
f 897 877 898
f 898 877 876
f 898 876 899
f 899 876 875
f 899 875 900
f 900 875 874
f 985 983 967
f 967 983 986
f 967 986 968
f 968 986 987
f 968 987 969
f 969 987 988
f 969 988 970
f 970 988 989
f 970 989 990
f 970 990 971
f 971 990 991
f 971 991 972
f 972 991 992
f 972 992 973
f 973 992 993
f 973 993 994
f 973 994 974
f 974 994 995
f 974 995 975
f 975 995 996
f 975 996 976
f 976 996 997
f 976 997 977
f 977 997 998
f 977 998 999
f 977 999 978
f 978 999 1000
f 978 1000 901
f 901 1000 1001
f 901 1001 902
f 902 1001 984
f 902 984 1002
f 902 1002 903
f 903 1002 1003
f 903 1003 904
f 904 1003 1004
f 904 1004 905
f 905 1004 1005
f 905 1005 1006
f 905 1006 906
f 906 1006 1007
f 906 1007 907
f 907 1007 1008
f 907 1008 908
f 908 1008 1009
f 908 1009 909
f 909 1009 1010
f 909 1010 1011
f 909 1011 910
f 910 1011 1012
f 910 1012 911
f 911 1012 1013
f 911 1013 912
f 912 1013 1014
f 912 1014 1015
f 912 1015 913
f 913 1015 1016
f 913 1016 914
f 914 1016 1017
f 914 1017 915
f 915 1017 979
f 915 979 1018
f 915 1018 916
f 916 1018 1019
f 916 1019 917
f 917 1019 1020
f 917 1020 918
f 918 1020 1021
f 918 1021 1022
f 918 1022 919
f 919 1022 1023
f 919 1023 920
f 920 1023 1024
f 920 1024 921
f 921 1024 1025
f 921 1025 1026
f 921 1026 922
f 922 1026 1027
f 922 1027 923
f 923 1027 1028
f 923 1028 924
f 924 1028 1029
f 924 1029 925
f 925 1029 1030
f 925 1030 1031
f 925 1031 926
f 926 1031 1032
f 926 1032 927
f 927 1032 1033
f 927 1033 928
f 928 1033 980
f 928 980 1034
f 928 1034 929
f 929 1034 1035
f 929 1035 930
f 930 1035 1036
f 930 1036 931
f 931 1036 1037
f 931 1037 1038
f 931 1038 932
f 932 1038 1039
f 932 1039 933
f 933 1039 1040
f 933 1040 934
f 934 1040 1041
f 934 1041 1042
f 934 1042 935
f 935 1042 1043
f 935 1043 936
f 936 1043 1044
f 936 1044 937
f 937 1044 1045
f 937 1045 938
f 938 1045 1046
f 938 1046 1047
f 938 1047 939
f 939 1047 1048
f 939 1048 940
f 940 1048 1049
f 940 1049 941
f 941 1049 981
f 941 981 1050
f 941 1050 942
f 942 1050 1051
f 942 1051 943
f 943 1051 1052
f 943 1052 944
f 944 1052 1053
f 944 1053 1054
f 944 1054 945
f 945 1054 1055
f 945 1055 946
f 946 1055 1056
f 946 1056 947
f 947 1056 1057
f 947 1057 948
f 948 1057 1058
f 948 1058 1059
f 948 1059 949
f 949 1059 1060
f 949 1060 950
f 950 1060 1061
f 950 1061 951
f 951 1061 1062
f 951 1062 1063
f 951 1063 952
f 952 1063 1064
f 952 1064 953
f 953 1064 1065
f 953 1065 954
f 954 1065 982
f 954 982 1066
f 954 1066 955
f 955 1066 1067
f 955 1067 956
f 956 1067 1068
f 956 1068 957
f 957 1068 1069
f 957 1069 1070
f 957 1070 958
f 958 1070 1071
f 958 1071 959
f 959 1071 1072
f 959 1072 960
f 960 1072 1073
f 960 1073 1074
f 960 1074 961
f 961 1074 1075
f 961 1075 962
f 962 1075 1076
f 962 1076 963
f 963 1076 1077
f 963 1077 964
f 964 1077 1078
f 964 1078 1079
f 964 1079 965
f 965 1079 1080
f 965 1080 966
f 966 1080 985
f 966 985 967
f 1165 1159 1095
f 1095 1159 1166
f 1095 1166 1094
f 1094 1166 1167
f 1094 1167 1093
f 1093 1167 1168
f 1093 1168 1092
f 1092 1168 1169
f 1092 1169 1170
f 1092 1170 1091
f 1091 1170 1171
f 1091 1171 1090
f 1090 1171 1172
f 1090 1172 1089
f 1089 1172 1173
f 1089 1173 1174
f 1089 1174 1088
f 1088 1174 1175
f 1088 1175 1087
f 1087 1175 1176
f 1087 1176 1086
f 1086 1176 1177
f 1086 1177 1085
f 1085 1177 1178
f 1085 1178 1179
f 1085 1179 1084
f 1084 1179 1180
f 1084 1180 1083
f 1083 1180 1181
f 1083 1181 1082
f 1082 1181 1164
f 1082 1164 1182
f 1082 1182 1081
f 1081 1182 1183
f 1081 1183 1158
f 1158 1183 1184
f 1158 1184 1157
f 1157 1184 1185
f 1157 1185 1186
f 1157 1186 1156
f 1156 1186 1187
f 1156 1187 1155
f 1155 1187 1188
f 1155 1188 1154
f 1154 1188 1189
f 1154 1189 1153
f 1153 1189 1190
f 1153 1190 1191
f 1153 1191 1152
f 1152 1191 1192
f 1152 1192 1151
f 1151 1192 1193
f 1151 1193 1150
f 1150 1193 1194
f 1150 1194 1195
f 1150 1195 1149
f 1149 1195 1196
f 1149 1196 1148
f 1148 1196 1197
f 1148 1197 1147
f 1147 1197 1163
f 1147 1163 1198
f 1147 1198 1146
f 1146 1198 1199
f 1146 1199 1145
f 1145 1199 1200
f 1145 1200 1144
f 1144 1200 1201
f 1144 1201 1202
f 1144 1202 1143
f 1143 1202 1203
f 1143 1203 1142
f 1142 1203 1204
f 1142 1204 1141
f 1141 1204 1205
f 1141 1205 1206
f 1141 1206 1140
f 1140 1206 1207
f 1140 1207 1139
f 1139 1207 1208
f 1139 1208 1138
f 1138 1208 1209
f 1138 1209 1137
f 1137 1209 1210
f 1137 1210 1211
f 1137 1211 1136
f 1136 1211 1212
f 1136 1212 1135
f 1135 1212 1213
f 1135 1213 1134
f 1134 1213 1162
f 1134 1162 1214
f 1134 1214 1133
f 1133 1214 1215
f 1133 1215 1132
f 1132 1215 1216
f 1132 1216 1131
f 1131 1216 1217
f 1131 1217 1218
f 1131 1218 1130
f 1130 1218 1219
f 1130 1219 1129
f 1129 1219 1220
f 1129 1220 1128
f 1128 1220 1221
f 1128 1221 1222
f 1128 1222 1127
f 1127 1222 1223
f 1127 1223 1126
f 1126 1223 1224
f 1126 1224 1125
f 1125 1224 1225
f 1125 1225 1124
f 1124 1225 1226
f 1124 1226 1227
f 1124 1227 1123
f 1123 1227 1228
f 1123 1228 1122
f 1122 1228 1229
f 1122 1229 1121
f 1121 1229 1161
f 1121 1161 1230
f 1121 1230 1120
f 1120 1230 1231
f 1120 1231 1119
f 1119 1231 1232
f 1119 1232 1118
f 1118 1232 1233
f 1118 1233 1234
f 1118 1234 1117
f 1117 1234 1235
f 1117 1235 1116
f 1116 1235 1236
f 1116 1236 1115
f 1115 1236 1237
f 1115 1237 1114
f 1114 1237 1238
f 1114 1238 1239
f 1114 1239 1113
f 1113 1239 1240
f 1113 1240 1112
f 1112 1240 1241
f 1112 1241 1111
f 1111 1241 1242
f 1111 1242 1243
f 1111 1243 1110
f 1110 1243 1244
f 1110 1244 1109
f 1109 1244 1245
f 1109 1245 1108
f 1108 1245 1160
f 1108 1160 1246
f 1108 1246 1107
f 1107 1246 1247
f 1107 1247 1106
f 1106 1247 1248
f 1106 1248 1105
f 1105 1248 1249
f 1105 1249 1250
f 1105 1250 1104
f 1104 1250 1251
f 1104 1251 1103
f 1103 1251 1252
f 1103 1252 1102
f 1102 1252 1253
f 1102 1253 1254
f 1102 1254 1101
f 1101 1254 1255
f 1101 1255 1100
f 1100 1255 1256
f 1100 1256 1099
f 1099 1256 1257
f 1099 1257 1098
f 1098 1257 1258
f 1098 1258 1259
f 1098 1259 1097
f 1097 1259 1260
f 1097 1260 1096
f 1096 1260 1165
f 1096 1165 1095

