# https://github.com/mikedh/trimesh

o M_Back_1.stl
v -5.00000000 89.80364227 35.07803726
v -5.00000000 89.80364227 35.55237198
v -4.34543610 89.80364227 35.11368561
v -4.29698420 89.80364227 35.58058548
v -3.69851542 89.80364227 35.00776672
v -3.60252953 89.80364227 35.46762466
v -3.08949637 89.80364227 34.76523972
v -2.94470000 89.80364227 35.21804810
v -2.54686451 89.80364227 34.39743805
v -2.35007858 89.80364227 34.84194565
v -2.09600019 89.80364227 33.92157745
v -1.84269392 89.80364227 34.35451508
v -1.75799179 89.80364227 33.35990524
v -1.44304979 89.80364227 33.77545547
v -1.16729605 89.80364227 33.12816238
v -1.54864872 89.80364227 32.73869705
v -1.02657580 89.80364227 32.43879700
v -1.47776246 89.80364227 32.08700562
v -1.02657580 89.80364227 31.73521423
v -1.54864872 89.80364227 31.43531418
v -1.16729605 89.80364227 31.04584885
v -1.75799179 89.80364227 30.81410599
v -1.44304979 89.80364227 30.39855576
v -1.84269392 89.80364227 29.81949425
v -2.09600019 89.80364227 30.25243378
v -2.35007858 89.80364227 29.33206367
v -2.54686451 89.80364227 29.77657127
v -2.94470000 89.80364227 28.95596123
v -3.08949637 89.80364227 29.40877151
v -3.60252953 89.80364227 28.70638657
v -3.69851542 89.80364227 29.16624260
v -4.29698420 89.80364227 28.59342384
v -4.34543610 89.80364227 29.06032372
v -5.00000000 89.80364227 28.62163734
v -5.00000000 89.80364227 29.09597397
v -5.00000000 89.80364227 35.07803726
v -4.34543610 89.80364227 35.11368561
v -3.69851542 89.80364227 35.00776672
v -3.08949637 89.80364227 34.76523972
v -2.54686451 89.80364227 34.39743805
v -2.09600019 89.80364227 33.92157745
v -1.75799179 89.80364227 33.35990524
v -1.54864872 89.80364227 32.73869705
v -1.47776246 89.80364227 32.08700562
v -1.54864872 89.80364227 31.43531418
v -1.75799179 89.80364227 30.81410599
v -2.09600019 89.80364227 30.25243378
v -2.54686451 89.80364227 29.77657127
v -3.08949637 89.80364227 29.40877151
v -3.69851542 89.80364227 29.16624260
v -4.34543610 89.80364227 29.06032372
v -5.00000000 89.80364227 29.09597397
v -5.00000000 90.07437134 35.55237198
v -4.29698420 90.07437134 35.58058548
v -3.60252953 90.07437134 35.46762466
v -2.94470000 90.07437134 35.21804810
v -2.35007858 90.07437134 34.84194565
v -1.84269392 90.07437134 34.35451508
v -1.44304979 90.07437134 33.77545547
v -1.16729605 90.07437134 33.12816238
v -1.02657580 90.07437134 32.43879700
v -1.02657580 90.07437134 31.73521423
v -1.16729605 90.07437134 31.04584885
v -1.44304979 90.07437134 30.39855576
v -1.84269392 90.07437134 29.81949425
v -2.35007858 90.07437134 29.33206367
v -2.94470000 90.07437134 28.95596123
v -3.60252953 90.07437134 28.70638657
v -4.29698420 90.07437134 28.59342384
v -5.00000000 90.07437134 28.62163734
v -5.00000000 89.80364227 35.55237198
v -4.29698420 89.80364227 35.58058548
v -3.60252953 89.80364227 35.46762466
v -2.94470000 89.80364227 35.21804810
v -2.35007858 89.80364227 34.84194565
v -1.84269392 89.80364227 34.35451508
v -1.44304979 89.80364227 33.77545547
v -1.16729605 89.80364227 33.12816238
v -1.02657580 89.80364227 32.43879700
v -1.02657580 89.80364227 31.73521423
v -1.16729605 89.80364227 31.04584885
v -1.44304979 89.80364227 30.39855576
v -1.84269392 89.80364227 29.81949425
v -2.35007858 89.80364227 29.33206367
v -2.94470000 89.80364227 28.95596123
v -3.60252953 89.80364227 28.70638657
v -4.29698420 89.80364227 28.59342384
v -5.00000000 89.80364227 28.62163734
v -5.00000000 90.07437134 35.55237198
v -4.29698420 90.07437134 35.58058548
v -3.60252953 90.07437134 35.46762466
v -2.94470000 90.07437134 35.21804810
v -2.35007858 90.07437134 34.84194565
v -1.84269392 90.07437134 34.35451508
v -1.44304979 90.07437134 33.77545547
v -1.16729605 90.07437134 33.12816238
v -1.02657580 90.07437134 32.43879700
v -1.02657580 90.07437134 31.73521423
v -1.16729605 90.07437134 31.04584885
v -1.44304979 90.07437134 30.39855576
v -1.84269392 90.07437134 29.81949425
v -2.35007858 90.07437134 29.33206367
v -2.94470000 90.07437134 28.95596123
v -3.60252953 90.07437134 28.70638657
v -4.29698420 90.07437134 28.59342384
v -5.00000000 90.07437134 28.62163734
v -5.00000000 93.80364227 35.07803726
v -4.34543610 93.80364227 35.11368561
v -5.00000000 93.80364227 35.55237198
v -4.29698420 93.80364227 35.58058548
v -3.69851542 93.80364227 35.00776672
v -3.60252953 93.80364227 35.46762466
v -3.08949637 93.80364227 34.76523972
v -2.94470000 93.80364227 35.21804810
v -2.54686451 93.80364227 34.39743805
v -2.35007858 93.80364227 34.84194565
v -2.09600019 93.80364227 33.92157745
v -1.84269392 93.80364227 34.35451508
v -1.75799179 93.80364227 33.35990524
v -1.44304979 93.80364227 33.77545547
v -1.16729605 93.80364227 33.12816238
v -1.54864872 93.80364227 32.73869705
v -1.02657580 93.80364227 32.43879700
v -1.47776246 93.80364227 32.08700562
v -1.02657580 93.80364227 31.73521423
v -1.54864872 93.80364227 31.43531418
v -1.16729605 93.80364227 31.04584885
v -1.75799179 93.80364227 30.81410599
v -1.44304979 93.80364227 30.39855576
v -1.84269392 93.80364227 29.81949425
v -2.09600019 93.80364227 30.25243378
v -2.35007858 93.80364227 29.33206367
v -2.54686451 93.80364227 29.77657127
v -2.94470000 93.80364227 28.95596123
v -3.08949637 93.80364227 29.40877151
v -3.60252953 93.80364227 28.70638657
v -3.69851542 93.80364227 29.16624260
v -4.29698420 93.80364227 28.59342384
v -4.34543610 93.80364227 29.06032372
v -5.00000000 93.80364227 28.62163734
v -5.00000000 93.80364227 29.09597397
v -5.00000000 93.80364227 35.55237198
v -4.29698420 93.80364227 35.58058548
v -3.60252953 93.80364227 35.46762466
v -2.94470000 93.80364227 35.21804810
v -2.35007858 93.80364227 34.84194565
v -1.84269392 93.80364227 34.35451508
v -1.44304979 93.80364227 33.77545547
v -1.16729605 93.80364227 33.12816238
v -1.02657580 93.80364227 32.43879700
v -1.02657580 93.80364227 31.73521423
v -1.16729605 93.80364227 31.04584885
v -1.44304979 93.80364227 30.39855576
v -1.84269392 93.80364227 29.81949425
v -2.35007858 93.80364227 29.33206367
v -2.94470000 93.80364227 28.95596123
v -3.60252953 93.80364227 28.70638657
v -4.29698420 93.80364227 28.59342384
v -5.00000000 93.80364227 28.62163734
v -5.00000000 93.53292084 35.55237198
v -4.29698420 93.53292084 35.58058548
v -3.60252953 93.53292084 35.46762466
v -2.94470000 93.53292084 35.21804810
v -2.35007858 93.53292084 34.84194565
v -1.84269392 93.53292084 34.35451508
v -1.44304979 93.53292084 33.77545547
v -1.16729605 93.53292084 33.12816238
v -1.02657580 93.53292084 32.43879700
v -1.02657580 93.53292084 31.73521423
v -1.16729605 93.53292084 31.04584885
v -1.44304979 93.53292084 30.39855576
v -1.84269392 93.53292084 29.81949425
v -2.35007858 93.53292084 29.33206367
v -2.94470000 93.53292084 28.95596123
v -3.60252953 93.53292084 28.70638657
v -4.29698420 93.53292084 28.59342384
v -5.00000000 93.53292084 28.62163734
v -5.00000000 93.80364227 35.07803726
v -4.34543610 93.80364227 35.11368561
v -3.69851542 93.80364227 35.00776672
v -3.08949637 93.80364227 34.76523972
v -2.54686451 93.80364227 34.39743805
v -2.09600019 93.80364227 33.92157745
v -1.75799179 93.80364227 33.35990524
v -1.54864872 93.80364227 32.73869705
v -1.47776246 93.80364227 32.08700562
v -1.54864872 93.80364227 31.43531418
v -1.75799179 93.80364227 30.81410599
v -2.09600019 93.80364227 30.25243378
v -2.54686451 93.80364227 29.77657127
v -3.08949637 93.80364227 29.40877151
v -3.69851542 93.80364227 29.16624260
v -4.34543610 93.80364227 29.06032372
v -5.00000000 93.80364227 29.09597397
v -5.00000000 93.53292084 35.55237198
v -4.29698420 93.53292084 35.58058548
v -3.60252953 93.53292084 35.46762466
v -2.94470000 93.53292084 35.21804810
v -2.35007858 93.53292084 34.84194565
v -1.84269392 93.53292084 34.35451508
v -1.44304979 93.53292084 33.77545547
v -1.16729605 93.53292084 33.12816238
v -1.02657580 93.53292084 32.43879700
v -1.02657580 93.53292084 31.73521423
v -1.16729605 93.53292084 31.04584885
v -1.44304979 93.53292084 30.39855576
v -1.84269392 93.53292084 29.81949425
v -2.35007858 93.53292084 29.33206367
v -2.94470000 93.53292084 28.95596123
v -3.60252953 93.53292084 28.70638657
v -4.29698420 93.53292084 28.59342384
v -5.00000000 93.53292084 28.62163734
v -5.00000000 15.84921551 29.59851456
v 0.00000000 15.84921551 29.59851456
v -5.00000000 15.37984943 29.66600037
v 0.00000000 15.37984943 29.66600037
v -5.00000000 14.91048241 29.59851456
v 0.00000000 14.91048241 29.59851456
v -5.00000000 14.47914124 29.40152931
v 0.00000000 14.47914124 29.40152931
v -5.00000000 14.12077045 29.09099770
v 0.00000000 14.12077045 29.09099770
v -5.00000000 13.86440182 28.69208145
v 0.00000000 13.86440182 28.69208145
v -5.00000000 13.73080635 28.23709679
v 0.00000000 13.73080635 28.23709679
v -5.00000000 13.73080635 27.76290321
v 0.00000000 13.73080635 27.76290321
v -5.00000000 13.86440182 27.30791855
v 0.00000000 13.86440182 27.30791855
v -5.00000000 14.12077045 26.90900230
v 0.00000000 14.12077045 26.90900230
v -5.00000000 14.47914124 26.59847069
v 0.00000000 14.47914124 26.59847069
v -5.00000000 14.91048241 26.40148544
v 0.00000000 14.91048241 26.40148544
v -5.00000000 15.37984943 26.33399963
v 0.00000000 15.37984943 26.33399963
v -5.00000000 15.84921551 26.40148544
v 0.00000000 15.84921551 26.40148544
v -5.00000000 16.28055573 26.59847069
v 0.00000000 16.28055573 26.59847069
v -5.00000000 16.63892746 26.90900230
v 0.00000000 16.63892746 26.90900230
v -5.00000000 16.89529610 27.30791855
v 0.00000000 16.89529610 27.30791855
v -5.00000000 17.02889061 27.76290321
v 0.00000000 17.02889061 27.76290321
v -5.00000000 17.02889061 28.23709679
v 0.00000000 17.02889061 28.23709679
v -5.00000000 16.89529610 28.69208145
v 0.00000000 16.89529610 28.69208145
v -5.00000000 16.63892746 29.09099770
v 0.00000000 16.63892746 29.09099770
v -5.00000000 16.28055573 29.40152931
v 0.00000000 16.28055573 29.40152931
v -5.00000000 80.62396240 21.59851456
v 0.00000000 80.62396240 21.59851456
v -5.00000000 80.15459442 21.66600037
v 0.00000000 80.15459442 21.66600037
v -5.00000000 79.68522644 21.59851456
v 0.00000000 79.68522644 21.59851456
v -5.00000000 79.25388336 21.40152931
v 0.00000000 79.25388336 21.40152931
v -5.00000000 78.89551544 21.09099770
v 0.00000000 78.89551544 21.09099770
v -5.00000000 78.63914490 20.69208145
v 0.00000000 78.63914490 20.69208145
v -5.00000000 78.50555420 20.23709679
v 0.00000000 78.50555420 20.23709679
v -5.00000000 78.50555420 19.76290321
v 0.00000000 78.50555420 19.76290321
v -5.00000000 78.63914490 19.30791855
v 0.00000000 78.63914490 19.30791855
v -5.00000000 78.89551544 18.90900230
v 0.00000000 78.89551544 18.90900230
v -5.00000000 79.25388336 18.59847069
v 0.00000000 79.25388336 18.59847069
v -5.00000000 79.68522644 18.40148544
v 0.00000000 79.68522644 18.40148544
v -5.00000000 80.15459442 18.33399963
v 0.00000000 80.15459442 18.33399963
v -5.00000000 80.62396240 18.40148544
v 0.00000000 80.62396240 18.40148544
v -5.00000000 81.05529785 18.59847069
v 0.00000000 81.05529785 18.59847069
v -5.00000000 81.41367340 18.90900230
v 0.00000000 81.41367340 18.90900230
v -5.00000000 81.67004395 19.30791855
v 0.00000000 81.67004395 19.30791855
v -5.00000000 81.80363464 19.76290321
v 0.00000000 81.80363464 19.76290321
v -5.00000000 81.80363464 20.23709679
v 0.00000000 81.80363464 20.23709679
v -5.00000000 81.67004395 20.69208145
v 0.00000000 81.67004395 20.69208145
v -5.00000000 81.41367340 21.09099770
v 0.00000000 81.41367340 21.09099770
v -5.00000000 81.05529785 21.40152931
v 0.00000000 81.05529785 21.40152931
v -5.00000000 103.12396240 39.59851456
v 0.00000000 103.12396240 39.59851456
v -5.00000000 102.65459442 39.66600037
v 0.00000000 102.65459442 39.66600037
v -5.00000000 102.18522644 39.59851456
v 0.00000000 102.18522644 39.59851456
v -5.00000000 101.75388336 39.40152740
v 0.00000000 101.75388336 39.40152740
v -5.00000000 101.39551544 39.09099960
v 0.00000000 101.39551544 39.09099960
v -5.00000000 101.13914490 38.69208145
v 0.00000000 101.13914490 38.69208145
v -5.00000000 101.00555420 38.23709488
v 0.00000000 101.00555420 38.23709488
v -5.00000000 101.00555420 37.76290512
v 0.00000000 101.00555420 37.76290512
v -5.00000000 101.13914490 37.30791855
v 0.00000000 101.13914490 37.30791855
v -5.00000000 101.39551544 36.90900040
v 0.00000000 101.39551544 36.90900040
v -5.00000000 101.75388336 36.59847260
v 0.00000000 101.75388336 36.59847260
v -5.00000000 102.18522644 36.40148544
v 0.00000000 102.18522644 36.40148544
v -5.00000000 102.65459442 36.33399963
v 0.00000000 102.65459442 36.33399963
v -5.00000000 103.12396240 36.40148544
v 0.00000000 103.12396240 36.40148544
v -5.00000000 103.55529785 36.59847260
v 0.00000000 103.55529785 36.59847260
v -5.00000000 103.91367340 36.90900040
v 0.00000000 103.91367340 36.90900040
v -5.00000000 104.17004395 37.30791855
v 0.00000000 104.17004395 37.30791855
v -5.00000000 104.30363464 37.76290512
v 0.00000000 104.30363464 37.76290512
v -5.00000000 104.30363464 38.23709488
v 0.00000000 104.30363464 38.23709488
v -5.00000000 104.17004395 38.69208145
v 0.00000000 104.17004395 38.69208145
v -5.00000000 103.91367340 39.09099960
v 0.00000000 103.91367340 39.09099960
v -5.00000000 103.55529785 39.40152740
v 0.00000000 103.55529785 39.40152740
v -5.00000000 103.12396240 29.59851456
v 0.00000000 103.12396240 29.59851456
v -5.00000000 102.65459442 29.66600037
v 0.00000000 102.65459442 29.66600037
v -5.00000000 102.18522644 29.59851456
v 0.00000000 102.18522644 29.59851456
v -5.00000000 101.75388336 29.40152931
v 0.00000000 101.75388336 29.40152931
v -5.00000000 101.39551544 29.09099770
v 0.00000000 101.39551544 29.09099770
v -5.00000000 101.13914490 28.69208145
v 0.00000000 101.13914490 28.69208145
v -5.00000000 101.00555420 28.23709679
v 0.00000000 101.00555420 28.23709679
v -5.00000000 101.00555420 27.76290321
v 0.00000000 101.00555420 27.76290321
v -5.00000000 101.13914490 27.30791855
v 0.00000000 101.13914490 27.30791855
v -5.00000000 101.39551544 26.90900230
v 0.00000000 101.39551544 26.90900230
v -5.00000000 101.75388336 26.59847069
v 0.00000000 101.75388336 26.59847069
v -5.00000000 102.18522644 26.40148544
v 0.00000000 102.18522644 26.40148544
v -5.00000000 102.65459442 26.33399963
v 0.00000000 102.65459442 26.33399963
v -5.00000000 103.12396240 26.40148544
v 0.00000000 103.12396240 26.40148544
v -5.00000000 103.55529785 26.59847069
v 0.00000000 103.55529785 26.59847069
v -5.00000000 103.91367340 26.90900230
v 0.00000000 103.91367340 26.90900230
v -5.00000000 104.17004395 27.30791855
v 0.00000000 104.17004395 27.30791855
v -5.00000000 104.30363464 27.76290321
v 0.00000000 104.30363464 27.76290321
v -5.00000000 104.30363464 28.23709679
v 0.00000000 104.30363464 28.23709679
v -5.00000000 104.17004395 28.69208145
v 0.00000000 104.17004395 28.69208145
v -5.00000000 103.91367340 29.09099770
v 0.00000000 103.91367340 29.09099770
v -5.00000000 103.55529785 29.40152931
v 0.00000000 103.55529785 29.40152931
v -5.00000000 38.34921646 21.59851456
v 0.00000000 38.34921646 21.59851456
v -5.00000000 37.87984848 21.66600037
v 0.00000000 37.87984848 21.66600037
v -5.00000000 37.41048431 21.59851456
v 0.00000000 37.41048431 21.59851456
v -5.00000000 36.97914124 21.40152931
v 0.00000000 36.97914124 21.40152931
v -5.00000000 36.62076950 21.09099770
v 0.00000000 36.62076950 21.09099770
v -5.00000000 36.36440277 20.69208145
v 0.00000000 36.36440277 20.69208145
v -5.00000000 36.23080826 20.23709679
v 0.00000000 36.23080826 20.23709679
v -5.00000000 36.23080826 19.76290321
v 0.00000000 36.23080826 19.76290321
v -5.00000000 36.36440277 19.30791855
v 0.00000000 36.36440277 19.30791855
v -5.00000000 36.62076950 18.90900230
v 0.00000000 36.62076950 18.90900230
v -5.00000000 36.97914124 18.59847069
v 0.00000000 36.97914124 18.59847069
v -5.00000000 37.41048431 18.40148544
v 0.00000000 37.41048431 18.40148544
v -5.00000000 37.87984848 18.33399963
v 0.00000000 37.87984848 18.33399963
v -5.00000000 38.34921646 18.40148544
v 0.00000000 38.34921646 18.40148544
v -5.00000000 38.78055573 18.59847069
v 0.00000000 38.78055573 18.59847069
v -5.00000000 39.13892746 18.90900230
v 0.00000000 39.13892746 18.90900230
v -5.00000000 39.39529419 19.30791855
v 0.00000000 39.39529419 19.30791855
v -5.00000000 39.52889252 19.76290321
v 0.00000000 39.52889252 19.76290321
v -5.00000000 39.52889252 20.23709679
v 0.00000000 39.52889252 20.23709679
v -5.00000000 39.39529419 20.69208145
v 0.00000000 39.39529419 20.69208145
v -5.00000000 39.13892746 21.09099770
v 0.00000000 39.13892746 21.09099770
v -5.00000000 38.78055573 21.40152931
v 0.00000000 38.78055573 21.40152931
v -5.00000000 15.84921551 39.59851456
v 0.00000000 15.84921551 39.59851456
v -5.00000000 15.37984943 39.66600037
v 0.00000000 15.37984943 39.66600037
v -5.00000000 14.91048241 39.59851456
v 0.00000000 14.91048241 39.59851456
v -5.00000000 14.47914124 39.40152740
v 0.00000000 14.47914124 39.40152740
v -5.00000000 14.12077045 39.09099960
v 0.00000000 14.12077045 39.09099960
v -5.00000000 13.86440182 38.69208145
v 0.00000000 13.86440182 38.69208145
v -5.00000000 13.73080635 38.23709488
v 0.00000000 13.73080635 38.23709488
v -5.00000000 13.73080635 37.76290512
v 0.00000000 13.73080635 37.76290512
v -5.00000000 13.86440182 37.30791855
v 0.00000000 13.86440182 37.30791855
v -5.00000000 14.12077045 36.90900040
v 0.00000000 14.12077045 36.90900040
v -5.00000000 14.47914124 36.59847260
v 0.00000000 14.47914124 36.59847260
v -5.00000000 14.91048241 36.40148544
v 0.00000000 14.91048241 36.40148544
v -5.00000000 15.37984943 36.33399963
v 0.00000000 15.37984943 36.33399963
v -5.00000000 15.84921551 36.40148544
v 0.00000000 15.84921551 36.40148544
v -5.00000000 16.28055573 36.59847260
v 0.00000000 16.28055573 36.59847260
v -5.00000000 16.63892746 36.90900040
v 0.00000000 16.63892746 36.90900040
v -5.00000000 16.89529610 37.30791855
v 0.00000000 16.89529610 37.30791855
v -5.00000000 17.02889061 37.76290512
v 0.00000000 17.02889061 37.76290512
v -5.00000000 17.02889061 38.23709488
v 0.00000000 17.02889061 38.23709488
v -5.00000000 16.89529610 38.69208145
v 0.00000000 16.89529610 38.69208145
v -5.00000000 16.63892746 39.09099960
v 0.00000000 16.63892746 39.09099960
v -5.00000000 16.28055573 39.40152740
v 0.00000000 16.28055573 39.40152740
v -2.03063345 29.21909332 48.00000000
v -2.03063345 29.21909332 38.00000000
v -2.50000000 29.15160942 48.00000000
v -2.50000000 29.15160942 38.00000000
v -2.96936655 29.21909332 48.00000000
v -2.96936655 29.21909332 38.00000000
v -3.40070748 29.41608047 48.00000000
v -3.40070748 29.41608047 38.00000000
v -3.75907874 29.72661018 48.00000000
v -3.75907874 29.72661018 38.00000000
v -4.01544714 30.12552643 48.00000000
v -4.01544714 30.12552643 38.00000000
v -4.14904261 30.58051300 48.00000000
v -4.14904261 30.58051300 38.00000000
v -4.14904261 31.05470467 48.00000000
v -4.14904261 31.05470467 38.00000000
v -4.01544714 31.50968933 48.00000000
v -4.01544714 31.50968933 38.00000000
v -3.75907874 31.90860748 48.00000000
v -3.75907874 31.90860748 38.00000000
v -3.40070748 32.21913528 48.00000000
v -3.40070748 32.21913528 38.00000000
v -2.96936655 32.41612244 48.00000000
v -2.96936655 32.41612244 38.00000000
v -2.50000000 32.48360825 48.00000000
v -2.50000000 32.48360825 38.00000000
v -2.03063345 32.41612244 48.00000000
v -2.03063345 32.41612244 38.00000000
v -1.59929240 32.21913528 48.00000000
v -1.59929240 32.21913528 38.00000000
v -1.24092126 31.90860748 48.00000000
v -1.24092126 31.90860748 38.00000000
v -0.98455310 31.50968933 48.00000000
v -0.98455310 31.50968933 38.00000000
v -0.85095745 31.05470467 48.00000000
v -0.85095745 31.05470467 38.00000000
v -0.85095745 30.58051300 48.00000000
v -0.85095745 30.58051300 38.00000000
v -0.98455310 30.12552643 48.00000000
v -0.98455310 30.12552643 38.00000000
v -1.24092126 29.72661018 48.00000000
v -1.24092126 29.72661018 38.00000000
v -1.59929240 29.41608047 48.00000000
v -1.59929240 29.41608047 38.00000000
v -2.03063345 29.21909332 38.00000000
v -2.50000000 29.15160942 38.00000000
v -2.96936655 29.21909332 38.00000000
v -3.40070748 29.41608047 38.00000000
v -3.75907874 29.72661018 38.00000000
v -4.01544714 30.12552643 38.00000000
v -4.14904261 30.58051300 38.00000000
v -4.14904261 31.05470467 38.00000000
v -4.01544714 31.50968933 38.00000000
v -3.75907874 31.90860748 38.00000000
v -3.40070748 32.21913528 38.00000000
v -2.96936655 32.41612244 38.00000000
v -2.50000000 32.48360825 38.00000000
v -2.03063345 32.41612244 38.00000000
v -1.59929240 32.21913528 38.00000000
v -1.24092126 31.90860748 38.00000000
v -0.98455310 31.50968933 38.00000000
v -0.85095745 31.05470467 38.00000000
v -0.85095745 30.58051300 38.00000000
v -0.98455310 30.12552643 38.00000000
v -1.24092126 29.72661018 38.00000000
v -1.59929240 29.41608047 38.00000000
v -2.03063345 86.83155060 48.00000000
v -2.03063345 86.83155060 38.00000000
v -2.50000000 86.76406860 48.00000000
v -2.50000000 86.76406860 38.00000000
v -2.96936655 86.83155060 48.00000000
v -2.96936655 86.83155060 38.00000000
v -3.40070748 87.02854156 48.00000000
v -3.40070748 87.02854156 38.00000000
v -3.75907874 87.33907318 48.00000000
v -3.75907874 87.33907318 38.00000000
v -4.01544714 87.73799133 48.00000000
v -4.01544714 87.73799133 38.00000000
v -4.14904261 88.19297028 48.00000000
v -4.14904261 88.19297028 38.00000000
v -4.14904261 88.66716766 48.00000000
v -4.14904261 88.66716766 38.00000000
v -4.01544714 89.12215424 48.00000000
v -4.01544714 89.12215424 38.00000000
v -3.75907874 89.52106476 48.00000000
v -3.75907874 89.52106476 38.00000000
v -3.40070748 89.83159637 48.00000000
v -3.40070748 89.83159637 38.00000000
v -2.96936655 90.02858734 48.00000000
v -2.96936655 90.02858734 38.00000000
v -2.50000000 90.09606934 48.00000000
v -2.50000000 90.09606934 38.00000000
v -2.03063345 90.02858734 48.00000000
v -2.03063345 90.02858734 38.00000000
v -1.59929240 89.83159637 48.00000000
v -1.59929240 89.83159637 38.00000000
v -1.24092126 89.52106476 48.00000000
v -1.24092126 89.52106476 38.00000000
v -0.98455310 89.12215424 48.00000000
v -0.98455310 89.12215424 38.00000000
v -0.85095745 88.66716766 48.00000000
v -0.85095745 88.66716766 38.00000000
v -0.85095745 88.19297028 48.00000000
v -0.85095745 88.19297028 38.00000000
v -0.98455310 87.73799133 48.00000000
v -0.98455310 87.73799133 38.00000000
v -1.24092126 87.33907318 48.00000000
v -1.24092126 87.33907318 38.00000000
v -1.59929240 87.02854156 48.00000000
v -1.59929240 87.02854156 38.00000000
v -2.03063345 86.83155060 38.00000000
v -2.50000000 86.76406860 38.00000000
v -2.96936655 86.83155060 38.00000000
v -3.40070748 87.02854156 38.00000000
v -3.75907874 87.33907318 38.00000000
v -4.01544714 87.73799133 38.00000000
v -4.14904261 88.19297028 38.00000000
v -4.14904261 88.66716766 38.00000000
v -4.01544714 89.12215424 38.00000000
v -3.75907874 89.52106476 38.00000000
v -3.40070748 89.83159637 38.00000000
v -2.96936655 90.02858734 38.00000000
v -2.50000000 90.09606934 38.00000000
v -2.03063345 90.02858734 38.00000000
v -1.59929240 89.83159637 38.00000000
v -1.24092126 89.52106476 38.00000000
v -0.98455310 89.12215424 38.00000000
v -0.85095745 88.66716766 38.00000000
v -0.85095745 88.19297028 38.00000000
v -0.98455310 87.73799133 38.00000000
v -1.24092126 87.33907318 38.00000000
v -1.59929240 87.02854156 38.00000000
v -4.09851551 5.00000000 27.53063393
v -4.09851551 10.00000000 27.53063393
v -4.16599989 5.00000000 28.00000000
v -4.16599989 10.00000000 28.00000000
v -4.09851551 5.00000000 28.46936607
v -4.09851551 10.00000000 28.46936607
v -3.90152836 5.00000000 28.90070724
v -3.90152836 10.00000000 28.90070724
v -3.59099793 5.00000000 29.25907898
v -3.59099793 10.00000000 29.25907898
v -3.19208145 5.00000000 29.51544762
v -3.19208145 10.00000000 29.51544762
v -2.73709655 5.00000000 29.64904213
v -2.73709655 10.00000000 29.64904213
v -2.26290345 5.00000000 29.64904213
v -2.26290345 10.00000000 29.64904213
v -1.80791855 5.00000000 29.51544762
v -1.80791855 10.00000000 29.51544762
v -1.40900207 5.00000000 29.25907898
v -1.40900207 10.00000000 29.25907898
v -1.09847164 5.00000000 28.90070724
v -1.09847164 10.00000000 28.90070724
v -0.90148473 5.00000000 28.46936607
v -0.90148473 10.00000000 28.46936607
v -0.83399999 5.00000000 28.00000000
v -0.83399999 10.00000000 28.00000000
v -0.90148473 5.00000000 27.53063393
v -0.90148473 10.00000000 27.53063393
v -1.09847164 5.00000000 27.09929276
v -1.09847164 10.00000000 27.09929276
v -1.40900207 5.00000000 26.74092102
v -1.40900207 10.00000000 26.74092102
v -1.80791855 5.00000000 26.48455238
v -1.80791855 10.00000000 26.48455238
v -2.26290345 5.00000000 26.35095787
v -2.26290345 10.00000000 26.35095787
v -2.73709655 5.00000000 26.35095787
v -2.73709655 10.00000000 26.35095787
v -3.19208145 5.00000000 26.48455238
v -3.19208145 10.00000000 26.48455238
v -3.59099793 5.00000000 26.74092102
v -3.59099793 10.00000000 26.74092102
v -3.90152836 5.00000000 27.09929276
v -3.90152836 10.00000000 27.09929276
v -4.09851551 10.00000000 27.53063393
v -4.16599989 10.00000000 28.00000000
v -4.09851551 10.00000000 28.46936607
v -3.90152836 10.00000000 28.90070724
v -3.59099793 10.00000000 29.25907898
v -3.19208145 10.00000000 29.51544762
v -2.73709655 10.00000000 29.64904213
v -2.26290345 10.00000000 29.64904213
v -1.80791855 10.00000000 29.51544762
v -1.40900207 10.00000000 29.25907898
v -1.09847164 10.00000000 28.90070724
v -0.90148473 10.00000000 28.46936607
v -0.83399999 10.00000000 28.00000000
v -0.90148473 10.00000000 27.53063393
v -1.09847164 10.00000000 27.09929276
v -1.40900207 10.00000000 26.74092102
v -1.80791855 10.00000000 26.48455238
v -2.26290345 10.00000000 26.35095787
v -2.73709655 10.00000000 26.35095787
v -3.19208145 10.00000000 26.48455238
v -3.59099793 10.00000000 26.74092102
v -3.90152836 10.00000000 27.09929276
v -4.09851551 5.00000000 37.53063202
v -4.09851551 10.00000000 37.53063202
v -4.16599989 5.00000000 38.00000000
v -4.16599989 10.00000000 38.00000000
v -4.09851551 5.00000000 38.46936798
v -4.09851551 10.00000000 38.46936798
v -3.90152836 5.00000000 38.90070724
v -3.90152836 10.00000000 38.90070724
v -3.59099793 5.00000000 39.25907898
v -3.59099793 10.00000000 39.25907898
v -3.19208145 5.00000000 39.51544571
v -3.19208145 10.00000000 39.51544571
v -2.73709655 5.00000000 39.64904404
v -2.73709655 10.00000000 39.64904404
v -2.26290345 5.00000000 39.64904404
v -2.26290345 10.00000000 39.64904404
v -1.80791855 5.00000000 39.51544571
v -1.80791855 10.00000000 39.51544571
v -1.40900207 5.00000000 39.25907898
v -1.40900207 10.00000000 39.25907898
v -1.09847164 5.00000000 38.90070724
v -1.09847164 10.00000000 38.90070724
v -0.90148473 5.00000000 38.46936798
v -0.90148473 10.00000000 38.46936798
v -0.83399999 5.00000000 38.00000000
v -0.83399999 10.00000000 38.00000000
v -0.90148473 5.00000000 37.53063202
v -0.90148473 10.00000000 37.53063202
v -1.09847164 5.00000000 37.09929276
v -1.09847164 10.00000000 37.09929276
v -1.40900207 5.00000000 36.74092102
v -1.40900207 10.00000000 36.74092102
v -1.80791855 5.00000000 36.48455429
v -1.80791855 10.00000000 36.48455429
v -2.26290345 5.00000000 36.35095596
v -2.26290345 10.00000000 36.35095596
v -2.73709655 5.00000000 36.35095596
v -2.73709655 10.00000000 36.35095596
v -3.19208145 5.00000000 36.48455429
v -3.19208145 10.00000000 36.48455429
v -3.59099793 5.00000000 36.74092102
v -3.59099793 10.00000000 36.74092102
v -3.90152836 5.00000000 37.09929276
v -3.90152836 10.00000000 37.09929276
v -4.09851551 10.00000000 37.53063202
v -4.16599989 10.00000000 38.00000000
v -4.09851551 10.00000000 38.46936798
v -3.90152836 10.00000000 38.90070724
v -3.59099793 10.00000000 39.25907898
v -3.19208145 10.00000000 39.51544571
v -2.73709655 10.00000000 39.64904404
v -2.26290345 10.00000000 39.64904404
v -1.80791855 10.00000000 39.51544571
v -1.40900207 10.00000000 39.25907898
v -1.09847164 10.00000000 38.90070724
v -0.90148473 10.00000000 38.46936798
v -0.83399999 10.00000000 38.00000000
v -0.90148473 10.00000000 37.53063202
v -1.09847164 10.00000000 37.09929276
v -1.40900207 10.00000000 36.74092102
v -1.80791855 10.00000000 36.48455429
v -2.26290345 10.00000000 36.35095596
v -2.73709655 10.00000000 36.35095596
v -3.19208145 10.00000000 36.48455429
v -3.59099793 10.00000000 36.74092102
v -3.90152836 10.00000000 37.09929276
v -0.90148473 113.43006897 37.53063202
v -0.90148473 108.43006897 37.53063202
v -0.83399999 113.43006897 38.00000000
v -0.83399999 108.43006897 38.00000000
v -0.90148473 113.43006897 38.46936798
v -0.90148473 108.43006897 38.46936798
v -1.09847164 113.43006897 38.90070724
v -1.09847164 108.43006897 38.90070724
v -1.40900207 113.43006897 39.25907898
v -1.40900207 108.43006897 39.25907898
v -1.80791855 113.43006897 39.51544571
v -1.80791855 108.43006897 39.51544571
v -2.26290345 113.43006897 39.64904404
v -2.26290345 108.43006897 39.64904404
v -2.73709655 113.43006897 39.64904404
v -2.73709655 108.43006897 39.64904404
v -3.19208145 113.43006897 39.51544571
v -3.19208145 108.43006897 39.51544571
v -3.59099793 113.43006897 39.25907898
v -3.59099793 108.43006897 39.25907898
v -3.90152836 113.43006897 38.90070724
v -3.90152836 108.43006897 38.90070724
v -4.09851551 113.43006897 38.46936798
v -4.09851551 108.43006897 38.46936798
v -4.16599989 113.43006897 38.00000000
v -4.16599989 108.43006897 38.00000000
v -4.09851551 113.43006897 37.53063202
v -4.09851551 108.43006897 37.53063202
v -3.90152836 113.43006897 37.09929276
v -3.90152836 108.43006897 37.09929276
v -3.59099793 113.43006897 36.74092102
v -3.59099793 108.43006897 36.74092102
v -3.19208145 113.43006897 36.48455429
v -3.19208145 108.43006897 36.48455429
v -2.73709655 113.43006897 36.35095596
v -2.73709655 108.43006897 36.35095596
v -2.26290345 113.43006897 36.35095596
v -2.26290345 108.43006897 36.35095596
v -1.80791855 113.43006897 36.48455429
v -1.80791855 108.43006897 36.48455429
v -1.40900207 113.43006897 36.74092102
v -1.40900207 108.43006897 36.74092102
v -1.09847164 113.43006897 37.09929276
v -1.09847164 108.43006897 37.09929276
v -0.90148473 108.43006897 37.53063202
v -0.83399999 108.43006897 38.00000000
v -0.90148473 108.43006897 38.46936798
v -1.09847164 108.43006897 38.90070724
v -1.40900207 108.43006897 39.25907898
v -1.80791855 108.43006897 39.51544571
v -2.26290345 108.43006897 39.64904404
v -2.73709655 108.43006897 39.64904404
v -3.19208145 108.43006897 39.51544571
v -3.59099793 108.43006897 39.25907898
v -3.90152836 108.43006897 38.90070724
v -4.09851551 108.43006897 38.46936798
v -4.16599989 108.43006897 38.00000000
v -4.09851551 108.43006897 37.53063202
v -3.90152836 108.43006897 37.09929276
v -3.59099793 108.43006897 36.74092102
v -3.19208145 108.43006897 36.48455429
v -2.73709655 108.43006897 36.35095596
v -2.26290345 108.43006897 36.35095596
v -1.80791855 108.43006897 36.48455429
v -1.40900207 108.43006897 36.74092102
v -1.09847164 108.43006897 37.09929276
v -0.90148473 113.43006897 27.53063393
v -0.90148473 108.43006897 27.53063393
v -0.83399999 113.43006897 28.00000000
v -0.83399999 108.43006897 28.00000000
v -0.90148473 113.43006897 28.46936607
v -0.90148473 108.43006897 28.46936607
v -1.09847164 113.43006897 28.90070724
v -1.09847164 108.43006897 28.90070724
v -1.40900207 113.43006897 29.25907898
v -1.40900207 108.43006897 29.25907898
v -1.80791855 113.43006897 29.51544762
v -1.80791855 108.43006897 29.51544762
v -2.26290345 113.43006897 29.64904213
v -2.26290345 108.43006897 29.64904213
v -2.73709655 113.43006897 29.64904213
v -2.73709655 108.43006897 29.64904213
v -3.19208145 113.43006897 29.51544762
v -3.19208145 108.43006897 29.51544762
v -3.59099793 113.43006897 29.25907898
v -3.59099793 108.43006897 29.25907898
v -3.90152836 113.43006897 28.90070724
v -3.90152836 108.43006897 28.90070724
v -4.09851551 113.43006897 28.46936607
v -4.09851551 108.43006897 28.46936607
v -4.16599989 113.43006897 28.00000000
v -4.16599989 108.43006897 28.00000000
v -4.09851551 113.43006897 27.53063393
v -4.09851551 108.43006897 27.53063393
v -3.90152836 113.43006897 27.09929276
v -3.90152836 108.43006897 27.09929276
v -3.59099793 113.43006897 26.74092102
v -3.59099793 108.43006897 26.74092102
v -3.19208145 113.43006897 26.48455238
v -3.19208145 108.43006897 26.48455238
v -2.73709655 113.43006897 26.35095787
v -2.73709655 108.43006897 26.35095787
v -2.26290345 113.43006897 26.35095787
v -2.26290345 108.43006897 26.35095787
v -1.80791855 113.43006897 26.48455238
v -1.80791855 108.43006897 26.48455238
v -1.40900207 113.43006897 26.74092102
v -1.40900207 108.43006897 26.74092102
v -1.09847164 113.43006897 27.09929276
v -1.09847164 108.43006897 27.09929276
v -0.90148473 108.43006897 27.53063393
v -0.83399999 108.43006897 28.00000000
v -0.90148473 108.43006897 28.46936607
v -1.09847164 108.43006897 28.90070724
v -1.40900207 108.43006897 29.25907898
v -1.80791855 108.43006897 29.51544762
v -2.26290345 108.43006897 29.64904213
v -2.73709655 108.43006897 29.64904213
v -3.19208145 108.43006897 29.51544762
v -3.59099793 108.43006897 29.25907898
v -3.90152836 108.43006897 28.90070724
v -4.09851551 108.43006897 28.46936607
v -4.16599989 108.43006897 28.00000000
v -4.09851551 108.43006897 27.53063393
v -3.90152836 108.43006897 27.09929276
v -3.59099793 108.43006897 26.74092102
v -3.19208145 108.43006897 26.48455238
v -2.73709655 108.43006897 26.35095787
v -2.26290345 108.43006897 26.35095787
v -1.80791855 108.43006897 26.48455238
v -1.40900207 108.43006897 26.74092102
v -1.09847164 108.43006897 27.09929276
v -5.00000000 5.00000000 15.00000000
v -5.00000000 113.43006897 15.00000000
v 0.00000000 5.00000000 15.00000000
v 0.00000000 113.43006897 15.00000000
v -0.90148473 113.43006897 37.53063202
v -0.83399999 113.43006897 38.00000000
v -0.90148473 113.43006897 38.46936798
v -1.09847164 113.43006897 38.90070724
v -1.40900207 113.43006897 39.25907898
v -1.80791855 113.43006897 39.51544571
v -2.26290345 113.43006897 39.64904404
v -2.73709655 113.43006897 39.64904404
v -3.19208145 113.43006897 39.51544571
v -3.59099793 113.43006897 39.25907898
v -3.90152836 113.43006897 38.90070724
v -4.09851551 113.43006897 38.46936798
v -4.16599989 113.43006897 38.00000000
v -4.09851551 113.43006897 37.53063202
v -3.90152836 113.43006897 37.09929276
v -3.59099793 113.43006897 36.74092102
v -3.19208145 113.43006897 36.48455429
v -2.73709655 113.43006897 36.35095596
v -2.26290345 113.43006897 36.35095596
v -1.80791855 113.43006897 36.48455429
v -1.40900207 113.43006897 36.74092102
v -1.09847164 113.43006897 37.09929276
v -0.90148473 113.43006897 27.53063393
v -0.83399999 113.43006897 28.00000000
v -0.90148473 113.43006897 28.46936607
v -1.09847164 113.43006897 28.90070724
v -1.40900207 113.43006897 29.25907898
v -1.80791855 113.43006897 29.51544762
v -2.26290345 113.43006897 29.64904213
v -2.73709655 113.43006897 29.64904213
v -3.19208145 113.43006897 29.51544762
v -3.59099793 113.43006897 29.25907898
v -3.90152836 113.43006897 28.90070724
v -4.09851551 113.43006897 28.46936607
v -4.16599989 113.43006897 28.00000000
v -4.09851551 113.43006897 27.53063393
v -3.90152836 113.43006897 27.09929276
v -3.59099793 113.43006897 26.74092102
v -3.19208145 113.43006897 26.48455238
v -2.73709655 113.43006897 26.35095787
v -2.26290345 113.43006897 26.35095787
v -1.80791855 113.43006897 26.48455238
v -1.40900207 113.43006897 26.74092102
v -1.09847164 113.43006897 27.09929276
v -5.00000000 113.43006897 15.00000000
v 0.00000000 113.43006897 15.00000000
v -5.00000000 113.43006897 48.00000000
v 0.00000000 113.43006897 48.00000000
v -4.09851551 5.00000000 27.53063393
v -4.16599989 5.00000000 28.00000000
v -4.09851551 5.00000000 28.46936607
v -3.90152836 5.00000000 28.90070724
v -3.59099793 5.00000000 29.25907898
v -3.19208145 5.00000000 29.51544762
v -2.73709655 5.00000000 29.64904213
v -2.26290345 5.00000000 29.64904213
v -1.80791855 5.00000000 29.51544762
v -1.40900207 5.00000000 29.25907898
v -1.09847164 5.00000000 28.90070724
v -0.90148473 5.00000000 28.46936607
v -0.83399999 5.00000000 28.00000000
v -0.90148473 5.00000000 27.53063393
v -1.09847164 5.00000000 27.09929276
v -1.40900207 5.00000000 26.74092102
v -1.80791855 5.00000000 26.48455238
v -2.26290345 5.00000000 26.35095787
v -2.73709655 5.00000000 26.35095787
v -3.19208145 5.00000000 26.48455238
v -3.59099793 5.00000000 26.74092102
v -3.90152836 5.00000000 27.09929276
v -4.09851551 5.00000000 37.53063202
v -4.16599989 5.00000000 38.00000000
v -4.09851551 5.00000000 38.46936798
v -3.90152836 5.00000000 38.90070724
v -3.59099793 5.00000000 39.25907898
v -3.19208145 5.00000000 39.51544571
v -2.73709655 5.00000000 39.64904404
v -2.26290345 5.00000000 39.64904404
v -1.80791855 5.00000000 39.51544571
v -1.40900207 5.00000000 39.25907898
v -1.09847164 5.00000000 38.90070724
v -0.90148473 5.00000000 38.46936798
v -0.83399999 5.00000000 38.00000000
v -0.90148473 5.00000000 37.53063202
v -1.09847164 5.00000000 37.09929276
v -1.40900207 5.00000000 36.74092102
v -1.80791855 5.00000000 36.48455429
v -2.26290345 5.00000000 36.35095596
v -2.73709655 5.00000000 36.35095596
v -3.19208145 5.00000000 36.48455429
v -3.59099793 5.00000000 36.74092102
v -3.90152836 5.00000000 37.09929276
v -5.00000000 5.00000000 15.00000000
v 0.00000000 5.00000000 15.00000000
v -5.00000000 5.00000000 48.00000000
v 0.00000000 5.00000000 48.00000000
v -2.03063345 29.21909332 48.00000000
v -2.50000000 29.15160942 48.00000000
v -2.96936655 29.21909332 48.00000000
v -3.40070748 29.41608047 48.00000000
v -3.75907874 29.72661018 48.00000000
v -4.01544714 30.12552643 48.00000000
v -4.14904261 30.58051300 48.00000000
v -4.14904261 31.05470467 48.00000000
v -4.01544714 31.50968933 48.00000000
v -3.75907874 31.90860748 48.00000000
v -3.40070748 32.21913528 48.00000000
v -2.96936655 32.41612244 48.00000000
v -2.50000000 32.48360825 48.00000000
v -2.03063345 32.41612244 48.00000000
v -1.59929240 32.21913528 48.00000000
v -1.24092126 31.90860748 48.00000000
v -0.98455310 31.50968933 48.00000000
v -0.85095745 31.05470467 48.00000000
v -0.85095745 30.58051300 48.00000000
v -0.98455310 30.12552643 48.00000000
v -1.24092126 29.72661018 48.00000000
v -1.59929240 29.41608047 48.00000000
v -2.03063345 86.83155060 48.00000000
v -2.50000000 86.76406860 48.00000000
v -2.96936655 86.83155060 48.00000000
v -3.40070748 87.02854156 48.00000000
v -3.75907874 87.33907318 48.00000000
v -4.01544714 87.73799133 48.00000000
v -4.14904261 88.19297028 48.00000000
v -4.14904261 88.66716766 48.00000000
v -4.01544714 89.12215424 48.00000000
v -3.75907874 89.52106476 48.00000000
v -3.40070748 89.83159637 48.00000000
v -2.96936655 90.02858734 48.00000000
v -2.50000000 90.09606934 48.00000000
v -2.03063345 90.02858734 48.00000000
v -1.59929240 89.83159637 48.00000000
v -1.24092126 89.52106476 48.00000000
v -0.98455310 89.12215424 48.00000000
v -0.85095745 88.66716766 48.00000000
v -0.85095745 88.19297028 48.00000000
v -0.98455310 87.73799133 48.00000000
v -1.24092126 87.33907318 48.00000000
v -1.59929240 87.02854156 48.00000000
v -5.00000000 5.00000000 48.00000000
v -5.00000000 113.43006897 48.00000000
v 0.00000000 113.43006897 48.00000000
v 0.00000000 5.00000000 48.00000000
v -5.00000000 89.80364227 35.07803726
v -5.00000000 89.80364227 35.55237198
v -5.00000000 89.80364227 28.62163734
v -5.00000000 89.80364227 29.09597397
v -5.00000000 90.07437134 35.55237198
v -5.00000000 90.07437134 28.62163734
v -5.00000000 93.80364227 35.07803726
v -5.00000000 93.80364227 35.55237198
v -5.00000000 93.80364227 28.62163734
v -5.00000000 93.80364227 29.09597397
v -5.00000000 93.53292084 35.55237198
v -5.00000000 93.53292084 28.62163734
v -5.00000000 15.84921551 29.59851456
v -5.00000000 15.37984943 29.66600037
v -5.00000000 14.91048241 29.59851456
v -5.00000000 14.47914124 29.40152931
v -5.00000000 14.12077045 29.09099770
v -5.00000000 13.86440182 28.69208145
v -5.00000000 13.73080635 28.23709679
v -5.00000000 13.73080635 27.76290321
v -5.00000000 13.86440182 27.30791855
v -5.00000000 14.12077045 26.90900230
v -5.00000000 14.47914124 26.59847069
v -5.00000000 14.91048241 26.40148544
v -5.00000000 15.37984943 26.33399963
v -5.00000000 15.84921551 26.40148544
v -5.00000000 16.28055573 26.59847069
v -5.00000000 16.63892746 26.90900230
v -5.00000000 16.89529610 27.30791855
v -5.00000000 17.02889061 27.76290321
v -5.00000000 17.02889061 28.23709679
v -5.00000000 16.89529610 28.69208145
v -5.00000000 16.63892746 29.09099770
v -5.00000000 16.28055573 29.40152931
v -5.00000000 80.62396240 21.59851456
v -5.00000000 80.15459442 21.66600037
v -5.00000000 79.68522644 21.59851456
v -5.00000000 79.25388336 21.40152931
v -5.00000000 78.89551544 21.09099770
v -5.00000000 78.63914490 20.69208145
v -5.00000000 78.50555420 20.23709679
v -5.00000000 78.50555420 19.76290321
v -5.00000000 78.63914490 19.30791855
v -5.00000000 78.89551544 18.90900230
v -5.00000000 79.25388336 18.59847069
v -5.00000000 79.68522644 18.40148544
v -5.00000000 80.15459442 18.33399963
v -5.00000000 80.62396240 18.40148544
v -5.00000000 81.05529785 18.59847069
v -5.00000000 81.41367340 18.90900230
v -5.00000000 81.67004395 19.30791855
v -5.00000000 81.80363464 19.76290321
v -5.00000000 81.80363464 20.23709679
v -5.00000000 81.67004395 20.69208145
v -5.00000000 81.41367340 21.09099770
v -5.00000000 81.05529785 21.40152931
v -5.00000000 103.12396240 39.59851456
v -5.00000000 102.65459442 39.66600037
v -5.00000000 102.18522644 39.59851456
v -5.00000000 101.75388336 39.40152740
v -5.00000000 101.39551544 39.09099960
v -5.00000000 101.13914490 38.69208145
v -5.00000000 101.00555420 38.23709488
v -5.00000000 101.00555420 37.76290512
v -5.00000000 101.13914490 37.30791855
v -5.00000000 101.39551544 36.90900040
v -5.00000000 101.75388336 36.59847260
v -5.00000000 102.18522644 36.40148544
v -5.00000000 102.65459442 36.33399963
v -5.00000000 103.12396240 36.40148544
v -5.00000000 103.55529785 36.59847260
v -5.00000000 103.91367340 36.90900040
v -5.00000000 104.17004395 37.30791855
v -5.00000000 104.30363464 37.76290512
v -5.00000000 104.30363464 38.23709488
v -5.00000000 104.17004395 38.69208145
v -5.00000000 103.91367340 39.09099960
v -5.00000000 103.55529785 39.40152740
v -5.00000000 103.12396240 29.59851456
v -5.00000000 102.65459442 29.66600037
v -5.00000000 102.18522644 29.59851456
v -5.00000000 101.75388336 29.40152931
v -5.00000000 101.39551544 29.09099770
v -5.00000000 101.13914490 28.69208145
v -5.00000000 101.00555420 28.23709679
v -5.00000000 101.00555420 27.76290321
v -5.00000000 101.13914490 27.30791855
v -5.00000000 101.39551544 26.90900230
v -5.00000000 101.75388336 26.59847069
v -5.00000000 102.18522644 26.40148544
v -5.00000000 102.65459442 26.33399963
v -5.00000000 103.12396240 26.40148544
v -5.00000000 103.55529785 26.59847069
v -5.00000000 103.91367340 26.90900230
v -5.00000000 104.17004395 27.30791855
v -5.00000000 104.30363464 27.76290321
v -5.00000000 104.30363464 28.23709679
v -5.00000000 104.17004395 28.69208145
v -5.00000000 103.91367340 29.09099770
v -5.00000000 103.55529785 29.40152931
v -5.00000000 38.34921646 21.59851456
v -5.00000000 37.87984848 21.66600037
v -5.00000000 37.41048431 21.59851456
v -5.00000000 36.97914124 21.40152931
v -5.00000000 36.62076950 21.09099770
v -5.00000000 36.36440277 20.69208145
v -5.00000000 36.23080826 20.23709679
v -5.00000000 36.23080826 19.76290321
v -5.00000000 36.36440277 19.30791855
v -5.00000000 36.62076950 18.90900230
v -5.00000000 36.97914124 18.59847069
v -5.00000000 37.41048431 18.40148544
v -5.00000000 37.87984848 18.33399963
v -5.00000000 38.34921646 18.40148544
v -5.00000000 38.78055573 18.59847069
v -5.00000000 39.13892746 18.90900230
v -5.00000000 39.39529419 19.30791855
v -5.00000000 39.52889252 19.76290321
v -5.00000000 39.52889252 20.23709679
v -5.00000000 39.39529419 20.69208145
v -5.00000000 39.13892746 21.09099770
v -5.00000000 38.78055573 21.40152931
v -5.00000000 15.84921551 39.59851456
v -5.00000000 15.37984943 39.66600037
v -5.00000000 14.91048241 39.59851456
v -5.00000000 14.47914124 39.40152740
v -5.00000000 14.12077045 39.09099960
v -5.00000000 13.86440182 38.69208145
v -5.00000000 13.73080635 38.23709488
v -5.00000000 13.73080635 37.76290512
v -5.00000000 13.86440182 37.30791855
v -5.00000000 14.12077045 36.90900040
v -5.00000000 14.47914124 36.59847260
v -5.00000000 14.91048241 36.40148544
v -5.00000000 15.37984943 36.33399963
v -5.00000000 15.84921551 36.40148544
v -5.00000000 16.28055573 36.59847260
v -5.00000000 16.63892746 36.90900040
v -5.00000000 16.89529610 37.30791855
v -5.00000000 17.02889061 37.76290512
v -5.00000000 17.02889061 38.23709488
v -5.00000000 16.89529610 38.69208145
v -5.00000000 16.63892746 39.09099960
v -5.00000000 16.28055573 39.40152740
v -5.00000000 5.00000000 15.00000000
v -5.00000000 113.43006897 15.00000000
v -5.00000000 5.00000000 48.00000000
v -5.00000000 113.43006897 48.00000000
v 0.00000000 15.84921551 29.59851456
v 0.00000000 15.37984943 29.66600037
v 0.00000000 14.91048241 29.59851456
v 0.00000000 14.47914124 29.40152931
v 0.00000000 14.12077045 29.09099770
v 0.00000000 13.86440182 28.69208145
v 0.00000000 13.73080635 28.23709679
v 0.00000000 13.73080635 27.76290321
v 0.00000000 13.86440182 27.30791855
v 0.00000000 14.12077045 26.90900230
v 0.00000000 14.47914124 26.59847069
v 0.00000000 14.91048241 26.40148544
v 0.00000000 15.37984943 26.33399963
v 0.00000000 15.84921551 26.40148544
v 0.00000000 16.28055573 26.59847069
v 0.00000000 16.63892746 26.90900230
v 0.00000000 16.89529610 27.30791855
v 0.00000000 17.02889061 27.76290321
v 0.00000000 17.02889061 28.23709679
v 0.00000000 16.89529610 28.69208145
v 0.00000000 16.63892746 29.09099770
v 0.00000000 16.28055573 29.40152931
v 0.00000000 80.62396240 21.59851456
v 0.00000000 80.15459442 21.66600037
v 0.00000000 79.68522644 21.59851456
v 0.00000000 79.25388336 21.40152931
v 0.00000000 78.89551544 21.09099770
v 0.00000000 78.63914490 20.69208145
v 0.00000000 78.50555420 20.23709679
v 0.00000000 78.50555420 19.76290321
v 0.00000000 78.63914490 19.30791855
v 0.00000000 78.89551544 18.90900230
v 0.00000000 79.25388336 18.59847069
v 0.00000000 79.68522644 18.40148544
v 0.00000000 80.15459442 18.33399963
v 0.00000000 80.62396240 18.40148544
v 0.00000000 81.05529785 18.59847069
v 0.00000000 81.41367340 18.90900230
v 0.00000000 81.67004395 19.30791855
v 0.00000000 81.80363464 19.76290321
v 0.00000000 81.80363464 20.23709679
v 0.00000000 81.67004395 20.69208145
v 0.00000000 81.41367340 21.09099770
v 0.00000000 81.05529785 21.40152931
v 0.00000000 103.12396240 39.59851456
v 0.00000000 102.65459442 39.66600037
v 0.00000000 102.18522644 39.59851456
v 0.00000000 101.75388336 39.40152740
v 0.00000000 101.39551544 39.09099960
v 0.00000000 101.13914490 38.69208145
v 0.00000000 101.00555420 38.23709488
v 0.00000000 101.00555420 37.76290512
v 0.00000000 101.13914490 37.30791855
v 0.00000000 101.39551544 36.90900040
v 0.00000000 101.75388336 36.59847260
v 0.00000000 102.18522644 36.40148544
v 0.00000000 102.65459442 36.33399963
v 0.00000000 103.12396240 36.40148544
v 0.00000000 103.55529785 36.59847260
v 0.00000000 103.91367340 36.90900040
v 0.00000000 104.17004395 37.30791855
v 0.00000000 104.30363464 37.76290512
v 0.00000000 104.30363464 38.23709488
v 0.00000000 104.17004395 38.69208145
v 0.00000000 103.91367340 39.09099960
v 0.00000000 103.55529785 39.40152740
v 0.00000000 103.12396240 29.59851456
v 0.00000000 102.65459442 29.66600037
v 0.00000000 102.18522644 29.59851456
v 0.00000000 101.75388336 29.40152931
v 0.00000000 101.39551544 29.09099770
v 0.00000000 101.13914490 28.69208145
v 0.00000000 101.00555420 28.23709679
v 0.00000000 101.00555420 27.76290321
v 0.00000000 101.13914490 27.30791855
v 0.00000000 101.39551544 26.90900230
v 0.00000000 101.75388336 26.59847069
v 0.00000000 102.18522644 26.40148544
v 0.00000000 102.65459442 26.33399963
v 0.00000000 103.12396240 26.40148544
v 0.00000000 103.55529785 26.59847069
v 0.00000000 103.91367340 26.90900230
v 0.00000000 104.17004395 27.30791855
v 0.00000000 104.30363464 27.76290321
v 0.00000000 104.30363464 28.23709679
v 0.00000000 104.17004395 28.69208145
v 0.00000000 103.91367340 29.09099770
v 0.00000000 103.55529785 29.40152931
v 0.00000000 38.34921646 21.59851456
v 0.00000000 37.87984848 21.66600037
v 0.00000000 37.41048431 21.59851456
v 0.00000000 36.97914124 21.40152931
v 0.00000000 36.62076950 21.09099770
v 0.00000000 36.36440277 20.69208145
v 0.00000000 36.23080826 20.23709679
v 0.00000000 36.23080826 19.76290321
v 0.00000000 36.36440277 19.30791855
v 0.00000000 36.62076950 18.90900230
v 0.00000000 36.97914124 18.59847069
v 0.00000000 37.41048431 18.40148544
v 0.00000000 37.87984848 18.33399963
v 0.00000000 38.34921646 18.40148544
v 0.00000000 38.78055573 18.59847069
v 0.00000000 39.13892746 18.90900230
v 0.00000000 39.39529419 19.30791855
v 0.00000000 39.52889252 19.76290321
v 0.00000000 39.52889252 20.23709679
v 0.00000000 39.39529419 20.69208145
v 0.00000000 39.13892746 21.09099770
v 0.00000000 38.78055573 21.40152931
v 0.00000000 15.84921551 39.59851456
v 0.00000000 15.37984943 39.66600037
v 0.00000000 14.91048241 39.59851456
v 0.00000000 14.47914124 39.40152740
v 0.00000000 14.12077045 39.09099960
v 0.00000000 13.86440182 38.69208145
v 0.00000000 13.73080635 38.23709488
v 0.00000000 13.73080635 37.76290512
v 0.00000000 13.86440182 37.30791855
v 0.00000000 14.12077045 36.90900040
v 0.00000000 14.47914124 36.59847260
v 0.00000000 14.91048241 36.40148544
v 0.00000000 15.37984943 36.33399963
v 0.00000000 15.84921551 36.40148544
v 0.00000000 16.28055573 36.59847260
v 0.00000000 16.63892746 36.90900040
v 0.00000000 16.89529610 37.30791855
v 0.00000000 17.02889061 37.76290512
v 0.00000000 17.02889061 38.23709488
v 0.00000000 16.89529610 38.69208145
v 0.00000000 16.63892746 39.09099960
v 0.00000000 16.28055573 39.40152740
v 0.00000000 5.00000000 15.00000000
v 0.00000000 113.43006897 15.00000000
v 0.00000000 113.43006897 48.00000000
v 0.00000000 5.00000000 48.00000000
f 1 2 3
f 3 2 4
f 3 4 5
f 5 4 6
f 5 6 7
f 7 6 8
f 7 8 9
f 9 8 10
f 9 10 11
f 11 10 12
f 11 12 13
f 13 12 14
f 13 14 15
f 13 15 16
f 16 15 17
f 16 17 18
f 18 17 19
f 18 19 20
f 20 19 21
f 20 21 22
f 22 21 23
f 22 23 24
f 22 24 25
f 25 24 26
f 25 26 27
f 27 26 28
f 27 28 29
f 29 28 30
f 29 30 31
f 31 30 32
f 31 32 33
f 33 32 34
f 33 34 35
f 36 37 53
f 53 37 54
f 54 37 55
f 55 37 38
f 55 38 56
f 56 38 39
f 56 39 57
f 57 39 40
f 57 40 58
f 58 40 41
f 58 41 59
f 59 41 42
f 59 42 60
f 60 42 43
f 60 43 61
f 61 43 44
f 61 44 62
f 62 44 45
f 62 45 63
f 63 45 46
f 63 46 64
f 64 46 47
f 64 47 65
f 65 47 48
f 65 48 66
f 66 48 49
f 66 49 67
f 67 49 50
f 67 50 68
f 68 50 51
f 68 51 69
f 69 51 70
f 70 51 52
f 71 89 72
f 72 89 90
f 72 90 73
f 73 90 91
f 73 91 74
f 74 91 92
f 74 92 75
f 75 92 93
f 75 93 76
f 76 93 94
f 76 94 77
f 77 94 95
f 77 95 78
f 78 95 96
f 78 96 79
f 79 96 97
f 79 97 80
f 80 97 98
f 80 98 81
f 81 98 99
f 81 99 82
f 82 99 100
f 82 100 83
f 83 100 101
f 83 101 84
f 84 101 102
f 84 102 85
f 85 102 103
f 85 103 86
f 86 103 104
f 86 104 87
f 87 104 105
f 87 105 88
f 88 105 106
f 107 108 109
f 109 108 110
f 110 108 111
f 110 111 112
f 112 111 113
f 112 113 114
f 114 113 115
f 114 115 116
f 116 115 117
f 116 117 118
f 118 117 119
f 118 119 120
f 120 119 121
f 121 119 122
f 121 122 123
f 123 122 124
f 123 124 125
f 125 124 126
f 125 126 127
f 127 126 128
f 127 128 129
f 129 128 130
f 130 128 131
f 130 131 132
f 132 131 133
f 132 133 134
f 134 133 135
f 134 135 136
f 136 135 137
f 136 137 138
f 138 137 139
f 138 139 140
f 140 139 141
f 160 142 161
f 161 142 143
f 161 143 162
f 162 143 144
f 162 144 163
f 163 144 145
f 163 145 164
f 164 145 146
f 164 146 165
f 165 146 147
f 165 147 166
f 166 147 148
f 166 148 167
f 167 148 149
f 167 149 168
f 168 149 150
f 168 150 169
f 169 150 151
f 169 151 170
f 170 151 152
f 170 152 171
f 171 152 153
f 171 153 172
f 172 153 154
f 172 154 173
f 173 154 155
f 173 155 174
f 174 155 156
f 174 156 175
f 175 156 157
f 175 157 176
f 176 157 158
f 176 158 177
f 177 158 159
f 178 195 179
f 179 195 196
f 179 196 197
f 179 197 180
f 180 197 198
f 180 198 181
f 181 198 199
f 181 199 182
f 182 199 200
f 182 200 183
f 183 200 201
f 183 201 184
f 184 201 202
f 184 202 185
f 185 202 203
f 185 203 186
f 186 203 204
f 186 204 187
f 187 204 205
f 187 205 188
f 188 205 206
f 188 206 189
f 189 206 207
f 189 207 190
f 190 207 208
f 190 208 191
f 191 208 209
f 191 209 192
f 192 209 210
f 192 210 193
f 193 210 211
f 193 211 212
f 212 194 193
f 213 214 215
f 215 214 216
f 215 216 217
f 217 216 218
f 217 218 219
f 219 218 220
f 219 220 221
f 221 220 222
f 221 222 223
f 223 222 224
f 223 224 225
f 225 224 226
f 225 226 227
f 227 226 228
f 227 228 229
f 229 228 230
f 229 230 231
f 231 230 232
f 231 232 233
f 233 232 234
f 233 234 235
f 235 234 236
f 235 236 237
f 237 236 238
f 237 238 239
f 239 238 240
f 239 240 241
f 241 240 242
f 241 242 243
f 243 242 244
f 243 244 245
f 245 244 246
f 245 246 247
f 247 246 248
f 247 248 249
f 249 248 250
f 249 250 251
f 251 250 252
f 251 252 253
f 253 252 254
f 253 254 255
f 255 254 256
f 255 256 213
f 213 256 214
f 257 258 259
f 259 258 260
f 259 260 261
f 261 260 262
f 261 262 263
f 263 262 264
f 263 264 265
f 265 264 266
f 265 266 267
f 267 266 268
f 267 268 269
f 269 268 270
f 269 270 271
f 271 270 272
f 271 272 273
f 273 272 274
f 273 274 275
f 275 274 276
f 275 276 277
f 277 276 278
f 277 278 279
f 279 278 280
f 279 280 281
f 281 280 282
f 281 282 283
f 283 282 284
f 283 284 285
f 285 284 286
f 285 286 287
f 287 286 288
f 287 288 289
f 289 288 290
f 289 290 291
f 291 290 292
f 291 292 293
f 293 292 294
f 293 294 295
f 295 294 296
f 295 296 297
f 297 296 298
f 297 298 299
f 299 298 300
f 299 300 257
f 257 300 258
f 301 302 303
f 303 302 304
f 303 304 305
f 305 304 306
f 305 306 307
f 307 306 308
f 307 308 309
f 309 308 310
f 309 310 311
f 311 310 312
f 311 312 313
f 313 312 314
f 313 314 315
f 315 314 316
f 315 316 317
f 317 316 318
f 317 318 319
f 319 318 320
f 319 320 321
f 321 320 322
f 321 322 323
f 323 322 324
f 323 324 325
f 325 324 326
f 325 326 327
f 327 326 328
f 327 328 329
f 329 328 330
f 329 330 331
f 331 330 332
f 331 332 333
f 333 332 334
f 333 334 335
f 335 334 336
f 335 336 337
f 337 336 338
f 337 338 339
f 339 338 340
f 339 340 341
f 341 340 342
f 341 342 343
f 343 342 344
f 343 344 301
f 301 344 302
f 345 346 347
f 347 346 348
f 347 348 349
f 349 348 350
f 349 350 351
f 351 350 352
f 351 352 353
f 353 352 354
f 353 354 355
f 355 354 356
f 355 356 357
f 357 356 358
f 357 358 359
f 359 358 360
f 359 360 361
f 361 360 362
f 361 362 363
f 363 362 364
f 363 364 365
f 365 364 366
f 365 366 367
f 367 366 368
f 367 368 369
f 369 368 370
f 369 370 371
f 371 370 372
f 371 372 373
f 373 372 374
f 373 374 375
f 375 374 376
f 375 376 377
f 377 376 378
f 377 378 379
f 379 378 380
f 379 380 381
f 381 380 382
f 381 382 383
f 383 382 384
f 383 384 385
f 385 384 386
f 385 386 387
f 387 386 388
f 387 388 345
f 345 388 346
f 389 390 391
f 391 390 392
f 391 392 393
f 393 392 394
f 393 394 395
f 395 394 396
f 395 396 397
f 397 396 398
f 397 398 399
f 399 398 400
f 399 400 401
f 401 400 402
f 401 402 403
f 403 402 404
f 403 404 405
f 405 404 406
f 405 406 407
f 407 406 408
f 407 408 409
f 409 408 410
f 409 410 411
f 411 410 412
f 411 412 413
f 413 412 414
f 413 414 415
f 415 414 416
f 415 416 417
f 417 416 418
f 417 418 419
f 419 418 420
f 419 420 421
f 421 420 422
f 421 422 423
f 423 422 424
f 423 424 425
f 425 424 426
f 425 426 427
f 427 426 428
f 427 428 429
f 429 428 430
f 429 430 431
f 431 430 432
f 431 432 389
f 389 432 390
f 433 434 435
f 435 434 436
f 435 436 437
f 437 436 438
f 437 438 439
f 439 438 440
f 439 440 441
f 441 440 442
f 441 442 443
f 443 442 444
f 443 444 445
f 445 444 446
f 445 446 447
f 447 446 448
f 447 448 449
f 449 448 450
f 449 450 451
f 451 450 452
f 451 452 453
f 453 452 454
f 453 454 455
f 455 454 456
f 455 456 457
f 457 456 458
f 457 458 459
f 459 458 460
f 459 460 461
f 461 460 462
f 461 462 463
f 463 462 464
f 463 464 465
f 465 464 466
f 465 466 467
f 467 466 468
f 467 468 469
f 469 468 470
f 469 470 471
f 471 470 472
f 471 472 473
f 473 472 474
f 473 474 475
f 475 474 476
f 475 476 433
f 433 476 434
f 477 478 479
f 479 478 480
f 479 480 481
f 481 480 482
f 481 482 483
f 483 482 484
f 483 484 485
f 485 484 486
f 485 486 487
f 487 486 488
f 487 488 489
f 489 488 490
f 489 490 491
f 491 490 492
f 491 492 493
f 493 492 494
f 493 494 495
f 495 494 496
f 495 496 497
f 497 496 498
f 497 498 499
f 499 498 500
f 499 500 501
f 501 500 502
f 501 502 503
f 503 502 504
f 503 504 505
f 505 504 506
f 505 506 507
f 507 506 508
f 507 508 509
f 509 508 510
f 509 510 511
f 511 510 512
f 511 512 513
f 513 512 514
f 513 514 515
f 515 514 516
f 515 516 517
f 517 516 518
f 517 518 519
f 519 518 520
f 519 520 477
f 477 520 478
f 532 523 533
f 533 523 522
f 533 522 534
f 534 522 521
f 534 521 535
f 535 521 542
f 535 542 536
f 536 542 541
f 536 541 537
f 537 541 540
f 537 540 538
f 538 540 539
f 523 532 524
f 524 532 531
f 524 531 525
f 525 531 530
f 525 530 526
f 526 530 529
f 526 529 527
f 527 529 528
f 543 544 545
f 545 544 546
f 545 546 547
f 547 546 548
f 547 548 549
f 549 548 550
f 549 550 551
f 551 550 552
f 551 552 553
f 553 552 554
f 553 554 555
f 555 554 556
f 555 556 557
f 557 556 558
f 557 558 559
f 559 558 560
f 559 560 561
f 561 560 562
f 561 562 563
f 563 562 564
f 563 564 565
f 565 564 566
f 565 566 567
f 567 566 568
f 567 568 569
f 569 568 570
f 569 570 571
f 571 570 572
f 571 572 573
f 573 572 574
f 573 574 575
f 575 574 576
f 575 576 577
f 577 576 578
f 577 578 579
f 579 578 580
f 579 580 581
f 581 580 582
f 581 582 583
f 583 582 584
f 583 584 585
f 585 584 586
f 585 586 543
f 543 586 544
f 598 589 599
f 599 589 588
f 599 588 600
f 600 588 587
f 600 587 601
f 601 587 608
f 601 608 602
f 602 608 607
f 602 607 603
f 603 607 606
f 603 606 604
f 604 606 605
f 589 598 590
f 590 598 597
f 590 597 591
f 591 597 596
f 591 596 592
f 592 596 595
f 592 595 593
f 593 595 594
f 609 610 611
f 611 610 612
f 611 612 613
f 613 612 614
f 613 614 615
f 615 614 616
f 615 616 617
f 617 616 618
f 617 618 619
f 619 618 620
f 619 620 621
f 621 620 622
f 621 622 623
f 623 622 624
f 623 624 625
f 625 624 626
f 625 626 627
f 627 626 628
f 627 628 629
f 629 628 630
f 629 630 631
f 631 630 632
f 631 632 633
f 633 632 634
f 633 634 635
f 635 634 636
f 635 636 637
f 637 636 638
f 637 638 639
f 639 638 640
f 639 640 641
f 641 640 642
f 641 642 643
f 643 642 644
f 643 644 645
f 645 644 646
f 645 646 647
f 647 646 648
f 647 648 649
f 649 648 650
f 649 650 651
f 651 650 652
f 651 652 609
f 609 652 610
f 664 655 665
f 665 655 654
f 665 654 666
f 666 654 653
f 666 653 667
f 667 653 674
f 667 674 668
f 668 674 673
f 668 673 669
f 669 673 672
f 669 672 670
f 670 672 671
f 655 664 656
f 656 664 663
f 656 663 657
f 657 663 662
f 657 662 658
f 658 662 661
f 658 661 659
f 659 661 660
f 675 676 677
f 677 676 678
f 677 678 679
f 679 678 680
f 679 680 681
f 681 680 682
f 681 682 683
f 683 682 684
f 683 684 685
f 685 684 686
f 685 686 687
f 687 686 688
f 687 688 689
f 689 688 690
f 689 690 691
f 691 690 692
f 691 692 693
f 693 692 694
f 693 694 695
f 695 694 696
f 695 696 697
f 697 696 698
f 697 698 699
f 699 698 700
f 699 700 701
f 701 700 702
f 701 702 703
f 703 702 704
f 703 704 705
f 705 704 706
f 705 706 707
f 707 706 708
f 707 708 709
f 709 708 710
f 709 710 711
f 711 710 712
f 711 712 713
f 713 712 714
f 713 714 715
f 715 714 716
f 715 716 717
f 717 716 718
f 717 718 675
f 675 718 676
f 730 721 731
f 731 721 720
f 731 720 732
f 732 720 719
f 732 719 733
f 733 719 740
f 733 740 734
f 734 740 739
f 734 739 735
f 735 739 738
f 735 738 736
f 736 738 737
f 721 730 722
f 722 730 729
f 722 729 723
f 723 729 728
f 723 728 724
f 724 728 727
f 724 727 725
f 725 727 726
f 741 742 743
f 743 742 744
f 743 744 745
f 745 744 746
f 745 746 747
f 747 746 748
f 747 748 749
f 749 748 750
f 749 750 751
f 751 750 752
f 751 752 753
f 753 752 754
f 753 754 755
f 755 754 756
f 755 756 757
f 757 756 758
f 757 758 759
f 759 758 760
f 759 760 761
f 761 760 762
f 761 762 763
f 763 762 764
f 763 764 765
f 765 764 766
f 765 766 767
f 767 766 768
f 767 768 769
f 769 768 770
f 769 770 771
f 771 770 772
f 771 772 773
f 773 772 774
f 773 774 775
f 775 774 776
f 775 776 777
f 777 776 778
f 777 778 779
f 779 778 780
f 779 780 781
f 781 780 782
f 781 782 783
f 783 782 784
f 783 784 741
f 741 784 742
f 796 787 797
f 797 787 786
f 797 786 798
f 798 786 785
f 798 785 799
f 799 785 806
f 799 806 800
f 800 806 805
f 800 805 801
f 801 805 804
f 801 804 802
f 802 804 803
f 787 796 788
f 788 796 795
f 788 795 789
f 789 795 794
f 789 794 790
f 790 794 793
f 790 793 791
f 791 793 792
f 807 808 809
f 809 808 810
f 809 810 811
f 811 810 812
f 811 812 813
f 813 812 814
f 813 814 815
f 815 814 816
f 815 816 817
f 817 816 818
f 817 818 819
f 819 818 820
f 819 820 821
f 821 820 822
f 821 822 823
f 823 822 824
f 823 824 825
f 825 824 826
f 825 826 827
f 827 826 828
f 827 828 829
f 829 828 830
f 829 830 831
f 831 830 832
f 831 832 833
f 833 832 834
f 833 834 835
f 835 834 836
f 835 836 837
f 837 836 838
f 837 838 839
f 839 838 840
f 839 840 841
f 841 840 842
f 841 842 843
f 843 842 844
f 843 844 845
f 845 844 846
f 845 846 847
f 847 846 848
f 847 848 849
f 849 848 850
f 849 850 807
f 807 850 808
f 862 853 863
f 863 853 852
f 863 852 864
f 864 852 851
f 864 851 865
f 865 851 872
f 865 872 866
f 866 872 871
f 866 871 867
f 867 871 870
f 867 870 868
f 868 870 869
f 853 862 854
f 854 862 861
f 854 861 855
f 855 861 860
f 855 860 856
f 856 860 859
f 856 859 857
f 857 859 858
f 873 874 875
f 875 874 876
f 879 924 878
f 878 924 900
f 878 900 901
f 879 880 924
f 924 880 881
f 924 881 882
f 882 883 924
f 924 883 884
f 924 884 923
f 923 884 885
f 923 885 886
f 886 887 923
f 923 887 888
f 923 888 889
f 890 910 889
f 889 910 911
f 889 911 923
f 923 911 921
f 921 911 912
f 921 912 913
f 910 890 909
f 909 890 891
f 909 891 908
f 908 891 892
f 908 892 907
f 907 892 893
f 907 893 906
f 906 893 894
f 906 894 895
f 906 895 905
f 905 895 896
f 905 896 904
f 904 896 897
f 904 897 903
f 903 897 898
f 903 898 902
f 902 898 877
f 902 877 901
f 901 877 878
f 913 914 921
f 921 914 915
f 921 915 916
f 916 917 921
f 921 917 922
f 922 917 918
f 922 918 919
f 919 920 922
f 922 920 899
f 922 899 900
f 924 922 900
f 927 948 926
f 926 948 971
f 926 971 969
f 948 927 947
f 947 927 928
f 947 928 968
f 968 928 929
f 968 929 967
f 967 929 930
f 967 930 966
f 966 930 931
f 966 931 965
f 965 931 932
f 965 932 964
f 964 932 963
f 963 932 933
f 963 933 962
f 962 933 934
f 962 934 961
f 961 934 935
f 961 935 960
f 960 935 936
f 960 936 959
f 959 936 937
f 959 937 972
f 972 937 970
f 970 937 938
f 970 938 939
f 939 940 970
f 970 940 941
f 970 941 942
f 942 943 970
f 970 943 969
f 969 943 944
f 969 944 945
f 945 946 969
f 969 946 925
f 969 925 926
f 948 949 971
f 971 949 950
f 971 950 951
f 951 952 971
f 971 952 953
f 971 953 954
f 971 954 972
f 972 954 955
f 972 955 956
f 956 957 972
f 972 957 958
f 972 958 959
f 975 1017 974
f 974 1017 1020
f 974 1020 973
f 973 1020 994
f 994 1020 993
f 993 1020 992
f 992 1020 991
f 991 1020 990
f 990 1020 1019
f 990 1019 1013
f 1013 1019 1012
f 1012 1019 1011
f 1011 1019 1010
f 1010 1019 1009
f 1009 1019 1008
f 1008 1019 1007
f 1007 1019 1018
f 1007 1018 1006
f 1006 1018 1005
f 1005 1018 1004
f 1004 1018 1003
f 1003 1018 1002
f 1002 1018 1001
f 1001 1018 980
f 1001 980 1000
f 1000 980 981
f 1000 981 999
f 999 981 982
f 999 982 998
f 998 982 983
f 998 983 997
f 997 983 984
f 997 984 996
f 996 984 985
f 996 985 995
f 995 985 986
f 995 986 1016
f 1016 986 987
f 1016 987 1015
f 1015 987 988
f 1015 988 1014
f 1014 988 989
f 1014 989 1013
f 1013 989 990
f 975 976 1017
f 1017 976 977
f 1017 977 978
f 978 979 1017
f 1017 979 980
f 1017 980 1018
f 1025 1031 1021
f 1021 1031 1027
f 1021 1027 1024
f 1024 1027 1030
f 1024 1030 1026
f 1026 1030 1032
f 1026 1032 1109
f 1109 1032 1108
f 1108 1032 1029
f 1108 1029 1107
f 1107 1029 1106
f 1106 1029 1105
f 1105 1029 1104
f 1104 1029 1030
f 1104 1030 1103
f 1103 1030 1102
f 1102 1030 1101
f 1101 1030 1027
f 1101 1027 1100
f 1100 1027 1089
f 1100 1089 1090
f 1022 1082 1025
f 1025 1082 1083
f 1025 1083 1031
f 1031 1083 1084
f 1031 1084 1028
f 1028 1084 1085
f 1028 1085 1086
f 1021 1159 1022
f 1022 1159 1160
f 1022 1160 1161
f 1023 1121 1024
f 1024 1121 1122
f 1024 1122 1053
f 1053 1122 1052
f 1052 1122 1051
f 1051 1122 1050
f 1050 1122 1049
f 1049 1122 1048
f 1048 1122 1123
f 1048 1123 1047
f 1047 1123 1046
f 1046 1123 1124
f 1046 1124 1125
f 1026 1055 1023
f 1023 1055 1056
f 1023 1056 1057
f 1089 1027 1088
f 1088 1027 1028
f 1088 1028 1087
f 1087 1028 1086
f 1035 1154 1034
f 1034 1154 1155
f 1034 1155 1156
f 1154 1035 1153
f 1153 1035 1036
f 1153 1036 1152
f 1152 1036 1037
f 1152 1037 1038
f 1039 1167 1038
f 1038 1167 1151
f 1038 1151 1152
f 1167 1039 1165
f 1165 1039 1040
f 1165 1040 1041
f 1041 1042 1165
f 1165 1042 1043
f 1165 1043 1044
f 1044 1045 1165
f 1165 1045 1127
f 1165 1127 1128
f 1046 1125 1045
f 1045 1125 1126
f 1045 1126 1127
f 1054 1158 1053
f 1053 1158 1021
f 1053 1021 1024
f 1158 1054 1157
f 1157 1054 1033
f 1157 1033 1156
f 1156 1033 1034
f 1058 1142 1057
f 1057 1142 1121
f 1057 1121 1023
f 1142 1058 1141
f 1141 1058 1059
f 1141 1059 1140
f 1140 1059 1060
f 1140 1060 1139
f 1139 1060 1061
f 1139 1061 1138
f 1138 1061 1062
f 1138 1062 1137
f 1137 1062 1063
f 1137 1063 1136
f 1136 1063 1064
f 1136 1064 1135
f 1135 1064 1065
f 1135 1065 1134
f 1134 1065 1066
f 1134 1066 1133
f 1133 1066 1067
f 1133 1067 1165
f 1165 1067 1166
f 1166 1067 1068
f 1166 1068 1069
f 1069 1070 1166
f 1166 1070 1071
f 1166 1071 1072
f 1072 1073 1166
f 1166 1073 1111
f 1166 1111 1112
f 1073 1074 1111
f 1111 1074 1075
f 1111 1075 1110
f 1110 1075 1076
f 1110 1076 1055
f 1077 1078 1168
f 1168 1078 1079
f 1168 1079 1167
f 1167 1079 1143
f 1167 1143 1144
f 1143 1079 1164
f 1164 1079 1080
f 1164 1080 1022
f 1022 1080 1081
f 1022 1081 1082
f 1100 1090 1099
f 1099 1090 1091
f 1099 1091 1120
f 1120 1091 1092
f 1120 1092 1119
f 1119 1092 1118
f 1118 1092 1093
f 1118 1093 1168
f 1168 1093 1094
f 1168 1094 1095
f 1095 1096 1168
f 1168 1096 1097
f 1168 1097 1098
f 1098 1077 1168
f 1026 1109 1055
f 1055 1109 1110
f 1112 1113 1166
f 1166 1113 1114
f 1166 1114 1115
f 1115 1116 1166
f 1166 1116 1117
f 1166 1117 1168
f 1168 1117 1118
f 1128 1129 1165
f 1165 1129 1130
f 1165 1130 1131
f 1131 1132 1165
f 1165 1132 1133
f 1144 1145 1167
f 1167 1145 1146
f 1167 1146 1147
f 1147 1148 1167
f 1167 1148 1149
f 1167 1149 1150
f 1150 1151 1167
f 1158 1159 1021
f 1161 1162 1022
f 1022 1162 1163
f 1022 1163 1164
f 1180 1301 1181
f 1181 1301 1263
f 1181 1263 1262
f 1180 1179 1301
f 1301 1179 1178
f 1301 1178 1177
f 1177 1176 1301
f 1301 1176 1175
f 1301 1175 1304
f 1304 1175 1174
f 1304 1174 1287
f 1287 1174 1288
f 1288 1174 1173
f 1288 1173 1172
f 1288 1172 1289
f 1289 1172 1171
f 1289 1171 1290
f 1290 1171 1170
f 1290 1170 1291
f 1291 1170 1292
f 1292 1170 1169
f 1292 1169 1293
f 1293 1169 1190
f 1293 1190 1294
f 1294 1190 1238
f 1294 1238 1222
f 1222 1238 1223
f 1223 1238 1237
f 1223 1237 1224
f 1224 1237 1236
f 1224 1236 1225
f 1225 1236 1226
f 1226 1236 1235
f 1226 1235 1227
f 1227 1235 1256
f 1227 1256 1228
f 1228 1256 1255
f 1228 1255 1254
f 1189 1257 1190
f 1190 1257 1193
f 1190 1193 1238
f 1238 1193 1239
f 1239 1193 1192
f 1239 1192 1240
f 1240 1192 1241
f 1241 1192 1242
f 1242 1192 1243
f 1243 1192 1244
f 1244 1192 1191
f 1244 1191 1245
f 1245 1191 1246
f 1246 1191 1212
f 1246 1212 1211
f 1257 1189 1258
f 1258 1189 1188
f 1258 1188 1187
f 1187 1186 1258
f 1258 1186 1185
f 1258 1185 1184
f 1258 1184 1259
f 1259 1184 1183
f 1259 1183 1182
f 1181 1261 1182
f 1182 1261 1260
f 1182 1260 1259
f 1202 1270 1203
f 1203 1270 1269
f 1203 1269 1301
f 1301 1269 1268
f 1301 1268 1267
f 1270 1202 1271
f 1271 1202 1201
f 1271 1201 1272
f 1272 1201 1200
f 1272 1200 1273
f 1273 1200 1199
f 1273 1199 1274
f 1274 1199 1198
f 1274 1198 1275
f 1275 1198 1197
f 1275 1197 1276
f 1276 1197 1196
f 1276 1196 1277
f 1277 1196 1195
f 1277 1195 1278
f 1278 1195 1194
f 1278 1194 1257
f 1257 1194 1193
f 1246 1211 1247
f 1247 1211 1210
f 1247 1210 1209
f 1247 1209 1302
f 1302 1209 1208
f 1302 1208 1207
f 1207 1206 1302
f 1302 1206 1205
f 1302 1205 1204
f 1204 1203 1302
f 1302 1203 1301
f 1294 1222 1295
f 1295 1222 1221
f 1295 1221 1296
f 1296 1221 1220
f 1296 1220 1297
f 1297 1220 1219
f 1297 1219 1298
f 1298 1219 1218
f 1298 1218 1299
f 1299 1218 1217
f 1299 1217 1300
f 1300 1217 1216
f 1300 1216 1279
f 1279 1216 1215
f 1279 1215 1304
f 1304 1215 1303
f 1303 1215 1214
f 1303 1214 1213
f 1213 1234 1303
f 1303 1234 1233
f 1303 1233 1232
f 1232 1231 1303
f 1303 1231 1230
f 1303 1230 1229
f 1303 1229 1254
f 1254 1229 1228
f 1254 1253 1303
f 1303 1253 1302
f 1302 1253 1252
f 1302 1252 1251
f 1251 1250 1302
f 1302 1250 1249
f 1302 1249 1248
f 1248 1247 1302
f 1267 1266 1301
f 1301 1266 1265
f 1301 1265 1264
f 1264 1263 1301
f 1262 1261 1181
f 1287 1286 1304
f 1304 1286 1285
f 1304 1285 1284
f 1284 1283 1304
f 1304 1283 1282
f 1304 1282 1281
f 1281 1280 1304
f 1304 1280 1279

