# https://github.com/mikedh/trimesh

o M_Bottom_1.stl
v -26.60923195 17.87984848 19.56880760
v -26.60923195 27.87984848 19.56880760
v -26.66600037 17.87984848 20.00000000
v -26.66600037 27.87984848 20.00000000
v -26.60923195 17.87984848 20.43119240
v -26.60923195 27.87984848 20.43119240
v -26.44279861 17.87984848 20.83300018
v -26.44279861 27.87984848 20.83300018
v -26.17803955 17.87984848 21.17803955
v -26.17803955 27.87984848 21.17803955
v -25.83300018 17.87984848 21.44279861
v -25.83300018 27.87984848 21.44279861
v -25.43119240 17.87984848 21.60923195
v -25.43119240 27.87984848 21.60923195
v -25.00000000 17.87984848 21.66600037
v -25.00000000 27.87984848 21.66600037
v -24.56880760 17.87984848 21.60923195
v -24.56880760 27.87984848 21.60923195
v -24.16699982 17.87984848 21.44279861
v -24.16699982 27.87984848 21.44279861
v -23.82196045 17.87984848 21.17803955
v -23.82196045 27.87984848 21.17803955
v -23.55720139 17.87984848 20.83300018
v -23.55720139 27.87984848 20.83300018
v -23.39076805 17.87984848 20.43119240
v -23.39076805 27.87984848 20.43119240
v -23.33399963 17.87984848 20.00000000
v -23.33399963 27.87984848 20.00000000
v -23.39076805 17.87984848 19.56880760
v -23.39076805 27.87984848 19.56880760
v -23.55720139 17.87984848 19.16699982
v -23.55720139 27.87984848 19.16699982
v -23.82196045 17.87984848 18.82196045
v -23.82196045 27.87984848 18.82196045
v -24.16699982 17.87984848 18.55720139
v -24.16699982 27.87984848 18.55720139
v -24.56880760 17.87984848 18.39076805
v -24.56880760 27.87984848 18.39076805
v -25.00000000 17.87984848 18.33399963
v -25.00000000 27.87984848 18.33399963
v -25.43119240 17.87984848 18.39076805
v -25.43119240 27.87984848 18.39076805
v -25.83300018 17.87984848 18.55720139
v -25.83300018 27.87984848 18.55720139
v -26.17803955 17.87984848 18.82196045
v -26.17803955 27.87984848 18.82196045
v -26.44279861 17.87984848 19.16699982
v -26.44279861 27.87984848 19.16699982
v -26.60923195 27.87984848 19.56880760
v -26.66600037 27.87984848 20.00000000
v -26.60923195 27.87984848 20.43119240
v -26.44279861 27.87984848 20.83300018
v -26.17803955 27.87984848 21.17803955
v -25.83300018 27.87984848 21.44279861
v -25.43119240 27.87984848 21.60923195
v -25.00000000 27.87984848 21.66600037
v -24.56880760 27.87984848 21.60923195
v -24.16699982 27.87984848 21.44279861
v -23.82196045 27.87984848 21.17803955
v -23.55720139 27.87984848 20.83300018
v -23.39076805 27.87984848 20.43119240
v -23.33399963 27.87984848 20.00000000
v -23.39076805 27.87984848 19.56880760
v -23.55720139 27.87984848 19.16699982
v -23.82196045 27.87984848 18.82196045
v -24.16699982 27.87984848 18.55720139
v -24.56880760 27.87984848 18.39076805
v -25.00000000 27.87984848 18.33399963
v -25.43119240 27.87984848 18.39076805
v -25.83300018 27.87984848 18.55720139
v -26.17803955 27.87984848 18.82196045
v -26.44279861 27.87984848 19.16699982
v -46.60923386 17.87984848 19.56880760
v -46.60923386 27.87984848 19.56880760
v -46.66600037 17.87984848 20.00000000
v -46.66600037 27.87984848 20.00000000
v -46.60923386 17.87984848 20.43119240
v -46.60923386 27.87984848 20.43119240
v -46.44279861 17.87984848 20.83300018
v -46.44279861 27.87984848 20.83300018
v -46.17803955 17.87984848 21.17803955
v -46.17803955 27.87984848 21.17803955
v -45.83300018 17.87984848 21.44279861
v -45.83300018 27.87984848 21.44279861
v -45.43119431 17.87984848 21.60923195
v -45.43119431 27.87984848 21.60923195
v -45.00000000 17.87984848 21.66600037
v -45.00000000 27.87984848 21.66600037
v -44.56880569 17.87984848 21.60923195
v -44.56880569 27.87984848 21.60923195
v -44.16699982 17.87984848 21.44279861
v -44.16699982 27.87984848 21.44279861
v -43.82196045 17.87984848 21.17803955
v -43.82196045 27.87984848 21.17803955
v -43.55720139 17.87984848 20.83300018
v -43.55720139 27.87984848 20.83300018
v -43.39076614 17.87984848 20.43119240
v -43.39076614 27.87984848 20.43119240
v -43.33399963 17.87984848 20.00000000
v -43.33399963 27.87984848 20.00000000
v -43.39076614 17.87984848 19.56880760
v -43.39076614 27.87984848 19.56880760
v -43.55720139 17.87984848 19.16699982
v -43.55720139 27.87984848 19.16699982
v -43.82196045 17.87984848 18.82196045
v -43.82196045 27.87984848 18.82196045
v -44.16699982 17.87984848 18.55720139
v -44.16699982 27.87984848 18.55720139
v -44.56880569 17.87984848 18.39076805
v -44.56880569 27.87984848 18.39076805
v -45.00000000 17.87984848 18.33399963
v -45.00000000 27.87984848 18.33399963
v -45.43119431 17.87984848 18.39076805
v -45.43119431 27.87984848 18.39076805
v -45.83300018 17.87984848 18.55720139
v -45.83300018 27.87984848 18.55720139
v -46.17803955 17.87984848 18.82196045
v -46.17803955 27.87984848 18.82196045
v -46.44279861 17.87984848 19.16699982
v -46.44279861 27.87984848 19.16699982
v -46.60923386 27.87984848 19.56880760
v -46.66600037 27.87984848 20.00000000
v -46.60923386 27.87984848 20.43119240
v -46.44279861 27.87984848 20.83300018
v -46.17803955 27.87984848 21.17803955
v -45.83300018 27.87984848 21.44279861
v -45.43119431 27.87984848 21.60923195
v -45.00000000 27.87984848 21.66600037
v -44.56880569 27.87984848 21.60923195
v -44.16699982 27.87984848 21.44279861
v -43.82196045 27.87984848 21.17803955
v -43.55720139 27.87984848 20.83300018
v -43.39076614 27.87984848 20.43119240
v -43.33399963 27.87984848 20.00000000
v -43.39076614 27.87984848 19.56880760
v -43.55720139 27.87984848 19.16699982
v -43.82196045 27.87984848 18.82196045
v -44.16699982 27.87984848 18.55720139
v -44.56880569 27.87984848 18.39076805
v -45.00000000 27.87984848 18.33399963
v -45.43119431 27.87984848 18.39076805
v -45.83300018 27.87984848 18.55720139
v -46.17803955 27.87984848 18.82196045
v -46.44279861 27.87984848 19.16699982
v -5.00000000 79.72340393 21.60923195
v -12.53553486 79.72340393 21.60923195
v -5.00000000 80.15459442 21.66600037
v -12.53553486 80.15459442 21.66600037
v -5.00000000 80.58578491 21.60923195
v -12.53553486 80.58578491 21.60923195
v -5.00000000 80.98759460 21.44279861
v -12.53553486 80.98759460 21.44279861
v -5.00000000 81.33263397 21.17803955
v -12.53553486 81.33263397 21.17803955
v -5.00000000 81.59738922 20.83300018
v -12.53553486 81.59738922 20.83300018
v -5.00000000 81.76382446 20.43119240
v -12.53553486 81.76382446 20.43119240
v -5.00000000 81.82059479 20.00000000
v -12.53553486 81.82059479 20.00000000
v -5.00000000 81.76382446 19.56880760
v -12.53553486 81.76382446 19.56880760
v -5.00000000 81.59738922 19.16699982
v -12.53553486 81.59738922 19.16699982
v -5.00000000 81.33263397 18.82196045
v -12.53553486 81.33263397 18.82196045
v -5.00000000 80.98759460 18.55720139
v -12.53553486 80.98759460 18.55720139
v -5.00000000 80.58578491 18.39076805
v -12.53553486 80.58578491 18.39076805
v -5.00000000 80.15459442 18.33399963
v -12.53553486 80.15459442 18.33399963
v -5.00000000 79.72340393 18.39076805
v -12.53553486 79.72340393 18.39076805
v -5.00000000 79.32159424 18.55720139
v -12.53553486 79.32159424 18.55720139
v -5.00000000 78.97655487 18.82196045
v -12.53553486 78.97655487 18.82196045
v -5.00000000 78.71179199 19.16699982
v -12.53553486 78.71179199 19.16699982
v -5.00000000 78.54536438 19.56880760
v -12.53553486 78.54536438 19.56880760
v -5.00000000 78.48859406 20.00000000
v -12.53553486 78.48859406 20.00000000
v -5.00000000 78.54536438 20.43119240
v -12.53553486 78.54536438 20.43119240
v -5.00000000 78.71179199 20.83300018
v -12.53553486 78.71179199 20.83300018
v -5.00000000 78.97655487 21.17803955
v -12.53553486 78.97655487 21.17803955
v -5.00000000 79.32159424 21.44279861
v -12.53553486 79.32159424 21.44279861
v -20.07106972 79.72340393 18.39076805
v -20.07106972 80.15459442 18.33399963
v -20.07106972 80.58578491 18.39076805
v -20.07106972 80.98759460 18.55720139
v -20.07106972 81.33263397 18.82196045
v -20.07106972 81.59738922 19.16699982
v -20.07106972 81.76382446 19.56880760
v -20.07106972 81.82059479 20.00000000
v -20.07106972 81.76382446 20.43119240
v -20.07106972 81.59738922 20.83300018
v -20.07106972 81.33263397 21.17803955
v -20.07106972 80.98759460 21.44279861
v -20.07106972 80.58578491 21.60923195
v -20.07106972 80.15459442 21.66600037
v -20.07106972 79.72340393 21.60923195
v -20.07106972 79.32159424 21.44279861
v -20.07106972 78.97655487 21.17803955
v -20.07106972 78.71179199 20.83300018
v -20.07106972 78.54536438 20.43119240
v -20.07106972 78.48859406 20.00000000
v -20.07106972 78.54536438 19.56880760
v -20.07106972 78.71179199 19.16699982
v -20.07106972 78.97655487 18.82196045
v -20.07106972 79.32159424 18.55720139
v -20.07106972 79.72340393 18.39076805
v -20.07106972 80.15459442 18.33399963
v -20.07106972 80.58578491 18.39076805
v -20.07106972 80.98759460 18.55720139
v -20.07106972 81.33263397 18.82196045
v -20.07106972 81.59738922 19.16699982
v -20.07106972 81.76382446 19.56880760
v -20.07106972 81.82059479 20.00000000
v -20.07106972 81.76382446 20.43119240
v -20.07106972 81.59738922 20.83300018
v -20.07106972 81.33263397 21.17803955
v -20.07106972 80.98759460 21.44279861
v -20.07106972 80.58578491 21.60923195
v -20.07106972 80.15459442 21.66600037
v -20.07106972 79.72340393 21.60923195
v -20.07106972 79.32159424 21.44279861
v -20.07106972 78.97655487 21.17803955
v -20.07106972 78.71179199 20.83300018
v -20.07106972 78.54536438 20.43119240
v -20.07106972 78.48859406 20.00000000
v -20.07106972 78.54536438 19.56880760
v -20.07106972 78.71179199 19.16699982
v -20.07106972 78.97655487 18.82196045
v -20.07106972 79.32159424 18.55720139
v -5.00000000 37.44865799 21.60923195
v -12.53553486 37.44865799 21.60923195
v -5.00000000 37.87984848 21.66600037
v -12.53553486 37.87984848 21.66600037
v -5.00000000 38.31104279 21.60923195
v -12.53553486 38.31104279 21.60923195
v -5.00000000 38.71284866 21.44279861
v -12.53553486 38.71284866 21.44279861
v -5.00000000 39.05788803 21.17803955
v -12.53553486 39.05788803 21.17803955
v -5.00000000 39.32264709 20.83300018
v -12.53553486 39.32264709 20.83300018
v -5.00000000 39.48908234 20.43119240
v -12.53553486 39.48908234 20.43119240
v -5.00000000 39.54584885 20.00000000
v -12.53553486 39.54584885 20.00000000
v -5.00000000 39.48908234 19.56880760
v -12.53553486 39.48908234 19.56880760
v -5.00000000 39.32264709 19.16699982
v -12.53553486 39.32264709 19.16699982
v -5.00000000 39.05788803 18.82196045
v -12.53553486 39.05788803 18.82196045
v -5.00000000 38.71284866 18.55720139
v -12.53553486 38.71284866 18.55720139
v -5.00000000 38.31104279 18.39076805
v -12.53553486 38.31104279 18.39076805
v -5.00000000 37.87984848 18.33399963
v -12.53553486 37.87984848 18.33399963
v -5.00000000 37.44865799 18.39076805
v -12.53553486 37.44865799 18.39076805
v -5.00000000 37.04684830 18.55720139
v -12.53553486 37.04684830 18.55720139
v -5.00000000 36.70180893 18.82196045
v -12.53553486 36.70180893 18.82196045
v -5.00000000 36.43704987 19.16699982
v -12.53553486 36.43704987 19.16699982
v -5.00000000 36.27061844 19.56880760
v -12.53553486 36.27061844 19.56880760
v -5.00000000 36.21384811 20.00000000
v -12.53553486 36.21384811 20.00000000
v -5.00000000 36.27061844 20.43119240
v -12.53553486 36.27061844 20.43119240
v -5.00000000 36.43704987 20.83300018
v -12.53553486 36.43704987 20.83300018
v -5.00000000 36.70180893 21.17803955
v -12.53553486 36.70180893 21.17803955
v -5.00000000 37.04684830 21.44279861
v -12.53553486 37.04684830 21.44279861
v -20.07106972 37.44865799 18.39076805
v -20.07106972 37.87984848 18.33399963
v -20.07106972 38.31104279 18.39076805
v -20.07106972 38.71284866 18.55720139
v -20.07106972 39.05788803 18.82196045
v -20.07106972 39.32264709 19.16699982
v -20.07106972 39.48908234 19.56880760
v -20.07106972 39.54584885 20.00000000
v -20.07106972 39.48908234 20.43119240
v -20.07106972 39.32264709 20.83300018
v -20.07106972 39.05788803 21.17803955
v -20.07106972 38.71284866 21.44279861
v -20.07106972 38.31104279 21.60923195
v -20.07106972 37.87984848 21.66600037
v -20.07106972 37.44865799 21.60923195
v -20.07106972 37.04684830 21.44279861
v -20.07106972 36.70180893 21.17803955
v -20.07106972 36.43704987 20.83300018
v -20.07106972 36.27061844 20.43119240
v -20.07106972 36.21384811 20.00000000
v -20.07106972 36.27061844 19.56880760
v -20.07106972 36.43704987 19.16699982
v -20.07106972 36.70180893 18.82196045
v -20.07106972 37.04684830 18.55720139
v -20.07106972 37.44865799 18.39076805
v -20.07106972 37.87984848 18.33399963
v -20.07106972 38.31104279 18.39076805
v -20.07106972 38.71284866 18.55720139
v -20.07106972 39.05788803 18.82196045
v -20.07106972 39.32264709 19.16699982
v -20.07106972 39.48908234 19.56880760
v -20.07106972 39.54584885 20.00000000
v -20.07106972 39.48908234 20.43119240
v -20.07106972 39.32264709 20.83300018
v -20.07106972 39.05788803 21.17803955
v -20.07106972 38.71284866 21.44279861
v -20.07106972 38.31104279 21.60923195
v -20.07106972 37.87984848 21.66600037
v -20.07106972 37.44865799 21.60923195
v -20.07106972 37.04684830 21.44279861
v -20.07106972 36.70180893 21.17803955
v -20.07106972 36.43704987 20.83300018
v -20.07106972 36.27061844 20.43119240
v -20.07106972 36.21384811 20.00000000
v -20.07106972 36.27061844 19.56880760
v -20.07106972 36.43704987 19.16699982
v -20.07106972 36.70180893 18.82196045
v -20.07106972 37.04684830 18.55720139
v -23.20665359 100.15459442 18.57801247
v -23.20665359 90.15459442 18.57801247
v -23.14988518 100.15459442 19.00920486
v -23.14988518 90.15459442 19.00920486
v -23.20665359 100.15459442 19.44039726
v -23.20665359 90.15459442 19.44039726
v -23.37308693 100.15459442 19.84220505
v -23.37308693 90.15459442 19.84220505
v -23.63784599 100.15459442 20.18724632
v -23.63784599 90.15459442 20.18724632
v -23.98288536 100.15459442 20.45200348
v -23.98288536 90.15459442 20.45200348
v -24.38469315 100.15459442 20.61843872
v -24.38469315 90.15459442 20.61843872
v -24.81588554 100.15459442 20.67520523
v -24.81588554 90.15459442 20.67520523
v -25.24707794 100.15459442 20.61843872
v -25.24707794 90.15459442 20.61843872
v -25.64888573 100.15459442 20.45200348
v -25.64888573 90.15459442 20.45200348
v -25.99392509 100.15459442 20.18724632
v -25.99392509 90.15459442 20.18724632
v -26.25868416 100.15459442 19.84220505
v -26.25868416 90.15459442 19.84220505
v -26.42511749 100.15459442 19.44039726
v -26.42511749 90.15459442 19.44039726
v -26.48188591 100.15459442 19.00920486
v -26.48188591 90.15459442 19.00920486
v -26.42511749 100.15459442 18.57801247
v -26.42511749 90.15459442 18.57801247
v -26.25868416 100.15459442 18.17620468
v -26.25868416 90.15459442 18.17620468
v -25.99392509 100.15459442 17.83116531
v -25.99392509 90.15459442 17.83116531
v -25.64888573 100.15459442 17.56640816
v -25.64888573 90.15459442 17.56640816
v -25.24707794 100.15459442 17.39997292
v -25.24707794 90.15459442 17.39997292
v -24.81588554 100.15459442 17.34320641
v -24.81588554 90.15459442 17.34320641
v -24.38469315 100.15459442 17.39997292
v -24.38469315 90.15459442 17.39997292
v -23.98288536 100.15459442 17.56640816
v -23.98288536 90.15459442 17.56640816
v -23.63784599 100.15459442 17.83116531
v -23.63784599 90.15459442 17.83116531
v -23.37308693 100.15459442 18.17620468
v -23.37308693 90.15459442 18.17620468
v -23.20665359 90.15459442 18.57801247
v -23.14988518 90.15459442 19.00920486
v -23.20665359 90.15459442 19.44039726
v -23.37308693 90.15459442 19.84220505
v -23.63784599 90.15459442 20.18724632
v -23.98288536 90.15459442 20.45200348
v -24.38469315 90.15459442 20.61843872
v -24.81588554 90.15459442 20.67520523
v -25.24707794 90.15459442 20.61843872
v -25.64888573 90.15459442 20.45200348
v -25.99392509 90.15459442 20.18724632
v -26.25868416 90.15459442 19.84220505
v -26.42511749 90.15459442 19.44039726
v -26.48188591 90.15459442 19.00920486
v -26.42511749 90.15459442 18.57801247
v -26.25868416 90.15459442 18.17620468
v -25.99392509 90.15459442 17.83116531
v -25.64888573 90.15459442 17.56640816
v -25.24707794 90.15459442 17.39997292
v -24.81588554 90.15459442 17.34320641
v -24.38469315 90.15459442 17.39997292
v -23.98288536 90.15459442 17.56640816
v -23.63784599 90.15459442 17.83116531
v -23.37308693 90.15459442 18.17620468
v -43.20665359 100.15459442 18.57801247
v -43.20665359 90.15459442 18.57801247
v -43.14988708 100.15459442 19.00920486
v -43.14988708 90.15459442 19.00920486
v -43.20665359 100.15459442 19.44039726
v -43.20665359 90.15459442 19.44039726
v -43.37308884 100.15459442 19.84220505
v -43.37308884 90.15459442 19.84220505
v -43.63784409 100.15459442 20.18724632
v -43.63784409 90.15459442 20.18724632
v -43.98288727 100.15459442 20.45200348
v -43.98288727 90.15459442 20.45200348
v -44.38469315 100.15459442 20.61843872
v -44.38469315 90.15459442 20.61843872
v -44.81588364 100.15459442 20.67520523
v -44.81588364 90.15459442 20.67520523
v -45.24707794 100.15459442 20.61843872
v -45.24707794 90.15459442 20.61843872
v -45.64888382 100.15459442 20.45200348
v -45.64888382 90.15459442 20.45200348
v -45.99392700 100.15459442 20.18724632
v -45.99392700 90.15459442 20.18724632
v -46.25868225 100.15459442 19.84220505
v -46.25868225 90.15459442 19.84220505
v -46.42511749 100.15459442 19.44039726
v -46.42511749 90.15459442 19.44039726
v -46.48188400 100.15459442 19.00920486
v -46.48188400 90.15459442 19.00920486
v -46.42511749 100.15459442 18.57801247
v -46.42511749 90.15459442 18.57801247
v -46.25868225 100.15459442 18.17620468
v -46.25868225 90.15459442 18.17620468
v -45.99392700 100.15459442 17.83116531
v -45.99392700 90.15459442 17.83116531
v -45.64888382 100.15459442 17.56640816
v -45.64888382 90.15459442 17.56640816
v -45.24707794 100.15459442 17.39997292
v -45.24707794 90.15459442 17.39997292
v -44.81588364 100.15459442 17.34320641
v -44.81588364 90.15459442 17.34320641
v -44.38469315 100.15459442 17.39997292
v -44.38469315 90.15459442 17.39997292
v -43.98288727 100.15459442 17.56640816
v -43.98288727 90.15459442 17.56640816
v -43.63784409 100.15459442 17.83116531
v -43.63784409 90.15459442 17.83116531
v -43.37308884 100.15459442 18.17620468
v -43.37308884 90.15459442 18.17620468
v -43.20665359 90.15459442 18.57801247
v -43.14988708 90.15459442 19.00920486
v -43.20665359 90.15459442 19.44039726
v -43.37308884 90.15459442 19.84220505
v -43.63784409 90.15459442 20.18724632
v -43.98288727 90.15459442 20.45200348
v -44.38469315 90.15459442 20.61843872
v -44.81588364 90.15459442 20.67520523
v -45.24707794 90.15459442 20.61843872
v -45.64888382 90.15459442 20.45200348
v -45.99392700 90.15459442 20.18724632
v -46.25868225 90.15459442 19.84220505
v -46.42511749 90.15459442 19.44039726
v -46.48188400 90.15459442 19.00920486
v -46.42511749 90.15459442 18.57801247
v -46.25868225 90.15459442 18.17620468
v -45.99392700 90.15459442 17.83116531
v -45.64888382 90.15459442 17.56640816
v -45.24707794 90.15459442 17.39997292
v -44.81588364 90.15459442 17.34320641
v -44.38469315 90.15459442 17.39997292
v -43.98288727 90.15459442 17.56640816
v -43.63784409 90.15459442 17.83116531
v -43.37308884 90.15459442 18.17620468
v -54.60300064 100.15459442 15.00000000
v -54.60300064 17.87984848 15.00000000
v -54.60300064 100.15459442 25.00000000
v -54.60300064 17.87984848 25.00000000
v -23.20665359 100.15459442 18.57801247
v -23.14988518 100.15459442 19.00920486
v -23.20665359 100.15459442 19.44039726
v -23.37308693 100.15459442 19.84220505
v -23.63784599 100.15459442 20.18724632
v -23.98288536 100.15459442 20.45200348
v -24.38469315 100.15459442 20.61843872
v -24.81588554 100.15459442 20.67520523
v -25.24707794 100.15459442 20.61843872
v -25.64888573 100.15459442 20.45200348
v -25.99392509 100.15459442 20.18724632
v -26.25868416 100.15459442 19.84220505
v -26.42511749 100.15459442 19.44039726
v -26.48188591 100.15459442 19.00920486
v -26.42511749 100.15459442 18.57801247
v -26.25868416 100.15459442 18.17620468
v -25.99392509 100.15459442 17.83116531
v -25.64888573 100.15459442 17.56640816
v -25.24707794 100.15459442 17.39997292
v -24.81588554 100.15459442 17.34320641
v -24.38469315 100.15459442 17.39997292
v -23.98288536 100.15459442 17.56640816
v -23.63784599 100.15459442 17.83116531
v -23.37308693 100.15459442 18.17620468
v -43.20665359 100.15459442 18.57801247
v -43.14988708 100.15459442 19.00920486
v -43.20665359 100.15459442 19.44039726
v -43.37308884 100.15459442 19.84220505
v -43.63784409 100.15459442 20.18724632
v -43.98288727 100.15459442 20.45200348
v -44.38469315 100.15459442 20.61843872
v -44.81588364 100.15459442 20.67520523
v -45.24707794 100.15459442 20.61843872
v -45.64888382 100.15459442 20.45200348
v -45.99392700 100.15459442 20.18724632
v -46.25868225 100.15459442 19.84220505
v -46.42511749 100.15459442 19.44039726
v -46.48188400 100.15459442 19.00920486
v -46.42511749 100.15459442 18.57801247
v -46.25868225 100.15459442 18.17620468
v -45.99392700 100.15459442 17.83116531
v -45.64888382 100.15459442 17.56640816
v -45.24707794 100.15459442 17.39997292
v -44.81588364 100.15459442 17.34320641
v -44.38469315 100.15459442 17.39997292
v -43.98288727 100.15459442 17.56640816
v -43.63784409 100.15459442 17.83116531
v -43.37308884 100.15459442 18.17620468
v -54.60300064 100.15459442 15.00000000
v -54.60300064 100.15459442 25.00000000
v -5.00000000 100.15459442 25.00000000
v -5.00000000 100.15459442 15.00000000
v -5.00000000 79.72340393 21.60923195
v -5.00000000 80.15459442 21.66600037
v -5.00000000 80.58578491 21.60923195
v -5.00000000 80.98759460 21.44279861
v -5.00000000 81.33263397 21.17803955
v -5.00000000 81.59738922 20.83300018
v -5.00000000 81.76382446 20.43119240
v -5.00000000 81.82059479 20.00000000
v -5.00000000 81.76382446 19.56880760
v -5.00000000 81.59738922 19.16699982
v -5.00000000 81.33263397 18.82196045
v -5.00000000 80.98759460 18.55720139
v -5.00000000 80.58578491 18.39076805
v -5.00000000 80.15459442 18.33399963
v -5.00000000 79.72340393 18.39076805
v -5.00000000 79.32159424 18.55720139
v -5.00000000 78.97655487 18.82196045
v -5.00000000 78.71179199 19.16699982
v -5.00000000 78.54536438 19.56880760
v -5.00000000 78.48859406 20.00000000
v -5.00000000 78.54536438 20.43119240
v -5.00000000 78.71179199 20.83300018
v -5.00000000 78.97655487 21.17803955
v -5.00000000 79.32159424 21.44279861
v -5.00000000 37.44865799 21.60923195
v -5.00000000 37.87984848 21.66600037
v -5.00000000 38.31104279 21.60923195
v -5.00000000 38.71284866 21.44279861
v -5.00000000 39.05788803 21.17803955
v -5.00000000 39.32264709 20.83300018
v -5.00000000 39.48908234 20.43119240
v -5.00000000 39.54584885 20.00000000
v -5.00000000 39.48908234 19.56880760
v -5.00000000 39.32264709 19.16699982
v -5.00000000 39.05788803 18.82196045
v -5.00000000 38.71284866 18.55720139
v -5.00000000 38.31104279 18.39076805
v -5.00000000 37.87984848 18.33399963
v -5.00000000 37.44865799 18.39076805
v -5.00000000 37.04684830 18.55720139
v -5.00000000 36.70180893 18.82196045
v -5.00000000 36.43704987 19.16699982
v -5.00000000 36.27061844 19.56880760
v -5.00000000 36.21384811 20.00000000
v -5.00000000 36.27061844 20.43119240
v -5.00000000 36.43704987 20.83300018
v -5.00000000 36.70180893 21.17803955
v -5.00000000 37.04684830 21.44279861
v -5.00000000 17.87984848 25.00000000
v -5.00000000 100.15459442 25.00000000
v -5.00000000 100.15459442 15.00000000
v -5.00000000 17.87984848 15.00000000
v -26.60923195 17.87984848 19.56880760
v -26.66600037 17.87984848 20.00000000
v -26.60923195 17.87984848 20.43119240
v -26.44279861 17.87984848 20.83300018
v -26.17803955 17.87984848 21.17803955
v -25.83300018 17.87984848 21.44279861
v -25.43119240 17.87984848 21.60923195
v -25.00000000 17.87984848 21.66600037
v -24.56880760 17.87984848 21.60923195
v -24.16699982 17.87984848 21.44279861
v -23.82196045 17.87984848 21.17803955
v -23.55720139 17.87984848 20.83300018
v -23.39076805 17.87984848 20.43119240
v -23.33399963 17.87984848 20.00000000
v -23.39076805 17.87984848 19.56880760
v -23.55720139 17.87984848 19.16699982
v -23.82196045 17.87984848 18.82196045
v -24.16699982 17.87984848 18.55720139
v -24.56880760 17.87984848 18.39076805
v -25.00000000 17.87984848 18.33399963
v -25.43119240 17.87984848 18.39076805
v -25.83300018 17.87984848 18.55720139
v -26.17803955 17.87984848 18.82196045
v -26.44279861 17.87984848 19.16699982
v -46.60923386 17.87984848 19.56880760
v -46.66600037 17.87984848 20.00000000
v -46.60923386 17.87984848 20.43119240
v -46.44279861 17.87984848 20.83300018
v -46.17803955 17.87984848 21.17803955
v -45.83300018 17.87984848 21.44279861
v -45.43119431 17.87984848 21.60923195
v -45.00000000 17.87984848 21.66600037
v -44.56880569 17.87984848 21.60923195
v -44.16699982 17.87984848 21.44279861
v -43.82196045 17.87984848 21.17803955
v -43.55720139 17.87984848 20.83300018
v -43.39076614 17.87984848 20.43119240
v -43.33399963 17.87984848 20.00000000
v -43.39076614 17.87984848 19.56880760
v -43.55720139 17.87984848 19.16699982
v -43.82196045 17.87984848 18.82196045
v -44.16699982 17.87984848 18.55720139
v -44.56880569 17.87984848 18.39076805
v -45.00000000 17.87984848 18.33399963
v -45.43119431 17.87984848 18.39076805
v -45.83300018 17.87984848 18.55720139
v -46.17803955 17.87984848 18.82196045
v -46.44279861 17.87984848 19.16699982
v -54.60300064 17.87984848 15.00000000
v -54.60300064 17.87984848 25.00000000
v -5.00000000 17.87984848 25.00000000
v -5.00000000 17.87984848 15.00000000
v -54.60300064 100.15459442 25.00000000
v -54.60300064 17.87984848 25.00000000
v -5.00000000 17.87984848 25.00000000
v -5.00000000 100.15459442 25.00000000
v -54.60300064 100.15459442 15.00000000
v -54.60300064 17.87984848 15.00000000
v -5.00000000 100.15459442 15.00000000
v -5.00000000 17.87984848 15.00000000
f 1 2 3
f 3 2 4
f 3 4 5
f 5 4 6
f 5 6 7
f 7 6 8
f 7 8 9
f 9 8 10
f 9 10 11
f 11 10 12
f 11 12 13
f 13 12 14
f 13 14 15
f 15 14 16
f 15 16 17
f 17 16 18
f 17 18 19
f 19 18 20
f 19 20 21
f 21 20 22
f 21 22 23
f 23 22 24
f 23 24 25
f 25 24 26
f 25 26 27
f 27 26 28
f 27 28 29
f 29 28 30
f 29 30 31
f 31 30 32
f 31 32 33
f 33 32 34
f 33 34 35
f 35 34 36
f 35 36 37
f 37 36 38
f 37 38 39
f 39 38 40
f 39 40 41
f 41 40 42
f 41 42 43
f 43 42 44
f 43 44 45
f 45 44 46
f 45 46 47
f 47 46 48
f 47 48 1
f 1 48 2
f 61 51 62
f 62 51 50
f 62 50 63
f 63 50 49
f 63 49 64
f 64 49 72
f 64 72 65
f 65 72 71
f 65 71 66
f 66 71 70
f 66 70 67
f 67 70 69
f 67 69 68
f 51 61 52
f 52 61 60
f 52 60 53
f 53 60 59
f 53 59 54
f 54 59 58
f 54 58 55
f 55 58 57
f 55 57 56
f 73 74 75
f 75 74 76
f 75 76 77
f 77 76 78
f 77 78 79
f 79 78 80
f 79 80 81
f 81 80 82
f 81 82 83
f 83 82 84
f 83 84 85
f 85 84 86
f 85 86 87
f 87 86 88
f 87 88 89
f 89 88 90
f 89 90 91
f 91 90 92
f 91 92 93
f 93 92 94
f 93 94 95
f 95 94 96
f 95 96 97
f 97 96 98
f 97 98 99
f 99 98 100
f 99 100 101
f 101 100 102
f 101 102 103
f 103 102 104
f 103 104 105
f 105 104 106
f 105 106 107
f 107 106 108
f 107 108 109
f 109 108 110
f 109 110 111
f 111 110 112
f 111 112 113
f 113 112 114
f 113 114 115
f 115 114 116
f 115 116 117
f 117 116 118
f 117 118 119
f 119 118 120
f 119 120 73
f 73 120 74
f 133 123 134
f 134 123 122
f 134 122 135
f 135 122 121
f 135 121 136
f 136 121 144
f 136 144 137
f 137 144 143
f 137 143 138
f 138 143 142
f 138 142 139
f 139 142 141
f 139 141 140
f 123 133 124
f 124 133 132
f 124 132 125
f 125 132 131
f 125 131 126
f 126 131 130
f 126 130 127
f 127 130 129
f 127 129 128
f 145 146 147
f 147 146 148
f 147 148 149
f 149 148 150
f 149 150 151
f 151 150 152
f 151 152 153
f 153 152 154
f 153 154 155
f 155 154 156
f 155 156 157
f 157 156 158
f 157 158 159
f 159 158 160
f 159 160 161
f 161 160 162
f 161 162 163
f 163 162 164
f 163 164 165
f 165 164 166
f 165 166 167
f 167 166 168
f 167 168 169
f 169 168 170
f 169 170 171
f 171 170 172
f 171 172 173
f 173 172 174
f 173 174 175
f 175 174 176
f 175 176 177
f 177 176 178
f 177 178 179
f 179 178 180
f 179 180 181
f 181 180 182
f 181 182 183
f 183 182 184
f 183 184 185
f 185 184 186
f 185 186 187
f 187 186 188
f 187 188 189
f 189 188 190
f 189 190 191
f 191 190 192
f 191 192 145
f 145 192 146
f 193 174 194
f 194 174 172
f 194 172 195
f 195 172 170
f 195 170 196
f 196 170 168
f 196 168 197
f 197 168 166
f 197 166 198
f 198 166 164
f 198 164 199
f 199 164 162
f 199 162 200
f 200 162 160
f 200 160 201
f 201 160 158
f 201 158 202
f 202 158 156
f 202 156 203
f 203 156 154
f 203 154 204
f 204 154 152
f 204 152 205
f 205 152 150
f 205 150 206
f 206 150 148
f 206 148 207
f 207 148 146
f 207 146 208
f 208 146 192
f 208 192 209
f 209 192 190
f 209 190 210
f 210 190 188
f 210 188 211
f 211 188 186
f 211 186 212
f 212 186 184
f 212 184 213
f 213 184 182
f 213 182 214
f 214 182 180
f 214 180 215
f 215 180 178
f 215 178 216
f 216 178 176
f 216 176 193
f 193 176 174
f 219 229 218
f 218 229 230
f 218 230 217
f 217 230 231
f 217 231 240
f 240 231 232
f 240 232 239
f 239 232 233
f 239 233 238
f 238 233 234
f 238 234 237
f 237 234 235
f 237 235 236
f 229 219 228
f 228 219 220
f 228 220 227
f 227 220 221
f 227 221 226
f 226 221 222
f 226 222 225
f 225 222 223
f 225 223 224
f 241 242 243
f 243 242 244
f 243 244 245
f 245 244 246
f 245 246 247
f 247 246 248
f 247 248 249
f 249 248 250
f 249 250 251
f 251 250 252
f 251 252 253
f 253 252 254
f 253 254 255
f 255 254 256
f 255 256 257
f 257 256 258
f 257 258 259
f 259 258 260
f 259 260 261
f 261 260 262
f 261 262 263
f 263 262 264
f 263 264 265
f 265 264 266
f 265 266 267
f 267 266 268
f 267 268 269
f 269 268 270
f 269 270 271
f 271 270 272
f 271 272 273
f 273 272 274
f 273 274 275
f 275 274 276
f 275 276 277
f 277 276 278
f 277 278 279
f 279 278 280
f 279 280 281
f 281 280 282
f 281 282 283
f 283 282 284
f 283 284 285
f 285 284 286
f 285 286 287
f 287 286 288
f 287 288 241
f 241 288 242
f 289 270 290
f 290 270 268
f 290 268 291
f 291 268 266
f 291 266 292
f 292 266 264
f 292 264 293
f 293 264 262
f 293 262 294
f 294 262 260
f 294 260 295
f 295 260 258
f 295 258 296
f 296 258 256
f 296 256 297
f 297 256 254
f 297 254 298
f 298 254 252
f 298 252 299
f 299 252 250
f 299 250 300
f 300 250 248
f 300 248 301
f 301 248 246
f 301 246 302
f 302 246 244
f 302 244 303
f 303 244 242
f 303 242 304
f 304 242 288
f 304 288 305
f 305 288 286
f 305 286 306
f 306 286 284
f 306 284 307
f 307 284 282
f 307 282 308
f 308 282 280
f 308 280 309
f 309 280 278
f 309 278 310
f 310 278 276
f 310 276 311
f 311 276 274
f 311 274 312
f 312 274 272
f 312 272 289
f 289 272 270
f 315 325 314
f 314 325 326
f 314 326 313
f 313 326 327
f 313 327 336
f 336 327 328
f 336 328 335
f 335 328 329
f 335 329 334
f 334 329 330
f 334 330 333
f 333 330 331
f 333 331 332
f 325 315 324
f 324 315 316
f 324 316 323
f 323 316 317
f 323 317 322
f 322 317 318
f 322 318 321
f 321 318 319
f 321 319 320
f 337 338 339
f 339 338 340
f 339 340 341
f 341 340 342
f 341 342 343
f 343 342 344
f 343 344 345
f 345 344 346
f 345 346 347
f 347 346 348
f 347 348 349
f 349 348 350
f 349 350 351
f 351 350 352
f 351 352 353
f 353 352 354
f 353 354 355
f 355 354 356
f 355 356 357
f 357 356 358
f 357 358 359
f 359 358 360
f 359 360 361
f 361 360 362
f 361 362 363
f 363 362 364
f 363 364 365
f 365 364 366
f 365 366 367
f 367 366 368
f 367 368 369
f 369 368 370
f 369 370 371
f 371 370 372
f 371 372 373
f 373 372 374
f 373 374 375
f 375 374 376
f 375 376 377
f 377 376 378
f 377 378 379
f 379 378 380
f 379 380 381
f 381 380 382
f 381 382 383
f 383 382 384
f 383 384 337
f 337 384 338
f 397 387 398
f 398 387 386
f 398 386 399
f 399 386 385
f 399 385 400
f 400 385 408
f 400 408 401
f 401 408 407
f 401 407 402
f 402 407 406
f 402 406 403
f 403 406 405
f 403 405 404
f 387 397 388
f 388 397 396
f 388 396 389
f 389 396 395
f 389 395 390
f 390 395 394
f 390 394 391
f 391 394 393
f 391 393 392
f 409 410 411
f 411 410 412
f 411 412 413
f 413 412 414
f 413 414 415
f 415 414 416
f 415 416 417
f 417 416 418
f 417 418 419
f 419 418 420
f 419 420 421
f 421 420 422
f 421 422 423
f 423 422 424
f 423 424 425
f 425 424 426
f 425 426 427
f 427 426 428
f 427 428 429
f 429 428 430
f 429 430 431
f 431 430 432
f 431 432 433
f 433 432 434
f 433 434 435
f 435 434 436
f 435 436 437
f 437 436 438
f 437 438 439
f 439 438 440
f 439 440 441
f 441 440 442
f 441 442 443
f 443 442 444
f 443 444 445
f 445 444 446
f 445 446 447
f 447 446 448
f 447 448 449
f 449 448 450
f 449 450 451
f 451 450 452
f 451 452 453
f 453 452 454
f 453 454 455
f 455 454 456
f 455 456 409
f 409 456 410
f 469 459 470
f 470 459 458
f 470 458 471
f 471 458 457
f 471 457 472
f 472 457 480
f 472 480 473
f 473 480 479
f 473 479 474
f 474 479 478
f 474 478 475
f 475 478 477
f 475 477 476
f 459 469 460
f 460 469 468
f 460 468 461
f 461 468 467
f 461 467 462
f 462 467 466
f 462 466 463
f 463 466 465
f 463 465 464
f 481 482 483
f 483 482 484
f 485 486 536
f 536 486 487
f 536 487 535
f 535 487 488
f 535 488 489
f 489 490 535
f 535 490 491
f 535 491 492
f 493 515 492
f 492 515 516
f 492 516 534
f 534 516 517
f 534 517 518
f 515 493 514
f 514 493 494
f 514 494 495
f 514 495 513
f 513 495 496
f 513 496 512
f 512 496 497
f 512 497 511
f 511 497 498
f 511 498 510
f 510 498 509
f 509 498 499
f 509 499 532
f 532 499 500
f 532 500 531
f 531 500 501
f 531 501 530
f 530 501 502
f 530 502 529
f 529 502 503
f 529 503 504
f 505 536 504
f 504 536 533
f 504 533 528
f 528 533 527
f 527 533 526
f 526 533 525
f 525 533 524
f 524 533 523
f 523 533 522
f 522 533 521
f 521 533 534
f 521 534 520
f 520 534 519
f 519 534 518
f 505 506 536
f 536 506 507
f 536 507 508
f 508 485 536
f 528 529 504
f 534 535 492
f 539 586 538
f 538 586 585
f 538 585 562
f 562 585 561
f 561 585 584
f 584 585 583
f 583 585 582
f 582 585 581
f 581 585 580
f 580 585 588
f 580 588 579
f 579 588 578
f 578 588 577
f 577 588 576
f 576 588 575
f 575 588 574
f 574 588 587
f 574 587 550
f 550 587 549
f 549 587 548
f 548 587 547
f 547 587 546
f 546 587 545
f 545 587 544
f 544 587 586
f 544 586 543
f 543 586 542
f 542 586 541
f 541 586 540
f 540 586 539
f 574 550 573
f 573 550 551
f 573 551 572
f 572 551 552
f 572 552 571
f 571 552 553
f 571 553 570
f 570 553 554
f 570 554 569
f 569 554 555
f 569 555 568
f 568 555 556
f 568 556 567
f 567 556 557
f 567 557 566
f 566 557 558
f 566 558 565
f 565 558 559
f 565 559 564
f 564 559 560
f 564 560 563
f 563 560 537
f 563 537 562
f 562 537 538
f 591 625 590
f 590 625 626
f 590 626 589
f 589 626 627
f 589 627 612
f 612 627 628
f 612 628 611
f 611 628 629
f 611 629 610
f 610 629 630
f 610 630 609
f 609 630 631
f 609 631 608
f 608 631 632
f 608 632 637
f 637 632 633
f 637 633 634
f 625 591 624
f 624 591 592
f 624 592 623
f 623 592 593
f 623 593 622
f 622 593 594
f 622 594 621
f 621 594 595
f 621 595 620
f 620 595 596
f 620 596 638
f 638 596 639
f 639 596 597
f 639 597 598
f 598 599 639
f 639 599 600
f 639 600 601
f 601 602 639
f 639 602 640
f 640 602 603
f 640 603 604
f 604 605 640
f 640 605 606
f 640 606 607
f 607 608 640
f 640 608 637
f 615 638 614
f 614 638 637
f 614 637 613
f 613 637 636
f 636 637 635
f 635 637 634
f 615 616 638
f 638 616 617
f 638 617 618
f 618 619 638
f 638 619 620
f 642 644 641
f 643 644 642
f 645 648 646
f 647 648 645

