# https://github.com/mikedh/trimesh

o M_Left1_1.stl
v -39.61579514 0.87890726 48.00000000
v -39.61579514 0.87890726 43.00000000
v -40.00000000 0.83399999 48.00000000
v -40.00000000 0.83399999 43.00000000
v -40.38420486 0.87890726 48.00000000
v -40.38420486 0.87890726 43.00000000
v -40.74769974 1.01120806 48.00000000
v -40.74769974 1.01120806 43.00000000
v -41.07088470 1.22376990 48.00000000
v -41.07088470 1.22376990 43.00000000
v -41.33633804 1.50513375 48.00000000
v -41.33633804 1.50513375 43.00000000
v -41.52974701 1.84013116 48.00000000
v -41.52974701 1.84013116 43.00000000
v -41.64068985 2.21070218 48.00000000
v -41.64068985 2.21070218 43.00000000
v -41.66318130 2.59686923 48.00000000
v -41.66318130 2.59686923 43.00000000
v -41.59601212 2.97781420 48.00000000
v -41.59601212 2.97781420 43.00000000
v -41.44279861 3.33299994 48.00000000
v -41.44279861 3.33299994 43.00000000
v -41.21180344 3.64327860 48.00000000
v -41.21180344 3.64327860 43.00000000
v -40.91548157 3.89192271 48.00000000
v -40.91548157 3.89192271 43.00000000
v -40.56980515 4.06552792 48.00000000
v -40.56980515 4.06552792 43.00000000
v -40.19340897 4.15473509 48.00000000
v -40.19340897 4.15473509 43.00000000
v -39.80659103 4.15473509 48.00000000
v -39.80659103 4.15473509 43.00000000
v -39.43019485 4.06552792 48.00000000
v -39.43019485 4.06552792 43.00000000
v -39.08451843 3.89192271 48.00000000
v -39.08451843 3.89192271 43.00000000
v -38.78819656 3.64327860 48.00000000
v -38.78819656 3.64327860 43.00000000
v -38.55720139 3.33299994 48.00000000
v -38.55720139 3.33299994 43.00000000
v -38.40398788 2.97781420 48.00000000
v -38.40398788 2.97781420 43.00000000
v -38.33681870 2.59686923 48.00000000
v -38.33681870 2.59686923 43.00000000
v -38.35931015 2.21070218 48.00000000
v -38.35931015 2.21070218 43.00000000
v -38.47025299 1.84013116 48.00000000
v -38.47025299 1.84013116 43.00000000
v -38.66366196 1.50513375 48.00000000
v -38.66366196 1.50513375 43.00000000
v -38.92911530 1.22376990 48.00000000
v -38.92911530 1.22376990 43.00000000
v -39.25230026 1.01120806 48.00000000
v -39.25230026 1.01120806 43.00000000
v -39.61579514 4.12109280 38.00000000
v -40.00000000 4.16599989 38.00000000
v -40.38420486 4.12109280 38.00000000
v -40.74769974 3.98879194 38.00000000
v -41.07088470 3.77623010 38.00000000
v -41.33633804 3.49486613 38.00000000
v -41.52974701 3.15986896 38.00000000
v -41.64068985 2.78929782 38.00000000
v -41.66318130 2.40313077 38.00000000
v -41.59601212 2.02218580 38.00000000
v -41.44279861 1.66700006 38.00000000
v -41.21180344 1.35672140 38.00000000
v -40.91548157 1.10807729 38.00000000
v -40.56980515 0.93447208 38.00000000
v -40.19340897 0.84526491 38.00000000
v -39.80659103 0.84526491 38.00000000
v -39.43019485 0.93447208 38.00000000
v -39.08451843 1.10807729 38.00000000
v -38.78819656 1.35672140 38.00000000
v -38.55720139 1.66700006 38.00000000
v -38.40398788 2.02218580 38.00000000
v -38.33681870 2.40313077 38.00000000
v -38.35931015 2.78929782 38.00000000
v -38.47025299 3.15986896 38.00000000
v -38.66366196 3.49486613 38.00000000
v -38.92911530 3.77623010 38.00000000
v -39.25230026 3.98879194 38.00000000
v -39.61579514 4.12109280 38.00000000
v -40.00000000 4.16599989 38.00000000
v -40.38420486 4.12109280 38.00000000
v -40.74769974 3.98879194 38.00000000
v -41.07088470 3.77623010 38.00000000
v -41.33633804 3.49486613 38.00000000
v -41.52974701 3.15986896 38.00000000
v -41.64068985 2.78929782 38.00000000
v -41.66318130 2.40313077 38.00000000
v -41.59601212 2.02218580 38.00000000
v -41.44279861 1.66700006 38.00000000
v -41.21180344 1.35672140 38.00000000
v -40.91548157 1.10807729 38.00000000
v -40.56980515 0.93447208 38.00000000
v -40.19340897 0.84526491 38.00000000
v -39.80659103 0.84526491 38.00000000
v -39.43019485 0.93447208 38.00000000
v -39.08451843 1.10807729 38.00000000
v -38.78819656 1.35672140 38.00000000
v -38.55720139 1.66700006 38.00000000
v -38.40398788 2.02218580 38.00000000
v -38.33681870 2.40313077 38.00000000
v -38.35931015 2.78929782 38.00000000
v -38.47025299 3.15986896 38.00000000
v -38.66366196 3.49486613 38.00000000
v -38.92911530 3.77623010 38.00000000
v -39.25230026 3.98879194 38.00000000
v -19.61579323 0.87890726 48.00000000
v -19.61579323 0.87890726 43.00000000
v -20.00000000 0.83399999 48.00000000
v -20.00000000 0.83399999 43.00000000
v -20.38420677 0.87890726 48.00000000
v -20.38420677 0.87890726 43.00000000
v -20.74769974 1.01120806 48.00000000
v -20.74769974 1.01120806 43.00000000
v -21.07088470 1.22376990 48.00000000
v -21.07088470 1.22376990 43.00000000
v -21.33633804 1.50513375 48.00000000
v -21.33633804 1.50513375 43.00000000
v -21.52974892 1.84013116 48.00000000
v -21.52974892 1.84013116 43.00000000
v -21.64068985 2.21070218 48.00000000
v -21.64068985 2.21070218 43.00000000
v -21.66318130 2.59686923 48.00000000
v -21.66318130 2.59686923 43.00000000
v -21.59601021 2.97781420 48.00000000
v -21.59601021 2.97781420 43.00000000
v -21.44279861 3.33299994 48.00000000
v -21.44279861 3.33299994 43.00000000
v -21.21180534 3.64327860 48.00000000
v -21.21180534 3.64327860 43.00000000
v -20.91548157 3.89192271 48.00000000
v -20.91548157 3.89192271 43.00000000
v -20.56980515 4.06552792 48.00000000
v -20.56980515 4.06552792 43.00000000
v -20.19341087 4.15473509 48.00000000
v -20.19341087 4.15473509 43.00000000
v -19.80658913 4.15473509 48.00000000
v -19.80658913 4.15473509 43.00000000
v -19.43019485 4.06552792 48.00000000
v -19.43019485 4.06552792 43.00000000
v -19.08451843 3.89192271 48.00000000
v -19.08451843 3.89192271 43.00000000
v -18.78819466 3.64327860 48.00000000
v -18.78819466 3.64327860 43.00000000
v -18.55720139 3.33299994 48.00000000
v -18.55720139 3.33299994 43.00000000
v -18.40398979 2.97781420 48.00000000
v -18.40398979 2.97781420 43.00000000
v -18.33681870 2.59686923 48.00000000
v -18.33681870 2.59686923 43.00000000
v -18.35931015 2.21070218 48.00000000
v -18.35931015 2.21070218 43.00000000
v -18.47025108 1.84013116 48.00000000
v -18.47025108 1.84013116 43.00000000
v -18.66366196 1.50513375 48.00000000
v -18.66366196 1.50513375 43.00000000
v -18.92911530 1.22376990 48.00000000
v -18.92911530 1.22376990 43.00000000
v -19.25230026 1.01120806 48.00000000
v -19.25230026 1.01120806 43.00000000
v -19.61579323 4.12109280 38.00000000
v -20.00000000 4.16599989 38.00000000
v -20.38420677 4.12109280 38.00000000
v -20.74769974 3.98879194 38.00000000
v -21.07088470 3.77623010 38.00000000
v -21.33633804 3.49486613 38.00000000
v -21.52974892 3.15986896 38.00000000
v -21.64068985 2.78929782 38.00000000
v -21.66318130 2.40313077 38.00000000
v -21.59601021 2.02218580 38.00000000
v -21.44279861 1.66700006 38.00000000
v -21.21180534 1.35672140 38.00000000
v -20.91548157 1.10807729 38.00000000
v -20.56980515 0.93447208 38.00000000
v -20.19341087 0.84526491 38.00000000
v -19.80658913 0.84526491 38.00000000
v -19.43019485 0.93447208 38.00000000
v -19.08451843 1.10807729 38.00000000
v -18.78819466 1.35672140 38.00000000
v -18.55720139 1.66700006 38.00000000
v -18.40398979 2.02218580 38.00000000
v -18.33681870 2.40313077 38.00000000
v -18.35931015 2.78929782 38.00000000
v -18.47025108 3.15986896 38.00000000
v -18.66366196 3.49486613 38.00000000
v -18.92911530 3.77623010 38.00000000
v -19.25230026 3.98879194 38.00000000
v -19.61579323 4.12109280 38.00000000
v -20.00000000 4.16599989 38.00000000
v -20.38420677 4.12109280 38.00000000
v -20.74769974 3.98879194 38.00000000
v -21.07088470 3.77623010 38.00000000
v -21.33633804 3.49486613 38.00000000
v -21.52974892 3.15986896 38.00000000
v -21.64068985 2.78929782 38.00000000
v -21.66318130 2.40313077 38.00000000
v -21.59601021 2.02218580 38.00000000
v -21.44279861 1.66700006 38.00000000
v -21.21180534 1.35672140 38.00000000
v -20.91548157 1.10807729 38.00000000
v -20.56980515 0.93447208 38.00000000
v -20.19341087 0.84526491 38.00000000
v -19.80658913 0.84526491 38.00000000
v -19.43019485 0.93447208 38.00000000
v -19.08451843 1.10807729 38.00000000
v -18.78819466 1.35672140 38.00000000
v -18.55720139 1.66700006 38.00000000
v -18.40398979 2.02218580 38.00000000
v -18.33681870 2.40313077 38.00000000
v -18.35931015 2.78929782 38.00000000
v -18.47025108 3.15986896 38.00000000
v -18.66366196 3.49486613 38.00000000
v -18.92911530 3.77623010 38.00000000
v -19.25230026 3.98879194 38.00000000
v -4.12109280 5.00000000 28.38420677
v -4.15473509 0.00000000 28.19341087
v -4.16599989 5.00000000 28.00000000
v -4.15473509 0.00000000 27.80658913
v -4.12109280 5.00000000 27.61579323
v -4.06552792 0.00000000 27.43019485
v -3.98879194 5.00000000 27.25230026
v -3.89192271 0.00000000 27.08451843
v -3.77623010 5.00000000 26.92911530
v -3.64327860 0.00000000 26.78819466
v -3.49486613 5.00000000 26.66366196
v -3.33299994 0.00000000 26.55720139
v -3.15986896 5.00000000 26.47025108
v -2.97781420 0.00000000 26.40398979
v -2.78929782 5.00000000 26.35931015
v -2.59686923 0.00000000 26.33681870
v -2.40313077 5.00000000 26.33681870
v -2.21070218 0.00000000 26.35931015
v -2.02218580 5.00000000 26.40398979
v -1.84013116 0.00000000 26.47025108
v -1.66700006 5.00000000 26.55720139
v -1.50513375 0.00000000 26.66366196
v -1.35672140 5.00000000 26.78819466
v -1.22376990 0.00000000 26.92911530
v -1.10807729 5.00000000 27.08451843
v -1.01120806 0.00000000 27.25230026
v -0.93447208 5.00000000 27.43019485
v -0.87890726 0.00000000 27.61579323
v -0.84526491 5.00000000 27.80658913
v -0.83399999 0.00000000 28.00000000
v -0.84526491 5.00000000 28.19341087
v -0.87890726 0.00000000 28.38420677
v -0.93447208 5.00000000 28.56980515
v -1.01120806 0.00000000 28.74769974
v -1.10807729 5.00000000 28.91548157
v -1.22376990 0.00000000 29.07088470
v -1.35672140 5.00000000 29.21180534
v -1.50513375 0.00000000 29.33633804
v -1.66700006 5.00000000 29.44279861
v -1.84013116 0.00000000 29.52974892
v -2.02218580 5.00000000 29.59601021
v -2.21070218 0.00000000 29.64068985
v -2.40313077 5.00000000 29.66318130
v -2.59686923 0.00000000 29.66318130
v -2.78929782 5.00000000 29.64068985
v -2.97781420 0.00000000 29.59601021
v -3.15986896 5.00000000 29.52974892
v -3.33299994 0.00000000 29.44279861
v -3.49486613 5.00000000 29.33633804
v -3.64327860 0.00000000 29.21180534
v -3.77623010 5.00000000 29.07088470
v -3.89192271 0.00000000 28.91548157
v -3.98879194 5.00000000 28.74769974
v -4.06552792 0.00000000 28.56980515
v -4.12109280 5.00000000 38.38420486
v -4.15473509 0.00000000 38.19340897
v -4.16599989 5.00000000 38.00000000
v -4.15473509 0.00000000 37.80659103
v -4.12109280 5.00000000 37.61579514
v -4.06552792 0.00000000 37.43019485
v -3.98879194 5.00000000 37.25230026
v -3.89192271 0.00000000 37.08451843
v -3.77623010 5.00000000 36.92911530
v -3.64327860 0.00000000 36.78819656
v -3.49486613 5.00000000 36.66366196
v -3.33299994 0.00000000 36.55720139
v -3.15986896 5.00000000 36.47025299
v -2.97781420 0.00000000 36.40398788
v -2.78929782 5.00000000 36.35931015
v -2.59686923 0.00000000 36.33681870
v -2.40313077 5.00000000 36.33681870
v -2.21070218 0.00000000 36.35931015
v -2.02218580 5.00000000 36.40398788
v -1.84013116 0.00000000 36.47025299
v -1.66700006 5.00000000 36.55720139
v -1.50513375 0.00000000 36.66366196
v -1.35672140 5.00000000 36.78819656
v -1.22376990 0.00000000 36.92911530
v -1.10807729 5.00000000 37.08451843
v -1.01120806 0.00000000 37.25230026
v -0.93447208 5.00000000 37.43019485
v -0.87890726 0.00000000 37.61579514
v -0.84526491 5.00000000 37.80659103
v -0.83399999 0.00000000 38.00000000
v -0.84526491 5.00000000 38.19340897
v -0.87890726 0.00000000 38.38420486
v -0.93447208 5.00000000 38.56980515
v -1.01120806 0.00000000 38.74769974
v -1.10807729 5.00000000 38.91548157
v -1.22376990 0.00000000 39.07088470
v -1.35672140 5.00000000 39.21180344
v -1.50513375 0.00000000 39.33633804
v -1.66700006 5.00000000 39.44279861
v -1.84013116 0.00000000 39.52974701
v -2.02218580 5.00000000 39.59601212
v -2.21070218 0.00000000 39.64068985
v -2.40313077 5.00000000 39.66318130
v -2.59686923 0.00000000 39.66318130
v -2.78929782 5.00000000 39.64068985
v -2.97781420 0.00000000 39.59601212
v -3.15986896 5.00000000 39.52974701
v -3.33299994 0.00000000 39.44279861
v -3.49486613 5.00000000 39.33633804
v -3.64327860 0.00000000 39.21180344
v -3.77623010 5.00000000 39.07088470
v -3.89192271 0.00000000 38.91548157
v -3.98879194 5.00000000 38.74769974
v -4.06552792 0.00000000 38.56980515
v -55.00000000 0.00000000 0.00000000
v -55.00000000 5.00000000 0.00000000
v -0.00000000 0.00000000 0.00000000
v -0.00000000 5.00000000 -0.00000000
v -55.00000000 0.00000000 0.00000000
v -55.00000000 5.00000000 0.00000000
v -55.00000000 0.00000000 48.00000000
v -55.00000000 5.00000000 48.00000000
v -0.00000000 0.00000000 0.00000000
v -0.00000000 5.00000000 -0.00000000
v 0.00000000 0.00000000 48.00000000
v 0.00000000 5.00000000 48.00000000
v -39.61579514 0.87890726 48.00000000
v -40.00000000 0.83399999 48.00000000
v -40.38420486 0.87890726 48.00000000
v -40.74769974 1.01120806 48.00000000
v -41.07088470 1.22376990 48.00000000
v -41.33633804 1.50513375 48.00000000
v -41.52974701 1.84013116 48.00000000
v -41.64068985 2.21070218 48.00000000
v -41.66318130 2.59686923 48.00000000
v -41.59601212 2.97781420 48.00000000
v -41.44279861 3.33299994 48.00000000
v -41.21180344 3.64327860 48.00000000
v -40.91548157 3.89192271 48.00000000
v -40.56980515 4.06552792 48.00000000
v -40.19340897 4.15473509 48.00000000
v -39.80659103 4.15473509 48.00000000
v -39.43019485 4.06552792 48.00000000
v -39.08451843 3.89192271 48.00000000
v -38.78819656 3.64327860 48.00000000
v -38.55720139 3.33299994 48.00000000
v -38.40398788 2.97781420 48.00000000
v -38.33681870 2.59686923 48.00000000
v -38.35931015 2.21070218 48.00000000
v -38.47025299 1.84013116 48.00000000
v -38.66366196 1.50513375 48.00000000
v -38.92911530 1.22376990 48.00000000
v -39.25230026 1.01120806 48.00000000
v -19.61579323 0.87890726 48.00000000
v -20.00000000 0.83399999 48.00000000
v -20.38420677 0.87890726 48.00000000
v -20.74769974 1.01120806 48.00000000
v -21.07088470 1.22376990 48.00000000
v -21.33633804 1.50513375 48.00000000
v -21.52974892 1.84013116 48.00000000
v -21.64068985 2.21070218 48.00000000
v -21.66318130 2.59686923 48.00000000
v -21.59601021 2.97781420 48.00000000
v -21.44279861 3.33299994 48.00000000
v -21.21180534 3.64327860 48.00000000
v -20.91548157 3.89192271 48.00000000
v -20.56980515 4.06552792 48.00000000
v -20.19341087 4.15473509 48.00000000
v -19.80658913 4.15473509 48.00000000
v -19.43019485 4.06552792 48.00000000
v -19.08451843 3.89192271 48.00000000
v -18.78819466 3.64327860 48.00000000
v -18.55720139 3.33299994 48.00000000
v -18.40398979 2.97781420 48.00000000
v -18.33681870 2.59686923 48.00000000
v -18.35931015 2.21070218 48.00000000
v -18.47025108 1.84013116 48.00000000
v -18.66366196 1.50513375 48.00000000
v -18.92911530 1.22376990 48.00000000
v -19.25230026 1.01120806 48.00000000
v -55.00000000 0.00000000 48.00000000
v -55.00000000 5.00000000 48.00000000
v 0.00000000 0.00000000 48.00000000
v 0.00000000 5.00000000 48.00000000
v -4.15473509 0.00000000 28.19341087
v -4.15473509 0.00000000 27.80658913
v -4.06552792 0.00000000 27.43019485
v -3.89192271 0.00000000 27.08451843
v -3.64327860 0.00000000 26.78819466
v -3.33299994 0.00000000 26.55720139
v -2.97781420 0.00000000 26.40398979
v -2.59686923 0.00000000 26.33681870
v -2.21070218 0.00000000 26.35931015
v -1.84013116 0.00000000 26.47025108
v -1.50513375 0.00000000 26.66366196
v -1.22376990 0.00000000 26.92911530
v -1.01120806 0.00000000 27.25230026
v -0.87890726 0.00000000 27.61579323
v -0.83399999 0.00000000 28.00000000
v -0.87890726 0.00000000 28.38420677
v -1.01120806 0.00000000 28.74769974
v -1.22376990 0.00000000 29.07088470
v -1.50513375 0.00000000 29.33633804
v -1.84013116 0.00000000 29.52974892
v -2.21070218 0.00000000 29.64068985
v -2.59686923 0.00000000 29.66318130
v -2.97781420 0.00000000 29.59601021
v -3.33299994 0.00000000 29.44279861
v -3.64327860 0.00000000 29.21180534
v -3.89192271 0.00000000 28.91548157
v -4.06552792 0.00000000 28.56980515
v -4.15473509 0.00000000 38.19340897
v -4.15473509 0.00000000 37.80659103
v -4.06552792 0.00000000 37.43019485
v -3.89192271 0.00000000 37.08451843
v -3.64327860 0.00000000 36.78819656
v -3.33299994 0.00000000 36.55720139
v -2.97781420 0.00000000 36.40398788
v -2.59686923 0.00000000 36.33681870
v -2.21070218 0.00000000 36.35931015
v -1.84013116 0.00000000 36.47025299
v -1.50513375 0.00000000 36.66366196
v -1.22376990 0.00000000 36.92911530
v -1.01120806 0.00000000 37.25230026
v -0.87890726 0.00000000 37.61579514
v -0.83399999 0.00000000 38.00000000
v -0.87890726 0.00000000 38.38420486
v -1.01120806 0.00000000 38.74769974
v -1.22376990 0.00000000 39.07088470
v -1.50513375 0.00000000 39.33633804
v -1.84013116 0.00000000 39.52974701
v -2.21070218 0.00000000 39.64068985
v -2.59686923 0.00000000 39.66318130
v -2.97781420 0.00000000 39.59601212
v -3.33299994 0.00000000 39.44279861
v -3.64327860 0.00000000 39.21180344
v -3.89192271 0.00000000 38.91548157
v -4.06552792 0.00000000 38.56980515
v -55.00000000 0.00000000 0.00000000
v -0.00000000 0.00000000 0.00000000
v -55.00000000 0.00000000 48.00000000
v 0.00000000 0.00000000 48.00000000
v -4.12109280 5.00000000 28.38420677
v -4.16599989 5.00000000 28.00000000
v -4.12109280 5.00000000 27.61579323
v -3.98879194 5.00000000 27.25230026
v -3.77623010 5.00000000 26.92911530
v -3.49486613 5.00000000 26.66366196
v -3.15986896 5.00000000 26.47025108
v -2.78929782 5.00000000 26.35931015
v -2.40313077 5.00000000 26.33681870
v -2.02218580 5.00000000 26.40398979
v -1.66700006 5.00000000 26.55720139
v -1.35672140 5.00000000 26.78819466
v -1.10807729 5.00000000 27.08451843
v -0.93447208 5.00000000 27.43019485
v -0.84526491 5.00000000 27.80658913
v -0.84526491 5.00000000 28.19341087
v -0.93447208 5.00000000 28.56980515
v -1.10807729 5.00000000 28.91548157
v -1.35672140 5.00000000 29.21180534
v -1.66700006 5.00000000 29.44279861
v -2.02218580 5.00000000 29.59601021
v -2.40313077 5.00000000 29.66318130
v -2.78929782 5.00000000 29.64068985
v -3.15986896 5.00000000 29.52974892
v -3.49486613 5.00000000 29.33633804
v -3.77623010 5.00000000 29.07088470
v -3.98879194 5.00000000 28.74769974
v -4.12109280 5.00000000 38.38420486
v -4.16599989 5.00000000 38.00000000
v -4.12109280 5.00000000 37.61579514
v -3.98879194 5.00000000 37.25230026
v -3.77623010 5.00000000 36.92911530
v -3.49486613 5.00000000 36.66366196
v -3.15986896 5.00000000 36.47025299
v -2.78929782 5.00000000 36.35931015
v -2.40313077 5.00000000 36.33681870
v -2.02218580 5.00000000 36.40398788
v -1.66700006 5.00000000 36.55720139
v -1.35672140 5.00000000 36.78819656
v -1.10807729 5.00000000 37.08451843
v -0.93447208 5.00000000 37.43019485
v -0.84526491 5.00000000 37.80659103
v -0.84526491 5.00000000 38.19340897
v -0.93447208 5.00000000 38.56980515
v -1.10807729 5.00000000 38.91548157
v -1.35672140 5.00000000 39.21180344
v -1.66700006 5.00000000 39.44279861
v -2.02218580 5.00000000 39.59601212
v -2.40313077 5.00000000 39.66318130
v -2.78929782 5.00000000 39.64068985
v -3.15986896 5.00000000 39.52974701
v -3.49486613 5.00000000 39.33633804
v -3.77623010 5.00000000 39.07088470
v -3.98879194 5.00000000 38.74769974
v -55.00000000 5.00000000 0.00000000
v -0.00000000 5.00000000 -0.00000000
v -55.00000000 5.00000000 48.00000000
v 0.00000000 5.00000000 48.00000000
f 1 2 3
f 3 2 4
f 3 4 5
f 5 4 6
f 5 6 7
f 7 6 8
f 7 8 9
f 9 8 10
f 9 10 11
f 11 10 12
f 11 12 13
f 13 12 14
f 13 14 15
f 15 14 16
f 15 16 17
f 17 16 18
f 17 18 19
f 19 18 20
f 19 20 21
f 21 20 22
f 21 22 23
f 23 22 24
f 23 24 25
f 25 24 26
f 25 26 27
f 27 26 28
f 27 28 29
f 29 28 30
f 29 30 31
f 31 30 32
f 31 32 33
f 33 32 34
f 33 34 35
f 35 34 36
f 35 36 37
f 37 36 38
f 37 38 39
f 39 38 40
f 39 40 41
f 41 40 42
f 41 42 43
f 43 42 44
f 43 44 45
f 45 44 46
f 45 46 47
f 47 46 48
f 47 48 49
f 49 48 50
f 49 50 51
f 51 50 52
f 51 52 53
f 53 52 54
f 53 54 1
f 1 54 2
f 55 32 56
f 56 32 30
f 56 30 57
f 57 30 28
f 57 28 58
f 58 28 26
f 58 26 59
f 59 26 24
f 59 24 60
f 60 24 22
f 60 22 61
f 61 22 20
f 61 20 62
f 62 20 18
f 62 18 63
f 63 18 16
f 63 16 64
f 64 16 14
f 64 14 65
f 65 14 12
f 65 12 66
f 66 12 10
f 66 10 67
f 67 10 8
f 67 8 68
f 68 8 6
f 68 6 69
f 69 6 4
f 69 4 70
f 70 4 2
f 70 2 71
f 71 2 54
f 71 54 72
f 72 54 52
f 72 52 73
f 73 52 50
f 73 50 74
f 74 50 48
f 74 48 75
f 75 48 46
f 75 46 76
f 76 46 44
f 76 44 77
f 77 44 42
f 77 42 78
f 78 42 40
f 78 40 79
f 79 40 38
f 79 38 80
f 80 38 36
f 80 36 81
f 81 36 34
f 81 34 55
f 55 34 32
f 83 84 82
f 82 84 108
f 108 84 85
f 108 85 107
f 107 85 86
f 107 86 106
f 106 86 87
f 106 87 105
f 105 87 104
f 104 87 103
f 103 87 102
f 102 87 101
f 101 87 100
f 100 87 99
f 99 87 98
f 98 87 97
f 97 87 96
f 96 87 95
f 95 87 94
f 94 87 93
f 93 87 88
f 93 88 92
f 92 88 91
f 91 88 89
f 91 89 90
f 109 110 111
f 111 110 112
f 111 112 113
f 113 112 114
f 113 114 115
f 115 114 116
f 115 116 117
f 117 116 118
f 117 118 119
f 119 118 120
f 119 120 121
f 121 120 122
f 121 122 123
f 123 122 124
f 123 124 125
f 125 124 126
f 125 126 127
f 127 126 128
f 127 128 129
f 129 128 130
f 129 130 131
f 131 130 132
f 131 132 133
f 133 132 134
f 133 134 135
f 135 134 136
f 135 136 137
f 137 136 138
f 137 138 139
f 139 138 140
f 139 140 141
f 141 140 142
f 141 142 143
f 143 142 144
f 143 144 145
f 145 144 146
f 145 146 147
f 147 146 148
f 147 148 149
f 149 148 150
f 149 150 151
f 151 150 152
f 151 152 153
f 153 152 154
f 153 154 155
f 155 154 156
f 155 156 157
f 157 156 158
f 157 158 159
f 159 158 160
f 159 160 161
f 161 160 162
f 161 162 109
f 109 162 110
f 163 140 164
f 164 140 138
f 164 138 165
f 165 138 136
f 165 136 166
f 166 136 134
f 166 134 167
f 167 134 132
f 167 132 168
f 168 132 130
f 168 130 169
f 169 130 128
f 169 128 170
f 170 128 126
f 170 126 171
f 171 126 124
f 171 124 172
f 172 124 122
f 172 122 173
f 173 122 120
f 173 120 174
f 174 120 118
f 174 118 175
f 175 118 116
f 175 116 176
f 176 116 114
f 176 114 177
f 177 114 112
f 177 112 178
f 178 112 110
f 178 110 179
f 179 110 162
f 179 162 180
f 180 162 160
f 180 160 181
f 181 160 158
f 181 158 182
f 182 158 156
f 182 156 183
f 183 156 154
f 183 154 184
f 184 154 152
f 184 152 185
f 185 152 150
f 185 150 186
f 186 150 148
f 186 148 187
f 187 148 146
f 187 146 188
f 188 146 144
f 188 144 189
f 189 144 142
f 189 142 163
f 163 142 140
f 191 192 190
f 190 192 216
f 216 192 193
f 216 193 215
f 215 193 194
f 215 194 214
f 214 194 195
f 214 195 213
f 213 195 212
f 212 195 211
f 211 195 210
f 210 195 209
f 209 195 208
f 208 195 207
f 207 195 206
f 206 195 205
f 205 195 204
f 204 195 203
f 203 195 202
f 202 195 201
f 201 195 196
f 201 196 200
f 200 196 199
f 199 196 197
f 199 197 198
f 217 218 219
f 219 218 220
f 219 220 221
f 221 220 222
f 221 222 223
f 223 222 224
f 223 224 225
f 225 224 226
f 225 226 227
f 227 226 228
f 227 228 229
f 229 228 230
f 229 230 231
f 231 230 232
f 231 232 233
f 233 232 234
f 233 234 235
f 235 234 236
f 235 236 237
f 237 236 238
f 237 238 239
f 239 238 240
f 239 240 241
f 241 240 242
f 241 242 243
f 243 242 244
f 243 244 245
f 245 244 246
f 245 246 247
f 247 246 248
f 247 248 249
f 249 248 250
f 249 250 251
f 251 250 252
f 251 252 253
f 253 252 254
f 253 254 255
f 255 254 256
f 255 256 257
f 257 256 258
f 257 258 259
f 259 258 260
f 259 260 261
f 261 260 262
f 261 262 263
f 263 262 264
f 263 264 265
f 265 264 266
f 265 266 267
f 267 266 268
f 267 268 269
f 269 268 270
f 269 270 217
f 217 270 218
f 271 272 273
f 273 272 274
f 273 274 275
f 275 274 276
f 275 276 277
f 277 276 278
f 277 278 279
f 279 278 280
f 279 280 281
f 281 280 282
f 281 282 283
f 283 282 284
f 283 284 285
f 285 284 286
f 285 286 287
f 287 286 288
f 287 288 289
f 289 288 290
f 289 290 291
f 291 290 292
f 291 292 293
f 293 292 294
f 293 294 295
f 295 294 296
f 295 296 297
f 297 296 298
f 297 298 299
f 299 298 300
f 299 300 301
f 301 300 302
f 301 302 303
f 303 302 304
f 303 304 305
f 305 304 306
f 305 306 307
f 307 306 308
f 307 308 309
f 309 308 310
f 309 310 311
f 311 310 312
f 311 312 313
f 313 312 314
f 313 314 315
f 315 314 316
f 315 316 317
f 317 316 318
f 317 318 319
f 319 318 320
f 319 320 321
f 321 320 322
f 321 322 323
f 323 322 324
f 323 324 271
f 271 324 272
f 325 326 327
f 327 326 328
f 331 332 329
f 329 332 330
f 336 335 334
f 334 335 333
f 339 391 338
f 338 391 365
f 338 365 337
f 337 365 366
f 337 366 363
f 363 366 367
f 363 367 362
f 362 367 368
f 362 368 361
f 361 368 369
f 361 369 360
f 360 369 370
f 360 370 359
f 359 370 371
f 359 371 358
f 358 371 372
f 358 372 357
f 357 372 373
f 357 373 356
f 356 373 374
f 356 374 355
f 355 374 375
f 355 375 354
f 354 375 376
f 354 376 353
f 353 376 377
f 353 377 352
f 352 377 378
f 352 378 392
f 392 378 394
f 394 378 379
f 394 379 380
f 339 340 391
f 391 340 341
f 391 341 342
f 342 343 391
f 391 343 344
f 391 344 345
f 391 345 392
f 392 345 346
f 392 346 347
f 347 348 392
f 392 348 349
f 392 349 350
f 350 351 392
f 392 351 352
f 380 381 394
f 394 381 382
f 394 382 383
f 383 384 394
f 394 384 385
f 394 385 393
f 393 385 386
f 393 386 387
f 387 388 393
f 393 388 389
f 393 389 390
f 390 364 393
f 393 364 365
f 393 365 391
f 439 452 440
f 440 452 441
f 441 452 442
f 442 452 443
f 443 452 444
f 444 452 445
f 445 452 446
f 446 452 447
f 447 452 451
f 447 451 448
f 448 451 422
f 422 451 423
f 423 451 395
f 423 395 424
f 424 395 421
f 424 421 425
f 425 421 420
f 425 420 426
f 426 420 419
f 426 419 427
f 427 419 418
f 427 418 428
f 428 418 417
f 428 417 416
f 408 407 450
f 450 407 406
f 450 406 405
f 405 404 450
f 450 404 403
f 450 403 402
f 402 401 450
f 450 401 400
f 433 413 412
f 432 413 433
f 432 414 413
f 431 414 432
f 431 415 414
f 430 415 431
f 416 429 428
f 416 430 429
f 415 430 416
f 451 396 395
f 449 396 451
f 397 396 449
f 449 398 397
f 449 399 398
f 450 399 449
f 450 400 399
f 434 412 411
f 433 412 434
f 435 410 436
f 436 410 409
f 434 411 435
f 435 411 410
f 408 450 409
f 409 450 452
f 437 452 438
f 438 452 439
f 409 452 436
f 436 452 437
f 508 458 459
f 508 457 458
f 484 478 479
f 485 478 484
f 485 477 478
f 486 477 485
f 486 476 477
f 487 476 486
f 487 475 476
f 487 474 475
f 488 474 487
f 489 474 488
f 489 473 474
f 490 473 489
f 490 472 473
f 491 472 490
f 491 471 472
f 492 471 491
f 492 470 471
f 493 470 492
f 493 469 470
f 494 469 493
f 494 468 469
f 510 468 494
f 510 467 468
f 508 467 510
f 508 466 467
f 465 466 508
f 508 464 465
f 508 463 464
f 462 463 508
f 508 461 462
f 508 460 461
f 459 460 508
f 499 510 498
f 500 510 499
f 501 510 500
f 502 510 501
f 503 510 502
f 504 510 503
f 505 510 504
f 505 509 510
f 506 509 505
f 480 509 506
f 481 509 480
f 482 509 481
f 482 453 509
f 483 453 482
f 483 479 453
f 484 479 483
f 496 510 495
f 495 510 494
f 507 457 508
f 507 456 457
f 507 455 456
f 509 455 507
f 498 510 497
f 497 510 496
f 509 454 455
f 453 454 509

