# https://github.com/mikedh/trimesh

o M_Left2_1.stl
v -22.81538010 15.87984943 20.53845978
v -23.34951782 15.87984943 20.22685432
v -22.75000000 15.87984943 20.00000000
v -23.34951782 15.87984943 19.77314568
v -22.81538010 15.87984943 19.46154022
v -23.47192574 15.87984943 19.33626366
v -23.00772476 15.87984943 18.95437241
v -23.70766449 15.87984943 18.94860840
v -23.31585121 15.87984943 18.50797462
v -24.03925133 15.87984943 18.63892746
v -23.72185516 15.87984943 18.14828682
v -24.20213890 15.87984943 17.89621353
v -24.44209099 15.87984943 18.43019295
v -24.72879219 15.87984943 17.76640511
v -24.88630867 15.87984943 18.33788300
v -25.27120781 15.87984943 17.76640511
v -25.33895683 15.87984943 18.36884499
v -25.79786110 15.87984943 17.89621353
v -25.76646805 15.87984943 18.52078247
v -26.27814484 15.87984943 18.14828682
v -26.13713264 15.87984943 18.78242683
v -26.68414879 15.87984943 18.50797462
v -26.42346191 15.87984943 19.13437271
v -26.99227524 15.87984943 18.95437241
v -26.60421944 15.87984943 19.55051804
v -27.18461990 15.87984943 19.46154022
v -26.66600037 15.87984943 20.00000000
v -27.25000000 15.87984943 20.00000000
v -27.18461990 15.87984943 20.53845978
v -26.60421944 15.87984943 20.44948196
v -26.99227524 15.87984943 21.04562759
v -26.42346191 15.87984943 20.86562729
v -26.68414879 15.87984943 21.49202538
v -26.13713264 15.87984943 21.21757317
v -26.27814484 15.87984943 21.85171318
v -25.76646805 15.87984943 21.47921753
v -25.79786110 15.87984943 22.10378647
v -25.33895683 15.87984943 21.63115501
v -25.27120781 15.87984943 22.23359489
v -24.88630867 15.87984943 21.66211700
v -24.72879219 15.87984943 22.23359489
v -24.44209099 15.87984943 21.56980705
v -24.20213890 15.87984943 22.10378647
v -24.03925133 15.87984943 21.36107254
v -23.72185516 15.87984943 21.85171318
v -23.31585121 15.87984943 21.49202538
v -23.70766449 15.87984943 21.05139160
v -23.00772476 15.87984943 21.04562759
v -23.47192574 15.87984943 20.66373634
v -22.81538010 15.87984943 20.53845978
v -22.75000000 15.87984943 20.00000000
v -22.81538010 15.87984943 19.46154022
v -23.00772476 15.87984943 18.95437241
v -23.31585121 15.87984943 18.50797462
v -23.72185516 15.87984943 18.14828682
v -24.20213890 15.87984943 17.89621353
v -24.72879219 15.87984943 17.76640511
v -25.27120781 15.87984943 17.76640511
v -25.79786110 15.87984943 17.89621353
v -26.27814484 15.87984943 18.14828682
v -26.68414879 15.87984943 18.50797462
v -26.99227524 15.87984943 18.95437241
v -27.18461990 15.87984943 19.46154022
v -27.25000000 15.87984943 20.00000000
v -27.18461990 15.87984943 20.53845978
v -26.99227524 15.87984943 21.04562759
v -26.68414879 15.87984943 21.49202538
v -26.27814484 15.87984943 21.85171318
v -25.79786110 15.87984943 22.10378647
v -25.27120781 15.87984943 22.23359489
v -24.72879219 15.87984943 22.23359489
v -24.20213890 15.87984943 22.10378647
v -23.72185516 15.87984943 21.85171318
v -23.31585121 15.87984943 21.49202538
v -23.00772476 15.87984943 21.04562759
v -22.81538010 12.87984943 20.53845978
v -22.75000000 12.87984943 20.00000000
v -22.81538010 12.87984943 19.46154022
v -23.00772476 12.87984943 18.95437241
v -23.31585121 12.87984943 18.50797462
v -23.72185516 12.87984943 18.14828682
v -24.20213890 12.87984943 17.89621353
v -24.72879219 12.87984943 17.76640511
v -25.27120781 12.87984943 17.76640511
v -25.79786110 12.87984943 17.89621353
v -26.27814484 12.87984943 18.14828682
v -26.68414879 12.87984943 18.50797462
v -26.99227524 12.87984943 18.95437241
v -27.18461990 12.87984943 19.46154022
v -27.25000000 12.87984943 20.00000000
v -27.18461990 12.87984943 20.53845978
v -26.99227524 12.87984943 21.04562759
v -26.68414879 12.87984943 21.49202538
v -26.27814484 12.87984943 21.85171318
v -25.79786110 12.87984943 22.10378647
v -25.27120781 12.87984943 22.23359489
v -24.72879219 12.87984943 22.23359489
v -24.20213890 12.87984943 22.10378647
v -23.72185516 12.87984943 21.85171318
v -23.31585121 12.87984943 21.49202538
v -23.00772476 12.87984943 21.04562759
v -23.34951782 15.87984943 20.22685432
v -23.34951782 15.87984943 19.77314568
v -23.47192574 15.87984943 19.33626366
v -23.70766449 15.87984943 18.94860840
v -24.03925133 15.87984943 18.63892746
v -24.44209099 15.87984943 18.43019295
v -24.88630867 15.87984943 18.33788300
v -25.33895683 15.87984943 18.36884499
v -25.76646805 15.87984943 18.52078247
v -26.13713264 15.87984943 18.78242683
v -26.42346191 15.87984943 19.13437271
v -26.60421944 15.87984943 19.55051804
v -26.66600037 15.87984943 20.00000000
v -26.60421944 15.87984943 20.44948196
v -26.42346191 15.87984943 20.86562729
v -26.13713264 15.87984943 21.21757317
v -25.76646805 15.87984943 21.47921753
v -25.33895683 15.87984943 21.63115501
v -24.88630867 15.87984943 21.66211700
v -24.44209099 15.87984943 21.56980705
v -24.03925133 15.87984943 21.36107254
v -23.70766449 15.87984943 21.05139160
v -23.47192574 15.87984943 20.66373634
v -26.60421944 17.87984848 20.44948196
v -26.66600037 17.87984848 20.00000000
v -26.60421944 17.87984848 19.55051804
v -26.42346191 17.87984848 19.13437271
v -26.13713264 17.87984848 18.78242683
v -25.76646805 17.87984848 18.52078247
v -25.33895683 17.87984848 18.36884499
v -24.88630867 17.87984848 18.33788300
v -24.44209099 17.87984848 18.43019295
v -24.03925133 17.87984848 18.63892746
v -23.70766449 17.87984848 18.94860840
v -23.47192574 17.87984848 19.33626366
v -23.34951782 17.87984848 19.77314568
v -23.34951782 17.87984848 20.22685432
v -23.47192574 17.87984848 20.66373634
v -23.70766449 17.87984848 21.05139160
v -24.03925133 17.87984848 21.36107254
v -24.44209099 17.87984848 21.56980705
v -24.88630867 17.87984848 21.66211700
v -25.33895683 17.87984848 21.63115501
v -25.76646805 17.87984848 21.47921753
v -26.13713264 17.87984848 21.21757317
v -26.42346191 17.87984848 20.86562729
v -42.81538010 15.87984943 20.53845978
v -43.34951782 15.87984943 20.22685432
v -42.75000000 15.87984943 20.00000000
v -43.34951782 15.87984943 19.77314568
v -42.81538010 15.87984943 19.46154022
v -43.47192764 15.87984943 19.33626366
v -43.00772476 15.87984943 18.95437241
v -43.70766449 15.87984943 18.94860840
v -43.31584930 15.87984943 18.50797462
v -44.03924942 15.87984943 18.63892746
v -43.72185516 15.87984943 18.14828682
v -44.20214081 15.87984943 17.89621353
v -44.44208908 15.87984943 18.43019295
v -44.72879410 15.87984943 17.76640511
v -44.88630676 15.87984943 18.33788300
v -45.27120590 15.87984943 17.76640511
v -45.33895874 15.87984943 18.36884499
v -45.79785919 15.87984943 17.89621353
v -45.76646805 15.87984943 18.52078247
v -46.27814484 15.87984943 18.14828682
v -46.13713455 15.87984943 18.78242683
v -46.68415070 15.87984943 18.50797462
v -46.42346191 15.87984943 19.13437271
v -46.99227524 15.87984943 18.95437241
v -46.60422134 15.87984943 19.55051804
v -47.18461990 15.87984943 19.46154022
v -46.66600037 15.87984943 20.00000000
v -47.25000000 15.87984943 20.00000000
v -47.18461990 15.87984943 20.53845978
v -46.60422134 15.87984943 20.44948196
v -46.99227524 15.87984943 21.04562759
v -46.42346191 15.87984943 20.86562729
v -46.68415070 15.87984943 21.49202538
v -46.13713455 15.87984943 21.21757317
v -46.27814484 15.87984943 21.85171318
v -45.76646805 15.87984943 21.47921753
v -45.79785919 15.87984943 22.10378647
v -45.33895874 15.87984943 21.63115501
v -45.27120590 15.87984943 22.23359489
v -44.88630676 15.87984943 21.66211700
v -44.72879410 15.87984943 22.23359489
v -44.44208908 15.87984943 21.56980705
v -44.20214081 15.87984943 22.10378647
v -44.03924942 15.87984943 21.36107254
v -43.72185516 15.87984943 21.85171318
v -43.31584930 15.87984943 21.49202538
v -43.70766449 15.87984943 21.05139160
v -43.00772476 15.87984943 21.04562759
v -43.47192764 15.87984943 20.66373634
v -42.81538010 15.87984943 20.53845978
v -42.75000000 15.87984943 20.00000000
v -42.81538010 15.87984943 19.46154022
v -43.00772476 15.87984943 18.95437241
v -43.31584930 15.87984943 18.50797462
v -43.72185516 15.87984943 18.14828682
v -44.20214081 15.87984943 17.89621353
v -44.72879410 15.87984943 17.76640511
v -45.27120590 15.87984943 17.76640511
v -45.79785919 15.87984943 17.89621353
v -46.27814484 15.87984943 18.14828682
v -46.68415070 15.87984943 18.50797462
v -46.99227524 15.87984943 18.95437241
v -47.18461990 15.87984943 19.46154022
v -47.25000000 15.87984943 20.00000000
v -47.18461990 15.87984943 20.53845978
v -46.99227524 15.87984943 21.04562759
v -46.68415070 15.87984943 21.49202538
v -46.27814484 15.87984943 21.85171318
v -45.79785919 15.87984943 22.10378647
v -45.27120590 15.87984943 22.23359489
v -44.72879410 15.87984943 22.23359489
v -44.20214081 15.87984943 22.10378647
v -43.72185516 15.87984943 21.85171318
v -43.31584930 15.87984943 21.49202538
v -43.00772476 15.87984943 21.04562759
v -42.81538010 12.87984943 20.53845978
v -42.75000000 12.87984943 20.00000000
v -42.81538010 12.87984943 19.46154022
v -43.00772476 12.87984943 18.95437241
v -43.31584930 12.87984943 18.50797462
v -43.72185516 12.87984943 18.14828682
v -44.20214081 12.87984943 17.89621353
v -44.72879410 12.87984943 17.76640511
v -45.27120590 12.87984943 17.76640511
v -45.79785919 12.87984943 17.89621353
v -46.27814484 12.87984943 18.14828682
v -46.68415070 12.87984943 18.50797462
v -46.99227524 12.87984943 18.95437241
v -47.18461990 12.87984943 19.46154022
v -47.25000000 12.87984943 20.00000000
v -47.18461990 12.87984943 20.53845978
v -46.99227524 12.87984943 21.04562759
v -46.68415070 12.87984943 21.49202538
v -46.27814484 12.87984943 21.85171318
v -45.79785919 12.87984943 22.10378647
v -45.27120590 12.87984943 22.23359489
v -44.72879410 12.87984943 22.23359489
v -44.20214081 12.87984943 22.10378647
v -43.72185516 12.87984943 21.85171318
v -43.31584930 12.87984943 21.49202538
v -43.00772476 12.87984943 21.04562759
v -43.34951782 15.87984943 20.22685432
v -43.34951782 15.87984943 19.77314568
v -43.47192764 15.87984943 19.33626366
v -43.70766449 15.87984943 18.94860840
v -44.03924942 15.87984943 18.63892746
v -44.44208908 15.87984943 18.43019295
v -44.88630676 15.87984943 18.33788300
v -45.33895874 15.87984943 18.36884499
v -45.76646805 15.87984943 18.52078247
v -46.13713455 15.87984943 18.78242683
v -46.42346191 15.87984943 19.13437271
v -46.60422134 15.87984943 19.55051804
v -46.66600037 15.87984943 20.00000000
v -46.60422134 15.87984943 20.44948196
v -46.42346191 15.87984943 20.86562729
v -46.13713455 15.87984943 21.21757317
v -45.76646805 15.87984943 21.47921753
v -45.33895874 15.87984943 21.63115501
v -44.88630676 15.87984943 21.66211700
v -44.44208908 15.87984943 21.56980705
v -44.03924942 15.87984943 21.36107254
v -43.70766449 15.87984943 21.05139160
v -43.47192764 15.87984943 20.66373634
v -46.60422134 17.87984848 20.44948196
v -46.66600037 17.87984848 20.00000000
v -46.60422134 17.87984848 19.55051804
v -46.42346191 17.87984848 19.13437271
v -46.13713455 17.87984848 18.78242683
v -45.76646805 17.87984848 18.52078247
v -45.33895874 17.87984848 18.36884499
v -44.88630676 17.87984848 18.33788300
v -44.44208908 17.87984848 18.43019295
v -44.03924942 17.87984848 18.63892746
v -43.70766449 17.87984848 18.94860840
v -43.47192764 17.87984848 19.33626366
v -43.34951782 17.87984848 19.77314568
v -43.34951782 17.87984848 20.22685432
v -43.47192764 17.87984848 20.66373634
v -43.70766449 17.87984848 21.05139160
v -44.03924942 17.87984848 21.36107254
v -44.44208908 17.87984848 21.56980705
v -44.88630676 17.87984848 21.66211700
v -45.33895874 17.87984848 21.63115501
v -45.76646805 17.87984848 21.47921753
v -46.13713455 17.87984848 21.21757317
v -46.42346191 17.87984848 20.86562729
v -5.00000000 14.93036747 29.60421944
v -12.53553486 14.93036747 29.60421944
v -5.00000000 15.37984943 29.66600037
v -12.53553486 15.37984943 29.66600037
v -5.00000000 15.82933044 29.60421944
v -12.53553486 15.82933044 29.60421944
v -5.00000000 16.24547577 29.42346191
v -12.53553486 16.24547577 29.42346191
v -5.00000000 16.59742165 29.13713264
v -12.53553486 16.59742165 29.13713264
v -5.00000000 16.85906601 28.76646805
v -12.53553486 16.85906601 28.76646805
v -5.00000000 17.01100349 28.33895683
v -12.53553486 17.01100349 28.33895683
v -5.00000000 17.04196548 27.88630867
v -12.53553486 17.04196548 27.88630867
v -5.00000000 16.94965553 27.44209099
v -12.53553486 16.94965553 27.44209099
v -5.00000000 16.74092102 27.03925133
v -12.53553486 16.74092102 27.03925133
v -5.00000000 16.43124199 26.70766449
v -12.53553486 16.43124199 26.70766449
v -5.00000000 16.04358482 26.47192574
v -12.53553486 16.04358482 26.47192574
v -5.00000000 15.60670280 26.34951782
v -12.53553486 15.60670280 26.34951782
v -5.00000000 15.15299511 26.34951782
v -12.53553486 15.15299511 26.34951782
v -5.00000000 14.71611309 26.47192574
v -12.53553486 14.71611309 26.47192574
v -5.00000000 14.32845688 26.70766449
v -12.53553486 14.32845688 26.70766449
v -5.00000000 14.01877689 27.03925133
v -12.53553486 14.01877689 27.03925133
v -5.00000000 13.81004238 27.44209099
v -12.53553486 13.81004238 27.44209099
v -5.00000000 13.71773243 27.88630867
v -12.53553486 13.71773243 27.88630867
v -5.00000000 13.74869442 28.33895683
v -12.53553486 13.74869442 28.33895683
v -5.00000000 13.90063190 28.76646805
v -12.53553486 13.90063190 28.76646805
v -5.00000000 14.16227627 29.13713264
v -12.53553486 14.16227627 29.13713264
v -5.00000000 14.51422215 29.42346191
v -12.53553486 14.51422215 29.42346191
v -20.07106972 14.93036747 26.39578056
v -20.07106972 15.37984943 26.33399963
v -20.07106972 15.82933044 26.39578056
v -20.07106972 16.24547577 26.57653809
v -20.07106972 16.59742165 26.86286736
v -20.07106972 16.85906601 27.23353195
v -20.07106972 17.01100349 27.66104317
v -20.07106972 17.04196548 28.11369133
v -20.07106972 16.94965553 28.55790901
v -20.07106972 16.74092102 28.96074867
v -20.07106972 16.43124199 29.29233551
v -20.07106972 16.04358482 29.52807426
v -20.07106972 15.60670280 29.65048218
v -20.07106972 15.15299511 29.65048218
v -20.07106972 14.71611309 29.52807426
v -20.07106972 14.32845688 29.29233551
v -20.07106972 14.01877689 28.96074867
v -20.07106972 13.81004238 28.55790901
v -20.07106972 13.71773243 28.11369133
v -20.07106972 13.74869442 27.66104317
v -20.07106972 13.90063190 27.23353195
v -20.07106972 14.16227627 26.86286736
v -20.07106972 14.51422215 26.57653809
v -20.07106972 14.93036747 26.39578056
v -20.07106972 15.37984943 26.33399963
v -20.07106972 15.82933044 26.39578056
v -20.07106972 16.24547577 26.57653809
v -20.07106972 16.59742165 26.86286736
v -20.07106972 16.85906601 27.23353195
v -20.07106972 17.01100349 27.66104317
v -20.07106972 17.04196548 28.11369133
v -20.07106972 16.94965553 28.55790901
v -20.07106972 16.74092102 28.96074867
v -20.07106972 16.43124199 29.29233551
v -20.07106972 16.04358482 29.52807426
v -20.07106972 15.60670280 29.65048218
v -20.07106972 15.15299511 29.65048218
v -20.07106972 14.71611309 29.52807426
v -20.07106972 14.32845688 29.29233551
v -20.07106972 14.01877689 28.96074867
v -20.07106972 13.81004238 28.55790901
v -20.07106972 13.71773243 28.11369133
v -20.07106972 13.74869442 27.66104317
v -20.07106972 13.90063190 27.23353195
v -20.07106972 14.16227627 26.86286736
v -20.07106972 14.51422215 26.57653809
v -5.00000000 14.93036747 39.60422134
v -12.53553486 14.93036747 39.60422134
v -5.00000000 15.37984943 39.66600037
v -12.53553486 15.37984943 39.66600037
v -5.00000000 15.82933044 39.60422134
v -12.53553486 15.82933044 39.60422134
v -5.00000000 16.24547577 39.42346191
v -12.53553486 16.24547577 39.42346191
v -5.00000000 16.59742165 39.13713455
v -12.53553486 16.59742165 39.13713455
v -5.00000000 16.85906601 38.76646805
v -12.53553486 16.85906601 38.76646805
v -5.00000000 17.01100349 38.33895874
v -12.53553486 17.01100349 38.33895874
v -5.00000000 17.04196548 37.88630676
v -12.53553486 17.04196548 37.88630676
v -5.00000000 16.94965553 37.44208908
v -12.53553486 16.94965553 37.44208908
v -5.00000000 16.74092102 37.03924942
v -12.53553486 16.74092102 37.03924942
v -5.00000000 16.43124199 36.70766449
v -12.53553486 16.43124199 36.70766449
v -5.00000000 16.04358482 36.47192764
v -12.53553486 16.04358482 36.47192764
v -5.00000000 15.60670280 36.34951782
v -12.53553486 15.60670280 36.34951782
v -5.00000000 15.15299511 36.34951782
v -12.53553486 15.15299511 36.34951782
v -5.00000000 14.71611309 36.47192764
v -12.53553486 14.71611309 36.47192764
v -5.00000000 14.32845688 36.70766449
v -12.53553486 14.32845688 36.70766449
v -5.00000000 14.01877689 37.03924942
v -12.53553486 14.01877689 37.03924942
v -5.00000000 13.81004238 37.44208908
v -12.53553486 13.81004238 37.44208908
v -5.00000000 13.71773243 37.88630676
v -12.53553486 13.71773243 37.88630676
v -5.00000000 13.74869442 38.33895874
v -12.53553486 13.74869442 38.33895874
v -5.00000000 13.90063190 38.76646805
v -12.53553486 13.90063190 38.76646805
v -5.00000000 14.16227627 39.13713455
v -12.53553486 14.16227627 39.13713455
v -5.00000000 14.51422215 39.42346191
v -12.53553486 14.51422215 39.42346191
v -20.07106972 14.93036747 36.39577866
v -20.07106972 15.37984943 36.33399963
v -20.07106972 15.82933044 36.39577866
v -20.07106972 16.24547577 36.57653809
v -20.07106972 16.59742165 36.86286545
v -20.07106972 16.85906601 37.23353195
v -20.07106972 17.01100349 37.66104126
v -20.07106972 17.04196548 38.11369324
v -20.07106972 16.94965553 38.55791092
v -20.07106972 16.74092102 38.96075058
v -20.07106972 16.43124199 39.29233551
v -20.07106972 16.04358482 39.52807236
v -20.07106972 15.60670280 39.65048218
v -20.07106972 15.15299511 39.65048218
v -20.07106972 14.71611309 39.52807236
v -20.07106972 14.32845688 39.29233551
v -20.07106972 14.01877689 38.96075058
v -20.07106972 13.81004238 38.55791092
v -20.07106972 13.71773243 38.11369324
v -20.07106972 13.74869442 37.66104126
v -20.07106972 13.90063190 37.23353195
v -20.07106972 14.16227627 36.86286545
v -20.07106972 14.51422215 36.57653809
v -20.07106972 14.93036747 36.39577866
v -20.07106972 15.37984943 36.33399963
v -20.07106972 15.82933044 36.39577866
v -20.07106972 16.24547577 36.57653809
v -20.07106972 16.59742165 36.86286545
v -20.07106972 16.85906601 37.23353195
v -20.07106972 17.01100349 37.66104126
v -20.07106972 17.04196548 38.11369324
v -20.07106972 16.94965553 38.55791092
v -20.07106972 16.74092102 38.96075058
v -20.07106972 16.43124199 39.29233551
v -20.07106972 16.04358482 39.52807236
v -20.07106972 15.60670280 39.65048218
v -20.07106972 15.15299511 39.65048218
v -20.07106972 14.71611309 39.52807236
v -20.07106972 14.32845688 39.29233551
v -20.07106972 14.01877689 38.96075058
v -20.07106972 13.81004238 38.55791092
v -20.07106972 13.71773243 38.11369324
v -20.07106972 13.74869442 37.66104126
v -20.07106972 13.90063190 37.23353195
v -20.07106972 14.16227627 36.86286545
v -20.07106972 14.51422215 36.57653809
v -71.51126862 17.87984848 32.94948196
v -71.51126862 12.87984943 32.94948196
v -71.57304382 17.87984848 32.50000000
v -71.57304382 12.87984943 32.50000000
v -71.51126862 17.87984848 32.05051804
v -71.51126862 12.87984943 32.05051804
v -71.33051300 17.87984848 31.63437271
v -71.33051300 12.87984943 31.63437271
v -71.04418182 17.87984848 31.28242683
v -71.04418182 12.87984943 31.28242683
v -70.67351532 17.87984848 31.02078247
v -70.67351532 12.87984943 31.02078247
v -70.24600220 17.87984848 30.86884499
v -70.24600220 12.87984943 30.86884499
v -69.79335785 17.87984848 30.83788300
v -69.79335785 12.87984943 30.83788300
v -69.34913635 17.87984848 30.93019295
v -69.34913635 12.87984943 30.93019295
v -68.94629669 17.87984848 31.13892746
v -68.94629669 12.87984943 31.13892746
v -68.61471558 17.87984848 31.44860840
v -68.61471558 12.87984943 31.44860840
v -68.37897491 17.87984848 31.83626366
v -68.37897491 12.87984943 31.83626366
v -68.25656128 17.87984848 32.27314758
v -68.25656128 12.87984943 32.27314758
v -68.25656128 17.87984848 32.72685242
v -68.25656128 12.87984943 32.72685242
v -68.37897491 17.87984848 33.16373444
v -68.37897491 12.87984943 33.16373444
v -68.61471558 17.87984848 33.55139160
v -68.61471558 12.87984943 33.55139160
v -68.94629669 17.87984848 33.86107254
v -68.94629669 12.87984943 33.86107254
v -69.34913635 17.87984848 34.06980515
v -69.34913635 12.87984943 34.06980515
v -69.79335785 17.87984848 34.16211700
v -69.79335785 12.87984943 34.16211700
v -70.24600220 17.87984848 34.13115311
v -70.24600220 12.87984943 34.13115311
v -70.67351532 17.87984848 33.97921753
v -70.67351532 12.87984943 33.97921753
v -71.04418182 17.87984848 33.71757126
v -71.04418182 12.87984943 33.71757126
v -71.33051300 17.87984848 33.36562729
v -71.33051300 12.87984943 33.36562729
v -26.51126862 17.87984848 32.94948196
v -26.51126862 12.87984943 32.94948196
v -26.57304764 17.87984848 32.50000000
v -26.57304764 12.87984943 32.50000000
v -26.51126862 17.87984848 32.05051804
v -26.51126862 12.87984943 32.05051804
v -26.33051109 17.87984848 31.63437271
v -26.33051109 12.87984943 31.63437271
v -26.04418182 17.87984848 31.28242683
v -26.04418182 12.87984943 31.28242683
v -25.67351532 17.87984848 31.02078247
v -25.67351532 12.87984943 31.02078247
v -25.24600601 17.87984848 30.86884499
v -25.24600601 12.87984943 30.86884499
v -24.79335594 17.87984848 30.83788300
v -24.79335594 12.87984943 30.83788300
v -24.34913826 17.87984848 30.93019295
v -24.34913826 12.87984943 30.93019295
v -23.94629860 17.87984848 31.13892746
v -23.94629860 12.87984943 31.13892746
v -23.61471176 17.87984848 31.44860840
v -23.61471176 12.87984943 31.44860840
v -23.37897301 17.87984848 31.83626366
v -23.37897301 12.87984943 31.83626366
v -23.25656509 17.87984848 32.27314758
v -23.25656509 12.87984943 32.27314758
v -23.25656509 17.87984848 32.72685242
v -23.25656509 12.87984943 32.72685242
v -23.37897301 17.87984848 33.16373444
v -23.37897301 12.87984943 33.16373444
v -23.61471176 17.87984848 33.55139160
v -23.61471176 12.87984943 33.55139160
v -23.94629860 17.87984848 33.86107254
v -23.94629860 12.87984943 33.86107254
v -24.34913826 17.87984848 34.06980515
v -24.34913826 12.87984943 34.06980515
v -24.79335594 17.87984848 34.16211700
v -24.79335594 12.87984943 34.16211700
v -25.24600601 17.87984848 34.13115311
v -25.24600601 12.87984943 34.13115311
v -25.67351532 17.87984848 33.97921753
v -25.67351532 12.87984943 33.97921753
v -26.04418182 17.87984848 33.71757126
v -26.04418182 12.87984943 33.71757126
v -26.33051109 17.87984848 33.36562729
v -26.33051109 12.87984943 33.36562729
v -5.00000000 12.87984943 48.00000000
v -5.00000000 17.87984848 48.00000000
v -104.99967957 12.87984943 48.00000000
v -104.99967957 17.87984848 48.00000000
v -5.00000000 14.93036747 29.60421944
v -5.00000000 15.37984943 29.66600037
v -5.00000000 15.82933044 29.60421944
v -5.00000000 16.24547577 29.42346191
v -5.00000000 16.59742165 29.13713264
v -5.00000000 16.85906601 28.76646805
v -5.00000000 17.01100349 28.33895683
v -5.00000000 17.04196548 27.88630867
v -5.00000000 16.94965553 27.44209099
v -5.00000000 16.74092102 27.03925133
v -5.00000000 16.43124199 26.70766449
v -5.00000000 16.04358482 26.47192574
v -5.00000000 15.60670280 26.34951782
v -5.00000000 15.15299511 26.34951782
v -5.00000000 14.71611309 26.47192574
v -5.00000000 14.32845688 26.70766449
v -5.00000000 14.01877689 27.03925133
v -5.00000000 13.81004238 27.44209099
v -5.00000000 13.71773243 27.88630867
v -5.00000000 13.74869442 28.33895683
v -5.00000000 13.90063190 28.76646805
v -5.00000000 14.16227627 29.13713264
v -5.00000000 14.51422215 29.42346191
v -5.00000000 14.93036747 39.60422134
v -5.00000000 15.37984943 39.66600037
v -5.00000000 15.82933044 39.60422134
v -5.00000000 16.24547577 39.42346191
v -5.00000000 16.59742165 39.13713455
v -5.00000000 16.85906601 38.76646805
v -5.00000000 17.01100349 38.33895874
v -5.00000000 17.04196548 37.88630676
v -5.00000000 16.94965553 37.44208908
v -5.00000000 16.74092102 37.03924942
v -5.00000000 16.43124199 36.70766449
v -5.00000000 16.04358482 36.47192764
v -5.00000000 15.60670280 36.34951782
v -5.00000000 15.15299511 36.34951782
v -5.00000000 14.71611309 36.47192764
v -5.00000000 14.32845688 36.70766449
v -5.00000000 14.01877689 37.03924942
v -5.00000000 13.81004238 37.44208908
v -5.00000000 13.71773243 37.88630676
v -5.00000000 13.74869442 38.33895874
v -5.00000000 13.90063190 38.76646805
v -5.00000000 14.16227627 39.13713455
v -5.00000000 14.51422215 39.42346191
v -5.00000000 12.87984943 48.00000000
v -5.00000000 17.87984848 48.00000000
v -5.00000000 12.87984943 15.00000000
v -5.00000000 17.87984848 15.00000000
v -104.99967957 12.87984943 48.00000000
v -104.99967957 17.87984848 48.00000000
v -104.99967957 17.87984848 15.00000000
v -104.99967957 12.87984943 15.00000000
v -5.00000000 12.87984943 15.00000000
v -5.00000000 17.87984848 15.00000000
v -104.99967957 17.87984848 15.00000000
v -104.99967957 12.87984943 15.00000000
v -26.60421944 17.87984848 20.44948196
v -26.66600037 17.87984848 20.00000000
v -26.60421944 17.87984848 19.55051804
v -26.42346191 17.87984848 19.13437271
v -26.13713264 17.87984848 18.78242683
v -25.76646805 17.87984848 18.52078247
v -25.33895683 17.87984848 18.36884499
v -24.88630867 17.87984848 18.33788300
v -24.44209099 17.87984848 18.43019295
v -24.03925133 17.87984848 18.63892746
v -23.70766449 17.87984848 18.94860840
v -23.47192574 17.87984848 19.33626366
v -23.34951782 17.87984848 19.77314568
v -23.34951782 17.87984848 20.22685432
v -23.47192574 17.87984848 20.66373634
v -23.70766449 17.87984848 21.05139160
v -24.03925133 17.87984848 21.36107254
v -24.44209099 17.87984848 21.56980705
v -24.88630867 17.87984848 21.66211700
v -25.33895683 17.87984848 21.63115501
v -25.76646805 17.87984848 21.47921753
v -26.13713264 17.87984848 21.21757317
v -26.42346191 17.87984848 20.86562729
v -46.60422134 17.87984848 20.44948196
v -46.66600037 17.87984848 20.00000000
v -46.60422134 17.87984848 19.55051804
v -46.42346191 17.87984848 19.13437271
v -46.13713455 17.87984848 18.78242683
v -45.76646805 17.87984848 18.52078247
v -45.33895874 17.87984848 18.36884499
v -44.88630676 17.87984848 18.33788300
v -44.44208908 17.87984848 18.43019295
v -44.03924942 17.87984848 18.63892746
v -43.70766449 17.87984848 18.94860840
v -43.47192764 17.87984848 19.33626366
v -43.34951782 17.87984848 19.77314568
v -43.34951782 17.87984848 20.22685432
v -43.47192764 17.87984848 20.66373634
v -43.70766449 17.87984848 21.05139160
v -44.03924942 17.87984848 21.36107254
v -44.44208908 17.87984848 21.56980705
v -44.88630676 17.87984848 21.66211700
v -45.33895874 17.87984848 21.63115501
v -45.76646805 17.87984848 21.47921753
v -46.13713455 17.87984848 21.21757317
v -46.42346191 17.87984848 20.86562729
v -71.51126862 17.87984848 32.94948196
v -71.57304382 17.87984848 32.50000000
v -71.51126862 17.87984848 32.05051804
v -71.33051300 17.87984848 31.63437271
v -71.04418182 17.87984848 31.28242683
v -70.67351532 17.87984848 31.02078247
v -70.24600220 17.87984848 30.86884499
v -69.79335785 17.87984848 30.83788300
v -69.34913635 17.87984848 30.93019295
v -68.94629669 17.87984848 31.13892746
v -68.61471558 17.87984848 31.44860840
v -68.37897491 17.87984848 31.83626366
v -68.25656128 17.87984848 32.27314758
v -68.25656128 17.87984848 32.72685242
v -68.37897491 17.87984848 33.16373444
v -68.61471558 17.87984848 33.55139160
v -68.94629669 17.87984848 33.86107254
v -69.34913635 17.87984848 34.06980515
v -69.79335785 17.87984848 34.16211700
v -70.24600220 17.87984848 34.13115311
v -70.67351532 17.87984848 33.97921753
v -71.04418182 17.87984848 33.71757126
v -71.33051300 17.87984848 33.36562729
v -26.51126862 17.87984848 32.94948196
v -26.57304764 17.87984848 32.50000000
v -26.51126862 17.87984848 32.05051804
v -26.33051109 17.87984848 31.63437271
v -26.04418182 17.87984848 31.28242683
v -25.67351532 17.87984848 31.02078247
v -25.24600601 17.87984848 30.86884499
v -24.79335594 17.87984848 30.83788300
v -24.34913826 17.87984848 30.93019295
v -23.94629860 17.87984848 31.13892746
v -23.61471176 17.87984848 31.44860840
v -23.37897301 17.87984848 31.83626366
v -23.25656509 17.87984848 32.27314758
v -23.25656509 17.87984848 32.72685242
v -23.37897301 17.87984848 33.16373444
v -23.61471176 17.87984848 33.55139160
v -23.94629860 17.87984848 33.86107254
v -24.34913826 17.87984848 34.06980515
v -24.79335594 17.87984848 34.16211700
v -25.24600601 17.87984848 34.13115311
v -25.67351532 17.87984848 33.97921753
v -26.04418182 17.87984848 33.71757126
v -26.33051109 17.87984848 33.36562729
v -5.00000000 17.87984848 48.00000000
v -104.99967957 17.87984848 48.00000000
v -5.00000000 17.87984848 15.00000000
v -104.99967957 17.87984848 15.00000000
v -22.81538010 12.87984943 20.53845978
v -22.75000000 12.87984943 20.00000000
v -22.81538010 12.87984943 19.46154022
v -23.00772476 12.87984943 18.95437241
v -23.31585121 12.87984943 18.50797462
v -23.72185516 12.87984943 18.14828682
v -24.20213890 12.87984943 17.89621353
v -24.72879219 12.87984943 17.76640511
v -25.27120781 12.87984943 17.76640511
v -25.79786110 12.87984943 17.89621353
v -26.27814484 12.87984943 18.14828682
v -26.68414879 12.87984943 18.50797462
v -26.99227524 12.87984943 18.95437241
v -27.18461990 12.87984943 19.46154022
v -27.25000000 12.87984943 20.00000000
v -27.18461990 12.87984943 20.53845978
v -26.99227524 12.87984943 21.04562759
v -26.68414879 12.87984943 21.49202538
v -26.27814484 12.87984943 21.85171318
v -25.79786110 12.87984943 22.10378647
v -25.27120781 12.87984943 22.23359489
v -24.72879219 12.87984943 22.23359489
v -24.20213890 12.87984943 22.10378647
v -23.72185516 12.87984943 21.85171318
v -23.31585121 12.87984943 21.49202538
v -23.00772476 12.87984943 21.04562759
v -42.81538010 12.87984943 20.53845978
v -42.75000000 12.87984943 20.00000000
v -42.81538010 12.87984943 19.46154022
v -43.00772476 12.87984943 18.95437241
v -43.31584930 12.87984943 18.50797462
v -43.72185516 12.87984943 18.14828682
v -44.20214081 12.87984943 17.89621353
v -44.72879410 12.87984943 17.76640511
v -45.27120590 12.87984943 17.76640511
v -45.79785919 12.87984943 17.89621353
v -46.27814484 12.87984943 18.14828682
v -46.68415070 12.87984943 18.50797462
v -46.99227524 12.87984943 18.95437241
v -47.18461990 12.87984943 19.46154022
v -47.25000000 12.87984943 20.00000000
v -47.18461990 12.87984943 20.53845978
v -46.99227524 12.87984943 21.04562759
v -46.68415070 12.87984943 21.49202538
v -46.27814484 12.87984943 21.85171318
v -45.79785919 12.87984943 22.10378647
v -45.27120590 12.87984943 22.23359489
v -44.72879410 12.87984943 22.23359489
v -44.20214081 12.87984943 22.10378647
v -43.72185516 12.87984943 21.85171318
v -43.31584930 12.87984943 21.49202538
v -43.00772476 12.87984943 21.04562759
v -71.51126862 12.87984943 32.94948196
v -71.57304382 12.87984943 32.50000000
v -71.51126862 12.87984943 32.05051804
v -71.33051300 12.87984943 31.63437271
v -71.04418182 12.87984943 31.28242683
v -70.67351532 12.87984943 31.02078247
v -70.24600220 12.87984943 30.86884499
v -69.79335785 12.87984943 30.83788300
v -69.34913635 12.87984943 30.93019295
v -68.94629669 12.87984943 31.13892746
v -68.61471558 12.87984943 31.44860840
v -68.37897491 12.87984943 31.83626366
v -68.25656128 12.87984943 32.27314758
v -68.25656128 12.87984943 32.72685242
v -68.37897491 12.87984943 33.16373444
v -68.61471558 12.87984943 33.55139160
v -68.94629669 12.87984943 33.86107254
v -69.34913635 12.87984943 34.06980515
v -69.79335785 12.87984943 34.16211700
v -70.24600220 12.87984943 34.13115311
v -70.67351532 12.87984943 33.97921753
v -71.04418182 12.87984943 33.71757126
v -71.33051300 12.87984943 33.36562729
v -26.51126862 12.87984943 32.94948196
v -26.57304764 12.87984943 32.50000000
v -26.51126862 12.87984943 32.05051804
v -26.33051109 12.87984943 31.63437271
v -26.04418182 12.87984943 31.28242683
v -25.67351532 12.87984943 31.02078247
v -25.24600601 12.87984943 30.86884499
v -24.79335594 12.87984943 30.83788300
v -24.34913826 12.87984943 30.93019295
v -23.94629860 12.87984943 31.13892746
v -23.61471176 12.87984943 31.44860840
v -23.37897301 12.87984943 31.83626366
v -23.25656509 12.87984943 32.27314758
v -23.25656509 12.87984943 32.72685242
v -23.37897301 12.87984943 33.16373444
v -23.61471176 12.87984943 33.55139160
v -23.94629860 12.87984943 33.86107254
v -24.34913826 12.87984943 34.06980515
v -24.79335594 12.87984943 34.16211700
v -25.24600601 12.87984943 34.13115311
v -25.67351532 12.87984943 33.97921753
v -26.04418182 12.87984943 33.71757126
v -26.33051109 12.87984943 33.36562729
v -5.00000000 12.87984943 48.00000000
v -104.99967957 12.87984943 48.00000000
v -5.00000000 12.87984943 15.00000000
v -104.99967957 12.87984943 15.00000000
f 1 2 3
f 3 2 4
f 3 4 5
f 5 4 6
f 5 6 7
f 7 6 8
f 7 8 9
f 9 8 10
f 9 10 11
f 11 10 12
f 12 10 13
f 12 13 14
f 14 13 15
f 14 15 16
f 16 15 17
f 16 17 18
f 18 17 19
f 18 19 20
f 20 19 21
f 20 21 22
f 22 21 23
f 22 23 24
f 24 23 25
f 24 25 26
f 26 25 27
f 26 27 28
f 28 27 29
f 29 27 30
f 29 30 31
f 31 30 32
f 31 32 33
f 33 32 34
f 33 34 35
f 35 34 36
f 35 36 37
f 37 36 38
f 37 38 39
f 39 38 40
f 39 40 41
f 41 40 42
f 41 42 43
f 43 42 44
f 43 44 45
f 45 44 46
f 46 44 47
f 46 47 48
f 48 47 49
f 48 49 1
f 1 49 2
f 76 50 77
f 77 50 51
f 77 51 78
f 78 51 52
f 78 52 79
f 79 52 53
f 79 53 80
f 80 53 54
f 80 54 81
f 81 54 55
f 81 55 82
f 82 55 56
f 82 56 83
f 83 56 57
f 83 57 84
f 84 57 58
f 84 58 85
f 85 58 59
f 85 59 86
f 86 59 60
f 86 60 87
f 87 60 61
f 87 61 88
f 88 61 62
f 88 62 89
f 89 62 63
f 89 63 90
f 90 63 64
f 90 64 91
f 91 64 65
f 91 65 92
f 92 65 66
f 92 66 93
f 93 66 67
f 93 67 94
f 94 67 68
f 94 68 95
f 95 68 69
f 95 69 96
f 96 69 70
f 96 70 97
f 97 70 71
f 97 71 98
f 98 71 72
f 98 72 99
f 99 72 73
f 99 73 100
f 100 73 74
f 100 74 101
f 101 74 75
f 101 75 76
f 76 75 50
f 125 115 126
f 126 115 114
f 126 114 127
f 127 114 113
f 127 113 128
f 128 113 112
f 128 112 129
f 129 112 111
f 129 111 130
f 130 111 110
f 130 110 131
f 131 110 109
f 131 109 132
f 132 109 108
f 132 108 133
f 133 108 107
f 133 107 134
f 134 107 106
f 134 106 135
f 135 106 105
f 135 105 136
f 136 105 104
f 136 104 137
f 137 104 103
f 137 103 138
f 138 103 102
f 138 102 139
f 139 102 124
f 139 124 140
f 140 124 123
f 140 123 141
f 141 123 122
f 141 122 142
f 142 122 121
f 142 121 143
f 143 121 120
f 143 120 144
f 144 120 119
f 144 119 145
f 145 119 118
f 145 118 146
f 146 118 117
f 146 117 147
f 147 117 116
f 147 116 125
f 125 116 115
f 148 149 150
f 150 149 151
f 150 151 152
f 152 151 153
f 152 153 154
f 154 153 155
f 154 155 156
f 156 155 157
f 156 157 158
f 158 157 159
f 159 157 160
f 159 160 161
f 161 160 162
f 161 162 163
f 163 162 164
f 163 164 165
f 165 164 166
f 165 166 167
f 167 166 168
f 167 168 169
f 169 168 170
f 169 170 171
f 171 170 172
f 171 172 173
f 173 172 174
f 173 174 175
f 175 174 176
f 176 174 177
f 176 177 178
f 178 177 179
f 178 179 180
f 180 179 181
f 180 181 182
f 182 181 183
f 182 183 184
f 184 183 185
f 184 185 186
f 186 185 187
f 186 187 188
f 188 187 189
f 188 189 190
f 190 189 191
f 190 191 192
f 192 191 193
f 193 191 194
f 193 194 195
f 195 194 196
f 195 196 148
f 148 196 149
f 223 197 224
f 224 197 198
f 224 198 225
f 225 198 199
f 225 199 226
f 226 199 200
f 226 200 227
f 227 200 201
f 227 201 228
f 228 201 202
f 228 202 229
f 229 202 203
f 229 203 230
f 230 203 204
f 230 204 231
f 231 204 205
f 231 205 232
f 232 205 206
f 232 206 233
f 233 206 207
f 233 207 234
f 234 207 208
f 234 208 235
f 235 208 209
f 235 209 236
f 236 209 210
f 236 210 237
f 237 210 211
f 237 211 238
f 238 211 212
f 238 212 239
f 239 212 213
f 239 213 240
f 240 213 214
f 240 214 241
f 241 214 215
f 241 215 242
f 242 215 216
f 242 216 243
f 243 216 217
f 243 217 244
f 244 217 218
f 244 218 245
f 245 218 219
f 245 219 246
f 246 219 220
f 246 220 247
f 247 220 221
f 247 221 248
f 248 221 222
f 248 222 223
f 223 222 197
f 272 262 273
f 273 262 261
f 273 261 274
f 274 261 260
f 274 260 275
f 275 260 259
f 275 259 276
f 276 259 258
f 276 258 277
f 277 258 257
f 277 257 278
f 278 257 256
f 278 256 279
f 279 256 255
f 279 255 280
f 280 255 254
f 280 254 281
f 281 254 253
f 281 253 282
f 282 253 252
f 282 252 283
f 283 252 251
f 283 251 284
f 284 251 250
f 284 250 285
f 285 250 249
f 285 249 286
f 286 249 271
f 286 271 287
f 287 271 270
f 287 270 288
f 288 270 269
f 288 269 289
f 289 269 268
f 289 268 290
f 290 268 267
f 290 267 291
f 291 267 266
f 291 266 292
f 292 266 265
f 292 265 293
f 293 265 264
f 293 264 294
f 294 264 263
f 294 263 272
f 272 263 262
f 295 296 297
f 297 296 298
f 297 298 299
f 299 298 300
f 299 300 301
f 301 300 302
f 301 302 303
f 303 302 304
f 303 304 305
f 305 304 306
f 305 306 307
f 307 306 308
f 307 308 309
f 309 308 310
f 309 310 311
f 311 310 312
f 311 312 313
f 313 312 314
f 313 314 315
f 315 314 316
f 315 316 317
f 317 316 318
f 317 318 319
f 319 318 320
f 319 320 321
f 321 320 322
f 321 322 323
f 323 322 324
f 323 324 325
f 325 324 326
f 325 326 327
f 327 326 328
f 327 328 329
f 329 328 330
f 329 330 331
f 331 330 332
f 331 332 333
f 333 332 334
f 333 334 335
f 335 334 336
f 335 336 337
f 337 336 338
f 337 338 339
f 339 338 340
f 339 340 295
f 295 340 296
f 341 322 342
f 342 322 320
f 342 320 343
f 343 320 318
f 343 318 344
f 344 318 316
f 344 316 345
f 345 316 314
f 345 314 346
f 346 314 312
f 346 312 347
f 347 312 310
f 347 310 348
f 348 310 308
f 348 308 349
f 349 308 306
f 349 306 350
f 350 306 304
f 350 304 351
f 351 304 302
f 351 302 352
f 352 302 300
f 352 300 353
f 353 300 298
f 353 298 354
f 354 298 296
f 354 296 355
f 355 296 340
f 355 340 356
f 356 340 338
f 356 338 357
f 357 338 336
f 357 336 358
f 358 336 334
f 358 334 359
f 359 334 332
f 359 332 360
f 360 332 330
f 360 330 361
f 361 330 328
f 361 328 362
f 362 328 326
f 362 326 363
f 363 326 324
f 363 324 341
f 341 324 322
f 365 366 364
f 364 366 386
f 386 366 367
f 386 367 385
f 385 367 368
f 385 368 384
f 384 368 369
f 384 369 383
f 383 369 370
f 383 370 382
f 382 370 381
f 381 370 380
f 380 370 379
f 379 370 378
f 378 370 377
f 377 370 376
f 376 370 375
f 375 370 374
f 374 370 373
f 373 370 372
f 372 370 371
f 387 388 389
f 389 388 390
f 389 390 391
f 391 390 392
f 391 392 393
f 393 392 394
f 393 394 395
f 395 394 396
f 395 396 397
f 397 396 398
f 397 398 399
f 399 398 400
f 399 400 401
f 401 400 402
f 401 402 403
f 403 402 404
f 403 404 405
f 405 404 406
f 405 406 407
f 407 406 408
f 407 408 409
f 409 408 410
f 409 410 411
f 411 410 412
f 411 412 413
f 413 412 414
f 413 414 415
f 415 414 416
f 415 416 417
f 417 416 418
f 417 418 419
f 419 418 420
f 419 420 421
f 421 420 422
f 421 422 423
f 423 422 424
f 423 424 425
f 425 424 426
f 425 426 427
f 427 426 428
f 427 428 429
f 429 428 430
f 429 430 431
f 431 430 432
f 431 432 387
f 387 432 388
f 433 414 434
f 434 414 412
f 434 412 435
f 435 412 410
f 435 410 436
f 436 410 408
f 436 408 437
f 437 408 406
f 437 406 438
f 438 406 404
f 438 404 439
f 439 404 402
f 439 402 440
f 440 402 400
f 440 400 441
f 441 400 398
f 441 398 442
f 442 398 396
f 442 396 443
f 443 396 394
f 443 394 444
f 444 394 392
f 444 392 445
f 445 392 390
f 445 390 446
f 446 390 388
f 446 388 447
f 447 388 432
f 447 432 448
f 448 432 430
f 448 430 449
f 449 430 428
f 449 428 450
f 450 428 426
f 450 426 451
f 451 426 424
f 451 424 452
f 452 424 422
f 452 422 453
f 453 422 420
f 453 420 454
f 454 420 418
f 454 418 455
f 455 418 416
f 455 416 433
f 433 416 414
f 457 458 456
f 456 458 478
f 478 458 459
f 478 459 477
f 477 459 460
f 477 460 476
f 476 460 461
f 476 461 475
f 475 461 462
f 475 462 474
f 474 462 473
f 473 462 472
f 472 462 471
f 471 462 470
f 470 462 469
f 469 462 468
f 468 462 467
f 467 462 466
f 466 462 465
f 465 462 464
f 464 462 463
f 479 480 481
f 481 480 482
f 481 482 483
f 483 482 484
f 483 484 485
f 485 484 486
f 485 486 487
f 487 486 488
f 487 488 489
f 489 488 490
f 489 490 491
f 491 490 492
f 491 492 493
f 493 492 494
f 493 494 495
f 495 494 496
f 495 496 497
f 497 496 498
f 497 498 499
f 499 498 500
f 499 500 501
f 501 500 502
f 501 502 503
f 503 502 504
f 503 504 505
f 505 504 506
f 505 506 507
f 507 506 508
f 507 508 509
f 509 508 510
f 509 510 511
f 511 510 512
f 511 512 513
f 513 512 514
f 513 514 515
f 515 514 516
f 515 516 517
f 517 516 518
f 517 518 519
f 519 518 520
f 519 520 521
f 521 520 522
f 521 522 523
f 523 522 524
f 523 524 479
f 479 524 480
f 525 526 527
f 527 526 528
f 527 528 529
f 529 528 530
f 529 530 531
f 531 530 532
f 531 532 533
f 533 532 534
f 533 534 535
f 535 534 536
f 535 536 537
f 537 536 538
f 537 538 539
f 539 538 540
f 539 540 541
f 541 540 542
f 541 542 543
f 543 542 544
f 543 544 545
f 545 544 546
f 545 546 547
f 547 546 548
f 547 548 549
f 549 548 550
f 549 550 551
f 551 550 552
f 551 552 553
f 553 552 554
f 553 554 555
f 555 554 556
f 555 556 557
f 557 556 558
f 557 558 559
f 559 558 560
f 559 560 561
f 561 560 562
f 561 562 563
f 563 562 564
f 563 564 565
f 565 564 566
f 565 566 567
f 567 566 568
f 567 568 569
f 569 568 570
f 569 570 525
f 525 570 526
f 571 572 573
f 573 572 574
f 577 610 576
f 576 610 611
f 576 611 575
f 575 611 612
f 575 612 597
f 597 612 613
f 597 613 596
f 596 613 614
f 596 614 595
f 595 614 615
f 595 615 594
f 594 615 616
f 594 616 593
f 593 616 621
f 593 621 623
f 610 577 609
f 609 577 578
f 609 578 608
f 608 578 579
f 608 579 607
f 607 579 580
f 607 580 606
f 606 580 581
f 606 581 605
f 605 581 582
f 605 582 622
f 622 582 624
f 624 582 583
f 624 583 584
f 584 585 624
f 624 585 586
f 624 586 587
f 587 588 624
f 624 588 623
f 623 588 589
f 623 589 590
f 590 591 623
f 623 591 592
f 623 592 593
f 600 622 599
f 599 622 621
f 599 621 598
f 598 621 620
f 620 621 619
f 619 621 618
f 618 621 617
f 617 621 616
f 600 601 622
f 622 601 602
f 622 602 603
f 603 604 622
f 622 604 605
f 625 626 628
f 628 626 627
f 630 629 631
f 631 629 632
f 727 711 712
f 727 712 713
f 668 635 667
f 635 668 634
f 727 640 641
f 727 641 642
f 727 643 644
f 642 643 727
f 649 711 727
f 649 710 711
f 665 637 638
f 666 637 665
f 666 636 637
f 667 636 666
f 667 635 636
f 706 689 705
f 706 674 689
f 707 674 706
f 708 674 707
f 673 674 708
f 650 710 649
f 650 709 710
f 651 709 650
f 651 708 709
f 652 708 651
f 652 673 708
f 653 673 652
f 653 672 673
f 654 672 653
f 654 671 672
f 655 671 654
f 727 644 645
f 664 639 663
f 663 639 727
f 663 727 728
f 639 640 727
f 723 695 722
f 722 695 696
f 665 638 664
f 664 638 639
f 722 696 721
f 721 696 697
f 703 691 692
f 704 691 703
f 704 690 691
f 705 690 704
f 705 689 690
f 683 728 682
f 684 728 683
f 685 728 684
f 685 656 728
f 686 656 685
f 662 663 728
f 728 661 662
f 728 660 661
f 659 660 728
f 728 658 659
f 728 657 658
f 656 657 728
f 648 649 727
f 727 647 648
f 727 646 647
f 645 646 727
f 721 697 725
f 725 720 721
f 725 697 726
f 726 697 698
f 726 698 699
f 689 674 688
f 688 674 675
f 688 675 687
f 687 675 676
f 687 676 686
f 686 676 677
f 686 677 678
f 678 656 686
f 680 726 679
f 680 728 726
f 681 728 680
f 682 728 681
f 725 714 715
f 727 714 725
f 725 715 716
f 713 714 727
f 701 726 700
f 679 726 701
f 703 692 702
f 702 692 693
f 702 693 724
f 724 693 694
f 724 694 723
f 723 694 695
f 716 717 725
f 725 717 718
f 725 718 719
f 719 720 725
f 700 726 699
f 634 669 633
f 633 669 670
f 634 668 669
f 655 670 671
f 633 670 655
f 827 820 819
f 827 821 820
f 825 797 796
f 824 797 825
f 828 799 827
f 807 792 791
f 806 792 807
f 826 795 804
f 822 821 827
f 825 796 826
f 827 818 817
f 819 818 827
f 829 816 815
f 829 815 814
f 827 817 816
f 827 816 829
f 826 796 795
f 761 738 760
f 759 739 740
f 760 739 759
f 760 738 739
f 827 799 823
f 823 798 824
f 824 798 797
f 827 823 822
f 799 798 823
f 777 747 748
f 778 747 777
f 778 746 747
f 779 746 778
f 759 740 758
f 777 748 749
f 829 730 731
f 729 730 829
f 829 736 737
f 829 737 762
f 762 737 761
f 829 731 732
f 732 733 829
f 829 733 734
f 829 734 735
f 735 736 829
f 830 763 764
f 758 740 741
f 758 741 757
f 757 741 742
f 757 742 756
f 756 742 743
f 756 743 755
f 755 743 744
f 755 744 780
f 780 744 745
f 780 745 779
f 761 737 738
f 829 753 754
f 754 729 829
f 762 763 829
f 829 763 830
f 790 775 791
f 750 811 749
f 749 811 810
f 749 810 776
f 776 810 809
f 776 809 808
f 811 750 812
f 812 750 751
f 812 751 813
f 813 751 752
f 813 752 829
f 829 752 753
f 781 803 828
f 828 803 802
f 828 802 801
f 801 800 828
f 828 800 799
f 830 764 765
f 765 766 830
f 830 766 767
f 830 767 768
f 768 769 830
f 830 769 770
f 830 770 787
f 787 770 788
f 788 770 771
f 788 771 772
f 779 745 746
f 788 773 774
f 788 774 789
f 789 774 775
f 789 775 790
f 805 793 806
f 805 794 793
f 804 794 805
f 804 795 794
f 772 773 788
f 806 793 792
f 791 808 807
f 791 775 808
f 782 830 783
f 782 828 830
f 781 828 782
f 776 777 749
f 786 830 787
f 785 830 786
f 784 830 785
f 775 776 808
f 783 830 784
f 814 813 829

