# https://github.com/mikedh/trimesh

o M_LeftLink2_copy_1.stl
v -40.66032410 24.79243660 93.34889984
v -44.00000000 24.79243660 93.34889984
v -40.66032410 24.76103401 93.00000000
v -44.00000000 24.76103401 93.00000000
v -40.66032410 24.79243660 92.65110016
v -44.00000000 24.79243660 92.65110016
v -40.66032410 24.88563156 92.31341553
v -44.00000000 24.88563156 92.31341553
v -40.66032410 25.03762627 91.99779510
v -44.00000000 25.03762627 91.99779510
v -40.66032410 25.24353218 91.71438599
v -44.00000000 25.24353218 91.71438599
v -40.66032410 25.49673653 91.47229767
v -44.00000000 25.49673653 91.47229767
v -40.66032410 25.78909492 91.27931976
v -44.00000000 25.78909492 91.27931976
v -40.66032410 26.11121559 91.14163208
v -44.00000000 26.11121559 91.14163208
v -40.66032410 26.45274353 91.06368256
v -44.00000000 26.45274353 91.06368256
v -40.66032410 26.80270004 91.04796600
v -44.00000000 26.80270004 91.04796600
v -40.66032410 27.14984131 91.09499359
v -44.00000000 27.14984131 91.09499359
v -40.66032410 27.48300552 91.20323944
v -44.00000000 27.48300552 91.20323944
v -40.66032410 27.79148674 91.36924744
v -44.00000000 27.79148674 91.36924744
v -40.66032410 28.06537056 91.58766174
v -44.00000000 28.06537056 91.58766174
v -40.66032410 28.29585457 91.85147095
v -44.00000000 28.29585457 91.85147095
v -40.66032410 28.47552872 92.15219116
v -44.00000000 28.47552872 92.15219116
v -40.66032410 28.59861755 92.48016357
v -44.00000000 28.59861755 92.48016357
v -40.66032410 28.66116905 92.82484436
v -44.00000000 28.66116905 92.82484436
v -40.66032410 28.66116905 93.17515564
v -44.00000000 28.66116905 93.17515564
v -40.66032410 28.59861755 93.51983643
v -44.00000000 28.59861755 93.51983643
v -40.66032410 28.47552872 93.84780884
v -44.00000000 28.47552872 93.84780884
v -40.66032410 28.29585457 94.14852905
v -44.00000000 28.29585457 94.14852905
v -40.66032410 28.06537056 94.41233826
v -44.00000000 28.06537056 94.41233826
v -40.66032410 27.79148674 94.63075256
v -44.00000000 27.79148674 94.63075256
v -40.66032410 27.48300552 94.79676056
v -44.00000000 27.48300552 94.79676056
v -40.66032410 27.14984131 94.90500641
v -44.00000000 27.14984131 94.90500641
v -40.66032410 26.80270004 94.95203400
v -44.00000000 26.80270004 94.95203400
v -40.66032410 26.45274353 94.93631744
v -44.00000000 26.45274353 94.93631744
v -40.66032410 26.11121559 94.85836792
v -44.00000000 26.11121559 94.85836792
v -40.66032410 25.78909492 94.72068024
v -44.00000000 25.78909492 94.72068024
v -40.66032410 25.49673653 94.52770233
v -44.00000000 25.49673653 94.52770233
v -40.66032410 25.24353218 94.28561401
v -44.00000000 25.24353218 94.28561401
v -40.66032410 25.03762627 94.00220490
v -44.00000000 25.03762627 94.00220490
v -40.66032410 24.88563156 93.68658447
v -44.00000000 24.88563156 93.68658447
v -49.61600113 24.79243660 92.65110016
v -49.00000000 24.79243660 92.65110016
v -49.61600113 24.76103401 93.00000000
v -49.00000000 24.76103401 93.00000000
v -49.61600113 24.79243660 93.34889984
v -49.00000000 24.79243660 93.34889984
v -49.61600113 24.88563156 93.68658447
v -49.00000000 24.88563156 93.68658447
v -49.61600113 25.03762627 94.00220490
v -49.00000000 25.03762627 94.00220490
v -49.61600113 25.24353218 94.28561401
v -49.00000000 25.24353218 94.28561401
v -49.61600113 25.49673653 94.52770233
v -49.00000000 25.49673653 94.52770233
v -49.61600113 25.78909492 94.72068024
v -49.00000000 25.78909492 94.72068024
v -49.61600113 26.11121559 94.85836792
v -49.00000000 26.11121559 94.85836792
v -49.61600113 26.45274353 94.93631744
v -49.00000000 26.45274353 94.93631744
v -49.61600113 26.80270004 94.95203400
v -49.00000000 26.80270004 94.95203400
v -49.61600113 27.14984131 94.90500641
v -49.00000000 27.14984131 94.90500641
v -49.61600113 27.48300552 94.79676056
v -49.00000000 27.48300552 94.79676056
v -49.61600113 27.79148674 94.63075256
v -49.00000000 27.79148674 94.63075256
v -49.61600113 28.06537056 94.41233826
v -49.00000000 28.06537056 94.41233826
v -49.61600113 28.29585457 94.14852905
v -49.00000000 28.29585457 94.14852905
v -49.61600113 28.47552872 93.84780884
v -49.00000000 28.47552872 93.84780884
v -49.61600113 28.59861755 93.51983643
v -49.00000000 28.59861755 93.51983643
v -49.61600113 28.66116905 93.17515564
v -49.00000000 28.66116905 93.17515564
v -49.61600113 28.66116905 92.82484436
v -49.00000000 28.66116905 92.82484436
v -49.61600113 28.59861755 92.48016357
v -49.00000000 28.59861755 92.48016357
v -49.61600113 28.47552872 92.15219116
v -49.00000000 28.47552872 92.15219116
v -49.61600113 28.29585457 91.85147095
v -49.00000000 28.29585457 91.85147095
v -49.61600113 28.06537056 91.58766174
v -49.00000000 28.06537056 91.58766174
v -49.61600113 27.79148674 91.36924744
v -49.00000000 27.79148674 91.36924744
v -49.61600113 27.48300552 91.20323944
v -49.00000000 27.48300552 91.20323944
v -49.61600113 27.14984131 91.09499359
v -49.00000000 27.14984131 91.09499359
v -49.61600113 26.80270004 91.04796600
v -49.00000000 26.80270004 91.04796600
v -49.61600113 26.45274353 91.06368256
v -49.00000000 26.45274353 91.06368256
v -49.61600113 26.11121559 91.14163208
v -49.00000000 26.11121559 91.14163208
v -49.61600113 25.78909492 91.27931976
v -49.00000000 25.78909492 91.27931976
v -49.61600113 25.49673653 91.47229767
v -49.00000000 25.49673653 91.47229767
v -49.61600113 25.24353218 91.71438599
v -49.00000000 25.24353218 91.71438599
v -49.61600113 25.03762627 91.99779510
v -49.00000000 25.03762627 91.99779510
v -49.61600113 24.88563156 92.31341553
v -49.00000000 24.88563156 92.31341553
v -41.50000000 27.02405167 93.95105743
v -42.10086060 26.71503448 93.00000000
v -41.50000000 27.21503448 93.86602783
v -41.50000000 26.61050606 93.99452209
v -41.50000000 26.81956291 93.99452209
v -41.50000000 26.21503448 93.86602783
v -41.50000000 26.40601730 93.95105743
v -41.50000000 26.04590416 93.74314117
v -41.50000000 25.90601730 93.58778381
v -41.50000000 25.80148888 93.40673828
v -41.50000000 25.73688698 93.20790863
v -41.50000000 25.71503448 93.00000000
v -41.50000000 25.73688698 92.79209137
v -41.50000000 25.80148888 92.59326172
v -41.50000000 25.90601730 92.41221619
v -41.50000000 26.21503448 92.13397217
v -41.50000000 26.04590416 92.25685883
v -41.50000000 26.61050606 92.00547791
v -41.50000000 26.40601730 92.04894257
v -41.50000000 26.81956291 92.00547791
v -41.50000000 27.02405167 92.04894257
v -41.50000000 27.21503448 92.13397217
v -41.50000000 27.38416481 92.25685883
v -41.50000000 27.52405167 92.41221619
v -41.50000000 27.62858009 92.59326172
v -41.50000000 27.69318199 92.79209137
v -41.50000000 27.71503448 93.00000000
v -41.50000000 27.69318199 93.20790863
v -41.50000000 27.62858009 93.40673828
v -41.50000000 27.52405167 93.58778381
v -41.50000000 27.38416481 93.74314117
v -50.00000000 26.45575905 91.90602875
v -50.23674774 26.58202744 91.99720764
v -50.00000000 26.71503448 91.87572479
v -50.23674774 26.84804153 91.99720764
v -50.00000000 26.97431183 91.90602875
v -50.20542908 27.10741043 92.04731750
v -50.00000000 27.21961021 91.99530792
v -50.14435577 27.34716988 92.14503479
v -50.00000000 27.43770599 92.13875580
v -50.05657959 27.55534172 92.28546906
v -50.00000000 27.61684418 92.32862854
v -50.20455933 27.55534172 92.40293884
v -50.05798721 27.72152328 92.55012512
v -50.14696503 27.72152328 92.66125488
v -50.00000000 27.74736404 92.55469513
v -50.00000000 27.82223129 92.80477142
v -50.20894241 27.72152328 92.78941345
v -50.24080658 27.72152328 92.92815399
v -50.40490341 27.55534172 92.72051239
v -50.44719315 27.55534172 92.90464783
v -50.56113815 27.34716988 92.66558075
v -50.61174393 27.34716988 92.88591003
v -50.66984940 27.10741043 92.62735748
v -50.72623444 27.10741043 92.87287140
v -50.72559357 26.84804153 92.60775757
v -50.78494644 26.84804153 92.86618042
v -50.72559357 26.58202744 92.60775757
v -50.78494644 26.58202744 92.86618042
v -50.66984940 26.32266045 92.62735748
v -50.72623444 26.32266045 92.87287140
v -50.56113815 26.08289909 92.66558075
v -50.61174393 26.08289909 92.88591003
v -50.40490341 25.87472725 92.72051239
v -50.44719315 25.87472725 92.90464783
v -50.20894241 25.70854568 92.78941345
v -50.24080658 25.70854568 92.92815399
v -50.00000000 25.60783768 92.80477142
v -50.00000000 25.59265900 93.06536865
v -50.20542908 26.32266045 92.04731750
v -50.00000000 26.21046066 91.99530792
v -50.14435577 26.08289909 92.14503479
v -50.00000000 25.99236298 92.13875580
v -50.05657959 25.87472725 92.28546906
v -50.00000000 25.81322479 92.32862854
v -50.20455933 25.87472725 92.40293884
v -50.05798721 25.70854568 92.55012512
v -50.32264709 25.87472725 92.55042267
v -50.14696503 25.70854568 92.66125488
v -50.00000000 25.68270493 92.55469513
v -50.00000000 25.63798904 93.32244873
v -50.20938492 25.70854568 93.20932770
v -50.24095917 25.70854568 93.07051086
v -50.44739151 25.87472725 93.09358215
v -50.61198044 26.08289909 93.11197662
v -50.72650146 26.32266045 93.12477875
v -50.78522873 26.58202744 93.13134003
v -50.78522873 26.84804153 93.13134003
v -50.72650146 27.10741043 93.12477875
v -50.61198044 27.34716988 93.11197662
v -50.44739151 27.55534172 93.09358215
v -50.24095917 27.72152328 93.07051086
v -50.00000000 27.83740997 93.06536865
v -50.00000000 25.74138260 93.56214142
v -50.05893326 25.70854568 93.44892883
v -50.14767456 25.70854568 93.33761597
v -50.32358932 25.87472725 93.44807434
v -50.40548706 25.87472725 93.27781677
v -50.46384811 26.08289909 93.53614044
v -50.56184006 26.08289909 93.33242035
v -50.56143570 26.32266045 93.59741974
v -50.67063141 26.32266045 93.37041473
v -50.61148071 26.58202744 93.62884521
v -50.72641754 26.58202744 93.38989258
v -50.61148071 26.84804153 93.62884521
v -50.72641754 26.84804153 93.38989258
v -50.56143570 27.10741043 93.59741974
v -50.67063141 27.10741043 93.37041473
v -50.46384811 27.34716988 93.53614044
v -50.56184006 27.34716988 93.33242035
v -50.32358932 27.55534172 93.44807434
v -50.40548706 27.55534172 93.27781677
v -50.14767456 27.72152328 93.33761597
v -50.20938492 27.72152328 93.20932770
v -50.00000000 25.89726448 93.77152252
v -50.05808258 25.87472725 93.71358490
v -50.20581436 25.87472725 93.59580994
v -50.14615631 26.08289909 93.85384369
v -50.00000000 26.09723473 93.93932343
v -50.20743179 26.32266045 93.95143127
v -50.00000000 26.33050919 94.05647278
v -50.23885727 26.58202744 94.00147247
v -50.00000000 26.58451462 94.11667633
v -50.00000000 26.84555626 94.11667633
v -50.23885727 26.84804153 94.00147247
v -50.00000000 27.09955978 94.05647278
v -50.20743179 27.10741043 93.95143127
v -50.00000000 27.33283615 93.93932343
v -50.14615631 27.34716988 93.85384369
v -50.00000000 27.53280449 93.77152252
v -50.05808258 27.55534172 93.71358490
v -50.00000000 27.68868828 93.56214142
v -50.20581436 27.55534172 93.59580994
v -50.05893326 27.72152328 93.44892883
v -50.00000000 27.79207993 93.32244873
v -50.32141876 26.08289909 92.28558350
v -50.46271515 26.08289909 92.46205902
v -50.40272903 26.32266045 92.20393372
v -50.56017685 26.32266045 92.40057373
v -50.44442749 26.58202744 92.16206360
v -50.61015320 26.58202744 92.36904907
v -50.44442749 26.84804153 92.16206360
v -50.61015320 26.84804153 92.36904907
v -50.40272903 27.10741043 92.20393372
v -50.56017685 27.10741043 92.40057373
v -50.32141876 27.34716988 92.28558350
v -50.46271515 27.34716988 92.46205902
v -50.32264709 27.55534172 92.55042267
v -50.32292175 27.34716988 93.71291351
v -50.40440369 27.10741043 93.79439545
v -50.44618988 26.84804153 93.83618164
v -50.44618988 26.58202744 93.83618164
v -50.40440369 26.32266045 93.79439545
v -50.32292175 26.08289909 93.71291351
v -49.61600113 24.79243660 92.65110016
v -49.61600113 24.76103401 93.00000000
v -49.61600113 24.79243660 93.34889984
v -49.61600113 24.88563156 93.68658447
v -49.61600113 25.03762627 94.00220490
v -49.61600113 25.24353218 94.28561401
v -49.61600113 25.49673653 94.52770233
v -49.61600113 25.78909492 94.72068024
v -49.61600113 26.11121559 94.85836792
v -49.61600113 26.45274353 94.93631744
v -49.61600113 26.80270004 94.95203400
v -49.61600113 27.14984131 94.90500641
v -49.61600113 27.48300552 94.79676056
v -49.61600113 27.79148674 94.63075256
v -49.61600113 28.06537056 94.41233826
v -49.61600113 28.29585457 94.14852905
v -49.61600113 28.47552872 93.84780884
v -49.61600113 28.59861755 93.51983643
v -49.61600113 28.66116905 93.17515564
v -49.61600113 28.66116905 92.82484436
v -49.61600113 28.59861755 92.48016357
v -49.61600113 28.47552872 92.15219116
v -49.61600113 28.29585457 91.85147095
v -49.61600113 28.06537056 91.58766174
v -49.61600113 27.79148674 91.36924744
v -49.61600113 27.48300552 91.20323944
v -49.61600113 27.14984131 91.09499359
v -49.61600113 26.80270004 91.04796600
v -49.61600113 26.45274353 91.06368256
v -49.61600113 26.11121559 91.14163208
v -49.61600113 25.78909492 91.27931976
v -49.61600113 25.49673653 91.47229767
v -49.61600113 25.24353218 91.71438599
v -49.61600113 25.03762627 91.99779510
v -49.61600113 24.88563156 92.31341553
v -50.00000000 25.17520142 92.69371033
v -50.00000000 25.14503479 93.00000000
v -50.00000000 25.26454353 92.39918518
v -50.00000000 25.40962791 92.12775421
v -50.00000000 25.60487747 91.88983917
v -50.00000000 25.84278870 91.69459534
v -50.00000000 26.11422157 91.54950714
v -50.00000000 26.40874290 91.46016693
v -50.00000000 26.71503448 91.43000031
v -50.00000000 27.02132607 91.46016693
v -50.00000000 27.31584740 91.54950714
v -50.00000000 27.58728027 91.69459534
v -50.00000000 27.82519150 91.88983917
v -50.00000000 28.02044296 92.12775421
v -50.00000000 28.16552544 92.39918518
v -50.00000000 28.25486755 92.69371033
v -50.00000000 28.28503418 93.00000000
v -50.00000000 28.25486755 93.30628967
v -50.00000000 28.16552544 93.60081482
v -50.00000000 28.02044296 93.87224579
v -50.00000000 27.82519150 94.11016083
v -50.00000000 27.58728027 94.30540466
v -50.00000000 27.31584740 94.45049286
v -50.00000000 27.02132607 94.53983307
v -50.00000000 26.71503448 94.56999969
v -50.00000000 26.40874290 94.53983307
v -50.00000000 26.11422157 94.45049286
v -50.00000000 25.84278870 94.30540466
v -50.00000000 25.60487747 94.11016083
v -50.00000000 25.40962791 93.87224579
v -50.00000000 25.26454353 93.60081482
v -50.00000000 25.17520142 93.30628967
v -40.66032410 24.79243660 93.34889984
v -40.66032410 24.76103401 93.00000000
v -40.66032410 24.79243660 92.65110016
v -40.66032410 24.88563156 92.31341553
v -40.66032410 25.03762627 91.99779510
v -40.66032410 25.24353218 91.71438599
v -40.66032410 25.49673653 91.47229767
v -40.66032410 25.78909492 91.27931976
v -40.66032410 26.11121559 91.14163208
v -40.66032410 26.45274353 91.06368256
v -40.66032410 26.80270004 91.04796600
v -40.66032410 27.14984131 91.09499359
v -40.66032410 27.48300552 91.20323944
v -40.66032410 27.79148674 91.36924744
v -40.66032410 28.06537056 91.58766174
v -40.66032410 28.29585457 91.85147095
v -40.66032410 28.47552872 92.15219116
v -40.66032410 28.59861755 92.48016357
v -40.66032410 28.66116905 92.82484436
v -40.66032410 28.66116905 93.17515564
v -40.66032410 28.59861755 93.51983643
v -40.66032410 28.47552872 93.84780884
v -40.66032410 28.29585457 94.14852905
v -40.66032410 28.06537056 94.41233826
v -40.66032410 27.79148674 94.63075256
v -40.66032410 27.48300552 94.79676056
v -40.66032410 27.14984131 94.90500641
v -40.66032410 26.80270004 94.95203400
v -40.66032410 26.45274353 94.93631744
v -40.66032410 26.11121559 94.85836792
v -40.66032410 25.78909492 94.72068024
v -40.66032410 25.49673653 94.52770233
v -40.66032410 25.24353218 94.28561401
v -40.66032410 25.03762627 94.00220490
v -40.66032410 24.88563156 93.68658447
v -40.00000000 28.25757599 92.69316864
v -40.00000000 28.28779602 93.00000000
v -40.00000000 28.25757599 93.30683136
v -40.00000000 28.16807556 93.60186768
v -40.00000000 28.02273750 93.87377930
v -40.00000000 27.82714462 94.11210632
v -40.00000000 27.58881378 94.30770111
v -40.00000000 28.16807556 92.39813232
v -40.00000000 28.02273750 92.12622070
v -40.00000000 27.82714462 91.88789368
v -40.00000000 27.58881378 91.69229889
v -40.00000000 27.31690407 91.54695892
v -40.00000000 27.02186584 91.45745850
v -40.00000000 26.71503448 91.42723846
v -40.00000000 26.40820503 91.45745850
v -40.00000000 26.11316490 91.54695892
v -40.00000000 25.84125519 91.69229889
v -40.00000000 25.60292435 91.88789368
v -40.00000000 25.40733147 92.12622070
v -40.00000000 25.26199341 92.39813232
v -40.00000000 25.17249489 92.69316864
v -40.00000000 25.14227486 93.00000000
v -40.00000000 25.17249489 93.30683136
v -40.00000000 25.26199341 93.60186768
v -40.00000000 25.40733147 93.87377930
v -40.00000000 25.60292435 94.11210632
v -40.00000000 25.84125519 94.30770111
v -40.00000000 26.11316490 94.45304108
v -40.00000000 26.40820503 94.54254150
v -40.00000000 26.71503448 94.57276154
v -40.00000000 27.02186584 94.54254150
v -40.00000000 27.31690407 94.45304108
v -40.00000000 28.25757599 92.69316864
v -40.00000000 28.28779602 93.00000000
v -40.00000000 28.25757599 93.30683136
v -40.00000000 28.16807556 93.60186768
v -40.00000000 28.02273750 93.87377930
v -40.00000000 27.82714462 94.11210632
v -40.00000000 27.58881378 94.30770111
v -40.00000000 28.16807556 92.39813232
v -40.00000000 28.02273750 92.12622070
v -40.00000000 27.82714462 91.88789368
v -40.00000000 27.58881378 91.69229889
v -40.00000000 27.31690407 91.54695892
v -40.00000000 27.02186584 91.45745850
v -40.00000000 26.71503448 91.42723846
v -40.00000000 26.40820503 91.45745850
v -40.00000000 26.11316490 91.54695892
v -40.00000000 25.84125519 91.69229889
v -40.00000000 25.60292435 91.88789368
v -40.00000000 25.40733147 92.12622070
v -40.00000000 25.26199341 92.39813232
v -40.00000000 25.17249489 92.69316864
v -40.00000000 25.14227486 93.00000000
v -40.00000000 25.17249489 93.30683136
v -40.00000000 25.26199341 93.60186768
v -40.00000000 25.40733147 93.87377930
v -40.00000000 25.60292435 94.11210632
v -40.00000000 25.84125519 94.30770111
v -40.00000000 26.11316490 94.45304108
v -40.00000000 26.40820503 94.54254150
v -40.00000000 26.71503448 94.57276154
v -40.00000000 27.02186584 94.54254150
v -40.00000000 27.31690407 94.45304108
v -40.00000000 27.71503448 93.57734680
v -40.00000000 27.71503448 92.42265320
v -40.00000000 26.71503448 91.84529877
v -40.00000000 25.71503448 92.42265320
v -40.00000000 25.71503448 93.57734680
v -40.00000000 26.71503448 94.15470123
v -50.00000000 26.45575905 91.90602875
v -50.00000000 26.71503448 91.87572479
v -50.00000000 26.97431183 91.90602875
v -50.00000000 27.21961021 91.99530792
v -50.00000000 27.43770599 92.13875580
v -50.00000000 27.61684418 92.32862854
v -50.00000000 27.74736404 92.55469513
v -50.00000000 27.82223129 92.80477142
v -50.00000000 25.60783768 92.80477142
v -50.00000000 25.59265900 93.06536865
v -50.00000000 26.21046066 91.99530792
v -50.00000000 25.99236298 92.13875580
v -50.00000000 25.81322479 92.32862854
v -50.00000000 25.68270493 92.55469513
v -50.00000000 25.63798904 93.32244873
v -50.00000000 27.83740997 93.06536865
v -50.00000000 25.74138260 93.56214142
v -50.00000000 25.89726448 93.77152252
v -50.00000000 26.09723473 93.93932343
v -50.00000000 26.33050919 94.05647278
v -50.00000000 26.58451462 94.11667633
v -50.00000000 26.84555626 94.11667633
v -50.00000000 27.09955978 94.05647278
v -50.00000000 27.33283615 93.93932343
v -50.00000000 27.53280449 93.77152252
v -50.00000000 27.68868828 93.56214142
v -50.00000000 27.79207993 93.32244873
v -50.00000000 25.17520142 92.69371033
v -50.00000000 25.14503479 93.00000000
v -50.00000000 25.26454353 92.39918518
v -50.00000000 25.40962791 92.12775421
v -50.00000000 25.60487747 91.88983917
v -50.00000000 25.84278870 91.69459534
v -50.00000000 26.11422157 91.54950714
v -50.00000000 26.40874290 91.46016693
v -50.00000000 26.71503448 91.43000031
v -50.00000000 27.02132607 91.46016693
v -50.00000000 27.31584740 91.54950714
v -50.00000000 27.58728027 91.69459534
v -50.00000000 27.82519150 91.88983917
v -50.00000000 28.02044296 92.12775421
v -50.00000000 28.16552544 92.39918518
v -50.00000000 28.25486755 92.69371033
v -50.00000000 28.28503418 93.00000000
v -50.00000000 28.25486755 93.30628967
v -50.00000000 28.16552544 93.60081482
v -50.00000000 28.02044296 93.87224579
v -50.00000000 27.82519150 94.11016083
v -50.00000000 27.58728027 94.30540466
v -50.00000000 27.31584740 94.45049286
v -50.00000000 27.02132607 94.53983307
v -50.00000000 26.71503448 94.56999969
v -50.00000000 26.40874290 94.53983307
v -50.00000000 26.11422157 94.45049286
v -50.00000000 25.84278870 94.30540466
v -50.00000000 25.60487747 94.11016083
v -50.00000000 25.40962791 93.87224579
v -50.00000000 25.26454353 93.60081482
v -50.00000000 25.17520142 93.30628967
v -41.50000000 26.21503448 92.13397217
v -40.00000000 26.71503448 91.84529877
v -40.00000000 25.71503448 92.42265320
v -41.50000000 25.71503448 92.42265320
v -41.50000000 26.71503448 91.84529877
v -41.50000000 25.71503448 93.00000000
v -40.00000000 25.71503448 92.42265320
v -40.00000000 25.71503448 93.57734680
v -41.50000000 25.71503448 92.42265320
v -41.50000000 25.71503448 93.57734680
v -41.50000000 26.21503448 93.86602783
v -40.00000000 25.71503448 93.57734680
v -40.00000000 26.71503448 94.15470123
v -41.50000000 25.71503448 93.57734680
v -41.50000000 26.71503448 94.15470123
v -41.50000000 27.21503448 93.86602783
v -40.00000000 27.71503448 93.57734680
v -40.00000000 26.71503448 94.15470123
v -41.50000000 26.71503448 94.15470123
v -41.50000000 27.71503448 93.57734680
v -41.50000000 27.71503448 93.00000000
v -40.00000000 27.71503448 93.57734680
v -40.00000000 27.71503448 92.42265320
v -41.50000000 27.71503448 93.57734680
v -41.50000000 27.71503448 92.42265320
v -41.50000000 27.21503448 92.13397217
v -40.00000000 27.71503448 92.42265320
v -40.00000000 26.71503448 91.84529877
v -41.50000000 26.71503448 91.84529877
v -41.50000000 27.71503448 92.42265320
v -41.50000000 25.71503448 93.00000000
v -41.50000000 25.73688698 92.79209137
v -41.50000000 25.80148888 92.59326172
v -41.50000000 25.90601730 92.41221619
v -41.50000000 26.21503448 92.13397217
v -41.50000000 26.04590416 92.25685883
v -41.50000000 25.71503448 92.42265320
v -41.50000000 26.21503448 92.13397217
v -41.50000000 26.61050606 92.00547791
v -41.50000000 26.40601730 92.04894257
v -41.50000000 26.81956291 92.00547791
v -41.50000000 27.02405167 92.04894257
v -41.50000000 27.21503448 92.13397217
v -41.50000000 26.71503448 91.84529877
v -41.50000000 27.21503448 92.13397217
v -41.50000000 27.38416481 92.25685883
v -41.50000000 27.52405167 92.41221619
v -41.50000000 27.62858009 92.59326172
v -41.50000000 27.69318199 92.79209137
v -41.50000000 27.71503448 93.00000000
v -41.50000000 27.71503448 92.42265320
v -41.50000000 27.21503448 93.86602783
v -41.50000000 27.71503448 93.00000000
v -41.50000000 27.69318199 93.20790863
v -41.50000000 27.62858009 93.40673828
v -41.50000000 27.52405167 93.58778381
v -41.50000000 27.38416481 93.74314117
v -41.50000000 27.71503448 93.57734680
v -41.50000000 27.02405167 93.95105743
v -41.50000000 27.21503448 93.86602783
v -41.50000000 26.61050606 93.99452209
v -41.50000000 26.81956291 93.99452209
v -41.50000000 26.21503448 93.86602783
v -41.50000000 26.40601730 93.95105743
v -41.50000000 26.71503448 94.15470123
v -41.50000000 26.21503448 93.86602783
v -41.50000000 26.04590416 93.74314117
v -41.50000000 25.90601730 93.58778381
v -41.50000000 25.80148888 93.40673828
v -41.50000000 25.73688698 93.20790863
v -41.50000000 25.71503448 93.00000000
v -41.50000000 25.71503448 93.57734680
v -41.87033844 28.93434715 60.00000000
v -41.65836334 28.37349129 60.00000000
v -41.50000000 28.96503448 60.00000000
v -41.34163666 28.37349129 60.00000000
v -41.12966156 28.93434715 60.00000000
v -41.03063202 28.31355095 60.00000000
v -40.76942444 28.84312439 60.00000000
v -40.73659515 28.19583511 60.00000000
v -40.42911911 28.69385147 60.00000000
v -40.47014618 28.02459908 60.00000000
v -40.11802292 28.49060059 60.00000000
v -39.84461975 28.23891830 60.00000000
v -40.24092102 27.80603218 60.00000000
v -39.61637497 27.94566727 60.00000000
v -40.05720139 27.54803467 60.00000000
v -39.43951035 27.61884880 60.00000000
v -39.92562866 27.25992966 60.00000000
v -39.31884766 27.26737785 60.00000000
v -39.85095596 26.95213127 60.00000000
v -39.25768661 26.90083885 60.00000000
v -39.83588791 26.63576317 60.00000000
v -39.25768661 26.52923203 60.00000000
v -39.88096237 26.32225990 60.00000000
v -39.31884766 26.16269302 60.00000000
v -39.43951035 25.81122017 60.00000000
v -39.98455429 26.02295303 60.00000000
v -39.61637497 25.48440170 60.00000000
v -40.14291763 25.74865913 60.00000000
v -39.84461975 25.19115067 60.00000000
v -40.35032654 25.50929451 60.00000000
v -40.11802292 24.93946838 60.00000000
v -40.59929276 25.31350708 60.00000000
v -40.42911911 24.73621941 60.00000000
v -40.88080978 25.16837311 60.00000000
v -40.76942444 24.58694649 60.00000000
v -41.18470764 25.07914162 60.00000000
v -41.12966156 24.49572182 60.00000000
v -41.50000000 25.04903412 60.00000000
v -41.50000000 24.46503448 60.00000000
v -41.87033844 24.49572182 60.00000000
v -41.81529236 25.07914162 60.00000000
v -42.23057556 24.58694649 60.00000000
v -42.11919022 25.16837311 60.00000000
v -42.57088089 24.73621941 60.00000000
v -42.40070724 25.31350708 60.00000000
v -42.88197708 24.93946838 60.00000000
v -42.64967346 25.50929451 60.00000000
v -43.15538025 25.19115067 60.00000000
v -42.85708237 25.74865913 60.00000000
v -43.38362503 25.48440170 60.00000000
v -43.01544571 26.02295303 60.00000000
v -43.56048965 25.81122017 60.00000000
v -43.11903763 26.32225990 60.00000000
v -43.68115234 26.16269302 60.00000000
v -43.74231339 26.52923203 60.00000000
v -43.16411209 26.63576317 60.00000000
v -43.74231339 26.90083885 60.00000000
v -43.14904404 26.95213127 60.00000000
v -43.68115234 27.26737785 60.00000000
v -43.07437134 27.25992966 60.00000000
v -43.56048965 27.61884880 60.00000000
v -42.94279861 27.54803467 60.00000000
v -43.38362503 27.94566727 60.00000000
v -42.75907898 27.80603218 60.00000000
v -43.15538025 28.23891830 60.00000000
v -42.52985382 28.02459908 60.00000000
v -42.88197708 28.49060059 60.00000000
v -42.57088089 28.69385147 60.00000000
v -42.26340485 28.19583511 60.00000000
v -42.23057556 28.84312439 60.00000000
v -41.96936798 28.31355095 60.00000000
v -41.87033844 28.93434715 60.00000000
v -41.50000000 28.96503448 60.00000000
v -41.12966156 28.93434715 60.00000000
v -40.76942444 28.84312439 60.00000000
v -40.42911911 28.69385147 60.00000000
v -40.11802292 28.49060059 60.00000000
v -39.84461975 28.23891830 60.00000000
v -39.61637497 27.94566727 60.00000000
v -39.43951035 27.61884880 60.00000000
v -39.31884766 27.26737785 60.00000000
v -39.25768661 26.90083885 60.00000000
v -39.25768661 26.52923203 60.00000000
v -39.31884766 26.16269302 60.00000000
v -39.43951035 25.81122017 60.00000000
v -39.61637497 25.48440170 60.00000000
v -39.84461975 25.19115067 60.00000000
v -40.11802292 24.93946838 60.00000000
v -40.42911911 24.73621941 60.00000000
v -40.76942444 24.58694649 60.00000000
v -41.12966156 24.49572182 60.00000000
v -41.50000000 24.46503448 60.00000000
v -41.87033844 24.49572182 60.00000000
v -42.23057556 24.58694649 60.00000000
v -42.57088089 24.73621941 60.00000000
v -42.88197708 24.93946838 60.00000000
v -43.15538025 25.19115067 60.00000000
v -43.38362503 25.48440170 60.00000000
v -43.56048965 25.81122017 60.00000000
v -43.68115234 26.16269302 60.00000000
v -43.74231339 26.52923203 60.00000000
v -43.74231339 26.90083885 60.00000000
v -43.68115234 27.26737785 60.00000000
v -43.56048965 27.61884880 60.00000000
v -43.38362503 27.94566727 60.00000000
v -43.15538025 28.23891830 60.00000000
v -42.88197708 28.49060059 60.00000000
v -42.57088089 28.69385147 60.00000000
v -42.23057556 28.84312439 60.00000000
v -41.87033844 28.93434715 63.00000000
v -41.50000000 28.96503448 63.00000000
v -41.12966156 28.93434715 63.00000000
v -40.76942444 28.84312439 63.00000000
v -40.42911911 28.69385147 63.00000000
v -40.11802292 28.49060059 63.00000000
v -39.84461975 28.23891830 63.00000000
v -39.61637497 27.94566727 63.00000000
v -39.43951035 27.61884880 63.00000000
v -39.31884766 27.26737785 63.00000000
v -39.25768661 26.90083885 63.00000000
v -39.25768661 26.52923203 63.00000000
v -39.31884766 26.16269302 63.00000000
v -39.43951035 25.81122017 63.00000000
v -39.61637497 25.48440170 63.00000000
v -39.84461975 25.19115067 63.00000000
v -40.11802292 24.93946838 63.00000000
v -40.42911911 24.73621941 63.00000000
v -40.76942444 24.58694649 63.00000000
v -41.12966156 24.49572182 63.00000000
v -41.50000000 24.46503448 63.00000000
v -41.87033844 24.49572182 63.00000000
v -42.23057556 24.58694649 63.00000000
v -42.57088089 24.73621941 63.00000000
v -42.88197708 24.93946838 63.00000000
v -43.15538025 25.19115067 63.00000000
v -43.38362503 25.48440170 63.00000000
v -43.56048965 25.81122017 63.00000000
v -43.68115234 26.16269302 63.00000000
v -43.74231339 26.52923203 63.00000000
v -43.74231339 26.90083885 63.00000000
v -43.68115234 27.26737785 63.00000000
v -43.56048965 27.61884880 63.00000000
v -43.38362503 27.94566727 63.00000000
v -43.15538025 28.23891830 63.00000000
v -42.88197708 28.49060059 63.00000000
v -42.57088089 28.69385147 63.00000000
v -42.23057556 28.84312439 63.00000000
v -41.65836334 28.37349129 60.00000000
v -41.34163666 28.37349129 60.00000000
v -41.03063202 28.31355095 60.00000000
v -40.73659515 28.19583511 60.00000000
v -40.47014618 28.02459908 60.00000000
v -40.24092102 27.80603218 60.00000000
v -40.05720139 27.54803467 60.00000000
v -39.92562866 27.25992966 60.00000000
v -39.85095596 26.95213127 60.00000000
v -39.83588791 26.63576317 60.00000000
v -39.88096237 26.32225990 60.00000000
v -39.98455429 26.02295303 60.00000000
v -40.14291763 25.74865913 60.00000000
v -40.35032654 25.50929451 60.00000000
v -40.59929276 25.31350708 60.00000000
v -40.88080978 25.16837311 60.00000000
v -41.18470764 25.07914162 60.00000000
v -41.50000000 25.04903412 60.00000000
v -41.81529236 25.07914162 60.00000000
v -42.11919022 25.16837311 60.00000000
v -42.40070724 25.31350708 60.00000000
v -42.64967346 25.50929451 60.00000000
v -42.85708237 25.74865913 60.00000000
v -43.01544571 26.02295303 60.00000000
v -43.11903763 26.32225990 60.00000000
v -43.16411209 26.63576317 60.00000000
v -43.14904404 26.95213127 60.00000000
v -43.07437134 27.25992966 60.00000000
v -42.94279861 27.54803467 60.00000000
v -42.75907898 27.80603218 60.00000000
v -42.52985382 28.02459908 60.00000000
v -42.26340485 28.19583511 60.00000000
v -41.96936798 28.31355095 60.00000000
v -41.81529236 25.07914162 58.00000000
v -41.50000000 25.04903412 58.00000000
v -41.18470764 25.07914162 58.00000000
v -42.11919022 25.16837311 58.00000000
v -42.40070724 25.31350708 58.00000000
v -42.64967346 25.50929451 58.00000000
v -42.85708237 25.74865913 58.00000000
v -43.01544571 26.02295303 58.00000000
v -43.11903763 26.32225990 58.00000000
v -43.16411209 26.63576317 58.00000000
v -43.14904404 26.95213127 58.00000000
v -43.07437134 27.25992966 58.00000000
v -42.94279861 27.54803467 58.00000000
v -42.75907898 27.80603218 58.00000000
v -42.52985382 28.02459908 58.00000000
v -42.26340485 28.19583511 58.00000000
v -41.96936798 28.31355095 58.00000000
v -41.65836334 28.37349129 58.00000000
v -41.34163666 28.37349129 58.00000000
v -41.03063202 28.31355095 58.00000000
v -40.73659515 28.19583511 58.00000000
v -40.47014618 28.02459908 58.00000000
v -40.24092102 27.80603218 58.00000000
v -40.05720139 27.54803467 58.00000000
v -39.92562866 27.25992966 58.00000000
v -39.85095596 26.95213127 58.00000000
v -39.83588791 26.63576317 58.00000000
v -39.88096237 26.32225990 58.00000000
v -39.98455429 26.02295303 58.00000000
v -40.14291763 25.74865913 58.00000000
v -40.35032654 25.50929451 58.00000000
v -40.59929276 25.31350708 58.00000000
v -40.88080978 25.16837311 58.00000000
v -46.12966156 14.49572182 61.00000000
v -46.50000000 14.46503448 61.00000000
v -46.50000000 15.45053482 61.00000000
v -46.87033844 14.49572182 61.00000000
v -46.78137589 15.48223877 61.00000000
v -47.23057556 14.58694553 61.00000000
v -47.04864502 15.57575989 61.00000000
v -47.57088089 14.73621845 61.00000000
v -47.28840256 15.72640896 61.00000000
v -47.88197708 14.93946838 61.00000000
v -48.15538025 15.19115162 61.00000000
v -47.48862457 15.92663193 61.00000000
v -48.38362503 15.48440170 61.00000000
v -47.63927460 16.16638947 61.00000000
v -48.56048965 15.81122017 61.00000000
v -47.73279572 16.43365669 61.00000000
v -48.68115234 16.16269302 61.00000000
v -48.74231339 16.52923203 61.00000000
v -47.76449966 16.71503448 61.00000000
v -48.74231339 16.90083885 61.00000000
v -47.73279572 16.99641228 61.00000000
v -48.68115234 17.26737785 61.00000000
v -48.56048965 17.61884880 61.00000000
v -47.63927460 17.26368141 61.00000000
v -48.38362503 17.94566727 61.00000000
v -47.48862457 17.50343704 61.00000000
v -48.15538025 18.23891830 61.00000000
v -47.28840256 17.70366096 61.00000000
v -47.88197708 18.49060059 61.00000000
v -47.57088089 18.69385147 61.00000000
v -47.04864502 17.85430908 61.00000000
v -47.23057556 18.84312439 61.00000000
v -46.78137589 17.94783020 61.00000000
v -46.87033844 18.93434715 61.00000000
v -46.50000000 17.97953415 61.00000000
v -46.50000000 18.96503448 61.00000000
v -46.12966156 18.93434715 61.00000000
v -46.21862411 17.94783020 61.00000000
v -45.76942444 18.84312439 61.00000000
v -45.95135498 17.85430908 61.00000000
v -45.42911911 18.69385147 61.00000000
v -45.71159744 17.70366096 61.00000000
v -45.11802292 18.49060059 61.00000000
v -44.84461975 18.23891830 61.00000000
v -45.51137543 17.50343704 61.00000000
v -44.61637497 17.94566727 61.00000000
v -45.36072540 17.26368141 61.00000000
v -44.43951035 17.61884880 61.00000000
v -45.26720428 16.99641228 61.00000000
v -44.31884766 17.26737785 61.00000000
v -44.25768661 16.90083885 61.00000000
v -45.23550034 16.71503448 61.00000000
v -44.25768661 16.52923203 61.00000000
v -45.26720428 16.43365669 61.00000000
v -44.31884766 16.16269302 61.00000000
v -44.43951035 15.81122017 61.00000000
v -45.36072540 16.16638947 61.00000000
v -44.61637497 15.48440170 61.00000000
v -45.51137543 15.92663193 61.00000000
v -44.84461975 15.19115162 61.00000000
v -45.71159744 15.72640896 61.00000000
v -45.11802292 14.93946838 61.00000000
v -45.42911911 14.73621845 61.00000000
v -45.95135498 15.57575989 61.00000000
v -45.76942444 14.58694553 61.00000000
v -46.21862411 15.48223877 61.00000000
v -46.12966156 14.49572182 61.00000000
v -46.50000000 14.46503448 61.00000000
v -46.87033844 14.49572182 61.00000000
v -47.23057556 14.58694553 61.00000000
v -47.57088089 14.73621845 61.00000000
v -47.88197708 14.93946838 61.00000000
v -48.15538025 15.19115162 61.00000000
v -48.38362503 15.48440170 61.00000000
v -48.56048965 15.81122017 61.00000000
v -48.68115234 16.16269302 61.00000000
v -48.74231339 16.52923203 61.00000000
v -48.74231339 16.90083885 61.00000000
v -48.68115234 17.26737785 61.00000000
v -48.56048965 17.61884880 61.00000000
v -48.38362503 17.94566727 61.00000000
v -48.15538025 18.23891830 61.00000000
v -47.88197708 18.49060059 61.00000000
v -47.57088089 18.69385147 61.00000000
v -47.23057556 18.84312439 61.00000000
v -46.87033844 18.93434715 61.00000000
v -46.50000000 18.96503448 61.00000000
v -46.12966156 18.93434715 61.00000000
v -45.76942444 18.84312439 61.00000000
v -45.42911911 18.69385147 61.00000000
v -45.11802292 18.49060059 61.00000000
v -44.84461975 18.23891830 61.00000000
v -44.61637497 17.94566727 61.00000000
v -44.43951035 17.61884880 61.00000000
v -44.31884766 17.26737785 61.00000000
v -44.25768661 16.90083885 61.00000000
v -44.25768661 16.52923203 61.00000000
v -44.31884766 16.16269302 61.00000000
v -44.43951035 15.81122017 61.00000000
v -44.61637497 15.48440170 61.00000000
v -44.84461975 15.19115162 61.00000000
v -45.11802292 14.93946838 61.00000000
v -45.42911911 14.73621845 61.00000000
v -45.76942444 14.58694553 61.00000000
v -46.87033844 14.49572182 58.00000000
v -46.50000000 14.46503448 58.00000000
v -46.12966156 14.49572182 58.00000000
v -45.76942444 14.58694553 58.00000000
v -45.42911911 14.73621845 58.00000000
v -45.11802292 14.93946838 58.00000000
v -44.84461975 15.19115162 58.00000000
v -44.61637497 15.48440170 58.00000000
v -44.43951035 15.81122017 58.00000000
v -44.31884766 16.16269302 58.00000000
v -44.25768661 16.52923203 58.00000000
v -44.25768661 16.90083885 58.00000000
v -44.31884766 17.26737785 58.00000000
v -44.43951035 17.61884880 58.00000000
v -44.61637497 17.94566727 58.00000000
v -44.84461975 18.23891830 58.00000000
v -45.11802292 18.49060059 58.00000000
v -45.42911911 18.69385147 58.00000000
v -45.76942444 18.84312439 58.00000000
v -46.12966156 18.93434715 58.00000000
v -46.50000000 18.96503448 58.00000000
v -46.87033844 18.93434715 58.00000000
v -47.23057556 18.84312439 58.00000000
v -47.57088089 18.69385147 58.00000000
v -47.88197708 18.49060059 58.00000000
v -48.15538025 18.23891830 58.00000000
v -48.38362503 17.94566727 58.00000000
v -48.56048965 17.61884880 58.00000000
v -48.68115234 17.26737785 58.00000000
v -48.74231339 16.90083885 58.00000000
v -48.74231339 16.52923203 58.00000000
v -48.68115234 16.16269302 58.00000000
v -48.56048965 15.81122017 58.00000000
v -48.38362503 15.48440170 58.00000000
v -48.15538025 15.19115162 58.00000000
v -47.88197708 14.93946838 58.00000000
v -47.57088089 14.73621845 58.00000000
v -47.23057556 14.58694553 58.00000000
v -46.12966156 24.49572182 61.00000000
v -46.50000000 24.46503448 61.00000000
v -46.50000000 25.45053482 61.00000000
v -46.87033844 24.49572182 61.00000000
v -46.78137589 25.48223877 61.00000000
v -47.23057556 24.58694649 61.00000000
v -47.04864502 25.57575989 61.00000000
v -47.57088089 24.73621941 61.00000000
v -47.28840256 25.72640800 61.00000000
v -47.88197708 24.93946838 61.00000000
v -48.15538025 25.19115067 61.00000000
v -47.48862457 25.92663193 61.00000000
v -48.38362503 25.48440170 61.00000000
v -47.63927460 26.16638947 61.00000000
v -48.56048965 25.81122017 61.00000000
v -47.73279572 26.43365669 61.00000000
v -48.68115234 26.16269302 61.00000000
v -48.74231339 26.52923203 61.00000000
v -47.76449966 26.71503448 61.00000000
v -48.74231339 26.90083885 61.00000000
v -47.73279572 26.99641228 61.00000000
v -48.68115234 27.26737785 61.00000000
v -48.56048965 27.61884880 61.00000000
v -47.63927460 27.26368141 61.00000000
v -48.38362503 27.94566727 61.00000000
v -47.48862457 27.50343704 61.00000000
v -48.15538025 28.23891830 61.00000000
v -47.28840256 27.70366096 61.00000000
v -47.88197708 28.49060059 61.00000000
v -47.57088089 28.69385147 61.00000000
v -47.04864502 27.85430908 61.00000000
v -47.23057556 28.84312439 61.00000000
v -46.78137589 27.94783020 61.00000000
v -46.87033844 28.93434715 61.00000000
v -46.50000000 27.97953415 61.00000000
v -46.50000000 28.96503448 61.00000000
v -46.12966156 28.93434715 61.00000000
v -46.21862411 27.94783020 61.00000000
v -45.76942444 28.84312439 61.00000000
v -45.95135498 27.85430908 61.00000000
v -45.42911911 28.69385147 61.00000000
v -45.71159744 27.70366096 61.00000000
v -45.11802292 28.49060059 61.00000000
v -44.84461975 28.23891830 61.00000000
v -45.51137543 27.50343704 61.00000000
v -44.61637497 27.94566727 61.00000000
v -45.36072540 27.26368141 61.00000000
v -44.43951035 27.61884880 61.00000000
v -45.26720428 26.99641228 61.00000000
v -44.31884766 27.26737785 61.00000000
v -44.25768661 26.90083885 61.00000000
v -45.23550034 26.71503448 61.00000000
v -44.25768661 26.52923203 61.00000000
v -45.26720428 26.43365669 61.00000000
v -44.31884766 26.16269302 61.00000000
v -44.43951035 25.81122017 61.00000000
v -45.36072540 26.16638947 61.00000000
v -44.61637497 25.48440170 61.00000000
v -45.51137543 25.92663193 61.00000000
v -44.84461975 25.19115067 61.00000000
v -45.71159744 25.72640800 61.00000000
v -45.11802292 24.93946838 61.00000000
v -45.42911911 24.73621941 61.00000000
v -45.95135498 25.57575989 61.00000000
v -45.76942444 24.58694649 61.00000000
v -46.21862411 25.48223877 61.00000000
v -46.12966156 24.49572182 61.00000000
v -46.50000000 24.46503448 61.00000000
v -46.87033844 24.49572182 61.00000000
v -47.23057556 24.58694649 61.00000000
v -47.57088089 24.73621941 61.00000000
v -47.88197708 24.93946838 61.00000000
v -48.15538025 25.19115067 61.00000000
v -48.38362503 25.48440170 61.00000000
v -48.56048965 25.81122017 61.00000000
v -48.68115234 26.16269302 61.00000000
v -48.74231339 26.52923203 61.00000000
v -48.74231339 26.90083885 61.00000000
v -48.68115234 27.26737785 61.00000000
v -48.56048965 27.61884880 61.00000000
v -48.38362503 27.94566727 61.00000000
v -48.15538025 28.23891830 61.00000000
v -47.88197708 28.49060059 61.00000000
v -47.57088089 28.69385147 61.00000000
v -47.23057556 28.84312439 61.00000000
v -46.87033844 28.93434715 61.00000000
v -46.50000000 28.96503448 61.00000000
v -46.12966156 28.93434715 61.00000000
v -45.76942444 28.84312439 61.00000000
v -45.42911911 28.69385147 61.00000000
v -45.11802292 28.49060059 61.00000000
v -44.84461975 28.23891830 61.00000000
v -44.61637497 27.94566727 61.00000000
v -44.43951035 27.61884880 61.00000000
v -44.31884766 27.26737785 61.00000000
v -44.25768661 26.90083885 61.00000000
v -44.25768661 26.52923203 61.00000000
v -44.31884766 26.16269302 61.00000000
v -44.43951035 25.81122017 61.00000000
v -44.61637497 25.48440170 61.00000000
v -44.84461975 25.19115067 61.00000000
v -45.11802292 24.93946838 61.00000000
v -45.42911911 24.73621941 61.00000000
v -45.76942444 24.58694649 61.00000000
v -46.87033844 24.49572182 58.00000000
v -46.50000000 24.46503448 58.00000000
v -46.12966156 24.49572182 58.00000000
v -45.76942444 24.58694649 58.00000000
v -45.42911911 24.73621941 58.00000000
v -45.11802292 24.93946838 58.00000000
v -44.84461975 25.19115067 58.00000000
v -44.61637497 25.48440170 58.00000000
v -44.43951035 25.81122017 58.00000000
v -44.31884766 26.16269302 58.00000000
v -44.25768661 26.52923203 58.00000000
v -44.25768661 26.90083885 58.00000000
v -44.31884766 27.26737785 58.00000000
v -44.43951035 27.61884880 58.00000000
v -44.61637497 27.94566727 58.00000000
v -44.84461975 28.23891830 58.00000000
v -45.11802292 28.49060059 58.00000000
v -45.42911911 28.69385147 58.00000000
v -45.76942444 28.84312439 58.00000000
v -46.12966156 28.93434715 58.00000000
v -46.50000000 28.96503448 58.00000000
v -46.87033844 28.93434715 58.00000000
v -47.23057556 28.84312439 58.00000000
v -47.57088089 28.69385147 58.00000000
v -47.88197708 28.49060059 58.00000000
v -48.15538025 28.23891830 58.00000000
v -48.38362503 27.94566727 58.00000000
v -48.56048965 27.61884880 58.00000000
v -48.68115234 27.26737785 58.00000000
v -48.74231339 26.90083885 58.00000000
v -48.74231339 26.52923203 58.00000000
v -48.68115234 26.16269302 58.00000000
v -48.56048965 25.81122017 58.00000000
v -48.38362503 25.48440170 58.00000000
v -48.15538025 25.19115067 58.00000000
v -47.88197708 24.93946838 58.00000000
v -47.57088089 24.73621941 58.00000000
v -47.23057556 24.58694649 58.00000000
v -39.00000000 11.71503448 58.00000000
v -39.00000000 31.71503448 58.00000000
v -39.00000000 11.71503448 63.00000000
v -39.00000000 31.71503448 63.00000000
v -41.87033844 28.93434715 63.00000000
v -41.50000000 28.96503448 63.00000000
v -41.12966156 28.93434715 63.00000000
v -40.76942444 28.84312439 63.00000000
v -40.42911911 28.69385147 63.00000000
v -40.11802292 28.49060059 63.00000000
v -39.84461975 28.23891830 63.00000000
v -39.61637497 27.94566727 63.00000000
v -39.43951035 27.61884880 63.00000000
v -39.31884766 27.26737785 63.00000000
v -39.25768661 26.90083885 63.00000000
v -39.25768661 26.52923203 63.00000000
v -39.31884766 26.16269302 63.00000000
v -39.43951035 25.81122017 63.00000000
v -39.61637497 25.48440170 63.00000000
v -39.84461975 25.19115067 63.00000000
v -40.11802292 24.93946838 63.00000000
v -40.42911911 24.73621941 63.00000000
v -40.76942444 24.58694649 63.00000000
v -41.12966156 24.49572182 63.00000000
v -41.50000000 24.46503448 63.00000000
v -41.87033844 24.49572182 63.00000000
v -42.23057556 24.58694649 63.00000000
v -42.57088089 24.73621941 63.00000000
v -42.88197708 24.93946838 63.00000000
v -43.15538025 25.19115067 63.00000000
v -43.38362503 25.48440170 63.00000000
v -43.56048965 25.81122017 63.00000000
v -43.68115234 26.16269302 63.00000000
v -43.74231339 26.52923203 63.00000000
v -43.74231339 26.90083885 63.00000000
v -43.68115234 27.26737785 63.00000000
v -43.56048965 27.61884880 63.00000000
v -43.38362503 27.94566727 63.00000000
v -43.15538025 28.23891830 63.00000000
v -42.88197708 28.49060059 63.00000000
v -42.57088089 28.69385147 63.00000000
v -42.23057556 28.84312439 63.00000000
v -39.00000000 11.71503448 63.00000000
v -39.00000000 31.71503448 63.00000000
v -44.00000000 11.71503448 63.00000000
v -44.00000000 31.71503448 63.00000000
v -41.81529236 25.07914162 58.00000000
v -41.50000000 25.04903412 58.00000000
v -41.18470764 25.07914162 58.00000000
v -42.11919022 25.16837311 58.00000000
v -42.40070724 25.31350708 58.00000000
v -42.64967346 25.50929451 58.00000000
v -42.85708237 25.74865913 58.00000000
v -43.01544571 26.02295303 58.00000000
v -43.11903763 26.32225990 58.00000000
v -43.16411209 26.63576317 58.00000000
v -43.14904404 26.95213127 58.00000000
v -43.07437134 27.25992966 58.00000000
v -42.94279861 27.54803467 58.00000000
v -42.75907898 27.80603218 58.00000000
v -42.52985382 28.02459908 58.00000000
v -42.26340485 28.19583511 58.00000000
v -41.96936798 28.31355095 58.00000000
v -41.65836334 28.37349129 58.00000000
v -41.34163666 28.37349129 58.00000000
v -41.03063202 28.31355095 58.00000000
v -40.73659515 28.19583511 58.00000000
v -40.47014618 28.02459908 58.00000000
v -40.24092102 27.80603218 58.00000000
v -40.05720139 27.54803467 58.00000000
v -39.92562866 27.25992966 58.00000000
v -39.85095596 26.95213127 58.00000000
v -39.83588791 26.63576317 58.00000000
v -39.88096237 26.32225990 58.00000000
v -39.98455429 26.02295303 58.00000000
v -40.14291763 25.74865913 58.00000000
v -40.35032654 25.50929451 58.00000000
v -40.59929276 25.31350708 58.00000000
v -40.88080978 25.16837311 58.00000000
v -46.87033844 14.49572182 58.00000000
v -46.50000000 14.46503448 58.00000000
v -46.12966156 14.49572182 58.00000000
v -45.76942444 14.58694553 58.00000000
v -45.42911911 14.73621845 58.00000000
v -45.11802292 14.93946838 58.00000000
v -44.84461975 15.19115162 58.00000000
v -44.61637497 15.48440170 58.00000000
v -44.43951035 15.81122017 58.00000000
v -44.31884766 16.16269302 58.00000000
v -44.25768661 16.52923203 58.00000000
v -44.25768661 16.90083885 58.00000000
v -44.31884766 17.26737785 58.00000000
v -44.43951035 17.61884880 58.00000000
v -44.61637497 17.94566727 58.00000000
v -44.84461975 18.23891830 58.00000000
v -45.11802292 18.49060059 58.00000000
v -45.42911911 18.69385147 58.00000000
v -45.76942444 18.84312439 58.00000000
v -46.12966156 18.93434715 58.00000000
v -46.50000000 18.96503448 58.00000000
v -46.87033844 18.93434715 58.00000000
v -47.23057556 18.84312439 58.00000000
v -47.57088089 18.69385147 58.00000000
v -47.88197708 18.49060059 58.00000000
v -48.15538025 18.23891830 58.00000000
v -48.38362503 17.94566727 58.00000000
v -48.56048965 17.61884880 58.00000000
v -48.68115234 17.26737785 58.00000000
v -48.74231339 16.90083885 58.00000000
v -48.74231339 16.52923203 58.00000000
v -48.68115234 16.16269302 58.00000000
v -48.56048965 15.81122017 58.00000000
v -48.38362503 15.48440170 58.00000000
v -48.15538025 15.19115162 58.00000000
v -47.88197708 14.93946838 58.00000000
v -47.57088089 14.73621845 58.00000000
v -47.23057556 14.58694553 58.00000000
v -46.87033844 24.49572182 58.00000000
v -46.50000000 24.46503448 58.00000000
v -46.12966156 24.49572182 58.00000000
v -45.76942444 24.58694649 58.00000000
v -45.42911911 24.73621941 58.00000000
v -45.11802292 24.93946838 58.00000000
v -44.84461975 25.19115067 58.00000000
v -44.61637497 25.48440170 58.00000000
v -44.43951035 25.81122017 58.00000000
v -44.31884766 26.16269302 58.00000000
v -44.25768661 26.52923203 58.00000000
v -44.25768661 26.90083885 58.00000000
v -44.31884766 27.26737785 58.00000000
v -44.43951035 27.61884880 58.00000000
v -44.61637497 27.94566727 58.00000000
v -44.84461975 28.23891830 58.00000000
v -45.11802292 28.49060059 58.00000000
v -45.42911911 28.69385147 58.00000000
v -45.76942444 28.84312439 58.00000000
v -46.12966156 28.93434715 58.00000000
v -46.50000000 28.96503448 58.00000000
v -46.87033844 28.93434715 58.00000000
v -47.23057556 28.84312439 58.00000000
v -47.57088089 28.69385147 58.00000000
v -47.88197708 28.49060059 58.00000000
v -48.15538025 28.23891830 58.00000000
v -48.38362503 27.94566727 58.00000000
v -48.56048965 27.61884880 58.00000000
v -48.68115234 27.26737785 58.00000000
v -48.74231339 26.90083885 58.00000000
v -48.74231339 26.52923203 58.00000000
v -48.68115234 26.16269302 58.00000000
v -48.56048965 25.81122017 58.00000000
v -48.38362503 25.48440170 58.00000000
v -48.15538025 25.19115067 58.00000000
v -47.88197708 24.93946838 58.00000000
v -47.57088089 24.73621941 58.00000000
v -47.23057556 24.58694649 58.00000000
v -39.00000000 11.71503448 58.00000000
v -39.00000000 31.71503448 58.00000000
v -49.00000000 11.71503448 58.00000000
v -49.00000000 31.71503448 58.00000000
v -46.50000000 15.45053482 61.00000000
v -46.78137589 15.48223877 61.00000000
v -47.04864502 15.57575989 61.00000000
v -47.28840256 15.72640896 61.00000000
v -47.48862457 15.92663193 61.00000000
v -47.63927460 16.16638947 61.00000000
v -47.73279572 16.43365669 61.00000000
v -47.76449966 16.71503448 61.00000000
v -47.73279572 16.99641228 61.00000000
v -47.63927460 17.26368141 61.00000000
v -47.48862457 17.50343704 61.00000000
v -47.28840256 17.70366096 61.00000000
v -47.04864502 17.85430908 61.00000000
v -46.78137589 17.94783020 61.00000000
v -46.50000000 17.97953415 61.00000000
v -46.21862411 17.94783020 61.00000000
v -45.95135498 17.85430908 61.00000000
v -45.71159744 17.70366096 61.00000000
v -45.51137543 17.50343704 61.00000000
v -45.36072540 17.26368141 61.00000000
v -45.26720428 16.99641228 61.00000000
v -45.23550034 16.71503448 61.00000000
v -45.26720428 16.43365669 61.00000000
v -45.36072540 16.16638947 61.00000000
v -45.51137543 15.92663193 61.00000000
v -45.71159744 15.72640896 61.00000000
v -45.95135498 15.57575989 61.00000000
v -46.21862411 15.48223877 61.00000000
v -46.21862411 17.94783020 64.50000000
v -46.50000000 17.97953415 64.50000000
v -46.78137589 17.94783020 64.50000000
v -47.04864502 17.85430908 64.50000000
v -47.28840256 17.70366096 64.50000000
v -47.48862457 17.50343704 64.50000000
v -47.63927460 17.26368141 64.50000000
v -47.73279572 16.99641228 64.50000000
v -47.76449966 16.71503448 64.50000000
v -47.73279572 16.43365669 64.50000000
v -47.63927460 16.16638947 64.50000000
v -47.48862457 15.92663193 64.50000000
v -47.28840256 15.72640896 64.50000000
v -47.04864502 15.57575989 64.50000000
v -46.78137589 15.48223877 64.50000000
v -46.50000000 15.45053482 64.50000000
v -46.21862411 15.48223877 64.50000000
v -45.95135498 15.57575989 64.50000000
v -45.71159744 15.72640896 64.50000000
v -45.51137543 15.92663193 64.50000000
v -45.36072540 16.16638947 64.50000000
v -45.26720428 16.43365669 64.50000000
v -45.23550034 16.71503448 64.50000000
v -45.26720428 16.99641228 64.50000000
v -45.36072540 17.26368141 64.50000000
v -45.51137543 17.50343704 64.50000000
v -45.71159744 17.70366096 64.50000000
v -45.95135498 17.85430908 64.50000000
v -46.21862411 15.48223877 68.00000000
v -46.50000000 15.45053482 68.00000000
v -46.78137589 15.48223877 68.00000000
v -47.04864502 15.57575989 68.00000000
v -47.28840256 15.72640896 68.00000000
v -47.48862457 15.92663193 68.00000000
v -47.63927460 16.16638947 68.00000000
v -47.73279572 16.43365669 68.00000000
v -47.76449966 16.71503448 68.00000000
v -47.73279572 16.99641228 68.00000000
v -47.63927460 17.26368141 68.00000000
v -47.48862457 17.50343704 68.00000000
v -47.28840256 17.70366096 68.00000000
v -47.04864502 17.85430908 68.00000000
v -46.78137589 17.94783020 68.00000000
v -46.50000000 17.97953415 68.00000000
v -46.21862411 17.94783020 68.00000000
v -45.95135498 17.85430908 68.00000000
v -45.71159744 17.70366096 68.00000000
v -45.51137543 17.50343704 68.00000000
v -45.36072540 17.26368141 68.00000000
v -45.26720428 16.99641228 68.00000000
v -45.23550034 16.71503448 68.00000000
v -45.26720428 16.43365669 68.00000000
v -45.36072540 16.16638947 68.00000000
v -45.51137543 15.92663193 68.00000000
v -45.71159744 15.72640896 68.00000000
v -45.95135498 15.57575989 68.00000000
v -46.21862411 15.48223877 68.00000000
v -46.50000000 15.45053482 68.00000000
v -46.78137589 15.48223877 68.00000000
v -47.04864502 15.57575989 68.00000000
v -47.28840256 15.72640896 68.00000000
v -47.48862457 15.92663193 68.00000000
v -47.63927460 16.16638947 68.00000000
v -47.73279572 16.43365669 68.00000000
v -47.76449966 16.71503448 68.00000000
v -47.73279572 16.99641228 68.00000000
v -47.63927460 17.26368141 68.00000000
v -47.48862457 17.50343704 68.00000000
v -47.28840256 17.70366096 68.00000000
v -47.04864502 17.85430908 68.00000000
v -46.78137589 17.94783020 68.00000000
v -46.50000000 17.97953415 68.00000000
v -46.21862411 17.94783020 68.00000000
v -45.95135498 17.85430908 68.00000000
v -45.71159744 17.70366096 68.00000000
v -45.51137543 17.50343704 68.00000000
v -45.36072540 17.26368141 68.00000000
v -45.26720428 16.99641228 68.00000000
v -45.23550034 16.71503448 68.00000000
v -45.26720428 16.43365669 68.00000000
v -45.36072540 16.16638947 68.00000000
v -45.51137543 15.92663193 68.00000000
v -45.71159744 15.72640896 68.00000000
v -45.95135498 15.57575989 68.00000000
v -46.50000000 25.45053482 61.00000000
v -46.78137589 25.48223877 61.00000000
v -47.04864502 25.57575989 61.00000000
v -47.28840256 25.72640800 61.00000000
v -47.48862457 25.92663193 61.00000000
v -47.63927460 26.16638947 61.00000000
v -47.73279572 26.43365669 61.00000000
v -47.76449966 26.71503448 61.00000000
v -47.73279572 26.99641228 61.00000000
v -47.63927460 27.26368141 61.00000000
v -47.48862457 27.50343704 61.00000000
v -47.28840256 27.70366096 61.00000000
v -47.04864502 27.85430908 61.00000000
v -46.78137589 27.94783020 61.00000000
v -46.50000000 27.97953415 61.00000000
v -46.21862411 27.94783020 61.00000000
v -45.95135498 27.85430908 61.00000000
v -45.71159744 27.70366096 61.00000000
v -45.51137543 27.50343704 61.00000000
v -45.36072540 27.26368141 61.00000000
v -45.26720428 26.99641228 61.00000000
v -45.23550034 26.71503448 61.00000000
v -45.26720428 26.43365669 61.00000000
v -45.36072540 26.16638947 61.00000000
v -45.51137543 25.92663193 61.00000000
v -45.71159744 25.72640800 61.00000000
v -45.95135498 25.57575989 61.00000000
v -46.21862411 25.48223877 61.00000000
v -46.21862411 27.94783020 64.50000000
v -46.50000000 27.97953415 64.50000000
v -46.78137589 27.94783020 64.50000000
v -47.04864502 27.85430908 64.50000000
v -47.28840256 27.70366096 64.50000000
v -47.48862457 27.50343704 64.50000000
v -47.63927460 27.26368141 64.50000000
v -47.73279572 26.99641228 64.50000000
v -47.76449966 26.71503448 64.50000000
v -47.73279572 26.43365669 64.50000000
v -47.63927460 26.16638947 64.50000000
v -47.48862457 25.92663193 64.50000000
v -47.28840256 25.72640800 64.50000000
v -47.04864502 25.57575989 64.50000000
v -46.78137589 25.48223877 64.50000000
v -46.50000000 25.45053482 64.50000000
v -46.21862411 25.48223877 64.50000000
v -45.95135498 25.57575989 64.50000000
v -45.71159744 25.72640800 64.50000000
v -45.51137543 25.92663193 64.50000000
v -45.36072540 26.16638947 64.50000000
v -45.26720428 26.43365669 64.50000000
v -45.23550034 26.71503448 64.50000000
v -45.26720428 26.99641228 64.50000000
v -45.36072540 27.26368141 64.50000000
v -45.51137543 27.50343704 64.50000000
v -45.71159744 27.70366096 64.50000000
v -45.95135498 27.85430908 64.50000000
v -46.21862411 25.48223877 68.00000000
v -46.50000000 25.45053482 68.00000000
v -46.78137589 25.48223877 68.00000000
v -47.04864502 25.57575989 68.00000000
v -47.28840256 25.72640800 68.00000000
v -47.48862457 25.92663193 68.00000000
v -47.63927460 26.16638947 68.00000000
v -47.73279572 26.43365669 68.00000000
v -47.76449966 26.71503448 68.00000000
v -47.73279572 26.99641228 68.00000000
v -47.63927460 27.26368141 68.00000000
v -47.48862457 27.50343704 68.00000000
v -47.28840256 27.70366096 68.00000000
v -47.04864502 27.85430908 68.00000000
v -46.78137589 27.94783020 68.00000000
v -46.50000000 27.97953415 68.00000000
v -46.21862411 27.94783020 68.00000000
v -45.95135498 27.85430908 68.00000000
v -45.71159744 27.70366096 68.00000000
v -45.51137543 27.50343704 68.00000000
v -45.36072540 27.26368141 68.00000000
v -45.26720428 26.99641228 68.00000000
v -45.23550034 26.71503448 68.00000000
v -45.26720428 26.43365669 68.00000000
v -45.36072540 26.16638947 68.00000000
v -45.51137543 25.92663193 68.00000000
v -45.71159744 25.72640800 68.00000000
v -45.95135498 25.57575989 68.00000000
v -46.21862411 25.48223877 68.00000000
v -46.50000000 25.45053482 68.00000000
v -46.78137589 25.48223877 68.00000000
v -47.04864502 25.57575989 68.00000000
v -47.28840256 25.72640800 68.00000000
v -47.48862457 25.92663193 68.00000000
v -47.63927460 26.16638947 68.00000000
v -47.73279572 26.43365669 68.00000000
v -47.76449966 26.71503448 68.00000000
v -47.73279572 26.99641228 68.00000000
v -47.63927460 27.26368141 68.00000000
v -47.48862457 27.50343704 68.00000000
v -47.28840256 27.70366096 68.00000000
v -47.04864502 27.85430908 68.00000000
v -46.78137589 27.94783020 68.00000000
v -46.50000000 27.97953415 68.00000000
v -46.21862411 27.94783020 68.00000000
v -45.95135498 27.85430908 68.00000000
v -45.71159744 27.70366096 68.00000000
v -45.51137543 27.50343704 68.00000000
v -45.36072540 27.26368141 68.00000000
v -45.26720428 26.99641228 68.00000000
v -45.23550034 26.71503448 68.00000000
v -45.26720428 26.43365669 68.00000000
v -45.36072540 26.16638947 68.00000000
v -45.51137543 25.92663193 68.00000000
v -45.71159744 25.72640800 68.00000000
v -45.95135498 25.57575989 68.00000000
v -39.00000000 31.71503448 58.00000000
v -39.00000000 31.71503448 63.00000000
v -44.00000000 31.71503448 63.00000000
v -49.00000000 31.71503448 58.00000000
v -49.00000000 31.71503448 103.00000000
v -44.00000000 31.71503448 103.00000000
v -39.00000000 11.71503448 58.00000000
v -39.00000000 11.71503448 63.00000000
v -44.00000000 11.71503448 63.00000000
v -49.00000000 11.71503448 58.00000000
v -49.00000000 11.71503448 103.00000000
v -44.00000000 11.71503448 103.00000000
v -49.00000000 11.71503448 103.00000000
v -49.00000000 31.71503448 103.00000000
v -44.00000000 31.71503448 103.00000000
v -44.00000000 11.71503448 103.00000000
v -49.00000000 24.79243660 92.65110016
v -49.00000000 24.76103401 93.00000000
v -49.00000000 24.79243660 93.34889984
v -49.00000000 24.88563156 93.68658447
v -49.00000000 25.03762627 94.00220490
v -49.00000000 25.24353218 94.28561401
v -49.00000000 25.49673653 94.52770233
v -49.00000000 25.78909492 94.72068024
v -49.00000000 26.11121559 94.85836792
v -49.00000000 26.45274353 94.93631744
v -49.00000000 26.80270004 94.95203400
v -49.00000000 27.14984131 94.90500641
v -49.00000000 27.48300552 94.79676056
v -49.00000000 27.79148674 94.63075256
v -49.00000000 28.06537056 94.41233826
v -49.00000000 28.29585457 94.14852905
v -49.00000000 28.47552872 93.84780884
v -49.00000000 28.59861755 93.51983643
v -49.00000000 28.66116905 93.17515564
v -49.00000000 28.66116905 92.82484436
v -49.00000000 28.59861755 92.48016357
v -49.00000000 28.47552872 92.15219116
v -49.00000000 28.29585457 91.85147095
v -49.00000000 28.06537056 91.58766174
v -49.00000000 27.79148674 91.36924744
v -49.00000000 27.48300552 91.20323944
v -49.00000000 27.14984131 91.09499359
v -49.00000000 26.80270004 91.04796600
v -49.00000000 26.45274353 91.06368256
v -49.00000000 26.11121559 91.14163208
v -49.00000000 25.78909492 91.27931976
v -49.00000000 25.49673653 91.47229767
v -49.00000000 25.24353218 91.71438599
v -49.00000000 25.03762627 91.99779510
v -49.00000000 24.88563156 92.31341553
v -49.00000000 11.71503448 58.00000000
v -49.00000000 31.71503448 58.00000000
v -49.00000000 11.71503448 103.00000000
v -49.00000000 31.71503448 103.00000000
v -44.00000000 24.79243660 93.34889984
v -44.00000000 24.76103401 93.00000000
v -44.00000000 24.79243660 92.65110016
v -44.00000000 24.88563156 92.31341553
v -44.00000000 25.03762627 91.99779510
v -44.00000000 25.24353218 91.71438599
v -44.00000000 25.49673653 91.47229767
v -44.00000000 25.78909492 91.27931976
v -44.00000000 26.11121559 91.14163208
v -44.00000000 26.45274353 91.06368256
v -44.00000000 26.80270004 91.04796600
v -44.00000000 27.14984131 91.09499359
v -44.00000000 27.48300552 91.20323944
v -44.00000000 27.79148674 91.36924744
v -44.00000000 28.06537056 91.58766174
v -44.00000000 28.29585457 91.85147095
v -44.00000000 28.47552872 92.15219116
v -44.00000000 28.59861755 92.48016357
v -44.00000000 28.66116905 92.82484436
v -44.00000000 28.66116905 93.17515564
v -44.00000000 28.59861755 93.51983643
v -44.00000000 28.47552872 93.84780884
v -44.00000000 28.29585457 94.14852905
v -44.00000000 28.06537056 94.41233826
v -44.00000000 27.79148674 94.63075256
v -44.00000000 27.48300552 94.79676056
v -44.00000000 27.14984131 94.90500641
v -44.00000000 26.80270004 94.95203400
v -44.00000000 26.45274353 94.93631744
v -44.00000000 26.11121559 94.85836792
v -44.00000000 25.78909492 94.72068024
v -44.00000000 25.49673653 94.52770233
v -44.00000000 25.24353218 94.28561401
v -44.00000000 25.03762627 94.00220490
v -44.00000000 24.88563156 93.68658447
v -44.00000000 11.71503448 63.00000000
v -44.00000000 31.71503448 63.00000000
v -44.00000000 31.71503448 103.00000000
v -44.00000000 11.71503448 103.00000000
f 1 2 3
f 3 2 4
f 3 4 5
f 5 4 6
f 5 6 7
f 7 6 8
f 7 8 9
f 9 8 10
f 9 10 11
f 11 10 12
f 11 12 13
f 13 12 14
f 13 14 15
f 15 14 16
f 15 16 17
f 17 16 18
f 17 18 19
f 19 18 20
f 19 20 21
f 21 20 22
f 21 22 23
f 23 22 24
f 23 24 25
f 25 24 26
f 25 26 27
f 27 26 28
f 27 28 29
f 29 28 30
f 29 30 31
f 31 30 32
f 31 32 33
f 33 32 34
f 33 34 35
f 35 34 36
f 35 36 37
f 37 36 38
f 37 38 39
f 39 38 40
f 39 40 41
f 41 40 42
f 41 42 43
f 43 42 44
f 43 44 45
f 45 44 46
f 45 46 47
f 47 46 48
f 47 48 49
f 49 48 50
f 49 50 51
f 51 50 52
f 51 52 53
f 53 52 54
f 53 54 55
f 55 54 56
f 55 56 57
f 57 56 58
f 57 58 59
f 59 58 60
f 59 60 61
f 61 60 62
f 61 62 63
f 63 62 64
f 63 64 65
f 65 64 66
f 65 66 67
f 67 66 68
f 67 68 69
f 69 68 70
f 69 70 1
f 1 70 2
f 71 72 73
f 73 72 74
f 73 74 75
f 75 74 76
f 75 76 77
f 77 76 78
f 77 78 79
f 79 78 80
f 79 80 81
f 81 80 82
f 81 82 83
f 83 82 84
f 83 84 85
f 85 84 86
f 85 86 87
f 87 86 88
f 87 88 89
f 89 88 90
f 89 90 91
f 91 90 92
f 91 92 93
f 93 92 94
f 93 94 95
f 95 94 96
f 95 96 97
f 97 96 98
f 97 98 99
f 99 98 100
f 99 100 101
f 101 100 102
f 101 102 103
f 103 102 104
f 103 104 105
f 105 104 106
f 105 106 107
f 107 106 108
f 107 108 109
f 109 108 110
f 109 110 111
f 111 110 112
f 111 112 113
f 113 112 114
f 113 114 115
f 115 114 116
f 115 116 117
f 117 116 118
f 117 118 119
f 119 118 120
f 119 120 121
f 121 120 122
f 121 122 123
f 123 122 124
f 123 124 125
f 125 124 126
f 125 126 127
f 127 126 128
f 127 128 129
f 129 128 130
f 129 130 131
f 131 130 132
f 131 132 133
f 133 132 134
f 133 134 135
f 135 134 136
f 135 136 137
f 137 136 138
f 137 138 139
f 139 138 140
f 139 140 71
f 71 140 72
f 141 142 143
f 144 142 145
f 146 142 147
f 146 148 142
f 148 149 142
f 149 150 142
f 150 151 142
f 151 152 142
f 152 153 142
f 142 153 154
f 154 155 142
f 156 142 157
f 158 142 159
f 158 160 142
f 160 161 142
f 161 162 142
f 162 163 142
f 163 164 142
f 164 165 142
f 142 165 166
f 166 167 142
f 167 168 142
f 168 169 142
f 169 170 142
f 170 171 142
f 142 171 143
f 145 142 141
f 159 142 156
f 157 142 155
f 147 142 144
f 172 173 174
f 174 173 175
f 174 175 176
f 176 175 177
f 176 177 178
f 178 177 179
f 178 179 180
f 180 179 181
f 180 181 182
f 182 181 183
f 182 183 184
f 184 183 185
f 184 185 186
f 186 185 187
f 187 185 188
f 187 188 189
f 189 188 190
f 189 190 191
f 191 190 192
f 191 192 193
f 193 192 194
f 193 194 195
f 195 194 196
f 195 196 197
f 197 196 198
f 197 198 199
f 199 198 200
f 199 200 201
f 201 200 202
f 201 202 203
f 203 202 204
f 203 204 205
f 205 204 206
f 205 206 207
f 207 206 208
f 207 208 209
f 173 172 210
f 210 172 211
f 210 211 212
f 212 211 213
f 212 213 214
f 214 213 215
f 214 215 216
f 216 215 217
f 216 217 218
f 218 217 219
f 218 219 204
f 204 219 206
f 215 220 217
f 217 220 208
f 217 208 219
f 219 208 206
f 221 222 209
f 209 222 223
f 209 223 207
f 207 223 224
f 207 224 205
f 205 224 225
f 205 225 203
f 203 225 226
f 203 226 201
f 201 226 227
f 201 227 199
f 199 227 228
f 199 228 197
f 197 228 229
f 197 229 195
f 195 229 230
f 195 230 193
f 193 230 231
f 193 231 191
f 191 231 232
f 191 232 189
f 189 232 233
f 189 233 187
f 234 235 221
f 221 235 236
f 221 236 222
f 222 236 237
f 222 237 238
f 238 237 239
f 238 239 240
f 240 239 241
f 240 241 242
f 242 241 243
f 242 243 244
f 244 243 245
f 244 245 246
f 246 245 247
f 246 247 248
f 248 247 249
f 248 249 250
f 250 249 251
f 250 251 252
f 252 251 253
f 252 253 254
f 254 253 233
f 254 233 232
f 255 256 234
f 234 256 257
f 234 257 235
f 235 257 236
f 256 255 258
f 258 255 259
f 258 259 260
f 260 259 261
f 260 261 262
f 262 261 263
f 262 263 264
f 262 264 265
f 265 264 266
f 265 266 267
f 267 266 268
f 267 268 269
f 269 268 270
f 269 270 271
f 271 270 272
f 271 272 273
f 273 272 274
f 273 274 251
f 251 274 253
f 272 275 274
f 274 275 253
f 275 233 253
f 186 182 184
f 212 214 276
f 276 214 216
f 276 216 277
f 277 216 218
f 277 218 202
f 202 218 204
f 210 212 278
f 278 212 276
f 278 276 279
f 279 276 277
f 279 277 200
f 200 277 202
f 173 210 280
f 280 210 278
f 280 278 281
f 281 278 279
f 281 279 198
f 198 279 200
f 175 173 282
f 282 173 280
f 282 280 283
f 283 280 281
f 283 281 196
f 196 281 198
f 177 175 284
f 284 175 282
f 284 282 285
f 285 282 283
f 285 283 194
f 194 283 196
f 183 181 179
f 179 177 286
f 286 177 284
f 286 284 287
f 287 284 285
f 287 285 192
f 192 285 194
f 179 286 183
f 183 286 288
f 183 288 185
f 185 288 188
f 288 286 287
f 288 287 190
f 190 287 192
f 190 188 288
f 252 254 231
f 231 254 232
f 250 252 230
f 230 252 231
f 248 250 229
f 229 250 230
f 246 248 228
f 228 248 229
f 244 246 227
f 227 246 228
f 242 244 226
f 226 244 227
f 240 242 225
f 225 242 226
f 238 240 224
f 224 240 225
f 222 238 223
f 223 238 224
f 251 249 273
f 273 249 289
f 273 289 271
f 271 289 269
f 249 247 289
f 289 247 290
f 289 290 269
f 269 290 267
f 247 245 290
f 290 245 291
f 290 291 267
f 267 291 265
f 245 243 291
f 291 243 292
f 291 292 265
f 265 292 262
f 243 241 292
f 292 241 293
f 292 293 262
f 262 293 260
f 241 239 293
f 293 239 294
f 293 294 260
f 260 294 258
f 239 237 294
f 294 237 257
f 294 257 258
f 258 257 256
f 237 236 257
f 330 295 331
f 331 295 296
f 331 296 297
f 295 330 329
f 329 330 332
f 329 332 328
f 328 332 333
f 328 333 327
f 327 333 334
f 327 334 326
f 326 334 335
f 326 335 325
f 325 335 336
f 325 336 324
f 324 336 337
f 324 337 323
f 323 337 338
f 323 338 322
f 322 338 339
f 322 339 321
f 321 339 340
f 321 340 320
f 320 340 341
f 320 341 319
f 319 341 318
f 318 341 342
f 318 342 317
f 317 342 343
f 317 343 316
f 316 343 344
f 316 344 315
f 315 344 345
f 315 345 314
f 314 345 346
f 314 346 313
f 313 346 347
f 313 347 312
f 312 347 348
f 312 348 311
f 311 348 349
f 311 349 310
f 310 349 350
f 310 350 309
f 309 350 351
f 309 351 308
f 308 351 307
f 307 351 352
f 307 352 306
f 306 352 353
f 306 353 305
f 305 353 354
f 305 354 304
f 304 354 355
f 304 355 303
f 303 355 356
f 303 356 302
f 302 356 357
f 302 357 301
f 301 357 358
f 301 358 300
f 300 358 359
f 300 359 299
f 299 359 360
f 299 360 298
f 298 360 361
f 298 361 297
f 297 361 331
f 397 380 398
f 398 380 381
f 398 381 399
f 399 381 382
f 399 382 400
f 400 382 383
f 400 383 401
f 401 383 384
f 401 384 402
f 402 384 385
f 402 385 403
f 403 385 386
f 403 386 387
f 380 397 379
f 379 397 404
f 379 404 378
f 378 404 405
f 378 405 377
f 377 405 406
f 377 406 376
f 376 406 407
f 376 407 375
f 375 407 374
f 374 407 408
f 374 408 373
f 373 408 409
f 373 409 372
f 372 409 410
f 372 410 371
f 371 410 411
f 371 411 370
f 370 411 412
f 370 412 369
f 369 412 413
f 369 413 368
f 368 413 414
f 368 414 367
f 367 414 415
f 367 415 366
f 366 415 416
f 366 416 365
f 365 416 417
f 365 417 364
f 364 417 418
f 364 418 363
f 363 418 362
f 362 418 419
f 362 419 396
f 396 419 420
f 396 420 395
f 395 420 421
f 395 421 394
f 394 421 422
f 394 422 393
f 393 422 423
f 393 423 392
f 392 423 424
f 392 424 391
f 391 424 425
f 391 425 390
f 390 425 426
f 390 426 389
f 389 426 427
f 389 427 388
f 388 427 428
f 388 428 387
f 387 428 403
f 431 461 430
f 430 461 462
f 430 462 429
f 429 462 436
f 436 462 437
f 437 462 438
f 438 462 439
f 439 462 463
f 439 463 440
f 440 463 441
f 441 463 442
f 442 463 443
f 443 463 444
f 444 463 445
f 445 463 464
f 445 464 446
f 446 464 447
f 447 464 448
f 448 464 449
f 449 464 450
f 450 464 465
f 450 465 451
f 451 465 452
f 452 465 453
f 453 465 454
f 454 465 455
f 455 465 466
f 455 466 456
f 456 466 457
f 457 466 458
f 458 466 459
f 459 466 460
f 460 466 435
f 435 466 461
f 435 461 434
f 434 461 433
f 433 461 432
f 432 461 431
f 525 476 495
f 495 476 475
f 495 475 494
f 494 475 480
f 494 480 496
f 496 480 497
f 497 480 479
f 497 479 498
f 498 479 478
f 498 478 499
f 499 478 477
f 499 477 500
f 500 477 467
f 500 467 501
f 501 467 468
f 501 468 502
f 502 468 503
f 503 468 469
f 503 469 504
f 504 469 470
f 504 470 505
f 505 470 471
f 505 471 506
f 506 471 472
f 506 472 507
f 507 472 473
f 507 473 508
f 508 473 509
f 509 473 474
f 509 474 510
f 510 474 482
f 510 482 511
f 511 482 493
f 511 493 512
f 512 493 492
f 512 492 513
f 513 492 491
f 513 491 514
f 514 491 490
f 514 490 515
f 515 490 516
f 516 490 489
f 516 489 517
f 517 489 488
f 517 488 518
f 518 488 487
f 518 487 519
f 519 487 486
f 519 486 520
f 520 486 485
f 520 485 521
f 521 485 522
f 522 485 484
f 522 484 523
f 523 484 483
f 523 483 524
f 524 483 481
f 524 481 525
f 525 481 476
f 529 528 526
f 526 528 527
f 526 527 530
f 535 533 531
f 531 533 532
f 531 532 534
f 540 538 536
f 536 538 537
f 536 537 539
f 545 542 541
f 541 542 543
f 541 543 544
f 550 548 546
f 546 548 547
f 546 547 549
f 554 553 551
f 551 553 552
f 551 552 555
f 556 562 557
f 557 562 558
f 558 562 559
f 559 562 561
f 561 562 560
f 563 569 565
f 565 569 564
f 564 569 566
f 566 569 567
f 567 569 568
f 570 576 571
f 571 576 572
f 572 576 573
f 573 576 574
f 574 576 575
f 578 583 579
f 579 583 580
f 580 583 581
f 581 583 582
f 582 583 577
f 585 590 584
f 584 590 587
f 587 590 586
f 586 590 589
f 589 590 588
f 591 597 592
f 592 597 593
f 593 597 594
f 594 597 595
f 595 597 596
f 598 599 600
f 600 599 601
f 600 601 602
f 602 601 603
f 602 603 604
f 604 603 605
f 604 605 606
f 606 605 607
f 606 607 608
f 608 607 609
f 609 607 610
f 609 610 611
f 611 610 612
f 611 612 613
f 613 612 614
f 613 614 615
f 615 614 616
f 615 616 617
f 617 616 618
f 617 618 619
f 619 618 620
f 619 620 621
f 621 620 622
f 622 620 623
f 622 623 624
f 624 623 625
f 624 625 626
f 626 625 627
f 626 627 628
f 628 627 629
f 628 629 630
f 630 629 631
f 630 631 632
f 632 631 633
f 632 633 634
f 634 633 635
f 634 635 636
f 636 635 637
f 637 635 638
f 637 638 639
f 639 638 640
f 639 640 641
f 641 640 642
f 641 642 643
f 643 642 644
f 643 644 645
f 645 644 646
f 645 646 647
f 647 646 648
f 647 648 649
f 649 648 650
f 649 650 651
f 651 650 652
f 652 650 653
f 652 653 654
f 654 653 655
f 654 655 656
f 656 655 657
f 656 657 658
f 658 657 659
f 658 659 660
f 660 659 661
f 660 661 662
f 662 661 663
f 662 663 664
f 664 663 665
f 665 663 666
f 665 666 667
f 667 666 668
f 667 668 598
f 598 668 599
f 707 669 708
f 708 669 670
f 708 670 709
f 709 670 671
f 709 671 710
f 710 671 672
f 710 672 711
f 711 672 673
f 711 673 712
f 712 673 674
f 712 674 713
f 713 674 675
f 713 675 714
f 714 675 676
f 714 676 715
f 715 676 677
f 715 677 716
f 716 677 678
f 716 678 717
f 717 678 679
f 717 679 718
f 718 679 680
f 718 680 719
f 719 680 681
f 719 681 720
f 720 681 682
f 720 682 721
f 721 682 683
f 721 683 722
f 722 683 684
f 722 684 723
f 723 684 685
f 723 685 724
f 724 685 686
f 724 686 725
f 725 686 687
f 725 687 726
f 726 687 688
f 726 688 727
f 727 688 689
f 727 689 728
f 728 689 690
f 728 690 729
f 729 690 691
f 729 691 730
f 730 691 692
f 730 692 731
f 731 692 693
f 731 693 732
f 732 693 694
f 732 694 733
f 733 694 695
f 733 695 734
f 734 695 696
f 734 696 735
f 735 696 697
f 735 697 736
f 736 697 698
f 736 698 737
f 737 698 699
f 737 699 738
f 738 699 700
f 738 700 739
f 739 700 701
f 739 701 740
f 740 701 702
f 740 702 741
f 741 702 703
f 741 703 742
f 742 703 704
f 742 704 743
f 743 704 705
f 743 705 744
f 744 705 706
f 744 706 707
f 707 706 669
f 778 763 779
f 779 763 762
f 779 762 780
f 780 762 761
f 780 761 760
f 778 781 763
f 763 781 764
f 764 781 782
f 764 782 765
f 765 782 783
f 765 783 766
f 766 783 784
f 766 784 767
f 767 784 785
f 767 785 768
f 768 785 786
f 768 786 769
f 769 786 787
f 769 787 770
f 770 787 788
f 770 788 771
f 771 788 789
f 771 789 772
f 772 789 790
f 772 790 773
f 773 790 791
f 773 791 774
f 774 791 792
f 774 792 775
f 775 792 793
f 775 793 776
f 776 793 794
f 776 794 777
f 777 794 795
f 777 795 745
f 745 795 796
f 745 796 746
f 746 796 797
f 746 797 747
f 747 797 798
f 747 798 748
f 748 798 799
f 748 799 749
f 749 799 800
f 749 800 750
f 750 800 801
f 750 801 751
f 751 801 802
f 751 802 752
f 752 802 803
f 752 803 753
f 753 803 804
f 753 804 754
f 754 804 805
f 754 805 755
f 755 805 806
f 755 806 756
f 756 806 807
f 756 807 757
f 757 807 808
f 757 808 758
f 758 808 809
f 758 809 759
f 759 809 810
f 759 810 760
f 760 810 780
f 811 812 813
f 813 812 814
f 813 814 815
f 815 814 816
f 815 816 817
f 817 816 818
f 817 818 819
f 819 818 820
f 819 820 821
f 819 821 822
f 822 821 823
f 822 823 824
f 824 823 825
f 824 825 826
f 826 825 827
f 826 827 828
f 826 828 829
f 829 828 830
f 829 830 831
f 831 830 832
f 831 832 833
f 831 833 834
f 834 833 835
f 834 835 836
f 836 835 837
f 836 837 838
f 838 837 839
f 838 839 840
f 838 840 841
f 841 840 842
f 841 842 843
f 843 842 844
f 843 844 845
f 845 844 846
f 845 846 847
f 845 847 848
f 848 847 849
f 848 849 850
f 850 849 851
f 850 851 852
f 852 851 853
f 852 853 854
f 852 854 855
f 855 854 856
f 855 856 857
f 857 856 858
f 857 858 859
f 859 858 860
f 859 860 861
f 859 861 862
f 862 861 863
f 862 863 864
f 864 863 865
f 864 865 866
f 864 866 867
f 867 866 868
f 867 868 869
f 869 868 870
f 869 870 871
f 871 870 872
f 871 872 873
f 871 873 874
f 874 873 875
f 874 875 876
f 876 875 811
f 876 811 813
f 915 879 916
f 916 879 878
f 916 878 917
f 917 878 877
f 917 877 918
f 918 877 914
f 918 914 919
f 919 914 913
f 919 913 920
f 920 913 912
f 920 912 921
f 921 912 911
f 921 911 922
f 922 911 910
f 922 910 923
f 923 910 909
f 923 909 924
f 924 909 908
f 924 908 925
f 925 908 907
f 925 907 926
f 926 907 906
f 926 906 927
f 927 906 905
f 927 905 928
f 928 905 904
f 928 904 929
f 929 904 903
f 929 903 930
f 930 903 902
f 930 902 931
f 931 902 901
f 931 901 932
f 932 901 900
f 932 900 933
f 933 900 899
f 933 899 934
f 934 899 898
f 934 898 935
f 935 898 897
f 935 897 936
f 936 897 896
f 936 896 937
f 937 896 895
f 937 895 938
f 938 895 894
f 938 894 939
f 939 894 893
f 939 893 940
f 940 893 892
f 940 892 941
f 941 892 891
f 941 891 942
f 942 891 890
f 942 890 943
f 943 890 889
f 943 889 944
f 944 889 888
f 944 888 945
f 945 888 887
f 945 887 946
f 946 887 886
f 946 886 947
f 947 886 885
f 947 885 948
f 948 885 884
f 948 884 949
f 949 884 883
f 949 883 950
f 950 883 882
f 950 882 951
f 951 882 881
f 951 881 952
f 952 881 880
f 952 880 915
f 915 880 879
f 953 954 955
f 955 954 956
f 955 956 957
f 957 956 958
f 957 958 959
f 959 958 960
f 959 960 961
f 961 960 962
f 961 962 963
f 961 963 964
f 964 963 965
f 964 965 966
f 966 965 967
f 966 967 968
f 968 967 969
f 968 969 970
f 968 970 971
f 971 970 972
f 971 972 973
f 973 972 974
f 973 974 975
f 973 975 976
f 976 975 977
f 976 977 978
f 978 977 979
f 978 979 980
f 980 979 981
f 980 981 982
f 980 982 983
f 983 982 984
f 983 984 985
f 985 984 986
f 985 986 987
f 987 986 988
f 987 988 989
f 987 989 990
f 990 989 991
f 990 991 992
f 992 991 993
f 992 993 994
f 994 993 995
f 994 995 996
f 994 996 997
f 997 996 998
f 997 998 999
f 999 998 1000
f 999 1000 1001
f 1001 1000 1002
f 1001 1002 1003
f 1001 1003 1004
f 1004 1003 1005
f 1004 1005 1006
f 1006 1005 1007
f 1006 1007 1008
f 1006 1008 1009
f 1009 1008 1010
f 1009 1010 1011
f 1011 1010 1012
f 1011 1012 1013
f 1013 1012 1014
f 1013 1014 1015
f 1013 1015 1016
f 1016 1015 1017
f 1016 1017 1018
f 1018 1017 953
f 1018 953 955
f 1057 1021 1058
f 1058 1021 1020
f 1058 1020 1059
f 1059 1020 1019
f 1059 1019 1060
f 1060 1019 1056
f 1060 1056 1061
f 1061 1056 1055
f 1061 1055 1062
f 1062 1055 1054
f 1062 1054 1063
f 1063 1054 1053
f 1063 1053 1064
f 1064 1053 1052
f 1064 1052 1065
f 1065 1052 1051
f 1065 1051 1066
f 1066 1051 1050
f 1066 1050 1067
f 1067 1050 1049
f 1067 1049 1068
f 1068 1049 1048
f 1068 1048 1069
f 1069 1048 1047
f 1069 1047 1070
f 1070 1047 1046
f 1070 1046 1071
f 1071 1046 1045
f 1071 1045 1072
f 1072 1045 1044
f 1072 1044 1073
f 1073 1044 1043
f 1073 1043 1074
f 1074 1043 1042
f 1074 1042 1075
f 1075 1042 1041
f 1075 1041 1076
f 1076 1041 1040
f 1076 1040 1077
f 1077 1040 1039
f 1077 1039 1078
f 1078 1039 1038
f 1078 1038 1079
f 1079 1038 1037
f 1079 1037 1080
f 1080 1037 1036
f 1080 1036 1081
f 1081 1036 1035
f 1081 1035 1082
f 1082 1035 1034
f 1082 1034 1083
f 1083 1034 1033
f 1083 1033 1084
f 1084 1033 1032
f 1084 1032 1085
f 1085 1032 1031
f 1085 1031 1086
f 1086 1031 1030
f 1086 1030 1087
f 1087 1030 1029
f 1087 1029 1088
f 1088 1029 1028
f 1088 1028 1089
f 1089 1028 1027
f 1089 1027 1090
f 1090 1027 1026
f 1090 1026 1091
f 1091 1026 1025
f 1091 1025 1092
f 1092 1025 1024
f 1092 1024 1093
f 1093 1024 1023
f 1093 1023 1094
f 1094 1023 1022
f 1094 1022 1057
f 1057 1022 1021
f 1095 1096 1097
f 1097 1096 1098
f 1139 1128 1140
f 1140 1128 1129
f 1140 1129 1130
f 1137 1119 1139
f 1139 1119 1120
f 1139 1120 1121
f 1138 1110 1137
f 1137 1110 1111
f 1137 1111 1112
f 1140 1100 1138
f 1138 1100 1101
f 1138 1101 1102
f 1102 1103 1138
f 1138 1103 1104
f 1138 1104 1105
f 1105 1106 1138
f 1138 1106 1107
f 1138 1107 1108
f 1108 1109 1138
f 1138 1109 1110
f 1112 1113 1137
f 1137 1113 1114
f 1137 1114 1115
f 1115 1116 1137
f 1137 1116 1117
f 1137 1117 1118
f 1118 1119 1137
f 1121 1122 1139
f 1139 1122 1123
f 1139 1123 1124
f 1124 1125 1139
f 1139 1125 1126
f 1139 1126 1127
f 1127 1128 1139
f 1130 1131 1140
f 1140 1131 1132
f 1140 1132 1133
f 1133 1134 1140
f 1140 1134 1135
f 1140 1135 1136
f 1136 1099 1140
f 1140 1099 1100
f 1143 1185 1142
f 1142 1185 1186
f 1142 1186 1141
f 1141 1186 1144
f 1144 1186 1187
f 1144 1187 1145
f 1145 1187 1188
f 1145 1188 1146
f 1146 1188 1189
f 1146 1189 1218
f 1218 1189 1217
f 1217 1189 1190
f 1217 1190 1216
f 1216 1190 1191
f 1216 1191 1215
f 1215 1191 1192
f 1215 1192 1214
f 1214 1192 1193
f 1214 1193 1194
f 1185 1143 1250
f 1250 1143 1173
f 1250 1173 1172
f 1172 1171 1250
f 1250 1171 1170
f 1250 1170 1169
f 1169 1168 1250
f 1250 1168 1167
f 1250 1167 1251
f 1251 1167 1166
f 1251 1166 1165
f 1165 1164 1251
f 1251 1164 1163
f 1251 1163 1162
f 1162 1161 1251
f 1251 1161 1160
f 1251 1160 1159
f 1159 1158 1251
f 1251 1158 1157
f 1251 1157 1156
f 1251 1156 1228
f 1228 1156 1155
f 1228 1155 1227
f 1227 1155 1154
f 1227 1154 1226
f 1226 1154 1153
f 1226 1153 1225
f 1225 1153 1152
f 1225 1152 1224
f 1224 1152 1151
f 1224 1151 1223
f 1223 1151 1150
f 1223 1150 1222
f 1222 1150 1149
f 1222 1149 1221
f 1221 1149 1148
f 1221 1148 1220
f 1220 1148 1147
f 1220 1147 1219
f 1219 1147 1146
f 1219 1146 1218
f 1174 1175 1252
f 1252 1175 1176
f 1252 1176 1177
f 1252 1177 1250
f 1250 1177 1178
f 1250 1178 1179
f 1179 1180 1250
f 1250 1180 1181
f 1250 1181 1182
f 1182 1183 1250
f 1250 1183 1184
f 1250 1184 1185
f 1195 1212 1194
f 1194 1212 1213
f 1194 1213 1214
f 1212 1195 1249
f 1249 1195 1196
f 1249 1196 1248
f 1248 1196 1197
f 1248 1197 1247
f 1247 1197 1198
f 1247 1198 1246
f 1246 1198 1199
f 1246 1199 1245
f 1245 1199 1200
f 1245 1200 1244
f 1244 1200 1201
f 1244 1201 1243
f 1243 1201 1202
f 1243 1202 1242
f 1242 1202 1203
f 1242 1203 1253
f 1253 1203 1252
f 1252 1203 1204
f 1252 1204 1205
f 1205 1206 1252
f 1252 1206 1207
f 1252 1207 1208
f 1208 1209 1252
f 1252 1209 1210
f 1252 1210 1211
f 1211 1174 1252
f 1228 1229 1251
f 1251 1229 1230
f 1251 1230 1253
f 1253 1230 1231
f 1253 1231 1232
f 1232 1233 1253
f 1253 1233 1234
f 1253 1234 1235
f 1235 1236 1253
f 1253 1236 1237
f 1253 1237 1238
f 1238 1239 1253
f 1253 1239 1240
f 1253 1240 1241
f 1241 1242 1253
f 1269 1282 1268
f 1268 1282 1283
f 1268 1283 1267
f 1267 1283 1284
f 1267 1284 1266
f 1266 1284 1285
f 1266 1285 1265
f 1265 1285 1286
f 1265 1286 1264
f 1264 1286 1287
f 1264 1287 1263
f 1263 1287 1288
f 1263 1288 1262
f 1262 1288 1289
f 1262 1289 1261
f 1261 1289 1290
f 1261 1290 1260
f 1260 1290 1291
f 1260 1291 1259
f 1259 1291 1292
f 1259 1292 1258
f 1258 1292 1293
f 1258 1293 1257
f 1257 1293 1294
f 1257 1294 1256
f 1256 1294 1295
f 1256 1295 1255
f 1255 1295 1296
f 1255 1296 1254
f 1254 1296 1297
f 1254 1297 1281
f 1281 1297 1298
f 1281 1298 1280
f 1280 1298 1299
f 1280 1299 1279
f 1279 1299 1300
f 1279 1300 1278
f 1278 1300 1301
f 1278 1301 1277
f 1277 1301 1302
f 1277 1302 1276
f 1276 1302 1303
f 1276 1303 1275
f 1275 1303 1304
f 1275 1304 1274
f 1274 1304 1305
f 1274 1305 1273
f 1273 1305 1306
f 1273 1306 1272
f 1272 1306 1307
f 1272 1307 1271
f 1271 1307 1308
f 1271 1308 1270
f 1270 1308 1309
f 1270 1309 1269
f 1269 1309 1282
f 1310 1298 1311
f 1311 1298 1297
f 1311 1297 1312
f 1312 1297 1296
f 1312 1296 1313
f 1313 1296 1295
f 1313 1295 1314
f 1314 1295 1294
f 1314 1294 1315
f 1315 1294 1293
f 1315 1293 1316
f 1316 1293 1292
f 1316 1292 1317
f 1317 1292 1291
f 1317 1291 1318
f 1318 1291 1290
f 1318 1290 1319
f 1319 1290 1289
f 1319 1289 1320
f 1320 1289 1288
f 1320 1288 1321
f 1321 1288 1287
f 1321 1287 1322
f 1322 1287 1286
f 1322 1286 1323
f 1323 1286 1285
f 1323 1285 1324
f 1324 1285 1284
f 1324 1284 1325
f 1325 1284 1283
f 1325 1283 1326
f 1326 1283 1282
f 1326 1282 1327
f 1327 1282 1309
f 1327 1309 1328
f 1328 1309 1308
f 1328 1308 1329
f 1329 1308 1307
f 1329 1307 1330
f 1330 1307 1306
f 1330 1306 1331
f 1331 1306 1305
f 1331 1305 1332
f 1332 1305 1304
f 1332 1304 1333
f 1333 1304 1303
f 1333 1303 1334
f 1334 1303 1302
f 1334 1302 1335
f 1335 1302 1301
f 1335 1301 1336
f 1336 1301 1300
f 1336 1300 1337
f 1337 1300 1299
f 1337 1299 1310
f 1310 1299 1298
f 1340 1352 1339
f 1339 1352 1353
f 1339 1353 1338
f 1338 1353 1354
f 1338 1354 1365
f 1365 1354 1355
f 1365 1355 1364
f 1364 1355 1356
f 1364 1356 1363
f 1363 1356 1357
f 1363 1357 1362
f 1362 1357 1358
f 1362 1358 1361
f 1361 1358 1359
f 1361 1359 1360
f 1352 1340 1351
f 1351 1340 1341
f 1351 1341 1350
f 1350 1341 1342
f 1350 1342 1349
f 1349 1342 1343
f 1349 1343 1348
f 1348 1343 1344
f 1348 1344 1347
f 1347 1344 1345
f 1347 1345 1346
f 1381 1394 1380
f 1380 1394 1395
f 1380 1395 1379
f 1379 1395 1396
f 1379 1396 1378
f 1378 1396 1397
f 1378 1397 1377
f 1377 1397 1398
f 1377 1398 1376
f 1376 1398 1399
f 1376 1399 1375
f 1375 1399 1400
f 1375 1400 1374
f 1374 1400 1401
f 1374 1401 1373
f 1373 1401 1402
f 1373 1402 1372
f 1372 1402 1403
f 1372 1403 1371
f 1371 1403 1404
f 1371 1404 1370
f 1370 1404 1405
f 1370 1405 1369
f 1369 1405 1406
f 1369 1406 1368
f 1368 1406 1407
f 1368 1407 1367
f 1367 1407 1408
f 1367 1408 1366
f 1366 1408 1409
f 1366 1409 1393
f 1393 1409 1410
f 1393 1410 1392
f 1392 1410 1411
f 1392 1411 1391
f 1391 1411 1412
f 1391 1412 1390
f 1390 1412 1413
f 1390 1413 1389
f 1389 1413 1414
f 1389 1414 1388
f 1388 1414 1415
f 1388 1415 1387
f 1387 1415 1416
f 1387 1416 1386
f 1386 1416 1417
f 1386 1417 1385
f 1385 1417 1418
f 1385 1418 1384
f 1384 1418 1419
f 1384 1419 1383
f 1383 1419 1420
f 1383 1420 1382
f 1382 1420 1421
f 1382 1421 1381
f 1381 1421 1394
f 1422 1410 1423
f 1423 1410 1409
f 1423 1409 1424
f 1424 1409 1408
f 1424 1408 1425
f 1425 1408 1407
f 1425 1407 1426
f 1426 1407 1406
f 1426 1406 1427
f 1427 1406 1405
f 1427 1405 1428
f 1428 1405 1404
f 1428 1404 1429
f 1429 1404 1403
f 1429 1403 1430
f 1430 1403 1402
f 1430 1402 1431
f 1431 1402 1401
f 1431 1401 1432
f 1432 1401 1400
f 1432 1400 1433
f 1433 1400 1399
f 1433 1399 1434
f 1434 1399 1398
f 1434 1398 1435
f 1435 1398 1397
f 1435 1397 1436
f 1436 1397 1396
f 1436 1396 1437
f 1437 1396 1395
f 1437 1395 1438
f 1438 1395 1394
f 1438 1394 1439
f 1439 1394 1421
f 1439 1421 1440
f 1440 1421 1420
f 1440 1420 1441
f 1441 1420 1419
f 1441 1419 1442
f 1442 1419 1418
f 1442 1418 1443
f 1443 1418 1417
f 1443 1417 1444
f 1444 1417 1416
f 1444 1416 1445
f 1445 1416 1415
f 1445 1415 1446
f 1446 1415 1414
f 1446 1414 1447
f 1447 1414 1413
f 1447 1413 1448
f 1448 1413 1412
f 1448 1412 1449
f 1449 1412 1411
f 1449 1411 1422
f 1422 1411 1410
f 1452 1464 1451
f 1451 1464 1465
f 1451 1465 1450
f 1450 1465 1466
f 1450 1466 1477
f 1477 1466 1467
f 1477 1467 1476
f 1476 1467 1468
f 1476 1468 1475
f 1475 1468 1469
f 1475 1469 1474
f 1474 1469 1470
f 1474 1470 1473
f 1473 1470 1471
f 1473 1471 1472
f 1464 1452 1463
f 1463 1452 1453
f 1463 1453 1462
f 1462 1453 1454
f 1462 1454 1461
f 1461 1454 1455
f 1461 1455 1460
f 1460 1455 1456
f 1460 1456 1459
f 1459 1456 1457
f 1459 1457 1458
f 1478 1481 1480
f 1480 1481 1482
f 1480 1482 1483
f 1480 1479 1478
f 1489 1488 1486
f 1486 1488 1487
f 1486 1487 1484
f 1484 1485 1486
f 1493 1492 1490
f 1490 1492 1491
f 1529 1528 1527
f 1529 1494 1528
f 1531 1494 1529
f 1530 1525 1524
f 1496 1495 1531
f 1529 1525 1530
f 1529 1526 1525
f 1527 1526 1529
f 1530 1524 1523
f 1523 1522 1530
f 1530 1522 1521
f 1531 1495 1494
f 1509 1508 1532
f 1532 1508 1507
f 1532 1507 1506
f 1506 1505 1532
f 1520 1519 1530
f 1530 1519 1518
f 1530 1518 1517
f 1517 1516 1530
f 1530 1516 1515
f 1530 1515 1514
f 1530 1514 1532
f 1532 1514 1513
f 1532 1513 1512
f 1512 1511 1532
f 1532 1511 1510
f 1530 1521 1520
f 1532 1502 1501
f 1503 1502 1532
f 1531 1497 1496
f 1498 1497 1531
f 1531 1499 1498
f 1531 1500 1499
f 1532 1500 1531
f 1532 1501 1500
f 1532 1504 1503
f 1532 1505 1504
f 1532 1510 1509
f 1568 1536 1535
f 1558 1557 1570
f 1552 1551 1570
f 1570 1553 1552
f 1570 1554 1553
f 1570 1557 1556
f 1549 1548 1569
f 1569 1550 1549
f 1569 1551 1550
f 1569 1542 1541
f 1570 1556 1555
f 1569 1544 1543
f 1569 1539 1568
f 1543 1542 1569
f 1569 1541 1540
f 1537 1536 1568
f 1569 1547 1546
f 1570 1559 1558
f 1570 1560 1559
f 1561 1560 1570
f 1570 1562 1561
f 1571 1563 1570
f 1555 1554 1570
f 1546 1545 1569
f 1570 1551 1569
f 1540 1539 1569
f 1568 1538 1537
f 1568 1539 1538
f 1569 1545 1544
f 1569 1548 1547
f 1568 1535 1571
f 1571 1533 1567
f 1535 1534 1571
f 1571 1534 1533
f 1571 1566 1565
f 1567 1566 1571
f 1571 1565 1564
f 1564 1563 1571
f 1570 1563 1562

