# https://github.com/mikedh/trimesh

o M_Right1_1.stl
v -19.61579323 114.30897522 48.00000000
v -19.61579323 114.30897522 43.00000000
v -20.00000000 114.26406860 48.00000000
v -20.00000000 114.26406860 43.00000000
v -20.38420677 114.30897522 48.00000000
v -20.38420677 114.30897522 43.00000000
v -20.74769974 114.44127655 48.00000000
v -20.74769974 114.44127655 43.00000000
v -21.07088470 114.65383911 48.00000000
v -21.07088470 114.65383911 43.00000000
v -21.33633804 114.93520355 48.00000000
v -21.33633804 114.93520355 43.00000000
v -21.52974892 115.27020264 48.00000000
v -21.52974892 115.27020264 43.00000000
v -21.64068985 115.64076996 48.00000000
v -21.64068985 115.64076996 43.00000000
v -21.66318130 116.02693939 48.00000000
v -21.66318130 116.02693939 43.00000000
v -21.59601021 116.40788269 48.00000000
v -21.59601021 116.40788269 43.00000000
v -21.44279861 116.76306915 48.00000000
v -21.44279861 116.76306915 43.00000000
v -21.21180534 117.07334900 48.00000000
v -21.21180534 117.07334900 43.00000000
v -20.91548157 117.32199097 48.00000000
v -20.91548157 117.32199097 43.00000000
v -20.56980515 117.49559784 48.00000000
v -20.56980515 117.49559784 43.00000000
v -20.19341087 117.58480835 48.00000000
v -20.19341087 117.58480835 43.00000000
v -19.80658913 117.58480835 48.00000000
v -19.80658913 117.58480835 43.00000000
v -19.43019485 117.49559784 48.00000000
v -19.43019485 117.49559784 43.00000000
v -19.08451843 117.32199097 48.00000000
v -19.08451843 117.32199097 43.00000000
v -18.78819466 117.07334900 48.00000000
v -18.78819466 117.07334900 43.00000000
v -18.55720139 116.76306915 48.00000000
v -18.55720139 116.76306915 43.00000000
v -18.40398979 116.40788269 48.00000000
v -18.40398979 116.40788269 43.00000000
v -18.33681870 116.02693939 48.00000000
v -18.33681870 116.02693939 43.00000000
v -18.35931015 115.64076996 48.00000000
v -18.35931015 115.64076996 43.00000000
v -18.47025108 115.27020264 48.00000000
v -18.47025108 115.27020264 43.00000000
v -18.66366196 114.93520355 48.00000000
v -18.66366196 114.93520355 43.00000000
v -18.92911530 114.65383911 48.00000000
v -18.92911530 114.65383911 43.00000000
v -19.25230026 114.44127655 48.00000000
v -19.25230026 114.44127655 43.00000000
v -19.61579323 117.55116272 38.00000000
v -20.00000000 117.59606934 38.00000000
v -20.38420677 117.55116272 38.00000000
v -20.74769974 117.41886139 38.00000000
v -21.07088470 117.20629883 38.00000000
v -21.33633804 116.92493439 38.00000000
v -21.52974892 116.58993530 38.00000000
v -21.64068985 116.21936798 38.00000000
v -21.66318130 115.83319855 38.00000000
v -21.59601021 115.45225525 38.00000000
v -21.44279861 115.09706879 38.00000000
v -21.21180534 114.78678894 38.00000000
v -20.91548157 114.53814697 38.00000000
v -20.56980515 114.36454010 38.00000000
v -20.19341087 114.27533722 38.00000000
v -19.80658913 114.27533722 38.00000000
v -19.43019485 114.36454010 38.00000000
v -19.08451843 114.53814697 38.00000000
v -18.78819466 114.78678894 38.00000000
v -18.55720139 115.09706879 38.00000000
v -18.40398979 115.45225525 38.00000000
v -18.33681870 115.83319855 38.00000000
v -18.35931015 116.21936798 38.00000000
v -18.47025108 116.58993530 38.00000000
v -18.66366196 116.92493439 38.00000000
v -18.92911530 117.20629883 38.00000000
v -19.25230026 117.41886139 38.00000000
v -19.61579323 117.55116272 38.00000000
v -20.00000000 117.59606934 38.00000000
v -20.38420677 117.55116272 38.00000000
v -20.74769974 117.41886139 38.00000000
v -21.07088470 117.20629883 38.00000000
v -21.33633804 116.92493439 38.00000000
v -21.52974892 116.58993530 38.00000000
v -21.64068985 116.21936798 38.00000000
v -21.66318130 115.83319855 38.00000000
v -21.59601021 115.45225525 38.00000000
v -21.44279861 115.09706879 38.00000000
v -21.21180534 114.78678894 38.00000000
v -20.91548157 114.53814697 38.00000000
v -20.56980515 114.36454010 38.00000000
v -20.19341087 114.27533722 38.00000000
v -19.80658913 114.27533722 38.00000000
v -19.43019485 114.36454010 38.00000000
v -19.08451843 114.53814697 38.00000000
v -18.78819466 114.78678894 38.00000000
v -18.55720139 115.09706879 38.00000000
v -18.40398979 115.45225525 38.00000000
v -18.33681870 115.83319855 38.00000000
v -18.35931015 116.21936798 38.00000000
v -18.47025108 116.58993530 38.00000000
v -18.66366196 116.92493439 38.00000000
v -18.92911530 117.20629883 38.00000000
v -19.25230026 117.41886139 38.00000000
v -39.61579514 114.30897522 48.00000000
v -39.61579514 114.30897522 43.00000000
v -40.00000000 114.26406860 48.00000000
v -40.00000000 114.26406860 43.00000000
v -40.38420486 114.30897522 48.00000000
v -40.38420486 114.30897522 43.00000000
v -40.74769974 114.44127655 48.00000000
v -40.74769974 114.44127655 43.00000000
v -41.07088470 114.65383911 48.00000000
v -41.07088470 114.65383911 43.00000000
v -41.33633804 114.93520355 48.00000000
v -41.33633804 114.93520355 43.00000000
v -41.52974701 115.27020264 48.00000000
v -41.52974701 115.27020264 43.00000000
v -41.64068985 115.64076996 48.00000000
v -41.64068985 115.64076996 43.00000000
v -41.66318130 116.02693939 48.00000000
v -41.66318130 116.02693939 43.00000000
v -41.59601212 116.40788269 48.00000000
v -41.59601212 116.40788269 43.00000000
v -41.44279861 116.76306915 48.00000000
v -41.44279861 116.76306915 43.00000000
v -41.21180344 117.07334900 48.00000000
v -41.21180344 117.07334900 43.00000000
v -40.91548157 117.32199097 48.00000000
v -40.91548157 117.32199097 43.00000000
v -40.56980515 117.49559784 48.00000000
v -40.56980515 117.49559784 43.00000000
v -40.19340897 117.58480835 48.00000000
v -40.19340897 117.58480835 43.00000000
v -39.80659103 117.58480835 48.00000000
v -39.80659103 117.58480835 43.00000000
v -39.43019485 117.49559784 48.00000000
v -39.43019485 117.49559784 43.00000000
v -39.08451843 117.32199097 48.00000000
v -39.08451843 117.32199097 43.00000000
v -38.78819656 117.07334900 48.00000000
v -38.78819656 117.07334900 43.00000000
v -38.55720139 116.76306915 48.00000000
v -38.55720139 116.76306915 43.00000000
v -38.40398788 116.40788269 48.00000000
v -38.40398788 116.40788269 43.00000000
v -38.33681870 116.02693939 48.00000000
v -38.33681870 116.02693939 43.00000000
v -38.35931015 115.64076996 48.00000000
v -38.35931015 115.64076996 43.00000000
v -38.47025299 115.27020264 48.00000000
v -38.47025299 115.27020264 43.00000000
v -38.66366196 114.93520355 48.00000000
v -38.66366196 114.93520355 43.00000000
v -38.92911530 114.65383911 48.00000000
v -38.92911530 114.65383911 43.00000000
v -39.25230026 114.44127655 48.00000000
v -39.25230026 114.44127655 43.00000000
v -39.61579514 117.55116272 38.00000000
v -40.00000000 117.59606934 38.00000000
v -40.38420486 117.55116272 38.00000000
v -40.74769974 117.41886139 38.00000000
v -41.07088470 117.20629883 38.00000000
v -41.33633804 116.92493439 38.00000000
v -41.52974701 116.58993530 38.00000000
v -41.64068985 116.21936798 38.00000000
v -41.66318130 115.83319855 38.00000000
v -41.59601212 115.45225525 38.00000000
v -41.44279861 115.09706879 38.00000000
v -41.21180344 114.78678894 38.00000000
v -40.91548157 114.53814697 38.00000000
v -40.56980515 114.36454010 38.00000000
v -40.19340897 114.27533722 38.00000000
v -39.80659103 114.27533722 38.00000000
v -39.43019485 114.36454010 38.00000000
v -39.08451843 114.53814697 38.00000000
v -38.78819656 114.78678894 38.00000000
v -38.55720139 115.09706879 38.00000000
v -38.40398788 115.45225525 38.00000000
v -38.33681870 115.83319855 38.00000000
v -38.35931015 116.21936798 38.00000000
v -38.47025299 116.58993530 38.00000000
v -38.66366196 116.92493439 38.00000000
v -38.92911530 117.20629883 38.00000000
v -39.25230026 117.41886139 38.00000000
v -39.61579514 117.55116272 38.00000000
v -40.00000000 117.59606934 38.00000000
v -40.38420486 117.55116272 38.00000000
v -40.74769974 117.41886139 38.00000000
v -41.07088470 117.20629883 38.00000000
v -41.33633804 116.92493439 38.00000000
v -41.52974701 116.58993530 38.00000000
v -41.64068985 116.21936798 38.00000000
v -41.66318130 115.83319855 38.00000000
v -41.59601212 115.45225525 38.00000000
v -41.44279861 115.09706879 38.00000000
v -41.21180344 114.78678894 38.00000000
v -40.91548157 114.53814697 38.00000000
v -40.56980515 114.36454010 38.00000000
v -40.19340897 114.27533722 38.00000000
v -39.80659103 114.27533722 38.00000000
v -39.43019485 114.36454010 38.00000000
v -39.08451843 114.53814697 38.00000000
v -38.78819656 114.78678894 38.00000000
v -38.55720139 115.09706879 38.00000000
v -38.40398788 115.45225525 38.00000000
v -38.33681870 115.83319855 38.00000000
v -38.35931015 116.21936798 38.00000000
v -38.47025299 116.58993530 38.00000000
v -38.66366196 116.92493439 38.00000000
v -38.92911530 117.20629883 38.00000000
v -39.25230026 117.41886139 38.00000000
v -0.87890726 113.43006897 38.38420486
v -0.84526491 118.43006897 38.19340897
v -0.83399999 113.43006897 38.00000000
v -0.84526491 118.43006897 37.80659103
v -0.87890726 113.43006897 37.61579514
v -0.93447208 118.43006897 37.43019485
v -1.01120806 113.43006897 37.25230026
v -1.10807729 118.43006897 37.08451843
v -1.22376990 113.43006897 36.92911530
v -1.35672140 118.43006897 36.78819656
v -1.50513375 113.43006897 36.66366196
v -1.66700006 118.43006897 36.55720139
v -1.84013116 113.43006897 36.47025299
v -2.02218580 118.43006897 36.40398788
v -2.21070218 113.43006897 36.35931015
v -2.40313077 118.43006897 36.33681870
v -2.59686923 113.43006897 36.33681870
v -2.78929782 118.43006897 36.35931015
v -2.97781420 113.43006897 36.40398788
v -3.15986896 118.43006897 36.47025299
v -3.33299994 113.43006897 36.55720139
v -3.49486613 118.43006897 36.66366196
v -3.64327860 113.43006897 36.78819656
v -3.77623010 118.43006897 36.92911530
v -3.89192271 113.43006897 37.08451843
v -3.98879194 118.43006897 37.25230026
v -4.06552792 113.43006897 37.43019485
v -4.12109280 118.43006897 37.61579514
v -4.15473509 113.43006897 37.80659103
v -4.16599989 118.43006897 38.00000000
v -4.15473509 113.43006897 38.19340897
v -4.12109280 118.43006897 38.38420486
v -4.06552792 113.43006897 38.56980515
v -3.98879194 118.43006897 38.74769974
v -3.89192271 113.43006897 38.91548157
v -3.77623010 118.43006897 39.07088470
v -3.64327860 113.43006897 39.21180344
v -3.49486613 118.43006897 39.33633804
v -3.33299994 113.43006897 39.44279861
v -3.15986896 118.43006897 39.52974701
v -2.97781420 113.43006897 39.59601212
v -2.78929782 118.43006897 39.64068985
v -2.59686923 113.43006897 39.66318130
v -2.40313077 118.43006897 39.66318130
v -2.21070218 113.43006897 39.64068985
v -2.02218580 118.43006897 39.59601212
v -1.84013116 113.43006897 39.52974701
v -1.66700006 118.43006897 39.44279861
v -1.50513375 113.43006897 39.33633804
v -1.35672140 118.43006897 39.21180344
v -1.22376990 113.43006897 39.07088470
v -1.10807729 118.43006897 38.91548157
v -1.01120806 113.43006897 38.74769974
v -0.93447208 118.43006897 38.56980515
v -0.87890726 113.43006897 28.38420677
v -0.84526491 118.43006897 28.19341087
v -0.83399999 113.43006897 28.00000000
v -0.84526491 118.43006897 27.80658913
v -0.87890726 113.43006897 27.61579323
v -0.93447208 118.43006897 27.43019485
v -1.01120806 113.43006897 27.25230026
v -1.10807729 118.43006897 27.08451843
v -1.22376990 113.43006897 26.92911530
v -1.35672140 118.43006897 26.78819466
v -1.50513375 113.43006897 26.66366196
v -1.66700006 118.43006897 26.55720139
v -1.84013116 113.43006897 26.47025108
v -2.02218580 118.43006897 26.40398979
v -2.21070218 113.43006897 26.35931015
v -2.40313077 118.43006897 26.33681870
v -2.59686923 113.43006897 26.33681870
v -2.78929782 118.43006897 26.35931015
v -2.97781420 113.43006897 26.40398979
v -3.15986896 118.43006897 26.47025108
v -3.33299994 113.43006897 26.55720139
v -3.49486613 118.43006897 26.66366196
v -3.64327860 113.43006897 26.78819466
v -3.77623010 118.43006897 26.92911530
v -3.89192271 113.43006897 27.08451843
v -3.98879194 118.43006897 27.25230026
v -4.06552792 113.43006897 27.43019485
v -4.12109280 118.43006897 27.61579323
v -4.15473509 113.43006897 27.80658913
v -4.16599989 118.43006897 28.00000000
v -4.15473509 113.43006897 28.19341087
v -4.12109280 118.43006897 28.38420677
v -4.06552792 113.43006897 28.56980515
v -3.98879194 118.43006897 28.74769974
v -3.89192271 113.43006897 28.91548157
v -3.77623010 118.43006897 29.07088470
v -3.64327860 113.43006897 29.21180534
v -3.49486613 118.43006897 29.33633804
v -3.33299994 113.43006897 29.44279861
v -3.15986896 118.43006897 29.52974892
v -2.97781420 113.43006897 29.59601021
v -2.78929782 118.43006897 29.64068985
v -2.59686923 113.43006897 29.66318130
v -2.40313077 118.43006897 29.66318130
v -2.21070218 113.43006897 29.64068985
v -2.02218580 118.43006897 29.59601021
v -1.84013116 113.43006897 29.52974892
v -1.66700006 118.43006897 29.44279861
v -1.50513375 113.43006897 29.33633804
v -1.35672140 118.43006897 29.21180534
v -1.22376990 113.43006897 29.07088470
v -1.10807729 118.43006897 28.91548157
v -1.01120806 113.43006897 28.74769974
v -0.93447208 118.43006897 28.56980515
v -55.00000000 113.43006897 -0.00000000
v -55.00000000 118.43006897 -0.00000000
v 0.00000000 113.43006897 -0.00000000
v 0.00000000 118.43006897 -0.00000000
v 0.00000000 113.43006897 -0.00000000
v 0.00000000 118.43006897 -0.00000000
v 0.00000000 113.43006897 48.00000000
v 0.00000000 118.43006897 48.00000000
v -55.00000000 113.43006897 -0.00000000
v -55.00000000 118.43006897 -0.00000000
v -55.00000000 113.43006897 48.00000000
v -55.00000000 118.43006897 48.00000000
v -19.61579323 114.30897522 48.00000000
v -20.00000000 114.26406860 48.00000000
v -20.38420677 114.30897522 48.00000000
v -20.74769974 114.44127655 48.00000000
v -21.07088470 114.65383911 48.00000000
v -21.33633804 114.93520355 48.00000000
v -21.52974892 115.27020264 48.00000000
v -21.64068985 115.64076996 48.00000000
v -21.66318130 116.02693939 48.00000000
v -21.59601021 116.40788269 48.00000000
v -21.44279861 116.76306915 48.00000000
v -21.21180534 117.07334900 48.00000000
v -20.91548157 117.32199097 48.00000000
v -20.56980515 117.49559784 48.00000000
v -20.19341087 117.58480835 48.00000000
v -19.80658913 117.58480835 48.00000000
v -19.43019485 117.49559784 48.00000000
v -19.08451843 117.32199097 48.00000000
v -18.78819466 117.07334900 48.00000000
v -18.55720139 116.76306915 48.00000000
v -18.40398979 116.40788269 48.00000000
v -18.33681870 116.02693939 48.00000000
v -18.35931015 115.64076996 48.00000000
v -18.47025108 115.27020264 48.00000000
v -18.66366196 114.93520355 48.00000000
v -18.92911530 114.65383911 48.00000000
v -19.25230026 114.44127655 48.00000000
v -39.61579514 114.30897522 48.00000000
v -40.00000000 114.26406860 48.00000000
v -40.38420486 114.30897522 48.00000000
v -40.74769974 114.44127655 48.00000000
v -41.07088470 114.65383911 48.00000000
v -41.33633804 114.93520355 48.00000000
v -41.52974701 115.27020264 48.00000000
v -41.64068985 115.64076996 48.00000000
v -41.66318130 116.02693939 48.00000000
v -41.59601212 116.40788269 48.00000000
v -41.44279861 116.76306915 48.00000000
v -41.21180344 117.07334900 48.00000000
v -40.91548157 117.32199097 48.00000000
v -40.56980515 117.49559784 48.00000000
v -40.19340897 117.58480835 48.00000000
v -39.80659103 117.58480835 48.00000000
v -39.43019485 117.49559784 48.00000000
v -39.08451843 117.32199097 48.00000000
v -38.78819656 117.07334900 48.00000000
v -38.55720139 116.76306915 48.00000000
v -38.40398788 116.40788269 48.00000000
v -38.33681870 116.02693939 48.00000000
v -38.35931015 115.64076996 48.00000000
v -38.47025299 115.27020264 48.00000000
v -38.66366196 114.93520355 48.00000000
v -38.92911530 114.65383911 48.00000000
v -39.25230026 114.44127655 48.00000000
v 0.00000000 113.43006897 48.00000000
v -55.00000000 113.43006897 48.00000000
v 0.00000000 118.43006897 48.00000000
v -55.00000000 118.43006897 48.00000000
v -0.87890726 113.43006897 38.38420486
v -0.83399999 113.43006897 38.00000000
v -0.87890726 113.43006897 37.61579514
v -1.01120806 113.43006897 37.25230026
v -1.22376990 113.43006897 36.92911530
v -1.50513375 113.43006897 36.66366196
v -1.84013116 113.43006897 36.47025299
v -2.21070218 113.43006897 36.35931015
v -2.59686923 113.43006897 36.33681870
v -2.97781420 113.43006897 36.40398788
v -3.33299994 113.43006897 36.55720139
v -3.64327860 113.43006897 36.78819656
v -3.89192271 113.43006897 37.08451843
v -4.06552792 113.43006897 37.43019485
v -4.15473509 113.43006897 37.80659103
v -4.15473509 113.43006897 38.19340897
v -4.06552792 113.43006897 38.56980515
v -3.89192271 113.43006897 38.91548157
v -3.64327860 113.43006897 39.21180344
v -3.33299994 113.43006897 39.44279861
v -2.97781420 113.43006897 39.59601212
v -2.59686923 113.43006897 39.66318130
v -2.21070218 113.43006897 39.64068985
v -1.84013116 113.43006897 39.52974701
v -1.50513375 113.43006897 39.33633804
v -1.22376990 113.43006897 39.07088470
v -1.01120806 113.43006897 38.74769974
v -0.87890726 113.43006897 28.38420677
v -0.83399999 113.43006897 28.00000000
v -0.87890726 113.43006897 27.61579323
v -1.01120806 113.43006897 27.25230026
v -1.22376990 113.43006897 26.92911530
v -1.50513375 113.43006897 26.66366196
v -1.84013116 113.43006897 26.47025108
v -2.21070218 113.43006897 26.35931015
v -2.59686923 113.43006897 26.33681870
v -2.97781420 113.43006897 26.40398979
v -3.33299994 113.43006897 26.55720139
v -3.64327860 113.43006897 26.78819466
v -3.89192271 113.43006897 27.08451843
v -4.06552792 113.43006897 27.43019485
v -4.15473509 113.43006897 27.80658913
v -4.15473509 113.43006897 28.19341087
v -4.06552792 113.43006897 28.56980515
v -3.89192271 113.43006897 28.91548157
v -3.64327860 113.43006897 29.21180534
v -3.33299994 113.43006897 29.44279861
v -2.97781420 113.43006897 29.59601021
v -2.59686923 113.43006897 29.66318130
v -2.21070218 113.43006897 29.64068985
v -1.84013116 113.43006897 29.52974892
v -1.50513375 113.43006897 29.33633804
v -1.22376990 113.43006897 29.07088470
v -1.01120806 113.43006897 28.74769974
v -55.00000000 113.43006897 -0.00000000
v 0.00000000 113.43006897 -0.00000000
v 0.00000000 113.43006897 48.00000000
v -55.00000000 113.43006897 48.00000000
v -0.84526491 118.43006897 38.19340897
v -0.84526491 118.43006897 37.80659103
v -0.93447208 118.43006897 37.43019485
v -1.10807729 118.43006897 37.08451843
v -1.35672140 118.43006897 36.78819656
v -1.66700006 118.43006897 36.55720139
v -2.02218580 118.43006897 36.40398788
v -2.40313077 118.43006897 36.33681870
v -2.78929782 118.43006897 36.35931015
v -3.15986896 118.43006897 36.47025299
v -3.49486613 118.43006897 36.66366196
v -3.77623010 118.43006897 36.92911530
v -3.98879194 118.43006897 37.25230026
v -4.12109280 118.43006897 37.61579514
v -4.16599989 118.43006897 38.00000000
v -4.12109280 118.43006897 38.38420486
v -3.98879194 118.43006897 38.74769974
v -3.77623010 118.43006897 39.07088470
v -3.49486613 118.43006897 39.33633804
v -3.15986896 118.43006897 39.52974701
v -2.78929782 118.43006897 39.64068985
v -2.40313077 118.43006897 39.66318130
v -2.02218580 118.43006897 39.59601212
v -1.66700006 118.43006897 39.44279861
v -1.35672140 118.43006897 39.21180344
v -1.10807729 118.43006897 38.91548157
v -0.93447208 118.43006897 38.56980515
v -0.84526491 118.43006897 28.19341087
v -0.84526491 118.43006897 27.80658913
v -0.93447208 118.43006897 27.43019485
v -1.10807729 118.43006897 27.08451843
v -1.35672140 118.43006897 26.78819466
v -1.66700006 118.43006897 26.55720139
v -2.02218580 118.43006897 26.40398979
v -2.40313077 118.43006897 26.33681870
v -2.78929782 118.43006897 26.35931015
v -3.15986896 118.43006897 26.47025108
v -3.49486613 118.43006897 26.66366196
v -3.77623010 118.43006897 26.92911530
v -3.98879194 118.43006897 27.25230026
v -4.12109280 118.43006897 27.61579323
v -4.16599989 118.43006897 28.00000000
v -4.12109280 118.43006897 28.38420677
v -3.98879194 118.43006897 28.74769974
v -3.77623010 118.43006897 29.07088470
v -3.49486613 118.43006897 29.33633804
v -3.15986896 118.43006897 29.52974892
v -2.78929782 118.43006897 29.64068985
v -2.40313077 118.43006897 29.66318130
v -2.02218580 118.43006897 29.59601021
v -1.66700006 118.43006897 29.44279861
v -1.35672140 118.43006897 29.21180534
v -1.10807729 118.43006897 28.91548157
v -0.93447208 118.43006897 28.56980515
v -55.00000000 118.43006897 -0.00000000
v 0.00000000 118.43006897 -0.00000000
v 0.00000000 118.43006897 48.00000000
v -55.00000000 118.43006897 48.00000000
f 1 2 3
f 3 2 4
f 3 4 5
f 5 4 6
f 5 6 7
f 7 6 8
f 7 8 9
f 9 8 10
f 9 10 11
f 11 10 12
f 11 12 13
f 13 12 14
f 13 14 15
f 15 14 16
f 15 16 17
f 17 16 18
f 17 18 19
f 19 18 20
f 19 20 21
f 21 20 22
f 21 22 23
f 23 22 24
f 23 24 25
f 25 24 26
f 25 26 27
f 27 26 28
f 27 28 29
f 29 28 30
f 29 30 31
f 31 30 32
f 31 32 33
f 33 32 34
f 33 34 35
f 35 34 36
f 35 36 37
f 37 36 38
f 37 38 39
f 39 38 40
f 39 40 41
f 41 40 42
f 41 42 43
f 43 42 44
f 43 44 45
f 45 44 46
f 45 46 47
f 47 46 48
f 47 48 49
f 49 48 50
f 49 50 51
f 51 50 52
f 51 52 53
f 53 52 54
f 53 54 1
f 1 54 2
f 55 32 56
f 56 32 30
f 56 30 57
f 57 30 28
f 57 28 58
f 58 28 26
f 58 26 59
f 59 26 24
f 59 24 60
f 60 24 22
f 60 22 61
f 61 22 20
f 61 20 62
f 62 20 18
f 62 18 63
f 63 18 16
f 63 16 64
f 64 16 14
f 64 14 65
f 65 14 12
f 65 12 66
f 66 12 10
f 66 10 67
f 67 10 8
f 67 8 68
f 68 8 6
f 68 6 69
f 69 6 4
f 69 4 70
f 70 4 2
f 70 2 71
f 71 2 54
f 71 54 72
f 72 54 52
f 72 52 73
f 73 52 50
f 73 50 74
f 74 50 48
f 74 48 75
f 75 48 46
f 75 46 76
f 76 46 44
f 76 44 77
f 77 44 42
f 77 42 78
f 78 42 40
f 78 40 79
f 79 40 38
f 79 38 80
f 80 38 36
f 80 36 81
f 81 36 34
f 81 34 55
f 55 34 32
f 83 84 82
f 82 84 108
f 108 84 85
f 108 85 107
f 107 85 86
f 107 86 106
f 106 86 87
f 106 87 105
f 105 87 104
f 104 87 103
f 103 87 102
f 102 87 101
f 101 87 100
f 100 87 99
f 99 87 98
f 98 87 97
f 97 87 96
f 96 87 95
f 95 87 94
f 94 87 93
f 93 87 88
f 93 88 92
f 92 88 91
f 91 88 89
f 91 89 90
f 109 110 111
f 111 110 112
f 111 112 113
f 113 112 114
f 113 114 115
f 115 114 116
f 115 116 117
f 117 116 118
f 117 118 119
f 119 118 120
f 119 120 121
f 121 120 122
f 121 122 123
f 123 122 124
f 123 124 125
f 125 124 126
f 125 126 127
f 127 126 128
f 127 128 129
f 129 128 130
f 129 130 131
f 131 130 132
f 131 132 133
f 133 132 134
f 133 134 135
f 135 134 136
f 135 136 137
f 137 136 138
f 137 138 139
f 139 138 140
f 139 140 141
f 141 140 142
f 141 142 143
f 143 142 144
f 143 144 145
f 145 144 146
f 145 146 147
f 147 146 148
f 147 148 149
f 149 148 150
f 149 150 151
f 151 150 152
f 151 152 153
f 153 152 154
f 153 154 155
f 155 154 156
f 155 156 157
f 157 156 158
f 157 158 159
f 159 158 160
f 159 160 161
f 161 160 162
f 161 162 109
f 109 162 110
f 163 140 164
f 164 140 138
f 164 138 165
f 165 138 136
f 165 136 166
f 166 136 134
f 166 134 167
f 167 134 132
f 167 132 168
f 168 132 130
f 168 130 169
f 169 130 128
f 169 128 170
f 170 128 126
f 170 126 171
f 171 126 124
f 171 124 172
f 172 124 122
f 172 122 173
f 173 122 120
f 173 120 174
f 174 120 118
f 174 118 175
f 175 118 116
f 175 116 176
f 176 116 114
f 176 114 177
f 177 114 112
f 177 112 178
f 178 112 110
f 178 110 179
f 179 110 162
f 179 162 180
f 180 162 160
f 180 160 181
f 181 160 158
f 181 158 182
f 182 158 156
f 182 156 183
f 183 156 154
f 183 154 184
f 184 154 152
f 184 152 185
f 185 152 150
f 185 150 186
f 186 150 148
f 186 148 187
f 187 148 146
f 187 146 188
f 188 146 144
f 188 144 189
f 189 144 142
f 189 142 163
f 163 142 140
f 191 192 190
f 190 192 216
f 216 192 193
f 216 193 215
f 215 193 194
f 215 194 214
f 214 194 195
f 214 195 213
f 213 195 212
f 212 195 211
f 211 195 210
f 210 195 209
f 209 195 208
f 208 195 207
f 207 195 206
f 206 195 205
f 205 195 204
f 204 195 203
f 203 195 202
f 202 195 201
f 201 195 196
f 201 196 200
f 200 196 199
f 199 196 197
f 199 197 198
f 217 218 219
f 219 218 220
f 219 220 221
f 221 220 222
f 221 222 223
f 223 222 224
f 223 224 225
f 225 224 226
f 225 226 227
f 227 226 228
f 227 228 229
f 229 228 230
f 229 230 231
f 231 230 232
f 231 232 233
f 233 232 234
f 233 234 235
f 235 234 236
f 235 236 237
f 237 236 238
f 237 238 239
f 239 238 240
f 239 240 241
f 241 240 242
f 241 242 243
f 243 242 244
f 243 244 245
f 245 244 246
f 245 246 247
f 247 246 248
f 247 248 249
f 249 248 250
f 249 250 251
f 251 250 252
f 251 252 253
f 253 252 254
f 253 254 255
f 255 254 256
f 255 256 257
f 257 256 258
f 257 258 259
f 259 258 260
f 259 260 261
f 261 260 262
f 261 262 263
f 263 262 264
f 263 264 265
f 265 264 266
f 265 266 267
f 267 266 268
f 267 268 269
f 269 268 270
f 269 270 217
f 217 270 218
f 271 272 273
f 273 272 274
f 273 274 275
f 275 274 276
f 275 276 277
f 277 276 278
f 277 278 279
f 279 278 280
f 279 280 281
f 281 280 282
f 281 282 283
f 283 282 284
f 283 284 285
f 285 284 286
f 285 286 287
f 287 286 288
f 287 288 289
f 289 288 290
f 289 290 291
f 291 290 292
f 291 292 293
f 293 292 294
f 293 294 295
f 295 294 296
f 295 296 297
f 297 296 298
f 297 298 299
f 299 298 300
f 299 300 301
f 301 300 302
f 301 302 303
f 303 302 304
f 303 304 305
f 305 304 306
f 305 306 307
f 307 306 308
f 307 308 309
f 309 308 310
f 309 310 311
f 311 310 312
f 311 312 313
f 313 312 314
f 313 314 315
f 315 314 316
f 315 316 317
f 317 316 318
f 317 318 319
f 319 318 320
f 319 320 321
f 321 320 322
f 321 322 323
f 323 322 324
f 323 324 271
f 271 324 272
f 325 326 327
f 327 326 328
f 332 331 330
f 330 331 329
f 335 336 333
f 333 336 334
f 339 364 338
f 338 364 365
f 338 365 392
f 392 365 366
f 392 366 367
f 364 339 390
f 390 339 340
f 390 340 389
f 389 340 341
f 389 341 388
f 388 341 342
f 388 342 387
f 387 342 343
f 387 343 386
f 386 343 344
f 386 344 385
f 385 344 345
f 385 345 384
f 384 345 346
f 384 346 383
f 383 346 347
f 383 347 382
f 382 347 348
f 382 348 381
f 381 348 349
f 381 349 380
f 380 349 350
f 380 350 379
f 379 350 351
f 379 351 394
f 394 351 393
f 393 351 352
f 393 352 353
f 353 354 393
f 393 354 355
f 393 355 356
f 356 357 393
f 393 357 358
f 393 358 391
f 391 358 359
f 391 359 360
f 360 361 391
f 391 361 362
f 391 362 363
f 363 337 391
f 391 337 338
f 391 338 392
f 367 368 392
f 392 368 369
f 392 369 370
f 370 371 392
f 392 371 372
f 392 372 394
f 394 372 373
f 394 373 374
f 374 375 394
f 394 375 376
f 394 376 377
f 377 378 394
f 394 378 379
f 448 398 447
f 447 398 399
f 447 399 446
f 446 399 400
f 446 400 445
f 445 400 401
f 445 401 444
f 444 401 402
f 444 402 443
f 443 402 403
f 443 403 404
f 405 441 404
f 404 441 442
f 404 442 443
f 441 405 440
f 440 405 406
f 440 406 439
f 439 406 407
f 439 407 438
f 438 407 408
f 438 408 437
f 437 408 409
f 437 409 452
f 452 409 410
f 452 410 411
f 411 412 452
f 452 412 451
f 451 412 413
f 451 413 414
f 414 415 451
f 451 415 416
f 451 416 417
f 449 433 434
f 450 433 449
f 450 432 433
f 431 432 450
f 450 430 431
f 450 429 430
f 428 429 450
f 450 427 428
f 450 426 427
f 425 426 450
f 451 395 396
f 451 421 395
f 420 421 451
f 451 419 420
f 451 418 419
f 417 418 451
f 449 434 435
f 435 436 449
f 449 436 452
f 452 436 437
f 450 423 424
f 450 424 425
f 422 397 448
f 448 397 398
f 397 422 396
f 396 422 423
f 396 423 451
f 451 423 450
f 468 467 510
f 510 467 466
f 491 507 492
f 491 508 507
f 490 508 491
f 489 508 490
f 488 508 489
f 487 508 488
f 486 508 487
f 485 508 486
f 484 508 485
f 483 508 484
f 482 508 483
f 481 508 482
f 481 509 508
f 480 509 481
f 480 454 509
f 506 454 480
f 506 455 454
f 505 455 506
f 505 456 455
f 504 456 505
f 504 457 456
f 503 457 504
f 503 458 457
f 502 458 503
f 502 459 458
f 501 459 502
f 501 460 459
f 501 461 460
f 500 461 501
f 499 461 500
f 499 462 461
f 498 462 499
f 509 470 510
f 509 471 470
f 472 471 509
f 509 473 472
f 509 474 473
f 475 474 509
f 509 476 475
f 509 477 476
f 478 477 509
f 509 479 478
f 509 453 479
f 454 453 509
f 494 510 495
f 493 510 494
f 493 507 510
f 492 507 493
f 497 463 498
f 498 463 462
f 497 464 463
f 496 464 497
f 496 465 464
f 495 465 496
f 510 469 468
f 510 470 469
f 495 466 465
f 510 466 495

