# https://github.com/mikedh/trimesh

o M_Right2_1.stl
v -5.00000000 102.20510864 39.60422134
v -12.53553486 102.20510864 39.60422134
v -5.00000000 102.65459442 39.66600037
v -12.53553486 102.65459442 39.66600037
v -5.00000000 103.10407257 39.60422134
v -12.53553486 103.10407257 39.60422134
v -5.00000000 103.52021790 39.42346191
v -12.53553486 103.52021790 39.42346191
v -5.00000000 103.87216949 39.13713455
v -12.53553486 103.87216949 39.13713455
v -5.00000000 104.13381195 38.76646805
v -12.53553486 104.13381195 38.76646805
v -5.00000000 104.28574371 38.33895874
v -12.53553486 104.28574371 38.33895874
v -5.00000000 104.31671143 37.88630676
v -12.53553486 104.31671143 37.88630676
v -5.00000000 104.22440338 37.44208908
v -12.53553486 104.22440338 37.44208908
v -5.00000000 104.01566315 37.03924942
v -12.53553486 104.01566315 37.03924942
v -5.00000000 103.70598602 36.70766449
v -12.53553486 103.70598602 36.70766449
v -5.00000000 103.31832886 36.47192764
v -12.53553486 103.31832886 36.47192764
v -5.00000000 102.88144684 36.34951782
v -12.53553486 102.88144684 36.34951782
v -5.00000000 102.42774200 36.34951782
v -12.53553486 102.42774200 36.34951782
v -5.00000000 101.99085999 36.47192764
v -12.53553486 101.99085999 36.47192764
v -5.00000000 101.60320282 36.70766449
v -12.53553486 101.60320282 36.70766449
v -5.00000000 101.29351807 37.03924942
v -12.53553486 101.29351807 37.03924942
v -5.00000000 101.08478546 37.44208908
v -12.53553486 101.08478546 37.44208908
v -5.00000000 100.99247742 37.88630676
v -12.53553486 100.99247742 37.88630676
v -5.00000000 101.02343750 38.33895874
v -12.53553486 101.02343750 38.33895874
v -5.00000000 101.17537689 38.76646805
v -12.53553486 101.17537689 38.76646805
v -5.00000000 101.43701935 39.13713455
v -12.53553486 101.43701935 39.13713455
v -5.00000000 101.78896332 39.42346191
v -12.53553486 101.78896332 39.42346191
v -20.07106972 102.20510864 36.39577866
v -20.07106972 102.65459442 36.33399963
v -20.07106972 103.10407257 36.39577866
v -20.07106972 103.52021790 36.57653809
v -20.07106972 103.87216949 36.86286545
v -20.07106972 104.13381195 37.23353195
v -20.07106972 104.28574371 37.66104126
v -20.07106972 104.31671143 38.11369324
v -20.07106972 104.22440338 38.55791092
v -20.07106972 104.01566315 38.96075058
v -20.07106972 103.70598602 39.29233551
v -20.07106972 103.31832886 39.52807236
v -20.07106972 102.88144684 39.65048218
v -20.07106972 102.42774200 39.65048218
v -20.07106972 101.99085999 39.52807236
v -20.07106972 101.60320282 39.29233551
v -20.07106972 101.29351807 38.96075058
v -20.07106972 101.08478546 38.55791092
v -20.07106972 100.99247742 38.11369324
v -20.07106972 101.02343750 37.66104126
v -20.07106972 101.17537689 37.23353195
v -20.07106972 101.43701935 36.86286545
v -20.07106972 101.78896332 36.57653809
v -20.07106972 102.20510864 36.39577866
v -20.07106972 102.65459442 36.33399963
v -20.07106972 103.10407257 36.39577866
v -20.07106972 103.52021790 36.57653809
v -20.07106972 103.87216949 36.86286545
v -20.07106972 104.13381195 37.23353195
v -20.07106972 104.28574371 37.66104126
v -20.07106972 104.31671143 38.11369324
v -20.07106972 104.22440338 38.55791092
v -20.07106972 104.01566315 38.96075058
v -20.07106972 103.70598602 39.29233551
v -20.07106972 103.31832886 39.52807236
v -20.07106972 102.88144684 39.65048218
v -20.07106972 102.42774200 39.65048218
v -20.07106972 101.99085999 39.52807236
v -20.07106972 101.60320282 39.29233551
v -20.07106972 101.29351807 38.96075058
v -20.07106972 101.08478546 38.55791092
v -20.07106972 100.99247742 38.11369324
v -20.07106972 101.02343750 37.66104126
v -20.07106972 101.17537689 37.23353195
v -20.07106972 101.43701935 36.86286545
v -20.07106972 101.78896332 36.57653809
v -5.00000000 102.20510864 29.60421944
v -12.53553486 102.20510864 29.60421944
v -5.00000000 102.65459442 29.66600037
v -12.53553486 102.65459442 29.66600037
v -5.00000000 103.10407257 29.60421944
v -12.53553486 103.10407257 29.60421944
v -5.00000000 103.52021790 29.42346191
v -12.53553486 103.52021790 29.42346191
v -5.00000000 103.87216949 29.13713264
v -12.53553486 103.87216949 29.13713264
v -5.00000000 104.13381195 28.76646805
v -12.53553486 104.13381195 28.76646805
v -5.00000000 104.28574371 28.33895683
v -12.53553486 104.28574371 28.33895683
v -5.00000000 104.31671143 27.88630867
v -12.53553486 104.31671143 27.88630867
v -5.00000000 104.22440338 27.44209099
v -12.53553486 104.22440338 27.44209099
v -5.00000000 104.01566315 27.03925133
v -12.53553486 104.01566315 27.03925133
v -5.00000000 103.70598602 26.70766449
v -12.53553486 103.70598602 26.70766449
v -5.00000000 103.31832886 26.47192574
v -12.53553486 103.31832886 26.47192574
v -5.00000000 102.88144684 26.34951782
v -12.53553486 102.88144684 26.34951782
v -5.00000000 102.42774200 26.34951782
v -12.53553486 102.42774200 26.34951782
v -5.00000000 101.99085999 26.47192574
v -12.53553486 101.99085999 26.47192574
v -5.00000000 101.60320282 26.70766449
v -12.53553486 101.60320282 26.70766449
v -5.00000000 101.29351807 27.03925133
v -12.53553486 101.29351807 27.03925133
v -5.00000000 101.08478546 27.44209099
v -12.53553486 101.08478546 27.44209099
v -5.00000000 100.99247742 27.88630867
v -12.53553486 100.99247742 27.88630867
v -5.00000000 101.02343750 28.33895683
v -12.53553486 101.02343750 28.33895683
v -5.00000000 101.17537689 28.76646805
v -12.53553486 101.17537689 28.76646805
v -5.00000000 101.43701935 29.13713264
v -12.53553486 101.43701935 29.13713264
v -5.00000000 101.78896332 29.42346191
v -12.53553486 101.78896332 29.42346191
v -20.07106972 102.20510864 26.39578056
v -20.07106972 102.65459442 26.33399963
v -20.07106972 103.10407257 26.39578056
v -20.07106972 103.52021790 26.57653809
v -20.07106972 103.87216949 26.86286736
v -20.07106972 104.13381195 27.23353195
v -20.07106972 104.28574371 27.66104317
v -20.07106972 104.31671143 28.11369133
v -20.07106972 104.22440338 28.55790901
v -20.07106972 104.01566315 28.96074867
v -20.07106972 103.70598602 29.29233551
v -20.07106972 103.31832886 29.52807426
v -20.07106972 102.88144684 29.65048218
v -20.07106972 102.42774200 29.65048218
v -20.07106972 101.99085999 29.52807426
v -20.07106972 101.60320282 29.29233551
v -20.07106972 101.29351807 28.96074867
v -20.07106972 101.08478546 28.55790901
v -20.07106972 100.99247742 28.11369133
v -20.07106972 101.02343750 27.66104317
v -20.07106972 101.17537689 27.23353195
v -20.07106972 101.43701935 26.86286736
v -20.07106972 101.78896332 26.57653809
v -20.07106972 102.20510864 26.39578056
v -20.07106972 102.65459442 26.33399963
v -20.07106972 103.10407257 26.39578056
v -20.07106972 103.52021790 26.57653809
v -20.07106972 103.87216949 26.86286736
v -20.07106972 104.13381195 27.23353195
v -20.07106972 104.28574371 27.66104317
v -20.07106972 104.31671143 28.11369133
v -20.07106972 104.22440338 28.55790901
v -20.07106972 104.01566315 28.96074867
v -20.07106972 103.70598602 29.29233551
v -20.07106972 103.31832886 29.52807426
v -20.07106972 102.88144684 29.65048218
v -20.07106972 102.42774200 29.65048218
v -20.07106972 101.99085999 29.52807426
v -20.07106972 101.60320282 29.29233551
v -20.07106972 101.29351807 28.96074867
v -20.07106972 101.08478546 28.55790901
v -20.07106972 100.99247742 28.11369133
v -20.07106972 101.02343750 27.66104317
v -20.07106972 101.17537689 27.23353195
v -20.07106972 101.43701935 26.86286736
v -20.07106972 101.78896332 26.57653809
v -27.00050545 102.15459442 19.54766655
v -26.46636772 102.15459442 19.23605919
v -27.06588554 102.15459442 19.00920486
v -26.46636772 102.15459442 18.78235245
v -27.00050545 102.15459442 18.47074509
v -26.34395981 102.15459442 18.34546852
v -26.80816078 102.15459442 17.96357918
v -26.10822105 102.15459442 17.95781326
v -26.50003433 102.15459442 17.51717949
v -25.77663422 102.15459442 17.64813423
v -26.09403038 102.15459442 17.15749168
v -25.61374664 102.15459442 16.90541840
v -25.37379456 102.15459442 17.43939972
v -25.08709335 102.15459442 16.77560997
v -24.92957687 102.15459442 17.34708977
v -24.54467773 102.15459442 16.77560997
v -24.47692871 102.15459442 17.37805176
v -24.01802444 102.15459442 16.90541840
v -24.04941750 102.15459442 17.52998924
v -23.53774071 102.15459442 17.15749168
v -23.67875290 102.15459442 17.79163361
v -23.13173676 102.15459442 17.51717949
v -23.39242363 102.15459442 18.14357948
v -22.82361031 102.15459442 17.96357918
v -23.21166611 102.15459442 18.55972481
v -22.63126564 102.15459442 18.47074509
v -23.14988518 102.15459442 19.00920486
v -22.56588554 102.15459442 19.00920486
v -22.63126564 102.15459442 19.54766655
v -23.21166611 102.15459442 19.45868683
v -22.82361031 102.15459442 20.05483246
v -23.39242363 102.15459442 19.87483215
v -23.13173676 102.15459442 20.50123215
v -23.67875290 102.15459442 20.22677803
v -23.53774071 102.15459442 20.86091995
v -24.04941750 102.15459442 20.48842239
v -24.01802444 102.15459442 21.11299133
v -24.47692871 102.15459442 20.64035988
v -24.54467773 102.15459442 21.24279976
v -24.92957687 102.15459442 20.67132187
v -25.08709335 102.15459442 21.24279976
v -25.37379456 102.15459442 20.57901192
v -25.61374664 102.15459442 21.11299133
v -25.77663422 102.15459442 20.37027740
v -26.09403038 102.15459442 20.86091995
v -26.50003433 102.15459442 20.50123215
v -26.10822105 102.15459442 20.06059837
v -26.80816078 102.15459442 20.05483246
v -26.34395981 102.15459442 19.67294121
v -27.00050545 102.15459442 19.54766655
v -27.06588554 102.15459442 19.00920486
v -27.00050545 102.15459442 18.47074509
v -26.80816078 102.15459442 17.96357918
v -26.50003433 102.15459442 17.51717949
v -26.09403038 102.15459442 17.15749168
v -25.61374664 102.15459442 16.90541840
v -25.08709335 102.15459442 16.77560997
v -24.54467773 102.15459442 16.77560997
v -24.01802444 102.15459442 16.90541840
v -23.53774071 102.15459442 17.15749168
v -23.13173676 102.15459442 17.51717949
v -22.82361031 102.15459442 17.96357918
v -22.63126564 102.15459442 18.47074509
v -22.56588554 102.15459442 19.00920486
v -22.63126564 102.15459442 19.54766655
v -22.82361031 102.15459442 20.05483246
v -23.13173676 102.15459442 20.50123215
v -23.53774071 102.15459442 20.86091995
v -24.01802444 102.15459442 21.11299133
v -24.54467773 102.15459442 21.24279976
v -25.08709335 102.15459442 21.24279976
v -25.61374664 102.15459442 21.11299133
v -26.09403038 102.15459442 20.86091995
v -26.50003433 102.15459442 20.50123215
v -26.80816078 102.15459442 20.05483246
v -27.00050545 105.15459442 19.54766655
v -27.06588554 105.15459442 19.00920486
v -27.00050545 105.15459442 18.47074509
v -26.80816078 105.15459442 17.96357918
v -26.50003433 105.15459442 17.51717949
v -26.09403038 105.15459442 17.15749168
v -25.61374664 105.15459442 16.90541840
v -25.08709335 105.15459442 16.77560997
v -24.54467773 105.15459442 16.77560997
v -24.01802444 105.15459442 16.90541840
v -23.53774071 105.15459442 17.15749168
v -23.13173676 105.15459442 17.51717949
v -22.82361031 105.15459442 17.96357918
v -22.63126564 105.15459442 18.47074509
v -22.56588554 105.15459442 19.00920486
v -22.63126564 105.15459442 19.54766655
v -22.82361031 105.15459442 20.05483246
v -23.13173676 105.15459442 20.50123215
v -23.53774071 105.15459442 20.86091995
v -24.01802444 105.15459442 21.11299133
v -24.54467773 105.15459442 21.24279976
v -25.08709335 105.15459442 21.24279976
v -25.61374664 105.15459442 21.11299133
v -26.09403038 105.15459442 20.86091995
v -26.50003433 105.15459442 20.50123215
v -26.80816078 105.15459442 20.05483246
v -26.46636772 102.15459442 19.23605919
v -26.46636772 102.15459442 18.78235245
v -26.34395981 102.15459442 18.34546852
v -26.10822105 102.15459442 17.95781326
v -25.77663422 102.15459442 17.64813423
v -25.37379456 102.15459442 17.43939972
v -24.92957687 102.15459442 17.34708977
v -24.47692871 102.15459442 17.37805176
v -24.04941750 102.15459442 17.52998924
v -23.67875290 102.15459442 17.79163361
v -23.39242363 102.15459442 18.14357948
v -23.21166611 102.15459442 18.55972481
v -23.14988518 102.15459442 19.00920486
v -23.21166611 102.15459442 19.45868683
v -23.39242363 102.15459442 19.87483215
v -23.67875290 102.15459442 20.22677803
v -24.04941750 102.15459442 20.48842239
v -24.47692871 102.15459442 20.64035988
v -24.92957687 102.15459442 20.67132187
v -25.37379456 102.15459442 20.57901192
v -25.77663422 102.15459442 20.37027740
v -26.10822105 102.15459442 20.06059837
v -26.34395981 102.15459442 19.67294121
v -23.21166611 100.15459442 19.45868683
v -23.14988518 100.15459442 19.00920486
v -23.21166611 100.15459442 18.55972481
v -23.39242363 100.15459442 18.14357948
v -23.67875290 100.15459442 17.79163361
v -24.04941750 100.15459442 17.52998924
v -24.47692871 100.15459442 17.37805176
v -24.92957687 100.15459442 17.34708977
v -25.37379456 100.15459442 17.43939972
v -25.77663422 100.15459442 17.64813423
v -26.10822105 100.15459442 17.95781326
v -26.34395981 100.15459442 18.34546852
v -26.46636772 100.15459442 18.78235245
v -26.46636772 100.15459442 19.23605919
v -26.34395981 100.15459442 19.67294121
v -26.10822105 100.15459442 20.06059837
v -25.77663422 100.15459442 20.37027740
v -25.37379456 100.15459442 20.57901192
v -24.92957687 100.15459442 20.67132187
v -24.47692871 100.15459442 20.64035988
v -24.04941750 100.15459442 20.48842239
v -23.67875290 100.15459442 20.22677803
v -23.39242363 100.15459442 19.87483215
v -47.00050354 102.15459442 19.54766655
v -46.46636963 102.15459442 19.23605919
v -47.06588364 102.15459442 19.00920486
v -46.46636963 102.15459442 18.78235245
v -47.00050354 102.15459442 18.47074509
v -46.34395981 102.15459442 18.34546852
v -46.80816269 102.15459442 17.96357918
v -46.10821915 102.15459442 17.95781326
v -46.50003433 102.15459442 17.51717949
v -45.77663422 102.15459442 17.64813423
v -46.09403229 102.15459442 17.15749168
v -45.61374664 102.15459442 16.90541840
v -45.37379456 102.15459442 17.43939972
v -45.08709335 102.15459442 16.77560997
v -44.92957687 102.15459442 17.34708977
v -44.54467773 102.15459442 16.77560997
v -44.47692871 102.15459442 17.37805176
v -44.01802444 102.15459442 16.90541840
v -44.04941559 102.15459442 17.52998924
v -43.53773880 102.15459442 17.15749168
v -43.67875290 102.15459442 17.79163361
v -43.13173676 102.15459442 17.51717949
v -43.39242172 102.15459442 18.14357948
v -42.82360840 102.15459442 17.96357918
v -43.21166611 102.15459442 18.55972481
v -42.63126755 102.15459442 18.47074509
v -43.14988708 102.15459442 19.00920486
v -42.56588364 102.15459442 19.00920486
v -42.63126755 102.15459442 19.54766655
v -43.21166611 102.15459442 19.45868683
v -42.82360840 102.15459442 20.05483246
v -43.39242172 102.15459442 19.87483215
v -43.13173676 102.15459442 20.50123215
v -43.67875290 102.15459442 20.22677803
v -43.53773880 102.15459442 20.86091995
v -44.04941559 102.15459442 20.48842239
v -44.01802444 102.15459442 21.11299133
v -44.47692871 102.15459442 20.64035988
v -44.54467773 102.15459442 21.24279976
v -44.92957687 102.15459442 20.67132187
v -45.08709335 102.15459442 21.24279976
v -45.37379456 102.15459442 20.57901192
v -45.61374664 102.15459442 21.11299133
v -45.77663422 102.15459442 20.37027740
v -46.09403229 102.15459442 20.86091995
v -46.50003433 102.15459442 20.50123215
v -46.10821915 102.15459442 20.06059837
v -46.80816269 102.15459442 20.05483246
v -46.34395981 102.15459442 19.67294121
v -47.00050354 102.15459442 19.54766655
v -47.06588364 102.15459442 19.00920486
v -47.00050354 102.15459442 18.47074509
v -46.80816269 102.15459442 17.96357918
v -46.50003433 102.15459442 17.51717949
v -46.09403229 102.15459442 17.15749168
v -45.61374664 102.15459442 16.90541840
v -45.08709335 102.15459442 16.77560997
v -44.54467773 102.15459442 16.77560997
v -44.01802444 102.15459442 16.90541840
v -43.53773880 102.15459442 17.15749168
v -43.13173676 102.15459442 17.51717949
v -42.82360840 102.15459442 17.96357918
v -42.63126755 102.15459442 18.47074509
v -42.56588364 102.15459442 19.00920486
v -42.63126755 102.15459442 19.54766655
v -42.82360840 102.15459442 20.05483246
v -43.13173676 102.15459442 20.50123215
v -43.53773880 102.15459442 20.86091995
v -44.01802444 102.15459442 21.11299133
v -44.54467773 102.15459442 21.24279976
v -45.08709335 102.15459442 21.24279976
v -45.61374664 102.15459442 21.11299133
v -46.09403229 102.15459442 20.86091995
v -46.50003433 102.15459442 20.50123215
v -46.80816269 102.15459442 20.05483246
v -47.00050354 105.15459442 19.54766655
v -47.06588364 105.15459442 19.00920486
v -47.00050354 105.15459442 18.47074509
v -46.80816269 105.15459442 17.96357918
v -46.50003433 105.15459442 17.51717949
v -46.09403229 105.15459442 17.15749168
v -45.61374664 105.15459442 16.90541840
v -45.08709335 105.15459442 16.77560997
v -44.54467773 105.15459442 16.77560997
v -44.01802444 105.15459442 16.90541840
v -43.53773880 105.15459442 17.15749168
v -43.13173676 105.15459442 17.51717949
v -42.82360840 105.15459442 17.96357918
v -42.63126755 105.15459442 18.47074509
v -42.56588364 105.15459442 19.00920486
v -42.63126755 105.15459442 19.54766655
v -42.82360840 105.15459442 20.05483246
v -43.13173676 105.15459442 20.50123215
v -43.53773880 105.15459442 20.86091995
v -44.01802444 105.15459442 21.11299133
v -44.54467773 105.15459442 21.24279976
v -45.08709335 105.15459442 21.24279976
v -45.61374664 105.15459442 21.11299133
v -46.09403229 105.15459442 20.86091995
v -46.50003433 105.15459442 20.50123215
v -46.80816269 105.15459442 20.05483246
v -46.46636963 102.15459442 19.23605919
v -46.46636963 102.15459442 18.78235245
v -46.34395981 102.15459442 18.34546852
v -46.10821915 102.15459442 17.95781326
v -45.77663422 102.15459442 17.64813423
v -45.37379456 102.15459442 17.43939972
v -44.92957687 102.15459442 17.34708977
v -44.47692871 102.15459442 17.37805176
v -44.04941559 102.15459442 17.52998924
v -43.67875290 102.15459442 17.79163361
v -43.39242172 102.15459442 18.14357948
v -43.21166611 102.15459442 18.55972481
v -43.14988708 102.15459442 19.00920486
v -43.21166611 102.15459442 19.45868683
v -43.39242172 102.15459442 19.87483215
v -43.67875290 102.15459442 20.22677803
v -44.04941559 102.15459442 20.48842239
v -44.47692871 102.15459442 20.64035988
v -44.92957687 102.15459442 20.67132187
v -45.37379456 102.15459442 20.57901192
v -45.77663422 102.15459442 20.37027740
v -46.10821915 102.15459442 20.06059837
v -46.34395981 102.15459442 19.67294121
v -43.21166611 100.15459442 19.45868683
v -43.14988708 100.15459442 19.00920486
v -43.21166611 100.15459442 18.55972481
v -43.39242172 100.15459442 18.14357948
v -43.67875290 100.15459442 17.79163361
v -44.04941559 100.15459442 17.52998924
v -44.47692871 100.15459442 17.37805176
v -44.92957687 100.15459442 17.34708977
v -45.37379456 100.15459442 17.43939972
v -45.77663422 100.15459442 17.64813423
v -46.10821915 100.15459442 17.95781326
v -46.34395981 100.15459442 18.34546852
v -46.46636963 100.15459442 18.78235245
v -46.46636963 100.15459442 19.23605919
v -46.34395981 100.15459442 19.67294121
v -46.10821915 100.15459442 20.06059837
v -45.77663422 100.15459442 20.37027740
v -45.37379456 100.15459442 20.57901192
v -44.92957687 100.15459442 20.67132187
v -44.47692871 100.15459442 20.64035988
v -44.04941559 100.15459442 20.48842239
v -43.67875290 100.15459442 20.22677803
v -43.39242172 100.15459442 19.87483215
v -68.21353149 105.15459442 32.05051804
v -68.21353149 100.15459442 32.05051804
v -68.15174866 105.15459442 32.50000000
v -68.15174866 100.15459442 32.50000000
v -68.21353149 105.15459442 32.94948196
v -68.21353149 100.15459442 32.94948196
v -68.39428711 105.15459442 33.36562729
v -68.39428711 100.15459442 33.36562729
v -68.68061829 105.15459442 33.71757126
v -68.68061829 100.15459442 33.71757126
v -69.05128479 105.15459442 33.97921753
v -69.05128479 100.15459442 33.97921753
v -69.47879028 105.15459442 34.13115311
v -69.47879028 100.15459442 34.13115311
v -69.93144226 105.15459442 34.16211700
v -69.93144226 100.15459442 34.16211700
v -70.37565613 105.15459442 34.06980515
v -70.37565613 100.15459442 34.06980515
v -70.77850342 105.15459442 33.86107254
v -70.77850342 100.15459442 33.86107254
v -71.11008453 105.15459442 33.55139160
v -71.11008453 100.15459442 33.55139160
v -71.34582520 105.15459442 33.16373444
v -71.34582520 100.15459442 33.16373444
v -71.46823120 105.15459442 32.72685242
v -71.46823120 100.15459442 32.72685242
v -71.46823120 105.15459442 32.27314758
v -71.46823120 100.15459442 32.27314758
v -71.34582520 105.15459442 31.83626366
v -71.34582520 100.15459442 31.83626366
v -71.11008453 105.15459442 31.44860840
v -71.11008453 100.15459442 31.44860840
v -70.77850342 105.15459442 31.13892746
v -70.77850342 100.15459442 31.13892746
v -70.37565613 105.15459442 30.93019295
v -70.37565613 100.15459442 30.93019295
v -69.93144226 105.15459442 30.83788300
v -69.93144226 100.15459442 30.83788300
v -69.47879028 105.15459442 30.86884499
v -69.47879028 100.15459442 30.86884499
v -69.05128479 105.15459442 31.02078247
v -69.05128479 100.15459442 31.02078247
v -68.68061829 105.15459442 31.28242683
v -68.68061829 100.15459442 31.28242683
v -68.39428711 105.15459442 31.63437271
v -68.39428711 100.15459442 31.63437271
v -23.21352959 105.15459442 32.05051804
v -23.21352959 100.15459442 32.05051804
v -23.15175056 105.15459442 32.50000000
v -23.15175056 100.15459442 32.50000000
v -23.21352959 105.15459442 32.94948196
v -23.21352959 100.15459442 32.94948196
v -23.39428711 105.15459442 33.36562729
v -23.39428711 100.15459442 33.36562729
v -23.68061638 105.15459442 33.71757126
v -23.68061638 100.15459442 33.71757126
v -24.05128288 105.15459442 33.97921753
v -24.05128288 100.15459442 33.97921753
v -24.47879219 105.15459442 34.13115311
v -24.47879219 100.15459442 34.13115311
v -24.93144226 105.15459442 34.16211700
v -24.93144226 100.15459442 34.16211700
v -25.37565994 105.15459442 34.06980515
v -25.37565994 100.15459442 34.06980515
v -25.77849960 105.15459442 33.86107254
v -25.77849960 100.15459442 33.86107254
v -26.11008453 105.15459442 33.55139160
v -26.11008453 100.15459442 33.55139160
v -26.34582520 105.15459442 33.16373444
v -26.34582520 100.15459442 33.16373444
v -26.46823311 105.15459442 32.72685242
v -26.46823311 100.15459442 32.72685242
v -26.46823311 105.15459442 32.27314758
v -26.46823311 100.15459442 32.27314758
v -26.34582520 105.15459442 31.83626366
v -26.34582520 100.15459442 31.83626366
v -26.11008453 105.15459442 31.44860840
v -26.11008453 100.15459442 31.44860840
v -25.77849960 105.15459442 31.13892746
v -25.77849960 100.15459442 31.13892746
v -25.37565994 105.15459442 30.93019295
v -25.37565994 100.15459442 30.93019295
v -24.93144226 105.15459442 30.83788300
v -24.93144226 100.15459442 30.83788300
v -24.47879219 105.15459442 30.86884499
v -24.47879219 100.15459442 30.86884499
v -24.05128288 105.15459442 31.02078247
v -24.05128288 100.15459442 31.02078247
v -23.68061638 105.15459442 31.28242683
v -23.68061638 100.15459442 31.28242683
v -23.39428711 105.15459442 31.63437271
v -23.39428711 100.15459442 31.63437271
v -5.00000000 102.20510864 39.60422134
v -5.00000000 102.65459442 39.66600037
v -5.00000000 103.10407257 39.60422134
v -5.00000000 103.52021790 39.42346191
v -5.00000000 103.87216949 39.13713455
v -5.00000000 104.13381195 38.76646805
v -5.00000000 104.28574371 38.33895874
v -5.00000000 104.31671143 37.88630676
v -5.00000000 104.22440338 37.44208908
v -5.00000000 104.01566315 37.03924942
v -5.00000000 103.70598602 36.70766449
v -5.00000000 103.31832886 36.47192764
v -5.00000000 102.88144684 36.34951782
v -5.00000000 102.42774200 36.34951782
v -5.00000000 101.99085999 36.47192764
v -5.00000000 101.60320282 36.70766449
v -5.00000000 101.29351807 37.03924942
v -5.00000000 101.08478546 37.44208908
v -5.00000000 100.99247742 37.88630676
v -5.00000000 101.02343750 38.33895874
v -5.00000000 101.17537689 38.76646805
v -5.00000000 101.43701935 39.13713455
v -5.00000000 101.78896332 39.42346191
v -5.00000000 102.20510864 29.60421944
v -5.00000000 102.65459442 29.66600037
v -5.00000000 103.10407257 29.60421944
v -5.00000000 103.52021790 29.42346191
v -5.00000000 103.87216949 29.13713264
v -5.00000000 104.13381195 28.76646805
v -5.00000000 104.28574371 28.33895683
v -5.00000000 104.31671143 27.88630867
v -5.00000000 104.22440338 27.44209099
v -5.00000000 104.01566315 27.03925133
v -5.00000000 103.70598602 26.70766449
v -5.00000000 103.31832886 26.47192574
v -5.00000000 102.88144684 26.34951782
v -5.00000000 102.42774200 26.34951782
v -5.00000000 101.99085999 26.47192574
v -5.00000000 101.60320282 26.70766449
v -5.00000000 101.29351807 27.03925133
v -5.00000000 101.08478546 27.44209099
v -5.00000000 100.99247742 27.88630867
v -5.00000000 101.02343750 28.33895683
v -5.00000000 101.17537689 28.76646805
v -5.00000000 101.43701935 29.13713264
v -5.00000000 101.78896332 29.42346191
v -5.00000000 105.15459442 48.00000000
v -5.00000000 100.15459442 48.00000000
v -5.00000000 105.15459442 15.00000000
v -5.00000000 100.15459442 15.00000000
v -104.99967957 100.15459442 48.00000000
v -104.99967957 105.15459442 48.00000000
v -104.99967957 100.15459442 15.00000000
v -104.99967957 105.15459442 15.00000000
v -5.00000000 105.15459442 15.00000000
v -5.00000000 100.15459442 15.00000000
v -104.99967957 100.15459442 15.00000000
v -104.99967957 105.15459442 15.00000000
v -5.00000000 105.15459442 48.00000000
v -5.00000000 100.15459442 48.00000000
v -104.99967957 100.15459442 48.00000000
v -104.99967957 105.15459442 48.00000000
v -27.00050545 105.15459442 19.54766655
v -27.06588554 105.15459442 19.00920486
v -27.00050545 105.15459442 18.47074509
v -26.80816078 105.15459442 17.96357918
v -26.50003433 105.15459442 17.51717949
v -26.09403038 105.15459442 17.15749168
v -25.61374664 105.15459442 16.90541840
v -25.08709335 105.15459442 16.77560997
v -24.54467773 105.15459442 16.77560997
v -24.01802444 105.15459442 16.90541840
v -23.53774071 105.15459442 17.15749168
v -23.13173676 105.15459442 17.51717949
v -22.82361031 105.15459442 17.96357918
v -22.63126564 105.15459442 18.47074509
v -22.56588554 105.15459442 19.00920486
v -22.63126564 105.15459442 19.54766655
v -22.82361031 105.15459442 20.05483246
v -23.13173676 105.15459442 20.50123215
v -23.53774071 105.15459442 20.86091995
v -24.01802444 105.15459442 21.11299133
v -24.54467773 105.15459442 21.24279976
v -25.08709335 105.15459442 21.24279976
v -25.61374664 105.15459442 21.11299133
v -26.09403038 105.15459442 20.86091995
v -26.50003433 105.15459442 20.50123215
v -26.80816078 105.15459442 20.05483246
v -47.00050354 105.15459442 19.54766655
v -47.06588364 105.15459442 19.00920486
v -47.00050354 105.15459442 18.47074509
v -46.80816269 105.15459442 17.96357918
v -46.50003433 105.15459442 17.51717949
v -46.09403229 105.15459442 17.15749168
v -45.61374664 105.15459442 16.90541840
v -45.08709335 105.15459442 16.77560997
v -44.54467773 105.15459442 16.77560997
v -44.01802444 105.15459442 16.90541840
v -43.53773880 105.15459442 17.15749168
v -43.13173676 105.15459442 17.51717949
v -42.82360840 105.15459442 17.96357918
v -42.63126755 105.15459442 18.47074509
v -42.56588364 105.15459442 19.00920486
v -42.63126755 105.15459442 19.54766655
v -42.82360840 105.15459442 20.05483246
v -43.13173676 105.15459442 20.50123215
v -43.53773880 105.15459442 20.86091995
v -44.01802444 105.15459442 21.11299133
v -44.54467773 105.15459442 21.24279976
v -45.08709335 105.15459442 21.24279976
v -45.61374664 105.15459442 21.11299133
v -46.09403229 105.15459442 20.86091995
v -46.50003433 105.15459442 20.50123215
v -46.80816269 105.15459442 20.05483246
v -68.21353149 105.15459442 32.05051804
v -68.15174866 105.15459442 32.50000000
v -68.21353149 105.15459442 32.94948196
v -68.39428711 105.15459442 33.36562729
v -68.68061829 105.15459442 33.71757126
v -69.05128479 105.15459442 33.97921753
v -69.47879028 105.15459442 34.13115311
v -69.93144226 105.15459442 34.16211700
v -70.37565613 105.15459442 34.06980515
v -70.77850342 105.15459442 33.86107254
v -71.11008453 105.15459442 33.55139160
v -71.34582520 105.15459442 33.16373444
v -71.46823120 105.15459442 32.72685242
v -71.46823120 105.15459442 32.27314758
v -71.34582520 105.15459442 31.83626366
v -71.11008453 105.15459442 31.44860840
v -70.77850342 105.15459442 31.13892746
v -70.37565613 105.15459442 30.93019295
v -69.93144226 105.15459442 30.83788300
v -69.47879028 105.15459442 30.86884499
v -69.05128479 105.15459442 31.02078247
v -68.68061829 105.15459442 31.28242683
v -68.39428711 105.15459442 31.63437271
v -23.21352959 105.15459442 32.05051804
v -23.15175056 105.15459442 32.50000000
v -23.21352959 105.15459442 32.94948196
v -23.39428711 105.15459442 33.36562729
v -23.68061638 105.15459442 33.71757126
v -24.05128288 105.15459442 33.97921753
v -24.47879219 105.15459442 34.13115311
v -24.93144226 105.15459442 34.16211700
v -25.37565994 105.15459442 34.06980515
v -25.77849960 105.15459442 33.86107254
v -26.11008453 105.15459442 33.55139160
v -26.34582520 105.15459442 33.16373444
v -26.46823311 105.15459442 32.72685242
v -26.46823311 105.15459442 32.27314758
v -26.34582520 105.15459442 31.83626366
v -26.11008453 105.15459442 31.44860840
v -25.77849960 105.15459442 31.13892746
v -25.37565994 105.15459442 30.93019295
v -24.93144226 105.15459442 30.83788300
v -24.47879219 105.15459442 30.86884499
v -24.05128288 105.15459442 31.02078247
v -23.68061638 105.15459442 31.28242683
v -23.39428711 105.15459442 31.63437271
v -5.00000000 105.15459442 48.00000000
v -5.00000000 105.15459442 15.00000000
v -104.99967957 105.15459442 48.00000000
v -104.99967957 105.15459442 15.00000000
v -23.21166611 100.15459442 19.45868683
v -23.14988518 100.15459442 19.00920486
v -23.21166611 100.15459442 18.55972481
v -23.39242363 100.15459442 18.14357948
v -23.67875290 100.15459442 17.79163361
v -24.04941750 100.15459442 17.52998924
v -24.47692871 100.15459442 17.37805176
v -24.92957687 100.15459442 17.34708977
v -25.37379456 100.15459442 17.43939972
v -25.77663422 100.15459442 17.64813423
v -26.10822105 100.15459442 17.95781326
v -26.34395981 100.15459442 18.34546852
v -26.46636772 100.15459442 18.78235245
v -26.46636772 100.15459442 19.23605919
v -26.34395981 100.15459442 19.67294121
v -26.10822105 100.15459442 20.06059837
v -25.77663422 100.15459442 20.37027740
v -25.37379456 100.15459442 20.57901192
v -24.92957687 100.15459442 20.67132187
v -24.47692871 100.15459442 20.64035988
v -24.04941750 100.15459442 20.48842239
v -23.67875290 100.15459442 20.22677803
v -23.39242363 100.15459442 19.87483215
v -43.21166611 100.15459442 19.45868683
v -43.14988708 100.15459442 19.00920486
v -43.21166611 100.15459442 18.55972481
v -43.39242172 100.15459442 18.14357948
v -43.67875290 100.15459442 17.79163361
v -44.04941559 100.15459442 17.52998924
v -44.47692871 100.15459442 17.37805176
v -44.92957687 100.15459442 17.34708977
v -45.37379456 100.15459442 17.43939972
v -45.77663422 100.15459442 17.64813423
v -46.10821915 100.15459442 17.95781326
v -46.34395981 100.15459442 18.34546852
v -46.46636963 100.15459442 18.78235245
v -46.46636963 100.15459442 19.23605919
v -46.34395981 100.15459442 19.67294121
v -46.10821915 100.15459442 20.06059837
v -45.77663422 100.15459442 20.37027740
v -45.37379456 100.15459442 20.57901192
v -44.92957687 100.15459442 20.67132187
v -44.47692871 100.15459442 20.64035988
v -44.04941559 100.15459442 20.48842239
v -43.67875290 100.15459442 20.22677803
v -43.39242172 100.15459442 19.87483215
v -68.21353149 100.15459442 32.05051804
v -68.15174866 100.15459442 32.50000000
v -68.21353149 100.15459442 32.94948196
v -68.39428711 100.15459442 33.36562729
v -68.68061829 100.15459442 33.71757126
v -69.05128479 100.15459442 33.97921753
v -69.47879028 100.15459442 34.13115311
v -69.93144226 100.15459442 34.16211700
v -70.37565613 100.15459442 34.06980515
v -70.77850342 100.15459442 33.86107254
v -71.11008453 100.15459442 33.55139160
v -71.34582520 100.15459442 33.16373444
v -71.46823120 100.15459442 32.72685242
v -71.46823120 100.15459442 32.27314758
v -71.34582520 100.15459442 31.83626366
v -71.11008453 100.15459442 31.44860840
v -70.77850342 100.15459442 31.13892746
v -70.37565613 100.15459442 30.93019295
v -69.93144226 100.15459442 30.83788300
v -69.47879028 100.15459442 30.86884499
v -69.05128479 100.15459442 31.02078247
v -68.68061829 100.15459442 31.28242683
v -68.39428711 100.15459442 31.63437271
v -23.21352959 100.15459442 32.05051804
v -23.15175056 100.15459442 32.50000000
v -23.21352959 100.15459442 32.94948196
v -23.39428711 100.15459442 33.36562729
v -23.68061638 100.15459442 33.71757126
v -24.05128288 100.15459442 33.97921753
v -24.47879219 100.15459442 34.13115311
v -24.93144226 100.15459442 34.16211700
v -25.37565994 100.15459442 34.06980515
v -25.77849960 100.15459442 33.86107254
v -26.11008453 100.15459442 33.55139160
v -26.34582520 100.15459442 33.16373444
v -26.46823311 100.15459442 32.72685242
v -26.46823311 100.15459442 32.27314758
v -26.34582520 100.15459442 31.83626366
v -26.11008453 100.15459442 31.44860840
v -25.77849960 100.15459442 31.13892746
v -25.37565994 100.15459442 30.93019295
v -24.93144226 100.15459442 30.83788300
v -24.47879219 100.15459442 30.86884499
v -24.05128288 100.15459442 31.02078247
v -23.68061638 100.15459442 31.28242683
v -23.39428711 100.15459442 31.63437271
v -5.00000000 100.15459442 48.00000000
v -5.00000000 100.15459442 15.00000000
v -104.99967957 100.15459442 48.00000000
v -104.99967957 100.15459442 15.00000000
f 1 2 3
f 3 2 4
f 3 4 5
f 5 4 6
f 5 6 7
f 7 6 8
f 7 8 9
f 9 8 10
f 9 10 11
f 11 10 12
f 11 12 13
f 13 12 14
f 13 14 15
f 15 14 16
f 15 16 17
f 17 16 18
f 17 18 19
f 19 18 20
f 19 20 21
f 21 20 22
f 21 22 23
f 23 22 24
f 23 24 25
f 25 24 26
f 25 26 27
f 27 26 28
f 27 28 29
f 29 28 30
f 29 30 31
f 31 30 32
f 31 32 33
f 33 32 34
f 33 34 35
f 35 34 36
f 35 36 37
f 37 36 38
f 37 38 39
f 39 38 40
f 39 40 41
f 41 40 42
f 41 42 43
f 43 42 44
f 43 44 45
f 45 44 46
f 45 46 1
f 1 46 2
f 47 28 48
f 48 28 26
f 48 26 49
f 49 26 24
f 49 24 50
f 50 24 22
f 50 22 51
f 51 22 20
f 51 20 52
f 52 20 18
f 52 18 53
f 53 18 16
f 53 16 54
f 54 16 14
f 54 14 55
f 55 14 12
f 55 12 56
f 56 12 10
f 56 10 57
f 57 10 8
f 57 8 58
f 58 8 6
f 58 6 59
f 59 6 4
f 59 4 60
f 60 4 2
f 60 2 61
f 61 2 46
f 61 46 62
f 62 46 44
f 62 44 63
f 63 44 42
f 63 42 64
f 64 42 40
f 64 40 65
f 65 40 38
f 65 38 66
f 66 38 36
f 66 36 67
f 67 36 34
f 67 34 68
f 68 34 32
f 68 32 69
f 69 32 30
f 69 30 47
f 47 30 28
f 71 72 70
f 70 72 92
f 92 72 73
f 92 73 91
f 91 73 74
f 91 74 90
f 90 74 75
f 90 75 89
f 89 75 76
f 89 76 88
f 88 76 87
f 87 76 86
f 86 76 85
f 85 76 84
f 84 76 83
f 83 76 82
f 82 76 81
f 81 76 80
f 80 76 79
f 79 76 78
f 78 76 77
f 93 94 95
f 95 94 96
f 95 96 97
f 97 96 98
f 97 98 99
f 99 98 100
f 99 100 101
f 101 100 102
f 101 102 103
f 103 102 104
f 103 104 105
f 105 104 106
f 105 106 107
f 107 106 108
f 107 108 109
f 109 108 110
f 109 110 111
f 111 110 112
f 111 112 113
f 113 112 114
f 113 114 115
f 115 114 116
f 115 116 117
f 117 116 118
f 117 118 119
f 119 118 120
f 119 120 121
f 121 120 122
f 121 122 123
f 123 122 124
f 123 124 125
f 125 124 126
f 125 126 127
f 127 126 128
f 127 128 129
f 129 128 130
f 129 130 131
f 131 130 132
f 131 132 133
f 133 132 134
f 133 134 135
f 135 134 136
f 135 136 137
f 137 136 138
f 137 138 93
f 93 138 94
f 139 120 140
f 140 120 118
f 140 118 141
f 141 118 116
f 141 116 142
f 142 116 114
f 142 114 143
f 143 114 112
f 143 112 144
f 144 112 110
f 144 110 145
f 145 110 108
f 145 108 146
f 146 108 106
f 146 106 147
f 147 106 104
f 147 104 148
f 148 104 102
f 148 102 149
f 149 102 100
f 149 100 150
f 150 100 98
f 150 98 151
f 151 98 96
f 151 96 152
f 152 96 94
f 152 94 153
f 153 94 138
f 153 138 154
f 154 138 136
f 154 136 155
f 155 136 134
f 155 134 156
f 156 134 132
f 156 132 157
f 157 132 130
f 157 130 158
f 158 130 128
f 158 128 159
f 159 128 126
f 159 126 160
f 160 126 124
f 160 124 161
f 161 124 122
f 161 122 139
f 139 122 120
f 163 164 162
f 162 164 184
f 184 164 165
f 184 165 183
f 183 165 166
f 183 166 182
f 182 166 167
f 182 167 181
f 181 167 168
f 181 168 180
f 180 168 179
f 179 168 178
f 178 168 177
f 177 168 176
f 176 168 175
f 175 168 174
f 174 168 173
f 173 168 172
f 172 168 171
f 171 168 170
f 170 168 169
f 185 186 187
f 187 186 188
f 187 188 189
f 189 188 190
f 189 190 191
f 191 190 192
f 191 192 193
f 193 192 194
f 193 194 195
f 195 194 196
f 196 194 197
f 196 197 198
f 198 197 199
f 198 199 200
f 200 199 201
f 200 201 202
f 202 201 203
f 202 203 204
f 204 203 205
f 204 205 206
f 206 205 207
f 206 207 208
f 208 207 209
f 208 209 210
f 210 209 211
f 210 211 212
f 212 211 213
f 213 211 214
f 213 214 215
f 215 214 216
f 215 216 217
f 217 216 218
f 217 218 219
f 219 218 220
f 219 220 221
f 221 220 222
f 221 222 223
f 223 222 224
f 223 224 225
f 225 224 226
f 225 226 227
f 227 226 228
f 227 228 229
f 229 228 230
f 230 228 231
f 230 231 232
f 232 231 233
f 232 233 185
f 185 233 186
f 260 234 261
f 261 234 235
f 261 235 262
f 262 235 236
f 262 236 263
f 263 236 237
f 263 237 264
f 264 237 238
f 264 238 265
f 265 238 239
f 265 239 266
f 266 239 240
f 266 240 267
f 267 240 241
f 267 241 268
f 268 241 242
f 268 242 269
f 269 242 243
f 269 243 270
f 270 243 244
f 270 244 271
f 271 244 245
f 271 245 272
f 272 245 246
f 272 246 273
f 273 246 247
f 273 247 274
f 274 247 248
f 274 248 275
f 275 248 249
f 275 249 276
f 276 249 250
f 276 250 277
f 277 250 251
f 277 251 278
f 278 251 252
f 278 252 279
f 279 252 253
f 279 253 280
f 280 253 254
f 280 254 281
f 281 254 255
f 281 255 282
f 282 255 256
f 282 256 283
f 283 256 257
f 283 257 284
f 284 257 258
f 284 258 285
f 285 258 259
f 285 259 260
f 260 259 234
f 309 299 310
f 310 299 298
f 310 298 311
f 311 298 297
f 311 297 312
f 312 297 296
f 312 296 313
f 313 296 295
f 313 295 314
f 314 295 294
f 314 294 315
f 315 294 293
f 315 293 316
f 316 293 292
f 316 292 317
f 317 292 291
f 317 291 318
f 318 291 290
f 318 290 319
f 319 290 289
f 319 289 320
f 320 289 288
f 320 288 321
f 321 288 287
f 321 287 322
f 322 287 286
f 322 286 323
f 323 286 308
f 323 308 324
f 324 308 307
f 324 307 325
f 325 307 306
f 325 306 326
f 326 306 305
f 326 305 327
f 327 305 304
f 327 304 328
f 328 304 303
f 328 303 329
f 329 303 302
f 329 302 330
f 330 302 301
f 330 301 331
f 331 301 300
f 331 300 309
f 309 300 299
f 332 333 334
f 334 333 335
f 334 335 336
f 336 335 337
f 336 337 338
f 338 337 339
f 338 339 340
f 340 339 341
f 340 341 342
f 342 341 343
f 343 341 344
f 343 344 345
f 345 344 346
f 345 346 347
f 347 346 348
f 347 348 349
f 349 348 350
f 349 350 351
f 351 350 352
f 351 352 353
f 353 352 354
f 353 354 355
f 355 354 356
f 355 356 357
f 357 356 358
f 357 358 359
f 359 358 360
f 360 358 361
f 360 361 362
f 362 361 363
f 362 363 364
f 364 363 365
f 364 365 366
f 366 365 367
f 366 367 368
f 368 367 369
f 368 369 370
f 370 369 371
f 370 371 372
f 372 371 373
f 372 373 374
f 374 373 375
f 374 375 376
f 376 375 377
f 377 375 378
f 377 378 379
f 379 378 380
f 379 380 332
f 332 380 333
f 407 381 408
f 408 381 382
f 408 382 409
f 409 382 383
f 409 383 410
f 410 383 384
f 410 384 411
f 411 384 385
f 411 385 412
f 412 385 386
f 412 386 413
f 413 386 387
f 413 387 414
f 414 387 388
f 414 388 415
f 415 388 389
f 415 389 416
f 416 389 390
f 416 390 417
f 417 390 391
f 417 391 418
f 418 391 392
f 418 392 419
f 419 392 393
f 419 393 420
f 420 393 394
f 420 394 421
f 421 394 395
f 421 395 422
f 422 395 396
f 422 396 423
f 423 396 397
f 423 397 424
f 424 397 398
f 424 398 425
f 425 398 399
f 425 399 426
f 426 399 400
f 426 400 427
f 427 400 401
f 427 401 428
f 428 401 402
f 428 402 429
f 429 402 403
f 429 403 430
f 430 403 404
f 430 404 431
f 431 404 405
f 431 405 432
f 432 405 406
f 432 406 407
f 407 406 381
f 456 446 457
f 457 446 445
f 457 445 458
f 458 445 444
f 458 444 459
f 459 444 443
f 459 443 460
f 460 443 442
f 460 442 461
f 461 442 441
f 461 441 462
f 462 441 440
f 462 440 463
f 463 440 439
f 463 439 464
f 464 439 438
f 464 438 465
f 465 438 437
f 465 437 466
f 466 437 436
f 466 436 467
f 467 436 435
f 467 435 468
f 468 435 434
f 468 434 469
f 469 434 433
f 469 433 470
f 470 433 455
f 470 455 471
f 471 455 454
f 471 454 472
f 472 454 453
f 472 453 473
f 473 453 452
f 473 452 474
f 474 452 451
f 474 451 475
f 475 451 450
f 475 450 476
f 476 450 449
f 476 449 477
f 477 449 448
f 477 448 478
f 478 448 447
f 478 447 456
f 456 447 446
f 479 480 481
f 481 480 482
f 481 482 483
f 483 482 484
f 483 484 485
f 485 484 486
f 485 486 487
f 487 486 488
f 487 488 489
f 489 488 490
f 489 490 491
f 491 490 492
f 491 492 493
f 493 492 494
f 493 494 495
f 495 494 496
f 495 496 497
f 497 496 498
f 497 498 499
f 499 498 500
f 499 500 501
f 501 500 502
f 501 502 503
f 503 502 504
f 503 504 505
f 505 504 506
f 505 506 507
f 507 506 508
f 507 508 509
f 509 508 510
f 509 510 511
f 511 510 512
f 511 512 513
f 513 512 514
f 513 514 515
f 515 514 516
f 515 516 517
f 517 516 518
f 517 518 519
f 519 518 520
f 519 520 521
f 521 520 522
f 521 522 523
f 523 522 524
f 523 524 479
f 479 524 480
f 525 526 527
f 527 526 528
f 527 528 529
f 529 528 530
f 529 530 531
f 531 530 532
f 531 532 533
f 533 532 534
f 533 534 535
f 535 534 536
f 535 536 537
f 537 536 538
f 537 538 539
f 539 538 540
f 539 540 541
f 541 540 542
f 541 542 543
f 543 542 544
f 543 544 545
f 545 544 546
f 545 546 547
f 547 546 548
f 547 548 549
f 549 548 550
f 549 550 551
f 551 550 552
f 551 552 553
f 553 552 554
f 553 554 555
f 555 554 556
f 555 556 557
f 557 556 558
f 557 558 559
f 559 558 560
f 559 560 561
f 561 560 562
f 561 562 563
f 563 562 564
f 563 564 565
f 565 564 566
f 565 566 567
f 567 566 568
f 567 568 569
f 569 568 570
f 569 570 525
f 525 570 526
f 573 617 572
f 572 617 618
f 572 618 571
f 571 618 593
f 593 618 592
f 592 618 591
f 591 618 590
f 590 618 589
f 589 618 612
f 589 612 613
f 573 574 617
f 617 574 575
f 617 575 576
f 576 577 617
f 617 577 578
f 617 578 601
f 601 578 600
f 600 578 579
f 600 579 599
f 599 579 580
f 599 580 598
f 598 580 581
f 598 581 597
f 597 581 582
f 597 582 596
f 596 582 583
f 596 583 595
f 595 583 584
f 595 584 594
f 594 584 585
f 594 585 616
f 616 585 586
f 616 586 615
f 615 586 587
f 615 587 614
f 614 587 588
f 614 588 613
f 613 588 589
f 617 601 619
f 619 601 602
f 619 602 603
f 603 604 619
f 619 604 605
f 619 605 606
f 606 607 619
f 619 607 620
f 620 607 608
f 620 608 609
f 609 610 620
f 620 610 611
f 620 611 612
f 618 620 612
f 621 622 623
f 623 622 624
f 625 626 628
f 628 626 627
f 630 629 631
f 631 629 632
f 670 637 638
f 670 638 669
f 663 734 662
f 662 734 661
f 659 703 684
f 659 734 703
f 660 734 659
f 661 734 660
f 672 635 636
f 672 636 671
f 671 636 637
f 671 637 670
f 668 640 667
f 668 639 640
f 669 639 668
f 669 638 639
f 732 648 649
f 732 647 648
f 646 647 732
f 732 645 646
f 732 644 645
f 643 644 732
f 673 635 672
f 654 725 726
f 654 679 725
f 655 679 654
f 655 678 679
f 656 678 655
f 656 677 678
f 657 677 656
f 657 676 677
f 658 676 657
f 665 734 664
f 664 734 663
f 724 679 680
f 724 680 706
f 667 640 732
f 667 732 666
f 666 732 734
f 666 734 665
f 687 720 686
f 686 720 721
f 686 721 685
f 685 721 722
f 729 651 728
f 732 651 729
f 732 650 651
f 649 650 732
f 714 731 713
f 715 731 714
f 715 691 731
f 716 691 715
f 716 690 691
f 717 690 716
f 732 642 643
f 732 641 642
f 640 641 732
f 680 705 706
f 680 704 705
f 681 704 680
f 682 704 681
f 682 703 704
f 683 703 682
f 684 703 683
f 685 722 707
f 707 722 723
f 707 723 706
f 706 723 724
f 720 687 719
f 719 687 688
f 719 688 718
f 718 688 689
f 718 689 717
f 717 689 690
f 709 732 708
f 709 731 732
f 710 731 709
f 711 731 710
f 712 731 711
f 713 731 712
f 731 691 733
f 733 691 692
f 708 732 730
f 730 732 729
f 728 651 652
f 728 652 727
f 727 652 653
f 727 653 726
f 726 653 654
f 725 679 724
f 733 692 693
f 693 694 733
f 733 694 695
f 733 695 696
f 696 697 733
f 733 697 698
f 634 674 633
f 633 674 675
f 734 702 703
f 734 701 702
f 635 673 634
f 634 673 674
f 658 675 676
f 633 675 658
f 700 701 734
f 734 699 700
f 734 698 699
f 733 698 734
f 806 827 807
f 805 827 806
f 805 828 827
f 804 828 805
f 807 827 808
f 808 827 809
f 804 826 828
f 828 826 825
f 829 787 827
f 829 788 787
f 830 794 829
f 830 795 794
f 796 795 830
f 830 797 796
f 830 798 797
f 799 798 830
f 827 811 810
f 827 810 809
f 802 801 776
f 776 801 800
f 758 749 780
f 758 748 749
f 759 748 758
f 759 747 748
f 760 747 759
f 760 746 747
f 828 765 830
f 830 765 766
f 741 742 828
f 828 742 765
f 828 739 740
f 828 740 741
f 828 737 738
f 738 739 828
f 735 736 828
f 828 736 737
f 830 766 767
f 765 742 764
f 764 742 743
f 764 743 763
f 763 743 744
f 763 744 762
f 762 744 745
f 762 745 761
f 761 745 746
f 761 746 760
f 823 754 824
f 824 754 755
f 824 755 828
f 828 755 756
f 828 756 757
f 757 735 828
f 780 749 750
f 780 750 779
f 779 750 751
f 779 751 778
f 778 751 752
f 778 752 777
f 777 752 753
f 777 753 822
f 822 753 823
f 823 753 754
f 785 814 813
f 785 813 786
f 786 813 812
f 786 812 787
f 787 812 811
f 787 811 827
f 767 768 830
f 830 768 769
f 830 769 770
f 770 771 830
f 830 771 772
f 830 772 799
f 799 772 773
f 799 773 774
f 799 774 800
f 800 774 775
f 800 775 776
f 777 821 776
f 776 821 820
f 776 820 802
f 802 820 819
f 802 819 803
f 789 788 829
f 829 790 789
f 829 791 790
f 792 791 829
f 829 793 792
f 829 794 793
f 803 819 818
f 803 818 781
f 783 815 784
f 783 816 815
f 782 816 783
f 782 817 816
f 781 817 782
f 781 818 817
f 784 815 814
f 784 814 785
f 828 825 824
f 822 821 777

