# https://github.com/mikedh/trimesh

o M_Top_1.stl
v -33.55301285 59.79127884 48.00000000
v -33.55301285 59.79127884 58.00000000
v -33.63151550 59.22011948 48.00000000
v -33.63151550 59.22011948 58.00000000
v -33.55301285 58.64896011 48.00000000
v -33.55301285 58.64896011 58.00000000
v -33.32332230 58.12015915 48.00000000
v -33.32332230 58.12015915 58.00000000
v -32.95948029 57.67293930 48.00000000
v -32.95948029 57.67293930 58.00000000
v -32.48847198 57.34046555 48.00000000
v -32.48847198 57.34046555 58.00000000
v -31.94523239 57.14739609 48.00000000
v -31.94523239 57.14739609 58.00000000
v -31.37004662 57.10805511 48.00000000
v -31.37004662 57.10805511 58.00000000
v -30.80557632 57.22535324 48.00000000
v -30.80557632 57.22535324 58.00000000
v -30.29368401 57.49059296 48.00000000
v -30.29368401 57.49059296 58.00000000
v -29.87233543 57.88410568 48.00000000
v -29.87233543 57.88410568 58.00000000
v -29.57277870 58.37670135 48.00000000
v -29.57277870 58.37670135 58.00000000
v -29.41723442 58.93185425 48.00000000
v -29.41723442 58.93185425 58.00000000
v -29.41723442 59.50838470 48.00000000
v -29.41723442 59.50838470 58.00000000
v -29.57277870 60.06353378 48.00000000
v -29.57277870 60.06353378 58.00000000
v -29.87233543 60.55612946 48.00000000
v -29.87233543 60.55612946 58.00000000
v -30.29368401 60.94964218 48.00000000
v -30.29368401 60.94964218 58.00000000
v -30.80557632 61.21488571 48.00000000
v -30.80557632 61.21488571 58.00000000
v -31.37004662 61.33218384 48.00000000
v -31.37004662 61.33218384 58.00000000
v -31.94523239 61.29283905 48.00000000
v -31.94523239 61.29283905 58.00000000
v -32.48847198 61.09976959 48.00000000
v -32.48847198 61.09976959 58.00000000
v -32.95948029 60.76729965 48.00000000
v -32.95948029 60.76729965 58.00000000
v -33.32332230 60.32007599 48.00000000
v -33.32332230 60.32007599 58.00000000
v -40.98517609 25.13057518 58.00000000
v -40.98517609 25.13057518 53.00000000
v -41.50000000 25.04903412 58.00000000
v -41.50000000 25.04903412 53.00000000
v -42.01482391 25.13057518 58.00000000
v -42.01482391 25.13057518 53.00000000
v -42.47925186 25.36721230 58.00000000
v -42.47925186 25.36721230 53.00000000
v -42.84782410 25.73578453 58.00000000
v -42.84782410 25.73578453 53.00000000
v -43.08446121 26.20021248 58.00000000
v -43.08446121 26.20021248 53.00000000
v -43.16600037 26.71503448 58.00000000
v -43.16600037 26.71503448 53.00000000
v -43.08446121 27.22985649 58.00000000
v -43.08446121 27.22985649 53.00000000
v -42.84782410 27.69428444 58.00000000
v -42.84782410 27.69428444 53.00000000
v -42.47925186 28.06285667 58.00000000
v -42.47925186 28.06285667 53.00000000
v -42.01482391 28.29949570 58.00000000
v -42.01482391 28.29949570 53.00000000
v -41.50000000 28.38103485 58.00000000
v -41.50000000 28.38103485 53.00000000
v -40.98517609 28.29949570 58.00000000
v -40.98517609 28.29949570 53.00000000
v -40.52074814 28.06285667 58.00000000
v -40.52074814 28.06285667 53.00000000
v -40.15217590 27.69428444 58.00000000
v -40.15217590 27.69428444 53.00000000
v -39.91553879 27.22985649 58.00000000
v -39.91553879 27.22985649 53.00000000
v -39.83399963 26.71503448 58.00000000
v -39.83399963 26.71503448 53.00000000
v -39.91553879 26.20021248 58.00000000
v -39.91553879 26.20021248 53.00000000
v -40.15217590 25.73578453 58.00000000
v -40.15217590 25.73578453 53.00000000
v -40.52074814 25.36721230 58.00000000
v -40.52074814 25.36721230 53.00000000
v -40.98517609 25.13057518 53.00000000
v -41.50000000 25.04903412 53.00000000
v -42.01482391 25.13057518 53.00000000
v -42.47925186 25.36721230 53.00000000
v -42.84782410 25.73578453 53.00000000
v -43.08446121 26.20021248 53.00000000
v -43.16600037 26.71503448 53.00000000
v -43.08446121 27.22985649 53.00000000
v -42.84782410 27.69428444 53.00000000
v -42.47925186 28.06285667 53.00000000
v -42.01482391 28.29949570 53.00000000
v -41.50000000 28.38103485 53.00000000
v -40.98517609 28.29949570 53.00000000
v -40.52074814 28.06285667 53.00000000
v -40.15217590 27.69428444 53.00000000
v -39.91553879 27.22985649 53.00000000
v -39.83399963 26.71503448 53.00000000
v -39.91553879 26.20021248 53.00000000
v -40.15217590 25.73578453 53.00000000
v -40.52074814 25.36721230 53.00000000
v -50.00000000 104.13648987 52.37827682
v -40.00000000 104.13648987 52.37827682
v -50.00000000 104.21503448 53.00000000
v -40.00000000 104.21503448 53.00000000
v -50.00000000 104.13648987 53.62172318
v -40.00000000 104.13648987 53.62172318
v -50.00000000 103.90579987 54.20438385
v -40.00000000 103.90579987 54.20438385
v -50.00000000 103.53745270 54.71136856
v -40.00000000 103.53745270 54.71136856
v -50.00000000 103.05460358 55.11082077
v -40.00000000 103.05460358 55.11082077
v -50.00000000 102.48757935 55.37763977
v -40.00000000 102.48757935 55.37763977
v -50.00000000 101.87200928 55.49506760
v -40.00000000 101.87200928 55.49506760
v -50.00000000 101.24658203 55.45571899
v -40.00000000 101.24658203 55.45571899
v -50.00000000 100.65058899 55.26206589
v -40.00000000 100.65058899 55.26206589
v -50.00000000 100.12147522 54.92628479
v -40.00000000 100.12147522 54.92628479
v -50.00000000 99.69248962 54.46946335
v -40.00000000 99.69248962 54.46946335
v -50.00000000 99.39059448 53.92031097
v -40.00000000 99.39059448 53.92031097
v -50.00000000 99.23474884 53.31333160
v -40.00000000 99.23474884 53.31333160
v -50.00000000 99.23474884 52.68666840
v -40.00000000 99.23474884 52.68666840
v -50.00000000 99.39059448 52.07968903
v -40.00000000 99.39059448 52.07968903
v -50.00000000 99.69248962 51.53053665
v -40.00000000 99.69248962 51.53053665
v -50.00000000 100.12147522 51.07371521
v -40.00000000 100.12147522 51.07371521
v -50.00000000 100.65058899 50.73793411
v -40.00000000 100.65058899 50.73793411
v -50.00000000 101.24658203 50.54428101
v -40.00000000 101.24658203 50.54428101
v -50.00000000 101.87200928 50.50493240
v -40.00000000 101.87200928 50.50493240
v -50.00000000 102.48757935 50.62236023
v -40.00000000 102.48757935 50.62236023
v -50.00000000 103.05460358 50.88917923
v -40.00000000 103.05460358 50.88917923
v -50.00000000 103.53745270 51.28863144
v -40.00000000 103.53745270 51.28863144
v -50.00000000 103.90579987 51.79561615
v -40.00000000 103.90579987 51.79561615
v -40.00000000 104.13648987 52.37827682
v -40.00000000 104.21503448 53.00000000
v -40.00000000 104.13648987 53.62172318
v -40.00000000 103.90579987 54.20438385
v -40.00000000 103.53745270 54.71136856
v -40.00000000 103.05460358 55.11082077
v -40.00000000 102.48757935 55.37763977
v -40.00000000 101.87200928 55.49506760
v -40.00000000 101.24658203 55.45571899
v -40.00000000 100.65058899 55.26206589
v -40.00000000 100.12147522 54.92628479
v -40.00000000 99.69248962 54.46946335
v -40.00000000 99.39059448 53.92031097
v -40.00000000 99.23474884 53.31333160
v -40.00000000 99.23474884 52.68666840
v -40.00000000 99.39059448 52.07968903
v -40.00000000 99.69248962 51.53053665
v -40.00000000 100.12147522 51.07371521
v -40.00000000 100.65058899 50.73793411
v -40.00000000 101.24658203 50.54428101
v -40.00000000 101.87200928 50.50493240
v -40.00000000 102.48757935 50.62236023
v -40.00000000 103.05460358 50.88917923
v -40.00000000 103.53745270 51.28863144
v -40.00000000 103.90579987 51.79561615
v -50.00000000 19.13649178 52.37827682
v -40.00000000 19.13649178 52.37827682
v -50.00000000 19.21503448 53.00000000
v -40.00000000 19.21503448 53.00000000
v -50.00000000 19.13649178 53.62172318
v -40.00000000 19.13649178 53.62172318
v -50.00000000 18.90580177 54.20438385
v -40.00000000 18.90580177 54.20438385
v -50.00000000 18.53745651 54.71136856
v -40.00000000 18.53745651 54.71136856
v -50.00000000 18.05460167 55.11082077
v -40.00000000 18.05460167 55.11082077
v -50.00000000 17.48757744 55.37763977
v -40.00000000 17.48757744 55.37763977
v -50.00000000 16.87201118 55.49506760
v -40.00000000 16.87201118 55.49506760
v -50.00000000 16.24658203 55.45571899
v -40.00000000 16.24658203 55.45571899
v -50.00000000 15.65058613 55.26206589
v -40.00000000 15.65058613 55.26206589
v -50.00000000 15.12147522 54.92628479
v -40.00000000 15.12147522 54.92628479
v -50.00000000 14.69249249 54.46946335
v -40.00000000 14.69249249 54.46946335
v -50.00000000 14.39059353 53.92031097
v -40.00000000 14.39059353 53.92031097
v -50.00000000 14.23474789 53.31333160
v -40.00000000 14.23474789 53.31333160
v -50.00000000 14.23474789 52.68666840
v -40.00000000 14.23474789 52.68666840
v -50.00000000 14.39059353 52.07968903
v -40.00000000 14.39059353 52.07968903
v -50.00000000 14.69249249 51.53053665
v -40.00000000 14.69249249 51.53053665
v -50.00000000 15.12147522 51.07371521
v -40.00000000 15.12147522 51.07371521
v -50.00000000 15.65058613 50.73793411
v -40.00000000 15.65058613 50.73793411
v -50.00000000 16.24658203 50.54428101
v -40.00000000 16.24658203 50.54428101
v -50.00000000 16.87201118 50.50493240
v -40.00000000 16.87201118 50.50493240
v -50.00000000 17.48757744 50.62236023
v -40.00000000 17.48757744 50.62236023
v -50.00000000 18.05460167 50.88917923
v -40.00000000 18.05460167 50.88917923
v -50.00000000 18.53745651 51.28863144
v -40.00000000 18.53745651 51.28863144
v -50.00000000 18.90580177 51.79561615
v -40.00000000 18.90580177 51.79561615
v -40.00000000 19.13649178 52.37827682
v -40.00000000 19.21503448 53.00000000
v -40.00000000 19.13649178 53.62172318
v -40.00000000 18.90580177 54.20438385
v -40.00000000 18.53745651 54.71136856
v -40.00000000 18.05460167 55.11082077
v -40.00000000 17.48757744 55.37763977
v -40.00000000 16.87201118 55.49506760
v -40.00000000 16.24658203 55.45571899
v -40.00000000 15.65058613 55.26206589
v -40.00000000 15.12147522 54.92628479
v -40.00000000 14.69249249 54.46946335
v -40.00000000 14.39059353 53.92031097
v -40.00000000 14.23474789 53.31333160
v -40.00000000 14.23474789 52.68666840
v -40.00000000 14.39059353 52.07968903
v -40.00000000 14.69249249 51.53053665
v -40.00000000 15.12147522 51.07371521
v -40.00000000 15.65058613 50.73793411
v -40.00000000 16.24658203 50.54428101
v -40.00000000 16.87201118 50.50493240
v -40.00000000 17.48757744 50.62236023
v -40.00000000 18.05460167 50.88917923
v -40.00000000 18.53745651 51.28863144
v -40.00000000 18.90580177 51.79561615
v -20.51482201 114.34561157 48.00000000
v -20.51482201 114.34561157 58.00000000
v -20.00000000 114.26406860 48.00000000
v -20.00000000 114.26406860 58.00000000
v -19.48517799 114.34561157 48.00000000
v -19.48517799 114.34561157 58.00000000
v -19.02075005 114.58224487 48.00000000
v -19.02075005 114.58224487 58.00000000
v -18.65217781 114.95082092 48.00000000
v -18.65217781 114.95082092 58.00000000
v -18.41554070 115.41524506 48.00000000
v -18.41554070 115.41524506 58.00000000
v -18.33399963 115.93006897 48.00000000
v -18.33399963 115.93006897 58.00000000
v -18.41554070 116.44489288 48.00000000
v -18.41554070 116.44489288 58.00000000
v -18.65217781 116.90931702 48.00000000
v -18.65217781 116.90931702 58.00000000
v -19.02075005 117.27789307 48.00000000
v -19.02075005 117.27789307 58.00000000
v -19.48517799 117.51452637 48.00000000
v -19.48517799 117.51452637 58.00000000
v -20.00000000 117.59606934 48.00000000
v -20.00000000 117.59606934 58.00000000
v -20.51482201 117.51452637 48.00000000
v -20.51482201 117.51452637 58.00000000
v -20.97924995 117.27789307 48.00000000
v -20.97924995 117.27789307 58.00000000
v -21.34782219 116.90931702 48.00000000
v -21.34782219 116.90931702 58.00000000
v -21.58445930 116.44489288 48.00000000
v -21.58445930 116.44489288 58.00000000
v -21.66600037 115.93006897 48.00000000
v -21.66600037 115.93006897 58.00000000
v -21.58445930 115.41524506 48.00000000
v -21.58445930 115.41524506 58.00000000
v -21.34782219 114.95082092 48.00000000
v -21.34782219 114.95082092 58.00000000
v -20.97924995 114.58224487 48.00000000
v -20.97924995 114.58224487 58.00000000
v -3.01482224 29.23314857 48.00000000
v -3.01482224 29.23314857 58.00000000
v -2.50000000 29.15160942 48.00000000
v -2.50000000 29.15160942 58.00000000
v -1.98517764 29.23314857 48.00000000
v -1.98517764 29.23314857 58.00000000
v -1.52074981 29.46978569 48.00000000
v -1.52074981 29.46978569 58.00000000
v -1.15217769 29.83835793 48.00000000
v -1.15217769 29.83835793 58.00000000
v -0.91553986 30.30278587 48.00000000
v -0.91553986 30.30278587 58.00000000
v -0.83399999 30.81760788 48.00000000
v -0.83399999 30.81760788 58.00000000
v -0.91553986 31.33243179 48.00000000
v -0.91553986 31.33243179 58.00000000
v -1.15217769 31.79685974 48.00000000
v -1.15217769 31.79685974 58.00000000
v -1.52074981 32.16543198 48.00000000
v -1.52074981 32.16543198 58.00000000
v -1.98517764 32.40206909 48.00000000
v -1.98517764 32.40206909 58.00000000
v -2.50000000 32.48360825 48.00000000
v -2.50000000 32.48360825 58.00000000
v -3.01482224 32.40206909 48.00000000
v -3.01482224 32.40206909 58.00000000
v -3.47925019 32.16543198 48.00000000
v -3.47925019 32.16543198 58.00000000
v -3.84782243 31.79685974 48.00000000
v -3.84782243 31.79685974 58.00000000
v -4.08446026 31.33243179 48.00000000
v -4.08446026 31.33243179 58.00000000
v -4.16599989 30.81760788 48.00000000
v -4.16599989 30.81760788 58.00000000
v -4.08446026 30.30278587 48.00000000
v -4.08446026 30.30278587 58.00000000
v -3.84782243 29.83835793 48.00000000
v -3.84782243 29.83835793 58.00000000
v -3.47925019 29.46978569 48.00000000
v -3.47925019 29.46978569 58.00000000
v -40.51482391 0.91553986 48.00000000
v -40.51482391 0.91553986 58.00000000
v -40.00000000 0.83399999 48.00000000
v -40.00000000 0.83399999 58.00000000
v -39.48517609 0.91553986 48.00000000
v -39.48517609 0.91553986 58.00000000
v -39.02074814 1.15217769 48.00000000
v -39.02074814 1.15217769 58.00000000
v -38.65217590 1.52074981 48.00000000
v -38.65217590 1.52074981 58.00000000
v -38.41553879 1.98517764 48.00000000
v -38.41553879 1.98517764 58.00000000
v -38.33399963 2.50000000 48.00000000
v -38.33399963 2.50000000 58.00000000
v -38.41553879 3.01482224 48.00000000
v -38.41553879 3.01482224 58.00000000
v -38.65217590 3.47925019 48.00000000
v -38.65217590 3.47925019 58.00000000
v -39.02074814 3.84782243 48.00000000
v -39.02074814 3.84782243 58.00000000
v -39.48517609 4.08446026 48.00000000
v -39.48517609 4.08446026 58.00000000
v -40.00000000 4.16599989 48.00000000
v -40.00000000 4.16599989 58.00000000
v -40.51482391 4.08446026 48.00000000
v -40.51482391 4.08446026 58.00000000
v -40.97925186 3.84782243 48.00000000
v -40.97925186 3.84782243 58.00000000
v -41.34782410 3.47925019 48.00000000
v -41.34782410 3.47925019 58.00000000
v -41.58446121 3.01482224 48.00000000
v -41.58446121 3.01482224 58.00000000
v -41.66600037 2.50000000 48.00000000
v -41.66600037 2.50000000 58.00000000
v -41.58446121 1.98517764 48.00000000
v -41.58446121 1.98517764 58.00000000
v -41.34782410 1.52074981 48.00000000
v -41.34782410 1.52074981 58.00000000
v -40.97925186 1.15217769 48.00000000
v -40.97925186 1.15217769 58.00000000
v -20.51482201 0.91553986 48.00000000
v -20.51482201 0.91553986 58.00000000
v -20.00000000 0.83399999 48.00000000
v -20.00000000 0.83399999 58.00000000
v -19.48517799 0.91553986 48.00000000
v -19.48517799 0.91553986 58.00000000
v -19.02075005 1.15217769 48.00000000
v -19.02075005 1.15217769 58.00000000
v -18.65217781 1.52074981 48.00000000
v -18.65217781 1.52074981 58.00000000
v -18.41554070 1.98517764 48.00000000
v -18.41554070 1.98517764 58.00000000
v -18.33399963 2.50000000 48.00000000
v -18.33399963 2.50000000 58.00000000
v -18.41554070 3.01482224 48.00000000
v -18.41554070 3.01482224 58.00000000
v -18.65217781 3.47925019 48.00000000
v -18.65217781 3.47925019 58.00000000
v -19.02075005 3.84782243 48.00000000
v -19.02075005 3.84782243 58.00000000
v -19.48517799 4.08446026 48.00000000
v -19.48517799 4.08446026 58.00000000
v -20.00000000 4.16599989 48.00000000
v -20.00000000 4.16599989 58.00000000
v -20.51482201 4.08446026 48.00000000
v -20.51482201 4.08446026 58.00000000
v -20.97924995 3.84782243 48.00000000
v -20.97924995 3.84782243 58.00000000
v -21.34782219 3.47925019 48.00000000
v -21.34782219 3.47925019 58.00000000
v -21.58445930 3.01482224 48.00000000
v -21.58445930 3.01482224 58.00000000
v -21.66600037 2.50000000 48.00000000
v -21.66600037 2.50000000 58.00000000
v -21.58445930 1.98517764 48.00000000
v -21.58445930 1.98517764 58.00000000
v -21.34782219 1.52074981 48.00000000
v -21.34782219 1.52074981 58.00000000
v -20.97924995 1.15217769 48.00000000
v -20.97924995 1.15217769 58.00000000
v -3.01482224 86.84561157 48.00000000
v -3.01482224 86.84561157 58.00000000
v -2.50000000 86.76406860 48.00000000
v -2.50000000 86.76406860 58.00000000
v -1.98517764 86.84561157 48.00000000
v -1.98517764 86.84561157 58.00000000
v -1.52074981 87.08224487 48.00000000
v -1.52074981 87.08224487 58.00000000
v -1.15217769 87.45082092 48.00000000
v -1.15217769 87.45082092 58.00000000
v -0.91553986 87.91524506 48.00000000
v -0.91553986 87.91524506 58.00000000
v -0.83399999 88.43006897 48.00000000
v -0.83399999 88.43006897 58.00000000
v -0.91553986 88.94489288 48.00000000
v -0.91553986 88.94489288 58.00000000
v -1.15217769 89.40931702 48.00000000
v -1.15217769 89.40931702 58.00000000
v -1.52074981 89.77789307 48.00000000
v -1.52074981 89.77789307 58.00000000
v -1.98517764 90.01452637 48.00000000
v -1.98517764 90.01452637 58.00000000
v -2.50000000 90.09606934 48.00000000
v -2.50000000 90.09606934 58.00000000
v -3.01482224 90.01452637 48.00000000
v -3.01482224 90.01452637 58.00000000
v -3.47925019 89.77789307 48.00000000
v -3.47925019 89.77789307 58.00000000
v -3.84782243 89.40931702 48.00000000
v -3.84782243 89.40931702 58.00000000
v -4.08446026 88.94489288 48.00000000
v -4.08446026 88.94489288 58.00000000
v -4.16599989 88.43006897 48.00000000
v -4.16599989 88.43006897 58.00000000
v -4.08446026 87.91524506 48.00000000
v -4.08446026 87.91524506 58.00000000
v -3.84782243 87.45082092 48.00000000
v -3.84782243 87.45082092 58.00000000
v -3.47925019 87.08224487 48.00000000
v -3.47925019 87.08224487 58.00000000
v -40.51482391 114.34561157 48.00000000
v -40.51482391 114.34561157 58.00000000
v -40.00000000 114.26406860 48.00000000
v -40.00000000 114.26406860 58.00000000
v -39.48517609 114.34561157 48.00000000
v -39.48517609 114.34561157 58.00000000
v -39.02074814 114.58224487 48.00000000
v -39.02074814 114.58224487 58.00000000
v -38.65217590 114.95082092 48.00000000
v -38.65217590 114.95082092 58.00000000
v -38.41553879 115.41524506 48.00000000
v -38.41553879 115.41524506 58.00000000
v -38.33399963 115.93006897 48.00000000
v -38.33399963 115.93006897 58.00000000
v -38.41553879 116.44489288 48.00000000
v -38.41553879 116.44489288 58.00000000
v -38.65217590 116.90931702 48.00000000
v -38.65217590 116.90931702 58.00000000
v -39.02074814 117.27789307 48.00000000
v -39.02074814 117.27789307 58.00000000
v -39.48517609 117.51452637 48.00000000
v -39.48517609 117.51452637 58.00000000
v -40.00000000 117.59606934 48.00000000
v -40.00000000 117.59606934 58.00000000
v -40.51482391 117.51452637 48.00000000
v -40.51482391 117.51452637 58.00000000
v -40.97925186 117.27789307 48.00000000
v -40.97925186 117.27789307 58.00000000
v -41.34782410 116.90931702 48.00000000
v -41.34782410 116.90931702 58.00000000
v -41.58446121 116.44489288 48.00000000
v -41.58446121 116.44489288 58.00000000
v -41.66600037 115.93006897 48.00000000
v -41.66600037 115.93006897 58.00000000
v -41.58446121 115.41524506 48.00000000
v -41.58446121 115.41524506 58.00000000
v -41.34782410 114.95082092 48.00000000
v -41.34782410 114.95082092 58.00000000
v -40.97925186 114.58224487 48.00000000
v -40.97925186 114.58224487 58.00000000
v -55.00000000 84.21503448 58.00000000
v -50.00000000 84.21503448 58.00000000
v -55.00000000 84.21503448 48.00000000
v -50.00000000 84.21503448 48.00000000
v -55.00000000 84.21503448 58.00000000
v -55.00000000 84.21503448 48.00000000
v -55.00000000 34.21503448 58.00000000
v -55.00000000 34.21503448 48.00000000
v -55.00000000 34.21503448 58.00000000
v -55.00000000 34.21503448 48.00000000
v -50.00000000 34.21503448 58.00000000
v -50.00000000 34.21503448 48.00000000
v -50.00000000 19.13649178 52.37827682
v -50.00000000 19.21503448 53.00000000
v -50.00000000 19.13649178 53.62172318
v -50.00000000 18.90580177 54.20438385
v -50.00000000 18.53745651 54.71136856
v -50.00000000 18.05460167 55.11082077
v -50.00000000 17.48757744 55.37763977
v -50.00000000 16.87201118 55.49506760
v -50.00000000 16.24658203 55.45571899
v -50.00000000 15.65058613 55.26206589
v -50.00000000 15.12147522 54.92628479
v -50.00000000 14.69249249 54.46946335
v -50.00000000 14.39059353 53.92031097
v -50.00000000 14.23474789 53.31333160
v -50.00000000 14.23474789 52.68666840
v -50.00000000 14.39059353 52.07968903
v -50.00000000 14.69249249 51.53053665
v -50.00000000 15.12147522 51.07371521
v -50.00000000 15.65058613 50.73793411
v -50.00000000 16.24658203 50.54428101
v -50.00000000 16.87201118 50.50493240
v -50.00000000 17.48757744 50.62236023
v -50.00000000 18.05460167 50.88917923
v -50.00000000 18.53745651 51.28863144
v -50.00000000 18.90580177 51.79561615
v -50.00000000 34.21503448 58.00000000
v -50.00000000 34.21503448 48.00000000
v -50.00000000 0.00000000 48.00000000
v -50.00000000 0.00000000 58.00000000
v -50.00000000 104.13648987 52.37827682
v -50.00000000 104.21503448 53.00000000
v -50.00000000 104.13648987 53.62172318
v -50.00000000 103.90579987 54.20438385
v -50.00000000 103.53745270 54.71136856
v -50.00000000 103.05460358 55.11082077
v -50.00000000 102.48757935 55.37763977
v -50.00000000 101.87200928 55.49506760
v -50.00000000 101.24658203 55.45571899
v -50.00000000 100.65058899 55.26206589
v -50.00000000 100.12147522 54.92628479
v -50.00000000 99.69248962 54.46946335
v -50.00000000 99.39059448 53.92031097
v -50.00000000 99.23474884 53.31333160
v -50.00000000 99.23474884 52.68666840
v -50.00000000 99.39059448 52.07968903
v -50.00000000 99.69248962 51.53053665
v -50.00000000 100.12147522 51.07371521
v -50.00000000 100.65058899 50.73793411
v -50.00000000 101.24658203 50.54428101
v -50.00000000 101.87200928 50.50493240
v -50.00000000 102.48757935 50.62236023
v -50.00000000 103.05460358 50.88917923
v -50.00000000 103.53745270 51.28863144
v -50.00000000 103.90579987 51.79561615
v -50.00000000 84.21503448 58.00000000
v -50.00000000 84.21503448 48.00000000
v -50.00000000 118.43006897 58.00000000
v -50.00000000 118.43006897 48.00000000
v -50.00000000 0.00000000 48.00000000
v -50.00000000 0.00000000 58.00000000
v 0.00000000 0.00000000 48.00000000
v 0.00000000 0.00000000 58.00000000
v -50.00000000 118.43006897 58.00000000
v -50.00000000 118.43006897 48.00000000
v 0.00000000 118.43006897 48.00000000
v 0.00000000 118.43006897 58.00000000
v 0.00000000 118.43006897 48.00000000
v 0.00000000 0.00000000 48.00000000
v 0.00000000 0.00000000 58.00000000
v 0.00000000 118.43006897 58.00000000
v -33.55301285 59.79127884 48.00000000
v -33.63151550 59.22011948 48.00000000
v -33.55301285 58.64896011 48.00000000
v -33.32332230 58.12015915 48.00000000
v -32.95948029 57.67293930 48.00000000
v -32.48847198 57.34046555 48.00000000
v -31.94523239 57.14739609 48.00000000
v -31.37004662 57.10805511 48.00000000
v -30.80557632 57.22535324 48.00000000
v -30.29368401 57.49059296 48.00000000
v -29.87233543 57.88410568 48.00000000
v -29.57277870 58.37670135 48.00000000
v -29.41723442 58.93185425 48.00000000
v -29.41723442 59.50838470 48.00000000
v -29.57277870 60.06353378 48.00000000
v -29.87233543 60.55612946 48.00000000
v -30.29368401 60.94964218 48.00000000
v -30.80557632 61.21488571 48.00000000
v -31.37004662 61.33218384 48.00000000
v -31.94523239 61.29283905 48.00000000
v -32.48847198 61.09976959 48.00000000
v -32.95948029 60.76729965 48.00000000
v -33.32332230 60.32007599 48.00000000
v -20.51482201 114.34561157 48.00000000
v -20.00000000 114.26406860 48.00000000
v -19.48517799 114.34561157 48.00000000
v -19.02075005 114.58224487 48.00000000
v -18.65217781 114.95082092 48.00000000
v -18.41554070 115.41524506 48.00000000
v -18.33399963 115.93006897 48.00000000
v -18.41554070 116.44489288 48.00000000
v -18.65217781 116.90931702 48.00000000
v -19.02075005 117.27789307 48.00000000
v -19.48517799 117.51452637 48.00000000
v -20.00000000 117.59606934 48.00000000
v -20.51482201 117.51452637 48.00000000
v -20.97924995 117.27789307 48.00000000
v -21.34782219 116.90931702 48.00000000
v -21.58445930 116.44489288 48.00000000
v -21.66600037 115.93006897 48.00000000
v -21.58445930 115.41524506 48.00000000
v -21.34782219 114.95082092 48.00000000
v -20.97924995 114.58224487 48.00000000
v -3.01482224 29.23314857 48.00000000
v -2.50000000 29.15160942 48.00000000
v -1.98517764 29.23314857 48.00000000
v -1.52074981 29.46978569 48.00000000
v -1.15217769 29.83835793 48.00000000
v -0.91553986 30.30278587 48.00000000
v -0.83399999 30.81760788 48.00000000
v -0.91553986 31.33243179 48.00000000
v -1.15217769 31.79685974 48.00000000
v -1.52074981 32.16543198 48.00000000
v -1.98517764 32.40206909 48.00000000
v -2.50000000 32.48360825 48.00000000
v -3.01482224 32.40206909 48.00000000
v -3.47925019 32.16543198 48.00000000
v -3.84782243 31.79685974 48.00000000
v -4.08446026 31.33243179 48.00000000
v -4.16599989 30.81760788 48.00000000
v -4.08446026 30.30278587 48.00000000
v -3.84782243 29.83835793 48.00000000
v -3.47925019 29.46978569 48.00000000
v -40.51482391 0.91553986 48.00000000
v -40.00000000 0.83399999 48.00000000
v -39.48517609 0.91553986 48.00000000
v -39.02074814 1.15217769 48.00000000
v -38.65217590 1.52074981 48.00000000
v -38.41553879 1.98517764 48.00000000
v -38.33399963 2.50000000 48.00000000
v -38.41553879 3.01482224 48.00000000
v -38.65217590 3.47925019 48.00000000
v -39.02074814 3.84782243 48.00000000
v -39.48517609 4.08446026 48.00000000
v -40.00000000 4.16599989 48.00000000
v -40.51482391 4.08446026 48.00000000
v -40.97925186 3.84782243 48.00000000
v -41.34782410 3.47925019 48.00000000
v -41.58446121 3.01482224 48.00000000
v -41.66600037 2.50000000 48.00000000
v -41.58446121 1.98517764 48.00000000
v -41.34782410 1.52074981 48.00000000
v -40.97925186 1.15217769 48.00000000
v -20.51482201 0.91553986 48.00000000
v -20.00000000 0.83399999 48.00000000
v -19.48517799 0.91553986 48.00000000
v -19.02075005 1.15217769 48.00000000
v -18.65217781 1.52074981 48.00000000
v -18.41554070 1.98517764 48.00000000
v -18.33399963 2.50000000 48.00000000
v -18.41554070 3.01482224 48.00000000
v -18.65217781 3.47925019 48.00000000
v -19.02075005 3.84782243 48.00000000
v -19.48517799 4.08446026 48.00000000
v -20.00000000 4.16599989 48.00000000
v -20.51482201 4.08446026 48.00000000
v -20.97924995 3.84782243 48.00000000
v -21.34782219 3.47925019 48.00000000
v -21.58445930 3.01482224 48.00000000
v -21.66600037 2.50000000 48.00000000
v -21.58445930 1.98517764 48.00000000
v -21.34782219 1.52074981 48.00000000
v -20.97924995 1.15217769 48.00000000
v -3.01482224 86.84561157 48.00000000
v -2.50000000 86.76406860 48.00000000
v -1.98517764 86.84561157 48.00000000
v -1.52074981 87.08224487 48.00000000
v -1.15217769 87.45082092 48.00000000
v -0.91553986 87.91524506 48.00000000
v -0.83399999 88.43006897 48.00000000
v -0.91553986 88.94489288 48.00000000
v -1.15217769 89.40931702 48.00000000
v -1.52074981 89.77789307 48.00000000
v -1.98517764 90.01452637 48.00000000
v -2.50000000 90.09606934 48.00000000
v -3.01482224 90.01452637 48.00000000
v -3.47925019 89.77789307 48.00000000
v -3.84782243 89.40931702 48.00000000
v -4.08446026 88.94489288 48.00000000
v -4.16599989 88.43006897 48.00000000
v -4.08446026 87.91524506 48.00000000
v -3.84782243 87.45082092 48.00000000
v -3.47925019 87.08224487 48.00000000
v -40.51482391 114.34561157 48.00000000
v -40.00000000 114.26406860 48.00000000
v -39.48517609 114.34561157 48.00000000
v -39.02074814 114.58224487 48.00000000
v -38.65217590 114.95082092 48.00000000
v -38.41553879 115.41524506 48.00000000
v -38.33399963 115.93006897 48.00000000
v -38.41553879 116.44489288 48.00000000
v -38.65217590 116.90931702 48.00000000
v -39.02074814 117.27789307 48.00000000
v -39.48517609 117.51452637 48.00000000
v -40.00000000 117.59606934 48.00000000
v -40.51482391 117.51452637 48.00000000
v -40.97925186 117.27789307 48.00000000
v -41.34782410 116.90931702 48.00000000
v -41.58446121 116.44489288 48.00000000
v -41.66600037 115.93006897 48.00000000
v -41.58446121 115.41524506 48.00000000
v -41.34782410 114.95082092 48.00000000
v -40.97925186 114.58224487 48.00000000
v -55.00000000 84.21503448 48.00000000
v -50.00000000 84.21503448 48.00000000
v -55.00000000 34.21503448 48.00000000
v -50.00000000 34.21503448 48.00000000
v -50.00000000 0.00000000 48.00000000
v -50.00000000 118.43006897 48.00000000
v 0.00000000 118.43006897 48.00000000
v 0.00000000 0.00000000 48.00000000
v -33.55301285 59.79127884 58.00000000
v -33.63151550 59.22011948 58.00000000
v -33.55301285 58.64896011 58.00000000
v -33.32332230 58.12015915 58.00000000
v -32.95948029 57.67293930 58.00000000
v -32.48847198 57.34046555 58.00000000
v -31.94523239 57.14739609 58.00000000
v -31.37004662 57.10805511 58.00000000
v -30.80557632 57.22535324 58.00000000
v -30.29368401 57.49059296 58.00000000
v -29.87233543 57.88410568 58.00000000
v -29.57277870 58.37670135 58.00000000
v -29.41723442 58.93185425 58.00000000
v -29.41723442 59.50838470 58.00000000
v -29.57277870 60.06353378 58.00000000
v -29.87233543 60.55612946 58.00000000
v -30.29368401 60.94964218 58.00000000
v -30.80557632 61.21488571 58.00000000
v -31.37004662 61.33218384 58.00000000
v -31.94523239 61.29283905 58.00000000
v -32.48847198 61.09976959 58.00000000
v -32.95948029 60.76729965 58.00000000
v -33.32332230 60.32007599 58.00000000
v -40.98517609 25.13057518 58.00000000
v -41.50000000 25.04903412 58.00000000
v -42.01482391 25.13057518 58.00000000
v -42.47925186 25.36721230 58.00000000
v -42.84782410 25.73578453 58.00000000
v -43.08446121 26.20021248 58.00000000
v -43.16600037 26.71503448 58.00000000
v -43.08446121 27.22985649 58.00000000
v -42.84782410 27.69428444 58.00000000
v -42.47925186 28.06285667 58.00000000
v -42.01482391 28.29949570 58.00000000
v -41.50000000 28.38103485 58.00000000
v -40.98517609 28.29949570 58.00000000
v -40.52074814 28.06285667 58.00000000
v -40.15217590 27.69428444 58.00000000
v -39.91553879 27.22985649 58.00000000
v -39.83399963 26.71503448 58.00000000
v -39.91553879 26.20021248 58.00000000
v -40.15217590 25.73578453 58.00000000
v -40.52074814 25.36721230 58.00000000
v -20.51482201 114.34561157 58.00000000
v -20.00000000 114.26406860 58.00000000
v -19.48517799 114.34561157 58.00000000
v -19.02075005 114.58224487 58.00000000
v -18.65217781 114.95082092 58.00000000
v -18.41554070 115.41524506 58.00000000
v -18.33399963 115.93006897 58.00000000
v -18.41554070 116.44489288 58.00000000
v -18.65217781 116.90931702 58.00000000
v -19.02075005 117.27789307 58.00000000
v -19.48517799 117.51452637 58.00000000
v -20.00000000 117.59606934 58.00000000
v -20.51482201 117.51452637 58.00000000
v -20.97924995 117.27789307 58.00000000
v -21.34782219 116.90931702 58.00000000
v -21.58445930 116.44489288 58.00000000
v -21.66600037 115.93006897 58.00000000
v -21.58445930 115.41524506 58.00000000
v -21.34782219 114.95082092 58.00000000
v -20.97924995 114.58224487 58.00000000
v -3.01482224 29.23314857 58.00000000
v -2.50000000 29.15160942 58.00000000
v -1.98517764 29.23314857 58.00000000
v -1.52074981 29.46978569 58.00000000
v -1.15217769 29.83835793 58.00000000
v -0.91553986 30.30278587 58.00000000
v -0.83399999 30.81760788 58.00000000
v -0.91553986 31.33243179 58.00000000
v -1.15217769 31.79685974 58.00000000
v -1.52074981 32.16543198 58.00000000
v -1.98517764 32.40206909 58.00000000
v -2.50000000 32.48360825 58.00000000
v -3.01482224 32.40206909 58.00000000
v -3.47925019 32.16543198 58.00000000
v -3.84782243 31.79685974 58.00000000
v -4.08446026 31.33243179 58.00000000
v -4.16599989 30.81760788 58.00000000
v -4.08446026 30.30278587 58.00000000
v -3.84782243 29.83835793 58.00000000
v -3.47925019 29.46978569 58.00000000
v -40.51482391 0.91553986 58.00000000
v -40.00000000 0.83399999 58.00000000
v -39.48517609 0.91553986 58.00000000
v -39.02074814 1.15217769 58.00000000
v -38.65217590 1.52074981 58.00000000
v -38.41553879 1.98517764 58.00000000
v -38.33399963 2.50000000 58.00000000
v -38.41553879 3.01482224 58.00000000
v -38.65217590 3.47925019 58.00000000
v -39.02074814 3.84782243 58.00000000
v -39.48517609 4.08446026 58.00000000
v -40.00000000 4.16599989 58.00000000
v -40.51482391 4.08446026 58.00000000
v -40.97925186 3.84782243 58.00000000
v -41.34782410 3.47925019 58.00000000
v -41.58446121 3.01482224 58.00000000
v -41.66600037 2.50000000 58.00000000
v -41.58446121 1.98517764 58.00000000
v -41.34782410 1.52074981 58.00000000
v -40.97925186 1.15217769 58.00000000
v -20.51482201 0.91553986 58.00000000
v -20.00000000 0.83399999 58.00000000
v -19.48517799 0.91553986 58.00000000
v -19.02075005 1.15217769 58.00000000
v -18.65217781 1.52074981 58.00000000
v -18.41554070 1.98517764 58.00000000
v -18.33399963 2.50000000 58.00000000
v -18.41554070 3.01482224 58.00000000
v -18.65217781 3.47925019 58.00000000
v -19.02075005 3.84782243 58.00000000
v -19.48517799 4.08446026 58.00000000
v -20.00000000 4.16599989 58.00000000
v -20.51482201 4.08446026 58.00000000
v -20.97924995 3.84782243 58.00000000
v -21.34782219 3.47925019 58.00000000
v -21.58445930 3.01482224 58.00000000
v -21.66600037 2.50000000 58.00000000
v -21.58445930 1.98517764 58.00000000
v -21.34782219 1.52074981 58.00000000
v -20.97924995 1.15217769 58.00000000
v -3.01482224 86.84561157 58.00000000
v -2.50000000 86.76406860 58.00000000
v -1.98517764 86.84561157 58.00000000
v -1.52074981 87.08224487 58.00000000
v -1.15217769 87.45082092 58.00000000
v -0.91553986 87.91524506 58.00000000
v -0.83399999 88.43006897 58.00000000
v -0.91553986 88.94489288 58.00000000
v -1.15217769 89.40931702 58.00000000
v -1.52074981 89.77789307 58.00000000
v -1.98517764 90.01452637 58.00000000
v -2.50000000 90.09606934 58.00000000
v -3.01482224 90.01452637 58.00000000
v -3.47925019 89.77789307 58.00000000
v -3.84782243 89.40931702 58.00000000
v -4.08446026 88.94489288 58.00000000
v -4.16599989 88.43006897 58.00000000
v -4.08446026 87.91524506 58.00000000
v -3.84782243 87.45082092 58.00000000
v -3.47925019 87.08224487 58.00000000
v -40.51482391 114.34561157 58.00000000
v -40.00000000 114.26406860 58.00000000
v -39.48517609 114.34561157 58.00000000
v -39.02074814 114.58224487 58.00000000
v -38.65217590 114.95082092 58.00000000
v -38.41553879 115.41524506 58.00000000
v -38.33399963 115.93006897 58.00000000
v -38.41553879 116.44489288 58.00000000
v -38.65217590 116.90931702 58.00000000
v -39.02074814 117.27789307 58.00000000
v -39.48517609 117.51452637 58.00000000
v -40.00000000 117.59606934 58.00000000
v -40.51482391 117.51452637 58.00000000
v -40.97925186 117.27789307 58.00000000
v -41.34782410 116.90931702 58.00000000
v -41.58446121 116.44489288 58.00000000
v -41.66600037 115.93006897 58.00000000
v -41.58446121 115.41524506 58.00000000
v -41.34782410 114.95082092 58.00000000
v -40.97925186 114.58224487 58.00000000
v -55.00000000 84.21503448 58.00000000
v -50.00000000 84.21503448 58.00000000
v -55.00000000 34.21503448 58.00000000
v -50.00000000 34.21503448 58.00000000
v -50.00000000 0.00000000 58.00000000
v -50.00000000 118.43006897 58.00000000
v 0.00000000 0.00000000 58.00000000
v 0.00000000 118.43006897 58.00000000
f 1 2 3
f 3 2 4
f 3 4 5
f 5 4 6
f 5 6 7
f 7 6 8
f 7 8 9
f 9 8 10
f 9 10 11
f 11 10 12
f 11 12 13
f 13 12 14
f 13 14 15
f 15 14 16
f 15 16 17
f 17 16 18
f 17 18 19
f 19 18 20
f 19 20 21
f 21 20 22
f 21 22 23
f 23 22 24
f 23 24 25
f 25 24 26
f 25 26 27
f 27 26 28
f 27 28 29
f 29 28 30
f 29 30 31
f 31 30 32
f 31 32 33
f 33 32 34
f 33 34 35
f 35 34 36
f 35 36 37
f 37 36 38
f 37 38 39
f 39 38 40
f 39 40 41
f 41 40 42
f 41 42 43
f 43 42 44
f 43 44 45
f 45 44 46
f 45 46 1
f 1 46 2
f 47 48 49
f 49 48 50
f 49 50 51
f 51 50 52
f 51 52 53
f 53 52 54
f 53 54 55
f 55 54 56
f 55 56 57
f 57 56 58
f 57 58 59
f 59 58 60
f 59 60 61
f 61 60 62
f 61 62 63
f 63 62 64
f 63 64 65
f 65 64 66
f 65 66 67
f 67 66 68
f 67 68 69
f 69 68 70
f 69 70 71
f 71 70 72
f 71 72 73
f 73 72 74
f 73 74 75
f 75 74 76
f 75 76 77
f 77 76 78
f 77 78 79
f 79 78 80
f 79 80 81
f 81 80 82
f 81 82 83
f 83 82 84
f 83 84 85
f 85 84 86
f 85 86 47
f 47 86 48
f 97 89 98
f 98 89 88
f 98 88 99
f 99 88 87
f 99 87 100
f 100 87 106
f 100 106 101
f 101 106 105
f 101 105 102
f 102 105 104
f 102 104 103
f 89 97 90
f 90 97 96
f 90 96 91
f 91 96 95
f 91 95 92
f 92 95 94
f 92 94 93
f 107 108 109
f 109 108 110
f 109 110 111
f 111 110 112
f 111 112 113
f 113 112 114
f 113 114 115
f 115 114 116
f 115 116 117
f 117 116 118
f 117 118 119
f 119 118 120
f 119 120 121
f 121 120 122
f 121 122 123
f 123 122 124
f 123 124 125
f 125 124 126
f 125 126 127
f 127 126 128
f 127 128 129
f 129 128 130
f 129 130 131
f 131 130 132
f 131 132 133
f 133 132 134
f 133 134 135
f 135 134 136
f 135 136 137
f 137 136 138
f 137 138 139
f 139 138 140
f 139 140 141
f 141 140 142
f 141 142 143
f 143 142 144
f 143 144 145
f 145 144 146
f 145 146 147
f 147 146 148
f 147 148 149
f 149 148 150
f 149 150 151
f 151 150 152
f 151 152 153
f 153 152 154
f 153 154 155
f 155 154 156
f 155 156 107
f 107 156 108
f 159 158 175
f 175 158 157
f 175 157 181
f 181 180 175
f 175 180 179
f 175 179 178
f 177 176 178
f 178 176 175
f 174 166 175
f 175 166 165
f 175 165 164
f 166 174 167
f 167 174 173
f 167 173 168
f 168 173 172
f 168 172 169
f 169 172 171
f 169 171 170
f 164 163 175
f 175 163 162
f 175 162 161
f 161 160 175
f 175 160 159
f 182 183 184
f 184 183 185
f 184 185 186
f 186 185 187
f 186 187 188
f 188 187 189
f 188 189 190
f 190 189 191
f 190 191 192
f 192 191 193
f 192 193 194
f 194 193 195
f 194 195 196
f 196 195 197
f 196 197 198
f 198 197 199
f 198 199 200
f 200 199 201
f 200 201 202
f 202 201 203
f 202 203 204
f 204 203 205
f 204 205 206
f 206 205 207
f 206 207 208
f 208 207 209
f 208 209 210
f 210 209 211
f 210 211 212
f 212 211 213
f 212 213 214
f 214 213 215
f 214 215 216
f 216 215 217
f 216 217 218
f 218 217 219
f 218 219 220
f 220 219 221
f 220 221 222
f 222 221 223
f 222 223 224
f 224 223 225
f 224 225 226
f 226 225 227
f 226 227 228
f 228 227 229
f 228 229 230
f 230 229 231
f 230 231 182
f 182 231 183
f 234 233 250
f 250 233 232
f 250 232 256
f 256 255 250
f 250 255 254
f 250 254 253
f 252 251 253
f 253 251 250
f 249 241 250
f 250 241 240
f 250 240 239
f 241 249 242
f 242 249 248
f 242 248 243
f 243 248 247
f 243 247 244
f 244 247 246
f 244 246 245
f 239 238 250
f 250 238 237
f 250 237 236
f 236 235 250
f 250 235 234
f 257 258 259
f 259 258 260
f 259 260 261
f 261 260 262
f 261 262 263
f 263 262 264
f 263 264 265
f 265 264 266
f 265 266 267
f 267 266 268
f 267 268 269
f 269 268 270
f 269 270 271
f 271 270 272
f 271 272 273
f 273 272 274
f 273 274 275
f 275 274 276
f 275 276 277
f 277 276 278
f 277 278 279
f 279 278 280
f 279 280 281
f 281 280 282
f 281 282 283
f 283 282 284
f 283 284 285
f 285 284 286
f 285 286 287
f 287 286 288
f 287 288 289
f 289 288 290
f 289 290 291
f 291 290 292
f 291 292 293
f 293 292 294
f 293 294 295
f 295 294 296
f 295 296 257
f 257 296 258
f 297 298 299
f 299 298 300
f 299 300 301
f 301 300 302
f 301 302 303
f 303 302 304
f 303 304 305
f 305 304 306
f 305 306 307
f 307 306 308
f 307 308 309
f 309 308 310
f 309 310 311
f 311 310 312
f 311 312 313
f 313 312 314
f 313 314 315
f 315 314 316
f 315 316 317
f 317 316 318
f 317 318 319
f 319 318 320
f 319 320 321
f 321 320 322
f 321 322 323
f 323 322 324
f 323 324 325
f 325 324 326
f 325 326 327
f 327 326 328
f 327 328 329
f 329 328 330
f 329 330 331
f 331 330 332
f 331 332 333
f 333 332 334
f 333 334 335
f 335 334 336
f 335 336 297
f 297 336 298
f 337 338 339
f 339 338 340
f 339 340 341
f 341 340 342
f 341 342 343
f 343 342 344
f 343 344 345
f 345 344 346
f 345 346 347
f 347 346 348
f 347 348 349
f 349 348 350
f 349 350 351
f 351 350 352
f 351 352 353
f 353 352 354
f 353 354 355
f 355 354 356
f 355 356 357
f 357 356 358
f 357 358 359
f 359 358 360
f 359 360 361
f 361 360 362
f 361 362 363
f 363 362 364
f 363 364 365
f 365 364 366
f 365 366 367
f 367 366 368
f 367 368 369
f 369 368 370
f 369 370 371
f 371 370 372
f 371 372 373
f 373 372 374
f 373 374 375
f 375 374 376
f 375 376 337
f 337 376 338
f 377 378 379
f 379 378 380
f 379 380 381
f 381 380 382
f 381 382 383
f 383 382 384
f 383 384 385
f 385 384 386
f 385 386 387
f 387 386 388
f 387 388 389
f 389 388 390
f 389 390 391
f 391 390 392
f 391 392 393
f 393 392 394
f 393 394 395
f 395 394 396
f 395 396 397
f 397 396 398
f 397 398 399
f 399 398 400
f 399 400 401
f 401 400 402
f 401 402 403
f 403 402 404
f 403 404 405
f 405 404 406
f 405 406 407
f 407 406 408
f 407 408 409
f 409 408 410
f 409 410 411
f 411 410 412
f 411 412 413
f 413 412 414
f 413 414 415
f 415 414 416
f 415 416 377
f 377 416 378
f 417 418 419
f 419 418 420
f 419 420 421
f 421 420 422
f 421 422 423
f 423 422 424
f 423 424 425
f 425 424 426
f 425 426 427
f 427 426 428
f 427 428 429
f 429 428 430
f 429 430 431
f 431 430 432
f 431 432 433
f 433 432 434
f 433 434 435
f 435 434 436
f 435 436 437
f 437 436 438
f 437 438 439
f 439 438 440
f 439 440 441
f 441 440 442
f 441 442 443
f 443 442 444
f 443 444 445
f 445 444 446
f 445 446 447
f 447 446 448
f 447 448 449
f 449 448 450
f 449 450 451
f 451 450 452
f 451 452 453
f 453 452 454
f 453 454 455
f 455 454 456
f 455 456 417
f 417 456 418
f 457 458 459
f 459 458 460
f 459 460 461
f 461 460 462
f 461 462 463
f 463 462 464
f 463 464 465
f 465 464 466
f 465 466 467
f 467 466 468
f 467 468 469
f 469 468 470
f 469 470 471
f 471 470 472
f 471 472 473
f 473 472 474
f 473 474 475
f 475 474 476
f 475 476 477
f 477 476 478
f 477 478 479
f 479 478 480
f 479 480 481
f 481 480 482
f 481 482 483
f 483 482 484
f 483 484 485
f 485 484 486
f 485 486 487
f 487 486 488
f 487 488 489
f 489 488 490
f 489 490 491
f 491 490 492
f 491 492 493
f 493 492 494
f 493 494 495
f 495 494 496
f 495 496 457
f 457 496 458
f 497 498 499
f 499 498 500
f 503 501 504
f 504 501 502
f 507 505 508
f 508 505 506
f 511 534 510
f 510 534 535
f 510 535 509
f 509 535 533
f 533 535 532
f 532 535 531
f 531 535 530
f 530 535 529
f 529 535 536
f 529 536 528
f 528 536 527
f 527 536 526
f 526 536 525
f 525 536 524
f 524 536 523
f 523 536 537
f 523 537 522
f 522 537 521
f 521 537 520
f 520 537 519
f 519 537 518
f 518 537 517
f 517 537 516
f 516 537 534
f 516 534 515
f 515 534 514
f 514 534 513
f 513 534 512
f 512 534 511
f 540 565 539
f 539 565 566
f 539 566 538
f 538 566 562
f 562 566 561
f 561 566 560
f 560 566 559
f 559 566 558
f 558 566 564
f 558 564 557
f 557 564 556
f 556 564 555
f 555 564 554
f 554 564 553
f 553 564 552
f 552 564 563
f 552 563 551
f 551 563 550
f 550 563 549
f 549 563 548
f 548 563 547
f 547 563 546
f 546 563 545
f 545 563 565
f 545 565 544
f 544 565 543
f 543 565 542
f 542 565 541
f 541 565 540
f 567 569 568
f 568 569 570
f 571 574 572
f 572 574 573
f 578 577 575
f 575 577 576
f 581 725 580
f 580 725 723
f 580 723 579
f 579 723 601
f 601 723 600
f 600 723 704
f 600 704 599
f 599 704 705
f 599 705 598
f 598 705 706
f 598 706 597
f 597 706 620
f 597 620 596
f 596 620 595
f 595 620 621
f 595 621 594
f 594 621 602
f 594 602 603
f 581 582 725
f 725 582 583
f 725 583 652
f 652 583 584
f 652 584 651
f 651 584 585
f 651 585 650
f 650 585 586
f 650 586 676
f 676 586 587
f 676 587 588
f 676 588 675
f 675 588 589
f 675 589 674
f 674 589 673
f 673 589 590
f 673 590 638
f 638 590 637
f 637 590 591
f 637 591 636
f 636 591 592
f 636 592 700
f 700 592 699
f 699 592 593
f 699 593 698
f 698 593 603
f 698 603 604
f 593 594 603
f 604 605 698
f 698 605 606
f 698 606 697
f 697 606 607
f 697 607 696
f 696 607 728
f 696 728 695
f 695 728 694
f 694 728 693
f 693 728 692
f 692 728 691
f 691 728 690
f 690 728 689
f 689 728 688
f 688 728 628
f 688 628 687
f 687 628 629
f 687 629 686
f 686 629 630
f 686 630 685
f 685 630 631
f 685 631 684
f 684 631 632
f 684 632 683
f 683 632 633
f 683 633 634
f 607 608 728
f 728 608 609
f 728 609 610
f 610 611 728
f 728 611 612
f 728 612 613
f 614 712 613
f 613 712 713
f 613 713 727
f 727 713 714
f 727 714 715
f 712 614 711
f 711 614 615
f 711 615 710
f 710 615 616
f 710 616 709
f 709 616 617
f 709 617 708
f 708 617 618
f 708 618 707
f 707 618 619
f 707 619 706
f 706 619 620
f 622 623 729
f 729 623 624
f 729 624 625
f 625 626 729
f 729 626 627
f 729 627 628
f 683 634 682
f 682 634 635
f 682 635 701
f 701 635 636
f 701 636 700
f 639 670 638
f 638 670 671
f 638 671 672
f 670 639 669
f 669 639 640
f 669 640 729
f 729 640 641
f 729 641 622
f 644 662 643
f 643 662 663
f 643 663 726
f 726 663 729
f 729 663 664
f 729 664 665
f 662 644 681
f 681 644 645
f 681 645 680
f 680 645 646
f 680 646 679
f 679 646 647
f 679 647 678
f 678 647 648
f 678 648 677
f 677 648 649
f 677 649 676
f 676 649 650
f 652 653 725
f 725 653 654
f 725 654 655
f 655 656 725
f 725 656 726
f 726 656 657
f 726 657 658
f 658 659 726
f 726 659 660
f 726 660 661
f 661 642 726
f 726 642 643
f 665 666 729
f 729 666 667
f 729 667 668
f 668 669 729
f 672 673 638
f 702 703 723
f 723 703 704
f 715 716 727
f 727 716 717
f 727 717 718
f 718 719 727
f 727 719 720
f 727 720 723
f 723 720 721
f 723 721 702
f 725 724 723
f 723 724 722
f 727 728 613
f 728 729 628
f 730 894 731
f 731 894 896
f 731 896 732
f 732 896 763
f 732 763 764
f 730 752 894
f 894 752 751
f 894 751 875
f 875 751 750
f 875 750 876
f 876 750 749
f 876 749 877
f 877 749 748
f 877 748 791
f 791 748 747
f 791 747 746
f 791 746 792
f 792 746 745
f 792 745 773
f 773 745 774
f 774 745 744
f 774 744 869
f 869 744 870
f 870 744 743
f 870 743 871
f 871 743 807
f 871 807 872
f 872 807 806
f 872 806 853
f 853 806 805
f 853 805 854
f 854 805 804
f 854 804 855
f 855 804 803
f 855 803 856
f 856 803 802
f 856 802 857
f 857 802 801
f 857 801 858
f 858 801 800
f 858 800 859
f 859 800 799
f 859 799 900
f 900 799 899
f 899 799 798
f 899 798 797
f 743 742 807
f 807 742 808
f 808 742 741
f 808 741 809
f 809 741 844
f 809 844 843
f 741 740 844
f 844 740 845
f 845 740 846
f 846 740 739
f 846 739 769
f 769 739 738
f 769 738 768
f 768 738 737
f 768 737 736
f 736 735 768
f 768 735 767
f 767 735 734
f 767 734 766
f 766 734 733
f 766 733 765
f 765 733 732
f 765 732 764
f 755 826 754
f 754 826 825
f 754 825 753
f 753 825 824
f 753 824 772
f 772 824 823
f 772 823 771
f 771 823 822
f 771 822 821
f 826 755 827
f 827 755 756
f 827 756 757
f 758 897 757
f 757 897 828
f 757 828 827
f 897 758 896
f 896 758 759
f 896 759 760
f 760 761 896
f 896 761 762
f 896 762 763
f 770 848 769
f 769 848 847
f 769 847 846
f 771 821 770
f 770 821 820
f 770 820 848
f 848 820 849
f 849 820 819
f 849 819 850
f 850 819 818
f 850 818 851
f 851 818 817
f 851 817 852
f 852 817 816
f 852 816 833
f 833 816 815
f 833 815 834
f 834 815 814
f 834 814 897
f 897 814 813
f 897 813 832
f 783 900 784
f 784 900 898
f 784 898 884
f 884 898 885
f 885 898 886
f 886 898 887
f 887 898 888
f 888 898 889
f 889 898 890
f 890 898 891
f 891 898 894
f 891 894 892
f 892 894 873
f 873 894 874
f 874 894 875
f 783 782 900
f 900 782 781
f 900 781 780
f 780 779 900
f 900 779 778
f 900 778 867
f 867 778 868
f 868 778 777
f 868 777 869
f 869 777 776
f 869 776 775
f 775 774 869
f 877 791 878
f 878 791 790
f 878 790 879
f 879 790 789
f 879 789 788
f 879 788 880
f 880 788 787
f 880 787 881
f 881 787 786
f 881 786 882
f 882 786 785
f 882 785 883
f 883 785 784
f 883 784 884
f 797 796 899
f 899 796 795
f 899 795 794
f 794 793 899
f 899 793 812
f 899 812 811
f 899 811 840
f 840 811 810
f 840 810 841
f 841 810 809
f 841 809 842
f 842 809 843
f 832 831 897
f 897 831 830
f 897 830 829
f 829 828 897
f 840 839 899
f 899 839 838
f 899 838 837
f 837 836 899
f 899 836 835
f 899 835 834
f 865 864 900
f 900 864 863
f 900 863 862
f 862 861 900
f 900 861 860
f 900 860 859
f 867 866 900
f 900 866 865
f 893 895 894
f 894 895 896
f 897 899 834

