# https://github.com/mikedh/trimesh

o PAWL_1.stl
v -74.11193848 33.46343231 28.37977791
v -74.11193848 33.46343231 31.37977791
v -74.02343750 33.32465744 28.37977791
v -74.02343750 33.32465744 31.37977791
v -73.89466858 33.22213364 28.37977791
v -73.89466858 33.22213364 31.37977791
v -73.73959351 33.16697693 28.37977791
v -73.73959351 33.16697693 31.37977791
v -73.57500458 33.16516495 28.37977791
v -73.57500458 33.16516495 31.37977791
v -73.41874695 33.21688843 28.37977791
v -73.41874695 33.21688843 31.37977791
v -73.28775787 33.31654739 28.37977791
v -73.28775787 33.31654739 31.37977791
v -73.19622040 33.45333862 28.37977791
v -73.19622040 33.45333862 31.37977791
v -73.15405273 33.61244202 28.37977791
v -73.15405273 33.61244202 31.37977791
v -73.16584015 33.77661514 28.37977791
v -73.16584015 33.77661514 31.37977791
v -73.23029327 33.92806625 28.37977791
v -73.23029327 33.92806625 31.37977791
v -73.34042358 34.05038071 28.37977791
v -73.34042358 34.05038071 31.37977791
v -73.48430634 34.13031006 28.37977791
v -73.48430634 34.13031006 31.37977791
v -73.64635468 34.15919113 28.37977791
v -73.64635468 34.15919113 31.37977791
v -73.80899048 34.13389206 28.37977791
v -73.80899048 34.13389206 31.37977791
v -73.95459747 34.05715179 28.37977791
v -73.95459747 34.05715179 31.37977791
v -74.06740570 33.93729401 28.37977791
v -74.06740570 33.93729401 31.37977791
v -74.13517761 33.78730011 28.37977791
v -74.13517761 33.78730011 31.37977791
v -74.15058136 33.62342834 28.37977791
v -74.15058136 33.62342834 31.37977791
v -73.89466858 33.22213364 34.37977600
v -74.02343750 33.32465744 34.37977600
v -74.11193848 33.46343231 34.37977600
v -74.15058136 33.62342834 34.37977600
v -74.13517761 33.78730011 34.37977600
v -74.06740570 33.93729401 34.37977600
v -73.95459747 34.05715179 34.37977600
v -73.80899048 34.13389206 34.37977600
v -73.64635468 34.15919113 34.37977600
v -73.48430634 34.13031006 34.37977600
v -73.34042358 34.05038071 34.37977600
v -73.23029327 33.92806625 34.37977600
v -73.16584015 33.77661514 34.37977600
v -73.15405273 33.61244202 34.37977600
v -73.19622040 33.45333862 34.37977600
v -73.28775787 33.31654739 34.37977600
v -73.41874695 33.21688843 34.37977600
v -73.57500458 33.16516495 34.37977600
v -73.73959351 33.16697693 34.37977600
v -83.16974640 25.59067345 28.37977791
v -83.16974640 25.59067345 34.37977600
v -82.94116974 25.29508972 28.37977791
v -82.94116974 25.29508972 34.37977600
v -82.67109680 25.03687286 28.37977791
v -82.67109680 25.03687286 34.37977600
v -82.36556244 24.82179260 28.37977791
v -82.36556244 24.82179260 34.37977600
v -82.03137207 24.65465546 28.37977791
v -82.03137207 24.65465546 34.37977600
v -81.67601013 24.53919029 28.37977791
v -81.67601013 24.53919029 34.37977600
v -81.30741119 24.47797966 28.37977791
v -81.30741119 24.47797966 34.37977600
v -80.93379974 24.47238922 28.37977791
v -80.93379974 24.47238922 34.37977600
v -80.56352997 24.52254677 28.37977791
v -80.56352997 24.52254677 34.37977600
v -80.20487213 24.62732887 28.37977791
v -80.20487213 24.62732887 34.37977600
v -79.86583710 24.78439522 28.37977791
v -79.86583710 24.78439522 34.37977600
v -79.55400085 24.99023819 28.37977791
v -79.55400085 24.99023819 34.37977600
v -79.27632141 25.24025917 28.37977791
v -79.27632141 25.24025917 34.37977600
v -79.03900909 25.52887344 28.37977791
v -79.03900909 25.52887344 34.37977600
v -78.84736633 25.84963226 28.37977791
v -78.84736633 25.84963226 34.37977600
v -78.70567322 26.19537354 28.37977791
v -78.70567322 26.19537354 34.37977600
v -78.61708069 26.55837059 28.37977791
v -78.61708069 26.55837059 34.37977600
v -78.58358765 26.93051720 28.37977791
v -78.58358765 26.93051720 34.37977600
v -78.60593414 27.30349922 28.37977791
v -78.60593414 27.30349922 34.37977600
v -78.68362427 27.66898346 28.37977791
v -78.68362427 27.66898346 34.37977600
v -78.81491089 28.01880836 28.37977791
v -78.81491089 28.01880836 34.37977600
v -78.99687958 28.34515762 28.37977791
v -78.99687958 28.34515762 34.37977600
v -79.22544861 28.64074135 28.37977791
v -79.22544861 28.64074135 34.37977600
v -79.49552155 28.89895821 28.37977791
v -79.49552155 28.89895821 34.37977600
v -79.80106354 29.11403656 28.37977791
v -79.80106354 29.11403656 34.37977600
v -80.13524628 29.28117561 28.37977791
v -80.13524628 29.28117561 34.37977600
v -80.49060822 29.39664078 28.37977791
v -80.49060822 29.39664078 34.37977600
v -80.85921478 29.45785141 28.37977791
v -80.85921478 29.45785141 34.37977600
v -81.23281860 29.46343994 28.37977791
v -81.23281860 29.46343994 34.37977600
v -81.60308838 29.41328430 28.37977791
v -81.60308838 29.41328430 34.37977600
v -81.96174622 29.30850220 28.37977791
v -81.96174622 29.30850220 34.37977600
v -82.30078125 29.15143585 28.37977791
v -82.30078125 29.15143585 34.37977600
v -82.61262512 28.94559288 28.37977791
v -82.61262512 28.94559288 34.37977600
v -82.89029694 28.69557190 28.37977791
v -82.89029694 28.69557190 34.37977600
v -83.12760925 28.40695763 28.37977791
v -83.12760925 28.40695763 34.37977600
v -83.31925201 28.08619881 28.37977791
v -83.31925201 28.08619881 34.37977600
v -83.46095276 27.74045753 28.37977791
v -83.46095276 27.74045753 34.37977600
v -83.54953766 27.37746048 28.37977791
v -83.54953766 27.37746048 34.37977600
v -83.58303070 27.00531387 28.37977791
v -83.58303070 27.00531387 34.37977600
v -83.56068420 26.63233185 28.37977791
v -83.56068420 26.63233185 34.37977600
v -83.48300171 26.26684761 28.37977791
v -83.48300171 26.26684761 34.37977600
v -83.35170746 25.91702271 28.37977791
v -83.35170746 25.91702271 34.37977600
v -58.62631607 46.80290222 34.37977600
v -58.58248138 46.77952957 31.37977791
v -58.71984863 46.83606720 34.37977600
v -58.62631607 46.80290222 28.37977791
v -58.71984863 46.83606720 28.37977791
v -58.54117584 46.75191879 34.37977600
v -58.46778488 46.68512344 28.37977791
v -58.54117584 46.75191879 28.37977791
v -58.46778488 46.68512344 34.37977600
v -55.66535568 39.08928299 34.37977600
v -55.66535568 39.08928299 28.37977791
v -55.44331360 43.32611084 28.37977791
v -55.44331360 43.32611084 34.37977600
v -55.20037079 43.01793671 28.37977791
v -55.20037079 43.01793671 34.37977600
v -54.99972916 42.68069077 28.37977791
v -54.99972916 42.68069077 34.37977600
v -54.84482193 42.32013702 28.37977791
v -54.84482193 42.32013702 34.37977600
v -54.73830414 41.94245148 28.37977791
v -54.73830414 41.94245148 34.37977600
v -54.68199539 41.55409622 28.37977791
v -54.68199539 41.55409622 34.37977600
v -54.67685699 41.16170883 28.37977791
v -54.67685699 41.16170883 34.37977600
v -54.72298431 40.77201080 28.37977791
v -54.72298431 40.77201080 34.37977600
v -54.81957626 40.39166641 28.37977791
v -54.81957626 40.39166641 34.37977600
v -54.96499252 40.02718353 28.37977791
v -54.96499252 40.02718353 34.37977600
v -55.15673447 39.68479919 28.37977791
v -55.15673447 39.68479919 34.37977600
v -55.39152908 39.37037277 28.37977791
v -55.39152908 39.37037277 34.37977600
v -58.71984863 46.83606720 34.37977600
v -58.71984863 46.83606720 28.37977791
v -60.03331757 42.79362488 34.37977600
v -60.03331757 42.79362488 28.37977791
v -60.03331757 42.79362488 34.37977600
v -60.03331757 42.79362488 28.37977791
v -80.53409576 34.94903946 28.37977791
v -80.53409576 34.94903946 34.37977600
v -79.06113434 35.11072540 28.37977791
v -79.06113434 35.11072540 34.37977600
v -77.59507751 35.32618332 28.37977791
v -77.59507751 35.32618332 34.37977600
v -76.13788605 35.59512711 28.37977791
v -76.13788605 35.59512711 34.37977600
v -74.69150543 35.91719818 28.37977791
v -74.69150543 35.91719818 34.37977600
v -73.25787354 36.29196548 28.37977791
v -73.25787354 36.29196548 34.37977600
v -71.83890533 36.71892929 28.37977791
v -71.83890533 36.71892929 34.37977600
v -70.43651581 37.19750977 28.37977791
v -70.43651581 37.19750977 34.37977600
v -69.05256653 37.72707748 28.37977791
v -69.05256653 37.72707748 34.37977600
v -67.68891907 38.30691528 28.37977791
v -67.68891907 38.30691528 34.37977600
v -66.34739685 38.93624878 28.37977791
v -66.34739685 38.93624878 34.37977600
v -65.02979279 39.61423492 28.37977791
v -65.02979279 39.61423492 34.37977600
v -63.73786926 40.33996964 28.37977791
v -63.73786926 40.33996964 34.37977600
v -62.47336197 41.11248016 28.37977791
v -62.47336197 41.11248016 34.37977600
v -61.23796082 41.93072891 28.37977791
v -61.23796082 41.93072891 34.37977600
v -75.73026276 21.02275658 28.37977791
v -75.73026276 21.02275658 34.37977600
v -76.24731445 20.59507179 28.37977791
v -76.24731445 20.59507179 34.37977600
v -76.79838562 20.21222115 28.37977791
v -76.79838562 20.21222115 34.37977600
v -77.37960052 19.87689781 28.37977791
v -77.37960052 19.87689781 34.37977600
v -77.98686981 19.59146118 28.37977791
v -77.98686981 19.59146118 34.37977600
v -78.61592865 19.35791969 28.37977791
v -78.61592865 19.35791969 34.37977600
v -79.26234436 19.17791748 28.37977791
v -79.26234436 19.17791748 34.37977600
v -79.92156982 19.05271721 28.37977791
v -79.92156982 19.05271721 34.37977600
v -80.58896637 18.98320389 28.37977791
v -80.58896637 18.98320389 34.37977600
v -81.25984955 18.96986389 28.37977791
v -81.25984955 18.96986389 34.37977600
v -81.92948151 19.01279068 28.37977791
v -81.92948151 19.01279068 34.37977600
v -82.59316254 19.11168480 28.37977791
v -82.59316254 19.11168480 34.37977600
v -83.24622345 19.26585007 28.37977791
v -83.24622345 19.26585007 34.37977600
v -83.88406372 19.47419930 28.37977791
v -83.88406372 19.47419930 34.37977600
v -84.50220490 19.73526955 28.37977791
v -84.50220490 19.73526955 34.37977600
v -85.09629059 20.04722214 28.37977791
v -85.09629059 20.04722214 34.37977600
v -85.66214752 20.40786552 28.37977791
v -85.66214752 20.40786552 34.37977600
v -86.19578552 20.81465721 28.37977791
v -86.19578552 20.81465721 34.37977600
v -86.69345856 21.26473999 28.37977791
v -86.69345856 21.26473999 34.37977600
v -87.15166473 21.75494576 28.37977791
v -87.15166473 21.75494576 34.37977600
v -87.56717682 22.28182602 28.37977791
v -87.56717682 22.28182602 34.37977600
v -87.93708038 22.84167290 28.37977791
v -87.93708038 22.84167290 34.37977600
v -88.25875854 23.43054962 28.37977791
v -88.25875854 23.43054962 34.37977600
v -88.52996063 24.04431152 28.37977791
v -88.52996063 24.04431152 34.37977600
v -88.74877167 24.67864227 28.37977791
v -88.74877167 24.67864227 34.37977600
v -88.91365051 25.32907867 28.37977791
v -88.91365051 25.32907867 34.37977600
v -89.02344513 25.99104500 28.37977791
v -89.02344513 25.99104500 34.37977600
v -89.07737732 26.65988350 28.37977791
v -89.07737732 26.65988350 34.37977600
v -89.07507324 27.33088875 28.37977791
v -89.07507324 27.33088875 34.37977600
v -89.01654053 27.99934006 28.37977791
v -89.01654053 27.99934006 34.37977600
v -88.90219879 28.66053581 28.37977791
v -88.90219879 28.66053581 34.37977600
v -88.73284912 29.30982399 28.37977791
v -88.73284912 29.30982399 34.37977600
v -88.50968170 29.94263649 28.37977791
v -88.50968170 29.94263649 34.37977600
v -88.23427582 30.55451965 28.37977791
v -88.23427582 30.55451965 34.37977600
v -87.90855408 31.14117050 28.37977791
v -87.90855408 31.14117050 34.37977600
v -87.53481293 31.69846344 28.37977791
v -87.53481293 31.69846344 34.37977600
v -87.11569214 32.22247314 28.37977791
v -87.11569214 32.22247314 34.37977600
v -86.65412903 32.70951843 28.37977791
v -86.65412903 32.70951843 34.37977600
v -86.15337372 33.15616989 28.37977791
v -86.15337372 33.15616989 34.37977600
v -85.61694336 33.55928421 28.37977791
v -85.61694336 33.55928421 34.37977600
v -85.04862976 33.91602707 28.37977791
v -85.04862976 33.91602707 34.37977600
v -84.45240784 34.22389221 28.37977791
v -84.45240784 34.22389221 34.37977600
v -83.83248901 34.48070526 28.37977791
v -83.83248901 34.48070526 34.37977600
v -83.19322968 34.68466568 28.37977791
v -83.19322968 34.68466568 34.37977600
v -82.53912354 34.83433914 28.37977791
v -82.53912354 34.83433914 34.37977600
v -81.87477875 34.92866898 28.37977791
v -81.87477875 34.92866898 34.37977600
v -81.20486450 34.96699142 28.37977791
v -81.20486450 34.96699142 34.37977600
v -75.73026276 21.02275658 28.37977791
v -75.73026276 21.02275658 34.37977600
v -55.66535568 39.08928299 34.37977600
v -55.66535568 39.08928299 28.37977791
v -73.89466858 33.22213364 34.37977600
v -74.02343750 33.32465744 34.37977600
v -74.11193848 33.46343231 34.37977600
v -74.15058136 33.62342834 34.37977600
v -74.13517761 33.78730011 34.37977600
v -74.06740570 33.93729401 34.37977600
v -73.95459747 34.05715179 34.37977600
v -73.80899048 34.13389206 34.37977600
v -73.64635468 34.15919113 34.37977600
v -73.48430634 34.13031006 34.37977600
v -73.34042358 34.05038071 34.37977600
v -73.23029327 33.92806625 34.37977600
v -73.16584015 33.77661514 34.37977600
v -73.15405273 33.61244202 34.37977600
v -73.19622040 33.45333862 34.37977600
v -73.28775787 33.31654739 34.37977600
v -73.41874695 33.21688843 34.37977600
v -73.57500458 33.16516495 34.37977600
v -73.73959351 33.16697693 34.37977600
v -83.16974640 25.59067345 34.37977600
v -82.94116974 25.29508972 34.37977600
v -82.67109680 25.03687286 34.37977600
v -82.36556244 24.82179260 34.37977600
v -82.03137207 24.65465546 34.37977600
v -81.67601013 24.53919029 34.37977600
v -81.30741119 24.47797966 34.37977600
v -80.93379974 24.47238922 34.37977600
v -80.56352997 24.52254677 34.37977600
v -80.20487213 24.62732887 34.37977600
v -79.86583710 24.78439522 34.37977600
v -79.55400085 24.99023819 34.37977600
v -79.27632141 25.24025917 34.37977600
v -79.03900909 25.52887344 34.37977600
v -78.84736633 25.84963226 34.37977600
v -78.70567322 26.19537354 34.37977600
v -78.61708069 26.55837059 34.37977600
v -78.58358765 26.93051720 34.37977600
v -78.60593414 27.30349922 34.37977600
v -78.68362427 27.66898346 34.37977600
v -78.81491089 28.01880836 34.37977600
v -78.99687958 28.34515762 34.37977600
v -79.22544861 28.64074135 34.37977600
v -79.49552155 28.89895821 34.37977600
v -79.80106354 29.11403656 34.37977600
v -80.13524628 29.28117561 34.37977600
v -80.49060822 29.39664078 34.37977600
v -80.85921478 29.45785141 34.37977600
v -81.23281860 29.46343994 34.37977600
v -81.60308838 29.41328430 34.37977600
v -81.96174622 29.30850220 34.37977600
v -82.30078125 29.15143585 34.37977600
v -82.61262512 28.94559288 34.37977600
v -82.89029694 28.69557190 34.37977600
v -83.12760925 28.40695763 34.37977600
v -83.31925201 28.08619881 34.37977600
v -83.46095276 27.74045753 34.37977600
v -83.54953766 27.37746048 34.37977600
v -83.58303070 27.00531387 34.37977600
v -83.56068420 26.63233185 34.37977600
v -83.48300171 26.26684761 34.37977600
v -83.35170746 25.91702271 34.37977600
v -58.62631607 46.80290222 34.37977600
v -58.71984863 46.83606720 34.37977600
v -58.54117584 46.75191879 34.37977600
v -58.46778488 46.68512344 34.37977600
v -60.03331757 42.79362488 34.37977600
v -80.53409576 34.94903946 34.37977600
v -79.06113434 35.11072540 34.37977600
v -77.59507751 35.32618332 34.37977600
v -76.13788605 35.59512711 34.37977600
v -74.69150543 35.91719818 34.37977600
v -73.25787354 36.29196548 34.37977600
v -71.83890533 36.71892929 34.37977600
v -70.43651581 37.19750977 34.37977600
v -69.05256653 37.72707748 34.37977600
v -67.68891907 38.30691528 34.37977600
v -66.34739685 38.93624878 34.37977600
v -65.02979279 39.61423492 34.37977600
v -63.73786926 40.33996964 34.37977600
v -62.47336197 41.11248016 34.37977600
v -61.23796082 41.93072891 34.37977600
v -75.73026276 21.02275658 34.37977600
v -76.24731445 20.59507179 34.37977600
v -76.79838562 20.21222115 34.37977600
v -77.37960052 19.87689781 34.37977600
v -77.98686981 19.59146118 34.37977600
v -78.61592865 19.35791969 34.37977600
v -79.26234436 19.17791748 34.37977600
v -79.92156982 19.05271721 34.37977600
v -80.58896637 18.98320389 34.37977600
v -81.25984955 18.96986389 34.37977600
v -81.92948151 19.01279068 34.37977600
v -82.59316254 19.11168480 34.37977600
v -83.24622345 19.26585007 34.37977600
v -83.88406372 19.47419930 34.37977600
v -84.50220490 19.73526955 34.37977600
v -85.09629059 20.04722214 34.37977600
v -85.66214752 20.40786552 34.37977600
v -86.19578552 20.81465721 34.37977600
v -86.69345856 21.26473999 34.37977600
v -87.15166473 21.75494576 34.37977600
v -87.56717682 22.28182602 34.37977600
v -87.93708038 22.84167290 34.37977600
v -88.25875854 23.43054962 34.37977600
v -88.52996063 24.04431152 34.37977600
v -88.74877167 24.67864227 34.37977600
v -88.91365051 25.32907867 34.37977600
v -89.02344513 25.99104500 34.37977600
v -89.07737732 26.65988350 34.37977600
v -89.07507324 27.33088875 34.37977600
v -89.01654053 27.99934006 34.37977600
v -88.90219879 28.66053581 34.37977600
v -88.73284912 29.30982399 34.37977600
v -88.50968170 29.94263649 34.37977600
v -88.23427582 30.55451965 34.37977600
v -87.90855408 31.14117050 34.37977600
v -87.53481293 31.69846344 34.37977600
v -87.11569214 32.22247314 34.37977600
v -86.65412903 32.70951843 34.37977600
v -86.15337372 33.15616989 34.37977600
v -85.61694336 33.55928421 34.37977600
v -85.04862976 33.91602707 34.37977600
v -84.45240784 34.22389221 34.37977600
v -83.83248901 34.48070526 34.37977600
v -83.19322968 34.68466568 34.37977600
v -82.53912354 34.83433914 34.37977600
v -81.87477875 34.92866898 34.37977600
v -81.20486450 34.96699142 34.37977600
v -55.66535568 39.08928299 34.37977600
v -55.44331360 43.32611084 34.37977600
v -55.20037079 43.01793671 34.37977600
v -54.99972916 42.68069077 34.37977600
v -54.84482193 42.32013702 34.37977600
v -54.73830414 41.94245148 34.37977600
v -54.68199539 41.55409622 34.37977600
v -54.67685699 41.16170883 34.37977600
v -54.72298431 40.77201080 34.37977600
v -54.81957626 40.39166641 34.37977600
v -54.96499252 40.02718353 34.37977600
v -55.15673447 39.68479919 34.37977600
v -55.39152908 39.37037277 34.37977600
v -74.11193848 33.46343231 28.37977791
v -74.02343750 33.32465744 28.37977791
v -73.89466858 33.22213364 28.37977791
v -73.73959351 33.16697693 28.37977791
v -73.57500458 33.16516495 28.37977791
v -73.41874695 33.21688843 28.37977791
v -73.28775787 33.31654739 28.37977791
v -73.19622040 33.45333862 28.37977791
v -73.15405273 33.61244202 28.37977791
v -73.16584015 33.77661514 28.37977791
v -73.23029327 33.92806625 28.37977791
v -73.34042358 34.05038071 28.37977791
v -73.48430634 34.13031006 28.37977791
v -73.64635468 34.15919113 28.37977791
v -73.80899048 34.13389206 28.37977791
v -73.95459747 34.05715179 28.37977791
v -74.06740570 33.93729401 28.37977791
v -74.13517761 33.78730011 28.37977791
v -74.15058136 33.62342834 28.37977791
v -83.16974640 25.59067345 28.37977791
v -82.94116974 25.29508972 28.37977791
v -82.67109680 25.03687286 28.37977791
v -82.36556244 24.82179260 28.37977791
v -82.03137207 24.65465546 28.37977791
v -81.67601013 24.53919029 28.37977791
v -81.30741119 24.47797966 28.37977791
v -80.93379974 24.47238922 28.37977791
v -80.56352997 24.52254677 28.37977791
v -80.20487213 24.62732887 28.37977791
v -79.86583710 24.78439522 28.37977791
v -79.55400085 24.99023819 28.37977791
v -79.27632141 25.24025917 28.37977791
v -79.03900909 25.52887344 28.37977791
v -78.84736633 25.84963226 28.37977791
v -78.70567322 26.19537354 28.37977791
v -78.61708069 26.55837059 28.37977791
v -78.58358765 26.93051720 28.37977791
v -78.60593414 27.30349922 28.37977791
v -78.68362427 27.66898346 28.37977791
v -78.81491089 28.01880836 28.37977791
v -78.99687958 28.34515762 28.37977791
v -79.22544861 28.64074135 28.37977791
v -79.49552155 28.89895821 28.37977791
v -79.80106354 29.11403656 28.37977791
v -80.13524628 29.28117561 28.37977791
v -80.49060822 29.39664078 28.37977791
v -80.85921478 29.45785141 28.37977791
v -81.23281860 29.46343994 28.37977791
v -81.60308838 29.41328430 28.37977791
v -81.96174622 29.30850220 28.37977791
v -82.30078125 29.15143585 28.37977791
v -82.61262512 28.94559288 28.37977791
v -82.89029694 28.69557190 28.37977791
v -83.12760925 28.40695763 28.37977791
v -83.31925201 28.08619881 28.37977791
v -83.46095276 27.74045753 28.37977791
v -83.54953766 27.37746048 28.37977791
v -83.58303070 27.00531387 28.37977791
v -83.56068420 26.63233185 28.37977791
v -83.48300171 26.26684761 28.37977791
v -83.35170746 25.91702271 28.37977791
v -58.62631607 46.80290222 28.37977791
v -58.71984863 46.83606720 28.37977791
v -58.46778488 46.68512344 28.37977791
v -58.54117584 46.75191879 28.37977791
v -60.03331757 42.79362488 28.37977791
v -80.53409576 34.94903946 28.37977791
v -79.06113434 35.11072540 28.37977791
v -77.59507751 35.32618332 28.37977791
v -76.13788605 35.59512711 28.37977791
v -74.69150543 35.91719818 28.37977791
v -73.25787354 36.29196548 28.37977791
v -71.83890533 36.71892929 28.37977791
v -70.43651581 37.19750977 28.37977791
v -69.05256653 37.72707748 28.37977791
v -67.68891907 38.30691528 28.37977791
v -66.34739685 38.93624878 28.37977791
v -65.02979279 39.61423492 28.37977791
v -63.73786926 40.33996964 28.37977791
v -62.47336197 41.11248016 28.37977791
v -61.23796082 41.93072891 28.37977791
v -75.73026276 21.02275658 28.37977791
v -76.24731445 20.59507179 28.37977791
v -76.79838562 20.21222115 28.37977791
v -77.37960052 19.87689781 28.37977791
v -77.98686981 19.59146118 28.37977791
v -78.61592865 19.35791969 28.37977791
v -79.26234436 19.17791748 28.37977791
v -79.92156982 19.05271721 28.37977791
v -80.58896637 18.98320389 28.37977791
v -81.25984955 18.96986389 28.37977791
v -81.92948151 19.01279068 28.37977791
v -82.59316254 19.11168480 28.37977791
v -83.24622345 19.26585007 28.37977791
v -83.88406372 19.47419930 28.37977791
v -84.50220490 19.73526955 28.37977791
v -85.09629059 20.04722214 28.37977791
v -85.66214752 20.40786552 28.37977791
v -86.19578552 20.81465721 28.37977791
v -86.69345856 21.26473999 28.37977791
v -87.15166473 21.75494576 28.37977791
v -87.56717682 22.28182602 28.37977791
v -87.93708038 22.84167290 28.37977791
v -88.25875854 23.43054962 28.37977791
v -88.52996063 24.04431152 28.37977791
v -88.74877167 24.67864227 28.37977791
v -88.91365051 25.32907867 28.37977791
v -89.02344513 25.99104500 28.37977791
v -89.07737732 26.65988350 28.37977791
v -89.07507324 27.33088875 28.37977791
v -89.01654053 27.99934006 28.37977791
v -88.90219879 28.66053581 28.37977791
v -88.73284912 29.30982399 28.37977791
v -88.50968170 29.94263649 28.37977791
v -88.23427582 30.55451965 28.37977791
v -87.90855408 31.14117050 28.37977791
v -87.53481293 31.69846344 28.37977791
v -87.11569214 32.22247314 28.37977791
v -86.65412903 32.70951843 28.37977791
v -86.15337372 33.15616989 28.37977791
v -85.61694336 33.55928421 28.37977791
v -85.04862976 33.91602707 28.37977791
v -84.45240784 34.22389221 28.37977791
v -83.83248901 34.48070526 28.37977791
v -83.19322968 34.68466568 28.37977791
v -82.53912354 34.83433914 28.37977791
v -81.87477875 34.92866898 28.37977791
v -81.20486450 34.96699142 28.37977791
v -55.66535568 39.08928299 28.37977791
v -55.44331360 43.32611084 28.37977791
v -55.20037079 43.01793671 28.37977791
v -54.99972916 42.68069077 28.37977791
v -54.84482193 42.32013702 28.37977791
v -54.73830414 41.94245148 28.37977791
v -54.68199539 41.55409622 28.37977791
v -54.67685699 41.16170883 28.37977791
v -54.72298431 40.77201080 28.37977791
v -54.81957626 40.39166641 28.37977791
v -54.96499252 40.02718353 28.37977791
v -55.15673447 39.68479919 28.37977791
v -55.39152908 39.37037277 28.37977791
f 17 18 19
f 19 18 20
f 19 20 21
f 21 20 22
f 21 22 23
f 23 22 24
f 23 24 25
f 25 24 26
f 25 26 27
f 27 26 28
f 27 28 29
f 29 28 30
f 29 30 31
f 31 30 32
f 31 32 33
f 33 32 34
f 33 34 35
f 35 34 36
f 35 36 37
f 37 36 38
f 37 38 1
f 1 38 2
f 39 6 40
f 40 6 4
f 40 4 41
f 41 4 2
f 41 2 42
f 42 2 38
f 42 38 43
f 43 38 36
f 43 36 44
f 44 36 34
f 44 34 45
f 45 34 32
f 45 32 46
f 46 32 30
f 46 30 47
f 47 30 28
f 47 28 48
f 48 28 26
f 48 26 49
f 49 26 24
f 49 24 50
f 50 24 22
f 50 22 51
f 51 22 20
f 51 20 52
f 52 20 18
f 52 18 53
f 53 18 16
f 53 16 54
f 54 16 14
f 54 14 55
f 55 14 12
f 55 12 56
f 56 12 10
f 56 10 57
f 57 10 8
f 57 8 39
f 39 8 6
f 13 14 15
f 15 14 16
f 15 16 17
f 17 16 18
f 1 2 3
f 3 2 4
f 3 4 5
f 5 4 6
f 5 6 7
f 7 6 8
f 7 8 9
f 9 8 10
f 9 10 11
f 11 10 12
f 11 12 13
f 13 12 14
f 74 75 76
f 76 75 77
f 76 77 78
f 78 77 79
f 62 63 64
f 64 63 65
f 64 65 66
f 66 65 67
f 66 67 68
f 68 67 69
f 68 69 70
f 70 69 71
f 70 71 72
f 72 71 73
f 72 73 74
f 74 73 75
f 90 91 92
f 92 91 93
f 92 93 94
f 94 93 95
f 94 95 96
f 96 95 97
f 96 97 98
f 98 97 99
f 98 99 100
f 100 99 101
f 100 101 102
f 102 101 103
f 102 103 104
f 104 103 105
f 104 105 106
f 106 105 107
f 106 107 108
f 108 107 109
f 108 109 110
f 110 109 111
f 78 79 80
f 80 79 81
f 80 81 82
f 82 81 83
f 82 83 84
f 84 83 85
f 84 85 86
f 86 85 87
f 86 87 88
f 88 87 89
f 88 89 90
f 90 89 91
f 58 59 60
f 60 59 61
f 60 61 62
f 62 61 63
f 126 125 127
f 124 125 126
f 124 123 125
f 122 123 124
f 122 121 123
f 120 121 122
f 120 119 121
f 118 119 120
f 118 117 119
f 116 117 118
f 116 115 117
f 114 115 116
f 114 113 115
f 112 113 114
f 112 111 113
f 110 111 112
f 58 141 59
f 140 141 58
f 140 139 141
f 138 139 140
f 138 137 139
f 136 137 138
f 136 135 137
f 134 135 136
f 134 133 135
f 132 133 134
f 132 131 133
f 130 131 132
f 130 129 131
f 128 129 130
f 128 127 129
f 126 127 128
f 148 154 153
f 150 154 148
f 152 176 151
f 175 176 152
f 175 174 176
f 173 174 175
f 173 172 174
f 171 172 173
f 171 170 172
f 169 170 171
f 169 168 170
f 167 168 169
f 167 166 168
f 165 166 167
f 165 164 166
f 163 164 165
f 142 143 144
f 144 143 145
f 144 145 146
f 142 147 143
f 143 147 148
f 143 148 149
f 153 154 155
f 155 154 156
f 155 156 157
f 157 156 158
f 157 158 159
f 159 158 160
f 159 160 161
f 161 160 162
f 161 162 163
f 163 162 164
f 149 145 143
f 147 150 148
f 180 177 178
f 179 177 180
f 221 220 222
f 219 220 221
f 219 218 220
f 217 218 219
f 182 212 181
f 211 212 182
f 211 210 212
f 209 210 211
f 217 216 218
f 215 216 217
f 215 214 216
f 213 214 215
f 205 204 206
f 203 204 205
f 203 202 204
f 201 202 203
f 201 200 202
f 199 200 201
f 199 198 200
f 197 198 199
f 197 196 198
f 195 196 197
f 195 194 196
f 193 194 195
f 193 192 194
f 191 192 193
f 191 190 192
f 189 190 191
f 253 252 254
f 251 252 253
f 251 250 252
f 249 250 251
f 249 248 250
f 247 248 249
f 247 246 248
f 245 246 247
f 245 244 246
f 243 244 245
f 243 242 244
f 241 242 243
f 241 240 242
f 239 240 241
f 239 238 240
f 237 238 239
f 269 268 270
f 267 268 269
f 267 266 268
f 265 266 267
f 265 264 266
f 263 264 265
f 263 262 264
f 261 262 263
f 261 260 262
f 259 260 261
f 259 258 260
f 257 258 259
f 257 256 258
f 255 256 257
f 255 254 256
f 253 254 255
f 285 284 286
f 283 284 285
f 283 282 284
f 281 282 283
f 281 280 282
f 279 280 281
f 279 278 280
f 277 278 279
f 277 276 278
f 275 276 277
f 275 274 276
f 273 274 275
f 209 208 210
f 207 208 209
f 207 206 208
f 205 206 207
f 237 236 238
f 235 236 237
f 235 234 236
f 233 234 235
f 233 232 234
f 231 232 233
f 231 230 232
f 229 230 231
f 229 228 230
f 227 228 229
f 227 226 228
f 225 226 227
f 225 224 226
f 223 224 225
f 223 222 224
f 221 222 223
f 285 286 287
f 287 286 288
f 287 288 289
f 289 288 290
f 289 290 291
f 291 290 292
f 291 292 293
f 293 292 294
f 293 294 295
f 295 294 296
f 295 296 297
f 297 296 298
f 297 298 299
f 299 298 300
f 299 300 301
f 301 300 302
f 269 270 271
f 271 270 272
f 271 272 273
f 273 272 274
f 305 306 183
f 183 306 184
f 303 304 305
f 305 304 306
f 301 302 303
f 303 302 304
f 185 184 186
f 183 184 185
f 187 188 189
f 189 188 190
f 187 186 188
f 185 186 187
f 309 308 310
f 310 308 307
f 392 326 345
f 388 392 439
f 388 326 392
f 387 326 388
f 386 326 387
f 386 325 326
f 385 325 386
f 385 324 325
f 384 324 385
f 323 324 384
f 384 322 323
f 384 321 322
f 383 321 384
f 320 321 383
f 382 317 318
f 333 410 409
f 332 410 333
f 331 410 332
f 331 411 410
f 330 411 331
f 351 311 352
f 351 329 311
f 350 329 351
f 350 328 329
f 349 328 350
f 348 328 349
f 348 327 328
f 347 327 348
f 346 327 347
f 382 318 383
f 345 327 346
f 345 326 327
f 341 402 401
f 341 403 402
f 340 403 341
f 340 404 403
f 339 404 340
f 339 405 404
f 338 405 339
f 338 406 405
f 337 406 338
f 337 407 406
f 336 407 337
f 336 408 407
f 335 408 336
f 334 408 335
f 334 409 408
f 333 409 334
f 418 364 419
f 417 364 418
f 417 365 364
f 416 365 417
f 416 366 365
f 415 366 416
f 415 367 366
f 415 368 367
f 414 368 415
f 414 369 368
f 413 369 414
f 413 370 369
f 412 370 413
f 412 371 370
f 412 330 371
f 411 330 412
f 380 357 356
f 379 357 380
f 379 358 357
f 379 359 358
f 378 359 379
f 378 360 359
f 378 361 360
f 377 361 378
f 377 362 361
f 438 362 377
f 363 362 438
f 421 438 437
f 421 363 438
f 420 363 421
f 419 363 420
f 419 364 363
f 445 439 446
f 444 439 445
f 443 439 444
f 442 439 443
f 442 391 439
f 441 391 442
f 440 391 441
f 440 376 391
f 375 376 440
f 342 400 399
f 342 401 400
f 341 401 342
f 392 343 342
f 392 344 343
f 345 344 392
f 380 356 355
f 423 435 424
f 423 436 435
f 422 436 423
f 422 437 436
f 421 437 422
f 439 389 388
f 439 390 389
f 391 390 439
f 373 374 372
f 373 375 374
f 376 375 373
f 450 439 451
f 449 439 450
f 448 439 449
f 447 439 448
f 446 439 447
f 395 394 392
f 392 396 395
f 392 397 396
f 398 397 392
f 342 398 392
f 399 398 342
f 428 430 429
f 428 431 430
f 427 431 428
f 427 432 431
f 426 432 427
f 426 433 432
f 425 433 426
f 425 434 433
f 424 434 425
f 424 435 434
f 392 394 393
f 383 319 320
f 383 318 319
f 381 317 382
f 381 316 317
f 315 316 381
f 355 381 380
f 355 315 381
f 354 315 355
f 354 314 315
f 353 314 354
f 353 313 314
f 352 313 353
f 352 312 313
f 311 312 352
f 515 514 516
f 531 532 580
f 578 562 563
f 578 563 577
f 517 581 532
f 532 581 582
f 532 582 583
f 532 583 580
f 580 583 584
f 580 584 585
f 585 586 580
f 580 586 587
f 580 587 588
f 588 589 580
f 580 589 590
f 580 590 591
f 591 592 580
f 579 562 578
f 580 530 531
f 459 527 458
f 458 527 528
f 458 528 529
f 527 459 526
f 526 459 460
f 526 460 525
f 525 460 461
f 525 461 462
f 462 463 525
f 525 463 524
f 524 463 464
f 524 464 465
f 465 466 524
f 452 453 493
f 523 467 522
f 522 467 468
f 522 468 469
f 470 495 469
f 469 495 496
f 469 496 522
f 522 496 521
f 521 496 497
f 521 497 498
f 495 470 494
f 494 470 452
f 494 452 493
f 473 551 472
f 472 551 552
f 533 529 580
f 580 529 530
f 471 553 512
f 512 553 511
f 511 553 554
f 511 554 510
f 510 554 555
f 510 555 509
f 509 555 556
f 509 556 508
f 508 556 507
f 507 556 557
f 507 557 506
f 506 557 558
f 506 558 505
f 505 558 559
f 524 466 523
f 523 466 467
f 551 474 550
f 550 474 475
f 550 475 549
f 549 475 476
f 549 476 477
f 549 477 548
f 548 477 478
f 548 478 547
f 547 478 479
f 547 479 546
f 546 479 480
f 546 480 545
f 545 480 481
f 545 481 544
f 472 552 471
f 471 552 553
f 543 482 542
f 542 482 483
f 542 483 541
f 541 483 540
f 540 483 539
f 539 483 533
f 539 533 538
f 538 533 537
f 537 533 536
f 536 533 535
f 535 533 534
f 483 484 533
f 533 484 485
f 533 485 486
f 505 559 560
f 473 474 551
f 520 499 500
f 520 500 519
f 519 500 501
f 519 501 502
f 519 502 518
f 518 502 503
f 518 503 579
f 579 503 504
f 579 504 562
f 562 504 561
f 561 504 560
f 560 504 505
f 581 517 515
f 515 517 514
f 544 481 482
f 544 482 543
f 493 453 454
f 493 454 492
f 492 454 455
f 492 455 491
f 491 455 456
f 491 456 490
f 490 456 489
f 489 456 457
f 489 457 488
f 488 457 487
f 487 457 486
f 486 457 458
f 486 458 533
f 533 458 529
f 577 563 564
f 577 564 576
f 576 564 565
f 576 565 575
f 575 565 566
f 575 566 574
f 574 566 567
f 574 567 573
f 573 567 568
f 573 568 572
f 572 568 569
f 572 569 571
f 571 569 570
f 521 498 520
f 520 498 499
f 516 514 513

