# https://github.com/mikedh/trimesh

o PULLEY_1.stl
v -94.97545624 57.93987656 34.87977600
v -95.97513580 57.90442657 35.87977600
v -95.01451874 59.22011948 34.87977600
v -96.01451874 59.22011948 35.87977600
v -95.97513580 60.53580856 35.87977600
v -95.85714722 56.59344482 35.87977600
v -94.85842133 56.66439438 34.87977600
v -95.66096497 55.29186630 35.87977600
v -94.66384125 55.39842224 34.87977600
v -95.38729858 54.00434875 35.87977600
v -94.39244843 54.14666367 34.87977600
v -95.03711700 52.73550415 35.87977600
v -94.04524231 52.91378021 34.87977600
v -94.61168671 51.48987198 35.87977600
v -93.62352753 51.70435715 34.87977600
v -94.11251831 50.27191162 35.87977600
v -93.12886047 50.52289581 34.87977600
v -93.54140472 49.08598328 35.87977600
v -92.56309509 49.37378693 34.87977600
v -92.90039062 47.93633270 35.87977600
v -91.92832184 48.26130295 34.87977600
v -92.19177246 46.82707596 35.87977600
v -91.22690582 47.18959045 34.87977600
v -91.41807556 45.76218414 35.87977600
v -90.46146393 46.16263199 34.87977600
v -90.58208466 44.74546432 35.87977600
v -89.63483429 45.18424988 34.87977600
v -89.68679047 43.78056335 35.87977600
v -88.75009918 44.25807953 34.87977600
v -88.73538971 42.87093353 35.87977600
v -87.81054688 43.38756943 34.87977600
v -87.73129272 42.01982498 35.87977600
v -86.81967163 42.57595825 34.87977600
v -86.67809296 41.23029327 35.87977600
v -85.78115845 41.82626343 34.87977600
v -85.57955933 40.50515747 35.87977600
v -84.69887543 41.14127731 34.87977600
v -84.43962860 39.84701538 35.87977600
v -83.57684326 40.52354050 34.87977600
v -83.26237488 39.25822830 35.87977600
v -82.41923523 39.97536087 34.87977600
v -82.05201721 38.74089432 35.87977600
v -81.23036957 39.49877167 34.87977600
v -80.81288910 38.29687500 35.87977600
v -80.01465607 39.09554672 34.87977600
v -79.54942322 37.92775345 35.87977600
v -78.77661896 38.76718903 34.87977600
v -78.26614380 37.63485336 35.87977600
v -77.52086639 38.51491547 34.87977600
v -76.96765137 37.41922379 35.87977600
v -76.25207520 38.33966446 34.87977600
v -75.65857697 37.28163528 35.87977600
v -74.97496033 38.24209213 34.87977600
v -74.34362030 37.22257996 35.87977600
v -73.69426727 38.22256088 34.87977600
v -73.02748871 37.24227142 35.87977600
v -72.41477203 38.28113937 34.87977600
v -71.71488953 37.34063721 35.87977600
v -71.14122009 38.41761398 34.87977600
v -70.41052246 37.51732635 35.87977600
v -69.87836456 38.63147354 34.87977600
v -69.11905670 37.77170563 35.87977600
v -68.63088989 38.92192459 34.87977600
v -67.84511566 38.10286331 35.87977600
v -67.40345001 39.28788757 34.87977600
v -66.59325409 38.50961685 35.87977600
v -66.20059204 39.72800064 34.87977600
v -65.36796570 38.99050522 35.87977600
v -65.02680969 40.24062347 34.87977600
v -64.17362976 39.54381561 35.87977600
v -63.88646317 40.82385254 34.87977600
v -63.01451492 40.16756058 35.87977600
v -62.78379440 41.47551727 34.87977600
v -61.89478302 40.85950470 35.87977600
v -61.72290039 42.19319153 34.87977600
v -60.81843567 41.61717987 35.87977600
v -60.70773697 42.97420883 34.87977600
v -59.78932571 42.43786621 35.87977600
v -59.74207306 43.81565857 34.87977600
v -58.81113815 43.31863022 35.87977600
v -58.82950211 44.71441650 34.87977600
v -57.88737488 44.25631714 35.87977600
v -57.97342300 45.66713715 34.87977600
v -57.02134323 45.24757004 35.87977600
v -57.17701340 46.67027664 34.87977600
v -56.21614075 46.28884125 35.87977600
v -56.44324493 47.72010040 34.87977600
v -55.47465515 47.37640381 35.87977600
v -55.77484131 48.81270599 34.87977600
v -54.79953384 48.50636292 35.87977600
v -55.17428970 49.94402695 34.87977600
v -54.19319916 49.67467499 35.87977600
v -54.64382553 51.10985565 34.87977600
v -53.65782166 50.87715912 35.87977600
v -54.18542099 52.30585480 34.87977600
v -53.19531250 52.10950470 35.87977600
v -53.80078506 53.52757645 34.87977600
v -52.80733109 53.36730576 35.87977600
v -53.49134064 54.77047348 34.87977600
v -52.49526978 54.64606094 35.87977600
v -53.25824738 56.02992249 34.87977600
v -52.26023865 55.94118881 35.87977600
v -53.10236740 57.30124283 34.87977600
v -52.10308075 57.24805450 35.87977600
v -53.02428436 58.57969666 34.87977600
v -52.02436066 58.56197739 35.87977600
v -52.02436066 59.87825775 35.87977600
v -53.02428436 59.86053848 34.87977600
v -52.10308075 61.19218445 35.87977600
v -53.10236740 61.13899612 34.87977600
v -52.26023865 62.49904633 35.87977600
v -53.25824738 62.41031265 34.87977600
v -52.49526978 63.79417419 35.87977600
v -53.49134064 63.66976166 34.87977600
v -52.80733109 65.07292938 35.87977600
v -53.80078506 64.91265869 34.87977600
v -53.19531250 66.33073425 35.87977600
v -54.18542099 66.13438416 34.87977600
v -53.65782166 67.56307983 35.87977600
v -54.64382553 67.33038330 34.87977600
v -54.19319916 68.76556396 35.87977600
v -55.17428970 68.49620819 34.87977600
v -54.79953384 69.93386841 35.87977600
v -55.77484131 69.62753296 34.87977600
v -55.47465515 71.06383514 35.87977600
v -56.44324493 70.72013855 34.87977600
v -56.21614075 72.15139008 35.87977600
v -57.17701340 71.76995850 34.87977600
v -57.02134323 73.19266510 35.87977600
v -57.97342300 72.77310181 34.87977600
v -57.88737488 74.18392181 35.87977600
v -58.82950211 73.72581482 34.87977600
v -58.81113815 75.12160492 35.87977600
v -59.74207306 74.62457275 34.87977600
v -59.78932571 76.00236511 35.87977600
v -60.70773697 75.46602631 34.87977600
v -60.81843567 76.82305908 35.87977600
v -61.72290039 76.24704742 34.87977600
v -61.89478302 77.58072662 35.87977600
v -62.78379440 76.96472168 34.87977600
v -63.01451492 78.27267456 35.87977600
v -63.88646317 77.61638641 34.87977600
v -64.17362976 78.89642334 35.87977600
v -65.02680969 78.19961548 34.87977600
v -65.36796570 79.44972992 35.87977600
v -66.20059204 78.71223450 34.87977600
v -66.59325409 79.93061829 35.87977600
v -67.40345001 79.15234375 34.87977600
v -67.84511566 80.33737183 35.87977600
v -68.63088989 79.51831055 34.87977600
v -69.11905670 80.66853333 35.87977600
v -69.87836456 79.80876160 34.87977600
v -70.41052246 80.92291260 35.87977600
v -71.14122009 80.02262115 34.87977600
v -71.71488953 81.09960175 35.87977600
v -72.41477203 80.15909576 34.87977600
v -73.02748871 81.19796753 35.87977600
v -73.69426727 80.21767426 34.87977600
v -74.34362030 81.21765900 35.87977600
v -74.97496033 80.19814301 34.87977600
v -75.65857697 81.15859985 35.87977600
v -76.25207520 80.10057068 34.87977600
v -76.96765137 81.02101135 35.87977600
v -77.52086639 79.92532349 34.87977600
v -78.26614380 80.80538177 35.87977600
v -78.77661896 79.67304993 34.87977600
v -79.54942322 80.51248169 35.87977600
v -80.01465607 79.34468842 34.87977600
v -80.81288910 80.14336395 35.87977600
v -81.23036957 78.94146729 34.87977600
v -82.05201721 79.69934082 35.87977600
v -82.41923523 78.46487427 34.87977600
v -83.26237488 79.18200684 35.87977600
v -83.57684326 77.91669464 34.87977600
v -84.43962860 78.59322357 35.87977600
v -84.69887543 77.29895782 34.87977600
v -85.57955933 77.93508148 35.87977600
v -85.78115845 76.61397552 34.87977600
v -86.67809296 77.20994568 35.87977600
v -86.81967163 75.86428070 34.87977600
v -87.73129272 76.42041016 35.87977600
v -87.81054688 75.05266571 34.87977600
v -88.73538971 75.56930542 35.87977600
v -88.75009918 74.18215942 34.87977600
v -89.68679047 74.65967560 35.87977600
v -89.63483429 73.25598907 34.87977600
v -90.58208466 73.69477081 35.87977600
v -90.46146393 72.27760315 34.87977600
v -91.41807556 72.67805481 35.87977600
v -91.22690582 71.25064087 34.87977600
v -92.19177246 71.61315918 35.87977600
v -91.92832184 70.17893219 34.87977600
v -92.90039062 70.50389862 35.87977600
v -92.56309509 69.06645203 34.87977600
v -93.54140472 69.35425568 35.87977600
v -93.12886047 67.91734314 34.87977600
v -94.11251831 68.16832733 35.87977600
v -93.62352753 66.73587799 34.87977600
v -94.61168671 66.95036316 35.87977600
v -94.04524231 65.52645874 34.87977600
v -95.03711700 65.70473480 35.87977600
v -94.39244843 64.29357147 34.87977600
v -95.38729858 64.43589020 35.87977600
v -94.66384125 63.04181671 34.87977600
v -95.66096497 63.14836884 35.87977600
v -94.85842133 61.77584076 34.87977600
v -95.85714722 61.84679031 35.87977600
v -94.97545624 60.50036240 34.87977600
v -95.97513580 57.90442657 35.87977600
v -96.01451874 59.22011948 35.87977600
v -95.97513580 60.53580856 35.87977600
v -95.85714722 56.59344482 35.87977600
v -95.66096497 55.29186630 35.87977600
v -95.38729858 54.00434875 35.87977600
v -95.03711700 52.73550415 35.87977600
v -94.61168671 51.48987198 35.87977600
v -94.11251831 50.27191162 35.87977600
v -93.54140472 49.08598328 35.87977600
v -92.90039062 47.93633270 35.87977600
v -92.19177246 46.82707596 35.87977600
v -91.41807556 45.76218414 35.87977600
v -90.58208466 44.74546432 35.87977600
v -89.68679047 43.78056335 35.87977600
v -88.73538971 42.87093353 35.87977600
v -87.73129272 42.01982498 35.87977600
v -86.67809296 41.23029327 35.87977600
v -85.57955933 40.50515747 35.87977600
v -84.43962860 39.84701538 35.87977600
v -83.26237488 39.25822830 35.87977600
v -82.05201721 38.74089432 35.87977600
v -80.81288910 38.29687500 35.87977600
v -79.54942322 37.92775345 35.87977600
v -78.26614380 37.63485336 35.87977600
v -76.96765137 37.41922379 35.87977600
v -75.65857697 37.28163528 35.87977600
v -74.34362030 37.22257996 35.87977600
v -73.02748871 37.24227142 35.87977600
v -71.71488953 37.34063721 35.87977600
v -70.41052246 37.51732635 35.87977600
v -69.11905670 37.77170563 35.87977600
v -67.84511566 38.10286331 35.87977600
v -66.59325409 38.50961685 35.87977600
v -65.36796570 38.99050522 35.87977600
v -64.17362976 39.54381561 35.87977600
v -63.01451492 40.16756058 35.87977600
v -61.89478302 40.85950470 35.87977600
v -60.81843567 41.61717987 35.87977600
v -59.78932571 42.43786621 35.87977600
v -58.81113815 43.31863022 35.87977600
v -57.88737488 44.25631714 35.87977600
v -57.02134323 45.24757004 35.87977600
v -56.21614075 46.28884125 35.87977600
v -55.47465515 47.37640381 35.87977600
v -54.79953384 48.50636292 35.87977600
v -54.19319916 49.67467499 35.87977600
v -53.65782166 50.87715912 35.87977600
v -53.19531250 52.10950470 35.87977600
v -52.80733109 53.36730576 35.87977600
v -52.49526978 54.64606094 35.87977600
v -52.26023865 55.94118881 35.87977600
v -52.10308075 57.24805450 35.87977600
v -52.02436066 58.56197739 35.87977600
v -52.02436066 59.87825775 35.87977600
v -52.10308075 61.19218445 35.87977600
v -52.26023865 62.49904633 35.87977600
v -52.49526978 63.79417419 35.87977600
v -52.80733109 65.07292938 35.87977600
v -53.19531250 66.33073425 35.87977600
v -53.65782166 67.56307983 35.87977600
v -54.19319916 68.76556396 35.87977600
v -54.79953384 69.93386841 35.87977600
v -55.47465515 71.06383514 35.87977600
v -56.21614075 72.15139008 35.87977600
v -57.02134323 73.19266510 35.87977600
v -57.88737488 74.18392181 35.87977600
v -58.81113815 75.12160492 35.87977600
v -59.78932571 76.00236511 35.87977600
v -60.81843567 76.82305908 35.87977600
v -61.89478302 77.58072662 35.87977600
v -63.01451492 78.27267456 35.87977600
v -64.17362976 78.89642334 35.87977600
v -65.36796570 79.44972992 35.87977600
v -66.59325409 79.93061829 35.87977600
v -67.84511566 80.33737183 35.87977600
v -69.11905670 80.66853333 35.87977600
v -70.41052246 80.92291260 35.87977600
v -71.71488953 81.09960175 35.87977600
v -73.02748871 81.19796753 35.87977600
v -74.34362030 81.21765900 35.87977600
v -75.65857697 81.15859985 35.87977600
v -76.96765137 81.02101135 35.87977600
v -78.26614380 80.80538177 35.87977600
v -79.54942322 80.51248169 35.87977600
v -80.81288910 80.14336395 35.87977600
v -82.05201721 79.69934082 35.87977600
v -83.26237488 79.18200684 35.87977600
v -84.43962860 78.59322357 35.87977600
v -85.57955933 77.93508148 35.87977600
v -86.67809296 77.20994568 35.87977600
v -87.73129272 76.42041016 35.87977600
v -88.73538971 75.56930542 35.87977600
v -89.68679047 74.65967560 35.87977600
v -90.58208466 73.69477081 35.87977600
v -91.41807556 72.67805481 35.87977600
v -92.19177246 71.61315918 35.87977600
v -92.90039062 70.50389862 35.87977600
v -93.54140472 69.35425568 35.87977600
v -94.11251831 68.16832733 35.87977600
v -94.61168671 66.95036316 35.87977600
v -95.03711700 65.70473480 35.87977600
v -95.38729858 64.43589020 35.87977600
v -95.66096497 63.14836884 35.87977600
v -95.85714722 61.84679031 35.87977600
v -95.97513580 60.53580856 39.87977600
v -96.01451874 59.22011948 39.87977600
v -95.97513580 57.90442657 39.87977600
v -95.85714722 56.59344482 39.87977600
v -95.66096497 55.29186630 39.87977600
v -95.38729858 54.00434875 39.87977600
v -95.03711700 52.73550415 39.87977600
v -94.61168671 51.48987198 39.87977600
v -94.11251831 50.27191162 39.87977600
v -93.54140472 49.08598328 39.87977600
v -92.90039062 47.93633270 39.87977600
v -92.19177246 46.82707596 39.87977600
v -91.41807556 45.76218414 39.87977600
v -90.58208466 44.74546432 39.87977600
v -89.68679047 43.78056335 39.87977600
v -88.73538971 42.87093353 39.87977600
v -87.73129272 42.01982498 39.87977600
v -86.67809296 41.23029327 39.87977600
v -85.57955933 40.50515747 39.87977600
v -84.43962860 39.84701538 39.87977600
v -83.26237488 39.25822830 39.87977600
v -82.05201721 38.74089432 39.87977600
v -80.81288910 38.29687500 39.87977600
v -79.54942322 37.92775345 39.87977600
v -78.26614380 37.63485336 39.87977600
v -76.96765137 37.41922379 39.87977600
v -75.65857697 37.28163528 39.87977600
v -74.34362030 37.22257996 39.87977600
v -73.02748871 37.24227142 39.87977600
v -71.71488953 37.34063721 39.87977600
v -70.41052246 37.51732635 39.87977600
v -69.11905670 37.77170563 39.87977600
v -67.84511566 38.10286331 39.87977600
v -66.59325409 38.50961685 39.87977600
v -65.36796570 38.99050522 39.87977600
v -64.17362976 39.54381561 39.87977600
v -63.01451492 40.16756058 39.87977600
v -61.89478302 40.85950470 39.87977600
v -60.81843567 41.61717987 39.87977600
v -59.78932571 42.43786621 39.87977600
v -58.81113815 43.31863022 39.87977600
v -57.88737488 44.25631714 39.87977600
v -57.02134323 45.24757004 39.87977600
v -56.21614075 46.28884125 39.87977600
v -55.47465515 47.37640381 39.87977600
v -54.79953384 48.50636292 39.87977600
v -54.19319916 49.67467499 39.87977600
v -53.65782166 50.87715912 39.87977600
v -53.19531250 52.10950470 39.87977600
v -52.80733109 53.36730576 39.87977600
v -52.49526978 54.64606094 39.87977600
v -52.26023865 55.94118881 39.87977600
v -52.10308075 57.24805450 39.87977600
v -52.02436066 58.56197739 39.87977600
v -52.02436066 59.87825775 39.87977600
v -52.10308075 61.19218445 39.87977600
v -52.26023865 62.49904633 39.87977600
v -52.49526978 63.79417419 39.87977600
v -52.80733109 65.07292938 39.87977600
v -53.19531250 66.33073425 39.87977600
v -53.65782166 67.56307983 39.87977600
v -54.19319916 68.76556396 39.87977600
v -54.79953384 69.93386841 39.87977600
v -55.47465515 71.06383514 39.87977600
v -56.21614075 72.15139008 39.87977600
v -57.02134323 73.19266510 39.87977600
v -57.88737488 74.18392181 39.87977600
v -58.81113815 75.12160492 39.87977600
v -59.78932571 76.00236511 39.87977600
v -60.81843567 76.82305908 39.87977600
v -61.89478302 77.58072662 39.87977600
v -63.01451492 78.27267456 39.87977600
v -64.17362976 78.89642334 39.87977600
v -65.36796570 79.44972992 39.87977600
v -66.59325409 79.93061829 39.87977600
v -67.84511566 80.33737183 39.87977600
v -69.11905670 80.66853333 39.87977600
v -70.41052246 80.92291260 39.87977600
v -71.71488953 81.09960175 39.87977600
v -73.02748871 81.19796753 39.87977600
v -74.34362030 81.21765900 39.87977600
v -75.65857697 81.15859985 39.87977600
v -76.96765137 81.02101135 39.87977600
v -78.26614380 80.80538177 39.87977600
v -79.54942322 80.51248169 39.87977600
v -80.81288910 80.14336395 39.87977600
v -82.05201721 79.69934082 39.87977600
v -83.26237488 79.18200684 39.87977600
v -84.43962860 78.59322357 39.87977600
v -85.57955933 77.93508148 39.87977600
v -86.67809296 77.20994568 39.87977600
v -87.73129272 76.42041016 39.87977600
v -88.73538971 75.56930542 39.87977600
v -89.68679047 74.65967560 39.87977600
v -90.58208466 73.69477081 39.87977600
v -91.41807556 72.67805481 39.87977600
v -92.19177246 71.61315918 39.87977600
v -92.90039062 70.50389862 39.87977600
v -93.54140472 69.35425568 39.87977600
v -94.11251831 68.16832733 39.87977600
v -94.61168671 66.95036316 39.87977600
v -95.03711700 65.70473480 39.87977600
v -95.38729858 64.43589020 39.87977600
v -95.66096497 63.14836884 39.87977600
v -95.85714722 61.84679031 39.87977600
v -95.97513580 60.53580856 39.87977600
v -96.01451874 59.22011948 39.87977600
v -95.97513580 57.90442657 39.87977600
v -95.85714722 56.59344482 39.87977600
v -95.66096497 55.29186630 39.87977600
v -95.38729858 54.00434875 39.87977600
v -95.03711700 52.73550415 39.87977600
v -94.61168671 51.48987198 39.87977600
v -94.11251831 50.27191162 39.87977600
v -93.54140472 49.08598328 39.87977600
v -92.90039062 47.93633270 39.87977600
v -92.19177246 46.82707596 39.87977600
v -91.41807556 45.76218414 39.87977600
v -90.58208466 44.74546432 39.87977600
v -89.68679047 43.78056335 39.87977600
v -88.73538971 42.87093353 39.87977600
v -87.73129272 42.01982498 39.87977600
v -86.67809296 41.23029327 39.87977600
v -85.57955933 40.50515747 39.87977600
v -84.43962860 39.84701538 39.87977600
v -83.26237488 39.25822830 39.87977600
v -82.05201721 38.74089432 39.87977600
v -80.81288910 38.29687500 39.87977600
v -79.54942322 37.92775345 39.87977600
v -78.26614380 37.63485336 39.87977600
v -76.96765137 37.41922379 39.87977600
v -75.65857697 37.28163528 39.87977600
v -74.34362030 37.22257996 39.87977600
v -73.02748871 37.24227142 39.87977600
v -71.71488953 37.34063721 39.87977600
v -70.41052246 37.51732635 39.87977600
v -69.11905670 37.77170563 39.87977600
v -67.84511566 38.10286331 39.87977600
v -66.59325409 38.50961685 39.87977600
v -65.36796570 38.99050522 39.87977600
v -64.17362976 39.54381561 39.87977600
v -63.01451492 40.16756058 39.87977600
v -61.89478302 40.85950470 39.87977600
v -60.81843567 41.61717987 39.87977600
v -59.78932571 42.43786621 39.87977600
v -58.81113815 43.31863022 39.87977600
v -57.88737488 44.25631714 39.87977600
v -57.02134323 45.24757004 39.87977600
v -56.21614075 46.28884125 39.87977600
v -55.47465515 47.37640381 39.87977600
v -54.79953384 48.50636292 39.87977600
v -54.19319916 49.67467499 39.87977600
v -53.65782166 50.87715912 39.87977600
v -53.19531250 52.10950470 39.87977600
v -52.80733109 53.36730576 39.87977600
v -52.49526978 54.64606094 39.87977600
v -52.26023865 55.94118881 39.87977600
v -52.10308075 57.24805450 39.87977600
v -52.02436066 58.56197739 39.87977600
v -52.02436066 59.87825775 39.87977600
v -52.10308075 61.19218445 39.87977600
v -52.26023865 62.49904633 39.87977600
v -52.49526978 63.79417419 39.87977600
v -52.80733109 65.07292938 39.87977600
v -53.19531250 66.33073425 39.87977600
v -53.65782166 67.56307983 39.87977600
v -54.19319916 68.76556396 39.87977600
v -54.79953384 69.93386841 39.87977600
v -55.47465515 71.06383514 39.87977600
v -56.21614075 72.15139008 39.87977600
v -57.02134323 73.19266510 39.87977600
v -57.88737488 74.18392181 39.87977600
v -58.81113815 75.12160492 39.87977600
v -59.78932571 76.00236511 39.87977600
v -60.81843567 76.82305908 39.87977600
v -61.89478302 77.58072662 39.87977600
v -63.01451492 78.27267456 39.87977600
v -64.17362976 78.89642334 39.87977600
v -65.36796570 79.44972992 39.87977600
v -66.59325409 79.93061829 39.87977600
v -67.84511566 80.33737183 39.87977600
v -69.11905670 80.66853333 39.87977600
v -70.41052246 80.92291260 39.87977600
v -71.71488953 81.09960175 39.87977600
v -73.02748871 81.19796753 39.87977600
v -74.34362030 81.21765900 39.87977600
v -75.65857697 81.15859985 39.87977600
v -76.96765137 81.02101135 39.87977600
v -78.26614380 80.80538177 39.87977600
v -79.54942322 80.51248169 39.87977600
v -80.81288910 80.14336395 39.87977600
v -82.05201721 79.69934082 39.87977600
v -83.26237488 79.18200684 39.87977600
v -84.43962860 78.59322357 39.87977600
v -85.57955933 77.93508148 39.87977600
v -86.67809296 77.20994568 39.87977600
v -87.73129272 76.42041016 39.87977600
v -88.73538971 75.56930542 39.87977600
v -89.68679047 74.65967560 39.87977600
v -90.58208466 73.69477081 39.87977600
v -91.41807556 72.67805481 39.87977600
v -92.19177246 71.61315918 39.87977600
v -92.90039062 70.50389862 39.87977600
v -93.54140472 69.35425568 39.87977600
v -94.11251831 68.16832733 39.87977600
v -94.61168671 66.95036316 39.87977600
v -95.03711700 65.70473480 39.87977600
v -95.38729858 64.43589020 39.87977600
v -95.66096497 63.14836884 39.87977600
v -95.85714722 61.84679031 39.87977600
v -95.01451874 59.22011948 40.87977600
v -94.97545624 57.93987656 40.87977600
v -94.85842133 56.66439438 40.87977600
v -94.66384125 55.39842224 40.87977600
v -94.39244843 54.14666367 40.87977600
v -94.04524231 52.91378021 40.87977600
v -93.62352753 51.70435715 40.87977600
v -93.12886047 50.52289581 40.87977600
v -92.56309509 49.37378693 40.87977600
v -91.92832184 48.26130295 40.87977600
v -91.22690582 47.18959045 40.87977600
v -90.46146393 46.16263199 40.87977600
v -89.63483429 45.18424988 40.87977600
v -88.75009918 44.25807953 40.87977600
v -87.81054688 43.38756943 40.87977600
v -86.81967163 42.57595825 40.87977600
v -85.78115845 41.82626343 40.87977600
v -84.69887543 41.14127731 40.87977600
v -83.57684326 40.52354050 40.87977600
v -82.41923523 39.97536087 40.87977600
v -81.23036957 39.49877167 40.87977600
v -80.01465607 39.09554672 40.87977600
v -78.77661896 38.76718903 40.87977600
v -77.52086639 38.51491547 40.87977600
v -76.25207520 38.33966446 40.87977600
v -74.97496033 38.24209213 40.87977600
v -73.69426727 38.22256088 40.87977600
v -72.41477203 38.28113937 40.87977600
v -71.14122009 38.41761398 40.87977600
v -69.87836456 38.63147354 40.87977600
v -68.63088989 38.92192459 40.87977600
v -67.40345001 39.28788757 40.87977600
v -66.20059204 39.72800064 40.87977600
v -65.02680969 40.24062347 40.87977600
v -63.88646317 40.82385254 40.87977600
v -62.78379440 41.47551727 40.87977600
v -61.72290039 42.19319153 40.87977600
v -60.70773697 42.97420883 40.87977600
v -59.74207306 43.81565857 40.87977600
v -58.82950211 44.71441650 40.87977600
v -57.97342300 45.66713715 40.87977600
v -57.17701340 46.67027664 40.87977600
v -56.44324493 47.72010040 40.87977600
v -55.77484131 48.81270599 40.87977600
v -55.17428970 49.94402695 40.87977600
v -54.64382553 51.10985565 40.87977600
v -54.18542099 52.30585480 40.87977600
v -53.80078506 53.52757645 40.87977600
v -53.49134064 54.77047348 40.87977600
v -53.25824738 56.02992249 40.87977600
v -53.10236740 57.30124283 40.87977600
v -53.02428436 58.57969666 40.87977600
v -53.02428436 59.86053848 40.87977600
v -53.10236740 61.13899612 40.87977600
v -53.25824738 62.41031265 40.87977600
v -53.49134064 63.66976166 40.87977600
v -53.80078506 64.91265869 40.87977600
v -54.18542099 66.13438416 40.87977600
v -54.64382553 67.33038330 40.87977600
v -55.17428970 68.49620819 40.87977600
v -55.77484131 69.62753296 40.87977600
v -56.44324493 70.72013855 40.87977600
v -57.17701340 71.76995850 40.87977600
v -57.97342300 72.77310181 40.87977600
v -58.82950211 73.72581482 40.87977600
v -59.74207306 74.62457275 40.87977600
v -60.70773697 75.46602631 40.87977600
v -61.72290039 76.24704742 40.87977600
v -62.78379440 76.96472168 40.87977600
v -63.88646317 77.61638641 40.87977600
v -65.02680969 78.19961548 40.87977600
v -66.20059204 78.71223450 40.87977600
v -67.40345001 79.15234375 40.87977600
v -68.63088989 79.51831055 40.87977600
v -69.87836456 79.80876160 40.87977600
v -71.14122009 80.02262115 40.87977600
v -72.41477203 80.15909576 40.87977600
v -73.69426727 80.21767426 40.87977600
v -74.97496033 80.19814301 40.87977600
v -76.25207520 80.10057068 40.87977600
v -77.52086639 79.92532349 40.87977600
v -78.77661896 79.67304993 40.87977600
v -80.01465607 79.34468842 40.87977600
v -81.23036957 78.94146729 40.87977600
v -82.41923523 78.46487427 40.87977600
v -83.57684326 77.91669464 40.87977600
v -84.69887543 77.29895782 40.87977600
v -85.78115845 76.61397552 40.87977600
v -86.81967163 75.86428070 40.87977600
v -87.81054688 75.05266571 40.87977600
v -88.75009918 74.18215942 40.87977600
v -89.63483429 73.25598907 40.87977600
v -90.46146393 72.27760315 40.87977600
v -91.22690582 71.25064087 40.87977600
v -91.92832184 70.17893219 40.87977600
v -92.56309509 69.06645203 40.87977600
v -93.12886047 67.91734314 40.87977600
v -93.62352753 66.73587799 40.87977600
v -94.04524231 65.52645874 40.87977600
v -94.39244843 64.29357147 40.87977600
v -94.66384125 63.04181671 40.87977600
v -94.85842133 61.77584076 40.87977600
v -94.97545624 60.50036240 40.87977600
v -75.51451874 65.42012024 34.87977600
v -72.51451874 65.42012024 34.87977600
v -75.51451874 65.42012024 40.87977600
v -72.51451874 65.42012024 40.87977600
v -75.51451874 65.42012024 34.87977600
v -75.51451874 63.98981476 34.87977600
v -75.51451874 65.42012024 40.87977600
v -75.51451874 63.98981476 40.87977600
v -70.03224182 62.24360657 34.87977600
v -69.69051361 61.73069382 34.87977600
v -69.41448212 61.17963409 34.87977600
v -69.20835114 60.59880066 34.87977600
v -69.07524109 59.99702072 34.87977600
v -69.01718140 59.38343430 34.87977600
v -69.03505707 58.76736450 34.87977600
v -69.12858582 58.15817642 34.87977600
v -69.29635620 57.56512451 34.87977600
v -69.53582001 56.99721909 34.87977600
v -69.84333038 56.46308899 34.87977600
v -78.18569946 56.46308899 34.87977600
v -77.81481171 55.97084808 34.87977600
v -77.38617706 55.52798080 34.87977600
v -76.90631866 55.14121246 34.87977600
v -78.49320984 56.99721909 34.87977600
v -78.73267365 57.56512451 34.87977600
v -78.90044403 58.15817642 34.87977600
v -78.99397278 58.76736450 34.87977600
v -79.01184845 59.38343430 34.87977600
v -78.95378876 59.99702072 34.87977600
v -78.82067871 60.59880066 34.87977600
v -78.61454773 61.17963409 34.87977600
v -78.33851624 61.73069382 34.87977600
v -77.99678802 62.24360657 34.87977600
v -74.62966919 54.25810242 34.87977600
v -74.01451874 54.22011948 34.87977600
v -73.39936066 54.25810242 34.87977600
v -75.23548126 54.37148285 34.87977600
v -75.82273102 54.55853653 34.87977600
v -76.38251495 54.81641769 34.87977600
v -71.12271118 55.14121246 34.87977600
v -70.64285278 55.52798080 34.87977600
v -70.21421814 55.97084808 34.87977600
v -71.64651489 54.81641769 34.87977600
v -72.20629883 54.55853653 34.87977600
v -72.79355621 54.37148285 34.87977600
v -77.13792419 63.12451935 34.87977600
v -77.59455109 62.71057892 34.87977600
v -75.51451874 63.98981476 34.87977600
v -76.08994293 63.76903152 34.87977600
v -76.63382721 63.47912979 34.87977600
v -70.43447876 62.71057892 34.87977600
v -70.89111328 63.12451935 34.87977600
v -71.39520264 63.47912979 34.87977600
v -71.93909454 63.76903152 34.87977600
v -72.51451874 63.98981476 34.87977600
v -77.99678802 62.24360657 40.87977600
v -77.59455109 62.71057892 40.87977600
v -77.13792419 63.12451935 40.87977600
v -76.63382721 63.47912979 40.87977600
v -76.08994293 63.76903152 40.87977600
v -78.33851624 61.73069382 40.87977600
v -78.61454773 61.17963409 40.87977600
v -78.82067871 60.59880066 40.87977600
v -78.95378876 59.99702072 40.87977600
v -79.01184845 59.38343430 40.87977600
v -78.99397278 58.76736450 40.87977600
v -78.90044403 58.15817642 40.87977600
v -78.73267365 57.56512451 40.87977600
v -78.49320984 56.99721909 40.87977600
v -78.18569946 56.46308899 40.87977600
v -72.51451874 63.98981476 40.87977600
v -71.93909454 63.76903152 40.87977600
v -71.39520264 63.47912979 40.87977600
v -70.89111328 63.12451935 40.87977600
v -70.43447876 62.71057892 40.87977600
v -70.03224182 62.24360657 40.87977600
v -69.69051361 61.73069382 40.87977600
v -69.41448212 61.17963409 40.87977600
v -69.20835114 60.59880066 40.87977600
v -69.07524109 59.99702072 40.87977600
v -69.01718140 59.38343430 40.87977600
v -69.03505707 58.76736450 40.87977600
v -69.12858582 58.15817642 40.87977600
v -69.29635620 57.56512451 40.87977600
v -69.53582001 56.99721909 40.87977600
v -69.84333038 56.46308899 40.87977600
v -70.21421814 55.97084808 40.87977600
v -70.64285278 55.52798080 40.87977600
v -71.12271118 55.14121246 40.87977600
v -71.64651489 54.81641769 40.87977600
v -72.20629883 54.55853653 40.87977600
v -72.79355621 54.37148285 40.87977600
v -73.39936066 54.25810242 40.87977600
v -74.01451874 54.22011948 40.87977600
v -74.62966919 54.25810242 40.87977600
v -75.23548126 54.37148285 40.87977600
v -75.82273102 54.55853653 40.87977600
v -76.38251495 54.81641769 40.87977600
v -76.90631866 55.14121246 40.87977600
v -77.38617706 55.52798080 40.87977600
v -77.81481171 55.97084808 40.87977600
v -75.51451874 63.98981476 40.87977600
v -72.51451874 65.42012024 34.87977600
v -72.51451874 63.98981476 34.87977600
v -72.51451874 63.98981476 40.87977600
v -72.51451874 65.42012024 40.87977600
v -73.61386871 78.79885864 34.87977600
v -74.01451874 78.83712006 34.87977600
v -74.41516113 78.79885864 34.87977600
v -74.80132294 78.68547058 34.87977600
v -75.15904999 78.50105286 34.87977600
v -75.47541046 78.25226593 34.87977600
v -75.73897552 77.94809723 34.87977600
v -75.94020844 77.59954834 34.87977600
v -76.07183838 77.21922302 34.87977600
v -76.12911987 76.82084656 34.87977600
v -76.10997009 76.41883850 34.87977600
v -76.01508331 76.02771759 34.87977600
v -75.84789276 75.66162109 34.87977600
v -75.61443329 75.33377838 34.87977600
v -75.32315826 75.05604553 34.87977600
v -74.98458099 74.83845520 34.87977600
v -74.61093903 74.68887329 34.87977600
v -74.21575165 74.61270142 34.87977600
v -73.81327820 74.61270142 34.87977600
v -73.41809082 74.68887329 34.87977600
v -73.04444885 74.83845520 34.87977600
v -72.70587158 75.05604553 34.87977600
v -72.41459656 75.33377838 34.87977600
v -72.18113708 75.66162109 34.87977600
v -72.01394653 76.02771759 34.87977600
v -71.91905975 76.41883850 34.87977600
v -71.89990997 76.82084656 34.87977600
v -71.95719147 77.21922302 34.87977600
v -72.08882141 77.59954834 34.87977600
v -72.29005432 77.94809723 34.87977600
v -72.55361938 78.25226593 34.87977600
v -72.86997986 78.50105286 34.87977600
v -73.22770691 78.68547058 34.87977600
v -74.21575165 74.61270142 40.87977600
v -74.61093903 74.68887329 40.87977600
v -74.98458099 74.83845520 40.87977600
v -74.41516113 78.79885864 40.87977600
v -74.01451874 78.83712006 40.87977600
v -73.61386871 78.79885864 40.87977600
v -73.22770691 78.68547058 40.87977600
v -72.86997986 78.50105286 40.87977600
v -72.55361938 78.25226593 40.87977600
v -72.29005432 77.94809723 40.87977600
v -72.08882141 77.59954834 40.87977600
v -71.95719147 77.21922302 40.87977600
v -71.89990997 76.82084656 40.87977600
v -71.91905975 76.41883850 40.87977600
v -72.01394653 76.02771759 40.87977600
v -72.18113708 75.66162109 40.87977600
v -72.41459656 75.33377838 40.87977600
v -72.70587158 75.05604553 40.87977600
v -73.04444885 74.83845520 40.87977600
v -73.41809082 74.68887329 40.87977600
v -73.81327820 74.61270142 40.87977600
v -75.32315826 75.05604553 40.87977600
v -75.61443329 75.33377838 40.87977600
v -75.84789276 75.66162109 40.87977600
v -76.01508331 76.02771759 40.87977600
v -76.10997009 76.41883850 40.87977600
v -76.12911987 76.82084656 40.87977600
v -76.07183838 77.21922302 40.87977600
v -75.94020844 77.59954834 40.87977600
v -75.73897552 77.94809723 40.87977600
v -75.47541046 78.25226593 40.87977600
v -75.15904999 78.50105286 40.87977600
v -74.80132294 78.68547058 40.87977600
v -75.47541046 43.25226212 34.87977600
v -75.73897552 42.94809723 34.87977600
v -74.41516113 43.79886246 34.87977600
v -74.01451874 43.83711624 34.87977600
v -74.80132294 43.68547440 34.87977600
v -75.15904999 43.50105286 34.87977600
v -75.94020844 42.59955215 34.87977600
v -76.07183838 42.21921921 34.87977600
v -76.12911987 41.82085037 34.87977600
v -76.10997009 41.41883850 34.87977600
v -76.01508331 41.02771378 34.87977600
v -75.84789276 40.66161728 34.87977600
v -75.61443329 40.33377838 34.87977600
v -75.32315826 40.05604553 34.87977600
v -74.98458099 39.83845520 34.87977600
v -74.61093903 39.68887329 34.87977600
v -74.21575165 39.61270523 34.87977600
v -73.81327820 39.61270523 34.87977600
v -73.41809082 39.68887329 34.87977600
v -73.04444885 39.83845520 34.87977600
v -72.70587158 40.05604553 34.87977600
v -72.41459656 40.33377838 34.87977600
v -72.18113708 40.66161728 34.87977600
v -72.01394653 41.02771378 34.87977600
v -71.91905975 41.41883850 34.87977600
v -71.89990997 41.82085037 34.87977600
v -71.95719147 42.21921921 34.87977600
v -72.08882141 42.59955215 34.87977600
v -72.29005432 42.94809723 34.87977600
v -72.55361938 43.25226212 34.87977600
v -72.86997986 43.50105286 34.87977600
v -73.22770691 43.68547440 34.87977600
v -73.61386871 43.79886246 34.87977600
v -72.55361938 43.25226212 40.87977600
v -72.29005432 42.94809723 40.87977600
v -72.08882141 42.59955215 40.87977600
v -71.95719147 42.21921921 40.87977600
v -71.89990997 41.82085037 40.87977600
v -71.91905975 41.41883850 40.87977600
v -72.01394653 41.02771378 40.87977600
v -72.18113708 40.66161728 40.87977600
v -72.86997986 43.50105286 40.87977600
v -73.22770691 43.68547440 40.87977600
v -73.61386871 43.79886246 40.87977600
v -74.01451874 43.83711624 40.87977600
v -74.41516113 43.79886246 40.87977600
v -74.80132294 43.68547440 40.87977600
v -75.15904999 43.50105286 40.87977600
v -75.47541046 43.25226212 40.87977600
v -72.41459656 40.33377838 40.87977600
v -72.70587158 40.05604553 40.87977600
v -73.04444885 39.83845520 40.87977600
v -73.41809082 39.68887329 40.87977600
v -73.81327820 39.61270523 40.87977600
v -74.21575165 39.61270523 40.87977600
v -74.61093903 39.68887329 40.87977600
v -74.98458099 39.83845520 40.87977600
v -75.32315826 40.05604553 40.87977600
v -75.61443329 40.33377838 40.87977600
v -75.84789276 40.66161728 40.87977600
v -76.01508331 41.02771378 40.87977600
v -76.10997009 41.41883850 40.87977600
v -76.12911987 41.82085037 40.87977600
v -76.07183838 42.21921921 40.87977600
v -75.94020844 42.59955215 40.87977600
v -75.73897552 42.94809723 40.87977600
v -91.91516113 61.29886246 34.87977600
v -91.51451874 61.33711624 34.87977600
v -91.11386871 61.29886246 34.87977600
v -90.72770691 61.18547440 34.87977600
v -90.36997986 61.00105286 34.87977600
v -92.30132294 61.18547440 34.87977600
v -92.65904999 61.00105286 34.87977600
v -92.97541046 60.75226212 34.87977600
v -93.23897552 60.44809723 34.87977600
v -93.44020844 60.09955215 34.87977600
v -93.57183838 59.71921921 34.87977600
v -93.62911987 59.32085037 34.87977600
v -93.60997009 58.91883850 34.87977600
v -93.51508331 58.52771378 34.87977600
v -93.34789276 58.16161728 34.87977600
v -93.11444092 57.83377838 34.87977600
v -92.82315826 57.55604553 34.87977600
v -92.48458099 57.33845520 34.87977600
v -92.11094666 57.18887329 34.87977600
v -91.71575165 57.11270523 34.87977600
v -91.31328583 57.11270523 34.87977600
v -90.91809082 57.18887329 34.87977600
v -90.54444885 57.33845520 34.87977600
v -90.20587158 57.55604553 34.87977600
v -89.91459656 57.83377838 34.87977600
v -89.68113708 58.16161728 34.87977600
v -89.51394653 58.52771378 34.87977600
v -89.41906738 58.91883850 34.87977600
v -89.39990997 59.32085037 34.87977600
v -89.45719147 59.71921921 34.87977600
v -89.58882141 60.09955215 34.87977600
v -89.79006195 60.44809723 34.87977600
v -90.05361938 60.75226212 34.87977600
v -91.11386871 61.29886246 40.87977600
v -91.51451874 61.33711624 40.87977600
v -91.91516113 61.29886246 40.87977600
v -92.30132294 61.18547440 40.87977600
v -92.65904999 61.00105286 40.87977600
v -92.97541046 60.75226212 40.87977600
v -93.23897552 60.44809723 40.87977600
v -93.44020844 60.09955215 40.87977600
v -93.57183838 59.71921921 40.87977600
v -93.62911987 59.32085037 40.87977600
v -93.60997009 58.91883850 40.87977600
v -93.51508331 58.52771378 40.87977600
v -93.34789276 58.16161728 40.87977600
v -93.11444092 57.83377838 40.87977600
v -92.82315826 57.55604553 40.87977600
v -92.48458099 57.33845520 40.87977600
v -92.11094666 57.18887329 40.87977600
v -91.71575165 57.11270523 40.87977600
v -91.31328583 57.11270523 40.87977600
v -90.91809082 57.18887329 40.87977600
v -90.72770691 61.18547440 40.87977600
v -90.36997986 61.00105286 40.87977600
v -90.05361938 60.75226212 40.87977600
v -89.79006195 60.44809723 40.87977600
v -89.58882141 60.09955215 40.87977600
v -89.45719147 59.71921921 40.87977600
v -89.39990997 59.32085037 40.87977600
v -89.41906738 58.91883850 40.87977600
v -89.51394653 58.52771378 40.87977600
v -89.68113708 58.16161728 40.87977600
v -89.91459656 57.83377838 40.87977600
v -90.20587158 57.55604553 40.87977600
v -90.54444885 57.33845520 40.87977600
v -56.11387253 61.29886246 34.87977600
v -56.51451492 61.33711624 34.87977600
v -56.91516113 61.29886246 34.87977600
v -57.30132675 61.18547440 34.87977600
v -57.65905380 61.00105286 34.87977600
v -57.97541428 60.75226212 34.87977600
v -58.23897171 60.44809723 34.87977600
v -58.44020844 60.09955215 34.87977600
v -58.57184219 59.71921921 34.87977600
v -58.62911606 59.32085037 34.87977600
v -58.60996628 58.91883850 34.87977600
v -58.51508331 58.52771378 34.87977600
v -58.34789276 58.16161728 34.87977600
v -58.11443710 57.83377838 34.87977600
v -57.82315826 57.55604553 34.87977600
v -57.48458099 57.33845520 34.87977600
v -57.11094284 57.18887329 34.87977600
v -56.71574783 57.11270523 34.87977600
v -56.31328201 57.11270523 34.87977600
v -55.91808701 57.18887329 34.87977600
v -55.54444885 57.33845520 34.87977600
v -55.20587158 57.55604553 34.87977600
v -54.91459274 57.83377838 34.87977600
v -54.68114090 58.16161728 34.87977600
v -54.51395035 58.52771378 34.87977600
v -54.41906357 58.91883850 34.87977600
v -54.39991379 59.32085037 34.87977600
v -54.45719147 59.71921921 34.87977600
v -54.58882523 60.09955215 34.87977600
v -54.79005814 60.44809723 34.87977600
v -55.05361938 60.75226212 34.87977600
v -55.36997986 61.00105286 34.87977600
v -55.72770691 61.18547440 34.87977600
v -57.97541428 60.75226212 40.87977600
v -57.65905380 61.00105286 40.87977600
v -58.23897171 60.44809723 40.87977600
v -58.44020844 60.09955215 40.87977600
v -58.57184219 59.71921921 40.87977600
v -58.62911606 59.32085037 40.87977600
v -58.60996628 58.91883850 40.87977600
v -58.51508331 58.52771378 40.87977600
v -58.34789276 58.16161728 40.87977600
v -58.11443710 57.83377838 40.87977600
v -57.82315826 57.55604553 40.87977600
v -56.91516113 61.29886246 40.87977600
v -56.51451492 61.33711624 40.87977600
v -56.11387253 61.29886246 40.87977600
v -55.72770691 61.18547440 40.87977600
v -55.36997986 61.00105286 40.87977600
v -55.05361938 60.75226212 40.87977600
v -54.79005814 60.44809723 40.87977600
v -54.58882523 60.09955215 40.87977600
v -54.45719147 59.71921921 40.87977600
v -54.39991379 59.32085037 40.87977600
v -54.41906357 58.91883850 40.87977600
v -54.51395035 58.52771378 40.87977600
v -54.68114090 58.16161728 40.87977600
v -54.91459274 57.83377838 40.87977600
v -55.20587158 57.55604553 40.87977600
v -55.54444885 57.33845520 40.87977600
v -55.91808701 57.18887329 40.87977600
v -56.31328201 57.11270523 40.87977600
v -56.71574783 57.11270523 40.87977600
v -57.11094284 57.18887329 40.87977600
v -57.48458099 57.33845520 40.87977600
v -57.30132675 61.18547440 40.87977600
v -94.97545624 57.93987656 34.87977600
v -95.01451874 59.22011948 34.87977600
v -94.85842133 56.66439438 34.87977600
v -94.66384125 55.39842224 34.87977600
v -94.39244843 54.14666367 34.87977600
v -94.04524231 52.91378021 34.87977600
v -93.62352753 51.70435715 34.87977600
v -93.12886047 50.52289581 34.87977600
v -92.56309509 49.37378693 34.87977600
v -91.92832184 48.26130295 34.87977600
v -91.22690582 47.18959045 34.87977600
v -90.46146393 46.16263199 34.87977600
v -89.63483429 45.18424988 34.87977600
v -88.75009918 44.25807953 34.87977600
v -87.81054688 43.38756943 34.87977600
v -86.81967163 42.57595825 34.87977600
v -85.78115845 41.82626343 34.87977600
v -84.69887543 41.14127731 34.87977600
v -83.57684326 40.52354050 34.87977600
v -82.41923523 39.97536087 34.87977600
v -81.23036957 39.49877167 34.87977600
v -80.01465607 39.09554672 34.87977600
v -78.77661896 38.76718903 34.87977600
v -77.52086639 38.51491547 34.87977600
v -76.25207520 38.33966446 34.87977600
v -74.97496033 38.24209213 34.87977600
v -73.69426727 38.22256088 34.87977600
v -72.41477203 38.28113937 34.87977600
v -71.14122009 38.41761398 34.87977600
v -69.87836456 38.63147354 34.87977600
v -68.63088989 38.92192459 34.87977600
v -67.40345001 39.28788757 34.87977600
v -66.20059204 39.72800064 34.87977600
v -65.02680969 40.24062347 34.87977600
v -63.88646317 40.82385254 34.87977600
v -62.78379440 41.47551727 34.87977600
v -61.72290039 42.19319153 34.87977600
v -60.70773697 42.97420883 34.87977600
v -59.74207306 43.81565857 34.87977600
v -58.82950211 44.71441650 34.87977600
v -57.97342300 45.66713715 34.87977600
v -57.17701340 46.67027664 34.87977600
v -56.44324493 47.72010040 34.87977600
v -55.77484131 48.81270599 34.87977600
v -55.17428970 49.94402695 34.87977600
v -54.64382553 51.10985565 34.87977600
v -54.18542099 52.30585480 34.87977600
v -53.80078506 53.52757645 34.87977600
v -53.49134064 54.77047348 34.87977600
v -53.25824738 56.02992249 34.87977600
v -53.10236740 57.30124283 34.87977600
v -53.02428436 58.57969666 34.87977600
v -53.02428436 59.86053848 34.87977600
v -53.10236740 61.13899612 34.87977600
v -53.25824738 62.41031265 34.87977600
v -53.49134064 63.66976166 34.87977600
v -53.80078506 64.91265869 34.87977600
v -54.18542099 66.13438416 34.87977600
v -54.64382553 67.33038330 34.87977600
v -55.17428970 68.49620819 34.87977600
v -55.77484131 69.62753296 34.87977600
v -56.44324493 70.72013855 34.87977600
v -57.17701340 71.76995850 34.87977600
v -57.97342300 72.77310181 34.87977600
v -58.82950211 73.72581482 34.87977600
v -59.74207306 74.62457275 34.87977600
v -60.70773697 75.46602631 34.87977600
v -61.72290039 76.24704742 34.87977600
v -62.78379440 76.96472168 34.87977600
v -63.88646317 77.61638641 34.87977600
v -65.02680969 78.19961548 34.87977600
v -66.20059204 78.71223450 34.87977600
v -67.40345001 79.15234375 34.87977600
v -68.63088989 79.51831055 34.87977600
v -69.87836456 79.80876160 34.87977600
v -71.14122009 80.02262115 34.87977600
v -72.41477203 80.15909576 34.87977600
v -73.69426727 80.21767426 34.87977600
v -74.97496033 80.19814301 34.87977600
v -76.25207520 80.10057068 34.87977600
v -77.52086639 79.92532349 34.87977600
v -78.77661896 79.67304993 34.87977600
v -80.01465607 79.34468842 34.87977600
v -81.23036957 78.94146729 34.87977600
v -82.41923523 78.46487427 34.87977600
v -83.57684326 77.91669464 34.87977600
v -84.69887543 77.29895782 34.87977600
v -85.78115845 76.61397552 34.87977600
v -86.81967163 75.86428070 34.87977600
v -87.81054688 75.05266571 34.87977600
v -88.75009918 74.18215942 34.87977600
v -89.63483429 73.25598907 34.87977600
v -90.46146393 72.27760315 34.87977600
v -91.22690582 71.25064087 34.87977600
v -91.92832184 70.17893219 34.87977600
v -92.56309509 69.06645203 34.87977600
v -93.12886047 67.91734314 34.87977600
v -93.62352753 66.73587799 34.87977600
v -94.04524231 65.52645874 34.87977600
v -94.39244843 64.29357147 34.87977600
v -94.66384125 63.04181671 34.87977600
v -94.85842133 61.77584076 34.87977600
v -94.97545624 60.50036240 34.87977600
v -56.11387253 61.29886246 34.87977600
v -56.51451492 61.33711624 34.87977600
v -56.91516113 61.29886246 34.87977600
v -57.30132675 61.18547440 34.87977600
v -57.65905380 61.00105286 34.87977600
v -57.97541428 60.75226212 34.87977600
v -70.03224182 62.24360657 34.87977600
v -69.69051361 61.73069382 34.87977600
v -58.23897171 60.44809723 34.87977600
v -69.41448212 61.17963409 34.87977600
v -58.44020844 60.09955215 34.87977600
v -69.20835114 60.59880066 34.87977600
v -58.57184219 59.71921921 34.87977600
v -69.07524109 59.99702072 34.87977600
v -58.62911606 59.32085037 34.87977600
v -69.01718140 59.38343430 34.87977600
v -69.03505707 58.76736450 34.87977600
v -58.60996628 58.91883850 34.87977600
v -69.12858582 58.15817642 34.87977600
v -58.51508331 58.52771378 34.87977600
v -69.29635620 57.56512451 34.87977600
v -58.34789276 58.16161728 34.87977600
v -69.53582001 56.99721909 34.87977600
v -58.11443710 57.83377838 34.87977600
v -69.84333038 56.46308899 34.87977600
v -57.82315826 57.55604553 34.87977600
v -57.48458099 57.33845520 34.87977600
v -57.11094284 57.18887329 34.87977600
v -56.71574783 57.11270523 34.87977600
v -56.31328201 57.11270523 34.87977600
v -55.91808701 57.18887329 34.87977600
v -55.54444885 57.33845520 34.87977600
v -55.20587158 57.55604553 34.87977600
v -54.91459274 57.83377838 34.87977600
v -54.68114090 58.16161728 34.87977600
v -54.51395035 58.52771378 34.87977600
v -54.41906357 58.91883850 34.87977600
v -54.39991379 59.32085037 34.87977600
v -54.45719147 59.71921921 34.87977600
v -54.58882523 60.09955215 34.87977600
v -54.79005814 60.44809723 34.87977600
v -55.05361938 60.75226212 34.87977600
v -55.36997986 61.00105286 34.87977600
v -55.72770691 61.18547440 34.87977600
v -91.91516113 61.29886246 34.87977600
v -91.51451874 61.33711624 34.87977600
v -91.11386871 61.29886246 34.87977600
v -90.72770691 61.18547440 34.87977600
v -90.36997986 61.00105286 34.87977600
v -92.30132294 61.18547440 34.87977600
v -92.65904999 61.00105286 34.87977600
v -92.97541046 60.75226212 34.87977600
v -93.23897552 60.44809723 34.87977600
v -93.44020844 60.09955215 34.87977600
v -93.57183838 59.71921921 34.87977600
v -93.62911987 59.32085037 34.87977600
v -93.60997009 58.91883850 34.87977600
v -93.51508331 58.52771378 34.87977600
v -93.34789276 58.16161728 34.87977600
v -93.11444092 57.83377838 34.87977600
v -92.82315826 57.55604553 34.87977600
v -92.48458099 57.33845520 34.87977600
v -92.11094666 57.18887329 34.87977600
v -91.71575165 57.11270523 34.87977600
v -91.31328583 57.11270523 34.87977600
v -90.91809082 57.18887329 34.87977600
v -90.54444885 57.33845520 34.87977600
v -90.20587158 57.55604553 34.87977600
v -78.18569946 56.46308899 34.87977600
v -77.81481171 55.97084808 34.87977600
v -77.38617706 55.52798080 34.87977600
v -76.90631866 55.14121246 34.87977600
v -75.47541046 43.25226212 34.87977600
v -75.73897552 42.94809723 34.87977600
v -89.91459656 57.83377838 34.87977600
v -78.49320984 56.99721909 34.87977600
v -89.68113708 58.16161728 34.87977600
v -78.73267365 57.56512451 34.87977600
v -89.51394653 58.52771378 34.87977600
v -78.90044403 58.15817642 34.87977600
v -89.41906738 58.91883850 34.87977600
v -78.99397278 58.76736450 34.87977600
v -89.39990997 59.32085037 34.87977600
v -79.01184845 59.38343430 34.87977600
v -78.95378876 59.99702072 34.87977600
v -89.45719147 59.71921921 34.87977600
v -78.82067871 60.59880066 34.87977600
v -89.58882141 60.09955215 34.87977600
v -78.61454773 61.17963409 34.87977600
v -89.79006195 60.44809723 34.87977600
v -78.33851624 61.73069382 34.87977600
v -90.05361938 60.75226212 34.87977600
v -77.99678802 62.24360657 34.87977600
v -74.41516113 43.79886246 34.87977600
v -74.62966919 54.25810242 34.87977600
v -74.01451874 43.83711624 34.87977600
v -74.01451874 54.22011948 34.87977600
v -73.39936066 54.25810242 34.87977600
v -75.23548126 54.37148285 34.87977600
v -74.80132294 43.68547440 34.87977600
v -75.82273102 54.55853653 34.87977600
v -75.15904999 43.50105286 34.87977600
v -76.38251495 54.81641769 34.87977600
v -75.94020844 42.59955215 34.87977600
v -76.07183838 42.21921921 34.87977600
v -76.12911987 41.82085037 34.87977600
v -76.10997009 41.41883850 34.87977600
v -76.01508331 41.02771378 34.87977600
v -75.84789276 40.66161728 34.87977600
v -75.61443329 40.33377838 34.87977600
v -75.32315826 40.05604553 34.87977600
v -74.98458099 39.83845520 34.87977600
v -74.61093903 39.68887329 34.87977600
v -74.21575165 39.61270523 34.87977600
v -73.81327820 39.61270523 34.87977600
v -73.41809082 39.68887329 34.87977600
v -73.04444885 39.83845520 34.87977600
v -72.70587158 40.05604553 34.87977600
v -72.41459656 40.33377838 34.87977600
v -72.18113708 40.66161728 34.87977600
v -72.01394653 41.02771378 34.87977600
v -71.91905975 41.41883850 34.87977600
v -71.89990997 41.82085037 34.87977600
v -71.95719147 42.21921921 34.87977600
v -72.08882141 42.59955215 34.87977600
v -72.29005432 42.94809723 34.87977600
v -72.55361938 43.25226212 34.87977600
v -71.12271118 55.14121246 34.87977600
v -70.64285278 55.52798080 34.87977600
v -70.21421814 55.97084808 34.87977600
v -71.64651489 54.81641769 34.87977600
v -72.86997986 43.50105286 34.87977600
v -72.20629883 54.55853653 34.87977600
v -73.22770691 43.68547440 34.87977600
v -72.79355621 54.37148285 34.87977600
v -73.61386871 43.79886246 34.87977600
v -73.61386871 78.79885864 34.87977600
v -74.01451874 78.83712006 34.87977600
v -74.41516113 78.79885864 34.87977600
v -74.80132294 78.68547058 34.87977600
v -75.15904999 78.50105286 34.87977600
v -75.47541046 78.25226593 34.87977600
v -75.73897552 77.94809723 34.87977600
v -75.94020844 77.59954834 34.87977600
v -76.07183838 77.21922302 34.87977600
v -76.12911987 76.82084656 34.87977600
v -76.10997009 76.41883850 34.87977600
v -76.01508331 76.02771759 34.87977600
v -75.84789276 75.66162109 34.87977600
v -75.61443329 75.33377838 34.87977600
v -75.51451874 65.42012024 34.87977600
v -77.13792419 63.12451935 34.87977600
v -77.59455109 62.71057892 34.87977600
v -75.32315826 75.05604553 34.87977600
v -74.98458099 74.83845520 34.87977600
v -74.61093903 74.68887329 34.87977600
v -74.21575165 74.61270142 34.87977600
v -72.51451874 65.42012024 34.87977600
v -73.81327820 74.61270142 34.87977600
v -73.41809082 74.68887329 34.87977600
v -73.04444885 74.83845520 34.87977600
v -72.70587158 75.05604553 34.87977600
v -72.41459656 75.33377838 34.87977600
v -72.18113708 75.66162109 34.87977600
v -72.01394653 76.02771759 34.87977600
v -71.91905975 76.41883850 34.87977600
v -71.89990997 76.82084656 34.87977600
v -71.95719147 77.21922302 34.87977600
v -72.08882141 77.59954834 34.87977600
v -72.29005432 77.94809723 34.87977600
v -72.55361938 78.25226593 34.87977600
v -72.86997986 78.50105286 34.87977600
v -73.22770691 78.68547058 34.87977600
v -75.51451874 63.98981476 34.87977600
v -76.08994293 63.76903152 34.87977600
v -76.63382721 63.47912979 34.87977600
v -70.43447876 62.71057892 34.87977600
v -70.89111328 63.12451935 34.87977600
v -71.39520264 63.47912979 34.87977600
v -71.93909454 63.76903152 34.87977600
v -72.51451874 63.98981476 34.87977600
v -95.01451874 59.22011948 40.87977600
v -94.97545624 57.93987656 40.87977600
v -94.85842133 56.66439438 40.87977600
v -94.66384125 55.39842224 40.87977600
v -94.39244843 54.14666367 40.87977600
v -94.04524231 52.91378021 40.87977600
v -93.62352753 51.70435715 40.87977600
v -93.12886047 50.52289581 40.87977600
v -92.56309509 49.37378693 40.87977600
v -91.92832184 48.26130295 40.87977600
v -91.22690582 47.18959045 40.87977600
v -90.46146393 46.16263199 40.87977600
v -89.63483429 45.18424988 40.87977600
v -88.75009918 44.25807953 40.87977600
v -87.81054688 43.38756943 40.87977600
v -86.81967163 42.57595825 40.87977600
v -85.78115845 41.82626343 40.87977600
v -84.69887543 41.14127731 40.87977600
v -83.57684326 40.52354050 40.87977600
v -82.41923523 39.97536087 40.87977600
v -81.23036957 39.49877167 40.87977600
v -80.01465607 39.09554672 40.87977600
v -78.77661896 38.76718903 40.87977600
v -77.52086639 38.51491547 40.87977600
v -76.25207520 38.33966446 40.87977600
v -74.97496033 38.24209213 40.87977600
v -73.69426727 38.22256088 40.87977600
v -72.41477203 38.28113937 40.87977600
v -71.14122009 38.41761398 40.87977600
v -69.87836456 38.63147354 40.87977600
v -68.63088989 38.92192459 40.87977600
v -67.40345001 39.28788757 40.87977600
v -66.20059204 39.72800064 40.87977600
v -65.02680969 40.24062347 40.87977600
v -63.88646317 40.82385254 40.87977600
v -62.78379440 41.47551727 40.87977600
v -61.72290039 42.19319153 40.87977600
v -60.70773697 42.97420883 40.87977600
v -59.74207306 43.81565857 40.87977600
v -58.82950211 44.71441650 40.87977600
v -57.97342300 45.66713715 40.87977600
v -57.17701340 46.67027664 40.87977600
v -56.44324493 47.72010040 40.87977600
v -55.77484131 48.81270599 40.87977600
v -55.17428970 49.94402695 40.87977600
v -54.64382553 51.10985565 40.87977600
v -54.18542099 52.30585480 40.87977600
v -53.80078506 53.52757645 40.87977600
v -53.49134064 54.77047348 40.87977600
v -53.25824738 56.02992249 40.87977600
v -53.10236740 57.30124283 40.87977600
v -53.02428436 58.57969666 40.87977600
v -53.02428436 59.86053848 40.87977600
v -53.10236740 61.13899612 40.87977600
v -53.25824738 62.41031265 40.87977600
v -53.49134064 63.66976166 40.87977600
v -53.80078506 64.91265869 40.87977600
v -54.18542099 66.13438416 40.87977600
v -54.64382553 67.33038330 40.87977600
v -55.17428970 68.49620819 40.87977600
v -55.77484131 69.62753296 40.87977600
v -56.44324493 70.72013855 40.87977600
v -57.17701340 71.76995850 40.87977600
v -57.97342300 72.77310181 40.87977600
v -58.82950211 73.72581482 40.87977600
v -59.74207306 74.62457275 40.87977600
v -60.70773697 75.46602631 40.87977600
v -61.72290039 76.24704742 40.87977600
v -62.78379440 76.96472168 40.87977600
v -63.88646317 77.61638641 40.87977600
v -65.02680969 78.19961548 40.87977600
v -66.20059204 78.71223450 40.87977600
v -67.40345001 79.15234375 40.87977600
v -68.63088989 79.51831055 40.87977600
v -69.87836456 79.80876160 40.87977600
v -71.14122009 80.02262115 40.87977600
v -72.41477203 80.15909576 40.87977600
v -73.69426727 80.21767426 40.87977600
v -74.97496033 80.19814301 40.87977600
v -76.25207520 80.10057068 40.87977600
v -77.52086639 79.92532349 40.87977600
v -78.77661896 79.67304993 40.87977600
v -80.01465607 79.34468842 40.87977600
v -81.23036957 78.94146729 40.87977600
v -82.41923523 78.46487427 40.87977600
v -83.57684326 77.91669464 40.87977600
v -84.69887543 77.29895782 40.87977600
v -85.78115845 76.61397552 40.87977600
v -86.81967163 75.86428070 40.87977600
v -87.81054688 75.05266571 40.87977600
v -88.75009918 74.18215942 40.87977600
v -89.63483429 73.25598907 40.87977600
v -90.46146393 72.27760315 40.87977600
v -91.22690582 71.25064087 40.87977600
v -91.92832184 70.17893219 40.87977600
v -92.56309509 69.06645203 40.87977600
v -93.12886047 67.91734314 40.87977600
v -93.62352753 66.73587799 40.87977600
v -94.04524231 65.52645874 40.87977600
v -94.39244843 64.29357147 40.87977600
v -94.66384125 63.04181671 40.87977600
v -94.85842133 61.77584076 40.87977600
v -94.97545624 60.50036240 40.87977600
v -91.11386871 61.29886246 40.87977600
v -91.51451874 61.33711624 40.87977600
v -91.91516113 61.29886246 40.87977600
v -92.30132294 61.18547440 40.87977600
v -92.65904999 61.00105286 40.87977600
v -92.97541046 60.75226212 40.87977600
v -93.23897552 60.44809723 40.87977600
v -93.44020844 60.09955215 40.87977600
v -93.57183838 59.71921921 40.87977600
v -93.62911987 59.32085037 40.87977600
v -93.60997009 58.91883850 40.87977600
v -93.51508331 58.52771378 40.87977600
v -93.34789276 58.16161728 40.87977600
v -93.11444092 57.83377838 40.87977600
v -92.82315826 57.55604553 40.87977600
v -92.48458099 57.33845520 40.87977600
v -92.11094666 57.18887329 40.87977600
v -91.71575165 57.11270523 40.87977600
v -91.31328583 57.11270523 40.87977600
v -90.91809082 57.18887329 40.87977600
v -90.72770691 61.18547440 40.87977600
v -90.36997986 61.00105286 40.87977600
v -90.05361938 60.75226212 40.87977600
v -77.99678802 62.24360657 40.87977600
v -77.59455109 62.71057892 40.87977600
v -77.13792419 63.12451935 40.87977600
v -75.51451874 65.42012024 40.87977600
v -76.63382721 63.47912979 40.87977600
v -76.08994293 63.76903152 40.87977600
v -78.33851624 61.73069382 40.87977600
v -89.79006195 60.44809723 40.87977600
v -78.61454773 61.17963409 40.87977600
v -89.58882141 60.09955215 40.87977600
v -78.82067871 60.59880066 40.87977600
v -89.45719147 59.71921921 40.87977600
v -78.95378876 59.99702072 40.87977600
v -89.39990997 59.32085037 40.87977600
v -79.01184845 59.38343430 40.87977600
v -78.99397278 58.76736450 40.87977600
v -89.41906738 58.91883850 40.87977600
v -78.90044403 58.15817642 40.87977600
v -89.51394653 58.52771378 40.87977600
v -78.73267365 57.56512451 40.87977600
v -89.68113708 58.16161728 40.87977600
v -78.49320984 56.99721909 40.87977600
v -89.91459656 57.83377838 40.87977600
v -78.18569946 56.46308899 40.87977600
v -90.20587158 57.55604553 40.87977600
v -90.54444885 57.33845520 40.87977600
v -72.51451874 63.98981476 40.87977600
v -71.93909454 63.76903152 40.87977600
v -72.51451874 65.42012024 40.87977600
v -71.39520264 63.47912979 40.87977600
v -70.89111328 63.12451935 40.87977600
v -70.43447876 62.71057892 40.87977600
v -70.03224182 62.24360657 40.87977600
v -57.97541428 60.75226212 40.87977600
v -57.65905380 61.00105286 40.87977600
v -69.69051361 61.73069382 40.87977600
v -58.23897171 60.44809723 40.87977600
v -69.41448212 61.17963409 40.87977600
v -58.44020844 60.09955215 40.87977600
v -69.20835114 60.59880066 40.87977600
v -58.57184219 59.71921921 40.87977600
v -69.07524109 59.99702072 40.87977600
v -58.62911606 59.32085037 40.87977600
v -69.01718140 59.38343430 40.87977600
v -69.03505707 58.76736450 40.87977600
v -58.60996628 58.91883850 40.87977600
v -69.12858582 58.15817642 40.87977600
v -58.51508331 58.52771378 40.87977600
v -69.29635620 57.56512451 40.87977600
v -58.34789276 58.16161728 40.87977600
v -69.53582001 56.99721909 40.87977600
v -58.11443710 57.83377838 40.87977600
v -69.84333038 56.46308899 40.87977600
v -57.82315826 57.55604553 40.87977600
v -70.21421814 55.97084808 40.87977600
v -70.64285278 55.52798080 40.87977600
v -71.12271118 55.14121246 40.87977600
v -72.55361938 43.25226212 40.87977600
v -72.29005432 42.94809723 40.87977600
v -72.08882141 42.59955215 40.87977600
v -71.95719147 42.21921921 40.87977600
v -71.89990997 41.82085037 40.87977600
v -71.91905975 41.41883850 40.87977600
v -72.01394653 41.02771378 40.87977600
v -72.18113708 40.66161728 40.87977600
v -71.64651489 54.81641769 40.87977600
v -72.86997986 43.50105286 40.87977600
v -72.20629883 54.55853653 40.87977600
v -73.22770691 43.68547440 40.87977600
v -72.79355621 54.37148285 40.87977600
v -73.61386871 43.79886246 40.87977600
v -73.39936066 54.25810242 40.87977600
v -74.01451874 43.83711624 40.87977600
v -74.01451874 54.22011948 40.87977600
v -74.62966919 54.25810242 40.87977600
v -74.41516113 43.79886246 40.87977600
v -75.23548126 54.37148285 40.87977600
v -74.80132294 43.68547440 40.87977600
v -75.82273102 54.55853653 40.87977600
v -75.15904999 43.50105286 40.87977600
v -76.38251495 54.81641769 40.87977600
v -75.47541046 43.25226212 40.87977600
v -76.90631866 55.14121246 40.87977600
v -77.38617706 55.52798080 40.87977600
v -77.81481171 55.97084808 40.87977600
v -75.51451874 63.98981476 40.87977600
v -74.21575165 74.61270142 40.87977600
v -74.61093903 74.68887329 40.87977600
v -74.98458099 74.83845520 40.87977600
v -72.41459656 40.33377838 40.87977600
v -72.70587158 40.05604553 40.87977600
v -73.04444885 39.83845520 40.87977600
v -73.41809082 39.68887329 40.87977600
v -73.81327820 39.61270523 40.87977600
v -74.21575165 39.61270523 40.87977600
v -74.61093903 39.68887329 40.87977600
v -74.98458099 39.83845520 40.87977600
v -75.32315826 40.05604553 40.87977600
v -75.61443329 40.33377838 40.87977600
v -75.84789276 40.66161728 40.87977600
v -76.01508331 41.02771378 40.87977600
v -76.10997009 41.41883850 40.87977600
v -76.12911987 41.82085037 40.87977600
v -76.07183838 42.21921921 40.87977600
v -75.94020844 42.59955215 40.87977600
v -75.73897552 42.94809723 40.87977600
v -74.41516113 78.79885864 40.87977600
v -74.01451874 78.83712006 40.87977600
v -73.61386871 78.79885864 40.87977600
v -73.22770691 78.68547058 40.87977600
v -72.86997986 78.50105286 40.87977600
v -72.55361938 78.25226593 40.87977600
v -72.29005432 77.94809723 40.87977600
v -72.08882141 77.59954834 40.87977600
v -71.95719147 77.21922302 40.87977600
v -71.89990997 76.82084656 40.87977600
v -71.91905975 76.41883850 40.87977600
v -72.01394653 76.02771759 40.87977600
v -72.18113708 75.66162109 40.87977600
v -72.41459656 75.33377838 40.87977600
v -72.70587158 75.05604553 40.87977600
v -73.04444885 74.83845520 40.87977600
v -73.41809082 74.68887329 40.87977600
v -73.81327820 74.61270142 40.87977600
v -75.32315826 75.05604553 40.87977600
v -75.61443329 75.33377838 40.87977600
v -75.84789276 75.66162109 40.87977600
v -76.01508331 76.02771759 40.87977600
v -76.10997009 76.41883850 40.87977600
v -76.12911987 76.82084656 40.87977600
v -76.07183838 77.21922302 40.87977600
v -75.94020844 77.59954834 40.87977600
v -75.73897552 77.94809723 40.87977600
v -75.47541046 78.25226593 40.87977600
v -75.15904999 78.50105286 40.87977600
v -74.80132294 78.68547058 40.87977600
v -56.91516113 61.29886246 40.87977600
v -56.51451492 61.33711624 40.87977600
v -56.11387253 61.29886246 40.87977600
v -55.72770691 61.18547440 40.87977600
v -55.36997986 61.00105286 40.87977600
v -55.05361938 60.75226212 40.87977600
v -54.79005814 60.44809723 40.87977600
v -54.58882523 60.09955215 40.87977600
v -54.45719147 59.71921921 40.87977600
v -54.39991379 59.32085037 40.87977600
v -54.41906357 58.91883850 40.87977600
v -54.51395035 58.52771378 40.87977600
v -54.68114090 58.16161728 40.87977600
v -54.91459274 57.83377838 40.87977600
v -55.20587158 57.55604553 40.87977600
v -55.54444885 57.33845520 40.87977600
v -55.91808701 57.18887329 40.87977600
v -56.31328201 57.11270523 40.87977600
v -56.71574783 57.11270523 40.87977600
v -57.11094284 57.18887329 40.87977600
v -57.48458099 57.33845520 40.87977600
v -57.30132675 61.18547440 40.87977600
f 1 2 3
f 3 2 4
f 3 4 5
f 2 1 6
f 6 1 7
f 6 7 8
f 8 7 9
f 8 9 10
f 10 9 11
f 10 11 12
f 12 11 13
f 12 13 14
f 14 13 15
f 14 15 16
f 16 15 17
f 16 17 18
f 18 17 19
f 18 19 20
f 20 19 21
f 20 21 22
f 22 21 23
f 22 23 24
f 24 23 25
f 24 25 26
f 26 25 27
f 26 27 28
f 28 27 29
f 28 29 30
f 30 29 31
f 30 31 32
f 32 31 33
f 32 33 34
f 34 33 35
f 34 35 36
f 36 35 37
f 36 37 38
f 38 37 39
f 38 39 40
f 40 39 41
f 40 41 42
f 42 41 43
f 42 43 44
f 44 43 45
f 44 45 46
f 46 45 47
f 46 47 48
f 48 47 49
f 48 49 50
f 50 49 51
f 50 51 52
f 52 51 53
f 52 53 54
f 54 53 55
f 54 55 56
f 56 55 57
f 56 57 58
f 58 57 59
f 58 59 60
f 60 59 61
f 60 61 62
f 62 61 63
f 62 63 64
f 64 63 65
f 64 65 66
f 66 65 67
f 66 67 68
f 68 67 69
f 68 69 70
f 70 69 71
f 70 71 72
f 72 71 73
f 72 73 74
f 74 73 75
f 74 75 76
f 76 75 77
f 76 77 78
f 78 77 79
f 78 79 80
f 80 79 81
f 80 81 82
f 82 81 83
f 82 83 84
f 84 83 85
f 84 85 86
f 86 85 87
f 86 87 88
f 88 87 89
f 88 89 90
f 90 89 91
f 90 91 92
f 92 91 93
f 92 93 94
f 94 93 95
f 94 95 96
f 96 95 97
f 96 97 98
f 98 97 99
f 98 99 100
f 100 99 101
f 100 101 102
f 102 101 103
f 102 103 104
f 104 103 105
f 104 105 106
f 106 105 107
f 107 105 108
f 107 108 109
f 109 108 110
f 109 110 111
f 111 110 112
f 111 112 113
f 113 112 114
f 113 114 115
f 115 114 116
f 115 116 117
f 117 116 118
f 117 118 119
f 119 118 120
f 119 120 121
f 121 120 122
f 121 122 123
f 123 122 124
f 123 124 125
f 125 124 126
f 125 126 127
f 127 126 128
f 127 128 129
f 129 128 130
f 129 130 131
f 131 130 132
f 131 132 133
f 133 132 134
f 133 134 135
f 135 134 136
f 135 136 137
f 137 136 138
f 137 138 139
f 139 138 140
f 139 140 141
f 141 140 142
f 141 142 143
f 143 142 144
f 143 144 145
f 145 144 146
f 145 146 147
f 147 146 148
f 147 148 149
f 149 148 150
f 149 150 151
f 151 150 152
f 151 152 153
f 153 152 154
f 153 154 155
f 155 154 156
f 155 156 157
f 157 156 158
f 157 158 159
f 159 158 160
f 159 160 161
f 161 160 162
f 161 162 163
f 163 162 164
f 163 164 165
f 165 164 166
f 165 166 167
f 167 166 168
f 167 168 169
f 169 168 170
f 169 170 171
f 171 170 172
f 171 172 173
f 173 172 174
f 173 174 175
f 175 174 176
f 175 176 177
f 177 176 178
f 177 178 179
f 179 178 180
f 179 180 181
f 181 180 182
f 181 182 183
f 183 182 184
f 183 184 185
f 185 184 186
f 185 186 187
f 187 186 188
f 187 188 189
f 189 188 190
f 189 190 191
f 191 190 192
f 191 192 193
f 193 192 194
f 193 194 195
f 195 194 196
f 195 196 197
f 197 196 198
f 197 198 199
f 199 198 200
f 199 200 201
f 201 200 202
f 201 202 203
f 203 202 204
f 203 204 205
f 205 204 206
f 205 206 207
f 207 206 208
f 207 208 5
f 5 208 3
f 314 211 315
f 315 211 210
f 315 210 316
f 316 210 209
f 316 209 317
f 317 209 212
f 317 212 318
f 318 212 213
f 318 213 319
f 319 213 214
f 319 214 320
f 320 214 215
f 320 215 321
f 321 215 216
f 321 216 322
f 322 216 217
f 322 217 323
f 323 217 218
f 323 218 324
f 324 218 219
f 324 219 325
f 325 219 220
f 325 220 326
f 326 220 221
f 326 221 327
f 327 221 222
f 327 222 328
f 328 222 223
f 328 223 329
f 329 223 224
f 329 224 330
f 330 224 225
f 330 225 331
f 331 225 226
f 331 226 332
f 332 226 227
f 332 227 333
f 333 227 228
f 333 228 334
f 334 228 229
f 334 229 335
f 335 229 230
f 335 230 336
f 336 230 231
f 336 231 337
f 337 231 232
f 337 232 338
f 338 232 233
f 338 233 339
f 339 233 234
f 339 234 340
f 340 234 235
f 340 235 341
f 341 235 236
f 341 236 342
f 342 236 237
f 342 237 343
f 343 237 238
f 343 238 344
f 344 238 239
f 344 239 345
f 345 239 240
f 345 240 346
f 346 240 241
f 346 241 347
f 347 241 242
f 347 242 348
f 348 242 243
f 348 243 349
f 349 243 244
f 349 244 350
f 350 244 245
f 350 245 351
f 351 245 246
f 351 246 352
f 352 246 247
f 352 247 353
f 353 247 248
f 353 248 354
f 354 248 249
f 354 249 355
f 355 249 250
f 355 250 356
f 356 250 251
f 356 251 357
f 357 251 252
f 357 252 358
f 358 252 253
f 358 253 359
f 359 253 254
f 359 254 360
f 360 254 255
f 360 255 361
f 361 255 256
f 361 256 362
f 362 256 257
f 362 257 363
f 363 257 258
f 363 258 364
f 364 258 259
f 364 259 365
f 365 259 260
f 365 260 366
f 366 260 261
f 366 261 367
f 367 261 262
f 367 262 368
f 368 262 263
f 368 263 369
f 369 263 264
f 369 264 370
f 370 264 265
f 370 265 371
f 371 265 266
f 371 266 372
f 372 266 267
f 372 267 373
f 373 267 268
f 373 268 374
f 374 268 269
f 374 269 375
f 375 269 270
f 375 270 376
f 376 270 271
f 376 271 377
f 377 271 272
f 377 272 378
f 378 272 273
f 378 273 379
f 379 273 274
f 379 274 380
f 380 274 275
f 380 275 381
f 381 275 276
f 381 276 382
f 382 276 277
f 382 277 383
f 383 277 278
f 383 278 384
f 384 278 279
f 384 279 385
f 385 279 280
f 385 280 386
f 386 280 281
f 386 281 387
f 387 281 282
f 387 282 388
f 388 282 283
f 388 283 389
f 389 283 284
f 389 284 390
f 390 284 285
f 390 285 391
f 391 285 286
f 391 286 392
f 392 286 287
f 392 287 393
f 393 287 288
f 393 288 394
f 394 288 289
f 394 289 395
f 395 289 290
f 395 290 396
f 396 290 291
f 396 291 397
f 397 291 292
f 397 292 398
f 398 292 293
f 398 293 399
f 399 293 294
f 399 294 400
f 400 294 295
f 400 295 401
f 401 295 296
f 401 296 402
f 402 296 297
f 402 297 403
f 403 297 298
f 403 298 404
f 404 298 299
f 404 299 405
f 405 299 300
f 405 300 406
f 406 300 301
f 406 301 407
f 407 301 302
f 407 302 408
f 408 302 303
f 408 303 409
f 409 303 304
f 409 304 410
f 410 304 305
f 410 305 411
f 411 305 306
f 411 306 412
f 412 306 307
f 412 307 413
f 413 307 308
f 413 308 414
f 414 308 309
f 414 309 415
f 415 309 310
f 415 310 416
f 416 310 311
f 416 311 417
f 417 311 312
f 417 312 418
f 418 312 313
f 418 313 314
f 314 313 211
f 419 420 524
f 524 420 421
f 524 421 525
f 525 421 422
f 525 422 526
f 526 422 423
f 526 423 527
f 527 423 424
f 527 424 528
f 528 424 425
f 528 425 529
f 529 425 426
f 529 426 530
f 530 426 427
f 530 427 531
f 531 427 428
f 531 428 532
f 532 428 429
f 532 429 533
f 533 429 430
f 533 430 534
f 534 430 431
f 534 431 535
f 535 431 432
f 535 432 536
f 536 432 433
f 536 433 537
f 537 433 434
f 537 434 538
f 538 434 435
f 538 435 539
f 539 435 436
f 539 436 540
f 540 436 437
f 540 437 541
f 541 437 438
f 541 438 542
f 542 438 439
f 542 439 543
f 543 439 440
f 543 440 544
f 544 440 441
f 544 441 545
f 545 441 442
f 545 442 546
f 546 442 443
f 546 443 547
f 547 443 444
f 547 444 548
f 548 444 445
f 548 445 549
f 549 445 446
f 549 446 550
f 550 446 447
f 550 447 551
f 551 447 448
f 551 448 552
f 552 448 449
f 552 449 553
f 553 449 450
f 553 450 554
f 554 450 451
f 554 451 555
f 555 451 452
f 555 452 556
f 556 452 453
f 556 453 557
f 557 453 454
f 557 454 558
f 558 454 455
f 558 455 559
f 559 455 456
f 559 456 560
f 560 456 457
f 560 457 561
f 561 457 458
f 561 458 562
f 562 458 459
f 562 459 563
f 563 459 460
f 563 460 564
f 564 460 461
f 564 461 565
f 565 461 462
f 565 462 566
f 566 462 463
f 566 463 567
f 567 463 464
f 567 464 568
f 568 464 465
f 568 465 569
f 569 465 466
f 569 466 570
f 570 466 467
f 570 467 571
f 571 467 468
f 571 468 572
f 572 468 469
f 572 469 573
f 573 469 470
f 573 470 574
f 574 470 471
f 574 471 575
f 575 471 472
f 575 472 473
f 575 473 576
f 576 473 474
f 576 474 577
f 577 474 475
f 577 475 578
f 578 475 476
f 578 476 579
f 579 476 477
f 579 477 580
f 580 477 478
f 580 478 581
f 581 478 479
f 581 479 582
f 582 479 480
f 582 480 583
f 583 480 481
f 583 481 584
f 584 481 482
f 584 482 585
f 585 482 483
f 585 483 586
f 586 483 484
f 586 484 587
f 587 484 485
f 587 485 588
f 588 485 486
f 588 486 589
f 589 486 487
f 589 487 590
f 590 487 488
f 590 488 591
f 591 488 489
f 591 489 592
f 592 489 490
f 592 490 593
f 593 490 491
f 593 491 594
f 594 491 492
f 594 492 595
f 595 492 493
f 595 493 596
f 596 493 494
f 596 494 597
f 597 494 495
f 597 495 598
f 598 495 496
f 598 496 599
f 599 496 497
f 599 497 600
f 600 497 498
f 600 498 601
f 601 498 499
f 601 499 602
f 602 499 500
f 602 500 603
f 603 500 501
f 603 501 604
f 604 501 502
f 604 502 605
f 605 502 503
f 605 503 606
f 606 503 504
f 606 504 607
f 607 504 505
f 607 505 608
f 608 505 506
f 608 506 609
f 609 506 507
f 609 507 610
f 610 507 508
f 610 508 611
f 611 508 509
f 611 509 612
f 612 509 510
f 612 510 613
f 613 510 511
f 613 511 614
f 614 511 512
f 614 512 615
f 615 512 513
f 615 513 616
f 616 513 514
f 616 514 617
f 617 514 515
f 617 515 618
f 618 515 516
f 618 516 619
f 619 516 517
f 619 517 620
f 620 517 518
f 620 518 621
f 621 518 519
f 621 519 622
f 622 519 520
f 622 520 623
f 623 520 521
f 623 521 624
f 624 521 522
f 624 522 625
f 625 522 523
f 625 523 626
f 626 523 419
f 626 419 524
f 627 628 629
f 629 628 630
f 632 631 634
f 634 631 633
f 697 681 698
f 698 681 680
f 698 680 679
f 698 679 699
f 699 679 678
f 699 678 700
f 700 678 677
f 700 677 701
f 701 677 635
f 701 635 702
f 702 635 636
f 702 636 703
f 703 636 637
f 703 637 704
f 704 637 638
f 704 638 705
f 705 638 639
f 705 639 706
f 706 639 640
f 706 640 707
f 707 640 641
f 707 641 708
f 708 641 642
f 708 642 709
f 709 642 643
f 709 643 710
f 710 643 644
f 710 644 711
f 711 644 645
f 711 645 712
f 712 645 668
f 712 668 713
f 713 668 667
f 713 667 714
f 714 667 666
f 714 666 715
f 715 666 669
f 715 669 716
f 716 669 670
f 716 670 717
f 717 670 671
f 717 671 718
f 718 671 662
f 718 662 719
f 719 662 661
f 719 661 720
f 720 661 660
f 720 660 721
f 721 660 663
f 721 663 722
f 722 663 664
f 722 664 723
f 723 664 665
f 723 665 724
f 724 665 649
f 724 649 725
f 725 649 648
f 725 648 726
f 726 648 647
f 726 647 727
f 727 647 646
f 727 646 696
f 696 646 650
f 696 650 695
f 695 650 651
f 695 651 694
f 694 651 652
f 694 652 693
f 693 652 653
f 693 653 692
f 692 653 654
f 692 654 691
f 691 654 655
f 691 655 690
f 690 655 656
f 690 656 689
f 689 656 657
f 689 657 688
f 688 657 658
f 688 658 687
f 687 658 659
f 687 659 682
f 682 659 673
f 682 673 683
f 683 673 672
f 683 672 684
f 684 672 676
f 684 676 685
f 685 676 675
f 685 675 686
f 686 675 728
f 728 675 674
f 729 730 732
f 732 730 731
f 769 735 770
f 770 735 734
f 770 734 771
f 771 734 733
f 771 733 772
f 772 733 765
f 772 765 773
f 773 765 764
f 773 764 774
f 774 764 763
f 774 763 775
f 775 763 762
f 775 762 776
f 776 762 761
f 776 761 777
f 777 761 760
f 777 760 778
f 778 760 759
f 778 759 779
f 779 759 758
f 779 758 780
f 780 758 757
f 780 757 781
f 781 757 756
f 781 756 782
f 782 756 755
f 782 755 783
f 783 755 754
f 783 754 784
f 784 754 753
f 784 753 785
f 785 753 752
f 785 752 786
f 786 752 751
f 786 751 766
f 766 751 750
f 766 750 767
f 767 750 749
f 767 749 768
f 768 749 748
f 768 748 787
f 787 748 747
f 787 747 788
f 788 747 746
f 788 746 789
f 789 746 745
f 789 745 790
f 790 745 744
f 790 744 791
f 791 744 743
f 791 743 792
f 792 743 742
f 792 742 793
f 793 742 741
f 793 741 794
f 794 741 740
f 794 740 795
f 795 740 739
f 795 739 796
f 796 739 738
f 796 738 797
f 797 738 737
f 797 737 798
f 798 737 736
f 798 736 769
f 769 736 735
f 844 801 843
f 843 801 802
f 843 802 842
f 842 802 831
f 842 831 841
f 841 831 830
f 841 830 840
f 840 830 829
f 840 829 832
f 832 829 828
f 832 828 833
f 833 828 827
f 833 827 834
f 834 827 826
f 834 826 835
f 835 826 825
f 835 825 836
f 836 825 824
f 836 824 837
f 837 824 823
f 837 823 838
f 838 823 822
f 838 822 839
f 839 822 821
f 839 821 848
f 848 821 820
f 848 820 849
f 849 820 819
f 849 819 850
f 850 819 818
f 850 818 851
f 851 818 817
f 851 817 852
f 852 817 816
f 852 816 853
f 853 816 815
f 853 815 854
f 854 815 814
f 854 814 855
f 855 814 813
f 855 813 856
f 856 813 812
f 856 812 857
f 857 812 811
f 857 811 858
f 858 811 810
f 858 810 859
f 859 810 809
f 859 809 860
f 860 809 808
f 860 808 861
f 861 808 807
f 861 807 862
f 862 807 806
f 862 806 863
f 863 806 805
f 863 805 864
f 864 805 800
f 864 800 847
f 847 800 799
f 847 799 846
f 846 799 804
f 846 804 845
f 845 804 803
f 845 803 844
f 844 803 801
f 900 865 899
f 899 865 866
f 899 866 898
f 898 866 867
f 898 867 918
f 918 867 868
f 918 868 919
f 919 868 869
f 919 869 920
f 920 869 897
f 920 897 921
f 921 897 896
f 921 896 922
f 922 896 895
f 922 895 923
f 923 895 894
f 923 894 924
f 924 894 893
f 924 893 925
f 925 893 892
f 925 892 926
f 926 892 891
f 926 891 927
f 927 891 890
f 927 890 928
f 928 890 889
f 928 889 929
f 929 889 888
f 929 888 930
f 930 888 887
f 930 887 917
f 917 887 886
f 917 886 916
f 916 886 885
f 916 885 915
f 915 885 884
f 915 884 914
f 914 884 883
f 914 883 913
f 913 883 882
f 913 882 912
f 912 882 881
f 912 881 911
f 911 881 880
f 911 880 910
f 910 880 879
f 910 879 909
f 909 879 878
f 909 878 908
f 908 878 877
f 908 877 907
f 907 877 876
f 907 876 906
f 906 876 875
f 906 875 905
f 905 875 874
f 905 874 904
f 904 874 873
f 904 873 903
f 903 873 872
f 903 872 902
f 902 872 871
f 902 871 901
f 901 871 870
f 901 870 900
f 900 870 865
f 975 933 976
f 976 933 932
f 976 932 977
f 977 932 931
f 977 931 978
f 978 931 963
f 978 963 979
f 979 963 962
f 979 962 980
f 980 962 961
f 980 961 981
f 981 961 960
f 981 960 982
f 982 960 959
f 982 959 983
f 983 959 958
f 983 958 984
f 984 958 957
f 984 957 985
f 985 957 956
f 985 956 986
f 986 956 955
f 986 955 987
f 987 955 954
f 987 954 988
f 988 954 953
f 988 953 989
f 989 953 952
f 989 952 990
f 990 952 951
f 990 951 991
f 991 951 950
f 991 950 992
f 992 950 949
f 992 949 993
f 993 949 948
f 993 948 994
f 994 948 947
f 994 947 995
f 995 947 946
f 995 946 974
f 974 946 945
f 974 945 973
f 973 945 944
f 973 944 972
f 972 944 943
f 972 943 971
f 971 943 942
f 971 942 970
f 970 942 941
f 970 941 969
f 969 941 940
f 969 940 968
f 968 940 939
f 968 939 967
f 967 939 938
f 967 938 966
f 966 938 937
f 966 937 964
f 964 937 936
f 964 936 965
f 965 936 935
f 965 935 996
f 996 935 934
f 996 934 975
f 975 934 933
f 1111 1112 1113
f 1111 1110 1112
f 1109 1110 1111
f 1109 1108 1110
f 1107 1108 1109
f 1107 1105 1108
f 1106 1105 1107
f 1058 1105 1106
f 1058 1104 1105
f 1057 1104 1058
f 1053 1102 1054
f 1056 1104 1057
f 1056 1103 1104
f 1055 1103 1056
f 1100 1101 1053
f 1063 1062 1257
f 1046 1133 1047
f 1046 1132 1133
f 1046 1131 1132
f 1045 1131 1046
f 1045 1130 1131
f 1045 1129 1130
f 1044 1129 1045
f 1044 1128 1129
f 1043 1128 1044
f 1043 1127 1128
f 1042 1127 1043
f 1113 1114 1115
f 1118 1117 1119
f 1116 1117 1118
f 1116 1114 1117
f 1113 1112 1114
f 1145 1095 1146
f 1145 1096 1095
f 1144 1096 1145
f 1052 1100 1053
f 1052 1143 1100
f 1051 1143 1052
f 1051 1142 1143
f 1051 1141 1142
f 1050 1141 1051
f 1050 1140 1141
f 1050 1139 1140
f 1049 1139 1050
f 1049 1138 1139
f 1049 1137 1138
f 1048 1137 1049
f 1053 1101 1102
f 1099 1154 998
f 1099 1153 1154
f 1099 1152 1153
f 1098 1152 1099
f 1098 1151 1152
f 1098 1150 1151
f 1097 1150 1098
f 1097 1149 1150
f 1097 1144 1149
f 1096 1144 1097
f 1148 1092 1091
f 1148 1093 1092
f 1147 1093 1148
f 1147 1094 1093
f 1146 1094 1147
f 1146 1095 1094
f 1002 1164 1165
f 1002 1163 1164
f 1001 1163 1002
f 1001 1162 1163
f 1000 1162 1001
f 1000 1161 1162
f 1000 1160 1161
f 999 1160 1000
f 999 1159 1160
f 999 1158 1159
f 997 1158 999
f 997 1157 1158
f 997 1156 1157
f 998 1156 997
f 998 1155 1156
f 998 1154 1155
f 1012 1170 1171
f 1011 1170 1012
f 1010 1170 1011
f 1010 1169 1170
f 1009 1169 1010
f 1008 1169 1009
f 1008 1168 1169
f 1007 1168 1008
f 1007 1167 1168
f 1006 1167 1007
f 1005 1167 1006
f 1005 1166 1167
f 1004 1166 1005
f 1165 1003 1002
f 1165 1004 1003
f 1166 1004 1165
f 1184 1185 1186
f 1184 1182 1185
f 1183 1182 1184
f 1181 1182 1183
f 1181 1180 1182
f 1179 1180 1181
f 1179 1178 1180
f 1177 1178 1179
f 1177 1176 1178
f 1175 1176 1177
f 1175 1174 1176
f 1168 1174 1175
f 1167 1174 1168
f 1013 1172 1173
f 1013 1171 1172
f 1012 1171 1013
f 1198 1199 1200
f 1198 1193 1199
f 1194 1193 1198
f 1195 1196 1197
f 1195 1194 1196
f 1193 1194 1195
f 1091 1191 1148
f 1090 1191 1091
f 1192 1090 1089
f 1192 1191 1090
f 1190 1191 1192
f 1190 1189 1191
f 1188 1189 1190
f 1188 1187 1189
f 1186 1187 1188
f 1186 1185 1187
f 1019 1207 1020
f 1019 1206 1207
f 1018 1206 1019
f 1018 1205 1206
f 1018 1204 1205
f 1017 1204 1018
f 1016 1204 1017
f 1016 1203 1204
f 1015 1203 1016
f 1173 1014 1013
f 1173 1015 1014
f 1203 1015 1173
f 1202 1172 1171
f 1202 1201 1172
f 1200 1201 1202
f 1200 1199 1201
f 1025 1217 1218
f 1024 1217 1025
f 1024 1216 1217
f 1024 1215 1216
f 1023 1215 1024
f 1023 1214 1215
f 1023 1213 1214
f 1022 1213 1023
f 1022 1212 1213
f 1022 1211 1212
f 1021 1211 1022
f 1021 1210 1211
f 1021 1209 1210
f 1020 1209 1021
f 1020 1208 1209
f 1020 1207 1208
f 1032 1226 1033
f 1032 1225 1226
f 1031 1225 1032
f 1030 1225 1031
f 1030 1224 1225
f 1029 1224 1030
f 1029 1223 1224
f 1028 1223 1029
f 1028 1222 1223
f 1027 1222 1028
f 1027 1221 1222
f 1026 1221 1027
f 1026 1220 1221
f 1026 1219 1220
f 1025 1219 1026
f 1025 1218 1219
f 1234 1233 1235
f 1232 1233 1234
f 1232 1231 1233
f 1230 1231 1232
f 1230 1226 1231
f 1227 1226 1230
f 1038 1124 1039
f 1038 1229 1124
f 1037 1229 1038
f 1036 1229 1037
f 1036 1228 1229
f 1035 1228 1036
f 1034 1228 1035
f 1034 1227 1228
f 1033 1227 1034
f 1033 1226 1227
f 1078 1245 1079
f 1078 1244 1245
f 1078 1243 1244
f 1077 1243 1078
f 1077 1242 1243
f 1076 1242 1077
f 1076 1241 1242
f 1076 1240 1241
f 1075 1240 1076
f 1075 1239 1240
f 1075 1238 1239
f 1074 1238 1075
f 1074 1237 1238
f 1236 1237 1074
f 1197 1235 1195
f 1234 1235 1197
f 1250 1253 1254
f 1249 1253 1250
f 1086 1251 1252
f 1086 1250 1251
f 1085 1250 1086
f 1084 1250 1085
f 1084 1249 1250
f 1083 1249 1084
f 1083 1248 1249
f 1082 1248 1083
f 1081 1248 1082
f 1081 1247 1248
f 1080 1247 1081
f 1080 1246 1247
f 1079 1246 1080
f 1079 1245 1246
f 1067 1264 1068
f 1067 1263 1264
f 1066 1263 1067
f 1257 1064 1063
f 1257 1065 1064
f 1262 1065 1257
f 1262 1066 1065
f 1263 1066 1262
f 1257 1261 1262
f 1257 1260 1261
f 1259 1260 1257
f 1257 1258 1259
f 1257 1256 1258
f 1250 1256 1257
f 1255 1256 1250
f 1250 1254 1255
f 1273 1274 1250
f 1074 1272 1236
f 1073 1272 1074
f 1073 1271 1272
f 1073 1270 1271
f 1072 1270 1073
f 1072 1269 1270
f 1072 1268 1269
f 1071 1268 1072
f 1071 1267 1268
f 1070 1267 1071
f 1070 1266 1267
f 1069 1266 1070
f 1069 1265 1266
f 1069 1264 1265
f 1068 1264 1069
f 1089 1088 1192
f 1279 1280 1257
f 1257 1278 1279
f 1257 1277 1278
f 1062 1277 1257
f 1276 1061 1060
f 1276 1062 1061
f 1277 1062 1276
f 1106 1059 1058
f 1106 1060 1059
f 1276 1060 1106
f 1252 1087 1086
f 1252 1088 1087
f 1192 1088 1252
f 1250 1275 1251
f 1250 1274 1275
f 1041 1126 1042
f 1040 1126 1041
f 1040 1125 1126
f 1039 1125 1040
f 1124 1125 1039
f 1124 1123 1125
f 1122 1123 1124
f 1122 1121 1123
f 1120 1121 1122
f 1120 1119 1121
f 1118 1119 1120
f 1048 1136 1137
f 1048 1135 1136
f 1047 1135 1048
f 1047 1134 1135
f 1047 1133 1134
f 1054 1102 1055
f 1042 1126 1127
f 1055 1102 1103
f 1115 1114 1116
f 1392 1383 1281
f 1385 1379 1380
f 1385 1380 1386
f 1386 1380 1381
f 1386 1381 1387
f 1387 1381 1388
f 1388 1381 1382
f 1398 1284 1399
f 1398 1283 1284
f 1397 1283 1398
f 1396 1283 1397
f 1396 1282 1283
f 1395 1282 1396
f 1394 1282 1395
f 1394 1281 1282
f 1390 1382 1383
f 1390 1383 1391
f 1371 1408 1370
f 1372 1408 1371
f 1372 1407 1408
f 1373 1407 1372
f 1374 1407 1373
f 1374 1406 1407
f 1375 1406 1374
f 1375 1405 1406
f 1376 1405 1375
f 1377 1405 1376
f 1377 1404 1405
f 1378 1404 1377
f 1378 1384 1404
f 1379 1384 1378
f 1388 1382 1389
f 1424 1423 1425
f 1422 1423 1424
f 1422 1420 1423
f 1421 1420 1422
f 1419 1420 1421
f 1419 1418 1420
f 1417 1418 1419
f 1417 1416 1418
f 1415 1416 1417
f 1415 1414 1416
f 1413 1414 1415
f 1413 1406 1414
f 1407 1406 1413
f 1410 1411 1412
f 1410 1409 1411
f 1370 1409 1410
f 1435 1437 1346
f 1435 1436 1437
f 1435 1434 1436
f 1433 1434 1435
f 1288 1432 1403
f 1289 1432 1288
f 1289 1431 1432
f 1290 1431 1289
f 1291 1431 1290
f 1430 1431 1291
f 1430 1429 1431
f 1428 1429 1430
f 1428 1427 1429
f 1426 1427 1428
f 1426 1425 1427
f 1424 1425 1426
f 1447 1448 1449
f 1447 1446 1448
f 1445 1446 1447
f 1445 1444 1446
f 1443 1444 1445
f 1443 1442 1444
f 1440 1442 1443
f 1439 1442 1440
f 1342 1440 1441
f 1342 1439 1440
f 1343 1439 1342
f 1344 1439 1343
f 1344 1438 1439
f 1345 1438 1344
f 1346 1438 1345
f 1346 1437 1438
f 1322 1461 1321
f 1322 1459 1461
f 1323 1459 1322
f 1460 1323 1324
f 1460 1459 1323
f 1458 1459 1460
f 1458 1457 1459
f 1456 1457 1458
f 1456 1455 1457
f 1454 1455 1456
f 1454 1453 1455
f 1452 1453 1454
f 1452 1451 1453
f 1449 1451 1452
f 1449 1450 1451
f 1449 1448 1450
f 1312 1467 1468
f 1313 1467 1312
f 1313 1466 1467
f 1314 1466 1313
f 1314 1465 1466
f 1315 1465 1314
f 1316 1465 1315
f 1316 1464 1465
f 1317 1464 1316
f 1317 1463 1464
f 1318 1463 1317
f 1318 1462 1463
f 1319 1462 1318
f 1320 1462 1319
f 1320 1461 1462
f 1321 1461 1320
f 1479 1481 1482
f 1479 1480 1481
f 1479 1478 1480
f 1477 1478 1479
f 1477 1476 1478
f 1475 1476 1477
f 1475 1474 1476
f 1473 1474 1475
f 1473 1472 1474
f 1464 1472 1473
f 1463 1472 1464
f 1310 1470 1471
f 1310 1469 1470
f 1311 1469 1310
f 1311 1468 1469
f 1312 1468 1311
f 1292 1491 1430
f 1293 1491 1292
f 1294 1491 1293
f 1294 1490 1491
f 1295 1490 1294
f 1296 1490 1295
f 1296 1489 1490
f 1297 1489 1296
f 1488 1489 1297
f 1488 1487 1489
f 1486 1487 1488
f 1486 1485 1487
f 1484 1485 1486
f 1484 1483 1485
f 1482 1483 1484
f 1482 1481 1483
f 1306 1501 1502
f 1307 1501 1306
f 1307 1500 1501
f 1307 1499 1500
f 1308 1499 1307
f 1308 1498 1499
f 1308 1497 1498
f 1309 1497 1308
f 1309 1496 1497
f 1309 1471 1496
f 1310 1471 1309
f 1410 1494 1495
f 1410 1493 1494
f 1435 1493 1410
f 1412 1492 1410
f 1292 1430 1291
f 1300 1511 1299
f 1510 1301 1302
f 1510 1300 1301
f 1511 1300 1510
f 1302 1509 1510
f 1302 1508 1509
f 1303 1508 1302
f 1303 1507 1508
f 1304 1507 1303
f 1304 1506 1507
f 1304 1505 1506
f 1305 1505 1304
f 1305 1504 1505
f 1305 1503 1504
f 1306 1503 1305
f 1306 1502 1503
f 1355 1521 1354
f 1355 1520 1521
f 1356 1520 1355
f 1356 1519 1520
f 1356 1518 1519
f 1357 1518 1356
f 1357 1517 1518
f 1357 1516 1517
f 1358 1516 1357
f 1358 1515 1516
f 1358 1514 1515
f 1513 1514 1358
f 1297 1512 1488
f 1298 1512 1297
f 1299 1512 1298
f 1299 1511 1512
f 1435 1527 1528
f 1526 1527 1435
f 1347 1435 1346
f 1348 1435 1347
f 1349 1435 1348
f 1349 1526 1435
f 1350 1526 1349
f 1350 1525 1526
f 1351 1525 1350
f 1524 1352 1353
f 1524 1351 1352
f 1525 1351 1524
f 1353 1523 1524
f 1353 1522 1523
f 1354 1522 1353
f 1354 1521 1522
f 1363 1536 1362
f 1363 1535 1536
f 1364 1535 1363
f 1364 1534 1535
f 1365 1534 1364
f 1365 1533 1534
f 1366 1533 1365
f 1367 1533 1366
f 1367 1532 1533
f 1368 1532 1367
f 1410 1532 1368
f 1410 1531 1532
f 1495 1531 1410
f 1435 1530 1493
f 1529 1530 1435
f 1435 1528 1529
f 1336 1546 1335
f 1336 1545 1546
f 1337 1545 1336
f 1337 1544 1545
f 1543 1544 1337
f 1359 1513 1358
f 1359 1542 1513
f 1359 1541 1542
f 1360 1541 1359
f 1360 1540 1541
f 1360 1539 1540
f 1361 1539 1360
f 1361 1538 1539
f 1362 1538 1361
f 1362 1537 1538
f 1362 1536 1537
f 1330 1556 1557
f 1331 1556 1330
f 1331 1555 1556
f 1331 1554 1555
f 1332 1554 1331
f 1332 1553 1554
f 1332 1552 1553
f 1333 1552 1332
f 1333 1551 1552
f 1333 1550 1551
f 1334 1550 1333
f 1334 1549 1550
f 1334 1548 1549
f 1335 1548 1334
f 1335 1547 1548
f 1335 1546 1547
f 1441 1341 1342
f 1441 1340 1341
f 1564 1340 1441
f 1324 1563 1460
f 1325 1563 1324
f 1326 1563 1325
f 1326 1562 1563
f 1327 1562 1326
f 1327 1561 1562
f 1328 1561 1327
f 1328 1560 1561
f 1329 1560 1328
f 1329 1559 1560
f 1329 1558 1559
f 1330 1558 1329
f 1330 1557 1558
f 1410 1369 1370
f 1368 1369 1410
f 1338 1543 1337
f 1339 1543 1338
f 1339 1564 1543
f 1340 1564 1339
f 1389 1382 1390
f 1403 1286 1287
f 1402 1286 1403
f 1401 1286 1402
f 1401 1285 1286
f 1400 1285 1401
f 1400 1284 1285
f 1399 1284 1400
f 1391 1383 1392
f 1384 1379 1385
f 1392 1281 1393
f 1370 1408 1409
f 1393 1281 1394
f 1403 1287 1288

