# https://github.com/mikedh/trimesh

o ShaftHandle_1.stl
v -75.94321442 38.15467834 5.08940363
v -75.94321442 44.82134247 5.08940363
v -75.96851349 38.15467834 4.77595997
v -75.96851349 44.82134247 4.77595997
v -75.94321442 38.15467834 4.46251631
v -75.94321442 44.82134247 4.46251631
v -75.86795807 38.15467834 4.15719080
v -75.86795807 44.82134247 4.15719080
v -75.74469757 38.15467834 3.86789083
v -75.74469757 44.82134247 3.86789083
v -75.57662964 38.15467834 3.60210967
v -75.57662964 44.82134247 3.60210967
v -75.36809540 38.15467834 3.36673045
v -75.36809540 44.82134247 3.36673045
v -75.12451172 38.15467834 3.16784954
v -75.12451172 44.82134247 3.16784954
v -74.85218048 38.15467834 3.01061797
v -74.85218048 44.82134247 3.01061797
v -74.55815125 38.15467834 2.89910769
v -74.55815125 44.82134247 2.89910769
v -74.25004578 38.15467834 2.83620691
v -74.25004578 44.82134247 2.83620691
v -73.93583679 38.15467834 2.82354474
v -73.93583679 44.82134247 2.82354474
v -73.62366486 38.15467834 2.86144900
v -73.62366486 44.82134247 2.86144900
v -73.32161713 38.15467834 2.94893837
v -73.32161713 44.82134247 2.94893837
v -73.03751373 38.15467834 3.08374643
v -73.03751373 44.82134247 3.08374643
v -72.77871704 38.15467834 3.26238203
v -72.77871704 44.82134247 3.26238203
v -72.55192566 38.15467834 3.48021841
v -72.55192566 44.82134247 3.48021841
v -72.36301422 38.15467834 3.73161387
v -72.36301422 44.82134247 3.73161387
v -72.21687317 38.15467834 4.01005745
v -72.21687317 44.82134247 4.01005745
v -72.11729431 38.15467834 4.30833721
v -72.11729431 44.82134247 4.30833721
v -72.06684875 38.15467834 4.61872816
v -72.06684875 44.82134247 4.61872816
v -72.06684875 38.15467834 4.93319178
v -72.06684875 44.82134247 4.93319178
v -72.11729431 38.15467834 5.24358273
v -72.11729431 44.82134247 5.24358273
v -72.21687317 38.15467834 5.54186296
v -72.21687317 44.82134247 5.54186296
v -72.36301422 38.15467834 5.82030630
v -72.36301422 44.82134247 5.82030630
v -72.55192566 38.15467834 6.07170153
v -72.55192566 44.82134247 6.07170153
v -72.77871704 38.15467834 6.28953791
v -72.77871704 44.82134247 6.28953791
v -73.03751373 38.15467834 6.46817350
v -73.03751373 44.82134247 6.46817350
v -73.32161713 38.15467834 6.60298157
v -73.32161713 44.82134247 6.60298157
v -73.62366486 38.15467834 6.69047117
v -73.62366486 44.82134247 6.69047117
v -73.93583679 38.15467834 6.72837543
v -73.93583679 44.82134247 6.72837543
v -74.25004578 38.15467834 6.71571302
v -74.25004578 44.82134247 6.71571302
v -74.55815125 38.15467834 6.65281248
v -74.55815125 44.82134247 6.65281248
v -74.85218048 38.15467834 6.54130220
v -74.85218048 44.82134247 6.54130220
v -75.12451172 38.15467834 6.38407040
v -75.12451172 44.82134247 6.38407040
v -75.36809540 38.15467834 6.18518972
v -75.36809540 44.82134247 6.18518972
v -75.57662964 38.15467834 5.94981050
v -75.57662964 44.82134247 5.94981050
v -75.74469757 38.15467834 5.68402910
v -75.74469757 44.82134247 5.68402910
v -75.86795807 38.15467834 5.39472914
v -75.86795807 44.82134247 5.39472914
v -75.94321442 78.15467834 4.46251631
v -75.94321442 71.48801422 4.46251631
v -75.96851349 78.15467834 4.77595997
v -75.96851349 71.48801422 4.77595997
v -75.94321442 78.15467834 5.08940363
v -75.94321442 71.48801422 5.08940363
v -75.86795807 78.15467834 5.39472914
v -75.86795807 71.48801422 5.39472914
v -75.74469757 78.15467834 5.68402910
v -75.74469757 71.48801422 5.68402910
v -75.57662964 78.15467834 5.94981050
v -75.57662964 71.48801422 5.94981050
v -75.36809540 78.15467834 6.18518972
v -75.36809540 71.48801422 6.18518972
v -75.12451172 78.15467834 6.38407040
v -75.12451172 71.48801422 6.38407040
v -74.85218048 78.15467834 6.54130220
v -74.85218048 71.48801422 6.54130220
v -74.55815125 78.15467834 6.65281248
v -74.55815125 71.48801422 6.65281248
v -74.25004578 78.15467834 6.71571302
v -74.25004578 71.48801422 6.71571302
v -73.93583679 78.15467834 6.72837543
v -73.93583679 71.48801422 6.72837543
v -73.62366486 78.15467834 6.69047117
v -73.62366486 71.48801422 6.69047117
v -73.32161713 78.15467834 6.60298157
v -73.32161713 71.48801422 6.60298157
v -73.03751373 78.15467834 6.46817350
v -73.03751373 71.48801422 6.46817350
v -72.77871704 78.15467834 6.28953791
v -72.77871704 71.48801422 6.28953791
v -72.55192566 78.15467834 6.07170153
v -72.55192566 71.48801422 6.07170153
v -72.36301422 78.15467834 5.82030630
v -72.36301422 71.48801422 5.82030630
v -72.21687317 78.15467834 5.54186296
v -72.21687317 71.48801422 5.54186296
v -72.11729431 78.15467834 5.24358273
v -72.11729431 71.48801422 5.24358273
v -72.06684875 78.15467834 4.93319178
v -72.06684875 71.48801422 4.93319178
v -72.06684875 78.15467834 4.61872816
v -72.06684875 71.48801422 4.61872816
v -72.11729431 78.15467834 4.30833721
v -72.11729431 71.48801422 4.30833721
v -72.21687317 78.15467834 4.01005745
v -72.21687317 71.48801422 4.01005745
v -72.36301422 78.15467834 3.73161387
v -72.36301422 71.48801422 3.73161387
v -72.55192566 78.15467834 3.48021841
v -72.55192566 71.48801422 3.48021841
v -72.77871704 78.15467834 3.26238203
v -72.77871704 71.48801422 3.26238203
v -73.03751373 78.15467834 3.08374643
v -73.03751373 71.48801422 3.08374643
v -73.32161713 78.15467834 2.94893837
v -73.32161713 71.48801422 2.94893837
v -73.62366486 78.15467834 2.86144900
v -73.62366486 71.48801422 2.86144900
v -73.93583679 78.15467834 2.82354474
v -73.93583679 71.48801422 2.82354474
v -74.25004578 78.15467834 2.83620691
v -74.25004578 71.48801422 2.83620691
v -74.55815125 78.15467834 2.89910769
v -74.55815125 71.48801422 2.89910769
v -74.85218048 78.15467834 3.01061797
v -74.85218048 71.48801422 3.01061797
v -75.12451172 78.15467834 3.16784954
v -75.12451172 71.48801422 3.16784954
v -75.36809540 78.15467834 3.36673045
v -75.36809540 71.48801422 3.36673045
v -75.57662964 78.15467834 3.60210967
v -75.57662964 71.48801422 3.60210967
v -75.74469757 78.15467834 3.86789083
v -75.74469757 71.48801422 3.86789083
v -75.86795807 78.15467834 4.15719080
v -75.86795807 71.48801422 4.15719080
v -75.96851349 51.48801041 4.77595997
v -75.94321442 51.48801041 4.46251631
v -75.86795807 51.48801041 4.15719080
v -75.74469757 51.48801041 3.86789083
v -75.57662964 51.48801041 3.60210967
v -75.36809540 51.48801041 3.36673045
v -75.12451172 51.48801041 3.16784954
v -74.85218048 51.48801041 3.01061797
v -74.55815125 51.48801041 2.89910769
v -74.25004578 51.48801041 2.83620691
v -73.93583679 51.48801041 2.82354474
v -73.62366486 51.48801041 2.86144900
v -73.32161713 51.48801041 2.94893837
v -73.03751373 51.48801041 3.08374643
v -72.77871704 51.48801041 3.26238203
v -72.55192566 51.48801041 3.48021841
v -72.36301422 51.48801041 3.73161387
v -72.21687317 51.48801041 4.01005745
v -72.11729431 51.48801041 4.30833721
v -72.06684875 51.48801041 4.61872816
v -72.06684875 51.48801041 4.93319178
v -72.11729431 51.48801041 5.24358273
v -72.21687317 51.48801041 5.54186296
v -72.36301422 51.48801041 5.82030630
v -72.55192566 51.48801041 6.07170153
v -72.77871704 51.48801041 6.28953791
v -73.03751373 51.48801041 6.46817350
v -73.32161713 51.48801041 6.60298157
v -73.62366486 51.48801041 6.69047117
v -73.93583679 51.48801041 6.72837543
v -74.25004578 51.48801041 6.71571302
v -74.55815125 51.48801041 6.65281248
v -74.85218048 51.48801041 6.54130220
v -75.12451172 51.48801041 6.38407040
v -75.36809540 51.48801041 6.18518972
v -75.57662964 51.48801041 5.94981050
v -75.74469757 51.48801041 5.68402910
v -75.86795807 51.48801041 5.39472914
v -75.94321442 51.48801041 5.08940363
v -75.96851349 58.15467834 4.77595997
v -75.94321442 58.15467834 4.46251631
v -75.86795807 58.15467834 4.15719080
v -75.74469757 58.15467834 3.86789083
v -75.57662964 58.15467834 3.60210967
v -75.36809540 58.15467834 3.36673045
v -75.12451172 58.15467834 3.16784954
v -74.85218048 58.15467834 3.01061797
v -74.55815125 58.15467834 2.89910769
v -74.25004578 58.15467834 2.83620691
v -73.93583679 58.15467834 2.82354474
v -73.62366486 58.15467834 2.86144900
v -73.32161713 58.15467834 2.94893837
v -73.03751373 58.15467834 3.08374643
v -72.77871704 58.15467834 3.26238203
v -72.55192566 58.15467834 3.48021841
v -72.36301422 58.15467834 3.73161387
v -72.21687317 58.15467834 4.01005745
v -72.11729431 58.15467834 4.30833721
v -72.06684875 58.15467834 4.61872816
v -72.06684875 58.15467834 4.93319178
v -72.11729431 58.15467834 5.24358273
v -72.21687317 58.15467834 5.54186296
v -72.36301422 58.15467834 5.82030630
v -72.55192566 58.15467834 6.07170153
v -72.77871704 58.15467834 6.28953791
v -73.03751373 58.15467834 6.46817350
v -73.32161713 58.15467834 6.60298157
v -73.62366486 58.15467834 6.69047117
v -73.93583679 58.15467834 6.72837543
v -74.25004578 58.15467834 6.71571302
v -74.55815125 58.15467834 6.65281248
v -74.85218048 58.15467834 6.54130220
v -75.12451172 58.15467834 6.38407040
v -75.36809540 58.15467834 6.18518972
v -75.57662964 58.15467834 5.94981050
v -75.74469757 58.15467834 5.68402910
v -75.86795807 58.15467834 5.39472914
v -75.94321442 58.15467834 5.08940363
v -75.96851349 64.82134247 4.77595997
v -75.94321442 64.82134247 4.46251631
v -75.86795807 64.82134247 4.15719080
v -75.74469757 64.82134247 3.86789083
v -75.57662964 64.82134247 3.60210967
v -75.36809540 64.82134247 3.36673045
v -75.12451172 64.82134247 3.16784954
v -74.85218048 64.82134247 3.01061797
v -74.55815125 64.82134247 2.89910769
v -74.25004578 64.82134247 2.83620691
v -73.93583679 64.82134247 2.82354474
v -73.62366486 64.82134247 2.86144900
v -73.32161713 64.82134247 2.94893837
v -73.03751373 64.82134247 3.08374643
v -72.77871704 64.82134247 3.26238203
v -72.55192566 64.82134247 3.48021841
v -72.36301422 64.82134247 3.73161387
v -72.21687317 64.82134247 4.01005745
v -72.11729431 64.82134247 4.30833721
v -72.06684875 64.82134247 4.61872816
v -72.06684875 64.82134247 4.93319178
v -72.11729431 64.82134247 5.24358273
v -72.21687317 64.82134247 5.54186296
v -72.36301422 64.82134247 5.82030630
v -72.55192566 64.82134247 6.07170153
v -72.77871704 64.82134247 6.28953791
v -73.03751373 64.82134247 6.46817350
v -73.32161713 64.82134247 6.60298157
v -73.62366486 64.82134247 6.69047117
v -73.93583679 64.82134247 6.72837543
v -74.25004578 64.82134247 6.71571302
v -74.55815125 64.82134247 6.65281248
v -74.85218048 64.82134247 6.54130220
v -75.12451172 64.82134247 6.38407040
v -75.36809540 64.82134247 6.18518972
v -75.57662964 64.82134247 5.94981050
v -75.74469757 64.82134247 5.68402910
v -75.86795807 64.82134247 5.39472914
v -75.94321442 64.82134247 5.08940363
v -75.94321442 38.15467834 5.08940363
v -75.96851349 38.15467834 4.77595997
v -75.94321442 38.15467834 4.46251631
v -75.86795807 38.15467834 4.15719080
v -75.74469757 38.15467834 3.86789083
v -75.57662964 38.15467834 3.60210967
v -75.36809540 38.15467834 3.36673045
v -75.12451172 38.15467834 3.16784954
v -74.85218048 38.15467834 3.01061797
v -74.55815125 38.15467834 2.89910769
v -74.25004578 38.15467834 2.83620691
v -73.93583679 38.15467834 2.82354474
v -73.62366486 38.15467834 2.86144900
v -73.32161713 38.15467834 2.94893837
v -73.03751373 38.15467834 3.08374643
v -72.77871704 38.15467834 3.26238203
v -72.55192566 38.15467834 3.48021841
v -72.36301422 38.15467834 3.73161387
v -72.21687317 38.15467834 4.01005745
v -72.11729431 38.15467834 4.30833721
v -72.06684875 38.15467834 4.61872816
v -72.06684875 38.15467834 4.93319178
v -72.11729431 38.15467834 5.24358273
v -72.21687317 38.15467834 5.54186296
v -72.36301422 38.15467834 5.82030630
v -72.55192566 38.15467834 6.07170153
v -72.77871704 38.15467834 6.28953791
v -73.03751373 38.15467834 6.46817350
v -73.32161713 38.15467834 6.60298157
v -73.62366486 38.15467834 6.69047117
v -73.93583679 38.15467834 6.72837543
v -74.25004578 38.15467834 6.71571302
v -74.55815125 38.15467834 6.65281248
v -74.85218048 38.15467834 6.54130220
v -75.12451172 38.15467834 6.38407040
v -75.36809540 38.15467834 6.18518972
v -75.57662964 38.15467834 5.94981050
v -75.74469757 38.15467834 5.68402910
v -75.86795807 38.15467834 5.39472914
v -75.94321442 78.15467834 4.46251631
v -75.96851349 78.15467834 4.77595997
v -75.94321442 78.15467834 5.08940363
v -75.86795807 78.15467834 5.39472914
v -75.74469757 78.15467834 5.68402910
v -75.57662964 78.15467834 5.94981050
v -75.36809540 78.15467834 6.18518972
v -75.12451172 78.15467834 6.38407040
v -74.85218048 78.15467834 6.54130220
v -74.55815125 78.15467834 6.65281248
v -74.25004578 78.15467834 6.71571302
v -73.93583679 78.15467834 6.72837543
v -73.62366486 78.15467834 6.69047117
v -73.32161713 78.15467834 6.60298157
v -73.03751373 78.15467834 6.46817350
v -72.77871704 78.15467834 6.28953791
v -72.55192566 78.15467834 6.07170153
v -72.36301422 78.15467834 5.82030630
v -72.21687317 78.15467834 5.54186296
v -72.11729431 78.15467834 5.24358273
v -72.06684875 78.15467834 4.93319178
v -72.06684875 78.15467834 4.61872816
v -72.11729431 78.15467834 4.30833721
v -72.21687317 78.15467834 4.01005745
v -72.36301422 78.15467834 3.73161387
v -72.55192566 78.15467834 3.48021841
v -72.77871704 78.15467834 3.26238203
v -73.03751373 78.15467834 3.08374643
v -73.32161713 78.15467834 2.94893837
v -73.62366486 78.15467834 2.86144900
v -73.93583679 78.15467834 2.82354474
v -74.25004578 78.15467834 2.83620691
v -74.55815125 78.15467834 2.89910769
v -74.85218048 78.15467834 3.01061797
v -75.12451172 78.15467834 3.16784954
v -75.36809540 78.15467834 3.36673045
v -75.57662964 78.15467834 3.60210967
v -75.74469757 78.15467834 3.86789083
v -75.86795807 78.15467834 4.15719080
f 1 2 3
f 3 2 4
f 3 4 5
f 5 4 6
f 5 6 7
f 7 6 8
f 7 8 9
f 9 8 10
f 9 10 11
f 11 10 12
f 11 12 13
f 13 12 14
f 13 14 15
f 15 14 16
f 15 16 17
f 17 16 18
f 17 18 19
f 19 18 20
f 19 20 21
f 21 20 22
f 21 22 23
f 23 22 24
f 23 24 25
f 25 24 26
f 25 26 27
f 27 26 28
f 27 28 29
f 29 28 30
f 29 30 31
f 31 30 32
f 31 32 33
f 33 32 34
f 33 34 35
f 35 34 36
f 35 36 37
f 37 36 38
f 37 38 39
f 39 38 40
f 39 40 41
f 41 40 42
f 41 42 43
f 43 42 44
f 43 44 45
f 45 44 46
f 45 46 47
f 47 46 48
f 47 48 49
f 49 48 50
f 49 50 51
f 51 50 52
f 51 52 53
f 53 52 54
f 53 54 55
f 55 54 56
f 55 56 57
f 57 56 58
f 57 58 59
f 59 58 60
f 59 60 61
f 61 60 62
f 61 62 63
f 63 62 64
f 63 64 65
f 65 64 66
f 65 66 67
f 67 66 68
f 67 68 69
f 69 68 70
f 69 70 71
f 71 70 72
f 71 72 73
f 73 72 74
f 73 74 75
f 75 74 76
f 75 76 77
f 77 76 78
f 77 78 1
f 1 78 2
f 79 80 81
f 81 80 82
f 81 82 83
f 83 82 84
f 83 84 85
f 85 84 86
f 85 86 87
f 87 86 88
f 87 88 89
f 89 88 90
f 89 90 91
f 91 90 92
f 91 92 93
f 93 92 94
f 93 94 95
f 95 94 96
f 95 96 97
f 97 96 98
f 97 98 99
f 99 98 100
f 99 100 101
f 101 100 102
f 101 102 103
f 103 102 104
f 103 104 105
f 105 104 106
f 105 106 107
f 107 106 108
f 107 108 109
f 109 108 110
f 109 110 111
f 111 110 112
f 111 112 113
f 113 112 114
f 113 114 115
f 115 114 116
f 115 116 117
f 117 116 118
f 117 118 119
f 119 118 120
f 119 120 121
f 121 120 122
f 121 122 123
f 123 122 124
f 123 124 125
f 125 124 126
f 125 126 127
f 127 126 128
f 127 128 129
f 129 128 130
f 129 130 131
f 131 130 132
f 131 132 133
f 133 132 134
f 133 134 135
f 135 134 136
f 135 136 137
f 137 136 138
f 137 138 139
f 139 138 140
f 139 140 141
f 141 140 142
f 141 142 143
f 143 142 144
f 143 144 145
f 145 144 146
f 145 146 147
f 147 146 148
f 147 148 149
f 149 148 150
f 149 150 151
f 151 150 152
f 151 152 153
f 153 152 154
f 153 154 155
f 155 154 156
f 155 156 79
f 79 156 80
f 4 157 6
f 6 157 158
f 6 158 8
f 8 158 159
f 8 159 10
f 10 159 160
f 10 160 12
f 12 160 161
f 12 161 14
f 14 161 162
f 14 162 16
f 16 162 163
f 16 163 18
f 18 163 164
f 18 164 20
f 20 164 165
f 20 165 22
f 22 165 166
f 22 166 24
f 24 166 167
f 24 167 26
f 26 167 168
f 26 168 28
f 28 168 169
f 28 169 30
f 30 169 170
f 30 170 32
f 32 170 171
f 32 171 34
f 34 171 172
f 34 172 36
f 36 172 173
f 36 173 38
f 38 173 174
f 38 174 40
f 40 174 175
f 40 175 42
f 42 175 176
f 42 176 44
f 44 176 177
f 44 177 46
f 46 177 178
f 46 178 48
f 48 178 179
f 48 179 50
f 50 179 180
f 50 180 52
f 52 180 181
f 52 181 54
f 54 181 182
f 54 182 56
f 56 182 183
f 56 183 58
f 58 183 184
f 58 184 60
f 60 184 185
f 60 185 62
f 62 185 186
f 62 186 64
f 64 186 187
f 64 187 66
f 66 187 188
f 66 188 68
f 68 188 189
f 68 189 70
f 70 189 190
f 70 190 72
f 72 190 191
f 72 191 74
f 74 191 192
f 74 192 76
f 76 192 193
f 76 193 78
f 78 193 194
f 78 194 2
f 2 194 195
f 2 195 4
f 4 195 157
f 157 196 158
f 158 196 197
f 158 197 159
f 159 197 198
f 159 198 160
f 160 198 199
f 160 199 161
f 161 199 200
f 161 200 162
f 162 200 201
f 162 201 163
f 163 201 202
f 163 202 164
f 164 202 203
f 164 203 165
f 165 203 204
f 165 204 166
f 166 204 205
f 166 205 167
f 167 205 206
f 167 206 168
f 168 206 207
f 168 207 169
f 169 207 208
f 169 208 170
f 170 208 209
f 170 209 171
f 171 209 210
f 171 210 172
f 172 210 211
f 172 211 173
f 173 211 212
f 173 212 174
f 174 212 213
f 174 213 175
f 175 213 214
f 175 214 176
f 176 214 215
f 176 215 177
f 177 215 216
f 177 216 178
f 178 216 217
f 178 217 179
f 179 217 218
f 179 218 180
f 180 218 219
f 180 219 181
f 181 219 220
f 181 220 182
f 182 220 221
f 182 221 183
f 183 221 222
f 183 222 184
f 184 222 223
f 184 223 185
f 185 223 224
f 185 224 186
f 186 224 225
f 186 225 187
f 187 225 226
f 187 226 188
f 188 226 227
f 188 227 189
f 189 227 228
f 189 228 190
f 190 228 229
f 190 229 191
f 191 229 230
f 191 230 192
f 192 230 231
f 192 231 193
f 193 231 232
f 193 232 194
f 194 232 233
f 194 233 195
f 195 233 234
f 195 234 157
f 157 234 196
f 196 235 197
f 197 235 236
f 197 236 198
f 198 236 237
f 198 237 199
f 199 237 238
f 199 238 200
f 200 238 239
f 200 239 201
f 201 239 240
f 201 240 202
f 202 240 241
f 202 241 203
f 203 241 242
f 203 242 204
f 204 242 243
f 204 243 205
f 205 243 244
f 205 244 206
f 206 244 245
f 206 245 207
f 207 245 246
f 207 246 208
f 208 246 247
f 208 247 209
f 209 247 248
f 209 248 210
f 210 248 249
f 210 249 211
f 211 249 250
f 211 250 212
f 212 250 251
f 212 251 213
f 213 251 252
f 213 252 214
f 214 252 253
f 214 253 215
f 215 253 254
f 215 254 216
f 216 254 255
f 216 255 217
f 217 255 256
f 217 256 218
f 218 256 257
f 218 257 219
f 219 257 258
f 219 258 220
f 220 258 259
f 220 259 221
f 221 259 260
f 221 260 222
f 222 260 261
f 222 261 223
f 223 261 262
f 223 262 224
f 224 262 263
f 224 263 225
f 225 263 264
f 225 264 226
f 226 264 265
f 226 265 227
f 227 265 266
f 227 266 228
f 228 266 267
f 228 267 229
f 229 267 268
f 229 268 230
f 230 268 269
f 230 269 231
f 231 269 270
f 231 270 232
f 232 270 271
f 232 271 233
f 233 271 272
f 233 272 234
f 234 272 273
f 234 273 196
f 196 273 235
f 235 82 236
f 236 82 80
f 236 80 237
f 237 80 156
f 237 156 238
f 238 156 154
f 238 154 239
f 239 154 152
f 239 152 240
f 240 152 150
f 240 150 241
f 241 150 148
f 241 148 242
f 242 148 146
f 242 146 243
f 243 146 144
f 243 144 244
f 244 144 142
f 244 142 245
f 245 142 140
f 245 140 246
f 246 140 138
f 246 138 247
f 247 138 136
f 247 136 248
f 248 136 134
f 248 134 249
f 249 134 132
f 249 132 250
f 250 132 130
f 250 130 251
f 251 130 128
f 251 128 252
f 252 128 126
f 252 126 253
f 253 126 124
f 253 124 254
f 254 124 122
f 254 122 255
f 255 122 120
f 255 120 256
f 256 120 118
f 256 118 257
f 257 118 116
f 257 116 258
f 258 116 114
f 258 114 259
f 259 114 112
f 259 112 260
f 260 112 110
f 260 110 261
f 261 110 108
f 261 108 262
f 262 108 106
f 262 106 263
f 263 106 104
f 263 104 264
f 264 104 102
f 264 102 265
f 265 102 100
f 265 100 266
f 266 100 98
f 266 98 267
f 267 98 96
f 267 96 268
f 268 96 94
f 268 94 269
f 269 94 92
f 269 92 270
f 270 92 90
f 270 90 271
f 271 90 88
f 271 88 272
f 272 88 86
f 272 86 273
f 273 86 84
f 273 84 235
f 235 84 82
f 275 276 274
f 274 276 312
f 312 276 277
f 312 277 311
f 311 277 278
f 311 278 310
f 310 278 309
f 309 278 308
f 308 278 307
f 307 278 306
f 306 278 305
f 305 278 304
f 304 278 303
f 303 278 302
f 302 278 301
f 301 278 279
f 301 279 300
f 300 279 299
f 299 279 298
f 298 279 297
f 297 279 296
f 296 279 295
f 295 279 294
f 294 279 293
f 293 279 292
f 292 279 291
f 291 279 290
f 290 279 280
f 290 280 289
f 289 280 281
f 289 281 288
f 288 281 282
f 288 282 287
f 287 282 283
f 287 283 286
f 286 283 284
f 286 284 285
f 314 315 313
f 313 315 316
f 313 316 351
f 351 316 317
f 351 317 350
f 350 317 318
f 350 318 319
f 319 320 350
f 350 320 321
f 350 321 322
f 322 323 350
f 350 323 324
f 350 324 325
f 325 326 350
f 350 326 327
f 350 327 349
f 349 327 328
f 349 328 329
f 329 330 349
f 349 330 331
f 349 331 332
f 332 333 349
f 349 333 334
f 349 334 335
f 335 336 349
f 349 336 337
f 349 337 338
f 349 338 348
f 348 338 339
f 348 339 347
f 347 339 340
f 347 340 346
f 346 340 341
f 346 341 345
f 345 341 342
f 345 342 344
f 344 342 343

