# https://github.com/mikedh/trimesh

o Washer_1.stl
v -81.48821259 59.84770203 24.37977791
v -81.48821259 59.84770203 27.37977791
v -81.51451874 59.22011948 24.37977791
v -81.51451874 59.22011948 27.37977791
v -81.48821259 58.59253311 24.37977791
v -81.48821259 58.59253311 27.37977791
v -81.40948486 57.96935272 27.37977791
v -81.40948486 60.47088242 24.37977791
v -81.40948486 60.47088242 27.37977791
v -81.27889252 61.08529282 24.37977791
v -81.27889252 61.08529282 27.37977791
v -81.09733582 61.68661880 24.37977791
v -81.09733582 61.68661880 27.37977791
v -80.86610413 62.27064133 24.37977791
v -80.86610413 62.27064133 27.37977791
v -80.58681488 62.83327103 24.37977791
v -80.58681488 62.83327103 27.37977791
v -80.26142883 63.37055588 24.37977791
v -80.26142883 63.37055588 27.37977791
v -79.89221954 63.87872696 24.37977791
v -79.89221954 63.87872696 27.37977791
v -79.48178101 64.35422516 24.37977791
v -79.48178101 64.35422516 27.37977791
v -79.03299713 64.79370117 24.37977791
v -79.03299713 64.79370117 27.37977791
v -78.54901123 65.19409180 24.37977791
v -78.54901123 65.19409180 27.37977791
v -78.03321838 65.55257416 24.37977791
v -78.03321838 65.55257416 27.37977791
v -77.48923492 65.86664581 24.37977791
v -77.48923492 65.86664581 27.37977791
v -76.92088318 66.13409424 24.37977791
v -76.92088318 66.13409424 27.37977791
v -76.33214569 66.35304260 24.37977791
v -76.33214569 66.35304260 27.37977791
v -75.72714996 66.52195740 24.37977791
v -75.72714996 66.52195740 27.37977791
v -75.11013794 66.63966370 24.37977791
v -75.11013794 66.63966370 27.37977791
v -74.48544312 66.70532227 24.37977791
v -74.48544312 66.70532227 27.37977791
v -73.85744476 66.71847534 24.37977791
v -73.85744476 66.71847534 27.37977791
v -73.23055267 66.67903137 24.37977791
v -73.23055267 66.67903137 27.37977791
v -72.60915375 66.58727264 24.37977791
v -72.60915375 66.58727264 27.37977791
v -71.99761963 66.44384003 24.37977791
v -71.99761963 66.44384003 27.37977791
v -71.40022278 66.24973297 24.37977791
v -71.40022278 66.24973297 27.37977791
v -70.82117462 66.00632477 24.37977791
v -70.82117462 66.00632477 27.37977791
v -70.26451874 65.71530914 24.37977791
v -70.26451874 65.71530914 27.37977791
v -69.73416138 65.37873840 24.37977791
v -69.73416138 65.37873840 27.37977791
v -69.23383331 64.99897003 24.37977791
v -69.23383331 64.99897003 27.37977791
v -68.76704407 64.57866669 24.37977791
v -68.76704407 64.57866669 27.37977791
v -68.33705139 64.12077332 24.37977791
v -68.33705139 64.12077332 27.37977791
v -67.94689178 63.62850571 24.37977791
v -67.94689178 63.62850571 27.37977791
v -67.59928131 63.10531998 24.37977791
v -67.59928131 63.10531998 27.37977791
v -67.29667664 62.55488205 24.37977791
v -67.29667664 62.55488205 27.37977791
v -67.04119110 61.98105240 24.37977791
v -67.04119110 61.98105240 27.37977791
v -66.83461761 61.38785553 24.37977791
v -66.83461761 61.38785553 27.37977791
v -66.67840576 60.77945709 24.37977791
v -66.67840576 60.77945709 27.37977791
v -66.57365417 60.16011810 24.37977791
v -66.57365417 60.16011810 27.37977791
v -66.52109528 59.53418732 24.37977791
v -66.52109528 59.53418732 27.37977791
v -66.52109528 58.90605164 24.37977791
v -66.52109528 58.90605164 27.37977791
v -66.57365417 58.28011703 24.37977791
v -66.57365417 58.28011703 27.37977791
v -66.67840576 57.66078186 24.37977791
v -66.67840576 57.66078186 27.37977791
v -66.83461761 57.05237961 24.37977791
v -66.83461761 57.05237961 27.37977791
v -67.04119110 56.45918274 24.37977791
v -67.04119110 56.45918274 27.37977791
v -67.29667664 55.88535309 24.37977791
v -67.29667664 55.88535309 27.37977791
v -67.59928131 55.33491516 24.37977791
v -67.59928131 55.33491516 27.37977791
v -67.94689178 54.81172943 24.37977791
v -67.94689178 54.81172943 27.37977791
v -68.33705139 54.31946182 24.37977791
v -68.33705139 54.31946182 27.37977791
v -68.76704407 53.86157227 24.37977791
v -68.76704407 53.86157227 27.37977791
v -69.23383331 53.44126892 24.37977791
v -69.23383331 53.44126892 27.37977791
v -69.73416138 53.06150055 24.37977791
v -69.73416138 53.06150055 27.37977791
v -70.26451874 52.72492599 24.37977791
v -70.26451874 52.72492599 27.37977791
v -70.82117462 52.43391418 24.37977791
v -70.82117462 52.43391418 27.37977791
v -71.40022278 52.19050217 24.37977791
v -71.40022278 52.19050217 27.37977791
v -71.99761963 51.99639893 24.37977791
v -71.99761963 51.99639893 27.37977791
v -72.60915375 51.85296249 24.37977791
v -72.60915375 51.85296249 27.37977791
v -73.23055267 51.76120377 24.37977791
v -73.23055267 51.76120377 27.37977791
v -73.85744476 51.72176361 24.37977791
v -73.85744476 51.72176361 27.37977791
v -74.48544312 51.73491669 24.37977791
v -74.48544312 51.73491669 27.37977791
v -75.11013794 51.80057526 24.37977791
v -75.11013794 51.80057526 27.37977791
v -75.72714996 51.91827774 24.37977791
v -75.72714996 51.91827774 27.37977791
v -76.33214569 52.08719254 24.37977791
v -76.33214569 52.08719254 27.37977791
v -76.92088318 52.30614471 24.37977791
v -76.92088318 52.30614471 27.37977791
v -77.48923492 52.57359314 24.37977791
v -77.48923492 52.57359314 27.37977791
v -78.03321838 52.88765717 24.37977791
v -78.03321838 52.88765717 27.37977791
v -78.54901123 53.24614334 24.37977791
v -78.54901123 53.24614334 27.37977791
v -79.03299713 53.64653015 24.37977791
v -79.03299713 53.64653015 27.37977791
v -79.48178101 54.08601379 24.37977791
v -79.48178101 54.08601379 27.37977791
v -79.89221954 54.56150818 24.37977791
v -79.89221954 54.56150818 27.37977791
v -80.26142883 55.06968307 24.37977791
v -80.26142883 55.06968307 27.37977791
v -80.58681488 55.60696411 24.37977791
v -80.58681488 55.60696411 27.37977791
v -80.86610413 56.16959381 24.37977791
v -80.86610413 56.16959381 27.37977791
v -81.09733582 56.75361633 24.37977791
v -81.09733582 56.75361633 27.37977791
v -81.27889252 57.35494232 24.37977791
v -81.27889252 57.35494232 27.37977791
v -81.40948486 57.96935272 24.37977791
v -85.11465454 62.19335175 27.37977791
v -85.51451874 62.22011948 27.37977791
v -85.51451874 60.72011948 25.87977791
v -85.91437531 62.19335175 27.37977791
v -85.79013824 60.69457626 25.87977791
v -86.30709839 62.11352539 27.37977791
v -86.05638123 60.61882782 25.87977791
v -86.68568420 61.98206711 27.37977791
v -86.30416107 60.49544525 25.87977791
v -87.04336548 61.80132294 27.37977791
v -87.37376404 61.57451630 27.37977791
v -86.52506256 60.32863235 25.87977791
v -87.67098999 61.30569458 27.37977791
v -86.71154022 60.12406921 25.87977791
v -87.92972565 60.99965668 27.37977791
v -88.14536285 60.66186523 27.37977791
v -86.85726166 59.88872528 25.87977791
v -88.31405640 60.29833984 27.37977791
v -86.95725250 59.63061142 25.87977791
v -88.43279266 59.91557693 27.37977791
v -87.00811768 59.35852051 25.87977791
v -88.49945068 59.52040482 27.37977791
v -88.51284027 59.11987305 27.37977791
v -87.00811768 59.08171463 25.87977791
v -88.47272491 58.72113037 27.37977791
v -86.95725250 58.80962372 25.87977791
v -88.37982178 58.33129120 27.37977791
v -88.23578644 57.95731354 27.37977791
v -86.85726166 58.55150986 25.87977791
v -88.04319000 57.60586929 27.37977791
v -86.71154022 58.31616592 25.87977791
v -87.80547333 57.28323364 27.37977791
v -86.52506256 58.11160660 25.87977791
v -87.52687073 56.99516296 27.37977791
v -87.21235657 56.74679184 27.37977791
v -86.30416107 57.94479370 25.87977791
v -86.86754608 56.54256058 27.37977791
v -86.05638123 57.82141113 25.87977791
v -86.49858856 56.38611221 27.37977791
v -85.79013824 57.74565887 25.87977791
v -86.11207581 56.28023148 27.37977791
v -85.71489716 56.22681808 27.37977791
v -85.51451874 57.72011948 25.87977791
v -85.31414032 56.22681808 27.37977791
v -85.23889160 57.74565887 25.87977791
v -84.91695404 56.28023148 27.37977791
v -84.53044128 56.38611221 27.37977791
v -84.97265625 57.82141113 25.87977791
v -84.16148376 56.54256058 27.37977791
v -84.72486877 57.94479370 25.87977791
v -83.81667328 56.74679184 27.37977791
v -84.50397491 58.11160660 25.87977791
v -83.50215912 56.99516296 27.37977791
v -83.22355652 57.28323364 27.37977791
v -84.31748962 58.31616592 25.87977791
v -82.98583984 57.60586929 27.37977791
v -84.17176819 58.55150986 25.87977791
v -82.79324341 57.95731354 27.37977791
v -84.07177734 58.80962372 25.87977791
v -82.64920807 58.33129120 27.37977791
v -82.55630493 58.72113037 27.37977791
v -84.02091217 59.08171463 25.87977791
v -82.51618958 59.11987305 27.37977791
v -84.02091217 59.35852051 25.87977791
v -82.52957916 59.52040482 27.37977791
v -82.59623718 59.91557693 27.37977791
v -84.07177734 59.63061142 25.87977791
v -82.71497345 60.29833984 27.37977791
v -84.17176819 59.88872528 25.87977791
v -82.88366699 60.66186523 27.37977791
v -84.31748962 60.12406921 25.87977791
v -83.09930420 60.99965668 27.37977791
v -83.35804749 61.30569458 27.37977791
v -84.50397491 60.32863235 25.87977791
v -83.65526581 61.57451630 27.37977791
v -84.72486877 60.49544525 25.87977791
v -83.98566437 61.80132294 27.37977791
v -84.34334564 61.98206711 27.37977791
v -84.97265625 60.61882782 25.87977791
v -84.72193146 62.11352539 27.37977791
v -85.23889160 60.69457626 25.87977791
v -85.51451874 60.72011948 25.87977791
v -85.79013824 60.69457626 25.87977791
v -86.05638123 60.61882782 25.87977791
v -86.30416107 60.49544525 25.87977791
v -86.52506256 60.32863235 25.87977791
v -86.71154022 60.12406921 25.87977791
v -86.85726166 59.88872528 25.87977791
v -86.95725250 59.63061142 25.87977791
v -87.00811768 59.35852051 25.87977791
v -87.00811768 59.08171463 25.87977791
v -86.95725250 58.80962372 25.87977791
v -86.85726166 58.55150986 25.87977791
v -86.71154022 58.31616592 25.87977791
v -86.52506256 58.11160660 25.87977791
v -86.30416107 57.94479370 25.87977791
v -86.05638123 57.82141113 25.87977791
v -85.79013824 57.74565887 25.87977791
v -85.51451874 57.72011948 25.87977791
v -85.23889160 57.74565887 25.87977791
v -84.97265625 57.82141113 25.87977791
v -84.72486877 57.94479370 25.87977791
v -84.50397491 58.11160660 25.87977791
v -84.31748962 58.31616592 25.87977791
v -84.17176819 58.55150986 25.87977791
v -84.07177734 58.80962372 25.87977791
v -84.02091217 59.08171463 25.87977791
v -84.02091217 59.35852051 25.87977791
v -84.07177734 59.63061142 25.87977791
v -84.17176819 59.88872528 25.87977791
v -84.31748962 60.12406921 25.87977791
v -84.50397491 60.32863235 25.87977791
v -84.72486877 60.49544525 25.87977791
v -84.97265625 60.61882782 25.87977791
v -85.23889160 60.69457626 25.87977791
v -85.79013824 60.69457626 24.37977791
v -85.51451874 60.72011948 24.37977791
v -85.23889160 60.69457626 24.37977791
v -84.97265625 60.61882782 24.37977791
v -84.72486877 60.49544525 24.37977791
v -84.50397491 60.32863235 24.37977791
v -84.31748962 60.12406921 24.37977791
v -84.17176819 59.88872528 24.37977791
v -84.07177734 59.63061142 24.37977791
v -84.02091217 59.35852051 24.37977791
v -84.02091217 59.08171463 24.37977791
v -84.07177734 58.80962372 24.37977791
v -84.17176819 58.55150986 24.37977791
v -84.31748962 58.31616592 24.37977791
v -84.50397491 58.11160660 24.37977791
v -84.72486877 57.94479370 24.37977791
v -84.97265625 57.82141113 24.37977791
v -85.23889160 57.74565887 24.37977791
v -85.51451874 57.72011948 24.37977791
v -85.79013824 57.74565887 24.37977791
v -86.05638123 57.82141113 24.37977791
v -86.30416107 57.94479370 24.37977791
v -86.52506256 58.11160660 24.37977791
v -86.71154022 58.31616592 24.37977791
v -86.85726166 58.55150986 24.37977791
v -86.95725250 58.80962372 24.37977791
v -87.00811768 59.08171463 24.37977791
v -87.00811768 59.35852051 24.37977791
v -86.95725250 59.63061142 24.37977791
v -86.85726166 59.88872528 24.37977791
v -86.71154022 60.12406921 24.37977791
v -86.52506256 60.32863235 24.37977791
v -86.30416107 60.49544525 24.37977791
v -86.05638123 60.61882782 24.37977791
v -62.11465454 62.19335175 27.37977791
v -62.51451492 62.22011948 27.37977791
v -62.51451492 60.72011948 25.87977791
v -62.91437531 62.19335175 27.37977791
v -62.79013824 60.69457626 25.87977791
v -63.30710220 62.11352539 27.37977791
v -63.05637741 60.61882782 25.87977791
v -63.68568420 61.98206711 27.37977791
v -63.30416489 60.49544525 25.87977791
v -64.04336548 61.80132294 27.37977791
v -64.37376404 61.57451630 27.37977791
v -63.52505875 60.32863235 25.87977791
v -64.67098999 61.30569458 27.37977791
v -63.71154022 60.12406921 25.87977791
v -64.92972565 60.99965668 27.37977791
v -65.14536285 60.66186523 27.37977791
v -63.85726166 59.88872528 25.87977791
v -65.31405640 60.29833984 27.37977791
v -63.95725250 59.63061142 25.87977791
v -65.43279266 59.91557693 27.37977791
v -64.00811768 59.35852051 25.87977791
v -65.49945068 59.52040482 27.37977791
v -65.51284027 59.11987305 27.37977791
v -64.00811768 59.08171463 25.87977791
v -65.47272491 58.72113037 27.37977791
v -63.95725250 58.80962372 25.87977791
v -65.37982178 58.33129120 27.37977791
v -65.23578644 57.95731354 27.37977791
v -63.85726166 58.55150986 25.87977791
v -65.04319000 57.60586929 27.37977791
v -63.71154022 58.31616592 25.87977791
v -64.80547333 57.28323364 27.37977791
v -63.52505875 58.11160660 25.87977791
v -64.52687073 56.99516296 27.37977791
v -64.21235657 56.74679184 27.37977791
v -63.30416489 57.94479370 25.87977791
v -63.86754608 56.54256058 27.37977791
v -63.05637741 57.82141113 25.87977791
v -63.49858856 56.38611221 27.37977791
v -62.79013824 57.74565887 25.87977791
v -63.11207199 56.28023148 27.37977791
v -62.71489334 56.22681808 27.37977791
v -62.51451492 57.72011948 25.87977791
v -62.31413651 56.22681808 27.37977791
v -62.23889160 57.74565887 25.87977791
v -61.91695786 56.28023148 27.37977791
v -61.53044128 56.38611221 27.37977791
v -61.97265244 57.82141113 25.87977791
v -61.16148376 56.54256058 27.37977791
v -61.72486877 57.94479370 25.87977791
v -60.81667328 56.74679184 27.37977791
v -61.50397110 58.11160660 25.87977791
v -60.50216293 56.99516296 27.37977791
v -60.22356033 57.28323364 27.37977791
v -61.31748962 58.31616592 25.87977791
v -59.98583984 57.60586929 27.37977791
v -61.17177200 58.55150986 25.87977791
v -59.79324341 57.95731354 27.37977791
v -61.07177734 58.80962372 25.87977791
v -59.64920807 58.33129120 27.37977791
v -59.55630493 58.72113037 27.37977791
v -61.02091599 59.08171463 25.87977791
v -59.51618958 59.11987305 27.37977791
v -61.02091599 59.35852051 25.87977791
v -59.52958298 59.52040482 27.37977791
v -59.59624100 59.91557693 27.37977791
v -61.07177734 59.63061142 25.87977791
v -59.71497345 60.29833984 27.37977791
v -61.17177200 59.88872528 25.87977791
v -59.88366699 60.66186523 27.37977791
v -61.31748962 60.12406921 25.87977791
v -60.09930420 60.99965668 27.37977791
v -60.35804367 61.30569458 27.37977791
v -61.50397110 60.32863235 25.87977791
v -60.65526581 61.57451630 27.37977791
v -61.72486877 60.49544525 25.87977791
v -60.98566437 61.80132294 27.37977791
v -61.34334946 61.98206711 27.37977791
v -61.97265244 60.61882782 25.87977791
v -61.72192764 62.11352539 27.37977791
v -62.23889160 60.69457626 25.87977791
v -62.51451492 60.72011948 25.87977791
v -62.79013824 60.69457626 25.87977791
v -63.05637741 60.61882782 25.87977791
v -63.30416489 60.49544525 25.87977791
v -63.52505875 60.32863235 25.87977791
v -63.71154022 60.12406921 25.87977791
v -63.85726166 59.88872528 25.87977791
v -63.95725250 59.63061142 25.87977791
v -64.00811768 59.35852051 25.87977791
v -64.00811768 59.08171463 25.87977791
v -63.95725250 58.80962372 25.87977791
v -63.85726166 58.55150986 25.87977791
v -63.71154022 58.31616592 25.87977791
v -63.52505875 58.11160660 25.87977791
v -63.30416489 57.94479370 25.87977791
v -63.05637741 57.82141113 25.87977791
v -62.79013824 57.74565887 25.87977791
v -62.51451492 57.72011948 25.87977791
v -62.23889160 57.74565887 25.87977791
v -61.97265244 57.82141113 25.87977791
v -61.72486877 57.94479370 25.87977791
v -61.50397110 58.11160660 25.87977791
v -61.31748962 58.31616592 25.87977791
v -61.17177200 58.55150986 25.87977791
v -61.07177734 58.80962372 25.87977791
v -61.02091599 59.08171463 25.87977791
v -61.02091599 59.35852051 25.87977791
v -61.07177734 59.63061142 25.87977791
v -61.17177200 59.88872528 25.87977791
v -61.31748962 60.12406921 25.87977791
v -61.50397110 60.32863235 25.87977791
v -61.72486877 60.49544525 25.87977791
v -61.97265244 60.61882782 25.87977791
v -62.23889160 60.69457626 25.87977791
v -62.79013824 60.69457626 24.37977791
v -62.51451492 60.72011948 24.37977791
v -62.23889160 60.69457626 24.37977791
v -61.97265244 60.61882782 24.37977791
v -61.72486877 60.49544525 24.37977791
v -61.50397110 60.32863235 24.37977791
v -61.31748962 60.12406921 24.37977791
v -61.17177200 59.88872528 24.37977791
v -61.07177734 59.63061142 24.37977791
v -61.02091599 59.35852051 24.37977791
v -61.02091599 59.08171463 24.37977791
v -61.07177734 58.80962372 24.37977791
v -61.17177200 58.55150986 24.37977791
v -61.31748962 58.31616592 24.37977791
v -61.50397110 58.11160660 24.37977791
v -61.72486877 57.94479370 24.37977791
v -61.97265244 57.82141113 24.37977791
v -62.23889160 57.74565887 24.37977791
v -62.51451492 57.72011948 24.37977791
v -62.79013824 57.74565887 24.37977791
v -63.05637741 57.82141113 24.37977791
v -63.30416489 57.94479370 24.37977791
v -63.52505875 58.11160660 24.37977791
v -63.71154022 58.31616592 24.37977791
v -63.85726166 58.55150986 24.37977791
v -63.95725250 58.80962372 24.37977791
v -64.00811768 59.08171463 24.37977791
v -64.00811768 59.35852051 24.37977791
v -63.95725250 59.63061142 24.37977791
v -63.85726166 59.88872528 24.37977791
v -63.71154022 60.12406921 24.37977791
v -63.52505875 60.32863235 24.37977791
v -63.30416489 60.49544525 24.37977791
v -63.05637741 60.61882782 24.37977791
v -73.61465454 50.69335175 27.37977791
v -74.01451874 50.72011948 27.37977791
v -74.01451874 49.22011948 25.87977791
v -74.41437531 50.69335175 27.37977791
v -74.29013824 49.19457626 25.87977791
v -74.80709839 50.61352539 27.37977791
v -74.55638123 49.11882782 25.87977791
v -75.18568420 50.48206711 27.37977791
v -74.80416107 48.99544525 25.87977791
v -75.54336548 50.30132294 27.37977791
v -75.87376404 50.07451630 27.37977791
v -75.02506256 48.82863235 25.87977791
v -76.17098999 49.80569458 27.37977791
v -75.21154022 48.62406921 25.87977791
v -76.42972565 49.49965668 27.37977791
v -76.64536285 49.16186523 27.37977791
v -75.35726166 48.38872528 25.87977791
v -76.81405640 48.79833984 27.37977791
v -75.45725250 48.13061142 25.87977791
v -76.93279266 48.41557693 27.37977791
v -75.50811768 47.85852051 25.87977791
v -76.99945068 48.02040482 27.37977791
v -77.01284027 47.61987305 27.37977791
v -75.50811768 47.58171463 25.87977791
v -76.97272491 47.22113037 27.37977791
v -75.45725250 47.30962372 25.87977791
v -76.87982178 46.83129120 27.37977791
v -76.73578644 46.45731354 27.37977791
v -75.35726166 47.05150986 25.87977791
v -76.54319000 46.10586929 27.37977791
v -75.21154022 46.81616592 25.87977791
v -76.30547333 45.78323364 27.37977791
v -75.02506256 46.61160660 25.87977791
v -76.02687073 45.49516296 27.37977791
v -75.71235657 45.24679184 27.37977791
v -74.80416107 46.44479370 25.87977791
v -75.36754608 45.04256058 27.37977791
v -74.55638123 46.32141113 25.87977791
v -74.99858856 44.88611221 27.37977791
v -74.29013824 46.24565887 25.87977791
v -74.61207581 44.78023148 27.37977791
v -74.21489716 44.72681808 27.37977791
v -74.01451874 46.22011948 25.87977791
v -73.81414032 44.72681808 27.37977791
v -73.73889160 46.24565887 25.87977791
v -73.41695404 44.78023148 27.37977791
v -73.03044128 44.88611221 27.37977791
v -73.47265625 46.32141113 25.87977791
v -72.66148376 45.04256058 27.37977791
v -73.22486877 46.44479370 25.87977791
v -72.31667328 45.24679184 27.37977791
v -73.00397491 46.61160660 25.87977791
v -72.00215912 45.49516296 27.37977791
v -71.72355652 45.78323364 27.37977791
v -72.81748962 46.81616592 25.87977791
v -71.48583984 46.10586929 27.37977791
v -72.67176819 47.05150986 25.87977791
v -71.29324341 46.45731354 27.37977791
v -72.57177734 47.30962372 25.87977791
v -71.14920807 46.83129120 27.37977791
v -71.05630493 47.22113037 27.37977791
v -72.52091217 47.58171463 25.87977791
v -71.01618958 47.61987305 27.37977791
v -72.52091217 47.85852051 25.87977791
v -71.02957916 48.02040482 27.37977791
v -71.09623718 48.41557693 27.37977791
v -72.57177734 48.13061142 25.87977791
v -71.21497345 48.79833984 27.37977791
v -72.67176819 48.38872528 25.87977791
v -71.38366699 49.16186523 27.37977791
v -72.81748962 48.62406921 25.87977791
v -71.59930420 49.49965668 27.37977791
v -71.85804749 49.80569458 27.37977791
v -73.00397491 48.82863235 25.87977791
v -72.15526581 50.07451630 27.37977791
v -73.22486877 48.99544525 25.87977791
v -72.48566437 50.30132294 27.37977791
v -72.84334564 50.48206711 27.37977791
v -73.47265625 49.11882782 25.87977791
v -73.22193146 50.61352539 27.37977791
v -73.73889160 49.19457626 25.87977791
v -74.01451874 49.22011948 25.87977791
v -74.29013824 49.19457626 25.87977791
v -74.55638123 49.11882782 25.87977791
v -74.80416107 48.99544525 25.87977791
v -75.02506256 48.82863235 25.87977791
v -75.21154022 48.62406921 25.87977791
v -75.35726166 48.38872528 25.87977791
v -75.45725250 48.13061142 25.87977791
v -75.50811768 47.85852051 25.87977791
v -75.50811768 47.58171463 25.87977791
v -75.45725250 47.30962372 25.87977791
v -75.35726166 47.05150986 25.87977791
v -75.21154022 46.81616592 25.87977791
v -75.02506256 46.61160660 25.87977791
v -74.80416107 46.44479370 25.87977791
v -74.55638123 46.32141113 25.87977791
v -74.29013824 46.24565887 25.87977791
v -74.01451874 46.22011948 25.87977791
v -73.73889160 46.24565887 25.87977791
v -73.47265625 46.32141113 25.87977791
v -73.22486877 46.44479370 25.87977791
v -73.00397491 46.61160660 25.87977791
v -72.81748962 46.81616592 25.87977791
v -72.67176819 47.05150986 25.87977791
v -72.57177734 47.30962372 25.87977791
v -72.52091217 47.58171463 25.87977791
v -72.52091217 47.85852051 25.87977791
v -72.57177734 48.13061142 25.87977791
v -72.67176819 48.38872528 25.87977791
v -72.81748962 48.62406921 25.87977791
v -73.00397491 48.82863235 25.87977791
v -73.22486877 48.99544525 25.87977791
v -73.47265625 49.11882782 25.87977791
v -73.73889160 49.19457626 25.87977791
v -74.29013824 49.19457626 24.37977791
v -74.01451874 49.22011948 24.37977791
v -73.73889160 49.19457626 24.37977791
v -73.47265625 49.11882782 24.37977791
v -73.22486877 48.99544525 24.37977791
v -73.00397491 48.82863235 24.37977791
v -72.81748962 48.62406921 24.37977791
v -72.67176819 48.38872528 24.37977791
v -72.57177734 48.13061142 24.37977791
v -72.52091217 47.85852051 24.37977791
v -72.52091217 47.58171463 24.37977791
v -72.57177734 47.30962372 24.37977791
v -72.67176819 47.05150986 24.37977791
v -72.81748962 46.81616592 24.37977791
v -73.00397491 46.61160660 24.37977791
v -73.22486877 46.44479370 24.37977791
v -73.47265625 46.32141113 24.37977791
v -73.73889160 46.24565887 24.37977791
v -74.01451874 46.22011948 24.37977791
v -74.29013824 46.24565887 24.37977791
v -74.55638123 46.32141113 24.37977791
v -74.80416107 46.44479370 24.37977791
v -75.02506256 46.61160660 24.37977791
v -75.21154022 46.81616592 24.37977791
v -75.35726166 47.05150986 24.37977791
v -75.45725250 47.30962372 24.37977791
v -75.50811768 47.58171463 24.37977791
v -75.50811768 47.85852051 24.37977791
v -75.45725250 48.13061142 24.37977791
v -75.35726166 48.38872528 24.37977791
v -75.21154022 48.62406921 24.37977791
v -75.02506256 48.82863235 24.37977791
v -74.80416107 48.99544525 24.37977791
v -74.55638123 49.11882782 24.37977791
v -73.61465454 73.69335175 27.37977791
v -74.01451874 73.72011566 27.37977791
v -74.01451874 72.22011566 25.87977791
v -74.41437531 73.69335175 27.37977791
v -74.29013824 72.19458008 25.87977791
v -74.80709839 73.61352539 27.37977791
v -74.55638123 72.11882782 25.87977791
v -75.18568420 73.48207092 27.37977791
v -74.80416107 71.99544525 25.87977791
v -75.54336548 73.30132294 27.37977791
v -75.87376404 73.07451630 27.37977791
v -75.02506256 71.82862854 25.87977791
v -76.17098999 72.80569458 27.37977791
v -75.21154022 71.62406921 25.87977791
v -76.42972565 72.49965668 27.37977791
v -76.64536285 72.16186523 27.37977791
v -75.35726166 71.38872528 25.87977791
v -76.81405640 71.79833984 27.37977791
v -75.45725250 71.13061523 25.87977791
v -76.93279266 71.41558075 27.37977791
v -75.50811768 70.85852051 25.87977791
v -76.99945068 71.02040863 27.37977791
v -77.01284027 70.61987305 27.37977791
v -75.50811768 70.58171844 25.87977791
v -76.97272491 70.22113037 27.37977791
v -75.45725250 70.30962372 25.87977791
v -76.87982178 69.83129120 27.37977791
v -76.73578644 69.45731354 27.37977791
v -75.35726166 70.05151367 25.87977791
v -76.54319000 69.10587311 27.37977791
v -75.21154022 69.81616974 25.87977791
v -76.30547333 68.78323364 27.37977791
v -75.02506256 69.61160278 25.87977791
v -76.02687073 68.49516296 27.37977791
v -75.71235657 68.24679565 27.37977791
v -74.80416107 69.44479370 25.87977791
v -75.36754608 68.04256439 27.37977791
v -74.55638123 69.32141113 25.87977791
v -74.99858856 67.88610840 27.37977791
v -74.29013824 69.24565887 25.87977791
v -74.61207581 67.78023529 27.37977791
v -74.21489716 67.72681427 27.37977791
v -74.01451874 69.22011566 25.87977791
v -73.81414032 67.72681427 27.37977791
v -73.73889160 69.24565887 25.87977791
v -73.41695404 67.78023529 27.37977791
v -73.03044128 67.88610840 27.37977791
v -73.47265625 69.32141113 25.87977791
v -72.66148376 68.04256439 27.37977791
v -73.22486877 69.44479370 25.87977791
v -72.31667328 68.24679565 27.37977791
v -73.00397491 69.61160278 25.87977791
v -72.00215912 68.49516296 27.37977791
v -71.72355652 68.78323364 27.37977791
v -72.81748962 69.81616974 25.87977791
v -71.48583984 69.10587311 27.37977791
v -72.67176819 70.05151367 25.87977791
v -71.29324341 69.45731354 27.37977791
v -72.57177734 70.30962372 25.87977791
v -71.14920807 69.83129120 27.37977791
v -71.05630493 70.22113037 27.37977791
v -72.52091217 70.58171844 25.87977791
v -71.01618958 70.61987305 27.37977791
v -72.52091217 70.85852051 25.87977791
v -71.02957916 71.02040863 27.37977791
v -71.09623718 71.41558075 27.37977791
v -72.57177734 71.13061523 25.87977791
v -71.21497345 71.79833984 27.37977791
v -72.67176819 71.38872528 25.87977791
v -71.38366699 72.16186523 27.37977791
v -72.81748962 71.62406921 25.87977791
v -71.59930420 72.49965668 27.37977791
v -71.85804749 72.80569458 27.37977791
v -73.00397491 71.82862854 25.87977791
v -72.15526581 73.07451630 27.37977791
v -73.22486877 71.99544525 25.87977791
v -72.48566437 73.30132294 27.37977791
v -72.84334564 73.48207092 27.37977791
v -73.47265625 72.11882782 25.87977791
v -73.22193146 73.61352539 27.37977791
v -73.73889160 72.19458008 25.87977791
v -74.01451874 72.22011566 25.87977791
v -74.29013824 72.19458008 25.87977791
v -74.55638123 72.11882782 25.87977791
v -74.80416107 71.99544525 25.87977791
v -75.02506256 71.82862854 25.87977791
v -75.21154022 71.62406921 25.87977791
v -75.35726166 71.38872528 25.87977791
v -75.45725250 71.13061523 25.87977791
v -75.50811768 70.85852051 25.87977791
v -75.50811768 70.58171844 25.87977791
v -75.45725250 70.30962372 25.87977791
v -75.35726166 70.05151367 25.87977791
v -75.21154022 69.81616974 25.87977791
v -75.02506256 69.61160278 25.87977791
v -74.80416107 69.44479370 25.87977791
v -74.55638123 69.32141113 25.87977791
v -74.29013824 69.24565887 25.87977791
v -74.01451874 69.22011566 25.87977791
v -73.73889160 69.24565887 25.87977791
v -73.47265625 69.32141113 25.87977791
v -73.22486877 69.44479370 25.87977791
v -73.00397491 69.61160278 25.87977791
v -72.81748962 69.81616974 25.87977791
v -72.67176819 70.05151367 25.87977791
v -72.57177734 70.30962372 25.87977791
v -72.52091217 70.58171844 25.87977791
v -72.52091217 70.85852051 25.87977791
v -72.57177734 71.13061523 25.87977791
v -72.67176819 71.38872528 25.87977791
v -72.81748962 71.62406921 25.87977791
v -73.00397491 71.82862854 25.87977791
v -73.22486877 71.99544525 25.87977791
v -73.47265625 72.11882782 25.87977791
v -73.73889160 72.19458008 25.87977791
v -74.29013824 72.19458008 24.37977791
v -74.01451874 72.22011566 24.37977791
v -73.73889160 72.19458008 24.37977791
v -73.47265625 72.11882782 24.37977791
v -73.22486877 71.99544525 24.37977791
v -73.00397491 71.82862854 24.37977791
v -72.81748962 71.62406921 24.37977791
v -72.67176819 71.38872528 24.37977791
v -72.57177734 71.13061523 24.37977791
v -72.52091217 70.85852051 24.37977791
v -72.52091217 70.58171844 24.37977791
v -72.57177734 70.30962372 24.37977791
v -72.67176819 70.05151367 24.37977791
v -72.81748962 69.81616974 24.37977791
v -73.00397491 69.61160278 24.37977791
v -73.22486877 69.44479370 24.37977791
v -73.47265625 69.32141113 24.37977791
v -73.73889160 69.24565887 24.37977791
v -74.01451874 69.22011566 24.37977791
v -74.29013824 69.24565887 24.37977791
v -74.55638123 69.32141113 24.37977791
v -74.80416107 69.44479370 24.37977791
v -75.02506256 69.61160278 24.37977791
v -75.21154022 69.81616974 24.37977791
v -75.35726166 70.05151367 24.37977791
v -75.45725250 70.30962372 24.37977791
v -75.50811768 70.58171844 24.37977791
v -75.50811768 70.85852051 24.37977791
v -75.45725250 71.13061523 24.37977791
v -75.35726166 71.38872528 24.37977791
v -75.21154022 71.62406921 24.37977791
v -75.02506256 71.82862854 24.37977791
v -74.80416107 71.99544525 24.37977791
v -74.55638123 72.11882782 24.37977791
v -88.98767090 60.11717987 27.37977791
v -88.98767090 60.11717987 24.37977791
v -89.01451874 59.22011948 27.37977791
v -89.01451874 59.22011948 24.37977791
v -88.98767090 58.32305527 27.37977791
v -88.98767090 58.32305527 24.37977791
v -88.90721893 57.42920303 27.37977791
v -88.90721893 57.42920303 24.37977791
v -88.77346039 56.54176331 27.37977791
v -88.77346039 56.54176331 24.37977791
v -88.58686829 55.66391373 27.37977791
v -88.58686829 55.66391373 24.37977791
v -88.34810638 54.79878998 27.37977791
v -88.34810638 54.79878998 24.37977791
v -88.05803680 53.94949722 27.37977791
v -88.05803680 53.94949722 24.37977791
v -87.71769714 53.11906815 27.37977791
v -87.71769714 53.11906815 24.37977791
v -87.32830048 52.31048203 27.37977791
v -87.32830048 52.31048203 24.37977791
v -86.89125061 51.52663040 27.37977791
v -86.89125061 51.52663040 24.37977791
v -86.40809631 50.77031708 27.37977791
v -86.40809631 50.77031708 24.37977791
v -85.88058472 50.04425430 27.37977791
v -85.88058472 50.04425430 24.37977791
v -85.31058502 49.35103607 27.37977791
v -85.31058502 49.35103607 24.37977791
v -84.70015717 48.69314957 27.37977791
v -84.70015717 48.69314957 24.37977791
v -84.05147552 48.07294464 27.37977791
v -84.05147552 48.07294464 24.37977791
v -83.36685944 47.49264526 27.37977791
v -83.36685944 47.49264526 24.37977791
v -82.64877319 46.95432663 27.37977791
v -82.64877319 46.95432663 24.37977791
v -81.89977264 46.45991898 27.37977791
v -81.89977264 46.45991898 24.37977791
v -81.12254333 46.01118469 27.37977791
v -81.12254333 46.01118469 24.37977791
v -80.31987762 45.60973740 27.37977791
v -80.31987762 45.60973740 24.37977791
v -79.49462891 45.25701141 27.37977791
v -79.49462891 45.25701141 24.37977791
v -78.64977264 44.95426941 27.37977791
v -78.64977264 44.95426941 24.37977791
v -77.78831482 44.70259857 27.37977791
v -77.78831482 44.70259857 24.37977791
v -76.91335297 44.50289154 27.37977791
v -76.91335297 44.50289154 24.37977791
v -76.02801514 44.35587311 27.37977791
v -76.02801514 44.35587311 24.37977791
v -75.13546753 44.26206207 27.37977791
v -75.13546753 44.26206207 24.37977791
v -74.23890686 44.22179794 27.37977791
v -74.23890686 44.22179794 24.37977791
v -73.34154510 44.23522186 27.37977791
v -73.34154510 44.23522186 24.37977791
v -72.44658661 44.30228806 27.37977791
v -72.44658661 44.30228806 24.37977791
v -71.55724335 44.42276001 27.37977791
v -71.55724335 44.42276001 24.37977791
v -70.67670441 44.59619904 27.37977791
v -70.67670441 44.59619904 24.37977791
v -69.80810547 44.82199097 27.37977791
v -69.80810547 44.82199097 24.37977791
v -68.95456696 45.09931946 27.37977791
v -68.95456696 45.09931946 24.37977791
v -68.11914062 45.42720032 27.37977791
v -68.11914062 45.42720032 24.37977791
v -67.30481720 45.80445862 27.37977791
v -67.30481720 45.80445862 24.37977791
v -66.51451874 46.22973633 27.37977791
v -66.51451874 46.22973633 24.37977791
v -65.75106049 46.70151901 27.37977791
v -65.75106049 46.70151901 24.37977791
v -65.01718903 47.21811676 27.37977791
v -65.01718903 47.21811676 24.37977791
v -64.31552124 47.77767563 27.37977791
v -64.31552124 47.77767563 24.37977791
v -63.64857483 48.37819672 27.37977791
v -63.64857483 48.37819672 24.37977791
v -63.01873779 49.01752853 27.37977791
v -63.01873779 49.01752853 24.37977791
v -62.42826080 49.69338226 27.37977791
v -62.42826080 49.69338226 24.37977791
v -61.87926102 50.40333939 27.37977791
v -61.87926102 50.40333939 24.37977791
v -61.37370300 51.14485931 27.37977791
v -61.37370300 51.14485931 24.37977791
v -60.91339111 51.91528702 27.37977791
v -60.91339111 51.91528702 24.37977791
v -60.49998093 52.71186066 27.37977791
v -60.49998093 52.71186066 24.37977791
v -60.13495255 53.53173447 27.37977791
v -60.13495255 53.53173447 24.37977791
v -59.81960678 54.37197495 27.37977791
v -59.81960678 54.37197495 24.37977791
v -59.55507278 55.22956467 27.37977791
v -59.55507278 55.22956467 24.37977791
v -59.34230042 56.10144424 27.37977791
v -59.34230042 56.10144424 24.37977791
v -59.18205261 56.98448563 27.37977791
v -59.18205261 56.98448563 24.37977791
v -59.07490158 57.87553024 27.37977791
v -59.07490158 57.87553024 24.37977791
v -59.02122879 58.77138519 27.37977791
v -59.02122879 58.77138519 24.37977791
v -59.02122879 59.66884995 27.37977791
v -59.02122879 59.66884995 24.37977791
v -59.07490158 60.56470871 27.37977791
v -59.07490158 60.56470871 24.37977791
v -59.18205261 61.45575333 27.37977791
v -59.18205261 61.45575333 24.37977791
v -59.34230042 62.33879471 27.37977791
v -59.34230042 62.33879471 24.37977791
v -59.55507278 63.21067047 27.37977791
v -59.55507278 63.21067047 24.37977791
v -59.81960678 64.06826019 27.37977791
v -59.81960678 64.06826019 24.37977791
v -60.13495255 64.90850067 27.37977791
v -60.13495255 64.90850067 24.37977791
v -60.49998093 65.72837067 27.37977791
v -60.49998093 65.72837067 24.37977791
v -60.91339111 66.52494812 27.37977791
v -60.91339111 66.52494812 24.37977791
v -61.37370300 67.29537964 27.37977791
v -61.37370300 67.29537964 24.37977791
v -61.87926102 68.03689575 27.37977791
v -61.87926102 68.03689575 24.37977791
v -62.42826080 68.74685669 27.37977791
v -62.42826080 68.74685669 24.37977791
v -63.01873779 69.42270660 27.37977791
v -63.01873779 69.42270660 24.37977791
v -63.64857483 70.06204224 27.37977791
v -63.64857483 70.06204224 24.37977791
v -64.31552124 70.66255951 27.37977791
v -64.31552124 70.66255951 24.37977791
v -65.01718903 71.22212219 27.37977791
v -65.01718903 71.22212219 24.37977791
v -65.75106049 71.73871613 27.37977791
v -65.75106049 71.73871613 24.37977791
v -66.51451874 72.21050262 27.37977791
v -66.51451874 72.21050262 24.37977791
v -67.30481720 72.63578033 27.37977791
v -67.30481720 72.63578033 24.37977791
v -68.11914062 73.01303101 27.37977791
v -68.11914062 73.01303101 24.37977791
v -68.95456696 73.34091187 27.37977791
v -68.95456696 73.34091187 24.37977791
v -69.80810547 73.61824799 27.37977791
v -69.80810547 73.61824799 24.37977791
v -70.67670441 73.84403992 27.37977791
v -70.67670441 73.84403992 24.37977791
v -71.55724335 74.01747894 27.37977791
v -71.55724335 74.01747894 24.37977791
v -72.44658661 74.13794708 27.37977791
v -72.44658661 74.13794708 24.37977791
v -73.34154510 74.20501709 27.37977791
v -73.34154510 74.20501709 24.37977791
v -74.23890686 74.21843719 27.37977791
v -74.23890686 74.21843719 24.37977791
v -75.13546753 74.17817688 27.37977791
v -75.13546753 74.17817688 24.37977791
v -76.02801514 74.08436584 27.37977791
v -76.02801514 74.08436584 24.37977791
v -76.91335297 73.93734741 27.37977791
v -76.91335297 73.93734741 24.37977791
v -77.78831482 73.73764038 27.37977791
v -77.78831482 73.73764038 24.37977791
v -78.64977264 73.48596954 27.37977791
v -78.64977264 73.48596954 24.37977791
v -79.49462891 73.18322754 27.37977791
v -79.49462891 73.18322754 24.37977791
v -80.31987762 72.83049774 27.37977791
v -80.31987762 72.83049774 24.37977791
v -81.12254333 72.42905426 27.37977791
v -81.12254333 72.42905426 24.37977791
v -81.89977264 71.98031616 27.37977791
v -81.89977264 71.98031616 24.37977791
v -82.64877319 71.48590851 27.37977791
v -82.64877319 71.48590851 24.37977791
v -83.36685944 70.94759369 27.37977791
v -83.36685944 70.94759369 24.37977791
v -84.05147552 70.36728668 27.37977791
v -84.05147552 70.36728668 24.37977791
v -84.70015717 69.74708557 27.37977791
v -84.70015717 69.74708557 24.37977791
v -85.31058502 69.08919525 27.37977791
v -85.31058502 69.08919525 24.37977791
v -85.88058472 68.39598083 27.37977791
v -85.88058472 68.39598083 24.37977791
v -86.40809631 67.66992188 27.37977791
v -86.40809631 67.66992188 24.37977791
v -86.89125061 66.91360474 27.37977791
v -86.89125061 66.91360474 24.37977791
v -87.32830048 66.12975311 27.37977791
v -87.32830048 66.12975311 24.37977791
v -87.71769714 65.32116699 27.37977791
v -87.71769714 65.32116699 24.37977791
v -88.05803680 64.49073792 27.37977791
v -88.05803680 64.49073792 24.37977791
v -88.34810638 63.64144516 27.37977791
v -88.34810638 63.64144516 24.37977791
v -88.58686829 62.77632523 27.37977791
v -88.58686829 62.77632523 24.37977791
v -88.77346039 61.89847183 27.37977791
v -88.77346039 61.89847183 24.37977791
v -88.90721893 61.01103210 27.37977791
v -88.90721893 61.01103210 24.37977791
v -81.48821259 59.84770203 27.37977791
v -81.51451874 59.22011948 27.37977791
v -81.48821259 58.59253311 27.37977791
v -81.40948486 57.96935272 27.37977791
v -81.40948486 60.47088242 27.37977791
v -81.27889252 61.08529282 27.37977791
v -81.09733582 61.68661880 27.37977791
v -80.86610413 62.27064133 27.37977791
v -80.58681488 62.83327103 27.37977791
v -80.26142883 63.37055588 27.37977791
v -79.89221954 63.87872696 27.37977791
v -79.48178101 64.35422516 27.37977791
v -79.03299713 64.79370117 27.37977791
v -78.54901123 65.19409180 27.37977791
v -78.03321838 65.55257416 27.37977791
v -77.48923492 65.86664581 27.37977791
v -76.92088318 66.13409424 27.37977791
v -76.33214569 66.35304260 27.37977791
v -75.72714996 66.52195740 27.37977791
v -75.11013794 66.63966370 27.37977791
v -74.48544312 66.70532227 27.37977791
v -73.85744476 66.71847534 27.37977791
v -73.23055267 66.67903137 27.37977791
v -72.60915375 66.58727264 27.37977791
v -71.99761963 66.44384003 27.37977791
v -71.40022278 66.24973297 27.37977791
v -70.82117462 66.00632477 27.37977791
v -70.26451874 65.71530914 27.37977791
v -69.73416138 65.37873840 27.37977791
v -69.23383331 64.99897003 27.37977791
v -68.76704407 64.57866669 27.37977791
v -68.33705139 64.12077332 27.37977791
v -67.94689178 63.62850571 27.37977791
v -67.59928131 63.10531998 27.37977791
v -67.29667664 62.55488205 27.37977791
v -67.04119110 61.98105240 27.37977791
v -66.83461761 61.38785553 27.37977791
v -66.67840576 60.77945709 27.37977791
v -66.57365417 60.16011810 27.37977791
v -66.52109528 59.53418732 27.37977791
v -66.52109528 58.90605164 27.37977791
v -66.57365417 58.28011703 27.37977791
v -66.67840576 57.66078186 27.37977791
v -66.83461761 57.05237961 27.37977791
v -67.04119110 56.45918274 27.37977791
v -67.29667664 55.88535309 27.37977791
v -67.59928131 55.33491516 27.37977791
v -67.94689178 54.81172943 27.37977791
v -68.33705139 54.31946182 27.37977791
v -68.76704407 53.86157227 27.37977791
v -69.23383331 53.44126892 27.37977791
v -69.73416138 53.06150055 27.37977791
v -70.26451874 52.72492599 27.37977791
v -70.82117462 52.43391418 27.37977791
v -71.40022278 52.19050217 27.37977791
v -71.99761963 51.99639893 27.37977791
v -72.60915375 51.85296249 27.37977791
v -73.23055267 51.76120377 27.37977791
v -73.85744476 51.72176361 27.37977791
v -74.48544312 51.73491669 27.37977791
v -75.11013794 51.80057526 27.37977791
v -75.72714996 51.91827774 27.37977791
v -76.33214569 52.08719254 27.37977791
v -76.92088318 52.30614471 27.37977791
v -77.48923492 52.57359314 27.37977791
v -78.03321838 52.88765717 27.37977791
v -78.54901123 53.24614334 27.37977791
v -79.03299713 53.64653015 27.37977791
v -79.48178101 54.08601379 27.37977791
v -79.89221954 54.56150818 27.37977791
v -80.26142883 55.06968307 27.37977791
v -80.58681488 55.60696411 27.37977791
v -80.86610413 56.16959381 27.37977791
v -81.09733582 56.75361633 27.37977791
v -81.27889252 57.35494232 27.37977791
v -85.11465454 62.19335175 27.37977791
v -85.51451874 62.22011948 27.37977791
v -85.91437531 62.19335175 27.37977791
v -86.30709839 62.11352539 27.37977791
v -86.68568420 61.98206711 27.37977791
v -87.04336548 61.80132294 27.37977791
v -87.37376404 61.57451630 27.37977791
v -87.67098999 61.30569458 27.37977791
v -87.92972565 60.99965668 27.37977791
v -88.14536285 60.66186523 27.37977791
v -88.31405640 60.29833984 27.37977791
v -88.43279266 59.91557693 27.37977791
v -88.49945068 59.52040482 27.37977791
v -88.51284027 59.11987305 27.37977791
v -88.47272491 58.72113037 27.37977791
v -88.37982178 58.33129120 27.37977791
v -88.23578644 57.95731354 27.37977791
v -88.04319000 57.60586929 27.37977791
v -87.80547333 57.28323364 27.37977791
v -87.52687073 56.99516296 27.37977791
v -87.21235657 56.74679184 27.37977791
v -86.86754608 56.54256058 27.37977791
v -86.49858856 56.38611221 27.37977791
v -86.11207581 56.28023148 27.37977791
v -85.71489716 56.22681808 27.37977791
v -85.31414032 56.22681808 27.37977791
v -84.91695404 56.28023148 27.37977791
v -84.53044128 56.38611221 27.37977791
v -84.16148376 56.54256058 27.37977791
v -83.81667328 56.74679184 27.37977791
v -83.50215912 56.99516296 27.37977791
v -83.22355652 57.28323364 27.37977791
v -82.98583984 57.60586929 27.37977791
v -82.79324341 57.95731354 27.37977791
v -82.64920807 58.33129120 27.37977791
v -82.55630493 58.72113037 27.37977791
v -82.51618958 59.11987305 27.37977791
v -82.52957916 59.52040482 27.37977791
v -82.59623718 59.91557693 27.37977791
v -82.71497345 60.29833984 27.37977791
v -82.88366699 60.66186523 27.37977791
v -83.09930420 60.99965668 27.37977791
v -83.35804749 61.30569458 27.37977791
v -83.65526581 61.57451630 27.37977791
v -83.98566437 61.80132294 27.37977791
v -84.34334564 61.98206711 27.37977791
v -84.72193146 62.11352539 27.37977791
v -62.11465454 62.19335175 27.37977791
v -62.51451492 62.22011948 27.37977791
v -62.91437531 62.19335175 27.37977791
v -63.30710220 62.11352539 27.37977791
v -63.68568420 61.98206711 27.37977791
v -64.04336548 61.80132294 27.37977791
v -64.37376404 61.57451630 27.37977791
v -64.67098999 61.30569458 27.37977791
v -64.92972565 60.99965668 27.37977791
v -65.14536285 60.66186523 27.37977791
v -65.31405640 60.29833984 27.37977791
v -65.43279266 59.91557693 27.37977791
v -65.49945068 59.52040482 27.37977791
v -65.51284027 59.11987305 27.37977791
v -65.47272491 58.72113037 27.37977791
v -65.37982178 58.33129120 27.37977791
v -65.23578644 57.95731354 27.37977791
v -65.04319000 57.60586929 27.37977791
v -64.80547333 57.28323364 27.37977791
v -64.52687073 56.99516296 27.37977791
v -64.21235657 56.74679184 27.37977791
v -63.86754608 56.54256058 27.37977791
v -63.49858856 56.38611221 27.37977791
v -63.11207199 56.28023148 27.37977791
v -62.71489334 56.22681808 27.37977791
v -62.31413651 56.22681808 27.37977791
v -61.91695786 56.28023148 27.37977791
v -61.53044128 56.38611221 27.37977791
v -61.16148376 56.54256058 27.37977791
v -60.81667328 56.74679184 27.37977791
v -60.50216293 56.99516296 27.37977791
v -60.22356033 57.28323364 27.37977791
v -59.98583984 57.60586929 27.37977791
v -59.79324341 57.95731354 27.37977791
v -59.64920807 58.33129120 27.37977791
v -59.55630493 58.72113037 27.37977791
v -59.51618958 59.11987305 27.37977791
v -59.52958298 59.52040482 27.37977791
v -59.59624100 59.91557693 27.37977791
v -59.71497345 60.29833984 27.37977791
v -59.88366699 60.66186523 27.37977791
v -60.09930420 60.99965668 27.37977791
v -60.35804367 61.30569458 27.37977791
v -60.65526581 61.57451630 27.37977791
v -60.98566437 61.80132294 27.37977791
v -61.34334946 61.98206711 27.37977791
v -61.72192764 62.11352539 27.37977791
v -73.61465454 50.69335175 27.37977791
v -74.01451874 50.72011948 27.37977791
v -74.41437531 50.69335175 27.37977791
v -74.80709839 50.61352539 27.37977791
v -75.18568420 50.48206711 27.37977791
v -75.54336548 50.30132294 27.37977791
v -75.87376404 50.07451630 27.37977791
v -76.17098999 49.80569458 27.37977791
v -76.42972565 49.49965668 27.37977791
v -76.64536285 49.16186523 27.37977791
v -76.81405640 48.79833984 27.37977791
v -76.93279266 48.41557693 27.37977791
v -76.99945068 48.02040482 27.37977791
v -77.01284027 47.61987305 27.37977791
v -76.97272491 47.22113037 27.37977791
v -76.87982178 46.83129120 27.37977791
v -76.73578644 46.45731354 27.37977791
v -76.54319000 46.10586929 27.37977791
v -76.30547333 45.78323364 27.37977791
v -76.02687073 45.49516296 27.37977791
v -75.71235657 45.24679184 27.37977791
v -75.36754608 45.04256058 27.37977791
v -74.99858856 44.88611221 27.37977791
v -74.61207581 44.78023148 27.37977791
v -74.21489716 44.72681808 27.37977791
v -73.81414032 44.72681808 27.37977791
v -73.41695404 44.78023148 27.37977791
v -73.03044128 44.88611221 27.37977791
v -72.66148376 45.04256058 27.37977791
v -72.31667328 45.24679184 27.37977791
v -72.00215912 45.49516296 27.37977791
v -71.72355652 45.78323364 27.37977791
v -71.48583984 46.10586929 27.37977791
v -71.29324341 46.45731354 27.37977791
v -71.14920807 46.83129120 27.37977791
v -71.05630493 47.22113037 27.37977791
v -71.01618958 47.61987305 27.37977791
v -71.02957916 48.02040482 27.37977791
v -71.09623718 48.41557693 27.37977791
v -71.21497345 48.79833984 27.37977791
v -71.38366699 49.16186523 27.37977791
v -71.59930420 49.49965668 27.37977791
v -71.85804749 49.80569458 27.37977791
v -72.15526581 50.07451630 27.37977791
v -72.48566437 50.30132294 27.37977791
v -72.84334564 50.48206711 27.37977791
v -73.22193146 50.61352539 27.37977791
v -73.61465454 73.69335175 27.37977791
v -74.01451874 73.72011566 27.37977791
v -74.41437531 73.69335175 27.37977791
v -74.80709839 73.61352539 27.37977791
v -75.18568420 73.48207092 27.37977791
v -75.54336548 73.30132294 27.37977791
v -75.87376404 73.07451630 27.37977791
v -76.17098999 72.80569458 27.37977791
v -76.42972565 72.49965668 27.37977791
v -76.64536285 72.16186523 27.37977791
v -76.81405640 71.79833984 27.37977791
v -76.93279266 71.41558075 27.37977791
v -76.99945068 71.02040863 27.37977791
v -77.01284027 70.61987305 27.37977791
v -76.97272491 70.22113037 27.37977791
v -76.87982178 69.83129120 27.37977791
v -76.73578644 69.45731354 27.37977791
v -76.54319000 69.10587311 27.37977791
v -76.30547333 68.78323364 27.37977791
v -76.02687073 68.49516296 27.37977791
v -75.71235657 68.24679565 27.37977791
v -75.36754608 68.04256439 27.37977791
v -74.99858856 67.88610840 27.37977791
v -74.61207581 67.78023529 27.37977791
v -74.21489716 67.72681427 27.37977791
v -73.81414032 67.72681427 27.37977791
v -73.41695404 67.78023529 27.37977791
v -73.03044128 67.88610840 27.37977791
v -72.66148376 68.04256439 27.37977791
v -72.31667328 68.24679565 27.37977791
v -72.00215912 68.49516296 27.37977791
v -71.72355652 68.78323364 27.37977791
v -71.48583984 69.10587311 27.37977791
v -71.29324341 69.45731354 27.37977791
v -71.14920807 69.83129120 27.37977791
v -71.05630493 70.22113037 27.37977791
v -71.01618958 70.61987305 27.37977791
v -71.02957916 71.02040863 27.37977791
v -71.09623718 71.41558075 27.37977791
v -71.21497345 71.79833984 27.37977791
v -71.38366699 72.16186523 27.37977791
v -71.59930420 72.49965668 27.37977791
v -71.85804749 72.80569458 27.37977791
v -72.15526581 73.07451630 27.37977791
v -72.48566437 73.30132294 27.37977791
v -72.84334564 73.48207092 27.37977791
v -73.22193146 73.61352539 27.37977791
v -88.98767090 60.11717987 27.37977791
v -89.01451874 59.22011948 27.37977791
v -88.98767090 58.32305527 27.37977791
v -88.90721893 57.42920303 27.37977791
v -88.77346039 56.54176331 27.37977791
v -88.58686829 55.66391373 27.37977791
v -88.34810638 54.79878998 27.37977791
v -88.05803680 53.94949722 27.37977791
v -87.71769714 53.11906815 27.37977791
v -87.32830048 52.31048203 27.37977791
v -86.89125061 51.52663040 27.37977791
v -86.40809631 50.77031708 27.37977791
v -85.88058472 50.04425430 27.37977791
v -85.31058502 49.35103607 27.37977791
v -84.70015717 48.69314957 27.37977791
v -84.05147552 48.07294464 27.37977791
v -83.36685944 47.49264526 27.37977791
v -82.64877319 46.95432663 27.37977791
v -81.89977264 46.45991898 27.37977791
v -81.12254333 46.01118469 27.37977791
v -80.31987762 45.60973740 27.37977791
v -79.49462891 45.25701141 27.37977791
v -78.64977264 44.95426941 27.37977791
v -77.78831482 44.70259857 27.37977791
v -76.91335297 44.50289154 27.37977791
v -76.02801514 44.35587311 27.37977791
v -75.13546753 44.26206207 27.37977791
v -74.23890686 44.22179794 27.37977791
v -73.34154510 44.23522186 27.37977791
v -72.44658661 44.30228806 27.37977791
v -71.55724335 44.42276001 27.37977791
v -70.67670441 44.59619904 27.37977791
v -69.80810547 44.82199097 27.37977791
v -68.95456696 45.09931946 27.37977791
v -68.11914062 45.42720032 27.37977791
v -67.30481720 45.80445862 27.37977791
v -66.51451874 46.22973633 27.37977791
v -65.75106049 46.70151901 27.37977791
v -65.01718903 47.21811676 27.37977791
v -64.31552124 47.77767563 27.37977791
v -63.64857483 48.37819672 27.37977791
v -63.01873779 49.01752853 27.37977791
v -62.42826080 49.69338226 27.37977791
v -61.87926102 50.40333939 27.37977791
v -61.37370300 51.14485931 27.37977791
v -60.91339111 51.91528702 27.37977791
v -60.49998093 52.71186066 27.37977791
v -60.13495255 53.53173447 27.37977791
v -59.81960678 54.37197495 27.37977791
v -59.55507278 55.22956467 27.37977791
v -59.34230042 56.10144424 27.37977791
v -59.18205261 56.98448563 27.37977791
v -59.07490158 57.87553024 27.37977791
v -59.02122879 58.77138519 27.37977791
v -59.02122879 59.66884995 27.37977791
v -59.07490158 60.56470871 27.37977791
v -59.18205261 61.45575333 27.37977791
v -59.34230042 62.33879471 27.37977791
v -59.55507278 63.21067047 27.37977791
v -59.81960678 64.06826019 27.37977791
v -60.13495255 64.90850067 27.37977791
v -60.49998093 65.72837067 27.37977791
v -60.91339111 66.52494812 27.37977791
v -61.37370300 67.29537964 27.37977791
v -61.87926102 68.03689575 27.37977791
v -62.42826080 68.74685669 27.37977791
v -63.01873779 69.42270660 27.37977791
v -63.64857483 70.06204224 27.37977791
v -64.31552124 70.66255951 27.37977791
v -65.01718903 71.22212219 27.37977791
v -65.75106049 71.73871613 27.37977791
v -66.51451874 72.21050262 27.37977791
v -67.30481720 72.63578033 27.37977791
v -68.11914062 73.01303101 27.37977791
v -68.95456696 73.34091187 27.37977791
v -69.80810547 73.61824799 27.37977791
v -70.67670441 73.84403992 27.37977791
v -71.55724335 74.01747894 27.37977791
v -72.44658661 74.13794708 27.37977791
v -73.34154510 74.20501709 27.37977791
v -74.23890686 74.21843719 27.37977791
v -75.13546753 74.17817688 27.37977791
v -76.02801514 74.08436584 27.37977791
v -76.91335297 73.93734741 27.37977791
v -77.78831482 73.73764038 27.37977791
v -78.64977264 73.48596954 27.37977791
v -79.49462891 73.18322754 27.37977791
v -80.31987762 72.83049774 27.37977791
v -81.12254333 72.42905426 27.37977791
v -81.89977264 71.98031616 27.37977791
v -82.64877319 71.48590851 27.37977791
v -83.36685944 70.94759369 27.37977791
v -84.05147552 70.36728668 27.37977791
v -84.70015717 69.74708557 27.37977791
v -85.31058502 69.08919525 27.37977791
v -85.88058472 68.39598083 27.37977791
v -86.40809631 67.66992188 27.37977791
v -86.89125061 66.91360474 27.37977791
v -87.32830048 66.12975311 27.37977791
v -87.71769714 65.32116699 27.37977791
v -88.05803680 64.49073792 27.37977791
v -88.34810638 63.64144516 27.37977791
v -88.58686829 62.77632523 27.37977791
v -88.77346039 61.89847183 27.37977791
v -88.90721893 61.01103210 27.37977791
v -81.48821259 59.84770203 24.37977791
v -81.51451874 59.22011948 24.37977791
v -81.48821259 58.59253311 24.37977791
v -81.40948486 60.47088242 24.37977791
v -81.27889252 61.08529282 24.37977791
v -81.09733582 61.68661880 24.37977791
v -80.86610413 62.27064133 24.37977791
v -80.58681488 62.83327103 24.37977791
v -80.26142883 63.37055588 24.37977791
v -79.89221954 63.87872696 24.37977791
v -79.48178101 64.35422516 24.37977791
v -79.03299713 64.79370117 24.37977791
v -78.54901123 65.19409180 24.37977791
v -78.03321838 65.55257416 24.37977791
v -77.48923492 65.86664581 24.37977791
v -76.92088318 66.13409424 24.37977791
v -76.33214569 66.35304260 24.37977791
v -75.72714996 66.52195740 24.37977791
v -75.11013794 66.63966370 24.37977791
v -74.48544312 66.70532227 24.37977791
v -73.85744476 66.71847534 24.37977791
v -73.23055267 66.67903137 24.37977791
v -72.60915375 66.58727264 24.37977791
v -71.99761963 66.44384003 24.37977791
v -71.40022278 66.24973297 24.37977791
v -70.82117462 66.00632477 24.37977791
v -70.26451874 65.71530914 24.37977791
v -69.73416138 65.37873840 24.37977791
v -69.23383331 64.99897003 24.37977791
v -68.76704407 64.57866669 24.37977791
v -68.33705139 64.12077332 24.37977791
v -67.94689178 63.62850571 24.37977791
v -67.59928131 63.10531998 24.37977791
v -67.29667664 62.55488205 24.37977791
v -67.04119110 61.98105240 24.37977791
v -66.83461761 61.38785553 24.37977791
v -66.67840576 60.77945709 24.37977791
v -66.57365417 60.16011810 24.37977791
v -66.52109528 59.53418732 24.37977791
v -66.52109528 58.90605164 24.37977791
v -66.57365417 58.28011703 24.37977791
v -66.67840576 57.66078186 24.37977791
v -66.83461761 57.05237961 24.37977791
v -67.04119110 56.45918274 24.37977791
v -67.29667664 55.88535309 24.37977791
v -67.59928131 55.33491516 24.37977791
v -67.94689178 54.81172943 24.37977791
v -68.33705139 54.31946182 24.37977791
v -68.76704407 53.86157227 24.37977791
v -69.23383331 53.44126892 24.37977791
v -69.73416138 53.06150055 24.37977791
v -70.26451874 52.72492599 24.37977791
v -70.82117462 52.43391418 24.37977791
v -71.40022278 52.19050217 24.37977791
v -71.99761963 51.99639893 24.37977791
v -72.60915375 51.85296249 24.37977791
v -73.23055267 51.76120377 24.37977791
v -73.85744476 51.72176361 24.37977791
v -74.48544312 51.73491669 24.37977791
v -75.11013794 51.80057526 24.37977791
v -75.72714996 51.91827774 24.37977791
v -76.33214569 52.08719254 24.37977791
v -76.92088318 52.30614471 24.37977791
v -77.48923492 52.57359314 24.37977791
v -78.03321838 52.88765717 24.37977791
v -78.54901123 53.24614334 24.37977791
v -79.03299713 53.64653015 24.37977791
v -79.48178101 54.08601379 24.37977791
v -79.89221954 54.56150818 24.37977791
v -80.26142883 55.06968307 24.37977791
v -80.58681488 55.60696411 24.37977791
v -80.86610413 56.16959381 24.37977791
v -81.09733582 56.75361633 24.37977791
v -81.27889252 57.35494232 24.37977791
v -81.40948486 57.96935272 24.37977791
v -85.79013824 60.69457626 24.37977791
v -85.51451874 60.72011948 24.37977791
v -85.23889160 60.69457626 24.37977791
v -84.97265625 60.61882782 24.37977791
v -84.72486877 60.49544525 24.37977791
v -84.50397491 60.32863235 24.37977791
v -84.31748962 60.12406921 24.37977791
v -84.17176819 59.88872528 24.37977791
v -84.07177734 59.63061142 24.37977791
v -84.02091217 59.35852051 24.37977791
v -84.02091217 59.08171463 24.37977791
v -84.07177734 58.80962372 24.37977791
v -84.17176819 58.55150986 24.37977791
v -84.31748962 58.31616592 24.37977791
v -84.50397491 58.11160660 24.37977791
v -84.72486877 57.94479370 24.37977791
v -84.97265625 57.82141113 24.37977791
v -85.23889160 57.74565887 24.37977791
v -85.51451874 57.72011948 24.37977791
v -85.79013824 57.74565887 24.37977791
v -86.05638123 57.82141113 24.37977791
v -86.30416107 57.94479370 24.37977791
v -86.52506256 58.11160660 24.37977791
v -86.71154022 58.31616592 24.37977791
v -86.85726166 58.55150986 24.37977791
v -86.95725250 58.80962372 24.37977791
v -87.00811768 59.08171463 24.37977791
v -87.00811768 59.35852051 24.37977791
v -86.95725250 59.63061142 24.37977791
v -86.85726166 59.88872528 24.37977791
v -86.71154022 60.12406921 24.37977791
v -86.52506256 60.32863235 24.37977791
v -86.30416107 60.49544525 24.37977791
v -86.05638123 60.61882782 24.37977791
v -62.79013824 60.69457626 24.37977791
v -62.51451492 60.72011948 24.37977791
v -62.23889160 60.69457626 24.37977791
v -61.97265244 60.61882782 24.37977791
v -61.72486877 60.49544525 24.37977791
v -61.50397110 60.32863235 24.37977791
v -61.31748962 60.12406921 24.37977791
v -61.17177200 59.88872528 24.37977791
v -61.07177734 59.63061142 24.37977791
v -61.02091599 59.35852051 24.37977791
v -61.02091599 59.08171463 24.37977791
v -61.07177734 58.80962372 24.37977791
v -61.17177200 58.55150986 24.37977791
v -61.31748962 58.31616592 24.37977791
v -61.50397110 58.11160660 24.37977791
v -61.72486877 57.94479370 24.37977791
v -61.97265244 57.82141113 24.37977791
v -62.23889160 57.74565887 24.37977791
v -62.51451492 57.72011948 24.37977791
v -62.79013824 57.74565887 24.37977791
v -63.05637741 57.82141113 24.37977791
v -63.30416489 57.94479370 24.37977791
v -63.52505875 58.11160660 24.37977791
v -63.71154022 58.31616592 24.37977791
v -63.85726166 58.55150986 24.37977791
v -63.95725250 58.80962372 24.37977791
v -64.00811768 59.08171463 24.37977791
v -64.00811768 59.35852051 24.37977791
v -63.95725250 59.63061142 24.37977791
v -63.85726166 59.88872528 24.37977791
v -63.71154022 60.12406921 24.37977791
v -63.52505875 60.32863235 24.37977791
v -63.30416489 60.49544525 24.37977791
v -63.05637741 60.61882782 24.37977791
v -74.29013824 49.19457626 24.37977791
v -74.01451874 49.22011948 24.37977791
v -73.73889160 49.19457626 24.37977791
v -73.47265625 49.11882782 24.37977791
v -73.22486877 48.99544525 24.37977791
v -73.00397491 48.82863235 24.37977791
v -72.81748962 48.62406921 24.37977791
v -72.67176819 48.38872528 24.37977791
v -72.57177734 48.13061142 24.37977791
v -72.52091217 47.85852051 24.37977791
v -72.52091217 47.58171463 24.37977791
v -72.57177734 47.30962372 24.37977791
v -72.67176819 47.05150986 24.37977791
v -72.81748962 46.81616592 24.37977791
v -73.00397491 46.61160660 24.37977791
v -73.22486877 46.44479370 24.37977791
v -73.47265625 46.32141113 24.37977791
v -73.73889160 46.24565887 24.37977791
v -74.01451874 46.22011948 24.37977791
v -74.29013824 46.24565887 24.37977791
v -74.55638123 46.32141113 24.37977791
v -74.80416107 46.44479370 24.37977791
v -75.02506256 46.61160660 24.37977791
v -75.21154022 46.81616592 24.37977791
v -75.35726166 47.05150986 24.37977791
v -75.45725250 47.30962372 24.37977791
v -75.50811768 47.58171463 24.37977791
v -75.50811768 47.85852051 24.37977791
v -75.45725250 48.13061142 24.37977791
v -75.35726166 48.38872528 24.37977791
v -75.21154022 48.62406921 24.37977791
v -75.02506256 48.82863235 24.37977791
v -74.80416107 48.99544525 24.37977791
v -74.55638123 49.11882782 24.37977791
v -74.29013824 72.19458008 24.37977791
v -74.01451874 72.22011566 24.37977791
v -73.73889160 72.19458008 24.37977791
v -73.47265625 72.11882782 24.37977791
v -73.22486877 71.99544525 24.37977791
v -73.00397491 71.82862854 24.37977791
v -72.81748962 71.62406921 24.37977791
v -72.67176819 71.38872528 24.37977791
v -72.57177734 71.13061523 24.37977791
v -72.52091217 70.85852051 24.37977791
v -72.52091217 70.58171844 24.37977791
v -72.57177734 70.30962372 24.37977791
v -72.67176819 70.05151367 24.37977791
v -72.81748962 69.81616974 24.37977791
v -73.00397491 69.61160278 24.37977791
v -73.22486877 69.44479370 24.37977791
v -73.47265625 69.32141113 24.37977791
v -73.73889160 69.24565887 24.37977791
v -74.01451874 69.22011566 24.37977791
v -74.29013824 69.24565887 24.37977791
v -74.55638123 69.32141113 24.37977791
v -74.80416107 69.44479370 24.37977791
v -75.02506256 69.61160278 24.37977791
v -75.21154022 69.81616974 24.37977791
v -75.35726166 70.05151367 24.37977791
v -75.45725250 70.30962372 24.37977791
v -75.50811768 70.58171844 24.37977791
v -75.50811768 70.85852051 24.37977791
v -75.45725250 71.13061523 24.37977791
v -75.35726166 71.38872528 24.37977791
v -75.21154022 71.62406921 24.37977791
v -75.02506256 71.82862854 24.37977791
v -74.80416107 71.99544525 24.37977791
v -74.55638123 72.11882782 24.37977791
v -88.98767090 60.11717987 24.37977791
v -89.01451874 59.22011948 24.37977791
v -88.98767090 58.32305527 24.37977791
v -88.90721893 57.42920303 24.37977791
v -88.77346039 56.54176331 24.37977791
v -88.58686829 55.66391373 24.37977791
v -88.34810638 54.79878998 24.37977791
v -88.05803680 53.94949722 24.37977791
v -87.71769714 53.11906815 24.37977791
v -87.32830048 52.31048203 24.37977791
v -86.89125061 51.52663040 24.37977791
v -86.40809631 50.77031708 24.37977791
v -85.88058472 50.04425430 24.37977791
v -85.31058502 49.35103607 24.37977791
v -84.70015717 48.69314957 24.37977791
v -84.05147552 48.07294464 24.37977791
v -83.36685944 47.49264526 24.37977791
v -82.64877319 46.95432663 24.37977791
v -81.89977264 46.45991898 24.37977791
v -81.12254333 46.01118469 24.37977791
v -80.31987762 45.60973740 24.37977791
v -79.49462891 45.25701141 24.37977791
v -78.64977264 44.95426941 24.37977791
v -77.78831482 44.70259857 24.37977791
v -76.91335297 44.50289154 24.37977791
v -76.02801514 44.35587311 24.37977791
v -75.13546753 44.26206207 24.37977791
v -74.23890686 44.22179794 24.37977791
v -73.34154510 44.23522186 24.37977791
v -72.44658661 44.30228806 24.37977791
v -71.55724335 44.42276001 24.37977791
v -70.67670441 44.59619904 24.37977791
v -69.80810547 44.82199097 24.37977791
v -68.95456696 45.09931946 24.37977791
v -68.11914062 45.42720032 24.37977791
v -67.30481720 45.80445862 24.37977791
v -66.51451874 46.22973633 24.37977791
v -65.75106049 46.70151901 24.37977791
v -65.01718903 47.21811676 24.37977791
v -64.31552124 47.77767563 24.37977791
v -63.64857483 48.37819672 24.37977791
v -63.01873779 49.01752853 24.37977791
v -62.42826080 49.69338226 24.37977791
v -61.87926102 50.40333939 24.37977791
v -61.37370300 51.14485931 24.37977791
v -60.91339111 51.91528702 24.37977791
v -60.49998093 52.71186066 24.37977791
v -60.13495255 53.53173447 24.37977791
v -59.81960678 54.37197495 24.37977791
v -59.55507278 55.22956467 24.37977791
v -59.34230042 56.10144424 24.37977791
v -59.18205261 56.98448563 24.37977791
v -59.07490158 57.87553024 24.37977791
v -59.02122879 58.77138519 24.37977791
v -59.02122879 59.66884995 24.37977791
v -59.07490158 60.56470871 24.37977791
v -59.18205261 61.45575333 24.37977791
v -59.34230042 62.33879471 24.37977791
v -59.55507278 63.21067047 24.37977791
v -59.81960678 64.06826019 24.37977791
v -60.13495255 64.90850067 24.37977791
v -60.49998093 65.72837067 24.37977791
v -60.91339111 66.52494812 24.37977791
v -61.37370300 67.29537964 24.37977791
v -61.87926102 68.03689575 24.37977791
v -62.42826080 68.74685669 24.37977791
v -63.01873779 69.42270660 24.37977791
v -63.64857483 70.06204224 24.37977791
v -64.31552124 70.66255951 24.37977791
v -65.01718903 71.22212219 24.37977791
v -65.75106049 71.73871613 24.37977791
v -66.51451874 72.21050262 24.37977791
v -67.30481720 72.63578033 24.37977791
v -68.11914062 73.01303101 24.37977791
v -68.95456696 73.34091187 24.37977791
v -69.80810547 73.61824799 24.37977791
v -70.67670441 73.84403992 24.37977791
v -71.55724335 74.01747894 24.37977791
v -72.44658661 74.13794708 24.37977791
v -73.34154510 74.20501709 24.37977791
v -74.23890686 74.21843719 24.37977791
v -75.13546753 74.17817688 24.37977791
v -76.02801514 74.08436584 24.37977791
v -76.91335297 73.93734741 24.37977791
v -77.78831482 73.73764038 24.37977791
v -78.64977264 73.48596954 24.37977791
v -79.49462891 73.18322754 24.37977791
v -80.31987762 72.83049774 24.37977791
v -81.12254333 72.42905426 24.37977791
v -81.89977264 71.98031616 24.37977791
v -82.64877319 71.48590851 24.37977791
v -83.36685944 70.94759369 24.37977791
v -84.05147552 70.36728668 24.37977791
v -84.70015717 69.74708557 24.37977791
v -85.31058502 69.08919525 24.37977791
v -85.88058472 68.39598083 24.37977791
v -86.40809631 67.66992188 24.37977791
v -86.89125061 66.91360474 24.37977791
v -87.32830048 66.12975311 24.37977791
v -87.71769714 65.32116699 24.37977791
v -88.05803680 64.49073792 24.37977791
v -88.34810638 63.64144516 24.37977791
v -88.58686829 62.77632523 24.37977791
v -88.77346039 61.89847183 24.37977791
v -88.90721893 61.01103210 24.37977791
f 1 2 3
f 3 2 4
f 3 4 5
f 5 4 6
f 5 6 7
f 1 8 2
f 2 8 9
f 9 8 10
f 9 10 11
f 11 10 12
f 11 12 13
f 13 12 14
f 13 14 15
f 15 14 16
f 15 16 17
f 17 16 18
f 17 18 19
f 19 18 20
f 19 20 21
f 21 20 22
f 21 22 23
f 23 22 24
f 23 24 25
f 25 24 26
f 25 26 27
f 27 26 28
f 27 28 29
f 29 28 30
f 29 30 31
f 31 30 32
f 31 32 33
f 33 32 34
f 33 34 35
f 35 34 36
f 35 36 37
f 37 36 38
f 37 38 39
f 39 38 40
f 39 40 41
f 41 40 42
f 41 42 43
f 43 42 44
f 43 44 45
f 45 44 46
f 45 46 47
f 47 46 48
f 47 48 49
f 49 48 50
f 49 50 51
f 51 50 52
f 51 52 53
f 53 52 54
f 53 54 55
f 55 54 56
f 55 56 57
f 57 56 58
f 57 58 59
f 59 58 60
f 59 60 61
f 61 60 62
f 61 62 63
f 63 62 64
f 63 64 65
f 65 64 66
f 65 66 67
f 67 66 68
f 67 68 69
f 69 68 70
f 69 70 71
f 71 70 72
f 71 72 73
f 73 72 74
f 73 74 75
f 75 74 76
f 75 76 77
f 77 76 78
f 77 78 79
f 79 78 80
f 79 80 81
f 81 80 82
f 81 82 83
f 83 82 84
f 83 84 85
f 85 84 86
f 85 86 87
f 87 86 88
f 87 88 89
f 89 88 90
f 89 90 91
f 91 90 92
f 91 92 93
f 93 92 94
f 93 94 95
f 95 94 96
f 95 96 97
f 97 96 98
f 97 98 99
f 99 98 100
f 99 100 101
f 101 100 102
f 101 102 103
f 103 102 104
f 103 104 105
f 105 104 106
f 105 106 107
f 107 106 108
f 107 108 109
f 109 108 110
f 109 110 111
f 111 110 112
f 111 112 113
f 113 112 114
f 113 114 115
f 115 114 116
f 115 116 117
f 117 116 118
f 117 118 119
f 119 118 120
f 119 120 121
f 121 120 122
f 121 122 123
f 123 122 124
f 123 124 125
f 125 124 126
f 125 126 127
f 127 126 128
f 127 128 129
f 129 128 130
f 129 130 131
f 131 130 132
f 131 132 133
f 133 132 134
f 133 134 135
f 135 134 136
f 135 136 137
f 137 136 138
f 137 138 139
f 139 138 140
f 139 140 141
f 141 140 142
f 141 142 143
f 143 142 144
f 143 144 145
f 145 144 146
f 145 146 147
f 147 146 148
f 147 148 149
f 149 148 150
f 149 150 7
f 7 150 5
f 151 152 153
f 153 152 154
f 153 154 155
f 155 154 156
f 155 156 157
f 157 156 158
f 157 158 159
f 159 158 160
f 159 160 161
f 159 161 162
f 162 161 163
f 162 163 164
f 164 163 165
f 164 165 166
f 164 166 167
f 167 166 168
f 167 168 169
f 169 168 170
f 169 170 171
f 171 170 172
f 171 172 173
f 171 173 174
f 174 173 175
f 174 175 176
f 176 175 177
f 176 177 178
f 176 178 179
f 179 178 180
f 179 180 181
f 181 180 182
f 181 182 183
f 183 182 184
f 183 184 185
f 183 185 186
f 186 185 187
f 186 187 188
f 188 187 189
f 188 189 190
f 190 189 191
f 190 191 192
f 190 192 193
f 193 192 194
f 193 194 195
f 195 194 196
f 195 196 197
f 195 197 198
f 198 197 199
f 198 199 200
f 200 199 201
f 200 201 202
f 202 201 203
f 202 203 204
f 202 204 205
f 205 204 206
f 205 206 207
f 207 206 208
f 207 208 209
f 209 208 210
f 209 210 211
f 209 211 212
f 212 211 213
f 212 213 214
f 214 213 215
f 214 215 216
f 214 216 217
f 217 216 218
f 217 218 219
f 219 218 220
f 219 220 221
f 221 220 222
f 221 222 223
f 221 223 224
f 224 223 225
f 224 225 226
f 226 225 227
f 226 227 228
f 226 228 229
f 229 228 230
f 229 230 231
f 231 230 151
f 231 151 153
f 233 266 232
f 232 266 267
f 232 267 265
f 265 267 268
f 265 268 264
f 264 268 269
f 264 269 263
f 263 269 270
f 263 270 262
f 262 270 271
f 262 271 261
f 261 271 272
f 261 272 260
f 260 272 273
f 260 273 259
f 259 273 274
f 259 274 258
f 258 274 275
f 258 275 257
f 257 275 276
f 257 276 256
f 256 276 277
f 256 277 255
f 255 277 278
f 255 278 254
f 254 278 279
f 254 279 253
f 253 279 280
f 253 280 252
f 252 280 281
f 252 281 251
f 251 281 282
f 251 282 250
f 250 282 283
f 250 283 249
f 249 283 284
f 249 284 248
f 248 284 285
f 248 285 247
f 247 285 286
f 247 286 246
f 246 286 287
f 246 287 245
f 245 287 288
f 245 288 244
f 244 288 289
f 244 289 243
f 243 289 290
f 243 290 242
f 242 290 291
f 242 291 241
f 241 291 292
f 241 292 240
f 240 292 293
f 240 293 239
f 239 293 294
f 239 294 238
f 238 294 295
f 238 295 237
f 237 295 296
f 237 296 236
f 236 296 297
f 236 297 235
f 235 297 298
f 235 298 234
f 234 298 299
f 234 299 233
f 233 299 266
f 300 301 302
f 302 301 303
f 302 303 304
f 304 303 305
f 304 305 306
f 306 305 307
f 306 307 308
f 308 307 309
f 308 309 310
f 308 310 311
f 311 310 312
f 311 312 313
f 313 312 314
f 313 314 315
f 313 315 316
f 316 315 317
f 316 317 318
f 318 317 319
f 318 319 320
f 320 319 321
f 320 321 322
f 320 322 323
f 323 322 324
f 323 324 325
f 325 324 326
f 325 326 327
f 325 327 328
f 328 327 329
f 328 329 330
f 330 329 331
f 330 331 332
f 332 331 333
f 332 333 334
f 332 334 335
f 335 334 336
f 335 336 337
f 337 336 338
f 337 338 339
f 339 338 340
f 339 340 341
f 339 341 342
f 342 341 343
f 342 343 344
f 344 343 345
f 344 345 346
f 344 346 347
f 347 346 348
f 347 348 349
f 349 348 350
f 349 350 351
f 351 350 352
f 351 352 353
f 351 353 354
f 354 353 355
f 354 355 356
f 356 355 357
f 356 357 358
f 358 357 359
f 358 359 360
f 358 360 361
f 361 360 362
f 361 362 363
f 363 362 364
f 363 364 365
f 363 365 366
f 366 365 367
f 366 367 368
f 368 367 369
f 368 369 370
f 370 369 371
f 370 371 372
f 370 372 373
f 373 372 374
f 373 374 375
f 375 374 376
f 375 376 377
f 375 377 378
f 378 377 379
f 378 379 380
f 380 379 300
f 380 300 302
f 382 415 381
f 381 415 416
f 381 416 414
f 414 416 417
f 414 417 413
f 413 417 418
f 413 418 412
f 412 418 419
f 412 419 411
f 411 419 420
f 411 420 410
f 410 420 421
f 410 421 409
f 409 421 422
f 409 422 408
f 408 422 423
f 408 423 407
f 407 423 424
f 407 424 406
f 406 424 425
f 406 425 405
f 405 425 426
f 405 426 404
f 404 426 427
f 404 427 403
f 403 427 428
f 403 428 402
f 402 428 429
f 402 429 401
f 401 429 430
f 401 430 400
f 400 430 431
f 400 431 399
f 399 431 432
f 399 432 398
f 398 432 433
f 398 433 397
f 397 433 434
f 397 434 396
f 396 434 435
f 396 435 395
f 395 435 436
f 395 436 394
f 394 436 437
f 394 437 393
f 393 437 438
f 393 438 392
f 392 438 439
f 392 439 391
f 391 439 440
f 391 440 390
f 390 440 441
f 390 441 389
f 389 441 442
f 389 442 388
f 388 442 443
f 388 443 387
f 387 443 444
f 387 444 386
f 386 444 445
f 386 445 385
f 385 445 446
f 385 446 384
f 384 446 447
f 384 447 383
f 383 447 448
f 383 448 382
f 382 448 415
f 449 450 451
f 451 450 452
f 451 452 453
f 453 452 454
f 453 454 455
f 455 454 456
f 455 456 457
f 457 456 458
f 457 458 459
f 457 459 460
f 460 459 461
f 460 461 462
f 462 461 463
f 462 463 464
f 462 464 465
f 465 464 466
f 465 466 467
f 467 466 468
f 467 468 469
f 469 468 470
f 469 470 471
f 469 471 472
f 472 471 473
f 472 473 474
f 474 473 475
f 474 475 476
f 474 476 477
f 477 476 478
f 477 478 479
f 479 478 480
f 479 480 481
f 481 480 482
f 481 482 483
f 481 483 484
f 484 483 485
f 484 485 486
f 486 485 487
f 486 487 488
f 488 487 489
f 488 489 490
f 488 490 491
f 491 490 492
f 491 492 493
f 493 492 494
f 493 494 495
f 493 495 496
f 496 495 497
f 496 497 498
f 498 497 499
f 498 499 500
f 500 499 501
f 500 501 502
f 500 502 503
f 503 502 504
f 503 504 505
f 505 504 506
f 505 506 507
f 507 506 508
f 507 508 509
f 507 509 510
f 510 509 511
f 510 511 512
f 512 511 513
f 512 513 514
f 512 514 515
f 515 514 516
f 515 516 517
f 517 516 518
f 517 518 519
f 519 518 520
f 519 520 521
f 519 521 522
f 522 521 523
f 522 523 524
f 524 523 525
f 524 525 526
f 524 526 527
f 527 526 528
f 527 528 529
f 529 528 449
f 529 449 451
f 531 564 530
f 530 564 565
f 530 565 563
f 563 565 566
f 563 566 562
f 562 566 567
f 562 567 561
f 561 567 568
f 561 568 560
f 560 568 569
f 560 569 559
f 559 569 570
f 559 570 558
f 558 570 571
f 558 571 557
f 557 571 572
f 557 572 556
f 556 572 573
f 556 573 555
f 555 573 574
f 555 574 554
f 554 574 575
f 554 575 553
f 553 575 576
f 553 576 552
f 552 576 577
f 552 577 551
f 551 577 578
f 551 578 550
f 550 578 579
f 550 579 549
f 549 579 580
f 549 580 548
f 548 580 581
f 548 581 547
f 547 581 582
f 547 582 546
f 546 582 583
f 546 583 545
f 545 583 584
f 545 584 544
f 544 584 585
f 544 585 543
f 543 585 586
f 543 586 542
f 542 586 587
f 542 587 541
f 541 587 588
f 541 588 540
f 540 588 589
f 540 589 539
f 539 589 590
f 539 590 538
f 538 590 591
f 538 591 537
f 537 591 592
f 537 592 536
f 536 592 593
f 536 593 535
f 535 593 594
f 535 594 534
f 534 594 595
f 534 595 533
f 533 595 596
f 533 596 532
f 532 596 597
f 532 597 531
f 531 597 564
f 598 599 600
f 600 599 601
f 600 601 602
f 602 601 603
f 602 603 604
f 604 603 605
f 604 605 606
f 606 605 607
f 606 607 608
f 606 608 609
f 609 608 610
f 609 610 611
f 611 610 612
f 611 612 613
f 611 613 614
f 614 613 615
f 614 615 616
f 616 615 617
f 616 617 618
f 618 617 619
f 618 619 620
f 618 620 621
f 621 620 622
f 621 622 623
f 623 622 624
f 623 624 625
f 623 625 626
f 626 625 627
f 626 627 628
f 628 627 629
f 628 629 630
f 630 629 631
f 630 631 632
f 630 632 633
f 633 632 634
f 633 634 635
f 635 634 636
f 635 636 637
f 637 636 638
f 637 638 639
f 637 639 640
f 640 639 641
f 640 641 642
f 642 641 643
f 642 643 644
f 642 644 645
f 645 644 646
f 645 646 647
f 647 646 648
f 647 648 649
f 649 648 650
f 649 650 651
f 649 651 652
f 652 651 653
f 652 653 654
f 654 653 655
f 654 655 656
f 656 655 657
f 656 657 658
f 656 658 659
f 659 658 660
f 659 660 661
f 661 660 662
f 661 662 663
f 661 663 664
f 664 663 665
f 664 665 666
f 666 665 667
f 666 667 668
f 668 667 669
f 668 669 670
f 668 670 671
f 671 670 672
f 671 672 673
f 673 672 674
f 673 674 675
f 673 675 676
f 676 675 677
f 676 677 678
f 678 677 598
f 678 598 600
f 680 713 679
f 679 713 714
f 679 714 712
f 712 714 715
f 712 715 711
f 711 715 716
f 711 716 710
f 710 716 717
f 710 717 709
f 709 717 718
f 709 718 708
f 708 718 719
f 708 719 707
f 707 719 720
f 707 720 706
f 706 720 721
f 706 721 705
f 705 721 722
f 705 722 704
f 704 722 723
f 704 723 703
f 703 723 724
f 703 724 702
f 702 724 725
f 702 725 701
f 701 725 726
f 701 726 700
f 700 726 727
f 700 727 699
f 699 727 728
f 699 728 698
f 698 728 729
f 698 729 697
f 697 729 730
f 697 730 696
f 696 730 731
f 696 731 695
f 695 731 732
f 695 732 694
f 694 732 733
f 694 733 693
f 693 733 734
f 693 734 692
f 692 734 735
f 692 735 691
f 691 735 736
f 691 736 690
f 690 736 737
f 690 737 689
f 689 737 738
f 689 738 688
f 688 738 739
f 688 739 687
f 687 739 740
f 687 740 686
f 686 740 741
f 686 741 685
f 685 741 742
f 685 742 684
f 684 742 743
f 684 743 683
f 683 743 744
f 683 744 682
f 682 744 745
f 682 745 681
f 681 745 746
f 681 746 680
f 680 746 713
f 747 748 749
f 749 748 750
f 749 750 751
f 751 750 752
f 751 752 753
f 753 752 754
f 753 754 755
f 755 754 756
f 755 756 757
f 757 756 758
f 757 758 759
f 759 758 760
f 759 760 761
f 761 760 762
f 761 762 763
f 763 762 764
f 763 764 765
f 765 764 766
f 765 766 767
f 767 766 768
f 767 768 769
f 769 768 770
f 769 770 771
f 771 770 772
f 771 772 773
f 773 772 774
f 773 774 775
f 775 774 776
f 775 776 777
f 777 776 778
f 777 778 779
f 779 778 780
f 779 780 781
f 781 780 782
f 781 782 783
f 783 782 784
f 783 784 785
f 785 784 786
f 785 786 787
f 787 786 788
f 787 788 789
f 789 788 790
f 789 790 791
f 791 790 792
f 791 792 793
f 793 792 794
f 793 794 795
f 795 794 796
f 795 796 797
f 797 796 798
f 797 798 799
f 799 798 800
f 799 800 801
f 801 800 802
f 801 802 803
f 803 802 804
f 803 804 805
f 805 804 806
f 805 806 807
f 807 806 808
f 807 808 809
f 809 808 810
f 809 810 811
f 811 810 812
f 811 812 813
f 813 812 814
f 813 814 815
f 815 814 816
f 815 816 817
f 817 816 818
f 817 818 819
f 819 818 820
f 819 820 821
f 821 820 822
f 821 822 823
f 823 822 824
f 823 824 825
f 825 824 826
f 825 826 827
f 827 826 828
f 827 828 829
f 829 828 830
f 829 830 831
f 831 830 832
f 831 832 833
f 833 832 834
f 833 834 835
f 835 834 836
f 835 836 837
f 837 836 838
f 837 838 839
f 839 838 840
f 839 840 841
f 841 840 842
f 841 842 843
f 843 842 844
f 843 844 845
f 845 844 846
f 845 846 847
f 847 846 848
f 847 848 849
f 849 848 850
f 849 850 851
f 851 850 852
f 851 852 853
f 853 852 854
f 853 854 855
f 855 854 856
f 855 856 857
f 857 856 858
f 857 858 859
f 859 858 860
f 859 860 861
f 861 860 862
f 861 862 863
f 863 862 864
f 863 864 865
f 865 864 866
f 865 866 867
f 867 866 868
f 867 868 869
f 869 868 870
f 869 870 871
f 871 870 872
f 871 872 873
f 873 872 874
f 873 874 875
f 875 874 876
f 875 876 877
f 877 876 878
f 877 878 879
f 879 878 880
f 879 880 881
f 881 880 882
f 881 882 883
f 883 882 884
f 883 884 885
f 885 884 886
f 885 886 887
f 887 886 888
f 887 888 889
f 889 888 890
f 889 890 891
f 891 890 892
f 891 892 893
f 893 892 894
f 893 894 895
f 895 894 896
f 895 896 897
f 897 896 898
f 897 898 899
f 899 898 900
f 899 900 901
f 901 900 902
f 901 902 903
f 903 902 904
f 903 904 905
f 905 904 906
f 905 906 907
f 907 906 908
f 907 908 909
f 909 908 910
f 909 910 911
f 911 910 912
f 911 912 913
f 913 912 914
f 913 914 915
f 915 914 916
f 915 916 917
f 917 916 918
f 917 918 919
f 919 918 920
f 919 920 921
f 921 920 922
f 921 922 923
f 923 922 924
f 923 924 925
f 925 924 926
f 925 926 927
f 927 926 928
f 927 928 929
f 929 928 930
f 929 930 931
f 931 930 932
f 931 932 933
f 933 932 934
f 933 934 935
f 935 934 936
f 935 936 937
f 937 936 938
f 937 938 939
f 939 938 940
f 939 940 941
f 941 940 942
f 941 942 943
f 943 942 944
f 943 944 945
f 945 944 946
f 945 946 947
f 947 946 948
f 947 948 949
f 949 948 950
f 949 950 951
f 951 950 952
f 951 952 953
f 953 952 954
f 953 954 955
f 955 954 956
f 955 956 747
f 747 956 748
f 1042 1324 1220
f 1042 1220 1043
f 1043 1220 1044
f 1044 1220 1221
f 1044 1221 1045
f 1045 1221 1046
f 1046 1221 1222
f 1046 1222 1047
f 1038 1323 1039
f 1038 1322 1323
f 1034 1319 1320
f 979 1199 978
f 978 1199 1198
f 978 1198 1197
f 978 1197 977
f 977 1197 1196
f 1022 1023 1237
f 1237 1023 1236
f 1236 1023 1024
f 1047 1222 1048
f 1048 1222 1223
f 1048 1223 1049
f 1037 1322 1038
f 1057 1228 1229
f 1057 1229 1058
f 1058 1229 1230
f 1058 1230 1059
f 1037 1321 1322
f 1033 1319 1034
f 1033 1318 1319
f 1032 1318 1033
f 1041 1324 1042
f 1026 1233 1025
f 1025 1233 1234
f 1025 1234 1024
f 1024 1234 1235
f 1024 1235 1236
f 1318 1032 1317
f 1317 1032 1078
f 1317 1078 1316
f 1316 1078 1077
f 1316 1077 966
f 966 1077 965
f 1050 1223 1224
f 1050 1224 1051
f 1051 1224 1225
f 1051 1225 1052
f 1052 1225 1053
f 963 1074 1073
f 963 1073 962
f 962 1073 1072
f 962 1072 961
f 961 1072 1071
f 961 1071 1070
f 961 1070 957
f 957 1070 1069
f 957 1069 958
f 958 1069 1068
f 958 1068 959
f 1059 1230 1231
f 1059 1231 1027
f 1027 1231 1232
f 1027 1232 1026
f 1026 1232 1233
f 1031 1065 1064
f 1031 1064 1063
f 1031 1063 1030
f 1030 1063 1062
f 1030 1062 1029
f 1029 1062 1061
f 1029 1061 1028
f 1028 1061 1060
f 1028 1060 1027
f 1027 1060 1059
f 1079 1280 1080
f 965 1077 1076
f 965 1076 964
f 964 1076 1075
f 964 1075 1074
f 964 1074 963
f 1082 1283 1284
f 1079 1125 1280
f 1280 1125 1279
f 1279 1125 1124
f 1279 1124 1278
f 1278 1124 1123
f 1278 1123 1277
f 1277 1123 1122
f 1277 1122 1121
f 1277 1121 1276
f 1276 1121 1120
f 959 1068 1067
f 959 1067 1066
f 959 1066 960
f 960 1066 1065
f 960 1065 1031
f 1274 1117 1116
f 1274 1116 1115
f 1274 1115 1273
f 1273 1115 1114
f 1273 1114 1113
f 1273 1113 1272
f 1272 1113 1112
f 1272 1112 1111
f 1272 1111 1271
f 1271 1111 1110
f 1271 1110 1270
f 1080 1280 1281
f 1080 1281 1081
f 1081 1281 1282
f 1081 1282 1082
f 1082 1282 1283
f 1269 1106 1268
f 1268 1106 1105
f 1268 1105 1267
f 1267 1105 1104
f 1267 1104 1266
f 1266 1104 1103
f 1266 1103 1265
f 1265 1103 1102
f 1265 1102 1264
f 1264 1102 1101
f 1264 1101 1263
f 1276 1120 1119
f 1276 1119 1275
f 1275 1119 1118
f 1275 1118 1117
f 1275 1117 1274
f 1261 1006 1260
f 1260 1006 1259
f 1259 1006 1007
f 1259 1007 1258
f 1258 1007 1008
f 1258 1008 1257
f 1257 1008 1165
f 1257 1165 1164
f 1004 1101 1003
f 1003 1101 1100
f 1003 1100 1002
f 1270 1110 1109
f 1270 1109 1108
f 1270 1108 1269
f 1269 1108 1107
f 1269 1107 1106
f 1000 1097 1096
f 1000 1096 999
f 999 1096 1095
f 999 1095 1094
f 999 1094 998
f 998 1094 1093
f 998 1093 997
f 997 1093 1092
f 997 1092 996
f 996 1092 1091
f 996 1091 1090
f 1263 1101 1004
f 1263 1004 1262
f 1262 1004 1005
f 1262 1005 1261
f 1261 1005 1006
f 993 1088 1087
f 993 1087 1086
f 993 1086 992
f 992 1086 1085
f 992 1085 991
f 991 1085 1084
f 991 1084 990
f 990 1084 1083
f 990 1083 989
f 989 1083 1284
f 989 1284 1285
f 1002 1100 1099
f 1002 1099 1098
f 1002 1098 1001
f 1001 1098 1097
f 1001 1097 1000
f 1129 1016 1017
f 1129 1017 1130
f 1130 1017 1018
f 1130 1018 1131
f 1131 1018 1019
f 1131 1019 1132
f 1132 1019 1133
f 1133 1019 1020
f 1133 1020 1134
f 1134 1020 1021
f 1134 1021 1135
f 996 1090 995
f 995 1090 1089
f 995 1089 994
f 994 1089 1088
f 994 1088 993
f 1014 1126 1172
f 1014 1172 1013
f 1013 1172 1171
f 1013 1171 1170
f 1013 1170 1012
f 1012 1170 1169
f 1012 1169 1011
f 1011 1169 1168
f 1011 1168 1010
f 1010 1168 1167
f 1010 1167 1166
f 1083 1082 1284
f 1126 1015 1127
f 1127 1015 1016
f 1127 1016 1128
f 1128 1016 1129
f 1256 1163 1255
f 1255 1163 1162
f 1255 1162 1254
f 1254 1162 1161
f 1254 1161 1253
f 1253 1161 1160
f 1253 1160 1252
f 1252 1160 1159
f 1252 1159 1158
f 1252 1158 1251
f 1251 1158 1157
f 1135 1021 1022
f 1135 1022 1136
f 1136 1022 1237
f 1136 1237 1238
f 1015 1126 1014
f 1249 1154 1153
f 1249 1153 1248
f 1248 1153 1152
f 1248 1152 1151
f 1248 1151 1247
f 1247 1151 1150
f 1247 1150 1149
f 1247 1149 1246
f 1246 1149 1148
f 1246 1148 1147
f 1246 1147 1245
f 1010 1166 1009
f 1009 1166 1165
f 1009 1165 1008
f 1257 1164 1256
f 1256 1164 1163
f 1243 1144 1143
f 1243 1143 1142
f 1243 1142 1242
f 1242 1142 1141
f 1242 1141 1241
f 1241 1141 1140
f 1241 1140 1139
f 1241 1139 1240
f 1240 1139 1138
f 1240 1138 1239
f 1239 1138 1137
f 1251 1157 1250
f 1250 1157 1156
f 1250 1156 1155
f 1250 1155 1249
f 1249 1155 1154
f 1175 1300 1301
f 1175 1301 1176
f 1176 1301 1177
f 1177 1301 1302
f 1177 1302 1178
f 1178 1302 1179
f 1179 1302 1303
f 1179 1303 1180
f 1180 1303 1181
f 1181 1303 1304
f 1181 1304 1182
f 1245 1147 1146
f 1245 1146 1145
f 1245 1145 1244
f 1244 1145 1144
f 1244 1144 1243
f 1185 1306 1307
f 1185 1307 1186
f 1186 1307 1308
f 1186 1308 1187
f 1187 1308 1309
f 1187 1309 1188
f 1188 1309 1310
f 1188 1310 971
f 971 1310 970
f 970 1310 1311
f 970 1311 969
f 1239 1137 1238
f 1238 1137 1136
f 1173 1299 1174
f 1174 1299 1300
f 1174 1300 1175
f 1298 1218 1217
f 1298 1217 1297
f 1297 1217 1216
f 1297 1216 1215
f 1297 1215 1296
f 1296 1215 1214
f 1296 1214 1213
f 1296 1213 1295
f 1295 1213 1212
f 1295 1212 1294
f 1294 1212 1211
f 1182 1304 1183
f 1183 1304 1305
f 1183 1305 1184
f 1184 1305 1306
f 1184 1306 1185
f 1292 1208 1291
f 1291 1208 1207
f 1291 1207 1290
f 1290 1207 985
f 1290 985 1289
f 1289 985 986
f 1289 986 1288
f 1288 986 987
f 1288 987 1287
f 1287 987 1286
f 1286 987 988
f 969 1311 1312
f 969 1312 1313
f 1173 1219 1299
f 1299 1219 1298
f 1298 1219 1218
f 984 1205 983
f 983 1205 1204
f 983 1204 982
f 982 1204 1203
f 982 1203 981
f 981 1203 1202
f 981 1202 1201
f 981 1201 980
f 980 1201 1200
f 980 1200 979
f 979 1200 1199
f 1294 1211 1210
f 1294 1210 1293
f 1293 1210 1209
f 1293 1209 1292
f 1292 1209 1208
f 977 1196 976
f 976 1196 1195
f 976 1195 1194
f 976 1194 975
f 975 1194 1193
f 975 1193 974
f 974 1193 1192
f 974 1192 973
f 973 1192 1191
f 973 1191 972
f 972 1191 1190
f 1286 988 1285
f 1285 988 989
f 1207 1206 985
f 985 1206 984
f 984 1206 1205
f 1053 1225 1226
f 1053 1226 1054
f 1054 1226 1227
f 1054 1227 1055
f 1055 1227 1056
f 1056 1227 1228
f 1056 1228 1057
f 972 1190 1189
f 972 1189 971
f 971 1189 1188
f 1316 966 1315
f 1315 966 967
f 1315 967 1314
f 1314 967 968
f 1314 968 1313
f 1313 968 969
f 1040 1324 1041
f 1040 1323 1324
f 1039 1323 1040
f 1036 1321 1037
f 1035 1321 1036
f 1035 1320 1321
f 1034 1320 1035
f 1049 1223 1050
f 1621 1529 1622
f 1622 1529 1528
f 1622 1528 1623
f 1505 1615 1614
f 1505 1614 1506
f 1506 1614 1507
f 1507 1614 1613
f 1507 1613 1508
f 1508 1613 1612
f 1508 1612 1509
f 1509 1612 1510
f 1510 1612 1611
f 1510 1611 1511
f 1327 1410 1326
f 1326 1410 1409
f 1326 1409 1325
f 1325 1409 1408
f 1416 1395 1545
f 1545 1395 1546
f 1546 1395 1394
f 1546 1394 1547
f 1554 1389 1555
f 1555 1389 1388
f 1555 1388 1556
f 1556 1388 1496
f 1325 1408 1407
f 1399 1412 1327
f 1327 1412 1411
f 1327 1411 1410
f 1412 1399 1413
f 1413 1399 1398
f 1413 1398 1414
f 1414 1398 1397
f 1414 1397 1415
f 1415 1397 1396
f 1415 1396 1416
f 1416 1396 1395
f 1468 1383 1469
f 1469 1383 1382
f 1469 1382 1470
f 1470 1382 1381
f 1547 1394 1548
f 1548 1394 1393
f 1548 1393 1549
f 1549 1393 1392
f 1549 1392 1550
f 1550 1392 1391
f 1550 1391 1551
f 1551 1391 1552
f 1552 1391 1390
f 1552 1390 1553
f 1553 1390 1389
f 1553 1389 1554
f 1377 1376 1571
f 1571 1376 1572
f 1572 1376 1573
f 1573 1376 1375
f 1556 1496 1495
f 1388 1387 1496
f 1496 1387 1497
f 1497 1387 1386
f 1497 1386 1498
f 1498 1386 1499
f 1499 1386 1385
f 1499 1385 1500
f 1500 1385 1384
f 1500 1384 1501
f 1501 1384 1383
f 1501 1383 1468
f 1580 1370 1581
f 1581 1370 1369
f 1581 1369 1582
f 1582 1369 1454
f 1470 1381 1471
f 1471 1381 1380
f 1471 1380 1472
f 1472 1380 1473
f 1473 1380 1379
f 1473 1379 1474
f 1474 1379 1378
f 1474 1378 1475
f 1475 1378 1377
f 1475 1377 1476
f 1476 1377 1571
f 1476 1571 1570
f 1460 1364 1461
f 1461 1364 1363
f 1461 1363 1462
f 1462 1363 1362
f 1573 1375 1574
f 1574 1375 1374
f 1574 1374 1575
f 1575 1374 1373
f 1575 1373 1576
f 1576 1373 1577
f 1577 1373 1372
f 1577 1372 1578
f 1578 1372 1371
f 1578 1371 1579
f 1579 1371 1580
f 1580 1371 1370
f 1598 1357 1599
f 1599 1357 1356
f 1599 1356 1600
f 1600 1356 1601
f 1582 1454 1453
f 1369 1368 1454
f 1454 1368 1455
f 1455 1368 1367
f 1455 1367 1456
f 1456 1367 1366
f 1456 1366 1457
f 1457 1366 1458
f 1458 1366 1365
f 1458 1365 1459
f 1459 1365 1364
f 1459 1364 1460
f 1608 1351 1350
f 1608 1350 1513
f 1513 1350 1514
f 1514 1350 1349
f 1462 1362 1463
f 1463 1362 1361
f 1463 1361 1464
f 1464 1361 1465
f 1465 1361 1360
f 1465 1360 1466
f 1466 1360 1359
f 1466 1359 1467
f 1467 1359 1358
f 1467 1358 1597
f 1597 1358 1598
f 1598 1358 1357
f 1521 1344 1522
f 1522 1344 1343
f 1522 1343 1523
f 1523 1343 1342
f 1601 1356 1355
f 1601 1355 1602
f 1602 1355 1354
f 1602 1354 1603
f 1603 1354 1604
f 1604 1354 1353
f 1604 1353 1605
f 1605 1353 1352
f 1605 1352 1606
f 1606 1352 1351
f 1606 1351 1607
f 1607 1351 1608
f 1626 1338 1337
f 1626 1337 1627
f 1627 1337 1336
f 1627 1336 1628
f 1514 1349 1515
f 1515 1349 1348
f 1515 1348 1516
f 1516 1348 1347
f 1516 1347 1517
f 1517 1347 1518
f 1518 1347 1346
f 1518 1346 1519
f 1519 1346 1345
f 1519 1345 1520
f 1520 1345 1344
f 1520 1344 1521
f 1332 1331 1403
f 1403 1331 1404
f 1404 1331 1330
f 1404 1330 1405
f 1523 1342 1524
f 1524 1342 1341
f 1524 1341 1525
f 1525 1341 1526
f 1526 1341 1340
f 1526 1340 1527
f 1527 1340 1339
f 1527 1339 1623
f 1623 1339 1624
f 1624 1339 1338
f 1624 1338 1625
f 1625 1338 1626
f 1638 1433 1432
f 1638 1432 1639
f 1639 1432 1431
f 1639 1431 1640
f 1628 1336 1629
f 1629 1336 1335
f 1629 1335 1630
f 1630 1335 1334
f 1630 1334 1631
f 1631 1334 1333
f 1631 1333 1632
f 1632 1333 1633
f 1633 1333 1332
f 1633 1332 1634
f 1634 1332 1403
f 1634 1403 1402
f 1539 1423 1422
f 1539 1422 1540
f 1540 1422 1421
f 1540 1421 1541
f 1405 1330 1329
f 1405 1329 1406
f 1406 1329 1328
f 1406 1328 1407
f 1407 1328 1325
f 1400 1637 1401
f 1401 1637 1636
f 1401 1636 1402
f 1402 1636 1635
f 1402 1635 1634
f 1400 1433 1637
f 1637 1433 1638
f 1436 1595 1594
f 1436 1594 1437
f 1437 1594 1593
f 1437 1593 1438
f 1640 1431 1430
f 1640 1430 1429
f 1640 1429 1536
f 1536 1429 1428
f 1536 1428 1427
f 1536 1427 1537
f 1537 1427 1426
f 1537 1426 1538
f 1538 1426 1425
f 1538 1425 1424
f 1538 1424 1539
f 1539 1424 1423
f 1445 1588 1446
f 1446 1588 1447
f 1447 1588 1587
f 1447 1587 1448
f 1541 1421 1420
f 1541 1420 1542
f 1542 1420 1419
f 1542 1419 1418
f 1542 1418 1543
f 1543 1418 1417
f 1543 1417 1544
f 1544 1417 1545
f 1545 1417 1416
f 1434 1596 1435
f 1435 1596 1595
f 1435 1595 1436
f 1495 1494 1556
f 1556 1494 1493
f 1556 1493 1492
f 1492 1491 1556
f 1438 1593 1592
f 1438 1592 1439
f 1439 1592 1440
f 1440 1592 1591
f 1440 1591 1441
f 1441 1591 1442
f 1442 1591 1590
f 1442 1590 1443
f 1443 1590 1589
f 1443 1589 1444
f 1444 1589 1445
f 1445 1589 1588
f 1563 1486 1564
f 1564 1486 1485
f 1564 1485 1484
f 1564 1484 1565
f 1448 1587 1449
f 1449 1587 1586
f 1449 1586 1450
f 1450 1586 1585
f 1450 1585 1451
f 1451 1585 1584
f 1451 1584 1452
f 1452 1584 1583
f 1452 1583 1453
f 1453 1583 1582
f 1596 1434 1597
f 1597 1434 1467
f 1570 1477 1476
f 1502 1616 1503
f 1503 1616 1615
f 1503 1615 1504
f 1556 1491 1557
f 1557 1491 1490
f 1557 1490 1489
f 1489 1488 1557
f 1557 1488 1558
f 1558 1488 1559
f 1559 1488 1560
f 1560 1488 1561
f 1561 1488 1562
f 1562 1488 1487
f 1562 1487 1563
f 1563 1487 1486
f 1565 1484 1483
f 1565 1483 1482
f 1565 1482 1566
f 1566 1482 1481
f 1566 1481 1567
f 1567 1481 1480
f 1567 1480 1479
f 1567 1479 1568
f 1568 1479 1478
f 1568 1478 1569
f 1569 1478 1477
f 1569 1477 1570
f 1617 1502 1535
f 1617 1535 1534
f 1617 1534 1618
f 1618 1534 1533
f 1618 1533 1532
f 1618 1532 1619
f 1619 1532 1531
f 1619 1531 1620
f 1620 1531 1530
f 1620 1530 1621
f 1621 1530 1529
f 1511 1611 1610
f 1511 1610 1512
f 1512 1610 1609
f 1623 1528 1527
f 1504 1615 1505
f 1512 1609 1513
f 1616 1502 1617
f 1513 1609 1608

