# https://github.com/mikedh/trimesh
v -196.56552124 100.56980896 10.00000000
v -196.56552124 100.56980896 17.50000000
v -196.66600037 100.00000000 10.00000000
v -196.66600037 100.00000000 17.50000000
v -196.27622986 101.07088470 10.00000000
v -196.27622986 101.07088470 17.50000000
v -196.66600037 100.00000000 25.00000000
v -196.56552124 100.56980896 25.00000000
v -196.27622986 101.07088470 25.00000000
v -196.66600037 100.00000000 10.00000000
v -196.66600037 100.00000000 17.50000000
v -196.56552124 99.43019104 10.00000000
v -196.56552124 99.43019104 17.50000000
v -196.27622986 98.92911530 10.00000000
v -196.27622986 98.92911530 17.50000000
v -196.56552124 99.43019104 25.00000000
v -196.66600037 100.00000000 25.00000000
v -196.27622986 98.92911530 25.00000000
v -196.27622986 98.92911530 10.00000000
v -196.27622986 98.92911530 17.50000000
v -195.83299255 98.55720520 10.00000000
v -195.83299255 98.55720520 17.50000000
v -195.28929138 98.35931396 10.00000000
v -195.28929138 98.35931396 17.50000000
v -195.28929138 98.35931396 25.00000000
v -195.83299255 98.55720520 25.00000000
v -196.27622986 98.92911530 25.00000000
v -195.28929138 98.35931396 10.00000000
v -195.28929138 98.35931396 17.50000000
v -194.71070862 98.35931396 10.00000000
v -194.71070862 98.35931396 17.50000000
v -194.71070862 98.35931396 25.00000000
v -195.28929138 98.35931396 25.00000000
v -194.71070862 98.35931396 10.00000000
v -194.71070862 98.35931396 17.50000000
v -194.16700745 98.55720520 10.00000000
v -194.16700745 98.55720520 17.50000000
v -193.72377014 98.92911530 10.00000000
v -193.72377014 98.92911530 17.50000000
v -193.72377014 98.92911530 25.00000000
v -194.16700745 98.55720520 25.00000000
v -194.71070862 98.35931396 25.00000000
v -193.72377014 98.92911530 10.00000000
v -193.72377014 98.92911530 17.50000000
v -193.43447876 99.43019104 10.00000000
v -193.43447876 99.43019104 17.50000000
v -193.33399963 100.00000000 10.00000000
v -193.33399963 100.00000000 17.50000000
v -193.33399963 100.00000000 25.00000000
v -193.43447876 99.43019104 25.00000000
v -193.72377014 98.92911530 25.00000000
v -193.33399963 100.00000000 10.00000000
v -193.33399963 100.00000000 17.50000000
v -193.43447876 100.56980896 10.00000000
v -193.43447876 100.56980896 17.50000000
v -193.72377014 101.07088470 10.00000000
v -193.72377014 101.07088470 17.50000000
v -193.72377014 101.07088470 25.00000000
v -193.43447876 100.56980896 25.00000000
v -193.33399963 100.00000000 25.00000000
v -193.72377014 101.07088470 10.00000000
v -193.72377014 101.07088470 17.50000000
v -194.16700745 101.44279480 10.00000000
v -194.16700745 101.44279480 17.50000000
v -194.71070862 101.64068604 10.00000000
v -194.71070862 101.64068604 17.50000000
v -194.71070862 101.64068604 25.00000000
v -194.16700745 101.44279480 25.00000000
v -193.72377014 101.07088470 25.00000000
v -194.71070862 101.64068604 10.00000000
v -194.71070862 101.64068604 17.50000000
v -195.28929138 101.64068604 10.00000000
v -195.28929138 101.64068604 17.50000000
v -195.28929138 101.64068604 25.00000000
v -194.71070862 101.64068604 25.00000000
v -195.28929138 101.64068604 10.00000000
v -195.28929138 101.64068604 17.50000000
v -195.83299255 101.44279480 10.00000000
v -195.83299255 101.44279480 17.50000000
v -196.27622986 101.07088470 10.00000000
v -196.27622986 101.07088470 17.50000000
v -196.27622986 101.07088470 25.00000000
v -195.83299255 101.44279480 25.00000000
v -195.28929138 101.64068604 25.00000000
v -196.56552124 99.43019104 25.00000000
v -196.66600037 100.00000000 25.00000000
v -196.56552124 100.56980896 25.00000000
v -196.27622986 101.07088470 25.00000000
v -195.83299255 101.44279480 25.00000000
v -195.28929138 101.64068604 25.00000000
v -194.71070862 101.64068604 25.00000000
v -194.16700745 101.44279480 25.00000000
v -193.72377014 101.07088470 25.00000000
v -193.43447876 100.56980896 25.00000000
v -193.33399963 100.00000000 25.00000000
v -193.43447876 99.43019104 25.00000000
v -193.72377014 98.92911530 25.00000000
v -194.16700745 98.55720520 25.00000000
v -194.71070862 98.35931396 25.00000000
v -195.28929138 98.35931396 25.00000000
v -195.83299255 98.55720520 25.00000000
v -196.27622986 98.92911530 25.00000000
v -196.56552124 40.56980515 10.00000000
v -196.56552124 40.56980515 17.50000000
v -196.66600037 40.00000000 10.00000000
v -196.66600037 40.00000000 17.50000000
v -196.27622986 41.07088470 10.00000000
v -196.27622986 41.07088470 17.50000000
v -196.66600037 40.00000000 25.00000000
v -196.56552124 40.56980515 25.00000000
v -196.27622986 41.07088470 25.00000000
v -196.66600037 40.00000000 10.00000000
v -196.66600037 40.00000000 17.50000000
v -196.56552124 39.43019485 10.00000000
v -196.56552124 39.43019485 17.50000000
v -196.27622986 38.92911530 10.00000000
v -196.27622986 38.92911530 17.50000000
v -196.56552124 39.43019485 25.00000000
v -196.66600037 40.00000000 25.00000000
v -196.27622986 38.92911530 25.00000000
v -196.27622986 38.92911530 10.00000000
v -196.27622986 38.92911530 17.50000000
v -195.83299255 38.55720139 10.00000000
v -195.83299255 38.55720139 17.50000000
v -195.28929138 38.35931015 10.00000000
v -195.28929138 38.35931015 17.50000000
v -195.28929138 38.35931015 25.00000000
v -195.83299255 38.55720139 25.00000000
v -196.27622986 38.92911530 25.00000000
v -195.28929138 38.35931015 10.00000000
v -195.28929138 38.35931015 17.50000000
v -194.71070862 38.35931015 10.00000000
v -194.71070862 38.35931015 17.50000000
v -194.71070862 38.35931015 25.00000000
v -195.28929138 38.35931015 25.00000000
v -194.71070862 38.35931015 10.00000000
v -194.71070862 38.35931015 17.50000000
v -194.16700745 38.55720139 10.00000000
v -194.16700745 38.55720139 17.50000000
v -193.72377014 38.92911530 10.00000000
v -193.72377014 38.92911530 17.50000000
v -193.72377014 38.92911530 25.00000000
v -194.16700745 38.55720139 25.00000000
v -194.71070862 38.35931015 25.00000000
v -193.72377014 38.92911530 10.00000000
v -193.72377014 38.92911530 17.50000000
v -193.43447876 39.43019485 10.00000000
v -193.43447876 39.43019485 17.50000000
v -193.33399963 40.00000000 10.00000000
v -193.33399963 40.00000000 17.50000000
v -193.33399963 40.00000000 25.00000000
v -193.43447876 39.43019485 25.00000000
v -193.72377014 38.92911530 25.00000000
v -193.33399963 40.00000000 10.00000000
v -193.33399963 40.00000000 17.50000000
v -193.43447876 40.56980515 10.00000000
v -193.43447876 40.56980515 17.50000000
v -193.72377014 41.07088470 10.00000000
v -193.72377014 41.07088470 17.50000000
v -193.72377014 41.07088470 25.00000000
v -193.43447876 40.56980515 25.00000000
v -193.33399963 40.00000000 25.00000000
v -193.72377014 41.07088470 10.00000000
v -193.72377014 41.07088470 17.50000000
v -194.16700745 41.44279861 10.00000000
v -194.16700745 41.44279861 17.50000000
v -194.71070862 41.64068985 10.00000000
v -194.71070862 41.64068985 17.50000000
v -194.71070862 41.64068985 25.00000000
v -194.16700745 41.44279861 25.00000000
v -193.72377014 41.07088470 25.00000000
v -194.71070862 41.64068985 10.00000000
v -194.71070862 41.64068985 17.50000000
v -195.28929138 41.64068985 10.00000000
v -195.28929138 41.64068985 17.50000000
v -195.28929138 41.64068985 25.00000000
v -194.71070862 41.64068985 25.00000000
v -195.28929138 41.64068985 10.00000000
v -195.28929138 41.64068985 17.50000000
v -195.83299255 41.44279861 10.00000000
v -195.83299255 41.44279861 17.50000000
v -196.27622986 41.07088470 10.00000000
v -196.27622986 41.07088470 17.50000000
v -196.27622986 41.07088470 25.00000000
v -195.83299255 41.44279861 25.00000000
v -195.28929138 41.64068985 25.00000000
v -196.56552124 39.43019485 25.00000000
v -196.66600037 40.00000000 25.00000000
v -196.56552124 40.56980515 25.00000000
v -196.27622986 41.07088470 25.00000000
v -195.83299255 41.44279861 25.00000000
v -195.28929138 41.64068985 25.00000000
v -194.71070862 41.64068985 25.00000000
v -194.16700745 41.44279861 25.00000000
v -193.72377014 41.07088470 25.00000000
v -193.43447876 40.56980515 25.00000000
v -193.33399963 40.00000000 25.00000000
v -193.43447876 39.43019485 25.00000000
v -193.72377014 38.92911530 25.00000000
v -194.16700745 38.55720139 25.00000000
v -194.71070862 38.35931015 25.00000000
v -195.28929138 38.35931015 25.00000000
v -195.83299255 38.55720139 25.00000000
v -196.27622986 38.92911530 25.00000000
v -193.43447876 135.00000000 94.43019104
v -193.43447876 127.50000000 94.43019104
v -193.33399963 135.00000000 95.00000000
v -193.33399963 127.50000000 95.00000000
v -193.72377014 135.00000000 93.92911530
v -193.72377014 127.50000000 93.92911530
v -193.33399963 120.00000000 95.00000000
v -193.43447876 120.00000000 94.43019104
v -193.72377014 120.00000000 93.92911530
v -193.33399963 135.00000000 95.00000000
v -193.33399963 127.50000000 95.00000000
v -193.43447876 135.00000000 95.56980896
v -193.43447876 127.50000000 95.56980896
v -193.72377014 135.00000000 96.07088470
v -193.72377014 127.50000000 96.07088470
v -193.43447876 120.00000000 95.56980896
v -193.33399963 120.00000000 95.00000000
v -193.72377014 120.00000000 96.07088470
v -193.72377014 135.00000000 96.07088470
v -193.72377014 127.50000000 96.07088470
v -194.16700745 135.00000000 96.44279480
v -194.16700745 127.50000000 96.44279480
v -194.71070862 135.00000000 96.64068604
v -194.71070862 127.50000000 96.64068604
v -194.71070862 120.00000000 96.64068604
v -194.16700745 120.00000000 96.44279480
v -193.72377014 120.00000000 96.07088470
v -194.71070862 135.00000000 96.64068604
v -194.71070862 127.50000000 96.64068604
v -195.28929138 135.00000000 96.64068604
v -195.28929138 127.50000000 96.64068604
v -195.28929138 120.00000000 96.64068604
v -194.71070862 120.00000000 96.64068604
v -195.28929138 135.00000000 96.64068604
v -195.28929138 127.50000000 96.64068604
v -195.83299255 135.00000000 96.44279480
v -195.83299255 127.50000000 96.44279480
v -196.27622986 135.00000000 96.07088470
v -196.27622986 127.50000000 96.07088470
v -196.27622986 120.00000000 96.07088470
v -195.83299255 120.00000000 96.44279480
v -195.28929138 120.00000000 96.64068604
v -196.27622986 135.00000000 96.07088470
v -196.27622986 127.50000000 96.07088470
v -196.56552124 135.00000000 95.56980896
v -196.56552124 127.50000000 95.56980896
v -196.66600037 135.00000000 95.00000000
v -196.66600037 127.50000000 95.00000000
v -196.66600037 120.00000000 95.00000000
v -196.56552124 120.00000000 95.56980896
v -196.27622986 120.00000000 96.07088470
v -196.66600037 135.00000000 95.00000000
v -196.66600037 127.50000000 95.00000000
v -196.56552124 135.00000000 94.43019104
v -196.56552124 127.50000000 94.43019104
v -196.27622986 135.00000000 93.92911530
v -196.27622986 127.50000000 93.92911530
v -196.27622986 120.00000000 93.92911530
v -196.56552124 120.00000000 94.43019104
v -196.66600037 120.00000000 95.00000000
v -196.27622986 135.00000000 93.92911530
v -196.27622986 127.50000000 93.92911530
v -195.83299255 135.00000000 93.55720520
v -195.83299255 127.50000000 93.55720520
v -195.28929138 135.00000000 93.35931396
v -195.28929138 127.50000000 93.35931396
v -195.28929138 120.00000000 93.35931396
v -195.83299255 120.00000000 93.55720520
v -196.27622986 120.00000000 93.92911530
v -195.28929138 135.00000000 93.35931396
v -195.28929138 127.50000000 93.35931396
v -194.71070862 135.00000000 93.35931396
v -194.71070862 127.50000000 93.35931396
v -194.71070862 120.00000000 93.35931396
v -195.28929138 120.00000000 93.35931396
v -194.71070862 135.00000000 93.35931396
v -194.71070862 127.50000000 93.35931396
v -194.16700745 135.00000000 93.55720520
v -194.16700745 127.50000000 93.55720520
v -193.72377014 135.00000000 93.92911530
v -193.72377014 127.50000000 93.92911530
v -193.72377014 120.00000000 93.92911530
v -194.16700745 120.00000000 93.55720520
v -194.71070862 120.00000000 93.35931396
v -193.43447876 120.00000000 95.56980896
v -193.33399963 120.00000000 95.00000000
v -193.43447876 120.00000000 94.43019104
v -193.72377014 120.00000000 93.92911530
v -194.16700745 120.00000000 93.55720520
v -194.71070862 120.00000000 93.35931396
v -195.28929138 120.00000000 93.35931396
v -195.83299255 120.00000000 93.55720520
v -196.27622986 120.00000000 93.92911530
v -196.56552124 120.00000000 94.43019104
v -196.66600037 120.00000000 95.00000000
v -196.56552124 120.00000000 95.56980896
v -196.27622986 120.00000000 96.07088470
v -195.83299255 120.00000000 96.44279480
v -195.28929138 120.00000000 96.64068604
v -194.71070862 120.00000000 96.64068604
v -194.16700745 120.00000000 96.44279480
v -193.72377014 120.00000000 96.07088470
v -193.43447876 135.00000000 54.43019485
v -193.43447876 127.50000000 54.43019485
v -193.33399963 135.00000000 55.00000000
v -193.33399963 127.50000000 55.00000000
v -193.72377014 135.00000000 53.92911530
v -193.72377014 127.50000000 53.92911530
v -193.33399963 120.00000000 55.00000000
v -193.43447876 120.00000000 54.43019485
v -193.72377014 120.00000000 53.92911530
v -193.33399963 135.00000000 55.00000000
v -193.33399963 127.50000000 55.00000000
v -193.43447876 135.00000000 55.56980515
v -193.43447876 127.50000000 55.56980515
v -193.72377014 135.00000000 56.07088470
v -193.72377014 127.50000000 56.07088470
v -193.43447876 120.00000000 55.56980515
v -193.33399963 120.00000000 55.00000000
v -193.72377014 120.00000000 56.07088470
v -193.72377014 135.00000000 56.07088470
v -193.72377014 127.50000000 56.07088470
v -194.16700745 135.00000000 56.44279861
v -194.16700745 127.50000000 56.44279861
v -194.71070862 135.00000000 56.64068985
v -194.71070862 127.50000000 56.64068985
v -194.71070862 120.00000000 56.64068985
v -194.16700745 120.00000000 56.44279861
v -193.72377014 120.00000000 56.07088470
v -194.71070862 135.00000000 56.64068985
v -194.71070862 127.50000000 56.64068985
v -195.28929138 135.00000000 56.64068985
v -195.28929138 127.50000000 56.64068985
v -195.28929138 120.00000000 56.64068985
v -194.71070862 120.00000000 56.64068985
v -195.28929138 135.00000000 56.64068985
v -195.28929138 127.50000000 56.64068985
v -195.83299255 135.00000000 56.44279861
v -195.83299255 127.50000000 56.44279861
v -196.27622986 135.00000000 56.07088470
v -196.27622986 127.50000000 56.07088470
v -196.27622986 120.00000000 56.07088470
v -195.83299255 120.00000000 56.44279861
v -195.28929138 120.00000000 56.64068985
v -196.27622986 135.00000000 56.07088470
v -196.27622986 127.50000000 56.07088470
v -196.56552124 135.00000000 55.56980515
v -196.56552124 127.50000000 55.56980515
v -196.66600037 135.00000000 55.00000000
v -196.66600037 127.50000000 55.00000000
v -196.66600037 120.00000000 55.00000000
v -196.56552124 120.00000000 55.56980515
v -196.27622986 120.00000000 56.07088470
v -196.66600037 135.00000000 55.00000000
v -196.66600037 127.50000000 55.00000000
v -196.56552124 135.00000000 54.43019485
v -196.56552124 127.50000000 54.43019485
v -196.27622986 135.00000000 53.92911530
v -196.27622986 127.50000000 53.92911530
v -196.27622986 120.00000000 53.92911530
v -196.56552124 120.00000000 54.43019485
v -196.66600037 120.00000000 55.00000000
v -196.27622986 135.00000000 53.92911530
v -196.27622986 127.50000000 53.92911530
v -195.83299255 135.00000000 53.55720139
v -195.83299255 127.50000000 53.55720139
v -195.28929138 135.00000000 53.35931015
v -195.28929138 127.50000000 53.35931015
v -195.28929138 120.00000000 53.35931015
v -195.83299255 120.00000000 53.55720139
v -196.27622986 120.00000000 53.92911530
v -195.28929138 135.00000000 53.35931015
v -195.28929138 127.50000000 53.35931015
v -194.71070862 135.00000000 53.35931015
v -194.71070862 127.50000000 53.35931015
v -194.71070862 120.00000000 53.35931015
v -195.28929138 120.00000000 53.35931015
v -194.71070862 135.00000000 53.35931015
v -194.71070862 127.50000000 53.35931015
v -194.16700745 135.00000000 53.55720139
v -194.16700745 127.50000000 53.55720139
v -193.72377014 135.00000000 53.92911530
v -193.72377014 127.50000000 53.92911530
v -193.72377014 120.00000000 53.92911530
v -194.16700745 120.00000000 53.55720139
v -194.71070862 120.00000000 53.35931015
v -193.43447876 120.00000000 55.56980515
v -193.33399963 120.00000000 55.00000000
v -193.43447876 120.00000000 54.43019485
v -193.72377014 120.00000000 53.92911530
v -194.16700745 120.00000000 53.55720139
v -194.71070862 120.00000000 53.35931015
v -195.28929138 120.00000000 53.35931015
v -195.83299255 120.00000000 53.55720139
v -196.27622986 120.00000000 53.92911530
v -196.56552124 120.00000000 54.43019485
v -196.66600037 120.00000000 55.00000000
v -196.56552124 120.00000000 55.56980515
v -196.27622986 120.00000000 56.07088470
v -195.83299255 120.00000000 56.44279861
v -195.28929138 120.00000000 56.64068985
v -194.71070862 120.00000000 56.64068985
v -194.16700745 120.00000000 56.44279861
v -193.72377014 120.00000000 56.07088470
v -196.56552124 10.00000000 94.43019104
v -196.56552124 17.50000000 94.43019104
v -196.66600037 10.00000000 95.00000000
v -196.66600037 17.50000000 95.00000000
v -196.27622986 10.00000000 93.92911530
v -196.27622986 17.50000000 93.92911530
v -196.66600037 25.00000000 95.00000000
v -196.56552124 25.00000000 94.43019104
v -196.27622986 25.00000000 93.92911530
v -196.66600037 10.00000000 95.00000000
v -196.66600037 17.50000000 95.00000000
v -196.56552124 10.00000000 95.56980896
v -196.56552124 17.50000000 95.56980896
v -196.27622986 10.00000000 96.07088470
v -196.27622986 17.50000000 96.07088470
v -196.56552124 25.00000000 95.56980896
v -196.66600037 25.00000000 95.00000000
v -196.27622986 25.00000000 96.07088470
v -196.27622986 10.00000000 96.07088470
v -196.27622986 17.50000000 96.07088470
v -195.83299255 10.00000000 96.44279480
v -195.83299255 17.50000000 96.44279480
v -195.28929138 10.00000000 96.64068604
v -195.28929138 17.50000000 96.64068604
v -195.28929138 25.00000000 96.64068604
v -195.83299255 25.00000000 96.44279480
v -196.27622986 25.00000000 96.07088470
v -195.28929138 10.00000000 96.64068604
v -195.28929138 17.50000000 96.64068604
v -194.71070862 10.00000000 96.64068604
v -194.71070862 17.50000000 96.64068604
v -194.71070862 25.00000000 96.64068604
v -195.28929138 25.00000000 96.64068604
v -194.71070862 10.00000000 96.64068604
v -194.71070862 17.50000000 96.64068604
v -194.16700745 10.00000000 96.44279480
v -194.16700745 17.50000000 96.44279480
v -193.72377014 10.00000000 96.07088470
v -193.72377014 17.50000000 96.07088470
v -193.72377014 25.00000000 96.07088470
v -194.16700745 25.00000000 96.44279480
v -194.71070862 25.00000000 96.64068604
v -193.72377014 10.00000000 96.07088470
v -193.72377014 17.50000000 96.07088470
v -193.43447876 10.00000000 95.56980896
v -193.43447876 17.50000000 95.56980896
v -193.33399963 10.00000000 95.00000000
v -193.33399963 17.50000000 95.00000000
v -193.33399963 25.00000000 95.00000000
v -193.43447876 25.00000000 95.56980896
v -193.72377014 25.00000000 96.07088470
v -193.33399963 10.00000000 95.00000000
v -193.33399963 17.50000000 95.00000000
v -193.43447876 10.00000000 94.43019104
v -193.43447876 17.50000000 94.43019104
v -193.72377014 10.00000000 93.92911530
v -193.72377014 17.50000000 93.92911530
v -193.72377014 25.00000000 93.92911530
v -193.43447876 25.00000000 94.43019104
v -193.33399963 25.00000000 95.00000000
v -193.72377014 10.00000000 93.92911530
v -193.72377014 17.50000000 93.92911530
v -194.16700745 10.00000000 93.55720520
v -194.16700745 17.50000000 93.55720520
v -194.71070862 10.00000000 93.35931396
v -194.71070862 17.50000000 93.35931396
v -194.71070862 25.00000000 93.35931396
v -194.16700745 25.00000000 93.55720520
v -193.72377014 25.00000000 93.92911530
v -194.71070862 10.00000000 93.35931396
v -194.71070862 17.50000000 93.35931396
v -195.28929138 10.00000000 93.35931396
v -195.28929138 17.50000000 93.35931396
v -195.28929138 25.00000000 93.35931396
v -194.71070862 25.00000000 93.35931396
v -195.28929138 10.00000000 93.35931396
v -195.28929138 17.50000000 93.35931396
v -195.83299255 10.00000000 93.55720520
v -195.83299255 17.50000000 93.55720520
v -196.27622986 10.00000000 93.92911530
v -196.27622986 17.50000000 93.92911530
v -196.27622986 25.00000000 93.92911530
v -195.83299255 25.00000000 93.55720520
v -195.28929138 25.00000000 93.35931396
v -196.56552124 25.00000000 95.56980896
v -196.66600037 25.00000000 95.00000000
v -196.56552124 25.00000000 94.43019104
v -196.27622986 25.00000000 93.92911530
v -195.83299255 25.00000000 93.55720520
v -195.28929138 25.00000000 93.35931396
v -194.71070862 25.00000000 93.35931396
v -194.16700745 25.00000000 93.55720520
v -193.72377014 25.00000000 93.92911530
v -193.43447876 25.00000000 94.43019104
v -193.33399963 25.00000000 95.00000000
v -193.43447876 25.00000000 95.56980896
v -193.72377014 25.00000000 96.07088470
v -194.16700745 25.00000000 96.44279480
v -194.71070862 25.00000000 96.64068604
v -195.28929138 25.00000000 96.64068604
v -195.83299255 25.00000000 96.44279480
v -196.27622986 25.00000000 96.07088470
v -196.56552124 10.00000000 54.43019485
v -196.56552124 17.50000000 54.43019485
v -196.66600037 10.00000000 55.00000000
v -196.66600037 17.50000000 55.00000000
v -196.27622986 10.00000000 53.92911530
v -196.27622986 17.50000000 53.92911530
v -196.66600037 25.00000000 55.00000000
v -196.56552124 25.00000000 54.43019485
v -196.27622986 25.00000000 53.92911530
v -196.66600037 10.00000000 55.00000000
v -196.66600037 17.50000000 55.00000000
v -196.56552124 10.00000000 55.56980515
v -196.56552124 17.50000000 55.56980515
v -196.27622986 10.00000000 56.07088470
v -196.27622986 17.50000000 56.07088470
v -196.56552124 25.00000000 55.56980515
v -196.66600037 25.00000000 55.00000000
v -196.27622986 25.00000000 56.07088470
v -196.27622986 10.00000000 56.07088470
v -196.27622986 17.50000000 56.07088470
v -195.83299255 10.00000000 56.44279861
v -195.83299255 17.50000000 56.44279861
v -195.28929138 10.00000000 56.64068985
v -195.28929138 17.50000000 56.64068985
v -195.28929138 25.00000000 56.64068985
v -195.83299255 25.00000000 56.44279861
v -196.27622986 25.00000000 56.07088470
v -195.28929138 10.00000000 56.64068985
v -195.28929138 17.50000000 56.64068985
v -194.71070862 10.00000000 56.64068985
v -194.71070862 17.50000000 56.64068985
v -194.71070862 25.00000000 56.64068985
v -195.28929138 25.00000000 56.64068985
v -194.71070862 10.00000000 56.64068985
v -194.71070862 17.50000000 56.64068985
v -194.16700745 10.00000000 56.44279861
v -194.16700745 17.50000000 56.44279861
v -193.72377014 10.00000000 56.07088470
v -193.72377014 17.50000000 56.07088470
v -193.72377014 25.00000000 56.07088470
v -194.16700745 25.00000000 56.44279861
v -194.71070862 25.00000000 56.64068985
v -193.72377014 10.00000000 56.07088470
v -193.72377014 17.50000000 56.07088470
v -193.43447876 10.00000000 55.56980515
v -193.43447876 17.50000000 55.56980515
v -193.33399963 10.00000000 55.00000000
v -193.33399963 17.50000000 55.00000000
v -193.33399963 25.00000000 55.00000000
v -193.43447876 25.00000000 55.56980515
v -193.72377014 25.00000000 56.07088470
v -193.33399963 10.00000000 55.00000000
v -193.33399963 17.50000000 55.00000000
v -193.43447876 10.00000000 54.43019485
v -193.43447876 17.50000000 54.43019485
v -193.72377014 10.00000000 53.92911530
v -193.72377014 17.50000000 53.92911530
v -193.72377014 25.00000000 53.92911530
v -193.43447876 25.00000000 54.43019485
v -193.33399963 25.00000000 55.00000000
v -193.72377014 10.00000000 53.92911530
v -193.72377014 17.50000000 53.92911530
v -194.16700745 10.00000000 53.55720139
v -194.16700745 17.50000000 53.55720139
v -194.71070862 10.00000000 53.35931015
v -194.71070862 17.50000000 53.35931015
v -194.71070862 25.00000000 53.35931015
v -194.16700745 25.00000000 53.55720139
v -193.72377014 25.00000000 53.92911530
v -194.71070862 10.00000000 53.35931015
v -194.71070862 17.50000000 53.35931015
v -195.28929138 10.00000000 53.35931015
v -195.28929138 17.50000000 53.35931015
v -195.28929138 25.00000000 53.35931015
v -194.71070862 25.00000000 53.35931015
v -195.28929138 10.00000000 53.35931015
v -195.28929138 17.50000000 53.35931015
v -195.83299255 10.00000000 53.55720139
v -195.83299255 17.50000000 53.55720139
v -196.27622986 10.00000000 53.92911530
v -196.27622986 17.50000000 53.92911530
v -196.27622986 25.00000000 53.92911530
v -195.83299255 25.00000000 53.55720139
v -195.28929138 25.00000000 53.35931015
v -196.56552124 25.00000000 55.56980515
v -196.66600037 25.00000000 55.00000000
v -196.56552124 25.00000000 54.43019485
v -196.27622986 25.00000000 53.92911530
v -195.83299255 25.00000000 53.55720139
v -195.28929138 25.00000000 53.35931015
v -194.71070862 25.00000000 53.35931015
v -194.16700745 25.00000000 53.55720139
v -193.72377014 25.00000000 53.92911530
v -193.43447876 25.00000000 54.43019485
v -193.33399963 25.00000000 55.00000000
v -193.43447876 25.00000000 55.56980515
v -193.72377014 25.00000000 56.07088470
v -194.16700745 25.00000000 56.44279861
v -194.71070862 25.00000000 56.64068985
v -195.28929138 25.00000000 56.64068985
v -195.83299255 25.00000000 56.44279861
v -196.27622986 25.00000000 56.07088470
v -193.43447876 100.56980896 130.00000000
v -193.43447876 100.56980896 122.50000000
v -193.33399963 100.00000000 130.00000000
v -193.33399963 100.00000000 122.50000000
v -193.72377014 101.07088470 130.00000000
v -193.72377014 101.07088470 122.50000000
v -193.33399963 100.00000000 115.00000000
v -193.43447876 100.56980896 115.00000000
v -193.72377014 101.07088470 115.00000000
v -193.33399963 100.00000000 130.00000000
v -193.33399963 100.00000000 122.50000000
v -193.43447876 99.43019104 130.00000000
v -193.43447876 99.43019104 122.50000000
v -193.72377014 98.92911530 130.00000000
v -193.72377014 98.92911530 122.50000000
v -193.43447876 99.43019104 115.00000000
v -193.33399963 100.00000000 115.00000000
v -193.72377014 98.92911530 115.00000000
v -193.72377014 98.92911530 130.00000000
v -193.72377014 98.92911530 122.50000000
v -194.16700745 98.55720520 130.00000000
v -194.16700745 98.55720520 122.50000000
v -194.71070862 98.35931396 130.00000000
v -194.71070862 98.35931396 122.50000000
v -194.71070862 98.35931396 115.00000000
v -194.16700745 98.55720520 115.00000000
v -193.72377014 98.92911530 115.00000000
v -194.71070862 98.35931396 130.00000000
v -194.71070862 98.35931396 122.50000000
v -195.28929138 98.35931396 130.00000000
v -195.28929138 98.35931396 122.50000000
v -195.28929138 98.35931396 115.00000000
v -194.71070862 98.35931396 115.00000000
v -195.28929138 98.35931396 130.00000000
v -195.28929138 98.35931396 122.50000000
v -195.83299255 98.55720520 130.00000000
v -195.83299255 98.55720520 122.50000000
v -196.27622986 98.92911530 130.00000000
v -196.27622986 98.92911530 122.50000000
v -196.27622986 98.92911530 115.00000000
v -195.83299255 98.55720520 115.00000000
v -195.28929138 98.35931396 115.00000000
v -196.27622986 98.92911530 130.00000000
v -196.27622986 98.92911530 122.50000000
v -196.56552124 99.43019104 130.00000000
v -196.56552124 99.43019104 122.50000000
v -196.66600037 100.00000000 130.00000000
v -196.66600037 100.00000000 122.50000000
v -196.66600037 100.00000000 115.00000000
v -196.56552124 99.43019104 115.00000000
v -196.27622986 98.92911530 115.00000000
v -196.66600037 100.00000000 130.00000000
v -196.66600037 100.00000000 122.50000000
v -196.56552124 100.56980896 130.00000000
v -196.56552124 100.56980896 122.50000000
v -196.27622986 101.07088470 130.00000000
v -196.27622986 101.07088470 122.50000000
v -196.27622986 101.07088470 115.00000000
v -196.56552124 100.56980896 115.00000000
v -196.66600037 100.00000000 115.00000000
v -196.27622986 101.07088470 130.00000000
v -196.27622986 101.07088470 122.50000000
v -195.83299255 101.44279480 130.00000000
v -195.83299255 101.44279480 122.50000000
v -195.28929138 101.64068604 130.00000000
v -195.28929138 101.64068604 122.50000000
v -195.28929138 101.64068604 115.00000000
v -195.83299255 101.44279480 115.00000000
v -196.27622986 101.07088470 115.00000000
v -195.28929138 101.64068604 130.00000000
v -195.28929138 101.64068604 122.50000000
v -194.71070862 101.64068604 130.00000000
v -194.71070862 101.64068604 122.50000000
v -194.71070862 101.64068604 115.00000000
v -195.28929138 101.64068604 115.00000000
v -194.71070862 101.64068604 130.00000000
v -194.71070862 101.64068604 122.50000000
v -194.16700745 101.44279480 130.00000000
v -194.16700745 101.44279480 122.50000000
v -193.72377014 101.07088470 130.00000000
v -193.72377014 101.07088470 122.50000000
v -193.72377014 101.07088470 115.00000000
v -194.16700745 101.44279480 115.00000000
v -194.71070862 101.64068604 115.00000000
v -193.43447876 99.43019104 115.00000000
v -193.33399963 100.00000000 115.00000000
v -193.43447876 100.56980896 115.00000000
v -193.72377014 101.07088470 115.00000000
v -194.16700745 101.44279480 115.00000000
v -194.71070862 101.64068604 115.00000000
v -195.28929138 101.64068604 115.00000000
v -195.83299255 101.44279480 115.00000000
v -196.27622986 101.07088470 115.00000000
v -196.56552124 100.56980896 115.00000000
v -196.66600037 100.00000000 115.00000000
v -196.56552124 99.43019104 115.00000000
v -196.27622986 98.92911530 115.00000000
v -195.83299255 98.55720520 115.00000000
v -195.28929138 98.35931396 115.00000000
v -194.71070862 98.35931396 115.00000000
v -194.16700745 98.55720520 115.00000000
v -193.72377014 98.92911530 115.00000000
v -193.43447876 40.56980515 130.00000000
v -193.43447876 40.56980515 122.50000000
v -193.33399963 40.00000000 130.00000000
v -193.33399963 40.00000000 122.50000000
v -193.72377014 41.07088470 130.00000000
v -193.72377014 41.07088470 122.50000000
v -193.33399963 40.00000000 115.00000000
v -193.43447876 40.56980515 115.00000000
v -193.72377014 41.07088470 115.00000000
v -193.33399963 40.00000000 130.00000000
v -193.33399963 40.00000000 122.50000000
v -193.43447876 39.43019485 130.00000000
v -193.43447876 39.43019485 122.50000000
v -193.72377014 38.92911530 130.00000000
v -193.72377014 38.92911530 122.50000000
v -193.43447876 39.43019485 115.00000000
v -193.33399963 40.00000000 115.00000000
v -193.72377014 38.92911530 115.00000000
v -193.72377014 38.92911530 130.00000000
v -193.72377014 38.92911530 122.50000000
v -194.16700745 38.55720139 130.00000000
v -194.16700745 38.55720139 122.50000000
v -194.71070862 38.35931015 130.00000000
v -194.71070862 38.35931015 122.50000000
v -194.71070862 38.35931015 115.00000000
v -194.16700745 38.55720139 115.00000000
v -193.72377014 38.92911530 115.00000000
v -194.71070862 38.35931015 130.00000000
v -194.71070862 38.35931015 122.50000000
v -195.28929138 38.35931015 130.00000000
v -195.28929138 38.35931015 122.50000000
v -195.28929138 38.35931015 115.00000000
v -194.71070862 38.35931015 115.00000000
v -195.28929138 38.35931015 130.00000000
v -195.28929138 38.35931015 122.50000000
v -195.83299255 38.55720139 130.00000000
v -195.83299255 38.55720139 122.50000000
v -196.27622986 38.92911530 130.00000000
v -196.27622986 38.92911530 122.50000000
v -196.27622986 38.92911530 115.00000000
v -195.83299255 38.55720139 115.00000000
v -195.28929138 38.35931015 115.00000000
v -196.27622986 38.92911530 130.00000000
v -196.27622986 38.92911530 122.50000000
v -196.56552124 39.43019485 130.00000000
v -196.56552124 39.43019485 122.50000000
v -196.66600037 40.00000000 130.00000000
v -196.66600037 40.00000000 122.50000000
v -196.66600037 40.00000000 115.00000000
v -196.56552124 39.43019485 115.00000000
v -196.27622986 38.92911530 115.00000000
v -196.66600037 40.00000000 130.00000000
v -196.66600037 40.00000000 122.50000000
v -196.56552124 40.56980515 130.00000000
v -196.56552124 40.56980515 122.50000000
v -196.27622986 41.07088470 130.00000000
v -196.27622986 41.07088470 122.50000000
v -196.27622986 41.07088470 115.00000000
v -196.56552124 40.56980515 115.00000000
v -196.66600037 40.00000000 115.00000000
v -196.27622986 41.07088470 130.00000000
v -196.27622986 41.07088470 122.50000000
v -195.83299255 41.44279861 130.00000000
v -195.83299255 41.44279861 122.50000000
v -195.28929138 41.64068985 130.00000000
v -195.28929138 41.64068985 122.50000000
v -195.28929138 41.64068985 115.00000000
v -195.83299255 41.44279861 115.00000000
v -196.27622986 41.07088470 115.00000000
v -195.28929138 41.64068985 130.00000000
v -195.28929138 41.64068985 122.50000000
v -194.71070862 41.64068985 130.00000000
v -194.71070862 41.64068985 122.50000000
v -194.71070862 41.64068985 115.00000000
v -195.28929138 41.64068985 115.00000000
v -194.71070862 41.64068985 130.00000000
v -194.71070862 41.64068985 122.50000000
v -194.16700745 41.44279861 130.00000000
v -194.16700745 41.44279861 122.50000000
v -193.72377014 41.07088470 130.00000000
v -193.72377014 41.07088470 122.50000000
v -193.72377014 41.07088470 115.00000000
v -194.16700745 41.44279861 115.00000000
v -194.71070862 41.64068985 115.00000000
v -193.43447876 39.43019485 115.00000000
v -193.33399963 40.00000000 115.00000000
v -193.43447876 40.56980515 115.00000000
v -193.72377014 41.07088470 115.00000000
v -194.16700745 41.44279861 115.00000000
v -194.71070862 41.64068985 115.00000000
v -195.28929138 41.64068985 115.00000000
v -195.83299255 41.44279861 115.00000000
v -196.27622986 41.07088470 115.00000000
v -196.56552124 40.56980515 115.00000000
v -196.66600037 40.00000000 115.00000000
v -196.56552124 39.43019485 115.00000000
v -196.27622986 38.92911530 115.00000000
v -195.83299255 38.55720139 115.00000000
v -195.28929138 38.35931015 115.00000000
v -194.71070862 38.35931015 115.00000000
v -194.16700745 38.55720139 115.00000000
v -193.72377014 38.92911530 115.00000000
v -196.56552124 100.56980896 10.00000000
v -196.66600037 100.00000000 10.00000000
v -196.56552124 99.43019104 10.00000000
v -196.27622986 98.92911530 10.00000000
v -195.83299255 98.55720520 10.00000000
v -195.28929138 98.35931396 10.00000000
v -194.71070862 98.35931396 10.00000000
v -194.16700745 98.55720520 10.00000000
v -193.72377014 98.92911530 10.00000000
v -193.43447876 99.43019104 10.00000000
v -193.33399963 100.00000000 10.00000000
v -193.43447876 100.56980896 10.00000000
v -193.72377014 101.07088470 10.00000000
v -194.16700745 101.44279480 10.00000000
v -194.71070862 101.64068604 10.00000000
v -195.28929138 101.64068604 10.00000000
v -195.83299255 101.44279480 10.00000000
v -196.27622986 101.07088470 10.00000000
v -196.56552124 40.56980515 10.00000000
v -196.66600037 40.00000000 10.00000000
v -196.56552124 39.43019485 10.00000000
v -196.27622986 38.92911530 10.00000000
v -195.83299255 38.55720139 10.00000000
v -195.28929138 38.35931015 10.00000000
v -194.71070862 38.35931015 10.00000000
v -194.16700745 38.55720139 10.00000000
v -193.72377014 38.92911530 10.00000000
v -193.43447876 39.43019485 10.00000000
v -193.33399963 40.00000000 10.00000000
v -193.43447876 40.56980515 10.00000000
v -193.72377014 41.07088470 10.00000000
v -194.16700745 41.44279861 10.00000000
v -194.71070862 41.64068985 10.00000000
v -195.28929138 41.64068985 10.00000000
v -195.83299255 41.44279861 10.00000000
v -196.27622986 41.07088470 10.00000000
v -190.00000000 10.00000000 10.00000000
v -190.00000000 135.00000000 10.00000000
v -200.00000000 10.00000000 10.00000000
v -200.00000000 135.00000000 10.00000000
v -193.43447876 100.56980896 130.00000000
v -193.33399963 100.00000000 130.00000000
v -193.43447876 99.43019104 130.00000000
v -193.72377014 98.92911530 130.00000000
v -194.16700745 98.55720520 130.00000000
v -194.71070862 98.35931396 130.00000000
v -195.28929138 98.35931396 130.00000000
v -195.83299255 98.55720520 130.00000000
v -196.27622986 98.92911530 130.00000000
v -196.56552124 99.43019104 130.00000000
v -196.66600037 100.00000000 130.00000000
v -196.56552124 100.56980896 130.00000000
v -196.27622986 101.07088470 130.00000000
v -195.83299255 101.44279480 130.00000000
v -195.28929138 101.64068604 130.00000000
v -194.71070862 101.64068604 130.00000000
v -194.16700745 101.44279480 130.00000000
v -193.72377014 101.07088470 130.00000000
v -193.43447876 40.56980515 130.00000000
v -193.33399963 40.00000000 130.00000000
v -193.43447876 39.43019485 130.00000000
v -193.72377014 38.92911530 130.00000000
v -194.16700745 38.55720139 130.00000000
v -194.71070862 38.35931015 130.00000000
v -195.28929138 38.35931015 130.00000000
v -195.83299255 38.55720139 130.00000000
v -196.27622986 38.92911530 130.00000000
v -196.56552124 39.43019485 130.00000000
v -196.66600037 40.00000000 130.00000000
v -196.56552124 40.56980515 130.00000000
v -196.27622986 41.07088470 130.00000000
v -195.83299255 41.44279861 130.00000000
v -195.28929138 41.64068985 130.00000000
v -194.71070862 41.64068985 130.00000000
v -194.16700745 41.44279861 130.00000000
v -193.72377014 41.07088470 130.00000000
v -190.00000000 10.00000000 130.00000000
v -190.00000000 135.00000000 130.00000000
v -200.00000000 10.00000000 130.00000000
v -200.00000000 135.00000000 130.00000000
v -193.43447876 135.00000000 94.43019104
v -193.33399963 135.00000000 95.00000000
v -193.43447876 135.00000000 95.56980896
v -193.72377014 135.00000000 96.07088470
v -194.16700745 135.00000000 96.44279480
v -194.71070862 135.00000000 96.64068604
v -195.28929138 135.00000000 96.64068604
v -195.83299255 135.00000000 96.44279480
v -196.27622986 135.00000000 96.07088470
v -196.56552124 135.00000000 95.56980896
v -196.66600037 135.00000000 95.00000000
v -196.56552124 135.00000000 94.43019104
v -196.27622986 135.00000000 93.92911530
v -195.83299255 135.00000000 93.55720520
v -195.28929138 135.00000000 93.35931396
v -194.71070862 135.00000000 93.35931396
v -194.16700745 135.00000000 93.55720520
v -193.72377014 135.00000000 93.92911530
v -193.43447876 135.00000000 54.43019485
v -193.33399963 135.00000000 55.00000000
v -193.43447876 135.00000000 55.56980515
v -193.72377014 135.00000000 56.07088470
v -194.16700745 135.00000000 56.44279861
v -194.71070862 135.00000000 56.64068985
v -195.28929138 135.00000000 56.64068985
v -195.83299255 135.00000000 56.44279861
v -196.27622986 135.00000000 56.07088470
v -196.56552124 135.00000000 55.56980515
v -196.66600037 135.00000000 55.00000000
v -196.56552124 135.00000000 54.43019485
v -196.27622986 135.00000000 53.92911530
v -195.83299255 135.00000000 53.55720139
v -195.28929138 135.00000000 53.35931015
v -194.71070862 135.00000000 53.35931015
v -194.16700745 135.00000000 53.55720139
v -193.72377014 135.00000000 53.92911530
v -190.00000000 135.00000000 130.00000000
v -190.00000000 135.00000000 10.00000000
v -200.00000000 135.00000000 10.00000000
v -200.00000000 135.00000000 130.00000000
v -196.56552124 10.00000000 94.43019104
v -196.66600037 10.00000000 95.00000000
v -196.56552124 10.00000000 95.56980896
v -196.27622986 10.00000000 96.07088470
v -195.83299255 10.00000000 96.44279480
v -195.28929138 10.00000000 96.64068604
v -194.71070862 10.00000000 96.64068604
v -194.16700745 10.00000000 96.44279480
v -193.72377014 10.00000000 96.07088470
v -193.43447876 10.00000000 95.56980896
v -193.33399963 10.00000000 95.00000000
v -193.43447876 10.00000000 94.43019104
v -193.72377014 10.00000000 93.92911530
v -194.16700745 10.00000000 93.55720520
v -194.71070862 10.00000000 93.35931396
v -195.28929138 10.00000000 93.35931396
v -195.83299255 10.00000000 93.55720520
v -196.27622986 10.00000000 93.92911530
v -196.56552124 10.00000000 54.43019485
v -196.66600037 10.00000000 55.00000000
v -196.56552124 10.00000000 55.56980515
v -196.27622986 10.00000000 56.07088470
v -195.83299255 10.00000000 56.44279861
v -195.28929138 10.00000000 56.64068985
v -194.71070862 10.00000000 56.64068985
v -194.16700745 10.00000000 56.44279861
v -193.72377014 10.00000000 56.07088470
v -193.43447876 10.00000000 55.56980515
v -193.33399963 10.00000000 55.00000000
v -193.43447876 10.00000000 54.43019485
v -193.72377014 10.00000000 53.92911530
v -194.16700745 10.00000000 53.55720139
v -194.71070862 10.00000000 53.35931015
v -195.28929138 10.00000000 53.35931015
v -195.83299255 10.00000000 53.55720139
v -196.27622986 10.00000000 53.92911530
v -190.00000000 10.00000000 130.00000000
v -190.00000000 10.00000000 10.00000000
v -200.00000000 10.00000000 10.00000000
v -200.00000000 10.00000000 130.00000000
v -190.00000000 10.00000000 130.00000000
v -190.00000000 10.00000000 10.00000000
v -190.00000000 135.00000000 130.00000000
v -190.00000000 135.00000000 10.00000000
v -200.00000000 10.00000000 10.00000000
v -200.00000000 135.00000000 10.00000000
v -200.00000000 10.00000000 130.00000000
v -200.00000000 135.00000000 130.00000000
f 1 2 3
f 3 2 4
f 9 2 6
f 8 2 9
f 7 4 8
f 8 4 2
f 1 6 2
f 5 6 1
f 16 15 13
f 18 15 16
f 17 13 11
f 16 13 17
f 12 13 14
f 14 13 15
f 10 11 12
f 12 11 13
f 23 22 24
f 21 22 23
f 21 20 22
f 19 20 21
f 25 24 26
f 26 24 22
f 26 22 27
f 27 22 20
f 32 31 33
f 33 31 29
f 30 29 31
f 28 29 30
f 42 37 35
f 41 37 42
f 40 39 41
f 41 39 37
f 38 37 39
f 36 37 38
f 36 35 37
f 34 35 36
f 49 48 50
f 50 48 46
f 45 44 46
f 43 44 45
f 47 46 48
f 45 46 47
f 50 46 51
f 51 46 44
f 60 55 53
f 59 55 60
f 54 55 56
f 56 55 57
f 52 53 54
f 54 53 55
f 59 57 55
f 58 57 59
f 61 62 63
f 63 62 64
f 68 66 64
f 67 66 68
f 65 64 66
f 63 64 65
f 69 64 62
f 68 64 69
f 72 71 73
f 70 71 72
f 75 73 71
f 74 73 75
f 78 79 80
f 80 79 81
f 83 79 84
f 84 79 77
f 76 77 78
f 78 77 79
f 82 81 83
f 83 81 79
f 87 94 86
f 86 94 95
f 86 95 85
f 85 95 96
f 85 96 102
f 102 96 97
f 102 97 101
f 101 97 98
f 101 98 100
f 100 98 99
f 94 87 93
f 93 87 88
f 93 88 92
f 92 88 89
f 92 89 91
f 91 89 90
f 103 104 105
f 105 104 106
f 110 104 111
f 111 104 108
f 103 108 104
f 107 108 103
f 109 106 110
f 110 106 104
f 119 115 113
f 118 115 119
f 112 113 114
f 114 113 115
f 114 115 116
f 116 115 117
f 118 117 115
f 120 117 118
f 123 124 125
f 125 124 126
f 128 124 129
f 129 124 122
f 127 126 128
f 128 126 124
f 121 122 123
f 123 122 124
f 132 131 133
f 130 131 132
f 134 133 135
f 135 133 131
f 144 139 137
f 143 139 144
f 143 141 139
f 142 141 143
f 140 139 141
f 138 139 140
f 138 137 139
f 136 137 138
f 149 148 150
f 147 148 149
f 147 146 148
f 145 146 147
f 151 150 152
f 152 150 148
f 152 148 153
f 153 148 146
f 154 155 156
f 156 155 157
f 156 157 158
f 158 157 159
f 160 159 161
f 161 159 157
f 161 157 162
f 162 157 155
f 165 164 166
f 163 164 165
f 165 166 167
f 167 166 168
f 170 168 166
f 169 168 170
f 170 166 171
f 171 166 164
f 172 173 174
f 174 173 175
f 177 175 173
f 176 175 177
f 182 181 183
f 180 181 182
f 178 179 180
f 180 179 181
f 185 181 186
f 186 181 179
f 184 183 185
f 185 183 181
f 193 191 192
f 194 191 193
f 194 190 191
f 195 190 194
f 195 189 190
f 196 189 195
f 202 200 201
f 203 200 202
f 203 199 200
f 204 199 203
f 204 198 199
f 187 198 204
f 187 197 198
f 188 197 187
f 188 196 197
f 189 196 188
f 211 208 212
f 212 208 206
f 209 210 205
f 205 210 206
f 212 206 213
f 213 206 210
f 207 206 208
f 205 206 207
f 220 217 221
f 221 217 215
f 220 219 217
f 222 219 220
f 214 215 216
f 216 215 217
f 216 217 218
f 218 217 219
f 227 226 228
f 225 226 227
f 225 224 226
f 223 224 225
f 229 228 230
f 230 228 226
f 230 226 231
f 231 226 224
f 236 235 237
f 237 235 233
f 232 233 234
f 234 233 235
f 242 241 243
f 240 241 242
f 240 239 241
f 238 239 240
f 244 243 245
f 245 243 241
f 245 241 246
f 246 241 239
f 255 250 248
f 254 250 255
f 254 252 250
f 253 252 254
f 251 250 252
f 249 250 251
f 247 248 249
f 249 248 250
f 263 259 264
f 264 259 257
f 262 261 263
f 263 261 259
f 258 259 260
f 260 259 261
f 258 257 259
f 256 257 258
f 269 268 270
f 267 268 269
f 267 266 268
f 265 266 267
f 271 270 272
f 272 270 268
f 272 268 273
f 273 268 266
f 274 275 276
f 276 275 277
f 278 277 279
f 279 277 275
f 287 285 283
f 286 285 287
f 282 283 284
f 284 283 285
f 287 283 288
f 288 283 281
f 282 281 283
f 280 281 282
f 296 292 293
f 297 292 296
f 297 291 292
f 298 291 297
f 296 293 295
f 295 293 294
f 291 298 290
f 290 298 299
f 290 299 289
f 289 299 300
f 305 302 304
f 304 302 303
f 306 301 305
f 305 301 302
f 289 300 306
f 306 300 301
f 307 308 309
f 309 308 310
f 315 308 312
f 314 308 315
f 311 312 307
f 307 312 308
f 314 310 308
f 313 310 314
f 320 319 321
f 318 319 320
f 323 319 317
f 322 319 323
f 322 321 319
f 324 321 322
f 316 317 318
f 318 317 319
f 329 328 330
f 327 328 329
f 327 326 328
f 325 326 327
f 331 330 332
f 332 330 328
f 332 328 333
f 333 328 326
f 334 335 336
f 336 335 337
f 338 337 339
f 339 337 335
f 342 343 344
f 344 343 345
f 340 341 342
f 342 341 343
f 347 343 348
f 348 343 341
f 346 345 347
f 347 345 343
f 355 354 356
f 356 354 352
f 356 352 357
f 357 352 350
f 349 350 351
f 351 350 352
f 351 352 353
f 353 352 354
f 364 363 365
f 365 363 361
f 365 361 366
f 366 361 359
f 358 359 360
f 360 359 361
f 360 361 362
f 362 361 363
f 373 372 374
f 374 372 370
f 374 370 375
f 375 370 368
f 367 368 369
f 369 368 370
f 369 370 371
f 371 370 372
f 381 379 377
f 380 379 381
f 378 377 379
f 376 377 378
f 384 385 386
f 386 385 387
f 390 385 383
f 389 385 390
f 384 383 385
f 382 383 384
f 388 387 389
f 389 387 385
f 391 402 408
f 408 402 403
f 408 403 407
f 407 403 404
f 393 400 392
f 392 400 401
f 392 401 391
f 391 401 402
f 397 395 396
f 398 395 397
f 398 394 395
f 399 394 398
f 407 404 406
f 406 404 405
f 400 393 399
f 399 393 394
f 409 410 411
f 411 410 412
f 415 412 416
f 416 412 410
f 409 414 410
f 413 414 409
f 416 410 417
f 417 410 414
f 418 419 420
f 420 419 421
f 424 421 425
f 425 421 419
f 426 423 424
f 424 423 421
f 422 421 423
f 420 421 422
f 427 428 429
f 429 428 430
f 429 430 431
f 431 430 432
f 434 432 430
f 433 432 434
f 435 430 428
f 434 430 435
f 436 437 438
f 438 437 439
f 441 439 437
f 440 439 441
f 444 443 445
f 442 443 444
f 449 447 445
f 448 447 449
f 450 445 443
f 449 445 450
f 446 445 447
f 444 445 446
f 459 454 452
f 458 454 459
f 455 454 456
f 453 454 455
f 451 452 453
f 453 452 454
f 457 456 458
f 458 456 454
f 464 463 465
f 462 463 464
f 467 463 468
f 468 463 461
f 466 465 467
f 467 465 463
f 462 461 463
f 460 461 462
f 469 470 471
f 471 470 472
f 476 472 477
f 477 472 470
f 476 474 472
f 475 474 476
f 473 472 474
f 471 472 473
f 480 479 481
f 478 479 480
f 483 481 479
f 482 481 483
f 486 487 488
f 488 487 489
f 484 485 486
f 486 485 487
f 490 489 491
f 491 489 487
f 492 487 485
f 491 487 492
f 499 497 498
f 500 497 499
f 500 496 497
f 501 496 500
f 493 504 510
f 510 504 505
f 510 505 509
f 509 505 506
f 495 502 494
f 494 502 503
f 494 503 493
f 493 503 504
f 509 506 508
f 508 506 507
f 502 495 501
f 501 495 496
f 517 514 518
f 518 514 512
f 511 516 512
f 515 516 511
f 518 512 519
f 519 512 516
f 513 512 514
f 511 512 513
f 524 523 525
f 522 523 524
f 528 525 526
f 526 525 523
f 526 523 527
f 527 523 521
f 520 521 522
f 522 521 523
f 533 532 534
f 531 532 533
f 529 530 531
f 531 530 532
f 536 534 532
f 535 534 536
f 537 532 530
f 536 532 537
f 540 539 541
f 538 539 540
f 543 541 539
f 542 541 543
f 550 549 551
f 551 549 547
f 551 547 552
f 552 547 545
f 548 547 549
f 546 547 548
f 546 545 547
f 544 545 546
f 559 558 560
f 560 558 556
f 560 556 561
f 561 556 554
f 557 556 558
f 555 556 557
f 555 554 556
f 553 554 555
f 568 567 569
f 569 567 565
f 569 565 570
f 570 565 563
f 566 565 567
f 564 565 566
f 564 563 565
f 562 563 564
f 571 572 573
f 573 572 574
f 573 574 575
f 575 574 576
f 577 576 578
f 578 576 574
f 578 574 579
f 579 574 572
f 584 583 585
f 585 583 581
f 582 581 583
f 580 581 582
f 593 591 589
f 592 591 593
f 588 589 590
f 590 589 591
f 588 587 589
f 586 587 588
f 594 589 587
f 593 589 594
f 597 604 596
f 596 604 605
f 596 605 595
f 595 605 606
f 611 608 610
f 610 608 609
f 604 597 603
f 603 597 598
f 603 598 602
f 602 598 599
f 602 599 601
f 601 599 600
f 595 606 612
f 612 606 607
f 612 607 611
f 611 607 608
f 613 614 615
f 615 614 616
f 617 618 613
f 613 618 614
f 620 616 614
f 619 616 620
f 621 614 618
f 620 614 621
f 629 625 623
f 628 625 629
f 622 623 624
f 624 623 625
f 628 627 625
f 630 627 628
f 626 625 627
f 624 625 626
f 633 632 634
f 631 632 633
f 633 634 635
f 635 634 636
f 638 634 639
f 639 634 632
f 637 636 638
f 638 636 634
f 640 641 642
f 642 641 643
f 645 643 641
f 644 643 645
f 652 651 653
f 653 651 649
f 646 647 648
f 648 647 649
f 648 649 650
f 650 649 651
f 653 649 654
f 654 649 647
f 657 656 658
f 655 656 657
f 662 660 658
f 661 660 662
f 662 658 663
f 663 658 656
f 657 658 659
f 659 658 660
f 671 669 667
f 670 669 671
f 666 667 668
f 668 667 669
f 664 665 666
f 666 665 667
f 672 667 665
f 671 667 672
f 675 674 676
f 673 674 675
f 681 676 674
f 680 676 681
f 679 678 680
f 680 678 676
f 675 676 677
f 677 676 678
f 682 683 684
f 684 683 685
f 686 685 687
f 687 685 683
f 692 691 693
f 690 691 692
f 688 689 690
f 690 689 691
f 695 691 696
f 696 691 689
f 694 693 695
f 695 693 691
f 699 706 698
f 698 706 707
f 698 707 697
f 697 707 708
f 713 710 712
f 712 710 711
f 706 699 705
f 705 699 700
f 697 708 714
f 714 708 709
f 714 709 713
f 713 709 710
f 703 701 702
f 704 701 703
f 704 700 701
f 705 700 704
f 722 718 716
f 721 718 722
f 719 720 715
f 715 720 716
f 722 716 723
f 723 716 720
f 715 716 717
f 717 716 718
f 730 729 727
f 732 729 730
f 726 725 727
f 724 725 726
f 728 727 729
f 726 727 728
f 730 727 731
f 731 727 725
f 737 736 738
f 735 736 737
f 741 736 734
f 740 736 741
f 740 738 736
f 739 738 740
f 735 734 736
f 733 734 735
f 742 743 744
f 744 743 745
f 747 745 743
f 746 745 747
f 756 751 749
f 755 751 756
f 755 753 751
f 754 753 755
f 752 751 753
f 750 751 752
f 750 749 751
f 748 749 750
f 757 758 759
f 759 758 760
f 759 760 761
f 761 760 762
f 765 760 758
f 764 760 765
f 764 762 760
f 763 762 764
f 766 767 768
f 768 767 769
f 768 769 770
f 770 769 771
f 772 771 773
f 773 771 769
f 773 769 774
f 774 769 767
f 775 776 777
f 777 776 778
f 777 778 779
f 779 778 780
f 783 778 776
f 782 778 783
f 782 780 778
f 781 780 782
f 789 787 785
f 788 787 789
f 784 785 786
f 786 785 787
f 790 791 792
f 792 791 793
f 792 793 794
f 794 793 795
f 797 793 798
f 798 793 791
f 796 795 797
f 797 795 793
f 815 811 812
f 816 811 815
f 816 810 811
f 799 810 816
f 799 809 810
f 800 809 799
f 800 808 809
f 801 808 800
f 815 812 814
f 814 812 813
f 808 801 807
f 807 801 802
f 807 802 806
f 806 802 803
f 806 803 805
f 805 803 804
f 848 824 825
f 849 824 848
f 849 823 824
f 850 823 849
f 850 822 823
f 850 821 822
f 851 821 850
f 851 820 821
f 834 817 856
f 856 833 834
f 856 832 833
f 854 832 856
f 854 831 832
f 854 830 831
f 829 830 854
f 854 828 829
f 854 827 828
f 853 827 854
f 839 855 838
f 840 855 839
f 841 855 840
f 841 853 855
f 842 853 841
f 843 853 842
f 844 853 843
f 845 853 844
f 845 827 853
f 846 827 845
f 846 826 827
f 847 826 846
f 847 825 826
f 848 825 847
f 819 835 818
f 818 835 836
f 818 836 855
f 855 836 837
f 855 837 838
f 835 819 852
f 852 819 820
f 852 820 851
f 856 817 818
f 856 818 855
f 894 857 858
f 894 858 893
f 896 870 871
f 896 871 872
f 896 872 894
f 894 872 873
f 869 870 896
f 896 868 869
f 896 867 868
f 895 867 896
f 887 865 866
f 888 865 887
f 888 864 865
f 889 864 888
f 894 873 874
f 874 857 894
f 889 863 864
f 890 863 889
f 891 861 890
f 891 860 861
f 890 862 863
f 890 861 862
f 892 859 860
f 892 860 891
f 875 859 892
f 893 877 878
f 858 876 893
f 893 876 877
f 859 875 858
f 858 875 876
f 879 893 878
f 880 893 879
f 881 893 880
f 881 895 893
f 882 895 881
f 883 895 882
f 884 895 883
f 885 895 884
f 885 867 895
f 886 867 885
f 886 866 867
f 887 866 886
f 909 923 908
f 908 923 924
f 908 924 907
f 907 924 925
f 897 917 914
f 914 917 918
f 914 918 913
f 913 918 919
f 913 919 912
f 912 919 920
f 912 920 911
f 911 920 921
f 911 921 910
f 910 921 922
f 910 922 909
f 909 922 923
f 897 916 917
f 898 916 897
f 898 933 916
f 899 933 898
f 934 930 931
f 934 929 930
f 934 915 916
f 933 934 916
f 931 932 934
f 934 932 915
f 936 903 904
f 933 903 936
f 902 903 933
f 933 901 902
f 933 900 901
f 899 900 933
f 935 926 927
f 935 925 926
f 936 925 935
f 907 925 936
f 935 929 934
f 935 928 929
f 927 928 935
f 936 906 907
f 905 906 936
f 936 904 905
f 974 969 970
f 974 968 969
f 967 968 974
f 974 966 967
f 974 965 966
f 973 965 974
f 961 951 952
f 962 951 961
f 962 950 951
f 963 950 962
f 975 956 976
f 975 955 956
f 972 955 975
f 975 971 972
f 975 970 971
f 974 970 975
f 939 976 938
f 938 976 956
f 953 959 952
f 952 959 960
f 953 958 959
f 954 958 953
f 954 957 958
f 937 957 954
f 937 956 957
f 938 956 937
f 952 960 961
f 939 940 976
f 976 940 941
f 976 941 942
f 942 943 976
f 976 943 973
f 973 943 944
f 973 944 945
f 945 946 973
f 973 946 947
f 973 947 965
f 965 947 948
f 965 948 964
f 964 948 949
f 964 949 963
f 963 949 950
f 977 978 979
f 979 978 980
f 981 983 982
f 982 983 984

