# https://github.com/mikedh/trimesh
v -23.00000000 80.64996338 13.66319942
v -20.00000000 80.64996338 13.66319942
v -23.00000000 80.55000305 13.00000000
v -20.00000000 80.55000305 13.00000000
v -23.00000000 80.64996338 12.33680058
v -20.00000000 80.64996338 12.33680058
v -20.00000000 80.94096375 11.73252964
v -23.00000000 80.94096375 14.26747036
v -20.00000000 80.94096375 14.26747036
v -23.00000000 81.39714813 14.75912094
v -20.00000000 81.39714813 14.75912094
v -23.00000000 81.97798157 15.09446621
v -20.00000000 81.97798157 15.09446621
v -23.00000000 82.63185883 15.24370861
v -20.00000000 82.63185883 15.24370861
v -23.00000000 83.30067444 15.19358826
v -20.00000000 83.30067444 15.19358826
v -23.00000000 83.92500305 14.94855690
v -20.00000000 83.92500305 14.94855690
v -23.00000000 84.44936371 14.53038883
v -20.00000000 84.44936371 14.53038883
v -23.00000000 84.82717896 13.97623825
v -20.00000000 84.82717896 13.97623825
v -23.00000000 85.02487183 13.33534527
v -20.00000000 85.02487183 13.33534527
v -23.00000000 85.02487183 12.66465473
v -20.00000000 85.02487183 12.66465473
v -23.00000000 84.82717896 12.02376175
v -20.00000000 84.82717896 12.02376175
v -23.00000000 84.44936371 11.46961117
v -20.00000000 84.44936371 11.46961117
v -23.00000000 83.92500305 11.05144310
v -20.00000000 83.92500305 11.05144310
v -23.00000000 83.30067444 10.80641174
v -20.00000000 83.30067444 10.80641174
v -23.00000000 82.63185883 10.75629139
v -20.00000000 82.63185883 10.75629139
v -23.00000000 81.97798157 10.90553379
v -20.00000000 81.97798157 10.90553379
v -23.00000000 81.39714813 11.24087906
v -20.00000000 81.39714813 11.24087906
v -23.00000000 80.94096375 11.73252964
v -23.00000000 80.64996338 13.66319942
v -23.00000000 80.55000305 13.00000000
v -23.00000000 80.64996338 12.33680058
v -23.00000000 80.94096375 14.26747036
v -23.00000000 81.39714813 14.75912094
v -23.00000000 81.97798157 15.09446621
v -23.00000000 82.63185883 15.24370861
v -23.00000000 83.30067444 15.19358826
v -23.00000000 83.92500305 14.94855690
v -23.00000000 84.44936371 14.53038883
v -23.00000000 84.82717896 13.97623825
v -23.00000000 85.02487183 13.33534527
v -23.00000000 85.02487183 12.66465473
v -23.00000000 84.82717896 12.02376175
v -23.00000000 84.44936371 11.46961117
v -23.00000000 83.92500305 11.05144310
v -23.00000000 83.30067444 10.80641174
v -23.00000000 82.63185883 10.75629139
v -23.00000000 81.97798157 10.90553379
v -23.00000000 81.39714813 11.24087906
v -23.00000000 80.94096375 11.73252964
v -23.00000000 83.96824646 12.51609707
v -23.00000000 84.06449890 13.00000000
v -23.00000000 83.96824646 13.48390293
v -23.00000000 83.69413757 13.89413643
v -23.00000000 83.69413757 12.10586357
v -23.00000000 83.28390503 11.83175468
v -23.00000000 82.80000305 11.73550034
v -23.00000000 82.31609344 11.83175468
v -23.00000000 81.90586090 12.10586357
v -23.00000000 81.63175201 12.51609707
v -23.00000000 81.53549957 13.00000000
v -23.00000000 81.63175201 13.48390293
v -23.00000000 81.90586090 13.89413643
v -23.00000000 82.31609344 14.16824532
v -23.00000000 82.80000305 14.26449966
v -23.00000000 83.28390503 14.16824532
v -23.00000000 80.64996338 125.66320038
v -20.00000000 80.64996338 125.66320038
v -23.00000000 80.55000305 125.00000000
v -20.00000000 80.55000305 125.00000000
v -23.00000000 80.64996338 124.33679962
v -20.00000000 80.64996338 124.33679962
v -20.00000000 80.94096375 123.73252869
v -23.00000000 80.94096375 126.26747131
v -20.00000000 80.94096375 126.26747131
v -23.00000000 81.39714813 126.75911713
v -20.00000000 81.39714813 126.75911713
v -23.00000000 81.97798157 127.09446716
v -20.00000000 81.97798157 127.09446716
v -23.00000000 82.63185883 127.24370575
v -20.00000000 82.63185883 127.24370575
v -23.00000000 83.30067444 127.19358826
v -20.00000000 83.30067444 127.19358826
v -23.00000000 83.92500305 126.94855499
v -20.00000000 83.92500305 126.94855499
v -23.00000000 84.44936371 126.53038788
v -20.00000000 84.44936371 126.53038788
v -23.00000000 84.82717896 125.97624207
v -20.00000000 84.82717896 125.97624207
v -23.00000000 85.02487183 125.33534241
v -20.00000000 85.02487183 125.33534241
v -23.00000000 85.02487183 124.66465759
v -20.00000000 85.02487183 124.66465759
v -23.00000000 84.82717896 124.02375793
v -20.00000000 84.82717896 124.02375793
v -23.00000000 84.44936371 123.46961212
v -20.00000000 84.44936371 123.46961212
v -23.00000000 83.92500305 123.05144501
v -20.00000000 83.92500305 123.05144501
v -23.00000000 83.30067444 122.80641174
v -20.00000000 83.30067444 122.80641174
v -23.00000000 82.63185883 122.75629425
v -20.00000000 82.63185883 122.75629425
v -23.00000000 81.97798157 122.90553284
v -20.00000000 81.97798157 122.90553284
v -23.00000000 81.39714813 123.24088287
v -20.00000000 81.39714813 123.24088287
v -23.00000000 80.94096375 123.73252869
v -23.00000000 80.64996338 125.66320038
v -23.00000000 80.55000305 125.00000000
v -23.00000000 80.64996338 124.33679962
v -23.00000000 80.94096375 126.26747131
v -23.00000000 81.39714813 126.75911713
v -23.00000000 81.97798157 127.09446716
v -23.00000000 82.63185883 127.24370575
v -23.00000000 83.30067444 127.19358826
v -23.00000000 83.92500305 126.94855499
v -23.00000000 84.44936371 126.53038788
v -23.00000000 84.82717896 125.97624207
v -23.00000000 85.02487183 125.33534241
v -23.00000000 85.02487183 124.66465759
v -23.00000000 84.82717896 124.02375793
v -23.00000000 84.44936371 123.46961212
v -23.00000000 83.92500305 123.05144501
v -23.00000000 83.30067444 122.80641174
v -23.00000000 82.63185883 122.75629425
v -23.00000000 81.97798157 122.90553284
v -23.00000000 81.39714813 123.24088287
v -23.00000000 80.94096375 123.73252869
v -23.00000000 83.96824646 124.51609802
v -23.00000000 84.06449890 125.00000000
v -23.00000000 83.96824646 125.48390198
v -23.00000000 83.69413757 125.89413452
v -23.00000000 83.69413757 124.10586548
v -23.00000000 83.28390503 123.83175659
v -23.00000000 82.80000305 123.73549652
v -23.00000000 82.31609344 123.83175659
v -23.00000000 81.90586090 124.10586548
v -23.00000000 81.63175201 124.51609802
v -23.00000000 81.53549957 125.00000000
v -23.00000000 81.63175201 125.48390198
v -23.00000000 81.90586090 125.89413452
v -23.00000000 82.31609344 126.16824341
v -23.00000000 82.80000305 126.26450348
v -23.00000000 83.28390503 126.16824341
v -23.00000000 103.14996338 13.66319942
v -20.00000000 103.14996338 13.66319942
v -23.00000000 103.05000305 13.00000000
v -20.00000000 103.05000305 13.00000000
v -23.00000000 103.14996338 12.33680058
v -20.00000000 103.14996338 12.33680058
v -20.00000000 103.44096375 11.73252964
v -23.00000000 103.44096375 14.26747036
v -20.00000000 103.44096375 14.26747036
v -23.00000000 103.89714813 14.75912094
v -20.00000000 103.89714813 14.75912094
v -23.00000000 104.47798157 15.09446621
v -20.00000000 104.47798157 15.09446621
v -23.00000000 105.13185883 15.24370861
v -20.00000000 105.13185883 15.24370861
v -23.00000000 105.80067444 15.19358826
v -20.00000000 105.80067444 15.19358826
v -23.00000000 106.42500305 14.94855690
v -20.00000000 106.42500305 14.94855690
v -23.00000000 106.94936371 14.53038883
v -20.00000000 106.94936371 14.53038883
v -23.00000000 107.32717896 13.97623825
v -20.00000000 107.32717896 13.97623825
v -23.00000000 107.52487183 13.33534527
v -20.00000000 107.52487183 13.33534527
v -23.00000000 107.52487183 12.66465473
v -20.00000000 107.52487183 12.66465473
v -23.00000000 107.32717896 12.02376175
v -20.00000000 107.32717896 12.02376175
v -23.00000000 106.94936371 11.46961117
v -20.00000000 106.94936371 11.46961117
v -23.00000000 106.42500305 11.05144310
v -20.00000000 106.42500305 11.05144310
v -23.00000000 105.80067444 10.80641174
v -20.00000000 105.80067444 10.80641174
v -23.00000000 105.13185883 10.75629139
v -20.00000000 105.13185883 10.75629139
v -23.00000000 104.47798157 10.90553379
v -20.00000000 104.47798157 10.90553379
v -23.00000000 103.89714813 11.24087906
v -20.00000000 103.89714813 11.24087906
v -23.00000000 103.44096375 11.73252964
v -23.00000000 103.14996338 13.66319942
v -23.00000000 103.05000305 13.00000000
v -23.00000000 103.14996338 12.33680058
v -23.00000000 103.44096375 14.26747036
v -23.00000000 103.89714813 14.75912094
v -23.00000000 104.47798157 15.09446621
v -23.00000000 105.13185883 15.24370861
v -23.00000000 105.80067444 15.19358826
v -23.00000000 106.42500305 14.94855690
v -23.00000000 106.94936371 14.53038883
v -23.00000000 107.32717896 13.97623825
v -23.00000000 107.52487183 13.33534527
v -23.00000000 107.52487183 12.66465473
v -23.00000000 107.32717896 12.02376175
v -23.00000000 106.94936371 11.46961117
v -23.00000000 106.42500305 11.05144310
v -23.00000000 105.80067444 10.80641174
v -23.00000000 105.13185883 10.75629139
v -23.00000000 104.47798157 10.90553379
v -23.00000000 103.89714813 11.24087906
v -23.00000000 103.44096375 11.73252964
v -23.00000000 106.46824646 12.51609707
v -23.00000000 106.56449890 13.00000000
v -23.00000000 106.46824646 13.48390293
v -23.00000000 106.19413757 13.89413643
v -23.00000000 106.19413757 12.10586357
v -23.00000000 105.78390503 11.83175468
v -23.00000000 105.30000305 11.73550034
v -23.00000000 104.81609344 11.83175468
v -23.00000000 104.40586090 12.10586357
v -23.00000000 104.13175201 12.51609707
v -23.00000000 104.03549957 13.00000000
v -23.00000000 104.13175201 13.48390293
v -23.00000000 104.40586090 13.89413643
v -23.00000000 104.81609344 14.16824532
v -23.00000000 105.30000305 14.26449966
v -23.00000000 105.78390503 14.16824532
v -23.00000000 103.14996338 125.66320038
v -20.00000000 103.14996338 125.66320038
v -23.00000000 103.05000305 125.00000000
v -20.00000000 103.05000305 125.00000000
v -23.00000000 103.14996338 124.33679962
v -20.00000000 103.14996338 124.33679962
v -20.00000000 103.44096375 123.73252869
v -23.00000000 103.44096375 126.26747131
v -20.00000000 103.44096375 126.26747131
v -23.00000000 103.89714813 126.75911713
v -20.00000000 103.89714813 126.75911713
v -23.00000000 104.47798157 127.09446716
v -20.00000000 104.47798157 127.09446716
v -23.00000000 105.13185883 127.24370575
v -20.00000000 105.13185883 127.24370575
v -23.00000000 105.80067444 127.19358826
v -20.00000000 105.80067444 127.19358826
v -23.00000000 106.42500305 126.94855499
v -20.00000000 106.42500305 126.94855499
v -23.00000000 106.94936371 126.53038788
v -20.00000000 106.94936371 126.53038788
v -23.00000000 107.32717896 125.97624207
v -20.00000000 107.32717896 125.97624207
v -23.00000000 107.52487183 125.33534241
v -20.00000000 107.52487183 125.33534241
v -23.00000000 107.52487183 124.66465759
v -20.00000000 107.52487183 124.66465759
v -23.00000000 107.32717896 124.02375793
v -20.00000000 107.32717896 124.02375793
v -23.00000000 106.94936371 123.46961212
v -20.00000000 106.94936371 123.46961212
v -23.00000000 106.42500305 123.05144501
v -20.00000000 106.42500305 123.05144501
v -23.00000000 105.80067444 122.80641174
v -20.00000000 105.80067444 122.80641174
v -23.00000000 105.13185883 122.75629425
v -20.00000000 105.13185883 122.75629425
v -23.00000000 104.47798157 122.90553284
v -20.00000000 104.47798157 122.90553284
v -23.00000000 103.89714813 123.24088287
v -20.00000000 103.89714813 123.24088287
v -23.00000000 103.44096375 123.73252869
v -23.00000000 103.14996338 125.66320038
v -23.00000000 103.05000305 125.00000000
v -23.00000000 103.14996338 124.33679962
v -23.00000000 103.44096375 126.26747131
v -23.00000000 103.89714813 126.75911713
v -23.00000000 104.47798157 127.09446716
v -23.00000000 105.13185883 127.24370575
v -23.00000000 105.80067444 127.19358826
v -23.00000000 106.42500305 126.94855499
v -23.00000000 106.94936371 126.53038788
v -23.00000000 107.32717896 125.97624207
v -23.00000000 107.52487183 125.33534241
v -23.00000000 107.52487183 124.66465759
v -23.00000000 107.32717896 124.02375793
v -23.00000000 106.94936371 123.46961212
v -23.00000000 106.42500305 123.05144501
v -23.00000000 105.80067444 122.80641174
v -23.00000000 105.13185883 122.75629425
v -23.00000000 104.47798157 122.90553284
v -23.00000000 103.89714813 123.24088287
v -23.00000000 103.44096375 123.73252869
v -23.00000000 106.46824646 124.51609802
v -23.00000000 106.56449890 125.00000000
v -23.00000000 106.46824646 125.48390198
v -23.00000000 106.19413757 125.89413452
v -23.00000000 106.19413757 124.10586548
v -23.00000000 105.78390503 123.83175659
v -23.00000000 105.30000305 123.73549652
v -23.00000000 104.81609344 123.83175659
v -23.00000000 104.40586090 124.10586548
v -23.00000000 104.13175201 124.51609802
v -23.00000000 104.03549957 125.00000000
v -23.00000000 104.13175201 125.48390198
v -23.00000000 104.40586090 125.89413452
v -23.00000000 104.81609344 126.16824341
v -23.00000000 105.30000305 126.26450348
v -23.00000000 105.78390503 126.16824341
v -23.00000000 84.06449890 125.00000000
v -23.00000000 83.96824646 125.48390198
v -30.00000000 83.96824646 125.48390198
v -30.00000000 84.06449890 125.00000000
v -23.00000000 83.96824646 124.51609802
v -23.00000000 84.06449890 125.00000000
v -30.00000000 84.06449890 125.00000000
v -30.00000000 83.96824646 124.51609802
v -23.00000000 83.96824646 124.51609802
v -23.00000000 83.69413757 124.10586548
v -30.00000000 83.96824646 124.51609802
v -30.00000000 83.69413757 124.10586548
v -23.00000000 83.96824646 125.48390198
v -23.00000000 83.69413757 125.89413452
v -30.00000000 83.96824646 125.48390198
v -30.00000000 83.69413757 125.89413452
v -23.00000000 83.69413757 125.89413452
v -23.00000000 83.28390503 126.16824341
v -30.00000000 83.69413757 125.89413452
v -30.00000000 83.28390503 126.16824341
v -23.00000000 82.80000305 126.26450348
v -23.00000000 83.28390503 126.16824341
v -30.00000000 83.28390503 126.16824341
v -30.00000000 82.80000305 126.26450348
v -23.00000000 82.31609344 126.16824341
v -23.00000000 82.80000305 126.26450348
v -30.00000000 82.80000305 126.26450348
v -30.00000000 82.31609344 126.16824341
v -23.00000000 81.90586090 125.89413452
v -23.00000000 82.31609344 126.16824341
v -30.00000000 82.31609344 126.16824341
v -30.00000000 81.90586090 125.89413452
v -23.00000000 81.63175201 125.48390198
v -23.00000000 81.90586090 125.89413452
v -30.00000000 81.90586090 125.89413452
v -30.00000000 81.63175201 125.48390198
v -23.00000000 81.53549957 125.00000000
v -23.00000000 81.63175201 125.48390198
v -30.00000000 81.63175201 125.48390198
v -30.00000000 81.53549957 125.00000000
v -23.00000000 81.63175201 124.51609802
v -23.00000000 81.53549957 125.00000000
v -30.00000000 81.53549957 125.00000000
v -30.00000000 81.63175201 124.51609802
v -23.00000000 81.90586090 124.10586548
v -23.00000000 81.63175201 124.51609802
v -30.00000000 81.63175201 124.51609802
v -30.00000000 81.90586090 124.10586548
v -23.00000000 82.31609344 123.83175659
v -23.00000000 81.90586090 124.10586548
v -30.00000000 81.90586090 124.10586548
v -30.00000000 82.31609344 123.83175659
v -23.00000000 82.80000305 123.73549652
v -23.00000000 82.31609344 123.83175659
v -30.00000000 82.31609344 123.83175659
v -30.00000000 82.80000305 123.73549652
v -23.00000000 83.28390503 123.83175659
v -23.00000000 82.80000305 123.73549652
v -30.00000000 82.80000305 123.73549652
v -30.00000000 83.28390503 123.83175659
v -23.00000000 83.69413757 124.10586548
v -23.00000000 83.28390503 123.83175659
v -30.00000000 83.69413757 124.10586548
v -30.00000000 83.28390503 123.83175659
v -23.00000000 106.56449890 13.00000000
v -23.00000000 106.46824646 13.48390293
v -30.00000000 106.46824646 13.48390293
v -30.00000000 106.56449890 13.00000000
v -23.00000000 106.46824646 12.51609707
v -23.00000000 106.56449890 13.00000000
v -30.00000000 106.56449890 13.00000000
v -30.00000000 106.46824646 12.51609707
v -23.00000000 106.46824646 12.51609707
v -23.00000000 106.19413757 12.10586357
v -30.00000000 106.46824646 12.51609707
v -30.00000000 106.19413757 12.10586357
v -23.00000000 106.46824646 13.48390293
v -23.00000000 106.19413757 13.89413643
v -30.00000000 106.46824646 13.48390293
v -30.00000000 106.19413757 13.89413643
v -23.00000000 106.19413757 13.89413643
v -23.00000000 105.78390503 14.16824532
v -30.00000000 106.19413757 13.89413643
v -30.00000000 105.78390503 14.16824532
v -23.00000000 105.30000305 14.26449966
v -23.00000000 105.78390503 14.16824532
v -30.00000000 105.78390503 14.16824532
v -30.00000000 105.30000305 14.26449966
v -23.00000000 104.81609344 14.16824532
v -23.00000000 105.30000305 14.26449966
v -30.00000000 105.30000305 14.26449966
v -30.00000000 104.81609344 14.16824532
v -23.00000000 104.40586090 13.89413643
v -23.00000000 104.81609344 14.16824532
v -30.00000000 104.81609344 14.16824532
v -30.00000000 104.40586090 13.89413643
v -23.00000000 104.13175201 13.48390293
v -23.00000000 104.40586090 13.89413643
v -30.00000000 104.40586090 13.89413643
v -30.00000000 104.13175201 13.48390293
v -23.00000000 104.03549957 13.00000000
v -23.00000000 104.13175201 13.48390293
v -30.00000000 104.13175201 13.48390293
v -30.00000000 104.03549957 13.00000000
v -23.00000000 104.13175201 12.51609707
v -23.00000000 104.03549957 13.00000000
v -30.00000000 104.03549957 13.00000000
v -30.00000000 104.13175201 12.51609707
v -23.00000000 104.40586090 12.10586357
v -23.00000000 104.13175201 12.51609707
v -30.00000000 104.13175201 12.51609707
v -30.00000000 104.40586090 12.10586357
v -23.00000000 104.81609344 11.83175468
v -23.00000000 104.40586090 12.10586357
v -30.00000000 104.40586090 12.10586357
v -30.00000000 104.81609344 11.83175468
v -23.00000000 105.30000305 11.73550034
v -23.00000000 104.81609344 11.83175468
v -30.00000000 104.81609344 11.83175468
v -30.00000000 105.30000305 11.73550034
v -23.00000000 105.78390503 11.83175468
v -23.00000000 105.30000305 11.73550034
v -30.00000000 105.30000305 11.73550034
v -30.00000000 105.78390503 11.83175468
v -23.00000000 106.19413757 12.10586357
v -23.00000000 105.78390503 11.83175468
v -30.00000000 106.19413757 12.10586357
v -30.00000000 105.78390503 11.83175468
v -23.00000000 106.56449890 125.00000000
v -23.00000000 106.46824646 125.48390198
v -30.00000000 106.46824646 125.48390198
v -30.00000000 106.56449890 125.00000000
v -23.00000000 106.46824646 124.51609802
v -23.00000000 106.56449890 125.00000000
v -30.00000000 106.56449890 125.00000000
v -30.00000000 106.46824646 124.51609802
v -23.00000000 106.46824646 124.51609802
v -23.00000000 106.19413757 124.10586548
v -30.00000000 106.46824646 124.51609802
v -30.00000000 106.19413757 124.10586548
v -23.00000000 106.46824646 125.48390198
v -23.00000000 106.19413757 125.89413452
v -30.00000000 106.46824646 125.48390198
v -30.00000000 106.19413757 125.89413452
v -23.00000000 106.19413757 125.89413452
v -23.00000000 105.78390503 126.16824341
v -30.00000000 106.19413757 125.89413452
v -30.00000000 105.78390503 126.16824341
v -23.00000000 105.30000305 126.26450348
v -23.00000000 105.78390503 126.16824341
v -30.00000000 105.78390503 126.16824341
v -30.00000000 105.30000305 126.26450348
v -23.00000000 104.81609344 126.16824341
v -23.00000000 105.30000305 126.26450348
v -30.00000000 105.30000305 126.26450348
v -30.00000000 104.81609344 126.16824341
v -23.00000000 104.40586090 125.89413452
v -23.00000000 104.81609344 126.16824341
v -30.00000000 104.81609344 126.16824341
v -30.00000000 104.40586090 125.89413452
v -23.00000000 104.13175201 125.48390198
v -23.00000000 104.40586090 125.89413452
v -30.00000000 104.40586090 125.89413452
v -30.00000000 104.13175201 125.48390198
v -23.00000000 104.03549957 125.00000000
v -23.00000000 104.13175201 125.48390198
v -30.00000000 104.13175201 125.48390198
v -30.00000000 104.03549957 125.00000000
v -23.00000000 104.13175201 124.51609802
v -23.00000000 104.03549957 125.00000000
v -30.00000000 104.03549957 125.00000000
v -30.00000000 104.13175201 124.51609802
v -23.00000000 104.40586090 124.10586548
v -23.00000000 104.13175201 124.51609802
v -30.00000000 104.13175201 124.51609802
v -30.00000000 104.40586090 124.10586548
v -23.00000000 104.81609344 123.83175659
v -23.00000000 104.40586090 124.10586548
v -30.00000000 104.40586090 124.10586548
v -30.00000000 104.81609344 123.83175659
v -23.00000000 105.30000305 123.73549652
v -23.00000000 104.81609344 123.83175659
v -30.00000000 104.81609344 123.83175659
v -30.00000000 105.30000305 123.73549652
v -23.00000000 105.78390503 123.83175659
v -23.00000000 105.30000305 123.73549652
v -30.00000000 105.30000305 123.73549652
v -30.00000000 105.78390503 123.83175659
v -23.00000000 106.19413757 124.10586548
v -23.00000000 105.78390503 123.83175659
v -30.00000000 106.19413757 124.10586548
v -30.00000000 105.78390503 123.83175659
v -23.00000000 84.06449890 13.00000000
v -23.00000000 83.96824646 13.48390293
v -30.00000000 83.96824646 13.48390293
v -30.00000000 84.06449890 13.00000000
v -23.00000000 83.96824646 12.51609707
v -23.00000000 84.06449890 13.00000000
v -30.00000000 84.06449890 13.00000000
v -30.00000000 83.96824646 12.51609707
v -23.00000000 83.96824646 12.51609707
v -23.00000000 83.69413757 12.10586357
v -30.00000000 83.96824646 12.51609707
v -30.00000000 83.69413757 12.10586357
v -23.00000000 83.96824646 13.48390293
v -23.00000000 83.69413757 13.89413643
v -30.00000000 83.96824646 13.48390293
v -30.00000000 83.69413757 13.89413643
v -23.00000000 83.69413757 13.89413643
v -23.00000000 83.28390503 14.16824532
v -30.00000000 83.69413757 13.89413643
v -30.00000000 83.28390503 14.16824532
v -23.00000000 82.80000305 14.26449966
v -23.00000000 83.28390503 14.16824532
v -30.00000000 83.28390503 14.16824532
v -30.00000000 82.80000305 14.26449966
v -23.00000000 82.31609344 14.16824532
v -23.00000000 82.80000305 14.26449966
v -30.00000000 82.80000305 14.26449966
v -30.00000000 82.31609344 14.16824532
v -23.00000000 81.90586090 13.89413643
v -23.00000000 82.31609344 14.16824532
v -30.00000000 82.31609344 14.16824532
v -30.00000000 81.90586090 13.89413643
v -23.00000000 81.63175201 13.48390293
v -23.00000000 81.90586090 13.89413643
v -30.00000000 81.90586090 13.89413643
v -30.00000000 81.63175201 13.48390293
v -23.00000000 81.53549957 13.00000000
v -23.00000000 81.63175201 13.48390293
v -30.00000000 81.63175201 13.48390293
v -30.00000000 81.53549957 13.00000000
v -23.00000000 81.63175201 12.51609707
v -23.00000000 81.53549957 13.00000000
v -30.00000000 81.53549957 13.00000000
v -30.00000000 81.63175201 12.51609707
v -23.00000000 81.90586090 12.10586357
v -23.00000000 81.63175201 12.51609707
v -30.00000000 81.63175201 12.51609707
v -30.00000000 81.90586090 12.10586357
v -23.00000000 82.31609344 11.83175468
v -23.00000000 81.90586090 12.10586357
v -30.00000000 81.90586090 12.10586357
v -30.00000000 82.31609344 11.83175468
v -23.00000000 82.80000305 11.73550034
v -23.00000000 82.31609344 11.83175468
v -30.00000000 82.31609344 11.83175468
v -30.00000000 82.80000305 11.73550034
v -23.00000000 83.28390503 11.83175468
v -23.00000000 82.80000305 11.73550034
v -30.00000000 82.80000305 11.73550034
v -30.00000000 83.28390503 11.83175468
v -23.00000000 83.69413757 12.10586357
v -23.00000000 83.28390503 11.83175468
v -30.00000000 83.69413757 12.10586357
v -30.00000000 83.28390503 11.83175468
v -26.56552696 40.56980515 10.00000000
v -26.56552696 40.56980515 17.50000000
v -26.66600037 40.00000000 10.00000000
v -26.66600037 40.00000000 17.50000000
v -26.66600037 40.00000000 25.00000000
v -26.56552696 40.56980515 25.00000000
v -26.66600037 40.00000000 10.00000000
v -26.66600037 40.00000000 17.50000000
v -26.56552696 39.43019485 10.00000000
v -26.56552696 39.43019485 17.50000000
v -26.56552696 39.43019485 25.00000000
v -26.66600037 40.00000000 25.00000000
v -26.56552696 39.43019485 10.00000000
v -26.56552696 39.43019485 17.50000000
v -26.27622986 38.92911530 10.00000000
v -26.27622986 38.92911530 17.50000000
v -25.83300018 38.55720139 10.00000000
v -25.83300018 38.55720139 17.50000000
v -25.28929710 38.35931015 10.00000000
v -25.28929710 38.35931015 17.50000000
v -26.56552696 39.43019485 25.00000000
v -25.28929710 38.35931015 25.00000000
v -25.83300018 38.55720139 25.00000000
v -26.27622986 38.92911530 25.00000000
v -25.28929710 38.35931015 10.00000000
v -25.28929710 38.35931015 17.50000000
v -24.71070290 38.35931015 10.00000000
v -24.71070290 38.35931015 17.50000000
v -24.71070290 38.35931015 25.00000000
v -25.28929710 38.35931015 25.00000000
v -24.71070290 38.35931015 10.00000000
v -24.71070290 38.35931015 17.50000000
v -24.16699982 38.55720139 10.00000000
v -24.16699982 38.55720139 17.50000000
v -23.72377014 38.92911530 10.00000000
v -23.72377014 38.92911530 17.50000000
v -23.43447304 39.43019485 10.00000000
v -23.43447304 39.43019485 17.50000000
v -23.43447304 39.43019485 25.00000000
v -23.72377014 38.92911530 25.00000000
v -24.16699982 38.55720139 25.00000000
v -24.71070290 38.35931015 25.00000000
v -23.43447304 39.43019485 10.00000000
v -23.43447304 39.43019485 17.50000000
v -23.33399963 40.00000000 10.00000000
v -23.33399963 40.00000000 17.50000000
v -23.33399963 40.00000000 25.00000000
v -23.43447304 39.43019485 25.00000000
v -23.33399963 40.00000000 10.00000000
v -23.33399963 40.00000000 17.50000000
v -23.43447304 40.56980515 10.00000000
v -23.43447304 40.56980515 17.50000000
v -23.43447304 40.56980515 25.00000000
v -23.33399963 40.00000000 25.00000000
v -23.43447304 40.56980515 10.00000000
v -23.43447304 40.56980515 17.50000000
v -23.72377014 41.07088470 10.00000000
v -23.72377014 41.07088470 17.50000000
v -24.16699982 41.44279861 10.00000000
v -24.16699982 41.44279861 17.50000000
v -24.71070290 41.64068985 10.00000000
v -24.71070290 41.64068985 17.50000000
v -24.71070290 41.64068985 25.00000000
v -24.16699982 41.44279861 25.00000000
v -23.72377014 41.07088470 25.00000000
v -23.43447304 40.56980515 25.00000000
v -24.71070290 41.64068985 10.00000000
v -24.71070290 41.64068985 17.50000000
v -25.28929710 41.64068985 10.00000000
v -25.28929710 41.64068985 17.50000000
v -25.28929710 41.64068985 25.00000000
v -24.71070290 41.64068985 25.00000000
v -26.56552696 40.56980515 10.00000000
v -26.56552696 40.56980515 17.50000000
v -25.28929710 41.64068985 10.00000000
v -25.28929710 41.64068985 17.50000000
v -25.83300018 41.44279861 10.00000000
v -25.83300018 41.44279861 17.50000000
v -26.27622986 41.07088470 10.00000000
v -26.27622986 41.07088470 17.50000000
v -26.56552696 40.56980515 25.00000000
v -26.27622986 41.07088470 25.00000000
v -25.83300018 41.44279861 25.00000000
v -25.28929710 41.64068985 25.00000000
v -26.56552696 39.43019485 25.00000000
v -26.66600037 40.00000000 25.00000000
v -26.56552696 40.56980515 25.00000000
v -26.27622986 41.07088470 25.00000000
v -25.83300018 41.44279861 25.00000000
v -25.28929710 41.64068985 25.00000000
v -24.71070290 41.64068985 25.00000000
v -24.16699982 41.44279861 25.00000000
v -23.72377014 41.07088470 25.00000000
v -23.43447304 40.56980515 25.00000000
v -23.33399963 40.00000000 25.00000000
v -23.43447304 39.43019485 25.00000000
v -23.72377014 38.92911530 25.00000000
v -24.16699982 38.55720139 25.00000000
v -24.71070290 38.35931015 25.00000000
v -25.28929710 38.35931015 25.00000000
v -25.83300018 38.55720139 25.00000000
v -26.27622986 38.92911530 25.00000000
v -26.56552696 100.56980896 10.00000000
v -26.56552696 100.56980896 17.50000000
v -26.66600037 100.00000000 10.00000000
v -26.66600037 100.00000000 17.50000000
v -26.66600037 100.00000000 25.00000000
v -26.56552696 100.56980896 25.00000000
v -26.66600037 100.00000000 10.00000000
v -26.66600037 100.00000000 17.50000000
v -26.56552696 99.43019104 10.00000000
v -26.56552696 99.43019104 17.50000000
v -26.56552696 99.43019104 25.00000000
v -26.66600037 100.00000000 25.00000000
v -26.56552696 99.43019104 10.00000000
v -26.56552696 99.43019104 17.50000000
v -26.27622986 98.92911530 10.00000000
v -26.27622986 98.92911530 17.50000000
v -25.83300018 98.55720520 10.00000000
v -25.83300018 98.55720520 17.50000000
v -25.28929710 98.35931396 10.00000000
v -25.28929710 98.35931396 17.50000000
v -26.56552696 99.43019104 25.00000000
v -25.28929710 98.35931396 25.00000000
v -25.83300018 98.55720520 25.00000000
v -26.27622986 98.92911530 25.00000000
v -25.28929710 98.35931396 10.00000000
v -25.28929710 98.35931396 17.50000000
v -24.71070290 98.35931396 10.00000000
v -24.71070290 98.35931396 17.50000000
v -24.71070290 98.35931396 25.00000000
v -25.28929710 98.35931396 25.00000000
v -24.71070290 98.35931396 10.00000000
v -24.71070290 98.35931396 17.50000000
v -24.16699982 98.55720520 10.00000000
v -24.16699982 98.55720520 17.50000000
v -23.72377014 98.92911530 10.00000000
v -23.72377014 98.92911530 17.50000000
v -23.43447304 99.43019104 10.00000000
v -23.43447304 99.43019104 17.50000000
v -23.43447304 99.43019104 25.00000000
v -23.72377014 98.92911530 25.00000000
v -24.16699982 98.55720520 25.00000000
v -24.71070290 98.35931396 25.00000000
v -23.43447304 99.43019104 10.00000000
v -23.43447304 99.43019104 17.50000000
v -23.33399963 100.00000000 10.00000000
v -23.33399963 100.00000000 17.50000000
v -23.33399963 100.00000000 25.00000000
v -23.43447304 99.43019104 25.00000000
v -23.33399963 100.00000000 10.00000000
v -23.33399963 100.00000000 17.50000000
v -23.43447304 100.56980896 10.00000000
v -23.43447304 100.56980896 17.50000000
v -23.43447304 100.56980896 25.00000000
v -23.33399963 100.00000000 25.00000000
v -23.43447304 100.56980896 10.00000000
v -23.43447304 100.56980896 17.50000000
v -23.72377014 101.07088470 10.00000000
v -23.72377014 101.07088470 17.50000000
v -24.16699982 101.44279480 10.00000000
v -24.16699982 101.44279480 17.50000000
v -24.71070290 101.64068604 10.00000000
v -24.71070290 101.64068604 17.50000000
v -24.71070290 101.64068604 25.00000000
v -24.16699982 101.44279480 25.00000000
v -23.72377014 101.07088470 25.00000000
v -23.43447304 100.56980896 25.00000000
v -24.71070290 101.64068604 10.00000000
v -24.71070290 101.64068604 17.50000000
v -25.28929710 101.64068604 10.00000000
v -25.28929710 101.64068604 17.50000000
v -25.28929710 101.64068604 25.00000000
v -24.71070290 101.64068604 25.00000000
v -26.56552696 100.56980896 10.00000000
v -26.56552696 100.56980896 17.50000000
v -25.28929710 101.64068604 10.00000000
v -25.28929710 101.64068604 17.50000000
v -25.83300018 101.44279480 10.00000000
v -25.83300018 101.44279480 17.50000000
v -26.27622986 101.07088470 10.00000000
v -26.27622986 101.07088470 17.50000000
v -26.56552696 100.56980896 25.00000000
v -26.27622986 101.07088470 25.00000000
v -25.83300018 101.44279480 25.00000000
v -25.28929710 101.64068604 25.00000000
v -26.56552696 99.43019104 25.00000000
v -26.66600037 100.00000000 25.00000000
v -26.56552696 100.56980896 25.00000000
v -26.27622986 101.07088470 25.00000000
v -25.83300018 101.44279480 25.00000000
v -25.28929710 101.64068604 25.00000000
v -24.71070290 101.64068604 25.00000000
v -24.16699982 101.44279480 25.00000000
v -23.72377014 101.07088470 25.00000000
v -23.43447304 100.56980896 25.00000000
v -23.33399963 100.00000000 25.00000000
v -23.43447304 99.43019104 25.00000000
v -23.72377014 98.92911530 25.00000000
v -24.16699982 98.55720520 25.00000000
v -24.71070290 98.35931396 25.00000000
v -25.28929710 98.35931396 25.00000000
v -25.83300018 98.55720520 25.00000000
v -26.27622986 98.92911530 25.00000000
v -23.43447304 135.00000000 54.43019485
v -23.43447304 127.50000000 54.43019485
v -23.33399963 135.00000000 55.00000000
v -23.33399963 127.50000000 55.00000000
v -23.33399963 120.00000000 55.00000000
v -23.43447304 120.00000000 54.43019485
v -23.33399963 135.00000000 55.00000000
v -23.33399963 127.50000000 55.00000000
v -23.43447304 135.00000000 55.56980515
v -23.43447304 127.50000000 55.56980515
v -23.43447304 120.00000000 55.56980515
v -23.33399963 120.00000000 55.00000000
v -23.43447304 135.00000000 55.56980515
v -23.43447304 127.50000000 55.56980515
v -23.72377014 135.00000000 56.07088470
v -23.72377014 127.50000000 56.07088470
v -24.16699982 135.00000000 56.44279861
v -24.16699982 127.50000000 56.44279861
v -24.71070290 135.00000000 56.64068985
v -24.71070290 127.50000000 56.64068985
v -23.43447304 120.00000000 55.56980515
v -24.71070290 120.00000000 56.64068985
v -24.16699982 120.00000000 56.44279861
v -23.72377014 120.00000000 56.07088470
v -24.71070290 135.00000000 56.64068985
v -24.71070290 127.50000000 56.64068985
v -25.28929710 135.00000000 56.64068985
v -25.28929710 127.50000000 56.64068985
v -25.28929710 120.00000000 56.64068985
v -24.71070290 120.00000000 56.64068985
v -25.28929710 135.00000000 56.64068985
v -25.28929710 127.50000000 56.64068985
v -25.83300018 135.00000000 56.44279861
v -25.83300018 127.50000000 56.44279861
v -26.27622986 135.00000000 56.07088470
v -26.27622986 127.50000000 56.07088470
v -26.56552696 135.00000000 55.56980515
v -26.56552696 127.50000000 55.56980515
v -26.56552696 120.00000000 55.56980515
v -26.27622986 120.00000000 56.07088470
v -25.83300018 120.00000000 56.44279861
v -25.28929710 120.00000000 56.64068985
v -26.56552696 135.00000000 55.56980515
v -26.56552696 127.50000000 55.56980515
v -26.66600037 135.00000000 55.00000000
v -26.66600037 127.50000000 55.00000000
v -26.66600037 120.00000000 55.00000000
v -26.56552696 120.00000000 55.56980515
v -26.66600037 135.00000000 55.00000000
v -26.66600037 127.50000000 55.00000000
v -26.56552696 135.00000000 54.43019485
v -26.56552696 127.50000000 54.43019485
v -26.56552696 120.00000000 54.43019485
v -26.66600037 120.00000000 55.00000000
v -26.56552696 135.00000000 54.43019485
v -26.56552696 127.50000000 54.43019485
v -26.27622986 135.00000000 53.92911530
v -26.27622986 127.50000000 53.92911530
v -25.83300018 135.00000000 53.55720139
v -25.83300018 127.50000000 53.55720139
v -25.28929710 135.00000000 53.35931015
v -25.28929710 127.50000000 53.35931015
v -25.28929710 120.00000000 53.35931015
v -25.83300018 120.00000000 53.55720139
v -26.27622986 120.00000000 53.92911530
v -26.56552696 120.00000000 54.43019485
v -25.28929710 135.00000000 53.35931015
v -25.28929710 127.50000000 53.35931015
v -24.71070290 135.00000000 53.35931015
v -24.71070290 127.50000000 53.35931015
v -24.71070290 120.00000000 53.35931015
v -25.28929710 120.00000000 53.35931015
v -23.43447304 135.00000000 54.43019485
v -23.43447304 127.50000000 54.43019485
v -24.71070290 135.00000000 53.35931015
v -24.71070290 127.50000000 53.35931015
v -24.16699982 135.00000000 53.55720139
v -24.16699982 127.50000000 53.55720139
v -23.72377014 135.00000000 53.92911530
v -23.72377014 127.50000000 53.92911530
v -23.43447304 120.00000000 54.43019485
v -23.72377014 120.00000000 53.92911530
v -24.16699982 120.00000000 53.55720139
v -24.71070290 120.00000000 53.35931015
v -23.43447304 120.00000000 55.56980515
v -23.33399963 120.00000000 55.00000000
v -23.43447304 120.00000000 54.43019485
v -23.72377014 120.00000000 53.92911530
v -24.16699982 120.00000000 53.55720139
v -24.71070290 120.00000000 53.35931015
v -25.28929710 120.00000000 53.35931015
v -25.83300018 120.00000000 53.55720139
v -26.27622986 120.00000000 53.92911530
v -26.56552696 120.00000000 54.43019485
v -26.66600037 120.00000000 55.00000000
v -26.56552696 120.00000000 55.56980515
v -26.27622986 120.00000000 56.07088470
v -25.83300018 120.00000000 56.44279861
v -25.28929710 120.00000000 56.64068985
v -24.71070290 120.00000000 56.64068985
v -24.16699982 120.00000000 56.44279861
v -23.72377014 120.00000000 56.07088470
v -23.43447304 135.00000000 94.43019104
v -23.43447304 127.50000000 94.43019104
v -23.33399963 135.00000000 95.00000000
v -23.33399963 127.50000000 95.00000000
v -23.33399963 120.00000000 95.00000000
v -23.43447304 120.00000000 94.43019104
v -23.33399963 135.00000000 95.00000000
v -23.33399963 127.50000000 95.00000000
v -23.43447304 135.00000000 95.56980896
v -23.43447304 127.50000000 95.56980896
v -23.43447304 120.00000000 95.56980896
v -23.33399963 120.00000000 95.00000000
v -23.43447304 135.00000000 95.56980896
v -23.43447304 127.50000000 95.56980896
v -23.72377014 135.00000000 96.07088470
v -23.72377014 127.50000000 96.07088470
v -24.16699982 135.00000000 96.44279480
v -24.16699982 127.50000000 96.44279480
v -24.71070290 135.00000000 96.64068604
v -24.71070290 127.50000000 96.64068604
v -23.43447304 120.00000000 95.56980896
v -24.71070290 120.00000000 96.64068604
v -24.16699982 120.00000000 96.44279480
v -23.72377014 120.00000000 96.07088470
v -24.71070290 135.00000000 96.64068604
v -24.71070290 127.50000000 96.64068604
v -25.28929710 135.00000000 96.64068604
v -25.28929710 127.50000000 96.64068604
v -25.28929710 120.00000000 96.64068604
v -24.71070290 120.00000000 96.64068604
v -25.28929710 135.00000000 96.64068604
v -25.28929710 127.50000000 96.64068604
v -25.83300018 135.00000000 96.44279480
v -25.83300018 127.50000000 96.44279480
v -26.27622986 135.00000000 96.07088470
v -26.27622986 127.50000000 96.07088470
v -26.56552696 135.00000000 95.56980896
v -26.56552696 127.50000000 95.56980896
v -26.56552696 120.00000000 95.56980896
v -26.27622986 120.00000000 96.07088470
v -25.83300018 120.00000000 96.44279480
v -25.28929710 120.00000000 96.64068604
v -26.56552696 135.00000000 95.56980896
v -26.56552696 127.50000000 95.56980896
v -26.66600037 135.00000000 95.00000000
v -26.66600037 127.50000000 95.00000000
v -26.66600037 120.00000000 95.00000000
v -26.56552696 120.00000000 95.56980896
v -26.66600037 135.00000000 95.00000000
v -26.66600037 127.50000000 95.00000000
v -26.56552696 135.00000000 94.43019104
v -26.56552696 127.50000000 94.43019104
v -26.56552696 120.00000000 94.43019104
v -26.66600037 120.00000000 95.00000000
v -26.56552696 135.00000000 94.43019104
v -26.56552696 127.50000000 94.43019104
v -26.27622986 135.00000000 93.92911530
v -26.27622986 127.50000000 93.92911530
v -25.83300018 135.00000000 93.55720520
v -25.83300018 127.50000000 93.55720520
v -25.28929710 135.00000000 93.35931396
v -25.28929710 127.50000000 93.35931396
v -25.28929710 120.00000000 93.35931396
v -25.83300018 120.00000000 93.55720520
v -26.27622986 120.00000000 93.92911530
v -26.56552696 120.00000000 94.43019104
v -25.28929710 135.00000000 93.35931396
v -25.28929710 127.50000000 93.35931396
v -24.71070290 135.00000000 93.35931396
v -24.71070290 127.50000000 93.35931396
v -24.71070290 120.00000000 93.35931396
v -25.28929710 120.00000000 93.35931396
v -23.43447304 135.00000000 94.43019104
v -23.43447304 127.50000000 94.43019104
v -24.71070290 135.00000000 93.35931396
v -24.71070290 127.50000000 93.35931396
v -24.16699982 135.00000000 93.55720520
v -24.16699982 127.50000000 93.55720520
v -23.72377014 135.00000000 93.92911530
v -23.72377014 127.50000000 93.92911530
v -23.43447304 120.00000000 94.43019104
v -23.72377014 120.00000000 93.92911530
v -24.16699982 120.00000000 93.55720520
v -24.71070290 120.00000000 93.35931396
v -23.43447304 120.00000000 95.56980896
v -23.33399963 120.00000000 95.00000000
v -23.43447304 120.00000000 94.43019104
v -23.72377014 120.00000000 93.92911530
v -24.16699982 120.00000000 93.55720520
v -24.71070290 120.00000000 93.35931396
v -25.28929710 120.00000000 93.35931396
v -25.83300018 120.00000000 93.55720520
v -26.27622986 120.00000000 93.92911530
v -26.56552696 120.00000000 94.43019104
v -26.66600037 120.00000000 95.00000000
v -26.56552696 120.00000000 95.56980896
v -26.27622986 120.00000000 96.07088470
v -25.83300018 120.00000000 96.44279480
v -25.28929710 120.00000000 96.64068604
v -24.71070290 120.00000000 96.64068604
v -24.16699982 120.00000000 96.44279480
v -23.72377014 120.00000000 96.07088470
v -26.56552696 10.00000000 94.43019104
v -26.56552696 17.50000000 94.43019104
v -26.66600037 10.00000000 95.00000000
v -26.66600037 17.50000000 95.00000000
v -26.66600037 25.00000000 95.00000000
v -26.56552696 25.00000000 94.43019104
v -26.66600037 10.00000000 95.00000000
v -26.66600037 17.50000000 95.00000000
v -26.56552696 10.00000000 95.56980896
v -26.56552696 17.50000000 95.56980896
v -26.56552696 25.00000000 95.56980896
v -26.66600037 25.00000000 95.00000000
v -26.56552696 10.00000000 95.56980896
v -26.56552696 17.50000000 95.56980896
v -26.27622986 10.00000000 96.07088470
v -26.27622986 17.50000000 96.07088470
v -25.83300018 10.00000000 96.44279480
v -25.83300018 17.50000000 96.44279480
v -25.28929710 10.00000000 96.64068604
v -25.28929710 17.50000000 96.64068604
v -26.56552696 25.00000000 95.56980896
v -25.28929710 25.00000000 96.64068604
v -25.83300018 25.00000000 96.44279480
v -26.27622986 25.00000000 96.07088470
v -25.28929710 10.00000000 96.64068604
v -25.28929710 17.50000000 96.64068604
v -24.71070290 10.00000000 96.64068604
v -24.71070290 17.50000000 96.64068604
v -24.71070290 25.00000000 96.64068604
v -25.28929710 25.00000000 96.64068604
v -24.71070290 10.00000000 96.64068604
v -24.71070290 17.50000000 96.64068604
v -24.16699982 10.00000000 96.44279480
v -24.16699982 17.50000000 96.44279480
v -23.72377014 10.00000000 96.07088470
v -23.72377014 17.50000000 96.07088470
v -23.43447304 10.00000000 95.56980896
v -23.43447304 17.50000000 95.56980896
v -23.43447304 25.00000000 95.56980896
v -23.72377014 25.00000000 96.07088470
v -24.16699982 25.00000000 96.44279480
v -24.71070290 25.00000000 96.64068604
v -23.43447304 10.00000000 95.56980896
v -23.43447304 17.50000000 95.56980896
v -23.33399963 10.00000000 95.00000000
v -23.33399963 17.50000000 95.00000000
v -23.33399963 25.00000000 95.00000000
v -23.43447304 25.00000000 95.56980896
v -23.33399963 10.00000000 95.00000000
v -23.33399963 17.50000000 95.00000000
v -23.43447304 10.00000000 94.43019104
v -23.43447304 17.50000000 94.43019104
v -23.43447304 25.00000000 94.43019104
v -23.33399963 25.00000000 95.00000000
v -23.43447304 10.00000000 94.43019104
v -23.43447304 17.50000000 94.43019104
v -23.72377014 10.00000000 93.92911530
v -23.72377014 17.50000000 93.92911530
v -24.16699982 10.00000000 93.55720520
v -24.16699982 17.50000000 93.55720520
v -24.71070290 10.00000000 93.35931396
v -24.71070290 17.50000000 93.35931396
v -24.71070290 25.00000000 93.35931396
v -24.16699982 25.00000000 93.55720520
v -23.72377014 25.00000000 93.92911530
v -23.43447304 25.00000000 94.43019104
v -24.71070290 10.00000000 93.35931396
v -24.71070290 17.50000000 93.35931396
v -25.28929710 10.00000000 93.35931396
v -25.28929710 17.50000000 93.35931396
v -25.28929710 25.00000000 93.35931396
v -24.71070290 25.00000000 93.35931396
v -26.56552696 10.00000000 94.43019104
v -26.56552696 17.50000000 94.43019104
v -25.28929710 10.00000000 93.35931396
v -25.28929710 17.50000000 93.35931396
v -25.83300018 10.00000000 93.55720520
v -25.83300018 17.50000000 93.55720520
v -26.27622986 10.00000000 93.92911530
v -26.27622986 17.50000000 93.92911530
v -26.56552696 25.00000000 94.43019104
v -26.27622986 25.00000000 93.92911530
v -25.83300018 25.00000000 93.55720520
v -25.28929710 25.00000000 93.35931396
v -26.56552696 25.00000000 95.56980896
v -26.66600037 25.00000000 95.00000000
v -26.56552696 25.00000000 94.43019104
v -26.27622986 25.00000000 93.92911530
v -25.83300018 25.00000000 93.55720520
v -25.28929710 25.00000000 93.35931396
v -24.71070290 25.00000000 93.35931396
v -24.16699982 25.00000000 93.55720520
v -23.72377014 25.00000000 93.92911530
v -23.43447304 25.00000000 94.43019104
v -23.33399963 25.00000000 95.00000000
v -23.43447304 25.00000000 95.56980896
v -23.72377014 25.00000000 96.07088470
v -24.16699982 25.00000000 96.44279480
v -24.71070290 25.00000000 96.64068604
v -25.28929710 25.00000000 96.64068604
v -25.83300018 25.00000000 96.44279480
v -26.27622986 25.00000000 96.07088470
v -26.56552696 10.00000000 54.43019485
v -26.56552696 17.50000000 54.43019485
v -26.66600037 10.00000000 55.00000000
v -26.66600037 17.50000000 55.00000000
v -26.66600037 25.00000000 55.00000000
v -26.56552696 25.00000000 54.43019485
v -26.66600037 10.00000000 55.00000000
v -26.66600037 17.50000000 55.00000000
v -26.56552696 10.00000000 55.56980515
v -26.56552696 17.50000000 55.56980515
v -26.56552696 25.00000000 55.56980515
v -26.66600037 25.00000000 55.00000000
v -26.56552696 10.00000000 55.56980515
v -26.56552696 17.50000000 55.56980515
v -26.27622986 10.00000000 56.07088470
v -26.27622986 17.50000000 56.07088470
v -25.83300018 10.00000000 56.44279861
v -25.83300018 17.50000000 56.44279861
v -25.28929710 10.00000000 56.64068985
v -25.28929710 17.50000000 56.64068985
v -26.56552696 25.00000000 55.56980515
v -25.28929710 25.00000000 56.64068985
v -25.83300018 25.00000000 56.44279861
v -26.27622986 25.00000000 56.07088470
v -25.28929710 10.00000000 56.64068985
v -25.28929710 17.50000000 56.64068985
v -24.71070290 10.00000000 56.64068985
v -24.71070290 17.50000000 56.64068985
v -24.71070290 25.00000000 56.64068985
v -25.28929710 25.00000000 56.64068985
v -24.71070290 10.00000000 56.64068985
v -24.71070290 17.50000000 56.64068985
v -24.16699982 10.00000000 56.44279861
v -24.16699982 17.50000000 56.44279861
v -23.72377014 10.00000000 56.07088470
v -23.72377014 17.50000000 56.07088470
v -23.43447304 10.00000000 55.56980515
v -23.43447304 17.50000000 55.56980515
v -23.43447304 25.00000000 55.56980515
v -23.72377014 25.00000000 56.07088470
v -24.16699982 25.00000000 56.44279861
v -24.71070290 25.00000000 56.64068985
v -23.43447304 10.00000000 55.56980515
v -23.43447304 17.50000000 55.56980515
v -23.33399963 10.00000000 55.00000000
v -23.33399963 17.50000000 55.00000000
v -23.33399963 25.00000000 55.00000000
v -23.43447304 25.00000000 55.56980515
v -23.33399963 10.00000000 55.00000000
v -23.33399963 17.50000000 55.00000000
v -23.43447304 10.00000000 54.43019485
v -23.43447304 17.50000000 54.43019485
v -23.43447304 25.00000000 54.43019485
v -23.33399963 25.00000000 55.00000000
v -23.43447304 10.00000000 54.43019485
v -23.43447304 17.50000000 54.43019485
v -23.72377014 10.00000000 53.92911530
v -23.72377014 17.50000000 53.92911530
v -24.16699982 10.00000000 53.55720139
v -24.16699982 17.50000000 53.55720139
v -24.71070290 10.00000000 53.35931015
v -24.71070290 17.50000000 53.35931015
v -24.71070290 25.00000000 53.35931015
v -24.16699982 25.00000000 53.55720139
v -23.72377014 25.00000000 53.92911530
v -23.43447304 25.00000000 54.43019485
v -24.71070290 10.00000000 53.35931015
v -24.71070290 17.50000000 53.35931015
v -25.28929710 10.00000000 53.35931015
v -25.28929710 17.50000000 53.35931015
v -25.28929710 25.00000000 53.35931015
v -24.71070290 25.00000000 53.35931015
v -26.56552696 10.00000000 54.43019485
v -26.56552696 17.50000000 54.43019485
v -25.28929710 10.00000000 53.35931015
v -25.28929710 17.50000000 53.35931015
v -25.83300018 10.00000000 53.55720139
v -25.83300018 17.50000000 53.55720139
v -26.27622986 10.00000000 53.92911530
v -26.27622986 17.50000000 53.92911530
v -26.56552696 25.00000000 54.43019485
v -26.27622986 25.00000000 53.92911530
v -25.83300018 25.00000000 53.55720139
v -25.28929710 25.00000000 53.35931015
v -26.56552696 25.00000000 55.56980515
v -26.66600037 25.00000000 55.00000000
v -26.56552696 25.00000000 54.43019485
v -26.27622986 25.00000000 53.92911530
v -25.83300018 25.00000000 53.55720139
v -25.28929710 25.00000000 53.35931015
v -24.71070290 25.00000000 53.35931015
v -24.16699982 25.00000000 53.55720139
v -23.72377014 25.00000000 53.92911530
v -23.43447304 25.00000000 54.43019485
v -23.33399963 25.00000000 55.00000000
v -23.43447304 25.00000000 55.56980515
v -23.72377014 25.00000000 56.07088470
v -24.16699982 25.00000000 56.44279861
v -24.71070290 25.00000000 56.64068985
v -25.28929710 25.00000000 56.64068985
v -25.83300018 25.00000000 56.44279861
v -26.27622986 25.00000000 56.07088470
v -23.43447304 100.56980896 130.00000000
v -23.43447304 100.56980896 122.50000000
v -23.33399963 100.00000000 130.00000000
v -23.33399963 100.00000000 122.50000000
v -23.33399963 100.00000000 115.00000000
v -23.43447304 100.56980896 115.00000000
v -23.33399963 100.00000000 130.00000000
v -23.33399963 100.00000000 122.50000000
v -23.43447304 99.43019104 130.00000000
v -23.43447304 99.43019104 122.50000000
v -23.43447304 99.43019104 115.00000000
v -23.33399963 100.00000000 115.00000000
v -23.43447304 99.43019104 130.00000000
v -23.43447304 99.43019104 122.50000000
v -23.72377014 98.92911530 130.00000000
v -23.72377014 98.92911530 122.50000000
v -24.16699982 98.55720520 130.00000000
v -24.16699982 98.55720520 122.50000000
v -24.71070290 98.35931396 130.00000000
v -24.71070290 98.35931396 122.50000000
v -23.43447304 99.43019104 115.00000000
v -24.71070290 98.35931396 115.00000000
v -24.16699982 98.55720520 115.00000000
v -23.72377014 98.92911530 115.00000000
v -24.71070290 98.35931396 130.00000000
v -24.71070290 98.35931396 122.50000000
v -25.28929710 98.35931396 130.00000000
v -25.28929710 98.35931396 122.50000000
v -25.28929710 98.35931396 115.00000000
v -24.71070290 98.35931396 115.00000000
v -25.28929710 98.35931396 130.00000000
v -25.28929710 98.35931396 122.50000000
v -25.83300018 98.55720520 130.00000000
v -25.83300018 98.55720520 122.50000000
v -26.27622986 98.92911530 130.00000000
v -26.27622986 98.92911530 122.50000000
v -26.56552696 99.43019104 130.00000000
v -26.56552696 99.43019104 122.50000000
v -26.56552696 99.43019104 115.00000000
v -26.27622986 98.92911530 115.00000000
v -25.83300018 98.55720520 115.00000000
v -25.28929710 98.35931396 115.00000000
v -26.56552696 99.43019104 130.00000000
v -26.56552696 99.43019104 122.50000000
v -26.66600037 100.00000000 130.00000000
v -26.66600037 100.00000000 122.50000000
v -26.66600037 100.00000000 115.00000000
v -26.56552696 99.43019104 115.00000000
v -26.66600037 100.00000000 130.00000000
v -26.66600037 100.00000000 122.50000000
v -26.56552696 100.56980896 130.00000000
v -26.56552696 100.56980896 122.50000000
v -26.56552696 100.56980896 115.00000000
v -26.66600037 100.00000000 115.00000000
v -26.56552696 100.56980896 130.00000000
v -26.56552696 100.56980896 122.50000000
v -26.27622986 101.07088470 130.00000000
v -26.27622986 101.07088470 122.50000000
v -25.83300018 101.44279480 130.00000000
v -25.83300018 101.44279480 122.50000000
v -25.28929710 101.64068604 130.00000000
v -25.28929710 101.64068604 122.50000000
v -25.28929710 101.64068604 115.00000000
v -25.83300018 101.44279480 115.00000000
v -26.27622986 101.07088470 115.00000000
v -26.56552696 100.56980896 115.00000000
v -25.28929710 101.64068604 130.00000000
v -25.28929710 101.64068604 122.50000000
v -24.71070290 101.64068604 130.00000000
v -24.71070290 101.64068604 122.50000000
v -24.71070290 101.64068604 115.00000000
v -25.28929710 101.64068604 115.00000000
v -23.43447304 100.56980896 130.00000000
v -23.43447304 100.56980896 122.50000000
v -24.71070290 101.64068604 130.00000000
v -24.71070290 101.64068604 122.50000000
v -24.16699982 101.44279480 130.00000000
v -24.16699982 101.44279480 122.50000000
v -23.72377014 101.07088470 130.00000000
v -23.72377014 101.07088470 122.50000000
v -23.43447304 100.56980896 115.00000000
v -23.72377014 101.07088470 115.00000000
v -24.16699982 101.44279480 115.00000000
v -24.71070290 101.64068604 115.00000000
v -23.43447304 99.43019104 115.00000000
v -23.33399963 100.00000000 115.00000000
v -23.43447304 100.56980896 115.00000000
v -23.72377014 101.07088470 115.00000000
v -24.16699982 101.44279480 115.00000000
v -24.71070290 101.64068604 115.00000000
v -25.28929710 101.64068604 115.00000000
v -25.83300018 101.44279480 115.00000000
v -26.27622986 101.07088470 115.00000000
v -26.56552696 100.56980896 115.00000000
v -26.66600037 100.00000000 115.00000000
v -26.56552696 99.43019104 115.00000000
v -26.27622986 98.92911530 115.00000000
v -25.83300018 98.55720520 115.00000000
v -25.28929710 98.35931396 115.00000000
v -24.71070290 98.35931396 115.00000000
v -24.16699982 98.55720520 115.00000000
v -23.72377014 98.92911530 115.00000000
v -23.43447304 40.56980515 130.00000000
v -23.43447304 40.56980515 122.50000000
v -23.33399963 40.00000000 130.00000000
v -23.33399963 40.00000000 122.50000000
v -23.33399963 40.00000000 115.00000000
v -23.43447304 40.56980515 115.00000000
v -23.33399963 40.00000000 130.00000000
v -23.33399963 40.00000000 122.50000000
v -23.43447304 39.43019485 130.00000000
v -23.43447304 39.43019485 122.50000000
v -23.43447304 39.43019485 115.00000000
v -23.33399963 40.00000000 115.00000000
v -23.43447304 39.43019485 130.00000000
v -23.43447304 39.43019485 122.50000000
v -23.72377014 38.92911530 130.00000000
v -23.72377014 38.92911530 122.50000000
v -24.16699982 38.55720139 130.00000000
v -24.16699982 38.55720139 122.50000000
v -24.71070290 38.35931015 130.00000000
v -24.71070290 38.35931015 122.50000000
v -23.43447304 39.43019485 115.00000000
v -24.71070290 38.35931015 115.00000000
v -24.16699982 38.55720139 115.00000000
v -23.72377014 38.92911530 115.00000000
v -24.71070290 38.35931015 130.00000000
v -24.71070290 38.35931015 122.50000000
v -25.28929710 38.35931015 130.00000000
v -25.28929710 38.35931015 122.50000000
v -25.28929710 38.35931015 115.00000000
v -24.71070290 38.35931015 115.00000000
v -25.28929710 38.35931015 130.00000000
v -25.28929710 38.35931015 122.50000000
v -25.83300018 38.55720139 130.00000000
v -25.83300018 38.55720139 122.50000000
v -26.27622986 38.92911530 130.00000000
v -26.27622986 38.92911530 122.50000000
v -26.56552696 39.43019485 130.00000000
v -26.56552696 39.43019485 122.50000000
v -26.56552696 39.43019485 115.00000000
v -26.27622986 38.92911530 115.00000000
v -25.83300018 38.55720139 115.00000000
v -25.28929710 38.35931015 115.00000000
v -26.56552696 39.43019485 130.00000000
v -26.56552696 39.43019485 122.50000000
v -26.66600037 40.00000000 130.00000000
v -26.66600037 40.00000000 122.50000000
v -26.66600037 40.00000000 115.00000000
v -26.56552696 39.43019485 115.00000000
v -26.66600037 40.00000000 130.00000000
v -26.66600037 40.00000000 122.50000000
v -26.56552696 40.56980515 130.00000000
v -26.56552696 40.56980515 122.50000000
v -26.56552696 40.56980515 115.00000000
v -26.66600037 40.00000000 115.00000000
v -26.56552696 40.56980515 130.00000000
v -26.56552696 40.56980515 122.50000000
v -26.27622986 41.07088470 130.00000000
v -26.27622986 41.07088470 122.50000000
v -25.83300018 41.44279861 130.00000000
v -25.83300018 41.44279861 122.50000000
v -25.28929710 41.64068985 130.00000000
v -25.28929710 41.64068985 122.50000000
v -25.28929710 41.64068985 115.00000000
v -25.83300018 41.44279861 115.00000000
v -26.27622986 41.07088470 115.00000000
v -26.56552696 40.56980515 115.00000000
v -25.28929710 41.64068985 130.00000000
v -25.28929710 41.64068985 122.50000000
v -24.71070290 41.64068985 130.00000000
v -24.71070290 41.64068985 122.50000000
v -24.71070290 41.64068985 115.00000000
v -25.28929710 41.64068985 115.00000000
v -23.43447304 40.56980515 130.00000000
v -23.43447304 40.56980515 122.50000000
v -24.71070290 41.64068985 130.00000000
v -24.71070290 41.64068985 122.50000000
v -24.16699982 41.44279861 130.00000000
v -24.16699982 41.44279861 122.50000000
v -23.72377014 41.07088470 130.00000000
v -23.72377014 41.07088470 122.50000000
v -23.43447304 40.56980515 115.00000000
v -23.72377014 41.07088470 115.00000000
v -24.16699982 41.44279861 115.00000000
v -24.71070290 41.64068985 115.00000000
v -23.43447304 39.43019485 115.00000000
v -23.33399963 40.00000000 115.00000000
v -23.43447304 40.56980515 115.00000000
v -23.72377014 41.07088470 115.00000000
v -24.16699982 41.44279861 115.00000000
v -24.71070290 41.64068985 115.00000000
v -25.28929710 41.64068985 115.00000000
v -25.83300018 41.44279861 115.00000000
v -26.27622986 41.07088470 115.00000000
v -26.56552696 40.56980515 115.00000000
v -26.66600037 40.00000000 115.00000000
v -26.56552696 39.43019485 115.00000000
v -26.27622986 38.92911530 115.00000000
v -25.83300018 38.55720139 115.00000000
v -25.28929710 38.35931015 115.00000000
v -24.71070290 38.35931015 115.00000000
v -24.16699982 38.55720139 115.00000000
v -23.72377014 38.92911530 115.00000000
v -26.56552696 40.56980515 10.00000000
v -26.66600037 40.00000000 10.00000000
v -26.56552696 39.43019485 10.00000000
v -26.27622986 38.92911530 10.00000000
v -25.83300018 38.55720139 10.00000000
v -25.28929710 38.35931015 10.00000000
v -24.71070290 38.35931015 10.00000000
v -24.16699982 38.55720139 10.00000000
v -23.72377014 38.92911530 10.00000000
v -23.43447304 39.43019485 10.00000000
v -23.33399963 40.00000000 10.00000000
v -23.43447304 40.56980515 10.00000000
v -23.72377014 41.07088470 10.00000000
v -24.16699982 41.44279861 10.00000000
v -24.71070290 41.64068985 10.00000000
v -25.28929710 41.64068985 10.00000000
v -25.83300018 41.44279861 10.00000000
v -26.27622986 41.07088470 10.00000000
v -26.56552696 100.56980896 10.00000000
v -26.66600037 100.00000000 10.00000000
v -26.56552696 99.43019104 10.00000000
v -26.27622986 98.92911530 10.00000000
v -25.83300018 98.55720520 10.00000000
v -25.28929710 98.35931396 10.00000000
v -24.71070290 98.35931396 10.00000000
v -24.16699982 98.55720520 10.00000000
v -23.72377014 98.92911530 10.00000000
v -23.43447304 99.43019104 10.00000000
v -23.33399963 100.00000000 10.00000000
v -23.43447304 100.56980896 10.00000000
v -23.72377014 101.07088470 10.00000000
v -24.16699982 101.44279480 10.00000000
v -24.71070290 101.64068604 10.00000000
v -25.28929710 101.64068604 10.00000000
v -25.83300018 101.44279480 10.00000000
v -26.27622986 101.07088470 10.00000000
v -30.00000000 10.00000000 10.00000000
v -20.00000000 10.00000000 10.00000000
v -20.00000000 135.00000000 10.00000000
v -30.00000000 135.00000000 10.00000000
v -23.43447304 100.56980896 130.00000000
v -23.33399963 100.00000000 130.00000000
v -23.43447304 99.43019104 130.00000000
v -23.72377014 98.92911530 130.00000000
v -24.16699982 98.55720520 130.00000000
v -24.71070290 98.35931396 130.00000000
v -25.28929710 98.35931396 130.00000000
v -25.83300018 98.55720520 130.00000000
v -26.27622986 98.92911530 130.00000000
v -26.56552696 99.43019104 130.00000000
v -26.66600037 100.00000000 130.00000000
v -26.56552696 100.56980896 130.00000000
v -26.27622986 101.07088470 130.00000000
v -25.83300018 101.44279480 130.00000000
v -25.28929710 101.64068604 130.00000000
v -24.71070290 101.64068604 130.00000000
v -24.16699982 101.44279480 130.00000000
v -23.72377014 101.07088470 130.00000000
v -23.43447304 40.56980515 130.00000000
v -23.33399963 40.00000000 130.00000000
v -23.43447304 39.43019485 130.00000000
v -23.72377014 38.92911530 130.00000000
v -24.16699982 38.55720139 130.00000000
v -24.71070290 38.35931015 130.00000000
v -25.28929710 38.35931015 130.00000000
v -25.83300018 38.55720139 130.00000000
v -26.27622986 38.92911530 130.00000000
v -26.56552696 39.43019485 130.00000000
v -26.66600037 40.00000000 130.00000000
v -26.56552696 40.56980515 130.00000000
v -26.27622986 41.07088470 130.00000000
v -25.83300018 41.44279861 130.00000000
v -25.28929710 41.64068985 130.00000000
v -24.71070290 41.64068985 130.00000000
v -24.16699982 41.44279861 130.00000000
v -23.72377014 41.07088470 130.00000000
v -30.00000000 135.00000000 130.00000000
v -30.00000000 10.00000000 130.00000000
v -20.00000000 10.00000000 130.00000000
v -20.00000000 135.00000000 130.00000000
v -23.43447304 135.00000000 54.43019485
v -23.33399963 135.00000000 55.00000000
v -23.43447304 135.00000000 55.56980515
v -23.72377014 135.00000000 56.07088470
v -24.16699982 135.00000000 56.44279861
v -24.71070290 135.00000000 56.64068985
v -25.28929710 135.00000000 56.64068985
v -25.83300018 135.00000000 56.44279861
v -26.27622986 135.00000000 56.07088470
v -26.56552696 135.00000000 55.56980515
v -26.66600037 135.00000000 55.00000000
v -26.56552696 135.00000000 54.43019485
v -26.27622986 135.00000000 53.92911530
v -25.83300018 135.00000000 53.55720139
v -25.28929710 135.00000000 53.35931015
v -24.71070290 135.00000000 53.35931015
v -24.16699982 135.00000000 53.55720139
v -23.72377014 135.00000000 53.92911530
v -23.43447304 135.00000000 94.43019104
v -23.33399963 135.00000000 95.00000000
v -23.43447304 135.00000000 95.56980896
v -23.72377014 135.00000000 96.07088470
v -24.16699982 135.00000000 96.44279480
v -24.71070290 135.00000000 96.64068604
v -25.28929710 135.00000000 96.64068604
v -25.83300018 135.00000000 96.44279480
v -26.27622986 135.00000000 96.07088470
v -26.56552696 135.00000000 95.56980896
v -26.66600037 135.00000000 95.00000000
v -26.56552696 135.00000000 94.43019104
v -26.27622986 135.00000000 93.92911530
v -25.83300018 135.00000000 93.55720520
v -25.28929710 135.00000000 93.35931396
v -24.71070290 135.00000000 93.35931396
v -24.16699982 135.00000000 93.55720520
v -23.72377014 135.00000000 93.92911530
v -20.00000000 135.00000000 10.00000000
v -30.00000000 135.00000000 10.00000000
v -30.00000000 135.00000000 130.00000000
v -20.00000000 135.00000000 130.00000000
v -26.56552696 10.00000000 94.43019104
v -26.66600037 10.00000000 95.00000000
v -26.56552696 10.00000000 95.56980896
v -26.27622986 10.00000000 96.07088470
v -25.83300018 10.00000000 96.44279480
v -25.28929710 10.00000000 96.64068604
v -24.71070290 10.00000000 96.64068604
v -24.16699982 10.00000000 96.44279480
v -23.72377014 10.00000000 96.07088470
v -23.43447304 10.00000000 95.56980896
v -23.33399963 10.00000000 95.00000000
v -23.43447304 10.00000000 94.43019104
v -23.72377014 10.00000000 93.92911530
v -24.16699982 10.00000000 93.55720520
v -24.71070290 10.00000000 93.35931396
v -25.28929710 10.00000000 93.35931396
v -25.83300018 10.00000000 93.55720520
v -26.27622986 10.00000000 93.92911530
v -26.56552696 10.00000000 54.43019485
v -26.66600037 10.00000000 55.00000000
v -26.56552696 10.00000000 55.56980515
v -26.27622986 10.00000000 56.07088470
v -25.83300018 10.00000000 56.44279861
v -25.28929710 10.00000000 56.64068985
v -24.71070290 10.00000000 56.64068985
v -24.16699982 10.00000000 56.44279861
v -23.72377014 10.00000000 56.07088470
v -23.43447304 10.00000000 55.56980515
v -23.33399963 10.00000000 55.00000000
v -23.43447304 10.00000000 54.43019485
v -23.72377014 10.00000000 53.92911530
v -24.16699982 10.00000000 53.55720139
v -24.71070290 10.00000000 53.35931015
v -25.28929710 10.00000000 53.35931015
v -25.83300018 10.00000000 53.55720139
v -26.27622986 10.00000000 53.92911530
v -30.00000000 10.00000000 10.00000000
v -20.00000000 10.00000000 10.00000000
v -30.00000000 10.00000000 130.00000000
v -20.00000000 10.00000000 130.00000000
v -30.00000000 83.96824646 125.48390198
v -30.00000000 84.06449890 125.00000000
v -30.00000000 83.96824646 124.51609802
v -30.00000000 83.69413757 124.10586548
v -30.00000000 83.69413757 125.89413452
v -30.00000000 83.28390503 126.16824341
v -30.00000000 82.80000305 126.26450348
v -30.00000000 82.31609344 126.16824341
v -30.00000000 81.90586090 125.89413452
v -30.00000000 81.63175201 125.48390198
v -30.00000000 81.53549957 125.00000000
v -30.00000000 81.63175201 124.51609802
v -30.00000000 81.90586090 124.10586548
v -30.00000000 82.31609344 123.83175659
v -30.00000000 82.80000305 123.73549652
v -30.00000000 83.28390503 123.83175659
v -30.00000000 106.46824646 13.48390293
v -30.00000000 106.56449890 13.00000000
v -30.00000000 106.46824646 12.51609707
v -30.00000000 106.19413757 12.10586357
v -30.00000000 106.19413757 13.89413643
v -30.00000000 105.78390503 14.16824532
v -30.00000000 105.30000305 14.26449966
v -30.00000000 104.81609344 14.16824532
v -30.00000000 104.40586090 13.89413643
v -30.00000000 104.13175201 13.48390293
v -30.00000000 104.03549957 13.00000000
v -30.00000000 104.13175201 12.51609707
v -30.00000000 104.40586090 12.10586357
v -30.00000000 104.81609344 11.83175468
v -30.00000000 105.30000305 11.73550034
v -30.00000000 105.78390503 11.83175468
v -30.00000000 106.46824646 125.48390198
v -30.00000000 106.56449890 125.00000000
v -30.00000000 106.46824646 124.51609802
v -30.00000000 106.19413757 124.10586548
v -30.00000000 106.19413757 125.89413452
v -30.00000000 105.78390503 126.16824341
v -30.00000000 105.30000305 126.26450348
v -30.00000000 104.81609344 126.16824341
v -30.00000000 104.40586090 125.89413452
v -30.00000000 104.13175201 125.48390198
v -30.00000000 104.03549957 125.00000000
v -30.00000000 104.13175201 124.51609802
v -30.00000000 104.40586090 124.10586548
v -30.00000000 104.81609344 123.83175659
v -30.00000000 105.30000305 123.73549652
v -30.00000000 105.78390503 123.83175659
v -30.00000000 83.96824646 13.48390293
v -30.00000000 84.06449890 13.00000000
v -30.00000000 83.96824646 12.51609707
v -30.00000000 83.69413757 12.10586357
v -30.00000000 83.69413757 13.89413643
v -30.00000000 83.28390503 14.16824532
v -30.00000000 82.80000305 14.26449966
v -30.00000000 82.31609344 14.16824532
v -30.00000000 81.90586090 13.89413643
v -30.00000000 81.63175201 13.48390293
v -30.00000000 81.53549957 13.00000000
v -30.00000000 81.63175201 12.51609707
v -30.00000000 81.90586090 12.10586357
v -30.00000000 82.31609344 11.83175468
v -30.00000000 82.80000305 11.73550034
v -30.00000000 83.28390503 11.83175468
v -30.00000000 10.00000000 10.00000000
v -30.00000000 135.00000000 10.00000000
v -30.00000000 135.00000000 130.00000000
v -30.00000000 10.00000000 130.00000000
v -20.00000000 80.64996338 13.66319942
v -20.00000000 80.55000305 13.00000000
v -20.00000000 80.64996338 12.33680058
v -20.00000000 80.94096375 11.73252964
v -20.00000000 80.94096375 14.26747036
v -20.00000000 81.39714813 14.75912094
v -20.00000000 81.97798157 15.09446621
v -20.00000000 82.63185883 15.24370861
v -20.00000000 83.30067444 15.19358826
v -20.00000000 83.92500305 14.94855690
v -20.00000000 84.44936371 14.53038883
v -20.00000000 84.82717896 13.97623825
v -20.00000000 85.02487183 13.33534527
v -20.00000000 85.02487183 12.66465473
v -20.00000000 84.82717896 12.02376175
v -20.00000000 84.44936371 11.46961117
v -20.00000000 83.92500305 11.05144310
v -20.00000000 83.30067444 10.80641174
v -20.00000000 82.63185883 10.75629139
v -20.00000000 81.97798157 10.90553379
v -20.00000000 81.39714813 11.24087906
v -20.00000000 80.64996338 125.66320038
v -20.00000000 80.55000305 125.00000000
v -20.00000000 80.64996338 124.33679962
v -20.00000000 80.94096375 123.73252869
v -20.00000000 80.94096375 126.26747131
v -20.00000000 81.39714813 126.75911713
v -20.00000000 81.97798157 127.09446716
v -20.00000000 82.63185883 127.24370575
v -20.00000000 83.30067444 127.19358826
v -20.00000000 83.92500305 126.94855499
v -20.00000000 84.44936371 126.53038788
v -20.00000000 84.82717896 125.97624207
v -20.00000000 85.02487183 125.33534241
v -20.00000000 85.02487183 124.66465759
v -20.00000000 84.82717896 124.02375793
v -20.00000000 84.44936371 123.46961212
v -20.00000000 83.92500305 123.05144501
v -20.00000000 83.30067444 122.80641174
v -20.00000000 82.63185883 122.75629425
v -20.00000000 81.97798157 122.90553284
v -20.00000000 81.39714813 123.24088287
v -20.00000000 103.14996338 13.66319942
v -20.00000000 103.05000305 13.00000000
v -20.00000000 103.14996338 12.33680058
v -20.00000000 103.44096375 11.73252964
v -20.00000000 103.44096375 14.26747036
v -20.00000000 103.89714813 14.75912094
v -20.00000000 104.47798157 15.09446621
v -20.00000000 105.13185883 15.24370861
v -20.00000000 105.80067444 15.19358826
v -20.00000000 106.42500305 14.94855690
v -20.00000000 106.94936371 14.53038883
v -20.00000000 107.32717896 13.97623825
v -20.00000000 107.52487183 13.33534527
v -20.00000000 107.52487183 12.66465473
v -20.00000000 107.32717896 12.02376175
v -20.00000000 106.94936371 11.46961117
v -20.00000000 106.42500305 11.05144310
v -20.00000000 105.80067444 10.80641174
v -20.00000000 105.13185883 10.75629139
v -20.00000000 104.47798157 10.90553379
v -20.00000000 103.89714813 11.24087906
v -20.00000000 103.14996338 125.66320038
v -20.00000000 103.05000305 125.00000000
v -20.00000000 103.14996338 124.33679962
v -20.00000000 103.44096375 123.73252869
v -20.00000000 103.44096375 126.26747131
v -20.00000000 103.89714813 126.75911713
v -20.00000000 104.47798157 127.09446716
v -20.00000000 105.13185883 127.24370575
v -20.00000000 105.80067444 127.19358826
v -20.00000000 106.42500305 126.94855499
v -20.00000000 106.94936371 126.53038788
v -20.00000000 107.32717896 125.97624207
v -20.00000000 107.52487183 125.33534241
v -20.00000000 107.52487183 124.66465759
v -20.00000000 107.32717896 124.02375793
v -20.00000000 106.94936371 123.46961212
v -20.00000000 106.42500305 123.05144501
v -20.00000000 105.80067444 122.80641174
v -20.00000000 105.13185883 122.75629425
v -20.00000000 104.47798157 122.90553284
v -20.00000000 103.89714813 123.24088287
v -20.00000000 10.00000000 10.00000000
v -20.00000000 135.00000000 10.00000000
v -20.00000000 10.00000000 130.00000000
v -20.00000000 135.00000000 130.00000000
f 1 2 3
f 3 2 4
f 3 4 5
f 5 4 6
f 29 28 30
f 29 30 31
f 31 30 32
f 31 32 33
f 33 32 34
f 33 34 35
f 35 34 36
f 35 36 37
f 37 36 38
f 37 38 39
f 39 38 40
f 39 40 41
f 41 40 42
f 41 42 7
f 7 42 5
f 1 8 2
f 2 8 9
f 5 6 7
f 17 18 19
f 17 16 18
f 15 16 17
f 15 14 16
f 27 26 28
f 25 26 27
f 25 24 26
f 11 10 12
f 9 10 11
f 9 8 10
f 21 20 22
f 19 20 21
f 19 18 20
f 27 28 29
f 11 12 13
f 21 22 23
f 23 24 25
f 23 22 24
f 13 14 15
f 13 12 14
f 59 70 60
f 60 70 71
f 57 68 58
f 58 68 69
f 58 69 59
f 59 69 70
f 45 73 74
f 45 74 44
f 44 74 43
f 43 74 75
f 43 75 46
f 46 75 76
f 46 76 47
f 47 76 77
f 47 77 48
f 48 77 49
f 60 71 61
f 61 71 62
f 62 71 72
f 62 72 63
f 63 72 73
f 63 73 45
f 64 55 65
f 65 55 54
f 55 64 56
f 67 52 51
f 56 68 57
f 65 54 66
f 66 54 53
f 66 53 67
f 67 53 52
f 56 64 68
f 49 77 78
f 49 78 50
f 50 78 79
f 50 79 51
f 51 79 67
f 96 97 98
f 114 113 115
f 114 115 116
f 116 115 117
f 116 117 118
f 118 117 119
f 118 119 120
f 120 119 121
f 120 121 86
f 86 121 84
f 90 91 92
f 92 91 93
f 92 93 94
f 94 93 95
f 94 95 96
f 96 95 97
f 80 81 82
f 82 81 83
f 82 83 84
f 84 83 85
f 84 85 86
f 80 87 81
f 81 87 88
f 88 87 89
f 88 89 90
f 90 89 91
f 106 107 108
f 108 107 109
f 108 109 110
f 110 109 111
f 110 111 112
f 112 111 113
f 112 113 114
f 98 97 99
f 98 99 100
f 100 99 101
f 100 101 102
f 102 101 103
f 102 103 104
f 104 103 105
f 104 105 106
f 106 105 107
f 143 134 144
f 144 134 133
f 144 133 145
f 145 133 132
f 145 132 146
f 146 132 131
f 146 131 130
f 124 152 153
f 142 152 124
f 142 151 152
f 141 151 142
f 141 150 151
f 140 150 141
f 139 150 140
f 139 149 150
f 138 149 139
f 138 148 149
f 137 148 138
f 137 147 148
f 136 147 137
f 135 147 136
f 135 143 147
f 134 143 135
f 126 156 127
f 126 155 156
f 130 158 146
f 129 158 130
f 129 157 158
f 128 157 129
f 128 156 157
f 127 156 128
f 122 154 125
f 122 153 154
f 125 155 126
f 125 154 155
f 123 153 122
f 124 153 123
f 161 160 162
f 159 160 161
f 177 176 178
f 175 176 177
f 175 174 176
f 173 174 175
f 173 172 174
f 171 172 173
f 171 170 172
f 169 170 171
f 169 168 170
f 167 168 169
f 167 166 168
f 160 166 167
f 159 166 160
f 163 164 165
f 163 162 164
f 161 162 163
f 193 194 195
f 195 194 196
f 195 196 197
f 177 178 179
f 181 182 183
f 179 178 180
f 179 180 181
f 181 180 182
f 185 186 187
f 187 186 188
f 187 188 189
f 189 188 190
f 189 190 191
f 183 182 184
f 183 184 185
f 185 184 186
f 165 200 163
f 199 200 165
f 199 198 200
f 197 198 199
f 197 196 198
f 193 192 194
f 191 190 192
f 191 192 193
f 209 237 225
f 207 236 208
f 208 236 237
f 208 237 209
f 207 235 236
f 221 231 203
f 203 231 232
f 203 232 202
f 218 228 229
f 217 228 218
f 217 227 228
f 221 230 231
f 220 230 221
f 220 229 230
f 219 229 220
f 218 229 219
f 216 226 227
f 215 226 216
f 214 226 215
f 216 227 217
f 214 222 226
f 225 211 210
f 225 210 209
f 213 222 214
f 224 212 211
f 223 212 224
f 223 213 212
f 224 211 225
f 222 213 223
f 205 234 235
f 205 235 206
f 206 235 207
f 204 233 234
f 201 233 204
f 201 232 233
f 204 234 205
f 202 232 201
f 276 277 278
f 276 275 277
f 274 275 276
f 274 273 275
f 272 273 274
f 272 271 273
f 270 271 272
f 270 269 271
f 268 269 270
f 268 267 269
f 266 267 268
f 266 265 267
f 264 265 266
f 264 263 265
f 262 263 264
f 262 261 263
f 278 277 279
f 244 279 242
f 278 279 244
f 242 241 243
f 240 241 242
f 240 239 241
f 238 239 240
f 254 253 255
f 252 253 254
f 252 251 253
f 250 251 252
f 250 249 251
f 248 249 250
f 248 247 249
f 246 247 248
f 246 245 247
f 239 245 246
f 238 245 239
f 242 243 244
f 260 259 261
f 256 257 258
f 256 255 257
f 254 255 256
f 258 257 259
f 258 259 260
f 260 261 262
f 300 309 310
f 280 311 312
f 281 311 280
f 282 311 281
f 282 310 311
f 300 310 282
f 283 313 284
f 283 312 313
f 280 312 283
f 295 306 296
f 293 301 305
f 295 305 306
f 294 305 295
f 293 305 294
f 304 290 289
f 304 289 288
f 292 301 293
f 303 290 304
f 302 292 291
f 302 291 303
f 303 291 290
f 301 292 302
f 284 313 314
f 284 314 285
f 285 314 286
f 286 314 315
f 286 315 287
f 287 315 316
f 287 316 288
f 288 316 304
f 297 308 298
f 299 309 300
f 299 308 309
f 298 308 299
f 296 307 297
f 297 307 308
f 296 306 307
f 318 319 317
f 317 319 320
f 322 323 321
f 321 323 324
f 325 327 328
f 328 326 325
f 329 330 331
f 331 330 332
f 335 333 334
f 335 334 336
f 339 338 337
f 339 337 340
f 343 342 341
f 343 341 344
f 347 346 345
f 347 345 348
f 351 350 349
f 351 349 352
f 355 354 353
f 355 353 356
f 359 358 357
f 359 357 360
f 363 362 361
f 363 361 364
f 367 366 365
f 367 365 368
f 371 370 369
f 371 369 372
f 375 374 373
f 375 373 376
f 380 377 379
f 380 378 377
f 382 383 381
f 381 383 384
f 386 387 385
f 385 387 388
f 389 391 392
f 392 390 389
f 393 394 395
f 395 394 396
f 399 397 398
f 399 398 400
f 403 402 401
f 403 401 404
f 407 406 405
f 407 405 408
f 411 410 409
f 411 409 412
f 415 414 413
f 415 413 416
f 419 418 417
f 419 417 420
f 423 422 421
f 423 421 424
f 427 426 425
f 427 425 428
f 431 430 429
f 431 429 432
f 435 434 433
f 435 433 436
f 439 438 437
f 439 437 440
f 444 441 443
f 444 442 441
f 446 447 445
f 445 447 448
f 450 451 449
f 449 451 452
f 453 455 456
f 456 454 453
f 459 458 460
f 457 458 459
f 463 461 462
f 463 462 464
f 467 466 465
f 467 465 468
f 471 470 469
f 471 469 472
f 475 474 473
f 475 473 476
f 479 478 477
f 479 477 480
f 483 482 481
f 483 481 484
f 487 486 485
f 487 485 488
f 491 490 489
f 491 489 492
f 495 494 493
f 495 493 496
f 499 498 497
f 499 497 500
f 503 502 501
f 503 501 504
f 508 505 507
f 508 506 505
f 510 511 509
f 509 511 512
f 514 515 513
f 513 515 516
f 517 519 520
f 520 518 517
f 521 522 523
f 523 522 524
f 527 525 526
f 527 526 528
f 531 530 529
f 531 529 532
f 535 534 533
f 535 533 536
f 539 538 537
f 539 537 540
f 543 542 541
f 543 541 544
f 547 546 545
f 547 545 548
f 551 550 549
f 551 549 552
f 555 554 553
f 555 553 556
f 559 558 557
f 559 557 560
f 563 562 561
f 563 561 564
f 567 566 565
f 567 565 568
f 572 569 571
f 572 570 569
f 573 574 575
f 578 576 574
f 577 576 578
f 575 574 576
f 581 580 582
f 583 582 584
f 584 582 580
f 579 580 581
f 593 588 586
f 596 588 593
f 596 590 588
f 595 590 596
f 594 592 595
f 595 592 590
f 587 588 589
f 589 588 590
f 587 586 588
f 585 586 587
f 589 590 591
f 591 590 592
f 599 598 600
f 597 598 599
f 601 600 602
f 602 600 598
f 612 608 613
f 613 608 606
f 607 608 609
f 609 608 610
f 605 604 606
f 603 604 605
f 605 606 607
f 607 606 608
f 611 610 612
f 612 610 608
f 613 606 614
f 614 606 604
f 617 616 618
f 615 616 617
f 619 618 620
f 620 618 616
f 625 624 626
f 626 624 622
f 623 622 624
f 621 622 623
f 629 628 630
f 627 628 629
f 633 632 634
f 631 632 633
f 637 630 638
f 638 630 628
f 631 630 632
f 629 630 631
f 635 634 636
f 636 634 632
f 636 632 637
f 637 632 630
f 639 640 641
f 641 640 642
f 643 642 644
f 644 642 640
f 651 652 645
f 645 652 646
f 647 648 649
f 649 648 650
f 655 650 656
f 656 650 648
f 654 646 652
f 653 646 654
f 649 650 651
f 651 650 652
f 655 652 650
f 654 652 655
f 657 667 668
f 658 667 657
f 658 666 667
f 659 666 658
f 673 669 670
f 674 669 673
f 674 668 669
f 657 668 674
f 665 659 660
f 666 659 665
f 672 670 671
f 673 670 672
f 663 661 662
f 664 661 663
f 664 660 661
f 665 660 664
f 675 676 677
f 677 676 678
f 679 678 680
f 680 678 676
f 685 684 686
f 686 684 682
f 681 682 683
f 683 682 684
f 697 692 698
f 698 692 690
f 698 690 695
f 695 690 688
f 697 694 692
f 696 694 697
f 689 688 690
f 687 688 689
f 691 690 692
f 689 690 691
f 693 692 694
f 691 692 693
f 701 700 702
f 699 700 701
f 704 702 700
f 703 702 704
f 714 710 715
f 715 710 708
f 714 712 710
f 713 712 714
f 709 708 710
f 707 708 709
f 707 706 708
f 705 706 707
f 711 710 712
f 709 710 711
f 715 708 716
f 716 708 706
f 717 718 719
f 719 718 720
f 721 720 722
f 722 720 718
f 728 726 724
f 727 726 728
f 723 724 725
f 725 724 726
f 740 732 730
f 739 732 740
f 738 736 734
f 737 736 738
f 731 732 733
f 733 732 734
f 729 730 731
f 731 730 732
f 738 734 739
f 739 734 732
f 735 734 736
f 733 734 735
f 741 742 743
f 743 742 744
f 745 744 746
f 746 744 742
f 753 754 747
f 747 754 748
f 749 750 751
f 751 750 752
f 757 754 752
f 756 754 757
f 756 748 754
f 755 748 756
f 751 752 753
f 753 752 754
f 757 752 758
f 758 752 750
f 767 762 766
f 766 762 763
f 766 763 765
f 765 763 764
f 775 772 774
f 774 772 773
f 768 761 767
f 767 761 762
f 775 771 772
f 776 771 775
f 776 770 771
f 759 770 776
f 759 769 770
f 760 769 759
f 760 768 769
f 761 768 760
f 777 778 779
f 779 778 780
f 782 780 778
f 781 780 782
f 788 786 784
f 787 786 788
f 783 784 785
f 785 784 786
f 789 790 791
f 791 790 792
f 793 794 795
f 795 794 796
f 791 792 793
f 793 792 794
f 798 796 799
f 799 796 794
f 799 794 800
f 800 794 792
f 797 792 790
f 800 792 797
f 806 804 802
f 805 804 806
f 801 802 803
f 803 802 804
f 817 812 810
f 816 812 817
f 809 808 810
f 807 808 809
f 811 812 813
f 813 812 814
f 815 814 816
f 816 814 812
f 811 810 812
f 809 810 811
f 817 810 818
f 818 810 808
f 823 822 824
f 824 822 820
f 821 820 822
f 819 820 821
f 830 828 826
f 829 828 830
f 825 826 827
f 827 826 828
f 837 836 838
f 835 836 837
f 835 834 836
f 833 834 835
f 841 834 842
f 842 834 832
f 840 836 841
f 841 836 834
f 831 832 833
f 833 832 834
f 840 838 836
f 839 838 840
f 843 844 845
f 845 844 846
f 848 846 844
f 847 846 848
f 860 854 852
f 859 854 860
f 851 852 853
f 853 852 854
f 853 854 855
f 855 854 856
f 855 856 849
f 849 856 850
f 857 850 858
f 858 850 856
f 858 856 859
f 859 856 854
f 877 873 874
f 878 873 877
f 878 872 873
f 861 872 878
f 877 874 876
f 876 874 875
f 870 863 869
f 869 863 864
f 867 865 866
f 868 865 867
f 868 864 865
f 869 864 868
f 863 870 862
f 862 870 871
f 862 871 861
f 861 871 872
f 879 880 881
f 881 880 882
f 883 882 884
f 884 882 880
f 889 888 890
f 890 888 886
f 885 886 887
f 887 886 888
f 901 896 902
f 902 896 894
f 900 898 901
f 901 898 896
f 895 894 896
f 893 894 895
f 893 892 894
f 891 892 893
f 895 896 897
f 897 896 898
f 902 894 899
f 899 894 892
f 905 904 906
f 903 904 905
f 908 906 904
f 907 906 908
f 913 912 914
f 911 912 913
f 911 910 912
f 909 910 911
f 920 912 910
f 919 912 920
f 919 914 912
f 918 914 919
f 913 914 915
f 915 914 916
f 917 916 918
f 918 916 914
f 923 922 924
f 921 922 923
f 926 924 922
f 925 924 926
f 932 930 928
f 931 930 932
f 929 928 930
f 927 928 929
f 935 936 937
f 937 936 938
f 937 938 939
f 939 938 940
f 943 938 936
f 942 938 943
f 942 940 938
f 941 940 942
f 935 934 936
f 933 934 935
f 944 936 934
f 943 936 944
f 950 948 946
f 949 948 950
f 945 946 947
f 947 946 948
f 961 956 962
f 962 956 954
f 951 958 952
f 957 958 951
f 957 956 958
f 955 956 957
f 960 958 961
f 961 958 956
f 953 954 955
f 955 954 956
f 960 952 958
f 959 952 960
f 979 976 978
f 978 976 977
f 972 965 971
f 971 965 966
f 969 967 968
f 970 967 969
f 970 966 967
f 971 966 970
f 963 973 974
f 964 973 963
f 964 972 973
f 965 972 964
f 963 974 980
f 980 974 975
f 980 975 979
f 979 975 976
f 981 982 983
f 983 982 984
f 985 984 986
f 986 984 982
f 989 988 990
f 987 988 989
f 992 990 988
f 991 990 992
f 997 996 998
f 995 996 997
f 1002 1000 1003
f 1003 1000 998
f 997 998 999
f 999 998 1000
f 995 994 996
f 993 994 995
f 1001 996 994
f 1004 996 1001
f 1004 998 996
f 1003 998 1004
f 1009 1008 1010
f 1010 1008 1006
f 1005 1006 1007
f 1007 1006 1008
f 1019 1018 1020
f 1020 1018 1016
f 1017 1016 1018
f 1015 1016 1017
f 1020 1016 1021
f 1021 1016 1014
f 1022 1014 1012
f 1021 1014 1022
f 1011 1012 1013
f 1013 1012 1014
f 1013 1014 1015
f 1015 1014 1016
f 1027 1026 1028
f 1028 1026 1024
f 1023 1024 1025
f 1025 1024 1026
f 1034 1032 1030
f 1033 1032 1034
f 1031 1030 1032
f 1029 1030 1031
f 1043 1042 1044
f 1044 1042 1040
f 1039 1040 1041
f 1041 1040 1042
f 1037 1038 1039
f 1039 1038 1040
f 1046 1038 1036
f 1045 1038 1046
f 1037 1036 1038
f 1035 1036 1037
f 1044 1040 1045
f 1045 1040 1038
f 1047 1048 1049
f 1049 1048 1050
f 1051 1050 1052
f 1052 1050 1048
f 1059 1060 1053
f 1053 1060 1054
f 1055 1056 1057
f 1057 1056 1058
f 1062 1054 1060
f 1061 1054 1062
f 1059 1058 1060
f 1057 1058 1059
f 1063 1058 1064
f 1064 1058 1056
f 1062 1060 1063
f 1063 1060 1058
f 1065 1076 1082
f 1082 1076 1077
f 1082 1077 1081
f 1081 1077 1078
f 1073 1068 1072
f 1072 1068 1069
f 1072 1069 1071
f 1071 1069 1070
f 1073 1067 1068
f 1074 1067 1073
f 1080 1078 1079
f 1081 1078 1080
f 1065 1075 1076
f 1066 1075 1065
f 1066 1074 1075
f 1067 1074 1066
f 1088 1086 1084
f 1087 1086 1088
f 1083 1084 1085
f 1085 1084 1086
f 1089 1090 1091
f 1091 1090 1092
f 1094 1092 1090
f 1093 1092 1094
f 1101 1100 1102
f 1099 1100 1101
f 1106 1100 1098
f 1105 1100 1106
f 1095 1096 1097
f 1097 1096 1098
f 1105 1102 1100
f 1104 1102 1105
f 1106 1098 1103
f 1103 1098 1096
f 1097 1098 1099
f 1099 1098 1100
f 1111 1110 1112
f 1112 1110 1108
f 1109 1108 1110
f 1107 1108 1109
f 1122 1118 1123
f 1123 1118 1116
f 1122 1120 1118
f 1121 1120 1122
f 1119 1118 1120
f 1117 1118 1119
f 1123 1116 1124
f 1124 1116 1114
f 1113 1114 1115
f 1115 1114 1116
f 1115 1116 1117
f 1117 1116 1118
f 1130 1128 1126
f 1129 1128 1130
f 1127 1126 1128
f 1125 1126 1127
f 1131 1132 1133
f 1133 1132 1134
f 1136 1134 1132
f 1135 1134 1136
f 1146 1144 1142
f 1145 1144 1146
f 1146 1142 1147
f 1147 1142 1140
f 1139 1138 1140
f 1137 1138 1139
f 1139 1140 1141
f 1141 1140 1142
f 1148 1140 1138
f 1147 1140 1148
f 1141 1142 1143
f 1143 1142 1144
f 1151 1150 1152
f 1149 1150 1151
f 1154 1152 1150
f 1153 1152 1154
f 1155 1162 1156
f 1161 1162 1155
f 1161 1160 1162
f 1159 1160 1161
f 1157 1158 1159
f 1159 1158 1160
f 1165 1160 1166
f 1166 1160 1158
f 1163 1156 1164
f 1164 1156 1162
f 1164 1162 1165
f 1165 1162 1160
f 1175 1170 1174
f 1174 1170 1171
f 1174 1171 1173
f 1173 1171 1172
f 1175 1169 1170
f 1176 1169 1175
f 1182 1180 1181
f 1183 1180 1182
f 1167 1177 1178
f 1168 1177 1167
f 1168 1176 1177
f 1169 1176 1168
f 1167 1178 1184
f 1184 1178 1179
f 1184 1179 1183
f 1183 1179 1180
f 1189 1188 1190
f 1190 1188 1186
f 1185 1186 1187
f 1187 1186 1188
f 1196 1194 1192
f 1195 1194 1196
f 1193 1192 1194
f 1191 1192 1193
f 1201 1202 1203
f 1203 1202 1204
f 1206 1204 1207
f 1207 1204 1202
f 1205 1200 1198
f 1208 1200 1205
f 1208 1202 1200
f 1207 1202 1208
f 1201 1200 1202
f 1199 1200 1201
f 1199 1198 1200
f 1197 1198 1199
f 1213 1212 1214
f 1214 1212 1210
f 1209 1210 1211
f 1211 1210 1212
f 1224 1220 1225
f 1225 1220 1218
f 1225 1218 1226
f 1226 1218 1216
f 1223 1222 1224
f 1224 1222 1220
f 1221 1220 1222
f 1219 1220 1221
f 1219 1218 1220
f 1217 1218 1219
f 1215 1216 1217
f 1217 1216 1218
f 1227 1228 1229
f 1229 1228 1230
f 1231 1230 1232
f 1232 1230 1228
f 1238 1236 1234
f 1237 1236 1238
f 1235 1234 1236
f 1233 1234 1235
f 1241 1240 1242
f 1239 1240 1241
f 1249 1242 1250
f 1250 1242 1240
f 1243 1244 1245
f 1245 1244 1246
f 1243 1242 1244
f 1241 1242 1243
f 1247 1246 1248
f 1248 1246 1244
f 1248 1244 1249
f 1249 1244 1242
f 1255 1254 1256
f 1256 1254 1252
f 1253 1252 1254
f 1251 1252 1253
f 1259 1260 1261
f 1261 1260 1262
f 1257 1264 1258
f 1263 1264 1257
f 1267 1264 1262
f 1266 1264 1267
f 1266 1258 1264
f 1265 1258 1266
f 1261 1262 1263
f 1263 1262 1264
f 1267 1262 1268
f 1268 1262 1260
f 1269 1279 1280
f 1270 1279 1269
f 1270 1278 1279
f 1271 1278 1270
f 1285 1281 1282
f 1286 1281 1285
f 1286 1280 1281
f 1269 1280 1286
f 1277 1271 1272
f 1278 1271 1277
f 1284 1282 1283
f 1285 1282 1284
f 1275 1273 1274
f 1276 1273 1275
f 1276 1272 1273
f 1277 1272 1276
f 1292 1290 1288
f 1291 1290 1292
f 1289 1288 1290
f 1287 1288 1289
f 1295 1294 1296
f 1293 1294 1295
f 1298 1296 1294
f 1297 1296 1298
f 1308 1306 1309
f 1309 1306 1304
f 1301 1302 1303
f 1303 1302 1304
f 1309 1304 1310
f 1310 1304 1302
f 1299 1300 1301
f 1301 1300 1302
f 1303 1304 1305
f 1305 1304 1306
f 1310 1302 1307
f 1307 1302 1300
f 1311 1312 1313
f 1313 1312 1314
f 1315 1314 1316
f 1316 1314 1312
f 1321 1320 1322
f 1319 1320 1321
f 1319 1318 1320
f 1317 1318 1319
f 1328 1320 1318
f 1327 1320 1328
f 1327 1322 1320
f 1326 1322 1327
f 1323 1322 1324
f 1321 1322 1323
f 1325 1324 1326
f 1326 1324 1322
f 1333 1332 1334
f 1334 1332 1330
f 1331 1330 1332
f 1329 1330 1331
f 1339 1338 1340
f 1340 1338 1336
f 1337 1336 1338
f 1335 1336 1337
f 1347 1346 1348
f 1345 1346 1347
f 1351 1344 1352
f 1352 1344 1342
f 1351 1346 1344
f 1350 1346 1351
f 1350 1348 1346
f 1349 1348 1350
f 1343 1344 1345
f 1345 1344 1346
f 1341 1342 1343
f 1343 1342 1344
f 1355 1354 1356
f 1353 1354 1355
f 1358 1356 1354
f 1357 1356 1358
f 1370 1364 1362
f 1369 1364 1370
f 1363 1362 1364
f 1361 1362 1363
f 1359 1366 1360
f 1365 1366 1359
f 1365 1364 1366
f 1363 1364 1365
f 1367 1360 1368
f 1368 1360 1366
f 1368 1366 1369
f 1369 1366 1364
f 1379 1374 1378
f 1378 1374 1375
f 1378 1375 1377
f 1377 1375 1376
f 1379 1373 1374
f 1380 1373 1379
f 1386 1384 1385
f 1387 1384 1386
f 1387 1383 1384
f 1388 1383 1387
f 1388 1382 1383
f 1371 1382 1388
f 1371 1381 1382
f 1372 1381 1371
f 1372 1380 1381
f 1373 1380 1372
f 1426 1399 1417
f 1417 1399 1400
f 1417 1400 1416
f 1416 1400 1401
f 1426 1395 1396
f 1426 1396 1397
f 1397 1398 1426
f 1426 1398 1399
f 1405 1410 1411
f 1406 1410 1405
f 1406 1409 1410
f 1389 1409 1406
f 1391 1425 1390
f 1390 1425 1408
f 1390 1408 1389
f 1389 1408 1409
f 1427 1422 1428
f 1428 1422 1423
f 1428 1423 1424
f 1424 1407 1428
f 1427 1418 1419
f 1419 1420 1427
f 1427 1420 1421
f 1427 1421 1422
f 1405 1411 1404
f 1404 1411 1412
f 1404 1412 1413
f 1391 1392 1425
f 1414 1402 1403
f 1415 1402 1414
f 1415 1401 1402
f 1416 1401 1415
f 1428 1407 1408
f 1428 1408 1425
f 1425 1393 1394
f 1425 1392 1393
f 1427 1417 1418
f 1426 1417 1427
f 1413 1403 1404
f 1414 1403 1413
f 1425 1395 1426
f 1394 1395 1425
f 1447 1431 1464
f 1467 1449 1450
f 1464 1431 1432
f 1464 1432 1463
f 1463 1432 1433
f 1463 1433 1462
f 1465 1442 1443
f 1465 1443 1444
f 1465 1444 1468
f 1468 1444 1445
f 1468 1445 1446
f 1446 1429 1468
f 1468 1429 1430
f 1468 1430 1467
f 1459 1437 1438
f 1460 1437 1459
f 1460 1436 1437
f 1461 1436 1460
f 1441 1442 1465
f 1465 1440 1441
f 1465 1439 1440
f 1466 1439 1465
f 1454 1466 1453
f 1455 1466 1454
f 1453 1466 1467
f 1453 1467 1452
f 1457 1466 1456
f 1456 1466 1455
f 1458 1439 1457
f 1457 1439 1466
f 1451 1467 1450
f 1452 1467 1451
f 1431 1447 1430
f 1430 1447 1448
f 1458 1438 1439
f 1459 1438 1458
f 1462 1434 1435
f 1462 1433 1434
f 1467 1448 1449
f 1430 1448 1467
f 1462 1435 1461
f 1461 1435 1436
f 1503 1472 1473
f 1503 1473 1502
f 1502 1473 1474
f 1502 1474 1501
f 1500 1476 1499
f 1500 1475 1476
f 1501 1475 1500
f 1501 1474 1475
f 1506 1479 1480
f 1507 1479 1506
f 1508 1505 1470
f 1507 1496 1497
f 1505 1486 1469
f 1485 1486 1505
f 1505 1484 1485
f 1505 1483 1484
f 1506 1483 1505
f 1506 1482 1483
f 1481 1482 1506
f 1506 1480 1481
f 1498 1478 1497
f 1498 1477 1478
f 1499 1477 1498
f 1499 1476 1477
f 1471 1487 1470
f 1470 1487 1488
f 1470 1488 1508
f 1508 1488 1489
f 1507 1494 1495
f 1495 1496 1507
f 1508 1491 1492
f 1508 1492 1493
f 1497 1478 1479
f 1497 1479 1507
f 1507 1493 1494
f 1508 1493 1507
f 1505 1469 1470
f 1490 1491 1508
f 1504 1471 1472
f 1504 1472 1503
f 1508 1489 1490
f 1487 1471 1504
f 1511 1512 1547
f 1524 1532 1533
f 1546 1540 1541
f 1546 1541 1542
f 1546 1542 1545
f 1545 1542 1543
f 1535 1522 1534
f 1534 1522 1523
f 1534 1523 1533
f 1533 1523 1524
f 1548 1537 1546
f 1546 1537 1538
f 1546 1538 1539
f 1539 1540 1546
f 1545 1528 1547
f 1545 1527 1528
f 1544 1527 1545
f 1545 1543 1544
f 1547 1513 1514
f 1547 1512 1513
f 1526 1530 1525
f 1525 1530 1531
f 1510 1528 1509
f 1509 1528 1529
f 1509 1529 1526
f 1526 1529 1530
f 1510 1547 1528
f 1511 1547 1510
f 1525 1531 1524
f 1524 1531 1532
f 1514 1515 1547
f 1547 1515 1548
f 1548 1515 1516
f 1548 1516 1517
f 1537 1520 1536
f 1536 1520 1521
f 1536 1521 1535
f 1535 1521 1522
f 1517 1518 1548
f 1548 1518 1519
f 1548 1519 1537
f 1537 1519 1520
f 1616 1559 1560
f 1616 1558 1559
f 1616 1561 1613
f 1560 1561 1616
f 1589 1549 1553
f 1589 1553 1588
f 1550 1591 1592
f 1590 1549 1589
f 1549 1590 1550
f 1550 1590 1591
f 1603 1562 1563
f 1604 1562 1603
f 1613 1562 1604
f 1613 1561 1562
f 1594 1552 1593
f 1594 1564 1552
f 1595 1564 1594
f 1563 1564 1595
f 1615 1584 1583
f 1615 1596 1584
f 1614 1596 1615
f 1570 1596 1614
f 1570 1595 1596
f 1571 1595 1570
f 1571 1563 1595
f 1603 1563 1571
f 1600 1577 1578
f 1599 1577 1600
f 1599 1576 1577
f 1598 1576 1599
f 1598 1575 1576
f 1598 1574 1575
f 1597 1574 1598
f 1597 1573 1574
f 1557 1558 1616
f 1616 1556 1557
f 1616 1555 1556
f 1615 1555 1616
f 1587 1555 1615
f 1587 1554 1555
f 1588 1554 1587
f 1588 1553 1554
f 1567 1566 1614
f 1592 1551 1550
f 1593 1551 1592
f 1593 1552 1551
f 1615 1586 1587
f 1604 1605 1613
f 1613 1605 1606
f 1613 1606 1607
f 1614 1566 1565
f 1614 1565 1569
f 1569 1570 1614
f 1571 1572 1603
f 1603 1572 1602
f 1602 1572 1601
f 1601 1572 1573
f 1601 1573 1597
f 1585 1586 1615
f 1615 1581 1585
f 1615 1582 1581
f 1583 1582 1615
f 1607 1608 1613
f 1613 1608 1609
f 1613 1609 1610
f 1610 1611 1613
f 1600 1578 1612
f 1612 1578 1579
f 1612 1579 1611
f 1611 1579 1614
f 1611 1614 1613
f 1579 1580 1614
f 1614 1580 1568
f 1614 1568 1567
f 1698 1625 1666
f 1655 1625 1698
f 1697 1666 1667
f 1698 1666 1697
f 1619 1618 1701
f 1701 1618 1617
f 1657 1622 1623
f 1658 1622 1657
f 1703 1641 1640
f 1703 1658 1641
f 1701 1658 1703
f 1701 1622 1658
f 1621 1622 1701
f 1701 1617 1621
f 1655 1624 1625
f 1656 1624 1655
f 1656 1623 1624
f 1657 1623 1656
f 1701 1635 1636
f 1702 1635 1701
f 1677 1635 1702
f 1677 1634 1635
f 1687 1646 1686
f 1686 1646 1647
f 1686 1647 1685
f 1685 1647 1648
f 1685 1648 1684
f 1684 1648 1649
f 1684 1649 1680
f 1680 1649 1650
f 1661 1630 1631
f 1661 1631 1662
f 1662 1631 1632
f 1662 1632 1679
f 1679 1632 1633
f 1679 1633 1678
f 1678 1633 1634
f 1678 1634 1677
f 1700 1654 1699
f 1699 1654 1655
f 1699 1655 1698
f 1670 1671 1702
f 1701 1636 1637
f 1637 1620 1701
f 1701 1620 1619
f 1640 1639 1703
f 1697 1667 1696
f 1696 1667 1668
f 1696 1668 1702
f 1702 1668 1669
f 1702 1669 1670
f 1666 1625 1665
f 1665 1625 1626
f 1665 1626 1664
f 1703 1639 1638
f 1703 1638 1642
f 1642 1643 1703
f 1703 1643 1644
f 1702 1671 1672
f 1702 1672 1673
f 1673 1674 1702
f 1702 1674 1675
f 1703 1644 1645
f 1646 1687 1645
f 1645 1687 1704
f 1645 1704 1703
f 1702 1675 1676
f 1676 1677 1702
f 1687 1688 1704
f 1704 1688 1689
f 1680 1650 1681
f 1681 1650 1651
f 1681 1651 1682
f 1682 1651 1652
f 1702 1704 1696
f 1704 1695 1696
f 1704 1694 1695
f 1693 1694 1704
f 1660 1630 1661
f 1660 1629 1630
f 1659 1629 1660
f 1659 1628 1629
f 1663 1628 1659
f 1663 1627 1628
f 1664 1627 1663
f 1664 1626 1627
f 1682 1652 1683
f 1683 1652 1653
f 1683 1653 1700
f 1700 1653 1654
f 1704 1689 1690
f 1690 1691 1704
f 1704 1691 1692
f 1704 1692 1693

