# https://github.com/mikedh/trimesh
v -124.21269226 74.93107605 152.30000305
v -122.24307251 75.27837372 152.30000305
v -124.41905975 75.89971924 152.30000305
v -122.45852661 76.30297089 152.30000305
v -124.69339752 76.85135651 152.30000305
v -122.74053192 77.31129456 152.30000305
v -125.03432465 77.78121185 152.30000305
v -123.08787537 78.29901123 152.30000305
v -125.44013214 78.68463898 152.30000305
v -123.49907684 79.26189423 152.30000305
v -125.90879822 79.55711365 152.30000305
v -123.97237396 80.19582367 152.30000305
v -126.43797302 80.39427185 152.30000305
v -124.50573730 81.09679413 152.30000305
v -127.02500916 81.19192505 152.30000305
v -125.09688568 81.96095276 152.30000305
v -127.66696930 81.94608307 152.30000305
v -125.74328613 82.78459930 152.30000305
v -128.36064148 82.65296936 152.30000305
v -126.44217682 83.56420898 152.30000305
v -129.10255432 83.30904388 152.30000305
v -127.19055939 84.29644012 152.30000305
v -129.88899231 83.91102600 152.30000305
v -127.98522186 84.97814941 152.30000305
v -130.71601868 84.45590210 152.30000305
v -128.82278442 85.60643005 152.30000305
v -131.57949829 84.94094086 152.30000305
v -129.69963074 86.17858887 152.30000305
v -132.47509766 85.36373138 152.30000305
v -130.61201477 86.69217682 152.30000305
v -133.39836121 85.72213745 152.30000305
v -131.55604553 87.14498138 152.30000305
v -134.34465027 86.01438141 152.30000305
v -132.52767944 87.53507996 152.30000305
v -135.30923462 86.23898315 152.30000305
v -133.52273560 87.86079407 152.30000305
v -134.53697205 88.12073517 152.30000305
v -136.28727722 86.39483643 152.30000305
v -135.56602478 88.31378174 152.30000305
v -137.27389526 86.48115540 152.30000305
v -136.60551453 88.43911743 152.30000305
v -137.65095520 88.49619293 152.30000305
v -138.26414490 86.49750519 152.30000305
v -138.69790649 88.48477173 152.30000305
v -139.74186707 88.40489960 152.30000305
v -139.25306702 86.44380951 152.30000305
v -140.77836609 88.25692749 152.30000305
v -140.23573303 86.32032776 152.30000305
v -141.80297852 88.04147339 152.30000305
v -142.81129456 87.75946808 152.30000305
v -141.20719910 86.12768555 152.30000305
v -143.79901123 87.41212463 152.30000305
v -142.16261292 85.86684418 152.30000305
v -144.76188660 87.00092316 152.30000305
v -143.09719849 85.53911591 152.30000305
v -145.69581604 86.52762604 152.30000305
v -144.00628662 85.14612579 152.30000305
v -146.59678650 85.99426270 152.30000305
v -144.88529968 84.68985748 152.30000305
v -147.46095276 85.40311432 152.30000305
v -145.72987366 84.17257690 152.30000305
v -148.28460693 84.75671387 152.30000305
v -146.53575134 83.59688568 152.30000305
v -149.06420898 84.05782318 152.30000305
v -147.29891968 82.96566772 152.30000305
v -149.79643250 83.30944061 152.30000305
v -148.01554871 82.28206635 152.30000305
v -150.47814941 82.51477814 152.30000305
v -148.68205261 81.54951477 152.30000305
v -151.10643005 81.67722321 152.30000305
v -149.29510498 80.77167511 152.30000305
v -151.67858887 80.80036926 152.30000305
v -149.85162354 79.95244598 152.30000305
v -152.19216919 79.88797760 152.30000305
v -150.34884644 79.09591675 152.30000305
v -152.64498901 78.94394684 152.30000305
v -150.78425598 78.20637512 152.30000305
v -153.03507996 77.97232056 152.30000305
v -151.15570068 77.28828430 152.30000305
v -151.78730774 70.06892395 152.30000305
v -153.75692749 69.72162628 152.30000305
v -151.58093262 69.10028076 152.30000305
v -153.54147339 68.69702911 152.30000305
v -151.30661011 68.14864349 152.30000305
v -153.25947571 67.68870544 152.30000305
v -150.96568298 67.21878815 152.30000305
v -152.91212463 66.70098877 152.30000305
v -150.55986023 66.31536102 152.30000305
v -152.50093079 65.73810577 152.30000305
v -150.09120178 65.44288635 152.30000305
v -152.02763367 64.80417633 152.30000305
v -149.56202698 64.60572815 152.30000305
v -151.49426270 63.90320587 152.30000305
v -148.97499084 63.80807114 152.30000305
v -150.90310669 63.03904724 152.30000305
v -148.33302307 63.05391693 152.30000305
v -150.25671387 62.21539688 152.30000305
v -147.63935852 62.34703064 152.30000305
v -149.55783081 61.43579102 152.30000305
v -146.89744568 61.69095612 152.30000305
v -148.80944824 60.70356369 152.30000305
v -146.11100769 61.08897781 152.30000305
v -148.01477051 60.02184677 152.30000305
v -145.28398132 60.54410172 152.30000305
v -147.17721558 59.39356613 152.30000305
v -144.42050171 60.05905533 152.30000305
v -146.30036926 58.82141113 152.30000305
v -143.52490234 59.63627243 152.30000305
v -145.38798523 58.30782700 152.30000305
v -142.60163879 59.27786255 152.30000305
v -144.44395447 57.85501480 152.30000305
v -141.65534973 58.98562241 152.30000305
v -143.47232056 57.46491623 152.30000305
v -140.69076538 58.76101303 152.30000305
v -142.47726440 57.13920212 152.30000305
v -141.46302795 56.87926483 152.30000305
v -139.71272278 58.60515976 152.30000305
v -140.43397522 56.68621445 152.30000305
v -138.72610474 58.51884079 152.30000305
v -139.39448547 56.56088638 152.30000305
v -138.34904480 56.50380707 152.30000305
v -137.73585510 58.50249100 152.30000305
v -137.30209351 56.51522827 152.30000305
v -136.25813293 56.59510040 152.30000305
v -136.74693298 58.55619049 152.30000305
v -135.22163391 56.74307632 152.30000305
v -135.76426697 58.67966843 152.30000305
v -134.19702148 56.95852661 152.30000305
v -133.18870544 57.24052811 152.30000305
v -134.79280090 58.87231064 152.30000305
v -132.20098877 57.58787537 152.30000305
v -133.83738708 59.13315201 152.30000305
v -131.23811340 57.99907684 152.30000305
v -132.90280151 59.46088409 152.30000305
v -130.30418396 58.47237015 152.30000305
v -131.99371338 59.85387421 152.30000305
v -129.40321350 59.00573730 152.30000305
v -131.11470032 60.31014633 152.30000305
v -128.53904724 59.59688568 152.30000305
v -130.27012634 60.82742310 152.30000305
v -127.71540070 60.24328995 152.30000305
v -129.46424866 61.40311050 152.30000305
v -126.93579102 60.94217682 152.30000305
v -128.70108032 62.03433609 152.30000305
v -126.20355988 61.69055557 152.30000305
v -127.98445129 62.71793365 152.30000305
v -125.52185059 62.48522568 152.30000305
v -127.31794739 63.45048523 152.30000305
v -124.89356995 63.32277679 152.30000305
v -126.70489502 64.22832489 152.30000305
v -124.32141113 64.19963074 152.30000305
v -126.14836884 65.04755402 152.30000305
v -123.80782318 65.11202240 152.30000305
v -125.65115356 65.90408325 152.30000305
v -123.35501862 66.05605316 152.30000305
v -125.21574402 66.79362488 152.30000305
v -122.96492004 67.02767944 152.30000305
v -124.84430695 67.71171570 152.30000305
v -124.21269226 74.93107605 152.30000305
v -124.41905975 75.89971924 152.30000305
v -124.69339752 76.85135651 152.30000305
v -125.03432465 77.78121185 152.30000305
v -125.44013214 78.68463898 152.30000305
v -125.90879822 79.55711365 152.30000305
v -126.43797302 80.39427185 152.30000305
v -127.02500916 81.19192505 152.30000305
v -127.66696930 81.94608307 152.30000305
v -128.36064148 82.65296936 152.30000305
v -129.10255432 83.30904388 152.30000305
v -129.88899231 83.91102600 152.30000305
v -130.71601868 84.45590210 152.30000305
v -131.57949829 84.94094086 152.30000305
v -132.47509766 85.36373138 152.30000305
v -133.39836121 85.72213745 152.30000305
v -134.34465027 86.01438141 152.30000305
v -135.30923462 86.23898315 152.30000305
v -136.28727722 86.39483643 152.30000305
v -137.27389526 86.48115540 152.30000305
v -138.26414490 86.49750519 152.30000305
v -139.25306702 86.44380951 152.30000305
v -140.23573303 86.32032776 152.30000305
v -141.20719910 86.12768555 152.30000305
v -142.16261292 85.86684418 152.30000305
v -143.09719849 85.53911591 152.30000305
v -144.00628662 85.14612579 152.30000305
v -144.88529968 84.68985748 152.30000305
v -145.72987366 84.17257690 152.30000305
v -146.53575134 83.59688568 152.30000305
v -147.29891968 82.96566772 152.30000305
v -148.01554871 82.28206635 152.30000305
v -148.68205261 81.54951477 152.30000305
v -149.29510498 80.77167511 152.30000305
v -149.85162354 79.95244598 152.30000305
v -150.34884644 79.09591675 152.30000305
v -150.78425598 78.20637512 152.30000305
v -151.15570068 77.28828430 152.30000305
v -151.78730774 70.06892395 152.30000305
v -151.58093262 69.10028076 152.30000305
v -151.30661011 68.14864349 152.30000305
v -150.96568298 67.21878815 152.30000305
v -150.55986023 66.31536102 152.30000305
v -150.09120178 65.44288635 152.30000305
v -149.56202698 64.60572815 152.30000305
v -148.97499084 63.80807114 152.30000305
v -148.33302307 63.05391693 152.30000305
v -147.63935852 62.34703064 152.30000305
v -146.89744568 61.69095612 152.30000305
v -146.11100769 61.08897781 152.30000305
v -145.28398132 60.54410172 152.30000305
v -144.42050171 60.05905533 152.30000305
v -143.52490234 59.63627243 152.30000305
v -142.60163879 59.27786255 152.30000305
v -141.65534973 58.98562241 152.30000305
v -140.69076538 58.76101303 152.30000305
v -139.71272278 58.60515976 152.30000305
v -138.72610474 58.51884079 152.30000305
v -137.73585510 58.50249100 152.30000305
v -136.74693298 58.55619049 152.30000305
v -135.76426697 58.67966843 152.30000305
v -134.79280090 58.87231064 152.30000305
v -133.83738708 59.13315201 152.30000305
v -132.90280151 59.46088409 152.30000305
v -131.99371338 59.85387421 152.30000305
v -131.11470032 60.31014633 152.30000305
v -130.27012634 60.82742310 152.30000305
v -129.46424866 61.40311050 152.30000305
v -128.70108032 62.03433609 152.30000305
v -127.98445129 62.71793365 152.30000305
v -127.31794739 63.45048523 152.30000305
v -126.70489502 64.22832489 152.30000305
v -126.14836884 65.04755402 152.30000305
v -125.65115356 65.90408325 152.30000305
v -125.21574402 66.79362488 152.30000305
v -124.84430695 67.71171570 152.30000305
v -124.10159302 74.18351746 164.05549622
v -124.21269226 74.93107605 163.30000305
v -124.13932037 74.47016907 143.30000305
v -124.31282043 75.44297791 143.30000305
v -124.55451202 76.40113068 143.30000305
v -124.86318207 77.33984375 143.30000305
v -125.23730469 78.25444794 143.30000305
v -125.67501068 79.14038086 143.30000305
v -126.17411804 79.99322510 143.30000305
v -126.73213959 80.80874634 143.30000305
v -127.34629822 81.58287811 143.30000305
v -128.01353455 82.31175232 143.30000305
v -128.73051453 82.99174500 143.30000305
v -129.49368286 83.61946869 143.30000305
v -130.29922485 84.19179535 143.30000305
v -131.14314270 84.70587921 143.30000305
v -132.02120972 85.15914917 143.30000305
v -132.92906189 85.54935455 143.30000305
v -133.86218262 85.87454987 143.30000305
v -134.81591797 86.13311005 143.30000305
v -135.78552246 86.32375336 143.30000305
v -136.76614380 86.44552612 143.30000305
v -137.75291443 86.49781799 143.30000305
v -138.74092102 86.48037720 143.30000305
v -139.72525024 86.39328766 143.30000305
v -140.70095825 86.23698425 143.30000305
v -141.66322327 86.01224518 143.30000305
v -142.60723877 85.72018433 143.30000305
v -143.52830505 85.36226654 143.30000305
v -144.42182922 84.94026184 143.30000305
v -145.28335571 84.45628357 143.30000305
v -146.10859680 83.91274261 143.30000305
v -146.89343262 83.31233978 143.30000305
v -147.63397217 82.65807343 143.30000305
v -148.32652283 81.95320129 143.30000305
v -148.96762085 81.20123291 143.30000305
v -149.55407715 80.40591431 143.30000305
v -150.08296204 79.57120514 143.30000305
v -150.55166626 78.70127106 143.30000305
v -150.95782471 77.80044556 143.30000305
v -151.29943848 76.87320709 143.30000305
v -151.15570068 77.28828430 163.30000305
v -151.39492798 76.57137299 164.05549622
v -151.57478333 75.92418671 143.30000305
v -151.59510803 75.84259796 164.80879211
v -151.75567627 75.10408020 165.55767822
v -151.78251648 74.95810699 143.30000305
v -151.87615967 74.35797882 166.30000305
v -151.92156982 73.97978210 143.30000305
v -151.92645264 73.93312836 166.30000305
v -151.96374512 73.50694275 166.30000305
v -151.99127197 72.99407959 143.30000305
v -151.98799133 73.07981873 166.30000305
v -151.99890137 72.32412720 165.55767822
v -151.99127197 72.00592041 143.30000305
v -151.96900940 71.56894684 164.80879211
v -151.92156982 71.02021790 143.30000305
v -151.89840698 70.81648254 164.05549622
v -151.78730774 70.06892395 163.30000305
v -151.78251648 70.04189301 143.30000305
v -151.57478333 69.07581329 143.30000305
v -151.29943848 68.12679291 143.30000305
v -150.95782471 67.19955444 143.30000305
v -150.55166626 66.29872894 143.30000305
v -150.08296204 65.42879486 143.30000305
v -149.55407715 64.59408569 143.30000305
v -148.96762085 63.79876709 143.30000305
v -148.32652283 63.04679871 143.30000305
v -147.63397217 62.34192276 143.30000305
v -146.89343262 61.68765640 143.30000305
v -146.10859680 61.08725739 143.30000305
v -145.28335571 60.54371262 143.30000305
v -144.42182922 60.05973816 143.30000305
v -143.52830505 59.63773727 143.30000305
v -142.60723877 59.27981567 143.30000305
v -141.66322327 58.98775482 143.30000305
v -140.70095825 58.76301575 143.30000305
v -139.72525024 58.60670853 143.30000305
v -138.74092102 58.51961899 143.30000305
v -137.75291443 58.50218201 143.30000305
v -136.76614380 58.55447769 143.30000305
v -135.78552246 58.67625046 143.30000305
v -134.81591797 58.86689377 143.30000305
v -133.86218262 59.12545395 143.30000305
v -132.92906189 59.45064545 143.30000305
v -132.02120972 59.84085083 143.30000305
v -131.14314270 60.29412079 143.30000305
v -130.29922485 60.80820084 143.30000305
v -129.49368286 61.38053131 143.30000305
v -128.73051453 62.00825500 143.30000305
v -128.01353455 62.68824768 143.30000305
v -127.34629822 63.41712570 143.30000305
v -126.73213959 64.19125366 143.30000305
v -126.17411804 65.00677490 143.30000305
v -125.67501068 65.85961914 143.30000305
v -125.23730469 66.74555206 143.30000305
v -124.86318207 67.66015625 143.30000305
v -124.60507965 68.42862701 164.05549622
v -124.84430695 67.71171570 163.30000305
v -124.55451202 68.59886932 143.30000305
v -124.40489197 69.15740204 164.80879211
v -124.31282043 69.55702209 143.30000305
v -124.24431610 69.89591980 165.55767822
v -124.13932037 70.52983093 143.30000305
v -124.12383270 70.64202118 166.30000305
v -124.07354736 71.06687164 166.30000305
v -124.03487396 71.51245117 143.30000305
v -124.03626251 71.49305725 166.30000305
v -124.01200867 71.92018127 166.30000305
v -124.00000000 72.50000000 143.30000305
v -124.00110626 72.67587280 165.55767822
v -124.03487396 73.48754883 143.30000305
v -124.03099060 73.43105316 164.80879211
v -124.10159302 74.18351746 164.05549622
v -124.21269226 74.93107605 163.30000305
v -124.01200867 71.92018127 166.30000305
v -124.00110626 72.67587280 165.55767822
v -124.03099060 73.43105316 164.80879211
v -122.24307251 75.27837372 163.30000305
v -122.12963104 74.53255463 164.05418396
v -122.05146027 73.78221893 164.80670166
v -122.00875092 73.02903748 165.55586243
v -122.00158691 72.27467346 166.30000305
v -124.12383270 70.64202118 166.30000305
v -124.07354736 71.06687164 166.30000305
v -124.03626251 71.49305725 166.30000305
v -124.01200867 71.92018127 166.30000305
v -122.00158691 72.27467346 166.30000305
v -122.03161621 71.49470520 166.30000305
v -122.09963989 70.71714020 166.30000305
v -122.20551300 69.94380951 166.30000305
v -124.60507965 68.42862701 164.05549622
v -124.84430695 67.71171570 163.30000305
v -124.40489197 69.15740204 164.80879211
v -124.24431610 69.89591980 165.55767822
v -124.12383270 70.64202118 166.30000305
v -122.20551300 69.94380951 166.30000305
v -122.96492004 67.02767944 163.30000305
v -122.72368622 67.74246216 164.05418396
v -122.51641083 68.46782684 164.80670166
v -122.34355927 69.20214844 165.55586243
v -122.96492004 67.02767944 152.30000305
v -124.84430695 67.71171570 152.30000305
v -124.84430695 67.71171570 163.30000305
v -122.96492004 67.02767944 163.30000305
v -151.98799133 73.07981873 166.30000305
v -151.99890137 72.32412720 165.55767822
v -151.96900940 71.56894684 164.80879211
v -151.89840698 70.81648254 164.05549622
v -151.78730774 70.06892395 163.30000305
v -153.75692749 69.72162628 163.30000305
v -153.87037659 70.46744537 164.05418396
v -153.94853210 71.21778107 164.80670166
v -153.99125671 71.97096252 165.55586243
v -153.99841309 72.72532654 166.30000305
v -151.87615967 74.35797882 166.30000305
v -151.92645264 73.93312836 166.30000305
v -151.96374512 73.50694275 166.30000305
v -151.98799133 73.07981873 166.30000305
v -153.99841309 72.72532654 166.30000305
v -153.96838379 73.50529480 166.30000305
v -153.90036011 74.28285980 166.30000305
v -153.79449463 75.05619049 166.30000305
v -151.15570068 77.28828430 163.30000305
v -151.39492798 76.57137299 164.05549622
v -151.59510803 75.84259796 164.80879211
v -151.75567627 75.10408020 165.55767822
v -151.87615967 74.35797882 166.30000305
v -153.79449463 75.05619049 166.30000305
v -153.03507996 77.97232056 163.30000305
v -153.27632141 77.25753784 164.05418396
v -153.48359680 76.53217316 164.80670166
v -153.65644836 75.79785156 165.55586243
v -153.03507996 77.97232056 152.30000305
v -151.15570068 77.28828430 152.30000305
v -151.15570068 77.28828430 163.30000305
v -153.03507996 77.97232056 163.30000305
v -124.21269226 74.93107605 152.30000305
v -122.24307251 75.27837372 152.30000305
v -124.21269226 74.93107605 163.30000305
v -122.24307251 75.27837372 163.30000305
v -151.78730774 70.06892395 152.30000305
v -153.75692749 69.72162628 152.30000305
v -151.78730774 70.06892395 163.30000305
v -153.75692749 69.72162628 163.30000305
v -122.24307251 75.27837372 152.30000305
v -122.45852661 76.30297089 152.30000305
v -122.74053192 77.31129456 152.30000305
v -123.08787537 78.29901123 152.30000305
v -123.49907684 79.26189423 152.30000305
v -123.97237396 80.19582367 152.30000305
v -124.50573730 81.09679413 152.30000305
v -125.09688568 81.96095276 152.30000305
v -125.74328613 82.78459930 152.30000305
v -126.44217682 83.56420898 152.30000305
v -127.19055939 84.29644012 152.30000305
v -127.98522186 84.97814941 152.30000305
v -128.82278442 85.60643005 152.30000305
v -129.69963074 86.17858887 152.30000305
v -130.61201477 86.69217682 152.30000305
v -131.55604553 87.14498138 152.30000305
v -132.52767944 87.53507996 152.30000305
v -133.52273560 87.86079407 152.30000305
v -134.53697205 88.12073517 152.30000305
v -135.56602478 88.31378174 152.30000305
v -136.60551453 88.43911743 152.30000305
v -137.65095520 88.49619293 152.30000305
v -138.69790649 88.48477173 152.30000305
v -139.74186707 88.40489960 152.30000305
v -140.77836609 88.25692749 152.30000305
v -141.80297852 88.04147339 152.30000305
v -142.81129456 87.75946808 152.30000305
v -143.79901123 87.41212463 152.30000305
v -144.76188660 87.00092316 152.30000305
v -145.69581604 86.52762604 152.30000305
v -146.59678650 85.99426270 152.30000305
v -147.46095276 85.40311432 152.30000305
v -148.28460693 84.75671387 152.30000305
v -149.06420898 84.05782318 152.30000305
v -149.79643250 83.30944061 152.30000305
v -150.47814941 82.51477814 152.30000305
v -151.10643005 81.67722321 152.30000305
v -151.67858887 80.80036926 152.30000305
v -152.19216919 79.88797760 152.30000305
v -152.64498901 78.94394684 152.30000305
v -153.03507996 77.97232056 152.30000305
v -153.75692749 69.72162628 152.30000305
v -153.54147339 68.69702911 152.30000305
v -153.25947571 67.68870544 152.30000305
v -152.91212463 66.70098877 152.30000305
v -152.50093079 65.73810577 152.30000305
v -152.02763367 64.80417633 152.30000305
v -151.49426270 63.90320587 152.30000305
v -150.90310669 63.03904724 152.30000305
v -150.25671387 62.21539688 152.30000305
v -149.55783081 61.43579102 152.30000305
v -148.80944824 60.70356369 152.30000305
v -148.01477051 60.02184677 152.30000305
v -147.17721558 59.39356613 152.30000305
v -146.30036926 58.82141113 152.30000305
v -145.38798523 58.30782700 152.30000305
v -144.44395447 57.85501480 152.30000305
v -143.47232056 57.46491623 152.30000305
v -142.47726440 57.13920212 152.30000305
v -141.46302795 56.87926483 152.30000305
v -140.43397522 56.68621445 152.30000305
v -139.39448547 56.56088638 152.30000305
v -138.34904480 56.50380707 152.30000305
v -137.30209351 56.51522827 152.30000305
v -136.25813293 56.59510040 152.30000305
v -135.22163391 56.74307632 152.30000305
v -134.19702148 56.95852661 152.30000305
v -133.18870544 57.24052811 152.30000305
v -132.20098877 57.58787537 152.30000305
v -131.23811340 57.99907684 152.30000305
v -130.30418396 58.47237015 152.30000305
v -129.40321350 59.00573730 152.30000305
v -128.53904724 59.59688568 152.30000305
v -127.71540070 60.24328995 152.30000305
v -126.93579102 60.94217682 152.30000305
v -126.20355988 61.69055557 152.30000305
v -125.52185059 62.48522568 152.30000305
v -124.89356995 63.32277679 152.30000305
v -124.32141113 64.19963074 152.30000305
v -123.80782318 65.11202240 152.30000305
v -123.35501862 66.05605316 152.30000305
v -122.96492004 67.02767944 152.30000305
v -122.24307251 75.27837372 163.30000305
v -122.12963104 74.53255463 164.05418396
v -122.05146027 73.78221893 164.80670166
v -122.00875092 73.02903748 165.55586243
v -122.00158691 72.27467346 166.30000305
v -122.03161621 71.49470520 166.30000305
v -122.09963989 70.71714020 166.30000305
v -122.20551300 69.94380951 166.30000305
v -122.96492004 67.02767944 163.30000305
v -122.72368622 67.74246216 164.05418396
v -122.51641083 68.46782684 164.80670166
v -122.34355927 69.20214844 165.55586243
v -153.75692749 69.72162628 163.30000305
v -153.87037659 70.46744537 164.05418396
v -153.94853210 71.21778107 164.80670166
v -153.99125671 71.97096252 165.55586243
v -153.99841309 72.72532654 166.30000305
v -153.96838379 73.50529480 166.30000305
v -153.90036011 74.28285980 166.30000305
v -153.79449463 75.05619049 166.30000305
v -153.03507996 77.97232056 163.30000305
v -153.27632141 77.25753784 164.05418396
v -153.48359680 76.53217316 164.80670166
v -153.65644836 75.79785156 165.55586243
v -122.03498077 71.44255066 141.30000305
v -122.00000000 72.50000000 141.30000305
v -122.13977814 70.38972473 141.30000305
v -122.31391907 69.34613037 141.30000305
v -122.55665588 68.31632233 141.30000305
v -122.86692047 67.30480957 141.30000305
v -123.24336243 66.31600952 141.30000305
v -123.68433380 65.35425568 141.30000305
v -124.18789673 64.42375183 141.30000305
v -124.75186157 63.52856064 141.30000305
v -125.37374878 62.67259598 141.30000305
v -126.05085754 61.85960770 141.30000305
v -126.78021240 61.09314346 141.30000305
v -127.55862427 60.37656021 141.30000305
v -128.38270569 59.71299362 141.30000305
v -129.24882507 59.10533524 141.30000305
v -130.15322876 58.55625153 141.30000305
v -131.09193420 58.06814194 141.30000305
v -132.06083679 57.64313507 141.30000305
v -133.05572510 57.28309631 141.30000305
v -134.07223511 56.98959732 141.30000305
v -135.10591125 56.76391983 141.30000305
v -136.15225220 56.60705185 141.30000305
v -137.20666504 56.51968002 141.30000305
v -138.26454163 56.50218582 141.30000305
v -139.32127380 56.55464935 141.30000305
v -140.37222290 56.67683411 141.30000305
v -141.41279602 56.86820984 141.30000305
v -142.43844604 57.12794113 141.30000305
v -143.44468689 57.45489120 141.30000305
v -144.42712402 57.84762573 141.30000305
v -145.38145447 58.30443573 141.30000305
v -146.30351257 58.82331848 141.30000305
v -147.18925476 59.40200424 141.30000305
v -148.03482056 60.03796387 141.30000305
v -148.83650208 60.72841644 141.30000305
v -149.59080505 61.47034454 141.30000305
v -150.29441833 62.26050186 141.30000305
v -150.94427490 63.09543610 141.30000305
v -151.53752136 63.97149277 141.30000305
v -152.07157898 64.88484192 141.30000305
v -152.54409790 65.83148956 141.30000305
v -152.95303345 66.80729675 141.30000305
v -153.29656982 67.80799866 141.30000305
v -153.57322693 68.82921600 141.30000305
v -153.78178406 69.86648560 141.30000305
v -153.92132568 70.91526794 141.30000305
v -153.99125671 71.97098541 141.30000305
v -153.99125671 73.02901459 141.30000305
v -153.92132568 74.08473206 141.30000305
v -153.78178406 75.13351440 141.30000305
v -153.57322693 76.17078400 141.30000305
v -153.29656982 77.19200134 141.30000305
v -152.95303345 78.19270325 141.30000305
v -152.54409790 79.16851044 141.30000305
v -152.07157898 80.11515808 141.30000305
v -151.53752136 81.02851105 141.30000305
v -150.94427490 81.90456390 141.30000305
v -150.29441833 82.73949432 141.30000305
v -149.59080505 83.52965546 141.30000305
v -148.83650208 84.27158356 141.30000305
v -148.03482056 84.96203613 141.30000305
v -147.18925476 85.59799957 141.30000305
v -146.30351257 86.17668152 141.30000305
v -145.38145447 86.69556427 141.30000305
v -144.42712402 87.15237427 141.30000305
v -143.44468689 87.54511261 141.30000305
v -142.43844604 87.87205505 141.30000305
v -141.41279602 88.13179016 141.30000305
v -134.07223511 88.01040649 141.30000305
v -133.05572510 87.71690369 141.30000305
v -132.06083679 87.35686493 141.30000305
v -131.09193420 86.93186188 141.30000305
v -135.10591125 88.23608398 141.30000305
v -140.37222290 88.32316589 141.30000305
v -136.15225220 88.39295197 141.30000305
v -139.32127380 88.44535065 141.30000305
v -137.20666504 88.48031616 141.30000305
v -138.26454163 88.49781036 141.30000305
v -130.15322876 86.44374847 141.30000305
v -129.24882507 85.89466095 141.30000305
v -128.38270569 85.28701019 141.30000305
v -127.55862427 84.62343597 141.30000305
v -126.78021240 83.90685272 141.30000305
v -126.05085754 83.14039612 141.30000305
v -125.37374878 82.32740021 141.30000305
v -124.75186157 81.47144318 141.30000305
v -124.18789673 80.57624817 141.30000305
v -123.68433380 79.64574432 141.30000305
v -123.24336243 78.68399048 141.30000305
v -122.86692047 77.69519043 141.30000305
v -122.55665588 76.68367767 141.30000305
v -122.31391907 75.65386963 141.30000305
v -122.13977814 74.61027527 141.30000305
v -122.03498077 73.55744934 141.30000305
v -141.64030457 74.15796661 139.13922119
v -141.63653564 74.16600037 139.30000305
v -143.76406860 74.16600037 139.30000305
v -141.64030457 74.15796661 139.46078491
v -143.77325439 74.13422394 139.62152100
v -141.65122986 74.13390350 139.62313843
v -141.66882324 74.09384918 139.78411865
v -143.79937744 74.03857422 139.93902588
v -141.69256592 74.03784943 139.94075012
v -141.75387573 73.88114929 140.23091125
v -143.83869934 73.88165283 140.23013306
v -141.82243347 73.67857361 140.47750854
v -143.88319397 73.67813873 140.47795105
v -141.88977051 73.43199921 140.68040466
v -143.92735291 73.43032074 140.68151855
v -141.94822693 73.14147949 140.83755493
v -143.96586609 73.13914490 140.83851624
v -141.97036743 72.98458099 140.89370728
v -143.99116516 72.82155609 140.93421936
v -141.98660278 72.82337952 140.93385315
v -142.00000000 72.50000000 140.96600342
v -141.98660278 72.17662048 140.93385315
v -143.99116516 72.17844391 140.93421936
v -144.00000000 72.50000000 140.96600342
v -141.97036743 72.01541901 140.89370728
v -143.96586609 71.86085510 140.83851624
v -141.94822693 71.85852051 140.83755493
v -143.92735291 71.56967926 140.68151855
v -141.88977051 71.56800079 140.68040466
v -143.88319397 71.32186127 140.47795105
v -141.82243347 71.32142639 140.47750854
v -141.75387573 71.11885071 140.23091125
v -143.83869934 71.11834717 140.23013306
v -141.69256592 70.96215057 139.94075012
v -143.79937744 70.96142578 139.93902588
v -141.66882324 70.90615082 139.78411865
v -143.77325439 70.86577606 139.62152100
v -141.65122986 70.86609650 139.62313843
v -141.64030457 70.84203339 139.46078491
v -143.76406860 70.83399963 139.30000305
v -141.63653564 70.83399963 139.30000305
v -141.64030457 70.84203339 139.13922119
v -143.77325439 70.86577606 138.97848511
v -141.65122986 70.86609650 138.97686768
v -141.66882324 70.90615082 138.81588745
v -143.79937744 70.96142578 138.66098022
v -141.69256592 70.96215057 138.65924072
v -141.75387573 71.11885071 138.36909485
v -143.83869934 71.11834717 138.36987305
v -141.82243347 71.32142639 138.12249756
v -143.88319397 71.32186127 138.12205505
v -141.88977051 71.56800079 137.91958618
v -143.92735291 71.56967926 137.91847229
v -141.94822693 71.85852051 137.76245117
v -143.96586609 71.86085510 137.76147461
v -141.97036743 72.01541901 137.70629883
v -143.99116516 72.17844391 137.66578674
v -141.98660278 72.17662048 137.66615295
v -142.00000000 72.50000000 137.63400269
v -141.98660278 72.82337952 137.66615295
v -143.99116516 72.82155609 137.66578674
v -144.00000000 72.50000000 137.63400269
v -141.97036743 72.98458099 137.70629883
v -143.96586609 73.13914490 137.76147461
v -141.94822693 73.14147949 137.76245117
v -143.92735291 73.43032074 137.91847229
v -141.88977051 73.43199921 137.91958618
v -143.88319397 73.67813873 138.12205505
v -141.82243347 73.67857361 138.12249756
v -141.75387573 73.88114929 138.36909485
v -143.83869934 73.88165283 138.36987305
v -141.69256592 74.03784943 138.65924072
v -143.79937744 74.03857422 138.66098022
v -141.66882324 74.09384918 138.81588745
v -143.77325439 74.13422394 138.97848511
v -141.65122986 74.13390350 138.97686768
v -134.03422546 71.97789764 143.30000305
v -134.00000000 72.50000000 143.30000305
v -134.13629150 71.46472168 143.30000305
v -134.30448914 70.96926880 143.30000305
v -134.53590393 70.50000000 143.30000305
v -134.82658386 70.06495667 143.30000305
v -135.17156982 69.67156982 143.30000305
v -135.56495667 69.32658386 143.30000305
v -136.00000000 69.03589630 143.30000305
v -136.46926880 68.80448151 143.30000305
v -136.96472168 68.63629913 143.30000305
v -137.47789001 68.53421783 143.30000305
v -138.00000000 68.50000000 143.30000305
v -138.52210999 68.53421783 143.30000305
v -139.03527832 68.63629913 143.30000305
v -139.53073120 68.80448151 143.30000305
v -140.00000000 69.03589630 143.30000305
v -140.43504333 69.32658386 143.30000305
v -140.82843018 69.67156982 143.30000305
v -141.17341614 70.06495667 143.30000305
v -141.46409607 70.50000000 143.30000305
v -141.69551086 70.96926880 143.30000305
v -141.86370850 71.46472168 143.30000305
v -141.96577454 71.97789764 143.30000305
v -142.00000000 72.50000000 143.30000305
v -141.96577454 73.02210236 143.30000305
v -141.86370850 73.53527832 143.30000305
v -141.69551086 74.03073120 143.30000305
v -141.46409607 74.50000000 143.30000305
v -141.17341614 74.93504333 143.30000305
v -140.82843018 75.32843018 143.30000305
v -140.43504333 75.67341614 143.30000305
v -140.00000000 75.96410370 143.30000305
v -139.53073120 76.19551849 143.30000305
v -139.03527832 76.36370087 143.30000305
v -138.52210999 76.46578217 143.30000305
v -138.00000000 76.50000000 143.30000305
v -137.47789001 76.46578217 143.30000305
v -136.96472168 76.36370087 143.30000305
v -136.46926880 76.19551849 143.30000305
v -136.00000000 75.96410370 143.30000305
v -135.56495667 75.67341614 143.30000305
v -135.17156982 75.32843018 143.30000305
v -134.82658386 74.93504333 143.30000305
v -134.53590393 74.50000000 143.30000305
v -134.30448914 74.03073120 143.30000305
v -134.13629150 73.53527832 143.30000305
v -134.03422546 73.02210236 143.30000305
v -141.64030457 74.15796661 139.13922119
v -141.63653564 74.16600037 139.30000305
v -141.64030457 74.15796661 139.46078491
v -141.65122986 74.13390350 139.62313843
v -141.66882324 74.09384918 139.78411865
v -141.69256592 74.03784943 139.94075012
v -141.75387573 73.88114929 140.23091125
v -141.82243347 73.67857361 140.47750854
v -141.88977051 73.43199921 140.68040466
v -141.94822693 73.14147949 140.83755493
v -141.97036743 72.98458099 140.89370728
v -141.98660278 72.82337952 140.93385315
v -142.00000000 72.50000000 140.96600342
v -141.98660278 72.17662048 140.93385315
v -141.97036743 72.01541901 140.89370728
v -141.94822693 71.85852051 140.83755493
v -141.88977051 71.56800079 140.68040466
v -141.82243347 71.32142639 140.47750854
v -141.75387573 71.11885071 140.23091125
v -141.69256592 70.96215057 139.94075012
v -141.66882324 70.90615082 139.78411865
v -141.65122986 70.86609650 139.62313843
v -141.64030457 70.84203339 139.46078491
v -141.63653564 70.83399963 139.30000305
v -141.64030457 70.84203339 139.13922119
v -141.65122986 70.86609650 138.97686768
v -141.66882324 70.90615082 138.81588745
v -141.69256592 70.96215057 138.65924072
v -141.75387573 71.11885071 138.36909485
v -141.82243347 71.32142639 138.12249756
v -141.88977051 71.56800079 137.91958618
v -141.94822693 71.85852051 137.76245117
v -141.97036743 72.01541901 137.70629883
v -141.98660278 72.17662048 137.66615295
v -142.00000000 72.50000000 137.63400269
v -141.98660278 72.82337952 137.66615295
v -141.97036743 72.98458099 137.70629883
v -141.94822693 73.14147949 137.76245117
v -141.88977051 73.43199921 137.91958618
v -141.82243347 73.67857361 138.12249756
v -141.75387573 73.88114929 138.36909485
v -141.69256592 74.03784943 138.65924072
v -141.66882324 74.09384918 138.81588745
v -141.65122986 74.13390350 138.97686768
v -134.03422546 73.02210236 134.30000305
v -134.00000000 72.50000000 134.30000305
v -134.03422546 71.97789764 134.30000305
v -134.13629150 71.46472168 134.30000305
v -134.30448914 70.96926880 134.30000305
v -134.53590393 70.50000000 134.30000305
v -134.82658386 70.06495667 134.30000305
v -135.17156982 69.67156982 134.30000305
v -135.56495667 69.32658386 134.30000305
v -136.00000000 69.03589630 134.30000305
v -136.46926880 68.80448151 134.30000305
v -136.96472168 68.63629913 134.30000305
v -137.47789001 68.53421783 134.30000305
v -138.00000000 68.50000000 134.30000305
v -138.52210999 68.53421783 134.30000305
v -139.03527832 68.63629913 134.30000305
v -139.53073120 68.80448151 134.30000305
v -140.00000000 69.03589630 134.30000305
v -140.43504333 69.32658386 134.30000305
v -140.82843018 69.67156982 134.30000305
v -141.17341614 70.06495667 134.30000305
v -141.46409607 70.50000000 134.30000305
v -141.69551086 70.96926880 134.30000305
v -141.86370850 71.46472168 134.30000305
v -141.96577454 71.97789764 134.30000305
v -142.00000000 72.50000000 134.30000305
v -141.96577454 73.02210236 134.30000305
v -141.86370850 73.53527832 134.30000305
v -141.69551086 74.03073120 134.30000305
v -141.46409607 74.50000000 134.30000305
v -134.13629150 73.53527832 134.30000305
v -134.30448914 74.03073120 134.30000305
v -134.53590393 74.50000000 134.30000305
v -134.82658386 74.93504333 134.30000305
v -135.17156982 75.32843018 134.30000305
v -135.56495667 75.67341614 134.30000305
v -136.00000000 75.96410370 134.30000305
v -136.46926880 76.19551849 134.30000305
v -136.96472168 76.36370087 134.30000305
v -137.47789001 76.46578217 134.30000305
v -138.00000000 76.50000000 134.30000305
v -138.52210999 76.46578217 134.30000305
v -139.03527832 76.36370087 134.30000305
v -139.53073120 76.19551849 134.30000305
v -140.00000000 75.96410370 134.30000305
v -140.43504333 75.67341614 134.30000305
v -140.82843018 75.32843018 134.30000305
v -141.17341614 74.93504333 134.30000305
v -132.07638550 71.54561615 141.30000305
v -132.00849915 72.18066406 141.30000305
v -132.00849915 72.81933594 141.30000305
v -132.21139526 70.92138672 141.30000305
v -132.41198730 70.31503296 141.30000305
v -132.67588806 69.73344421 141.30000305
v -133.00012207 69.18319702 141.30000305
v -133.38099670 68.67053223 141.30000305
v -133.81420898 68.20125580 141.30000305
v -134.29484558 67.78069305 141.30000305
v -134.81747437 67.41359711 141.30000305
v -135.37615967 67.10412598 141.30000305
v -135.96456909 66.85579681 141.30000305
v -136.57603455 66.67141724 141.30000305
v -137.20364380 66.55308533 141.30000305
v -137.84027100 66.50212860 141.30000305
v -138.47871399 66.51912689 141.30000305
v -139.11172485 66.60389709 141.30000305
v -139.73214722 66.75547028 141.30000305
v -140.33294678 66.97212982 141.30000305
v -140.90730286 67.25141907 141.30000305
v -141.44873047 67.59018707 141.30000305
v -141.95106506 67.98457336 141.30000305
v -142.40864563 68.43013000 141.30000305
v -142.81626892 68.92179871 141.30000305
v -143.16932678 69.45400238 141.30000305
v -143.46380615 70.02072906 141.30000305
v -143.69638062 70.61553955 141.30000305
v -143.86442566 71.23170471 141.30000305
v -143.96600342 71.86223602 141.30000305
v -144.00000000 72.50000000 141.30000305
v -143.96600342 73.13776398 141.30000305
v -143.86442566 73.76829529 141.30000305
v -143.69638062 74.38446045 141.30000305
v -143.46380615 74.97927094 141.30000305
v -143.16932678 75.54599762 141.30000305
v -142.81626892 76.07820129 141.30000305
v -142.40864563 76.56987000 141.30000305
v -141.95106506 77.01542664 141.30000305
v -141.44873047 77.40981293 141.30000305
v -140.90730286 77.74858093 141.30000305
v -140.33294678 78.02787018 141.30000305
v -137.84027100 78.49787140 141.30000305
v -138.47871399 78.48087311 141.30000305
v -139.11172485 78.39610291 141.30000305
v -137.20364380 78.44691467 141.30000305
v -136.57603455 78.32858276 141.30000305
v -135.96456909 78.14420319 141.30000305
v -135.37615967 77.89587402 141.30000305
v -134.81747437 77.58640289 141.30000305
v -134.29484558 77.21930695 141.30000305
v -133.81420898 76.79874420 141.30000305
v -133.38099670 76.32946777 141.30000305
v -133.00012207 75.81680298 141.30000305
v -132.67588806 75.26655579 141.30000305
v -132.41198730 74.68496704 141.30000305
v -132.21139526 74.07861328 141.30000305
v -132.07638550 73.45438385 141.30000305
v -139.73214722 78.24452972 141.30000305
v -143.76406860 74.16600037 139.30000305
v -143.77325439 74.13422394 139.62152100
v -143.79937744 74.03857422 139.93902588
v -143.83869934 73.88165283 140.23013306
v -143.88319397 73.67813873 140.47795105
v -143.92735291 73.43032074 140.68151855
v -143.96586609 73.13914490 140.83851624
v -143.99116516 72.82155609 140.93421936
v -143.99116516 72.17844391 140.93421936
v -144.00000000 72.50000000 140.96600342
v -143.96586609 71.86085510 140.83851624
v -143.92735291 71.56967926 140.68151855
v -143.88319397 71.32186127 140.47795105
v -143.83869934 71.11834717 140.23013306
v -143.79937744 70.96142578 139.93902588
v -143.77325439 70.86577606 139.62152100
v -143.76406860 70.83399963 139.30000305
v -143.77325439 70.86577606 138.97848511
v -143.79937744 70.96142578 138.66098022
v -143.83869934 71.11834717 138.36987305
v -143.88319397 71.32186127 138.12205505
v -143.92735291 71.56967926 137.91847229
v -143.96586609 71.86085510 137.76147461
v -143.99116516 72.17844391 137.66578674
v -143.99116516 72.82155609 137.66578674
v -144.00000000 72.50000000 137.63400269
v -143.96586609 73.13914490 137.76147461
v -143.92735291 73.43032074 137.91847229
v -143.88319397 73.67813873 138.12205505
v -143.83869934 73.88165283 138.36987305
v -143.79937744 74.03857422 138.66098022
v -143.77325439 74.13422394 138.97848511
v -143.69638062 74.38446045 134.30000305
v -143.86442566 73.76829529 134.30000305
v -143.96600342 73.13776398 134.30000305
v -144.00000000 72.50000000 134.30000305
v -143.96600342 71.86223602 134.30000305
v -143.86442566 71.23170471 134.30000305
v -143.69638062 70.61553955 134.30000305
v -143.46380615 74.97927094 134.30000305
v -143.16932678 75.54599762 134.30000305
v -142.81626892 76.07820129 134.30000305
v -142.40864563 76.56987000 134.30000305
v -141.95106506 77.01542664 134.30000305
v -141.44873047 77.40981293 134.30000305
v -140.90730286 77.74858093 134.30000305
v -140.33294678 78.02787018 134.30000305
v -139.73214722 78.24452972 134.30000305
v -139.11172485 78.39610291 134.30000305
v -138.47871399 78.48087311 134.30000305
v -137.84027100 78.49787140 134.30000305
v -137.20364380 78.44691467 134.30000305
v -136.57603455 78.32858276 134.30000305
v -135.96456909 78.14420319 134.30000305
v -135.37615967 77.89587402 134.30000305
v -134.81747437 77.58640289 134.30000305
v -134.29484558 77.21930695 134.30000305
v -133.81420898 76.79874420 134.30000305
v -133.38099670 76.32946777 134.30000305
v -133.00012207 75.81680298 134.30000305
v -132.67588806 75.26655579 134.30000305
v -132.41198730 74.68496704 134.30000305
v -132.21139526 74.07861328 134.30000305
v -132.07638550 73.45438385 134.30000305
v -132.00849915 72.81933594 134.30000305
v -132.00849915 72.18066406 134.30000305
v -132.07638550 71.54561615 134.30000305
v -132.21139526 70.92138672 134.30000305
v -132.41198730 70.31503296 134.30000305
v -132.67588806 69.73344421 134.30000305
v -133.00012207 69.18319702 134.30000305
v -133.38099670 68.67053223 134.30000305
v -133.81420898 68.20125580 134.30000305
v -134.29484558 67.78069305 134.30000305
v -134.81747437 67.41359711 134.30000305
v -135.37615967 67.10412598 134.30000305
v -135.96456909 66.85579681 134.30000305
v -136.57603455 66.67141724 134.30000305
v -137.20364380 66.55308533 134.30000305
v -137.84027100 66.50212860 134.30000305
v -138.47871399 66.51912689 134.30000305
v -139.11172485 66.60389709 134.30000305
v -139.73214722 66.75547028 134.30000305
v -140.33294678 66.97212982 134.30000305
v -140.90730286 67.25141907 134.30000305
v -141.44873047 67.59018707 134.30000305
v -141.95106506 67.98457336 134.30000305
v -142.40864563 68.43013000 134.30000305
v -142.81626892 68.92179871 134.30000305
v -143.16932678 69.45400238 134.30000305
v -143.46380615 70.02072906 134.30000305
v -134.03422546 73.02210236 134.30000305
v -134.00000000 72.50000000 134.30000305
v -134.03422546 71.97789764 134.30000305
v -134.13629150 71.46472168 134.30000305
v -134.30448914 70.96926880 134.30000305
v -134.53590393 70.50000000 134.30000305
v -134.82658386 70.06495667 134.30000305
v -135.17156982 69.67156982 134.30000305
v -135.56495667 69.32658386 134.30000305
v -136.00000000 69.03589630 134.30000305
v -136.46926880 68.80448151 134.30000305
v -136.96472168 68.63629913 134.30000305
v -137.47789001 68.53421783 134.30000305
v -138.00000000 68.50000000 134.30000305
v -138.52210999 68.53421783 134.30000305
v -139.03527832 68.63629913 134.30000305
v -139.53073120 68.80448151 134.30000305
v -140.00000000 69.03589630 134.30000305
v -140.43504333 69.32658386 134.30000305
v -140.82843018 69.67156982 134.30000305
v -141.17341614 70.06495667 134.30000305
v -141.46409607 70.50000000 134.30000305
v -141.69551086 70.96926880 134.30000305
v -141.86370850 71.46472168 134.30000305
v -141.96577454 71.97789764 134.30000305
v -142.00000000 72.50000000 134.30000305
v -141.96577454 73.02210236 134.30000305
v -141.86370850 73.53527832 134.30000305
v -141.69551086 74.03073120 134.30000305
v -141.46409607 74.50000000 134.30000305
v -134.13629150 73.53527832 134.30000305
v -134.30448914 74.03073120 134.30000305
v -134.53590393 74.50000000 134.30000305
v -134.82658386 74.93504333 134.30000305
v -135.17156982 75.32843018 134.30000305
v -135.56495667 75.67341614 134.30000305
v -136.00000000 75.96410370 134.30000305
v -136.46926880 76.19551849 134.30000305
v -136.96472168 76.36370087 134.30000305
v -137.47789001 76.46578217 134.30000305
v -138.00000000 76.50000000 134.30000305
v -138.52210999 76.46578217 134.30000305
v -139.03527832 76.36370087 134.30000305
v -139.53073120 76.19551849 134.30000305
v -140.00000000 75.96410370 134.30000305
v -140.43504333 75.67341614 134.30000305
v -140.82843018 75.32843018 134.30000305
v -141.17341614 74.93504333 134.30000305
v -143.69638062 74.38446045 134.30000305
v -143.86442566 73.76829529 134.30000305
v -143.96600342 73.13776398 134.30000305
v -144.00000000 72.50000000 134.30000305
v -143.96600342 71.86223602 134.30000305
v -143.86442566 71.23170471 134.30000305
v -143.69638062 70.61553955 134.30000305
v -143.46380615 74.97927094 134.30000305
v -143.16932678 75.54599762 134.30000305
v -142.81626892 76.07820129 134.30000305
v -142.40864563 76.56987000 134.30000305
v -141.95106506 77.01542664 134.30000305
v -141.44873047 77.40981293 134.30000305
v -140.90730286 77.74858093 134.30000305
v -140.33294678 78.02787018 134.30000305
v -139.73214722 78.24452972 134.30000305
v -139.11172485 78.39610291 134.30000305
v -138.47871399 78.48087311 134.30000305
v -137.84027100 78.49787140 134.30000305
v -137.20364380 78.44691467 134.30000305
v -136.57603455 78.32858276 134.30000305
v -135.96456909 78.14420319 134.30000305
v -135.37615967 77.89587402 134.30000305
v -134.81747437 77.58640289 134.30000305
v -134.29484558 77.21930695 134.30000305
v -133.81420898 76.79874420 134.30000305
v -133.38099670 76.32946777 134.30000305
v -133.00012207 75.81680298 134.30000305
v -132.67588806 75.26655579 134.30000305
v -132.41198730 74.68496704 134.30000305
v -132.21139526 74.07861328 134.30000305
v -132.07638550 73.45438385 134.30000305
v -132.00849915 72.81933594 134.30000305
v -132.00849915 72.18066406 134.30000305
v -132.07638550 71.54561615 134.30000305
v -132.21139526 70.92138672 134.30000305
v -132.41198730 70.31503296 134.30000305
v -132.67588806 69.73344421 134.30000305
v -133.00012207 69.18319702 134.30000305
v -133.38099670 68.67053223 134.30000305
v -133.81420898 68.20125580 134.30000305
v -134.29484558 67.78069305 134.30000305
v -134.81747437 67.41359711 134.30000305
v -135.37615967 67.10412598 134.30000305
v -135.96456909 66.85579681 134.30000305
v -136.57603455 66.67141724 134.30000305
v -137.20364380 66.55308533 134.30000305
v -137.84027100 66.50212860 134.30000305
v -138.47871399 66.51912689 134.30000305
v -139.11172485 66.60389709 134.30000305
v -139.73214722 66.75547028 134.30000305
v -140.33294678 66.97212982 134.30000305
v -140.90730286 67.25141907 134.30000305
v -141.44873047 67.59018707 134.30000305
v -141.95106506 67.98457336 134.30000305
v -142.40864563 68.43013000 134.30000305
v -142.81626892 68.92179871 134.30000305
v -143.16932678 69.45400238 134.30000305
v -143.46380615 70.02072906 134.30000305
v -124.13932037 74.47016907 143.30000305
v -124.31282043 75.44297791 143.30000305
v -124.55451202 76.40113068 143.30000305
v -124.86318207 77.33984375 143.30000305
v -125.23730469 78.25444794 143.30000305
v -125.67501068 79.14038086 143.30000305
v -126.17411804 79.99322510 143.30000305
v -126.73213959 80.80874634 143.30000305
v -127.34629822 81.58287811 143.30000305
v -128.01353455 82.31175232 143.30000305
v -128.73051453 82.99174500 143.30000305
v -129.49368286 83.61946869 143.30000305
v -130.29922485 84.19179535 143.30000305
v -131.14314270 84.70587921 143.30000305
v -132.02120972 85.15914917 143.30000305
v -132.92906189 85.54935455 143.30000305
v -133.86218262 85.87454987 143.30000305
v -134.81591797 86.13311005 143.30000305
v -135.78552246 86.32375336 143.30000305
v -136.76614380 86.44552612 143.30000305
v -137.75291443 86.49781799 143.30000305
v -138.74092102 86.48037720 143.30000305
v -139.72525024 86.39328766 143.30000305
v -140.70095825 86.23698425 143.30000305
v -141.66322327 86.01224518 143.30000305
v -142.60723877 85.72018433 143.30000305
v -143.52830505 85.36226654 143.30000305
v -144.42182922 84.94026184 143.30000305
v -145.28335571 84.45628357 143.30000305
v -146.10859680 83.91274261 143.30000305
v -146.89343262 83.31233978 143.30000305
v -147.63397217 82.65807343 143.30000305
v -148.32652283 81.95320129 143.30000305
v -148.96762085 81.20123291 143.30000305
v -149.55407715 80.40591431 143.30000305
v -150.08296204 79.57120514 143.30000305
v -150.55166626 78.70127106 143.30000305
v -150.95782471 77.80044556 143.30000305
v -151.29943848 76.87320709 143.30000305
v -151.57478333 75.92418671 143.30000305
v -151.78251648 74.95810699 143.30000305
v -151.92156982 73.97978210 143.30000305
v -151.99127197 72.99407959 143.30000305
v -151.99127197 72.00592041 143.30000305
v -151.92156982 71.02021790 143.30000305
v -151.78251648 70.04189301 143.30000305
v -151.57478333 69.07581329 143.30000305
v -151.29943848 68.12679291 143.30000305
v -150.95782471 67.19955444 143.30000305
v -150.55166626 66.29872894 143.30000305
v -150.08296204 65.42879486 143.30000305
v -149.55407715 64.59408569 143.30000305
v -148.96762085 63.79876709 143.30000305
v -148.32652283 63.04679871 143.30000305
v -147.63397217 62.34192276 143.30000305
v -146.89343262 61.68765640 143.30000305
v -146.10859680 61.08725739 143.30000305
v -145.28335571 60.54371262 143.30000305
v -144.42182922 60.05973816 143.30000305
v -143.52830505 59.63773727 143.30000305
v -142.60723877 59.27981567 143.30000305
v -141.66322327 58.98775482 143.30000305
v -140.70095825 58.76301575 143.30000305
v -139.72525024 58.60670853 143.30000305
v -138.74092102 58.51961899 143.30000305
v -137.75291443 58.50218201 143.30000305
v -136.76614380 58.55447769 143.30000305
v -135.78552246 58.67625046 143.30000305
v -134.81591797 58.86689377 143.30000305
v -133.86218262 59.12545395 143.30000305
v -132.92906189 59.45064545 143.30000305
v -132.02120972 59.84085083 143.30000305
v -131.14314270 60.29412079 143.30000305
v -130.29922485 60.80820084 143.30000305
v -129.49368286 61.38053131 143.30000305
v -128.73051453 62.00825500 143.30000305
v -128.01353455 62.68824768 143.30000305
v -127.34629822 63.41712570 143.30000305
v -126.73213959 64.19125366 143.30000305
v -126.17411804 65.00677490 143.30000305
v -125.67501068 65.85961914 143.30000305
v -125.23730469 66.74555206 143.30000305
v -124.86318207 67.66015625 143.30000305
v -124.55451202 68.59886932 143.30000305
v -124.31282043 69.55702209 143.30000305
v -124.13932037 70.52983093 143.30000305
v -124.03487396 71.51245117 143.30000305
v -124.00000000 72.50000000 143.30000305
v -124.03487396 73.48754883 143.30000305
v -134.03422546 71.97789764 143.30000305
v -134.00000000 72.50000000 143.30000305
v -134.13629150 71.46472168 143.30000305
v -134.30448914 70.96926880 143.30000305
v -134.53590393 70.50000000 143.30000305
v -134.82658386 70.06495667 143.30000305
v -135.17156982 69.67156982 143.30000305
v -135.56495667 69.32658386 143.30000305
v -136.00000000 69.03589630 143.30000305
v -136.46926880 68.80448151 143.30000305
v -136.96472168 68.63629913 143.30000305
v -137.47789001 68.53421783 143.30000305
v -138.00000000 68.50000000 143.30000305
v -138.52210999 68.53421783 143.30000305
v -139.03527832 68.63629913 143.30000305
v -139.53073120 68.80448151 143.30000305
v -140.00000000 69.03589630 143.30000305
v -140.43504333 69.32658386 143.30000305
v -140.82843018 69.67156982 143.30000305
v -141.17341614 70.06495667 143.30000305
v -141.46409607 70.50000000 143.30000305
v -141.69551086 70.96926880 143.30000305
v -141.86370850 71.46472168 143.30000305
v -141.96577454 71.97789764 143.30000305
v -142.00000000 72.50000000 143.30000305
v -141.96577454 73.02210236 143.30000305
v -141.86370850 73.53527832 143.30000305
v -141.69551086 74.03073120 143.30000305
v -141.46409607 74.50000000 143.30000305
v -141.17341614 74.93504333 143.30000305
v -140.82843018 75.32843018 143.30000305
v -140.43504333 75.67341614 143.30000305
v -140.00000000 75.96410370 143.30000305
v -139.53073120 76.19551849 143.30000305
v -139.03527832 76.36370087 143.30000305
v -138.52210999 76.46578217 143.30000305
v -138.00000000 76.50000000 143.30000305
v -137.47789001 76.46578217 143.30000305
v -136.96472168 76.36370087 143.30000305
v -136.46926880 76.19551849 143.30000305
v -136.00000000 75.96410370 143.30000305
v -135.56495667 75.67341614 143.30000305
v -135.17156982 75.32843018 143.30000305
v -134.82658386 74.93504333 143.30000305
v -134.53590393 74.50000000 143.30000305
v -134.30448914 74.03073120 143.30000305
v -134.13629150 73.53527832 143.30000305
v -134.03422546 73.02210236 143.30000305
v -122.03498077 71.44255066 141.30000305
v -132.07638550 71.54561615 141.30000305
v -122.00000000 72.50000000 141.30000305
v -132.00849915 72.18066406 141.30000305
v -132.00849915 72.81933594 141.30000305
v -132.21139526 70.92138672 141.30000305
v -122.13977814 70.38972473 141.30000305
v -132.41198730 70.31503296 141.30000305
v -132.67588806 69.73344421 141.30000305
v -122.31391907 69.34613037 141.30000305
v -133.00012207 69.18319702 141.30000305
v -133.38099670 68.67053223 141.30000305
v -122.55665588 68.31632233 141.30000305
v -133.81420898 68.20125580 141.30000305
v -134.29484558 67.78069305 141.30000305
v -134.81747437 67.41359711 141.30000305
v -122.86692047 67.30480957 141.30000305
v -135.37615967 67.10412598 141.30000305
v -135.96456909 66.85579681 141.30000305
v -136.57603455 66.67141724 141.30000305
v -137.20364380 66.55308533 141.30000305
v -137.84027100 66.50212860 141.30000305
v -123.24336243 66.31600952 141.30000305
v -123.68433380 65.35425568 141.30000305
v -124.18789673 64.42375183 141.30000305
v -124.75186157 63.52856064 141.30000305
v -125.37374878 62.67259598 141.30000305
v -126.05085754 61.85960770 141.30000305
v -126.78021240 61.09314346 141.30000305
v -127.55862427 60.37656021 141.30000305
v -128.38270569 59.71299362 141.30000305
v -129.24882507 59.10533524 141.30000305
v -130.15322876 58.55625153 141.30000305
v -131.09193420 58.06814194 141.30000305
v -132.06083679 57.64313507 141.30000305
v -133.05572510 57.28309631 141.30000305
v -134.07223511 56.98959732 141.30000305
v -135.10591125 56.76391983 141.30000305
v -136.15225220 56.60705185 141.30000305
v -137.20666504 56.51968002 141.30000305
v -138.26454163 56.50218582 141.30000305
v -138.47871399 66.51912689 141.30000305
v -139.32127380 56.55464935 141.30000305
v -140.37222290 56.67683411 141.30000305
v -139.11172485 66.60389709 141.30000305
v -141.41279602 56.86820984 141.30000305
v -139.73214722 66.75547028 141.30000305
v -142.43844604 57.12794113 141.30000305
v -143.44468689 57.45489120 141.30000305
v -140.33294678 66.97212982 141.30000305
v -144.42712402 57.84762573 141.30000305
v -145.38145447 58.30443573 141.30000305
v -140.90730286 67.25141907 141.30000305
v -146.30351257 58.82331848 141.30000305
v -141.44873047 67.59018707 141.30000305
v -147.18925476 59.40200424 141.30000305
v -148.03482056 60.03796387 141.30000305
v -141.95106506 67.98457336 141.30000305
v -148.83650208 60.72841644 141.30000305
v -142.40864563 68.43013000 141.30000305
v -149.59080505 61.47034454 141.30000305
v -150.29441833 62.26050186 141.30000305
v -142.81626892 68.92179871 141.30000305
v -150.94427490 63.09543610 141.30000305
v -151.53752136 63.97149277 141.30000305
v -143.16932678 69.45400238 141.30000305
v -152.07157898 64.88484192 141.30000305
v -143.46380615 70.02072906 141.30000305
v -152.54409790 65.83148956 141.30000305
v -152.95303345 66.80729675 141.30000305
v -143.69638062 70.61553955 141.30000305
v -153.29656982 67.80799866 141.30000305
v -143.86442566 71.23170471 141.30000305
v -153.57322693 68.82921600 141.30000305
v -153.78178406 69.86648560 141.30000305
v -143.96600342 71.86223602 141.30000305
v -153.92132568 70.91526794 141.30000305
v -153.99125671 71.97098541 141.30000305
v -144.00000000 72.50000000 141.30000305
v -153.99125671 73.02901459 141.30000305
v -143.96600342 73.13776398 141.30000305
v -153.92132568 74.08473206 141.30000305
v -153.78178406 75.13351440 141.30000305
v -143.86442566 73.76829529 141.30000305
v -153.57322693 76.17078400 141.30000305
v -153.29656982 77.19200134 141.30000305
v -143.69638062 74.38446045 141.30000305
v -152.95303345 78.19270325 141.30000305
v -143.46380615 74.97927094 141.30000305
v -152.54409790 79.16851044 141.30000305
v -152.07157898 80.11515808 141.30000305
v -143.16932678 75.54599762 141.30000305
v -151.53752136 81.02851105 141.30000305
v -142.81626892 76.07820129 141.30000305
v -150.94427490 81.90456390 141.30000305
v -150.29441833 82.73949432 141.30000305
v -142.40864563 76.56987000 141.30000305
v -149.59080505 83.52965546 141.30000305
v -148.83650208 84.27158356 141.30000305
v -141.95106506 77.01542664 141.30000305
v -148.03482056 84.96203613 141.30000305
v -141.44873047 77.40981293 141.30000305
v -147.18925476 85.59799957 141.30000305
v -146.30351257 86.17668152 141.30000305
v -140.90730286 77.74858093 141.30000305
v -145.38145447 86.69556427 141.30000305
v -140.33294678 78.02787018 141.30000305
v -144.42712402 87.15237427 141.30000305
v -143.44468689 87.54511261 141.30000305
v -142.43844604 87.87205505 141.30000305
v -137.84027100 78.49787140 141.30000305
v -138.47871399 78.48087311 141.30000305
v -139.11172485 78.39610291 141.30000305
v -141.41279602 88.13179016 141.30000305
v -134.07223511 88.01040649 141.30000305
v -133.05572510 87.71690369 141.30000305
v -132.06083679 87.35686493 141.30000305
v -131.09193420 86.93186188 141.30000305
v -135.10591125 88.23608398 141.30000305
v -140.37222290 88.32316589 141.30000305
v -136.15225220 88.39295197 141.30000305
v -139.32127380 88.44535065 141.30000305
v -137.20666504 88.48031616 141.30000305
v -138.26454163 88.49781036 141.30000305
v -130.15322876 86.44374847 141.30000305
v -129.24882507 85.89466095 141.30000305
v -128.38270569 85.28701019 141.30000305
v -127.55862427 84.62343597 141.30000305
v -126.78021240 83.90685272 141.30000305
v -126.05085754 83.14039612 141.30000305
v -125.37374878 82.32740021 141.30000305
v -124.75186157 81.47144318 141.30000305
v -124.18789673 80.57624817 141.30000305
v -123.68433380 79.64574432 141.30000305
v -123.24336243 78.68399048 141.30000305
v -137.20364380 78.44691467 141.30000305
v -136.57603455 78.32858276 141.30000305
v -135.96456909 78.14420319 141.30000305
v -135.37615967 77.89587402 141.30000305
v -122.86692047 77.69519043 141.30000305
v -134.81747437 77.58640289 141.30000305
v -134.29484558 77.21930695 141.30000305
v -133.81420898 76.79874420 141.30000305
v -122.55665588 76.68367767 141.30000305
v -133.38099670 76.32946777 141.30000305
v -133.00012207 75.81680298 141.30000305
v -122.31391907 75.65386963 141.30000305
v -132.67588806 75.26655579 141.30000305
v -132.41198730 74.68496704 141.30000305
v -122.13977814 74.61027527 141.30000305
v -132.21139526 74.07861328 141.30000305
v -122.03498077 73.55744934 141.30000305
v -132.07638550 73.45438385 141.30000305
v -139.73214722 78.24452972 141.30000305
f 1 2 3
f 3 2 4
f 3 4 5
f 5 4 6
f 5 6 7
f 7 6 8
f 7 8 9
f 9 8 10
f 9 10 11
f 11 10 12
f 11 12 13
f 13 12 14
f 13 14 15
f 15 14 16
f 15 16 17
f 17 16 18
f 17 18 19
f 19 18 20
f 19 20 21
f 21 20 22
f 21 22 23
f 23 22 24
f 23 24 25
f 25 24 26
f 25 26 27
f 27 26 28
f 27 28 29
f 29 28 30
f 29 30 31
f 31 30 32
f 31 32 33
f 33 32 34
f 33 34 35
f 35 34 36
f 35 36 37
f 35 37 38
f 38 37 39
f 38 39 40
f 40 39 41
f 40 41 42
f 40 42 43
f 43 42 44
f 43 44 45
f 43 45 46
f 46 45 47
f 46 47 48
f 48 47 49
f 48 49 50
f 48 50 51
f 51 50 52
f 51 52 53
f 53 52 54
f 53 54 55
f 55 54 56
f 55 56 57
f 57 56 58
f 57 58 59
f 59 58 60
f 59 60 61
f 61 60 62
f 61 62 63
f 63 62 64
f 63 64 65
f 65 64 66
f 65 66 67
f 67 66 68
f 67 68 69
f 69 68 70
f 69 70 71
f 71 70 72
f 71 72 73
f 73 72 74
f 73 74 75
f 75 74 76
f 75 76 77
f 77 76 78
f 77 78 79
f 80 81 82
f 82 81 83
f 82 83 84
f 84 83 85
f 84 85 86
f 86 85 87
f 86 87 88
f 88 87 89
f 88 89 90
f 90 89 91
f 90 91 92
f 92 91 93
f 92 93 94
f 94 93 95
f 94 95 96
f 96 95 97
f 96 97 98
f 98 97 99
f 98 99 100
f 100 99 101
f 100 101 102
f 102 101 103
f 102 103 104
f 104 103 105
f 104 105 106
f 106 105 107
f 106 107 108
f 108 107 109
f 108 109 110
f 110 109 111
f 110 111 112
f 112 111 113
f 112 113 114
f 114 113 115
f 114 115 116
f 114 116 117
f 117 116 118
f 117 118 119
f 119 118 120
f 119 120 121
f 119 121 122
f 122 121 123
f 122 123 124
f 122 124 125
f 125 124 126
f 125 126 127
f 127 126 128
f 127 128 129
f 127 129 130
f 130 129 131
f 130 131 132
f 132 131 133
f 132 133 134
f 134 133 135
f 134 135 136
f 136 135 137
f 136 137 138
f 138 137 139
f 138 139 140
f 140 139 141
f 140 141 142
f 142 141 143
f 142 143 144
f 144 143 145
f 144 145 146
f 146 145 147
f 146 147 148
f 148 147 149
f 148 149 150
f 150 149 151
f 150 151 152
f 152 151 153
f 152 153 154
f 154 153 155
f 154 155 156
f 156 155 157
f 156 157 158
f 235 236 237
f 237 236 159
f 237 159 238
f 238 159 160
f 238 160 239
f 239 160 161
f 239 161 240
f 240 161 162
f 240 162 241
f 241 162 163
f 241 163 242
f 242 163 164
f 242 164 243
f 243 164 165
f 243 165 244
f 244 165 166
f 244 166 245
f 245 166 167
f 245 167 246
f 246 167 168
f 246 168 247
f 247 168 169
f 247 169 248
f 248 169 170
f 248 170 249
f 249 170 171
f 249 171 250
f 250 171 172
f 250 172 251
f 251 172 173
f 251 173 252
f 252 173 174
f 252 174 253
f 253 174 175
f 253 175 254
f 254 175 176
f 254 176 255
f 255 176 177
f 255 177 256
f 256 177 178
f 256 178 257
f 257 178 179
f 257 179 258
f 258 179 180
f 258 180 259
f 259 180 181
f 259 181 260
f 260 181 182
f 260 182 261
f 261 182 183
f 261 183 262
f 262 183 184
f 262 184 263
f 263 184 185
f 263 185 264
f 264 185 186
f 264 186 265
f 265 186 187
f 265 187 266
f 266 187 188
f 266 188 267
f 267 188 189
f 267 189 268
f 268 189 190
f 268 190 269
f 269 190 191
f 269 191 270
f 270 191 192
f 270 192 271
f 271 192 193
f 271 193 272
f 272 193 194
f 272 194 273
f 273 194 195
f 273 195 274
f 274 195 196
f 274 196 275
f 275 196 276
f 275 276 277
f 275 277 278
f 278 277 279
f 278 279 280
f 278 280 281
f 281 280 282
f 281 282 283
f 283 282 284
f 283 284 285
f 283 285 286
f 286 285 287
f 286 287 288
f 286 288 289
f 289 288 290
f 289 290 291
f 291 290 292
f 291 292 197
f 197 292 293
f 291 197 294
f 294 197 198
f 294 198 295
f 295 198 199
f 295 199 296
f 296 199 200
f 296 200 297
f 297 200 201
f 297 201 298
f 298 201 202
f 298 202 299
f 299 202 203
f 299 203 300
f 300 203 204
f 300 204 301
f 301 204 205
f 301 205 302
f 302 205 206
f 302 206 303
f 303 206 207
f 303 207 304
f 304 207 208
f 304 208 305
f 305 208 209
f 305 209 306
f 306 209 307
f 307 209 210
f 307 210 308
f 308 210 211
f 308 211 309
f 309 211 212
f 309 212 310
f 310 212 213
f 310 213 311
f 311 213 214
f 311 214 312
f 312 214 215
f 312 215 313
f 313 215 216
f 313 216 314
f 314 216 217
f 314 217 315
f 315 217 218
f 315 218 316
f 316 218 219
f 316 219 317
f 317 219 220
f 317 220 318
f 318 220 221
f 318 221 319
f 319 221 222
f 319 222 320
f 320 222 223
f 320 223 321
f 321 223 224
f 321 224 322
f 322 224 225
f 322 225 323
f 323 225 226
f 323 226 324
f 324 226 227
f 324 227 325
f 325 227 228
f 325 228 326
f 326 228 229
f 326 229 327
f 327 229 230
f 327 230 328
f 328 230 231
f 328 231 329
f 329 231 232
f 329 232 330
f 330 232 233
f 330 233 331
f 331 233 234
f 331 234 332
f 332 234 333
f 331 332 334
f 334 332 335
f 334 335 336
f 336 335 337
f 336 337 338
f 338 337 339
f 338 339 340
f 338 340 341
f 341 340 342
f 341 342 343
f 341 343 344
f 344 343 345
f 344 345 346
f 346 345 347
f 346 347 235
f 346 235 237
f 353 349 354
f 354 349 348
f 354 348 355
f 355 348 352
f 355 352 356
f 356 352 351
f 356 351 357
f 357 351 350
f 362 361 363
f 363 361 360
f 363 360 364
f 364 360 359
f 364 359 358
f 358 365 364
f 372 373 367
f 367 373 366
f 366 373 374
f 366 374 368
f 368 374 375
f 368 375 369
f 369 375 371
f 369 371 370
f 379 378 376
f 376 378 377
f 385 384 386
f 386 384 383
f 386 383 387
f 387 383 382
f 387 382 388
f 388 382 381
f 388 381 389
f 389 381 380
f 394 393 395
f 395 393 392
f 395 392 396
f 396 392 391
f 396 391 390
f 390 397 396
f 404 405 398
f 398 405 399
f 399 405 406
f 399 406 400
f 400 406 407
f 400 407 401
f 401 407 403
f 401 403 402
f 411 410 408
f 408 410 409
f 414 415 412
f 412 415 413
f 418 419 416
f 416 419 417
f 502 619 420
f 420 619 618
f 420 618 421
f 421 618 617
f 421 617 422
f 422 617 616
f 422 616 423
f 423 616 615
f 423 615 424
f 424 615 614
f 424 614 425
f 425 614 613
f 425 613 426
f 426 613 612
f 426 612 427
f 427 612 611
f 427 611 428
f 428 611 610
f 428 610 429
f 429 610 609
f 429 609 430
f 430 609 608
f 430 608 431
f 431 608 607
f 431 607 432
f 432 607 606
f 432 606 433
f 433 606 605
f 433 605 434
f 434 605 598
f 434 598 435
f 435 598 597
f 435 597 436
f 436 597 596
f 436 596 437
f 437 596 595
f 437 595 438
f 438 595 599
f 438 599 439
f 439 599 601
f 439 601 440
f 440 601 603
f 440 603 441
f 441 603 604
f 441 604 442
f 442 604 602
f 442 602 443
f 443 602 600
f 443 600 444
f 444 600 594
f 444 594 445
f 445 594 593
f 445 593 446
f 446 593 592
f 446 592 447
f 447 592 591
f 447 591 448
f 448 591 590
f 448 590 449
f 449 590 589
f 449 589 450
f 450 589 588
f 450 588 451
f 451 588 587
f 451 587 452
f 452 587 586
f 452 586 453
f 453 586 585
f 453 585 454
f 454 585 584
f 454 584 455
f 455 584 583
f 455 583 456
f 456 583 582
f 456 582 457
f 457 582 581
f 457 581 458
f 458 581 580
f 458 580 459
f 459 580 579
f 459 579 460
f 460 579 578
f 460 578 523
f 523 578 524
f 524 578 577
f 524 577 525
f 525 577 576
f 525 576 521
f 521 576 520
f 520 576 575
f 520 575 519
f 519 575 574
f 519 574 518
f 518 574 573
f 518 573 517
f 517 573 516
f 516 573 572
f 516 572 515
f 515 572 571
f 515 571 514
f 514 571 461
f 461 571 570
f 461 570 462
f 462 570 569
f 462 569 463
f 463 569 568
f 463 568 464
f 464 568 567
f 464 567 465
f 465 567 566
f 465 566 466
f 466 566 565
f 466 565 467
f 467 565 564
f 467 564 468
f 468 564 563
f 468 563 469
f 469 563 562
f 469 562 470
f 470 562 561
f 470 561 471
f 471 561 560
f 471 560 472
f 472 560 559
f 472 559 473
f 473 559 558
f 473 558 474
f 474 558 475
f 475 558 557
f 475 557 476
f 476 557 556
f 476 556 477
f 477 556 555
f 477 555 478
f 478 555 554
f 478 554 479
f 479 554 553
f 479 553 480
f 480 553 552
f 480 552 481
f 481 552 551
f 481 551 482
f 482 551 550
f 482 550 483
f 483 550 549
f 483 549 484
f 484 549 548
f 484 548 485
f 485 548 547
f 485 547 486
f 486 547 546
f 486 546 487
f 487 546 545
f 487 545 488
f 488 545 544
f 488 544 489
f 489 544 543
f 489 543 490
f 490 543 542
f 490 542 491
f 491 542 541
f 491 541 492
f 492 541 540
f 492 540 493
f 493 540 539
f 493 539 494
f 494 539 538
f 494 538 495
f 495 538 537
f 495 537 496
f 496 537 536
f 496 536 497
f 497 536 535
f 497 535 498
f 498 535 534
f 498 534 499
f 499 534 533
f 499 533 500
f 500 533 532
f 500 532 501
f 501 532 531
f 501 531 510
f 510 531 511
f 511 531 530
f 511 530 512
f 512 530 529
f 512 529 513
f 513 529 509
f 509 529 528
f 509 528 508
f 508 528 526
f 508 526 507
f 507 526 506
f 506 526 527
f 506 527 505
f 505 527 620
f 505 620 504
f 504 620 619
f 504 619 503
f 503 619 502
f 523 522 460
f 621 622 623
f 623 622 624
f 623 624 625
f 625 624 626
f 625 626 627
f 625 627 628
f 628 627 629
f 628 629 630
f 628 630 631
f 631 630 632
f 631 632 633
f 633 632 634
f 633 634 635
f 635 634 636
f 635 636 637
f 637 636 638
f 637 638 639
f 639 638 640
f 639 640 641
f 642 643 641
f 641 643 644
f 641 644 639
f 642 645 643
f 643 645 646
f 646 645 647
f 646 647 648
f 648 647 649
f 648 649 650
f 650 649 651
f 650 651 652
f 650 652 653
f 653 652 654
f 653 654 655
f 655 654 656
f 655 656 657
f 657 656 658
f 657 658 659
f 657 659 660
f 660 659 661
f 660 661 662
f 660 662 663
f 663 662 664
f 663 664 665
f 663 665 666
f 666 665 667
f 666 667 668
f 666 668 669
f 669 668 670
f 669 670 671
f 671 670 672
f 671 672 673
f 673 672 674
f 673 674 675
f 675 674 676
f 675 676 677
f 677 676 678
f 677 678 679
f 680 681 679
f 679 681 682
f 679 682 677
f 680 683 681
f 681 683 684
f 684 683 685
f 684 685 686
f 686 685 687
f 686 687 688
f 688 687 689
f 688 689 690
f 688 690 691
f 691 690 692
f 691 692 693
f 693 692 694
f 693 694 695
f 695 694 696
f 695 696 621
f 695 621 623
f 744 789 698
f 698 789 790
f 698 790 697
f 697 790 791
f 697 791 699
f 699 791 792
f 699 792 700
f 700 792 793
f 700 793 701
f 701 793 794
f 701 794 702
f 702 794 795
f 702 795 703
f 703 795 796
f 703 796 704
f 704 796 797
f 704 797 705
f 705 797 798
f 705 798 706
f 706 798 799
f 706 799 707
f 707 799 800
f 707 800 708
f 708 800 801
f 708 801 709
f 709 801 802
f 709 802 710
f 710 802 803
f 710 803 711
f 711 803 804
f 711 804 712
f 712 804 805
f 712 805 713
f 713 805 806
f 713 806 714
f 714 806 807
f 714 807 715
f 715 807 808
f 715 808 716
f 716 808 809
f 716 809 717
f 717 809 810
f 717 810 768
f 768 810 811
f 768 811 769
f 769 811 770
f 770 811 771
f 771 811 772
f 772 811 773
f 773 811 812
f 773 812 774
f 774 812 775
f 775 812 776
f 776 812 813
f 776 813 777
f 777 813 778
f 778 813 814
f 778 814 779
f 779 814 780
f 780 814 815
f 780 815 781
f 781 815 782
f 782 815 816
f 782 816 783
f 783 816 784
f 784 816 817
f 784 817 785
f 785 817 786
f 786 817 787
f 787 817 788
f 788 817 745
f 745 817 818
f 745 818 746
f 746 818 725
f 746 725 747
f 747 725 724
f 747 724 748
f 748 724 749
f 749 724 750
f 750 724 751
f 751 724 752
f 752 724 723
f 752 723 753
f 753 723 754
f 754 723 722
f 754 722 755
f 755 722 756
f 756 722 721
f 756 721 757
f 757 721 758
f 758 721 720
f 758 720 759
f 759 720 760
f 760 720 719
f 760 719 761
f 761 719 762
f 762 719 763
f 763 719 718
f 763 718 764
f 764 718 765
f 765 718 766
f 766 718 767
f 767 718 768
f 768 718 717
f 789 744 819
f 819 744 743
f 819 743 820
f 820 743 742
f 820 742 821
f 821 742 741
f 821 741 822
f 822 741 740
f 822 740 823
f 823 740 739
f 823 739 824
f 824 739 738
f 824 738 825
f 825 738 737
f 825 737 826
f 826 737 736
f 826 736 827
f 827 736 735
f 827 735 828
f 828 735 734
f 828 734 829
f 829 734 733
f 829 733 830
f 830 733 732
f 830 732 831
f 831 732 731
f 831 731 832
f 832 731 730
f 832 730 833
f 833 730 729
f 833 729 834
f 834 729 728
f 834 728 835
f 835 728 727
f 835 727 836
f 836 727 726
f 836 726 818
f 818 726 725
f 897 870 896
f 896 870 928
f 896 928 927
f 927 928 926
f 926 928 929
f 926 929 925
f 925 929 924
f 924 929 923
f 923 929 930
f 923 930 922
f 922 930 920
f 920 930 931
f 920 931 921
f 921 931 919
f 919 931 932
f 919 932 918
f 918 932 917
f 917 932 933
f 917 933 916
f 916 933 915
f 915 933 914
f 914 933 934
f 914 934 913
f 913 934 912
f 912 934 864
f 912 864 911
f 911 864 910
f 910 864 865
f 910 865 909
f 909 865 908
f 908 865 907
f 907 865 866
f 907 866 906
f 906 866 904
f 904 866 867
f 904 867 905
f 905 867 903
f 903 867 868
f 903 868 902
f 902 868 901
f 901 868 869
f 901 869 900
f 900 869 899
f 899 869 898
f 898 869 870
f 898 870 897
f 870 871 928
f 928 871 935
f 935 871 872
f 935 872 936
f 936 872 873
f 936 873 937
f 937 873 874
f 937 874 938
f 938 874 875
f 938 875 939
f 939 875 876
f 939 876 940
f 940 876 877
f 940 877 941
f 941 877 878
f 941 878 942
f 942 878 895
f 942 895 943
f 943 895 881
f 943 881 944
f 944 881 880
f 944 880 945
f 945 880 879
f 945 879 946
f 946 879 882
f 946 882 947
f 947 882 883
f 947 883 948
f 948 883 884
f 948 884 949
f 949 884 885
f 949 885 950
f 950 885 886
f 950 886 951
f 951 886 887
f 951 887 952
f 952 887 888
f 952 888 953
f 953 888 889
f 953 889 954
f 954 889 890
f 954 890 955
f 955 890 891
f 955 891 956
f 956 891 892
f 956 892 957
f 957 892 893
f 957 893 958
f 958 893 894
f 958 894 959
f 959 894 839
f 959 839 960
f 960 839 838
f 960 838 961
f 961 838 837
f 961 837 962
f 962 837 840
f 962 840 963
f 963 840 841
f 963 841 964
f 964 841 842
f 964 842 965
f 965 842 843
f 965 843 966
f 966 843 844
f 966 844 967
f 967 844 845
f 967 845 968
f 968 845 846
f 968 846 969
f 969 846 847
f 969 847 970
f 970 847 848
f 970 848 971
f 971 848 849
f 971 849 972
f 972 849 850
f 972 850 973
f 973 850 851
f 973 851 974
f 974 851 852
f 974 852 975
f 975 852 853
f 975 853 976
f 976 853 854
f 976 854 977
f 977 854 855
f 977 855 978
f 978 855 856
f 978 856 979
f 979 856 857
f 979 857 980
f 980 857 858
f 980 858 981
f 981 858 859
f 981 859 982
f 982 859 860
f 982 860 983
f 983 860 861
f 983 861 984
f 984 861 862
f 984 862 985
f 985 862 863
f 985 863 986
f 986 863 864
f 986 864 934
f 1011 1039 1012
f 1012 1039 1038
f 1012 1038 1037
f 1039 1011 1040
f 1040 1011 1010
f 1040 1010 1041
f 1041 1010 1009
f 1041 1009 1093
f 1093 1009 1008
f 1093 1008 1092
f 1092 1008 1091
f 1091 1008 1007
f 1091 1007 1090
f 1090 1007 1006
f 1090 1006 1089
f 1089 1006 1005
f 1089 1005 1088
f 1088 1005 1004
f 1088 1004 1087
f 1087 1004 1003
f 1087 1003 1086
f 1086 1003 1085
f 1085 1003 1002
f 1085 1002 1084
f 1084 1002 1001
f 1084 1001 1083
f 1083 1001 1000
f 1083 1000 1082
f 1082 1000 999
f 1082 999 1081
f 1081 999 1080
f 1080 999 998
f 1080 998 1079
f 1079 998 997
f 1079 997 1078
f 1078 997 996
f 1078 996 1077
f 1077 996 995
f 1077 995 1076
f 1076 995 1075
f 1075 995 994
f 1075 994 1074
f 1074 994 993
f 1074 993 1073
f 1073 993 992
f 1073 992 1072
f 1072 992 991
f 1072 991 1071
f 1071 991 990
f 1071 990 1070
f 1070 990 1069
f 1069 990 989
f 1069 989 1068
f 1068 989 988
f 1068 988 1067
f 1067 988 987
f 1067 987 1066
f 1066 987 1017
f 1066 1017 1065
f 1065 1017 1064
f 1064 1017 1018
f 1064 1018 1063
f 1063 1018 1019
f 1063 1019 1062
f 1062 1019 1020
f 1062 1020 1061
f 1061 1020 1021
f 1061 1021 1060
f 1060 1021 1022
f 1060 1022 1059
f 1059 1022 1058
f 1058 1022 1023
f 1058 1023 1057
f 1057 1023 1024
f 1057 1024 1056
f 1056 1024 1025
f 1056 1025 1055
f 1055 1025 1026
f 1055 1026 1054
f 1054 1026 1053
f 1053 1026 1027
f 1053 1027 1052
f 1052 1027 1028
f 1052 1028 1051
f 1051 1028 1029
f 1051 1029 1050
f 1050 1029 1030
f 1050 1030 1049
f 1049 1030 1048
f 1048 1030 1031
f 1048 1031 1047
f 1047 1031 1032
f 1047 1032 1046
f 1046 1032 1033
f 1046 1033 1045
f 1045 1033 1034
f 1045 1034 1044
f 1044 1034 1016
f 1044 1016 1043
f 1043 1016 1042
f 1042 1016 1015
f 1042 1015 1035
f 1035 1015 1014
f 1035 1014 1036
f 1036 1014 1013
f 1036 1013 1037
f 1037 1013 1012
f 1174 1187 1173
f 1173 1188 1172
f 1185 1176 1177
f 1186 1176 1185
f 1183 1178 1179
f 1173 1187 1188
f 1175 1186 1187
f 1176 1186 1175
f 1185 1177 1178
f 1175 1187 1174
f 1148 1195 1147
f 1149 1195 1148
f 1150 1195 1149
f 1151 1195 1150
f 1152 1195 1151
f 1153 1195 1152
f 1154 1195 1153
f 1155 1195 1154
f 1156 1195 1155
f 1157 1195 1156
f 1158 1195 1157
f 1159 1195 1158
f 1160 1195 1159
f 1160 1194 1195
f 1161 1194 1160
f 1162 1194 1161
f 1141 1204 1205
f 1203 1204 1141
f 1141 1202 1203
f 1141 1201 1202
f 1200 1201 1141
f 1141 1199 1200
f 1141 1198 1199
f 1197 1198 1141
f 1141 1196 1197
f 1141 1195 1196
f 1142 1195 1141
f 1143 1195 1142
f 1144 1195 1143
f 1145 1195 1144
f 1146 1195 1145
f 1147 1195 1146
f 1211 1212 1132
f 1132 1210 1211
f 1132 1209 1210
f 1133 1209 1132
f 1134 1209 1133
f 1134 1208 1209
f 1135 1208 1134
f 1136 1208 1135
f 1136 1207 1208
f 1137 1207 1136
f 1137 1206 1207
f 1183 1179 1180
f 1185 1178 1183
f 1184 1181 1182
f 1184 1180 1181
f 1183 1180 1184
f 1162 1193 1194
f 1163 1193 1162
f 1163 1192 1193
f 1164 1192 1163
f 1165 1192 1164
f 1165 1191 1192
f 1166 1191 1165
f 1167 1191 1166
f 1167 1190 1191
f 1168 1190 1167
f 1169 1190 1168
f 1169 1189 1190
f 1170 1189 1169
f 1171 1189 1170
f 1171 1188 1189
f 1172 1188 1171
f 1132 1212 1213
f 1132 1213 1214
f 1214 1215 1132
f 1132 1215 1216
f 1132 1216 1217
f 1217 1218 1132
f 1132 1218 1219
f 1132 1219 1131
f 1131 1219 1130
f 1130 1219 1129
f 1129 1219 1100
f 1129 1100 1128
f 1128 1100 1101
f 1128 1101 1127
f 1127 1101 1102
f 1127 1102 1126
f 1141 1205 1140
f 1140 1205 1139
f 1139 1205 1206
f 1139 1206 1138
f 1138 1206 1137
f 1119 1110 1118
f 1120 1109 1119
f 1119 1109 1110
f 1123 1106 1122
f 1123 1105 1106
f 1124 1105 1123
f 1120 1108 1109
f 1121 1108 1120
f 1121 1107 1108
f 1122 1107 1121
f 1122 1106 1107
f 1182 1230 1184
f 1094 1230 1182
f 1098 1228 1097
f 1097 1228 1229
f 1097 1229 1096
f 1096 1229 1095
f 1095 1229 1230
f 1095 1230 1094
f 1098 1227 1228
f 1099 1227 1098
f 1116 1113 1115
f 1124 1104 1105
f 1125 1104 1124
f 1125 1103 1104
f 1126 1103 1125
f 1126 1102 1103
f 1100 1227 1099
f 1100 1226 1227
f 1225 1226 1100
f 1100 1224 1225
f 1100 1223 1224
f 1222 1223 1100
f 1100 1221 1222
f 1100 1220 1221
f 1219 1220 1100
f 1115 1113 1114
f 1118 1111 1117
f 1116 1112 1113
f 1117 1112 1116
f 1117 1111 1112
f 1118 1110 1111
f 1239 1237 1240
f 1238 1237 1239
f 1252 1271 1272
f 1252 1270 1271
f 1236 1237 1238
f 1236 1231 1237
f 1232 1231 1236
f 1233 1234 1235
f 1249 1247 1250
f 1248 1247 1249
f 1246 1247 1248
f 1246 1243 1247
f 1245 1243 1246
f 1244 1243 1245
f 1242 1243 1244
f 1242 1240 1243
f 1241 1240 1242
f 1239 1240 1241
f 1285 1287 1288
f 1285 1286 1287
f 1285 1284 1286
f 1283 1284 1285
f 1283 1282 1284
f 1280 1282 1283
f 1280 1281 1282
f 1280 1279 1281
f 1277 1279 1280
f 1277 1278 1279
f 1277 1276 1278
f 1275 1276 1277
f 1275 1274 1276
f 1272 1274 1275
f 1272 1273 1274
f 1272 1271 1273
f 1303 1302 1304
f 1301 1302 1303
f 1269 1270 1252
f 1252 1268 1269
f 1252 1267 1268
f 1266 1267 1252
f 1252 1265 1266
f 1252 1264 1265
f 1263 1264 1252
f 1252 1262 1263
f 1252 1261 1262
f 1260 1261 1252
f 1252 1259 1260
f 1252 1258 1259
f 1257 1258 1252
f 1252 1256 1257
f 1319 1318 1320
f 1317 1318 1319
f 1317 1316 1318
f 1314 1316 1317
f 1314 1315 1316
f 1314 1313 1315
f 1311 1313 1314
f 1311 1312 1313
f 1311 1310 1312
f 1309 1310 1311
f 1309 1308 1310
f 1306 1308 1309
f 1306 1307 1308
f 1306 1305 1307
f 1303 1305 1306
f 1303 1304 1305
f 1335 1334 1336
f 1332 1334 1335
f 1332 1333 1334
f 1332 1331 1333
f 1330 1331 1332
f 1330 1329 1331
f 1327 1329 1330
f 1327 1328 1329
f 1327 1326 1328
f 1324 1326 1327
f 1324 1325 1326
f 1324 1323 1325
f 1322 1323 1324
f 1322 1321 1323
f 1319 1321 1322
f 1319 1320 1321
f 1351 1352 1353
f 1351 1350 1352
f 1349 1350 1351
f 1349 1344 1350
f 1345 1344 1349
f 1341 1347 1348
f 1341 1346 1347
f 1340 1346 1341
f 1340 1345 1346
f 1344 1345 1340
f 1339 1342 1343
f 1339 1341 1342
f 1340 1341 1339
f 1337 1338 1339
f 1337 1336 1338
f 1335 1336 1337
f 1368 1365 1369
f 1367 1365 1368
f 1301 1300 1302
f 1298 1300 1301
f 1298 1299 1300
f 1298 1297 1299
f 1296 1297 1298
f 1296 1295 1297
f 1293 1295 1296
f 1293 1294 1295
f 1293 1292 1294
f 1290 1292 1293
f 1290 1291 1292
f 1290 1289 1291
f 1288 1289 1290
f 1288 1287 1289
f 1353 1352 1354
f 1348 1355 1341
f 1341 1355 1356
f 1341 1356 1357
f 1357 1358 1341
f 1341 1358 1359
f 1341 1359 1360
f 1360 1361 1341
f 1341 1361 1362
f 1341 1362 1363
f 1363 1364 1341
f 1341 1364 1365
f 1341 1365 1366
f 1366 1365 1367
f 1235 1382 1233
f 1383 1382 1235
f 1343 1384 1339
f 1339 1384 1337
f 1381 1382 1383
f 1381 1380 1382
f 1379 1380 1381
f 1379 1377 1380
f 1378 1377 1379
f 1376 1377 1378
f 1376 1374 1377
f 1375 1374 1376
f 1373 1374 1375
f 1373 1370 1374
f 1372 1370 1373
f 1371 1370 1372
f 1369 1370 1371
f 1369 1365 1370
f 1231 1232 1233
f 1233 1232 1234
f 1250 1247 1251
f 1251 1247 1252
f 1252 1255 1256
f 1254 1255 1252
f 1252 1247 1253
f 1252 1253 1254

