# https://github.com/mikedh/trimesh
v -151.52197266 140.67762756 10.00000000
v -151.52197266 140.67762756 25.00000000
v -151.66600037 140.00000000 10.00000000
v -151.66600037 140.00000000 25.00000000
v -151.66600037 140.00000000 10.00000000
v -151.66600037 140.00000000 25.00000000
v -151.52197266 139.32237244 10.00000000
v -151.52197266 139.32237244 25.00000000
v -151.52197266 139.32237244 10.00000000
v -151.52197266 139.32237244 25.00000000
v -151.11477661 138.76191711 10.00000000
v -151.11477661 138.76191711 25.00000000
v -151.11477661 138.76191711 10.00000000
v -151.11477661 138.76191711 25.00000000
v -150.51481628 138.41554260 10.00000000
v -150.51481628 138.41554260 25.00000000
v -150.51481628 138.41554260 10.00000000
v -150.51481628 138.41554260 25.00000000
v -149.82585144 138.34312439 10.00000000
v -149.82585144 138.34312439 25.00000000
v -149.82585144 138.34312439 10.00000000
v -149.82585144 138.34312439 25.00000000
v -149.16700745 138.55720520 10.00000000
v -149.16700745 138.55720520 25.00000000
v -149.16700745 138.55720520 10.00000000
v -149.16700745 138.55720520 25.00000000
v -148.65217590 139.02075195 10.00000000
v -148.65217590 139.02075195 25.00000000
v -148.65217590 139.02075195 10.00000000
v -148.65217590 139.02075195 25.00000000
v -148.37040710 139.65362549 10.00000000
v -148.37040710 139.65362549 25.00000000
v -148.37040710 139.65362549 10.00000000
v -148.37040710 139.65362549 25.00000000
v -148.37040710 140.34637451 10.00000000
v -148.37040710 140.34637451 25.00000000
v -148.37040710 140.34637451 10.00000000
v -148.37040710 140.34637451 25.00000000
v -148.65217590 140.97924805 10.00000000
v -148.65217590 140.97924805 25.00000000
v -148.65217590 140.97924805 10.00000000
v -148.65217590 140.97924805 25.00000000
v -149.16700745 141.44279480 10.00000000
v -149.16700745 141.44279480 25.00000000
v -149.16700745 141.44279480 10.00000000
v -149.16700745 141.44279480 25.00000000
v -149.82585144 141.65687561 10.00000000
v -149.82585144 141.65687561 25.00000000
v -149.82585144 141.65687561 10.00000000
v -149.82585144 141.65687561 25.00000000
v -150.51481628 141.58445740 10.00000000
v -150.51481628 141.58445740 25.00000000
v -150.51481628 141.58445740 10.00000000
v -150.51481628 141.58445740 25.00000000
v -151.11477661 141.23808289 10.00000000
v -151.11477661 141.23808289 25.00000000
v -151.52197266 140.67762756 10.00000000
v -151.52197266 140.67762756 25.00000000
v -151.11477661 141.23808289 10.00000000
v -151.11477661 141.23808289 25.00000000
v -151.52197266 140.67762756 25.00000000
v -151.66600037 140.00000000 25.00000000
v -151.52197266 139.32237244 25.00000000
v -151.11477661 138.76191711 25.00000000
v -150.51481628 138.41554260 25.00000000
v -149.82585144 138.34312439 25.00000000
v -149.16700745 138.55720520 25.00000000
v -148.65217590 139.02075195 25.00000000
v -148.37040710 139.65362549 25.00000000
v -148.37040710 140.34637451 25.00000000
v -148.65217590 140.97924805 25.00000000
v -149.16700745 141.44279480 25.00000000
v -149.82585144 141.65687561 25.00000000
v -150.51481628 141.58445740 25.00000000
v -151.11477661 141.23808289 25.00000000
v -71.52196503 140.67762756 10.00000000
v -71.52196503 140.67762756 25.00000000
v -71.66600037 140.00000000 10.00000000
v -71.66600037 140.00000000 25.00000000
v -71.66600037 140.00000000 10.00000000
v -71.66600037 140.00000000 25.00000000
v -71.52196503 139.32237244 10.00000000
v -71.52196503 139.32237244 25.00000000
v -71.52196503 139.32237244 10.00000000
v -71.52196503 139.32237244 25.00000000
v -71.11476898 138.76191711 10.00000000
v -71.11476898 138.76191711 25.00000000
v -71.11476898 138.76191711 10.00000000
v -71.11476898 138.76191711 25.00000000
v -70.51482391 138.41554260 10.00000000
v -70.51482391 138.41554260 25.00000000
v -70.51482391 138.41554260 10.00000000
v -70.51482391 138.41554260 25.00000000
v -69.82585907 138.34312439 10.00000000
v -69.82585907 138.34312439 25.00000000
v -69.82585907 138.34312439 10.00000000
v -69.82585907 138.34312439 25.00000000
v -69.16699982 138.55720520 10.00000000
v -69.16699982 138.55720520 25.00000000
v -69.16699982 138.55720520 10.00000000
v -69.16699982 138.55720520 25.00000000
v -68.65217590 139.02075195 10.00000000
v -68.65217590 139.02075195 25.00000000
v -68.65217590 139.02075195 10.00000000
v -68.65217590 139.02075195 25.00000000
v -68.37040710 139.65362549 10.00000000
v -68.37040710 139.65362549 25.00000000
v -68.37040710 139.65362549 10.00000000
v -68.37040710 139.65362549 25.00000000
v -68.37040710 140.34637451 10.00000000
v -68.37040710 140.34637451 25.00000000
v -68.37040710 140.34637451 10.00000000
v -68.37040710 140.34637451 25.00000000
v -68.65217590 140.97924805 10.00000000
v -68.65217590 140.97924805 25.00000000
v -68.65217590 140.97924805 10.00000000
v -68.65217590 140.97924805 25.00000000
v -69.16699982 141.44279480 10.00000000
v -69.16699982 141.44279480 25.00000000
v -69.16699982 141.44279480 10.00000000
v -69.16699982 141.44279480 25.00000000
v -69.82585907 141.65687561 10.00000000
v -69.82585907 141.65687561 25.00000000
v -69.82585907 141.65687561 10.00000000
v -69.82585907 141.65687561 25.00000000
v -70.51482391 141.58445740 10.00000000
v -70.51482391 141.58445740 25.00000000
v -70.51482391 141.58445740 10.00000000
v -70.51482391 141.58445740 25.00000000
v -71.11476898 141.23808289 10.00000000
v -71.11476898 141.23808289 25.00000000
v -71.52196503 140.67762756 10.00000000
v -71.52196503 140.67762756 25.00000000
v -71.11476898 141.23808289 10.00000000
v -71.11476898 141.23808289 25.00000000
v -71.52196503 140.67762756 25.00000000
v -71.66600037 140.00000000 25.00000000
v -71.52196503 139.32237244 25.00000000
v -71.11476898 138.76191711 25.00000000
v -70.51482391 138.41554260 25.00000000
v -69.82585907 138.34312439 25.00000000
v -69.16699982 138.55720520 25.00000000
v -68.65217590 139.02075195 25.00000000
v -68.37040710 139.65362549 25.00000000
v -68.37040710 140.34637451 25.00000000
v -68.65217590 140.97924805 25.00000000
v -69.16699982 141.44279480 25.00000000
v -69.82585907 141.65687561 25.00000000
v -70.51482391 141.58445740 25.00000000
v -71.11476898 141.23808289 25.00000000
v -21.13629723 140.00000000 56.03527451
v -21.13629723 145.00000000 56.03527451
v -21.00000000 140.00000000 55.00000000
v -21.00000000 145.00000000 55.00000000
v -21.13629723 140.00000000 53.96472549
v -21.13629723 145.00000000 53.96472549
v -21.53589821 145.00000000 53.00000000
v -21.53589821 140.00000000 57.00000000
v -21.53589821 145.00000000 57.00000000
v -22.17157364 140.00000000 57.82842636
v -22.17157364 145.00000000 57.82842636
v -23.00000000 140.00000000 58.46409988
v -23.00000000 145.00000000 58.46409988
v -23.96472359 140.00000000 58.86370468
v -23.96472359 145.00000000 58.86370468
v -25.00000000 140.00000000 59.00000000
v -25.00000000 145.00000000 59.00000000
v -26.03527641 140.00000000 58.86370468
v -26.03527641 145.00000000 58.86370468
v -27.00000000 140.00000000 58.46409988
v -27.00000000 145.00000000 58.46409988
v -27.82842636 140.00000000 57.82842636
v -27.82842636 145.00000000 57.82842636
v -28.46410179 140.00000000 57.00000000
v -28.46410179 145.00000000 57.00000000
v -28.86370277 140.00000000 56.03527451
v -28.86370277 145.00000000 56.03527451
v -29.00000000 140.00000000 55.00000000
v -29.00000000 145.00000000 55.00000000
v -28.86370277 140.00000000 53.96472549
v -28.86370277 145.00000000 53.96472549
v -28.46410179 140.00000000 53.00000000
v -28.46410179 145.00000000 53.00000000
v -27.82842636 140.00000000 52.17157364
v -27.82842636 145.00000000 52.17157364
v -27.00000000 140.00000000 51.53590012
v -27.00000000 145.00000000 51.53590012
v -26.03527641 140.00000000 51.13629532
v -26.03527641 145.00000000 51.13629532
v -25.00000000 140.00000000 51.00000000
v -25.00000000 145.00000000 51.00000000
v -23.96472359 140.00000000 51.13629532
v -23.96472359 145.00000000 51.13629532
v -23.00000000 140.00000000 51.53590012
v -23.00000000 145.00000000 51.53590012
v -22.17157364 140.00000000 52.17157364
v -22.17157364 145.00000000 52.17157364
v -21.53589821 140.00000000 53.00000000
v -21.13629723 140.00000000 56.03527451
v -21.00000000 140.00000000 55.00000000
v -21.13629723 140.00000000 53.96472549
v -21.53589821 140.00000000 57.00000000
v -22.17157364 140.00000000 57.82842636
v -23.00000000 140.00000000 58.46409988
v -23.96472359 140.00000000 58.86370468
v -25.00000000 140.00000000 59.00000000
v -26.03527641 140.00000000 58.86370468
v -27.00000000 140.00000000 58.46409988
v -27.82842636 140.00000000 57.82842636
v -28.46410179 140.00000000 57.00000000
v -28.86370277 140.00000000 56.03527451
v -29.00000000 140.00000000 55.00000000
v -28.86370277 140.00000000 53.96472549
v -28.46410179 140.00000000 53.00000000
v -27.82842636 140.00000000 52.17157364
v -27.00000000 140.00000000 51.53590012
v -26.03527641 140.00000000 51.13629532
v -25.00000000 140.00000000 51.00000000
v -23.96472359 140.00000000 51.13629532
v -23.00000000 140.00000000 51.53590012
v -22.17157364 140.00000000 52.17157364
v -21.53589821 140.00000000 53.00000000
v -22.63545609 140.00000000 55.81174850
v -22.50000000 140.00000000 55.00000000
v -23.02714920 140.00000000 56.53553009
v -23.63262939 140.00000000 57.09291458
v -24.38628578 140.00000000 57.42350006
v -25.20644760 140.00000000 57.49146271
v -26.00423813 140.00000000 57.28943253
v -26.69320488 140.00000000 56.83930969
v -27.19868469 140.00000000 56.18986893
v -27.46590233 140.00000000 55.41148758
v -27.46590233 140.00000000 54.58851242
v -27.19868469 140.00000000 53.81013107
v -26.69320488 140.00000000 53.16069031
v -26.00423813 140.00000000 52.71056747
v -25.20644760 140.00000000 52.50853729
v -24.38628578 140.00000000 52.57649994
v -23.63262939 140.00000000 52.90708542
v -23.02714920 140.00000000 53.46446991
v -22.63545609 140.00000000 54.18825150
v -191.13629150 140.00000000 56.03527451
v -191.13629150 145.00000000 56.03527451
v -191.00000000 140.00000000 55.00000000
v -191.00000000 145.00000000 55.00000000
v -191.13629150 140.00000000 53.96472549
v -191.13629150 145.00000000 53.96472549
v -191.53590393 145.00000000 53.00000000
v -191.53590393 140.00000000 57.00000000
v -191.53590393 145.00000000 57.00000000
v -192.17156982 140.00000000 57.82842636
v -192.17156982 145.00000000 57.82842636
v -193.00000000 140.00000000 58.46409988
v -193.00000000 145.00000000 58.46409988
v -193.96472168 140.00000000 58.86370468
v -193.96472168 145.00000000 58.86370468
v -195.00000000 140.00000000 59.00000000
v -195.00000000 145.00000000 59.00000000
v -196.03527832 140.00000000 58.86370468
v -196.03527832 145.00000000 58.86370468
v -197.00000000 140.00000000 58.46409988
v -197.00000000 145.00000000 58.46409988
v -197.82843018 140.00000000 57.82842636
v -197.82843018 145.00000000 57.82842636
v -198.46409607 140.00000000 57.00000000
v -198.46409607 145.00000000 57.00000000
v -198.86370850 140.00000000 56.03527451
v -198.86370850 145.00000000 56.03527451
v -199.00000000 140.00000000 55.00000000
v -199.00000000 145.00000000 55.00000000
v -198.86370850 140.00000000 53.96472549
v -198.86370850 145.00000000 53.96472549
v -198.46409607 140.00000000 53.00000000
v -198.46409607 145.00000000 53.00000000
v -197.82843018 140.00000000 52.17157364
v -197.82843018 145.00000000 52.17157364
v -197.00000000 140.00000000 51.53590012
v -197.00000000 145.00000000 51.53590012
v -196.03527832 140.00000000 51.13629532
v -196.03527832 145.00000000 51.13629532
v -195.00000000 140.00000000 51.00000000
v -195.00000000 145.00000000 51.00000000
v -193.96472168 140.00000000 51.13629532
v -193.96472168 145.00000000 51.13629532
v -193.00000000 140.00000000 51.53590012
v -193.00000000 145.00000000 51.53590012
v -192.17156982 140.00000000 52.17157364
v -192.17156982 145.00000000 52.17157364
v -191.53590393 140.00000000 53.00000000
v -191.13629150 140.00000000 56.03527451
v -191.00000000 140.00000000 55.00000000
v -191.13629150 140.00000000 53.96472549
v -191.53590393 140.00000000 57.00000000
v -192.17156982 140.00000000 57.82842636
v -193.00000000 140.00000000 58.46409988
v -193.96472168 140.00000000 58.86370468
v -195.00000000 140.00000000 59.00000000
v -196.03527832 140.00000000 58.86370468
v -197.00000000 140.00000000 58.46409988
v -197.82843018 140.00000000 57.82842636
v -198.46409607 140.00000000 57.00000000
v -198.86370850 140.00000000 56.03527451
v -199.00000000 140.00000000 55.00000000
v -198.86370850 140.00000000 53.96472549
v -198.46409607 140.00000000 53.00000000
v -197.82843018 140.00000000 52.17157364
v -197.00000000 140.00000000 51.53590012
v -196.03527832 140.00000000 51.13629532
v -195.00000000 140.00000000 51.00000000
v -193.96472168 140.00000000 51.13629532
v -193.00000000 140.00000000 51.53590012
v -192.17156982 140.00000000 52.17157364
v -191.53590393 140.00000000 53.00000000
v -192.63545227 140.00000000 55.81174850
v -192.50000000 140.00000000 55.00000000
v -193.02714539 140.00000000 56.53553009
v -193.63262939 140.00000000 57.09291458
v -194.38629150 140.00000000 57.42350006
v -195.20645142 140.00000000 57.49146271
v -196.00424194 140.00000000 57.28943253
v -196.69320679 140.00000000 56.83930969
v -197.19868469 140.00000000 56.18986893
v -197.46589661 140.00000000 55.41148758
v -197.46589661 140.00000000 54.58851242
v -197.19868469 140.00000000 53.81013107
v -196.69320679 140.00000000 53.16069031
v -196.00424194 140.00000000 52.71056747
v -195.20645142 140.00000000 52.50853729
v -194.38629150 140.00000000 52.57649994
v -193.63262939 140.00000000 52.90708542
v -193.02714539 140.00000000 53.46446991
v -192.63545227 140.00000000 54.18825150
v -191.13629150 140.00000000 136.03527832
v -191.13629150 145.00000000 136.03527832
v -191.00000000 140.00000000 135.00000000
v -191.00000000 145.00000000 135.00000000
v -191.13629150 140.00000000 133.96472168
v -191.13629150 145.00000000 133.96472168
v -191.53590393 145.00000000 133.00000000
v -191.53590393 140.00000000 137.00000000
v -191.53590393 145.00000000 137.00000000
v -192.17156982 140.00000000 137.82843018
v -192.17156982 145.00000000 137.82843018
v -193.00000000 140.00000000 138.46409607
v -193.00000000 145.00000000 138.46409607
v -193.96472168 140.00000000 138.86370850
v -193.96472168 145.00000000 138.86370850
v -195.00000000 140.00000000 139.00000000
v -195.00000000 145.00000000 139.00000000
v -196.03527832 140.00000000 138.86370850
v -196.03527832 145.00000000 138.86370850
v -197.00000000 140.00000000 138.46409607
v -197.00000000 145.00000000 138.46409607
v -197.82843018 140.00000000 137.82843018
v -197.82843018 145.00000000 137.82843018
v -198.46409607 140.00000000 137.00000000
v -198.46409607 145.00000000 137.00000000
v -198.86370850 140.00000000 136.03527832
v -198.86370850 145.00000000 136.03527832
v -199.00000000 140.00000000 135.00000000
v -199.00000000 145.00000000 135.00000000
v -198.86370850 140.00000000 133.96472168
v -198.86370850 145.00000000 133.96472168
v -198.46409607 140.00000000 133.00000000
v -198.46409607 145.00000000 133.00000000
v -197.82843018 140.00000000 132.17156982
v -197.82843018 145.00000000 132.17156982
v -197.00000000 140.00000000 131.53590393
v -197.00000000 145.00000000 131.53590393
v -196.03527832 140.00000000 131.13629150
v -196.03527832 145.00000000 131.13629150
v -195.00000000 140.00000000 131.00000000
v -195.00000000 145.00000000 131.00000000
v -193.96472168 140.00000000 131.13629150
v -193.96472168 145.00000000 131.13629150
v -193.00000000 140.00000000 131.53590393
v -193.00000000 145.00000000 131.53590393
v -192.17156982 140.00000000 132.17156982
v -192.17156982 145.00000000 132.17156982
v -191.53590393 140.00000000 133.00000000
v -191.13629150 140.00000000 136.03527832
v -191.00000000 140.00000000 135.00000000
v -191.13629150 140.00000000 133.96472168
v -191.53590393 140.00000000 137.00000000
v -192.17156982 140.00000000 137.82843018
v -193.00000000 140.00000000 138.46409607
v -193.96472168 140.00000000 138.86370850
v -195.00000000 140.00000000 139.00000000
v -196.03527832 140.00000000 138.86370850
v -197.00000000 140.00000000 138.46409607
v -197.82843018 140.00000000 137.82843018
v -198.46409607 140.00000000 137.00000000
v -198.86370850 140.00000000 136.03527832
v -199.00000000 140.00000000 135.00000000
v -198.86370850 140.00000000 133.96472168
v -198.46409607 140.00000000 133.00000000
v -197.82843018 140.00000000 132.17156982
v -197.00000000 140.00000000 131.53590393
v -196.03527832 140.00000000 131.13629150
v -195.00000000 140.00000000 131.00000000
v -193.96472168 140.00000000 131.13629150
v -193.00000000 140.00000000 131.53590393
v -192.17156982 140.00000000 132.17156982
v -191.53590393 140.00000000 133.00000000
v -192.63545227 140.00000000 135.81175232
v -192.50000000 140.00000000 135.00000000
v -193.02714539 140.00000000 136.53553772
v -193.63262939 140.00000000 137.09291077
v -194.38629150 140.00000000 137.42350769
v -195.20645142 140.00000000 137.49145508
v -196.00424194 140.00000000 137.28942871
v -196.69320679 140.00000000 136.83930969
v -197.19868469 140.00000000 136.18986511
v -197.46589661 140.00000000 135.41148376
v -197.46589661 140.00000000 134.58851624
v -197.19868469 140.00000000 133.81013489
v -196.69320679 140.00000000 133.16069031
v -196.00424194 140.00000000 132.71057129
v -195.20645142 140.00000000 132.50854492
v -194.38629150 140.00000000 132.57649231
v -193.63262939 140.00000000 132.90708923
v -193.02714539 140.00000000 133.46446228
v -192.63545227 140.00000000 134.18824768
v -21.13629723 140.00000000 136.03527832
v -21.13629723 145.00000000 136.03527832
v -21.00000000 140.00000000 135.00000000
v -21.00000000 145.00000000 135.00000000
v -21.13629723 140.00000000 133.96472168
v -21.13629723 145.00000000 133.96472168
v -21.53589821 145.00000000 133.00000000
v -21.53589821 140.00000000 137.00000000
v -21.53589821 145.00000000 137.00000000
v -22.17157364 140.00000000 137.82843018
v -22.17157364 145.00000000 137.82843018
v -23.00000000 140.00000000 138.46409607
v -23.00000000 145.00000000 138.46409607
v -23.96472359 140.00000000 138.86370850
v -23.96472359 145.00000000 138.86370850
v -25.00000000 140.00000000 139.00000000
v -25.00000000 145.00000000 139.00000000
v -26.03527641 140.00000000 138.86370850
v -26.03527641 145.00000000 138.86370850
v -27.00000000 140.00000000 138.46409607
v -27.00000000 145.00000000 138.46409607
v -27.82842636 140.00000000 137.82843018
v -27.82842636 145.00000000 137.82843018
v -28.46410179 140.00000000 137.00000000
v -28.46410179 145.00000000 137.00000000
v -28.86370277 140.00000000 136.03527832
v -28.86370277 145.00000000 136.03527832
v -29.00000000 140.00000000 135.00000000
v -29.00000000 145.00000000 135.00000000
v -28.86370277 140.00000000 133.96472168
v -28.86370277 145.00000000 133.96472168
v -28.46410179 140.00000000 133.00000000
v -28.46410179 145.00000000 133.00000000
v -27.82842636 140.00000000 132.17156982
v -27.82842636 145.00000000 132.17156982
v -27.00000000 140.00000000 131.53590393
v -27.00000000 145.00000000 131.53590393
v -26.03527641 140.00000000 131.13629150
v -26.03527641 145.00000000 131.13629150
v -25.00000000 140.00000000 131.00000000
v -25.00000000 145.00000000 131.00000000
v -23.96472359 140.00000000 131.13629150
v -23.96472359 145.00000000 131.13629150
v -23.00000000 140.00000000 131.53590393
v -23.00000000 145.00000000 131.53590393
v -22.17157364 140.00000000 132.17156982
v -22.17157364 145.00000000 132.17156982
v -21.53589821 140.00000000 133.00000000
v -21.13629723 140.00000000 136.03527832
v -21.00000000 140.00000000 135.00000000
v -21.13629723 140.00000000 133.96472168
v -21.53589821 140.00000000 137.00000000
v -22.17157364 140.00000000 137.82843018
v -23.00000000 140.00000000 138.46409607
v -23.96472359 140.00000000 138.86370850
v -25.00000000 140.00000000 139.00000000
v -26.03527641 140.00000000 138.86370850
v -27.00000000 140.00000000 138.46409607
v -27.82842636 140.00000000 137.82843018
v -28.46410179 140.00000000 137.00000000
v -28.86370277 140.00000000 136.03527832
v -29.00000000 140.00000000 135.00000000
v -28.86370277 140.00000000 133.96472168
v -28.46410179 140.00000000 133.00000000
v -27.82842636 140.00000000 132.17156982
v -27.00000000 140.00000000 131.53590393
v -26.03527641 140.00000000 131.13629150
v -25.00000000 140.00000000 131.00000000
v -23.96472359 140.00000000 131.13629150
v -23.00000000 140.00000000 131.53590393
v -22.17157364 140.00000000 132.17156982
v -21.53589821 140.00000000 133.00000000
v -22.63545609 140.00000000 135.81175232
v -22.50000000 140.00000000 135.00000000
v -23.02714920 140.00000000 136.53553772
v -23.63262939 140.00000000 137.09291077
v -24.38628578 140.00000000 137.42350769
v -25.20644760 140.00000000 137.49145508
v -26.00423813 140.00000000 137.28942871
v -26.69320488 140.00000000 136.83930969
v -27.19868469 140.00000000 136.18986511
v -27.46590233 140.00000000 135.41148376
v -27.46590233 140.00000000 134.58851624
v -27.19868469 140.00000000 133.81013489
v -26.69320488 140.00000000 133.16069031
v -26.00423813 140.00000000 132.71057129
v -25.20644760 140.00000000 132.50854492
v -24.38628578 140.00000000 132.57649231
v -23.63262939 140.00000000 132.90708923
v -23.02714920 140.00000000 133.46446228
v -22.63545609 140.00000000 134.18824768
v -21.13629723 140.00000000 96.03527832
v -21.13629723 145.00000000 96.03527832
v -21.00000000 140.00000000 95.00000000
v -21.00000000 145.00000000 95.00000000
v -21.13629723 140.00000000 93.96472168
v -21.13629723 145.00000000 93.96472168
v -21.53589821 145.00000000 93.00000000
v -21.53589821 140.00000000 97.00000000
v -21.53589821 145.00000000 97.00000000
v -22.17157364 140.00000000 97.82843018
v -22.17157364 145.00000000 97.82843018
v -23.00000000 140.00000000 98.46410370
v -23.00000000 145.00000000 98.46410370
v -23.96472359 140.00000000 98.86370087
v -23.96472359 145.00000000 98.86370087
v -25.00000000 140.00000000 99.00000000
v -25.00000000 145.00000000 99.00000000
v -26.03527641 140.00000000 98.86370087
v -26.03527641 145.00000000 98.86370087
v -27.00000000 140.00000000 98.46410370
v -27.00000000 145.00000000 98.46410370
v -27.82842636 140.00000000 97.82843018
v -27.82842636 145.00000000 97.82843018
v -28.46410179 140.00000000 97.00000000
v -28.46410179 145.00000000 97.00000000
v -28.86370277 140.00000000 96.03527832
v -28.86370277 145.00000000 96.03527832
v -29.00000000 140.00000000 95.00000000
v -29.00000000 145.00000000 95.00000000
v -28.86370277 140.00000000 93.96472168
v -28.86370277 145.00000000 93.96472168
v -28.46410179 140.00000000 93.00000000
v -28.46410179 145.00000000 93.00000000
v -27.82842636 140.00000000 92.17156982
v -27.82842636 145.00000000 92.17156982
v -27.00000000 140.00000000 91.53589630
v -27.00000000 145.00000000 91.53589630
v -26.03527641 140.00000000 91.13629913
v -26.03527641 145.00000000 91.13629913
v -25.00000000 140.00000000 91.00000000
v -25.00000000 145.00000000 91.00000000
v -23.96472359 140.00000000 91.13629913
v -23.96472359 145.00000000 91.13629913
v -23.00000000 140.00000000 91.53589630
v -23.00000000 145.00000000 91.53589630
v -22.17157364 140.00000000 92.17156982
v -22.17157364 145.00000000 92.17156982
v -21.53589821 140.00000000 93.00000000
v -21.13629723 140.00000000 96.03527832
v -21.00000000 140.00000000 95.00000000
v -21.13629723 140.00000000 93.96472168
v -21.53589821 140.00000000 97.00000000
v -22.17157364 140.00000000 97.82843018
v -23.00000000 140.00000000 98.46410370
v -23.96472359 140.00000000 98.86370087
v -25.00000000 140.00000000 99.00000000
v -26.03527641 140.00000000 98.86370087
v -27.00000000 140.00000000 98.46410370
v -27.82842636 140.00000000 97.82843018
v -28.46410179 140.00000000 97.00000000
v -28.86370277 140.00000000 96.03527832
v -29.00000000 140.00000000 95.00000000
v -28.86370277 140.00000000 93.96472168
v -28.46410179 140.00000000 93.00000000
v -27.82842636 140.00000000 92.17156982
v -27.00000000 140.00000000 91.53589630
v -26.03527641 140.00000000 91.13629913
v -25.00000000 140.00000000 91.00000000
v -23.96472359 140.00000000 91.13629913
v -23.00000000 140.00000000 91.53589630
v -22.17157364 140.00000000 92.17156982
v -21.53589821 140.00000000 93.00000000
v -22.63545609 140.00000000 95.81175232
v -22.50000000 140.00000000 95.00000000
v -23.02714920 140.00000000 96.53553009
v -23.63262939 140.00000000 97.09291840
v -24.38628578 140.00000000 97.42350006
v -25.20644760 140.00000000 97.49146271
v -26.00423813 140.00000000 97.28943634
v -26.69320488 140.00000000 96.83930969
v -27.19868469 140.00000000 96.18986511
v -27.46590233 140.00000000 95.41148376
v -27.46590233 140.00000000 94.58851624
v -27.19868469 140.00000000 93.81013489
v -26.69320488 140.00000000 93.16069031
v -26.00423813 140.00000000 92.71056366
v -25.20644760 140.00000000 92.50853729
v -24.38628578 140.00000000 92.57649994
v -23.63262939 140.00000000 92.90708160
v -23.02714920 140.00000000 93.46446991
v -22.63545609 140.00000000 94.18824768
v -191.13629150 140.00000000 96.03527832
v -191.13629150 145.00000000 96.03527832
v -191.00000000 140.00000000 95.00000000
v -191.00000000 145.00000000 95.00000000
v -191.13629150 140.00000000 93.96472168
v -191.13629150 145.00000000 93.96472168
v -191.53590393 145.00000000 93.00000000
v -191.53590393 140.00000000 97.00000000
v -191.53590393 145.00000000 97.00000000
v -192.17156982 140.00000000 97.82843018
v -192.17156982 145.00000000 97.82843018
v -193.00000000 140.00000000 98.46410370
v -193.00000000 145.00000000 98.46410370
v -193.96472168 140.00000000 98.86370087
v -193.96472168 145.00000000 98.86370087
v -195.00000000 140.00000000 99.00000000
v -195.00000000 145.00000000 99.00000000
v -196.03527832 140.00000000 98.86370087
v -196.03527832 145.00000000 98.86370087
v -197.00000000 140.00000000 98.46410370
v -197.00000000 145.00000000 98.46410370
v -197.82843018 140.00000000 97.82843018
v -197.82843018 145.00000000 97.82843018
v -198.46409607 140.00000000 97.00000000
v -198.46409607 145.00000000 97.00000000
v -198.86370850 140.00000000 96.03527832
v -198.86370850 145.00000000 96.03527832
v -199.00000000 140.00000000 95.00000000
v -199.00000000 145.00000000 95.00000000
v -198.86370850 140.00000000 93.96472168
v -198.86370850 145.00000000 93.96472168
v -198.46409607 140.00000000 93.00000000
v -198.46409607 145.00000000 93.00000000
v -197.82843018 140.00000000 92.17156982
v -197.82843018 145.00000000 92.17156982
v -197.00000000 140.00000000 91.53589630
v -197.00000000 145.00000000 91.53589630
v -196.03527832 140.00000000 91.13629913
v -196.03527832 145.00000000 91.13629913
v -195.00000000 140.00000000 91.00000000
v -195.00000000 145.00000000 91.00000000
v -193.96472168 140.00000000 91.13629913
v -193.96472168 145.00000000 91.13629913
v -193.00000000 140.00000000 91.53589630
v -193.00000000 145.00000000 91.53589630
v -192.17156982 140.00000000 92.17156982
v -192.17156982 145.00000000 92.17156982
v -191.53590393 140.00000000 93.00000000
v -191.13629150 140.00000000 96.03527832
v -191.00000000 140.00000000 95.00000000
v -191.13629150 140.00000000 93.96472168
v -191.53590393 140.00000000 97.00000000
v -192.17156982 140.00000000 97.82843018
v -193.00000000 140.00000000 98.46410370
v -193.96472168 140.00000000 98.86370087
v -195.00000000 140.00000000 99.00000000
v -196.03527832 140.00000000 98.86370087
v -197.00000000 140.00000000 98.46410370
v -197.82843018 140.00000000 97.82843018
v -198.46409607 140.00000000 97.00000000
v -198.86370850 140.00000000 96.03527832
v -199.00000000 140.00000000 95.00000000
v -198.86370850 140.00000000 93.96472168
v -198.46409607 140.00000000 93.00000000
v -197.82843018 140.00000000 92.17156982
v -197.00000000 140.00000000 91.53589630
v -196.03527832 140.00000000 91.13629913
v -195.00000000 140.00000000 91.00000000
v -193.96472168 140.00000000 91.13629913
v -193.00000000 140.00000000 91.53589630
v -192.17156982 140.00000000 92.17156982
v -191.53590393 140.00000000 93.00000000
v -192.63545227 140.00000000 95.81175232
v -192.50000000 140.00000000 95.00000000
v -193.02714539 140.00000000 96.53553009
v -193.63262939 140.00000000 97.09291840
v -194.38629150 140.00000000 97.42350006
v -195.20645142 140.00000000 97.49146271
v -196.00424194 140.00000000 97.28943634
v -196.69320679 140.00000000 96.83930969
v -197.19868469 140.00000000 96.18986511
v -197.46589661 140.00000000 95.41148376
v -197.46589661 140.00000000 94.58851624
v -197.19868469 140.00000000 93.81013489
v -196.69320679 140.00000000 93.16069031
v -196.00424194 140.00000000 92.71056366
v -195.20645142 140.00000000 92.50853729
v -194.38629150 140.00000000 92.57649994
v -193.63262939 140.00000000 92.90708160
v -193.02714539 140.00000000 93.46446991
v -192.63545227 140.00000000 94.18824768
v -192.63545227 140.00000000 135.81175232
v -192.50000000 140.00000000 135.00000000
v -193.02714539 140.00000000 136.53553772
v -193.63262939 140.00000000 137.09291077
v -194.38629150 140.00000000 137.42350769
v -195.20645142 140.00000000 137.49145508
v -196.00424194 140.00000000 137.28942871
v -196.69320679 140.00000000 136.83930969
v -197.19868469 140.00000000 136.18986511
v -197.46589661 140.00000000 135.41148376
v -197.46589661 140.00000000 134.58851624
v -197.19868469 140.00000000 133.81013489
v -196.69320679 140.00000000 133.16069031
v -196.00424194 140.00000000 132.71057129
v -195.20645142 140.00000000 132.50854492
v -194.38629150 140.00000000 132.57649231
v -193.63262939 140.00000000 132.90708923
v -193.02714539 140.00000000 133.46446228
v -192.63545227 140.00000000 134.18824768
v -192.63545227 135.00000000 134.18824768
v -192.50000000 135.00000000 135.00000000
v -192.63545227 135.00000000 135.81175232
v -193.02714539 135.00000000 136.53553772
v -193.63262939 135.00000000 137.09291077
v -194.38629150 135.00000000 137.42350769
v -195.20645142 135.00000000 137.49145508
v -196.00424194 135.00000000 137.28942871
v -196.69320679 135.00000000 136.83930969
v -197.19868469 135.00000000 136.18986511
v -197.46589661 135.00000000 135.41148376
v -197.46589661 135.00000000 134.58851624
v -197.19868469 135.00000000 133.81013489
v -196.69320679 135.00000000 133.16069031
v -196.00424194 135.00000000 132.71057129
v -195.20645142 135.00000000 132.50854492
v -194.38629150 135.00000000 132.57649231
v -193.63262939 135.00000000 132.90708923
v -193.02714539 135.00000000 133.46446228
v -22.63545609 140.00000000 135.81175232
v -22.50000000 140.00000000 135.00000000
v -23.02714920 140.00000000 136.53553772
v -23.63262939 140.00000000 137.09291077
v -24.38628578 140.00000000 137.42350769
v -25.20644760 140.00000000 137.49145508
v -26.00423813 140.00000000 137.28942871
v -26.69320488 140.00000000 136.83930969
v -27.19868469 140.00000000 136.18986511
v -27.46590233 140.00000000 135.41148376
v -27.46590233 140.00000000 134.58851624
v -27.19868469 140.00000000 133.81013489
v -26.69320488 140.00000000 133.16069031
v -26.00423813 140.00000000 132.71057129
v -25.20644760 140.00000000 132.50854492
v -24.38628578 140.00000000 132.57649231
v -23.63262939 140.00000000 132.90708923
v -23.02714920 140.00000000 133.46446228
v -22.63545609 140.00000000 134.18824768
v -22.63545609 135.00000000 134.18824768
v -22.50000000 135.00000000 135.00000000
v -22.63545609 135.00000000 135.81175232
v -23.02714920 135.00000000 136.53553772
v -23.63262939 135.00000000 137.09291077
v -24.38628578 135.00000000 137.42350769
v -25.20644760 135.00000000 137.49145508
v -26.00423813 135.00000000 137.28942871
v -26.69320488 135.00000000 136.83930969
v -27.19868469 135.00000000 136.18986511
v -27.46590233 135.00000000 135.41148376
v -27.46590233 135.00000000 134.58851624
v -27.19868469 135.00000000 133.81013489
v -26.69320488 135.00000000 133.16069031
v -26.00423813 135.00000000 132.71057129
v -25.20644760 135.00000000 132.50854492
v -24.38628578 135.00000000 132.57649231
v -23.63262939 135.00000000 132.90708923
v -23.02714920 135.00000000 133.46446228
v -192.63545227 140.00000000 95.81175232
v -192.50000000 140.00000000 95.00000000
v -193.02714539 140.00000000 96.53553009
v -193.63262939 140.00000000 97.09291840
v -194.38629150 140.00000000 97.42350006
v -195.20645142 140.00000000 97.49146271
v -196.00424194 140.00000000 97.28943634
v -196.69320679 140.00000000 96.83930969
v -197.19868469 140.00000000 96.18986511
v -197.46589661 140.00000000 95.41148376
v -197.46589661 140.00000000 94.58851624
v -197.19868469 140.00000000 93.81013489
v -196.69320679 140.00000000 93.16069031
v -196.00424194 140.00000000 92.71056366
v -195.20645142 140.00000000 92.50853729
v -194.38629150 140.00000000 92.57649994
v -193.63262939 140.00000000 92.90708160
v -193.02714539 140.00000000 93.46446991
v -192.63545227 140.00000000 94.18824768
v -192.63545227 135.00000000 94.18824768
v -192.50000000 135.00000000 95.00000000
v -192.63545227 135.00000000 95.81175232
v -193.02714539 135.00000000 96.53553009
v -193.63262939 135.00000000 97.09291840
v -194.38629150 135.00000000 97.42350006
v -195.20645142 135.00000000 97.49146271
v -196.00424194 135.00000000 97.28943634
v -196.69320679 135.00000000 96.83930969
v -197.19868469 135.00000000 96.18986511
v -197.46589661 135.00000000 95.41148376
v -197.46589661 135.00000000 94.58851624
v -197.19868469 135.00000000 93.81013489
v -196.69320679 135.00000000 93.16069031
v -196.00424194 135.00000000 92.71056366
v -195.20645142 135.00000000 92.50853729
v -194.38629150 135.00000000 92.57649994
v -193.63262939 135.00000000 92.90708160
v -193.02714539 135.00000000 93.46446991
v -22.63545609 140.00000000 55.81174850
v -22.50000000 140.00000000 55.00000000
v -23.02714920 140.00000000 56.53553009
v -23.63262939 140.00000000 57.09291458
v -24.38628578 140.00000000 57.42350006
v -25.20644760 140.00000000 57.49146271
v -26.00423813 140.00000000 57.28943253
v -26.69320488 140.00000000 56.83930969
v -27.19868469 140.00000000 56.18986893
v -27.46590233 140.00000000 55.41148758
v -27.46590233 140.00000000 54.58851242
v -27.19868469 140.00000000 53.81013107
v -26.69320488 140.00000000 53.16069031
v -26.00423813 140.00000000 52.71056747
v -25.20644760 140.00000000 52.50853729
v -24.38628578 140.00000000 52.57649994
v -23.63262939 140.00000000 52.90708542
v -23.02714920 140.00000000 53.46446991
v -22.63545609 140.00000000 54.18825150
v -22.63545609 135.00000000 54.18825150
v -22.50000000 135.00000000 55.00000000
v -22.63545609 135.00000000 55.81174850
v -23.02714920 135.00000000 56.53553009
v -23.63262939 135.00000000 57.09291458
v -24.38628578 135.00000000 57.42350006
v -25.20644760 135.00000000 57.49146271
v -26.00423813 135.00000000 57.28943253
v -26.69320488 135.00000000 56.83930969
v -27.19868469 135.00000000 56.18986893
v -27.46590233 135.00000000 55.41148758
v -27.46590233 135.00000000 54.58851242
v -27.19868469 135.00000000 53.81013107
v -26.69320488 135.00000000 53.16069031
v -26.00423813 135.00000000 52.71056747
v -25.20644760 135.00000000 52.50853729
v -24.38628578 135.00000000 52.57649994
v -23.63262939 135.00000000 52.90708542
v -23.02714920 135.00000000 53.46446991
v -22.63545609 140.00000000 95.81175232
v -22.50000000 140.00000000 95.00000000
v -23.02714920 140.00000000 96.53553009
v -23.63262939 140.00000000 97.09291840
v -24.38628578 140.00000000 97.42350006
v -25.20644760 140.00000000 97.49146271
v -26.00423813 140.00000000 97.28943634
v -26.69320488 140.00000000 96.83930969
v -27.19868469 140.00000000 96.18986511
v -27.46590233 140.00000000 95.41148376
v -27.46590233 140.00000000 94.58851624
v -27.19868469 140.00000000 93.81013489
v -26.69320488 140.00000000 93.16069031
v -26.00423813 140.00000000 92.71056366
v -25.20644760 140.00000000 92.50853729
v -24.38628578 140.00000000 92.57649994
v -23.63262939 140.00000000 92.90708160
v -23.02714920 140.00000000 93.46446991
v -22.63545609 140.00000000 94.18824768
v -22.63545609 135.00000000 94.18824768
v -22.50000000 135.00000000 95.00000000
v -22.63545609 135.00000000 95.81175232
v -23.02714920 135.00000000 96.53553009
v -23.63262939 135.00000000 97.09291840
v -24.38628578 135.00000000 97.42350006
v -25.20644760 135.00000000 97.49146271
v -26.00423813 135.00000000 97.28943634
v -26.69320488 135.00000000 96.83930969
v -27.19868469 135.00000000 96.18986511
v -27.46590233 135.00000000 95.41148376
v -27.46590233 135.00000000 94.58851624
v -27.19868469 135.00000000 93.81013489
v -26.69320488 135.00000000 93.16069031
v -26.00423813 135.00000000 92.71056366
v -25.20644760 135.00000000 92.50853729
v -24.38628578 135.00000000 92.57649994
v -23.63262939 135.00000000 92.90708160
v -23.02714920 135.00000000 93.46446991
v -192.63545227 140.00000000 55.81174850
v -192.50000000 140.00000000 55.00000000
v -193.02714539 140.00000000 56.53553009
v -193.63262939 140.00000000 57.09291458
v -194.38629150 140.00000000 57.42350006
v -195.20645142 140.00000000 57.49146271
v -196.00424194 140.00000000 57.28943253
v -196.69320679 140.00000000 56.83930969
v -197.19868469 140.00000000 56.18986893
v -197.46589661 140.00000000 55.41148758
v -197.46589661 140.00000000 54.58851242
v -197.19868469 140.00000000 53.81013107
v -196.69320679 140.00000000 53.16069031
v -196.00424194 140.00000000 52.71056747
v -195.20645142 140.00000000 52.50853729
v -194.38629150 140.00000000 52.57649994
v -193.63262939 140.00000000 52.90708542
v -193.02714539 140.00000000 53.46446991
v -192.63545227 140.00000000 54.18825150
v -192.63545227 135.00000000 54.18825150
v -192.50000000 135.00000000 55.00000000
v -192.63545227 135.00000000 55.81174850
v -193.02714539 135.00000000 56.53553009
v -193.63262939 135.00000000 57.09291458
v -194.38629150 135.00000000 57.42350006
v -195.20645142 135.00000000 57.49146271
v -196.00424194 135.00000000 57.28943253
v -196.69320679 135.00000000 56.83930969
v -197.19868469 135.00000000 56.18986893
v -197.46589661 135.00000000 55.41148758
v -197.46589661 135.00000000 54.58851242
v -197.19868469 135.00000000 53.81013107
v -196.69320679 135.00000000 53.16069031
v -196.00424194 135.00000000 52.71056747
v -195.20645142 135.00000000 52.50853729
v -194.38629150 135.00000000 52.57649994
v -193.63262939 135.00000000 52.90708542
v -193.02714539 135.00000000 53.46446991
v -20.00000000 135.00000000 10.00000000
v -20.00000000 145.00000000 10.00000000
v -20.00000000 135.00000000 160.00000000
v -20.00000000 145.00000000 160.00000000
v -20.00000000 135.00000000 160.00000000
v -20.00000000 145.00000000 160.00000000
v -200.00000000 145.00000000 160.00000000
v -200.00000000 135.00000000 160.00000000
v -151.52197266 140.67762756 10.00000000
v -151.66600037 140.00000000 10.00000000
v -151.52197266 139.32237244 10.00000000
v -151.11477661 138.76191711 10.00000000
v -150.51481628 138.41554260 10.00000000
v -149.82585144 138.34312439 10.00000000
v -149.16700745 138.55720520 10.00000000
v -148.65217590 139.02075195 10.00000000
v -148.37040710 139.65362549 10.00000000
v -148.37040710 140.34637451 10.00000000
v -148.65217590 140.97924805 10.00000000
v -149.16700745 141.44279480 10.00000000
v -149.82585144 141.65687561 10.00000000
v -150.51481628 141.58445740 10.00000000
v -151.11477661 141.23808289 10.00000000
v -71.52196503 140.67762756 10.00000000
v -71.66600037 140.00000000 10.00000000
v -71.52196503 139.32237244 10.00000000
v -71.11476898 138.76191711 10.00000000
v -70.51482391 138.41554260 10.00000000
v -69.82585907 138.34312439 10.00000000
v -69.16699982 138.55720520 10.00000000
v -68.65217590 139.02075195 10.00000000
v -68.37040710 139.65362549 10.00000000
v -68.37040710 140.34637451 10.00000000
v -68.65217590 140.97924805 10.00000000
v -69.16699982 141.44279480 10.00000000
v -69.82585907 141.65687561 10.00000000
v -70.51482391 141.58445740 10.00000000
v -71.11476898 141.23808289 10.00000000
v -20.00000000 135.00000000 10.00000000
v -20.00000000 145.00000000 10.00000000
v -200.00000000 145.00000000 10.00000000
v -200.00000000 135.00000000 10.00000000
v -200.00000000 145.00000000 160.00000000
v -200.00000000 135.00000000 160.00000000
v -200.00000000 145.00000000 10.00000000
v -200.00000000 135.00000000 10.00000000
v -21.13629723 145.00000000 56.03527451
v -21.00000000 145.00000000 55.00000000
v -21.13629723 145.00000000 53.96472549
v -21.53589821 145.00000000 53.00000000
v -21.53589821 145.00000000 57.00000000
v -22.17157364 145.00000000 57.82842636
v -23.00000000 145.00000000 58.46409988
v -23.96472359 145.00000000 58.86370468
v -25.00000000 145.00000000 59.00000000
v -26.03527641 145.00000000 58.86370468
v -27.00000000 145.00000000 58.46409988
v -27.82842636 145.00000000 57.82842636
v -28.46410179 145.00000000 57.00000000
v -28.86370277 145.00000000 56.03527451
v -29.00000000 145.00000000 55.00000000
v -28.86370277 145.00000000 53.96472549
v -28.46410179 145.00000000 53.00000000
v -27.82842636 145.00000000 52.17157364
v -27.00000000 145.00000000 51.53590012
v -26.03527641 145.00000000 51.13629532
v -25.00000000 145.00000000 51.00000000
v -23.96472359 145.00000000 51.13629532
v -23.00000000 145.00000000 51.53590012
v -22.17157364 145.00000000 52.17157364
v -191.13629150 145.00000000 56.03527451
v -191.00000000 145.00000000 55.00000000
v -191.13629150 145.00000000 53.96472549
v -191.53590393 145.00000000 53.00000000
v -191.53590393 145.00000000 57.00000000
v -192.17156982 145.00000000 57.82842636
v -193.00000000 145.00000000 58.46409988
v -193.96472168 145.00000000 58.86370468
v -195.00000000 145.00000000 59.00000000
v -196.03527832 145.00000000 58.86370468
v -197.00000000 145.00000000 58.46409988
v -197.82843018 145.00000000 57.82842636
v -198.46409607 145.00000000 57.00000000
v -198.86370850 145.00000000 56.03527451
v -199.00000000 145.00000000 55.00000000
v -198.86370850 145.00000000 53.96472549
v -198.46409607 145.00000000 53.00000000
v -197.82843018 145.00000000 52.17157364
v -197.00000000 145.00000000 51.53590012
v -196.03527832 145.00000000 51.13629532
v -195.00000000 145.00000000 51.00000000
v -193.96472168 145.00000000 51.13629532
v -193.00000000 145.00000000 51.53590012
v -192.17156982 145.00000000 52.17157364
v -191.13629150 145.00000000 136.03527832
v -191.00000000 145.00000000 135.00000000
v -191.13629150 145.00000000 133.96472168
v -191.53590393 145.00000000 133.00000000
v -191.53590393 145.00000000 137.00000000
v -192.17156982 145.00000000 137.82843018
v -193.00000000 145.00000000 138.46409607
v -193.96472168 145.00000000 138.86370850
v -195.00000000 145.00000000 139.00000000
v -196.03527832 145.00000000 138.86370850
v -197.00000000 145.00000000 138.46409607
v -197.82843018 145.00000000 137.82843018
v -198.46409607 145.00000000 137.00000000
v -198.86370850 145.00000000 136.03527832
v -199.00000000 145.00000000 135.00000000
v -198.86370850 145.00000000 133.96472168
v -198.46409607 145.00000000 133.00000000
v -197.82843018 145.00000000 132.17156982
v -197.00000000 145.00000000 131.53590393
v -196.03527832 145.00000000 131.13629150
v -195.00000000 145.00000000 131.00000000
v -193.96472168 145.00000000 131.13629150
v -193.00000000 145.00000000 131.53590393
v -192.17156982 145.00000000 132.17156982
v -21.13629723 145.00000000 136.03527832
v -21.00000000 145.00000000 135.00000000
v -21.13629723 145.00000000 133.96472168
v -21.53589821 145.00000000 133.00000000
v -21.53589821 145.00000000 137.00000000
v -22.17157364 145.00000000 137.82843018
v -23.00000000 145.00000000 138.46409607
v -23.96472359 145.00000000 138.86370850
v -25.00000000 145.00000000 139.00000000
v -26.03527641 145.00000000 138.86370850
v -27.00000000 145.00000000 138.46409607
v -27.82842636 145.00000000 137.82843018
v -28.46410179 145.00000000 137.00000000
v -28.86370277 145.00000000 136.03527832
v -29.00000000 145.00000000 135.00000000
v -28.86370277 145.00000000 133.96472168
v -28.46410179 145.00000000 133.00000000
v -27.82842636 145.00000000 132.17156982
v -27.00000000 145.00000000 131.53590393
v -26.03527641 145.00000000 131.13629150
v -25.00000000 145.00000000 131.00000000
v -23.96472359 145.00000000 131.13629150
v -23.00000000 145.00000000 131.53590393
v -22.17157364 145.00000000 132.17156982
v -21.13629723 145.00000000 96.03527832
v -21.00000000 145.00000000 95.00000000
v -21.13629723 145.00000000 93.96472168
v -21.53589821 145.00000000 93.00000000
v -21.53589821 145.00000000 97.00000000
v -22.17157364 145.00000000 97.82843018
v -23.00000000 145.00000000 98.46410370
v -23.96472359 145.00000000 98.86370087
v -25.00000000 145.00000000 99.00000000
v -26.03527641 145.00000000 98.86370087
v -27.00000000 145.00000000 98.46410370
v -27.82842636 145.00000000 97.82843018
v -28.46410179 145.00000000 97.00000000
v -28.86370277 145.00000000 96.03527832
v -29.00000000 145.00000000 95.00000000
v -28.86370277 145.00000000 93.96472168
v -28.46410179 145.00000000 93.00000000
v -27.82842636 145.00000000 92.17156982
v -27.00000000 145.00000000 91.53589630
v -26.03527641 145.00000000 91.13629913
v -25.00000000 145.00000000 91.00000000
v -23.96472359 145.00000000 91.13629913
v -23.00000000 145.00000000 91.53589630
v -22.17157364 145.00000000 92.17156982
v -191.13629150 145.00000000 96.03527832
v -191.00000000 145.00000000 95.00000000
v -191.13629150 145.00000000 93.96472168
v -191.53590393 145.00000000 93.00000000
v -191.53590393 145.00000000 97.00000000
v -192.17156982 145.00000000 97.82843018
v -193.00000000 145.00000000 98.46410370
v -193.96472168 145.00000000 98.86370087
v -195.00000000 145.00000000 99.00000000
v -196.03527832 145.00000000 98.86370087
v -197.00000000 145.00000000 98.46410370
v -197.82843018 145.00000000 97.82843018
v -198.46409607 145.00000000 97.00000000
v -198.86370850 145.00000000 96.03527832
v -199.00000000 145.00000000 95.00000000
v -198.86370850 145.00000000 93.96472168
v -198.46409607 145.00000000 93.00000000
v -197.82843018 145.00000000 92.17156982
v -197.00000000 145.00000000 91.53589630
v -196.03527832 145.00000000 91.13629913
v -195.00000000 145.00000000 91.00000000
v -193.96472168 145.00000000 91.13629913
v -193.00000000 145.00000000 91.53589630
v -192.17156982 145.00000000 92.17156982
v -20.00000000 145.00000000 10.00000000
v -20.00000000 145.00000000 160.00000000
v -200.00000000 145.00000000 160.00000000
v -200.00000000 145.00000000 10.00000000
v -192.63545227 135.00000000 134.18824768
v -192.50000000 135.00000000 135.00000000
v -192.63545227 135.00000000 135.81175232
v -193.02714539 135.00000000 136.53553772
v -193.63262939 135.00000000 137.09291077
v -194.38629150 135.00000000 137.42350769
v -195.20645142 135.00000000 137.49145508
v -196.00424194 135.00000000 137.28942871
v -196.69320679 135.00000000 136.83930969
v -197.19868469 135.00000000 136.18986511
v -197.46589661 135.00000000 135.41148376
v -197.46589661 135.00000000 134.58851624
v -197.19868469 135.00000000 133.81013489
v -196.69320679 135.00000000 133.16069031
v -196.00424194 135.00000000 132.71057129
v -195.20645142 135.00000000 132.50854492
v -194.38629150 135.00000000 132.57649231
v -193.63262939 135.00000000 132.90708923
v -193.02714539 135.00000000 133.46446228
v -22.63545609 135.00000000 134.18824768
v -22.50000000 135.00000000 135.00000000
v -22.63545609 135.00000000 135.81175232
v -23.02714920 135.00000000 136.53553772
v -23.63262939 135.00000000 137.09291077
v -24.38628578 135.00000000 137.42350769
v -25.20644760 135.00000000 137.49145508
v -26.00423813 135.00000000 137.28942871
v -26.69320488 135.00000000 136.83930969
v -27.19868469 135.00000000 136.18986511
v -27.46590233 135.00000000 135.41148376
v -27.46590233 135.00000000 134.58851624
v -27.19868469 135.00000000 133.81013489
v -26.69320488 135.00000000 133.16069031
v -26.00423813 135.00000000 132.71057129
v -25.20644760 135.00000000 132.50854492
v -24.38628578 135.00000000 132.57649231
v -23.63262939 135.00000000 132.90708923
v -23.02714920 135.00000000 133.46446228
v -192.63545227 135.00000000 94.18824768
v -192.50000000 135.00000000 95.00000000
v -192.63545227 135.00000000 95.81175232
v -193.02714539 135.00000000 96.53553009
v -193.63262939 135.00000000 97.09291840
v -194.38629150 135.00000000 97.42350006
v -195.20645142 135.00000000 97.49146271
v -196.00424194 135.00000000 97.28943634
v -196.69320679 135.00000000 96.83930969
v -197.19868469 135.00000000 96.18986511
v -197.46589661 135.00000000 95.41148376
v -197.46589661 135.00000000 94.58851624
v -197.19868469 135.00000000 93.81013489
v -196.69320679 135.00000000 93.16069031
v -196.00424194 135.00000000 92.71056366
v -195.20645142 135.00000000 92.50853729
v -194.38629150 135.00000000 92.57649994
v -193.63262939 135.00000000 92.90708160
v -193.02714539 135.00000000 93.46446991
v -22.63545609 135.00000000 54.18825150
v -22.50000000 135.00000000 55.00000000
v -22.63545609 135.00000000 55.81174850
v -23.02714920 135.00000000 56.53553009
v -23.63262939 135.00000000 57.09291458
v -24.38628578 135.00000000 57.42350006
v -25.20644760 135.00000000 57.49146271
v -26.00423813 135.00000000 57.28943253
v -26.69320488 135.00000000 56.83930969
v -27.19868469 135.00000000 56.18986893
v -27.46590233 135.00000000 55.41148758
v -27.46590233 135.00000000 54.58851242
v -27.19868469 135.00000000 53.81013107
v -26.69320488 135.00000000 53.16069031
v -26.00423813 135.00000000 52.71056747
v -25.20644760 135.00000000 52.50853729
v -24.38628578 135.00000000 52.57649994
v -23.63262939 135.00000000 52.90708542
v -23.02714920 135.00000000 53.46446991
v -22.63545609 135.00000000 94.18824768
v -22.50000000 135.00000000 95.00000000
v -22.63545609 135.00000000 95.81175232
v -23.02714920 135.00000000 96.53553009
v -23.63262939 135.00000000 97.09291840
v -24.38628578 135.00000000 97.42350006
v -25.20644760 135.00000000 97.49146271
v -26.00423813 135.00000000 97.28943634
v -26.69320488 135.00000000 96.83930969
v -27.19868469 135.00000000 96.18986511
v -27.46590233 135.00000000 95.41148376
v -27.46590233 135.00000000 94.58851624
v -27.19868469 135.00000000 93.81013489
v -26.69320488 135.00000000 93.16069031
v -26.00423813 135.00000000 92.71056366
v -25.20644760 135.00000000 92.50853729
v -24.38628578 135.00000000 92.57649994
v -23.63262939 135.00000000 92.90708160
v -23.02714920 135.00000000 93.46446991
v -192.63545227 135.00000000 54.18825150
v -192.50000000 135.00000000 55.00000000
v -192.63545227 135.00000000 55.81174850
v -193.02714539 135.00000000 56.53553009
v -193.63262939 135.00000000 57.09291458
v -194.38629150 135.00000000 57.42350006
v -195.20645142 135.00000000 57.49146271
v -196.00424194 135.00000000 57.28943253
v -196.69320679 135.00000000 56.83930969
v -197.19868469 135.00000000 56.18986893
v -197.46589661 135.00000000 55.41148758
v -197.46589661 135.00000000 54.58851242
v -197.19868469 135.00000000 53.81013107
v -196.69320679 135.00000000 53.16069031
v -196.00424194 135.00000000 52.71056747
v -195.20645142 135.00000000 52.50853729
v -194.38629150 135.00000000 52.57649994
v -193.63262939 135.00000000 52.90708542
v -193.02714539 135.00000000 53.46446991
v -20.00000000 135.00000000 10.00000000
v -20.00000000 135.00000000 160.00000000
v -200.00000000 135.00000000 160.00000000
v -200.00000000 135.00000000 10.00000000
f 1 2 3
f 3 2 4
f 5 6 7
f 7 6 8
f 9 10 11
f 11 10 12
f 13 14 15
f 15 14 16
f 17 18 19
f 19 18 20
f 21 22 23
f 23 22 24
f 25 26 27
f 27 26 28
f 29 30 31
f 31 30 32
f 33 34 35
f 35 34 36
f 37 38 39
f 39 38 40
f 41 42 43
f 43 42 44
f 45 46 47
f 47 46 48
f 49 50 51
f 51 50 52
f 53 54 55
f 55 54 56
f 59 60 57
f 57 60 58
f 62 61 63
f 63 61 64
f 64 61 75
f 64 75 65
f 65 75 74
f 65 74 66
f 66 74 73
f 66 73 67
f 67 73 72
f 67 72 68
f 68 72 71
f 68 71 69
f 69 71 70
f 76 77 78
f 78 77 79
f 80 81 82
f 82 81 83
f 84 85 86
f 86 85 87
f 88 89 90
f 90 89 91
f 92 93 94
f 94 93 95
f 96 97 98
f 98 97 99
f 100 101 102
f 102 101 103
f 104 105 106
f 106 105 107
f 108 109 110
f 110 109 111
f 112 113 114
f 114 113 115
f 116 117 118
f 118 117 119
f 120 121 122
f 122 121 123
f 124 125 126
f 126 125 127
f 128 129 130
f 130 129 131
f 134 135 132
f 132 135 133
f 137 136 138
f 138 136 139
f 139 136 150
f 139 150 140
f 140 150 149
f 140 149 141
f 141 149 148
f 141 148 142
f 142 148 147
f 142 147 143
f 143 147 146
f 143 146 144
f 144 146 145
f 151 152 153
f 153 152 154
f 153 154 155
f 155 154 156
f 155 156 157
f 151 158 152
f 152 158 159
f 159 158 160
f 159 160 161
f 161 160 162
f 161 162 163
f 163 162 164
f 163 164 165
f 165 164 166
f 165 166 167
f 167 166 168
f 167 168 169
f 169 168 170
f 169 170 171
f 171 170 172
f 171 172 173
f 173 172 174
f 173 174 175
f 175 174 176
f 175 176 177
f 177 176 178
f 177 178 179
f 179 178 180
f 179 180 181
f 181 180 182
f 181 182 183
f 183 182 184
f 183 184 185
f 185 184 186
f 185 186 187
f 187 186 188
f 187 188 189
f 189 188 190
f 189 190 191
f 191 190 192
f 191 192 193
f 193 192 194
f 193 194 195
f 195 194 196
f 195 196 197
f 197 196 198
f 197 198 157
f 157 198 155
f 223 199 224
f 224 199 200
f 224 200 201
f 199 223 202
f 202 223 225
f 202 225 203
f 203 225 226
f 203 226 204
f 204 226 227
f 204 227 205
f 205 227 206
f 206 227 228
f 206 228 207
f 207 228 229
f 207 229 208
f 208 229 230
f 208 230 209
f 209 230 231
f 209 231 210
f 210 231 211
f 211 231 232
f 211 232 212
f 212 232 233
f 212 233 213
f 213 233 234
f 213 234 214
f 214 234 215
f 215 234 235
f 215 235 216
f 216 235 236
f 216 236 217
f 217 236 237
f 217 237 218
f 218 237 238
f 218 238 219
f 219 238 220
f 220 238 239
f 220 239 221
f 221 239 240
f 221 240 222
f 222 240 241
f 222 241 201
f 201 241 224
f 242 243 244
f 244 243 245
f 244 245 246
f 246 245 247
f 246 247 248
f 242 249 243
f 243 249 250
f 250 249 251
f 250 251 252
f 252 251 253
f 252 253 254
f 254 253 255
f 254 255 256
f 256 255 257
f 256 257 258
f 258 257 259
f 258 259 260
f 260 259 261
f 260 261 262
f 262 261 263
f 262 263 264
f 264 263 265
f 264 265 266
f 266 265 267
f 266 267 268
f 268 267 269
f 268 269 270
f 270 269 271
f 270 271 272
f 272 271 273
f 272 273 274
f 274 273 275
f 274 275 276
f 276 275 277
f 276 277 278
f 278 277 279
f 278 279 280
f 280 279 281
f 280 281 282
f 282 281 283
f 282 283 284
f 284 283 285
f 284 285 286
f 286 285 287
f 286 287 288
f 288 287 289
f 288 289 248
f 248 289 246
f 314 290 315
f 315 290 291
f 315 291 292
f 290 314 293
f 293 314 316
f 293 316 294
f 294 316 317
f 294 317 295
f 295 317 318
f 295 318 296
f 296 318 297
f 297 318 319
f 297 319 298
f 298 319 320
f 298 320 299
f 299 320 321
f 299 321 300
f 300 321 322
f 300 322 301
f 301 322 302
f 302 322 323
f 302 323 303
f 303 323 324
f 303 324 304
f 304 324 325
f 304 325 305
f 305 325 306
f 306 325 326
f 306 326 307
f 307 326 327
f 307 327 308
f 308 327 328
f 308 328 309
f 309 328 329
f 309 329 310
f 310 329 311
f 311 329 330
f 311 330 312
f 312 330 331
f 312 331 313
f 313 331 332
f 313 332 292
f 292 332 315
f 333 334 335
f 335 334 336
f 335 336 337
f 337 336 338
f 337 338 339
f 333 340 334
f 334 340 341
f 341 340 342
f 341 342 343
f 343 342 344
f 343 344 345
f 345 344 346
f 345 346 347
f 347 346 348
f 347 348 349
f 349 348 350
f 349 350 351
f 351 350 352
f 351 352 353
f 353 352 354
f 353 354 355
f 355 354 356
f 355 356 357
f 357 356 358
f 357 358 359
f 359 358 360
f 359 360 361
f 361 360 362
f 361 362 363
f 363 362 364
f 363 364 365
f 365 364 366
f 365 366 367
f 367 366 368
f 367 368 369
f 369 368 370
f 369 370 371
f 371 370 372
f 371 372 373
f 373 372 374
f 373 374 375
f 375 374 376
f 375 376 377
f 377 376 378
f 377 378 379
f 379 378 380
f 379 380 339
f 339 380 337
f 405 381 406
f 406 381 382
f 406 382 383
f 381 405 384
f 384 405 407
f 384 407 385
f 385 407 408
f 385 408 386
f 386 408 409
f 386 409 387
f 387 409 388
f 388 409 410
f 388 410 389
f 389 410 411
f 389 411 390
f 390 411 412
f 390 412 391
f 391 412 413
f 391 413 392
f 392 413 393
f 393 413 414
f 393 414 394
f 394 414 415
f 394 415 395
f 395 415 416
f 395 416 396
f 396 416 397
f 397 416 417
f 397 417 398
f 398 417 418
f 398 418 399
f 399 418 419
f 399 419 400
f 400 419 420
f 400 420 401
f 401 420 402
f 402 420 421
f 402 421 403
f 403 421 422
f 403 422 404
f 404 422 423
f 404 423 383
f 383 423 406
f 424 425 426
f 426 425 427
f 426 427 428
f 428 427 429
f 428 429 430
f 424 431 425
f 425 431 432
f 432 431 433
f 432 433 434
f 434 433 435
f 434 435 436
f 436 435 437
f 436 437 438
f 438 437 439
f 438 439 440
f 440 439 441
f 440 441 442
f 442 441 443
f 442 443 444
f 444 443 445
f 444 445 446
f 446 445 447
f 446 447 448
f 448 447 449
f 448 449 450
f 450 449 451
f 450 451 452
f 452 451 453
f 452 453 454
f 454 453 455
f 454 455 456
f 456 455 457
f 456 457 458
f 458 457 459
f 458 459 460
f 460 459 461
f 460 461 462
f 462 461 463
f 462 463 464
f 464 463 465
f 464 465 466
f 466 465 467
f 466 467 468
f 468 467 469
f 468 469 470
f 470 469 471
f 470 471 430
f 430 471 428
f 496 472 497
f 497 472 473
f 497 473 474
f 472 496 475
f 475 496 498
f 475 498 476
f 476 498 499
f 476 499 477
f 477 499 500
f 477 500 478
f 478 500 479
f 479 500 501
f 479 501 480
f 480 501 502
f 480 502 481
f 481 502 503
f 481 503 482
f 482 503 504
f 482 504 483
f 483 504 484
f 484 504 505
f 484 505 485
f 485 505 506
f 485 506 486
f 486 506 507
f 486 507 487
f 487 507 488
f 488 507 508
f 488 508 489
f 489 508 509
f 489 509 490
f 490 509 510
f 490 510 491
f 491 510 511
f 491 511 492
f 492 511 493
f 493 511 512
f 493 512 494
f 494 512 513
f 494 513 495
f 495 513 514
f 495 514 474
f 474 514 497
f 515 516 517
f 517 516 518
f 517 518 519
f 519 518 520
f 519 520 521
f 515 522 516
f 516 522 523
f 523 522 524
f 523 524 525
f 525 524 526
f 525 526 527
f 527 526 528
f 527 528 529
f 529 528 530
f 529 530 531
f 531 530 532
f 531 532 533
f 533 532 534
f 533 534 535
f 535 534 536
f 535 536 537
f 537 536 538
f 537 538 539
f 539 538 540
f 539 540 541
f 541 540 542
f 541 542 543
f 543 542 544
f 543 544 545
f 545 544 546
f 545 546 547
f 547 546 548
f 547 548 549
f 549 548 550
f 549 550 551
f 551 550 552
f 551 552 553
f 553 552 554
f 553 554 555
f 555 554 556
f 555 556 557
f 557 556 558
f 557 558 559
f 559 558 560
f 559 560 561
f 561 560 562
f 561 562 521
f 521 562 519
f 587 563 588
f 588 563 564
f 588 564 565
f 563 587 566
f 566 587 589
f 566 589 567
f 567 589 590
f 567 590 568
f 568 590 591
f 568 591 569
f 569 591 570
f 570 591 592
f 570 592 571
f 571 592 593
f 571 593 572
f 572 593 594
f 572 594 573
f 573 594 595
f 573 595 574
f 574 595 575
f 575 595 596
f 575 596 576
f 576 596 597
f 576 597 577
f 577 597 598
f 577 598 578
f 578 598 579
f 579 598 599
f 579 599 580
f 580 599 600
f 580 600 581
f 581 600 601
f 581 601 582
f 582 601 602
f 582 602 583
f 583 602 584
f 584 602 603
f 584 603 585
f 585 603 604
f 585 604 586
f 586 604 605
f 586 605 565
f 565 605 588
f 606 607 608
f 608 607 609
f 608 609 610
f 610 609 611
f 610 611 612
f 606 613 607
f 607 613 614
f 614 613 615
f 614 615 616
f 616 615 617
f 616 617 618
f 618 617 619
f 618 619 620
f 620 619 621
f 620 621 622
f 622 621 623
f 622 623 624
f 624 623 625
f 624 625 626
f 626 625 627
f 626 627 628
f 628 627 629
f 628 629 630
f 630 629 631
f 630 631 632
f 632 631 633
f 632 633 634
f 634 633 635
f 634 635 636
f 636 635 637
f 636 637 638
f 638 637 639
f 638 639 640
f 640 639 641
f 640 641 642
f 642 641 643
f 642 643 644
f 644 643 645
f 644 645 646
f 646 645 647
f 646 647 648
f 648 647 649
f 648 649 650
f 650 649 651
f 650 651 652
f 652 651 653
f 652 653 612
f 612 653 610
f 678 654 679
f 679 654 655
f 679 655 656
f 654 678 657
f 657 678 680
f 657 680 658
f 658 680 681
f 658 681 659
f 659 681 682
f 659 682 660
f 660 682 661
f 661 682 683
f 661 683 662
f 662 683 684
f 662 684 663
f 663 684 685
f 663 685 664
f 664 685 686
f 664 686 665
f 665 686 666
f 666 686 687
f 666 687 667
f 667 687 688
f 667 688 668
f 668 688 689
f 668 689 669
f 669 689 670
f 670 689 690
f 670 690 671
f 671 690 691
f 671 691 672
f 672 691 692
f 672 692 673
f 673 692 693
f 673 693 674
f 674 693 675
f 675 693 694
f 675 694 676
f 676 694 695
f 676 695 677
f 677 695 696
f 677 696 656
f 656 696 679
f 715 716 698
f 698 716 717
f 698 717 697
f 697 717 718
f 697 718 699
f 699 718 719
f 699 719 700
f 700 719 720
f 700 720 701
f 701 720 721
f 701 721 702
f 702 721 722
f 702 722 703
f 703 722 723
f 703 723 704
f 704 723 724
f 704 724 705
f 705 724 725
f 705 725 706
f 706 725 726
f 706 726 707
f 707 726 727
f 707 727 708
f 708 727 728
f 708 728 709
f 709 728 729
f 709 729 710
f 710 729 730
f 710 730 711
f 711 730 731
f 711 731 712
f 712 731 732
f 712 732 713
f 713 732 733
f 713 733 714
f 714 733 734
f 714 734 715
f 715 734 716
f 753 754 736
f 736 754 755
f 736 755 735
f 735 755 756
f 735 756 737
f 737 756 757
f 737 757 738
f 738 757 758
f 738 758 739
f 739 758 759
f 739 759 740
f 740 759 760
f 740 760 741
f 741 760 761
f 741 761 742
f 742 761 762
f 742 762 743
f 743 762 763
f 743 763 744
f 744 763 764
f 744 764 745
f 745 764 765
f 745 765 746
f 746 765 766
f 746 766 747
f 747 766 767
f 747 767 748
f 748 767 768
f 748 768 749
f 749 768 769
f 749 769 750
f 750 769 770
f 750 770 751
f 751 770 771
f 751 771 752
f 752 771 772
f 752 772 753
f 753 772 754
f 791 792 774
f 774 792 793
f 774 793 773
f 773 793 794
f 773 794 775
f 775 794 795
f 775 795 776
f 776 795 796
f 776 796 777
f 777 796 797
f 777 797 778
f 778 797 798
f 778 798 779
f 779 798 799
f 779 799 780
f 780 799 800
f 780 800 781
f 781 800 801
f 781 801 782
f 782 801 802
f 782 802 783
f 783 802 803
f 783 803 784
f 784 803 804
f 784 804 785
f 785 804 805
f 785 805 786
f 786 805 806
f 786 806 787
f 787 806 807
f 787 807 788
f 788 807 808
f 788 808 789
f 789 808 809
f 789 809 790
f 790 809 810
f 790 810 791
f 791 810 792
f 829 830 812
f 812 830 831
f 812 831 811
f 811 831 832
f 811 832 813
f 813 832 833
f 813 833 814
f 814 833 834
f 814 834 815
f 815 834 835
f 815 835 816
f 816 835 836
f 816 836 817
f 817 836 837
f 817 837 818
f 818 837 838
f 818 838 819
f 819 838 839
f 819 839 820
f 820 839 840
f 820 840 821
f 821 840 841
f 821 841 822
f 822 841 842
f 822 842 823
f 823 842 843
f 823 843 824
f 824 843 844
f 824 844 825
f 825 844 845
f 825 845 826
f 826 845 846
f 826 846 827
f 827 846 847
f 827 847 828
f 828 847 848
f 828 848 829
f 829 848 830
f 867 868 850
f 850 868 869
f 850 869 849
f 849 869 870
f 849 870 851
f 851 870 871
f 851 871 852
f 852 871 872
f 852 872 853
f 853 872 873
f 853 873 854
f 854 873 874
f 854 874 855
f 855 874 875
f 855 875 856
f 856 875 876
f 856 876 857
f 857 876 877
f 857 877 858
f 858 877 878
f 858 878 859
f 859 878 879
f 859 879 860
f 860 879 880
f 860 880 861
f 861 880 881
f 861 881 862
f 862 881 882
f 862 882 863
f 863 882 883
f 863 883 864
f 864 883 884
f 864 884 865
f 865 884 885
f 865 885 866
f 866 885 886
f 866 886 867
f 867 886 868
f 905 906 888
f 888 906 907
f 888 907 887
f 887 907 908
f 887 908 889
f 889 908 909
f 889 909 890
f 890 909 910
f 890 910 891
f 891 910 911
f 891 911 892
f 892 911 912
f 892 912 893
f 893 912 913
f 893 913 894
f 894 913 914
f 894 914 895
f 895 914 915
f 895 915 896
f 896 915 916
f 896 916 897
f 897 916 917
f 897 917 898
f 898 917 918
f 898 918 899
f 899 918 919
f 899 919 900
f 900 919 920
f 900 920 901
f 901 920 921
f 901 921 902
f 902 921 922
f 902 922 903
f 903 922 923
f 903 923 904
f 904 923 924
f 904 924 905
f 905 924 906
f 925 926 927
f 927 926 928
f 931 932 930
f 930 932 929
f 935 966 934
f 934 966 965
f 934 965 933
f 933 965 947
f 947 965 946
f 946 965 945
f 945 965 964
f 945 964 960
f 960 964 959
f 959 964 958
f 958 964 957
f 957 964 963
f 957 963 956
f 956 963 955
f 955 963 954
f 954 963 953
f 953 963 938
f 953 938 952
f 952 938 939
f 952 939 951
f 951 939 940
f 951 940 950
f 950 940 941
f 950 941 949
f 949 941 942
f 949 942 948
f 948 942 943
f 948 943 962
f 962 943 944
f 962 944 961
f 961 944 945
f 961 945 960
f 935 936 966
f 966 936 937
f 966 937 938
f 963 966 938
f 968 967 970
f 970 967 969
f 971 1069 972
f 972 1069 1068
f 1086 979 980
f 1087 979 1086
f 1087 978 979
f 1088 978 1087
f 1088 977 978
f 1089 977 1088
f 1089 976 977
f 1090 976 1089
f 1090 975 976
f 1070 975 1090
f 1070 971 975
f 1069 971 1070
f 1116 1044 1043
f 1116 1068 1044
f 1112 1001 1002
f 1113 1001 1112
f 1113 1000 1001
f 1114 1000 1113
f 1114 999 1000
f 1094 999 1114
f 1094 995 999
f 1093 995 1094
f 1093 984 995
f 1082 984 1093
f 1082 983 984
f 1083 983 1082
f 1083 982 983
f 1084 982 1083
f 1084 981 982
f 1085 981 1084
f 1118 1009 1010
f 1105 1009 1118
f 1105 1008 1009
f 1106 1008 1105
f 1106 1007 1008
f 1107 1007 1106
f 1107 1006 1007
f 1108 1006 1107
f 1108 1005 1006
f 1109 1005 1108
f 1109 1004 1005
f 1110 1004 1109
f 1110 1003 1004
f 1111 1003 1110
f 1111 1002 1003
f 1112 1002 1111
f 1013 1118 1012
f 1014 1118 1013
f 1015 1118 1014
f 1016 1118 1015
f 1017 1118 1016
f 1018 1118 1017
f 998 1118 1018
f 987 1118 998
f 987 1115 1118
f 988 1115 987
f 997 986 987
f 997 985 986
f 996 985 997
f 995 985 996
f 984 985 995
f 1118 1010 1011
f 1055 1019 1023
f 1056 1019 1055
f 1057 1019 1056
f 1057 1020 1019
f 1021 1020 1057
f 998 997 987
f 1115 973 972
f 1115 974 973
f 994 974 1115
f 1115 993 994
f 1115 992 993
f 991 992 1115
f 1115 990 991
f 1115 989 990
f 988 989 1115
f 1012 1118 1011
f 1103 1034 1035
f 1104 1034 1103
f 1104 1033 1034
f 1105 1033 1104
f 1117 1033 1105
f 1117 1032 1033
f 1031 1032 1117
f 1117 1030 1031
f 1117 1029 1030
f 1028 1029 1117
f 1117 1027 1028
f 1117 1026 1027
f 1025 1026 1117
f 1117 1024 1025
f 1117 1023 1024
f 1055 1023 1117
f 1095 1042 1022
f 1096 1042 1095
f 1096 1041 1042
f 1097 1041 1096
f 1097 1040 1041
f 1098 1040 1097
f 1098 1039 1040
f 1099 1039 1098
f 1099 1038 1039
f 1100 1038 1099
f 1100 1037 1038
f 1101 1037 1100
f 1101 1036 1037
f 1102 1036 1101
f 1102 1035 1036
f 1103 1035 1102
f 1074 1063 1064
f 1075 1063 1074
f 1075 1062 1063
f 1076 1062 1075
f 1076 1061 1062
f 1077 1061 1076
f 1077 1060 1061
f 1078 1060 1077
f 1078 1059 1060
f 1079 1059 1078
f 1079 1058 1059
f 1080 1058 1079
f 1080 1021 1058
f 1091 1021 1080
f 1091 1022 1021
f 1095 1022 1091
f 1116 1050 1051
f 1049 1050 1116
f 1116 1048 1049
f 1116 1047 1048
f 1043 1047 1116
f 1058 1021 1057
f 1068 1045 1044
f 1067 1045 1068
f 1067 1046 1045
f 1071 1046 1067
f 1071 1066 1046
f 1072 1066 1071
f 1072 1065 1066
f 1073 1065 1072
f 1073 1064 1065
f 1074 1064 1073
f 1117 1116 1055
f 1118 1117 1105
f 1093 1081 1082
f 1092 1081 1093
f 1091 1081 1092
f 1080 1081 1091
f 1116 1054 1055
f 1116 1053 1054
f 1052 1053 1116
f 1116 1051 1052
f 1085 980 981
f 1086 980 1085
f 1115 1068 1116
f 972 1068 1115
f 1215 1187 1186
f 1215 1186 1216
f 1236 1228 1227
f 1227 1226 1236
f 1214 1187 1215
f 1214 1188 1187
f 1232 1188 1214
f 1236 1231 1230
f 1233 1191 1190
f 1233 1190 1189
f 1236 1226 1225
f 1236 1225 1224
f 1235 1168 1167
f 1236 1168 1235
f 1224 1168 1236
f 1224 1169 1168
f 1192 1191 1233
f 1233 1193 1192
f 1233 1194 1193
f 1176 1194 1233
f 1223 1169 1224
f 1223 1170 1169
f 1222 1170 1223
f 1222 1171 1170
f 1120 1149 1148
f 1119 1149 1120
f 1230 1229 1236
f 1236 1229 1228
f 1152 1203 1202
f 1151 1203 1152
f 1233 1196 1177
f 1233 1177 1176
f 1120 1148 1121
f 1121 1148 1147
f 1121 1147 1235
f 1235 1147 1234
f 1234 1147 1146
f 1234 1146 1145
f 1137 1160 1119
f 1119 1160 1159
f 1119 1159 1149
f 1149 1159 1205
f 1149 1205 1150
f 1150 1205 1204
f 1150 1204 1151
f 1151 1204 1203
f 1167 1130 1235
f 1235 1130 1129
f 1152 1202 1153
f 1153 1202 1201
f 1153 1201 1154
f 1154 1201 1200
f 1154 1200 1155
f 1155 1200 1199
f 1155 1199 1156
f 1156 1199 1198
f 1156 1198 1138
f 1138 1198 1197
f 1138 1197 1139
f 1139 1197 1196
f 1139 1196 1234
f 1234 1196 1233
f 1157 1206 1158
f 1158 1206 1205
f 1160 1137 1161
f 1161 1137 1136
f 1161 1136 1162
f 1162 1136 1135
f 1162 1135 1163
f 1163 1135 1134
f 1163 1134 1164
f 1164 1134 1133
f 1164 1133 1165
f 1165 1133 1132
f 1165 1132 1166
f 1166 1132 1131
f 1166 1131 1167
f 1167 1131 1130
f 1211 1182 1181
f 1211 1181 1212
f 1235 1129 1128
f 1128 1127 1235
f 1235 1127 1126
f 1235 1126 1125
f 1125 1124 1235
f 1235 1124 1123
f 1235 1123 1122
f 1122 1121 1235
f 1145 1144 1234
f 1234 1144 1143
f 1233 1232 1236
f 1236 1232 1231
f 1142 1141 1234
f 1234 1143 1142
f 1234 1141 1140
f 1234 1140 1139
f 1158 1205 1159
f 1175 1217 1157
f 1221 1172 1171
f 1221 1171 1222
f 1206 1216 1186
f 1206 1186 1207
f 1207 1186 1185
f 1207 1185 1208
f 1208 1185 1184
f 1208 1184 1209
f 1157 1217 1216
f 1157 1216 1206
f 1210 1183 1182
f 1210 1182 1211
f 1189 1188 1233
f 1233 1188 1232
f 1212 1181 1180
f 1212 1180 1213
f 1213 1180 1179
f 1213 1179 1195
f 1195 1179 1178
f 1195 1178 1196
f 1196 1178 1177
f 1217 1175 1218
f 1218 1175 1174
f 1218 1174 1219
f 1209 1184 1183
f 1209 1183 1210
f 1219 1173 1220
f 1219 1174 1173
f 1220 1172 1221
f 1220 1173 1172

