# https://github.com/mikedh/trimesh
v -137.24287415 77.54348755 88.69999695
v -137.24287415 77.54348755 87.50000000
v -136.71983337 77.43671417 88.69999695
v -136.71983337 77.43671417 87.50000000
v -136.21081543 77.27586365 88.69999695
v -136.21081543 77.27586365 87.50000000
v -135.72140503 77.06267548 88.69999695
v -135.72140503 77.06267548 87.50000000
v -135.25695801 76.79950714 88.69999695
v -135.25695801 76.79950714 87.50000000
v -134.82257080 76.48922729 88.69999695
v -134.82257080 76.48922729 87.50000000
v -134.42298889 76.13523865 88.69999695
v -134.42298889 76.13523865 87.50000000
v -134.06259155 75.74142456 88.69999695
v -134.06259155 75.74142456 87.50000000
v -133.74534607 75.31210327 88.69999695
v -133.74534607 75.31210327 87.50000000
v -133.47470093 74.85195923 88.69999695
v -133.47470093 74.85195923 87.50000000
v -133.25364685 74.36605835 88.69999695
v -133.25364685 74.36605835 87.50000000
v -133.08459473 73.85970306 88.69999695
v -133.08459473 73.85970306 87.50000000
v -132.96939087 73.33845520 88.69999695
v -132.96939087 73.33845520 87.50000000
v -132.90931702 72.80802155 88.69999695
v -132.90931702 72.80802155 87.50000000
v -132.90499878 72.27421570 88.69999695
v -132.90499878 72.27421570 87.50000000
v -132.95651245 71.74287415 88.69999695
v -132.95651245 71.74287415 87.50000000
v -133.06327820 71.21983337 88.69999695
v -133.06327820 71.21983337 87.50000000
v -133.22413635 70.71082306 88.69999695
v -133.22413635 70.71082306 87.50000000
v -133.43731689 70.22141266 88.69999695
v -133.43731689 70.22141266 87.50000000
v -133.70050049 69.75696564 88.69999695
v -133.70050049 69.75696564 87.50000000
v -134.01077271 69.32257080 88.69999695
v -134.01077271 69.32257080 87.50000000
v -134.36476135 68.92298889 88.69999695
v -134.36476135 68.92298889 87.50000000
v -134.75857544 68.56259918 88.69999695
v -134.75857544 68.56259918 87.50000000
v -135.18789673 68.24534607 88.69999695
v -135.18789673 68.24534607 87.50000000
v -135.64804077 67.97470856 88.69999695
v -135.64804077 67.97470856 87.50000000
v -136.13394165 67.75364685 88.69999695
v -136.13394165 67.75364685 87.50000000
v -136.64028931 67.58459473 88.69999695
v -136.64028931 67.58459473 87.50000000
v -137.16154480 67.46939087 88.69999695
v -137.16154480 67.46939087 87.50000000
v -137.69197083 67.40930939 88.69999695
v -137.69197083 67.40930939 87.50000000
v -138.22578430 67.40499878 88.69999695
v -138.22578430 67.40499878 87.50000000
v -138.75712585 67.45651245 88.69999695
v -138.75712585 67.45651245 87.50000000
v -139.28016663 67.56328583 88.69999695
v -139.28016663 67.56328583 87.50000000
v -139.78918457 67.72413635 88.69999695
v -139.78918457 67.72413635 87.50000000
v -140.27859497 67.93732452 88.69999695
v -140.27859497 67.93732452 87.50000000
v -140.74304199 68.20049286 88.69999695
v -140.74304199 68.20049286 87.50000000
v -141.17742920 68.51077271 88.69999695
v -141.17742920 68.51077271 87.50000000
v -141.57701111 68.86476135 88.69999695
v -141.57701111 68.86476135 87.50000000
v -141.93740845 69.25857544 88.69999695
v -141.93740845 69.25857544 87.50000000
v -142.25465393 69.68789673 88.69999695
v -142.25465393 69.68789673 87.50000000
v -142.52529907 70.14804077 88.69999695
v -142.52529907 70.14804077 87.50000000
v -142.74635315 70.63394165 88.69999695
v -142.74635315 70.63394165 87.50000000
v -142.91540527 71.14029694 88.69999695
v -142.91540527 71.14029694 87.50000000
v -143.03060913 71.66154480 88.69999695
v -143.03060913 71.66154480 87.50000000
v -143.09068298 72.19197845 88.69999695
v -143.09068298 72.19197845 87.50000000
v -143.09500122 72.72578430 88.69999695
v -143.09500122 72.72578430 87.50000000
v -143.04348755 73.25712585 88.69999695
v -143.04348755 73.25712585 87.50000000
v -142.93672180 73.78016663 88.69999695
v -142.93672180 73.78016663 87.50000000
v -142.77586365 74.28917694 88.69999695
v -142.77586365 74.28917694 87.50000000
v -142.56268311 74.77858734 88.69999695
v -142.56268311 74.77858734 87.50000000
v -142.29949951 75.24303436 88.69999695
v -142.29949951 75.24303436 87.50000000
v -141.98922729 75.67742920 88.69999695
v -141.98922729 75.67742920 87.50000000
v -141.63523865 76.07701111 88.69999695
v -141.63523865 76.07701111 87.50000000
v -141.24142456 76.43740082 88.69999695
v -141.24142456 76.43740082 87.50000000
v -140.81210327 76.75465393 88.69999695
v -140.81210327 76.75465393 87.50000000
v -140.35195923 77.02529144 88.69999695
v -140.35195923 77.02529144 87.50000000
v -139.86605835 77.24635315 88.69999695
v -139.86605835 77.24635315 87.50000000
v -139.35971069 77.41540527 88.69999695
v -139.35971069 77.41540527 87.50000000
v -138.83845520 77.53060913 88.69999695
v -138.83845520 77.53060913 87.50000000
v -138.30802917 77.59069061 88.69999695
v -138.30802917 77.59069061 87.50000000
v -137.77421570 77.59500122 88.69999695
v -137.77421570 77.59500122 87.50000000
v -133.06475830 87.71983337 88.69999695
v -133.98379517 87.98773956 87.50000000
v -133.98379517 87.98773956 88.69999695
v -134.91722107 88.20020294 87.50000000
v -134.91722107 88.20020294 88.69999695
v -135.86167908 88.35646820 87.50000000
v -135.86167908 88.35646820 88.69999695
v -136.81378174 88.45597076 87.50000000
v -136.81378174 88.45597076 88.69999695
v -137.77014160 88.49835205 87.50000000
v -137.77014160 88.49835205 88.69999695
v -138.72732544 88.48345947 87.50000000
v -138.72732544 88.48345947 88.69999695
v -139.68190002 88.41135406 87.50000000
v -139.68190002 88.41135406 88.69999695
v -140.63044739 88.28229523 87.50000000
v -140.63044739 88.28229523 88.69999695
v -141.56959534 88.09673309 87.50000000
v -141.56959534 88.09673309 88.69999695
v -142.49595642 87.85533905 87.50000000
v -142.49595642 87.85533905 88.69999695
v -143.40621948 87.55897522 87.50000000
v -143.40621948 87.55897522 88.69999695
v -144.29713440 87.20870972 87.50000000
v -144.29713440 87.20870972 88.69999695
v -145.16549683 86.80578613 87.50000000
v -145.16549683 86.80578613 88.69999695
v -146.00822449 86.35165405 87.50000000
v -146.00822449 86.35165405 88.69999695
v -146.82228088 85.84793854 87.50000000
v -146.82228088 85.84793854 88.69999695
v -147.60475159 85.29644012 87.50000000
v -147.60475159 85.29644012 88.69999695
v -148.35282898 84.69913483 87.50000000
v -148.35282898 84.69913483 88.69999695
v -149.06385803 84.05815125 87.50000000
v -149.06385803 84.05815125 88.69999695
v -149.73529053 83.37580109 87.50000000
v -149.73529053 83.37580109 88.69999695
v -150.36470032 82.65451813 87.50000000
v -150.36470032 82.65451813 88.69999695
v -150.94984436 81.89688110 87.50000000
v -150.94984436 81.89688110 88.69999695
v -151.48864746 81.10560608 87.50000000
v -151.48864746 81.10560608 88.69999695
v -151.97915649 80.28353119 87.50000000
v -151.97915649 80.28353119 88.69999695
v -152.41961670 79.43358612 87.50000000
v -152.41961670 79.43358612 88.69999695
v -152.80847168 78.55882263 87.50000000
v -152.80847168 78.55882263 88.69999695
v -153.14430237 77.66236877 87.50000000
v -153.14430237 77.66236877 88.69999695
v -153.42593384 76.74743652 87.50000000
v -153.42593384 76.74743652 88.69999695
v -153.65232849 75.81729889 87.50000000
v -153.65232849 75.81729889 88.69999695
v -153.82270813 74.87528992 87.50000000
v -153.82270813 74.87528992 88.69999695
v -153.93643188 73.92477417 87.50000000
v -153.93643188 73.92477417 88.69999695
v -153.99311829 72.96915436 87.50000000
v -153.99311829 72.96915436 88.69999695
v -153.99255371 72.01186371 87.50000000
v -153.99255371 72.01186371 88.69999695
v -153.93473816 71.05631256 87.50000000
v -153.93473816 71.05631256 88.69999695
v -153.81987000 70.10593414 87.50000000
v -153.81987000 70.10593414 88.69999695
v -153.64839172 69.16412354 87.50000000
v -153.64839172 69.16412354 88.69999695
v -153.42088318 68.23426056 87.50000000
v -153.42088318 68.23426056 88.69999695
v -153.13816833 67.31966400 87.50000000
v -153.13816833 67.31966400 88.69999695
v -152.80126953 66.42360687 87.50000000
v -152.80126953 66.42360687 88.69999695
v -152.41137695 65.54930878 87.50000000
v -152.41137695 65.54930878 88.69999695
v -151.96990967 64.69989014 87.50000000
v -151.96990967 64.69989014 88.69999695
v -151.47842407 63.87839127 87.50000000
v -151.47842407 63.87839127 88.69999695
v -150.93869019 63.08775711 87.50000000
v -150.93869019 63.08775711 88.69999695
v -150.35264587 62.33081818 87.50000000
v -150.35264587 62.33081818 88.69999695
v -149.72236633 61.61027908 87.50000000
v -149.72236633 61.61027908 88.69999695
v -149.05014038 60.92872238 87.50000000
v -149.05014038 60.92872238 88.69999695
v -148.33834839 60.28858948 87.50000000
v -148.33834839 60.28858948 88.69999695
v -147.58955383 59.69216919 87.50000000
v -147.58955383 59.69216919 88.69999695
v -146.80642700 59.14160156 87.50000000
v -146.80642700 59.14160156 88.69999695
v -145.99177551 58.63884735 87.50000000
v -145.99177551 58.63884735 88.69999695
v -145.14851379 58.18571854 87.50000000
v -145.14851379 58.18571854 88.69999695
v -144.27966309 57.78382874 87.50000000
v -144.27966309 57.78382874 88.69999695
v -143.38833618 57.43461609 87.50000000
v -143.38833618 57.43461609 88.69999695
v -142.47772217 57.13933563 87.50000000
v -142.47772217 57.13933563 88.69999695
v -141.55107117 56.89904404 87.50000000
v -141.55107117 56.89904404 88.69999695
v -140.61172485 56.71459961 87.50000000
v -140.61172485 56.71459961 88.69999695
v -139.66300964 56.58665848 87.50000000
v -139.66300964 56.58665848 88.69999695
v -138.70835876 56.51568604 87.50000000
v -138.70835876 56.51568604 88.69999695
v -137.75115967 56.50193405 87.50000000
v -137.75115967 56.50193405 88.69999695
v -136.79484558 56.54545212 87.50000000
v -136.79484558 56.54545212 88.69999695
v -135.84286499 56.64608002 87.50000000
v -135.84286499 56.64608002 88.69999695
v -134.89859009 56.80346298 87.50000000
v -134.89859009 56.80346298 88.69999695
v -133.96542358 57.01703644 87.50000000
v -133.96542358 57.01703644 88.69999695
v -133.04670715 57.28603363 87.50000000
v -133.04670715 57.28603363 88.69999695
v -132.14570618 57.60948944 87.50000000
v -132.14570618 57.60948944 88.69999695
v -131.26567078 57.98625565 87.50000000
v -131.26567078 57.98625565 88.69999695
v -130.40974426 58.41497421 87.50000000
v -130.40974426 58.41497421 88.69999695
v -129.58097839 58.89411163 87.50000000
v -129.58097839 58.89411163 88.69999695
v -128.78236389 59.42195511 87.50000000
v -128.78236389 59.42195511 88.69999695
v -128.01673889 59.99661636 87.50000000
v -128.01673889 59.99661636 88.69999695
v -127.28685760 60.61603928 87.50000000
v -127.28685760 60.61603928 88.69999695
v -126.59532166 61.27799988 87.50000000
v -126.59532166 61.27799988 88.69999695
v -125.94461060 61.98013306 87.50000000
v -125.94461060 61.98013306 88.69999695
v -125.33705902 62.71992493 87.50000000
v -125.33705902 62.71992493 88.69999695
v -124.77483368 63.49472427 87.50000000
v -124.77483368 63.49472427 88.69999695
v -124.25994873 64.30176544 87.50000000
v -124.25994873 64.30176544 88.69999695
v -123.79425812 65.13814545 87.50000000
v -123.79425812 65.13814545 88.69999695
v -123.37941742 66.00088501 87.50000000
v -123.37941742 66.00088501 88.69999695
v -123.01690674 66.88689423 87.50000000
v -123.01690674 66.88689423 88.69999695
v -122.70803833 67.79299164 87.50000000
v -122.70803833 67.79299164 88.69999695
v -122.45391083 68.71593475 87.50000000
v -122.45391083 68.71593475 88.69999695
v -122.25543213 69.65242767 87.50000000
v -122.25543213 69.65242767 88.69999695
v -122.11331940 70.59912109 87.50000000
v -122.11331940 70.59912109 88.69999695
v -122.02807617 71.55261230 87.50000000
v -122.02807617 71.55261230 88.69999695
v -122.00000000 72.50949097 87.50000000
v -122.00000000 72.50949097 88.69999695
v -122.02920532 73.46634674 87.50000000
v -122.02920532 73.46634674 88.69999695
v -122.11558533 74.41973114 87.50000000
v -122.11558533 74.41973114 88.69999695
v -122.25882721 75.36624908 87.50000000
v -122.25882721 75.36624908 88.69999695
v -122.45841217 76.30250549 87.50000000
v -122.45841217 76.30250549 88.69999695
v -122.71363831 77.22515106 87.50000000
v -122.71363831 77.22515106 88.69999695
v -123.02358246 78.13088226 87.50000000
v -123.02358246 78.13088226 88.69999695
v -123.38713837 79.01645660 87.50000000
v -123.38713837 79.01645660 88.69999695
v -123.80300140 79.87870789 87.50000000
v -123.80300140 79.87870789 88.69999695
v -124.26969147 80.71453857 87.50000000
v -124.26969147 80.71453857 88.69999695
v -124.78553009 81.52096558 87.50000000
v -124.78553009 81.52096558 88.69999695
v -125.34867096 82.29509735 87.50000000
v -125.34867096 82.29509735 88.69999695
v -125.95710754 83.03416443 87.50000000
v -125.95710754 83.03416443 88.69999695
v -126.60865021 83.73552704 87.50000000
v -126.60865021 83.73552704 88.69999695
v -127.30096436 84.39666748 87.50000000
v -127.30096436 84.39666748 88.69999695
v -128.03158569 85.01522064 87.50000000
v -128.03158569 85.01522064 88.69999695
v -128.79789734 85.58897400 87.50000000
v -128.79789734 85.58897400 88.69999695
v -129.59713745 86.11586761 87.50000000
v -129.59713745 86.11586761 88.69999695
v -130.42646790 86.59402466 87.50000000
v -130.42646790 86.59402466 88.69999695
v -131.28289795 87.02172852 87.50000000
v -131.28289795 87.02172852 88.69999695
v -132.16337585 87.39744568 87.50000000
v -132.16337585 87.39744568 88.69999695
v -133.06475830 87.71983337 87.50000000
v -137.24287415 77.54348755 88.69999695
v -136.71983337 77.43671417 88.69999695
v -136.21081543 77.27586365 88.69999695
v -135.72140503 77.06267548 88.69999695
v -135.25695801 76.79950714 88.69999695
v -134.82257080 76.48922729 88.69999695
v -134.42298889 76.13523865 88.69999695
v -134.06259155 75.74142456 88.69999695
v -133.74534607 75.31210327 88.69999695
v -133.47470093 74.85195923 88.69999695
v -133.25364685 74.36605835 88.69999695
v -133.08459473 73.85970306 88.69999695
v -132.96939087 73.33845520 88.69999695
v -132.90931702 72.80802155 88.69999695
v -132.90499878 72.27421570 88.69999695
v -132.95651245 71.74287415 88.69999695
v -133.06327820 71.21983337 88.69999695
v -133.22413635 70.71082306 88.69999695
v -133.43731689 70.22141266 88.69999695
v -133.70050049 69.75696564 88.69999695
v -134.01077271 69.32257080 88.69999695
v -134.36476135 68.92298889 88.69999695
v -134.75857544 68.56259918 88.69999695
v -135.18789673 68.24534607 88.69999695
v -135.64804077 67.97470856 88.69999695
v -136.13394165 67.75364685 88.69999695
v -136.64028931 67.58459473 88.69999695
v -137.16154480 67.46939087 88.69999695
v -137.69197083 67.40930939 88.69999695
v -138.22578430 67.40499878 88.69999695
v -138.75712585 67.45651245 88.69999695
v -139.28016663 67.56328583 88.69999695
v -139.78918457 67.72413635 88.69999695
v -140.27859497 67.93732452 88.69999695
v -140.74304199 68.20049286 88.69999695
v -141.17742920 68.51077271 88.69999695
v -141.57701111 68.86476135 88.69999695
v -141.93740845 69.25857544 88.69999695
v -142.25465393 69.68789673 88.69999695
v -142.52529907 70.14804077 88.69999695
v -142.74635315 70.63394165 88.69999695
v -142.91540527 71.14029694 88.69999695
v -143.03060913 71.66154480 88.69999695
v -143.09068298 72.19197845 88.69999695
v -143.09500122 72.72578430 88.69999695
v -143.04348755 73.25712585 88.69999695
v -142.93672180 73.78016663 88.69999695
v -142.77586365 74.28917694 88.69999695
v -142.56268311 74.77858734 88.69999695
v -142.29949951 75.24303436 88.69999695
v -141.98922729 75.67742920 88.69999695
v -141.63523865 76.07701111 88.69999695
v -141.24142456 76.43740082 88.69999695
v -140.81210327 76.75465393 88.69999695
v -140.35195923 77.02529144 88.69999695
v -139.86605835 77.24635315 88.69999695
v -139.35971069 77.41540527 88.69999695
v -138.83845520 77.53060913 88.69999695
v -138.30802917 77.59069061 88.69999695
v -137.77421570 77.59500122 88.69999695
v -133.06475830 87.71983337 88.69999695
v -133.98379517 87.98773956 88.69999695
v -134.91722107 88.20020294 88.69999695
v -135.86167908 88.35646820 88.69999695
v -136.81378174 88.45597076 88.69999695
v -137.77014160 88.49835205 88.69999695
v -138.72732544 88.48345947 88.69999695
v -139.68190002 88.41135406 88.69999695
v -140.63044739 88.28229523 88.69999695
v -141.56959534 88.09673309 88.69999695
v -142.49595642 87.85533905 88.69999695
v -143.40621948 87.55897522 88.69999695
v -144.29713440 87.20870972 88.69999695
v -145.16549683 86.80578613 88.69999695
v -146.00822449 86.35165405 88.69999695
v -146.82228088 85.84793854 88.69999695
v -147.60475159 85.29644012 88.69999695
v -148.35282898 84.69913483 88.69999695
v -149.06385803 84.05815125 88.69999695
v -149.73529053 83.37580109 88.69999695
v -150.36470032 82.65451813 88.69999695
v -150.94984436 81.89688110 88.69999695
v -151.48864746 81.10560608 88.69999695
v -151.97915649 80.28353119 88.69999695
v -152.41961670 79.43358612 88.69999695
v -152.80847168 78.55882263 88.69999695
v -153.14430237 77.66236877 88.69999695
v -153.42593384 76.74743652 88.69999695
v -153.65232849 75.81729889 88.69999695
v -153.82270813 74.87528992 88.69999695
v -153.93643188 73.92477417 88.69999695
v -153.99311829 72.96915436 88.69999695
v -153.99255371 72.01186371 88.69999695
v -153.93473816 71.05631256 88.69999695
v -153.81987000 70.10593414 88.69999695
v -153.64839172 69.16412354 88.69999695
v -153.42088318 68.23426056 88.69999695
v -153.13816833 67.31966400 88.69999695
v -152.80126953 66.42360687 88.69999695
v -152.41137695 65.54930878 88.69999695
v -151.96990967 64.69989014 88.69999695
v -151.47842407 63.87839127 88.69999695
v -150.93869019 63.08775711 88.69999695
v -150.35264587 62.33081818 88.69999695
v -149.72236633 61.61027908 88.69999695
v -149.05014038 60.92872238 88.69999695
v -148.33834839 60.28858948 88.69999695
v -147.58955383 59.69216919 88.69999695
v -146.80642700 59.14160156 88.69999695
v -145.99177551 58.63884735 88.69999695
v -145.14851379 58.18571854 88.69999695
v -144.27966309 57.78382874 88.69999695
v -143.38833618 57.43461609 88.69999695
v -142.47772217 57.13933563 88.69999695
v -141.55107117 56.89904404 88.69999695
v -140.61172485 56.71459961 88.69999695
v -139.66300964 56.58665848 88.69999695
v -138.70835876 56.51568604 88.69999695
v -137.75115967 56.50193405 88.69999695
v -136.79484558 56.54545212 88.69999695
v -135.84286499 56.64608002 88.69999695
v -134.89859009 56.80346298 88.69999695
v -133.96542358 57.01703644 88.69999695
v -133.04670715 57.28603363 88.69999695
v -132.14570618 57.60948944 88.69999695
v -131.26567078 57.98625565 88.69999695
v -130.40974426 58.41497421 88.69999695
v -129.58097839 58.89411163 88.69999695
v -128.78236389 59.42195511 88.69999695
v -128.01673889 59.99661636 88.69999695
v -127.28685760 60.61603928 88.69999695
v -126.59532166 61.27799988 88.69999695
v -125.94461060 61.98013306 88.69999695
v -125.33705902 62.71992493 88.69999695
v -124.77483368 63.49472427 88.69999695
v -124.25994873 64.30176544 88.69999695
v -123.79425812 65.13814545 88.69999695
v -123.37941742 66.00088501 88.69999695
v -123.01690674 66.88689423 88.69999695
v -122.70803833 67.79299164 88.69999695
v -122.45391083 68.71593475 88.69999695
v -122.25543213 69.65242767 88.69999695
v -122.11331940 70.59912109 88.69999695
v -122.02807617 71.55261230 88.69999695
v -122.00000000 72.50949097 88.69999695
v -122.02920532 73.46634674 88.69999695
v -122.11558533 74.41973114 88.69999695
v -122.25882721 75.36624908 88.69999695
v -122.45841217 76.30250549 88.69999695
v -122.71363831 77.22515106 88.69999695
v -123.02358246 78.13088226 88.69999695
v -123.38713837 79.01645660 88.69999695
v -123.80300140 79.87870789 88.69999695
v -124.26969147 80.71453857 88.69999695
v -124.78553009 81.52096558 88.69999695
v -125.34867096 82.29509735 88.69999695
v -125.95710754 83.03416443 88.69999695
v -126.60865021 83.73552704 88.69999695
v -127.30096436 84.39666748 88.69999695
v -128.03158569 85.01522064 88.69999695
v -128.79789734 85.58897400 88.69999695
v -129.59713745 86.11586761 88.69999695
v -130.42646790 86.59402466 88.69999695
v -131.28289795 87.02172852 88.69999695
v -132.16337585 87.39744568 88.69999695
v -137.24287415 77.54348755 87.50000000
v -136.71983337 77.43671417 87.50000000
v -136.21081543 77.27586365 87.50000000
v -135.72140503 77.06267548 87.50000000
v -135.25695801 76.79950714 87.50000000
v -134.82257080 76.48922729 87.50000000
v -134.42298889 76.13523865 87.50000000
v -134.06259155 75.74142456 87.50000000
v -133.74534607 75.31210327 87.50000000
v -133.47470093 74.85195923 87.50000000
v -133.25364685 74.36605835 87.50000000
v -133.08459473 73.85970306 87.50000000
v -132.96939087 73.33845520 87.50000000
v -132.90931702 72.80802155 87.50000000
v -132.90499878 72.27421570 87.50000000
v -132.95651245 71.74287415 87.50000000
v -133.06327820 71.21983337 87.50000000
v -133.22413635 70.71082306 87.50000000
v -133.43731689 70.22141266 87.50000000
v -133.70050049 69.75696564 87.50000000
v -134.01077271 69.32257080 87.50000000
v -134.36476135 68.92298889 87.50000000
v -134.75857544 68.56259918 87.50000000
v -135.18789673 68.24534607 87.50000000
v -135.64804077 67.97470856 87.50000000
v -136.13394165 67.75364685 87.50000000
v -136.64028931 67.58459473 87.50000000
v -137.16154480 67.46939087 87.50000000
v -137.69197083 67.40930939 87.50000000
v -138.22578430 67.40499878 87.50000000
v -138.75712585 67.45651245 87.50000000
v -139.28016663 67.56328583 87.50000000
v -139.78918457 67.72413635 87.50000000
v -140.27859497 67.93732452 87.50000000
v -140.74304199 68.20049286 87.50000000
v -141.17742920 68.51077271 87.50000000
v -141.57701111 68.86476135 87.50000000
v -141.93740845 69.25857544 87.50000000
v -142.25465393 69.68789673 87.50000000
v -142.52529907 70.14804077 87.50000000
v -142.74635315 70.63394165 87.50000000
v -142.91540527 71.14029694 87.50000000
v -143.03060913 71.66154480 87.50000000
v -143.09068298 72.19197845 87.50000000
v -143.09500122 72.72578430 87.50000000
v -143.04348755 73.25712585 87.50000000
v -142.93672180 73.78016663 87.50000000
v -142.77586365 74.28917694 87.50000000
v -142.56268311 74.77858734 87.50000000
v -142.29949951 75.24303436 87.50000000
v -141.98922729 75.67742920 87.50000000
v -141.63523865 76.07701111 87.50000000
v -141.24142456 76.43740082 87.50000000
v -140.81210327 76.75465393 87.50000000
v -140.35195923 77.02529144 87.50000000
v -139.86605835 77.24635315 87.50000000
v -139.35971069 77.41540527 87.50000000
v -138.83845520 77.53060913 87.50000000
v -138.30802917 77.59069061 87.50000000
v -137.77421570 77.59500122 87.50000000
v -133.98379517 87.98773956 87.50000000
v -134.91722107 88.20020294 87.50000000
v -135.86167908 88.35646820 87.50000000
v -136.81378174 88.45597076 87.50000000
v -137.77014160 88.49835205 87.50000000
v -138.72732544 88.48345947 87.50000000
v -139.68190002 88.41135406 87.50000000
v -140.63044739 88.28229523 87.50000000
v -141.56959534 88.09673309 87.50000000
v -142.49595642 87.85533905 87.50000000
v -143.40621948 87.55897522 87.50000000
v -144.29713440 87.20870972 87.50000000
v -145.16549683 86.80578613 87.50000000
v -146.00822449 86.35165405 87.50000000
v -146.82228088 85.84793854 87.50000000
v -147.60475159 85.29644012 87.50000000
v -148.35282898 84.69913483 87.50000000
v -149.06385803 84.05815125 87.50000000
v -149.73529053 83.37580109 87.50000000
v -150.36470032 82.65451813 87.50000000
v -150.94984436 81.89688110 87.50000000
v -151.48864746 81.10560608 87.50000000
v -151.97915649 80.28353119 87.50000000
v -152.41961670 79.43358612 87.50000000
v -152.80847168 78.55882263 87.50000000
v -153.14430237 77.66236877 87.50000000
v -153.42593384 76.74743652 87.50000000
v -153.65232849 75.81729889 87.50000000
v -153.82270813 74.87528992 87.50000000
v -153.93643188 73.92477417 87.50000000
v -153.99311829 72.96915436 87.50000000
v -153.99255371 72.01186371 87.50000000
v -153.93473816 71.05631256 87.50000000
v -153.81987000 70.10593414 87.50000000
v -153.64839172 69.16412354 87.50000000
v -153.42088318 68.23426056 87.50000000
v -153.13816833 67.31966400 87.50000000
v -152.80126953 66.42360687 87.50000000
v -152.41137695 65.54930878 87.50000000
v -151.96990967 64.69989014 87.50000000
v -151.47842407 63.87839127 87.50000000
v -150.93869019 63.08775711 87.50000000
v -150.35264587 62.33081818 87.50000000
v -149.72236633 61.61027908 87.50000000
v -149.05014038 60.92872238 87.50000000
v -148.33834839 60.28858948 87.50000000
v -147.58955383 59.69216919 87.50000000
v -146.80642700 59.14160156 87.50000000
v -145.99177551 58.63884735 87.50000000
v -145.14851379 58.18571854 87.50000000
v -144.27966309 57.78382874 87.50000000
v -143.38833618 57.43461609 87.50000000
v -142.47772217 57.13933563 87.50000000
v -141.55107117 56.89904404 87.50000000
v -140.61172485 56.71459961 87.50000000
v -139.66300964 56.58665848 87.50000000
v -138.70835876 56.51568604 87.50000000
v -137.75115967 56.50193405 87.50000000
v -136.79484558 56.54545212 87.50000000
v -135.84286499 56.64608002 87.50000000
v -134.89859009 56.80346298 87.50000000
v -133.96542358 57.01703644 87.50000000
v -133.04670715 57.28603363 87.50000000
v -132.14570618 57.60948944 87.50000000
v -131.26567078 57.98625565 87.50000000
v -130.40974426 58.41497421 87.50000000
v -129.58097839 58.89411163 87.50000000
v -128.78236389 59.42195511 87.50000000
v -128.01673889 59.99661636 87.50000000
v -127.28685760 60.61603928 87.50000000
v -126.59532166 61.27799988 87.50000000
v -125.94461060 61.98013306 87.50000000
v -125.33705902 62.71992493 87.50000000
v -124.77483368 63.49472427 87.50000000
v -124.25994873 64.30176544 87.50000000
v -123.79425812 65.13814545 87.50000000
v -123.37941742 66.00088501 87.50000000
v -123.01690674 66.88689423 87.50000000
v -122.70803833 67.79299164 87.50000000
v -122.45391083 68.71593475 87.50000000
v -122.25543213 69.65242767 87.50000000
v -122.11331940 70.59912109 87.50000000
v -122.02807617 71.55261230 87.50000000
v -122.00000000 72.50949097 87.50000000
v -122.02920532 73.46634674 87.50000000
v -122.11558533 74.41973114 87.50000000
v -122.25882721 75.36624908 87.50000000
v -122.45841217 76.30250549 87.50000000
v -122.71363831 77.22515106 87.50000000
v -123.02358246 78.13088226 87.50000000
v -123.38713837 79.01645660 87.50000000
v -123.80300140 79.87870789 87.50000000
v -124.26969147 80.71453857 87.50000000
v -124.78553009 81.52096558 87.50000000
v -125.34867096 82.29509735 87.50000000
v -125.95710754 83.03416443 87.50000000
v -126.60865021 83.73552704 87.50000000
v -127.30096436 84.39666748 87.50000000
v -128.03158569 85.01522064 87.50000000
v -128.79789734 85.58897400 87.50000000
v -129.59713745 86.11586761 87.50000000
v -130.42646790 86.59402466 87.50000000
v -131.28289795 87.02172852 87.50000000
v -132.16337585 87.39744568 87.50000000
v -133.06475830 87.71983337 87.50000000
f 1 2 3
f 3 2 4
f 3 4 5
f 5 4 6
f 5 6 7
f 7 6 8
f 7 8 9
f 9 8 10
f 9 10 11
f 11 10 12
f 11 12 13
f 13 12 14
f 13 14 15
f 15 14 16
f 15 16 17
f 17 16 18
f 17 18 19
f 19 18 20
f 19 20 21
f 21 20 22
f 21 22 23
f 23 22 24
f 23 24 25
f 25 24 26
f 25 26 27
f 27 26 28
f 27 28 29
f 29 28 30
f 29 30 31
f 31 30 32
f 31 32 33
f 33 32 34
f 33 34 35
f 35 34 36
f 35 36 37
f 37 36 38
f 37 38 39
f 39 38 40
f 39 40 41
f 41 40 42
f 41 42 43
f 43 42 44
f 43 44 45
f 45 44 46
f 45 46 47
f 47 46 48
f 47 48 49
f 49 48 50
f 49 50 51
f 51 50 52
f 51 52 53
f 53 52 54
f 53 54 55
f 55 54 56
f 55 56 57
f 57 56 58
f 57 58 59
f 59 58 60
f 59 60 61
f 61 60 62
f 61 62 63
f 63 62 64
f 63 64 65
f 65 64 66
f 65 66 67
f 67 66 68
f 67 68 69
f 69 68 70
f 69 70 71
f 71 70 72
f 71 72 73
f 73 72 74
f 73 74 75
f 75 74 76
f 75 76 77
f 77 76 78
f 77 78 79
f 79 78 80
f 79 80 81
f 81 80 82
f 81 82 83
f 83 82 84
f 83 84 85
f 85 84 86
f 85 86 87
f 87 86 88
f 87 88 89
f 89 88 90
f 89 90 91
f 91 90 92
f 91 92 93
f 93 92 94
f 93 94 95
f 95 94 96
f 95 96 97
f 97 96 98
f 97 98 99
f 99 98 100
f 99 100 101
f 101 100 102
f 101 102 103
f 103 102 104
f 103 104 105
f 105 104 106
f 105 106 107
f 107 106 108
f 107 108 109
f 109 108 110
f 109 110 111
f 111 110 112
f 111 112 113
f 113 112 114
f 113 114 115
f 115 114 116
f 115 116 117
f 117 116 118
f 117 118 119
f 119 118 120
f 119 120 1
f 1 120 2
f 121 122 123
f 123 122 124
f 123 124 125
f 125 124 126
f 125 126 127
f 127 126 128
f 127 128 129
f 129 128 130
f 129 130 131
f 131 130 132
f 131 132 133
f 133 132 134
f 133 134 135
f 135 134 136
f 135 136 137
f 137 136 138
f 137 138 139
f 139 138 140
f 139 140 141
f 141 140 142
f 141 142 143
f 143 142 144
f 143 144 145
f 145 144 146
f 145 146 147
f 147 146 148
f 147 148 149
f 149 148 150
f 149 150 151
f 151 150 152
f 151 152 153
f 153 152 154
f 153 154 155
f 155 154 156
f 155 156 157
f 157 156 158
f 157 158 159
f 159 158 160
f 159 160 161
f 161 160 162
f 161 162 163
f 163 162 164
f 163 164 165
f 165 164 166
f 165 166 167
f 167 166 168
f 167 168 169
f 169 168 170
f 169 170 171
f 171 170 172
f 171 172 173
f 173 172 174
f 173 174 175
f 175 174 176
f 175 176 177
f 177 176 178
f 177 178 179
f 179 178 180
f 179 180 181
f 181 180 182
f 181 182 183
f 183 182 184
f 183 184 185
f 185 184 186
f 185 186 187
f 187 186 188
f 187 188 189
f 189 188 190
f 189 190 191
f 191 190 192
f 191 192 193
f 193 192 194
f 193 194 195
f 195 194 196
f 195 196 197
f 197 196 198
f 197 198 199
f 199 198 200
f 199 200 201
f 201 200 202
f 201 202 203
f 203 202 204
f 203 204 205
f 205 204 206
f 205 206 207
f 207 206 208
f 207 208 209
f 209 208 210
f 209 210 211
f 211 210 212
f 211 212 213
f 213 212 214
f 213 214 215
f 215 214 216
f 215 216 217
f 217 216 218
f 217 218 219
f 219 218 220
f 219 220 221
f 221 220 222
f 221 222 223
f 223 222 224
f 223 224 225
f 225 224 226
f 225 226 227
f 227 226 228
f 227 228 229
f 229 228 230
f 229 230 231
f 231 230 232
f 231 232 233
f 233 232 234
f 233 234 235
f 235 234 236
f 235 236 237
f 237 236 238
f 237 238 239
f 239 238 240
f 239 240 241
f 241 240 242
f 241 242 243
f 243 242 244
f 243 244 245
f 245 244 246
f 245 246 247
f 247 246 248
f 247 248 249
f 249 248 250
f 249 250 251
f 251 250 252
f 251 252 253
f 253 252 254
f 253 254 255
f 255 254 256
f 255 256 257
f 257 256 258
f 257 258 259
f 259 258 260
f 259 260 261
f 261 260 262
f 261 262 263
f 263 262 264
f 263 264 265
f 265 264 266
f 265 266 267
f 267 266 268
f 267 268 269
f 269 268 270
f 269 270 271
f 271 270 272
f 271 272 273
f 273 272 274
f 273 274 275
f 275 274 276
f 275 276 277
f 277 276 278
f 277 278 279
f 279 278 280
f 279 280 281
f 281 280 282
f 281 282 283
f 283 282 284
f 283 284 285
f 285 284 286
f 285 286 287
f 287 286 288
f 287 288 289
f 289 288 290
f 289 290 291
f 291 290 292
f 291 292 293
f 293 292 294
f 293 294 295
f 295 294 296
f 295 296 297
f 297 296 298
f 297 298 299
f 299 298 300
f 299 300 301
f 301 300 302
f 301 302 303
f 303 302 304
f 303 304 305
f 305 304 306
f 305 306 307
f 307 306 308
f 307 308 309
f 309 308 310
f 309 310 311
f 311 310 312
f 311 312 313
f 313 312 314
f 313 314 315
f 315 314 316
f 315 316 317
f 317 316 318
f 317 318 319
f 319 318 320
f 319 320 321
f 321 320 322
f 321 322 323
f 323 322 324
f 323 324 325
f 325 324 326
f 325 326 327
f 327 326 328
f 327 328 329
f 329 328 330
f 329 330 121
f 121 330 122
f 393 331 392
f 392 331 332
f 392 332 333
f 331 393 390
f 390 393 394
f 379 398 378
f 380 398 379
f 380 397 398
f 381 397 380
f 382 397 381
f 383 397 382
f 383 396 397
f 384 396 383
f 385 396 384
f 386 396 385
f 386 395 396
f 438 399 437
f 438 398 399
f 439 398 438
f 364 441 442
f 364 440 441
f 365 440 364
f 365 439 440
f 366 439 365
f 367 439 366
f 368 439 367
f 369 439 368
f 370 439 369
f 371 439 370
f 372 439 371
f 373 439 372
f 374 439 373
f 430 407 429
f 430 406 407
f 431 406 430
f 431 405 406
f 432 405 431
f 432 404 405
f 433 404 432
f 433 403 404
f 434 403 433
f 434 402 403
f 435 402 434
f 435 401 402
f 436 401 435
f 436 400 401
f 437 400 436
f 437 399 400
f 422 415 421
f 422 414 415
f 423 414 422
f 423 413 414
f 424 413 423
f 424 412 413
f 425 412 424
f 425 411 412
f 426 411 425
f 426 410 411
f 427 410 426
f 427 409 410
f 428 409 427
f 428 408 409
f 429 408 428
f 429 407 408
f 360 448 449
f 360 447 448
f 361 447 360
f 361 446 447
f 361 445 446
f 362 445 361
f 362 444 445
f 363 444 362
f 363 443 444
f 363 442 443
f 364 442 363
f 419 417 418
f 420 417 419
f 420 416 417
f 421 416 420
f 421 415 416
f 347 451 452
f 347 450 451
f 348 450 347
f 349 450 348
f 350 450 349
f 351 450 350
f 352 450 351
f 353 450 352
f 354 450 353
f 355 450 354
f 356 450 355
f 357 450 356
f 358 450 357
f 359 450 358
f 359 449 450
f 360 449 359
f 467 468 347
f 347 466 467
f 347 465 466
f 464 465 347
f 347 463 464
f 347 462 463
f 461 462 347
f 347 460 461
f 347 459 460
f 458 459 347
f 347 457 458
f 347 456 457
f 455 456 347
f 347 454 455
f 347 453 454
f 452 453 347
f 343 479 342
f 343 478 479
f 343 477 478
f 344 477 343
f 344 476 477
f 344 475 476
f 345 475 344
f 345 474 475
f 345 473 474
f 346 473 345
f 346 472 473
f 347 472 346
f 347 471 472
f 470 471 347
f 347 469 470
f 347 468 469
f 337 489 336
f 337 488 489
f 337 487 488
f 338 487 337
f 338 486 487
f 339 486 338
f 339 485 486
f 339 484 485
f 340 484 339
f 340 483 484
f 340 482 483
f 341 482 340
f 341 481 482
f 341 480 481
f 342 480 341
f 342 479 480
f 333 391 392
f 334 391 333
f 335 391 334
f 495 391 335
f 335 494 495
f 335 493 494
f 336 493 335
f 336 492 493
f 491 492 336
f 336 490 491
f 336 489 490
f 375 439 374
f 376 439 375
f 377 439 376
f 377 398 439
f 378 398 377
f 387 395 386
f 388 395 387
f 388 394 395
f 389 394 388
f 390 394 389
f 566 599 598
f 566 598 567
f 567 598 597
f 567 597 568
f 568 597 596
f 568 596 569
f 569 596 595
f 569 595 570
f 570 595 594
f 570 594 571
f 571 594 593
f 574 591 590
f 574 590 575
f 575 590 589
f 575 589 576
f 576 589 588
f 576 588 577
f 577 588 587
f 577 587 578
f 578 587 586
f 578 586 579
f 579 586 585
f 502 653 652
f 502 652 651
f 502 651 503
f 503 651 650
f 503 650 504
f 508 643 642
f 508 642 641
f 508 641 509
f 509 641 640
f 509 640 639
f 659 500 660
f 660 500 499
f 660 499 498
f 659 658 500
f 500 658 657
f 500 657 501
f 501 657 656
f 501 656 655
f 655 654 501
f 501 654 653
f 501 653 502
f 631 630 512
f 512 630 629
f 512 629 628
f 628 627 512
f 512 627 626
f 504 650 649
f 504 649 648
f 504 648 505
f 505 648 647
f 505 647 646
f 505 646 506
f 506 646 645
f 506 645 644
f 506 644 507
f 507 644 643
f 507 643 508
f 512 615 614
f 512 614 513
f 513 614 514
f 514 614 515
f 515 614 516
f 509 639 510
f 510 639 638
f 510 638 637
f 510 637 511
f 511 637 636
f 511 636 512
f 512 636 635
f 512 635 634
f 634 633 512
f 512 633 632
f 512 632 631
f 525 612 611
f 525 611 526
f 526 611 610
f 526 610 609
f 526 609 527
f 512 626 625
f 625 624 512
f 512 624 623
f 512 623 622
f 622 621 512
f 512 621 620
f 512 620 619
f 619 618 512
f 512 618 617
f 512 617 616
f 616 615 512
f 532 603 533
f 533 603 534
f 534 603 535
f 535 603 536
f 536 603 537
f 516 614 517
f 517 614 518
f 518 614 519
f 519 614 520
f 520 614 521
f 521 614 522
f 522 614 523
f 523 614 524
f 524 614 613
f 524 613 525
f 525 613 612
f 546 561 547
f 547 561 548
f 548 561 560
f 548 560 549
f 549 560 550
f 527 609 608
f 527 608 528
f 528 608 607
f 528 607 606
f 528 606 529
f 529 606 605
f 529 605 604
f 529 604 530
f 530 604 603
f 530 603 531
f 531 603 532
f 563 601 564
f 564 601 600
f 564 600 565
f 565 600 599
f 565 599 566
f 537 603 538
f 538 603 539
f 539 603 540
f 540 603 541
f 541 603 542
f 542 603 562
f 542 562 543
f 543 562 544
f 544 562 545
f 545 562 561
f 545 561 546
f 571 593 572
f 572 593 592
f 572 592 573
f 573 592 591
f 573 591 574
f 550 560 551
f 551 560 559
f 551 559 552
f 552 559 553
f 553 559 558
f 553 558 554
f 554 558 555
f 555 558 557
f 603 602 562
f 562 602 563
f 563 602 601
f 660 498 556
f 556 498 497
f 556 497 557
f 557 497 496
f 557 496 555
f 579 585 580
f 580 585 584
f 580 584 581
f 581 584 583
f 581 583 582

