# https://github.com/mikedh/trimesh
v -173.25000000 67.69999695 40.50000000
v -173.23152161 67.98772430 40.50000000
v -173.23152161 67.41227722 40.50000000
v -173.17640686 67.12928009 40.50000000
v -173.17640686 68.27072144 40.50000000
v -173.08555603 66.85565186 40.50000000
v -173.08555603 68.54434967 40.50000000
v -172.96046448 66.59588623 40.50000000
v -172.96046448 68.80411530 40.50000000
v -172.80317688 66.35424805 40.50000000
v -172.80317688 69.04574585 40.50000000
v -172.61628723 66.13471222 40.50000000
v -172.61628723 69.26528931 40.50000000
v -172.40284729 65.94087982 40.50000000
v -172.40284729 69.45912170 40.50000000
v -172.16638184 65.77593231 40.50000000
v -172.16638184 69.62406921 40.50000000
v -171.91076660 65.64257050 40.50000000
v -171.91076660 69.75743103 40.50000000
v -171.64018250 65.54299927 40.50000000
v -171.64018250 69.85700226 40.50000000
v -171.35910034 65.47884369 40.50000000
v -171.35910034 69.92115784 40.50000000
v -171.07211304 65.45115662 40.50000000
v -171.07211304 69.94884491 40.50000000
v -170.78395081 65.46039581 40.50000000
v -170.78395081 69.93960571 40.50000000
v -170.49932861 65.50640869 40.50000000
v -170.49932861 69.89358521 40.50000000
v -170.22293091 65.58844757 40.50000000
v -170.22293091 69.81155396 40.50000000
v -169.95928955 65.70515442 40.50000000
v -169.95928955 69.69484711 40.50000000
v -169.71273804 65.85461426 40.50000000
v -169.71273804 69.54538727 40.50000000
v -169.48731995 66.03437805 40.50000000
v -169.48731995 69.36562347 40.50000000
v -169.28674316 66.24148560 40.50000000
v -169.28674316 69.15851593 40.50000000
v -169.11430359 66.47254944 40.50000000
v -169.11430359 68.92745209 40.50000000
v -168.97282410 66.72376251 40.50000000
v -168.97282410 68.67623901 40.50000000
v -168.86462402 66.99100494 40.50000000
v -168.86462402 68.40899658 40.50000000
v -168.79148865 67.26988983 40.50000000
v -168.79148865 68.13010406 40.50000000
v -168.75462341 67.55583954 40.50000000
v -168.75462341 67.84415436 40.50000000
v -173.25000000 67.69999695 40.50000000
v -173.23152161 67.98772430 40.50000000
v -173.23152161 67.41227722 40.50000000
v -173.17640686 67.12928009 40.50000000
v -173.17640686 68.27072144 40.50000000
v -173.08555603 66.85565186 40.50000000
v -173.08555603 68.54434967 40.50000000
v -172.96046448 66.59588623 40.50000000
v -172.96046448 68.80411530 40.50000000
v -172.80317688 66.35424805 40.50000000
v -172.80317688 69.04574585 40.50000000
v -172.61628723 66.13471222 40.50000000
v -172.61628723 69.26528931 40.50000000
v -172.40284729 65.94087982 40.50000000
v -172.40284729 69.45912170 40.50000000
v -172.16638184 65.77593231 40.50000000
v -172.16638184 69.62406921 40.50000000
v -171.91076660 65.64257050 40.50000000
v -171.91076660 69.75743103 40.50000000
v -171.64018250 65.54299927 40.50000000
v -171.64018250 69.85700226 40.50000000
v -171.35910034 65.47884369 40.50000000
v -171.35910034 69.92115784 40.50000000
v -171.07211304 65.45115662 40.50000000
v -171.07211304 69.94884491 40.50000000
v -170.78395081 65.46039581 40.50000000
v -170.78395081 69.93960571 40.50000000
v -170.49932861 65.50640869 40.50000000
v -170.49932861 69.89358521 40.50000000
v -170.22293091 65.58844757 40.50000000
v -170.22293091 69.81155396 40.50000000
v -169.95928955 65.70515442 40.50000000
v -169.95928955 69.69484711 40.50000000
v -169.71273804 65.85461426 40.50000000
v -169.71273804 69.54538727 40.50000000
v -169.48731995 66.03437805 40.50000000
v -169.48731995 69.36562347 40.50000000
v -169.28674316 66.24148560 40.50000000
v -169.28674316 69.15851593 40.50000000
v -169.11430359 66.47254944 40.50000000
v -169.11430359 68.92745209 40.50000000
v -168.97282410 66.72376251 40.50000000
v -168.97282410 68.67623901 40.50000000
v -168.86462402 66.99100494 40.50000000
v -168.86462402 68.40899658 40.50000000
v -168.79148865 67.26988983 40.50000000
v -168.79148865 68.13010406 40.50000000
v -168.75462341 67.55583954 40.50000000
v -168.75462341 67.84415436 40.50000000
v -173.23152161 67.98772430 59.50000000
v -173.24537659 67.84415436 53.16666794
v -173.25000000 67.69999695 59.50000000
v -173.24537659 67.55583954 53.16666794
v -173.23152161 67.41227722 59.50000000
v -173.20851135 67.26988983 53.16666794
v -173.17640686 67.12928009 59.50000000
v -173.13537598 66.99100494 53.16666794
v -173.08555603 66.85565186 59.50000000
v -173.02717590 66.72376251 53.16666794
v -172.96046448 66.59588623 59.50000000
v -172.88569641 66.47254944 53.16666794
v -172.80317688 66.35424805 59.50000000
v -172.71325684 66.24148560 53.16666794
v -172.61628723 66.13471222 59.50000000
v -172.51268005 66.03437805 53.16666794
v -172.40284729 65.94087982 59.50000000
v -172.28726196 65.85461426 53.16666794
v -172.16638184 65.77593231 59.50000000
v -172.04071045 65.70515442 53.16666794
v -171.91076660 65.64257050 59.50000000
v -171.77706909 65.58844757 53.16666794
v -171.64018250 65.54299927 59.50000000
v -171.50067139 65.50640869 53.16666794
v -171.35910034 65.47884369 59.50000000
v -171.21604919 65.46039581 53.16666794
v -171.07211304 65.45115662 59.50000000
v -170.92788696 65.45115662 53.16666794
v -170.78395081 65.46039581 59.50000000
v -170.64089966 65.47884369 53.16666794
v -170.49932861 65.50640869 59.50000000
v -170.35981750 65.54299927 53.16666794
v -170.22293091 65.58844757 59.50000000
v -170.08923340 65.64257050 53.16666794
v -169.95928955 65.70515442 59.50000000
v -169.83361816 65.77593231 53.16666794
v -169.71273804 65.85461426 59.50000000
v -169.59715271 65.94087982 53.16666794
v -169.48731995 66.03437805 59.50000000
v -169.38371277 66.13471222 53.16666794
v -169.28674316 66.24148560 59.50000000
v -169.19682312 66.35424805 53.16666794
v -169.11430359 66.47254944 59.50000000
v -169.03953552 66.59588623 53.16666794
v -168.97282410 66.72376251 59.50000000
v -168.91444397 66.85565186 53.16666794
v -168.86462402 66.99100494 59.50000000
v -168.82359314 67.12928009 53.16666794
v -168.79148865 67.26988983 59.50000000
v -168.76847839 67.41227722 53.16666794
v -168.75462341 67.55583954 59.50000000
v -168.75000000 67.69999695 53.16666794
v -168.75462341 67.84415436 59.50000000
v -168.76847839 67.98772430 53.16666794
v -168.79148865 68.13010406 59.50000000
v -168.82359314 68.27072144 53.16666794
v -168.86462402 68.40899658 59.50000000
v -168.91444397 68.54434967 53.16666794
v -168.97282410 68.67623901 59.50000000
v -169.03953552 68.80411530 53.16666794
v -169.11430359 68.92745209 59.50000000
v -169.19682312 69.04574585 53.16666794
v -169.28674316 69.15851593 59.50000000
v -169.38371277 69.26528931 53.16666794
v -169.48731995 69.36562347 59.50000000
v -169.59715271 69.45912170 53.16666794
v -169.71273804 69.54538727 59.50000000
v -169.83361816 69.62406921 53.16666794
v -169.95928955 69.69484711 59.50000000
v -170.08923340 69.75743103 53.16666794
v -170.22293091 69.81155396 59.50000000
v -170.35981750 69.85700226 53.16666794
v -170.49932861 69.89358521 59.50000000
v -170.64089966 69.92115784 53.16666794
v -170.78395081 69.93960571 59.50000000
v -170.92788696 69.94884491 53.16666794
v -171.07211304 69.94884491 59.50000000
v -171.21604919 69.93960571 53.16666794
v -171.35910034 69.92115784 59.50000000
v -171.50067139 69.89358521 53.16666794
v -171.64018250 69.85700226 59.50000000
v -171.77706909 69.81155396 53.16666794
v -171.91076660 69.75743103 59.50000000
v -172.04071045 69.69484711 53.16666794
v -172.16638184 69.62406921 59.50000000
v -172.28726196 69.54538727 53.16666794
v -172.40284729 69.45912170 59.50000000
v -172.51268005 69.36562347 53.16666794
v -172.61628723 69.26528931 59.50000000
v -172.71325684 69.15851593 53.16666794
v -172.80317688 69.04574585 59.50000000
v -172.88569641 68.92745209 53.16666794
v -172.96046448 68.80411530 59.50000000
v -173.02717590 68.67623901 53.16666794
v -173.08555603 68.54434967 59.50000000
v -173.13537598 68.40899658 53.16666794
v -173.17640686 68.27072144 59.50000000
v -173.20851135 68.13010406 53.16666794
v -173.24537659 67.55583954 46.83333206
v -173.24537659 67.84415436 46.83333206
v -173.20851135 68.13010406 46.83333206
v -173.13537598 68.40899658 46.83333206
v -173.02717590 68.67623901 46.83333206
v -172.88569641 68.92745209 46.83333206
v -172.71325684 69.15851593 46.83333206
v -172.51268005 69.36562347 46.83333206
v -172.28726196 69.54538727 46.83333206
v -172.04071045 69.69484711 46.83333206
v -171.77706909 69.81155396 46.83333206
v -171.50067139 69.89358521 46.83333206
v -171.21604919 69.93960571 46.83333206
v -170.92788696 69.94884491 46.83333206
v -170.64089966 69.92115784 46.83333206
v -170.35981750 69.85700226 46.83333206
v -170.08923340 69.75743103 46.83333206
v -169.83361816 69.62406921 46.83333206
v -169.59715271 69.45912170 46.83333206
v -169.38371277 69.26528931 46.83333206
v -169.19682312 69.04574585 46.83333206
v -169.03953552 68.80411530 46.83333206
v -168.91444397 68.54434967 46.83333206
v -168.82359314 68.27072144 46.83333206
v -168.76847839 67.98772430 46.83333206
v -168.75000000 67.69999695 46.83333206
v -168.76847839 67.41227722 46.83333206
v -168.82359314 67.12928009 46.83333206
v -168.91444397 66.85565186 46.83333206
v -169.03953552 66.59588623 46.83333206
v -169.19682312 66.35424805 46.83333206
v -169.38371277 66.13471222 46.83333206
v -169.59715271 65.94087982 46.83333206
v -169.83361816 65.77593231 46.83333206
v -170.08923340 65.64257050 46.83333206
v -170.35981750 65.54299927 46.83333206
v -170.64089966 65.47884369 46.83333206
v -170.92788696 65.45115662 46.83333206
v -171.21604919 65.46039581 46.83333206
v -171.50067139 65.50640869 46.83333206
v -171.77706909 65.58844757 46.83333206
v -172.04071045 65.70515442 46.83333206
v -172.28726196 65.85461426 46.83333206
v -172.51268005 66.03437805 46.83333206
v -172.71325684 66.24148560 46.83333206
v -172.88569641 66.47254944 46.83333206
v -173.02717590 66.72376251 46.83333206
v -173.13537598 66.99100494 46.83333206
v -173.20851135 67.26988983 46.83333206
v -173.25874329 67.69999695 59.75590897
v -173.24031067 67.98772430 59.75716782
v -173.18533325 68.27072144 59.76092911
v -173.09468079 68.54434967 59.76713181
v -172.96987915 68.80411530 59.77566910
v -172.81295776 69.04574585 59.78639984
v -172.62651062 69.26528931 59.79915619
v -172.41357422 69.45912170 59.81372070
v -172.17765808 69.62406921 59.82985687
v -171.92262268 69.75743103 59.84730148
v -171.65267944 69.85700226 59.86576843
v -171.37225342 69.92115784 59.88494873
v -171.08593750 69.94884491 59.90453339
v -170.79844666 69.93960571 59.92419815
v -170.51448059 69.89358521 59.94362259
v -170.23872375 69.81155396 59.96248245
v -169.97570801 69.69484711 59.98047638
v -169.72972107 69.54538727 59.99729919
v -169.50483704 69.36562347 60.01268387
v -169.30473328 69.15851593 60.02637100
v -169.13269043 68.92745209 60.03813934
v -168.99153137 68.67623901 60.04779434
v -168.88359070 68.40899658 60.05517578
v -168.81062317 68.13010406 60.06016922
v -168.77384949 67.84415436 60.06268311
v -168.77384949 67.55583954 60.06268311
v -168.81062317 67.26988983 60.06016922
v -168.88359070 66.99100494 60.05517578
v -168.99153137 66.72376251 60.04779434
v -169.13269043 66.47254944 60.03813934
v -169.30473328 66.24148560 60.02637100
v -169.50483704 66.03437805 60.01268387
v -169.72972107 65.85461426 59.99729919
v -169.97570801 65.70515442 59.98047638
v -170.23872375 65.58844757 59.96248245
v -170.51448059 65.50640869 59.94362259
v -170.79844666 65.46039581 59.92419815
v -171.08593750 65.45115662 59.90453339
v -171.37225342 65.47884369 59.88494873
v -171.65267944 65.54299927 59.86576843
v -171.92262268 65.64257050 59.84730148
v -172.17765808 65.77593231 59.82985687
v -172.41357422 65.94087982 59.81372070
v -172.62651062 66.13471222 59.79915619
v -172.81295776 66.35424805 59.78639984
v -172.96987915 66.59588623 59.77566910
v -173.09468079 66.85565186 59.76713181
v -173.18533325 67.12928009 59.76092911
v -173.24031067 67.41227722 59.75716782
v -177.00000000 67.98772430 63.26847076
v -176.74409485 67.69999695 63.24125671
v -177.00000000 67.69999695 63.25000000
v -176.74282837 67.41227722 63.25968552
v -177.00000000 67.41227722 63.26847076
v -176.73907471 67.12928009 63.31467438
v -177.00000000 67.12928009 63.32358551
v -176.73286438 66.85565186 63.40531158
v -177.00000000 66.85565186 63.41443634
v -176.72433472 66.59588623 63.53011703
v -177.00000000 66.59588623 63.53953171
v -176.71359253 66.35424805 63.68703461
v -177.00000000 66.35424805 63.69681931
v -176.70085144 66.13471222 63.87349319
v -177.00000000 66.13471222 63.88371277
v -176.68627930 65.94087982 64.08643341
v -177.00000000 65.94087982 64.09714508
v -176.67013550 65.77593231 64.32234955
v -177.00000000 65.77593231 64.33361816
v -176.65269470 65.64257050 64.57736969
v -177.00000000 65.64257050 64.58924103
v -176.63423157 65.54299927 64.84732056
v -177.00000000 65.54299927 64.85980988
v -176.61505127 65.47884369 65.12774658
v -177.00000000 65.47884369 65.14089966
v -176.59547424 65.45115662 65.41406250
v -177.00000000 65.45115662 65.42788696
v -176.57580566 65.46039581 65.70156097
v -177.00000000 65.46039581 65.71604919
v -176.55638123 65.50640869 65.98551941
v -177.00000000 65.50640869 66.00067139
v -176.53752136 65.58844757 66.26127625
v -177.00000000 65.58844757 66.27706909
v -176.51953125 65.70515442 66.52429962
v -177.00000000 65.70515442 66.54071045
v -176.50270081 65.85461426 66.77027130
v -177.00000000 65.85461426 66.78726196
v -176.48731995 66.03437805 66.99516296
v -177.00000000 66.03437805 67.01268005
v -176.47363281 66.24148560 67.19527435
v -177.00000000 66.24148560 67.21325684
v -176.46186829 66.47254944 67.36731720
v -177.00000000 66.47254944 67.38569641
v -176.45220947 66.72376251 67.50846863
v -177.00000000 66.72376251 67.52718353
v -176.44482422 66.99100494 67.61640930
v -177.00000000 66.99100494 67.63537598
v -176.43983459 67.26988983 67.68936920
v -177.00000000 67.26988983 67.70851135
v -176.43731689 67.55583954 67.72615814
v -177.00000000 67.55583954 67.74537659
v -176.43731689 67.84415436 67.72615814
v -177.00000000 67.84415436 67.74537659
v -176.43983459 68.13010406 67.68936920
v -177.00000000 68.13010406 67.70851135
v -176.44482422 68.40899658 67.61640930
v -177.00000000 68.40899658 67.63537598
v -176.45220947 68.67623901 67.50846863
v -177.00000000 68.67623901 67.52718353
v -176.46186829 68.92745209 67.36731720
v -177.00000000 68.92745209 67.38569641
v -176.47363281 69.15851593 67.19527435
v -177.00000000 69.15851593 67.21325684
v -176.48731995 69.36562347 66.99516296
v -177.00000000 69.36562347 67.01268005
v -176.50270081 69.54538727 66.77027130
v -177.00000000 69.54538727 66.78726196
v -176.51953125 69.69484711 66.52429962
v -177.00000000 69.69484711 66.54071045
v -176.53752136 69.81155396 66.26127625
v -177.00000000 69.81155396 66.27706909
v -176.55638123 69.89358521 65.98551941
v -177.00000000 69.89358521 66.00067139
v -176.57580566 69.93960571 65.70156097
v -177.00000000 69.93960571 65.71604919
v -176.59547424 69.94884491 65.41406250
v -177.00000000 69.94884491 65.42788696
v -176.61505127 69.92115784 65.12774658
v -177.00000000 69.92115784 65.14089966
v -176.63423157 69.85700226 64.84732056
v -177.00000000 69.85700226 64.85980988
v -176.65269470 69.75743103 64.57736969
v -177.00000000 69.75743103 64.58924103
v -176.67013550 69.62406921 64.32234955
v -177.00000000 69.62406921 64.33361816
v -176.68627930 69.45912170 64.08643341
v -177.00000000 69.45912170 64.09714508
v -176.70085144 69.26528931 63.87349319
v -177.00000000 69.26528931 63.88371277
v -176.71359253 69.04574585 63.68703461
v -177.00000000 69.04574585 63.69681931
v -176.72433472 68.80411530 63.53011703
v -177.00000000 68.80411530 63.53953171
v -176.73286438 68.54434967 63.40531158
v -177.00000000 68.54434967 63.41443634
v -176.73907471 68.27072144 63.31467438
v -177.00000000 68.27072144 63.32358551
v -176.74282837 67.98772430 63.25968552
v -173.28492737 67.69999695 60.01062393
v -173.26663208 67.98772430 60.01314163
v -173.31034851 67.98772430 60.26671982
v -173.25639343 68.27072144 60.27793121
v -173.31820679 68.27072144 60.53158951
v -173.23072815 68.54434967 60.55610275
v -173.31158447 68.54434967 60.81086349
v -173.19371033 68.80411530 60.85275650
v -173.29489136 68.80411530 61.10935593
v -173.15063477 69.04574585 61.17201614
v -173.27371216 69.04574585 61.43080902
v -173.10775757 69.26528931 61.51679230
v -173.25447083 69.26528931 61.77770615
v -173.07211304 69.45912170 61.88860321
v -173.24426270 69.45912170 62.15108490
v -173.05108643 69.62406921 62.28745270
v -173.25050354 69.62406921 62.55043793
v -173.05221558 69.75743103 62.71175766
v -173.28060913 69.75743103 62.97367477
v -173.08285522 69.85700226 63.15835571
v -173.34164429 69.85700226 63.41714478
v -173.14978027 69.92115784 63.62257385
v -173.44009399 69.92115784 63.87570953
v -173.25898743 69.94884491 64.09832764
v -173.58151245 69.94884491 64.34290314
v -173.41532898 69.93960571 64.57833099
v -173.77023315 69.93960571 64.81111908
v -173.62236023 69.89358521 65.05429840
v -174.00926208 69.89358521 65.27185059
v -173.88211060 69.81155396 65.51725769
v -174.30000305 69.81155396 65.71600342
v -174.19497681 69.69484711 65.95781708
v -174.64221191 69.69484711 66.13418579
v -174.55964661 69.54538727 66.36650085
v -175.03392029 69.54538727 66.51702881
v -174.97309875 69.36562347 66.73408508
v -175.47149658 69.36562347 66.85554504
v -175.43069458 69.15851593 67.05192566
v -175.94970703 69.15851593 67.14141083
v -175.92622375 68.92745209 67.31224823
v -173.32843018 67.69999695 60.26295853
v -173.37127686 67.98772430 60.51671982
v -173.39718628 68.27072144 60.78044128
v -173.40963745 68.54434967 61.05951691
v -173.41336060 68.80411530 61.35844803
v -173.41415405 69.04574585 61.68059921
v -173.41864014 69.26528931 62.02799988
v -173.43394470 69.45912170 62.40120316
v -173.46742249 69.62406921 62.79920197
v -173.52632141 69.75743103 63.21939850
v -173.61749268 69.85700226 63.65766907
v -173.74700928 69.92115784 64.10844421
v -173.91996765 69.94884491 64.56489563
v -174.14021301 69.93960571 65.01914215
v -174.41012573 69.89358521 65.46248627
v -174.73049927 69.81155396 65.88577271
v -175.10043335 69.69484711 66.27962494
v -175.51736450 69.54538727 66.63484192
v -175.97702026 69.36562347 66.94270325
v -173.26663208 67.41227722 60.01314163
v -173.31034851 67.41227722 60.26671982
v -173.38905334 67.69999695 60.51173782
v -173.37127686 67.41227722 60.51671982
v -173.46652222 67.69999695 60.75579834
v -173.44911194 67.41227722 60.76198578
v -173.56045532 67.69999695 60.99400330
v -173.54351807 67.41227722 61.00136185
v -173.67042542 67.69999695 61.22524261
v -173.65402222 67.41227722 61.23374176
v -173.79592896 67.69999695 61.44844055
v -173.78015137 67.41227722 61.45803833
v -173.93635559 67.69999695 61.66255188
v -173.92126465 67.41227722 61.67320251
v -174.09107971 67.69999695 61.86658096
v -174.07675171 67.41227722 61.87823868
v -174.25936890 67.69999695 62.05957413
v -174.24586487 67.41227722 62.07218170
v -174.44042969 67.69999695 62.24063492
v -174.42781067 67.41227722 62.25413513
v -174.63342285 67.69999695 62.40891647
v -174.62176514 67.41227722 62.42324829
v -174.83744812 67.69999695 62.56363678
v -174.82679749 67.41227722 62.57872772
v -175.05155945 67.69999695 62.70407104
v -175.04196167 67.41227722 62.71985626
v -175.27474976 67.69999695 62.82957077
v -175.26625061 67.41227722 62.84597015
v -175.50599670 67.69999695 62.93954086
v -175.49864197 67.41227722 62.95648575
v -175.74420166 67.69999695 63.03347778
v -175.73802185 67.41227722 63.05088425
v -175.98826599 67.69999695 63.11093903
v -175.98327637 67.41227722 63.12872696
v -176.23704529 67.69999695 63.17156601
v -176.23327637 67.41227722 63.18965149
v -176.48937988 67.69999695 63.21507263
v -176.48686218 67.41227722 63.23337173
v -173.44911194 67.98772430 60.76198578
v -173.49296570 68.27072144 61.02331924
v -173.52442932 68.54434967 61.30089569
v -173.54853821 68.80411530 61.59887695
v -173.57131958 69.04574585 61.92022324
v -173.59950256 69.26528931 62.26651001
v -173.64024353 69.45912170 62.63779831
v -173.70080566 69.62406921 63.03258133
v -173.78823853 69.75743103 63.44778061
v -173.90910339 69.85700226 63.87880707
v -174.06907654 69.92115784 64.31969452
v -174.27278137 69.94884491 64.76328278
v -174.52351379 69.93960571 65.20143127
v -174.82305908 69.89358521 65.62532806
v -175.17156982 69.81155396 66.02575684
v -175.56752014 69.69484711 66.39344788
v -176.00772095 69.54538727 66.71939087
v -173.54351807 67.98772430 61.00136185
v -173.60508728 68.27072144 61.25909805
v -173.65542603 68.54434967 61.53387833
v -173.69982910 68.80411530 61.82951736
v -173.74447632 69.04574585 62.14856339
v -173.79621887 69.26528931 62.49211884
v -173.86219788 69.45912170 62.85976028
v -173.94956970 69.62406921 63.24949265
v -174.06513977 69.75743103 63.65775299
v -174.21513367 69.85700226 64.07952881
v -174.40481567 69.92115784 64.50846863
v -174.63832092 69.94884491 64.93711853
v -174.91836548 69.93960571 65.35713959
v -175.24613953 69.89358521 65.75961304
v -175.62117004 69.81155396 66.13532257
v -176.04129028 69.69484711 66.47513580
v -173.65402222 67.98772430 61.23374176
v -173.73304749 68.27072144 61.48667526
v -173.80201721 68.54434967 61.75737762
v -173.86648560 68.80411530 62.04930115
v -173.93281555 69.04574585 62.36455154
v -174.00788879 69.26528931 62.70377731
v -174.09880066 69.45912170 63.06605911
v -174.21255493 69.62406921 63.44892120
v -174.35571289 69.75743103 63.84834290
v -174.53413391 69.85700226 64.25889587
v -174.75265503 69.92115784 64.67389679
v -175.01487732 69.94884491 65.08561707
v -175.32292175 69.93960571 65.48554230
v -175.67739868 69.89358521 65.86470795
v -176.07719421 69.81155396 66.21395111
v -173.78015137 67.98772430 61.45803833
v -173.87625122 68.27072144 61.70498657
v -173.96353149 68.54434967 61.97035599
v -174.04776001 68.80411530 62.25719452
v -174.13545227 69.04574585 62.56718826
v -174.23348999 69.26528931 62.90049744
v -174.34892273 69.45912170 63.25572968
v -174.48852539 69.62406921 63.62993622
v -174.65861511 69.75743103 64.01866150
v -174.86463928 69.85700226 64.41608429
v -175.11097717 69.92115784 64.81520081
v -175.40068054 69.94884491 65.20806122
v -175.73530579 69.93960571 65.58603668
v -176.11482239 69.89358521 65.94012451
v -173.92126465 67.98772430 61.67320251
v -174.03399658 68.27072144 61.91302109
v -174.13919067 68.54434967 62.17181015
v -174.24279785 68.80411530 62.45223618
v -174.35144043 69.04574585 62.75551987
v -174.47200012 69.26528931 63.08136368
v -174.61138916 69.45912170 63.42789078
v -174.77621460 69.62406921 63.79169846
v -174.97244263 69.75743103 64.16790771
v -175.20510864 69.85700226 64.55033875
v -175.47810364 69.92115784 64.93171692
v -175.79393005 69.94884491 65.30389404
v -176.15357971 69.93960571 65.65815735
v -174.07675171 67.98772430 61.87823868
v -174.20558167 68.27072144 62.10980225
v -174.32818604 68.54434967 62.36081314
v -174.45069885 68.80411530 62.63351059
v -174.57977295 69.04574585 62.92867661
v -174.72229004 69.26528931 63.24552917
v -174.88500977 69.45912170 63.58174133
v -175.07427979 69.62406921 63.93344879
v -175.29571533 69.75743103 64.29538727
v -175.55393982 69.85700226 64.66105652
v -175.85232544 69.92115784 65.02291870
v -176.19282532 69.94884491 65.37267303
v -174.24586487 67.98772430 62.07218170
v -174.39019775 68.27072144 62.29441452
v -174.52964783 68.54434967 62.53647232
v -174.67048645 68.80411530 62.80017853
v -174.81939697 69.04574585 63.08584213
v -174.98320007 69.26528931 63.39223480
v -175.16848755 69.45912170 63.71655655
v -175.38131714 69.62406921 64.05452728
v -175.62693787 69.75743103 64.40051270
v -175.90951538 69.85700226 64.74771118
v -176.23190308 69.92115784 65.08836365
v -174.42781067 67.98772430 62.25413513
v -174.58697510 68.27072144 62.46599960
v -174.74261475 68.54434967 62.69797897
v -174.90112305 68.80411530 62.95145416
v -175.06918335 69.04574585 63.22629547
v -175.25352478 69.26528931 63.52079010
v -175.46051025 69.45912170 63.83171463
v -175.69590759 69.62406921 64.15437317
v -175.96456909 69.75743103 64.48278809
v -176.27017212 69.85700226 64.80989075
v -174.62176514 67.98772430 62.42324829
v -174.79501343 68.27072144 62.62375641
v -174.96612549 68.54434967 62.84457016
v -175.14155579 68.80411530 63.08664322
v -175.32798767 69.04574585 63.34936905
v -175.53198242 69.26528931 63.63060379
v -175.75970459 69.45912170 63.92667389
v -176.01657104 69.62406921 64.23251343
v -176.30702209 69.75743103 64.54183960
v -174.82679749 67.98772430 62.57872772
v -175.01332092 68.27072144 62.76694489
v -175.19909668 68.54434967 62.97557068
v -175.39064026 68.80411530 63.20510483
v -175.59457397 69.04574585 63.45449829
v -175.81729126 69.26528931 63.72115326
v -176.06468201 69.45912170 64.00099182
v -176.34182739 69.62406921 64.28859711
v -175.04196167 67.98772430 62.71985626
v -175.24090576 68.27072144 62.89490509
v -175.44049072 68.54434967 63.09036636
v -175.64724731 68.80411530 63.30629349
v -175.86770630 69.04574585 63.54119110
v -176.10810852 69.26528931 63.79202271
v -176.37402344 69.45912170 64.05432892
v -175.26625061 67.98772430 62.84597015
v -175.47668457 68.27072144 63.00703812
v -175.68913269 68.54434967 63.18842316
v -175.91014099 68.80411530 63.38973618
v -176.14613342 69.04574585 63.60903931
v -176.40309143 69.26528931 63.84288406
v -175.49864197 67.98772430 62.95648575
v -175.71955872 68.27072144 63.10281754
v -175.94389343 68.54434967 63.26927948
v -176.17813110 68.80411530 63.45504379
v -176.42852783 69.04574585 63.65773010
v -175.73802185 67.98772430 63.05088425
v -175.96841431 68.27072144 63.18179703
v -176.20358276 68.54434967 63.33256149
v -176.44995117 68.80411530 63.50190735
v -175.98327637 67.98772430 63.12872696
v -176.22206116 68.27072144 63.24361420
v -176.46697998 68.54434967 63.37797928
v -176.23327637 67.98772430 63.18965149
v -176.47935486 68.27072144 63.28797531
v -176.48686218 67.98772430 63.23337173
v -173.21202087 68.27072144 60.02064514
v -173.12202454 68.54434967 60.03301620
v -173.16743469 68.54434967 60.29641724
v -172.99809265 68.80411530 60.05004883
v -173.04495239 68.80411530 60.32186890
v -173.11026001 68.80411530 60.58985138
v -172.84226990 69.04574585 60.07146835
v -172.89096069 69.04574585 60.35386658
v -172.95881653 69.04574585 60.63228989
v -173.04550171 69.04574585 60.90542984
v -172.65711975 69.26528931 60.09691620
v -172.70797729 69.26528931 60.39189148
v -172.77883911 69.26528931 60.68271255
v -172.86940002 69.26528931 60.96801758
v -172.97920227 69.26528931 61.24647522
v -172.44566345 69.45912170 60.12597656
v -172.49900818 69.45912170 60.43531799
v -172.57333374 69.45912170 60.74029541
v -172.66828918 69.45912170 61.03948975
v -172.78344727 69.45912170 61.33150864
v -172.91825867 69.45912170 61.61498642
v -172.21141052 69.62406921 60.15817642
v -172.26748657 69.62406921 60.48342896
v -172.34562683 69.62406921 60.80409241
v -172.44546509 69.62406921 61.11867905
v -172.56655884 69.62406921 61.42571640
v -172.70829773 69.62406921 61.72377777
v -172.87007141 69.62406921 62.01147079
v -171.95816040 69.75743103 60.19298553
v -172.01721191 69.75743103 60.53543472
v -172.09948730 69.75743103 60.87305832
v -172.20460510 69.75743103 61.20428085
v -172.33209229 69.75743103 61.52755737
v -172.48133850 69.75743103 61.84138107
v -172.65165710 69.75743103 62.14428711
v -172.84223938 69.75743103 62.43486404
v -171.69010925 69.85700226 60.22982788
v -171.75228882 69.85700226 60.59048462
v -171.83894348 69.85700226 60.94606018
v -171.94966125 69.85700226 61.29489136
v -172.08392334 69.85700226 61.63535690
v -172.24110413 69.85700226 61.96586227
v -172.42047119 69.85700226 62.28487396
v -172.62120056 69.85700226 62.59090042
v -172.84233093 69.85700226 62.88251495
v -171.41163635 69.92115784 60.26810074
v -171.47708130 69.92115784 60.64767456
v -171.56828308 69.92115784 61.02189636
v -171.68479919 69.92115784 61.38902283
v -171.82609558 69.92115784 61.74734116
v -171.99153137 69.92115784 62.09518051
v -172.18029785 69.92115784 62.43091965
v -172.39155579 69.92115784 62.75299454
v -172.62428284 69.92115784 63.05990601
v -172.87742615 69.92115784 63.35021591
v -171.12733459 69.94884491 60.30717850
v -171.19610596 69.94884491 60.70606232
v -171.29193115 69.94884491 61.09932327
v -171.41438293 69.94884491 61.48512650
v -171.56288147 69.94884491 61.86167526
v -171.73672485 69.94884491 62.22721100
v -171.93510437 69.94884491 62.58003235
v -172.15710449 69.94884491 62.91849518
v -172.40167236 69.94884491 63.24101639
v -172.66769409 69.94884491 63.54609680
v -172.95390320 69.94884491 63.83230972
v -170.84184265 69.93960571 60.34642029
v -170.91395569 69.93960571 60.76469421
v -171.01445007 69.93960571 61.17707062
v -171.14285278 69.93960571 61.58163071
v -171.29856873 69.93960571 61.97648239
v -171.48086548 69.93960571 62.35978699
v -171.68888855 69.93960571 62.72975922
v -171.92167664 69.93960571 63.08467484
v -172.17813110 69.93960571 63.42287445
v -172.45709229 69.93960571 63.74278641
v -172.75721741 69.93960571 64.04291534
v -173.07711792 69.93960571 64.32186127
v -170.55987549 69.89358521 60.38517380
v -170.63529968 69.89358521 60.82260132
v -170.74038696 69.89358521 61.25386047
v -170.87466431 69.89358521 61.67694092
v -171.03750610 69.89358521 62.08987427
v -171.22814941 69.89358521 62.49073029
v -171.44569397 69.89358521 62.87764359
v -171.68914795 69.89358521 63.24880981
v -171.95735168 69.89358521 63.60249710
v -172.24906921 69.89358521 63.93705368
v -172.56294250 69.89358521 64.25092316
v -172.89750671 69.89358521 64.54264832
v -173.25119019 69.89358521 64.81085205
v -170.28605652 69.81155396 60.42280960
v -170.36466980 69.81155396 60.87883759
v -170.47424316 69.81155396 61.32843018
v -170.61422729 69.81155396 61.76950455
v -170.78399658 69.81155396 62.19999313
v -170.98274231 69.81155396 62.61789322
v -171.20953369 69.81155396 63.02125931
v -171.46333313 69.81155396 63.40820312
v -171.74295044 69.81155396 63.77692795
v -172.04707336 69.81155396 64.12570953
v -172.37428284 69.81155396 64.45292664
v -172.72306824 69.81155396 64.75704956
v -173.09179688 69.81155396 65.03666687
v -173.47874451 69.81155396 65.29045868
v -170.02487183 69.69484711 60.45870972
v -170.10655212 69.69484711 60.93247604
v -170.22038269 69.69484711 61.39956284
v -170.36581421 69.69484711 61.85779190
v -170.54217529 69.69484711 62.30502701
v -170.74865723 69.69484711 62.73918533
v -170.98428345 69.69484711 63.15824127
v -171.24795532 69.69484711 63.56023788
v -171.53843689 69.69484711 63.94330978
v -171.85440063 69.69484711 64.30565643
v -172.19433594 69.69484711 64.64560699
v -172.55668640 69.69484711 64.96155548
v -172.93975830 69.69484711 65.25205231
v -173.34176636 69.69484711 65.51571655
v -173.76081848 69.69484711 65.75134277
v -169.78060913 69.54538727 60.49228287
v -169.86515808 69.54538727 60.98263550
v -169.98297119 69.54538727 61.46607971
v -170.13349915 69.54538727 61.94035721
v -170.31604004 69.54538727 62.40325165
v -170.52975464 69.54538727 62.85261536
v -170.77362061 69.54538727 63.28634644
v -171.04652405 69.54538727 63.70241928
v -171.34718323 69.54538727 64.09889984
v -171.67420959 69.54538727 64.47394562
v -172.02606201 69.54538727 64.82579041
v -172.40109253 69.54538727 65.15280914
v -172.79757690 69.54538727 65.45347595
v -173.21365356 69.54538727 65.72637939
v -173.64738464 69.54538727 65.97025299
v -174.09674072 69.54538727 66.18395996
v -169.55729675 69.36562347 60.52297592
v -169.64445496 69.36562347 61.02849960
v -169.76591492 69.36562347 61.52689743
v -169.92109680 69.36562347 62.01584244
v -170.10928345 69.36562347 62.49305725
v -170.32960510 69.36562347 62.95632172
v -170.58102417 69.36562347 63.40346527
v -170.86236572 69.36562347 63.83241272
v -171.17233276 69.36562347 64.24115753
v -171.50946045 69.36562347 64.62779999
v -171.87219238 69.36562347 64.99053192
v -172.25883484 69.36562347 65.32766724
v -172.66758728 69.36562347 65.63763428
v -173.09652710 69.36562347 65.91897583
v -173.54368591 69.36562347 66.17039490
v -174.00694275 69.36562347 66.39070892
v -174.48416138 69.36562347 66.57890320
v -169.35858154 69.15851593 60.55028915
v -169.44807434 69.15851593 61.06930923
v -169.57276917 69.15851593 61.58101273
v -169.73210144 69.15851593 62.08301163
v -169.92532349 69.15851593 62.57296753
v -170.15151978 69.15851593 63.04859924
v -170.40965271 69.15851593 63.50768280
v -170.69850159 69.15851593 63.94808197
v -171.01673889 69.15851593 64.36774445
v -171.36288452 69.15851593 64.76470184
v -171.73529053 69.15851593 65.13712311
v -172.13226318 69.15851593 65.48326111
v -172.55192566 69.15851593 65.80149841
v -172.99232483 69.15851593 66.09035492
v -173.45140076 69.15851593 66.34848022
v -173.92703247 69.15851593 66.57468414
v -174.41699219 69.15851593 66.76789856
v -174.91899109 69.15851593 66.92722321
v -169.18774414 68.92745209 60.57376862
v -169.27923584 68.92745209 61.10439301
v -169.40672302 68.92745209 61.62753677
v -169.56961060 68.92745209 62.14075851
v -169.76715088 68.92745209 62.64167023
v -169.99839783 68.92745209 63.12793350
v -170.26231384 68.92745209 63.59728241
v -170.55761719 68.92745209 64.04752350
v -170.88298035 68.92745209 64.47657013
v -171.23684692 68.92745209 64.88240814
v -171.61759949 68.92745209 65.26315308
v -172.02343750 68.92745209 65.61702728
v -172.45246887 68.92745209 65.94237518
v -172.90272522 68.92745209 66.23769379
v -173.37207031 68.92745209 66.50159454
v -173.85832214 68.92745209 66.73284912
v -174.35923767 68.92745209 66.93038177
v -174.87246704 68.92745209 67.09327698
v -175.39561462 68.92745209 67.22076416
v -169.04759216 68.67623901 60.59303284
v -169.14071655 68.67623901 61.13317871
v -169.27049255 68.67623901 61.66570663
v -169.43629456 68.67623901 62.18813705
v -169.63737488 68.67623901 62.69803619
v -169.87278748 68.67623901 63.19302368
v -170.14141846 68.67623901 63.67079544
v -170.44203186 68.67623901 64.12911987
v -170.77322388 68.67623901 64.56585693
v -171.13345337 68.67623901 64.97897339
v -171.52102661 68.67623901 65.36655426
v -171.93414307 68.67623901 65.72677612
v -172.37088013 68.67623901 66.05796814
v -172.82920837 68.67623901 66.35858154
v -173.30697632 68.67623901 66.62721252
v -173.80195618 68.67623901 66.86261749
v -174.31185913 68.67623901 67.06369781
v -174.83428955 68.67623901 67.22950745
v -175.36682129 68.67623901 67.35928345
v -175.90696716 68.67623901 67.45241547
v -168.94039917 68.40899658 60.60776520
v -169.03479004 68.40899658 61.15518951
v -169.16630554 68.40899658 61.69489670
v -169.33435059 68.40899658 62.22437286
v -169.53814697 68.40899658 62.74114227
v -169.77671814 68.40899658 63.24280167
v -170.04898071 68.40899658 63.72700882
v -170.35363770 68.40899658 64.19151306
v -170.68930054 68.40899658 64.63414001
v -171.05438232 68.40899658 65.05282593
v -171.44717407 68.40899658 65.44562531
v -171.86585999 68.40899658 65.81069946
v -172.30848694 68.40899658 66.14635468
v -172.77299500 68.40899658 66.45101929
v -173.25720215 68.40899658 66.72328186
v -173.75885010 68.40899658 66.96186066
v -174.27563477 68.40899658 67.16564941
v -174.80509949 68.40899658 67.33369446
v -175.34480286 68.40899658 67.46521759
v -175.89222717 68.40899658 67.55960083
v -168.86795044 68.13010406 60.61772537
v -168.96318054 68.13010406 61.17007065
v -169.09588623 68.13010406 61.71463013
v -169.26544189 68.13010406 62.24886322
v -169.47106934 68.13010406 62.77027893
v -169.71179199 68.13010406 63.27644730
v -169.98649597 68.13010406 63.76501083
v -170.29389954 68.13010406 64.23368835
v -170.63256836 68.13010406 64.68029022
v -171.00093079 68.13010406 65.10274506
v -171.39726257 68.13010406 65.49906921
v -171.81970215 68.13010406 65.86743164
v -172.26631165 68.13010406 66.20610046
v -172.73498535 68.13010406 66.51351166
v -173.22355652 68.13010406 66.78821564
v -173.72972107 68.13010406 67.02893829
v -174.25114441 68.13010406 67.23455811
v -174.78536987 68.13010406 67.40411377
v -175.32992554 68.13010406 67.53681946
v -175.88227844 68.13010406 67.63205719
v -168.83142090 67.84415436 60.62274551
v -168.92707825 67.84415436 61.17757034
v -169.06037903 67.84415436 61.72457504
v -169.23069763 67.84415436 62.26120758
v -169.43724060 67.84415436 62.78496552
v -169.67904663 67.84415436 63.29341125
v -169.95498657 67.84415436 63.78416443
v -170.26377869 67.84415436 64.25494385
v -170.60397339 67.84415436 64.70355988
v -170.97398376 67.84415436 65.12790680
v -171.37208557 67.84415436 65.52601624
v -171.79644775 67.84415436 65.89603424
v -172.24505615 67.84415436 66.23622131
v -172.71583557 67.84415436 66.54501343
v -173.20658875 67.84415436 66.82094574
v -173.71502686 67.84415436 67.06275177
v -174.23878479 67.84415436 67.26929474
v -174.77542114 67.84415436 67.43961334
v -175.32243347 67.84415436 67.57291412
v -175.87725830 67.84415436 67.66857910
v -168.83142090 67.55583954 60.62274551
v -168.92707825 67.55583954 61.17757034
v -169.06037903 67.55583954 61.72457504
v -169.23069763 67.55583954 62.26120758
v -169.43724060 67.55583954 62.78496552
v -169.67904663 67.55583954 63.29341125
v -169.95498657 67.55583954 63.78416443
v -170.26377869 67.55583954 64.25494385
v -170.60397339 67.55583954 64.70355988
v -170.97398376 67.55583954 65.12790680
v -171.37208557 67.55583954 65.52601624
v -171.79644775 67.55583954 65.89603424
v -172.24505615 67.55583954 66.23622131
v -172.71583557 67.55583954 66.54501343
v -173.20658875 67.55583954 66.82094574
v -173.71502686 67.55583954 67.06275177
v -174.23878479 67.55583954 67.26929474
v -174.77542114 67.55583954 67.43961334
v -175.32243347 67.55583954 67.57291412
v -175.87725830 67.55583954 67.66857910
v -168.86795044 67.26988983 60.61772537
v -168.96318054 67.26988983 61.17007065
v -169.09588623 67.26988983 61.71463013
v -169.26544189 67.26988983 62.24886322
v -169.47106934 67.26988983 62.77027893
v -169.71179199 67.26988983 63.27644730
v -169.98649597 67.26988983 63.76501083
v -170.29389954 67.26988983 64.23368835
v -170.63256836 67.26988983 64.68029022
v -171.00093079 67.26988983 65.10274506
v -171.39726257 67.26988983 65.49906921
v -171.81970215 67.26988983 65.86743164
v -172.26631165 67.26988983 66.20610046
v -172.73498535 67.26988983 66.51351166
v -173.22355652 67.26988983 66.78821564
v -173.72972107 67.26988983 67.02893829
v -174.25114441 67.26988983 67.23455811
v -174.78536987 67.26988983 67.40411377
v -175.32992554 67.26988983 67.53681946
v -175.88227844 67.26988983 67.63205719
v -168.94039917 66.99100494 60.60776520
v -169.03479004 66.99100494 61.15518951
v -169.16630554 66.99100494 61.69489670
v -169.33435059 66.99100494 62.22437286
v -169.53814697 66.99100494 62.74114227
v -169.77671814 66.99100494 63.24280167
v -170.04898071 66.99100494 63.72700882
v -170.35363770 66.99100494 64.19151306
v -170.68930054 66.99100494 64.63414001
v -171.05438232 66.99100494 65.05282593
v -171.44717407 66.99100494 65.44562531
v -171.86585999 66.99100494 65.81069946
v -172.30848694 66.99100494 66.14635468
v -172.77299500 66.99100494 66.45101929
v -173.25720215 66.99100494 66.72328186
v -173.75885010 66.99100494 66.96186066
v -174.27563477 66.99100494 67.16564941
v -174.80509949 66.99100494 67.33369446
v -175.34480286 66.99100494 67.46521759
v -175.89222717 66.99100494 67.55960083
v -169.04759216 66.72376251 60.59303284
v -169.14071655 66.72376251 61.13317871
v -169.27049255 66.72376251 61.66570663
v -169.43629456 66.72376251 62.18813705
v -169.63737488 66.72376251 62.69803619
v -169.87278748 66.72376251 63.19302368
v -170.14141846 66.72376251 63.67079544
v -170.44203186 66.72376251 64.12911987
v -170.77322388 66.72376251 64.56585693
v -171.13345337 66.72376251 64.97897339
v -171.52102661 66.72376251 65.36655426
v -171.93414307 66.72376251 65.72677612
v -172.37088013 66.72376251 66.05796814
v -172.82920837 66.72376251 66.35858154
v -173.30697632 66.72376251 66.62721252
v -173.80195618 66.72376251 66.86261749
v -174.31185913 66.72376251 67.06369781
v -174.83428955 66.72376251 67.22950745
v -175.36682129 66.72376251 67.35928345
v -175.90696716 66.72376251 67.45241547
v -169.18774414 66.47254944 60.57376862
v -169.27923584 66.47254944 61.10439301
v -169.40672302 66.47254944 61.62753677
v -169.56961060 66.47254944 62.14075851
v -169.76715088 66.47254944 62.64167023
v -169.99839783 66.47254944 63.12793350
v -170.26231384 66.47254944 63.59728241
v -170.55761719 66.47254944 64.04752350
v -170.88298035 66.47254944 64.47657013
v -171.23684692 66.47254944 64.88240814
v -171.61759949 66.47254944 65.26315308
v -172.02343750 66.47254944 65.61702728
v -172.45246887 66.47254944 65.94237518
v -172.90272522 66.47254944 66.23769379
v -173.37207031 66.47254944 66.50159454
v -173.85832214 66.47254944 66.73284912
v -174.35923767 66.47254944 66.93038177
v -174.87246704 66.47254944 67.09327698
v -175.39561462 66.47254944 67.22076416
v -175.92622375 66.47254944 67.31224823
v -169.35858154 66.24148560 60.55028915
v -169.44807434 66.24148560 61.06930923
v -169.57276917 66.24148560 61.58101273
v -169.73210144 66.24148560 62.08301163
v -169.92532349 66.24148560 62.57296753
v -170.15151978 66.24148560 63.04859924
v -170.40965271 66.24148560 63.50768280
v -170.69850159 66.24148560 63.94808197
v -171.01673889 66.24148560 64.36774445
v -171.36288452 66.24148560 64.76470184
v -171.73529053 66.24148560 65.13712311
v -172.13226318 66.24148560 65.48326111
v -172.55192566 66.24148560 65.80149841
v -172.99232483 66.24148560 66.09035492
v -173.45140076 66.24148560 66.34848022
v -173.92703247 66.24148560 66.57468414
v -174.41699219 66.24148560 66.76789856
v -174.91899109 66.24148560 66.92722321
v -175.43069458 66.24148560 67.05192566
v -175.94970703 66.24148560 67.14141083
v -169.55729675 66.03437805 60.52297592
v -169.64445496 66.03437805 61.02849960
v -169.76591492 66.03437805 61.52689743
v -169.92109680 66.03437805 62.01584244
v -170.10928345 66.03437805 62.49305725
v -170.32960510 66.03437805 62.95632172
v -170.58102417 66.03437805 63.40346527
v -170.86236572 66.03437805 63.83241272
v -171.17233276 66.03437805 64.24115753
v -171.50946045 66.03437805 64.62779999
v -171.87219238 66.03437805 64.99053192
v -172.25883484 66.03437805 65.32766724
v -172.66758728 66.03437805 65.63763428
v -173.09652710 66.03437805 65.91897583
v -173.54368591 66.03437805 66.17039490
v -174.00694275 66.03437805 66.39070892
v -174.48416138 66.03437805 66.57890320
v -174.97309875 66.03437805 66.73408508
v -175.47149658 66.03437805 66.85554504
v -175.97702026 66.03437805 66.94270325
v -169.78060913 65.85461426 60.49228287
v -169.86515808 65.85461426 60.98263550
v -169.98297119 65.85461426 61.46607971
v -170.13349915 65.85461426 61.94035721
v -170.31604004 65.85461426 62.40325165
v -170.52975464 65.85461426 62.85261536
v -170.77362061 65.85461426 63.28634644
v -171.04652405 65.85461426 63.70241928
v -171.34718323 65.85461426 64.09889984
v -171.67420959 65.85461426 64.47394562
v -172.02606201 65.85461426 64.82579041
v -172.40109253 65.85461426 65.15280914
v -172.79757690 65.85461426 65.45347595
v -173.21365356 65.85461426 65.72637939
v -173.64738464 65.85461426 65.97025299
v -174.09674072 65.85461426 66.18395996
v -174.55964661 65.85461426 66.36650085
v -175.03392029 65.85461426 66.51702881
v -175.51736450 65.85461426 66.63484192
v -176.00772095 65.85461426 66.71939087
v -170.02487183 65.70515442 60.45870972
v -170.10655212 65.70515442 60.93247604
v -170.22038269 65.70515442 61.39956284
v -170.36581421 65.70515442 61.85779190
v -170.54217529 65.70515442 62.30502701
v -170.74865723 65.70515442 62.73918533
v -170.98428345 65.70515442 63.15824127
v -171.24795532 65.70515442 63.56023788
v -171.53843689 65.70515442 63.94330978
v -171.85440063 65.70515442 64.30565643
v -172.19433594 65.70515442 64.64560699
v -172.55668640 65.70515442 64.96155548
v -172.93975830 65.70515442 65.25205231
v -173.34176636 65.70515442 65.51571655
v -173.76081848 65.70515442 65.75134277
v -174.19497681 65.70515442 65.95781708
v -174.64221191 65.70515442 66.13418579
v -175.10043335 65.70515442 66.27962494
v -175.56752014 65.70515442 66.39344788
v -176.04129028 65.70515442 66.47513580
v -170.28605652 65.58844757 60.42280960
v -170.36466980 65.58844757 60.87883759
v -170.47424316 65.58844757 61.32843018
v -170.61422729 65.58844757 61.76950455
v -170.78399658 65.58844757 62.19999313
v -170.98274231 65.58844757 62.61789322
v -171.20953369 65.58844757 63.02125931
v -171.46333313 65.58844757 63.40820312
v -171.74295044 65.58844757 63.77692795
v -172.04707336 65.58844757 64.12570953
v -172.37428284 65.58844757 64.45292664
v -172.72306824 65.58844757 64.75704956
v -173.09179688 65.58844757 65.03666687
v -173.47874451 65.58844757 65.29045868
v -173.88211060 65.58844757 65.51725769
v -174.30000305 65.58844757 65.71600342
v -174.73049927 65.58844757 65.88577271
v -175.17156982 65.58844757 66.02575684
v -175.62117004 65.58844757 66.13532257
v -176.07719421 65.58844757 66.21395111
v -170.55987549 65.50640869 60.38517380
v -170.63529968 65.50640869 60.82260132
v -170.74038696 65.50640869 61.25386047
v -170.87466431 65.50640869 61.67694092
v -171.03750610 65.50640869 62.08987427
v -171.22814941 65.50640869 62.49073029
v -171.44569397 65.50640869 62.87764359
v -171.68914795 65.50640869 63.24880981
v -171.95735168 65.50640869 63.60249710
v -172.24906921 65.50640869 63.93705368
v -172.56294250 65.50640869 64.25092316
v -172.89750671 65.50640869 64.54264832
v -173.25119019 65.50640869 64.81085205
v -173.62236023 65.50640869 65.05429840
v -174.00926208 65.50640869 65.27185059
v -174.41012573 65.50640869 65.46248627
v -174.82305908 65.50640869 65.62532806
v -175.24613953 65.50640869 65.75961304
v -175.67739868 65.50640869 65.86470795
v -176.11482239 65.50640869 65.94012451
v -170.84184265 65.46039581 60.34642029
v -170.91395569 65.46039581 60.76469421
v -171.01445007 65.46039581 61.17707062
v -171.14285278 65.46039581 61.58163071
v -171.29856873 65.46039581 61.97648239
v -171.48086548 65.46039581 62.35978699
v -171.68888855 65.46039581 62.72975922
v -171.92167664 65.46039581 63.08467484
v -172.17813110 65.46039581 63.42287445
v -172.45709229 65.46039581 63.74278641
v -172.75721741 65.46039581 64.04291534
v -173.07711792 65.46039581 64.32186127
v -173.41532898 65.46039581 64.57833099
v -173.77023315 65.46039581 64.81111908
v -174.14021301 65.46039581 65.01914215
v -174.52351379 65.46039581 65.20143127
v -174.91836548 65.46039581 65.35713959
v -175.32292175 65.46039581 65.48554230
v -175.73530579 65.46039581 65.58603668
v -176.15357971 65.46039581 65.65815735
v -171.12733459 65.45115662 60.30717850
v -171.19610596 65.45115662 60.70606232
v -171.29193115 65.45115662 61.09932327
v -171.41438293 65.45115662 61.48512650
v -171.56288147 65.45115662 61.86167526
v -171.73672485 65.45115662 62.22721100
v -171.93510437 65.45115662 62.58003235
v -172.15710449 65.45115662 62.91849518
v -172.40167236 65.45115662 63.24101639
v -172.66769409 65.45115662 63.54609680
v -172.95390320 65.45115662 63.83230972
v -173.25898743 65.45115662 64.09832764
v -173.58151245 65.45115662 64.34290314
v -173.91996765 65.45115662 64.56489563
v -174.27278137 65.45115662 64.76328278
v -174.63832092 65.45115662 64.93711853
v -175.01487732 65.45115662 65.08561707
v -175.40068054 65.45115662 65.20806122
v -175.79393005 65.45115662 65.30389404
v -176.19282532 65.45115662 65.37267303
v -171.41163635 65.47884369 60.26810074
v -171.47708130 65.47884369 60.64767456
v -171.56828308 65.47884369 61.02189636
v -171.68479919 65.47884369 61.38902283
v -171.82609558 65.47884369 61.74734116
v -171.99153137 65.47884369 62.09518051
v -172.18029785 65.47884369 62.43091965
v -172.39155579 65.47884369 62.75299454
v -172.62428284 65.47884369 63.05990601
v -172.87742615 65.47884369 63.35021591
v -173.14978027 65.47884369 63.62257385
v -173.44009399 65.47884369 63.87570953
v -173.74700928 65.47884369 64.10844421
v -174.06907654 65.47884369 64.31969452
v -174.40481567 65.47884369 64.50846863
v -174.75265503 65.47884369 64.67389679
v -175.11097717 65.47884369 64.81520081
v -175.47810364 65.47884369 64.93171692
v -175.85232544 65.47884369 65.02291870
v -176.23190308 65.47884369 65.08836365
v -171.69010925 65.54299927 60.22982788
v -171.75228882 65.54299927 60.59048462
v -171.83894348 65.54299927 60.94606018
v -171.94966125 65.54299927 61.29489136
v -172.08392334 65.54299927 61.63535690
v -172.24110413 65.54299927 61.96586227
v -172.42047119 65.54299927 62.28487396
v -172.62120056 65.54299927 62.59090042
v -172.84233093 65.54299927 62.88251495
v -173.08285522 65.54299927 63.15835571
v -173.34164429 65.54299927 63.41714478
v -173.61749268 65.54299927 63.65766907
v -173.90910339 65.54299927 63.87880707
v -174.21513367 65.54299927 64.07952881
v -174.53413391 65.54299927 64.25889587
v -174.86463928 65.54299927 64.41608429
v -175.20510864 65.54299927 64.55033875
v -175.55393982 65.54299927 64.66105652
v -175.90951538 65.54299927 64.74771118
v -176.27017212 65.54299927 64.80989075
v -171.95816040 65.64257050 60.19298553
v -172.01721191 65.64257050 60.53543472
v -172.09948730 65.64257050 60.87305832
v -172.20460510 65.64257050 61.20428085
v -172.33209229 65.64257050 61.52755737
v -172.48133850 65.64257050 61.84138107
v -172.65165710 65.64257050 62.14428711
v -172.84223938 65.64257050 62.43486404
v -173.05221558 65.64257050 62.71175766
v -173.28060913 65.64257050 62.97367477
v -173.52632141 65.64257050 63.21939850
v -173.78823853 65.64257050 63.44778061
v -174.06513977 65.64257050 63.65775299
v -174.35571289 65.64257050 63.84834290
v -174.65861511 65.64257050 64.01866150
v -174.97244263 65.64257050 64.16790771
v -175.29571533 65.64257050 64.29538727
v -175.62693787 65.64257050 64.40051270
v -175.96456909 65.64257050 64.48278809
v -176.30702209 65.64257050 64.54183960
v -172.21141052 65.77593231 60.15817642
v -172.26748657 65.77593231 60.48342896
v -172.34562683 65.77593231 60.80409241
v -172.44546509 65.77593231 61.11867905
v -172.56655884 65.77593231 61.42571640
v -172.70829773 65.77593231 61.72377777
v -172.87007141 65.77593231 62.01147079
v -173.05108643 65.77593231 62.28745270
v -173.25050354 65.77593231 62.55043793
v -173.46742249 65.77593231 62.79920197
v -173.70080566 65.77593231 63.03258133
v -173.94956970 65.77593231 63.24949265
v -174.21255493 65.77593231 63.44892120
v -174.48852539 65.77593231 63.62993622
v -174.77621460 65.77593231 63.79169846
v -175.07427979 65.77593231 63.93344879
v -175.38131714 65.77593231 64.05452728
v -175.69590759 65.77593231 64.15437317
v -176.01657104 65.77593231 64.23251343
v -176.34182739 65.77593231 64.28859711
v -172.44566345 65.94087982 60.12597656
v -172.49900818 65.94087982 60.43531799
v -172.57333374 65.94087982 60.74029541
v -172.66828918 65.94087982 61.03948975
v -172.78344727 65.94087982 61.33150864
v -172.91825867 65.94087982 61.61498642
v -173.07211304 65.94087982 61.88860321
v -173.24426270 65.94087982 62.15108490
v -173.43394470 65.94087982 62.40120316
v -173.64024353 65.94087982 62.63779831
v -173.86219788 65.94087982 62.85976028
v -174.09880066 65.94087982 63.06605911
v -174.34892273 65.94087982 63.25572968
v -174.61138916 65.94087982 63.42789078
v -174.88500977 65.94087982 63.58174133
v -175.16848755 65.94087982 63.71655655
v -175.46051025 65.94087982 63.83171463
v -175.75970459 65.94087982 63.92667389
v -176.06468201 65.94087982 64.00099182
v -176.37402344 65.94087982 64.05432892
v -172.65711975 66.13471222 60.09691620
v -172.70797729 66.13471222 60.39189148
v -172.77883911 66.13471222 60.68271255
v -172.86940002 66.13471222 60.96801758
v -172.97920227 66.13471222 61.24647522
v -173.10775757 66.13471222 61.51679230
v -173.25447083 66.13471222 61.77770615
v -173.41864014 66.13471222 62.02799988
v -173.59950256 66.13471222 62.26651001
v -173.79621887 66.13471222 62.49211884
v -174.00788879 66.13471222 62.70377731
v -174.23348999 66.13471222 62.90049744
v -174.47200012 66.13471222 63.08136368
v -174.72229004 66.13471222 63.24552917
v -174.98320007 66.13471222 63.39223480
v -175.25352478 66.13471222 63.52079010
v -175.53198242 66.13471222 63.63060379
v -175.81729126 66.13471222 63.72115326
v -176.10810852 66.13471222 63.79202271
v -176.40309143 66.13471222 63.84288406
v -172.84226990 66.35424805 60.07146835
v -172.89096069 66.35424805 60.35386658
v -172.95881653 66.35424805 60.63228989
v -173.04550171 66.35424805 60.90542984
v -173.15063477 66.35424805 61.17201614
v -173.27371216 66.35424805 61.43080902
v -173.41415405 66.35424805 61.68059921
v -173.57131958 66.35424805 61.92022324
v -173.74447632 66.35424805 62.14856339
v -173.93281555 66.35424805 62.36455154
v -174.13545227 66.35424805 62.56718826
v -174.35144043 66.35424805 62.75551987
v -174.57977295 66.35424805 62.92867661
v -174.81939697 66.35424805 63.08584213
v -175.06918335 66.35424805 63.22629547
v -175.32798767 66.35424805 63.34936905
v -175.59457397 66.35424805 63.45449829
v -175.86770630 66.35424805 63.54119110
v -176.14613342 66.35424805 63.60903931
v -176.42852783 66.35424805 63.65773010
v -172.99809265 66.59588623 60.05004883
v -173.04495239 66.59588623 60.32186890
v -173.11026001 66.59588623 60.58985138
v -173.19371033 66.59588623 60.85275650
v -173.29489136 66.59588623 61.10935593
v -173.41336060 66.59588623 61.35844803
v -173.54853821 66.59588623 61.59887695
v -173.69982910 66.59588623 61.82951736
v -173.86648560 66.59588623 62.04930115
v -174.04776001 66.59588623 62.25719452
v -174.24279785 66.59588623 62.45223618
v -174.45069885 66.59588623 62.63351059
v -174.67048645 66.59588623 62.80017853
v -174.90112305 66.59588623 62.95145416
v -175.14155579 66.59588623 63.08664322
v -175.39064026 66.59588623 63.20510483
v -175.64724731 66.59588623 63.30629349
v -175.91014099 66.59588623 63.38973618
v -176.17813110 66.59588623 63.45504379
v -176.44995117 66.59588623 63.50190735
v -173.12202454 66.85565186 60.03301620
v -173.16743469 66.85565186 60.29641724
v -173.23072815 66.85565186 60.55610275
v -173.31158447 66.85565186 60.81086349
v -173.40963745 66.85565186 61.05951691
v -173.52442932 66.85565186 61.30089569
v -173.65542603 66.85565186 61.53387833
v -173.80201721 66.85565186 61.75737762
v -173.96353149 66.85565186 61.97035599
v -174.13919067 66.85565186 62.17181015
v -174.32818604 66.85565186 62.36081314
v -174.52964783 66.85565186 62.53647232
v -174.74261475 66.85565186 62.69797897
v -174.96612549 66.85565186 62.84457016
v -175.19909668 66.85565186 62.97557068
v -175.44049072 66.85565186 63.09036636
v -175.68913269 66.85565186 63.18842316
v -175.94389343 66.85565186 63.26927948
v -176.20358276 66.85565186 63.33256149
v -176.46697998 66.85565186 63.37797928
v -173.21202087 67.12928009 60.02064514
v -173.25639343 67.12928009 60.27793121
v -173.31820679 67.12928009 60.53158951
v -173.39718628 67.12928009 60.78044128
v -173.49296570 67.12928009 61.02331924
v -173.60508728 67.12928009 61.25909805
v -173.73304749 67.12928009 61.48667526
v -173.87625122 67.12928009 61.70498657
v -174.03399658 67.12928009 61.91302109
v -174.20558167 67.12928009 62.10980225
v -174.39019775 67.12928009 62.29441452
v -174.58697510 67.12928009 62.46599960
v -174.79501343 67.12928009 62.62375641
v -175.01332092 67.12928009 62.76694489
v -175.24090576 67.12928009 62.89490509
v -175.47668457 67.12928009 63.00703812
v -175.71955872 67.12928009 63.10281754
v -175.96841431 67.12928009 63.18179703
v -176.22206116 67.12928009 63.24361420
v -176.47935486 67.12928009 63.28797531
v -181.00000000 67.41227722 63.26847076
v -181.00000000 67.69999695 63.25000000
v -181.00000000 67.98772430 63.26847076
v -181.00000000 68.27072144 63.32358551
v -181.00000000 68.54434967 63.41443634
v -181.00000000 68.80411530 63.53953171
v -181.00000000 69.04574585 63.69681931
v -181.00000000 69.26528931 63.88371277
v -181.00000000 69.45912170 64.09714508
v -181.00000000 69.62406921 64.33361816
v -181.00000000 69.75743103 64.58924103
v -181.00000000 69.85700226 64.85980988
v -181.00000000 69.92115784 65.14089966
v -181.00000000 69.94884491 65.42788696
v -181.00000000 69.93960571 65.71604919
v -181.00000000 69.89358521 66.00067139
v -181.00000000 69.81155396 66.27706909
v -181.00000000 69.69484711 66.54071045
v -181.00000000 69.54538727 66.78726196
v -181.00000000 69.36562347 67.01268005
v -181.00000000 69.15851593 67.21325684
v -181.00000000 68.92745209 67.38569641
v -181.00000000 68.67623901 67.52718353
v -181.00000000 68.40899658 67.63537598
v -181.00000000 68.13010406 67.70851135
v -181.00000000 67.84415436 67.74537659
v -181.00000000 67.55583954 67.74537659
v -181.00000000 67.26988983 67.70851135
v -181.00000000 66.99100494 67.63537598
v -181.00000000 66.72376251 67.52718353
v -181.00000000 66.47254944 67.38569641
v -181.00000000 66.24148560 67.21325684
v -181.00000000 66.03437805 67.01268005
v -181.00000000 65.85461426 66.78726196
v -181.00000000 65.70515442 66.54071045
v -181.00000000 65.58844757 66.27706909
v -181.00000000 65.50640869 66.00067139
v -181.00000000 65.46039581 65.71604919
v -181.00000000 65.45115662 65.42788696
v -181.00000000 65.47884369 65.14089966
v -181.00000000 65.54299927 64.85980988
v -181.00000000 65.64257050 64.58924103
v -181.00000000 65.77593231 64.33361816
v -181.00000000 65.94087982 64.09714508
v -181.00000000 66.13471222 63.88371277
v -181.00000000 66.35424805 63.69681931
v -181.00000000 66.59588623 63.53953171
v -181.00000000 66.85565186 63.41443634
v -181.00000000 67.12928009 63.32358551
v -181.00000000 67.41227722 63.26847076
v -181.00000000 67.69999695 63.25000000
v -181.00000000 67.98772430 63.26847076
v -181.00000000 68.27072144 63.32358551
v -181.00000000 68.54434967 63.41443634
v -181.00000000 68.80411530 63.53953171
v -181.00000000 69.04574585 63.69681931
v -181.00000000 69.26528931 63.88371277
v -181.00000000 69.45912170 64.09714508
v -181.00000000 69.62406921 64.33361816
v -181.00000000 69.75743103 64.58924103
v -181.00000000 69.85700226 64.85980988
v -181.00000000 69.92115784 65.14089966
v -181.00000000 69.94884491 65.42788696
v -181.00000000 69.93960571 65.71604919
v -181.00000000 69.89358521 66.00067139
v -181.00000000 69.81155396 66.27706909
v -181.00000000 69.69484711 66.54071045
v -181.00000000 69.54538727 66.78726196
v -181.00000000 69.36562347 67.01268005
v -181.00000000 69.15851593 67.21325684
v -181.00000000 68.92745209 67.38569641
v -181.00000000 68.67623901 67.52718353
v -181.00000000 68.40899658 67.63537598
v -181.00000000 68.13010406 67.70851135
v -181.00000000 67.84415436 67.74537659
v -181.00000000 67.55583954 67.74537659
v -181.00000000 67.26988983 67.70851135
v -181.00000000 66.99100494 67.63537598
v -181.00000000 66.72376251 67.52718353
v -181.00000000 66.47254944 67.38569641
v -181.00000000 66.24148560 67.21325684
v -181.00000000 66.03437805 67.01268005
v -181.00000000 65.85461426 66.78726196
v -181.00000000 65.70515442 66.54071045
v -181.00000000 65.58844757 66.27706909
v -181.00000000 65.50640869 66.00067139
v -181.00000000 65.46039581 65.71604919
v -181.00000000 65.45115662 65.42788696
v -181.00000000 65.47884369 65.14089966
v -181.00000000 65.54299927 64.85980988
v -181.00000000 65.64257050 64.58924103
v -181.00000000 65.77593231 64.33361816
v -181.00000000 65.94087982 64.09714508
v -181.00000000 66.13471222 63.88371277
v -181.00000000 66.35424805 63.69681931
v -181.00000000 66.59588623 63.53953171
v -181.00000000 66.85565186 63.41443634
v -181.00000000 67.12928009 63.32358551
f 1 2 3
f 3 2 4
f 4 2 5
f 4 5 6
f 6 5 7
f 6 7 8
f 8 7 9
f 8 9 10
f 10 9 11
f 10 11 12
f 12 11 13
f 12 13 14
f 14 13 15
f 14 15 16
f 16 15 17
f 16 17 18
f 18 17 19
f 18 19 20
f 20 19 21
f 20 21 22
f 22 21 23
f 22 23 24
f 24 23 25
f 24 25 26
f 26 25 27
f 26 27 28
f 28 27 29
f 28 29 30
f 30 29 31
f 30 31 32
f 32 31 33
f 32 33 34
f 34 33 35
f 34 35 36
f 36 35 37
f 36 37 38
f 38 37 39
f 38 39 40
f 40 39 41
f 40 41 42
f 42 41 43
f 42 43 44
f 44 43 45
f 44 45 46
f 46 45 47
f 46 47 48
f 48 47 49
f 99 100 101
f 101 100 102
f 101 102 103
f 103 102 104
f 103 104 105
f 105 104 106
f 105 106 107
f 107 106 108
f 107 108 109
f 109 108 110
f 109 110 111
f 111 110 112
f 111 112 113
f 113 112 114
f 113 114 115
f 115 114 116
f 115 116 117
f 117 116 118
f 117 118 119
f 119 118 120
f 119 120 121
f 121 120 122
f 121 122 123
f 123 122 124
f 123 124 125
f 125 124 126
f 125 126 127
f 127 126 128
f 127 128 129
f 129 128 130
f 129 130 131
f 131 130 132
f 131 132 133
f 133 132 134
f 133 134 135
f 135 134 136
f 135 136 137
f 137 136 138
f 137 138 139
f 139 138 140
f 139 140 141
f 141 140 142
f 141 142 143
f 143 142 144
f 143 144 145
f 145 144 146
f 145 146 147
f 147 146 148
f 147 148 149
f 149 148 150
f 149 150 151
f 151 150 152
f 151 152 153
f 153 152 154
f 153 154 155
f 155 154 156
f 155 156 157
f 157 156 158
f 157 158 159
f 159 158 160
f 159 160 161
f 161 160 162
f 161 162 163
f 163 162 164
f 163 164 165
f 165 164 166
f 165 166 167
f 167 166 168
f 167 168 169
f 169 168 170
f 169 170 171
f 171 170 172
f 171 172 173
f 173 172 174
f 173 174 175
f 175 174 176
f 175 176 177
f 177 176 178
f 177 178 179
f 179 178 180
f 179 180 181
f 181 180 182
f 181 182 183
f 183 182 184
f 183 184 185
f 185 184 186
f 185 186 187
f 187 186 188
f 187 188 189
f 189 188 190
f 189 190 191
f 191 190 192
f 191 192 193
f 193 192 194
f 193 194 195
f 195 194 196
f 195 196 99
f 99 196 100
f 52 197 50
f 50 197 198
f 50 198 51
f 51 198 199
f 51 199 54
f 54 199 200
f 54 200 56
f 56 200 201
f 56 201 58
f 58 201 202
f 58 202 60
f 60 202 203
f 60 203 62
f 62 203 204
f 62 204 64
f 64 204 205
f 64 205 66
f 66 205 206
f 66 206 68
f 68 206 207
f 68 207 70
f 70 207 208
f 70 208 72
f 72 208 209
f 72 209 74
f 74 209 210
f 74 210 76
f 76 210 211
f 76 211 78
f 78 211 212
f 78 212 80
f 80 212 213
f 80 213 82
f 82 213 214
f 82 214 84
f 84 214 215
f 84 215 86
f 86 215 216
f 86 216 88
f 88 216 217
f 88 217 90
f 90 217 218
f 90 218 92
f 92 218 219
f 92 219 94
f 94 219 220
f 94 220 96
f 96 220 221
f 96 221 98
f 98 221 222
f 98 222 97
f 97 222 223
f 97 223 95
f 95 223 224
f 95 224 93
f 93 224 225
f 93 225 91
f 91 225 226
f 91 226 89
f 89 226 227
f 89 227 87
f 87 227 228
f 87 228 85
f 85 228 229
f 85 229 83
f 83 229 230
f 83 230 81
f 81 230 231
f 81 231 79
f 79 231 232
f 79 232 77
f 77 232 233
f 77 233 75
f 75 233 234
f 75 234 73
f 73 234 235
f 73 235 71
f 71 235 236
f 71 236 69
f 69 236 237
f 69 237 67
f 67 237 238
f 67 238 65
f 65 238 239
f 65 239 63
f 63 239 240
f 63 240 61
f 61 240 241
f 61 241 59
f 59 241 242
f 59 242 57
f 57 242 243
f 57 243 55
f 55 243 244
f 55 244 53
f 53 244 245
f 53 245 52
f 52 245 197
f 150 222 152
f 152 222 221
f 152 221 154
f 154 221 220
f 154 220 156
f 156 220 219
f 156 219 158
f 158 219 218
f 158 218 160
f 160 218 217
f 160 217 162
f 162 217 216
f 162 216 164
f 164 216 215
f 164 215 166
f 166 215 214
f 166 214 168
f 168 214 213
f 168 213 170
f 170 213 212
f 170 212 172
f 172 212 211
f 172 211 174
f 174 211 210
f 174 210 176
f 176 210 209
f 176 209 178
f 178 209 208
f 178 208 180
f 180 208 207
f 180 207 182
f 182 207 206
f 182 206 184
f 184 206 205
f 184 205 186
f 186 205 204
f 186 204 188
f 188 204 203
f 188 203 190
f 190 203 202
f 190 202 192
f 192 202 201
f 192 201 194
f 194 201 200
f 194 200 196
f 196 200 199
f 196 199 100
f 100 199 198
f 100 198 102
f 102 198 197
f 102 197 104
f 104 197 245
f 104 245 106
f 106 245 244
f 106 244 108
f 108 244 243
f 108 243 110
f 110 243 242
f 110 242 112
f 112 242 241
f 112 241 114
f 114 241 240
f 114 240 116
f 116 240 239
f 116 239 118
f 118 239 238
f 118 238 120
f 120 238 237
f 120 237 122
f 122 237 236
f 122 236 124
f 124 236 235
f 124 235 126
f 126 235 234
f 126 234 128
f 128 234 233
f 128 233 130
f 130 233 232
f 130 232 132
f 132 232 231
f 132 231 134
f 134 231 230
f 134 230 136
f 136 230 229
f 136 229 138
f 138 229 228
f 138 228 140
f 140 228 227
f 140 227 142
f 142 227 226
f 142 226 144
f 144 226 225
f 144 225 146
f 146 225 224
f 146 224 148
f 148 224 223
f 148 223 150
f 150 223 222
f 103 246 101
f 101 246 247
f 101 247 99
f 99 247 248
f 99 248 195
f 195 248 249
f 195 249 193
f 193 249 250
f 193 250 191
f 191 250 251
f 191 251 189
f 189 251 252
f 189 252 187
f 187 252 253
f 187 253 185
f 185 253 254
f 185 254 183
f 183 254 255
f 183 255 181
f 181 255 256
f 181 256 179
f 179 256 257
f 179 257 177
f 177 257 258
f 177 258 175
f 175 258 259
f 175 259 173
f 173 259 260
f 173 260 171
f 171 260 261
f 171 261 169
f 169 261 262
f 169 262 167
f 167 262 263
f 167 263 165
f 165 263 264
f 165 264 163
f 163 264 265
f 163 265 161
f 161 265 266
f 161 266 159
f 159 266 267
f 159 267 157
f 157 267 268
f 157 268 155
f 155 268 269
f 155 269 153
f 153 269 270
f 153 270 151
f 151 270 271
f 151 271 149
f 149 271 272
f 149 272 147
f 147 272 273
f 147 273 145
f 145 273 274
f 145 274 143
f 143 274 275
f 143 275 141
f 141 275 276
f 141 276 139
f 139 276 277
f 139 277 137
f 137 277 278
f 137 278 135
f 135 278 279
f 135 279 133
f 133 279 280
f 133 280 131
f 131 280 281
f 131 281 129
f 129 281 282
f 129 282 127
f 127 282 283
f 127 283 125
f 125 283 284
f 125 284 123
f 123 284 285
f 123 285 121
f 121 285 286
f 121 286 119
f 119 286 287
f 119 287 117
f 117 287 288
f 117 288 115
f 115 288 289
f 115 289 113
f 113 289 290
f 113 290 111
f 111 290 291
f 111 291 109
f 109 291 292
f 109 292 107
f 107 292 293
f 107 293 105
f 105 293 294
f 105 294 103
f 103 294 246
f 295 296 297
f 297 296 298
f 297 298 299
f 299 298 300
f 299 300 301
f 301 300 302
f 301 302 303
f 303 302 304
f 303 304 305
f 305 304 306
f 305 306 307
f 307 306 308
f 307 308 309
f 309 308 310
f 309 310 311
f 311 310 312
f 311 312 313
f 313 312 314
f 313 314 315
f 315 314 316
f 315 316 317
f 317 316 318
f 317 318 319
f 319 318 320
f 319 320 321
f 321 320 322
f 321 322 323
f 323 322 324
f 323 324 325
f 325 324 326
f 325 326 327
f 327 326 328
f 327 328 329
f 329 328 330
f 329 330 331
f 331 330 332
f 331 332 333
f 333 332 334
f 333 334 335
f 335 334 336
f 335 336 337
f 337 336 338
f 337 338 339
f 339 338 340
f 339 340 341
f 341 340 342
f 341 342 343
f 343 342 344
f 343 344 345
f 345 344 346
f 345 346 347
f 347 346 348
f 347 348 349
f 349 348 350
f 349 350 351
f 351 350 352
f 351 352 353
f 353 352 354
f 353 354 355
f 355 354 356
f 355 356 357
f 357 356 358
f 357 358 359
f 359 358 360
f 359 360 361
f 361 360 362
f 361 362 363
f 363 362 364
f 363 364 365
f 365 364 366
f 365 366 367
f 367 366 368
f 367 368 369
f 369 368 370
f 369 370 371
f 371 370 372
f 371 372 373
f 373 372 374
f 373 374 375
f 375 374 376
f 375 376 377
f 377 376 378
f 377 378 379
f 379 378 380
f 379 380 381
f 381 380 382
f 381 382 383
f 383 382 384
f 383 384 385
f 385 384 386
f 385 386 387
f 387 386 388
f 387 388 389
f 389 388 390
f 389 390 391
f 391 390 392
f 391 392 295
f 295 392 296
f 246 393 394
f 394 393 395
f 394 395 396
f 396 395 397
f 396 397 398
f 398 397 399
f 398 399 400
f 400 399 401
f 400 401 402
f 402 401 403
f 402 403 404
f 404 403 405
f 404 405 406
f 406 405 407
f 406 407 408
f 408 407 409
f 408 409 410
f 410 409 411
f 410 411 412
f 412 411 413
f 412 413 414
f 414 413 415
f 414 415 416
f 416 415 417
f 416 417 418
f 418 417 419
f 418 419 420
f 420 419 421
f 420 421 422
f 422 421 423
f 422 423 424
f 424 423 425
f 424 425 426
f 426 425 427
f 426 427 428
f 428 427 429
f 428 429 430
f 430 429 431
f 430 431 432
f 432 431 354
f 432 354 352
f 393 433 395
f 395 433 434
f 395 434 397
f 397 434 435
f 397 435 399
f 399 435 436
f 399 436 401
f 401 436 437
f 401 437 403
f 403 437 438
f 403 438 405
f 405 438 439
f 405 439 407
f 407 439 440
f 407 440 409
f 409 440 441
f 409 441 411
f 411 441 442
f 411 442 413
f 413 442 443
f 413 443 415
f 415 443 444
f 415 444 417
f 417 444 445
f 417 445 419
f 419 445 446
f 419 446 421
f 421 446 447
f 421 447 423
f 423 447 448
f 423 448 425
f 425 448 449
f 425 449 427
f 427 449 450
f 427 450 429
f 429 450 451
f 429 451 431
f 431 451 356
f 431 356 354
f 246 294 393
f 393 294 452
f 393 452 433
f 433 452 453
f 433 453 454
f 454 453 455
f 454 455 456
f 456 455 457
f 456 457 458
f 458 457 459
f 458 459 460
f 460 459 461
f 460 461 462
f 462 461 463
f 462 463 464
f 464 463 465
f 464 465 466
f 466 465 467
f 466 467 468
f 468 467 469
f 468 469 470
f 470 469 471
f 470 471 472
f 472 471 473
f 472 473 474
f 474 473 475
f 474 475 476
f 476 475 477
f 476 477 478
f 478 477 479
f 478 479 480
f 480 479 481
f 480 481 482
f 482 481 483
f 482 483 484
f 484 483 485
f 484 485 486
f 486 485 487
f 486 487 488
f 488 487 489
f 488 489 296
f 296 489 298
f 433 454 434
f 434 454 490
f 434 490 435
f 435 490 491
f 435 491 436
f 436 491 492
f 436 492 437
f 437 492 493
f 437 493 438
f 438 493 494
f 438 494 439
f 439 494 495
f 439 495 440
f 440 495 496
f 440 496 441
f 441 496 497
f 441 497 442
f 442 497 498
f 442 498 443
f 443 498 499
f 443 499 444
f 444 499 500
f 444 500 445
f 445 500 501
f 445 501 446
f 446 501 502
f 446 502 447
f 447 502 503
f 447 503 448
f 448 503 504
f 448 504 449
f 449 504 505
f 449 505 450
f 450 505 506
f 450 506 451
f 451 506 358
f 451 358 356
f 454 456 490
f 490 456 507
f 490 507 491
f 491 507 508
f 491 508 492
f 492 508 509
f 492 509 493
f 493 509 510
f 493 510 494
f 494 510 511
f 494 511 495
f 495 511 512
f 495 512 496
f 496 512 513
f 496 513 497
f 497 513 514
f 497 514 498
f 498 514 515
f 498 515 499
f 499 515 516
f 499 516 500
f 500 516 517
f 500 517 501
f 501 517 518
f 501 518 502
f 502 518 519
f 502 519 503
f 503 519 520
f 503 520 504
f 504 520 521
f 504 521 505
f 505 521 522
f 505 522 506
f 506 522 360
f 506 360 358
f 456 458 507
f 507 458 523
f 507 523 508
f 508 523 524
f 508 524 509
f 509 524 525
f 509 525 510
f 510 525 526
f 510 526 511
f 511 526 527
f 511 527 512
f 512 527 528
f 512 528 513
f 513 528 529
f 513 529 514
f 514 529 530
f 514 530 515
f 515 530 531
f 515 531 516
f 516 531 532
f 516 532 517
f 517 532 533
f 517 533 518
f 518 533 534
f 518 534 519
f 519 534 535
f 519 535 520
f 520 535 536
f 520 536 521
f 521 536 537
f 521 537 522
f 522 537 362
f 522 362 360
f 458 460 523
f 523 460 538
f 523 538 524
f 524 538 539
f 524 539 525
f 525 539 540
f 525 540 526
f 526 540 541
f 526 541 527
f 527 541 542
f 527 542 528
f 528 542 543
f 528 543 529
f 529 543 544
f 529 544 530
f 530 544 545
f 530 545 531
f 531 545 546
f 531 546 532
f 532 546 547
f 532 547 533
f 533 547 548
f 533 548 534
f 534 548 549
f 534 549 535
f 535 549 550
f 535 550 536
f 536 550 551
f 536 551 537
f 537 551 364
f 537 364 362
f 460 462 538
f 538 462 552
f 538 552 539
f 539 552 553
f 539 553 540
f 540 553 554
f 540 554 541
f 541 554 555
f 541 555 542
f 542 555 556
f 542 556 543
f 543 556 557
f 543 557 544
f 544 557 558
f 544 558 545
f 545 558 559
f 545 559 546
f 546 559 560
f 546 560 547
f 547 560 561
f 547 561 548
f 548 561 562
f 548 562 549
f 549 562 563
f 549 563 550
f 550 563 564
f 550 564 551
f 551 564 366
f 551 366 364
f 462 464 552
f 552 464 565
f 552 565 553
f 553 565 566
f 553 566 554
f 554 566 567
f 554 567 555
f 555 567 568
f 555 568 556
f 556 568 569
f 556 569 557
f 557 569 570
f 557 570 558
f 558 570 571
f 558 571 559
f 559 571 572
f 559 572 560
f 560 572 573
f 560 573 561
f 561 573 574
f 561 574 562
f 562 574 575
f 562 575 563
f 563 575 576
f 563 576 564
f 564 576 368
f 564 368 366
f 464 466 565
f 565 466 577
f 565 577 566
f 566 577 578
f 566 578 567
f 567 578 579
f 567 579 568
f 568 579 580
f 568 580 569
f 569 580 581
f 569 581 570
f 570 581 582
f 570 582 571
f 571 582 583
f 571 583 572
f 572 583 584
f 572 584 573
f 573 584 585
f 573 585 574
f 574 585 586
f 574 586 575
f 575 586 587
f 575 587 576
f 576 587 370
f 576 370 368
f 466 468 577
f 577 468 588
f 577 588 578
f 578 588 589
f 578 589 579
f 579 589 590
f 579 590 580
f 580 590 591
f 580 591 581
f 581 591 592
f 581 592 582
f 582 592 593
f 582 593 583
f 583 593 594
f 583 594 584
f 584 594 595
f 584 595 585
f 585 595 596
f 585 596 586
f 586 596 597
f 586 597 587
f 587 597 372
f 587 372 370
f 468 470 588
f 588 470 598
f 588 598 589
f 589 598 599
f 589 599 590
f 590 599 600
f 590 600 591
f 591 600 601
f 591 601 592
f 592 601 602
f 592 602 593
f 593 602 603
f 593 603 594
f 594 603 604
f 594 604 595
f 595 604 605
f 595 605 596
f 596 605 606
f 596 606 597
f 597 606 374
f 597 374 372
f 470 472 598
f 598 472 607
f 598 607 599
f 599 607 608
f 599 608 600
f 600 608 609
f 600 609 601
f 601 609 610
f 601 610 602
f 602 610 611
f 602 611 603
f 603 611 612
f 603 612 604
f 604 612 613
f 604 613 605
f 605 613 614
f 605 614 606
f 606 614 376
f 606 376 374
f 472 474 607
f 607 474 615
f 607 615 608
f 608 615 616
f 608 616 609
f 609 616 617
f 609 617 610
f 610 617 618
f 610 618 611
f 611 618 619
f 611 619 612
f 612 619 620
f 612 620 613
f 613 620 621
f 613 621 614
f 614 621 378
f 614 378 376
f 474 476 615
f 615 476 622
f 615 622 616
f 616 622 623
f 616 623 617
f 617 623 624
f 617 624 618
f 618 624 625
f 618 625 619
f 619 625 626
f 619 626 620
f 620 626 627
f 620 627 621
f 621 627 380
f 621 380 378
f 476 478 622
f 622 478 628
f 622 628 623
f 623 628 629
f 623 629 624
f 624 629 630
f 624 630 625
f 625 630 631
f 625 631 626
f 626 631 632
f 626 632 627
f 627 632 382
f 627 382 380
f 478 480 628
f 628 480 633
f 628 633 629
f 629 633 634
f 629 634 630
f 630 634 635
f 630 635 631
f 631 635 636
f 631 636 632
f 632 636 384
f 632 384 382
f 480 482 633
f 633 482 637
f 633 637 634
f 634 637 638
f 634 638 635
f 635 638 639
f 635 639 636
f 636 639 386
f 636 386 384
f 482 484 637
f 637 484 640
f 637 640 638
f 638 640 641
f 638 641 639
f 639 641 388
f 639 388 386
f 484 486 640
f 640 486 642
f 640 642 641
f 641 642 390
f 641 390 388
f 486 488 642
f 642 488 392
f 642 392 390
f 488 296 392
f 247 246 394
f 248 247 643
f 643 247 394
f 643 394 396
f 249 248 644
f 644 248 643
f 644 643 645
f 645 643 396
f 645 396 398
f 250 249 646
f 646 249 644
f 646 644 647
f 647 644 645
f 647 645 648
f 648 645 398
f 648 398 400
f 251 250 649
f 649 250 646
f 649 646 650
f 650 646 647
f 650 647 651
f 651 647 648
f 651 648 652
f 652 648 400
f 652 400 402
f 252 251 653
f 653 251 649
f 653 649 654
f 654 649 650
f 654 650 655
f 655 650 651
f 655 651 656
f 656 651 652
f 656 652 657
f 657 652 402
f 657 402 404
f 253 252 658
f 658 252 653
f 658 653 659
f 659 653 654
f 659 654 660
f 660 654 655
f 660 655 661
f 661 655 656
f 661 656 662
f 662 656 657
f 662 657 663
f 663 657 404
f 663 404 406
f 254 253 664
f 664 253 658
f 664 658 665
f 665 658 659
f 665 659 666
f 666 659 660
f 666 660 667
f 667 660 661
f 667 661 668
f 668 661 662
f 668 662 669
f 669 662 663
f 669 663 670
f 670 663 406
f 670 406 408
f 255 254 671
f 671 254 664
f 671 664 672
f 672 664 665
f 672 665 673
f 673 665 666
f 673 666 674
f 674 666 667
f 674 667 675
f 675 667 668
f 675 668 676
f 676 668 669
f 676 669 677
f 677 669 670
f 677 670 678
f 678 670 408
f 678 408 410
f 256 255 679
f 679 255 671
f 679 671 680
f 680 671 672
f 680 672 681
f 681 672 673
f 681 673 682
f 682 673 674
f 682 674 683
f 683 674 675
f 683 675 684
f 684 675 676
f 684 676 685
f 685 676 677
f 685 677 686
f 686 677 678
f 686 678 687
f 687 678 410
f 687 410 412
f 257 256 688
f 688 256 679
f 688 679 689
f 689 679 680
f 689 680 690
f 690 680 681
f 690 681 691
f 691 681 682
f 691 682 692
f 692 682 683
f 692 683 693
f 693 683 684
f 693 684 694
f 694 684 685
f 694 685 695
f 695 685 686
f 695 686 696
f 696 686 687
f 696 687 697
f 697 687 412
f 697 412 414
f 258 257 698
f 698 257 688
f 698 688 699
f 699 688 689
f 699 689 700
f 700 689 690
f 700 690 701
f 701 690 691
f 701 691 702
f 702 691 692
f 702 692 703
f 703 692 693
f 703 693 704
f 704 693 694
f 704 694 705
f 705 694 695
f 705 695 706
f 706 695 696
f 706 696 707
f 707 696 697
f 707 697 708
f 708 697 414
f 708 414 416
f 259 258 709
f 709 258 698
f 709 698 710
f 710 698 699
f 710 699 711
f 711 699 700
f 711 700 712
f 712 700 701
f 712 701 713
f 713 701 702
f 713 702 714
f 714 702 703
f 714 703 715
f 715 703 704
f 715 704 716
f 716 704 705
f 716 705 717
f 717 705 706
f 717 706 718
f 718 706 707
f 718 707 719
f 719 707 708
f 719 708 720
f 720 708 416
f 720 416 418
f 260 259 721
f 721 259 709
f 721 709 722
f 722 709 710
f 722 710 723
f 723 710 711
f 723 711 724
f 724 711 712
f 724 712 725
f 725 712 713
f 725 713 726
f 726 713 714
f 726 714 727
f 727 714 715
f 727 715 728
f 728 715 716
f 728 716 729
f 729 716 717
f 729 717 730
f 730 717 718
f 730 718 731
f 731 718 719
f 731 719 732
f 732 719 720
f 732 720 733
f 733 720 418
f 733 418 420
f 261 260 734
f 734 260 721
f 734 721 735
f 735 721 722
f 735 722 736
f 736 722 723
f 736 723 737
f 737 723 724
f 737 724 738
f 738 724 725
f 738 725 739
f 739 725 726
f 739 726 740
f 740 726 727
f 740 727 741
f 741 727 728
f 741 728 742
f 742 728 729
f 742 729 743
f 743 729 730
f 743 730 744
f 744 730 731
f 744 731 745
f 745 731 732
f 745 732 746
f 746 732 733
f 746 733 747
f 747 733 420
f 747 420 422
f 262 261 748
f 748 261 734
f 748 734 749
f 749 734 735
f 749 735 750
f 750 735 736
f 750 736 751
f 751 736 737
f 751 737 752
f 752 737 738
f 752 738 753
f 753 738 739
f 753 739 754
f 754 739 740
f 754 740 755
f 755 740 741
f 755 741 756
f 756 741 742
f 756 742 757
f 757 742 743
f 757 743 758
f 758 743 744
f 758 744 759
f 759 744 745
f 759 745 760
f 760 745 746
f 760 746 761
f 761 746 747
f 761 747 762
f 762 747 422
f 762 422 424
f 263 262 763
f 763 262 748
f 763 748 764
f 764 748 749
f 764 749 765
f 765 749 750
f 765 750 766
f 766 750 751
f 766 751 767
f 767 751 752
f 767 752 768
f 768 752 753
f 768 753 769
f 769 753 754
f 769 754 770
f 770 754 755
f 770 755 771
f 771 755 756
f 771 756 772
f 772 756 757
f 772 757 773
f 773 757 758
f 773 758 774
f 774 758 759
f 774 759 775
f 775 759 760
f 775 760 776
f 776 760 761
f 776 761 777
f 777 761 762
f 777 762 778
f 778 762 424
f 778 424 426
f 264 263 779
f 779 263 763
f 779 763 780
f 780 763 764
f 780 764 781
f 781 764 765
f 781 765 782
f 782 765 766
f 782 766 783
f 783 766 767
f 783 767 784
f 784 767 768
f 784 768 785
f 785 768 769
f 785 769 786
f 786 769 770
f 786 770 787
f 787 770 771
f 787 771 788
f 788 771 772
f 788 772 789
f 789 772 773
f 789 773 790
f 790 773 774
f 790 774 791
f 791 774 775
f 791 775 792
f 792 775 776
f 792 776 793
f 793 776 777
f 793 777 794
f 794 777 778
f 794 778 795
f 795 778 426
f 795 426 428
f 265 264 796
f 796 264 779
f 796 779 797
f 797 779 780
f 797 780 798
f 798 780 781
f 798 781 799
f 799 781 782
f 799 782 800
f 800 782 783
f 800 783 801
f 801 783 784
f 801 784 802
f 802 784 785
f 802 785 803
f 803 785 786
f 803 786 804
f 804 786 787
f 804 787 805
f 805 787 788
f 805 788 806
f 806 788 789
f 806 789 807
f 807 789 790
f 807 790 808
f 808 790 791
f 808 791 809
f 809 791 792
f 809 792 810
f 810 792 793
f 810 793 811
f 811 793 794
f 811 794 812
f 812 794 795
f 812 795 813
f 813 795 428
f 813 428 430
f 266 265 814
f 814 265 796
f 814 796 815
f 815 796 797
f 815 797 816
f 816 797 798
f 816 798 817
f 817 798 799
f 817 799 818
f 818 799 800
f 818 800 819
f 819 800 801
f 819 801 820
f 820 801 802
f 820 802 821
f 821 802 803
f 821 803 822
f 822 803 804
f 822 804 823
f 823 804 805
f 823 805 824
f 824 805 806
f 824 806 825
f 825 806 807
f 825 807 826
f 826 807 808
f 826 808 827
f 827 808 809
f 827 809 828
f 828 809 810
f 828 810 829
f 829 810 811
f 829 811 830
f 830 811 812
f 830 812 831
f 831 812 813
f 831 813 832
f 832 813 430
f 832 430 432
f 267 266 833
f 833 266 814
f 833 814 834
f 834 814 815
f 834 815 835
f 835 815 816
f 835 816 836
f 836 816 817
f 836 817 837
f 837 817 818
f 837 818 838
f 838 818 819
f 838 819 839
f 839 819 820
f 839 820 840
f 840 820 821
f 840 821 841
f 841 821 822
f 841 822 842
f 842 822 823
f 842 823 843
f 843 823 824
f 843 824 844
f 844 824 825
f 844 825 845
f 845 825 826
f 845 826 846
f 846 826 827
f 846 827 847
f 847 827 828
f 847 828 848
f 848 828 829
f 848 829 849
f 849 829 830
f 849 830 850
f 850 830 831
f 850 831 851
f 851 831 832
f 851 832 852
f 852 832 432
f 852 432 352
f 268 267 853
f 853 267 833
f 853 833 854
f 854 833 834
f 854 834 855
f 855 834 835
f 855 835 856
f 856 835 836
f 856 836 857
f 857 836 837
f 857 837 858
f 858 837 838
f 858 838 859
f 859 838 839
f 859 839 860
f 860 839 840
f 860 840 861
f 861 840 841
f 861 841 862
f 862 841 842
f 862 842 863
f 863 842 843
f 863 843 864
f 864 843 844
f 864 844 865
f 865 844 845
f 865 845 866
f 866 845 846
f 866 846 867
f 867 846 847
f 867 847 868
f 868 847 848
f 868 848 869
f 869 848 849
f 869 849 870
f 870 849 850
f 870 850 871
f 871 850 851
f 871 851 872
f 872 851 852
f 872 852 350
f 350 852 352
f 269 268 873
f 873 268 853
f 873 853 874
f 874 853 854
f 874 854 875
f 875 854 855
f 875 855 876
f 876 855 856
f 876 856 877
f 877 856 857
f 877 857 878
f 878 857 858
f 878 858 879
f 879 858 859
f 879 859 880
f 880 859 860
f 880 860 881
f 881 860 861
f 881 861 882
f 882 861 862
f 882 862 883
f 883 862 863
f 883 863 884
f 884 863 864
f 884 864 885
f 885 864 865
f 885 865 886
f 886 865 866
f 886 866 887
f 887 866 867
f 887 867 888
f 888 867 868
f 888 868 889
f 889 868 869
f 889 869 890
f 890 869 870
f 890 870 891
f 891 870 871
f 891 871 892
f 892 871 872
f 892 872 348
f 348 872 350
f 270 269 893
f 893 269 873
f 893 873 894
f 894 873 874
f 894 874 895
f 895 874 875
f 895 875 896
f 896 875 876
f 896 876 897
f 897 876 877
f 897 877 898
f 898 877 878
f 898 878 899
f 899 878 879
f 899 879 900
f 900 879 880
f 900 880 901
f 901 880 881
f 901 881 902
f 902 881 882
f 902 882 903
f 903 882 883
f 903 883 904
f 904 883 884
f 904 884 905
f 905 884 885
f 905 885 906
f 906 885 886
f 906 886 907
f 907 886 887
f 907 887 908
f 908 887 888
f 908 888 909
f 909 888 889
f 909 889 910
f 910 889 890
f 910 890 911
f 911 890 891
f 911 891 912
f 912 891 892
f 912 892 346
f 346 892 348
f 271 270 913
f 913 270 893
f 913 893 914
f 914 893 894
f 914 894 915
f 915 894 895
f 915 895 916
f 916 895 896
f 916 896 917
f 917 896 897
f 917 897 918
f 918 897 898
f 918 898 919
f 919 898 899
f 919 899 920
f 920 899 900
f 920 900 921
f 921 900 901
f 921 901 922
f 922 901 902
f 922 902 923
f 923 902 903
f 923 903 924
f 924 903 904
f 924 904 925
f 925 904 905
f 925 905 926
f 926 905 906
f 926 906 927
f 927 906 907
f 927 907 928
f 928 907 908
f 928 908 929
f 929 908 909
f 929 909 930
f 930 909 910
f 930 910 931
f 931 910 911
f 931 911 932
f 932 911 912
f 932 912 344
f 344 912 346
f 272 271 933
f 933 271 913
f 933 913 934
f 934 913 914
f 934 914 935
f 935 914 915
f 935 915 936
f 936 915 916
f 936 916 937
f 937 916 917
f 937 917 938
f 938 917 918
f 938 918 939
f 939 918 919
f 939 919 940
f 940 919 920
f 940 920 941
f 941 920 921
f 941 921 942
f 942 921 922
f 942 922 943
f 943 922 923
f 943 923 944
f 944 923 924
f 944 924 945
f 945 924 925
f 945 925 946
f 946 925 926
f 946 926 947
f 947 926 927
f 947 927 948
f 948 927 928
f 948 928 949
f 949 928 929
f 949 929 950
f 950 929 930
f 950 930 951
f 951 930 931
f 951 931 952
f 952 931 932
f 952 932 342
f 342 932 344
f 273 272 953
f 953 272 933
f 953 933 954
f 954 933 934
f 954 934 955
f 955 934 935
f 955 935 956
f 956 935 936
f 956 936 957
f 957 936 937
f 957 937 958
f 958 937 938
f 958 938 959
f 959 938 939
f 959 939 960
f 960 939 940
f 960 940 961
f 961 940 941
f 961 941 962
f 962 941 942
f 962 942 963
f 963 942 943
f 963 943 964
f 964 943 944
f 964 944 965
f 965 944 945
f 965 945 966
f 966 945 946
f 966 946 967
f 967 946 947
f 967 947 968
f 968 947 948
f 968 948 969
f 969 948 949
f 969 949 970
f 970 949 950
f 970 950 971
f 971 950 951
f 971 951 972
f 972 951 952
f 972 952 340
f 340 952 342
f 274 273 973
f 973 273 953
f 973 953 974
f 974 953 954
f 974 954 975
f 975 954 955
f 975 955 976
f 976 955 956
f 976 956 977
f 977 956 957
f 977 957 978
f 978 957 958
f 978 958 979
f 979 958 959
f 979 959 980
f 980 959 960
f 980 960 981
f 981 960 961
f 981 961 982
f 982 961 962
f 982 962 983
f 983 962 963
f 983 963 984
f 984 963 964
f 984 964 985
f 985 964 965
f 985 965 986
f 986 965 966
f 986 966 987
f 987 966 967
f 987 967 988
f 988 967 968
f 988 968 989
f 989 968 969
f 989 969 990
f 990 969 970
f 990 970 991
f 991 970 971
f 991 971 992
f 992 971 972
f 992 972 338
f 338 972 340
f 275 274 993
f 993 274 973
f 993 973 994
f 994 973 974
f 994 974 995
f 995 974 975
f 995 975 996
f 996 975 976
f 996 976 997
f 997 976 977
f 997 977 998
f 998 977 978
f 998 978 999
f 999 978 979
f 999 979 1000
f 1000 979 980
f 1000 980 1001
f 1001 980 981
f 1001 981 1002
f 1002 981 982
f 1002 982 1003
f 1003 982 983
f 1003 983 1004
f 1004 983 984
f 1004 984 1005
f 1005 984 985
f 1005 985 1006
f 1006 985 986
f 1006 986 1007
f 1007 986 987
f 1007 987 1008
f 1008 987 988
f 1008 988 1009
f 1009 988 989
f 1009 989 1010
f 1010 989 990
f 1010 990 1011
f 1011 990 991
f 1011 991 1012
f 1012 991 992
f 1012 992 336
f 336 992 338
f 276 275 1013
f 1013 275 993
f 1013 993 1014
f 1014 993 994
f 1014 994 1015
f 1015 994 995
f 1015 995 1016
f 1016 995 996
f 1016 996 1017
f 1017 996 997
f 1017 997 1018
f 1018 997 998
f 1018 998 1019
f 1019 998 999
f 1019 999 1020
f 1020 999 1000
f 1020 1000 1021
f 1021 1000 1001
f 1021 1001 1022
f 1022 1001 1002
f 1022 1002 1023
f 1023 1002 1003
f 1023 1003 1024
f 1024 1003 1004
f 1024 1004 1025
f 1025 1004 1005
f 1025 1005 1026
f 1026 1005 1006
f 1026 1006 1027
f 1027 1006 1007
f 1027 1007 1028
f 1028 1007 1008
f 1028 1008 1029
f 1029 1008 1009
f 1029 1009 1030
f 1030 1009 1010
f 1030 1010 1031
f 1031 1010 1011
f 1031 1011 1032
f 1032 1011 1012
f 1032 1012 334
f 334 1012 336
f 277 276 1033
f 1033 276 1013
f 1033 1013 1034
f 1034 1013 1014
f 1034 1014 1035
f 1035 1014 1015
f 1035 1015 1036
f 1036 1015 1016
f 1036 1016 1037
f 1037 1016 1017
f 1037 1017 1038
f 1038 1017 1018
f 1038 1018 1039
f 1039 1018 1019
f 1039 1019 1040
f 1040 1019 1020
f 1040 1020 1041
f 1041 1020 1021
f 1041 1021 1042
f 1042 1021 1022
f 1042 1022 1043
f 1043 1022 1023
f 1043 1023 1044
f 1044 1023 1024
f 1044 1024 1045
f 1045 1024 1025
f 1045 1025 1046
f 1046 1025 1026
f 1046 1026 1047
f 1047 1026 1027
f 1047 1027 1048
f 1048 1027 1028
f 1048 1028 1049
f 1049 1028 1029
f 1049 1029 1050
f 1050 1029 1030
f 1050 1030 1051
f 1051 1030 1031
f 1051 1031 1052
f 1052 1031 1032
f 1052 1032 332
f 332 1032 334
f 278 277 1053
f 1053 277 1033
f 1053 1033 1054
f 1054 1033 1034
f 1054 1034 1055
f 1055 1034 1035
f 1055 1035 1056
f 1056 1035 1036
f 1056 1036 1057
f 1057 1036 1037
f 1057 1037 1058
f 1058 1037 1038
f 1058 1038 1059
f 1059 1038 1039
f 1059 1039 1060
f 1060 1039 1040
f 1060 1040 1061
f 1061 1040 1041
f 1061 1041 1062
f 1062 1041 1042
f 1062 1042 1063
f 1063 1042 1043
f 1063 1043 1064
f 1064 1043 1044
f 1064 1044 1065
f 1065 1044 1045
f 1065 1045 1066
f 1066 1045 1046
f 1066 1046 1067
f 1067 1046 1047
f 1067 1047 1068
f 1068 1047 1048
f 1068 1048 1069
f 1069 1048 1049
f 1069 1049 1070
f 1070 1049 1050
f 1070 1050 1071
f 1071 1050 1051
f 1071 1051 1072
f 1072 1051 1052
f 1072 1052 330
f 330 1052 332
f 279 278 1073
f 1073 278 1053
f 1073 1053 1074
f 1074 1053 1054
f 1074 1054 1075
f 1075 1054 1055
f 1075 1055 1076
f 1076 1055 1056
f 1076 1056 1077
f 1077 1056 1057
f 1077 1057 1078
f 1078 1057 1058
f 1078 1058 1079
f 1079 1058 1059
f 1079 1059 1080
f 1080 1059 1060
f 1080 1060 1081
f 1081 1060 1061
f 1081 1061 1082
f 1082 1061 1062
f 1082 1062 1083
f 1083 1062 1063
f 1083 1063 1084
f 1084 1063 1064
f 1084 1064 1085
f 1085 1064 1065
f 1085 1065 1086
f 1086 1065 1066
f 1086 1066 1087
f 1087 1066 1067
f 1087 1067 1088
f 1088 1067 1068
f 1088 1068 1089
f 1089 1068 1069
f 1089 1069 1090
f 1090 1069 1070
f 1090 1070 1091
f 1091 1070 1071
f 1091 1071 1092
f 1092 1071 1072
f 1092 1072 328
f 328 1072 330
f 280 279 1093
f 1093 279 1073
f 1093 1073 1094
f 1094 1073 1074
f 1094 1074 1095
f 1095 1074 1075
f 1095 1075 1096
f 1096 1075 1076
f 1096 1076 1097
f 1097 1076 1077
f 1097 1077 1098
f 1098 1077 1078
f 1098 1078 1099
f 1099 1078 1079
f 1099 1079 1100
f 1100 1079 1080
f 1100 1080 1101
f 1101 1080 1081
f 1101 1081 1102
f 1102 1081 1082
f 1102 1082 1103
f 1103 1082 1083
f 1103 1083 1104
f 1104 1083 1084
f 1104 1084 1105
f 1105 1084 1085
f 1105 1085 1106
f 1106 1085 1086
f 1106 1086 1107
f 1107 1086 1087
f 1107 1087 1108
f 1108 1087 1088
f 1108 1088 1109
f 1109 1088 1089
f 1109 1089 1110
f 1110 1089 1090
f 1110 1090 1111
f 1111 1090 1091
f 1111 1091 1112
f 1112 1091 1092
f 1112 1092 326
f 326 1092 328
f 281 280 1113
f 1113 280 1093
f 1113 1093 1114
f 1114 1093 1094
f 1114 1094 1115
f 1115 1094 1095
f 1115 1095 1116
f 1116 1095 1096
f 1116 1096 1117
f 1117 1096 1097
f 1117 1097 1118
f 1118 1097 1098
f 1118 1098 1119
f 1119 1098 1099
f 1119 1099 1120
f 1120 1099 1100
f 1120 1100 1121
f 1121 1100 1101
f 1121 1101 1122
f 1122 1101 1102
f 1122 1102 1123
f 1123 1102 1103
f 1123 1103 1124
f 1124 1103 1104
f 1124 1104 1125
f 1125 1104 1105
f 1125 1105 1126
f 1126 1105 1106
f 1126 1106 1127
f 1127 1106 1107
f 1127 1107 1128
f 1128 1107 1108
f 1128 1108 1129
f 1129 1108 1109
f 1129 1109 1130
f 1130 1109 1110
f 1130 1110 1131
f 1131 1110 1111
f 1131 1111 1132
f 1132 1111 1112
f 1132 1112 324
f 324 1112 326
f 282 281 1133
f 1133 281 1113
f 1133 1113 1134
f 1134 1113 1114
f 1134 1114 1135
f 1135 1114 1115
f 1135 1115 1136
f 1136 1115 1116
f 1136 1116 1137
f 1137 1116 1117
f 1137 1117 1138
f 1138 1117 1118
f 1138 1118 1139
f 1139 1118 1119
f 1139 1119 1140
f 1140 1119 1120
f 1140 1120 1141
f 1141 1120 1121
f 1141 1121 1142
f 1142 1121 1122
f 1142 1122 1143
f 1143 1122 1123
f 1143 1123 1144
f 1144 1123 1124
f 1144 1124 1145
f 1145 1124 1125
f 1145 1125 1146
f 1146 1125 1126
f 1146 1126 1147
f 1147 1126 1127
f 1147 1127 1148
f 1148 1127 1128
f 1148 1128 1149
f 1149 1128 1129
f 1149 1129 1150
f 1150 1129 1130
f 1150 1130 1151
f 1151 1130 1131
f 1151 1131 1152
f 1152 1131 1132
f 1152 1132 322
f 322 1132 324
f 283 282 1153
f 1153 282 1133
f 1153 1133 1154
f 1154 1133 1134
f 1154 1134 1155
f 1155 1134 1135
f 1155 1135 1156
f 1156 1135 1136
f 1156 1136 1157
f 1157 1136 1137
f 1157 1137 1158
f 1158 1137 1138
f 1158 1138 1159
f 1159 1138 1139
f 1159 1139 1160
f 1160 1139 1140
f 1160 1140 1161
f 1161 1140 1141
f 1161 1141 1162
f 1162 1141 1142
f 1162 1142 1163
f 1163 1142 1143
f 1163 1143 1164
f 1164 1143 1144
f 1164 1144 1165
f 1165 1144 1145
f 1165 1145 1166
f 1166 1145 1146
f 1166 1146 1167
f 1167 1146 1147
f 1167 1147 1168
f 1168 1147 1148
f 1168 1148 1169
f 1169 1148 1149
f 1169 1149 1170
f 1170 1149 1150
f 1170 1150 1171
f 1171 1150 1151
f 1171 1151 1172
f 1172 1151 1152
f 1172 1152 320
f 320 1152 322
f 284 283 1173
f 1173 283 1153
f 1173 1153 1174
f 1174 1153 1154
f 1174 1154 1175
f 1175 1154 1155
f 1175 1155 1176
f 1176 1155 1156
f 1176 1156 1177
f 1177 1156 1157
f 1177 1157 1178
f 1178 1157 1158
f 1178 1158 1179
f 1179 1158 1159
f 1179 1159 1180
f 1180 1159 1160
f 1180 1160 1181
f 1181 1160 1161
f 1181 1161 1182
f 1182 1161 1162
f 1182 1162 1183
f 1183 1162 1163
f 1183 1163 1184
f 1184 1163 1164
f 1184 1164 1185
f 1185 1164 1165
f 1185 1165 1186
f 1186 1165 1166
f 1186 1166 1187
f 1187 1166 1167
f 1187 1167 1188
f 1188 1167 1168
f 1188 1168 1189
f 1189 1168 1169
f 1189 1169 1190
f 1190 1169 1170
f 1190 1170 1191
f 1191 1170 1171
f 1191 1171 1192
f 1192 1171 1172
f 1192 1172 318
f 318 1172 320
f 285 284 1193
f 1193 284 1173
f 1193 1173 1194
f 1194 1173 1174
f 1194 1174 1195
f 1195 1174 1175
f 1195 1175 1196
f 1196 1175 1176
f 1196 1176 1197
f 1197 1176 1177
f 1197 1177 1198
f 1198 1177 1178
f 1198 1178 1199
f 1199 1178 1179
f 1199 1179 1200
f 1200 1179 1180
f 1200 1180 1201
f 1201 1180 1181
f 1201 1181 1202
f 1202 1181 1182
f 1202 1182 1203
f 1203 1182 1183
f 1203 1183 1204
f 1204 1183 1184
f 1204 1184 1205
f 1205 1184 1185
f 1205 1185 1206
f 1206 1185 1186
f 1206 1186 1207
f 1207 1186 1187
f 1207 1187 1208
f 1208 1187 1188
f 1208 1188 1209
f 1209 1188 1189
f 1209 1189 1210
f 1210 1189 1190
f 1210 1190 1211
f 1211 1190 1191
f 1211 1191 1212
f 1212 1191 1192
f 1212 1192 316
f 316 1192 318
f 286 285 1213
f 1213 285 1193
f 1213 1193 1214
f 1214 1193 1194
f 1214 1194 1215
f 1215 1194 1195
f 1215 1195 1216
f 1216 1195 1196
f 1216 1196 1217
f 1217 1196 1197
f 1217 1197 1218
f 1218 1197 1198
f 1218 1198 1219
f 1219 1198 1199
f 1219 1199 1220
f 1220 1199 1200
f 1220 1200 1221
f 1221 1200 1201
f 1221 1201 1222
f 1222 1201 1202
f 1222 1202 1223
f 1223 1202 1203
f 1223 1203 1224
f 1224 1203 1204
f 1224 1204 1225
f 1225 1204 1205
f 1225 1205 1226
f 1226 1205 1206
f 1226 1206 1227
f 1227 1206 1207
f 1227 1207 1228
f 1228 1207 1208
f 1228 1208 1229
f 1229 1208 1209
f 1229 1209 1230
f 1230 1209 1210
f 1230 1210 1231
f 1231 1210 1211
f 1231 1211 1232
f 1232 1211 1212
f 1232 1212 314
f 314 1212 316
f 287 286 1233
f 1233 286 1213
f 1233 1213 1234
f 1234 1213 1214
f 1234 1214 1235
f 1235 1214 1215
f 1235 1215 1236
f 1236 1215 1216
f 1236 1216 1237
f 1237 1216 1217
f 1237 1217 1238
f 1238 1217 1218
f 1238 1218 1239
f 1239 1218 1219
f 1239 1219 1240
f 1240 1219 1220
f 1240 1220 1241
f 1241 1220 1221
f 1241 1221 1242
f 1242 1221 1222
f 1242 1222 1243
f 1243 1222 1223
f 1243 1223 1244
f 1244 1223 1224
f 1244 1224 1245
f 1245 1224 1225
f 1245 1225 1246
f 1246 1225 1226
f 1246 1226 1247
f 1247 1226 1227
f 1247 1227 1248
f 1248 1227 1228
f 1248 1228 1249
f 1249 1228 1229
f 1249 1229 1250
f 1250 1229 1230
f 1250 1230 1251
f 1251 1230 1231
f 1251 1231 1252
f 1252 1231 1232
f 1252 1232 312
f 312 1232 314
f 288 287 1253
f 1253 287 1233
f 1253 1233 1254
f 1254 1233 1234
f 1254 1234 1255
f 1255 1234 1235
f 1255 1235 1256
f 1256 1235 1236
f 1256 1236 1257
f 1257 1236 1237
f 1257 1237 1258
f 1258 1237 1238
f 1258 1238 1259
f 1259 1238 1239
f 1259 1239 1260
f 1260 1239 1240
f 1260 1240 1261
f 1261 1240 1241
f 1261 1241 1262
f 1262 1241 1242
f 1262 1242 1263
f 1263 1242 1243
f 1263 1243 1264
f 1264 1243 1244
f 1264 1244 1265
f 1265 1244 1245
f 1265 1245 1266
f 1266 1245 1246
f 1266 1246 1267
f 1267 1246 1247
f 1267 1247 1268
f 1268 1247 1248
f 1268 1248 1269
f 1269 1248 1249
f 1269 1249 1270
f 1270 1249 1250
f 1270 1250 1271
f 1271 1250 1251
f 1271 1251 1272
f 1272 1251 1252
f 1272 1252 310
f 310 1252 312
f 289 288 1273
f 1273 288 1253
f 1273 1253 1274
f 1274 1253 1254
f 1274 1254 1275
f 1275 1254 1255
f 1275 1255 1276
f 1276 1255 1256
f 1276 1256 1277
f 1277 1256 1257
f 1277 1257 1278
f 1278 1257 1258
f 1278 1258 1279
f 1279 1258 1259
f 1279 1259 1280
f 1280 1259 1260
f 1280 1260 1281
f 1281 1260 1261
f 1281 1261 1282
f 1282 1261 1262
f 1282 1262 1283
f 1283 1262 1263
f 1283 1263 1284
f 1284 1263 1264
f 1284 1264 1285
f 1285 1264 1265
f 1285 1265 1286
f 1286 1265 1266
f 1286 1266 1287
f 1287 1266 1267
f 1287 1267 1288
f 1288 1267 1268
f 1288 1268 1289
f 1289 1268 1269
f 1289 1269 1290
f 1290 1269 1270
f 1290 1270 1291
f 1291 1270 1271
f 1291 1271 1292
f 1292 1271 1272
f 1292 1272 308
f 308 1272 310
f 290 289 1293
f 1293 289 1273
f 1293 1273 1294
f 1294 1273 1274
f 1294 1274 1295
f 1295 1274 1275
f 1295 1275 1296
f 1296 1275 1276
f 1296 1276 1297
f 1297 1276 1277
f 1297 1277 1298
f 1298 1277 1278
f 1298 1278 1299
f 1299 1278 1279
f 1299 1279 1300
f 1300 1279 1280
f 1300 1280 1301
f 1301 1280 1281
f 1301 1281 1302
f 1302 1281 1282
f 1302 1282 1303
f 1303 1282 1283
f 1303 1283 1304
f 1304 1283 1284
f 1304 1284 1305
f 1305 1284 1285
f 1305 1285 1306
f 1306 1285 1286
f 1306 1286 1307
f 1307 1286 1287
f 1307 1287 1308
f 1308 1287 1288
f 1308 1288 1309
f 1309 1288 1289
f 1309 1289 1310
f 1310 1289 1290
f 1310 1290 1311
f 1311 1290 1291
f 1311 1291 1312
f 1312 1291 1292
f 1312 1292 306
f 306 1292 308
f 291 290 1313
f 1313 290 1293
f 1313 1293 1314
f 1314 1293 1294
f 1314 1294 1315
f 1315 1294 1295
f 1315 1295 1316
f 1316 1295 1296
f 1316 1296 1317
f 1317 1296 1297
f 1317 1297 1318
f 1318 1297 1298
f 1318 1298 1319
f 1319 1298 1299
f 1319 1299 1320
f 1320 1299 1300
f 1320 1300 1321
f 1321 1300 1301
f 1321 1301 1322
f 1322 1301 1302
f 1322 1302 1323
f 1323 1302 1303
f 1323 1303 1324
f 1324 1303 1304
f 1324 1304 1325
f 1325 1304 1305
f 1325 1305 1326
f 1326 1305 1306
f 1326 1306 1327
f 1327 1306 1307
f 1327 1307 1328
f 1328 1307 1308
f 1328 1308 1329
f 1329 1308 1309
f 1329 1309 1330
f 1330 1309 1310
f 1330 1310 1331
f 1331 1310 1311
f 1331 1311 1332
f 1332 1311 1312
f 1332 1312 304
f 304 1312 306
f 292 291 1333
f 1333 291 1313
f 1333 1313 1334
f 1334 1313 1314
f 1334 1314 1335
f 1335 1314 1315
f 1335 1315 1336
f 1336 1315 1316
f 1336 1316 1337
f 1337 1316 1317
f 1337 1317 1338
f 1338 1317 1318
f 1338 1318 1339
f 1339 1318 1319
f 1339 1319 1340
f 1340 1319 1320
f 1340 1320 1341
f 1341 1320 1321
f 1341 1321 1342
f 1342 1321 1322
f 1342 1322 1343
f 1343 1322 1323
f 1343 1323 1344
f 1344 1323 1324
f 1344 1324 1345
f 1345 1324 1325
f 1345 1325 1346
f 1346 1325 1326
f 1346 1326 1347
f 1347 1326 1327
f 1347 1327 1348
f 1348 1327 1328
f 1348 1328 1349
f 1349 1328 1329
f 1349 1329 1350
f 1350 1329 1330
f 1350 1330 1351
f 1351 1330 1331
f 1351 1331 1352
f 1352 1331 1332
f 1352 1332 302
f 302 1332 304
f 452 294 293
f 293 292 1353
f 1353 292 1333
f 1353 1333 1354
f 1354 1333 1334
f 1354 1334 1355
f 1355 1334 1335
f 1355 1335 1356
f 1356 1335 1336
f 1356 1336 1357
f 1357 1336 1337
f 1357 1337 1358
f 1358 1337 1338
f 1358 1338 1359
f 1359 1338 1339
f 1359 1339 1360
f 1360 1339 1340
f 1360 1340 1361
f 1361 1340 1341
f 1361 1341 1362
f 1362 1341 1342
f 1362 1342 1363
f 1363 1342 1343
f 1363 1343 1364
f 1364 1343 1344
f 1364 1344 1365
f 1365 1344 1345
f 1365 1345 1366
f 1366 1345 1346
f 1366 1346 1367
f 1367 1346 1347
f 1367 1347 1368
f 1368 1347 1348
f 1368 1348 1369
f 1369 1348 1349
f 1369 1349 1370
f 1370 1349 1350
f 1370 1350 1371
f 1371 1350 1351
f 1371 1351 1372
f 1372 1351 1352
f 1372 1352 300
f 300 1352 302
f 1372 300 298
f 1372 298 489
f 453 452 1353
f 1353 452 293
f 453 1353 1354
f 455 453 1354
f 455 1354 1355
f 457 455 1355
f 457 1355 1356
f 459 457 1356
f 459 1356 1357
f 461 459 1357
f 461 1357 1358
f 463 461 1358
f 463 1358 1359
f 465 463 1359
f 465 1359 1360
f 467 465 1360
f 467 1360 1361
f 469 467 1361
f 469 1361 1362
f 471 469 1362
f 471 1362 1363
f 473 471 1363
f 473 1363 1364
f 475 473 1364
f 475 1364 1365
f 477 475 1365
f 477 1365 1366
f 479 477 1366
f 479 1366 1367
f 481 479 1367
f 481 1367 1368
f 483 481 1368
f 483 1368 1369
f 485 483 1369
f 485 1369 1370
f 487 485 1370
f 487 1370 1371
f 489 487 1371
f 489 1371 1372
f 299 1373 297
f 297 1373 1374
f 297 1374 295
f 295 1374 1375
f 295 1375 391
f 391 1375 1376
f 391 1376 389
f 389 1376 1377
f 389 1377 387
f 387 1377 1378
f 387 1378 385
f 385 1378 1379
f 385 1379 383
f 383 1379 1380
f 383 1380 381
f 381 1380 1381
f 381 1381 379
f 379 1381 1382
f 379 1382 377
f 377 1382 1383
f 377 1383 375
f 375 1383 1384
f 375 1384 373
f 373 1384 1385
f 373 1385 371
f 371 1385 1386
f 371 1386 369
f 369 1386 1387
f 369 1387 367
f 367 1387 1388
f 367 1388 365
f 365 1388 1389
f 365 1389 363
f 363 1389 1390
f 363 1390 361
f 361 1390 1391
f 361 1391 359
f 359 1391 1392
f 359 1392 357
f 357 1392 1393
f 357 1393 355
f 355 1393 1394
f 355 1394 353
f 353 1394 1395
f 353 1395 351
f 351 1395 1396
f 351 1396 349
f 349 1396 1397
f 349 1397 347
f 347 1397 1398
f 347 1398 345
f 345 1398 1399
f 345 1399 343
f 343 1399 1400
f 343 1400 341
f 341 1400 1401
f 341 1401 339
f 339 1401 1402
f 339 1402 337
f 337 1402 1403
f 337 1403 335
f 335 1403 1404
f 335 1404 333
f 333 1404 1405
f 333 1405 331
f 331 1405 1406
f 331 1406 329
f 329 1406 1407
f 329 1407 327
f 327 1407 1408
f 327 1408 325
f 325 1408 1409
f 325 1409 323
f 323 1409 1410
f 323 1410 321
f 321 1410 1411
f 321 1411 319
f 319 1411 1412
f 319 1412 317
f 317 1412 1413
f 317 1413 315
f 315 1413 1414
f 315 1414 313
f 313 1414 1415
f 313 1415 311
f 311 1415 1416
f 311 1416 309
f 309 1416 1417
f 309 1417 307
f 307 1417 1418
f 307 1418 305
f 305 1418 1419
f 305 1419 303
f 303 1419 1420
f 303 1420 301
f 301 1420 1421
f 301 1421 299
f 299 1421 1373
f 1424 1423 1450
f 1450 1423 1422
f 1450 1422 1470
f 1470 1469 1450
f 1450 1469 1451
f 1451 1469 1468
f 1451 1468 1452
f 1452 1468 1467
f 1452 1467 1453
f 1453 1467 1466
f 1453 1466 1454
f 1454 1466 1465
f 1454 1465 1455
f 1455 1465 1464
f 1455 1464 1456
f 1456 1464 1463
f 1456 1463 1457
f 1457 1463 1462
f 1457 1462 1458
f 1458 1462 1461
f 1458 1461 1459
f 1459 1461 1460
f 1449 1445 1450
f 1450 1445 1444
f 1450 1444 1443
f 1445 1449 1446
f 1446 1449 1448
f 1446 1448 1447
f 1443 1442 1450
f 1450 1442 1441
f 1450 1441 1440
f 1440 1439 1450
f 1450 1439 1438
f 1450 1438 1437
f 1437 1436 1450
f 1450 1436 1435
f 1450 1435 1434
f 1434 1433 1450
f 1450 1433 1432
f 1450 1432 1431
f 1431 1430 1450
f 1450 1430 1429
f 1450 1429 1428
f 1428 1427 1450
f 1450 1427 1426
f 1450 1426 1425
f 1425 1424 1450

