# https://github.com/mikedh/trimesh
v -139.32452393 68.72566223 132.00000000
v -136.69360352 68.71935272 132.00000000
v -139.00404358 68.62806702 132.00000000
v -137.01454163 68.62329102 132.00000000
v -138.67652893 68.55762482 132.00000000
v -137.34239197 68.55442810 132.00000000
v -138.34426880 68.51483917 132.00000000
v -137.67485046 68.51323700 132.00000000
v -138.00959778 68.50001526 132.00000000
v -136.38182068 68.84192657 132.00000000
v -139.63571167 68.84973145 132.00000000
v -136.08140564 68.99015808 132.00000000
v -139.93540955 68.99940491 132.00000000
v -135.79443359 69.16301727 132.00000000
v -140.22155762 69.17363739 132.00000000
v -135.52293396 69.35927582 132.00000000
v -140.49209595 69.37119293 132.00000000
v -135.26881409 69.57756805 132.00000000
v -140.74517822 69.59069824 132.00000000
v -135.03384399 69.81635284 132.00000000
v -140.97898865 69.83061218 132.00000000
v -134.81968689 70.07396698 132.00000000
v -141.19190979 70.08925629 132.00000000
v -134.62783813 70.34859467 132.00000000
v -141.38244629 70.36479950 132.00000000
v -134.45964050 70.63832092 132.00000000
v -141.54925537 70.65532684 132.00000000
v -134.31626892 70.94110107 132.00000000
v -141.69116211 70.95878601 132.00000000
v -134.19874573 71.25481415 132.00000000
v -141.80717468 71.27306366 132.00000000
v -134.10787964 71.57725525 132.00000000
v -141.89649963 71.59593964 132.00000000
v -134.04432678 71.90618134 132.00000000
v -141.95848083 71.92516327 132.00000000
v -134.00851440 72.23926544 132.00000000
v -141.99269104 72.25841522 132.00000000
v -134.00068665 72.57418060 132.00000000
v -141.99891663 72.59336090 132.00000000
v -134.02091980 72.90856934 132.00000000
v -141.97706604 72.92765808 132.00000000
v -134.06906128 73.24009705 132.00000000
v -141.92733765 73.25894928 132.00000000
v -134.14477539 73.56643677 132.00000000
v -141.85005188 73.58491516 132.00000000
v -134.24754333 73.88529205 132.00000000
v -141.74577332 73.90327454 132.00000000
v -134.37661743 74.19442749 132.00000000
v -141.61521912 74.21179199 132.00000000
v -134.53111267 74.49168396 132.00000000
v -141.45928955 74.50830078 132.00000000
v -134.70993042 74.77497101 132.00000000
v -141.27911377 74.79072571 132.00000000
v -134.91183472 75.04229736 132.00000000
v -141.07592773 75.05708313 132.00000000
v -135.13540649 75.29179382 132.00000000
v -140.85116577 75.30550385 132.00000000
v -135.37905884 75.52170563 132.00000000
v -140.60641479 75.53424072 132.00000000
v -135.64109802 75.73041534 132.00000000
v -140.34336853 75.74169922 132.00000000
v -135.91969299 75.91647339 132.00000000
v -140.06388855 75.92641449 132.00000000
v -136.21287537 76.07856750 132.00000000
v -139.76994324 76.08710480 132.00000000
v -136.51858521 76.21556091 132.00000000
v -139.46357727 76.22262573 132.00000000
v -136.83468628 76.32649231 132.00000000
v -139.14694214 76.33203888 132.00000000
v -137.15896606 76.41058350 132.00000000
v -138.82226562 76.41457367 132.00000000
v -137.48915100 76.46724701 132.00000000
v -138.49180603 76.46965027 132.00000000
v -137.82290649 76.49607849 132.00000000
v -138.15791321 76.49687958 132.00000000
v -139.32452393 68.72566223 132.00000000
v -136.69360352 68.71935272 132.00000000
v -139.00404358 68.62806702 132.00000000
v -137.01454163 68.62329102 132.00000000
v -138.67652893 68.55762482 132.00000000
v -137.34239197 68.55442810 132.00000000
v -138.34426880 68.51483917 132.00000000
v -137.67485046 68.51323700 132.00000000
v -138.00959778 68.50001526 132.00000000
v -136.38182068 68.84192657 132.00000000
v -139.63571167 68.84973145 132.00000000
v -136.08140564 68.99015808 132.00000000
v -139.93540955 68.99940491 132.00000000
v -135.79443359 69.16301727 132.00000000
v -140.22155762 69.17363739 132.00000000
v -135.52293396 69.35927582 132.00000000
v -140.49209595 69.37119293 132.00000000
v -135.26881409 69.57756805 132.00000000
v -140.74517822 69.59069824 132.00000000
v -135.03384399 69.81635284 132.00000000
v -140.97898865 69.83061218 132.00000000
v -134.81968689 70.07396698 132.00000000
v -141.19190979 70.08925629 132.00000000
v -134.62783813 70.34859467 132.00000000
v -141.38244629 70.36479950 132.00000000
v -134.45964050 70.63832092 132.00000000
v -141.54925537 70.65532684 132.00000000
v -134.31626892 70.94110107 132.00000000
v -141.69116211 70.95878601 132.00000000
v -134.19874573 71.25481415 132.00000000
v -141.80717468 71.27306366 132.00000000
v -134.10787964 71.57725525 132.00000000
v -141.89649963 71.59593964 132.00000000
v -134.04432678 71.90618134 132.00000000
v -141.95848083 71.92516327 132.00000000
v -134.00851440 72.23926544 132.00000000
v -141.99269104 72.25841522 132.00000000
v -134.00068665 72.57418060 132.00000000
v -141.99891663 72.59336090 132.00000000
v -134.02091980 72.90856934 132.00000000
v -141.97706604 72.92765808 132.00000000
v -134.06906128 73.24009705 132.00000000
v -141.92733765 73.25894928 132.00000000
v -134.14477539 73.56643677 132.00000000
v -141.85005188 73.58491516 132.00000000
v -134.24754333 73.88529205 132.00000000
v -141.74577332 73.90327454 132.00000000
v -134.37661743 74.19442749 132.00000000
v -141.61521912 74.21179199 132.00000000
v -134.53111267 74.49168396 132.00000000
v -141.45928955 74.50830078 132.00000000
v -134.70993042 74.77497101 132.00000000
v -141.27911377 74.79072571 132.00000000
v -134.91183472 75.04229736 132.00000000
v -141.07592773 75.05708313 132.00000000
v -135.13540649 75.29179382 132.00000000
v -140.85116577 75.30550385 132.00000000
v -135.37905884 75.52170563 132.00000000
v -140.60641479 75.53424072 132.00000000
v -135.64109802 75.73041534 132.00000000
v -140.34336853 75.74169922 132.00000000
v -135.91969299 75.91647339 132.00000000
v -140.06388855 75.92641449 132.00000000
v -136.21287537 76.07856750 132.00000000
v -139.76994324 76.08710480 132.00000000
v -136.51858521 76.21556091 132.00000000
v -139.46357727 76.22262573 132.00000000
v -136.83468628 76.32649231 132.00000000
v -139.14694214 76.33203888 132.00000000
v -137.15896606 76.41058350 132.00000000
v -138.82226562 76.41457367 132.00000000
v -137.48915100 76.46724701 132.00000000
v -138.49180603 76.46965027 132.00000000
v -137.82290649 76.49607849 132.00000000
v -138.15791321 76.49687958 132.00000000
v -138.67652893 68.55762482 138.26666260
v -139.00404358 68.62806702 138.26666260
v -139.32452393 68.72566223 138.26666260
v -139.63571167 68.84973145 138.26666260
v -139.93540955 68.99940491 138.26666260
v -140.22155762 69.17363739 138.26666260
v -140.49209595 69.37119293 138.26666260
v -140.74517822 69.59069824 138.26666260
v -140.97898865 69.83061218 138.26666260
v -141.19190979 70.08925629 138.26666260
v -141.38244629 70.36479950 138.26666260
v -141.54925537 70.65532684 138.26666260
v -141.69116211 70.95878601 138.26666260
v -141.80717468 71.27306366 138.26666260
v -141.89649963 71.59593964 138.26666260
v -141.95848083 71.92516327 138.26666260
v -141.99269104 72.25841522 138.26666260
v -141.99891663 72.59336090 138.26666260
v -141.97706604 72.92765808 138.26666260
v -141.92733765 73.25894928 138.26666260
v -141.85005188 73.58491516 138.26666260
v -141.74577332 73.90327454 138.26666260
v -141.61521912 74.21179199 138.26666260
v -141.45928955 74.50830078 138.26666260
v -141.27911377 74.79072571 138.26666260
v -141.07592773 75.05708313 138.26666260
v -140.85116577 75.30550385 138.26666260
v -140.60641479 75.53424072 138.26666260
v -140.34336853 75.74169922 138.26666260
v -140.06388855 75.92641449 138.26666260
v -139.76994324 76.08710480 138.26666260
v -139.46357727 76.22262573 138.26666260
v -139.14694214 76.33203888 138.26666260
v -138.82226562 76.41457367 138.26666260
v -138.49180603 76.46965027 138.26666260
v -138.15791321 76.49687958 138.26666260
v -137.82290649 76.49607849 138.26666260
v -137.48915100 76.46724701 138.26666260
v -137.15896606 76.41058350 138.26666260
v -136.83468628 76.32649231 138.26666260
v -136.51858521 76.21556091 138.26666260
v -136.21287537 76.07856750 138.26666260
v -135.91969299 75.91647339 138.26666260
v -135.64109802 75.73041534 138.26666260
v -135.37905884 75.52170563 138.26666260
v -135.13540649 75.29179382 138.26666260
v -134.91183472 75.04229736 138.26666260
v -134.70993042 74.77497101 138.26666260
v -134.53111267 74.49168396 138.26666260
v -134.37661743 74.19442749 138.26666260
v -134.24754333 73.88529205 138.26666260
v -134.14477539 73.56643677 138.26666260
v -134.12597656 73.49594879 136.30000305
v -134.14477539 73.56643677 144.53334045
v -134.12597656 73.49594879 150.80000305
v -134.22277832 73.81629944 150.80000305
v -134.24754333 73.88529205 144.53334045
v -134.34603882 74.12744141 150.80000305
v -134.37661743 74.19442749 144.53334045
v -134.49487305 74.42718506 150.80000305
v -134.53111267 74.49168396 144.53334045
v -134.66822815 74.71344757 150.80000305
v -134.70993042 74.77497101 144.53334045
v -134.86492920 74.98420715 150.80000305
v -134.91183472 75.04229736 144.53334045
v -135.08355713 75.23757935 150.80000305
v -135.13540649 75.29179382 144.53334045
v -135.32260132 75.47179413 150.80000305
v -135.37905884 75.52170563 144.53334045
v -135.58039856 75.68520355 150.80000305
v -135.64109802 75.73041534 144.53334045
v -135.85511780 75.87631226 150.80000305
v -135.91969299 75.91647339 144.53334045
v -136.14486694 76.04379272 150.80000305
v -136.21287537 76.07856750 144.53334045
v -136.44758606 76.18646240 150.80000305
v -136.51858521 76.21556091 144.53334045
v -136.76118469 76.30332947 150.80000305
v -136.83468628 76.32649231 144.53334045
v -137.08345032 76.39357758 150.80000305
v -137.15896606 76.41058350 144.53334045
v -137.41212463 76.45656586 150.80000305
v -137.48915100 76.46724701 144.53334045
v -137.74491882 76.49185944 150.80000305
v -137.82290649 76.49607849 144.53334045
v -138.07949829 76.49920654 150.80000305
v -138.15791321 76.49687958 144.53334045
v -138.41352844 76.47856903 150.80000305
v -138.49180603 76.46965027 144.53334045
v -138.74465942 76.43007660 150.80000305
v -138.82226562 76.41457367 144.53334045
v -139.07057190 76.35407257 150.80000305
v -139.14694214 76.33203888 144.53334045
v -139.38899231 76.25109100 150.80000305
v -139.46357727 76.22262573 144.53334045
v -139.69769287 76.12185669 150.80000305
v -139.76994324 76.08710480 144.53334045
v -139.99452209 75.96726227 150.80000305
v -140.06388855 75.92641449 144.53334045
v -140.27737427 75.78839874 150.80000305
v -140.34336853 75.74169922 144.53334045
v -140.54428101 75.58652496 150.80000305
v -140.60641479 75.53424072 144.53334045
v -140.79339600 75.36303711 150.80000305
v -140.85116577 75.30550385 144.53334045
v -141.02293396 75.11950684 150.80000305
v -141.07592773 75.05708313 144.53334045
v -141.23132324 74.85765076 150.80000305
v -141.27911377 74.79072571 144.53334045
v -141.41709900 74.57928467 150.80000305
v -141.45928955 74.50830078 144.53334045
v -141.57894897 74.28636169 150.80000305
v -141.61521912 74.21179199 144.53334045
v -141.71575928 73.98093414 150.80000305
v -141.74577332 73.90327454 144.53334045
v -141.82653809 73.66514587 150.80000305
v -141.85005188 73.58491516 144.53334045
v -141.91055298 73.34119415 150.80000305
v -141.92733765 73.25894928 144.53334045
v -141.96717834 73.01136017 150.80000305
v -141.97706604 72.92765808 144.53334045
v -141.99603271 72.67794800 150.80000305
v -141.99891663 72.59336090 144.53334045
v -141.99693298 72.34328461 150.80000305
v -141.99269104 72.25841522 144.53334045
v -141.96983337 72.00971985 150.80000305
v -141.95848083 71.92516327 144.53334045
v -141.91496277 71.67958832 150.80000305
v -141.89649963 71.59593964 144.53334045
v -141.83268738 71.35520172 150.80000305
v -141.80717468 71.27306366 144.53334045
v -141.72357178 71.03882599 150.80000305
v -141.69116211 70.95878601 144.53334045
v -141.58839417 70.73268127 150.80000305
v -141.54925537 70.65532684 144.53334045
v -141.42810059 70.43890381 150.80000305
v -141.38244629 70.36479950 144.53334045
v -141.24380493 70.15955353 150.80000305
v -141.19190979 70.08925629 144.53334045
v -141.03681946 69.89658356 150.80000305
v -140.97898865 69.83061218 144.53334045
v -140.80856323 69.65184784 150.80000305
v -140.74517822 69.59069824 144.53334045
v -140.56065369 69.42704010 150.80000305
v -140.49209595 69.37119293 144.53334045
v -140.29481506 69.22374725 150.80000305
v -140.22155762 69.17363739 144.53334045
v -140.01290894 69.04338074 150.80000305
v -139.93540955 68.99940491 144.53334045
v -139.71691895 68.88721466 150.80000305
v -139.63571167 68.84973145 144.53334045
v -139.40890503 68.75634003 150.80000305
v -139.32452393 68.72566223 144.53334045
v -139.09103394 68.65167236 150.80000305
v -139.00404358 68.62806702 144.53334045
v -138.76551819 68.57393646 150.80000305
v -138.67652893 68.55762482 144.53334045
v -138.43466187 68.52368927 150.80000305
v -138.34426880 68.51483917 144.53334045
v -138.10075378 68.50126648 150.80000305
v -138.00959778 68.50001526 144.53334045
v -137.76612854 68.50684357 150.80000305
v -137.67485046 68.51323700 144.53334045
v -137.43315125 68.54036713 150.80000305
v -137.34239197 68.55442810 144.53334045
v -137.10414124 68.60160828 150.80000305
v -137.01454163 68.62329102 144.53334045
v -136.78140259 68.69013977 150.80000305
v -136.69360352 68.71935272 144.53334045
v -136.46719360 68.80534363 150.80000305
v -136.38182068 68.84192657 144.53334045
v -136.16371155 68.94640350 150.80000305
v -136.08140564 68.99015808 144.53334045
v -135.87309265 69.11234283 150.80000305
v -135.79443359 69.16301727 144.53334045
v -135.59735107 69.30198669 150.80000305
v -135.52293396 69.35927582 144.53334045
v -135.33842468 69.51402283 150.80000305
v -135.26881409 69.57756805 144.53334045
v -135.09814453 69.74696350 150.80000305
v -135.09814453 69.74696350 136.30000305
v -135.26881409 69.57756805 138.26666260
v -135.52293396 69.35927582 138.26666260
v -135.79443359 69.16301727 138.26666260
v -136.08140564 68.99015808 138.26666260
v -136.38182068 68.84192657 138.26666260
v -136.69360352 68.71935272 138.26666260
v -137.01454163 68.62329102 138.26666260
v -137.34239197 68.55442810 138.26666260
v -137.67485046 68.51323700 138.26666260
v -138.00959778 68.50001526 138.26666260
v -138.34426880 68.51483917 138.26666260
v -135.09504700 69.75022125 136.22654724
v -135.08590698 69.75991821 136.15374756
v -135.07090759 69.77595520 136.08244324
v -135.05047607 69.79808807 136.01342773
v -135.02522278 69.82592010 135.94738770
v -134.99578857 69.85908508 135.88499451
v -134.92771912 69.93868256 135.77249146
v -134.85354614 70.03021240 135.67814636
v -134.77511597 70.13407898 135.59866333
v -134.69215393 70.25180817 135.52920532
v -134.61152649 70.37457275 135.47213745
v -134.53796387 70.49687195 135.42826843
v -134.46682739 70.62735748 135.39202881
v -134.39822388 70.76542664 135.36238098
v -134.33314514 70.90898895 135.33895874
v -134.27258301 71.05591583 135.32136536
v -134.21755981 71.20412445 135.30924988
v -134.16905212 71.35150146 135.30224609
v -134.12806702 71.49594879 135.30000305
v -134.09368896 71.64211273 135.30224609
v -134.06446838 71.79448700 135.30924988
v -134.04054260 71.95076752 135.32136536
v -134.02206421 72.10861206 135.33895874
v -134.00918579 72.26570129 135.36238098
v -134.00204468 72.41971588 135.39202881
v -134.00080872 72.56832123 135.42826843
v -134.00566101 72.71095276 135.47213745
v -134.01647949 72.85742950 135.52920532
v -134.03176880 73.00064087 135.59866333
v -134.04985046 73.12953949 135.67814636
v -134.07019043 73.24557495 135.77249146
v -134.09100342 73.34822083 135.88499451
v -134.10061646 73.39151001 135.94738770
v -134.10916138 73.42810822 136.01342773
v -134.11625671 73.45738220 136.08244324
v -134.12156677 73.47868347 136.15374756
v -134.12484741 73.49160004 136.22654724
v -134.12597656 73.49594879 150.80000305
v -134.22277832 73.81629944 150.80000305
v -134.34603882 74.12744141 150.80000305
v -134.49487305 74.42718506 150.80000305
v -134.66822815 74.71344757 150.80000305
v -134.86492920 74.98420715 150.80000305
v -135.08355713 75.23757935 150.80000305
v -135.32260132 75.47179413 150.80000305
v -135.58039856 75.68520355 150.80000305
v -135.85511780 75.87631226 150.80000305
v -136.14486694 76.04379272 150.80000305
v -136.44758606 76.18646240 150.80000305
v -136.76118469 76.30332947 150.80000305
v -137.08345032 76.39357758 150.80000305
v -137.41212463 76.45656586 150.80000305
v -137.74491882 76.49185944 150.80000305
v -138.07949829 76.49920654 150.80000305
v -138.41352844 76.47856903 150.80000305
v -138.74465942 76.43007660 150.80000305
v -139.07057190 76.35407257 150.80000305
v -139.38899231 76.25109100 150.80000305
v -139.69769287 76.12185669 150.80000305
v -139.99452209 75.96726227 150.80000305
v -140.27737427 75.78839874 150.80000305
v -140.54428101 75.58652496 150.80000305
v -140.79339600 75.36303711 150.80000305
v -141.02293396 75.11950684 150.80000305
v -141.23132324 74.85765076 150.80000305
v -141.41709900 74.57928467 150.80000305
v -141.57894897 74.28636169 150.80000305
v -141.71575928 73.98093414 150.80000305
v -141.82653809 73.66514587 150.80000305
v -141.91055298 73.34119415 150.80000305
v -141.96717834 73.01136017 150.80000305
v -141.99603271 72.67794800 150.80000305
v -141.99693298 72.34328461 150.80000305
v -141.96983337 72.00971985 150.80000305
v -141.91496277 71.67958832 150.80000305
v -141.83268738 71.35520172 150.80000305
v -141.72357178 71.03882599 150.80000305
v -141.58839417 70.73268127 150.80000305
v -141.42810059 70.43890381 150.80000305
v -141.24380493 70.15955353 150.80000305
v -141.03681946 69.89658356 150.80000305
v -140.80856323 69.65184784 150.80000305
v -140.56065369 69.42704010 150.80000305
v -140.29481506 69.22374725 150.80000305
v -140.01290894 69.04338074 150.80000305
v -139.71691895 68.88721466 150.80000305
v -139.40890503 68.75634003 150.80000305
v -139.09103394 68.65167236 150.80000305
v -138.76551819 68.57393646 150.80000305
v -138.43466187 68.52368927 150.80000305
v -138.10075378 68.50126648 150.80000305
v -137.76612854 68.50684357 150.80000305
v -137.43315125 68.54036713 150.80000305
v -137.10414124 68.60160828 150.80000305
v -136.78140259 68.69013977 150.80000305
v -136.46719360 68.80534363 150.80000305
v -136.16371155 68.94640350 150.80000305
v -135.87309265 69.11234283 150.80000305
v -135.59735107 69.30198669 150.80000305
v -135.33842468 69.51402283 150.80000305
v -135.09814453 69.74696350 150.80000305
v -134.61206055 71.62145996 151.30000305
v -134.70445251 71.32129669 151.30000305
v -134.66882324 71.40253448 151.29269409
v -134.72595215 71.18224335 151.27070618
v -134.82337952 71.03063202 151.30000305
v -134.78379822 70.95917511 151.23374939
v -134.96788025 70.75180054 151.30000305
v -134.84274292 70.73186493 151.18135071
v -134.90318298 70.49876404 151.11283875
v -135.13677979 70.48703766 151.30000305
v -134.96557617 70.25818634 151.02726746
v -135.32875061 70.23848724 151.30000305
v -135.03038025 70.00827789 150.92349243
v -135.54222107 70.00814056 151.30000305
v -135.77549744 69.79785919 151.30000305
v -136.02665710 69.60933685 151.30000305
v -136.29373169 69.44408417 151.30000305
v -136.57452393 69.30343628 151.30000305
v -136.86680603 69.18852234 151.30000305
v -137.16819763 69.10028076 151.30000305
v -137.47630310 69.03940582 151.30000305
v -137.78862000 69.00638580 151.30000305
v -138.10263062 69.00150299 151.30000305
v -138.41581726 69.02478790 151.30000305
v -138.72566223 69.07604980 151.30000305
v -139.02966309 69.15488434 151.30000305
v -139.32536316 69.26065063 151.30000305
v -139.61041260 69.39249420 151.30000305
v -139.88247681 69.54936218 151.30000305
v -140.13938904 69.72998047 151.30000305
v -140.37908936 69.93290710 151.30000305
v -140.59960938 70.15650177 151.30000305
v -140.79922485 70.39896393 151.30000305
v -140.97628784 70.65834045 151.30000305
v -141.12939453 70.93254852 151.30000305
v -141.25729370 71.21937561 151.30000305
v -141.35897827 71.51651001 151.30000305
v -141.43362427 71.82156372 151.30000305
v -141.48060608 72.13208771 151.30000305
v -141.49957275 72.44556427 151.30000305
v -141.49037170 72.75948334 151.30000305
v -141.45306396 73.07131195 151.30000305
v -141.38793945 73.37854004 151.30000305
v -141.29554749 73.67870331 151.30000305
v -141.17662048 73.96936798 151.30000305
v -141.03211975 74.24819946 151.30000305
v -140.86322021 74.51296234 151.30000305
v -140.67124939 74.76151276 151.30000305
v -140.45777893 74.99185944 151.30000305
v -140.22450256 75.20214081 151.30000305
v -139.97334290 75.39066315 151.30000305
v -139.70626831 75.55591583 151.30000305
v -139.42547607 75.69656372 151.30000305
v -139.13319397 75.81147766 151.30000305
v -138.83180237 75.89971924 151.30000305
v -138.52369690 75.96059418 151.30000305
v -138.21138000 75.99361420 151.30000305
v -137.89736938 75.99849701 151.30000305
v -137.58418274 75.97521210 151.30000305
v -137.27433777 75.92395020 151.30000305
v -136.97033691 75.84511566 151.30000305
v -136.67463684 75.73934937 151.30000305
v -136.38958740 75.60750580 151.30000305
v -136.11752319 75.45063782 151.30000305
v -135.86061096 75.27001953 151.30000305
v -135.62091064 75.06709290 151.30000305
v -135.40039062 74.84349823 151.30000305
v -135.20077515 74.60103607 151.30000305
v -135.02371216 74.34165955 151.30000305
v -134.87060547 74.06745148 151.30000305
v -134.74270630 73.78062439 151.30000305
v -134.64102173 73.48348999 151.30000305
v -134.56637573 73.17843628 151.30000305
v -134.19374084 73.23463440 150.92349243
v -134.25854492 72.98472595 151.02726746
v -134.51939392 72.86791229 151.30000305
v -134.32092285 72.74414825 151.11283875
v -134.50042725 72.55443573 151.30000305
v -134.38137817 72.51104736 151.18135071
v -134.44032288 72.28373718 151.23374939
v -134.50962830 72.24051666 151.30000305
v -134.49816895 72.06066895 151.27070618
v -134.54693604 71.92868805 151.30000305
v -134.55528259 71.84037781 151.29269409
v -134.61206055 71.62145996 151.30000305
v -134.70445251 71.32129669 151.30000305
v -134.82337952 71.03063202 151.30000305
v -134.96788025 70.75180054 151.30000305
v -135.13677979 70.48703766 151.30000305
v -135.32875061 70.23848724 151.30000305
v -135.54222107 70.00814056 151.30000305
v -135.77549744 69.79785919 151.30000305
v -136.02665710 69.60933685 151.30000305
v -136.29373169 69.44408417 151.30000305
v -136.57452393 69.30343628 151.30000305
v -136.86680603 69.18852234 151.30000305
v -137.16819763 69.10028076 151.30000305
v -137.47630310 69.03940582 151.30000305
v -137.78862000 69.00638580 151.30000305
v -138.10263062 69.00150299 151.30000305
v -138.41581726 69.02478790 151.30000305
v -138.72566223 69.07604980 151.30000305
v -139.02966309 69.15488434 151.30000305
v -139.32536316 69.26065063 151.30000305
v -139.61041260 69.39249420 151.30000305
v -139.88247681 69.54936218 151.30000305
v -140.13938904 69.72998047 151.30000305
v -140.37908936 69.93290710 151.30000305
v -140.59960938 70.15650177 151.30000305
v -140.79922485 70.39896393 151.30000305
v -140.97628784 70.65834045 151.30000305
v -141.12939453 70.93254852 151.30000305
v -141.25729370 71.21937561 151.30000305
v -141.35897827 71.51651001 151.30000305
v -141.43362427 71.82156372 151.30000305
v -141.48060608 72.13208771 151.30000305
v -141.49957275 72.44556427 151.30000305
v -141.49037170 72.75948334 151.30000305
v -141.45306396 73.07131195 151.30000305
v -141.38793945 73.37854004 151.30000305
v -141.29554749 73.67870331 151.30000305
v -141.17662048 73.96936798 151.30000305
v -141.03211975 74.24819946 151.30000305
v -140.86322021 74.51296234 151.30000305
v -140.67124939 74.76151276 151.30000305
v -140.45777893 74.99185944 151.30000305
v -140.22450256 75.20214081 151.30000305
v -139.97334290 75.39066315 151.30000305
v -139.70626831 75.55591583 151.30000305
v -139.42547607 75.69656372 151.30000305
v -139.13319397 75.81147766 151.30000305
v -138.83180237 75.89971924 151.30000305
v -138.52369690 75.96059418 151.30000305
v -138.21138000 75.99361420 151.30000305
v -137.89736938 75.99849701 151.30000305
v -137.58418274 75.97521210 151.30000305
v -137.27433777 75.92395020 151.30000305
v -136.97033691 75.84511566 151.30000305
v -136.67463684 75.73934937 151.30000305
v -136.38958740 75.60750580 151.30000305
v -136.11752319 75.45063782 151.30000305
v -135.86061096 75.27001953 151.30000305
v -135.62091064 75.06709290 151.30000305
v -135.40039062 74.84349823 151.30000305
v -135.20077515 74.60103607 151.30000305
v -135.02371216 74.34165955 151.30000305
v -134.87060547 74.06745148 151.30000305
v -134.74270630 73.78062439 151.30000305
v -134.64102173 73.48348999 151.30000305
v -134.56637573 73.17843628 151.30000305
v -134.51939392 72.86791229 151.30000305
v -134.50042725 72.55443573 151.30000305
v -134.50962830 72.24051666 151.30000305
v -134.54693604 71.92868805 151.30000305
v -134.12597656 73.49594879 136.30000305
v -134.12597656 73.49594879 150.80000305
v -135.09814453 69.74696350 150.80000305
v -135.09814453 69.74696350 136.30000305
v -135.09504700 69.75022125 136.22654724
v -135.08590698 69.75991821 136.15374756
v -135.07090759 69.77595520 136.08244324
v -135.05047607 69.79808807 136.01342773
v -135.02522278 69.82592010 135.94738770
v -134.99578857 69.85908508 135.88499451
v -134.92771912 69.93868256 135.77249146
v -134.85354614 70.03021240 135.67814636
v -134.77511597 70.13407898 135.59866333
v -134.69215393 70.25180817 135.52920532
v -134.61152649 70.37457275 135.47213745
v -134.53796387 70.49687195 135.42826843
v -134.46682739 70.62735748 135.39202881
v -134.39822388 70.76542664 135.36238098
v -134.33314514 70.90898895 135.33895874
v -134.27258301 71.05591583 135.32136536
v -134.21755981 71.20412445 135.30924988
v -134.16905212 71.35150146 135.30224609
v -134.12806702 71.49594879 135.30000305
v -134.09368896 71.64211273 135.30224609
v -134.06446838 71.79448700 135.30924988
v -134.04054260 71.95076752 135.32136536
v -134.02206421 72.10861206 135.33895874
v -134.00918579 72.26570129 135.36238098
v -134.00204468 72.41971588 135.39202881
v -134.00080872 72.56832123 135.42826843
v -134.00566101 72.71095276 135.47213745
v -134.01647949 72.85742950 135.52920532
v -134.03176880 73.00064087 135.59866333
v -134.04985046 73.12953949 135.67814636
v -134.07019043 73.24557495 135.77249146
v -134.09100342 73.34822083 135.88499451
v -134.10061646 73.39151001 135.94738770
v -134.10916138 73.42810822 136.01342773
v -134.11625671 73.45738220 136.08244324
v -134.12156677 73.47868347 136.15374756
v -134.12484741 73.49160004 136.22654724
v -134.61206055 71.62145996 151.30000305
v -134.66882324 71.40253448 151.29269409
v -134.72595215 71.18224335 151.27070618
v -134.78379822 70.95917511 151.23374939
v -134.84274292 70.73186493 151.18135071
v -134.90318298 70.49876404 151.11283875
v -134.96557617 70.25818634 151.02726746
v -135.03038025 70.00827789 150.92349243
v -134.19374084 73.23463440 150.92349243
v -134.25854492 72.98472595 151.02726746
v -134.32092285 72.74414825 151.11283875
v -134.38137817 72.51104736 151.18135071
v -134.44032288 72.28373718 151.23374939
v -134.49816895 72.06066895 151.27070618
v -134.55528259 71.84037781 151.29269409
f 1 2 3
f 3 2 4
f 3 4 5
f 5 4 6
f 5 6 7
f 7 6 8
f 7 8 9
f 2 1 10
f 10 1 11
f 10 11 12
f 12 11 13
f 12 13 14
f 14 13 15
f 14 15 16
f 16 15 17
f 16 17 18
f 18 17 19
f 18 19 20
f 20 19 21
f 20 21 22
f 22 21 23
f 22 23 24
f 24 23 25
f 24 25 26
f 26 25 27
f 26 27 28
f 28 27 29
f 28 29 30
f 30 29 31
f 30 31 32
f 32 31 33
f 32 33 34
f 34 33 35
f 34 35 36
f 36 35 37
f 36 37 38
f 38 37 39
f 38 39 40
f 40 39 41
f 40 41 42
f 42 41 43
f 42 43 44
f 44 43 45
f 44 45 46
f 46 45 47
f 46 47 48
f 48 47 49
f 48 49 50
f 50 49 51
f 50 51 52
f 52 51 53
f 52 53 54
f 54 53 55
f 54 55 56
f 56 55 57
f 56 57 58
f 58 57 59
f 58 59 60
f 60 59 61
f 60 61 62
f 62 61 63
f 62 63 64
f 64 63 65
f 64 65 66
f 66 65 67
f 66 67 68
f 68 67 69
f 68 69 70
f 70 69 71
f 70 71 72
f 72 71 73
f 72 73 74
f 74 73 75
f 80 151 78
f 78 151 152
f 78 152 76
f 76 152 153
f 76 153 86
f 86 153 154
f 86 154 88
f 88 154 155
f 88 155 90
f 90 155 156
f 90 156 92
f 92 156 157
f 92 157 94
f 94 157 158
f 94 158 96
f 96 158 159
f 96 159 98
f 98 159 160
f 98 160 100
f 100 160 161
f 100 161 102
f 102 161 162
f 102 162 104
f 104 162 163
f 104 163 106
f 106 163 164
f 106 164 108
f 108 164 165
f 108 165 110
f 110 165 166
f 110 166 112
f 112 166 167
f 112 167 114
f 114 167 168
f 114 168 116
f 116 168 169
f 116 169 118
f 118 169 170
f 118 170 120
f 120 170 171
f 120 171 122
f 122 171 172
f 122 172 124
f 124 172 173
f 124 173 126
f 126 173 174
f 126 174 128
f 128 174 175
f 128 175 130
f 130 175 176
f 130 176 132
f 132 176 177
f 132 177 134
f 134 177 178
f 134 178 136
f 136 178 179
f 136 179 138
f 138 179 180
f 138 180 140
f 140 180 181
f 140 181 142
f 142 181 182
f 142 182 144
f 144 182 183
f 144 183 146
f 146 183 184
f 146 184 148
f 148 184 185
f 148 185 150
f 150 185 186
f 150 186 149
f 149 186 187
f 149 187 147
f 147 187 188
f 147 188 145
f 145 188 189
f 145 189 143
f 143 189 190
f 143 190 141
f 141 190 191
f 141 191 139
f 139 191 192
f 139 192 137
f 137 192 193
f 137 193 135
f 135 193 194
f 135 194 133
f 133 194 195
f 133 195 131
f 131 195 196
f 131 196 129
f 129 196 197
f 129 197 127
f 127 197 198
f 127 198 125
f 125 198 199
f 125 199 123
f 123 199 200
f 123 200 121
f 121 200 201
f 121 201 119
f 119 201 202
f 119 202 203
f 203 202 204
f 203 204 205
f 205 204 206
f 206 204 207
f 206 207 208
f 208 207 209
f 208 209 210
f 210 209 211
f 210 211 212
f 212 211 213
f 212 213 214
f 214 213 215
f 214 215 216
f 216 215 217
f 216 217 218
f 218 217 219
f 218 219 220
f 220 219 221
f 220 221 222
f 222 221 223
f 222 223 224
f 224 223 225
f 224 225 226
f 226 225 227
f 226 227 228
f 228 227 229
f 228 229 230
f 230 229 231
f 230 231 232
f 232 231 233
f 232 233 234
f 234 233 235
f 234 235 236
f 236 235 237
f 236 237 238
f 238 237 239
f 238 239 240
f 240 239 241
f 240 241 242
f 242 241 243
f 242 243 244
f 244 243 245
f 244 245 246
f 246 245 247
f 246 247 248
f 248 247 249
f 248 249 250
f 250 249 251
f 250 251 252
f 252 251 253
f 252 253 254
f 254 253 255
f 254 255 256
f 256 255 257
f 256 257 258
f 258 257 259
f 258 259 260
f 260 259 261
f 260 261 262
f 262 261 263
f 262 263 264
f 264 263 265
f 264 265 266
f 266 265 267
f 266 267 268
f 268 267 269
f 268 269 270
f 270 269 271
f 270 271 272
f 272 271 273
f 272 273 274
f 274 273 275
f 274 275 276
f 276 275 277
f 276 277 278
f 278 277 279
f 278 279 280
f 280 279 281
f 280 281 282
f 282 281 283
f 282 283 284
f 284 283 285
f 284 285 286
f 286 285 287
f 286 287 288
f 288 287 289
f 288 289 290
f 290 289 291
f 290 291 292
f 292 291 293
f 292 293 294
f 294 293 295
f 294 295 296
f 296 295 297
f 296 297 298
f 298 297 299
f 298 299 300
f 300 299 301
f 300 301 302
f 302 301 303
f 302 303 304
f 304 303 305
f 304 305 306
f 306 305 307
f 306 307 308
f 308 307 309
f 308 309 310
f 310 309 311
f 310 311 312
f 312 311 313
f 312 313 314
f 314 313 315
f 314 315 316
f 316 315 317
f 316 317 318
f 318 317 319
f 318 319 320
f 320 319 321
f 320 321 322
f 322 321 323
f 322 323 324
f 324 323 325
f 324 325 326
f 326 325 327
f 326 327 328
f 328 327 329
f 328 329 330
f 330 329 331
f 331 329 332
f 331 332 93
f 93 332 91
f 91 332 333
f 91 333 89
f 89 333 334
f 89 334 87
f 87 334 335
f 87 335 85
f 85 335 336
f 85 336 77
f 77 336 337
f 77 337 79
f 79 337 338
f 79 338 81
f 81 338 339
f 81 339 83
f 83 339 340
f 83 340 84
f 84 340 341
f 84 341 82
f 82 341 342
f 82 342 80
f 80 342 151
f 93 95 331
f 331 95 343
f 343 95 344
f 344 95 345
f 345 95 346
f 346 95 347
f 347 95 348
f 348 95 349
f 349 95 97
f 349 97 350
f 350 97 351
f 351 97 352
f 352 97 99
f 352 99 353
f 353 99 354
f 354 99 101
f 354 101 355
f 355 101 356
f 356 101 103
f 356 103 357
f 357 103 358
f 358 103 105
f 358 105 359
f 359 105 360
f 360 105 107
f 360 107 361
f 361 107 362
f 362 107 363
f 363 107 109
f 363 109 364
f 364 109 365
f 365 109 111
f 365 111 366
f 366 111 367
f 367 111 113
f 367 113 368
f 368 113 369
f 369 113 115
f 369 115 370
f 370 115 371
f 371 115 372
f 372 115 117
f 372 117 373
f 373 117 374
f 374 117 375
f 375 117 119
f 375 119 376
f 376 119 377
f 377 119 378
f 378 119 379
f 379 119 203
f 152 305 153
f 153 305 303
f 153 303 154
f 154 303 301
f 154 301 155
f 155 301 299
f 155 299 156
f 156 299 297
f 156 297 157
f 157 297 295
f 157 295 158
f 158 295 293
f 158 293 159
f 159 293 291
f 159 291 160
f 160 291 289
f 160 289 161
f 161 289 287
f 161 287 162
f 162 287 285
f 162 285 163
f 163 285 283
f 163 283 164
f 164 283 281
f 164 281 165
f 165 281 279
f 165 279 166
f 166 279 277
f 166 277 167
f 167 277 275
f 167 275 168
f 168 275 273
f 168 273 169
f 169 273 271
f 169 271 170
f 170 271 269
f 170 269 171
f 171 269 267
f 171 267 172
f 172 267 265
f 172 265 173
f 173 265 263
f 173 263 174
f 174 263 261
f 174 261 175
f 175 261 259
f 175 259 176
f 176 259 257
f 176 257 177
f 177 257 255
f 177 255 178
f 178 255 253
f 178 253 179
f 179 253 251
f 179 251 180
f 180 251 249
f 180 249 181
f 181 249 247
f 181 247 182
f 182 247 245
f 182 245 183
f 183 245 243
f 183 243 184
f 184 243 241
f 184 241 185
f 185 241 239
f 185 239 186
f 186 239 237
f 186 237 187
f 187 237 235
f 187 235 188
f 188 235 233
f 188 233 189
f 189 233 231
f 189 231 190
f 190 231 229
f 190 229 191
f 191 229 227
f 191 227 192
f 192 227 225
f 192 225 193
f 193 225 223
f 193 223 194
f 194 223 221
f 194 221 195
f 195 221 219
f 195 219 196
f 196 219 217
f 196 217 197
f 197 217 215
f 197 215 198
f 198 215 213
f 198 213 199
f 199 213 211
f 199 211 200
f 200 211 209
f 200 209 201
f 201 209 207
f 201 207 202
f 202 207 204
f 305 152 307
f 307 152 151
f 307 151 309
f 309 151 342
f 309 342 311
f 311 342 341
f 311 341 313
f 313 341 340
f 313 340 315
f 315 340 339
f 315 339 317
f 317 339 338
f 317 338 319
f 319 338 337
f 319 337 321
f 321 337 336
f 321 336 323
f 323 336 335
f 323 335 325
f 325 335 334
f 325 334 327
f 327 334 333
f 327 333 329
f 329 333 332
f 444 445 446
f 446 445 447
f 447 445 448
f 447 448 449
f 449 448 450
f 449 450 451
f 451 450 452
f 452 450 453
f 452 453 454
f 454 453 455
f 454 455 456
f 456 455 457
f 456 457 443
f 443 457 442
f 442 457 458
f 442 458 441
f 441 458 459
f 441 459 440
f 440 459 460
f 440 460 439
f 439 460 461
f 439 461 438
f 438 461 462
f 438 462 437
f 437 462 463
f 437 463 436
f 436 463 464
f 436 464 435
f 435 464 465
f 435 465 434
f 434 465 433
f 433 465 466
f 433 466 432
f 432 466 467
f 432 467 431
f 431 467 468
f 431 468 430
f 430 468 469
f 430 469 429
f 429 469 470
f 429 470 428
f 428 470 471
f 428 471 427
f 427 471 472
f 427 472 426
f 426 472 473
f 426 473 425
f 425 473 474
f 425 474 424
f 424 474 475
f 424 475 423
f 423 475 476
f 423 476 422
f 422 476 477
f 422 477 421
f 421 477 478
f 421 478 420
f 420 478 479
f 420 479 419
f 419 479 418
f 418 479 480
f 418 480 417
f 417 480 481
f 417 481 416
f 416 481 482
f 416 482 415
f 415 482 483
f 415 483 414
f 414 483 484
f 414 484 413
f 413 484 485
f 413 485 412
f 412 485 486
f 412 486 411
f 411 486 487
f 411 487 410
f 410 487 488
f 410 488 409
f 409 488 489
f 409 489 408
f 408 489 490
f 408 490 407
f 407 490 491
f 407 491 406
f 406 491 492
f 406 492 405
f 405 492 493
f 405 493 404
f 404 493 403
f 403 493 494
f 403 494 402
f 402 494 495
f 402 495 401
f 401 495 496
f 401 496 400
f 400 496 497
f 400 497 399
f 399 497 498
f 399 498 398
f 398 498 499
f 398 499 397
f 397 499 500
f 397 500 396
f 396 500 501
f 396 501 395
f 395 501 502
f 395 502 394
f 394 502 503
f 394 503 393
f 393 503 504
f 393 504 392
f 392 504 505
f 392 505 391
f 391 505 506
f 391 506 390
f 390 506 507
f 390 507 389
f 389 507 388
f 388 507 508
f 388 508 387
f 387 508 509
f 387 509 386
f 386 509 510
f 386 510 385
f 385 510 511
f 385 511 384
f 384 511 512
f 384 512 383
f 383 512 513
f 383 513 382
f 382 513 514
f 382 514 381
f 381 514 515
f 381 515 380
f 380 515 516
f 380 516 517
f 517 516 518
f 518 516 519
f 518 519 520
f 520 519 521
f 520 521 522
f 522 521 523
f 523 521 524
f 523 524 525
f 525 524 526
f 525 526 527
f 527 526 444
f 529 528 546
f 546 528 597
f 546 597 596
f 596 595 546
f 546 595 594
f 546 594 593
f 593 592 546
f 546 592 591
f 546 591 590
f 590 589 546
f 546 589 588
f 546 588 587
f 587 586 546
f 546 586 585
f 546 585 584
f 584 583 546
f 546 583 582
f 546 582 581
f 581 580 546
f 546 580 547
f 547 580 579
f 547 579 548
f 548 579 578
f 548 578 549
f 549 578 577
f 549 577 550
f 550 577 576
f 550 576 551
f 551 576 575
f 551 575 552
f 552 575 574
f 552 574 553
f 553 574 573
f 553 573 554
f 554 573 572
f 554 572 555
f 555 572 571
f 555 571 556
f 556 571 570
f 556 570 557
f 557 570 569
f 557 569 558
f 558 569 568
f 558 568 559
f 559 568 567
f 559 567 560
f 560 567 566
f 560 566 561
f 561 566 565
f 561 565 562
f 562 565 564
f 562 564 563
f 545 531 546
f 546 531 530
f 546 530 529
f 544 543 545
f 545 543 542
f 545 542 541
f 541 540 545
f 545 540 539
f 545 539 538
f 538 537 545
f 545 537 536
f 545 536 535
f 535 534 545
f 545 534 533
f 545 533 532
f 532 531 545
f 599 647 598
f 598 647 648
f 598 648 649
f 649 650 598
f 598 650 651
f 598 651 652
f 652 653 598
f 598 653 639
f 598 639 601
f 601 639 640
f 601 640 641
f 641 642 601
f 601 642 643
f 601 643 644
f 644 645 601
f 601 645 646
f 601 646 600
f 598 601 638
f 638 601 602
f 638 602 637
f 637 602 603
f 637 603 604
f 605 635 604
f 604 635 636
f 604 636 637
f 605 606 635
f 635 606 634
f 634 606 633
f 633 606 607
f 633 607 608
f 609 631 608
f 608 631 632
f 608 632 633
f 609 610 631
f 631 610 630
f 630 610 611
f 630 611 629
f 629 611 628
f 628 611 612
f 628 612 627
f 627 612 613
f 627 613 614
f 615 625 614
f 614 625 626
f 614 626 627
f 625 615 624
f 624 615 616
f 624 616 623
f 623 616 617
f 623 617 622
f 622 617 618
f 622 618 621
f 621 618 619
f 621 619 620

