# https://github.com/mikedh/trimesh
v -18.07594872 -25.93354988 104.34099579
v -26.32271957 -33.73014069 92.30836487
v -21.10174942 -38.77020264 89.33803558
v -14.27091980 -28.29191017 104.09291840
v -30.74723816 -29.04068947 94.17540741
v -21.51963997 -23.13389015 104.63600159
v -24.53326988 -19.93892097 104.97337341
v -33.93083954 -24.54940987 95.25987244
v -36.38290024 -19.91339111 95.97102356
v -27.07053947 -16.40680122 105.34684753
v -31.43533897 4.06743908 107.51039886
v -42.23379135 6.11852026 99.46931458
v -42.37766266 0.75173992 98.78685760
v -31.73316956 -0.16934031 107.06379700
v -41.28044128 11.54428959 100.15852356
v -30.55041885 8.23178196 107.94877625
v -29.08747864 12.25219917 108.37156677
v -39.48158264 16.86408043 100.83674622
v -36.92856979 21.97394943 101.49189758
v -27.07338905 16.06260872 108.77229309
v -10.18371010 29.81690979 110.22402191
v -14.65748978 40.50894928 104.62364197
v -20.13370895 38.01402664 104.10212708
v -14.29230022 27.94108009 110.02532196
v -9.28757286 42.38741684 104.90992737
v -6.24599552 31.13500023 110.36362457
v -2.96005368 31.81608963 110.43562317
v -4.49855852 43.67914963 104.86363220
v 0.00000666 44.17830658 104.75734711
v 0.00000248 31.99736977 110.45472717
v -41.16242218 25.34115982 98.51045227
v -33.71272278 26.76996994 102.11174774
v -37.58752060 30.50226021 99.27156830
v -33.31996918 35.01163864 100.07390594
v -38.17351913 42.30590820 91.12669373
v -43.11135101 37.35245895 89.46864319
v -28.27186966 38.81213760 100.98405457
v -32.74679184 46.37948608 92.52611542
v -29.82131958 31.11524963 102.74559784
v -25.24165916 34.87302780 103.44255829
v -22.63611984 42.04510880 101.81962585
v -26.69679832 49.83622742 93.67155457
v -16.60561943 44.85188675 102.39830780
v -10.63749027 47.17800903 102.66084290
v -12.91149044 55.33584595 95.18837738
v -19.88916969 52.93923950 94.56782532
v -5.18886566 48.96897888 102.54814148
v -24.53498840 19.59704018 109.14422607
v -21.52367973 22.79273987 109.48102570
v -1.87638175 -63.98527145 28.08430290
v -4.32545042 -59.88917160 45.38935089
v -7.68994761 -59.70904160 44.99888611
v -3.35475564 -63.81167984 28.71208382
v -0.00002238 -60.02374268 45.62141418
v -0.00002287 -64.04682922 27.92906380
v -0.00002216 -56.82264328 57.27317047
v -5.28519249 -56.58589172 57.12116241
v -9.35570717 -56.24915314 56.86097717
v -16.44791985 -40.28409195 89.65480804
v -10.17327023 -30.16307068 103.89631653
v -11.85789013 -41.51001358 89.65178680
v -6.24914837 -31.47456169 103.75859833
v -6.32965040 -52.28951263 68.99882507
v -11.18155003 -51.84792328 68.69611359
v -0.00002201 -52.60056305 69.17500305
v -0.00002188 -48.42781067 79.28569794
v -7.00605869 -48.07131195 79.05803680
v -13.78133965 -46.76292038 79.84904480
v -18.09086990 25.58688927 109.77612305
v -41.74802017 -4.39123106 98.12892151
v -31.43482971 -4.40698576 106.61632538
v -30.54918861 -8.57319069 106.17585754
v -40.45602036 -9.50634003 97.45341492
v -47.31500244 7.41312933 96.10569763
v -47.46353149 1.42246139 95.31068420
v -46.26202011 13.51587963 96.91978455
v -55.15444946 17.40526009 82.72426605
v -57.19316101 10.71048927 80.45665741
v -46.87965012 -4.31082582 94.56398773
v -58.43254089 -1.91674590 76.27797699
v -57.98844910 -7.94520617 74.32118225
v -45.66432953 -9.88304043 93.83146667
v -58.19515228 4.32265425 78.32033539
v -15.64933968 -56.95663071 55.33183289
v -17.57447815 -52.80301285 66.88703156
v -19.93923950 -48.52639389 76.39207458
v -32.22853088 -51.83457184 56.84821320
v -27.67389870 -55.91047287 51.99610138
v -17.95054817 -42.95800400 84.88688660
v -23.06341934 -44.59013367 82.40107727
v -26.94245911 -40.49647141 86.11744690
v -41.52091217 -41.81890106 62.55982208
v -36.88769150 -47.06841278 60.14500427
v -31.57182884 -35.74773407 88.74455261
v -39.24188995 -25.76865005 91.57210541
v -35.99161148 -30.71486092 90.49269867
v -41.74381256 -20.72269058 92.32139587
v -13.84403992 -60.52395248 43.17237091
v -47.63190079 31.45908928 87.49791718
v -49.94766235 -30.63162041 66.80906677
v -45.99772263 -36.29330063 64.76603699
v -51.80681992 24.56573868 85.16057587
v -53.37607193 37.86918640 68.18101501
v -58.46617126 30.43342018 64.62287140
v -63.07638168 22.17496872 60.20570374
v -65.44766998 14.26837921 57.20387268
v -67.09552002 1.19839644 51.35737610
v -66.64302063 7.60581017 54.24250031
v -66.94203949 -4.94972372 48.55067444
v -55.28858948 -19.32757950 70.59431458
v -64.97794342 -16.69404030 43.09702301
v -62.66765213 -22.76725960 40.28587341
v -53.00023270 -24.97385979 68.73429108
v -59.51795197 -29.01102066 37.39372253
v -55.65819931 -35.38208389 34.42299271
v -35.10591125 -56.09869385 25.52083397
v -41.12028122 -51.86009216 27.16826248
v -28.32673836 -59.75936127 24.19581223
v -23.51244926 -59.25298309 45.53047180
v -12.46197987 -65.39566040 22.44783401
v -7.15826845 -65.35443878 25.33180428
v -20.03283882 -61.81934357 37.39314270
v -20.70022964 -62.89061356 23.13572311
v -44.13254166 19.58548927 97.72398376
v -29.61845970 57.66821671 77.42305756
v -35.86516190 54.28324890 75.84462738
v -51.24938202 -41.50271225 31.61116409
v -46.45241928 -46.99510193 29.19563293
v -3.76396775 -65.87446594 23.67781448
v -47.64681244 44.47815704 71.28483582
v -41.67697906 50.02720642 73.86308289
v -5.77962351 -66.43434143 20.04133224
v -0.00002292 -66.70050049 19.10972214
v -0.00002292 -66.08283997 23.05793381
v -22.34396935 60.60401917 78.79204559
v -14.68323040 62.92995834 79.87666321
v -6.35135555 56.67351913 95.50670624
v -7.27778435 64.48526764 80.60191345
v 0.00001531 65.07025909 80.87468719
v 0.00001188 57.07758713 95.59028625
v -67.72680664 58.08446884 -4.82670689
v -65.46572876 87.14401245 -1.74033642
v -65.08448029 87.14401245 -7.31003571
v -67.24494934 58.54251862 -12.67795753
v -67.61468506 21.38403893 -19.92713737
v -68.05904388 20.77925873 -9.45523643
v -68.12825775 20.74270058 1.62010241
v -67.73239899 57.92140961 3.26524353
v -65.38005829 87.14401245 3.84220839
v -64.94266510 59.16703796 25.38231277
v -63.29370117 60.06698608 31.25773430
v -60.39918137 87.14402008 25.49348259
v -62.33098221 87.14402008 20.26207352
v -66.30382538 58.49135590 18.70274353
v -63.80949020 87.14402008 14.88365173
v -67.16320801 22.12842941 23.06321335
v -66.35099792 23.34732056 31.44145393
v -65.30143738 24.98863029 38.15950394
v -61.48821259 61.16455841 36.32869339
v -58.02186203 87.14401245 30.53908348
v -63.95991135 27.15789986 43.45097351
v -62.54157257 29.48466873 47.55256653
v -59.37140274 62.47388840 40.78398132
v -55.21284103 87.14401245 35.36308289
v -10.11425972 64.77378082 -69.37041473
v -15.57861042 63.55454636 -68.77086639
v -12.59821987 79.59317780 -65.90833282
v -7.15858364 80.17507172 -66.62253571
v -21.27405930 61.84743881 -67.98050690
v -18.68650818 78.74841309 -64.83102417
v -16.25845909 87.14401245 -63.32494354
v -10.58397961 87.14400482 -64.62662506
v -5.66883659 87.14400482 -65.46940613
v -3.20721078 80.47888947 -66.95894623
v -4.97567272 65.53754425 -69.76301575
v -2.41826177 87.14400482 -65.83578491
v 0.00002905 87.14400482 -65.89989471
v 0.00002998 80.56129456 -67.03270721
v 0.00002988 65.80554199 -69.90758514
v -45.04232025 71.44474792 -54.53035736
v -47.53025055 46.79088593 -60.60580444
v -52.24752045 42.36942673 -57.96801758
v -49.30575943 69.46079254 -51.48678589
v -41.65058136 87.14401245 -50.44031525
v -45.87433243 87.14401245 -46.69892883
v -37.09730148 87.14401245 -53.82034302
v -40.43823242 73.24761200 -57.21565247
v -42.53118134 50.86223602 -62.80599213
v -35.49639130 74.88506317 -59.58864594
v -37.72132111 54.18466949 -64.50893402
v -32.24480057 87.14401245 -56.81538391
v -27.12930870 87.14401245 -59.40825653
v -30.21288872 76.35517883 -61.65125275
v -32.70986176 57.01751709 -65.86274719
v -24.58383942 77.65602112 -63.40536499
v -27.10595894 59.62010956 -67.01553345
v -21.78704834 87.14401245 -61.58180237
v -63.26283264 61.42825699 -32.00815582
v -61.16072083 87.14402008 -23.53909492
v -58.94631958 87.14402008 -28.65766716
v -61.30968094 62.66562653 -36.79045868
v -62.81338120 29.49420929 -47.06750488
v -64.33493805 26.91472054 -42.93811798
v -65.72117615 24.44705963 -37.10298920
v -64.95639801 60.25914764 -26.39585686
v -62.92742157 87.14402008 -18.24930573
v -59.37771225 34.26466751 53.49214172
v -56.14781952 38.24815750 56.52210236
v -49.36928940 68.44981384 52.19703674
v -53.52568054 65.94331360 48.56620026
v -51.90605164 42.90655899 59.42103577
v -44.71709061 70.93887329 55.47114563
v -40.01393127 87.14401245 51.77650452
v -44.36194229 87.14401245 48.16483307
v -48.36198044 87.14401245 44.20735168
v -67.24589539 58.06658936 11.21937561
v -67.79262543 21.22629929 12.79118347
v -64.82691956 87.14402008 9.39695740
v -39.96689987 72.82077789 58.15476227
v -35.34606934 87.14401245 55.01673126
v -46.98657227 47.59737778 61.81901550
v -41.54093933 51.95624924 63.81962585
v -34.89176178 74.40847015 60.44349670
v -30.39289856 87.14400482 57.86627960
v -29.26468849 76.01490021 62.53300476
v -25.18894958 87.14401245 60.30598450
v -35.72074127 55.61884689 65.52656555
v -29.27294922 58.86805725 67.06233215
v -23.27361870 77.45077515 64.31138611
v -19.83052826 87.14401245 62.31370544
v -17.10644913 78.52680206 65.66688538
v -14.41394043 87.14400482 63.86738586
v -21.94454956 61.98686600 68.54945374
v -14.34603977 64.51396179 69.76782990
v -11.05862999 79.27243042 66.61027527
v -9.20865726 87.14398956 64.95316315
v -61.30372238 31.67170906 -49.76537323
v -59.18471909 63.84718704 -40.78629303
v -56.58953094 65.28221130 -44.40074921
v -59.27893066 34.24117661 -52.05316925
v -7.08791256 65.98795319 70.49741364
v -5.42560768 79.71714020 67.15217590
v 0.00002095 79.86425781 67.32273102
v 0.00001699 66.46168518 70.73997498
v -56.78848267 64.00907135 44.81251526
v -61.26156235 31.59856987 50.70097351
v -63.35414124 27.54714966 -47.22120667
v -64.68228912 25.31235886 -43.12749481
v -65.95441437 23.13253021 -37.31192780
v -66.50259399 22.31859016 31.40938377
v -65.53115082 23.79310989 38.17051315
v -67.27779388 21.19285965 23.00724411
v -67.90166473 20.31830025 12.70964050
v -68.23519897 19.83115959 1.50462341
v -68.13942719 19.86779976 -9.61974716
v -67.68902588 20.42761040 -20.13321686
v -66.82492065 22.60506058 -29.28784752
v -66.95867920 21.51006889 -29.50556755
v -64.31858063 25.71403885 43.54514313
v -63.03214264 27.77150917 47.84998322
v -56.62823105 36.62101746 57.85917664
v -59.96324921 32.29571915 54.60383606
v -52.22307968 41.75609589 60.88938141
v -53.22569275 67.28002167 -48.03891754
v -56.21197128 37.99663925 -54.95224762
v -56.94972229 -34.69781113 22.44792366
v -56.49440002 -34.94887161 26.87874413
v -60.28622055 -28.57113075 29.80644417
v -60.69783020 -28.31351089 25.23658371
v -57.44067001 -34.42688370 17.66603088
v -61.14477921 -28.03351021 20.26930237
v -53.18054962 -40.55731201 15.19392395
v -52.65180969 -40.82253265 19.81016350
v -52.15824127 -41.06995392 24.11674309
v -47.96118164 -46.32719040 17.52461243
v -47.43217087 -46.56892395 21.74180222
v -48.52508163 -46.06941223 13.02763367
v -43.27561951 -51.02464294 11.14680481
v -42.69319916 -51.25673294 15.57463074
v -42.14524078 -51.47498322 19.73994446
v -36.66329193 -55.65607071 13.94352722
v -36.12648010 -55.81748199 18.09721375
v -37.23350906 -55.48462296 9.53117371
v -30.14068985 -59.48821259 8.12043762
v -29.63937950 -59.59179306 12.50263977
v -29.16715813 -59.67880249 16.63926697
v -21.38941956 -63.13044357 11.12342834
v -21.05850983 -63.14123154 15.19184875
v -21.73903847 -63.07456207 6.85429335
v -13.36163044 -65.75728607 5.78034973
v -13.17638016 -65.75955200 9.93055725
v -12.99913025 -65.69995117 13.89085388
v -67.50428772 13.96790981 -43.60238647
v -66.62564850 18.38208961 -43.47365570
v -66.25904083 18.78850937 -47.46345520
v -67.30136871 14.04047966 -47.51690674
v -68.23555756 8.96300030 -43.72643280
v -68.04663849 9.00186634 -47.54797363
v -68.45233917 8.90930367 -38.20011902
v -67.75222015 13.86699009 -37.95209503
v -67.03405762 17.94460869 -37.73264313
v -65.56542969 22.31585884 -43.31068420
v -64.72299957 23.63465881 -47.35903931
v -66.41340637 20.99905968 -37.52051544
v -64.01205444 24.65616035 -49.93938446
v -65.93725586 19.08891869 -49.99032593
v -62.18181229 29.33440018 -49.86192322
v -60.22639084 31.94900894 -54.36274719
v -63.14527130 25.43976021 -55.08739471
v -65.32692719 19.39999962 -55.10012817
v -66.86808777 14.37572002 42.43054962
v -66.47369385 14.31937981 47.53886414
v -65.32374573 19.94258881 48.46552277
v -65.92379761 19.49350929 43.34699249
v -67.24636841 14.44521999 36.89573288
v -66.47076416 19.07025909 37.81099319
v -67.97587585 8.68824577 35.28657532
v -67.64599609 8.38287926 40.81047058
v -67.33610535 8.09648705 45.79545593
v -67.34320831 -10.14382076 33.18101501
v -67.00525665 -10.39628029 38.16191101
v -67.62738800 -4.51874685 40.80324554
v -67.97731781 -4.27242565 35.74031067
v -67.71440887 -9.86642075 27.70930290
v -68.36196899 -4.00432587 30.17073250
v -66.34231567 -15.63854980 25.31819344
v -65.98400879 -15.94207954 30.63289261
v -65.65761566 -16.21837997 35.47151184
v -8.03015327 -66.80128479 -45.99897766
v -16.29880905 -65.13481903 -45.91794586
v -16.35865974 -65.05585480 -48.09558868
v -8.07423401 -66.71549225 -48.11592865
v -0.00001657 -67.31726074 -46.02887726
v -0.00001593 -67.23088074 -48.12341309
v -0.00001701 -67.41915131 -42.80465698
v -7.87563467 -66.91020966 -42.74510956
v -16.05538940 -65.25045013 -42.58345032
v -6.63782072 -67.47650909 -11.80675697
v -14.03551006 -65.92443848 -11.16925621
v -14.32785034 -65.99945068 -17.98920631
v -6.78950548 -67.60050201 -18.58699608
v -0.00002024 -67.91436005 -12.02477646
v -0.00001947 -68.05686951 -18.80129623
v -0.00002078 -67.68386078 -5.53721619
v -6.53447771 -67.27642059 -5.30708694
v -13.80204964 -65.79541779 -4.64233685
v -69.22815704 -8.59251881 -14.17377663
v -69.29316711 -8.85319996 -4.32777691
v -69.99987793 -3.20807385 -3.03973675
v -69.87991333 -3.02446675 -13.24198723
v -69.00293732 -8.33731365 -23.49228477
v -69.58255768 -2.83999491 -22.82987595
v -67.72267914 -13.94192028 -24.18259621
v -67.87479401 -14.23070049 -15.13640594
v -67.88099670 -14.51583004 -5.64303684
v -59.53911209 -33.17213058 -18.37345695
v -59.37340164 -33.42341232 -9.95732689
v -62.86034012 -27.10604095 -8.51251602
v -62.94363022 -26.88388062 -17.29648590
v -59.60092926 -32.90712357 -26.50037575
v -62.91638184 -26.64100075 -25.73642540
v -55.81769180 -38.80806351 -27.22058678
v -55.65692139 -39.11534119 -19.39467621
v -55.39100266 -39.41866302 -11.33409691
v -51.41643906 -44.51509094 -20.32648659
v -51.04849243 -44.85649109 -12.58631706
v -51.67196274 -44.17225266 -27.87866783
v -46.71058273 -49.21532059 -28.49561501
v -46.40711212 -49.55716324 -21.19892693
v -45.98443222 -49.89343262 -13.75018692
v -40.21831131 -54.42748260 -22.04205704
v -39.83737183 -54.68591309 -14.86196709
v -40.48040009 -54.15291214 -29.09250832
v -32.96227264 -58.72776413 -29.68622780
v -32.71324158 -58.93446350 -22.88020706
v -32.37472153 -59.10499191 -15.95258713
v -23.75507927 -62.88660049 -23.73773766
v -23.36389923 -63.02191162 -17.05304718
v -24.13704872 -62.68256378 -30.29370689
v -15.19569016 -65.65872955 -30.81691551
v -14.73274994 -65.87852478 -24.47565651
v -52.02223206 41.98575592 -61.33746338
v -56.17018127 37.36359787 -58.54526520
v -27.00910950 59.31016922 -69.30114746
v -32.57014084 56.80209732 -68.28958130
v -21.20258904 61.42128754 -70.13961792
v -47.27175140 46.52178955 -63.70239258
v -42.31352234 50.63421631 -65.63067627
v -51.80868912 -43.17918396 -50.00698853
v -51.20709991 -43.11665344 -55.10433960
v -46.35597992 -48.19544220 -55.10432434
v -46.95178223 -48.24948120 -50.00695038
v -52.19879150 -43.26472092 -47.92240906
v -47.35700226 -48.31411362 -47.95858765
v -56.11550903 -37.99116135 -47.88387299
v -55.76214218 -37.90635300 -50.00706482
v -55.18186188 -37.84550095 -55.10433960
v -59.32599258 -32.13955307 -50.00713348
v -58.74914932 -32.09950256 -55.10433960
v -59.66004181 -32.19754410 -47.84173584
v -62.75691223 -25.99724007 -47.79689789
v -62.43706131 -25.96981049 -50.00720978
v -61.85747147 -25.94985962 -55.10437012
v -68.21255493 -7.80787706 -50.00740814
v -67.64688873 -7.75278997 -55.10438538
v -66.42459869 -13.21483040 -55.10437775
v -66.99589539 -13.24923992 -50.00735474
v -68.46450806 -7.81864786 -47.66419983
v -67.27027893 -13.26248074 -47.70497894
v -68.93203735 -2.52050281 -47.62518311
v -68.69821930 -2.51004696 -50.00743866
v -68.13890076 -2.43139887 -55.10437775
v -68.46889496 3.29821920 -50.00741577
v -67.91721344 3.39964104 -55.10438538
v -68.69145966 3.28396320 -47.58525848
v -67.83332825 9.02655315 -50.00737000
v -67.29064941 9.14920235 -55.10437775
v -40.67760086 -53.40883255 -50.00695801
v -41.03726959 -53.43530273 -47.99368286
v -40.15967178 -53.36428070 -55.10433960
v -32.81214142 -58.12709045 -55.10433960
v -33.22687149 -58.18525314 -50.00699615
v -33.51446915 -58.18962097 -48.02868652
v -24.84031868 -62.10684204 -50.00710297
v -25.06350899 -62.13855362 -48.06458282
v -24.50742912 -61.98786163 -55.10437012
v -15.95442963 -64.78644562 -55.10439301
v -16.20123863 -64.97909546 -50.00720978
v -7.99293232 -66.60768890 -50.00724792
v -7.86206245 -66.36294556 -55.10437775
v -0.00001232 -66.84378815 -55.10437775
v -0.00001650 -67.11107635 -50.00726318
v -6.86164951 -45.00248337 85.33439636
v -6.19673729 -42.41793060 89.89168549
v -12.68169975 -44.03187180 85.30287170
v -0.00002150 -45.37428284 85.56395721
v -0.00002086 -42.79238129 90.07234192
v -16.41861916 -42.60725403 86.12663269
v -2.96467185 -32.15400314 103.68705750
v -0.00001827 -32.33570099 103.66786194
v -38.61280060 -14.78973007 96.71818542
v -29.08512878 -12.59567070 105.75017548
v -66.31945038 -10.83436012 45.82456207
v -56.94589233 -13.70006084 72.44160461
v -43.91850281 -15.39058018 93.07924652
v -41.61685181 51.39119720 65.49046326
v -35.91051102 55.01438904 67.16422272
v -29.58505821 58.16507721 68.63859558
v -22.20771980 61.31319809 70.11479187
v -14.49219036 63.93170929 71.34580231
v -67.45026398 1.45973432 47.87882233
v -67.32729340 -4.73210001 45.15659332
v -67.02423859 7.84846210 50.47694397
v -67.72916412 1.73134518 43.44898224
v -46.92483139 -46.80049133 25.78264427
v -41.61573029 -51.68581390 23.76347351
v -51.69095993 -41.30385208 28.18739319
v -56.07081223 -35.18196106 30.99080276
v -59.91065216 -28.80545044 33.96486282
v -63.08005142 25.73971939 52.97917175
v -64.59392548 20.43403053 53.94306183
v -61.21475220 28.26943970 57.27857208
v -61.83913040 29.65564919 51.40180206
v -64.06805420 24.50872040 48.36176300
v -7.22451448 64.98425293 76.17439270
v -14.61269951 63.40299606 75.43705750
v 0.00001587 65.54762268 76.43709564
v 0.00001684 66.01035309 72.33106232
v -7.15220261 65.49358368 72.08470154
v -47.41976929 45.61907959 67.19386292
v -52.85124969 39.75770950 64.37266541
v -41.66876221 50.68914795 69.52085114
v -47.13682938 46.82564926 63.41599274
v -35.93399048 54.61467743 71.33897400
v -29.66921997 57.86581802 72.85499573
v -22.32819939 60.91272736 74.27580261
v -35.60696030 -55.97381210 22.11686325
v -28.70777893 -59.74190140 20.71229362
v -66.71418762 -10.61466026 42.45731354
v -65.37075806 -16.46124077 39.71950531
v -20.72745895 -63.06754303 19.41920471
v -12.81097031 -65.51737213 18.13630676
v -6.10329437 -66.65811920 16.76234436
v -6.18761444 -66.85023499 12.87220764
v -0.00002202 -67.07321930 12.43345642
v -0.00002278 -66.90123749 16.05259705
v -37.54230118 53.98553848 -67.11292267
v -10.01994991 64.23715210 -71.28576660
v -15.49398041 63.04683685 -70.79704285
v -53.21913147 87.14401245 -38.23258972
v -49.73823929 87.14401245 -42.61978912
v -56.29380035 87.14401245 -33.56702423
v -66.30262756 59.28232956 -19.91007614
v -69.89878845 2.98331404 -12.27358627
v -69.54457855 3.07731915 -22.14884567
v -70.04801941 2.92547512 -1.70823669
v -69.67198944 8.78951168 -0.50004673
v -69.50547791 8.73623180 -11.37064743
v -69.10669708 8.77580357 -21.51367569
v -68.82416534 -8.13420773 -32.02036285
v -69.35421753 -2.70751786 -31.55185509
v -68.68949890 -7.98118448 -39.12947845
v -69.18630981 -2.61608076 -38.81716919
v -67.47883606 -13.48403072 -39.45642853
v -67.58820343 -13.68863010 -32.51084900
v -59.66319275 -32.65265274 -34.15643311
v -62.89538193 -26.40891075 -33.61679840
v -59.71691132 -32.43778229 -40.55332947
v -62.87988281 -26.21248055 -40.19362640
v -56.10290909 -38.26780319 -40.89138031
v -55.97261047 -38.51425171 -34.66358948
v -51.91834259 -43.84280396 -35.12731934
v -52.12501144 -43.56668091 -41.20048523
v -47.25141144 -48.60687256 -41.49050903
v -47.00466919 -48.88443375 -35.56239319
v -40.73587036 -53.88541412 -35.98360443
v -40.95035934 -53.66079330 -41.77131653
v -33.41622925 -58.35274124 -42.05075836
v -33.20881271 -58.52405167 -36.40273285
v -24.52037811 -62.47866058 -36.83159637
v -24.84341812 -62.30695343 -42.33673859
v -15.66213036 -65.43719482 -37.20130920
v -68.19580078 18.88578987 -9.79816628
v -68.39920044 17.04063034 -10.10010719
v -68.58438873 17.10478020 1.03904724
v -68.34066772 18.89587975 1.35609436
v -67.73845673 19.27669907 -20.32883644
v -67.94398499 17.23756981 -20.58902740
v -68.00070953 19.39192963 12.61274719
v -67.38198853 20.16641045 22.95384216
v -68.23719788 17.57466888 12.35279846
v -67.63154602 18.18149948 22.73536301
v -58.99948120 -33.63660049 -1.43363667
v -58.50337982 -33.85811234 6.33872938
v -62.10671997 -27.46170044 8.51777649
v -62.54970169 -27.27584076 0.39982510
v -54.92068100 -39.70060349 -3.18711662
v -54.34257126 -39.97858047 4.25334120
v -50.46482086 -45.18177414 -4.77367687
v -49.78713226 -45.49233246 2.38099623
v -45.33277130 -50.20747375 -6.22727680
v -44.59361267 -50.50018311 0.69346523
v -39.22537231 -54.90500259 -7.58191681
v -38.51856995 -55.10305405 -0.83757019
v -31.85972977 -59.20041275 -8.87123680
v -31.26499939 -59.27305222 -2.24668694
v -22.95295906 -63.01966095 -10.12891579
v -22.53585815 -62.98245239 -3.56857681
v -68.99124908 -9.07284355 5.78269958
v -68.52706909 -9.29746532 14.94374084
v -69.20562744 -3.48644686 17.09162903
v -69.69598389 -3.33806181 7.52537537
v -67.57774353 -14.75809002 4.02680922
v -67.13554382 -15.00751019 12.80961609
v -68.75859070 13.99403954 11.78221130
v -68.18223572 14.37058926 22.18431473
v -69.10614014 13.62595940 0.41801453
v -69.33274841 9.00357056 10.79527283
v -68.79043579 9.14823341 21.09739304
v -51.98591232 87.14401245 39.92964172
v -57.62736130 33.45831680 61.07200623
v -68.85366058 3.25686407 -43.87538910
v -69.07013702 -2.55478287 -44.03501892
v -69.01879883 3.21451426 -38.49792480
v -68.77819824 2.69369912 26.80830383
v -68.34775543 8.99324417 28.98835373
v -69.21249390 2.92901325 19.27134323
v -68.76618958 -3.72545576 24.29728317
v -68.39843750 2.35950518 32.87068176
v -67.10022736 14.08458996 -50.00733948
v -66.56797791 14.22623920 -55.10437775
v -68.92067719 13.53971004 -10.63519669
v -68.48661804 13.61658001 -20.98886681
v -69.72750854 2.95681906 9.28630066
v -65.99038696 14.32173920 52.80366516
v -63.05677032 -22.54503059 36.88154602
v -63.37929153 -22.30214119 32.67854309
v -65.41983795 -20.90438080 2.22624254
v -65.71646881 -20.70177078 -7.05618668
v -64.98976898 -21.12022018 10.67118835
v -65.45584869 -19.58411980 -44.53607941
v -67.40205383 -13.34139061 -44.35457611
v -65.33070374 -19.50382042 -47.75025940
v -62.86912155 -26.07676125 -44.72303009
v -65.50473785 -19.72785950 -39.81958008
v -65.03221893 -19.48812103 -50.00728607
v -64.45537567 -19.46772957 -55.10437012
v -65.75107574 -20.44894981 -16.19739723
v -65.65873718 -20.18122101 -24.94724846
v -64.55484772 -21.41271973 17.30000305
v -66.72496033 -15.31403065 19.64192200
v -61.62641144 -27.73190117 14.91865540
v -64.13221741 -21.73250008 22.82908249
v -64.23685455 87.14401245 -12.82633591
v -65.02359009 23.21607971 43.61448669
v -65.90998840 22.00325966 38.14512253
v -68.08839417 13.73778915 -30.25437737
v -68.74917603 8.84019470 -30.62634850
v -67.48121643 17.55101013 -29.95215797
v -68.59654999 -7.87622499 -44.19115448
v -59.75310135 -32.29152298 -44.90278625
v -56.18981934 -38.10256195 -45.07173920
v -52.26136017 -43.38396072 -45.22621918
v -47.41287231 -48.42501068 -45.37117004
v -41.08951187 -53.51505280 -45.51157379
v -33.54785156 -58.24337387 -45.65134430
v -25.04449844 -62.19940186 -45.79443359
v -69.25017548 3.15449905 -31.07300758
v -65.57449341 -19.93387985 -33.05564880
v -67.14103699 19.98357964 -29.71477699
v -53.81386948 37.98196793 -81.89211273
v -57.31837082 32.76303864 -81.89181519
v -49.79386139 42.63631821 -81.89250183
v -4.91715527 65.04251099 -71.61809540
v -4.74106073 65.20628357 -81.89384460
v -9.66368294 64.40399933 -81.89381409
v 0.00002891 65.34892273 -71.74516296
v 0.00001996 65.51959991 -81.89386749
v -26.00746918 59.66747665 -81.89355469
v -31.31007957 57.24795914 -81.89343262
v -20.44753838 61.69014740 -81.89365387
v -36.03631210 54.49704742 -81.89329529
v -40.56177139 51.20070648 -81.89309692
v -45.26205063 47.14484787 -81.89282227
v -49.76542282 -43.02280045 -81.89174652
v -45.08494186 -48.02465057 -81.89174652
v -53.58443069 -37.77728271 -81.89174652
v -56.98394012 -32.01925278 -81.89174652
v -59.91867065 -25.81775093 -81.89172363
v -65.24679565 -7.30417585 -81.89168549
v -64.15398407 -12.87602997 -81.89169312
v -65.63182831 -1.87316179 -81.89168549
v -63.84345245 15.06829929 -81.89172363
v -64.61947632 9.91956139 -81.89171600
v -62.55139160 20.34066010 -81.89174652
v -60.30361938 26.56076050 -81.89172363
v -39.10100174 -53.05168152 -81.89174652
v -31.98257828 -57.61881256 -81.89174652
v -23.89860916 -61.24098206 -81.89174652
v -15.55706978 -63.81649399 -81.89174652
v -14.94939995 63.25046921 -81.89374542
v -65.31916809 4.07025528 -81.89169312
v -62.34331131 -19.24196053 -81.89171600
v 0.00000888 49.73067856 102.39793396
v 0.00002230 87.14398956 65.73905182
v -4.48412657 87.14398956 65.55735016
v -7.03519344 -67.50470734 -24.95493507
v -0.00001904 -67.97640991 -25.12990761
v -7.32914972 -67.29756927 -31.15781593
v -0.00001815 -67.78266907 -31.28272820
v -6.26322746 -66.96672821 9.04872131
v -0.00002186 -67.21483612 8.68556213
v -6.34150553 -67.05036163 4.94624329
v -0.00002170 -67.34945679 4.58915758
v -7.62563133 -67.08751678 -37.44297028
v -0.00001768 -67.58560944 -37.53177643
v -7.66594553 -65.24365997 -81.89175415
v 0.00001775 -65.65554047 -81.89175415
v 21.10171127 -38.77024078 89.33803558
v 26.32267189 -33.73021317 92.30836487
v 18.07591057 -25.93355942 104.34095764
v 14.27087975 -28.29194069 104.09288788
v 30.74721146 -29.04074097 94.17537689
v 21.51961136 -23.13396072 104.63597870
v 33.93082047 -24.54948997 95.25984192
v 24.53324127 -19.93898964 104.97334290
v 36.38286972 -19.91347122 95.97102356
v 27.07051086 -16.40686989 105.34684753
v 42.37764740 0.75168598 98.78688812
v 42.23378754 6.11849213 99.46931458
v 31.43533134 4.06744623 107.51039886
v 31.73316193 -0.16933471 107.06379700
v 41.28042984 11.54428959 100.15852356
v 30.55041122 8.23181534 107.94874573
v 39.48159027 16.86405945 100.83674622
v 29.08748055 12.25219917 108.37156677
v 36.92856979 21.97389984 101.49186707
v 27.07339096 16.06261826 108.77226257
v 20.13372040 38.01403809 104.10209656
v 14.65750027 40.50894928 104.62364197
v 10.18371010 29.81690025 110.22402191
v 14.29230022 27.94109917 110.02522278
v 9.28758621 42.38742828 104.90992737
v 6.24600029 31.13498878 110.36362457
v 4.49857140 43.67914963 104.86363220
v 2.96005821 31.81608963 110.43562317
v 47.63191986 31.45905876 87.49791718
v 43.11137009 37.35242844 89.46864319
v 37.58752823 30.50223923 99.27156830
v 41.16241837 25.34112930 98.51045227
v 38.17354965 42.30589676 91.12669373
v 33.31998062 35.01160812 100.07387543
v 29.82132149 31.11524963 102.74556732
v 33.71271896 26.76992035 102.11174774
v 32.74681854 46.37945938 92.52611542
v 28.27188110 38.81211853 100.98405457
v 25.24166107 34.87302780 103.44255829
v 22.63613129 42.04510880 101.81962585
v 19.88919067 52.93922806 94.56779480
v 16.60563087 44.85189819 102.39830780
v 26.69682121 49.83621597 93.67155457
v 12.91151047 55.33585739 95.18837738
v 10.63751030 47.17799759 102.66084290
v 6.35137939 56.67350769 95.50670624
v 5.18888235 48.96897888 102.54814148
v 21.52368164 22.79273033 109.48102570
v 24.53498077 19.59704971 109.14422607
v 7.68990374 -59.70905304 44.99888611
v 4.32540655 -59.88917160 45.38935089
v 1.87633729 -63.98527145 28.08430290
v 3.35471034 -63.81167984 28.71208382
v 5.28514957 -56.58589172 57.12116241
v 9.35566330 -56.24918365 56.86100006
v 10.17323971 -30.16312981 103.89631653
v 16.44788170 -40.28410339 89.65477753
v 11.85785007 -41.51001358 89.65178680
v 6.24911261 -31.47464180 103.75856781
v 6.32960653 -52.28952408 68.99882507
v 11.18150043 -51.84793091 68.69611359
v 7.00601339 -48.07132339 79.05800629
v 13.78129005 -46.76295090 79.84904480
v 18.09087181 25.58687973 109.77612305
v 31.43481064 -4.40700579 106.61632538
v 41.74799728 -4.39131069 98.12892151
v 30.54917145 -8.57326126 106.17582703
v 40.45599747 -9.50645065 97.45341492
v 57.19316864 10.71044922 80.45665741
v 47.31498718 7.41309834 96.10569763
v 47.46352005 1.42243040 95.31071472
v 58.19514084 4.32261515 78.32033539
v 55.15446091 17.40526009 82.72426605
v 46.26200867 13.51587963 96.91981506
v 57.98843002 -7.94527006 74.32118225
v 58.43254089 -1.91681075 76.27797699
v 46.87963867 -4.31085682 94.56398773
v 45.66431046 -9.88313007 93.83149719
v 17.57443047 -52.80302048 66.88703156
v 19.93919182 -48.52641296 76.39207458
v 17.95051193 -42.95802307 84.88688660
v 23.06337166 -44.59015274 82.40107727
v 26.94242096 -40.49648285 86.11744690
v 41.52088928 -41.81895065 62.55982208
v 45.99769974 -36.29328156 64.76605988
v 31.57179070 -35.74780273 88.74455261
v 35.99156952 -30.71492958 90.49269867
v 39.24187088 -25.76872063 91.57210541
v 13.84399033 -60.52396393 43.17237091
v 15.64929008 -56.95664215 55.33183289
v 7.15822458 -65.35443878 25.33183289
v 49.94762802 -30.63162041 66.80906677
v 63.07637787 22.17495918 60.20570374
v 58.46616745 30.43340874 64.62287140
v 51.80682755 24.56571007 85.16057587
v 53.37608719 37.86917877 68.18104553
v 66.94203186 -4.94974089 48.55067444
v 67.09551239 1.19835281 51.35740662
v 53.00020981 -24.97389030 68.73429108
v 59.51794052 -29.01105118 37.39372253
v 62.66764069 -22.76731110 40.28590393
v 23.51240158 -59.25300217 45.53050232
v 28.32671165 -59.75935364 24.19581223
v 35.10588074 -56.09871292 25.52083397
v 27.67386055 -55.91048050 51.99610138
v 41.74378967 -20.72277069 92.32139587
v 55.28857040 -19.32759094 70.59431458
v 12.46193981 -65.39566803 22.44783401
v 20.03279114 -61.81936264 37.39314270
v 20.70018005 -62.89063263 23.13572311
v 32.22850037 -51.83460236 56.84821320
v 36.88766098 -47.06840134 60.14500427
v 44.13253021 19.58543015 97.72398376
v 3.76392221 -65.87445068 23.67781448
v 64.97794342 -16.69403076 43.09702301
v 66.64302063 7.60579300 54.24253082
v 65.44768524 14.26835918 57.20387268
v 47.64683914 44.47812653 71.28483582
v 41.67701721 50.02716827 73.86308289
v 5.77957773 -66.43434143 20.04133224
v 41.12025833 -51.86012268 27.16829300
v 46.45238876 -46.99508286 29.19566345
v 51.24934769 -41.50274277 31.61116409
v 55.65818787 -35.38209152 34.42299271
v 29.61849022 57.66820908 77.42305756
v 22.34400177 60.60399628 78.79204559
v 14.68325996 62.92990875 79.87663269
v 7.27781534 64.48526764 80.60191345
v 67.72682953 58.08441925 -4.82670689
v 67.24496460 58.54246902 -12.67792702
v 65.08444214 87.14397430 -7.31003571
v 65.46577454 87.14397430 -1.74030685
v 67.73245239 57.92135620 3.26524353
v 65.38016510 87.14397430 3.84220839
v 68.12827301 20.74264908 1.62013245
v 68.05905151 20.77920914 -9.45523643
v 67.61472321 21.38399887 -19.92710686
v 64.94270325 59.16699600 25.38231277
v 62.33103943 87.14398193 20.26210403
v 60.39915848 87.14398193 25.49348259
v 63.29369736 60.06695938 31.25776291
v 65.30144501 24.98857880 38.15950394
v 66.35100555 23.34728050 31.44145393
v 67.16320038 22.12835884 23.06324387
v 66.30389404 58.49130630 18.70274353
v 63.80960846 87.14398193 14.88365173
v 61.48820877 61.16453934 36.32869339
v 58.02183914 87.14398193 30.53911400
v 59.37141800 62.47384644 40.78398132
v 55.21283722 87.14398193 35.36308289
v 62.54158783 29.48462868 47.55259705
v 63.95991898 27.15785980 43.45100403
v 12.59829044 79.59316254 -65.90833282
v 15.57866001 63.55452728 -68.77086639
v 10.11431980 64.77377319 -69.37042236
v 7.15864468 80.17507172 -66.62255096
v 10.58403969 87.14400482 -64.62664795
v 5.66889668 87.14400482 -65.46940613
v 16.25852013 87.14398956 -63.32496643
v 18.68657112 78.74839783 -64.83103180
v 21.27411079 61.84742737 -67.98052216
v 4.97573233 65.53752136 -69.76301575
v 3.20727038 80.47888947 -66.95895386
v 2.41832018 87.14400482 -65.83579254
v 52.24757004 42.36940765 -57.96799469
v 47.53030014 46.79088593 -60.60579681
v 45.04235077 71.44473267 -54.53034973
v 49.30580902 69.46076202 -51.48678589
v 42.53123093 50.86221695 -62.80599213
v 40.43825912 73.24758911 -57.21564484
v 37.09729767 87.14400482 -53.82034302
v 41.65058899 87.14400482 -50.44032288
v 45.87435913 87.14400482 -46.69893646
v 37.72137833 54.18465805 -64.50893402
v 35.49641800 74.88504791 -59.58864594
v 32.70990753 57.01749802 -65.86275482
v 30.21293068 76.35517120 -61.65125275
v 27.12932014 87.14398956 -59.40826416
v 32.24480057 87.14398956 -56.81539154
v 27.10601044 59.62009811 -67.01555634
v 24.58388138 77.65601349 -63.40536499
v 21.78709030 87.14398956 -61.58182526
v 63.26287079 61.42821884 -32.00815582
v 61.30973816 62.66558838 -36.79044342
v 58.94640732 87.14398193 -28.65766716
v 61.16074753 87.14398193 -23.53909492
v 64.95642090 60.25909805 -26.39585686
v 62.92739868 87.14398193 -18.24930573
v 65.72120667 24.44701004 -37.10297394
v 64.33496094 26.91469955 -42.93811035
v 62.81341934 29.49421883 -47.06748962
v 49.36932755 68.44978333 52.19703674
v 56.14783096 38.24811935 56.52213287
v 59.37772751 34.26462936 53.49214172
v 53.52571869 65.94328308 48.56620026
v 44.36198807 87.14398193 48.16483307
v 48.36203003 87.14398193 44.20731354
v 40.01396942 87.14398193 51.77650452
v 44.71712875 70.93884277 55.47114563
v 51.90607071 42.90652847 59.42106628
v 67.79263306 21.22624969 12.79118347
v 67.24597168 58.06654739 11.21937561
v 64.82704926 87.14397430 9.39695740
v 39.96693802 72.82075500 58.15479279
v 35.34608841 87.14398193 55.01676178
v 34.89178085 74.40846252 60.44351959
v 30.39291191 87.14398193 57.86631012
v 41.54096985 51.95621872 63.81965637
v 46.98658752 47.59733963 61.81901550
v 29.26472092 76.01489258 62.53300476
v 25.18897057 87.14398193 60.30598450
v 23.27365112 77.45074463 64.31138611
v 19.83056068 87.14398193 62.31367493
v 29.27298164 58.86803818 67.06233215
v 35.72077942 55.61880875 65.52656555
v 17.10649109 78.52677155 65.66688538
v 14.41398048 87.14397430 63.86732483
v 11.05867004 79.27242279 66.61024475
v 9.20869541 87.14398193 64.95313263
v 14.34607029 64.51393127 69.76782990
v 21.94458008 61.98684692 68.54945374
v 56.58959961 65.28220367 -44.40074921
v 59.18478775 63.84714890 -40.78628540
v 61.30376816 31.67168999 -49.76536560
v 59.27896881 34.24114609 -52.05314636
v 5.42564774 79.71713257 67.15214539
v 7.08794546 65.98793030 70.49741364
v 61.26157761 31.59852028 50.70097351
v 56.78849792 64.00903320 44.81251526
v 64.68231964 25.31234932 -43.12747955
v 63.35416794 27.54710960 -47.22119904
v 65.95444489 23.13250923 -37.31189728
v 66.69060516 21.01174927 31.36143303
v 66.50259399 22.31855011 31.40938377
v 65.53115082 23.79306984 38.17051315
v 65.90999603 22.00321960 38.14512253
v 67.04140472 18.65643883 31.08095360
v 66.47077942 19.07021904 37.81099319
v 67.63157654 18.18142891 22.73539352
v 67.38200378 20.16635895 22.95384216
v 67.27780914 21.19281960 23.00724411
v 67.90167999 20.31826019 12.70967102
v 68.23520660 19.83111954 1.50462341
v 68.13943481 19.86775970 -9.61972618
v 67.68904114 20.42757034 -20.13320732
v 66.82494354 22.60502052 -29.28783607
v 66.95869446 21.51002884 -29.50553703
v 66.30263519 59.28227615 -19.91005707
v 63.03215790 27.77144051 47.84998322
v 64.31858063 25.71399879 43.54514313
v 52.22311020 41.75606918 60.88941193
v 56.62825012 36.62097931 57.85917664
v 59.96326828 32.29567719 54.60383606
v 56.21200943 37.99660873 -54.95223999
v 53.22574997 67.27999115 -48.03890991
v 56.94969940 -34.69782257 22.44792366
v 60.69781876 -28.31352043 25.23658371
v 60.28622055 -28.57114029 29.80647278
v 56.49438095 -34.94886398 26.87874413
v 52.65179062 -40.82256317 19.81016350
v 52.15821075 -41.06998062 24.11674309
v 53.18053055 -40.55735397 15.19392395
v 57.44065094 -34.42692184 17.66603088
v 61.14476776 -28.03353119 20.26930237
v 47.96113968 -46.32722092 17.52464294
v 47.43214035 -46.56892395 21.74180222
v 42.69316864 -51.25676346 15.57466125
v 42.14521027 -51.47498322 19.73994446
v 43.27557755 -51.02467346 11.14680481
v 48.52504730 -46.06944275 13.02763367
v 36.66324997 -55.65609360 13.94352722
v 36.12644958 -55.81751251 18.09721375
v 29.63934135 -59.59181213 12.50263977
v 29.16712189 -59.67876053 16.63926697
v 30.14065170 -59.48824310 8.12043762
v 37.23347092 -55.48462296 9.53117371
v 21.38938141 -63.13042068 11.12342834
v 21.05846024 -63.14120102 15.19184875
v 13.17634010 -65.75955963 9.93055725
v 12.99909019 -65.69995880 13.89085388
v 13.36159039 -65.75727844 5.78034973
v 21.73900032 -63.07455063 6.85429335
v 67.50432587 13.96788979 -43.60237885
v 67.30141449 14.04043961 -47.51688385
v 66.25908661 18.78846931 -47.46343994
v 66.62569427 18.38204956 -43.47363281
v 67.75224304 13.86695004 -37.95209503
v 67.03407288 17.94454002 -37.73264313
v 68.45235443 8.90925980 -38.20011902
v 68.23558044 8.96295643 -43.72641754
v 68.04665375 9.00182247 -47.54796600
v 65.56545258 22.31581879 -43.31066895
v 64.72303009 23.63461876 -47.35901642
v 66.41344452 20.99901009 -37.52051544
v 64.01209259 24.65612030 -49.93936920
v 65.93730164 19.08888054 -49.99029541
v 63.14529037 25.43992043 -55.08737946
v 65.32697296 19.40016937 -55.10011292
v 60.22642899 31.94910049 -54.36273956
v 62.18183899 29.33436012 -49.86192322
v 66.86810303 14.37570000 42.43058014
v 65.92381287 19.49346924 43.34702301
v 65.32376099 19.94254875 48.46552277
v 66.47370911 14.31932926 47.53886414
v 67.64600372 8.38283539 40.81047058
v 67.33611298 8.09644318 45.79545593
v 67.97589111 8.68820190 35.28657532
v 67.24638367 14.44517994 36.89573288
v 67.34320068 -10.14384079 33.18104553
v 67.97732544 -4.27247000 35.74034119
v 67.62739563 -4.51876497 40.80324554
v 67.00526428 -10.39627075 38.16191101
v 65.98399353 -15.94211960 30.63292313
v 65.65761566 -16.21840096 35.47151184
v 66.34230042 -15.63862038 25.31819344
v 67.71441650 -9.86647034 27.70930290
v 68.36197662 -4.00434494 30.17073250
v 8.03011990 -66.80128479 -45.99897766
v 8.07420158 -66.71550751 -48.11592865
v 16.35863113 -65.05587006 -48.09559631
v 16.29878044 -65.13485718 -45.91795349
v 7.87560129 -66.91020966 -42.74510956
v 16.05536079 -65.25045776 -42.58345795
v 6.63778067 -67.47650909 -11.80675697
v 6.78946638 -67.60052490 -18.58699608
v 14.32781029 -65.99948883 -17.98920631
v 14.03547001 -65.92446136 -11.16925621
v 6.53443670 -67.27639008 -5.30708694
v 13.80200958 -65.79544067 -4.64233685
v 69.22816467 -8.59253693 -14.17375755
v 69.87991333 -3.02451181 -13.24198723
v 69.99985504 -3.20811987 -3.03971672
v 69.29315186 -8.85324669 -4.32777691
v 67.87479401 -14.23074055 -15.13638687
v 67.88097382 -14.51582050 -5.64301682
v 67.72267914 -13.94198990 -24.18256569
v 69.00294495 -8.33738422 -23.49228477
v 69.58257294 -2.84006596 -22.82987595
v 59.53910065 -33.17217255 -18.37345695
v 62.94363022 -26.88393021 -17.29645729
v 62.86031723 -27.10606003 -8.51248741
v 59.37339020 -33.42342377 -9.95731735
v 55.65689850 -39.11538315 -19.39467621
v 55.39097977 -39.41870117 -11.33409691
v 55.81768036 -38.80810165 -27.22058678
v 59.60092926 -32.90716171 -26.50037575
v 62.91637802 -26.64104080 -25.73642540
v 51.41641998 -44.51510239 -20.32648659
v 51.04847717 -44.85652161 -12.58631706
v 46.40708923 -49.55719376 -21.19892693
v 45.98440933 -49.89346313 -13.75018692
v 46.71055984 -49.21535110 -28.49561501
v 51.67193985 -44.17228317 -27.87865639
v 40.21828079 -54.42748260 -22.04204750
v 39.83734894 -54.68588257 -14.86196709
v 32.71320724 -58.93445206 -22.88019753
v 32.37469864 -59.10501099 -15.95258713
v 32.96223831 -58.72778320 -29.68620491
v 40.48036957 -54.15293121 -29.09249687
v 23.75504112 -62.88662338 -23.73773766
v 23.36387062 -63.02193069 -17.05304718
v 14.73272038 -65.87854004 -24.47565651
v 15.19565010 -65.65872192 -30.81691551
v 24.13702011 -62.68260193 -30.29370689
v 56.17020798 37.36374664 -58.54525757
v 52.02227020 41.98586655 -61.33745575
v 32.57019043 56.80208588 -68.28959656
v 27.00916100 59.31015778 -69.30115509
v 21.20264053 61.42126846 -70.13962555
v 47.27179718 46.52185822 -63.70238495
v 42.31356049 50.63422775 -65.63067627
v 51.80867767 -43.17921066 -50.00698853
v 46.95177078 -48.24954224 -50.00693512
v 46.35607910 -48.17959213 -55.10430908
v 51.20718002 -43.10395050 -55.10431671
v 55.76213837 -37.90639114 -50.00704956
v 55.18193054 -37.83597183 -55.10432434
v 56.11552048 -37.99122238 -47.88386536
v 52.19878769 -43.26478195 -47.92238617
v 47.35699081 -48.31416321 -47.95858002
v 59.32600021 -32.13958359 -50.00711823
v 58.74918747 -32.09291077 -55.10433960
v 62.43706894 -25.96985054 -50.00719452
v 61.85750961 -25.94576073 -55.10433960
v 62.75691986 -25.99734116 -47.79687500
v 59.66003799 -32.19758224 -47.84171295
v 68.21258545 -7.80792189 -50.00739288
v 66.99589539 -13.24929047 -50.00734711
v 66.42460632 -13.21385002 -55.10437012
v 67.64691925 -7.75249243 -55.10437775
v 68.69824982 -2.51006484 -50.00742340
v 68.13892365 -2.43131280 -55.10437775
v 68.93206024 -2.52049589 -47.62518311
v 68.46453094 -7.81869173 -47.66417694
v 67.27027130 -13.26252079 -47.70496368
v 68.46893311 3.29820108 -50.00740814
v 67.91724396 3.39967513 -55.10437775
v 67.83335114 9.02653599 -50.00737000
v 67.29067230 9.14929104 -55.10437775
v 68.69149017 3.28394413 -47.58524323
v 40.67758942 -53.40886307 -50.00695801
v 41.03725052 -53.43533325 -47.99367523
v 33.22684860 -58.18527222 -50.00701904
v 33.51445007 -58.18964386 -48.02869415
v 32.81222916 -58.10730362 -55.10435486
v 40.15977097 -53.34559250 -55.10433960
v 24.84029007 -62.10685349 -50.00711823
v 25.06348038 -62.13856125 -48.06459808
v 16.20121193 -64.97911072 -50.00721741
v 15.95444012 -64.77281189 -55.10440826
v 24.50748062 -61.96989059 -55.10437775
v 7.99290037 -66.60771942 -50.00726318
v 7.86205053 -66.35562897 -55.10439301
v 35.86520004 54.28322601 75.84462738
v 6.86160660 -45.00248337 85.33436584
v 12.68165970 -44.03188324 85.30287170
v 6.19669628 -42.41793060 89.89168549
v 16.41858101 -42.60725403 86.12663269
v 2.96463418 -32.15403366 103.68705750
v 38.61277771 -14.78981018 96.71815491
v 29.08511162 -12.59575081 105.75017548
v 56.94586945 -13.70009995 72.44160461
v 66.31944275 -10.83437061 45.82456207
v 43.91847992 -15.39066029 93.07924652
v 35.91054916 55.01435852 67.16422272
v 41.61687851 51.39116669 65.49046326
v 29.58509064 58.16503906 68.63859558
v 22.20774078 61.31316757 70.11479187
v 14.49221992 63.93168640 71.34580231
v 67.45026398 1.45969033 47.87885284
v 67.32729340 -4.73211670 45.15659332
v 67.72917175 1.73130131 43.44901276
v 67.02425385 7.84841919 50.47694397
v 46.92480087 -46.80049133 25.78264427
v 41.61569977 -51.68584061 23.76350403
v 51.69092941 -41.30385208 28.18739319
v 56.07080078 -35.18197250 30.99083328
v 59.91065979 -28.80549049 33.96486282
v 63.08004761 25.73967934 52.97917175
v 61.21475983 28.26945877 57.27860260
v 64.59393311 20.43399048 53.94309235
v 64.06806183 24.50868034 48.36176300
v 61.83914948 29.65560913 51.40183258
v 7.22454643 64.98425293 76.17439270
v 14.61273003 63.40298843 75.43705750
v 7.15223646 65.49358368 72.08466339
v 47.41980743 45.61902618 67.19386292
v 52.85125732 39.75766754 64.37266541
v 47.13685989 46.82561874 63.41599274
v 41.66880035 50.68911743 69.52085114
v 35.93401718 54.61465836 71.33897400
v 29.66924095 57.86577606 72.85499573
v 22.32822037 60.91269684 74.27580261
v 35.60691833 -55.97383118 22.11686325
v 28.70774078 -59.74192047 20.71229362
v 66.71419525 -10.61468029 42.45731354
v 65.37074280 -16.46124077 39.71953583
v 20.72741127 -63.06753159 19.41920471
v 12.81093025 -65.51737976 18.13630676
v 6.10324955 -66.65814972 16.76234436
v 6.18757057 -66.85026550 12.87220764
v 37.54235077 53.98553848 -67.11292267
v 15.49404049 63.04682922 -70.79705811
v 10.02000999 64.23715210 -71.28576660
v 49.73830032 87.14400482 -42.61978912
v 53.21920776 87.14398193 -38.23258972
v 56.29389954 87.14398193 -33.56702423
v 69.89879608 2.98326921 -12.27358627
v 69.54459381 3.07727408 -22.14884567
v 69.50548553 8.73621273 -11.37061691
v 69.10671234 8.77575874 -21.51364708
v 69.67200470 8.78943825 -0.50004673
v 70.04801941 2.92542911 -1.70820618
v 68.82418060 -8.13427925 -32.02034760
v 69.35423279 -2.70756292 -31.55184746
v 67.58820343 -13.68873024 -32.51084900
v 67.47884369 -13.48410034 -39.45642853
v 68.68950653 -7.98125601 -39.12946320
v 69.18630981 -2.61612582 -38.81715393
v 59.66318893 -32.65269089 -34.15641022
v 62.89537811 -26.40895081 -33.61678314
v 55.97261047 -38.51432037 -34.66358948
v 56.10290909 -38.26786041 -40.89136505
v 59.71690750 -32.43782043 -40.55331421
v 62.87989044 -26.21255112 -40.19361877
v 51.91832733 -43.84283066 -35.12729645
v 47.00465012 -48.88446045 -35.56238556
v 47.25139999 -48.60692215 -41.49049377
v 52.12500000 -43.56674194 -41.20046997
v 40.73584747 -53.88543320 -35.98358917
v 33.20879745 -58.52407074 -36.40273285
v 33.41621780 -58.35276413 -42.05075836
v 40.95034027 -53.66087341 -41.77130890
v 24.52035141 -62.47871399 -36.83159637
v 15.66209030 -65.43724060 -37.20131683
v 24.84339142 -62.30700302 -42.33674622
v 68.19581604 18.88574982 -9.79814720
v 68.34068298 18.89583969 1.35609436
v 68.58440399 17.10472870 1.03904724
v 68.39921570 17.04057884 -10.10010719
v 67.73849487 19.27663040 -20.32883644
v 67.94403076 17.23752975 -20.58901596
v 68.00072479 19.39188004 12.61274719
v 68.23722076 17.57462883 12.35282898
v 58.99945831 -33.63661194 -1.43360615
v 62.54967880 -27.27585030 0.39982510
v 62.10670090 -27.46169090 8.51780701
v 58.50336075 -33.85809326 6.33872938
v 54.92065811 -39.70061111 -3.18711662
v 54.34255981 -39.97859192 4.25334120
v 50.46479797 -45.18181229 -4.77366638
v 49.78710938 -45.49236298 2.38099623
v 45.33274078 -50.20747375 -6.22727680
v 44.59358978 -50.50021362 0.69346523
v 39.22533798 -54.90500259 -7.58191681
v 38.51855087 -55.10305405 -0.83754063
v 31.85970116 -59.20038223 -8.87123680
v 31.26497078 -59.27305222 -2.24668694
v 22.95292091 -63.01965332 -10.12889671
v 22.53582191 -62.98243332 -3.56857681
v 68.99124908 -9.07286263 5.78273010
v 69.69598389 -3.33810687 7.52537537
v 69.20563507 -3.48649168 17.09165955
v 68.52706909 -9.29748344 14.94377136
v 67.57771301 -14.75814056 4.02680922
v 67.13553619 -15.00755024 12.80961609
v 68.75861359 13.99399948 11.78221130
v 68.18225098 14.37053967 22.18431473
v 69.33275604 9.00352573 10.79527283
v 68.79044342 9.14816284 21.09739304
v 69.10616302 13.62591934 0.41801453
v 51.98593903 87.14398193 39.92961121
v 57.62736893 33.45828629 61.07200623
v 68.85368347 3.25682020 -43.87536621
v 69.01881409 3.21446919 -38.49790955
v 69.07015991 -2.55482674 -44.03501892
v 68.77820587 2.69362807 26.80830383
v 69.21249390 2.92894220 19.27134323
v 68.34776306 8.99320030 28.98835373
v 68.39842987 2.35943413 32.87071228
v 68.76618195 -3.72550106 24.29728317
v 67.10027313 14.08453941 -50.00731659
v 66.56801605 14.22637939 -55.10435486
v 68.92070007 13.53969002 -10.63519669
v 68.48666382 13.61653996 -20.98883629
v 69.72751617 2.95677423 9.28630066
v 65.99040222 14.32168961 52.80369568
v 63.05675888 -22.54504013 36.88157272
v 63.37928009 -22.30215073 32.67854309
v 65.41981506 -20.90439987 2.22624254
v 65.71644592 -20.70182037 -7.05615616
v 64.98976135 -21.12024117 10.67121887
v 65.45585632 -19.58418083 -44.53605652
v 65.33070374 -19.50386047 -47.75024414
v 67.40205383 -13.34143066 -44.35455322
v 65.50475311 -19.72793007 -39.81956482
v 62.86911774 -26.07680130 -44.72300720
v 65.03221130 -19.48818970 -50.00726318
v 64.45539093 -19.46552086 -55.10435486
v 65.75106049 -20.44898987 -16.19736671
v 65.65872955 -20.18126106 -24.94721794
v 64.55483246 -21.41275978 17.30003357
v 66.72494507 -15.31407070 19.64192200
v 64.13220978 -21.73254013 22.82911301
v 61.62639999 -27.73191071 14.91865540
v 64.23682404 87.14397430 -12.82633591
v 65.02359009 23.21603966 43.61450958
v 68.08843231 13.73771954 -30.25437737
v 68.74920654 8.84015083 -30.62634850
v 67.48125458 17.55093956 -29.95215797
v 68.59656525 -7.87626886 -44.19113922
v 59.75309753 -32.29156113 -44.90277863
v 56.18983078 -38.10260391 -45.07171631
v 52.26136017 -43.38402176 -45.22619629
v 47.41286087 -48.42507172 -45.37115479
v 41.08948898 -53.51511383 -45.51155853
v 33.54784012 -58.24342346 -45.65135956
v 25.04447174 -62.19947052 -45.79444885
v 69.25019073 3.15445423 -31.07300758
v 65.57450104 -19.93395042 -33.05560303
v 67.14107513 19.98350906 -29.71475792
v 57.31838989 32.76462936 -81.89178467
v 53.81388092 37.98330688 -81.89209747
v 49.79385757 42.63729858 -81.89248657
v 9.66374207 64.40399933 -81.89380646
v 4.74110746 65.20628357 -81.89383698
v 4.91721344 65.04251099 -71.61809540
v 31.31014061 57.24797821 -81.89345551
v 26.00753021 59.66746902 -81.89357758
v 20.44762039 61.69012833 -81.89366150
v 40.56179047 51.20102692 -81.89308167
v 36.03635788 54.49717712 -81.89329529
v 45.26206970 47.14546585 -81.89281464
v 45.08578873 -47.89721298 -81.89174652
v 49.76612091 -42.92057037 -81.89174652
v 53.58494949 -37.70063400 -81.89172363
v 56.98431778 -31.96619987 -81.89171600
v 59.91891098 -25.78477097 -81.89170837
v 64.15404510 -12.86800003 -81.89169312
v 65.24684143 -7.30141401 -81.89169312
v 65.63186646 -1.87239194 -81.89169312
v 64.61949158 9.92064667 -81.89171600
v 63.84349823 15.06971931 -81.89171600
v 62.55147934 20.34223938 -81.89171600
v 60.30368042 26.56239891 -81.89169312
v 31.98344040 -57.46004105 -81.89175415
v 39.10191727 -52.90191269 -81.89175415
v 15.55741024 -63.70730209 -81.89174652
v 23.89923096 -61.09707260 -81.89175415
v 14.94946957 63.25045776 -81.89374542
v 65.31918335 4.07078934 -81.89170837
v 62.34343719 -19.22392082 -81.89170837
v 4.48416948 87.14398193 65.55735016
v 7.03515673 -67.50473785 -24.95493507
v 7.32911444 -67.29756927 -31.15782738
v 6.26318550 -66.96675873 9.04872131
v 6.34146452 -67.05036163 4.94624329
v 7.62559843 -67.08751678 -37.44297028
v 7.66606951 -65.18511963 -81.89174652
v -57.97117233 -34.13425064 12.50077820
v -53.75333023 -40.27008057 10.19432068
v -49.13714218 -45.78968048 8.14726257
v -43.90848923 -50.77255249 6.33561707
v -37.85329056 -55.29827118 4.73548937
v -30.68726921 -59.37552261 3.31059217
v -22.12619972 -63.01297379 2.02473450
v -13.57380962 -65.75450897 0.96513319
v -67.68129730 14.48222923 30.35124397
v -67.04138947 18.65647888 31.08095360
v -68.10524750 -9.57314014 21.94142342
v -68.04698944 2.03498220 38.43193054
v -63.73907089 -22.03013039 27.97484398
v -6.43381453 -67.14399719 0.21913147
v -0.00002134 -67.50070953 -0.07551670
v 57.97114944 -34.13426208 12.50077820
v 53.75330734 -40.27009201 10.19435120
v 49.13711929 -45.78971100 8.14726257
v 43.90845871 -50.77258301 6.33561707
v 37.85324860 -55.29829407 4.73548937
v 30.68723106 -59.37555313 3.31059217
v 22.12616158 -63.01299286 2.02473450
v 13.57376957 -65.75453186 0.96513319
v 67.68130493 14.48220921 30.35124397
v 68.10525513 -9.57318020 21.94142342
v 68.04698944 2.03493714 38.43193054
v 63.73905945 -22.03014946 27.97484398
v 6.43377256 -67.14396667 0.21913147
v -66.69060516 21.01178932 31.36143303
v -18.07594872 -25.93354988 104.34099579
v -14.27091980 -28.29191017 104.09291840
v -21.51963997 -23.13389015 104.63600159
v -24.53326988 -19.93892097 104.97337341
v -27.07053947 -16.40680122 105.34684753
v -31.43533897 4.06743908 107.51039886
v -31.73316956 -0.16934031 107.06379700
v -30.55041885 8.23178196 107.94877625
v -29.08747864 12.25219917 108.37156677
v -27.07338905 16.06260872 108.77229309
v -10.18371010 29.81690979 110.22402191
v -14.29230022 27.94108009 110.02532196
v -6.24599552 31.13500023 110.36362457
v -2.96005368 31.81608963 110.43562317
v 0.00000248 31.99736977 110.45472717
v -24.53498840 19.59704018 109.14422607
v -21.52367973 22.79273987 109.48102570
v -10.17327023 -30.16307068 103.89631653
v -6.24914837 -31.47456169 103.75859833
v -18.09086990 25.58688927 109.77612305
v -31.43482971 -4.40698576 106.61632538
v -30.54918861 -8.57319069 106.17585754
v -2.96467185 -32.15400314 103.68705750
v -0.00001827 -32.33570099 103.66786194
v -29.08512878 -12.59567070 105.75017548
v 18.07591057 -25.93355942 104.34095764
v 14.27087975 -28.29194069 104.09288788
v 21.51961136 -23.13396072 104.63597870
v 24.53324127 -19.93898964 104.97334290
v 27.07051086 -16.40686989 105.34684753
v 31.43533134 4.06744623 107.51039886
v 31.73316193 -0.16933471 107.06379700
v 30.55041122 8.23181534 107.94874573
v 29.08748055 12.25219917 108.37156677
v 27.07339096 16.06261826 108.77226257
v 10.18371010 29.81690025 110.22402191
v 14.29230022 27.94109917 110.02522278
v 6.24600029 31.13498878 110.36362457
v 2.96005821 31.81608963 110.43562317
v 21.52368164 22.79273033 109.48102570
v 24.53498077 19.59704971 109.14422607
v 10.17323971 -30.16312981 103.89631653
v 6.24911261 -31.47464180 103.75856781
v 18.09087181 25.58687973 109.77612305
v 31.43481064 -4.40700579 106.61632538
v 30.54917145 -8.57326126 106.17582703
v 2.96463418 -32.15403366 103.68705750
v 29.08511162 -12.59575081 105.75017548
v -65.46572876 87.14401245 -1.74033642
v -65.08448029 87.14401245 -7.31003571
v -65.38005829 87.14401245 3.84220839
v -60.39918137 87.14402008 25.49348259
v -62.33098221 87.14402008 20.26207352
v -63.80949020 87.14402008 14.88365173
v -58.02186203 87.14401245 30.53908348
v -55.21284103 87.14401245 35.36308289
v -16.25845909 87.14401245 -63.32494354
v -10.58397961 87.14400482 -64.62662506
v -5.66883659 87.14400482 -65.46940613
v -2.41826177 87.14400482 -65.83578491
v 0.00002905 87.14400482 -65.89989471
v -41.65058136 87.14401245 -50.44031525
v -45.87433243 87.14401245 -46.69892883
v -37.09730148 87.14401245 -53.82034302
v -32.24480057 87.14401245 -56.81538391
v -27.12930870 87.14401245 -59.40825653
v -21.78704834 87.14401245 -61.58180237
v -61.16072083 87.14402008 -23.53909492
v -58.94631958 87.14402008 -28.65766716
v -62.92742157 87.14402008 -18.24930573
v -40.01393127 87.14401245 51.77650452
v -44.36194229 87.14401245 48.16483307
v -48.36198044 87.14401245 44.20735168
v -64.82691956 87.14402008 9.39695740
v -35.34606934 87.14401245 55.01673126
v -30.39289856 87.14400482 57.86627960
v -25.18894958 87.14401245 60.30598450
v -19.83052826 87.14401245 62.31370544
v -14.41394043 87.14400482 63.86738586
v -9.20865726 87.14398956 64.95316315
v -53.21913147 87.14401245 -38.23258972
v -49.73823929 87.14401245 -42.61978912
v -56.29380035 87.14401245 -33.56702423
v -51.98591232 87.14401245 39.92964172
v -64.23685455 87.14401245 -12.82633591
v 0.00002230 87.14398956 65.73905182
v -4.48412657 87.14398956 65.55735016
v 65.08444214 87.14397430 -7.31003571
v 65.46577454 87.14397430 -1.74030685
v 65.38016510 87.14397430 3.84220839
v 62.33103943 87.14398193 20.26210403
v 60.39915848 87.14398193 25.49348259
v 63.80960846 87.14398193 14.88365173
v 58.02183914 87.14398193 30.53911400
v 55.21283722 87.14398193 35.36308289
v 10.58403969 87.14400482 -64.62664795
v 5.66889668 87.14400482 -65.46940613
v 16.25852013 87.14398956 -63.32496643
v 2.41832018 87.14400482 -65.83579254
v 37.09729767 87.14400482 -53.82034302
v 41.65058899 87.14400482 -50.44032288
v 45.87435913 87.14400482 -46.69893646
v 27.12932014 87.14398956 -59.40826416
v 32.24480057 87.14398956 -56.81539154
v 21.78709030 87.14398956 -61.58182526
v 58.94640732 87.14398193 -28.65766716
v 61.16074753 87.14398193 -23.53909492
v 62.92739868 87.14398193 -18.24930573
v 44.36198807 87.14398193 48.16483307
v 48.36203003 87.14398193 44.20731354
v 40.01396942 87.14398193 51.77650452
v 64.82704926 87.14397430 9.39695740
v 35.34608841 87.14398193 55.01676178
v 30.39291191 87.14398193 57.86631012
v 25.18897057 87.14398193 60.30598450
v 19.83056068 87.14398193 62.31367493
v 14.41398048 87.14397430 63.86732483
v 9.20869541 87.14398193 64.95313263
v 49.73830032 87.14400482 -42.61978912
v 53.21920776 87.14398193 -38.23258972
v 56.29389954 87.14398193 -33.56702423
v 51.98593903 87.14398193 39.92961121
v 64.23682404 87.14397430 -12.82633591
v 4.48416948 87.14398193 65.55735016
v -53.81386948 37.98196793 -81.89211273
v -57.31837082 32.76303864 -81.89181519
v -49.79386139 42.63631821 -81.89250183
v -4.74106073 65.20628357 -81.89384460
v -9.66368294 64.40399933 -81.89381409
v 0.00001996 65.51959991 -81.89386749
v -26.00746918 59.66747665 -81.89355469
v -31.31007957 57.24795914 -81.89343262
v -20.44753838 61.69014740 -81.89365387
v -36.03631210 54.49704742 -81.89329529
v -40.56177139 51.20070648 -81.89309692
v -45.26205063 47.14484787 -81.89282227
v -49.76542282 -43.02280045 -81.89174652
v -45.08494186 -48.02465057 -81.89174652
v -53.58443069 -37.77728271 -81.89174652
v -56.98394012 -32.01925278 -81.89174652
v -59.91867065 -25.81775093 -81.89172363
v -65.24679565 -7.30417585 -81.89168549
v -64.15398407 -12.87602997 -81.89169312
v -65.63182831 -1.87316179 -81.89168549
v -63.84345245 15.06829929 -81.89172363
v -64.61947632 9.91956139 -81.89171600
v -62.55139160 20.34066010 -81.89174652
v -60.30361938 26.56076050 -81.89172363
v -39.10100174 -53.05168152 -81.89174652
v -31.98257828 -57.61881256 -81.89174652
v -23.89860916 -61.24098206 -81.89174652
v -15.55706978 -63.81649399 -81.89174652
v -14.94939995 63.25046921 -81.89374542
v -65.31916809 4.07025528 -81.89169312
v -62.34331131 -19.24196053 -81.89171600
v -7.66594553 -65.24365997 -81.89175415
v 0.00001775 -65.65554047 -81.89175415
v 57.31838989 32.76462936 -81.89178467
v 53.81388092 37.98330688 -81.89209747
v 49.79385757 42.63729858 -81.89248657
v 9.66374207 64.40399933 -81.89380646
v 4.74110746 65.20628357 -81.89383698
v 31.31014061 57.24797821 -81.89345551
v 26.00753021 59.66746902 -81.89357758
v 20.44762039 61.69012833 -81.89366150
v 40.56179047 51.20102692 -81.89308167
v 36.03635788 54.49717712 -81.89329529
v 45.26206970 47.14546585 -81.89281464
v 45.08578873 -47.89721298 -81.89174652
v 49.76612091 -42.92057037 -81.89174652
v 53.58494949 -37.70063400 -81.89172363
v 56.98431778 -31.96619987 -81.89171600
v 59.91891098 -25.78477097 -81.89170837
v 64.15404510 -12.86800003 -81.89169312
v 65.24684143 -7.30141401 -81.89169312
v 65.63186646 -1.87239194 -81.89169312
v 64.61949158 9.92064667 -81.89171600
v 63.84349823 15.06971931 -81.89171600
v 62.55147934 20.34223938 -81.89171600
v 60.30368042 26.56239891 -81.89169312
v 31.98344040 -57.46004105 -81.89175415
v 39.10191727 -52.90191269 -81.89175415
v 15.55741024 -63.70730209 -81.89174652
v 23.89923096 -61.09707260 -81.89175415
v 14.94946957 63.25045776 -81.89374542
v 65.31918335 4.07078934 -81.89170837
v 62.34343719 -19.22392082 -81.89170837
v 7.66606951 -65.18511963 -81.89174652
f 1 2 3
f 3 4 1
f 5 2 1
f 1 6 5
f 7 8 5
f 5 6 7
f 9 8 7
f 7 10 9
f 11 12 13
f 13 14 11
f 15 12 11
f 11 16 15
f 17 18 15
f 15 16 17
f 19 18 17
f 17 20 19
f 21 22 23
f 23 24 21
f 25 22 21
f 21 26 25
f 27 28 25
f 25 26 27
f 29 28 27
f 27 30 29
f 31 19 32
f 32 33 31
f 34 35 36
f 36 33 34
f 37 38 35
f 35 34 37
f 34 39 40
f 40 37 34
f 41 42 38
f 38 37 41
f 41 23 22
f 22 43 41
f 44 45 46
f 46 43 44
f 44 25 28
f 28 47 44
f 32 48 49
f 49 39 32
f 19 20 48
f 48 32 19
f 50 51 52
f 52 53 50
f 54 51 50
f 50 55 54
f 51 54 56
f 56 57 51
f 52 51 57
f 57 58 52
f 3 59 60
f 60 4 3
f 59 61 62
f 62 60 59
f 63 64 58
f 58 57 63
f 65 63 57
f 57 56 65
f 63 65 66
f 66 67 63
f 64 63 67
f 67 68 64
f 39 49 69
f 69 40 39
f 23 40 69
f 69 24 23
f 13 70 71
f 71 14 13
f 72 71 70
f 70 73 72
f 13 12 74
f 74 75 13
f 76 77 78
f 78 74 76
f 79 80 81
f 81 82 79
f 73 70 79
f 79 82 73
f 75 83 80
f 80 79 75
f 42 41 43
f 43 46 42
f 84 58 64
f 64 85 84
f 86 87 88
f 88 85 86
f 86 68 89
f 89 90 86
f 91 92 93
f 93 90 91
f 91 3 2
f 2 94 91
f 5 8 95
f 95 96 5
f 8 9 97
f 97 95 8
f 58 84 98
f 98 52 58
f 31 33 36
f 36 99 31
f 100 101 94
f 94 96 100
f 101 92 91
f 91 94 101
f 102 99 103
f 103 104 102
f 105 106 78
f 78 77 105
f 107 80 83
f 83 108 107
f 107 109 81
f 81 80 107
f 110 111 112
f 112 113 110
f 100 113 112
f 112 114 100
f 114 115 101
f 101 100 114
f 116 88 87
f 87 117 116
f 116 118 119
f 119 88 116
f 113 95 97
f 97 110 113
f 96 95 113
f 113 100 96
f 120 121 98
f 98 122 120
f 122 123 120
f 119 118 123
f 123 122 119
f 87 86 90
f 90 93 87
f 102 124 31
f 31 99 102
f 76 124 102
f 102 77 76
f 83 75 74
f 74 78 83
f 42 125 126
f 126 38 42
f 127 128 93
f 93 92 127
f 53 52 98
f 98 121 53
f 53 121 129
f 129 50 53
f 108 83 78
f 78 106 108
f 36 130 103
f 103 99 36
f 36 35 131
f 131 130 36
f 120 132 129
f 129 121 120
f 132 133 134
f 134 129 132
f 117 87 93
f 93 128 117
f 127 92 101
f 101 115 127
f 77 102 104
f 104 105 77
f 125 42 46
f 46 135 125
f 136 135 46
f 46 45 136
f 136 45 137
f 137 138 136
f 139 138 137
f 137 140 139
f 141 142 143
f 143 144 141
f 144 145 146
f 146 141 144
f 141 146 147
f 147 148 141
f 142 141 148
f 148 149 142
f 150 151 152
f 152 153 150
f 154 150 153
f 153 155 154
f 156 157 150
f 150 154 156
f 157 158 151
f 151 150 157
f 159 160 152
f 152 151 159
f 151 158 161
f 161 159 151
f 159 161 162
f 162 163 159
f 160 159 163
f 163 164 160
f 165 166 167
f 167 168 165
f 166 169 170
f 170 167 166
f 167 170 171
f 171 172 167
f 168 167 172
f 172 173 168
f 174 175 165
f 165 168 174
f 176 174 168
f 168 173 176
f 174 176 177
f 177 178 174
f 178 179 175
f 175 174 178
f 180 181 182
f 182 183 180
f 184 180 183
f 183 185 184
f 180 184 186
f 186 187 180
f 187 188 181
f 181 180 187
f 189 190 188
f 188 187 189
f 191 189 187
f 187 186 191
f 189 191 192
f 192 193 189
f 193 194 190
f 190 189 193
f 195 196 194
f 194 193 195
f 197 195 193
f 193 192 197
f 195 197 171
f 171 170 195
f 170 169 196
f 196 195 170
f 198 199 200
f 200 201 198
f 201 202 203
f 203 198 201
f 198 203 204
f 204 205 198
f 199 198 205
f 205 206 199
f 207 208 209
f 209 210 207
f 208 211 212
f 212 209 208
f 209 212 213
f 213 214 209
f 210 209 214
f 214 215 210
f 216 217 156
f 156 154 216
f 218 216 154
f 154 155 218
f 216 218 149
f 149 148 216
f 148 147 217
f 217 216 148
f 219 220 213
f 213 212 219
f 212 211 221
f 221 219 212
f 219 221 222
f 222 223 219
f 220 219 223
f 223 224 220
f 225 226 224
f 224 223 225
f 223 222 227
f 227 225 223
f 225 227 228
f 228 229 225
f 226 225 229
f 229 230 226
f 231 232 230
f 230 229 231
f 229 228 233
f 233 231 229
f 231 233 234
f 234 235 231
f 232 231 235
f 235 236 232
f 237 238 239
f 239 240 237
f 238 237 202
f 202 201 238
f 234 241 242
f 242 235 234
f 243 242 241
f 241 244 243
f 245 246 207
f 207 210 245
f 245 163 162
f 162 246 245
f 203 202 247
f 247 248 203
f 204 203 248
f 248 249 204
f 157 250 251
f 251 158 157
f 250 157 156
f 156 252 250
f 217 253 252
f 252 156 217
f 253 217 147
f 147 254 253
f 146 255 254
f 254 147 146
f 255 146 145
f 145 256 255
f 257 258 256
f 256 145 257
f 258 257 204
f 204 249 258
f 259 161 158
f 158 251 259
f 161 259 260
f 260 162 161
f 261 208 207
f 207 262 261
f 208 261 263
f 263 211 208
f 264 265 240
f 240 239 264
f 182 265 264
f 264 183 182
f 266 267 268
f 268 269 266
f 270 266 269
f 269 271 270
f 266 270 272
f 272 273 266
f 267 266 273
f 273 274 267
f 275 276 274
f 274 273 275
f 277 275 273
f 273 272 277
f 275 277 278
f 278 279 275
f 276 275 279
f 279 280 276
f 281 282 280
f 280 279 281
f 283 281 279
f 279 278 283
f 281 283 284
f 284 285 281
f 282 281 285
f 285 286 282
f 287 288 286
f 286 285 287
f 289 287 285
f 285 284 289
f 287 289 290
f 290 291 287
f 288 287 291
f 291 292 288
f 293 294 295
f 295 296 293
f 297 293 296
f 296 298 297
f 293 297 299
f 299 300 293
f 294 293 300
f 300 301 294
f 302 303 295
f 295 294 302
f 304 302 294
f 294 301 304
f 302 304 249
f 249 248 302
f 303 302 248
f 248 247 303
f 305 306 295
f 295 303 305
f 307 305 303
f 303 247 307
f 305 307 308
f 308 309 305
f 306 305 309
f 309 310 306
f 311 312 313
f 313 314 311
f 315 311 314
f 314 316 315
f 311 315 317
f 317 318 311
f 312 311 318
f 318 319 312
f 320 321 322
f 322 323 320
f 324 320 323
f 323 325 324
f 320 324 326
f 326 327 320
f 321 320 327
f 327 328 321
f 329 330 331
f 331 332 329
f 333 329 332
f 332 334 333
f 329 333 335
f 335 336 329
f 330 329 336
f 336 337 330
f 338 339 340
f 340 341 338
f 342 338 341
f 341 343 342
f 338 342 344
f 344 345 338
f 339 338 345
f 345 346 339
f 347 348 349
f 349 350 347
f 351 347 350
f 350 352 351
f 347 351 353
f 353 354 347
f 348 347 354
f 354 355 348
f 356 357 358
f 358 359 356
f 360 356 359
f 359 361 360
f 356 360 362
f 362 363 356
f 357 356 363
f 363 364 357
f 365 366 364
f 364 363 365
f 367 365 363
f 363 362 367
f 365 367 368
f 368 369 365
f 366 365 369
f 369 370 366
f 371 372 370
f 370 369 371
f 373 371 369
f 369 368 373
f 371 373 374
f 374 375 371
f 372 371 375
f 375 376 372
f 377 378 376
f 376 375 377
f 379 377 375
f 375 374 379
f 377 379 380
f 380 381 377
f 378 377 381
f 381 340 378
f 307 237 240
f 240 308 307
f 237 307 247
f 247 202 237
f 265 182 382
f 382 383 265
f 240 265 383
f 383 308 240
f 196 384 385
f 385 194 196
f 384 196 169
f 169 386 384
f 181 387 382
f 382 182 181
f 387 181 188
f 188 388 387
f 389 390 391
f 391 392 389
f 393 389 392
f 392 394 393
f 389 393 395
f 395 396 389
f 390 389 396
f 396 397 390
f 398 399 397
f 397 396 398
f 400 398 396
f 396 395 400
f 398 400 401
f 401 402 398
f 399 398 402
f 402 403 399
f 404 405 406
f 406 407 404
f 408 404 407
f 407 409 408
f 404 408 410
f 410 411 404
f 405 404 411
f 411 412 405
f 413 414 412
f 412 411 413
f 415 413 411
f 411 410 415
f 413 415 298
f 298 416 413
f 414 413 416
f 416 417 414
f 418 419 394
f 394 392 418
f 420 418 392
f 392 391 420
f 418 420 421
f 421 422 418
f 419 418 422
f 422 423 419
f 424 425 423
f 423 422 424
f 426 424 422
f 422 421 426
f 424 426 427
f 427 428 424
f 425 424 428
f 428 331 425
f 429 332 331
f 331 428 429
f 430 429 428
f 428 427 430
f 429 430 431
f 431 432 429
f 332 429 432
f 432 334 332
f 131 35 38
f 38 126 131
f 15 18 124
f 124 76 15
f 18 19 31
f 31 124 18
f 433 434 61
f 61 435 433
f 67 433 435
f 435 68 67
f 433 67 66
f 66 436 433
f 434 433 436
f 436 437 434
f 438 59 3
f 3 89 438
f 435 438 89
f 89 68 435
f 438 435 61
f 61 59 438
f 61 434 439
f 439 62 61
f 434 437 440
f 440 439 434
f 441 442 72
f 72 73 441
f 9 10 442
f 442 441 9
f 109 443 444
f 444 81 109
f 111 110 444
f 444 443 111
f 441 445 97
f 97 9 441
f 81 444 445
f 445 82 81
f 110 97 445
f 445 444 110
f 119 84 85
f 85 88 119
f 122 98 84
f 84 119 122
f 227 222 446
f 446 447 227
f 228 227 447
f 447 448 228
f 233 228 448
f 448 449 233
f 234 233 449
f 449 450 234
f 451 452 109
f 109 107 451
f 453 451 107
f 107 108 453
f 451 453 319
f 319 454 451
f 452 451 454
f 454 322 452
f 455 456 117
f 117 128 455
f 457 455 128
f 128 127 457
f 455 457 274
f 274 276 455
f 456 455 276
f 276 280 456
f 458 457 127
f 127 115 458
f 459 458 115
f 115 114 459
f 458 459 268
f 268 267 458
f 457 458 267
f 267 274 457
f 460 461 105
f 105 462 460
f 463 460 462
f 462 262 463
f 460 463 260
f 260 464 460
f 461 460 464
f 464 313 461
f 465 466 136
f 136 138 465
f 467 465 138
f 138 139 467
f 465 467 468
f 468 469 465
f 466 465 469
f 469 450 466
f 470 471 103
f 103 130 470
f 472 470 130
f 130 131 472
f 470 472 446
f 446 473 470
f 471 470 473
f 473 263 471
f 474 472 131
f 131 126 474
f 475 474 126
f 126 125 475
f 474 475 448
f 448 447 474
f 472 474 447
f 447 446 472
f 476 475 125
f 125 135 476
f 466 476 135
f 135 136 466
f 476 466 450
f 450 449 476
f 475 476 449
f 449 448 475
f 477 478 118
f 118 116 477
f 456 477 116
f 116 117 456
f 477 456 280
f 280 282 477
f 478 477 282
f 282 286 478
f 479 480 111
f 111 443 479
f 452 479 443
f 443 109 452
f 479 452 322
f 322 321 479
f 480 479 321
f 321 328 480
f 481 482 120
f 120 123 481
f 478 481 123
f 123 118 478
f 481 478 286
f 286 288 481
f 482 481 288
f 288 292 482
f 483 132 120
f 120 482 483
f 484 483 482
f 482 292 484
f 483 484 485
f 485 486 483
f 132 483 486
f 486 133 132
f 190 194 385
f 385 487 190
f 188 190 487
f 487 388 188
f 166 165 488
f 488 489 166
f 169 166 489
f 489 386 169
f 264 239 490
f 490 491 264
f 183 264 491
f 491 185 183
f 238 201 200
f 200 492 238
f 239 238 492
f 492 490 239
f 493 257 145
f 145 144 493
f 493 205 204
f 204 257 493
f 494 495 352
f 352 350 494
f 496 494 350
f 350 349 496
f 494 496 497
f 497 498 494
f 495 494 498
f 498 499 495
f 500 351 352
f 352 501 500
f 502 500 501
f 501 503 502
f 500 502 504
f 504 505 500
f 351 500 505
f 505 353 351
f 506 360 361
f 361 507 506
f 508 506 507
f 507 509 508
f 506 508 510
f 510 511 506
f 360 506 511
f 511 362 360
f 512 367 362
f 362 511 512
f 513 512 511
f 511 510 513
f 512 513 514
f 514 515 512
f 367 512 515
f 515 368 367
f 516 373 368
f 368 515 516
f 517 516 515
f 515 514 517
f 516 517 518
f 518 519 516
f 373 516 519
f 519 374 373
f 520 379 374
f 374 519 520
f 521 520 519
f 519 518 521
f 520 521 337
f 337 522 520
f 379 520 522
f 522 380 379
f 523 524 525
f 525 526 523
f 255 523 526
f 526 254 255
f 523 255 256
f 256 527 523
f 524 523 527
f 527 528 524
f 529 530 252
f 252 253 529
f 526 529 253
f 253 254 526
f 529 526 525
f 525 531 529
f 530 529 531
f 531 532 530
f 533 534 535
f 535 536 533
f 357 533 536
f 536 358 357
f 533 357 364
f 364 537 533
f 534 533 537
f 537 538 534
f 539 540 538
f 538 537 539
f 366 539 537
f 537 364 366
f 539 366 370
f 370 541 539
f 540 539 541
f 541 542 540
f 543 544 542
f 542 541 543
f 372 543 541
f 541 370 372
f 543 372 376
f 376 545 543
f 544 543 545
f 545 546 544
f 547 548 546
f 546 545 547
f 378 547 545
f 545 376 378
f 547 378 340
f 340 339 547
f 548 547 339
f 339 346 548
f 549 550 551
f 551 552 549
f 348 549 552
f 552 349 348
f 549 348 355
f 355 553 549
f 550 549 553
f 553 554 550
f 555 556 532
f 532 531 555
f 557 555 531
f 531 525 557
f 555 557 497
f 497 558 555
f 556 555 558
f 558 559 556
f 245 210 215
f 215 560 245
f 163 245 560
f 560 164 163
f 561 462 105
f 105 104 561
f 471 561 104
f 104 103 471
f 561 471 263
f 263 261 561
f 462 561 261
f 261 262 462
f 562 297 298
f 298 415 562
f 563 562 415
f 415 410 563
f 562 563 503
f 503 564 562
f 297 562 564
f 564 299 297
f 565 566 559
f 559 567 565
f 568 565 567
f 567 551 568
f 565 568 325
f 325 569 565
f 566 565 569
f 569 317 566
f 570 416 298
f 298 296 570
f 306 570 296
f 296 295 306
f 570 306 310
f 310 571 570
f 416 570 571
f 571 417 416
f 572 498 497
f 497 557 572
f 524 572 557
f 557 525 524
f 572 524 528
f 528 573 572
f 498 572 573
f 573 499 498
f 574 558 497
f 497 496 574
f 552 574 496
f 496 349 552
f 574 552 551
f 551 567 574
f 558 574 567
f 567 559 558
f 575 453 108
f 108 106 575
f 461 575 106
f 106 105 461
f 575 461 313
f 313 312 575
f 453 575 312
f 312 319 453
f 576 459 114
f 114 112 576
f 480 576 112
f 112 111 480
f 576 480 328
f 328 577 576
f 459 576 577
f 577 268 459
f 578 553 355
f 355 579 578
f 536 578 579
f 579 358 536
f 578 536 535
f 535 580 578
f 553 578 580
f 580 554 553
f 581 582 409
f 409 583 581
f 584 581 583
f 583 401 584
f 581 584 509
f 509 585 581
f 582 581 585
f 585 504 582
f 586 402 401
f 401 583 586
f 407 586 583
f 583 409 407
f 586 407 406
f 406 587 586
f 402 586 587
f 587 403 402
f 588 354 353
f 353 589 588
f 359 588 589
f 589 361 359
f 588 359 358
f 358 579 588
f 354 588 579
f 579 355 354
f 590 591 554
f 554 580 590
f 592 590 580
f 580 535 592
f 590 592 271
f 271 593 590
f 591 590 593
f 593 326 591
f 493 144 143
f 143 594 493
f 205 493 594
f 594 206 205
f 246 162 260
f 260 463 246
f 207 246 463
f 463 262 207
f 595 464 260
f 260 259 595
f 596 595 259
f 259 251 596
f 595 596 316
f 316 314 595
f 464 595 314
f 314 313 464
f 221 211 263
f 263 473 221
f 222 221 473
f 473 446 222
f 597 300 299
f 299 598 597
f 573 597 598
f 598 499 573
f 597 573 528
f 528 599 597
f 300 597 599
f 599 301 300
f 600 502 503
f 503 563 600
f 408 600 563
f 563 410 408
f 600 408 409
f 409 582 600
f 502 600 582
f 582 504 502
f 601 508 509
f 509 584 601
f 400 601 584
f 584 401 400
f 601 400 395
f 395 602 601
f 508 601 602
f 602 510 508
f 603 513 510
f 510 602 603
f 393 603 602
f 602 395 393
f 603 393 394
f 394 604 603
f 513 603 604
f 604 514 513
f 605 517 514
f 514 604 605
f 419 605 604
f 604 394 419
f 605 419 423
f 423 606 605
f 517 605 606
f 606 518 517
f 607 521 518
f 518 606 607
f 425 607 606
f 606 423 425
f 607 425 331
f 331 330 607
f 521 607 330
f 330 337 521
f 608 564 503
f 503 501 608
f 495 608 501
f 501 352 495
f 608 495 499
f 499 598 608
f 564 608 598
f 598 299 564
f 609 585 509
f 509 507 609
f 589 609 507
f 507 361 589
f 609 589 353
f 353 505 609
f 585 609 505
f 505 504 585
f 610 304 301
f 301 599 610
f 527 610 599
f 599 528 527
f 610 527 256
f 256 258 610
f 304 610 258
f 258 249 304
f 308 383 611
f 611 612 308
f 383 382 613
f 613 611 383
f 488 614 615
f 615 616 488
f 614 617 618
f 618 615 614
f 385 384 619
f 619 620 385
f 384 386 621
f 621 619 384
f 388 487 622
f 622 623 388
f 487 385 620
f 620 622 487
f 382 387 624
f 624 613 382
f 387 388 623
f 623 624 387
f 391 390 625
f 625 626 391
f 390 397 627
f 627 625 390
f 397 399 628
f 628 627 397
f 399 403 629
f 629 628 399
f 406 405 630
f 630 631 406
f 405 412 632
f 632 630 405
f 417 571 633
f 633 634 417
f 571 310 635
f 635 633 571
f 310 309 636
f 636 635 310
f 309 308 612
f 612 636 309
f 421 420 637
f 637 638 421
f 420 391 626
f 626 637 420
f 427 426 639
f 639 640 427
f 426 421 638
f 638 639 426
f 386 489 641
f 641 621 386
f 489 488 616
f 616 641 489
f 412 414 642
f 642 632 412
f 414 417 634
f 634 642 414
f 403 587 643
f 643 629 403
f 587 406 631
f 631 643 587
f 140 137 47
f 47 644 140
f 45 44 47
f 47 137 45
f 242 243 645
f 645 646 242
f 235 242 646
f 646 236 235
f 241 234 450
f 450 469 241
f 244 241 469
f 469 468 244
f 175 179 617
f 617 614 175
f 165 175 614
f 614 488 165
f 647 648 343
f 343 341 647
f 381 647 341
f 341 340 381
f 647 381 380
f 380 649 647
f 648 647 649
f 649 650 648
f 651 652 485
f 485 484 651
f 291 651 484
f 484 292 291
f 651 291 290
f 290 653 651
f 652 651 653
f 653 654 652
f 655 656 650
f 650 649 655
f 522 655 649
f 649 380 522
f 655 522 337
f 337 336 655
f 656 655 336
f 336 335 656
f 431 430 657
f 657 658 431
f 430 427 640
f 640 657 430
f 659 660 661
f 661 662 659
f 660 663 664
f 664 661 660
f 663 665 666
f 666 664 663
f 665 667 668
f 668 666 665
f 669 670 671
f 671 672 669
f 670 673 674
f 674 671 670
f 673 675 676
f 676 674 673
f 675 677 678
f 678 676 675
f 679 680 681
f 681 682 679
f 680 683 684
f 684 681 680
f 683 685 686
f 686 684 683
f 29 30 686
f 686 685 29
f 687 688 689
f 689 690 687
f 688 691 692
f 692 689 688
f 693 694 689
f 689 692 693
f 691 695 696
f 696 692 691
f 679 697 696
f 696 698 679
f 699 700 698
f 698 701 699
f 699 702 703
f 703 700 699
f 683 680 700
f 700 703 683
f 702 704 705
f 705 703 702
f 685 705 644
f 644 29 685
f 706 707 694
f 694 693 706
f 707 678 677
f 677 694 707
f 708 709 710
f 710 711 708
f 54 55 710
f 710 709 54
f 712 709 708
f 708 713 712
f 709 712 56
f 56 54 709
f 659 662 714
f 714 715 659
f 716 715 714
f 714 717 716
f 718 712 713
f 713 719 718
f 720 718 719
f 719 721 720
f 718 720 66
f 66 65 718
f 712 718 65
f 65 56 712
f 693 697 722
f 722 706 693
f 679 682 722
f 722 697 679
f 723 724 669
f 669 672 723
f 723 725 726
f 726 724 723
f 727 728 729
f 729 730 727
f 727 731 732
f 732 728 727
f 670 728 732
f 732 673 670
f 698 696 695
f 695 701 698
f 733 734 735
f 735 736 733
f 724 735 729
f 729 669 724
f 721 719 737
f 737 738 721
f 659 739 740
f 740 741 659
f 742 743 744
f 744 741 742
f 660 744 745
f 745 663 660
f 663 745 746
f 746 665 663
f 713 708 747
f 747 748 713
f 711 749 747
f 747 708 711
f 750 745 744
f 744 743 750
f 731 751 752
f 752 753 731
f 687 753 752
f 752 754 687
f 755 756 734
f 734 733 755
f 757 750 758
f 758 759 757
f 760 761 762
f 762 763 760
f 729 735 734
f 734 730 729
f 764 746 757
f 757 765 764
f 745 750 757
f 757 746 745
f 747 749 766
f 766 767 747
f 766 768 767
f 769 770 740
f 740 738 769
f 742 741 740
f 740 770 742
f 771 753 687
f 687 690 771
f 771 732 731
f 731 753 771
f 711 710 772
f 772 749 711
f 55 134 772
f 772 710 55
f 765 757 759
f 759 773 765
f 774 775 727
f 727 730 774
f 775 751 731
f 731 727 775
f 754 776 688
f 688 687 754
f 691 688 776
f 776 777 691
f 766 749 772
f 772 778 766
f 778 772 134
f 134 133 778
f 760 767 768
f 768 761 760
f 779 780 770
f 770 769 779
f 780 781 742
f 742 770 780
f 781 782 743
f 743 742 781
f 758 750 743
f 743 782 758
f 783 784 699
f 699 701 783
f 784 785 702
f 702 699 784
f 785 786 704
f 704 702 785
f 139 140 704
f 704 786 139
f 787 788 789
f 789 790 787
f 791 787 790
f 790 792 791
f 793 794 787
f 787 791 793
f 794 795 788
f 788 787 794
f 796 797 798
f 798 799 796
f 799 800 801
f 801 796 799
f 796 801 802
f 802 803 796
f 797 796 803
f 803 804 797
f 805 799 798
f 798 806 805
f 807 805 806
f 806 808 807
f 809 810 805
f 805 807 809
f 810 800 799
f 799 805 810
f 811 812 813
f 813 814 811
f 815 811 814
f 814 816 815
f 811 815 817
f 817 818 811
f 818 819 812
f 812 811 818
f 813 820 821
f 821 814 813
f 820 179 178
f 178 821 820
f 821 178 177
f 177 822 821
f 814 821 822
f 822 816 814
f 823 824 825
f 825 826 823
f 824 827 828
f 828 825 824
f 825 828 829
f 829 830 825
f 826 825 830
f 830 831 826
f 827 832 833
f 833 828 827
f 832 834 835
f 835 833 832
f 833 835 836
f 836 837 833
f 828 833 837
f 837 829 828
f 834 838 839
f 839 835 834
f 838 819 818
f 818 839 838
f 839 818 817
f 817 840 839
f 835 839 840
f 840 836 835
f 841 842 843
f 843 844 841
f 845 841 844
f 844 846 845
f 847 848 841
f 841 845 847
f 848 849 842
f 842 841 848
f 850 851 852
f 852 853 850
f 854 850 853
f 853 855 854
f 850 854 856
f 856 857 850
f 857 858 851
f 851 850 857
f 802 859 860
f 860 803 802
f 859 793 791
f 791 860 859
f 860 791 792
f 792 861 860
f 803 860 861
f 861 804 803
f 862 857 856
f 856 863 862
f 864 862 863
f 863 865 864
f 866 867 862
f 862 864 866
f 867 858 857
f 857 862 867
f 868 864 865
f 865 869 868
f 870 868 869
f 869 871 870
f 872 873 868
f 868 870 872
f 873 866 864
f 864 868 873
f 874 870 871
f 871 875 874
f 876 874 875
f 875 877 876
f 878 879 874
f 874 876 878
f 879 872 870
f 870 874 879
f 880 881 882
f 882 883 880
f 881 842 849
f 849 882 881
f 884 885 878
f 878 876 884
f 243 244 885
f 885 884 243
f 852 886 887
f 887 853 852
f 887 886 809
f 809 807 887
f 848 888 889
f 889 849 848
f 888 848 847
f 847 890 888
f 891 892 893
f 893 894 891
f 895 891 894
f 894 896 895
f 891 895 897
f 897 898 891
f 892 891 898
f 898 899 892
f 801 800 893
f 893 892 801
f 802 801 892
f 892 899 802
f 859 802 899
f 899 900 859
f 793 859 900
f 900 901 793
f 794 793 901
f 901 902 794
f 795 794 902
f 902 903 795
f 904 795 903
f 903 905 904
f 847 904 905
f 905 890 847
f 906 904 847
f 847 845 906
f 810 809 907
f 907 908 810
f 800 810 908
f 908 893 800
f 851 858 909
f 909 910 851
f 852 851 910
f 910 911 852
f 883 912 913
f 913 880 883
f 823 826 913
f 913 912 823
f 914 915 916
f 916 917 914
f 918 914 917
f 917 919 918
f 914 918 920
f 920 921 914
f 915 914 921
f 921 922 915
f 923 918 919
f 919 924 923
f 925 923 924
f 924 926 925
f 923 925 927
f 927 928 923
f 918 923 928
f 928 920 918
f 929 925 926
f 926 930 929
f 931 929 930
f 930 932 931
f 929 931 933
f 933 934 929
f 925 929 934
f 934 927 925
f 935 931 932
f 932 936 935
f 937 935 936
f 936 938 937
f 935 937 939
f 939 940 935
f 931 935 940
f 940 933 931
f 941 942 943
f 943 944 941
f 945 941 944
f 944 946 945
f 941 945 947
f 947 948 941
f 942 941 948
f 948 949 942
f 950 944 943
f 943 951 950
f 888 950 951
f 951 889 888
f 950 888 890
f 890 952 950
f 944 950 952
f 952 946 944
f 953 951 943
f 943 954 953
f 955 953 954
f 954 956 955
f 953 955 957
f 957 958 953
f 951 953 958
f 958 889 951
f 959 960 961
f 961 962 959
f 963 959 962
f 962 964 963
f 959 963 965
f 965 966 959
f 960 959 966
f 966 896 960
f 967 968 969
f 969 970 967
f 971 967 970
f 970 972 971
f 967 971 973
f 973 974 967
f 968 967 974
f 974 975 968
f 976 977 978
f 978 979 976
f 980 976 979
f 979 981 980
f 976 980 335
f 335 333 976
f 977 976 333
f 333 334 977
f 982 983 984
f 984 985 982
f 986 982 985
f 985 987 986
f 982 986 344
f 344 342 982
f 983 982 342
f 342 343 983
f 988 989 990
f 990 991 988
f 992 988 991
f 991 993 992
f 988 992 994
f 994 995 988
f 989 988 995
f 995 996 989
f 997 998 999
f 999 1000 997
f 1001 997 1000
f 1000 1002 1001
f 997 1001 1003
f 1003 1004 997
f 998 997 1004
f 1004 1005 998
f 1006 1001 1002
f 1002 1007 1006
f 1008 1006 1007
f 1007 1009 1008
f 1006 1008 1010
f 1010 1011 1006
f 1001 1006 1011
f 1011 1003 1001
f 1012 1008 1009
f 1009 1013 1012
f 1014 1012 1013
f 1013 1015 1014
f 1012 1014 1016
f 1016 1017 1012
f 1008 1012 1017
f 1017 1010 1008
f 1018 1014 1015
f 1015 1019 1018
f 1020 1018 1019
f 1019 984 1020
f 1018 1020 1021
f 1021 1022 1018
f 1014 1018 1022
f 1022 1016 1014
f 882 849 889
f 889 958 882
f 883 882 958
f 958 957 883
f 1023 912 883
f 883 957 1023
f 912 1023 1024
f 1024 823 912
f 838 834 1025
f 1025 1026 838
f 819 838 1026
f 1026 1027 819
f 824 823 1024
f 1024 1028 824
f 827 824 1028
f 1028 1029 827
f 1030 1031 1032
f 1032 1033 1030
f 1034 1030 1033
f 1033 1035 1034
f 1030 1034 1036
f 1036 1037 1030
f 1031 1030 1037
f 1037 1038 1031
f 1039 1034 1035
f 1035 1040 1039
f 1041 1039 1040
f 1040 1042 1041
f 1039 1041 1043
f 1043 1044 1039
f 1034 1039 1044
f 1044 1036 1034
f 1045 1046 1047
f 1047 1048 1045
f 1049 1045 1048
f 1048 1050 1049
f 1045 1049 1051
f 1051 1052 1045
f 1046 1045 1052
f 1052 1053 1046
f 1054 1049 1050
f 1050 1055 1054
f 1056 1054 1055
f 1055 1057 1056
f 1054 1056 949
f 949 1058 1054
f 1049 1054 1058
f 1058 1051 1049
f 1059 1031 1038
f 1038 1060 1059
f 1061 1059 1060
f 1060 1062 1061
f 1059 1061 1063
f 1063 1064 1059
f 1031 1059 1064
f 1064 1032 1031
f 1065 1061 1062
f 1062 1066 1065
f 1067 1065 1066
f 1066 978 1067
f 1065 1067 1068
f 1068 1069 1065
f 1061 1065 1069
f 1069 1063 1061
f 1070 1067 978
f 978 977 1070
f 432 1070 977
f 977 334 432
f 1070 432 431
f 431 1071 1070
f 1067 1070 1071
f 1071 1068 1067
f 777 1072 695
f 695 691 777
f 1072 783 701
f 701 695 1072
f 673 732 771
f 771 675 673
f 1073 1074 716
f 716 1075 1073
f 436 1073 1075
f 1075 437 436
f 1073 436 66
f 66 720 1073
f 1074 1073 720
f 720 721 1074
f 1076 739 659
f 659 715 1076
f 1074 1076 715
f 715 716 1074
f 1076 1074 721
f 721 739 1076
f 716 717 1077
f 1077 1075 716
f 1075 1077 440
f 440 437 1075
f 667 1078 1079
f 1079 668 667
f 726 725 1079
f 1079 1078 726
f 1080 1081 755
f 755 733 1080
f 765 773 1081
f 1081 1080 765
f 736 726 1078
f 1078 1082 736
f 765 1080 1082
f 1082 764 765
f 733 736 1082
f 1082 1080 733
f 730 734 756
f 756 774 730
f 769 763 762
f 762 779 769
f 760 763 737
f 737 748 760
f 763 769 738
f 738 737 763
f 767 760 748
f 748 747 767
f 873 1083 1084
f 1084 866 873
f 1083 873 872
f 872 1085 1083
f 879 1086 1085
f 1085 872 879
f 1086 879 878
f 878 1087 1086
f 1088 756 755
f 755 1089 1088
f 1090 1088 1089
f 1089 969 1090
f 1088 1090 964
f 964 1091 1088
f 756 1088 1091
f 1091 774 756
f 1092 780 779
f 779 1093 1092
f 924 1092 1093
f 1093 926 924
f 1092 924 919
f 919 1094 1092
f 780 1092 1094
f 1094 781 780
f 1095 782 781
f 781 1094 1095
f 917 1095 1094
f 1094 919 917
f 1095 917 916
f 916 1096 1095
f 782 1095 1096
f 1096 758 782
f 1097 1098 751
f 751 1099 1097
f 1100 1097 1099
f 1099 961 1100
f 1097 1100 907
f 907 1101 1097
f 1098 1097 1101
f 1101 911 1098
f 1102 786 785
f 785 1103 1102
f 1104 1102 1103
f 1103 1087 1104
f 1102 1104 468
f 468 467 1102
f 786 1102 467
f 467 139 786
f 1105 776 754
f 754 1106 1105
f 1107 1105 1106
f 1106 909 1107
f 1105 1107 1084
f 1084 1108 1105
f 776 1105 1108
f 1108 777 776
f 1109 1072 777
f 777 1108 1109
f 1083 1109 1108
f 1108 1084 1083
f 1109 1083 1085
f 1085 1110 1109
f 1072 1109 1110
f 1110 783 1072
f 1111 784 783
f 783 1110 1111
f 1086 1111 1110
f 1110 1085 1086
f 1111 1086 1087
f 1087 1103 1111
f 784 1111 1103
f 1103 785 784
f 1112 762 761
f 761 1113 1112
f 930 1112 1113
f 1113 932 930
f 1112 930 926
f 926 1093 1112
f 762 1112 1093
f 1093 779 762
f 1114 1081 773
f 773 1115 1114
f 970 1114 1115
f 1115 972 970
f 1114 970 969
f 969 1089 1114
f 1081 1114 1089
f 1089 755 1081
f 1116 768 766
f 766 1117 1116
f 936 1116 1117
f 1117 938 936
f 1116 936 932
f 932 1113 1116
f 768 1116 1113
f 1113 761 768
f 1118 1117 766
f 766 778 1118
f 486 1118 778
f 778 133 486
f 1118 486 485
f 485 1119 1118
f 1117 1118 1119
f 1119 938 1117
f 832 1120 1025
f 1025 834 832
f 1120 832 827
f 827 1029 1120
f 812 1121 1122
f 1122 813 812
f 1121 812 819
f 819 1027 1121
f 1123 913 826
f 826 831 1123
f 913 1123 1124
f 1124 880 913
f 1125 881 880
f 880 1124 1125
f 881 1125 843
f 843 842 881
f 795 904 906
f 906 788 795
f 1126 989 996
f 996 1127 1126
f 1128 1126 1127
f 1127 1129 1128
f 1126 1128 1130
f 1130 1131 1126
f 989 1126 1131
f 1131 990 989
f 1132 1133 996
f 996 995 1132
f 1134 1132 995
f 995 994 1134
f 1132 1134 1135
f 1135 1136 1132
f 1133 1132 1136
f 1136 1137 1133
f 1138 1139 1005
f 1005 1004 1138
f 1140 1138 1004
f 1004 1003 1140
f 1138 1140 1141
f 1141 1142 1138
f 1139 1138 1142
f 1142 1143 1139
f 1144 1140 1003
f 1003 1011 1144
f 1145 1144 1011
f 1011 1010 1145
f 1144 1145 1146
f 1146 1147 1144
f 1140 1144 1147
f 1147 1141 1140
f 1148 1145 1010
f 1010 1017 1148
f 1149 1148 1017
f 1017 1016 1149
f 1148 1149 1150
f 1150 1151 1148
f 1145 1148 1151
f 1151 1146 1145
f 1152 1149 1016
f 1016 1022 1152
f 1153 1152 1022
f 1022 1021 1153
f 1152 1153 981
f 981 1154 1152
f 1149 1152 1154
f 1154 1150 1149
f 1155 1156 1157
f 1157 1158 1155
f 1159 1155 1158
f 1158 1160 1159
f 1155 1159 903
f 903 902 1155
f 1156 1155 902
f 902 901 1156
f 1161 900 899
f 899 898 1161
f 1162 1161 898
f 898 897 1162
f 1161 1162 1157
f 1157 1156 1161
f 900 1161 1156
f 1156 901 900
f 1163 1164 1165
f 1165 1166 1163
f 1167 1163 1166
f 1166 1168 1167
f 1163 1167 1002
f 1002 1000 1163
f 1164 1163 1000
f 1000 999 1164
f 1169 1167 1168
f 1168 1170 1169
f 1171 1169 1170
f 1170 1172 1171
f 1169 1171 1009
f 1009 1007 1169
f 1167 1169 1007
f 1007 1002 1167
f 1173 1171 1172
f 1172 1174 1173
f 1175 1173 1174
f 1174 1176 1175
f 1173 1175 1015
f 1015 1013 1173
f 1171 1173 1013
f 1013 1009 1171
f 1177 1175 1176
f 1176 1178 1177
f 985 1177 1178
f 1178 987 985
f 1177 985 984
f 984 1019 1177
f 1175 1177 1019
f 1019 1015 1175
f 1179 1180 1181
f 1181 1182 1179
f 1183 1179 1182
f 1182 1184 1183
f 1179 1183 993
f 993 991 1179
f 1180 1179 991
f 991 990 1180
f 1185 1162 897
f 897 1186 1185
f 1187 1185 1186
f 1186 1188 1187
f 1185 1187 1130
f 1130 1189 1185
f 1162 1185 1189
f 1189 1157 1162
f 1190 887 807
f 807 808 1190
f 887 1190 855
f 855 853 887
f 1191 752 751
f 751 1098 1191
f 910 1191 1098
f 1098 911 910
f 1191 910 909
f 909 1106 1191
f 752 1191 1106
f 1106 754 752
f 1192 1058 949
f 949 948 1192
f 1193 1192 948
f 948 947 1193
f 1192 1193 1137
f 1137 1194 1192
f 1058 1192 1194
f 1194 1051 1058
f 1195 1196 1188
f 1188 1197 1195
f 1198 1195 1197
f 1197 965 1198
f 1195 1198 975
f 975 1199 1195
f 1196 1195 1199
f 1199 1181 1196
f 1200 942 949
f 949 1056 1200
f 1201 1200 1056
f 1056 1057 1201
f 1200 1201 956
f 956 954 1200
f 942 1200 954
f 954 943 942
f 1202 1189 1130
f 1130 1128 1202
f 1203 1202 1128
f 1128 1129 1203
f 1202 1203 1160
f 1160 1158 1202
f 1189 1202 1158
f 1158 1157 1189
f 1204 1131 1130
f 1130 1187 1204
f 1196 1204 1187
f 1187 1188 1196
f 1204 1196 1181
f 1181 1180 1204
f 1131 1204 1180
f 1180 990 1131
f 1205 775 774
f 774 1091 1205
f 962 1205 1091
f 1091 964 962
f 1205 962 961
f 961 1099 1205
f 775 1205 1099
f 1099 751 775
f 1206 759 758
f 758 1096 1206
f 1207 1206 1096
f 1096 916 1207
f 1206 1207 972
f 972 1115 1206
f 759 1206 1115
f 1115 773 759
f 1208 1209 993
f 993 1183 1208
f 1210 1208 1183
f 1183 1184 1210
f 1208 1210 1165
f 1165 1164 1208
f 1209 1208 1164
f 1164 999 1209
f 1211 1212 1053
f 1053 1213 1211
f 1214 1211 1213
f 1213 1135 1214
f 1211 1214 1143
f 1143 1215 1211
f 1212 1211 1215
f 1215 1043 1212
f 1216 1212 1043
f 1043 1041 1216
f 1217 1216 1041
f 1041 1042 1217
f 1216 1217 1047
f 1047 1046 1216
f 1212 1216 1046
f 1046 1053 1212
f 1218 1219 994
f 994 992 1218
f 1209 1218 992
f 992 993 1209
f 1218 1209 999
f 999 998 1218
f 1219 1218 998
f 998 1005 1219
f 1220 1210 1184
f 1184 1221 1220
f 1222 1220 1221
f 1221 973 1222
f 1220 1222 922
f 922 1223 1220
f 1210 1220 1223
f 1223 1165 1210
f 906 1224 789
f 789 788 906
f 1224 906 845
f 845 846 1224
f 886 1101 907
f 907 809 886
f 1101 886 852
f 852 911 1101
f 1225 908 907
f 907 1100 1225
f 960 1225 1100
f 1100 961 960
f 1225 960 896
f 896 894 1225
f 908 1225 894
f 894 893 908
f 867 1107 909
f 909 858 867
f 1107 867 866
f 866 1084 1107
f 1226 1227 947
f 947 945 1226
f 1228 1226 945
f 945 946 1228
f 1226 1228 1160
f 1160 1203 1226
f 1227 1226 1203
f 1203 1129 1227
f 1229 1194 1137
f 1137 1136 1229
f 1213 1229 1136
f 1136 1135 1213
f 1229 1213 1053
f 1053 1052 1229
f 1194 1229 1052
f 1052 1051 1194
f 1230 1215 1143
f 1143 1142 1230
f 1231 1230 1142
f 1142 1141 1231
f 1230 1231 1036
f 1036 1044 1230
f 1215 1230 1044
f 1044 1043 1215
f 1232 1231 1141
f 1141 1147 1232
f 1233 1232 1147
f 1147 1146 1233
f 1232 1233 1038
f 1038 1037 1232
f 1231 1232 1037
f 1037 1036 1231
f 1234 1233 1146
f 1146 1151 1234
f 1235 1234 1151
f 1151 1150 1235
f 1234 1235 1062
f 1062 1060 1234
f 1233 1234 1060
f 1060 1038 1233
f 1236 1235 1150
f 1150 1154 1236
f 979 1236 1154
f 1154 981 979
f 1236 979 978
f 978 1066 1236
f 1235 1236 1066
f 1066 1062 1235
f 1237 1133 1137
f 1137 1193 1237
f 1227 1237 1193
f 1193 947 1227
f 1237 1227 1129
f 1129 1127 1237
f 1133 1237 1127
f 1127 996 1133
f 1238 1139 1143
f 1143 1214 1238
f 1134 1238 1214
f 1214 1135 1134
f 1238 1134 994
f 994 1219 1238
f 1139 1238 1219
f 1219 1005 1139
f 1239 1228 946
f 946 952 1239
f 905 1239 952
f 952 890 905
f 1239 905 903
f 903 1159 1239
f 1228 1239 1159
f 1159 1160 1228
f 957 1240 1241
f 1241 1023 957
f 1024 1023 1241
f 1241 1242 1024
f 1122 1243 1244
f 1244 1245 1122
f 618 617 1245
f 1245 1244 618
f 1025 1246 1247
f 1247 1026 1025
f 1027 1026 1247
f 1247 1248 1027
f 1029 1249 1250
f 1250 1120 1029
f 1246 1025 1120
f 1120 1250 1246
f 1024 1242 1251
f 1251 1028 1024
f 1249 1029 1028
f 1028 1251 1249
f 1032 1252 1253
f 1253 1033 1032
f 1035 1033 1253
f 1253 1254 1035
f 1035 1254 1255
f 1255 1040 1035
f 1042 1040 1255
f 1255 1256 1042
f 1047 1257 1258
f 1258 1048 1047
f 1050 1048 1258
f 1258 1259 1050
f 1057 1260 1261
f 1261 1201 1057
f 956 1201 1261
f 1261 1262 956
f 956 1262 1263
f 1263 955 956
f 1240 957 955
f 955 1263 1240
f 1063 1264 1265
f 1265 1064 1063
f 1252 1032 1064
f 1064 1265 1252
f 1068 1266 1267
f 1267 1069 1068
f 1264 1063 1069
f 1069 1267 1264
f 1027 1248 1268
f 1268 1121 1027
f 1243 1122 1121
f 1121 1268 1243
f 1050 1259 1269
f 1269 1055 1050
f 1260 1057 1055
f 1055 1269 1260
f 1042 1256 1270
f 1270 1217 1042
f 1257 1047 1217
f 1217 1270 1257
f 140 644 705
f 705 704 140
f 884 1271 645
f 645 243 884
f 1271 884 876
f 876 877 1271
f 1104 885 244
f 244 468 1104
f 885 1104 1087
f 1087 878 885
f 820 1245 617
f 617 179 820
f 1245 820 813
f 813 1122 1245
f 1272 983 343
f 343 648 1272
f 1273 1272 648
f 648 650 1273
f 1272 1273 1021
f 1021 1020 1272
f 983 1272 1020
f 1020 984 983
f 1274 1119 485
f 485 652 1274
f 1275 1274 652
f 652 654 1275
f 1274 1275 939
f 939 937 1274
f 1119 1274 937
f 937 938 1119
f 1276 1273 650
f 650 656 1276
f 980 1276 656
f 656 335 980
f 1276 980 981
f 981 1153 1276
f 1273 1276 1153
f 1153 1021 1273
f 431 658 1277
f 1277 1071 431
f 1266 1068 1071
f 1071 1277 1266
f 34 33 32
f 32 39 34
f 41 37 40
f 40 23 41
f 44 43 22
f 22 25 44
f 644 47 28
f 28 29 644
f 76 74 12
f 12 15 76
f 13 75 79
f 79 70 13
f 86 85 64
f 64 68 86
f 91 90 89
f 89 3 91
f 96 94 2
f 2 5 96
f 55 50 129
f 129 134 55
f 73 82 445
f 445 441 73
f 677 690 689
f 689 694 677
f 693 692 696
f 696 697 693
f 679 698 700
f 700 680 679
f 683 703 705
f 705 685 683
f 729 728 670
f 670 669 729
f 736 735 724
f 724 726 736
f 748 737 719
f 719 713 748
f 721 738 740
f 740 739 721
f 659 741 744
f 744 660 659
f 667 665 746
f 746 764 667
f 677 675 771
f 771 690 677
f 667 764 1082
f 1082 1078 667
f 1278 270 271
f 271 592 1278
f 534 1278 592
f 592 535 534
f 1278 534 538
f 538 1279 1278
f 270 1278 1279
f 1279 272 270
f 1280 277 272
f 272 1279 1280
f 540 1280 1279
f 1279 538 540
f 1280 540 542
f 542 1281 1280
f 277 1280 1281
f 1281 278 277
f 1282 283 278
f 278 1281 1282
f 544 1282 1281
f 1281 542 544
f 1282 544 546
f 546 1283 1282
f 283 1282 1283
f 1283 284 283
f 1284 289 284
f 284 1283 1284
f 548 1284 1283
f 1283 546 548
f 1284 548 346
f 346 1285 1284
f 289 1284 1285
f 1285 290 289
f 1286 315 316
f 316 1287 1286
f 556 1286 1287
f 1287 532 556
f 1286 556 559
f 559 566 1286
f 315 1286 566
f 566 317 315
f 1288 324 325
f 325 568 1288
f 550 1288 568
f 568 551 550
f 1288 550 554
f 554 591 1288
f 324 1288 591
f 591 326 324
f 1289 569 325
f 325 323 1289
f 454 1289 323
f 323 322 454
f 1289 454 319
f 319 318 1289
f 569 1289 318
f 318 317 569
f 1290 593 271
f 271 269 1290
f 577 1290 269
f 269 268 577
f 1290 577 328
f 328 327 1290
f 593 1290 327
f 327 326 593
f 1291 653 290
f 290 1285 1291
f 345 1291 1285
f 1285 346 345
f 1291 345 344
f 344 1292 1291
f 653 1291 1292
f 1292 654 653
f 1293 921 920
f 920 1294 1293
f 1166 1293 1294
f 1294 1168 1166
f 1293 1166 1165
f 1165 1223 1293
f 921 1293 1223
f 1223 922 921
f 1295 928 927
f 927 1296 1295
f 1170 1295 1296
f 1296 1172 1170
f 1295 1170 1168
f 1168 1294 1295
f 928 1295 1294
f 1294 920 928
f 1297 934 933
f 933 1298 1297
f 1174 1297 1298
f 1298 1176 1174
f 1297 1174 1172
f 1172 1296 1297
f 934 1297 1296
f 1296 927 934
f 1299 940 939
f 939 1300 1299
f 1178 1299 1300
f 1300 987 1178
f 1299 1178 1176
f 1176 1298 1299
f 940 1299 1298
f 1298 933 940
f 1301 966 965
f 965 1197 1301
f 1186 1301 1197
f 1197 1188 1186
f 1301 1186 897
f 897 895 1301
f 966 1301 895
f 895 896 966
f 1302 974 973
f 973 1221 1302
f 1182 1302 1221
f 1221 1184 1182
f 1302 1182 1181
f 1181 1199 1302
f 974 1302 1199
f 1199 975 974
f 1303 1198 965
f 965 963 1303
f 1090 1303 963
f 963 964 1090
f 1303 1090 969
f 969 968 1303
f 1198 1303 968
f 968 975 1198
f 1304 1222 973
f 973 971 1304
f 1207 1304 971
f 971 972 1207
f 1304 1207 916
f 916 915 1304
f 1222 1304 915
f 915 922 1222
f 1305 1275 654
f 654 1292 1305
f 986 1305 1292
f 1292 344 986
f 1305 986 987
f 987 1300 1305
f 1275 1305 1300
f 1300 939 1275
f 1306 596 251
f 251 250 1306
f 530 1306 250
f 250 252 530
f 1306 530 532
f 532 1287 1306
f 596 1306 1287
f 1287 316 596
f 1324 1325 1329
f 1329 1330 1353
f 1353 1349 1348
f 1329 1353 1348
f 1348 1333 1332
f 1332 1334 1335
f 1348 1332 1335
f 1335 1336 1354
f 1354 1352 1351
f 1335 1354 1351
f 1348 1335 1351
f 1351 1338 1337
f 1337 1339 1340
f 1351 1337 1340
f 1340 1341 1347
f 1347 1346 1350
f 1340 1347 1350
f 1351 1340 1350
f 1350 1343 1342
f 1342 1344 1345
f 1350 1342 1345
f 1345 1321 1320
f 1320 1319 1317
f 1345 1320 1317
f 1350 1345 1317
f 1351 1350 1317
f 1317 1318 1326
f 1326 1323 1322
f 1317 1326 1322
f 1322 1316 1315
f 1315 1314 1312
f 1322 1315 1312
f 1317 1322 1312
f 1312 1313 1327
f 1327 1328 1331
f 1312 1327 1331
f 1331 1311 1310
f 1310 1309 1307
f 1331 1310 1307
f 1312 1331 1307
f 1317 1312 1307
f 1351 1317 1307
f 1348 1351 1307
f 1329 1348 1307
f 1324 1329 1307
f 1308 1324 1307
f 1362 1390 1379
f 1399 1396 1394
f 1360 1359 1358
f 1357 1380 1360
f 1379 1378 1377
f 1360 1358 1362
f 1358 1361 1362
f 1382 1383 1384
f 1412 1426 1408
f 1426 1425 1408
f 1412 1427 1426
f 1394 1414 1412
f 1414 1413 1412
f 1394 1429 1414
f 1422 1401 1394
f 1401 1399 1394
f 1403 1372 1375
f 1396 1395 1394
f 1399 1418 1396
f 1416 1428 1401
f 1417 1415 1416
f 1422 1420 1417
f 1420 1419 1417
f 1422 1421 1420
f 1362 1384 1422
f 1384 1392 1422
f 1392 1424 1422
f 1408 1409 1403
f 1392 1430 1424
f 1384 1386 1392
f 1377 1381 1382
f 1362 1379 1377
f 1386 1393 1392
f 1377 1382 1384
f 1362 1377 1384
f 1384 1385 1386
f 1409 1404 1403
f 1404 1402 1403
f 1408 1407 1406
f 1409 1411 1404
f 1360 1362 1356
f 1362 1375 1356
f 1375 1376 1356
f 1376 1391 1356
f 1375 1374 1376
f 1362 1422 1375
f 1422 1394 1375
f 1394 1412 1408
f 1394 1403 1375
f 1372 1369 1375
f 1369 1387 1375
f 1401 1398 1399
f 1398 1397 1399
f 1401 1400 1398
f 1422 1417 1401
f 1417 1416 1401
f 1403 1365 1372
f 1365 1363 1372
f 1363 1373 1372
f 1365 1364 1363
f 1403 1367 1365
f 1367 1366 1365
f 1403 1405 1367
f 1394 1408 1403
f 1372 1371 1370
f 1357 1360 1356
f 1424 1423 1422
f 1355 1357 1356
f 1387 1389 1375
f 1370 1368 1369
f 1372 1370 1369
f 1369 1388 1387
f 1406 1410 1409
f 1408 1406 1409
f 1474 1466 1465
f 1490 1462 1455
f 1470 1474 1486
f 1474 1465 1486
f 1465 1464 1486
f 1462 1457 1455
f 1490 1489 1494
f 1451 1453 1454
f 1448 1460 1451
f 1460 1452 1451
f 1448 1450 1460
f 1455 1446 1448
f 1446 1461 1448
f 1494 1463 1462
f 1454 1432 1431
f 1451 1454 1431
f 1493 1490 1455
f 1455 1444 1443
f 1443 1445 1446
f 1455 1443 1446
f 1446 1447 1461
f 1461 1449 1448
f 1434 1436 1468
f 1493 1476 1490
f 1476 1488 1490
f 1488 1487 1490
f 1457 1456 1455
f 1459 1435 1434
f 1440 1437 1459
f 1492 1482 1481
f 1470 1473 1474
f 1473 1472 1474
f 1470 1469 1473
f 1459 1468 1470
f 1468 1491 1470
f 1459 1434 1468
f 1491 1471 1470
f 1468 1467 1491
f 1486 1485 1484
f 1486 1484 1492
f 1484 1483 1492
f 1481 1480 1493
f 1493 1479 1478
f 1492 1481 1493
f 1486 1492 1493
f 1470 1486 1493
f 1476 1475 1488
f 1493 1478 1476
f 1478 1477 1476
f 1442 1441 1440
f 1440 1438 1437
f 1437 1439 1459
f 1490 1494 1462
f 1462 1458 1457
f 1440 1459 1431
f 1442 1440 1431
f 1459 1470 1431
f 1470 1493 1431
f 1493 1455 1431
f 1455 1448 1431
f 1448 1451 1431
f 1433 1442 1431

