# https://github.com/mikedh/trimesh
v -48.24355316 131.77076721 -70.08299255
v -49.28196335 135.89743042 -70.08299255
v -42.38750458 137.05577087 -81.88999176
v -41.49435425 133.51135254 -81.82949829
v -49.95581436 140.09294128 -70.08299255
v -42.96711349 140.65936279 -81.95149231
v -48.94218445 156.97004700 -70.08299255
v -47.77050400 161.06378174 -70.08299255
v -41.08749390 158.67143250 -82.25889587
v -42.09526443 155.15530396 -82.19889832
v -46.24495316 165.04895020 -70.08299255
v -39.77532196 162.09432983 -82.31739807
v -44.37505341 168.89692688 -70.08299255
v -38.16699219 165.39942932 -82.37389374
v -42.17522430 172.58113098 -70.08299255
v -36.27486420 168.56382751 -82.42779541
v -4.28388596 95.50444031 -70.08299255
v -8.00577927 96.16058350 -70.08299255
v -6.88509989 102.92533875 -81.30749512
v -3.68383169 102.36177063 -81.29779816
v -12.30640411 97.17385101 -70.08299255
v -10.58415413 103.79565430 -81.32229614
v 0.00579067 95.16961670 -70.08299255
v -1.82363689 95.21938324 -70.08299255
v -1.56772685 102.11692810 -81.29369354
v 0.00579764 102.07418823 -81.29289246
v -28.17729378 104.54656219 -70.08299255
v -31.67170334 107.15438843 -70.08299255
v -27.24060249 112.36804962 -81.46869659
v -24.23499298 110.12815094 -81.43049622
v -34.92575455 110.03379822 -70.08299255
v -30.03946304 114.84120941 -81.51079559
v -20.56594276 100.21919250 -70.08299255
v -24.46638298 102.22970581 -70.08299255
v -21.04318237 108.13819122 -81.39649200
v -17.68833351 106.41131592 -81.36699677
v -16.50287247 98.53031921 -70.08299255
v -14.19360352 104.96073151 -81.34229279
v -37.91555405 113.16540527 -70.08299255
v -32.61105347 117.53097534 -81.55669403
v -40.62098312 116.52621460 -70.08299255
v -34.93803406 120.41761780 -81.60609436
v -43.02187347 120.09321594 -70.08299255
v -37.00309372 123.48136902 -81.65829468
v -45.10239410 123.84062195 -70.08299255
v -38.79258347 126.70004272 -81.71319580
v -46.84665298 127.74247742 -70.08299255
v -40.29285431 130.05139160 -81.77049255
v -39.65982437 176.07492065 -70.08299255
v -34.11132431 171.56472778 -82.47899628
v -36.84773254 179.35433960 -70.08299255
v -31.69260216 174.38143921 -82.52709198
v -33.75782394 182.39532471 -70.08299255
v -29.03491211 176.99333191 -82.57169342
v -30.41285324 185.17742920 -70.08299255
v -26.15784264 179.38293457 -82.61249542
v -50.19087219 148.57244873 -70.08299255
v -49.75044250 152.79637146 -70.08299255
v -42.79047394 151.57048035 -82.13779449
v -43.16928482 147.94248962 -82.07579803
v -50.25906372 144.32795715 -70.08299255
v -43.22794342 144.29685974 -82.01359558
v -26.83557320 187.67993164 -70.08299255
v -23.08096313 181.53233337 -82.64929199
v -23.05204391 189.88613892 -70.08299255
v -19.82667351 183.42733765 -82.68159485
v -19.08829308 191.77954102 -70.08299255
v -16.41738319 185.05352783 -82.70929718
v -15.01607418 193.34053040 -70.08299255
v -12.91478348 186.39433289 -82.73209381
v -10.90710354 194.54992676 -70.08299255
v -9.38058662 187.43302917 -82.74989319
v -6.96340275 195.39572144 -70.08299255
v -5.98853493 188.15963745 -82.76229858
v -3.38696766 195.86642456 -70.08299255
v -2.91237760 188.56382751 -82.76919556
v 0.00583262 196.00802612 -70.08299255
v 0.00583320 188.68542480 -82.77129364
v 50.20248795 148.57238770 -70.08299255
v 50.27063751 144.32791138 -70.08299255
v 43.23953629 144.29681396 -82.01359558
v 43.18091583 147.94244385 -82.07579803
v 49.96735764 140.09291077 -70.08299255
v 42.97866821 140.65931702 -81.95149231
v 46.25653839 165.04888916 -70.08299255
v 47.78211594 161.06372070 -70.08299255
v 41.09909821 158.67138672 -82.25889587
v 39.78691864 162.09429932 -82.31739807
v 48.95381546 156.97000122 -70.08299255
v 42.10689545 155.15525818 -82.19889832
v 42.18680573 172.58113098 -70.08299255
v 44.38663864 168.89692688 -70.08299255
v 38.17858887 165.39941406 -82.37379456
v 36.28647614 168.56382751 -82.42779541
v 12.31798649 97.17384338 -70.08299255
v 8.01735973 96.16056061 -70.08299255
v 6.89669800 102.92532349 -81.30739594
v 10.59574604 103.79563904 -81.32229614
v 4.29546690 95.50443268 -70.08299255
v 3.69542837 102.36175537 -81.29779816
v 1.83521819 95.21936798 -70.08299255
v 1.57932222 102.11692047 -81.29369354
v 34.93733597 110.03373718 -70.08299255
v 31.68327713 107.15435791 -70.08299255
v 27.25218773 112.36801910 -81.46859741
v 30.05107689 114.84117889 -81.51079559
v 28.18884659 104.54653168 -70.08299255
v 24.24655724 110.12812805 -81.43039703
v 24.47794724 102.22970581 -70.08299255
v 21.05474663 108.13816833 -81.39649200
v 20.57749748 100.21917725 -70.08299255
v 17.69990730 106.41131592 -81.36689758
v 16.51443672 98.53030396 -70.08299255
v 14.20519638 104.96070862 -81.34219360
v 48.25506592 131.77073669 -70.08299255
v 46.85820770 127.74244690 -70.08299255
v 40.30442810 130.05139160 -81.77049255
v 41.50590515 133.51132202 -81.82949829
v 45.11397552 123.84056091 -70.08299255
v 38.80418777 126.70001221 -81.71319580
v 30.42450714 185.17742920 -70.08299255
v 33.76947784 182.39532471 -70.08299255
v 29.04657745 176.99333191 -82.57169342
v 26.16949654 179.38293457 -82.61249542
v 36.85937881 179.35433960 -70.08299255
v 31.70425606 174.38143921 -82.52709198
v 49.76207733 152.79632568 -70.08299255
v 42.80210876 151.57041931 -82.13769531
v 23.06368637 189.88613892 -70.08299255
v 26.84722710 187.67993164 -70.08299255
v 23.09261703 181.53233337 -82.64909363
v 19.83832741 183.42733765 -82.68159485
v 15.02772617 193.34053040 -70.08299255
v 19.09994698 191.77954102 -70.08299255
v 16.42903709 185.05352783 -82.70929718
v 12.92644596 186.39433289 -82.73209381
v 6.97506714 195.39572144 -70.08299255
v 10.91876602 194.54983521 -70.08299255
v 9.39225197 187.43302917 -82.74979401
v 6.00020123 188.15953064 -82.76229858
v 40.63258743 116.52616119 -70.08299255
v 37.92715836 113.16535187 -70.08299255
v 32.62267685 117.53094482 -81.55669403
v 34.94966888 120.41755676 -81.60599518
v 43.03348541 120.09318542 -70.08299255
v 37.01471710 123.48133850 -81.65829468
v 39.67143631 176.07492065 -70.08299255
v 34.12295532 171.56472778 -82.47899628
v 49.29347610 135.89736938 -70.08299255
v 42.39905548 137.05572510 -81.88999176
v 3.39863229 195.86642456 -70.08299255
v 2.92404437 188.56382751 -82.76919556
v -38.87332153 137.42185974 -89.88845825
v -38.05420303 134.18661499 -89.64651489
v -39.40487289 140.71112061 -90.13454437
v -35.97234344 139.72045898 -100.17959595
v -35.48474121 136.74258423 -99.70589447
v -34.73465347 133.81391907 -99.24001312
v -37.68106461 157.15203857 -91.36434174
v -38.60531235 153.94261169 -91.12423706
v -36.47767258 160.27635193 -91.59811401
v -33.31183243 157.44001770 -102.99709320
v -34.40902328 154.60974121 -102.54720306
v -35.25109482 151.70266724 -102.08492279
v -35.00266266 163.29316711 -91.82369232
v -33.26739120 166.18164062 -92.03976440
v -30.38295364 162.79003906 -103.84744263
v -31.96636391 160.17308044 -103.43154144
v -6.31387711 106.26856995 -87.55825806
v -3.37797761 105.75416565 -87.51980591
v -9.70629787 107.06295776 -87.61770630
v -8.85319233 109.27709198 -95.33419800
v -5.75862074 108.55897522 -95.21975708
v -3.08062267 108.09397888 -95.14565277
v -1.43728685 105.53068542 -87.50307465
v 0.00580100 105.49166870 -87.50014496
v -1.31045985 107.89198303 -95.11349487
v 0.00580707 107.85670471 -95.10787201
v -24.98201370 114.88760376 -88.20296478
v -22.22555351 112.84309387 -88.05007172
v -27.54887390 117.14505005 -88.37185669
v -25.13549232 118.39382172 -96.78603363
v -22.79210281 116.35208893 -96.46096802
v -20.27609253 114.50314331 -96.16653442
v -19.29832268 111.02671051 -87.91421509
v -16.22157288 109.45048523 -87.79629517
v -17.60466385 112.86068726 -95.90499878
v -14.79718399 111.43551636 -95.67800140
v -13.01654434 108.12643433 -87.69723511
v -11.87304401 110.23847198 -95.48733521
v -29.90728378 119.60020447 -88.55544281
v -32.04137421 122.23503113 -88.75253296
v -29.23826218 122.99826050 -97.51900482
v -27.28907394 120.61465454 -97.13955688
v -33.93525314 125.03153992 -88.96169281
v -35.57640457 127.96945190 -89.18148804
v -32.46851349 128.18698120 -98.34469604
v -30.96859360 125.52850342 -97.92165375
v -36.95231247 131.02847290 -89.41024780
v -33.72657394 130.95544434 -98.78524780
v -31.28319359 168.92062378 -92.24465179
v -29.06496239 171.49163818 -92.43697357
v -26.54696274 167.60153198 -104.61208344
v -28.57195282 165.27185059 -104.24191284
v -26.62758255 173.87582397 -92.61526489
v -23.98901367 176.05693054 -92.77847290
v -21.91210365 171.73852539 -105.26955414
v -24.32154274 169.76193237 -104.95553589
v -39.24288177 150.67047119 -90.87948608
v -39.59029388 147.35897827 -90.63180542
v -35.83120346 148.73902893 -101.61373138
v -36.14624405 145.74002075 -101.13686371
v -39.64407349 144.03134155 -90.38290405
v -36.19307327 142.72671509 -100.65768433
v -21.16719246 178.01882935 -92.92519379
v -18.18266296 179.74853516 -93.05459595
v -16.60918236 175.08413696 -105.80111694
v -19.33506393 173.51654053 -105.55202484
v -15.05598354 181.23294067 -93.16561127
v -11.84373379 182.45672607 -93.25716400
v -10.81902409 177.53872681 -106.19112396
v -13.75326347 176.42953491 -106.01485443
v -8.60250568 183.40483093 -93.32809448
v -5.49163389 184.06802368 -93.37765503
v -5.01633596 178.99913025 -106.42318726
v -7.85818386 178.39813232 -106.32766724
v -2.67047381 184.43702698 -93.40530396
v 0.00583312 184.54792786 -93.41354370
v 0.00583654 179.43412781 -106.49227142
v -2.43909574 179.33363342 -106.47628784
v 39.65568542 144.03131104 -90.38290405
v 39.60192871 147.35893250 -90.63180542
v 39.41644669 140.71112061 -90.13454437
v 35.98394775 139.72042847 -100.17959595
v 36.20470810 142.72668457 -100.65768433
v 36.15788651 145.73999023 -101.13686371
v 37.69267654 157.15200806 -91.36428833
v 36.48927689 160.27633667 -91.59805298
v 38.61693573 153.94258118 -91.12423706
v 35.26272583 151.70263672 -102.08498383
v 34.42063522 154.60971069 -102.54714203
v 33.32343674 157.43998718 -102.99703217
v 35.01425552 163.29315186 -91.82369232
v 33.27899551 166.18153381 -92.03970337
v 31.97796631 160.17304993 -103.43148804
v 30.39456749 162.79000854 -103.84744263
v 6.32548189 106.26855469 -87.55825806
v 9.71790028 107.06295013 -87.61770630
v 3.38958025 105.75415039 -87.51980591
v 3.09223723 108.09397888 -95.14565277
v 5.77023602 108.55897522 -95.21975708
v 8.86480331 109.27709198 -95.33419800
v 1.44888914 105.53067017 -87.50307465
v 1.32207417 107.89196777 -95.11349487
v 24.99360657 114.88758850 -88.20296478
v 27.56048775 117.14500427 -88.37179565
v 22.23713684 112.84307861 -88.05001831
v 20.28769684 114.50312805 -96.16647339
v 22.80370712 116.35206604 -96.46090698
v 25.14712715 118.39376831 -96.78597260
v 19.30990791 111.02670288 -87.91415405
v 16.23315620 109.45048523 -87.79629517
v 14.80878639 111.43550873 -95.67800140
v 17.61626625 112.86067963 -95.90493774
v 13.02813625 108.12641144 -87.69723511
v 11.88464642 110.23844910 -95.48727417
v 36.96387863 131.02845764 -89.41030121
v 38.06575775 134.18659973 -89.64651489
v 35.58800888 127.96942139 -89.18148804
v 32.48012543 128.18696594 -98.34475708
v 33.73814774 130.95541382 -98.78524780
v 34.74622726 133.81390381 -99.24007416
v 26.63924789 173.87582397 -92.61526489
v 24.00066757 176.05693054 -92.77840424
v 29.07661629 171.49163818 -92.43691254
v 26.55862617 167.60153198 -104.61208344
v 24.33320618 169.76193237 -104.95541382
v 21.92376709 171.73852539 -105.26949310
v 39.25452805 150.67047119 -90.87948608
v 35.84284592 148.73898315 -101.61385345
v 21.17883682 178.01882935 -92.92513275
v 18.19431686 179.74853516 -93.05453491
v 19.34671783 173.51654053 -105.55196381
v 16.62083626 175.08422852 -105.80105591
v 15.06763649 181.23283386 -93.16555786
v 11.85539627 182.45672607 -93.25710297
v 13.76492596 176.42953491 -106.01485443
v 10.83069611 177.53872681 -106.19112396
v 8.61416721 183.40483093 -93.32803345
v 5.50329924 184.06802368 -93.37759399
v 7.86985207 178.39804077 -106.32760620
v 5.02800894 178.99913025 -106.42312622
v 29.91891670 119.60015869 -88.55544281
v 32.05300522 122.23498535 -88.75253296
v 27.30072784 120.61457825 -97.13949585
v 29.24992752 122.99822998 -97.51894379
v 33.94687653 125.03149414 -88.96169281
v 30.98022652 125.52847290 -97.92165375
v 31.29482651 168.92062378 -92.24459839
v 28.58360672 165.27185059 -104.24184418
v 38.88487625 137.42184448 -89.88851166
v 35.49631882 136.74255371 -99.70596313
v 2.68213940 184.43702698 -93.40524292
v 2.45076919 179.33352661 -106.47628784
v -32.70242310 133.46566772 -111.14144135
v -32.00851440 130.79701233 -110.48794556
v -33.15446472 136.17938232 -111.80599213
v -31.73433304 128.39567566 -123.61111450
v -31.30623245 125.93917847 -122.67630005
v -30.64653206 123.52302551 -121.75686646
v -31.72478294 149.75103760 -115.12734222
v -32.49911118 147.10086060 -114.47890472
v -30.71500206 152.33132935 -115.75845337
v -29.37687302 143.00747681 -129.17166138
v -30.34605217 140.67414856 -128.28372192
v -31.09040260 138.27728271 -127.37161255
v -29.47604370 154.82321167 -116.36788177
v -28.01740265 157.20928955 -116.95138550
v -26.79139328 147.41766357 -130.84988403
v -28.18893242 145.26052856 -130.02902222
v -5.30153799 107.79698181 -104.84811401
v -2.83582377 107.37374878 -104.74422455
v -8.15098476 108.45059967 -105.00857544
v -7.81601381 103.26635742 -114.04842377
v -5.08385706 102.67306519 -113.82265472
v -2.71936774 102.28890228 -113.67641449
v -1.20604384 107.18992615 -104.69900513
v 0.00581766 107.15782928 -104.69119263
v -1.15639186 102.12200928 -113.61288452
v 0.00582631 102.09288025 -113.60183716
v -20.99102211 114.89138031 -106.58932495
v -18.67245293 113.20790863 -106.17629242
v -23.15104294 116.75054169 -107.04531860
v -22.18585205 110.79595184 -116.91366577
v -20.11860275 109.11001587 -116.27218628
v -17.89863205 107.58311462 -115.69112396
v -16.21120262 111.71263885 -105.80935669
v -13.62508392 110.41528320 -105.49093628
v -15.54113388 106.22659302 -115.17489624
v -13.06321430 105.04940796 -114.72695160
v -10.93191433 109.32563782 -105.22341156
v -10.48199368 104.06056976 -114.35067749
v -25.13664246 118.77301025 -107.54128265
v -26.93435287 120.94392395 -108.07357788
v -25.80399323 114.59727478 -118.36025238
v -24.08525276 112.62950897 -117.61147308
v -28.53075218 123.24862671 -108.63845825
v -29.91516304 125.67039490 -109.23196411
v -28.65098381 118.87989044 -119.98995209
v -27.32925224 116.68577576 -119.15499878
v -31.07691383 128.19253540 -109.84994507
v -29.75909233 121.16445923 -120.85934448
v -26.34862328 159.47225952 -117.50472260
v -24.48221207 161.59652710 -118.02407837
v -23.40688324 151.38336182 -132.35910034
v -25.19337273 149.46327209 -131.62838745
v -22.43071365 163.56655884 -118.50576782
v -20.20925331 165.36904907 -118.94631195
v -19.31886292 154.79277039 -133.65646362
v -21.44389343 153.16387939 -133.03665161
v -33.03173447 144.39932251 -113.81789398
v -33.31978226 141.66567993 -113.14883423
v -31.60388374 135.83357239 -126.44161987
v -31.88368225 133.36044312 -125.50045776
v -33.36048126 138.91921997 -112.47665405
v -31.92699242 130.87528992 -124.55471802
v -17.83296394 166.99053955 -119.34267426
v -15.31918430 168.42002869 -119.69210815
v -14.64261436 157.54975891 -134.70559692
v -17.04625320 156.25799561 -134.21401978
v -12.68528366 169.64692688 -119.99197388
v -9.97898102 170.65863037 -120.23916626
v -9.53742599 159.57234192 -135.47531128
v -12.12447357 158.65832520 -135.12747192
v -7.24800491 171.44232178 -120.43075562
v -4.62670183 171.99053955 -120.56466675
v -4.42163515 160.77569580 -135.93319702
v -6.92703390 160.28042603 -135.74472046
v -2.24941874 172.29553223 -120.63918304
v 0.00584710 172.38723755 -120.66164398
v 0.00585758 161.13412476 -136.06961060
v -2.14955878 161.05126953 -136.03805542
v 33.37212753 138.91921997 -112.47665405
v 33.33145523 141.66564941 -113.14883423
v 33.16608810 136.17935181 -111.80599213
v 31.74597740 128.39564514 -123.61117554
v 31.93864632 130.87525940 -124.55471802
v 31.89534760 133.36041260 -125.50045776
v 31.73641777 149.75100708 -115.12728119
v 30.72662735 152.33135986 -115.75832367
v 32.51075745 147.10079956 -114.47890472
v 31.10206795 138.27725220 -127.37155151
v 30.35769653 140.67413330 -128.28366089
v 29.38850784 143.00746155 -129.17153931
v 29.48766708 154.82315063 -116.36788177
v 28.02904701 157.20922852 -116.95132446
v 28.20058632 145.26049805 -130.02896118
v 26.80305672 147.41761780 -130.84982300
v 5.31317091 107.79698181 -104.84811401
v 8.16261387 108.45056915 -105.00857544
v 2.84745932 107.37374878 -104.74422455
v 2.73102021 102.28889465 -113.67641449
v 5.09550619 102.67308044 -113.82259369
v 7.82765722 103.26634979 -114.04836273
v 1.21768022 107.18992615 -104.69900513
v 1.16804516 102.12200165 -113.61288452
v 21.00265694 114.89132690 -106.58926392
v 23.16270638 116.75048828 -107.04525757
v 18.68407631 113.20790863 -106.17623138
v 17.91026688 107.58308411 -115.69106293
v 20.13025665 109.10998535 -116.27206421
v 22.19754791 110.79586792 -116.91360474
v 16.22280693 111.71263885 -105.80929565
v 13.63669586 110.41525269 -105.49087524
v 13.07484627 105.04939270 -114.72689819
v 15.55276585 106.22657776 -115.17483521
v 10.94353580 109.32562256 -105.22341156
v 10.49362564 104.06054688 -114.35061646
v 31.08855629 128.19250488 -109.84994507
v 32.02012634 130.79698181 -110.48794556
v 29.92681694 125.67034912 -109.23196411
v 28.66268730 118.87983704 -119.98995209
v 29.77077675 121.16441345 -120.85934448
v 30.65818787 123.52299500 -121.75692749
v 22.44239616 163.56655884 -118.50570679
v 20.22093773 165.36904907 -118.94631195
v 24.49389648 161.59646606 -118.02407837
v 23.41858673 151.38333130 -132.35897827
v 21.45560646 153.16387939 -133.03652954
v 19.33057785 154.79278564 -133.65640259
v 33.04338837 144.39929199 -113.81789398
v 31.61555672 135.83354187 -126.44161987
v 17.84463692 166.99053955 -119.34261322
v 15.33086586 168.42002869 -119.69210815
v 17.05795670 156.25801086 -134.21401978
v 14.65431595 157.54978943 -134.70553589
v 12.69696617 169.64692688 -119.99197388
v 9.99066925 170.65853882 -120.23916626
v 12.13618565 158.65834045 -135.12741089
v 9.54913807 159.57232666 -135.47525024
v 7.25969696 171.44223022 -120.43069458
v 4.63839626 171.99043274 -120.56466675
v 6.93875027 160.28041077 -135.74472046
v 4.43335199 160.77568054 -135.93319702
v 25.14831734 118.77296448 -107.54122162
v 26.94603729 120.94386292 -108.07351685
v 24.09695625 112.62945557 -117.61135864
v 25.81568718 114.59721375 -118.36019135
v 28.54242706 123.24855042 -108.63845825
v 27.34095764 116.68574524 -119.15493774
v 26.36028671 159.47219849 -117.50466156
v 25.20506668 149.46324158 -131.62826538
v 32.71403885 133.46563721 -111.14150238
v 31.31787682 125.93914795 -122.67636108
v 2.26111221 172.29553223 -120.63918304
v 2.16127419 161.05126953 -136.03805542
v -39.85360336 29.02170944 -213.91415405
v -39.31598282 26.17895126 -212.53683472
v -36.89309311 45.93103027 -222.10696411
v -38.11019135 43.23085022 -220.79867554
v -33.64620209 51.03469086 -224.57962036
v -35.40126419 48.53836060 -223.37020874
v -9.81684399 -0.05905151 -199.82443237
v -6.38578892 -0.74562836 -199.49172974
v -3.41645479 -1.19020844 -199.27633667
v -1.45366287 -1.38336182 -199.18270874
v -27.86258316 8.65454865 -204.04611206
v -25.26650238 6.70351028 -203.10086060
v -22.47866249 4.93648911 -202.24478149
v -19.51810265 3.36666870 -201.48416138
v -16.40632248 2.00440979 -200.82412720
v -13.16479397 0.86006927 -200.26968384
v -32.40625381 13.05358124 -206.17752075
v -30.24786377 10.77643204 -205.07418823
v -35.98151398 18.00963211 -208.57870483
v -34.32169342 15.47050858 -207.34848022
v -38.48753357 23.38288116 -211.18209839
v -37.37308121 20.65343857 -209.85958862
v -29.39594269 55.62390900 -226.80325317
v -31.63942337 53.40195084 -225.72665405
v -24.26218224 59.56944656 -228.71493530
v -26.93081284 57.68441391 -227.80160522
v -39.04496384 40.45711136 -219.45474243
v -39.68978119 37.62915802 -218.08456421
v -40.04115295 34.76715088 -216.69784546
v -40.09554291 31.89122009 -215.30447388
v -18.38972282 62.75991440 -230.26071167
v -21.40823364 61.26504135 -229.53640747
v -11.97859383 65.10050964 -231.39474487
v -15.22742367 64.04279327 -230.88223267
v -5.55416679 66.49309540 -232.06936646
v -8.70045567 65.91993713 -231.79177856
v 0.00589737 66.90789795 -232.27041626
v -2.70088363 66.81199646 -232.22396851
v 39.86529541 29.02165222 -213.91415405
v 40.10724640 31.89112091 -215.30447388
v 39.05665588 40.45696259 -219.45468140
v 38.12187576 43.23072052 -220.79861450
v 36.90477753 45.93093872 -222.10684204
v 35.41298676 48.53826141 -223.37014771
v 3.42817020 -1.19021606 -199.27633667
v 6.39750290 -0.74562836 -199.49172974
v 0.00585922 -1.41706085 -199.16635132
v 1.46537912 -1.38336182 -199.18270874
v 22.49033737 4.93647003 -202.24472046
v 25.27819633 6.70343018 -203.10079956
v 16.41799736 2.00442123 -200.82412720
v 19.52977753 3.36666107 -201.48410034
v 9.82855225 -0.05902863 -199.82437134
v 13.17648602 0.86007690 -200.26968384
v 35.99327850 18.00959015 -208.57870483
v 37.38483810 20.65336990 -209.85964966
v 29.40771675 55.62385178 -226.80319214
v 26.94259644 57.68437195 -227.80148315
v 40.05286789 34.76702881 -216.69784546
v 39.70148849 37.62901306 -218.08450317
v 24.27396774 59.56943130 -228.71487427
v 21.42000771 61.26507950 -229.53634644
v 18.40148735 62.75998306 -230.26065063
v 15.23921585 64.04283905 -230.88223267
v 11.99039650 65.10051727 -231.39468384
v 8.71226406 65.91992188 -231.79165649
v 27.87430763 8.65444183 -204.04605103
v 30.25958633 10.77629852 -205.07412720
v 32.41798782 13.05348969 -206.17752075
v 34.33343887 15.47043991 -207.34841919
v 33.65795517 51.03458023 -224.57962036
v 31.65119743 53.40184021 -225.72659302
v 38.49926758 23.38280106 -211.18215942
v 39.32769775 26.17887878 -212.53683472
v 5.56596899 66.49308014 -232.06936646
v 2.71268129 66.81199646 -232.22384644
v -42.19615173 12.21258163 -226.88223267
v -41.30701447 9.07231140 -225.76773071
v -42.77315140 15.40528870 -228.01535034
v -45.07349396 7.68289948 -238.10641479
v -44.46545410 4.23574066 -237.20468140
v -43.52850342 0.84519958 -236.31771851
v -40.90204239 31.36363220 -233.67916870
v -41.90528488 28.24843216 -232.57351685
v -39.59579468 34.39626312 -234.75546265
v -41.72528458 28.18738937 -243.47000122
v -43.10176468 24.91307068 -242.61355591
v -44.15895462 21.54957962 -241.73367310
v -37.99469376 37.32455063 -235.79470825
v -36.11108398 40.12818909 -236.78970337
v -38.05319214 34.37612915 -245.08883667
v -40.03808212 31.34906006 -244.29708862
v -6.85394716 -18.02652740 -216.15029907
v -3.66711974 -18.52584076 -215.97305298
v -10.53631401 -17.25540924 -216.42398071
v -11.10318375 -27.58072662 -228.88217163
v -7.22280884 -28.41329956 -228.66439819
v -3.86461663 -28.95243073 -228.52334595
v -1.56055987 -18.74275208 -215.89608765
v 0.00586683 -18.78061676 -215.88265991
v -1.64478087 -29.18663788 -228.46206665
v 0.00587526 -29.22747040 -228.45138550
v -27.11761284 -9.66036224 -219.11941528
v -24.12556267 -11.64488220 -218.41513062
v -29.90385246 -7.46913147 -219.89712524
v -31.51217270 -17.01454163 -231.64602661
v -28.57611275 -19.38038635 -231.02719116
v -25.42316246 -21.52308655 -230.46670532
v -20.94815254 -13.40796661 -217.78939819
v -17.60844231 -14.93795013 -217.24642944
v -22.07490349 -23.42669678 -229.96878052
v -18.55560303 -25.07859039 -229.53665161
v -14.12948418 -16.22315979 -216.79025269
v -14.88957405 -26.46623993 -229.17367554
v -32.46384430 -5.08605957 -220.74288940
v -34.78032303 -2.52855682 -221.65060425
v -36.65087128 -11.68022156 -233.04141235
v -34.20982361 -14.44155121 -232.31912231
v -36.83605194 0.18589020 -222.61392212
v -38.61745453 3.03760910 -223.62594604
v -40.69431305 -5.67044830 -234.61337280
v -38.81713486 -8.74944305 -233.80801392
v -40.11094284 6.00687027 -224.67977905
v -42.26811218 -2.46456146 -235.45193481
v -33.95731354 42.78685760 -237.73330688
v -31.54951286 45.28237152 -238.61911011
v -33.24631119 39.94107819 -246.54458618
v -35.78360367 37.24668884 -245.83981323
v -28.90381241 47.59651947 -239.44033813
v -26.03972244 49.71361160 -240.19174194
v -27.44026375 44.72546005 -247.79617310
v -30.45836258 42.43965149 -247.19821167
v -42.59733200 25.07234192 -231.44625854
v -42.97443390 21.85800934 -230.30551147
v -44.88821411 18.12038040 -240.83670044
v -45.28559113 14.64986038 -239.92880249
v -43.03281403 18.62804031 -229.15914917
v -45.34710312 11.16249084 -239.01657104
v -22.97672272 51.61793137 -240.86758423
v -19.73711205 53.29684067 -241.46347046
v -20.79874229 48.59424973 -248.80813599
v -24.21255302 46.78155136 -248.33401489
v -16.34320259 54.73764038 -241.97482300
v -12.85640430 55.92556000 -242.39639282
v -13.54803371 51.43249130 -249.55056763
v -17.22232246 50.14987946 -249.21511841
v -9.33815289 56.84586716 -242.72299194
v -5.96141100 57.48958588 -242.95138550
v -6.28228283 53.12115097 -249.99221802
v -9.84060001 52.42612076 -249.81045532
v -2.89913583 57.84775925 -243.07852173
v 0.00590787 57.95545578 -243.11672974
v 0.00591731 53.62413025 -250.12380981
v -3.05533862 53.50785828 -250.09335327
v 43.04453659 18.62792206 -229.15914917
v 42.98616791 21.85786057 -230.30545044
v 42.78486633 15.40518188 -228.01541138
v 45.08522797 7.68276215 -238.10641479
v 45.35885620 11.16231155 -239.01657104
v 45.29734802 14.64966965 -239.92874146
v 40.91374588 31.36347198 -233.67910767
v 39.60749817 34.39611053 -234.75540161
v 41.91698837 28.24824142 -232.57345581
v 44.17066574 21.54935074 -241.73361206
v 43.11347580 24.91283035 -242.61355591
v 41.73698807 28.18717194 -243.47000122
v 38.00642776 37.32440186 -235.79464722
v 36.12285614 40.12805176 -236.78964233
v 40.04982758 31.34886169 -244.29696655
v 38.06496811 34.37594986 -245.08877563
v 6.86567497 -18.02651978 -216.15029907
v 10.54803562 -17.25537872 -216.42391968
v 3.67884922 -18.52584076 -215.97305298
v 3.87636423 -28.95246124 -228.52334595
v 7.23455524 -28.41330719 -228.66433716
v 11.11492634 -27.58072662 -228.88211060
v 1.57229114 -18.74278259 -215.89608765
v 1.65653121 -29.18663788 -228.46206665
v 27.12931633 -9.66043854 -219.11941528
v 29.91557693 -7.46926880 -219.89706421
v 24.13724709 -11.64492798 -218.41506958
v 25.43486786 -21.52311707 -230.46664429
v 28.58781624 -19.38049316 -231.02713013
v 31.52390671 -17.01467896 -231.64602661
v 20.95983696 -13.40798187 -217.78939819
v 17.62012672 -14.93791962 -217.24642944
v 18.56730652 -25.07858276 -229.53665161
v 22.08659744 -23.42668915 -229.96871948
v 14.14119625 -16.22312927 -216.79025269
v 14.90129566 -26.46620941 -229.17367554
v 40.12272644 6.00675964 -224.67977905
v 41.31877518 9.07220078 -225.76773071
v 38.62923813 3.03752899 -223.62594604
v 40.70613861 -5.67057037 -234.61331177
v 42.27992630 -2.46467590 -235.45193481
v 43.54029846 0.84506989 -236.31771851
v 28.91561699 47.59645081 -239.44027710
v 26.05152702 49.71358109 -240.19168091
v 31.56130791 45.28226089 -238.61892700
v 33.25813675 39.94094849 -246.54452515
v 30.47017670 42.43956757 -247.19808960
v 27.45206642 44.72541809 -247.79605103
v 42.60905838 25.07215881 -231.44625854
v 44.89995575 18.12014008 -240.83663940
v 22.98851776 51.61796951 -240.86752319
v 19.74891663 53.29690933 -241.46334839
v 24.22436714 46.78157806 -248.33389282
v 20.81055641 48.59432220 -248.80807495
v 16.35501671 54.73768997 -241.97470093
v 12.86822605 55.92557907 -242.39633179
v 17.23415756 50.14992142 -249.21493530
v 13.55987644 51.43249130 -249.55044556
v 9.34998131 56.84586716 -242.72293091
v 5.97323418 57.48957825 -242.95138550
v 9.85244560 52.42613220 -249.81039429
v 6.29412317 53.12113953 -249.99221802
v 32.47556686 -5.08618927 -220.74282837
v 34.79206848 -2.52865601 -221.65048218
v 34.22155762 -14.44168854 -232.31906128
v 36.66262817 -11.68035889 -233.04129028
v 36.84782791 0.18581390 -222.61386108
v 38.82892609 -8.74954224 -233.80795288
v 33.96910858 42.78674316 -237.73324585
v 35.79540634 37.24655151 -245.83969116
v 42.20788574 12.21247864 -226.88223267
v 44.47721863 4.23559189 -237.20468140
v 2.91095328 57.84775925 -243.07852173
v 3.06717539 53.50785828 -250.09335327
v -46.90195465 -11.60228729 -264.00180054
v -47.91151428 -7.69400024 -264.20028687
v -48.06072235 -9.15431976 -274.51089478
v -47.04801178 -13.17742157 -274.51107788
v -48.56667328 -3.72043610 -264.40206909
v -48.71791458 -5.06407166 -274.51077271
v -47.58126450 12.26390076 -265.21347046
v -46.44217300 16.14104080 -265.41030884
v -46.58680344 15.38064194 -274.50961304
v -47.72943115 11.38962936 -274.50985718
v -44.95902252 19.91537857 -265.60189819
v -45.09904480 19.26581955 -274.50930786
v -43.14109421 23.55984116 -265.78683472
v -43.27546310 23.01731873 -274.50912476
v -41.00238419 27.04917908 -265.96401978
v -41.13008118 26.60913086 -274.50881958
v -4.16450071 -45.95037079 -262.25839233
v -7.78291988 -45.32887268 -262.28994751
v -7.80715275 -47.89447021 -274.51345825
v -4.17746496 -48.53417206 -274.51351929
v -11.96398354 -44.36917114 -262.33859253
v -12.00124359 -46.90657043 -274.51339722
v 0.00591888 -46.26747131 -262.24227905
v -1.77264881 -46.22036743 -262.24465942
v -1.77816379 -48.81196594 -274.51351929
v 0.00594383 -48.86046600 -274.51351929
v -27.39365387 -37.38646698 -262.69314575
v -30.79092216 -34.91657257 -262.81851196
v -30.88682365 -37.17626953 -274.51290894
v -27.47897339 -39.71877289 -274.51309204
v -33.95451355 -32.18936157 -262.95700073
v -34.06027222 -34.36907196 -274.51266479
v -19.99389267 -41.48497009 -262.48507690
v -23.78591347 -39.58077240 -262.58175659
v -23.85998344 -41.97756958 -274.51321411
v -20.05615234 -43.93756866 -274.51327515
v -16.04378319 -43.08447266 -262.40383911
v -16.09373283 -45.58416748 -274.51327515
v -36.86119461 -29.22344971 -263.10751343
v -36.97601318 -31.31598663 -274.51248169
v -39.49139404 -26.04048920 -263.26907349
v -39.61439133 -28.03955078 -274.51223755
v -41.82551193 -22.66219330 -263.44058228
v -41.95577240 -24.56208801 -274.51205444
v -43.84814453 -19.11302948 -263.62063599
v -43.98470306 -20.90872955 -274.51181030
v -45.54389191 -15.41751099 -263.80819702
v -45.68573380 -17.10469055 -274.51144409
v -38.55691147 30.35811996 -266.13192749
v -38.67699432 30.01522064 -274.50857544
v -35.82301331 33.46395874 -266.28958130
v -35.93457413 33.21226883 -274.50845337
v -32.81901169 36.34406281 -266.43582153
v -32.92122269 36.17695999 -274.50827026
v -29.56704330 38.97892761 -266.56961060
v -29.65912247 38.88918304 -274.50808716
v -48.79520416 4.31048203 -264.80972290
v -48.36703110 8.31098175 -265.01278687
v -48.51767349 7.32065201 -274.51010132
v -48.94717407 3.20267868 -274.51034546
v -48.86148453 0.29051971 -264.60568237
v -49.01365280 -0.93531036 -274.51058960
v -26.08922386 41.34899139 -266.68991089
v -26.17047310 41.32884216 -274.50796509
v -22.41087341 43.43852997 -266.79605103
v -22.48066330 43.47972107 -274.50778198
v -18.55731392 45.23175049 -266.88699341
v -18.61510277 45.32563782 -274.50772095
v -14.59829426 46.71025085 -266.96200562
v -14.64375401 46.84758759 -274.50759888
v -10.60357380 47.85564041 -267.02017212
v -10.63659382 48.02658081 -274.50747681
v -6.76952076 48.65676117 -267.06076050
v -6.79059982 48.85123062 -274.50735474
v -3.29251981 49.10251999 -267.08340454
v -3.30276966 49.31008148 -274.50729370
v 0.00595701 49.23656082 -267.09024048
v 0.00597862 49.44807053 -274.50735474
v 48.80704880 4.31023026 -264.80960083
v 48.87333679 0.29032898 -264.60556030
v 49.02555847 -0.93553162 -274.51046753
v 48.95905685 3.20243073 -274.51016235
v 48.57851791 -3.72059631 -264.40200806
v 48.72982788 -5.06424713 -274.51065063
v 44.97078705 19.91508102 -265.60183716
v 46.45394516 16.14072037 -265.41018677
v 46.59861755 15.38029861 -274.50936890
v 45.11084747 19.26551056 -274.50918579
v 47.59306717 12.26356125 -265.21334839
v 47.74128723 11.38928986 -274.50967407
v 41.01423645 27.04896164 -265.96389771
v 43.15288544 23.55958939 -265.78677368
v 43.28727722 23.01702118 -274.50888062
v 41.14195633 26.60886002 -274.50869751
v 11.97581577 -44.36917114 -262.33859253
v 7.79475403 -45.32887268 -262.28988647
v 7.81903601 -47.89447021 -274.51345825
v 12.01311588 -46.90657043 -274.51339722
v 4.17633390 -45.95037079 -262.25833130
v 4.18934727 -48.53417206 -274.51351929
v 1.78448522 -46.22036743 -262.24465942
v 1.79004920 -48.81196594 -274.51351929
v 33.96627808 -32.18965149 -262.95687866
v 30.80268669 -34.91677094 -262.81851196
v 30.89861679 -37.17656708 -274.51278687
v 34.07206726 -34.36946869 -274.51254272
v 27.40541649 -37.38656616 -262.69314575
v 27.49077606 -39.71897125 -274.51296997
v 23.79769707 -39.58087158 -262.58169556
v 23.87181664 -41.97756958 -274.51309204
v 20.00569725 -41.48497009 -262.48507690
v 20.06801605 -43.93766785 -274.51327515
v 16.05559731 -43.08447266 -262.40383911
v 16.10561752 -45.58416748 -274.51327515
v 46.91386795 -11.60247040 -264.00180054
v 45.55583572 -15.41767120 -263.80813599
v 45.69770813 -17.10482025 -274.51138306
v 47.05997849 -13.17758942 -274.51119995
v 43.86007690 -19.11312103 -263.62057495
v 43.99667740 -20.90882874 -274.51162720
v 29.57892609 38.97887039 -266.56948853
v 32.83091736 36.34397125 -266.43569946
v 32.93316650 36.17683029 -274.50814819
v 29.67105675 38.88909149 -274.50796509
v 35.83491516 33.46382904 -266.28952026
v 35.94652557 33.21210098 -274.50839233
v 48.37886810 8.31069183 -265.01266479
v 48.52953720 7.32035065 -274.50991821
v 22.42277718 43.43856812 -266.79580688
v 26.10110664 41.34901047 -266.68978882
v 26.18240738 41.32883072 -274.50784302
v 22.49260712 43.47975159 -274.50772095
v 14.61022568 46.71025085 -266.96194458
v 18.56922722 45.23178101 -266.88687134
v 18.62706757 45.32566071 -274.50765991
v 14.65572643 46.84757996 -274.50753784
v 6.78144026 48.65674973 -267.06069946
v 10.61549568 47.85562134 -267.02005005
v 10.64855576 48.02657318 -274.50741577
v 6.80256224 48.85123062 -274.50735474
v 39.50321579 -26.04071808 -263.26895142
v 36.87297821 -29.22374725 -263.10739136
v 36.98780823 -31.31636810 -274.51235962
v 39.62624741 -28.03987122 -274.51211548
v 41.83739853 -22.66233063 -263.44039917
v 41.96768570 -24.56224060 -274.51187134
v 38.56879807 30.35792923 -266.13180542
v 38.68891525 30.01499176 -274.50845337
v 47.92339706 -7.69418335 -264.20028687
v 48.07265854 -9.15451813 -274.51101685
v 3.30443525 49.10251999 -267.08334351
v 3.31472826 49.31008148 -274.50729370
v -48.72630310 -5.11010742 -283.34634399
v -48.06898117 -9.24127960 -283.34628296
v -47.05610275 -13.30461121 -283.34616089
v -45.10678482 19.46311188 -283.34646606
v -46.59480286 15.53907013 -283.34646606
v -47.73764420 11.50815964 -283.34646606
v -41.13713455 26.87990189 -283.34640503
v -43.28287125 23.25215149 -283.34640503
v -12.00329399 -47.37117004 -283.34634399
v -7.80848408 -48.36886597 -283.34634399
v -4.17817593 -49.01506805 -283.34634399
v -1.77846479 -49.29566956 -283.34634399
v 0.00594724 -49.34467316 -283.34634399
v -34.06612396 -34.70816803 -283.34640503
v -30.89213371 -37.54357147 -283.34640503
v -27.48369217 -40.11147308 -283.34634399
v -23.86408234 -42.39286804 -283.34634399
v -20.05959320 -44.37256622 -283.34634399
v -16.09649277 -46.03546906 -283.34634399
v -39.62120438 -28.31546783 -283.34640503
v -36.98236465 -31.62462616 -283.34640503
v -43.99226379 -21.11328888 -283.34634399
v -41.96298218 -24.80320740 -283.34640503
v -45.69358444 -17.27118683 -283.34628296
v -35.94073486 33.54904175 -283.34634399
v -38.68362427 30.32004929 -283.34634399
v -29.66422272 39.28277969 -283.34634399
v -32.92687225 36.54341125 -283.34634399
v -48.52600479 7.39849854 -283.34646606
v -48.95559311 3.23934937 -283.34640503
v -49.02208328 -0.94004059 -283.34640503
v -22.48452377 43.91921997 -283.34634399
v -26.17497253 41.74682999 -283.34634399
v -14.64626408 47.32072067 -283.34634399
v -18.61829376 45.78356934 -283.34634399
v -6.79175806 49.34440994 -283.34634399
v -10.63841438 48.51152039 -283.34634399
v 0.00598321 49.94721222 -283.34634399
v -3.30333161 49.80783844 -283.34634399
v 48.73816681 -5.11039734 -283.34628296
v 49.03395844 -0.94036865 -283.34634399
v 48.96744537 3.23899078 -283.34634399
v 47.74945831 11.50774002 -283.34634399
v 46.60657883 15.53868866 -283.34634399
v 45.11855698 19.46274948 -283.34634399
v 43.29468536 23.25178909 -283.34634399
v 41.14900589 26.87953186 -283.34634399
v 4.19007111 -49.01506805 -283.34634399
v 7.82038307 -48.36897278 -283.34634399
v 12.01518631 -47.37117004 -283.34634399
v 1.79035914 -49.29566956 -283.34634399
v 27.49548721 -40.11167145 -283.34634399
v 30.90391731 -37.54386902 -283.34634399
v 34.07789612 -34.70867157 -283.34634399
v 20.07144737 -44.37256622 -283.34634399
v 23.87590790 -42.39296722 -283.34634399
v 16.10837746 -46.03546906 -283.34634399
v 44.00420761 -21.11347961 -283.34628296
v 45.70553589 -17.27143860 -283.34628296
v 47.06804657 -13.30490875 -283.34628296
v 35.95267868 33.54885101 -283.34634399
v 32.93880844 36.54322815 -283.34634399
v 29.67614746 39.28263092 -283.34634399
v 48.53784561 7.39810944 -283.34634399
v 26.18688774 41.74678040 -283.34634399
v 22.49646759 43.91925049 -283.34634399
v 18.63025665 45.78359985 -283.34634399
v 14.65824604 47.32072067 -283.34634399
v 10.65039635 48.51151276 -283.34634399
v 6.80373287 49.34439850 -283.34634399
v 36.99415588 -31.62512207 -283.34634399
v 39.63303757 -28.31584930 -283.34634399
v 41.97487640 -24.80345154 -283.34634399
v 38.69553757 30.31975937 -283.34634399
v 48.08089828 -9.24157715 -283.34628296
v 3.31530023 49.80783844 -283.34634399
v -47.41924286 -5.43461609 -255.53292847
v -48.06766129 -1.59378815 -255.94931030
v -46.42006302 -9.21235657 -255.12338257
v -45.96500397 17.60414124 -258.03036499
v -44.49708176 21.25239182 -258.42587280
v -47.09238434 13.85652161 -257.62417603
v -42.69783401 24.77508926 -258.80764771
v -40.58109283 28.14786911 -259.17318726
v -7.70292091 -41.81227112 -251.58981323
v -11.84103394 -40.88456726 -251.69033813
v -4.12167597 -42.41297150 -251.52468872
v -1.75439680 -42.67386627 -251.49636841
v 0.00589877 -42.71946716 -251.49148560
v -30.47454262 -31.74775696 -252.68075562
v -33.60562134 -29.11170197 -252.96652222
v -27.11217308 -34.13517761 -252.42196655
v -23.54150391 -36.25617218 -252.19204712
v -19.78844261 -38.09677124 -251.99252319
v -15.87891388 -39.64276886 -251.82498169
v -36.48245239 -26.24487305 -253.27725220
v -39.08563232 -23.16819763 -253.61080933
v -41.39577484 -19.90274048 -253.96469116
v -43.39763260 -16.47218323 -254.33651733
v -45.07595444 -12.90010834 -254.72372437
v -38.16075134 31.34626007 -259.51998901
v -35.45494461 34.34835052 -259.84536743
v -32.48180389 37.13224030 -260.14718628
v -29.26323318 39.67908096 -260.42330933
v -47.87009430 10.03567886 -257.20993042
v -48.29386139 6.16881943 -256.79074097
v -48.35946274 2.28318024 -256.36953735
v -25.82114220 41.96997070 -260.67160034
v -22.18058205 43.98969269 -260.89053345
v -18.36662292 45.72302246 -261.07833862
v -14.44827366 47.15209961 -261.23330688
v -10.49459362 48.25923157 -261.35324097
v -6.69992971 49.03358078 -261.43716431
v -3.25864983 49.46446228 -261.48385620
v 0.00593960 49.59400940 -261.49795532
v 48.37126541 2.28298187 -256.36953735
v 48.07947540 -1.59397888 -255.94931030
v 48.30567551 6.16857147 -256.79067993
v 45.97674561 17.60383224 -258.03024292
v 47.10416794 13.85618973 -257.62405396
v 44.50881577 21.25210190 -258.42575073
v 42.70959854 24.77486038 -258.80758667
v 40.59291840 28.14767075 -259.17312622
v 7.71471310 -41.81227112 -251.58975220
v 4.13346910 -42.41297150 -251.52462769
v 11.85282612 -40.88456726 -251.69033813
v 1.76619220 -42.67386627 -251.49636841
v 30.48627663 -31.74790192 -252.68075562
v 27.12390709 -34.13523102 -252.42190552
v 33.61737823 -29.11192322 -252.96640015
v 23.55324745 -36.25617218 -252.19204712
v 19.80020714 -38.09677124 -251.99252319
v 15.89069653 -39.64276886 -251.82492065
v 45.08784866 -12.90027618 -254.72366333
v 43.40951538 -16.47228241 -254.33639526
v 46.43193817 -9.21253967 -255.12338257
v 32.49365616 37.13214874 -260.14706421
v 35.46680832 34.34822845 -259.84524536
v 29.27508736 39.67903137 -260.42312622
v 47.88189697 10.03538895 -257.20986938
v 25.83300781 41.97000122 -260.67147827
v 22.19245720 43.98976135 -260.89041138
v 18.37849617 45.72305298 -261.07827759
v 14.46016598 47.15211105 -261.23318481
v 10.50647640 48.25920868 -261.35324097
v 6.71181297 49.03356934 -261.43710327
v 36.49420547 -26.24507141 -253.27719116
v 39.09741592 -23.16841125 -253.61068726
v 41.40761566 -19.90289307 -253.96456909
v 38.17259598 31.34609985 -259.51980591
v 47.43108749 -5.43479156 -255.53298950
v 3.27052927 49.46446228 -261.48385620
v -46.23853302 -1.55236053 -246.64468384
v -46.87080383 2.11191940 -247.30093384
v -45.26421356 -5.15644836 -245.99917603
v -44.82047272 20.42736053 -250.58102417
v -43.38911438 23.90790939 -251.20437622
v -45.91980362 16.85200882 -249.94070435
v -41.63464355 27.26869965 -251.80624390
v -39.57061386 30.48645020 -252.38247681
v -7.51100874 -36.25776672 -240.42941284
v -11.54609394 -35.37277222 -240.58792114
v -4.01892471 -36.83087158 -240.32681274
v -1.71058488 -37.07987213 -240.28225708
v 0.00588514 -37.12326813 -240.27438354
v -29.71567345 -26.65592957 -242.14895630
v -32.76881409 -24.14108276 -242.59939575
v -26.43702316 -28.93360901 -241.74111938
v -22.95525360 -30.95712280 -241.37869263
v -19.29564285 -32.71308136 -241.06423950
v -15.48345375 -34.18807983 -240.80007935
v -35.57400131 -21.40602112 -243.08920288
v -38.11238480 -18.47075653 -243.61483765
v -40.36501312 -15.35540771 -244.17276001
v -42.31702423 -12.08252716 -244.75881958
v -43.95357132 -8.67468262 -245.36917114
v -37.21053314 33.53779984 -252.92892456
v -34.57209396 36.40188980 -253.44192505
v -31.67297363 39.05783844 -253.91757202
v -28.53454208 41.48762131 -254.35269165
v -46.67814255 13.20682144 -249.28787231
v -47.09136200 9.51770020 -248.62716675
v -47.15533447 5.81068039 -247.96328735
v -25.17813301 43.67320251 -254.74411011
v -21.62822342 45.60008240 -255.08920288
v -17.90921211 47.25370026 -255.38534546
v -14.08842373 48.61709976 -255.62948608
v -10.23317432 49.67330933 -255.81857300
v -6.53298616 50.41209030 -255.95089722
v -3.17738271 50.82316971 -256.02450562
v 0.00592706 50.94678116 -256.04666138
v 47.16710663 5.81050873 -247.96328735
v 46.88256836 2.11177063 -247.30093384
v 47.10314560 9.51749039 -248.62710571
v 44.83219528 20.42708206 -250.58090210
v 45.93154526 16.85171127 -249.94064331
v 43.40081787 23.90766144 -251.20431519
v 41.64639664 27.26848221 -251.80618286
v 39.58240891 30.48625946 -252.38241577
v 7.52277327 -36.25776672 -240.42935181
v 4.03069210 -36.83087158 -240.32675171
v 11.55785561 -35.37277222 -240.58786011
v 1.72235322 -37.07987213 -240.28213501
v 29.72739792 -26.65605164 -242.14895630
v 26.44874763 -28.93367004 -241.74105835
v 32.78053665 -24.14122772 -242.59927368
v 22.96697617 -30.95713043 -241.37863159
v 19.30736732 -32.71305084 -241.06423950
v 15.49519634 -34.18805695 -240.80001831
v 43.96542740 -8.67481232 -245.36917114
v 42.32888794 -12.08261108 -244.75881958
v 45.27603531 -5.15663147 -245.99917603
v 31.68480682 39.05773163 -253.91744995
v 34.58391571 36.40177155 -253.44180298
v 28.54636765 41.48756027 -254.35263062
v 46.68990707 13.20656204 -249.28781128
v 25.18997765 43.67321014 -254.74398804
v 21.64005661 45.60012817 -255.08908081
v 17.92106628 47.25373077 -255.38522339
v 14.10028648 48.61711121 -255.62942505
v 10.24503613 49.67330933 -255.81857300
v 6.54484606 50.41209030 -255.95089722
v 35.58575821 -21.40618134 -243.08908081
v 38.12414551 -18.47090912 -243.61471558
v 40.37682724 -15.35552979 -244.17263794
v 37.22235870 33.53765106 -252.92880249
v 46.25032806 -1.55252075 -246.64468384
v 3.18923831 50.82316971 -256.02444458
v -48.72630310 -5.11010742 -283.34634399
v -48.06898117 -9.24127960 -283.34628296
v -47.05610275 -13.30461121 -283.34616089
v -45.10678482 19.46311188 -283.34646606
v -46.59480286 15.53907013 -283.34646606
v -47.73764420 11.50815964 -283.34646606
v -41.13713455 26.87990189 -283.34640503
v -43.28287125 23.25215149 -283.34640503
v -12.00329399 -47.37117004 -283.34634399
v -7.80848408 -48.36886597 -283.34634399
v -4.17817593 -49.01506805 -283.34634399
v -1.77846479 -49.29566956 -283.34634399
v 0.00594724 -49.34467316 -283.34634399
v -34.06612396 -34.70816803 -283.34640503
v -30.89213371 -37.54357147 -283.34640503
v -27.48369217 -40.11147308 -283.34634399
v -23.86408234 -42.39286804 -283.34634399
v -20.05959320 -44.37256622 -283.34634399
v -16.09649277 -46.03546906 -283.34634399
v -39.62120438 -28.31546783 -283.34640503
v -36.98236465 -31.62462616 -283.34640503
v -43.99226379 -21.11328888 -283.34634399
v -41.96298218 -24.80320740 -283.34640503
v -45.69358444 -17.27118683 -283.34628296
v -35.94073486 33.54904175 -283.34634399
v -38.68362427 30.32004929 -283.34634399
v -29.66422272 39.28277969 -283.34634399
v -32.92687225 36.54341125 -283.34634399
v -48.52600479 7.39849854 -283.34646606
v -48.95559311 3.23934937 -283.34640503
v -49.02208328 -0.94004059 -283.34640503
v -22.48452377 43.91921997 -283.34634399
v -26.17497253 41.74682999 -283.34634399
v -14.64626408 47.32072067 -283.34634399
v -18.61829376 45.78356934 -283.34634399
v -6.79175806 49.34440994 -283.34634399
v -10.63841438 48.51152039 -283.34634399
v 0.00598321 49.94721222 -283.34634399
v -3.30333161 49.80783844 -283.34634399
v 48.73816681 -5.11039734 -283.34628296
v 49.03395844 -0.94036865 -283.34634399
v 48.96744537 3.23899078 -283.34634399
v 47.74945831 11.50774002 -283.34634399
v 46.60657883 15.53868866 -283.34634399
v 45.11855698 19.46274948 -283.34634399
v 43.29468536 23.25178909 -283.34634399
v 41.14900589 26.87953186 -283.34634399
v 4.19007111 -49.01506805 -283.34634399
v 7.82038307 -48.36897278 -283.34634399
v 12.01518631 -47.37117004 -283.34634399
v 1.79035914 -49.29566956 -283.34634399
v 27.49548721 -40.11167145 -283.34634399
v 30.90391731 -37.54386902 -283.34634399
v 34.07789612 -34.70867157 -283.34634399
v 20.07144737 -44.37256622 -283.34634399
v 23.87590790 -42.39296722 -283.34634399
v 16.10837746 -46.03546906 -283.34634399
v 44.00420761 -21.11347961 -283.34628296
v 45.70553589 -17.27143860 -283.34628296
v 47.06804657 -13.30490875 -283.34628296
v 35.95267868 33.54885101 -283.34634399
v 32.93880844 36.54322815 -283.34634399
v 29.67614746 39.28263092 -283.34634399
v 48.53784561 7.39810944 -283.34634399
v 26.18688774 41.74678040 -283.34634399
v 22.49646759 43.91925049 -283.34634399
v 18.63025665 45.78359985 -283.34634399
v 14.65824604 47.32072067 -283.34634399
v 10.65039635 48.51151276 -283.34634399
v 6.80373287 49.34439850 -283.34634399
v 36.99415588 -31.62512207 -283.34634399
v 39.63303757 -28.31584930 -283.34634399
v 41.97487640 -24.80345154 -283.34634399
v 38.69553757 30.31975937 -283.34634399
v 48.08089828 -9.24157715 -283.34628296
v 3.31530023 49.80783844 -283.34634399
v -48.24355316 131.77076721 -70.08299255
v -49.28196335 135.89743042 -70.08299255
v -49.95581436 140.09294128 -70.08299255
v -48.94218445 156.97004700 -70.08299255
v -47.77050400 161.06378174 -70.08299255
v -46.24495316 165.04895020 -70.08299255
v -44.37505341 168.89692688 -70.08299255
v -42.17522430 172.58113098 -70.08299255
v -4.28388596 95.50444031 -70.08299255
v -8.00577927 96.16058350 -70.08299255
v -12.30640411 97.17385101 -70.08299255
v 0.00579067 95.16961670 -70.08299255
v -1.82363689 95.21938324 -70.08299255
v -28.17729378 104.54656219 -70.08299255
v -31.67170334 107.15438843 -70.08299255
v -34.92575455 110.03379822 -70.08299255
v -20.56594276 100.21919250 -70.08299255
v -24.46638298 102.22970581 -70.08299255
v -16.50287247 98.53031921 -70.08299255
v -37.91555405 113.16540527 -70.08299255
v -40.62098312 116.52621460 -70.08299255
v -43.02187347 120.09321594 -70.08299255
v -45.10239410 123.84062195 -70.08299255
v -46.84665298 127.74247742 -70.08299255
v -39.65982437 176.07492065 -70.08299255
v -36.84773254 179.35433960 -70.08299255
v -33.75782394 182.39532471 -70.08299255
v -30.41285324 185.17742920 -70.08299255
v -50.19087219 148.57244873 -70.08299255
v -49.75044250 152.79637146 -70.08299255
v -50.25906372 144.32795715 -70.08299255
v -26.83557320 187.67993164 -70.08299255
v -23.05204391 189.88613892 -70.08299255
v -19.08829308 191.77954102 -70.08299255
v -15.01607418 193.34053040 -70.08299255
v -10.90710354 194.54992676 -70.08299255
v -6.96340275 195.39572144 -70.08299255
v -3.38696766 195.86642456 -70.08299255
v 0.00583262 196.00802612 -70.08299255
v 50.20248795 148.57238770 -70.08299255
v 50.27063751 144.32791138 -70.08299255
v 49.96735764 140.09291077 -70.08299255
v 46.25653839 165.04888916 -70.08299255
v 47.78211594 161.06372070 -70.08299255
v 48.95381546 156.97000122 -70.08299255
v 42.18680573 172.58113098 -70.08299255
v 44.38663864 168.89692688 -70.08299255
v 12.31798649 97.17384338 -70.08299255
v 8.01735973 96.16056061 -70.08299255
v 4.29546690 95.50443268 -70.08299255
v 1.83521819 95.21936798 -70.08299255
v 34.93733597 110.03373718 -70.08299255
v 31.68327713 107.15435791 -70.08299255
v 28.18884659 104.54653168 -70.08299255
v 24.47794724 102.22970581 -70.08299255
v 20.57749748 100.21917725 -70.08299255
v 16.51443672 98.53030396 -70.08299255
v 48.25506592 131.77073669 -70.08299255
v 46.85820770 127.74244690 -70.08299255
v 45.11397552 123.84056091 -70.08299255
v 30.42450714 185.17742920 -70.08299255
v 33.76947784 182.39532471 -70.08299255
v 36.85937881 179.35433960 -70.08299255
v 49.76207733 152.79632568 -70.08299255
v 23.06368637 189.88613892 -70.08299255
v 26.84722710 187.67993164 -70.08299255
v 15.02772617 193.34053040 -70.08299255
v 19.09994698 191.77954102 -70.08299255
v 6.97506714 195.39572144 -70.08299255
v 10.91876602 194.54983521 -70.08299255
v 40.63258743 116.52616119 -70.08299255
v 37.92715836 113.16535187 -70.08299255
v 43.03348541 120.09318542 -70.08299255
v 39.67143631 176.07492065 -70.08299255
v 49.29347610 135.89736938 -70.08299255
v 3.39863229 195.86642456 -70.08299255
f 1 2 3
f 3 4 1
f 2 5 6
f 6 3 2
f 7 8 9
f 9 10 7
f 8 11 12
f 12 9 8
f 11 13 14
f 14 12 11
f 13 15 16
f 16 14 13
f 17 18 19
f 19 20 17
f 18 21 22
f 22 19 18
f 23 24 25
f 25 26 23
f 24 17 20
f 20 25 24
f 27 28 29
f 29 30 27
f 28 31 32
f 32 29 28
f 33 34 35
f 35 36 33
f 34 27 30
f 30 35 34
f 21 37 38
f 38 22 21
f 37 33 36
f 36 38 37
f 31 39 40
f 40 32 31
f 39 41 42
f 42 40 39
f 41 43 44
f 44 42 41
f 43 45 46
f 46 44 43
f 45 47 48
f 48 46 45
f 47 1 4
f 4 48 47
f 15 49 50
f 50 16 15
f 49 51 52
f 52 50 49
f 51 53 54
f 54 52 51
f 53 55 56
f 56 54 53
f 57 58 59
f 59 60 57
f 58 7 10
f 10 59 58
f 5 61 62
f 62 6 5
f 61 57 60
f 60 62 61
f 55 63 64
f 64 56 55
f 63 65 66
f 66 64 63
f 65 67 68
f 68 66 65
f 67 69 70
f 70 68 67
f 69 71 72
f 72 70 69
f 71 73 74
f 74 72 71
f 73 75 76
f 76 74 73
f 75 77 78
f 78 76 75
f 79 80 81
f 81 82 79
f 80 83 84
f 84 81 80
f 85 86 87
f 87 88 85
f 86 89 90
f 90 87 86
f 91 92 93
f 93 94 91
f 92 85 88
f 88 93 92
f 95 96 97
f 97 98 95
f 96 99 100
f 100 97 96
f 99 101 102
f 102 100 99
f 101 23 26
f 26 102 101
f 103 104 105
f 105 106 103
f 104 107 108
f 108 105 104
f 107 109 110
f 110 108 107
f 109 111 112
f 112 110 109
f 111 113 114
f 114 112 111
f 113 95 98
f 98 114 113
f 115 116 117
f 117 118 115
f 116 119 120
f 120 117 116
f 121 122 123
f 123 124 121
f 122 125 126
f 126 123 122
f 89 127 128
f 128 90 89
f 127 79 82
f 82 128 127
f 129 130 131
f 131 132 129
f 130 121 124
f 124 131 130
f 133 134 135
f 135 136 133
f 134 129 132
f 132 135 134
f 137 138 139
f 139 140 137
f 138 133 136
f 136 139 138
f 141 142 143
f 143 144 141
f 142 103 106
f 106 143 142
f 119 145 146
f 146 120 119
f 145 141 144
f 144 146 145
f 125 147 148
f 148 126 125
f 147 91 94
f 94 148 147
f 83 149 150
f 150 84 83
f 149 115 118
f 118 150 149
f 77 151 152
f 152 78 77
f 151 137 140
f 140 152 151
f 153 154 4
f 4 3 153
f 155 153 3
f 3 6 155
f 153 155 156
f 156 157 153
f 154 153 157
f 157 158 154
f 159 160 10
f 10 9 159
f 161 159 9
f 9 12 161
f 159 161 162
f 162 163 159
f 160 159 163
f 163 164 160
f 165 161 12
f 12 14 165
f 166 165 14
f 14 16 166
f 165 166 167
f 167 168 165
f 161 165 168
f 168 162 161
f 169 170 20
f 20 19 169
f 171 169 19
f 19 22 171
f 169 171 172
f 172 173 169
f 170 169 173
f 173 174 170
f 175 176 26
f 26 25 175
f 170 175 25
f 25 20 170
f 175 170 174
f 174 177 175
f 176 175 177
f 177 178 176
f 179 180 30
f 30 29 179
f 181 179 29
f 29 32 181
f 179 181 182
f 182 183 179
f 180 179 183
f 183 184 180
f 185 186 36
f 36 35 185
f 180 185 35
f 35 30 180
f 185 180 184
f 184 187 185
f 186 185 187
f 187 188 186
f 189 171 22
f 22 38 189
f 186 189 38
f 38 36 186
f 189 186 188
f 188 190 189
f 171 189 190
f 190 172 171
f 191 181 32
f 32 40 191
f 192 191 40
f 40 42 192
f 191 192 193
f 193 194 191
f 181 191 194
f 194 182 181
f 195 192 42
f 42 44 195
f 196 195 44
f 44 46 196
f 195 196 197
f 197 198 195
f 192 195 198
f 198 193 192
f 199 196 46
f 46 48 199
f 154 199 48
f 48 4 154
f 199 154 158
f 158 200 199
f 196 199 200
f 200 197 196
f 201 166 16
f 16 50 201
f 202 201 50
f 50 52 202
f 201 202 203
f 203 204 201
f 166 201 204
f 204 167 166
f 205 202 52
f 52 54 205
f 206 205 54
f 54 56 206
f 205 206 207
f 207 208 205
f 202 205 208
f 208 203 202
f 209 210 60
f 60 59 209
f 160 209 59
f 59 10 160
f 209 160 164
f 164 211 209
f 210 209 211
f 211 212 210
f 213 155 6
f 6 62 213
f 210 213 62
f 62 60 210
f 213 210 212
f 212 214 213
f 155 213 214
f 214 156 155
f 215 206 56
f 56 64 215
f 216 215 64
f 64 66 216
f 215 216 217
f 217 218 215
f 206 215 218
f 218 207 206
f 219 216 66
f 66 68 219
f 220 219 68
f 68 70 220
f 219 220 221
f 221 222 219
f 216 219 222
f 222 217 216
f 223 220 70
f 70 72 223
f 224 223 72
f 72 74 224
f 223 224 225
f 225 226 223
f 220 223 226
f 226 221 220
f 227 224 74
f 74 76 227
f 228 227 76
f 76 78 228
f 227 228 229
f 229 230 227
f 224 227 230
f 230 225 224
f 231 232 82
f 82 81 231
f 233 231 81
f 81 84 233
f 231 233 234
f 234 235 231
f 232 231 235
f 235 236 232
f 237 238 88
f 88 87 237
f 239 237 87
f 87 90 239
f 237 239 240
f 240 241 237
f 238 237 241
f 241 242 238
f 243 244 94
f 94 93 243
f 238 243 93
f 93 88 238
f 243 238 242
f 242 245 243
f 244 243 245
f 245 246 244
f 247 248 98
f 98 97 247
f 249 247 97
f 97 100 249
f 247 249 250
f 250 251 247
f 248 247 251
f 251 252 248
f 253 249 100
f 100 102 253
f 176 253 102
f 102 26 176
f 253 176 178
f 178 254 253
f 249 253 254
f 254 250 249
f 255 256 106
f 106 105 255
f 257 255 105
f 105 108 257
f 255 257 258
f 258 259 255
f 256 255 259
f 259 260 256
f 261 257 108
f 108 110 261
f 262 261 110
f 110 112 262
f 261 262 263
f 263 264 261
f 257 261 264
f 264 258 257
f 265 262 112
f 112 114 265
f 248 265 114
f 114 98 248
f 265 248 252
f 252 266 265
f 262 265 266
f 266 263 262
f 267 268 118
f 118 117 267
f 269 267 117
f 117 120 269
f 267 269 270
f 270 271 267
f 268 267 271
f 271 272 268
f 273 274 124
f 124 123 273
f 275 273 123
f 123 126 275
f 273 275 276
f 276 277 273
f 274 273 277
f 277 278 274
f 279 239 90
f 90 128 279
f 232 279 128
f 128 82 232
f 279 232 236
f 236 280 279
f 239 279 280
f 280 240 239
f 281 282 132
f 132 131 281
f 274 281 131
f 131 124 274
f 281 274 278
f 278 283 281
f 282 281 283
f 283 284 282
f 285 286 136
f 136 135 285
f 282 285 135
f 135 132 282
f 285 282 284
f 284 287 285
f 286 285 287
f 287 288 286
f 289 290 140
f 140 139 289
f 286 289 139
f 139 136 286
f 289 286 288
f 288 291 289
f 290 289 291
f 291 292 290
f 293 294 144
f 144 143 293
f 256 293 143
f 143 106 256
f 293 256 260
f 260 295 293
f 294 293 295
f 295 296 294
f 297 269 120
f 120 146 297
f 294 297 146
f 146 144 294
f 297 294 296
f 296 298 297
f 269 297 298
f 298 270 269
f 299 275 126
f 126 148 299
f 244 299 148
f 148 94 244
f 299 244 246
f 246 300 299
f 275 299 300
f 300 276 275
f 301 233 84
f 84 150 301
f 268 301 150
f 150 118 268
f 301 268 272
f 272 302 301
f 233 301 302
f 302 234 233
f 303 228 78
f 78 152 303
f 290 303 152
f 152 140 290
f 303 290 292
f 292 304 303
f 228 303 304
f 304 229 228
f 305 306 158
f 158 157 305
f 307 305 157
f 157 156 307
f 305 307 308
f 308 309 305
f 306 305 309
f 309 310 306
f 311 312 164
f 164 163 311
f 313 311 163
f 163 162 313
f 311 313 314
f 314 315 311
f 312 311 315
f 315 316 312
f 317 313 162
f 162 168 317
f 318 317 168
f 168 167 318
f 317 318 319
f 319 320 317
f 313 317 320
f 320 314 313
f 321 322 174
f 174 173 321
f 323 321 173
f 173 172 323
f 321 323 324
f 324 325 321
f 322 321 325
f 325 326 322
f 327 328 178
f 178 177 327
f 322 327 177
f 177 174 322
f 327 322 326
f 326 329 327
f 328 327 329
f 329 330 328
f 331 332 184
f 184 183 331
f 333 331 183
f 183 182 333
f 331 333 334
f 334 335 331
f 332 331 335
f 335 336 332
f 337 338 188
f 188 187 337
f 332 337 187
f 187 184 332
f 337 332 336
f 336 339 337
f 338 337 339
f 339 340 338
f 341 323 172
f 172 190 341
f 338 341 190
f 190 188 338
f 341 338 340
f 340 342 341
f 323 341 342
f 342 324 323
f 343 333 182
f 182 194 343
f 344 343 194
f 194 193 344
f 343 344 345
f 345 346 343
f 333 343 346
f 346 334 333
f 347 344 193
f 193 198 347
f 348 347 198
f 198 197 348
f 347 348 349
f 349 350 347
f 344 347 350
f 350 345 344
f 351 348 197
f 197 200 351
f 306 351 200
f 200 158 306
f 351 306 310
f 310 352 351
f 348 351 352
f 352 349 348
f 353 318 167
f 167 204 353
f 354 353 204
f 204 203 354
f 353 354 355
f 355 356 353
f 318 353 356
f 356 319 318
f 357 354 203
f 203 208 357
f 358 357 208
f 208 207 358
f 357 358 359
f 359 360 357
f 354 357 360
f 360 355 354
f 361 362 212
f 212 211 361
f 312 361 211
f 211 164 312
f 361 312 316
f 316 363 361
f 362 361 363
f 363 364 362
f 365 307 156
f 156 214 365
f 362 365 214
f 214 212 362
f 365 362 364
f 364 366 365
f 307 365 366
f 366 308 307
f 367 358 207
f 207 218 367
f 368 367 218
f 218 217 368
f 367 368 369
f 369 370 367
f 358 367 370
f 370 359 358
f 371 368 217
f 217 222 371
f 372 371 222
f 222 221 372
f 371 372 373
f 373 374 371
f 368 371 374
f 374 369 368
f 375 372 221
f 221 226 375
f 376 375 226
f 226 225 376
f 375 376 377
f 377 378 375
f 372 375 378
f 378 373 372
f 379 376 225
f 225 230 379
f 380 379 230
f 230 229 380
f 379 380 381
f 381 382 379
f 376 379 382
f 382 377 376
f 383 384 236
f 236 235 383
f 385 383 235
f 235 234 385
f 383 385 386
f 386 387 383
f 384 383 387
f 387 388 384
f 389 390 242
f 242 241 389
f 391 389 241
f 241 240 391
f 389 391 392
f 392 393 389
f 390 389 393
f 393 394 390
f 395 396 246
f 246 245 395
f 390 395 245
f 245 242 390
f 395 390 394
f 394 397 395
f 396 395 397
f 397 398 396
f 399 400 252
f 252 251 399
f 401 399 251
f 251 250 401
f 399 401 402
f 402 403 399
f 400 399 403
f 403 404 400
f 405 401 250
f 250 254 405
f 328 405 254
f 254 178 328
f 405 328 330
f 330 406 405
f 401 405 406
f 406 402 401
f 407 408 260
f 260 259 407
f 409 407 259
f 259 258 409
f 407 409 410
f 410 411 407
f 408 407 411
f 411 412 408
f 413 409 258
f 258 264 413
f 414 413 264
f 264 263 414
f 413 414 415
f 415 416 413
f 409 413 416
f 416 410 409
f 417 414 263
f 263 266 417
f 400 417 266
f 266 252 400
f 417 400 404
f 404 418 417
f 414 417 418
f 418 415 414
f 419 420 272
f 272 271 419
f 421 419 271
f 271 270 421
f 419 421 422
f 422 423 419
f 420 419 423
f 423 424 420
f 425 426 278
f 278 277 425
f 427 425 277
f 277 276 427
f 425 427 428
f 428 429 425
f 426 425 429
f 429 430 426
f 431 391 240
f 240 280 431
f 384 431 280
f 280 236 384
f 431 384 388
f 388 432 431
f 391 431 432
f 432 392 391
f 433 434 284
f 284 283 433
f 426 433 283
f 283 278 426
f 433 426 430
f 430 435 433
f 434 433 435
f 435 436 434
f 437 438 288
f 288 287 437
f 434 437 287
f 287 284 434
f 437 434 436
f 436 439 437
f 438 437 439
f 439 440 438
f 441 442 292
f 292 291 441
f 438 441 291
f 291 288 438
f 441 438 440
f 440 443 441
f 442 441 443
f 443 444 442
f 445 446 296
f 296 295 445
f 408 445 295
f 295 260 408
f 445 408 412
f 412 447 445
f 446 445 447
f 447 448 446
f 449 421 270
f 270 298 449
f 446 449 298
f 298 296 446
f 449 446 448
f 448 450 449
f 421 449 450
f 450 422 421
f 451 427 276
f 276 300 451
f 396 451 300
f 300 246 396
f 451 396 398
f 398 452 451
f 427 451 452
f 452 428 427
f 453 385 234
f 234 302 453
f 420 453 302
f 302 272 420
f 453 420 424
f 424 454 453
f 385 453 454
f 454 386 385
f 455 380 229
f 229 304 455
f 442 455 304
f 304 292 442
f 455 442 444
f 444 456 455
f 380 455 456
f 456 381 380
f 309 308 457
f 457 458 309
f 315 314 459
f 459 460 315
f 320 319 461
f 461 462 320
f 325 324 463
f 463 464 325
f 326 465 466
f 466 329 326
f 335 334 467
f 467 468 335
f 336 469 470
f 470 339 336
f 340 471 472
f 472 342 340
f 346 345 473
f 473 474 346
f 350 349 475
f 475 476 350
f 310 477 478
f 478 352 310
f 356 355 479
f 479 480 356
f 360 359 481
f 481 482 360
f 316 483 484
f 484 363 316
f 364 485 486
f 486 366 364
f 370 369 487
f 487 488 370
f 374 373 489
f 489 490 374
f 378 377 491
f 491 492 378
f 382 381 493
f 493 494 382
f 387 386 495
f 495 496 387
f 393 392 497
f 497 498 393
f 394 499 500
f 500 397 394
f 403 402 501
f 501 502 403
f 330 503 504
f 504 406 330
f 411 410 505
f 505 506 411
f 416 415 507
f 507 508 416
f 404 509 510
f 510 418 404
f 423 422 511
f 511 512 423
f 429 428 513
f 513 514 429
f 388 515 516
f 516 432 388
f 430 517 518
f 518 435 430
f 436 519 520
f 520 439 436
f 440 521 522
f 522 443 440
f 412 523 524
f 524 447 412
f 448 525 526
f 526 450 448
f 398 527 528
f 528 452 398
f 424 529 530
f 530 454 424
f 444 531 532
f 532 456 444
f 533 534 477
f 477 458 533
f 535 533 458
f 458 457 535
f 533 535 536
f 536 537 533
f 534 533 537
f 537 538 534
f 539 540 483
f 483 460 539
f 541 539 460
f 460 459 541
f 539 541 542
f 542 543 539
f 540 539 543
f 543 544 540
f 545 541 459
f 459 462 545
f 546 545 462
f 462 461 546
f 545 546 547
f 547 548 545
f 541 545 548
f 548 542 541
f 549 550 465
f 465 464 549
f 551 549 464
f 464 463 551
f 549 551 552
f 552 553 549
f 550 549 553
f 553 554 550
f 555 556 503
f 503 466 555
f 550 555 466
f 466 465 550
f 555 550 554
f 554 557 555
f 556 555 557
f 557 558 556
f 559 560 469
f 469 468 559
f 561 559 468
f 468 467 561
f 559 561 562
f 562 563 559
f 560 559 563
f 563 564 560
f 565 566 471
f 471 470 565
f 560 565 470
f 470 469 560
f 565 560 564
f 564 567 565
f 566 565 567
f 567 568 566
f 569 551 463
f 463 472 569
f 566 569 472
f 472 471 566
f 569 566 568
f 568 570 569
f 551 569 570
f 570 552 551
f 571 561 467
f 467 474 571
f 572 571 474
f 474 473 572
f 571 572 573
f 573 574 571
f 561 571 574
f 574 562 561
f 575 572 473
f 473 476 575
f 576 575 476
f 476 475 576
f 575 576 577
f 577 578 575
f 572 575 578
f 578 573 572
f 579 576 475
f 475 478 579
f 534 579 478
f 478 477 534
f 579 534 538
f 538 580 579
f 576 579 580
f 580 577 576
f 581 546 461
f 461 480 581
f 582 581 480
f 480 479 582
f 581 582 583
f 583 584 581
f 546 581 584
f 584 547 546
f 585 582 479
f 479 482 585
f 586 585 482
f 482 481 586
f 585 586 587
f 587 588 585
f 582 585 588
f 588 583 582
f 589 590 485
f 485 484 589
f 540 589 484
f 484 483 540
f 589 540 544
f 544 591 589
f 590 589 591
f 591 592 590
f 593 535 457
f 457 486 593
f 590 593 486
f 486 485 590
f 593 590 592
f 592 594 593
f 535 593 594
f 594 536 535
f 595 586 481
f 481 488 595
f 596 595 488
f 488 487 596
f 595 596 597
f 597 598 595
f 586 595 598
f 598 587 586
f 599 596 487
f 487 490 599
f 600 599 490
f 490 489 600
f 599 600 601
f 601 602 599
f 596 599 602
f 602 597 596
f 603 600 489
f 489 492 603
f 604 603 492
f 492 491 604
f 603 604 605
f 605 606 603
f 600 603 606
f 606 601 600
f 607 604 491
f 491 494 607
f 608 607 494
f 494 493 608
f 607 608 609
f 609 610 607
f 604 607 610
f 610 605 604
f 611 612 515
f 515 496 611
f 613 611 496
f 496 495 613
f 611 613 614
f 614 615 611
f 612 611 615
f 615 616 612
f 617 618 499
f 499 498 617
f 619 617 498
f 498 497 619
f 617 619 620
f 620 621 617
f 618 617 621
f 621 622 618
f 623 624 527
f 527 500 623
f 618 623 500
f 500 499 618
f 623 618 622
f 622 625 623
f 624 623 625
f 625 626 624
f 627 628 509
f 509 502 627
f 629 627 502
f 502 501 629
f 627 629 630
f 630 631 627
f 628 627 631
f 631 632 628
f 633 629 501
f 501 504 633
f 556 633 504
f 504 503 556
f 633 556 558
f 558 634 633
f 629 633 634
f 634 630 629
f 635 636 523
f 523 506 635
f 637 635 506
f 506 505 637
f 635 637 638
f 638 639 635
f 636 635 639
f 639 640 636
f 641 637 505
f 505 508 641
f 642 641 508
f 508 507 642
f 641 642 643
f 643 644 641
f 637 641 644
f 644 638 637
f 645 642 507
f 507 510 645
f 628 645 510
f 510 509 628
f 645 628 632
f 632 646 645
f 642 645 646
f 646 643 642
f 647 648 529
f 529 512 647
f 649 647 512
f 512 511 649
f 647 649 650
f 650 651 647
f 648 647 651
f 651 652 648
f 653 654 517
f 517 514 653
f 655 653 514
f 514 513 655
f 653 655 656
f 656 657 653
f 654 653 657
f 657 658 654
f 659 619 497
f 497 516 659
f 612 659 516
f 516 515 612
f 659 612 616
f 616 660 659
f 619 659 660
f 660 620 619
f 661 662 519
f 519 518 661
f 654 661 518
f 518 517 654
f 661 654 658
f 658 663 661
f 662 661 663
f 663 664 662
f 665 666 521
f 521 520 665
f 662 665 520
f 520 519 662
f 665 662 664
f 664 667 665
f 666 665 667
f 667 668 666
f 669 670 531
f 531 522 669
f 666 669 522
f 522 521 666
f 669 666 668
f 668 671 669
f 670 669 671
f 671 672 670
f 673 674 525
f 525 524 673
f 636 673 524
f 524 523 636
f 673 636 640
f 640 675 673
f 674 673 675
f 675 676 674
f 677 649 511
f 511 526 677
f 674 677 526
f 526 525 674
f 677 674 676
f 676 678 677
f 649 677 678
f 678 650 649
f 679 655 513
f 513 528 679
f 624 679 528
f 528 527 624
f 679 624 626
f 626 680 679
f 655 679 680
f 680 656 655
f 681 613 495
f 495 530 681
f 648 681 530
f 530 529 648
f 681 648 652
f 652 682 681
f 613 681 682
f 682 614 613
f 683 608 493
f 493 532 683
f 670 683 532
f 532 531 670
f 683 670 672
f 672 684 683
f 608 683 684
f 684 609 608
f 685 686 687
f 687 688 685
f 686 689 690
f 690 687 686
f 691 692 693
f 693 694 691
f 692 695 696
f 696 693 692
f 695 697 698
f 698 696 695
f 697 699 700
f 700 698 697
f 701 702 703
f 703 704 701
f 702 705 706
f 706 703 702
f 707 708 709
f 709 710 707
f 708 701 704
f 704 709 708
f 711 712 713
f 713 714 711
f 712 715 716
f 716 713 712
f 717 718 719
f 719 720 717
f 718 711 714
f 714 719 718
f 705 721 722
f 722 706 705
f 721 717 720
f 720 722 721
f 715 723 724
f 724 716 715
f 723 725 726
f 726 724 723
f 725 727 728
f 728 726 725
f 727 729 730
f 730 728 727
f 729 731 732
f 732 730 729
f 731 685 688
f 688 732 731
f 699 733 734
f 734 700 699
f 733 735 736
f 736 734 733
f 735 737 738
f 738 736 735
f 737 739 740
f 740 738 737
f 741 742 743
f 743 744 741
f 742 691 694
f 694 743 742
f 689 745 746
f 746 690 689
f 745 741 744
f 744 746 745
f 739 747 748
f 748 740 739
f 747 749 750
f 750 748 747
f 749 751 752
f 752 750 749
f 751 753 754
f 754 752 751
f 753 755 756
f 756 754 753
f 755 757 758
f 758 756 755
f 757 759 760
f 760 758 757
f 759 761 762
f 762 760 759
f 763 764 765
f 765 766 763
f 764 767 768
f 768 765 764
f 769 770 771
f 771 772 769
f 770 773 774
f 774 771 770
f 775 776 777
f 777 778 775
f 776 769 772
f 772 777 776
f 779 780 781
f 781 782 779
f 780 783 784
f 784 781 780
f 783 785 786
f 786 784 783
f 785 707 710
f 710 786 785
f 787 788 789
f 789 790 787
f 788 791 792
f 792 789 788
f 791 793 794
f 794 792 791
f 793 795 796
f 796 794 793
f 795 797 798
f 798 796 795
f 797 779 782
f 782 798 797
f 799 800 801
f 801 802 799
f 800 803 804
f 804 801 800
f 805 806 807
f 807 808 805
f 806 809 810
f 810 807 806
f 773 811 812
f 812 774 773
f 811 763 766
f 766 812 811
f 813 814 815
f 815 816 813
f 814 805 808
f 808 815 814
f 817 818 819
f 819 820 817
f 818 813 816
f 816 819 818
f 821 822 823
f 823 824 821
f 822 817 820
f 820 823 822
f 825 826 827
f 827 828 825
f 826 787 790
f 790 827 826
f 803 829 830
f 830 804 803
f 829 825 828
f 828 830 829
f 809 831 832
f 832 810 809
f 831 775 778
f 778 832 831
f 767 833 834
f 834 768 767
f 833 799 802
f 802 834 833
f 761 835 836
f 836 762 761
f 835 821 824
f 824 836 835
f 690 837 838
f 838 687 690
f 688 687 838
f 838 839 688
f 696 840 841
f 841 693 696
f 694 693 841
f 841 842 694
f 700 843 844
f 844 698 700
f 840 696 698
f 698 844 840
f 706 845 846
f 846 703 706
f 704 703 846
f 846 847 704
f 704 847 848
f 848 709 704
f 710 709 848
f 848 849 710
f 716 850 851
f 851 713 716
f 714 713 851
f 851 852 714
f 714 852 853
f 853 719 714
f 720 719 853
f 853 854 720
f 720 854 855
f 855 722 720
f 845 706 722
f 722 855 845
f 726 856 857
f 857 724 726
f 850 716 724
f 724 857 850
f 730 858 859
f 859 728 730
f 856 726 728
f 728 859 856
f 688 839 860
f 860 732 688
f 858 730 732
f 732 860 858
f 736 861 862
f 862 734 736
f 843 700 734
f 734 862 843
f 740 863 864
f 864 738 740
f 861 736 738
f 738 864 861
f 694 842 865
f 865 743 694
f 744 743 865
f 865 866 744
f 744 866 867
f 867 746 744
f 837 690 746
f 746 867 837
f 750 868 869
f 869 748 750
f 863 740 748
f 748 869 863
f 754 870 871
f 871 752 754
f 868 750 752
f 752 871 868
f 758 872 873
f 873 756 758
f 870 754 756
f 756 873 870
f 762 874 875
f 875 760 762
f 872 758 760
f 760 875 872
f 768 876 877
f 877 765 768
f 766 765 877
f 877 878 766
f 774 879 880
f 880 771 774
f 772 771 880
f 880 881 772
f 772 881 882
f 882 777 772
f 778 777 882
f 882 883 778
f 784 884 885
f 885 781 784
f 782 781 885
f 885 886 782
f 710 849 887
f 887 786 710
f 884 784 786
f 786 887 884
f 792 888 889
f 889 789 792
f 790 789 889
f 889 890 790
f 796 891 892
f 892 794 796
f 888 792 794
f 794 892 888
f 782 886 893
f 893 798 782
f 891 796 798
f 798 893 891
f 804 894 895
f 895 801 804
f 802 801 895
f 895 896 802
f 810 897 898
f 898 807 810
f 808 807 898
f 898 899 808
f 766 878 900
f 900 812 766
f 879 774 812
f 812 900 879
f 808 899 901
f 901 815 808
f 816 815 901
f 901 902 816
f 816 902 903
f 903 819 816
f 820 819 903
f 903 904 820
f 820 904 905
f 905 823 820
f 824 823 905
f 905 906 824
f 790 890 907
f 907 827 790
f 828 827 907
f 907 908 828
f 828 908 909
f 909 830 828
f 894 804 830
f 830 909 894
f 778 883 910
f 910 832 778
f 897 810 832
f 832 910 897
f 802 896 911
f 911 834 802
f 876 768 834
f 834 911 876
f 824 906 912
f 912 836 824
f 874 762 836
f 836 912 874
f 686 913 914
f 914 689 686
f 913 686 685
f 685 915 913
f 692 916 917
f 917 695 692
f 916 692 691
f 691 918 916
f 697 919 920
f 920 699 697
f 919 697 695
f 695 917 919
f 702 921 922
f 922 705 702
f 921 702 701
f 701 923 921
f 708 924 923
f 923 701 708
f 924 708 707
f 707 925 924
f 712 926 927
f 927 715 712
f 926 712 711
f 711 928 926
f 718 929 928
f 928 711 718
f 929 718 717
f 717 930 929
f 721 931 930
f 930 717 721
f 931 721 705
f 705 922 931
f 723 932 933
f 933 725 723
f 932 723 715
f 715 927 932
f 727 934 935
f 935 729 727
f 934 727 725
f 725 933 934
f 731 936 915
f 915 685 731
f 936 731 729
f 729 935 936
f 733 937 938
f 938 735 733
f 937 733 699
f 699 920 937
f 737 939 940
f 940 739 737
f 939 737 735
f 735 938 939
f 742 941 918
f 918 691 742
f 941 742 741
f 741 942 941
f 745 943 942
f 942 741 745
f 943 745 689
f 689 914 943
f 747 944 945
f 945 749 747
f 944 747 739
f 739 940 944
f 751 946 947
f 947 753 751
f 946 751 749
f 749 945 946
f 755 948 949
f 949 757 755
f 948 755 753
f 753 947 948
f 759 950 951
f 951 761 759
f 950 759 757
f 757 949 950
f 764 952 953
f 953 767 764
f 952 764 763
f 763 954 952
f 770 955 956
f 956 773 770
f 955 770 769
f 769 957 955
f 776 958 957
f 957 769 776
f 958 776 775
f 775 959 958
f 780 960 961
f 961 783 780
f 960 780 779
f 779 962 960
f 785 963 925
f 925 707 785
f 963 785 783
f 783 961 963
f 788 964 965
f 965 791 788
f 964 788 787
f 787 966 964
f 793 967 968
f 968 795 793
f 967 793 791
f 791 965 967
f 797 969 962
f 962 779 797
f 969 797 795
f 795 968 969
f 800 970 971
f 971 803 800
f 970 800 799
f 799 972 970
f 806 973 974
f 974 809 806
f 973 806 805
f 805 975 973
f 811 976 954
f 954 763 811
f 976 811 773
f 773 956 976
f 814 977 975
f 975 805 814
f 977 814 813
f 813 978 977
f 818 979 978
f 978 813 818
f 979 818 817
f 817 980 979
f 822 981 980
f 980 817 822
f 981 822 821
f 821 982 981
f 826 983 966
f 966 787 826
f 983 826 825
f 825 984 983
f 829 985 984
f 984 825 829
f 985 829 803
f 803 971 985
f 831 986 959
f 959 775 831
f 986 831 809
f 809 974 986
f 833 987 972
f 972 799 833
f 987 833 767
f 767 953 987
f 835 988 982
f 982 821 835
f 988 835 761
f 761 951 988
f 989 537 536
f 536 990 989
f 913 989 990
f 990 914 913
f 989 913 915
f 915 991 989
f 537 989 991
f 991 538 537
f 992 543 542
f 542 993 992
f 916 992 993
f 993 917 916
f 992 916 918
f 918 994 992
f 543 992 994
f 994 544 543
f 995 548 547
f 547 996 995
f 919 995 996
f 996 920 919
f 995 919 917
f 917 993 995
f 548 995 993
f 993 542 548
f 997 553 552
f 552 998 997
f 921 997 998
f 998 922 921
f 997 921 923
f 923 999 997
f 553 997 999
f 999 554 553
f 1000 557 554
f 554 999 1000
f 924 1000 999
f 999 923 924
f 1000 924 925
f 925 1001 1000
f 557 1000 1001
f 1001 558 557
f 1002 563 562
f 562 1003 1002
f 926 1002 1003
f 1003 927 926
f 1002 926 928
f 928 1004 1002
f 563 1002 1004
f 1004 564 563
f 1005 567 564
f 564 1004 1005
f 929 1005 1004
f 1004 928 929
f 1005 929 930
f 930 1006 1005
f 567 1005 1006
f 1006 568 567
f 1007 570 568
f 568 1006 1007
f 931 1007 1006
f 1006 930 931
f 1007 931 922
f 922 998 1007
f 570 1007 998
f 998 552 570
f 1008 574 573
f 573 1009 1008
f 932 1008 1009
f 1009 933 932
f 1008 932 927
f 927 1003 1008
f 574 1008 1003
f 1003 562 574
f 1010 578 577
f 577 1011 1010
f 934 1010 1011
f 1011 935 934
f 1010 934 933
f 933 1009 1010
f 578 1010 1009
f 1009 573 578
f 1012 580 538
f 538 991 1012
f 936 1012 991
f 991 915 936
f 1012 936 935
f 935 1011 1012
f 580 1012 1011
f 1011 577 580
f 1013 584 583
f 583 1014 1013
f 937 1013 1014
f 1014 938 937
f 1013 937 920
f 920 996 1013
f 584 1013 996
f 996 547 584
f 1015 588 587
f 587 1016 1015
f 939 1015 1016
f 1016 940 939
f 1015 939 938
f 938 1014 1015
f 588 1015 1014
f 1014 583 588
f 1017 591 544
f 544 994 1017
f 941 1017 994
f 994 918 941
f 1017 941 942
f 942 1018 1017
f 591 1017 1018
f 1018 592 591
f 1019 594 592
f 592 1018 1019
f 943 1019 1018
f 1018 942 943
f 1019 943 914
f 914 990 1019
f 594 1019 990
f 990 536 594
f 1020 598 597
f 597 1021 1020
f 944 1020 1021
f 1021 945 944
f 1020 944 940
f 940 1016 1020
f 598 1020 1016
f 1016 587 598
f 1022 602 601
f 601 1023 1022
f 946 1022 1023
f 1023 947 946
f 1022 946 945
f 945 1021 1022
f 602 1022 1021
f 1021 597 602
f 1024 606 605
f 605 1025 1024
f 948 1024 1025
f 1025 949 948
f 1024 948 947
f 947 1023 1024
f 606 1024 1023
f 1023 601 606
f 1026 610 609
f 609 1027 1026
f 950 1026 1027
f 1027 951 950
f 1026 950 949
f 949 1025 1026
f 610 1026 1025
f 1025 605 610
f 1028 615 614
f 614 1029 1028
f 952 1028 1029
f 1029 953 952
f 1028 952 954
f 954 1030 1028
f 615 1028 1030
f 1030 616 615
f 1031 621 620
f 620 1032 1031
f 955 1031 1032
f 1032 956 955
f 1031 955 957
f 957 1033 1031
f 621 1031 1033
f 1033 622 621
f 1034 625 622
f 622 1033 1034
f 958 1034 1033
f 1033 957 958
f 1034 958 959
f 959 1035 1034
f 625 1034 1035
f 1035 626 625
f 1036 631 630
f 630 1037 1036
f 960 1036 1037
f 1037 961 960
f 1036 960 962
f 962 1038 1036
f 631 1036 1038
f 1038 632 631
f 1039 634 558
f 558 1001 1039
f 963 1039 1001
f 1001 925 963
f 1039 963 961
f 961 1037 1039
f 634 1039 1037
f 1037 630 634
f 1040 639 638
f 638 1041 1040
f 964 1040 1041
f 1041 965 964
f 1040 964 966
f 966 1042 1040
f 639 1040 1042
f 1042 640 639
f 1043 644 643
f 643 1044 1043
f 967 1043 1044
f 1044 968 967
f 1043 967 965
f 965 1041 1043
f 644 1043 1041
f 1041 638 644
f 1045 646 632
f 632 1038 1045
f 969 1045 1038
f 1038 962 969
f 1045 969 968
f 968 1044 1045
f 646 1045 1044
f 1044 643 646
f 1046 651 650
f 650 1047 1046
f 970 1046 1047
f 1047 971 970
f 1046 970 972
f 972 1048 1046
f 651 1046 1048
f 1048 652 651
f 1049 657 656
f 656 1050 1049
f 973 1049 1050
f 1050 974 973
f 1049 973 975
f 975 1051 1049
f 657 1049 1051
f 1051 658 657
f 1052 660 616
f 616 1030 1052
f 976 1052 1030
f 1030 954 976
f 1052 976 956
f 956 1032 1052
f 660 1052 1032
f 1032 620 660
f 1053 663 658
f 658 1051 1053
f 977 1053 1051
f 1051 975 977
f 1053 977 978
f 978 1054 1053
f 663 1053 1054
f 1054 664 663
f 1055 667 664
f 664 1054 1055
f 979 1055 1054
f 1054 978 979
f 1055 979 980
f 980 1056 1055
f 667 1055 1056
f 1056 668 667
f 1057 671 668
f 668 1056 1057
f 981 1057 1056
f 1056 980 981
f 1057 981 982
f 982 1058 1057
f 671 1057 1058
f 1058 672 671
f 1059 675 640
f 640 1042 1059
f 983 1059 1042
f 1042 966 983
f 1059 983 984
f 984 1060 1059
f 675 1059 1060
f 1060 676 675
f 1061 678 676
f 676 1060 1061
f 985 1061 1060
f 1060 984 985
f 1061 985 971
f 971 1047 1061
f 678 1061 1047
f 1047 650 678
f 1062 680 626
f 626 1035 1062
f 986 1062 1035
f 1035 959 986
f 1062 986 974
f 974 1050 1062
f 680 1062 1050
f 1050 656 680
f 1063 682 652
f 652 1048 1063
f 987 1063 1048
f 1048 972 987
f 1063 987 953
f 953 1029 1063
f 682 1063 1029
f 1029 614 682
f 1064 684 672
f 672 1058 1064
f 988 1064 1058
f 1058 982 988
f 1064 988 951
f 951 1027 1064
f 684 1064 1027
f 1027 609 684
f 310 309 458
f 458 477 310
f 316 315 460
f 460 483 316
f 314 320 462
f 462 459 314
f 326 325 464
f 464 465 326
f 330 329 466
f 466 503 330
f 336 335 468
f 468 469 336
f 340 339 470
f 470 471 340
f 324 342 472
f 472 463 324
f 334 346 474
f 474 467 334
f 345 350 476
f 476 473 345
f 349 352 478
f 478 475 349
f 319 356 480
f 480 461 319
f 355 360 482
f 482 479 355
f 364 363 484
f 484 485 364
f 308 366 486
f 486 457 308
f 359 370 488
f 488 481 359
f 369 374 490
f 490 487 369
f 373 378 492
f 492 489 373
f 377 382 494
f 494 491 377
f 388 387 496
f 496 515 388
f 394 393 498
f 498 499 394
f 398 397 500
f 500 527 398
f 404 403 502
f 502 509 404
f 402 406 504
f 504 501 402
f 412 411 506
f 506 523 412
f 410 416 508
f 508 505 410
f 415 418 510
f 510 507 415
f 424 423 512
f 512 529 424
f 430 429 514
f 514 517 430
f 392 432 516
f 516 497 392
f 436 435 518
f 518 519 436
f 440 439 520
f 520 521 440
f 444 443 522
f 522 531 444
f 448 447 524
f 524 525 448
f 422 450 526
f 526 511 422
f 428 452 528
f 528 513 428
f 386 454 530
f 530 495 386
f 381 456 532
f 532 493 381
f 1095 1094 1093
f 1093 1070 1069
f 1069 1068 1072
f 1093 1069 1072
f 1072 1071 1090
f 1090 1089 1092
f 1072 1090 1092
f 1092 1091 1097
f 1097 1096 1099
f 1092 1097 1099
f 1072 1092 1099
f 1099 1098 1101
f 1101 1100 1103
f 1099 1101 1103
f 1103 1102 1140
f 1140 1134 1133
f 1103 1140 1133
f 1099 1103 1133
f 1072 1099 1133
f 1133 1132 1131
f 1131 1130 1129
f 1133 1131 1129
f 1129 1127 1126
f 1126 1125 1138
f 1129 1126 1138
f 1133 1129 1138
f 1138 1111 1110
f 1110 1109 1108
f 1138 1110 1108
f 1108 1107 1128
f 1128 1106 1105
f 1108 1128 1105
f 1138 1108 1105
f 1133 1138 1105
f 1105 1104 1139
f 1139 1124 1123
f 1105 1139 1123
f 1123 1122 1137
f 1137 1136 1135
f 1123 1137 1135
f 1105 1123 1135
f 1135 1118 1117
f 1117 1116 1120
f 1135 1117 1120
f 1120 1119 1121
f 1121 1114 1113
f 1120 1121 1113
f 1135 1120 1113
f 1105 1135 1113
f 1113 1112 1115
f 1115 1077 1076
f 1113 1115 1076
f 1076 1075 1074
f 1074 1073 1083
f 1076 1074 1083
f 1113 1076 1083
f 1083 1082 1081
f 1081 1080 1079
f 1083 1081 1079
f 1079 1078 1085
f 1085 1084 1087
f 1079 1085 1087
f 1083 1079 1087
f 1113 1083 1087
f 1105 1113 1087
f 1133 1105 1087
f 1072 1133 1087
f 1087 1086 1088
f 1088 1067 1066
f 1087 1088 1066
f 1072 1087 1066
f 1093 1072 1066
f 1095 1093 1066
f 1065 1095 1066
f 1141 1164 1163
f 1163 1162 1161
f 1161 1160 1156
f 1163 1161 1156
f 1156 1155 1154
f 1154 1158 1157
f 1156 1154 1157
f 1157 1159 1151
f 1151 1150 1149
f 1157 1151 1149
f 1156 1157 1149
f 1149 1153 1152
f 1152 1191 1190
f 1149 1152 1190
f 1190 1189 1188
f 1188 1197 1196
f 1190 1188 1196
f 1149 1190 1196
f 1156 1149 1196
f 1196 1195 1194
f 1194 1193 1192
f 1196 1194 1192
f 1192 1212 1211
f 1211 1213 1200
f 1192 1211 1200
f 1196 1192 1200
f 1200 1199 1198
f 1198 1215 1182
f 1200 1198 1182
f 1182 1181 1180
f 1180 1204 1185
f 1182 1180 1185
f 1200 1182 1185
f 1196 1200 1185
f 1185 1184 1183
f 1183 1187 1186
f 1185 1183 1186
f 1186 1214 1203
f 1203 1202 1201
f 1186 1203 1201
f 1185 1186 1201
f 1201 1206 1205
f 1205 1208 1207
f 1201 1205 1207
f 1207 1210 1209
f 1209 1216 1179
f 1207 1209 1179
f 1201 1207 1179
f 1185 1201 1179
f 1179 1178 1177
f 1177 1176 1175
f 1179 1177 1175
f 1175 1174 1173
f 1173 1172 1168
f 1175 1173 1168
f 1179 1175 1168
f 1168 1167 1166
f 1166 1165 1148
f 1168 1166 1148
f 1148 1147 1146
f 1146 1145 1144
f 1148 1146 1144
f 1168 1148 1144
f 1179 1168 1144
f 1185 1179 1144
f 1196 1185 1144
f 1156 1196 1144
f 1144 1170 1169
f 1169 1171 1143
f 1144 1169 1143
f 1156 1144 1143
f 1163 1156 1143
f 1141 1163 1143
f 1142 1141 1143

