# https://github.com/mikedh/trimesh
v -10.73257160 235.59942627 22.44489098
v -13.61318111 235.93705750 20.89868164
v -19.07416153 223.27027893 30.07220078
v -15.34423161 219.88900757 33.99670029
v -16.23789215 236.33190918 18.99030113
v -22.30234146 225.32270813 26.70837021
v -18.56043243 236.77442932 16.71338081
v -24.68055153 226.56047058 23.44562149
v -20.55611229 237.25119019 14.10303020
v -26.58231163 227.40148926 19.90130997
v -24.74129295 239.27709961 1.33789039
v -24.69724274 239.77416992 -2.07409692
v -32.07756042 231.26818848 -3.06945777
v -31.90520287 230.54856873 1.83251929
v -24.17460251 240.25502014 -5.42169189
v -31.61239243 231.98962402 -7.97533989
v -23.15905190 240.71405029 -8.63001060
v -30.44502258 232.70373535 -12.69513035
v -21.66397285 241.14562988 -11.64160061
v -28.62033272 233.39846802 -17.10198975
v -11.51815128 242.47882080 -20.76513863
v -8.20538521 242.68643188 -22.17779922
v -11.28366089 236.74234009 -31.79644966
v -15.55310154 236.19363403 -29.89000893
v -5.02910328 242.83129883 -23.16918945
v -7.12257814 237.03755188 -33.23596191
v -2.37989450 242.90573120 -23.68182945
v -3.43901753 236.98056030 -34.24579239
v 0.00577738 242.92532349 -23.81835938
v 0.00578196 236.86398315 -34.64331055
v -32.43031311 229.66355896 -20.38219833
v -26.18325233 234.06172180 -21.06927872
v -29.63441277 230.49560547 -24.72643852
v -26.23862267 231.38357544 -28.38354874
v -29.67479134 222.06716919 -33.93017197
v -33.49653244 220.62701416 -29.89006996
v -22.22442245 232.39495850 -31.40392876
v -25.45894241 223.28764343 -37.26092148
v -23.15623283 234.74256897 -24.54558945
v -19.56174278 235.49012756 -27.47942924
v -17.75559235 233.32240295 -33.93799210
v -20.74176216 224.33435059 -40.05920029
v -12.99590111 233.95860291 -36.13562012
v -8.30500126 234.23883057 -37.95819092
v -9.96957207 225.94143677 -44.35864258
v -15.41604137 225.25305176 -42.50177002
v -4.04250622 234.09841919 -39.36670303
v -1.37729037 168.60887146 51.56847763
v -3.17535949 181.59663391 49.32880020
v -5.64986038 181.26672363 49.21917725
v -2.46668839 169.14254761 51.46075058
v 0.00574047 181.79258728 49.41082764
v 0.00573408 168.47656250 51.60747910
v 0.00574761 190.51753235 47.51348877
v -3.87653255 190.38632202 47.38360977
v -6.86664200 190.16137695 47.20006943
v -4.63888407 200.36840820 44.44182968
v -8.19921875 200.09130859 44.24639893
v 0.00575251 200.52928162 44.58385849
v 0.00575527 209.61572266 41.42095947
v -5.13194609 209.40260315 41.28319931
v -10.10006142 210.10102844 40.57909775
v -36.58470154 227.12350464 -3.93353295
v -36.32504272 226.29669189 1.84954810
v -36.09183121 227.97125244 -9.73352051
v -42.31859207 214.64535522 -12.18640041
v -43.57391357 212.43270874 -5.47674561
v -35.51436234 225.51071167 7.36572170
v -43.83957291 208.12825012 7.75695801
v -43.22955322 206.03941345 13.97632027
v -34.26915359 224.72080994 12.60637951
v -29.94955254 229.09417725 11.13439846
v -31.16006279 229.83984375 6.54083157
v -43.99931335 210.25093079 1.19751000
v -11.49359131 188.83312988 47.63702011
v -12.89335155 198.42816162 44.94793701
v -14.61840153 206.86100769 41.99761963
v -23.59699249 190.31672668 44.80187988
v -20.28042221 186.14801025 47.03277969
v -13.15821075 214.96014404 37.74895859
v -16.90672302 212.49134827 39.13842773
v -19.76106262 216.22883606 36.17699814
v -30.42109299 195.22758484 39.43395996
v -27.00476265 193.16111755 42.25402832
v -23.18417168 218.98309326 32.92023087
v -28.93760300 222.13247681 25.94659042
v -26.47627258 220.90179443 29.47461128
v -30.90264130 223.01324463 22.06616020
v -10.18110085 179.71623230 49.71300888
v -36.93190384 218.91040039 -24.93316841
v -36.76127243 198.73953247 32.98791885
v -33.76332092 197.06250000 36.38660049
v -39.98858261 216.86054993 -18.85180855
v -41.69324112 202.00805664 -30.18535805
v -45.65907288 199.14160156 -23.56481934
v -49.18039322 195.50251770 -15.76714993
v -50.71376038 193.05438232 -7.65539742
v -51.15390396 187.79550171 6.06512403
v -51.26502228 190.45970154 -0.60040307
v -50.57140350 185.17869568 12.18963623
v -40.97271347 202.01435852 24.68750000
v -48.38190079 180.41172791 22.53809166
v -46.40839386 178.20898438 27.11700058
v -39.14474106 200.33233643 29.11407089
v -43.86271286 176.14897156 31.33710098
v -40.81963348 174.26275635 35.17760849
v -25.51541138 167.62504578 46.64574814
v -29.89521217 169.15397644 44.25164795
v -20.61389160 166.19956970 48.81713867
v -17.25572205 180.95988464 48.89831924
v -9.16657925 163.89311218 52.45177841
v -5.27475405 166.26452637 52.46709824
v -14.72356129 175.05723572 50.35046005
v -15.11973095 164.88035583 50.79718018
v -34.64492035 228.82002258 -15.30053997
v -22.79351234 209.30180359 -46.05583954
v -27.73162270 207.95881653 -43.40637207
v -37.42490387 172.49328613 38.60936737
v -33.82423401 170.78353882 41.60338974
v -2.77142644 164.85794067 52.79998779
v -37.14302063 204.41313171 -35.67102051
v -32.36895370 206.38674927 -40.06396103
v -4.25984716 161.77404785 53.11492920
v 0.00573082 160.98323059 53.28424072
v 0.00573314 164.33071899 52.93462753
v -17.11712265 210.58822632 -48.36993027
v -11.19830132 211.67927551 -50.21594238
v -4.89013433 226.29733276 -45.39990234
v -5.53290224 212.43621826 -51.46118164
v 0.00578638 212.73115540 -51.93358994
v 0.00578244 226.39215088 -45.71655273
v -53.26440048 128.57574463 -12.86602974
v -53.59570312 137.21063232 -12.32458973
v -52.73887253 141.84980774 -48.10571289
v -52.36963272 135.90339661 -48.35937119
v -53.64813232 146.43727112 -12.27521038
v -52.73161316 147.97999573 -48.01459122
v -50.19091034 148.57240295 -70.08300781
v -50.25909042 144.32792664 -70.08300781
v -49.95585251 140.09291077 -70.08300781
v -46.24499130 165.04890442 -70.08300781
v -47.77055359 161.06373596 -70.08300781
v -50.50187302 164.89350891 -48.77447128
v -49.18248367 169.40953064 -49.39501953
v -48.94222260 156.97001648 -70.08300781
v -51.58527374 159.76757812 -48.32329941
v -52.93214035 164.50163269 -13.42242050
v -52.32092285 171.44082642 -14.72985935
v -51.51562119 176.85620117 -16.56951904
v -50.46481323 180.93563843 -18.96607018
v -47.72718048 173.29745483 -50.14795303
v -49.33946228 183.98062134 -21.49139977
v -46.03637314 176.70846558 -51.01349258
v -42.17526245 172.58114624 -70.08300781
v -44.37510300 168.89692688 -70.08300781
v -7.66412830 91.24363708 -50.58966064
v -11.83844090 91.62330627 -49.61365128
v -10.11691093 94.55227661 -60.23578262
v -6.06744623 94.00111389 -60.54828262
v -16.22300148 92.12165833 -48.24133301
v -14.58106136 95.36524200 -59.78319931
v -12.30643082 97.17384338 -70.08300781
v -8.00580311 96.16056061 -70.08300781
v -4.28391027 95.50442505 -70.08300781
v -2.83593154 93.71397400 -60.71173096
v -3.76130939 90.99382019 -51.19989014
v -1.82366133 95.21936035 -70.08300781
v 0.00576650 95.16960144 -70.08300781
v 0.00576760 93.63560486 -60.75622177
v 0.00576429 90.90136719 -51.41350937
v -34.81429291 103.32226562 -55.83905029
v -37.06115341 96.96617126 -35.78296280
v -40.91859055 98.79841614 -31.97173882
v -38.17953110 105.72094727 -54.73529053
v -34.92578125 110.03376770 -70.08300781
v -31.67173195 107.15437317 -70.08300781
v -28.17732239 104.54653931 -70.08300781
v -31.19327164 101.20345306 -56.82678223
v -32.99908066 95.47392273 -39.23285294
v -27.36117172 99.35235596 -57.71362305
v -29.13291168 94.34085083 -42.00146103
v -24.46641159 102.22969055 -70.08300781
v -20.56596184 100.21916962 -70.08300781
v -23.31671143 97.77128601 -58.50334930
v -25.15470123 93.46080017 -44.32556152
v -19.02256203 96.43987274 -59.19946289
v -20.75657272 92.72761536 -46.44201279
v -16.50289154 98.53030396 -70.08300781
v -49.54954147 106.81187439 -20.43212891
v -50.75507355 110.01829529 -18.02483940
v -49.22239304 121.06814575 -50.06378174
v -47.65684128 117.31890869 -50.81291962
v -51.83609390 114.63793182 -15.71356106
v -50.57113266 125.41981506 -49.35785294
v -48.24358368 131.77073669 -70.08300781
v -46.84668350 127.74243927 -70.08300781
v -45.10242081 123.84059143 -70.08300781
v -46.77654266 188.32069397 -26.31299019
v -44.13581085 190.51390076 -29.94841957
v -38.31158066 185.47621155 -54.50091171
v -41.48605347 182.67915344 -53.10614014
v -40.66733170 192.61596680 -34.01396942
v -34.74844360 188.02883911 -55.85284042
v -30.41290283 185.17739868 -70.08300781
v -33.75787354 182.39533997 -70.08300781
v -36.84777069 179.35430908 -70.08300781
v -52.33793259 154.04057312 -48.07860947
v -53.40075302 155.85070801 -12.62268066
v -49.75048065 152.79634094 -70.08300781
v -36.65002060 194.37059021 -37.90039062
v -31.13282204 190.15554810 -56.85869980
v -32.23740387 195.86206055 -41.39995956
v -27.28390312 192.00897217 -57.70154190
v -23.05208206 189.88612366 -70.08300781
v -26.83562279 187.67988586 -70.08300781
v -27.58300209 197.17457581 -44.30511093
v -23.04897308 193.72407532 -58.56439209
v -22.49332237 198.39654541 -46.87268066
v -18.53008270 195.22554016 -59.34527206
v -15.01612091 193.34054565 -70.08300781
v -19.08834267 191.77949524 -70.08300781
v -16.77491188 199.61637878 -49.35943222
v -13.78996086 196.48199463 -59.94226074
v -10.90684128 200.63679504 -51.38970947
v -9.01894093 197.46655273 -60.36371231
v -6.96345139 195.39575195 -70.08300781
v -10.90715122 194.54989624 -70.08300781
v -48.33690262 104.75184631 -22.43914986
v -45.94629288 114.15403748 -51.51733017
v -43.88034058 111.29107666 -52.35400009
v -46.68730164 103.05836487 -24.76269913
v -5.36818123 201.26057434 -52.58722305
v -4.46086216 198.08042908 -60.61786270
v 0.00577947 198.28768921 -60.70312119
v 0.00577964 201.47329712 -52.97796249
v -44.00619125 179.79887390 -51.97156143
v -48.31057358 186.29261780 -23.71722984
v -49.95910263 106.69024658 -18.72802925
v -51.00348282 109.87374115 -16.61852837
v -51.98813248 114.47941589 -14.55370998
v -52.41345215 171.42999268 -13.77887058
v -51.67428207 176.88937378 -15.46900082
v -52.99169159 164.46363831 -12.55872059
v -53.45168304 155.78631592 -11.78680038
v -53.69447327 146.34271240 -11.43988037
v -53.62112045 137.07746887 -11.49505997
v -53.28657150 128.41238403 -12.00440025
v -52.67520142 120.93762970 -13.99481106
v -52.74569321 120.76933289 -13.01978016
v -50.73153305 181.04580688 -17.65143013
v -49.70934296 184.28958130 -19.95934868
v -44.48928070 191.89910889 -28.63482857
v -47.19360352 189.46322632 -24.65081978
v -40.91887283 194.14102173 -33.14459229
v -41.24179077 108.42828369 -53.50012207
v -44.17091370 100.95150757 -28.11919975
v -41.90027237 163.32116699 34.33391953
v -41.57742310 166.83474731 34.60083008
v -44.50078201 169.01658630 30.70477104
v -44.77972031 165.55197144 30.42119980
v -42.22523117 159.70855713 34.05762100
v -45.07124329 161.89715576 30.12653160
v -39.03382111 157.64787292 37.55114746
v -38.67295074 161.26701355 37.81646729
v -38.30370331 164.85906982 38.07464981
v -35.19973373 159.51220703 40.84722900
v -34.78770065 163.16853333 41.10137939
v -35.59835052 155.85266113 40.58697891
v -31.75609207 154.29284668 43.30535889
v -31.33332253 157.99493408 43.55236816
v -30.89601135 161.68601990 43.79406738
v -26.92644310 156.65341187 46.05817032
v -26.49529266 160.33445740 46.26574707
v -27.34432220 152.93826294 45.84661865
v -22.16069221 151.74909973 48.24657822
v -21.79276276 155.42767334 48.41521835
v -21.41516304 159.04617310 48.57513046
v -15.74592113 154.25784302 50.67419052
v -15.48527145 157.75346375 50.78051758
v -16.00289154 150.68554688 50.54064941
v -9.84875393 149.78631592 52.32690048
v -9.71234322 153.24925232 52.41771698
v -9.57716179 156.59707642 52.47118759
v -52.73446274 109.61396790 -6.52124119
v -52.31432343 109.64811707 -10.48114014
v -52.03126144 106.53057098 -10.99237061
v -52.57999039 106.54899597 -6.73224068
v -52.91127396 109.61765289 -2.02679515
v -52.76746368 106.61979675 -2.19390893
v -53.07567215 113.99484253 -1.82806373
v -52.92250061 114.09142303 -6.27502632
v -52.62597275 114.19801331 -9.93780994
v -51.63028336 109.74253845 -13.97552967
v -50.97199249 106.58706665 -15.28625965
v -52.28298187 114.33006287 -12.66296005
v -50.40747070 104.59909058 -16.28710938
v -51.77944183 104.57272339 -11.36273003
v -49.02235031 104.66686249 -20.39580917
v -47.34895325 101.24143219 -22.79504967
v -49.54260254 100.63697815 -17.14721870
v -51.12540054 100.63029480 -11.88104057
v -52.23851395 180.41656494 -6.72076511
v -51.86576080 184.54560852 -7.01867867
v -51.28515244 185.14518738 -12.64929008
v -51.80831146 181.03985596 -11.77747059
v -52.54710388 176.01736450 -6.49011421
v -52.23254395 176.68887329 -10.99689007
v -52.67978287 174.73474121 -0.89123607
v -52.40074158 179.10894775 -0.78302002
v -52.09855270 183.08932495 -0.71887207
v -50.56905365 172.23281860 16.66588974
v -50.31622314 175.89070129 16.95672989
v -51.26412201 178.21315002 11.64324856
v -51.54487228 174.44949341 11.40014553
v -50.82925034 168.24943542 16.36504936
v -51.82317352 170.35762024 11.14318752
v -49.39814377 166.20649719 21.14594078
v -49.15167236 170.09159851 21.47887993
v -48.92117310 173.65319824 21.80115128
v -5.92027903 108.49096680 52.87725830
v -12.01105118 108.56774139 51.70373917
v -12.05472088 106.84255219 51.64545059
v -5.95249939 106.81463623 52.81372070
v 0.00572620 108.46290588 53.25487900
v 0.00572791 106.80454254 53.19060898
v 0.00572539 111.01078796 53.32909775
v -5.80668640 111.06228638 52.95623779
v -11.83221149 111.20284271 51.78704834
v -4.89537907 135.47082520 53.34362793
v -10.34612083 135.98361206 52.25922012
v -10.56211090 130.56130981 52.30053711
v -5.00764608 130.08343506 53.42614746
v 0.00573597 135.29583740 53.66503906
v 0.00573544 129.91232300 53.76287842
v 0.00573521 140.49897766 53.52489853
v -4.81863213 140.68623352 53.22875977
v -10.17336082 141.22784424 52.20330811
v -52.05474091 133.52867126 14.14476967
v -52.08258057 141.53021240 14.64416027
v -53.12662125 142.58615112 9.71447659
v -53.05262375 134.24172974 9.31701565
v -51.90595245 126.06748962 13.67577934
v -52.84377289 126.51612854 8.94287109
v -50.52612305 125.59054565 18.26403999
v -50.61981201 132.79222107 18.77484131
v -50.60493088 140.45912170 19.30939102
v -43.76958084 130.28950500 32.22375107
v -43.64466095 136.98258972 32.62646103
v -46.34572220 138.14236450 28.59448051
v -46.41351318 131.12629700 28.15289116
v -43.81857300 123.89883423 31.83838081
v -46.40038300 124.46942139 27.72565079
v -40.96875381 123.35063171 35.46093750
v -40.84890366 129.49237061 35.81261826
v -40.65211105 135.88037109 36.18541718
v -37.71402359 128.76162720 38.96312714
v -37.44412231 134.87986755 39.30321884
v -37.90154266 122.84162903 38.64196777
v -34.26851273 122.35614014 41.60644913
v -34.04716110 128.07324219 41.88439941
v -33.73834229 133.95072937 42.17456055
v -29.53056145 127.40315247 44.78588867
v -29.25244141 133.06272888 44.99437714
v -29.72122192 121.87844849 44.57964706
v -24.23024178 121.39724731 47.43249893
v -24.04869270 126.73297882 47.57848740
v -23.80104256 132.19093323 47.71038818
v -17.48603249 126.04444885 50.17333984
v -17.19875145 131.31045532 50.27050781
v -17.76611137 120.90129089 50.03557968
v -11.20044136 120.47285461 52.07268906
v -10.86014080 125.45092773 52.21905899
v -40.64296341 96.14771271 -31.59734917
v -44.01571274 98.14451599 -27.57061958
v -20.67441177 90.79589081 -46.01367188
v -25.02622223 91.44424438 -43.98749161
v -16.17054176 90.26434326 -47.70812988
v -36.78515244 94.50300598 -35.46905136
v -32.77870178 93.19541168 -38.92198944
v -38.00277328 105.39416504 37.84589005
v -37.65715408 101.32626343 37.24279785
v -34.08570099 101.32487488 40.36523056
v -34.44228363 105.39250946 40.89086914
v -38.28875351 107.05088043 37.90356064
v -34.73975372 107.02027130 40.93426895
v -41.19279099 107.07224274 34.69475937
v -40.93400192 105.38540649 34.63518906
v -40.61490250 101.31893158 33.96527100
v -43.62701035 105.36494446 30.98633003
v -43.31586075 101.30194092 30.27057076
v -43.87201309 107.08386993 31.03333092
v -46.30121231 107.07855225 26.84552002
v -46.06589127 105.32635498 26.81110001
v -45.74875259 101.26974487 26.07397079
v -51.35352325 105.07646942 12.60692978
v -50.95882034 101.05897522 11.93768311
v -49.67339325 101.14573669 16.41387939
v -50.03135300 105.17889404 17.11919975
v -51.54215240 106.92169952 12.66333008
v -50.23520279 106.99636841 17.16479111
v -52.37759399 106.82855225 8.07824707
v -52.20098114 104.95774078 8.00769043
v -51.76078033 100.95832825 7.38659573
v -52.57346344 104.82444763 2.84454322
v -52.08142090 100.84564209 2.28521705
v -52.74302292 106.72045898 2.93438697
v -52.60393143 104.70101166 -2.30737281
v -52.06515121 100.74177551 -2.80236793
v -29.86150169 105.38171387 44.04224014
v -30.12571144 106.98097229 44.06139755
v -29.54362297 101.31581116 43.59436035
v -24.15972137 101.30184937 46.64508057
v -24.42075157 105.36497498 47.03966904
v -24.63224220 106.93542480 47.04578018
v -18.28035164 105.34545135 49.62273788
v -18.44493294 106.88604736 49.64831924
v -18.06282234 101.28579712 49.23229980
v -11.77089119 101.27143097 51.17724991
v -11.93820095 105.32788086 51.58849716
v -5.89219618 105.31697083 52.73389053
v -5.80185318 101.26255798 52.30175781
v 0.00573266 101.25950623 52.65893936
v 0.00573132 105.31317139 53.10149765
v -5.02524614 215.34866333 38.68787003
v -4.42057133 220.56092834 35.51427841
v -8.49096775 220.34204102 35.12738037
v -9.29304695 215.34397888 38.19989014
v 0.00575721 215.56488037 38.82373047
v 0.00575889 220.73336792 35.64648056
v -12.03444099 216.19487000 37.27941895
v -11.84950161 220.37519836 34.49596786
v -4.68941641 235.13684082 24.44976997
v -7.64233637 235.32852173 23.63531113
v -17.32407188 241.90309143 -16.86236954
v -14.57679081 242.21615601 -18.98870850
v -19.70272255 241.54411316 -14.39954090
v -49.70849228 182.72621155 17.62140083
v -42.30412292 203.95907593 19.63080025
v -28.38114166 228.26371765 15.69274998
v -32.70586395 223.88217163 17.56305122
v -23.46466255 238.25775146 8.05139065
v -24.32105255 238.76943970 4.73956299
v -22.20027161 237.74865723 11.19415283
v -32.31542206 197.56642151 -41.00067139
v -27.75352287 198.86251831 -43.86462021
v -22.76023293 200.05274963 -46.34350204
v -16.99910164 201.29022217 -48.84228134
v -11.03283119 202.34808350 -50.93554306
v -51.54116058 184.61555481 5.84802198
v -50.93751144 182.00167847 11.92071438
v -51.71349335 187.09757996 -0.67419505
v -51.87812042 180.79560852 5.62652588
v -34.30352402 167.21832275 41.37188721
v -30.39017296 165.67570496 44.04327011
v -37.86621094 168.90299988 38.35863876
v -41.20314407 170.76583862 34.90118027
v -44.19072342 172.80282593 31.02856064
v -49.58270264 188.69985962 -18.56383896
v -50.55035400 189.88800049 -13.59833050
v -48.01189041 192.31132507 -21.20592880
v -48.73182297 187.01106262 -22.02569962
v -50.46212387 184.86880493 -16.98736954
v -5.48619032 207.50784302 -51.82275009
v -11.13578129 206.79995728 -50.55121231
v 0.00578374 207.77029419 -52.28070068
v 0.00578165 203.22351074 -52.62134171
v -5.42413235 202.99945068 -52.19792938
v -37.00330353 200.03916931 -36.50366211
v -41.37034225 197.90794373 -31.63873100
v -32.37006378 201.79354858 -40.53448105
v -36.78240204 196.01136780 -37.34692001
v -27.78463173 203.21469116 -43.61907959
v -22.83285141 204.46977234 -46.16223145
v -17.10062218 205.72607422 -48.56866074
v -26.00126266 164.23916626 46.47478867
v -20.98500252 162.86996460 48.71984863
v -50.03514099 179.59913635 17.29413033
v -48.67682266 177.30339050 22.17499161
v -15.18962097 161.52951050 50.83197021
v -9.42461014 160.23408508 52.44524765
v -4.49947214 159.00000000 53.19408798
v -4.56238317 155.71775818 53.23601913
v 0.00573185 155.34738159 53.38707733
v 0.00573121 158.39830017 53.35235977
v -28.96002197 92.20996094 -41.69250107
v -7.59917927 89.54141235 -49.95611191
v -11.78059101 89.84910583 -49.00769043
v -40.62101364 116.52618408 -70.08300781
v -37.91559219 113.16537476 -70.08300781
v -43.02190399 120.09320068 -70.08300781
v -51.63394165 130.39735413 -48.78326035
v -53.64314270 134.98776245 3.94183302
v -53.38031387 126.97612000 3.69872999
v -53.75148392 143.68429565 4.17315578
v -54.01325226 144.68382263 -1.21661401
v -53.88007355 135.68878174 -1.29058886
v -53.57369232 127.40936279 -1.43084693
v -51.78770065 119.28878021 13.28625011
v -52.68219376 119.54983521 8.62933350
v -51.69852066 113.66351318 12.98577976
v -52.56257248 113.78321075 8.38024902
v -50.37555313 113.51512146 17.49926949
v -50.44313049 118.99760437 17.83234024
v -43.86785126 117.88276672 31.51086044
v -46.39153290 118.26782990 27.36554146
v -43.91038132 112.85163879 31.26245117
v -46.38570404 113.09266663 27.09344101
v -41.18160248 112.60795593 34.92034912
v -41.08432388 117.50617218 35.15570068
v -38.08245087 117.15107727 38.35400009
v -38.23425293 112.37339783 38.12639999
v -34.66319275 112.14193726 41.13970947
v -34.48309326 116.80737305 41.34851074
v -29.90712166 116.46495056 44.38219833
v -30.06323242 111.90759277 44.21905899
v -24.56122208 111.66744232 47.16314697
v -24.40999222 116.11738586 47.28643799
v -18.04715157 115.75817108 49.89324951
v -18.28396225 111.41854095 49.77087021
v -11.54324150 115.44734955 51.91942978
v -53.61955261 136.93325806 -10.59992027
v -53.66142273 136.69180298 -8.90832996
v -53.81018066 145.95817566 -8.92285061
v -53.73373032 146.22041321 -10.58063030
v -53.27555084 128.26020813 -10.96619034
v -53.31338120 128.06629944 -9.11639023
v -53.48912048 155.70872498 -10.93097019
v -53.03469086 164.42883301 -11.60552979
v -53.56207275 155.49421692 -9.23602009
v -53.11592102 164.25839233 -9.73846054
v -43.36757278 143.90592957 33.00646973
v -43.00057220 150.31875610 33.37152100
v -45.78017044 152.15667725 29.38184166
v -46.11184311 145.42160034 28.99719048
v -40.30564117 142.46362305 36.55389023
v -39.88014221 148.56881714 36.90990829
v -37.01604080 141.16508484 39.64782715
v -36.51901245 147.00650024 39.98389053
v -33.26135254 139.98071289 42.46923828
v -32.72004318 145.60615540 42.76049805
v -28.80417252 138.88090515 45.19866943
v -28.28608131 144.34223938 45.40673828
v -23.42296219 137.83743286 47.81372070
v -22.98603249 143.18470764 47.92358017
v -16.89613152 136.82208252 50.29155731
v -16.58881187 142.10362244 50.31212997
v -51.83801270 149.92994690 15.12462997
v -51.47123337 157.63798523 15.57831001
v -52.49762344 159.48364258 10.46758938
v -52.88366318 151.40882874 10.09783936
v -50.36224365 148.44778442 19.81189156
v -50.01599121 155.80706787 20.28729057
v -53.71954346 155.01910400 -5.88244724
v -53.29016113 163.81349182 -6.13305855
v -53.96809387 145.44389343 -5.69171238
v -53.76629257 154.18826294 -1.22711205
v -53.35505295 162.90701294 -1.21368408
v -39.65986252 176.07493591 -70.08300781
v -45.15714264 195.35635376 -26.05187988
v -52.86534119 109.63673401 3.07141089
v -52.47957230 109.65658569 8.19952393
v -52.98866272 113.89288330 3.24975562
v -52.75339127 167.71754456 4.89031982
v -52.99538040 169.54496765 -1.06829906
v -53.10822296 161.35185242 4.59509182
v -52.14244080 165.58445740 10.82421780
v -52.43925095 172.68377686 5.18884182
v -52.42543030 104.61189270 -6.87292576
v -51.85636139 100.66760254 -7.31195259
v -53.81722260 136.26689148 -5.68951416
v -53.48207092 127.77772522 -5.82037544
v -53.50704193 152.90657043 4.37347412
v -51.32192230 189.10447693 -7.39575291
v -46.70532227 175.00999451 26.76971054
v -46.96569061 171.32562256 26.41106987
v -48.44845200 146.94027710 24.51758003
v -48.67922211 139.31552124 24.05750084
v -48.11880112 153.98303223 24.95447159
v -48.54386139 109.59362793 22.15966988
v -50.32809067 109.64491272 17.28417969
v -48.45525360 107.04902649 22.05743027
v -46.38170242 109.51512146 26.92975044
v -48.57269287 113.31933594 22.35382080
v -48.23474121 105.26325989 22.02130127
v -47.90231323 101.21682739 21.29053116
v -48.71816254 131.97598267 23.55713081
v -48.66359329 125.04559326 23.07410049
v -47.78324127 159.57659912 25.38531113
v -49.69044113 161.58581543 20.74036026
v -45.41902161 157.54028320 29.76917076
v -47.47051239 164.07611084 25.77789116
v -49.28199387 135.89738464 -70.08300781
v -51.24268341 181.16506958 -15.33820057
v -51.92743301 176.90658569 -13.80066013
v -53.17776108 120.26595306 -6.02844429
v -53.30101395 120.05172729 -1.61975098
v -52.96361160 120.45288086 -9.47125053
v -51.63691330 109.66261292 12.78386974
v -43.93911362 109.41572571 31.11432076
v -41.24654388 109.30488586 34.77819824
v -38.33447266 109.19198608 37.98669052
v -34.78107071 109.07484436 41.00939941
v -30.16453171 108.95127869 44.11620712
v -24.65718269 108.82151794 47.08495712
v -18.43135262 108.68579102 49.69353867
v -53.16123199 119.80860138 3.46337891
v -48.61385345 118.64836121 22.66577148
v -52.83072281 120.61421204 -11.65680027
v -41.17354202 79.92307281 -28.02837944
v -43.84165192 79.92330170 -23.87047958
v -38.08505249 79.92279053 -31.73485756
v -3.72091937 89.33253479 -50.59723282
v -3.57876348 79.92173004 -49.49481201
v -7.30547523 79.92176056 -48.87243271
v 0.00576294 89.25279999 -50.84094238
v 0.00575662 79.92172241 -49.73712158
v -19.75365257 79.92195892 -45.17346191
v -23.82293129 79.92205048 -43.27667236
v -15.50249100 79.92188263 -46.75616074
v -27.46317291 79.92217255 -41.11614990
v -30.95746231 79.92231750 -38.51880264
v -34.58889389 79.92252350 -35.31170273
v -37.26839066 79.92337036 33.24591064
v -33.71738052 79.92336273 36.82433701
v -40.18781281 79.92337036 29.51403999
v -42.80745316 79.92337036 25.41089058
v -45.09237289 79.92337036 20.96149063
v -49.37374115 79.92337799 7.37567139
v -48.46437073 79.92339325 11.52062988
v -49.74894333 79.92337799 3.26568580
v -48.64601135 79.92334747 -9.85645008
v -49.16079330 79.92336273 -5.83483982
v -47.72819138 79.92334747 -14.00957966
v -46.07663345 79.92336273 -18.93914986
v -29.20298195 79.92336273 40.46673965
v -23.85632133 79.92336273 43.83160019
v -17.80856133 79.92337036 46.57738876
v -11.58282089 79.92336273 48.58044052
v -11.31657124 79.92179871 -47.97430038
v -49.60320282 79.92337036 -1.29943895
v -47.00763321 79.92337036 16.19030952
v 0.00576027 235.01000977 24.97821045
v -2.22076035 235.03697205 24.86810112
v 0.00578141 233.92303467 -39.96739960
v 0.00578441 196.00796509 -70.08300781
v -3.38701558 195.86643982 -70.08300781
v -5.18861628 125.06584167 53.36480713
v 0.00573197 124.92539978 53.71265030
v -5.40484238 120.19427490 53.22747803
v 0.00572876 120.09243774 53.58422852
v -4.61839628 152.50727844 53.22832870
v 0.00573185 152.20295715 53.40039062
v -4.67613125 149.09013367 53.20306015
v 0.00573177 148.79281616 53.41370010
v -5.62287045 115.24490356 53.08208847
v 0.00572634 115.17077637 53.44762802
v -5.70225906 79.92336273 49.71691895
v 0.00572448 79.92336273 50.06842041
v 15.35574913 219.88897705 33.99682999
v 19.08567810 223.27027893 30.07233047
v 13.62469864 235.93705750 20.89868164
v 10.74408913 235.59942627 22.44501114
v 22.31386757 225.32273865 26.70837021
v 16.24941826 236.33190918 18.99030113
v 24.69207764 226.56047058 23.44568062
v 18.57195854 236.77442932 16.71338081
v 26.59382820 227.40145874 19.90130997
v 20.56764793 237.25115967 14.10303020
v 31.91674805 230.54853821 1.83264136
v 32.08908844 231.26815796 -3.06945777
v 24.70877838 239.77413940 -2.07409692
v 24.75282860 239.27706909 1.33795142
v 31.62393761 231.98959351 -7.97533989
v 24.18613815 240.25498962 -5.42169189
v 30.45656776 232.70370483 -12.69501019
v 23.17059708 240.71405029 -8.62987995
v 28.63188744 233.39843750 -17.10192871
v 21.67551804 241.14566040 -11.64160061
v 15.56465912 236.19363403 -29.88994789
v 11.29521847 236.74237061 -31.79644966
v 8.21693993 242.68643188 -22.17779922
v 11.52969837 242.47882080 -20.76513863
v 7.13413763 237.03755188 -33.23590088
v 5.04065990 242.83129883 -23.16918945
v 3.45057964 236.98056030 -34.24579239
v 2.39145064 242.90573120 -23.68182945
v 36.94343948 218.91036987 -24.93316841
v 33.50807953 220.62698364 -29.89006996
v 29.64595795 230.49554443 -24.72643852
v 32.44186783 229.66349792 -20.38219833
v 29.68633842 222.06713867 -33.93017197
v 26.25018692 231.38354492 -28.38354874
v 23.16778755 234.74256897 -24.54546928
v 26.19480705 234.06170654 -21.06927872
v 25.47048759 223.28762817 -37.26092148
v 22.23598862 232.39492798 -31.40392876
v 19.57328796 235.49014282 -27.47942924
v 17.76715851 233.32237244 -33.93791962
v 15.42759895 225.25305176 -42.50171280
v 13.00746918 233.95857239 -36.13562012
v 20.75332832 224.33435059 -40.05920029
v 9.98112202 225.94143677 -44.35864258
v 8.31655884 234.23883057 -37.95812988
v 4.90169191 226.29733276 -45.39984131
v 4.05406666 234.09841919 -39.36664200
v 5.66133881 181.26672363 49.21929932
v 3.18683863 181.59663391 49.32880020
v 1.38875866 168.60887146 51.56847763
v 2.47815752 169.14254761 51.46075058
v 3.88802457 190.38632202 47.38360977
v 6.87812901 190.16137695 47.20006943
v 4.65038681 200.36839294 44.44182968
v 8.21071625 200.09129333 44.24639893
v 5.14345598 209.40258789 41.28319931
v 10.11156845 210.10098267 40.57909775
v 43.58544922 212.43270874 -5.47674561
v 36.59622955 227.12344360 -3.93353295
v 36.33655930 226.29663086 1.84954810
v 44.01082611 210.25091553 1.19751000
v 42.33013916 214.64532471 -12.18640041
v 36.10337830 227.97119141 -9.73352051
v 43.24105835 206.03941345 13.97643948
v 43.85107803 208.12826538 7.75695801
v 35.52588654 225.51068115 7.36572170
v 34.28066635 224.72077942 12.60637951
v 31.17158699 229.83981323 6.54083157
v 12.90485859 198.42814636 44.94793701
v 14.62990856 206.86100769 41.99761963
v 13.16972923 214.96011353 37.74895859
v 16.91822815 212.49134827 39.13842773
v 19.77256775 216.22883606 36.17699814
v 30.43258858 195.22755432 39.43407822
v 33.77481842 197.06246948 36.38660049
v 23.19567871 218.98309326 32.92023087
v 26.48778725 220.90179443 29.47461128
v 28.94911766 222.13244629 25.94659042
v 10.19257832 179.71623230 49.71300888
v 11.50507832 188.83311462 47.63702011
v 5.28621483 166.26452637 52.46709824
v 36.77276611 198.73950195 32.98791885
v 49.19192886 195.50251770 -15.76702976
v 45.67060852 199.14158630 -23.56481934
v 40.00013733 216.86051941 -18.85180855
v 41.70479965 202.00805664 -30.18535805
v 50.58288956 185.17868042 12.18963623
v 51.16540909 187.79548645 6.06518507
v 39.15624619 200.33232117 29.11407089
v 43.87419891 176.14895630 31.33710098
v 46.41988754 178.20896912 27.11700058
v 17.26721764 180.95988464 48.89831924
v 20.62537766 166.19958496 48.81713867
v 25.52689743 167.62503052 46.64574814
v 20.29191780 186.14801025 47.03277969
v 30.91415787 223.01321411 22.06616020
v 40.98421860 202.01434326 24.68762016
v 9.17804813 163.89311218 52.45177841
v 14.73504925 175.05723572 50.35046005
v 15.13120842 164.88035583 50.79718018
v 23.60848808 190.31669617 44.80187988
v 27.01625824 193.16107178 42.25402832
v 34.65645599 228.81996155 -15.30053997
v 2.78289056 164.85794067 52.79998779
v 48.39340973 180.41171265 22.53820992
v 51.27653885 190.45968628 -0.60034204
v 50.72528839 193.05435181 -7.65527534
v 37.15455627 204.41311646 -35.67102051
v 32.38049698 206.38671875 -40.06396103
v 4.27131176 161.77404785 53.11492920
v 29.90669823 169.15396118 44.25164795
v 33.83570862 170.78352356 41.60344696
v 37.43636703 172.49327087 38.60936737
v 40.83111954 174.26272583 35.17760849
v 22.80507851 209.30180359 -46.05578232
v 17.12868690 210.58822632 -48.36987305
v 11.20986843 211.67927551 -50.21594238
v 5.54447460 212.43620300 -51.46118164
v 49.96731949 140.09291077 -70.08300781
v 50.27059937 144.32791138 -70.08300781
v 52.75037766 141.84979248 -48.10571289
v 52.38109970 135.90339661 -48.35937119
v 50.20244598 148.57238770 -70.08300781
v 52.74312592 147.97998047 -48.01459122
v 53.65961838 146.43727112 -12.27521038
v 53.60719681 137.21060181 -12.32458973
v 53.27592850 128.57572937 -12.86602974
v 51.52712631 176.85618591 -16.56939888
v 52.33243942 171.44082642 -14.72985935
v 50.51339722 164.89350891 -48.77447128
v 49.19399643 169.40951538 -49.39496231
v 52.94364929 164.50163269 -13.42242050
v 51.59680939 159.76754761 -48.32329941
v 48.95377731 156.97000122 -70.08300781
v 47.78206635 161.06372070 -70.08300781
v 46.25649643 165.04887390 -70.08300781
v 44.38659668 168.89689636 -70.08300781
v 47.73868942 173.29743958 -50.14795303
v 42.18676758 172.58111572 -70.08300781
v 46.04789734 176.70845032 -51.01349258
v 49.35098648 183.98060608 -21.49127007
v 50.47632599 180.93562317 -18.96599960
v 10.12842846 94.55229187 -60.23578262
v 11.84995842 91.62327576 -49.61365128
v 7.67565870 91.24363708 -50.58966064
v 6.07897997 94.00109100 -60.54828262
v 4.29544258 95.50440979 -70.08300781
v 8.01733589 96.16055298 -70.08300781
v 12.31795883 97.17382050 -70.08300781
v 14.59258842 95.36523438 -59.78319931
v 16.23451805 92.12165833 -48.24127197
v 3.77283955 90.99382019 -51.19989014
v 2.84746552 93.71395874 -60.71173096
v 1.83519363 95.21935272 -70.08300781
v 40.93011856 98.79840088 -31.97167778
v 37.07266617 96.96614075 -35.78296280
v 34.82580948 103.32225037 -55.83905029
v 38.19105911 105.72091675 -54.73529053
v 33.01060867 95.47390747 -39.23285294
v 31.20477867 101.20344543 -56.82678223
v 28.18881798 104.54652405 -70.08300781
v 31.68324852 107.15435028 -70.08300781
v 34.93730927 110.03373718 -70.08300781
v 29.14442825 94.34083557 -42.00146103
v 27.37268829 99.35235596 -57.71362305
v 25.16621780 93.46078491 -44.32550049
v 23.32822800 97.77126312 -58.50334930
v 20.57747841 100.21916962 -70.08300781
v 24.47791862 102.22969055 -70.08300781
v 20.76809692 92.72760010 -46.44201279
v 19.03408813 96.43986511 -59.19946289
v 16.51441765 98.53028870 -70.08300781
v 45.11394882 123.84056091 -70.08300781
v 46.85816956 127.74243927 -70.08300781
v 49.23390961 121.06812286 -50.06372070
v 47.66836929 117.31889343 -50.81291962
v 48.25503922 131.77073669 -70.08300781
v 50.58260727 125.41979980 -49.35785294
v 51.84758759 114.63790894 -15.71344090
v 50.76657867 110.01827240 -18.02471924
v 49.56106949 106.81187439 -20.43212891
v 38.32311630 185.47618103 -54.50091171
v 44.14734650 190.51388550 -29.94835854
v 46.78806686 188.32067871 -26.31299019
v 41.49758911 182.67912292 -53.10614014
v 36.85932922 179.35427856 -70.08300781
v 33.76942825 182.39530945 -70.08300781
v 30.42445755 185.17736816 -70.08300781
v 34.76000595 188.02880859 -55.85277939
v 40.67887878 192.61595154 -34.01396942
v 53.41223907 155.85067749 -12.62268066
v 52.34947968 154.04055786 -48.07860947
v 49.76203918 152.79632568 -70.08300781
v 26.84717751 187.67988586 -70.08300781
v 31.14436722 190.15553284 -56.85864258
v 23.06364822 189.88615417 -70.08300781
v 27.29545784 192.00897217 -57.70154190
v 32.24895859 195.86204529 -41.39995956
v 36.66157913 194.37057495 -37.90039062
v 19.09989738 191.77949524 -70.08300781
v 23.06052780 193.72409058 -58.56439209
v 15.02767849 193.34051514 -70.08300781
v 18.54163742 195.22554016 -59.34527206
v 22.50487709 198.39656067 -46.87261963
v 27.59455872 197.17456055 -44.30511093
v 10.91871834 194.54985046 -70.08300781
v 13.80150890 196.48197937 -59.94226074
v 6.97501898 195.39575195 -70.08300781
v 9.03049946 197.46655273 -60.36371231
v 10.91839886 200.63681030 -51.38970947
v 16.78646851 199.61639404 -49.35943222
v 43.89187622 111.29107666 -52.35400009
v 45.95782852 114.15402222 -51.51727295
v 48.34841919 104.75181580 -22.43914986
v 46.69881821 103.05833435 -24.76256943
v 4.47242069 198.08044434 -60.61786270
v 5.37973881 201.26058960 -52.58722305
v 48.32208633 186.29261780 -23.71710014
v 44.01773834 179.79884338 -51.97156143
v 51.01499939 109.87374115 -16.61846924
v 49.97063828 106.69024658 -18.72802925
v 51.99961853 114.47940063 -14.55365086
v 52.53094864 171.41130066 -12.55926991
v 52.42495728 171.42997742 -13.77887058
v 51.68579865 176.88937378 -15.46900082
v 51.93893814 176.90657043 -13.80066013
v 52.68208694 171.20916748 -10.32141018
v 52.24405670 176.68887329 -10.99689007
v 53.12742615 164.25839233 -9.73846054
v 53.04618835 164.42881775 -11.60552979
v 53.00318909 164.46362305 -12.55872059
v 53.46316910 155.78631592 -11.78680038
v 53.70595932 146.34269714 -11.43982029
v 53.63261795 137.07743835 -11.49505997
v 53.29806900 128.41236877 -12.00440025
v 52.68670654 120.93760681 -13.99481106
v 52.75719833 120.76933289 -13.01978016
v 51.64541626 130.39733887 -48.78326035
v 49.72084808 184.28956604 -19.95922852
v 50.74303818 181.04579163 -17.65143013
v 40.93041611 194.14102173 -33.14459229
v 44.50081635 191.89909363 -28.63476944
v 47.20513916 189.46321106 -24.65081978
v 44.18243790 100.95149994 -28.11919975
v 41.25332642 108.42825317 -53.50012207
v 41.91174698 163.32115173 34.33391953
v 44.79120636 165.55195618 30.42119980
v 44.51226807 169.01657104 30.70477104
v 41.58891678 166.83474731 34.60083008
v 38.68443680 161.26699829 37.81646729
v 38.31519699 164.85906982 38.07464981
v 39.04530716 157.64785767 37.55120850
v 42.23671722 159.70854187 34.05767822
v 45.08272934 161.89714050 30.12653160
v 35.21121597 159.51219177 40.84722900
v 34.79917908 163.16850281 41.10137939
v 31.34480858 157.99491882 43.55236816
v 30.90749741 161.68598938 43.79406738
v 31.76756859 154.29281616 43.30535889
v 35.60982895 155.85264587 40.58697891
v 26.93792725 156.65339661 46.05817032
v 26.50676727 160.33445740 46.26586914
v 21.80423737 155.42768860 48.41521835
v 21.42663765 159.04618835 48.57513046
v 22.17216873 151.74911499 48.24657822
v 27.35579872 152.93824768 45.84661865
v 15.75739861 154.25785828 50.67419052
v 15.49673843 157.75347900 50.78051758
v 9.72380638 153.24925232 52.41771698
v 9.58862782 156.59709167 52.47118759
v 9.86021900 149.78631592 52.32690048
v 16.01435852 150.68554688 50.54064941
v 52.74594879 109.61393738 -6.52124119
v 52.59148788 106.54898071 -6.73217964
v 52.04277802 106.53056335 -10.99237061
v 52.32581711 109.64810944 -10.48114014
v 52.93399811 114.09140015 -6.27502632
v 52.63747787 114.19798279 -9.93780994
v 53.08715820 113.99482727 -1.82794213
v 52.92275620 109.61763000 -2.02673411
v 52.77895737 106.61979675 -2.19390893
v 51.64178848 109.74252319 -13.97539997
v 50.98350906 106.58706665 -15.28620052
v 52.29447937 114.33003998 -12.66283989
v 50.41898727 104.59908295 -16.28698921
v 51.79094696 104.57270050 -11.36266994
v 49.55411911 100.63696289 -17.14709854
v 51.13690948 100.63026428 -11.88092041
v 47.36046600 101.24142456 -22.79491997
v 49.03386688 104.66685486 -20.39580917
v 52.25003815 180.41656494 -6.72076511
v 51.81982803 181.03985596 -11.77747059
v 51.29666901 185.14518738 -12.64923000
v 51.87728882 184.54560852 -7.01867867
v 52.41227722 179.10894775 -0.78289795
v 52.11006927 183.08930969 -0.71887207
v 52.69129944 174.73474121 -0.89123607
v 52.55862808 176.01734924 -6.49011421
v 50.58053970 172.23280334 16.66600990
v 51.55636597 174.44947815 11.40014553
v 51.27561951 178.21313477 11.64324856
v 50.32773972 175.89068604 16.95672989
v 49.16316605 170.09158325 21.47887993
v 48.93267822 173.65319824 21.80127144
v 49.40962601 166.20649719 21.14606094
v 50.84074783 168.24942017 16.36504936
v 51.83466721 170.35762024 11.14330959
v 5.93172979 108.49096680 52.87725830
v 5.96395254 106.81462097 52.81365967
v 12.06616879 106.84254456 51.64545059
v 12.02249908 108.56771088 51.70373917
v 5.81813765 111.06228638 52.95623779
v 11.84366894 111.20283508 51.78704834
v 4.90685081 135.47082520 53.34362793
v 5.01911259 130.08343506 53.42614746
v 10.57357883 130.56130981 52.30053711
v 10.35758877 135.98361206 52.25933838
v 4.83010197 140.68623352 53.22875977
v 10.18482876 141.22785950 52.20330811
v 52.06623840 133.52865601 14.14476967
v 53.06412888 134.24171448 9.31707668
v 53.13812637 142.58612061 9.71447659
v 52.09409714 141.53018188 14.64416027
v 50.63131714 132.79219055 18.77496147
v 50.61643600 140.45910645 19.30945015
v 50.53761673 125.59051514 18.26403999
v 51.91744614 126.06747437 13.67577934
v 52.85527802 126.51611328 8.94287109
v 43.78107834 130.28948975 32.22375107
v 46.42499924 131.12626648 28.15302086
v 46.35721970 138.14233398 28.59448051
v 43.65615845 136.98257446 32.62646103
v 40.86040878 129.49235535 35.81274033
v 40.66359711 135.88035583 36.18555069
v 40.98022842 123.35060883 35.46093750
v 43.83003616 123.89881897 31.83850098
v 46.41185760 124.46939850 27.72565079
v 37.72550964 128.76161194 38.96312714
v 37.45560837 134.87985229 39.30321884
v 34.05863953 128.07322693 41.88439941
v 33.74981689 133.95072937 42.17456055
v 34.27997971 122.35610962 41.60651016
v 37.91301727 122.84161377 38.64196777
v 29.54203796 127.40312195 44.78588867
v 29.26391792 133.06271362 44.99437714
v 24.06016731 126.73297119 47.57848740
v 23.81250763 132.19091797 47.71038818
v 24.24170876 121.39724731 47.43249893
v 29.73269844 121.87843323 44.57964706
v 17.49749756 126.04446411 50.17333984
v 17.21021843 131.31045532 50.27050781
v 10.87160873 125.45092773 52.21905899
v 11.21190834 120.47285461 52.07280731
v 17.77757835 120.90127563 50.03557968
v 44.02722931 98.14449310 -27.57049942
v 40.65447617 96.14768982 -31.59728813
v 25.03774834 91.44424438 -43.98749161
v 20.68593788 90.79588318 -46.01367188
v 16.18205833 90.26434326 -47.70807266
v 36.79666901 94.50298309 -35.46899033
v 32.79021835 93.19540405 -38.92198944
v 38.01424789 105.39416504 37.84589005
v 34.45375824 105.39248657 40.89086914
v 34.09716797 101.32485199 40.36536026
v 37.66862869 101.32623291 37.24291992
v 40.94547653 105.38540649 34.63518906
v 40.62637711 101.31892395 33.96527100
v 41.20426941 107.07224274 34.69475937
v 38.30022812 107.05085754 37.90356064
v 34.75122833 107.02027130 40.93426895
v 43.63848877 105.36492920 30.98633003
v 43.32733917 101.30192566 30.27057076
v 46.07736969 105.32633972 26.81110001
v 45.76022720 101.26972198 26.07397079
v 46.31269836 107.07852173 26.84558105
v 43.88347626 107.08386993 31.03339005
v 51.36501694 105.07644653 12.60692978
v 50.04282761 105.17887115 17.11919975
v 49.68486786 101.14570618 16.41387939
v 50.97031784 101.05894470 11.93768311
v 52.21247864 104.95773315 8.00769043
v 51.77228928 100.95831299 7.38665676
v 52.38908768 106.82852936 8.07824707
v 51.55364609 106.92167664 12.66345024
v 50.24668884 106.99635315 17.16479111
v 52.58494949 104.82443237 2.84454322
v 52.09292603 100.84562683 2.28521705
v 52.61541748 104.70100403 -2.30737281
v 52.07664871 100.74175262 -2.80236793
v 52.75451660 106.72044373 2.93438697
v 29.87296867 105.38169861 44.04224014
v 30.13717842 106.98097229 44.06139755
v 24.43220711 105.36495209 47.03966904
v 24.64368820 106.93540955 47.04578018
v 24.17117691 101.30184174 46.64519882
v 29.55507851 101.31579590 43.59447861
v 18.29180717 105.34544373 49.62273788
v 18.45638847 106.88603973 49.64831924
v 11.94965839 105.32786560 51.58849716
v 11.78234863 101.27140045 51.17724991
v 18.07428741 101.28578186 49.23229980
v 5.90365791 105.31695557 52.73389053
v 5.81331778 101.26255798 52.30175781
v 27.74317741 207.95878601 -43.40637207
v 5.03675890 215.34863281 38.68787003
v 9.30455875 215.34394836 38.19989014
v 8.50248146 220.34204102 35.12749863
v 4.43208694 220.56092834 35.51427841
v 12.04594898 216.19487000 37.27941895
v 11.86100864 220.37516785 34.49596786
v 4.70092964 235.13684082 24.44976997
v 7.65384865 235.32852173 23.63531113
v 17.33560753 241.90309143 -16.86230850
v 14.58833885 242.21615601 -18.98870850
v 19.71425819 241.54411316 -14.39942074
v 42.31562805 203.95907593 19.63080025
v 49.71998596 182.72619629 17.62152100
v 29.96108818 229.09414673 11.13439846
v 28.39266777 228.26370239 15.69274998
v 32.71738815 223.88214111 17.56305122
v 23.47621727 238.25772095 8.05151272
v 24.33259773 238.76937866 4.73968506
v 22.21181870 237.74862671 11.19415283
v 27.76507759 198.86250305 -43.86462021
v 32.32696915 197.56640625 -41.00067139
v 22.77178764 200.05276489 -46.34350204
v 17.01064873 201.29022217 -48.84222031
v 11.04438877 202.34808350 -50.93548203
v 51.55266953 184.61555481 5.84802198
v 50.94900894 182.00166321 11.92083645
v 51.88962936 180.79559326 5.62658691
v 51.72501755 187.09754944 -0.67419505
v 34.31499863 167.21830750 41.37200928
v 30.40164757 165.67570496 44.04327011
v 37.87768936 168.90298462 38.35863876
v 41.21462631 170.76583862 34.90118027
v 44.20220947 172.80282593 31.02856064
v 49.59422684 188.69984436 -18.56383896
v 48.02341843 192.31130981 -21.20592880
v 50.56187820 189.88800049 -13.59833050
v 50.47363663 184.86880493 -16.98736954
v 48.74334717 187.01104736 -22.02563858
v 5.49775696 207.50784302 -51.82275009
v 11.14734840 206.79997253 -50.55115128
v 5.43569279 202.99945068 -52.19792938
v 37.01485825 200.03915405 -36.50366211
v 41.38187790 197.90794373 -31.63873100
v 36.79394913 196.01135254 -37.34692001
v 32.38161850 201.79353333 -40.53448105
v 27.79617691 203.21467590 -43.61907959
v 22.84440804 204.46978760 -46.16223145
v 17.11218834 205.72607422 -48.56866074
v 26.01274872 164.23915100 46.47484970
v 20.99648857 162.86997986 48.71997070
v 50.04664612 179.59910583 17.29425049
v 48.68833923 177.30337524 22.17499161
v 15.20109844 161.52951050 50.83197021
v 9.43607807 160.23408508 52.44524765
v 4.51093578 159.00000000 53.19408798
v 4.57384682 155.71775818 53.23601913
v 28.97154808 92.20994568 -41.69250107
v 11.79211903 89.84910583 -49.00762939
v 7.61070585 89.54141235 -49.95611191
v 37.92712784 113.16534424 -70.08300781
v 40.63255692 116.52615356 -70.08300781
v 43.03345871 120.09318542 -70.08300781
v 53.65464783 134.98773193 3.94183302
v 53.39180756 126.97610474 3.69872999
v 53.89157867 135.68876648 -1.29052806
v 53.58519745 127.40934753 -1.43084693
v 54.02474594 144.68380737 -1.21661401
v 53.76296616 143.68428040 4.17315578
v 51.79918671 119.28878021 13.28631020
v 52.69367599 119.54981232 8.62933350
v 50.45462799 118.99757385 17.83246040
v 50.38703918 113.51510620 17.49938965
v 51.70999908 113.66349030 12.98589993
v 52.57403946 113.78318787 8.38024902
v 43.87931824 117.88276672 31.51086044
v 46.40299606 118.26782227 27.36554146
v 41.09579849 117.50616455 35.15570068
v 41.19305801 112.60794067 34.92034912
v 43.92184830 112.85162354 31.26245117
v 46.39717865 113.09266663 27.09344101
v 38.09391785 117.15106201 38.35400009
v 34.49455643 116.80735779 41.34851074
v 34.67464828 112.14192200 41.13970947
v 38.24571609 112.37336731 38.12652969
v 29.91858864 116.46495056 44.38219833
v 24.42145729 116.11738586 47.28643799
v 24.57267761 111.66743469 47.16314697
v 30.07469749 111.90759277 44.21905899
v 18.05861855 115.75817108 49.89324951
v 11.55469894 115.44734955 51.91942978
v 18.29542732 111.41854095 49.77087021
v 53.63104630 136.93324280 -10.59992027
v 53.74522781 146.22039795 -10.58063030
v 53.82168961 145.95817566 -8.92285061
v 53.67292786 136.69180298 -8.90832996
v 53.28704834 128.26019287 -10.96606064
v 53.32488632 128.06628418 -9.11639023
v 53.50060654 155.70872498 -10.93097019
v 53.57356644 155.49421692 -9.23602009
v 43.37907791 143.90589905 33.00646973
v 46.12333679 145.42158508 28.99719048
v 45.79166794 152.15666199 29.38195992
v 43.01206970 150.31872559 33.37152100
v 40.31713867 142.46360779 36.55389023
v 39.89162827 148.56880188 36.90990829
v 37.02751923 141.16506958 39.64788818
v 36.53049850 147.00646973 39.98389053
v 33.27281952 139.98069763 42.46923828
v 32.73151779 145.60614014 42.76049805
v 28.81563759 138.88087463 45.19878769
v 28.29754829 144.34222412 45.40673828
v 23.43441772 137.83741760 47.81372070
v 22.99749756 143.18472290 47.92358017
v 16.90758705 136.82208252 50.29155731
v 16.60027695 142.10363770 50.31212997
v 51.84951782 149.92991638 15.12469006
v 52.89515686 151.40881348 10.09783936
v 52.50912857 159.48364258 10.46758938
v 51.48273849 157.63798523 15.57831001
v 50.37374878 148.44778442 19.81189156
v 50.02748871 155.80705261 20.28729057
v 53.73104858 155.01908875 -5.88244724
v 53.30167770 163.81347656 -6.13293648
v 53.77779770 154.18824768 -1.22711205
v 53.36656952 162.90701294 -1.21368408
v 53.97958755 145.44386292 -5.69171238
v 39.67139816 176.07490540 -70.08300781
v 45.16868973 195.35633850 -26.05187988
v 52.87681961 109.63671112 3.07141089
v 53.00012970 113.89286804 3.24975562
v 52.49104691 109.65656281 8.19952393
v 52.76489639 167.71752930 4.89031982
v 53.11972809 161.35185242 4.59509182
v 53.00690842 169.54495239 -1.06817698
v 52.45075607 172.68376160 5.18896484
v 52.15393829 165.58445740 10.82421780
v 52.43692780 104.61187744 -6.87292576
v 51.86786652 100.66757965 -7.31189156
v 53.82872772 136.26687622 -5.68951416
v 53.49357605 127.77770996 -5.82025337
v 53.51854706 152.90653992 4.37347412
v 51.33344650 189.10446167 -7.39575291
v 46.71680832 175.00997925 26.76984024
v 46.97718811 171.32560730 26.41106987
v 48.45995712 146.94026184 24.51758003
v 48.69072723 139.31550598 24.05750084
v 48.13030624 153.98303223 24.95447159
v 48.55533600 109.59362030 22.15966988
v 48.46672821 107.04899597 22.05743027
v 50.33956909 109.64489746 17.28417969
v 48.58416748 113.31933594 22.35382080
v 46.39317703 109.51510620 26.92987061
v 48.24621964 105.26324463 22.02130127
v 47.91378784 101.21681213 21.29053116
v 48.72965622 131.97595215 23.55713081
v 48.67507935 125.04557800 23.07410049
v 47.79472733 159.57658386 25.38531113
v 49.70192719 161.58580017 20.74036026
v 47.48200607 164.07609558 25.77789116
v 45.43049622 157.54028320 29.76917076
v 49.29343796 135.89736938 -70.08300781
v 51.25418854 181.16505432 -15.33820057
v 53.18926620 120.26594543 -6.02832222
v 53.31251907 120.05171967 -1.61968994
v 52.97512817 120.45286560 -9.47125053
v 51.64839935 109.66259003 12.78399944
v 43.95057678 109.41572571 31.11432076
v 41.25800705 109.30486298 34.77819824
v 38.34593964 109.19195557 37.98669052
v 34.79252625 109.07482147 41.00951767
v 30.17598724 108.95126343 44.11620712
v 24.66863823 108.82151794 47.08495712
v 18.44280815 108.68577576 49.69353867
v 53.17271805 119.80857086 3.46350098
v 48.62532806 118.64834595 22.66577148
v 52.84221649 120.61419678 -11.65680027
v 43.85317612 79.92327118 -23.87035942
v 41.18505859 79.92304993 -28.02837944
v 38.09654617 79.92275238 -31.73485756
v 7.31698799 79.92176056 -48.87243271
v 3.59027648 79.92173004 -49.49481201
v 3.73244643 89.33253479 -50.59723282
v 23.83442688 79.92201996 -43.27667236
v 19.76514816 79.92194366 -45.17346191
v 15.51398849 79.92185974 -46.75609970
v 30.96895790 79.92230988 -38.51885986
v 27.47466850 79.92214966 -41.11614990
v 34.60037613 79.92250824 -35.31170273
v 33.72880936 79.92333221 36.82433701
v 37.27982712 79.92333221 33.24602890
v 40.19926834 79.92333221 29.51403999
v 42.81891632 79.92333984 25.41101074
v 45.10384750 79.92334747 20.96155167
v 48.47587967 79.92334747 11.52069092
v 49.38524628 79.92333984 7.37579346
v 49.76045609 79.92333221 3.26568580
v 49.17230606 79.92333221 -5.83483982
v 48.65753937 79.92333221 -9.85638046
v 47.73972702 79.92333221 -14.00945950
v 46.08816910 79.92333984 -18.93914986
v 23.86774826 79.92332458 43.83160019
v 29.21439743 79.92333221 40.46680069
v 11.59426880 79.92333984 48.58057022
v 17.81998825 79.92333221 46.57750702
v 11.32807922 79.92179871 -47.97430038
v 49.61470795 79.92333221 -1.29931688
v 47.01912689 79.92334747 16.19042969
v 2.23227859 235.03697205 24.86810112
v 3.39858460 195.86643982 -70.08300781
v 5.20007992 125.06584167 53.36480713
v 5.41629982 120.19427490 53.22747803
v 4.62985897 152.50727844 53.22832870
v 4.68759584 149.09013367 53.20306015
v 5.63432360 115.24490356 53.08208847
v 5.71370554 79.92336273 49.71691895
v -42.60590363 155.48036194 33.72937012
v -39.44621277 153.52268982 37.24567032
v -36.04228210 151.79321289 40.29802704
v -32.21831131 150.27005005 43.04027939
v -27.79849243 148.93127441 45.62615967
v -22.56187248 147.74504089 48.07526016
v -16.28746223 146.67945862 50.40752792
v -10.00500107 145.80395508 52.24065781
v -52.89850235 170.64794922 -6.31482124
v -52.67058182 171.20916748 -10.32141018
v -51.13248062 163.56448364 15.99706936
v -52.16248322 176.93072510 5.42059326
v -47.20937347 167.83671570 26.10016060
v -4.74421310 145.18789673 53.19249725
v 0.00573338 144.94471741 53.44817734
v 42.61737823 155.48033142 33.72937012
v 39.45769882 153.52265930 37.24567032
v 36.05376816 151.79319763 40.29802704
v 32.22978592 150.27001953 43.04027939
v 27.80996704 148.93125916 45.62615967
v 22.57332802 147.74504089 48.07526016
v 16.29892731 146.67945862 50.40752792
v 10.01646900 145.80395508 52.24065781
v 52.91001892 170.64793396 -6.31482124
v 51.14397812 163.56448364 15.99718952
v 52.17399597 176.93072510 5.42059326
v 47.22086716 167.83670044 26.10016060
v 4.75567961 145.18789673 53.19262695
v -52.51945114 171.41130066 -12.55926991
v -10.73257160 235.59942627 22.44489098
v -13.61318111 235.93705750 20.89868164
v -16.23789215 236.33190918 18.99030113
v -18.56043243 236.77442932 16.71338081
v -20.55611229 237.25119019 14.10303020
v -24.74129295 239.27709961 1.33789039
v -24.69724274 239.77416992 -2.07409692
v -24.17460251 240.25502014 -5.42169189
v -23.15905190 240.71405029 -8.63001060
v -21.66397285 241.14562988 -11.64160061
v -11.51815128 242.47882080 -20.76513863
v -8.20538521 242.68643188 -22.17779922
v -5.02910328 242.83129883 -23.16918945
v -2.37989450 242.90573120 -23.68182945
v 0.00577738 242.92532349 -23.81835938
v -4.68941641 235.13684082 24.44976997
v -7.64233637 235.32852173 23.63531113
v -17.32407188 241.90309143 -16.86236954
v -14.57679081 242.21615601 -18.98870850
v -19.70272255 241.54411316 -14.39954090
v -23.46466255 238.25775146 8.05139065
v -24.32105255 238.76943970 4.73956299
v -22.20027161 237.74865723 11.19415283
v 0.00576027 235.01000977 24.97821045
v -2.22076035 235.03697205 24.86810112
v 13.62469864 235.93705750 20.89868164
v 10.74408913 235.59942627 22.44501114
v 16.24941826 236.33190918 18.99030113
v 18.57195854 236.77442932 16.71338081
v 20.56764793 237.25115967 14.10303020
v 24.70877838 239.77413940 -2.07409692
v 24.75282860 239.27706909 1.33795142
v 24.18613815 240.25498962 -5.42169189
v 23.17059708 240.71405029 -8.62987995
v 21.67551804 241.14566040 -11.64160061
v 8.21693993 242.68643188 -22.17779922
v 11.52969837 242.47882080 -20.76513863
v 5.04065990 242.83129883 -23.16918945
v 2.39145064 242.90573120 -23.68182945
v 4.70092964 235.13684082 24.44976997
v 7.65384865 235.32852173 23.63531113
v 17.33560753 241.90309143 -16.86230850
v 14.58833885 242.21615601 -18.98870850
v 19.71425819 241.54411316 -14.39942074
v 23.47621727 238.25772095 8.05151272
v 24.33259773 238.76937866 4.73968506
v 22.21181870 237.74862671 11.19415283
v 2.23227859 235.03697205 24.86810112
v -41.17354202 79.92307281 -28.02837944
v -43.84165192 79.92330170 -23.87047958
v -38.08505249 79.92279053 -31.73485756
v -3.57876348 79.92173004 -49.49481201
v -7.30547523 79.92176056 -48.87243271
v 0.00575662 79.92172241 -49.73712158
v -19.75365257 79.92195892 -45.17346191
v -23.82293129 79.92205048 -43.27667236
v -15.50249100 79.92188263 -46.75616074
v -27.46317291 79.92217255 -41.11614990
v -30.95746231 79.92231750 -38.51880264
v -34.58889389 79.92252350 -35.31170273
v -37.26839066 79.92337036 33.24591064
v -33.71738052 79.92336273 36.82433701
v -40.18781281 79.92337036 29.51403999
v -42.80745316 79.92337036 25.41089058
v -45.09237289 79.92337036 20.96149063
v -49.37374115 79.92337799 7.37567139
v -48.46437073 79.92339325 11.52062988
v -49.74894333 79.92337799 3.26568580
v -48.64601135 79.92334747 -9.85645008
v -49.16079330 79.92336273 -5.83483982
v -47.72819138 79.92334747 -14.00957966
v -46.07663345 79.92336273 -18.93914986
v -29.20298195 79.92336273 40.46673965
v -23.85632133 79.92336273 43.83160019
v -17.80856133 79.92337036 46.57738876
v -11.58282089 79.92336273 48.58044052
v -11.31657124 79.92179871 -47.97430038
v -49.60320282 79.92337036 -1.29943895
v -47.00763321 79.92337036 16.19030952
v -5.70225906 79.92336273 49.71691895
v 0.00572448 79.92336273 50.06842041
v 43.85317612 79.92327118 -23.87035942
v 41.18505859 79.92304993 -28.02837944
v 38.09654617 79.92275238 -31.73485756
v 7.31698799 79.92176056 -48.87243271
v 3.59027648 79.92173004 -49.49481201
v 23.83442688 79.92201996 -43.27667236
v 19.76514816 79.92194366 -45.17346191
v 15.51398849 79.92185974 -46.75609970
v 30.96895790 79.92230988 -38.51885986
v 27.47466850 79.92214966 -41.11614990
v 34.60037613 79.92250824 -35.31170273
v 33.72880936 79.92333221 36.82433701
v 37.27982712 79.92333221 33.24602890
v 40.19926834 79.92333221 29.51403999
v 42.81891632 79.92333984 25.41101074
v 45.10384750 79.92334747 20.96155167
v 48.47587967 79.92334747 11.52069092
v 49.38524628 79.92333984 7.37579346
v 49.76045609 79.92333221 3.26568580
v 49.17230606 79.92333221 -5.83483982
v 48.65753937 79.92333221 -9.85638046
v 47.73972702 79.92333221 -14.00945950
v 46.08816910 79.92333984 -18.93914986
v 23.86774826 79.92332458 43.83160019
v 29.21439743 79.92333221 40.46680069
v 11.59426880 79.92333984 48.58057022
v 17.81998825 79.92333221 46.57750702
v 11.32807922 79.92179871 -47.97430038
v 49.61470795 79.92333221 -1.29931688
v 47.01912689 79.92334747 16.19042969
v 5.71370554 79.92336273 49.71691895
v -50.19091034 148.57240295 -70.08300781
v -50.25909042 144.32792664 -70.08300781
v -49.95585251 140.09291077 -70.08300781
v -46.24499130 165.04890442 -70.08300781
v -47.77055359 161.06373596 -70.08300781
v -48.94222260 156.97001648 -70.08300781
v -42.17526245 172.58114624 -70.08300781
v -44.37510300 168.89692688 -70.08300781
v -12.30643082 97.17384338 -70.08300781
v -8.00580311 96.16056061 -70.08300781
v -4.28391027 95.50442505 -70.08300781
v -1.82366133 95.21936035 -70.08300781
v 0.00576650 95.16960144 -70.08300781
v -34.92578125 110.03376770 -70.08300781
v -31.67173195 107.15437317 -70.08300781
v -28.17732239 104.54653931 -70.08300781
v -24.46641159 102.22969055 -70.08300781
v -20.56596184 100.21916962 -70.08300781
v -16.50289154 98.53030396 -70.08300781
v -48.24358368 131.77073669 -70.08300781
v -46.84668350 127.74243927 -70.08300781
v -45.10242081 123.84059143 -70.08300781
v -30.41290283 185.17739868 -70.08300781
v -33.75787354 182.39533997 -70.08300781
v -36.84777069 179.35430908 -70.08300781
v -49.75048065 152.79634094 -70.08300781
v -23.05208206 189.88612366 -70.08300781
v -26.83562279 187.67988586 -70.08300781
v -15.01612091 193.34054565 -70.08300781
v -19.08834267 191.77949524 -70.08300781
v -6.96345139 195.39575195 -70.08300781
v -10.90715122 194.54989624 -70.08300781
v -40.62101364 116.52618408 -70.08300781
v -37.91559219 113.16537476 -70.08300781
v -43.02190399 120.09320068 -70.08300781
v -39.65986252 176.07493591 -70.08300781
v -49.28199387 135.89738464 -70.08300781
v 0.00578441 196.00796509 -70.08300781
v -3.38701558 195.86643982 -70.08300781
v 49.96731949 140.09291077 -70.08300781
v 50.27059937 144.32791138 -70.08300781
v 50.20244598 148.57238770 -70.08300781
v 48.95377731 156.97000122 -70.08300781
v 47.78206635 161.06372070 -70.08300781
v 46.25649643 165.04887390 -70.08300781
v 44.38659668 168.89689636 -70.08300781
v 42.18676758 172.58111572 -70.08300781
v 4.29544258 95.50440979 -70.08300781
v 8.01733589 96.16055298 -70.08300781
v 12.31795883 97.17382050 -70.08300781
v 1.83519363 95.21935272 -70.08300781
v 28.18881798 104.54652405 -70.08300781
v 31.68324852 107.15435028 -70.08300781
v 34.93730927 110.03373718 -70.08300781
v 20.57747841 100.21916962 -70.08300781
v 24.47791862 102.22969055 -70.08300781
v 16.51441765 98.53028870 -70.08300781
v 45.11394882 123.84056091 -70.08300781
v 46.85816956 127.74243927 -70.08300781
v 48.25503922 131.77073669 -70.08300781
v 36.85932922 179.35427856 -70.08300781
v 33.76942825 182.39530945 -70.08300781
v 30.42445755 185.17736816 -70.08300781
v 49.76203918 152.79632568 -70.08300781
v 26.84717751 187.67988586 -70.08300781
v 23.06364822 189.88615417 -70.08300781
v 19.09989738 191.77949524 -70.08300781
v 15.02767849 193.34051514 -70.08300781
v 10.91871834 194.54985046 -70.08300781
v 6.97501898 195.39575195 -70.08300781
v 37.92712784 113.16534424 -70.08300781
v 40.63255692 116.52615356 -70.08300781
v 43.03345871 120.09318542 -70.08300781
v 39.67139816 176.07490540 -70.08300781
v 49.29343796 135.89736938 -70.08300781
v 3.39858460 195.86643982 -70.08300781
f 1 2 3
f 3 4 1
f 2 5 6
f 6 3 2
f 5 7 8
f 8 6 5
f 7 9 10
f 10 8 7
f 11 12 13
f 13 14 11
f 12 15 16
f 16 13 12
f 15 17 18
f 18 16 15
f 17 19 20
f 20 18 17
f 21 22 23
f 23 24 21
f 22 25 26
f 26 23 22
f 25 27 28
f 28 26 25
f 27 29 30
f 30 28 27
f 31 20 32
f 32 33 31
f 34 35 36
f 36 33 34
f 37 38 35
f 35 34 37
f 34 39 40
f 40 37 34
f 41 42 38
f 38 37 41
f 41 24 23
f 23 43 41
f 44 45 46
f 46 43 44
f 44 26 28
f 28 47 44
f 48 49 50
f 50 51 48
f 52 49 48
f 48 53 52
f 49 52 54
f 54 55 49
f 50 49 55
f 55 56 50
f 57 58 56
f 56 55 57
f 59 57 55
f 55 54 59
f 57 59 60
f 60 61 57
f 58 57 61
f 61 62 58
f 14 13 63
f 63 64 14
f 65 66 67
f 67 63 65
f 68 69 70
f 70 71 68
f 72 73 68
f 68 71 72
f 64 74 69
f 69 68 64
f 42 41 43
f 43 46 42
f 75 56 58
f 58 76 75
f 77 78 79
f 79 76 77
f 77 62 80
f 80 81 77
f 82 83 84
f 84 81 82
f 82 4 3
f 3 85 82
f 6 8 86
f 86 87 6
f 8 10 88
f 88 86 8
f 56 75 89
f 89 50 56
f 31 33 36
f 36 90 31
f 91 92 85
f 85 87 91
f 92 83 82
f 82 85 92
f 93 90 94
f 94 95 93
f 96 97 67
f 67 66 96
f 98 69 74
f 74 99 98
f 98 100 70
f 70 69 98
f 101 102 103
f 103 104 101
f 91 104 103
f 103 105 91
f 105 106 92
f 92 91 105
f 107 79 78
f 78 108 107
f 107 109 110
f 110 79 107
f 104 86 88
f 88 101 104
f 87 86 104
f 104 91 87
f 111 112 89
f 89 113 111
f 113 114 111
f 110 109 114
f 114 113 110
f 78 77 81
f 81 84 78
f 93 115 31
f 31 90 93
f 65 115 93
f 93 66 65
f 74 64 63
f 63 67 74
f 42 116 117
f 117 38 42
f 118 119 84
f 84 83 118
f 51 50 89
f 89 112 51
f 51 112 120
f 120 48 51
f 99 74 67
f 67 97 99
f 36 121 94
f 94 90 36
f 36 35 122
f 122 121 36
f 111 123 120
f 120 112 111
f 123 124 125
f 125 120 123
f 108 78 84
f 84 119 108
f 118 83 92
f 92 106 118
f 66 93 95
f 95 96 66
f 116 42 46
f 46 126 116
f 127 126 46
f 46 45 127
f 127 45 128
f 128 129 127
f 130 129 128
f 128 131 130
f 132 133 134
f 134 135 132
f 133 136 137
f 137 134 133
f 138 139 134
f 134 137 138
f 139 140 135
f 135 134 139
f 141 142 143
f 143 144 141
f 142 145 146
f 146 143 142
f 147 148 143
f 143 146 147
f 148 149 144
f 144 143 148
f 149 150 151
f 151 144 149
f 150 152 153
f 153 151 150
f 154 155 151
f 151 153 154
f 155 141 144
f 144 151 155
f 156 157 158
f 158 159 156
f 157 160 161
f 161 158 157
f 162 163 158
f 158 161 162
f 163 164 159
f 159 158 163
f 165 166 156
f 156 159 165
f 159 164 167
f 167 165 159
f 165 167 168
f 168 169 165
f 169 170 166
f 166 165 169
f 171 172 173
f 173 174 171
f 174 175 176
f 176 171 174
f 171 176 177
f 177 178 171
f 178 179 172
f 172 171 178
f 180 181 179
f 179 178 180
f 178 177 182
f 182 180 178
f 180 182 183
f 183 184 180
f 184 185 181
f 181 180 184
f 186 187 185
f 185 184 186
f 184 183 188
f 188 186 184
f 186 188 162
f 162 161 186
f 161 160 187
f 187 186 161
f 189 190 191
f 191 192 189
f 190 193 194
f 194 191 190
f 195 196 191
f 191 194 195
f 196 197 192
f 192 191 196
f 198 199 200
f 200 201 198
f 199 202 203
f 203 200 199
f 204 205 200
f 200 203 204
f 205 206 201
f 201 200 205
f 207 208 147
f 147 146 207
f 146 145 209
f 209 207 146
f 207 209 138
f 138 137 207
f 137 136 208
f 208 207 137
f 202 210 211
f 211 203 202
f 210 212 213
f 213 211 210
f 214 215 211
f 211 213 214
f 215 204 203
f 203 211 215
f 212 216 217
f 217 213 212
f 216 218 219
f 219 217 216
f 220 221 217
f 217 219 220
f 221 214 213
f 213 217 221
f 218 222 223
f 223 219 218
f 222 224 225
f 225 223 222
f 226 227 223
f 223 225 226
f 227 220 219
f 219 223 227
f 228 229 230
f 230 231 228
f 229 228 189
f 189 192 229
f 224 232 233
f 233 225 224
f 234 233 232
f 232 235 234
f 236 237 198
f 198 201 236
f 236 153 152
f 152 237 236
f 190 189 238
f 238 239 190
f 193 190 239
f 239 240 193
f 148 241 242
f 242 149 148
f 241 148 147
f 147 243 241
f 208 244 243
f 243 147 208
f 244 208 136
f 136 245 244
f 133 246 245
f 245 136 133
f 246 133 132
f 132 247 246
f 248 249 247
f 247 132 248
f 249 248 193
f 193 240 249
f 250 150 149
f 149 242 250
f 150 250 251
f 251 152 150
f 252 199 198
f 198 253 252
f 199 252 254
f 254 202 199
f 255 256 231
f 231 230 255
f 173 256 255
f 255 174 173
f 257 258 259
f 259 260 257
f 261 257 260
f 260 262 261
f 257 261 263
f 263 264 257
f 258 257 264
f 264 265 258
f 266 267 265
f 265 264 266
f 268 266 264
f 264 263 268
f 266 268 269
f 269 270 266
f 267 266 270
f 270 271 267
f 272 273 271
f 271 270 272
f 274 272 270
f 270 269 274
f 272 274 275
f 275 276 272
f 273 272 276
f 276 277 273
f 278 279 277
f 277 276 278
f 280 278 276
f 276 275 280
f 278 280 281
f 281 282 278
f 279 278 282
f 282 283 279
f 284 285 286
f 286 287 284
f 288 284 287
f 287 289 288
f 284 288 290
f 290 291 284
f 285 284 291
f 291 292 285
f 293 294 286
f 286 285 293
f 295 293 285
f 285 292 295
f 293 295 240
f 240 239 293
f 294 293 239
f 239 238 294
f 296 297 286
f 286 294 296
f 298 296 294
f 294 238 298
f 296 298 299
f 299 300 296
f 297 296 300
f 300 301 297
f 302 303 304
f 304 305 302
f 306 302 305
f 305 307 306
f 302 306 308
f 308 309 302
f 303 302 309
f 309 310 303
f 311 312 313
f 313 314 311
f 315 311 314
f 314 316 315
f 311 315 317
f 317 318 311
f 312 311 318
f 318 319 312
f 320 321 322
f 322 323 320
f 324 320 323
f 323 325 324
f 320 324 326
f 326 327 320
f 321 320 327
f 327 328 321
f 329 330 331
f 331 332 329
f 333 329 332
f 332 334 333
f 329 333 335
f 335 336 329
f 330 329 336
f 336 337 330
f 338 339 340
f 340 341 338
f 342 338 341
f 341 343 342
f 338 342 344
f 344 345 338
f 339 338 345
f 345 346 339
f 347 348 349
f 349 350 347
f 351 347 350
f 350 352 351
f 347 351 353
f 353 354 347
f 348 347 354
f 354 355 348
f 356 357 355
f 355 354 356
f 358 356 354
f 354 353 358
f 356 358 359
f 359 360 356
f 357 356 360
f 360 361 357
f 362 363 361
f 361 360 362
f 364 362 360
f 360 359 364
f 362 364 365
f 365 366 362
f 363 362 366
f 366 367 363
f 368 369 367
f 367 366 368
f 370 368 366
f 366 365 370
f 368 370 371
f 371 372 368
f 369 368 372
f 372 331 369
f 298 228 231
f 231 299 298
f 228 298 238
f 238 189 228
f 256 173 373
f 373 374 256
f 231 256 374
f 374 299 231
f 187 375 376
f 376 185 187
f 375 187 160
f 160 377 375
f 172 378 373
f 373 173 172
f 378 172 179
f 179 379 378
f 380 381 382
f 382 383 380
f 384 380 383
f 383 385 384
f 380 384 386
f 386 387 380
f 381 380 387
f 387 388 381
f 389 390 388
f 388 387 389
f 391 389 387
f 387 386 391
f 389 391 392
f 392 393 389
f 390 389 393
f 393 394 390
f 395 396 397
f 397 398 395
f 399 395 398
f 398 400 399
f 395 399 401
f 401 402 395
f 396 395 402
f 402 403 396
f 404 405 403
f 403 402 404
f 406 404 402
f 402 401 406
f 404 406 289
f 289 407 404
f 405 404 407
f 407 408 405
f 409 410 385
f 385 383 409
f 411 409 383
f 383 382 411
f 409 411 412
f 412 413 409
f 410 409 413
f 413 414 410
f 415 416 414
f 414 413 415
f 417 415 413
f 413 412 417
f 415 417 418
f 418 419 415
f 416 415 419
f 419 322 416
f 420 323 322
f 322 419 420
f 421 420 419
f 419 418 421
f 420 421 422
f 422 423 420
f 323 420 423
f 423 325 323
f 122 35 38
f 38 117 122
f 16 18 115
f 115 65 16
f 18 20 31
f 31 115 18
f 424 425 426
f 426 427 424
f 61 424 427
f 427 62 61
f 424 61 60
f 60 428 424
f 425 424 428
f 428 429 425
f 430 431 4
f 4 80 430
f 427 430 80
f 80 62 427
f 430 427 426
f 426 431 430
f 432 433 431
f 431 426 432
f 433 1 4
f 4 431 433
f 434 435 40
f 40 39 434
f 435 21 24
f 24 40 435
f 19 436 32
f 32 20 19
f 436 434 39
f 39 32 436
f 100 437 438
f 438 70 100
f 102 101 438
f 438 437 102
f 439 440 88
f 88 10 439
f 70 438 440
f 440 71 70
f 101 88 440
f 440 438 101
f 441 442 73
f 73 72 441
f 442 11 14
f 14 73 442
f 9 443 439
f 439 10 9
f 443 441 72
f 72 439 443
f 110 75 76
f 76 79 110
f 113 89 75
f 75 110 113
f 216 212 444
f 444 445 216
f 218 216 445
f 445 446 218
f 222 218 446
f 446 447 222
f 224 222 447
f 447 448 224
f 449 450 100
f 100 98 449
f 451 449 98
f 98 99 451
f 449 451 310
f 310 452 449
f 450 449 452
f 452 313 450
f 453 454 108
f 108 119 453
f 455 453 119
f 119 118 455
f 453 455 265
f 265 267 453
f 454 453 267
f 267 271 454
f 456 455 118
f 118 106 456
f 457 456 106
f 106 105 457
f 456 457 259
f 259 258 456
f 455 456 258
f 258 265 455
f 458 459 96
f 96 460 458
f 461 458 460
f 460 253 461
f 458 461 251
f 251 462 458
f 459 458 462
f 462 304 459
f 463 464 127
f 127 129 463
f 465 463 129
f 129 130 465
f 463 465 466
f 466 467 463
f 464 463 467
f 467 448 464
f 468 469 94
f 94 121 468
f 470 468 121
f 121 122 470
f 468 470 444
f 444 471 468
f 469 468 471
f 471 254 469
f 472 470 122
f 122 117 472
f 473 472 117
f 117 116 473
f 472 473 446
f 446 445 472
f 470 472 445
f 445 444 470
f 474 473 116
f 116 126 474
f 464 474 126
f 126 127 464
f 474 464 448
f 448 447 474
f 473 474 447
f 447 446 473
f 475 476 109
f 109 107 475
f 454 475 107
f 107 108 454
f 475 454 271
f 271 273 475
f 476 475 273
f 273 277 476
f 477 478 102
f 102 437 477
f 450 477 437
f 437 100 450
f 477 450 313
f 313 312 477
f 478 477 312
f 312 319 478
f 479 480 111
f 111 114 479
f 476 479 114
f 114 109 476
f 479 476 277
f 277 279 479
f 480 479 279
f 279 283 480
f 481 123 111
f 111 480 481
f 482 481 480
f 480 283 482
f 481 482 483
f 483 484 481
f 123 481 484
f 484 124 123
f 181 185 376
f 376 485 181
f 179 181 485
f 485 379 179
f 157 156 486
f 486 487 157
f 160 157 487
f 487 377 160
f 488 489 255
f 255 230 488
f 489 175 174
f 174 255 489
f 197 490 229
f 229 192 197
f 490 488 230
f 230 229 490
f 491 248 132
f 132 135 491
f 491 194 193
f 193 248 491
f 492 493 343
f 343 341 492
f 494 492 341
f 341 340 494
f 492 494 495
f 495 496 492
f 493 492 496
f 496 497 493
f 498 342 343
f 343 499 498
f 500 498 499
f 499 501 500
f 498 500 502
f 502 503 498
f 342 498 503
f 503 344 342
f 504 351 352
f 352 505 504
f 506 504 505
f 505 507 506
f 504 506 508
f 508 509 504
f 351 504 509
f 509 353 351
f 510 358 353
f 353 509 510
f 511 510 509
f 509 508 511
f 510 511 512
f 512 513 510
f 358 510 513
f 513 359 358
f 514 364 359
f 359 513 514
f 515 514 513
f 513 512 515
f 514 515 516
f 516 517 514
f 364 514 517
f 517 365 364
f 518 370 365
f 365 517 518
f 519 518 517
f 517 516 519
f 518 519 328
f 328 520 518
f 370 518 520
f 520 371 370
f 521 522 523
f 523 524 521
f 246 521 524
f 524 245 246
f 521 246 247
f 247 525 521
f 522 521 525
f 525 526 522
f 527 528 243
f 243 244 527
f 524 527 244
f 244 245 524
f 527 524 523
f 523 529 527
f 528 527 529
f 529 530 528
f 531 532 533
f 533 534 531
f 348 531 534
f 534 349 348
f 531 348 355
f 355 535 531
f 532 531 535
f 535 536 532
f 537 538 536
f 536 535 537
f 357 537 535
f 535 355 357
f 537 357 361
f 361 539 537
f 538 537 539
f 539 540 538
f 541 542 540
f 540 539 541
f 363 541 539
f 539 361 363
f 541 363 367
f 367 543 541
f 542 541 543
f 543 544 542
f 545 546 544
f 544 543 545
f 369 545 543
f 543 367 369
f 545 369 331
f 331 330 545
f 546 545 330
f 330 337 546
f 547 548 549
f 549 550 547
f 339 547 550
f 550 340 339
f 547 339 346
f 346 551 547
f 548 547 551
f 551 552 548
f 553 554 530
f 530 529 553
f 555 553 529
f 529 523 555
f 553 555 495
f 495 556 553
f 554 553 556
f 556 557 554
f 206 558 236
f 236 201 206
f 558 154 153
f 153 236 558
f 559 460 96
f 96 95 559
f 469 559 95
f 95 94 469
f 559 469 254
f 254 252 559
f 460 559 252
f 252 253 460
f 560 288 289
f 289 406 560
f 561 560 406
f 406 401 561
f 560 561 501
f 501 562 560
f 288 560 562
f 562 290 288
f 563 564 557
f 557 565 563
f 566 563 565
f 565 549 566
f 563 566 316
f 316 567 563
f 564 563 567
f 567 308 564
f 568 407 289
f 289 287 568
f 297 568 287
f 287 286 297
f 568 297 301
f 301 569 568
f 407 568 569
f 569 408 407
f 570 496 495
f 495 555 570
f 522 570 555
f 555 523 522
f 570 522 526
f 526 571 570
f 496 570 571
f 571 497 496
f 572 556 495
f 495 494 572
f 550 572 494
f 494 340 550
f 572 550 549
f 549 565 572
f 556 572 565
f 565 557 556
f 573 451 99
f 99 97 573
f 459 573 97
f 97 96 459
f 573 459 304
f 304 303 573
f 451 573 303
f 303 310 451
f 574 457 105
f 105 103 574
f 478 574 103
f 103 102 478
f 574 478 319
f 319 575 574
f 457 574 575
f 575 259 457
f 576 551 346
f 346 577 576
f 534 576 577
f 577 349 534
f 576 534 533
f 533 578 576
f 551 576 578
f 578 552 551
f 579 580 400
f 400 581 579
f 582 579 581
f 581 392 582
f 579 582 507
f 507 583 579
f 580 579 583
f 583 502 580
f 584 393 392
f 392 581 584
f 398 584 581
f 581 400 398
f 584 398 397
f 397 585 584
f 393 584 585
f 585 394 393
f 586 345 344
f 344 587 586
f 350 586 587
f 587 352 350
f 586 350 349
f 349 577 586
f 345 586 577
f 577 346 345
f 588 589 552
f 552 578 588
f 590 588 578
f 578 533 590
f 588 590 262
f 262 591 588
f 589 588 591
f 591 317 589
f 140 592 491
f 491 135 140
f 592 195 194
f 194 491 592
f 237 152 251
f 251 461 237
f 198 237 461
f 461 253 198
f 593 462 251
f 251 250 593
f 594 593 250
f 250 242 594
f 593 594 307
f 307 305 593
f 462 593 305
f 305 304 462
f 210 202 254
f 254 471 210
f 212 210 471
f 471 444 212
f 595 291 290
f 290 596 595
f 571 595 596
f 596 497 571
f 595 571 526
f 526 597 595
f 291 595 597
f 597 292 291
f 598 500 501
f 501 561 598
f 399 598 561
f 561 401 399
f 598 399 400
f 400 580 598
f 500 598 580
f 580 502 500
f 599 506 507
f 507 582 599
f 391 599 582
f 582 392 391
f 599 391 386
f 386 600 599
f 506 599 600
f 600 508 506
f 601 511 508
f 508 600 601
f 384 601 600
f 600 386 384
f 601 384 385
f 385 602 601
f 511 601 602
f 602 512 511
f 603 515 512
f 512 602 603
f 410 603 602
f 602 385 410
f 603 410 414
f 414 604 603
f 515 603 604
f 604 516 515
f 605 519 516
f 516 604 605
f 416 605 604
f 604 414 416
f 605 416 322
f 322 321 605
f 519 605 321
f 321 328 519
f 606 562 501
f 501 499 606
f 493 606 499
f 499 343 493
f 606 493 497
f 497 596 606
f 562 606 596
f 596 290 562
f 607 583 507
f 507 505 607
f 587 607 505
f 505 352 587
f 607 587 344
f 344 503 607
f 583 607 503
f 503 502 583
f 608 295 292
f 292 597 608
f 525 608 597
f 597 526 525
f 608 525 247
f 247 249 608
f 295 608 249
f 249 240 295
f 299 374 609
f 609 610 299
f 374 373 611
f 611 609 374
f 486 612 613
f 613 614 486
f 612 615 616
f 616 613 612
f 376 375 617
f 617 618 376
f 375 377 619
f 619 617 375
f 379 485 620
f 620 621 379
f 485 376 618
f 618 620 485
f 373 378 622
f 622 611 373
f 378 379 621
f 621 622 378
f 382 381 623
f 623 624 382
f 381 388 625
f 625 623 381
f 388 390 626
f 626 625 388
f 390 394 627
f 627 626 390
f 397 396 628
f 628 629 397
f 396 403 630
f 630 628 396
f 408 569 631
f 631 632 408
f 569 301 633
f 633 631 569
f 301 300 634
f 634 633 301
f 300 299 610
f 610 634 300
f 412 411 635
f 635 636 412
f 411 382 624
f 624 635 411
f 418 417 637
f 637 638 418
f 417 412 636
f 636 637 417
f 377 487 639
f 639 619 377
f 487 486 614
f 614 639 487
f 403 405 640
f 640 630 403
f 405 408 632
f 632 640 405
f 394 585 641
f 641 627 394
f 585 397 629
f 629 641 585
f 642 643 425
f 425 429 642
f 643 432 426
f 426 425 643
f 131 128 47
f 47 644 131
f 45 44 47
f 47 128 45
f 645 646 233
f 233 234 645
f 646 226 225
f 225 233 646
f 232 224 448
f 448 467 232
f 235 232 467
f 467 466 235
f 166 170 615
f 615 612 166
f 156 166 612
f 612 486 156
f 647 648 334
f 334 332 647
f 372 647 332
f 332 331 372
f 647 372 371
f 371 649 647
f 648 647 649
f 649 650 648
f 651 652 483
f 483 482 651
f 282 651 482
f 482 283 282
f 651 282 281
f 281 653 651
f 652 651 653
f 653 654 652
f 655 656 650
f 650 649 655
f 520 655 649
f 649 371 520
f 655 520 328
f 328 327 655
f 656 655 327
f 327 326 656
f 422 421 657
f 657 658 422
f 421 418 638
f 638 657 421
f 659 660 661
f 661 662 659
f 660 663 664
f 664 661 660
f 663 665 666
f 666 664 663
f 665 667 668
f 668 666 665
f 669 670 671
f 671 672 669
f 670 673 674
f 674 671 670
f 673 675 676
f 676 674 673
f 675 677 678
f 678 676 675
f 679 680 681
f 681 682 679
f 680 683 684
f 684 681 680
f 683 685 686
f 686 684 683
f 30 29 686
f 686 685 30
f 687 688 689
f 689 690 687
f 688 691 692
f 692 689 688
f 693 694 689
f 689 692 693
f 691 695 696
f 696 692 691
f 679 697 696
f 696 698 679
f 699 700 698
f 698 701 699
f 699 702 703
f 703 700 699
f 683 680 700
f 700 703 683
f 702 704 705
f 705 703 702
f 685 705 644
f 644 30 685
f 706 707 708
f 708 709 706
f 52 53 708
f 708 707 52
f 710 707 706
f 706 711 710
f 707 710 54
f 54 52 707
f 712 710 711
f 711 713 712
f 714 712 713
f 713 715 714
f 712 714 60
f 60 59 712
f 710 712 59
f 59 54 710
f 716 717 718
f 718 719 716
f 716 720 721
f 721 717 716
f 670 717 721
f 721 673 670
f 698 696 695
f 695 701 698
f 722 723 724
f 724 725 722
f 726 724 718
f 718 669 726
f 715 713 727
f 727 728 715
f 659 729 730
f 730 731 659
f 732 733 734
f 734 731 732
f 660 734 735
f 735 663 660
f 663 735 736
f 736 665 663
f 711 706 737
f 737 738 711
f 709 739 737
f 737 706 709
f 740 735 734
f 734 733 740
f 720 741 742
f 742 743 720
f 687 743 742
f 742 744 687
f 745 746 723
f 723 722 745
f 747 740 748
f 748 749 747
f 750 751 752
f 752 753 750
f 718 724 723
f 723 719 718
f 754 736 747
f 747 755 754
f 735 740 747
f 747 736 735
f 737 739 756
f 756 757 737
f 756 758 757
f 759 760 730
f 730 728 759
f 732 731 730
f 730 760 732
f 761 743 687
f 687 690 761
f 761 721 720
f 720 743 761
f 709 708 762
f 762 739 709
f 53 125 762
f 762 708 53
f 755 747 749
f 749 763 755
f 764 765 716
f 716 719 764
f 765 741 720
f 720 716 765
f 744 766 688
f 688 687 744
f 691 688 766
f 766 767 691
f 756 739 762
f 762 768 756
f 768 762 125
f 125 124 768
f 750 757 758
f 758 751 750
f 769 770 760
f 760 759 769
f 770 771 732
f 732 760 770
f 771 772 733
f 733 732 771
f 748 740 733
f 733 772 748
f 773 774 699
f 699 701 773
f 774 775 702
f 702 699 774
f 775 776 704
f 704 702 775
f 130 131 704
f 704 776 130
f 777 778 779
f 779 780 777
f 778 781 782
f 782 779 778
f 783 784 779
f 779 782 783
f 784 785 780
f 780 779 784
f 786 787 788
f 788 789 786
f 787 790 791
f 791 788 787
f 792 793 788
f 788 791 792
f 793 794 789
f 789 788 793
f 794 795 796
f 796 789 794
f 795 797 798
f 798 796 795
f 799 800 796
f 796 798 799
f 800 786 789
f 789 796 800
f 801 802 803
f 803 804 801
f 804 805 806
f 806 801 804
f 801 806 807
f 807 808 801
f 808 809 802
f 802 801 808
f 803 810 811
f 811 804 803
f 810 170 169
f 169 811 810
f 168 812 811
f 811 169 168
f 812 805 804
f 804 811 812
f 813 814 815
f 815 816 813
f 814 817 818
f 818 815 814
f 819 820 815
f 815 818 819
f 820 821 816
f 816 815 820
f 817 822 823
f 823 818 817
f 822 824 825
f 825 823 822
f 826 827 823
f 823 825 826
f 827 819 818
f 818 823 827
f 824 828 829
f 829 825 824
f 828 809 808
f 808 829 828
f 807 830 829
f 829 808 807
f 830 826 825
f 825 829 830
f 831 832 833
f 833 834 831
f 832 835 836
f 836 833 832
f 837 838 833
f 833 836 837
f 838 839 834
f 834 833 838
f 840 841 842
f 842 843 840
f 843 844 845
f 845 840 843
f 840 845 846
f 846 847 840
f 847 848 841
f 841 840 847
f 790 849 850
f 850 791 790
f 849 783 782
f 782 850 849
f 781 851 850
f 850 782 781
f 851 792 791
f 791 850 851
f 846 852 853
f 853 847 846
f 852 854 855
f 855 853 852
f 856 857 853
f 853 855 856
f 857 848 847
f 847 853 857
f 854 858 859
f 859 855 854
f 858 860 861
f 861 859 858
f 862 863 859
f 859 861 862
f 863 856 855
f 855 859 863
f 860 864 865
f 865 861 860
f 864 866 867
f 867 865 864
f 868 869 865
f 865 867 868
f 869 862 861
f 861 865 869
f 870 871 872
f 872 873 870
f 871 834 839
f 839 872 871
f 874 875 868
f 868 867 874
f 234 235 875
f 875 874 234
f 842 876 877
f 877 843 842
f 877 876 799
f 799 798 877
f 838 878 879
f 879 839 838
f 878 838 837
f 837 880 878
f 881 882 883
f 883 884 881
f 885 881 884
f 884 886 885
f 881 885 887
f 887 888 881
f 882 881 888
f 888 889 882
f 787 786 883
f 883 882 787
f 790 787 882
f 882 889 790
f 849 790 889
f 889 890 849
f 783 849 890
f 890 891 783
f 784 783 891
f 891 892 784
f 785 784 892
f 892 893 785
f 894 785 893
f 893 895 894
f 837 894 895
f 895 880 837
f 896 894 837
f 837 836 896
f 800 799 897
f 897 898 800
f 786 800 898
f 898 883 786
f 841 848 899
f 899 900 841
f 842 841 900
f 900 901 842
f 873 902 903
f 903 870 873
f 813 816 903
f 903 902 813
f 904 905 906
f 906 907 904
f 908 904 907
f 907 909 908
f 904 908 910
f 910 911 904
f 905 904 911
f 911 912 905
f 913 908 909
f 909 914 913
f 915 913 914
f 914 916 915
f 913 915 917
f 917 918 913
f 908 913 918
f 918 910 908
f 919 915 916
f 916 920 919
f 921 919 920
f 920 922 921
f 919 921 923
f 923 924 919
f 915 919 924
f 924 917 915
f 925 921 922
f 922 926 925
f 927 925 926
f 926 928 927
f 925 927 929
f 929 930 925
f 921 925 930
f 930 923 921
f 931 932 933
f 933 934 931
f 935 931 934
f 934 936 935
f 931 935 937
f 937 938 931
f 932 931 938
f 938 939 932
f 940 934 933
f 933 941 940
f 878 940 941
f 941 879 878
f 940 878 880
f 880 942 940
f 934 940 942
f 942 936 934
f 943 941 933
f 933 944 943
f 945 943 944
f 944 946 945
f 943 945 947
f 947 948 943
f 941 943 948
f 948 879 941
f 949 950 951
f 951 952 949
f 953 949 952
f 952 954 953
f 949 953 955
f 955 956 949
f 950 949 956
f 956 886 950
f 957 958 959
f 959 960 957
f 961 957 960
f 960 962 961
f 957 961 963
f 963 964 957
f 958 957 964
f 964 965 958
f 966 967 968
f 968 969 966
f 970 966 969
f 969 971 970
f 966 970 326
f 326 324 966
f 967 966 324
f 324 325 967
f 972 973 974
f 974 975 972
f 976 972 975
f 975 977 976
f 972 976 335
f 335 333 972
f 973 972 333
f 333 334 973
f 978 979 980
f 980 981 978
f 982 978 981
f 981 983 982
f 978 982 984
f 984 985 978
f 979 978 985
f 985 986 979
f 987 988 989
f 989 990 987
f 991 987 990
f 990 992 991
f 987 991 993
f 993 994 987
f 988 987 994
f 994 995 988
f 996 991 992
f 992 997 996
f 998 996 997
f 997 999 998
f 996 998 1000
f 1000 1001 996
f 991 996 1001
f 1001 993 991
f 1002 998 999
f 999 1003 1002
f 1004 1002 1003
f 1003 1005 1004
f 1002 1004 1006
f 1006 1007 1002
f 998 1002 1007
f 1007 1000 998
f 1008 1004 1005
f 1005 1009 1008
f 1010 1008 1009
f 1009 974 1010
f 1008 1010 1011
f 1011 1012 1008
f 1004 1008 1012
f 1012 1006 1004
f 872 839 879
f 879 948 872
f 873 872 948
f 948 947 873
f 1013 902 873
f 873 947 1013
f 902 1013 1014
f 1014 813 902
f 828 824 1015
f 1015 1016 828
f 809 828 1016
f 1016 1017 809
f 814 813 1014
f 1014 1018 814
f 817 814 1018
f 1018 1019 817
f 1020 1021 1022
f 1022 1023 1020
f 1024 1020 1023
f 1023 1025 1024
f 1020 1024 1026
f 1026 1027 1020
f 1021 1020 1027
f 1027 1028 1021
f 1029 1024 1025
f 1025 1030 1029
f 1031 1029 1030
f 1030 1032 1031
f 1029 1031 1033
f 1033 1034 1029
f 1024 1029 1034
f 1034 1026 1024
f 1035 1036 1037
f 1037 1038 1035
f 1039 1035 1038
f 1038 1040 1039
f 1035 1039 1041
f 1041 1042 1035
f 1036 1035 1042
f 1042 1043 1036
f 1044 1039 1040
f 1040 1045 1044
f 1046 1044 1045
f 1045 1047 1046
f 1044 1046 939
f 939 1048 1044
f 1039 1044 1048
f 1048 1041 1039
f 1049 1021 1028
f 1028 1050 1049
f 1051 1049 1050
f 1050 1052 1051
f 1049 1051 1053
f 1053 1054 1049
f 1021 1049 1054
f 1054 1022 1021
f 1055 1051 1052
f 1052 1056 1055
f 1057 1055 1056
f 1056 968 1057
f 1055 1057 1058
f 1058 1059 1055
f 1051 1055 1059
f 1059 1053 1051
f 1060 1057 968
f 968 967 1060
f 423 1060 967
f 967 325 423
f 1060 423 422
f 422 1061 1060
f 1057 1060 1061
f 1061 1058 1057
f 767 1062 695
f 695 691 767
f 1062 773 701
f 701 695 1062
f 673 721 761
f 761 675 673
f 1063 1064 1065
f 1065 1066 1063
f 428 1063 1066
f 1066 429 428
f 1063 428 60
f 60 714 1063
f 1064 1063 714
f 714 715 1064
f 1067 729 659
f 659 1068 1067
f 1064 1067 1068
f 1068 1065 1064
f 1067 1064 715
f 715 729 1067
f 1069 1065 1068
f 1068 1070 1069
f 662 1070 1068
f 1068 659 662
f 1071 693 697
f 697 1072 1071
f 682 1072 697
f 697 679 682
f 678 677 694
f 694 1073 678
f 693 1071 1073
f 1073 694 693
f 1074 1075 745
f 745 722 1074
f 755 763 1075
f 1075 1074 755
f 725 1076 1077
f 1077 1078 725
f 755 1074 1078
f 1078 754 755
f 722 725 1078
f 1078 1074 722
f 1079 1076 726
f 726 1080 1079
f 672 1080 726
f 726 669 672
f 668 667 1077
f 1077 1081 668
f 1076 1079 1081
f 1081 1077 1076
f 719 723 746
f 746 764 719
f 759 753 752
f 752 769 759
f 750 753 727
f 727 738 750
f 753 759 728
f 728 727 753
f 757 750 738
f 738 737 757
f 863 1082 1083
f 1083 856 863
f 1082 863 862
f 862 1084 1082
f 869 1085 1084
f 1084 862 869
f 1085 869 868
f 868 1086 1085
f 1087 746 745
f 745 1088 1087
f 1089 1087 1088
f 1088 959 1089
f 1087 1089 954
f 954 1090 1087
f 746 1087 1090
f 1090 764 746
f 1091 770 769
f 769 1092 1091
f 914 1091 1092
f 1092 916 914
f 1091 914 909
f 909 1093 1091
f 770 1091 1093
f 1093 771 770
f 1094 772 771
f 771 1093 1094
f 907 1094 1093
f 1093 909 907
f 1094 907 906
f 906 1095 1094
f 772 1094 1095
f 1095 748 772
f 1096 1097 741
f 741 1098 1096
f 1099 1096 1098
f 1098 951 1099
f 1096 1099 897
f 897 1100 1096
f 1097 1096 1100
f 1100 901 1097
f 1101 776 775
f 775 1102 1101
f 1103 1101 1102
f 1102 1086 1103
f 1101 1103 466
f 466 465 1101
f 776 1101 465
f 465 130 776
f 1104 766 744
f 744 1105 1104
f 1106 1104 1105
f 1105 899 1106
f 1104 1106 1083
f 1083 1107 1104
f 766 1104 1107
f 1107 767 766
f 1108 1062 767
f 767 1107 1108
f 1082 1108 1107
f 1107 1083 1082
f 1108 1082 1084
f 1084 1109 1108
f 1062 1108 1109
f 1109 773 1062
f 1110 774 773
f 773 1109 1110
f 1085 1110 1109
f 1109 1084 1085
f 1110 1085 1086
f 1086 1102 1110
f 774 1110 1102
f 1102 775 774
f 1111 752 751
f 751 1112 1111
f 920 1111 1112
f 1112 922 920
f 1111 920 916
f 916 1092 1111
f 752 1111 1092
f 1092 769 752
f 1113 1075 763
f 763 1114 1113
f 960 1113 1114
f 1114 962 960
f 1113 960 959
f 959 1088 1113
f 1075 1113 1088
f 1088 745 1075
f 1115 758 756
f 756 1116 1115
f 926 1115 1116
f 1116 928 926
f 1115 926 922
f 922 1112 1115
f 758 1115 1112
f 1112 751 758
f 1117 1116 756
f 756 768 1117
f 484 1117 768
f 768 124 484
f 1117 484 483
f 483 1118 1117
f 1116 1117 1118
f 1118 928 1116
f 822 1119 1015
f 1015 824 822
f 1119 822 817
f 817 1019 1119
f 802 1120 1121
f 1121 803 802
f 1120 802 809
f 809 1017 1120
f 816 821 1122
f 1122 903 816
f 903 1122 1123
f 1123 870 903
f 870 1123 1124
f 1124 871 870
f 871 1124 831
f 831 834 871
f 785 894 896
f 896 780 785
f 1125 979 986
f 986 1126 1125
f 1127 1125 1126
f 1126 1128 1127
f 1125 1127 1129
f 1129 1130 1125
f 979 1125 1130
f 1130 980 979
f 1131 1132 986
f 986 985 1131
f 1133 1131 985
f 985 984 1133
f 1131 1133 1134
f 1134 1135 1131
f 1132 1131 1135
f 1135 1136 1132
f 1137 1138 995
f 995 994 1137
f 1139 1137 994
f 994 993 1139
f 1137 1139 1140
f 1140 1141 1137
f 1138 1137 1141
f 1141 1142 1138
f 1143 1139 993
f 993 1001 1143
f 1144 1143 1001
f 1001 1000 1144
f 1143 1144 1145
f 1145 1146 1143
f 1139 1143 1146
f 1146 1140 1139
f 1147 1144 1000
f 1000 1007 1147
f 1148 1147 1007
f 1007 1006 1148
f 1147 1148 1149
f 1149 1150 1147
f 1144 1147 1150
f 1150 1145 1144
f 1151 1148 1006
f 1006 1012 1151
f 1152 1151 1012
f 1012 1011 1152
f 1151 1152 971
f 971 1153 1151
f 1148 1151 1153
f 1153 1149 1148
f 1154 1155 1156
f 1156 1157 1154
f 1158 1154 1157
f 1157 1159 1158
f 1154 1158 893
f 893 892 1154
f 1155 1154 892
f 892 891 1155
f 1160 890 889
f 889 888 1160
f 1161 1160 888
f 888 887 1161
f 1160 1161 1156
f 1156 1155 1160
f 890 1160 1155
f 1155 891 890
f 1162 1163 1164
f 1164 1165 1162
f 1166 1162 1165
f 1165 1167 1166
f 1162 1166 992
f 992 990 1162
f 1163 1162 990
f 990 989 1163
f 1168 1166 1167
f 1167 1169 1168
f 1170 1168 1169
f 1169 1171 1170
f 1168 1170 999
f 999 997 1168
f 1166 1168 997
f 997 992 1166
f 1172 1170 1171
f 1171 1173 1172
f 1174 1172 1173
f 1173 1175 1174
f 1172 1174 1005
f 1005 1003 1172
f 1170 1172 1003
f 1003 999 1170
f 1176 1174 1175
f 1175 1177 1176
f 975 1176 1177
f 1177 977 975
f 1176 975 974
f 974 1009 1176
f 1174 1176 1009
f 1009 1005 1174
f 1178 1179 1180
f 1180 1181 1178
f 1182 1178 1181
f 1181 1183 1182
f 1178 1182 983
f 983 981 1178
f 1179 1178 981
f 981 980 1179
f 1184 1161 887
f 887 1185 1184
f 1186 1184 1185
f 1185 1187 1186
f 1184 1186 1129
f 1129 1188 1184
f 1161 1184 1188
f 1188 1156 1161
f 798 797 1189
f 1189 877 798
f 877 1189 844
f 844 843 877
f 1190 742 741
f 741 1097 1190
f 900 1190 1097
f 1097 901 900
f 1190 900 899
f 899 1105 1190
f 742 1190 1105
f 1105 744 742
f 1191 1048 939
f 939 938 1191
f 1192 1191 938
f 938 937 1192
f 1191 1192 1136
f 1136 1193 1191
f 1048 1191 1193
f 1193 1041 1048
f 1194 1195 1187
f 1187 1196 1194
f 1197 1194 1196
f 1196 955 1197
f 1194 1197 965
f 965 1198 1194
f 1195 1194 1198
f 1198 1180 1195
f 1199 932 939
f 939 1046 1199
f 1200 1199 1046
f 1046 1047 1200
f 1199 1200 946
f 946 944 1199
f 932 1199 944
f 944 933 932
f 1201 1188 1129
f 1129 1127 1201
f 1202 1201 1127
f 1127 1128 1202
f 1201 1202 1159
f 1159 1157 1201
f 1188 1201 1157
f 1157 1156 1188
f 1203 1130 1129
f 1129 1186 1203
f 1195 1203 1186
f 1186 1187 1195
f 1203 1195 1180
f 1180 1179 1203
f 1130 1203 1179
f 1179 980 1130
f 1204 765 764
f 764 1090 1204
f 952 1204 1090
f 1090 954 952
f 1204 952 951
f 951 1098 1204
f 765 1204 1098
f 1098 741 765
f 1205 749 748
f 748 1095 1205
f 1206 1205 1095
f 1095 906 1206
f 1205 1206 962
f 962 1114 1205
f 749 1205 1114
f 1114 763 749
f 1207 1208 983
f 983 1182 1207
f 1209 1207 1182
f 1182 1183 1209
f 1207 1209 1164
f 1164 1163 1207
f 1208 1207 1163
f 1163 989 1208
f 1210 1211 1043
f 1043 1212 1210
f 1213 1210 1212
f 1212 1134 1213
f 1210 1213 1142
f 1142 1214 1210
f 1211 1210 1214
f 1214 1033 1211
f 1215 1211 1033
f 1033 1031 1215
f 1216 1215 1031
f 1031 1032 1216
f 1215 1216 1037
f 1037 1036 1215
f 1211 1215 1036
f 1036 1043 1211
f 1217 1218 984
f 984 982 1217
f 1208 1217 982
f 982 983 1208
f 1217 1208 989
f 989 988 1217
f 1218 1217 988
f 988 995 1218
f 1219 1209 1183
f 1183 1220 1219
f 1221 1219 1220
f 1220 963 1221
f 1219 1221 912
f 912 1222 1219
f 1209 1219 1222
f 1222 1164 1209
f 835 1223 896
f 896 836 835
f 1223 777 780
f 780 896 1223
f 876 1100 897
f 897 799 876
f 1100 876 842
f 842 901 1100
f 1224 898 897
f 897 1099 1224
f 950 1224 1099
f 1099 951 950
f 1224 950 886
f 886 884 1224
f 898 1224 884
f 884 883 898
f 857 1106 899
f 899 848 857
f 1106 857 856
f 856 1083 1106
f 1225 1226 937
f 937 935 1225
f 1227 1225 935
f 935 936 1227
f 1225 1227 1159
f 1159 1202 1225
f 1226 1225 1202
f 1202 1128 1226
f 1228 1193 1136
f 1136 1135 1228
f 1212 1228 1135
f 1135 1134 1212
f 1228 1212 1043
f 1043 1042 1228
f 1193 1228 1042
f 1042 1041 1193
f 1229 1214 1142
f 1142 1141 1229
f 1230 1229 1141
f 1141 1140 1230
f 1229 1230 1026
f 1026 1034 1229
f 1214 1229 1034
f 1034 1033 1214
f 1231 1230 1140
f 1140 1146 1231
f 1232 1231 1146
f 1146 1145 1232
f 1231 1232 1028
f 1028 1027 1231
f 1230 1231 1027
f 1027 1026 1230
f 1233 1232 1145
f 1145 1150 1233
f 1234 1233 1150
f 1150 1149 1234
f 1233 1234 1052
f 1052 1050 1233
f 1232 1233 1050
f 1050 1028 1232
f 1235 1234 1149
f 1149 1153 1235
f 969 1235 1153
f 1153 971 969
f 1235 969 968
f 968 1056 1235
f 1234 1235 1056
f 1056 1052 1234
f 1236 1132 1136
f 1136 1192 1236
f 1226 1236 1192
f 1192 937 1226
f 1236 1226 1128
f 1128 1126 1236
f 1132 1236 1126
f 1126 986 1132
f 1237 1138 1142
f 1142 1213 1237
f 1133 1237 1213
f 1213 1134 1133
f 1237 1133 984
f 984 1218 1237
f 1138 1237 1218
f 1218 995 1138
f 1238 1227 936
f 936 942 1238
f 895 1238 942
f 942 880 895
f 1238 895 893
f 893 1158 1238
f 1227 1238 1158
f 1158 1159 1227
f 947 1239 1240
f 1240 1013 947
f 1014 1013 1240
f 1240 1241 1014
f 1121 1242 1243
f 1243 1244 1121
f 616 615 1244
f 1244 1243 616
f 1015 1245 1246
f 1246 1016 1015
f 1017 1016 1246
f 1246 1247 1017
f 1019 1248 1249
f 1249 1119 1019
f 1245 1015 1119
f 1119 1249 1245
f 1014 1241 1250
f 1250 1018 1014
f 1248 1019 1018
f 1018 1250 1248
f 1022 1251 1252
f 1252 1023 1022
f 1025 1023 1252
f 1252 1253 1025
f 1025 1253 1254
f 1254 1030 1025
f 1032 1030 1254
f 1254 1255 1032
f 1037 1256 1257
f 1257 1038 1037
f 1040 1038 1257
f 1257 1258 1040
f 1047 1259 1260
f 1260 1200 1047
f 946 1200 1260
f 1260 1261 946
f 946 1261 1262
f 1262 945 946
f 1239 947 945
f 945 1262 1239
f 1053 1263 1264
f 1264 1054 1053
f 1251 1022 1054
f 1054 1264 1251
f 1058 1265 1266
f 1266 1059 1058
f 1263 1053 1059
f 1059 1266 1263
f 1017 1247 1267
f 1267 1120 1017
f 1242 1121 1120
f 1120 1267 1242
f 1040 1258 1268
f 1268 1045 1040
f 1259 1047 1045
f 1045 1268 1259
f 1032 1255 1269
f 1269 1216 1032
f 1256 1037 1216
f 1216 1269 1256
f 642 429 1066
f 1066 1270 642
f 1065 1069 1270
f 1270 1066 1065
f 131 644 705
f 705 704 131
f 866 1271 874
f 874 867 866
f 1271 645 234
f 234 874 1271
f 1103 875 235
f 235 466 1103
f 875 1103 1086
f 1086 868 875
f 810 1244 615
f 615 170 810
f 1244 810 803
f 803 1121 1244
f 1272 973 334
f 334 648 1272
f 1273 1272 648
f 648 650 1273
f 1272 1273 1011
f 1011 1010 1272
f 973 1272 1010
f 1010 974 973
f 1274 1118 483
f 483 652 1274
f 1275 1274 652
f 652 654 1275
f 1274 1275 929
f 929 927 1274
f 1118 1274 927
f 927 928 1118
f 1276 1273 650
f 650 656 1276
f 970 1276 656
f 656 326 970
f 1276 970 971
f 971 1152 1276
f 1273 1276 1152
f 1152 1011 1273
f 422 658 1277
f 1277 1061 422
f 1265 1058 1061
f 1061 1277 1265
f 34 33 32
f 32 39 34
f 41 37 40
f 40 24 41
f 44 43 23
f 23 26 44
f 644 47 28
f 28 30 644
f 65 63 13
f 13 16 65
f 14 64 68
f 68 73 14
f 77 76 58
f 58 62 77
f 82 81 80
f 80 4 82
f 87 85 3
f 3 6 87
f 53 48 120
f 120 125 53
f 72 71 440
f 440 439 72
f 677 690 689
f 689 694 677
f 693 692 696
f 696 697 693
f 679 698 700
f 700 680 679
f 683 703 705
f 705 685 683
f 718 717 670
f 670 669 718
f 725 724 726
f 726 1076 725
f 738 727 713
f 713 711 738
f 715 728 730
f 730 729 715
f 659 731 734
f 734 660 659
f 667 665 736
f 736 754 667
f 677 675 761
f 761 690 677
f 667 754 1078
f 1078 1077 667
f 1278 261 262
f 262 590 1278
f 532 1278 590
f 590 533 532
f 1278 532 536
f 536 1279 1278
f 261 1278 1279
f 1279 263 261
f 1280 268 263
f 263 1279 1280
f 538 1280 1279
f 1279 536 538
f 1280 538 540
f 540 1281 1280
f 268 1280 1281
f 1281 269 268
f 1282 274 269
f 269 1281 1282
f 542 1282 1281
f 1281 540 542
f 1282 542 544
f 544 1283 1282
f 274 1282 1283
f 1283 275 274
f 1284 280 275
f 275 1283 1284
f 546 1284 1283
f 1283 544 546
f 1284 546 337
f 337 1285 1284
f 280 1284 1285
f 1285 281 280
f 1286 306 307
f 307 1287 1286
f 554 1286 1287
f 1287 530 554
f 1286 554 557
f 557 564 1286
f 306 1286 564
f 564 308 306
f 1288 315 316
f 316 566 1288
f 548 1288 566
f 566 549 548
f 1288 548 552
f 552 589 1288
f 315 1288 589
f 589 317 315
f 1289 567 316
f 316 314 1289
f 452 1289 314
f 314 313 452
f 1289 452 310
f 310 309 1289
f 567 1289 309
f 309 308 567
f 1290 591 262
f 262 260 1290
f 575 1290 260
f 260 259 575
f 1290 575 319
f 319 318 1290
f 591 1290 318
f 318 317 591
f 1291 653 281
f 281 1285 1291
f 336 1291 1285
f 1285 337 336
f 1291 336 335
f 335 1292 1291
f 653 1291 1292
f 1292 654 653
f 1293 911 910
f 910 1294 1293
f 1165 1293 1294
f 1294 1167 1165
f 1293 1165 1164
f 1164 1222 1293
f 911 1293 1222
f 1222 912 911
f 1295 918 917
f 917 1296 1295
f 1169 1295 1296
f 1296 1171 1169
f 1295 1169 1167
f 1167 1294 1295
f 918 1295 1294
f 1294 910 918
f 1297 924 923
f 923 1298 1297
f 1173 1297 1298
f 1298 1175 1173
f 1297 1173 1171
f 1171 1296 1297
f 924 1297 1296
f 1296 917 924
f 1299 930 929
f 929 1300 1299
f 1177 1299 1300
f 1300 977 1177
f 1299 1177 1175
f 1175 1298 1299
f 930 1299 1298
f 1298 923 930
f 1301 956 955
f 955 1196 1301
f 1185 1301 1196
f 1196 1187 1185
f 1301 1185 887
f 887 885 1301
f 956 1301 885
f 885 886 956
f 1302 964 963
f 963 1220 1302
f 1181 1302 1220
f 1220 1183 1181
f 1302 1181 1180
f 1180 1198 1302
f 964 1302 1198
f 1198 965 964
f 1303 1197 955
f 955 953 1303
f 1089 1303 953
f 953 954 1089
f 1303 1089 959
f 959 958 1303
f 1197 1303 958
f 958 965 1197
f 1304 1221 963
f 963 961 1304
f 1206 1304 961
f 961 962 1206
f 1304 1206 906
f 906 905 1304
f 1221 1304 905
f 905 912 1221
f 1305 1275 654
f 654 1292 1305
f 976 1305 1292
f 1292 335 976
f 1305 976 977
f 977 1300 1305
f 1275 1305 1300
f 1300 929 1275
f 1306 594 242
f 242 241 1306
f 528 1306 241
f 241 243 528
f 1306 528 530
f 530 1287 1306
f 594 1306 1287
f 1287 307 594
f 1323 1322 1331
f 1331 1330 1354
f 1354 1346 1347
f 1331 1354 1347
f 1347 1333 1332
f 1332 1334 1335
f 1347 1332 1335
f 1335 1336 1353
f 1353 1351 1352
f 1335 1353 1352
f 1347 1335 1352
f 1352 1338 1337
f 1337 1339 1340
f 1352 1337 1340
f 1340 1341 1350
f 1350 1348 1349
f 1340 1350 1349
f 1352 1340 1349
f 1349 1343 1342
f 1342 1344 1345
f 1349 1342 1345
f 1345 1321 1320
f 1320 1319 1318
f 1345 1320 1318
f 1349 1345 1318
f 1352 1349 1318
f 1318 1317 1325
f 1325 1324 1326
f 1318 1325 1326
f 1326 1316 1315
f 1315 1314 1313
f 1326 1315 1313
f 1318 1326 1313
f 1313 1312 1328
f 1328 1327 1329
f 1313 1328 1329
f 1329 1311 1310
f 1310 1309 1308
f 1329 1310 1308
f 1313 1329 1308
f 1318 1313 1308
f 1352 1318 1308
f 1347 1352 1308
f 1331 1347 1308
f 1323 1331 1308
f 1307 1323 1308
f 1408 1407 1416
f 1386 1381 1379
f 1414 1386 1379
f 1415 1395 1394
f 1392 1415 1394
f 1383 1392 1394
f 1394 1393 1397
f 1397 1396 1398
f 1394 1397 1398
f 1398 1390 1389
f 1389 1388 1410
f 1398 1389 1410
f 1384 1376 1375
f 1372 1384 1375
f 1375 1377 1378
f 1410 1408 1416
f 1416 1406 1405
f 1405 1404 1417
f 1416 1405 1417
f 1366 1365 1364
f 1414 1413 1418
f 1418 1387 1386
f 1414 1418 1386
f 1364 1362 1361
f 1361 1363 1383
f 1364 1361 1383
f 1383 1359 1358
f 1358 1360 1392
f 1383 1358 1392
f 1392 1391 1415
f 1394 1398 1410
f 1410 1409 1408
f 1381 1380 1379
f 1370 1385 1372
f 1379 1370 1372
f 1383 1394 1355
f 1394 1417 1355
f 1366 1364 1355
f 1364 1383 1355
f 1417 1379 1355
f 1357 1366 1355
f 1370 1371 1385
f 1367 1369 1370
f 1385 1373 1372
f 1372 1374 1384
f 1379 1367 1370
f 1379 1368 1367
f 1417 1414 1379
f 1378 1356 1355
f 1402 1401 1400
f 1417 1403 1402
f 1375 1378 1355
f 1394 1410 1417
f 1372 1375 1355
f 1379 1372 1355
f 1410 1416 1417
f 1417 1402 1400
f 1400 1412 1414
f 1412 1411 1414
f 1400 1399 1412
f 1417 1400 1414
f 1386 1382 1381
f 1474 1473 1475
f 1426 1453 1455
f 1459 1467 1453
f 1453 1439 1455
f 1459 1458 1493
f 1439 1438 1455
f 1492 1462 1459
f 1462 1482 1459
f 1482 1460 1459
f 1487 1492 1459
f 1492 1464 1462
f 1464 1463 1462
f 1492 1465 1464
f 1435 1434 1433
f 1437 1436 1435
f 1467 1430 1437
f 1430 1428 1437
f 1462 1461 1482
f 1467 1466 1469
f 1467 1437 1453
f 1433 1452 1453
f 1437 1433 1453
f 1433 1432 1452
f 1437 1435 1433
f 1469 1431 1430
f 1452 1451 1453
f 1475 1468 1467
f 1459 1489 1467
f 1474 1475 1467
f 1489 1474 1467
f 1489 1471 1474
f 1444 1423 1426
f 1454 1443 1442
f 1426 1425 1454
f 1442 1441 1446
f 1446 1445 1448
f 1442 1446 1448
f 1485 1484 1483
f 1487 1485 1483
f 1487 1486 1485
f 1459 1493 1477
f 1426 1454 1442
f 1420 1419 1444
f 1444 1424 1423
f 1423 1422 1426
f 1493 1478 1477
f 1477 1476 1491
f 1487 1483 1492
f 1483 1480 1492
f 1480 1479 1492
f 1483 1481 1480
f 1428 1427 1437
f 1430 1429 1428
f 1467 1469 1430
f 1426 1448 1487
f 1448 1457 1487
f 1457 1494 1487
f 1494 1488 1487
f 1457 1456 1494
f 1448 1450 1457
f 1450 1449 1457
f 1448 1447 1450
f 1426 1442 1448
f 1489 1472 1471
f 1459 1477 1489
f 1477 1491 1489
f 1491 1490 1489
f 1453 1440 1439
f 1426 1487 1453
f 1487 1459 1453
f 1444 1426 1455
f 1420 1444 1455
f 1421 1420 1455
f 1471 1470 1474

